<?xml version="1.0" encoding="utf-8"?>
<!-- Generator: Adobe Illustrator 14.0.0, SVG Export Plug-In . SVG Version: 6.00 Build 43363)  -->
<!DOCTYPE svg PUBLIC "-//W3C//DTD SVG 1.1//EN" "http://www.w3.org/Graphics/SVG/1.1/DTD/svg11.dtd">
<svg version="1.1" id="レイヤー_1" xmlns="http://www.w3.org/2000/svg" xmlns:xlink="http://www.w3.org/1999/xlink" x="0px"
	 y="0px" width="300" height="300" viewBox="0 0 326.245 251.185" enable-background="new 0 0 326.245 251.185"
	 xml:space="preserve">
<g>
	<g>
		<path d="M38.746,28.826c1.763-0.017,3.392-0.664,4.584-1.824c1.085-1.055,1.674-2.425,1.658-3.856
			c-0.035-3.068-2.864-5.564-6.307-5.564c-1.831,0.017-3.46,0.664-4.653,1.824c-1.085,1.055-1.673,2.424-1.657,3.855
			c0.035,3.069,2.865,5.566,6.309,5.566"/>
		<path d="M41.75,11.313l-13.246,3.493l-3.261,12.065l9.985,8.573l13.246-3.493l3.261-12.065L41.75,11.313z M44.759,28.334
			c-1.567,1.524-3.696,2.375-5.994,2.396l-0.085,0c-4.534,0-8.262-3.342-8.309-7.45c-0.022-1.94,0.769-3.79,2.228-5.208
			c1.567-1.524,3.697-2.375,5.996-2.396c4.62,0,8.346,3.341,8.393,7.448C47.01,25.065,46.219,26.916,44.759,28.334z"/>
	</g>
	<polygon points="25.243,28.092 34.851,36.516 34.851,42.563 25.543,34.007 	"/>
	<polygon points="35.778,36.358 48.333,33.233 48.333,39.301 35.778,42.563 	"/>
	<polygon points="49.189,32.848 49.189,38.69 52.329,27.819 52.329,20.821 	"/>
	<path d="M35.353,43.893l-5.168-4.304L27.458,55.95c0,0-1.485,5.659,4.675,6.354c6.145,0.693,7.147-4.005,7.147-4.005l3.682-16.49
		L35.353,43.893z M38.163,59.015c-0.123,0.35-1.21,0.873-2.315,1.248c-0.628,0.213-1.539,0.297-3.112,0.076
		c-1.518-0.213-2.806-0.792-3.744-1.824c-0.554-0.609-0.658-1.202-0.652-1.242l0.296-2.085c-0.004,0.025,0.328,1.469,1.064,2.215
		c0.831,0.842,1.592,1.582,3.178,1.8c3.871,0.533,5.679-1.93,5.699-2.001L38.163,59.015z M38.892,55.19
		c-0.123,0.35-1.21,0.873-2.315,1.248c-0.628,0.213-1.539,0.297-3.112,0.076c-1.518-0.213-2.806-0.791-3.744-1.824
		c-0.554-0.609-0.658-1.202-0.651-1.242l0.295-2.085c-0.004,0.024,0.328,1.469,1.064,2.215c0.831,0.841,1.592,1.581,3.179,1.799
		c3.87,0.533,5.678-1.93,5.699-2.001L38.892,55.19z M37.41,52.323c-0.629,0.213-1.539,0.296-3.112,0.076
		c-1.518-0.213-2.806-0.791-3.744-1.824c-0.554-0.61-0.659-1.203-0.652-1.243l0.296-2.085c-0.004,0.025,0.328,1.47,1.064,2.215
		c0.831,0.842,1.592,1.582,3.178,1.8c3.87,0.533,5.679-1.931,5.699-2.002l-0.415,1.815C39.603,51.425,38.515,51.948,37.41,52.323z"
		/>
</g>
<g>
	<path d="M221.567,239.454c0,1.566-1.27,2.834-2.835,2.834h-73.351c-1.564,0-2.834-1.268-2.834-2.834v-12.898
		c0-1.564,1.27-2.834,2.834-2.834h73.351c1.565,0,2.835,1.27,2.835,2.834V239.454z"/>
	<g>
		<path d="M179.474,211.402c-2.477,0-4.492,2.015-4.492,4.491s2.016,4.492,4.492,4.492s4.492-2.016,4.492-4.492
			S181.95,211.402,179.474,211.402z"/>
		<path d="M207.814,220.537c0,0-4.847,0.048-6.308-0.753c-1.049-0.575-1.702-1.975-1.049-2.455c0.76-0.561,1.094-0.006,3.511-2.579
			c2.417-2.575,2.197-6.985,2.197-6.985s-3.257,1.757-4.696,2.062c-2.252,0.478-2.696-0.931-2.355-1.542
			c0.417-0.746,0.938-0.344,2.474-2.803c2.452-3.924-1.635-8.909-1.635-8.909s-0.903,3.095-2.273,4.601
			c-2.058,2.266-2.976,0.803-3.062,0.244c-0.189-1.251,0.482-0.731,0.432-3.946c-0.082-5.148-4.375-7.917-4.375-7.917
			s-0.653,3.364-1.234,5.111c-0.742,2.225-1.631,1.631-1.832,1.396c-0.73-0.849,0.305-0.913-1.836-3.896
			c-2.437-3.391-7.376-4.095-7.376-4.095s1.54,3.364,1.731,5.11s-1.084,1.541-1.564,1.268c-0.822-0.467-0.125-1.277-2.846-3.078
			c-3.198-2.115-8.821-1.48-8.821-1.48s3.257,2.467,4.234,4.246c0.858,1.562,0.415,2.285-0.403,2.373
			c-1.266,0.135-0.832-0.521-3.17-1.438c-4.711-1.849-10.668,0.499-10.668,0.499s4.705,1.656,6.365,3.537
			c1.367,1.548,0.757,2.104,0.488,2.417s-0.347,0.286-3.268,0.118c-4.33-0.247-8.581,3.512-8.581,3.512s4.495,0.165,6.479,1.295
			c1.834,1.043,1.652,1.836,1.34,2.373c-0.314,0.537-0.847,0.427-3.645,1.764c-2.799,1.337-4.936,5.859-4.936,5.859
			s3.582-0.646,5.428-0.485s1.904,0.788,1.854,1.37c-0.09,1.029-0.872,1.322-2.453,3.26c-0.213,0.26-0.389,0.528-0.559,0.797h13.4
			c-0.852-1.648-1.342-3.513-1.342-5.492c0-6.623,5.389-12.011,12.012-12.011s12.012,5.388,12.012,12.011
			c0,1.979-0.49,3.844-1.342,5.492h17.076C207.622,220.882,207.814,220.537,207.814,220.537z"/>
		<path d="M172.981,215.893c0-3.579,2.912-6.491,6.492-6.491s6.492,2.912,6.492,6.491c0,2.313-1.221,4.342-3.047,5.492h4.916
			c1.039-1.578,1.65-3.465,1.65-5.492c0-5.52-4.492-10.011-10.012-10.011s-10.012,4.491-10.012,10.011
			c0,2.027,0.611,3.914,1.65,5.492h4.916C174.202,220.235,172.981,218.207,172.981,215.893z"/>
	</g>
</g>
<g>
	<g>
		<path d="M155.734,113.888c-3.131-15.888-16.225-10.521-16.225-10.521l-24.292,5.191c4.839-0.486,12.056,26.277,12.056,26.277
			l22.361-7.089C149.634,127.748,158.085,125.827,155.734,113.888z"/>
	</g>
	<polygon fill="#FFFFFF" points="107.113,108.901 111.011,106.227 135.427,108.815 134.994,136.692 129.177,138.731 
		122.702,114.641 	"/>
	<g>
		<g>
			<polygon points="108.132,145.401 88.175,140.31 88.175,110.987 108.132,114.856 			"/>
			<polygon points="88.963,110.186 108.62,113.888 134.006,109.425 109.501,107.188 			"/>
			<polygon points="109.501,115.262 134.006,110.66 133.625,137.191 109.501,145.542 			"/>
		</g>
		<g>
			<g>
				<path fill="#FFFFFF" d="M97.348,118.872h-4.563c0,0-8.31-0.42-8.31,9.326c0,9.224,8.666,8.992,8.666,8.992l4.563-0.164
					c3.664,0,6.486-3.83,6.486-9.072C104.191,122.712,101.011,118.872,97.348,118.872z"/>
			</g>
			<g>
				<path d="M97.179,119.922l-4.037-0.161c3.359,0,5.936,3.772,5.936,8.228c0,4.453-2.478,8.279-5.837,8.279l3.938-0.215
					c3.359,0,6.082-3.611,6.082-8.064C103.261,123.534,100.539,119.922,97.179,119.922z"/>
			</g>
			<ellipse cx="91.418" cy="127.989" rx="6.082" ry="8.064"/>
			<path fill="#FFFFFF" d="M91.277,134.399c-2.418,0-4.385-2.781-4.385-6.201s1.967-6.201,4.385-6.201s4.384,2.781,4.384,6.201
				S93.695,134.399,91.277,134.399L91.277,134.399z M91.277,123.183c-1.733,0-3.197,2.296-3.197,5.015
				c0,2.717,1.464,5.014,3.197,5.014c1.732,0,3.196-2.297,3.196-5.014C94.473,125.479,93.009,123.183,91.277,123.183L91.277,123.183
				z"/>
			<g>
				<path d="M90.609,130.03h-8.925c-0.784,0-1.421-0.82-1.421-1.832c0-1.013,0.637-1.833,1.421-1.833h8.925
					c0.785,0,1.421,0.82,1.421,1.833C92.03,129.209,91.394,130.03,90.609,130.03L90.609,130.03z"/>
				<path fill="#FFFFFF" d="M90.609,130.569h-8.925c-1.079,0-1.958-1.064-1.958-2.371c0-1.308,0.879-2.371,1.958-2.371h8.925
					c1.08,0,1.959,1.063,1.959,2.371C92.568,129.504,91.689,130.569,90.609,130.569L90.609,130.569z M81.684,126.903
					c-0.479,0-0.882,0.594-0.882,1.295s0.403,1.295,0.882,1.295h8.925c0.479,0,0.883-0.594,0.883-1.295s-0.404-1.295-0.883-1.295
					H81.684L81.684,126.903z"/>
			</g>
		</g>
		<polygon points="137.208,141.088 102.058,152.811 102.134,148.942 136.871,136.981 		"/>
		<polygon points="101.398,149.03 101.398,152.811 94.707,150.75 94.707,147.308 		"/>
		<polygon points="89.527,145.264 89.527,149.264 82.923,146.868 82.923,143.448 		"/>
		<polygon points="87.915,140.625 82.923,142.934 89.719,144.844 93.142,143.038 99.003,144.543 95.035,146.8 101.33,148.477 
			108.132,146.047 		"/>
		<polygon points="90.04,145.401 90.015,149.051 93.118,147.1 93.142,143.653 		"/>
		<polygon points="93.564,143.79 97.685,144.775 94.077,147.075 93.735,147.075 		"/>
	</g>
	<path fill="#FFFFFF" d="M149.039,114.87c-0.223-0.638-0.922-0.973-1.557-0.748l-9.861,3.461c-0.477-2.009-1.096-3.572-1.621-4.672
		l7.176-2.201c0.645-0.197,1.008-0.881,0.809-1.526c-0.197-0.646-0.881-1.005-1.525-0.81l-7.391,2.268
		c-0.419,0.129-0.698,0.471-0.803,0.865l-0.164,0.117c0.004,0.006,0.049,0.069,0.121,0.185c0,0.119,0,0.239,0.036,0.36
		c0.094,0.304,0.301,0.533,0.556,0.684c0.854,1.66,2.207,4.965,2.486,9.658c0.402,6.789-3.432,9.656-3.596,9.774l0.602,0.835
		c0.139-0.1,2.658-1.973,3.65-6.135c0,0,0,0.001,0.002,0.001c0.119,0,0.242-0.019,0.361-0.056l8.688-2.697
		c0.645-0.201,1.004-0.885,0.805-1.529c-0.201-0.645-0.889-1.005-1.529-0.805l-7.961,2.473c0.033-0.61,0.045-1.242,0.004-1.923
		c-0.053-0.876-0.141-1.702-0.254-2.483c0.088-0.01,0.176-0.014,0.262-0.045l9.957-3.494
		C148.927,116.204,149.263,115.506,149.039,114.87z"/>
</g>
<g>
	<g>
		<polygon points="237.375,41.618 237.375,20.436 229.275,20.436 229.275,54.344 232.654,56.305 232.654,41.618 		"/>
		<polygon points="233.998,57.086 237.375,59.048 237.375,42.962 233.998,42.962 		"/>
	</g>
	<g>
		<polygon points="246.864,42.962 246.864,59.332 250.04,57.528 250.04,42.962 		"/>
		<polygon points="255.147,20.544 246.864,20.544 246.864,41.618 251.384,41.618 251.384,56.765 255.147,54.628 		"/>
	</g>
	<g>
		<path d="M316.232,27.126h-0.809v-2.714h-58.925v8.393h2.828v-3.651h0.672v3.651h3.086v-2.333h0.671v2.333h3.086v-2.333h0.672
			v2.333h2.657v-2.333h0.673v2.333h3.085v-2.333h0.672v2.333h5.525v-1.997h0.672v1.997h3.086v-1.997h0.672v1.997h2.657v-1.997h0.673
			v1.997h3.086v-1.997h0.672v1.997h2.328v-3.341h0.672v3.341h20.778v-2.88h0.809c0.773,0,1.4-0.626,1.4-1.399
			C317.633,27.753,317.006,27.126,316.232,27.126z M277.603,32.78h-0.672v-3.651h0.672V32.78z"/>
		<rect x="225.594" y="24.412" width="29.56" height="8.393"/>
	</g>
	<rect x="238.129" y="16.064" width="3.223" height="7.675"/>
	<rect x="242.496" y="16.064" width="3.28" height="7.675"/>
	<rect x="228.215" y="23.74" fill="#FFFFFF" width="1.06" height="9.387"/>
	<rect x="237.375" y="23.813" fill="#FFFFFF" width="1.06" height="9.386"/>
	<rect x="245.804" y="23.916" fill="#FFFFFF" width="1.061" height="9.386"/>
</g>
<g>
	<path d="M268.158,111.775c0.001-0.03,0.009-0.061,0.009-0.092c0-1.204-0.975-2.18-2.179-2.18s-2.18,0.976-2.18,2.18
		c0,0.031,0.008,0.062,0.009,0.092h-16.495l-4.926,5.809h26.349v-5.809H268.158z"/>
	<path d="M268.745,119.748h-26.349l4.926,5.807h16.7c0.167,1.039,1.06,1.835,2.146,1.835c1.087,0,1.979-0.796,2.145-1.835h0.433
		V119.748z"/>
	<g>
		<circle cx="260.768" cy="118.568" r="4.859"/>
		<path fill="#FFFFFF" d="M260.767,124.413c-3.221,0-5.844-2.622-5.844-5.845c0-3.222,2.623-5.844,5.844-5.844
			c3.223,0,5.846,2.622,5.846,5.844C266.612,121.791,263.989,124.413,260.767,124.413L260.767,124.413z M260.767,114.695
			c-2.135,0-3.874,1.738-3.874,3.873c0,2.137,1.739,3.875,3.874,3.875c2.137,0,3.875-1.738,3.875-3.875
			C264.642,116.433,262.903,114.695,260.767,114.695L260.767,114.695z"/>
	</g>
	<path d="M270.522,119.748v5.807c0,0,2.698,0,6.941,0c3.613,0,7.041,7.431,12.614,8.777c5.706,1.378,21.151,1.814,23.565,1.456
		c1.813-0.27,3.472,0.153,3.008-2.199c-0.356-1.811-1.272-4.166-4.175-4.116c-6.983,0.117-12.615,1.538-15.342,1.301
		c-2.726-0.236-8.524-1.196-9.902-3.789c-1.146-2.161-5.141-7.238-9.152-7.236C275.394,119.749,270.522,119.748,270.522,119.748z"/>
	<path d="M270.522,117.583v-5.809c0,0,2.698,0,6.941,0c3.613,0,7.041-7.429,12.614-8.776c5.706-1.378,21.151-1.814,23.565-1.455
		c1.813,0.269,3.472-0.155,3.008,2.198c-0.356,1.812-1.272,4.166-4.175,4.116c-6.983-0.117-12.615-1.538-15.342-1.301
		c-2.726,0.237-8.524,1.196-9.902,3.79c-1.146,2.161-5.141,7.238-9.152,7.236C275.394,117.582,270.522,117.583,270.522,117.583z"/>
</g>
<g>
	<path d="M226.724,143.292c0,1.046-0.248,1.894-1.687,1.894h-52.683c-1.44,0-1.687-0.848-1.687-1.894v-3.916
		c0-1.045,0.247-1.892,1.687-1.892h52.683c1.439,0,1.687,0.847,1.687,1.892V143.292z"/>
	<ellipse cx="180.335" cy="150.881" rx="3.8" ry="3.636"/>
	<polygon stroke="#FFFFFF" stroke-width="0.7509" points="182.895,145.651 180.382,149.533 177.776,145.714 	"/>
	<ellipse cx="216.993" cy="150.881" rx="3.8" ry="3.636"/>
	<polygon stroke="#FFFFFF" stroke-width="0.7509" points="219.552,145.651 217.041,149.533 214.434,145.714 	"/>
	<polygon points="233.096,98.21 227.057,97.136 220.353,135.845 226.392,135.845 	"/>
	<path d="M218.723,133.129c0,1.3-1.054,2.354-2.352,2.354h-25.921c-2.29-0.506-4.313-1.081-5.673-2.354l-14.939-22.703
		c0-1.299,1.053-2.353,2.353-2.353h48.33c1.299,0,2.353,1.054,2.353,2.353L218.723,133.129z"/>
</g>
<g>
	<g>
		<polygon points="277.446,251.185 236.364,239.639 236.364,225.771 277.446,236.233 		"/>
		<polygon points="279.315,236.026 279.315,251.185 326.245,238.518 326.245,223.359 		"/>
		<polygon points="238.544,225.092 278.243,234.708 324.792,222.645 282.401,215.722 		"/>
	</g>
	<polygon fill="#FFFFFF" points="258.098,216.017 258.098,221.383 291.505,229.832 309.671,224.647 309.671,216.017 281.156,210.48 
			"/>
	<g>
		<polygon points="292.068,228.346 259.69,220.436 259.69,182.169 292.068,185.899 		"/>
		<polygon points="293.913,185.324 293.913,227.416 308.906,223.359 308.906,182.013 		"/>
		<polygon points="261.873,180.898 293.239,184.323 306.613,181.361 280.184,179.143 		"/>
		<polygon points="286.175,231.691 281.329,230.61 281.329,214.542 286.175,214.542 		"/>
		<path fill="#FFFFFF" d="M287.824,215.115v15.395l-1.108,0.641v-17.148h-5.927v17.043l5.927,1.321h0.083l2.107-1.199v-16.052
			H287.824z M285.635,231.016l-3.765-0.84v-15.094h3.765V231.016z"/>
	</g>
	<polygon fill="#FFFFFF" points="248.899,218.566 248.945,225.891 265.422,229.561 273.928,226.781 272.888,201.313 
		259.369,199.522 248.987,201.758 	"/>
	<polygon points="264.404,228.585 249.837,225.416 249.837,202.223 264.404,204.007 	"/>
	<polygon points="265.775,204.019 265.775,228.333 272.813,225.965 272.313,201.735 	"/>
	<polygon points="251.708,201.802 265.094,203.224 270.2,201.631 259.13,200.103 	"/>
	<rect x="286.72" y="226.206" width="1.099" height="3.559"/>
	<g>
		<g>
			<g>
				<g>
					<g>
						<path fill="#FFFFFF" d="M286.948,198.123h-4.456c0,0-8.117-0.41-8.117,9.109c0,9.01,8.465,8.784,8.465,8.784l4.457-0.161
							c3.578,0,6.335-3.74,6.335-8.86S290.527,198.123,286.948,198.123z"/>
					</g>
					<g>
						<path d="M286.783,199.15l-3.943-0.158c3.28,0,5.798,3.686,5.798,8.036s-2.42,8.087-5.701,8.087l3.847-0.21
							c3.282,0,5.941-3.526,5.941-7.877S290.065,199.15,286.783,199.15z"/>
					</g>
					<ellipse cx="281.156" cy="207.028" rx="5.941" ry="7.877"/>
				</g>
			</g>
		</g>
		<circle fill="#FFFFFF" cx="280.958" cy="201.627" r="0.774"/>
		<circle fill="#FFFFFF" cx="281.156" cy="212.799" r="0.774"/>
		<circle fill="#FFFFFF" cx="276.732" cy="207.427" r="0.773"/>
		<circle fill="#FFFFFF" cx="285.393" cy="207.069" r="0.773"/>
		<circle fill="#FFFFFF" cx="284.004" cy="203.791" r="0.773"/>
		<circle fill="#FFFFFF" cx="284.004" cy="211.253" r="0.773"/>
		<circle fill="#FFFFFF" cx="278.28" cy="210.854" r="0.774"/>
		<circle fill="#FFFFFF" cx="277.506" cy="203.791" r="0.773"/>
		<path fill="#FFFFFF" d="M278.595,204.578l2.212,3.858c0,0,0.594,0.663,1.086,0.148c0.489-0.518-0.012-0.966-0.012-0.966
			L278.595,204.578z"/>
	</g>
	<polygon fill="#FFFFFF" points="284.268,174.303 278.983,174.863 278.983,181.282 285.38,182.169 289.55,180.826 289.444,174.773 	
		"/>
	<polygon points="284.654,181.383 279.468,180.741 279.468,175.103 284.654,175.746 	"/>
	<polygon points="285.6,175.79 285.711,181.482 288.999,180.318 288.836,175.103 	"/>
	<polygon points="280.515,174.921 285.025,175.401 288.184,174.886 284.268,174.387 	"/>
	<path stroke="#FFFFFF" stroke-width="1.0813" d="M259.418,196.22c-0.97,0.037-8.93-1.345-8.93-1.345v5.979l8.88-1.333
		L259.418,196.22z"/>
	<polygon points="251.146,194.553 258.104,195.742 258.098,195.216 254.508,194.212 	"/>
	<polygon fill="#FFFFFF" points="261.873,192.223 258.104,193.009 258.104,202.038 262.571,202.401 265.643,201.397 
		265.567,192.884 	"/>
	<polygon points="262.15,201.936 258.449,201.627 258.449,193.349 262.15,193.868 	"/>
	<polygon points="262.903,193.892 262.903,201.735 265.255,201.04 265.133,193.349 	"/>
	<polygon points="259.418,193.091 262.527,193.518 264.667,193.042 261.919,192.67 	"/>
</g>
<g>
	<path d="M54.65,143.695c-2.987-3.469-3.845-9.146-4.644-13.871c0.383,0.098,0.786,0.164,1.213,0.164
		c2.125,0,3.848-1.32,3.848-2.947c0-1.628-1.723-2.947-3.848-2.947c-0.545,0-1.061,0.089-1.53,0.245
		c0.087-1.076,0.272-2.046,0.584-2.835c1.897-4.805,3.588-6.391,1.601-9.322c-1.428-2.105-6.51-2.395-8.24,2.281l-1.943-5.396
		l4.959-22.757l-4.641-5.736l-5.858,21.461l-5.859-21.461l-4.64,5.736l4.959,22.757l-1.58,6.304c-1.81-4.438-6.746-4.128-8.15-2.057
		c-1.988,2.932-0.297,4.517,1.6,9.322c0.178,0.447,0.306,0.967,0.409,1.515c-0.097-0.006-0.188-0.022-0.286-0.022
		c-2.125,0-3.848,1.32-3.848,2.947c0,1.628,1.723,2.947,3.848,2.947c0.102,0,0.197-0.018,0.298-0.023
		c-0.67,4.955-1.95,9.404-4.843,14.821c-4.846,9.069-13.181,12.864-8.166,13.925c6.531,1.382,9.505-2.621,13.691-7.95
		c5.305-6.755,7.354-15.576,7.34-23.412l2.069-0.001l0.011-0.523c0.039-1.781,0.499-3.783,1.053-3.928
		c0.132,0.063,0.365,0.439,0.591,1.143c-0.568,1.565-0.797,3.577-0.735,4.675c0.085,1.503,0.658,1.79,1.124,1.763
		c0.232-0.014,0.663-0.127,0.937-0.75c0.498-1.138,0.334-3.758-0.195-5.645c0.016-0.037,0.031-0.074,0.047-0.111
		c0.363-0.826,0.693-1.061,0.807-1.07c0.16,0.049,0.506,0.523,0.854,1.439c-0.418,1.611-0.519,3.548-0.421,4.487
		c0.139,1.353,0.645,1.661,1.075,1.661c0.028,0,0.056-0.002,0.083-0.004c0.588-0.053,1.255-0.571,1.096-2.753
		c-0.055-0.747-0.289-2.171-0.713-3.433c0.059-0.193,0.123-0.381,0.193-0.559c0.293-0.743,0.551-0.928,0.625-0.938
		c0.014-0.002,0.041-0.004,0.098,0.044c0.52,0.442,0.828,2.429,0.881,3.698l0.021,0.499l1.415,0.036
		c0.133,7.615,2.224,16.041,7.334,22.549c4.186,5.328,7.16,9.332,13.691,7.949C67.876,156.552,61.36,151.486,54.65,143.695z
		 M35.048,129.28c-0.122-0.489-0.106-1.577,0.079-2.755C35.28,127.976,35.161,128.912,35.048,129.28z M38.204,129.26
		c-0.115-0.446-0.146-1.343-0.064-2.354C38.33,128.097,38.288,128.904,38.204,129.26z M41.831,126.044l-0.391-0.01
		c-0.082-1.061-0.353-3.223-1.227-3.967c-0.269-0.23-0.585-0.332-0.916-0.293c-0.539,0.064-0.967,0.514-1.297,1.166
		c-0.385-0.664-0.859-1.113-1.408-1.072c-0.52,0.03-0.959,0.383-1.322,0.921c-0.092-0.173-0.188-0.321-0.289-0.444
		c-0.424-0.514-0.864-0.505-1.09-0.454c-1.508,0.339-1.855,3.128-1.936,4.423h-1.049c-0.09-3.441-0.575-6.66-1.355-9.389h5.109
		l1.92-3.766l1.49,3.766h4.834C42.242,119.634,41.852,122.748,41.831,126.044z"/>
	<g>
		<circle cx="36.014" cy="108.249" r="3.602"/>
		<path fill="#FFFFFF" d="M36.014,112.57c-2.383,0-4.321-1.938-4.321-4.321s1.938-4.321,4.321-4.321c2.382,0,4.32,1.938,4.32,4.321
			S38.396,112.57,36.014,112.57L36.014,112.57z M36.014,105.366c-1.59,0-2.883,1.293-2.883,2.883c0,1.589,1.293,2.883,2.883,2.883
			s2.883-1.294,2.883-2.883C38.897,106.659,37.604,105.366,36.014,105.366L36.014,105.366z"/>
	</g>
</g>
<g>
	<g>
		<path d="M190.208,20.53c-0.35-0.045-0.7-0.079-1.057-0.079c-0.356,0-0.708,0.034-1.057,0.079h-46.664
			c6.769,0,12.255,8.172,12.255,18.253s-5.486,18.253-12.255,18.253h49.904v-0.385c5.725-1.536,10.072-8.979,10.072-17.948
			c0-8.97-4.347-16.413-10.072-17.948"/>
	</g>
	
		<ellipse transform="matrix(-0.836 0.5487 -0.5487 -0.836 295.4017 -27.1066)" fill="#FFFFFF" cx="151.752" cy="30.592" rx="4.878" ry="4.337"/>
	<path d="M154.696,28.66c-0.948-1.445-3.035-1.751-4.661-0.684c-0.267,0.175-0.492,0.383-0.699,0.604
		c-2.2-4.879-5.938-8.091-10.181-8.091c-3.58,0-6.792,2.301-9.034,5.949c-0.308-0.267-0.662-0.498-1.068-0.662
		c-1.8-0.735-3.789-0.033-4.441,1.567c-0.653,1.6,0.278,3.493,2.078,4.227c0.372,0.152,0.751,0.229,1.126,0.262
		c-0.586,2.133-0.916,4.464-0.916,6.911c0,10.082,5.487,18.254,12.256,18.254c6.771,0,12.256-8.172,12.256-18.254
		c0-1.711-0.169-3.361-0.466-4.933c0.828,0.107,1.731-0.081,2.524-0.602C155.096,32.141,155.646,30.104,154.696,28.66z"/>
	<polygon points="138.193,63.692 138.193,55.464 134.239,55.464 134.239,63.692 131.854,63.692 131.854,67.168 139.782,67.168 
		139.782,63.692 	"/>
	<polygon points="151.62,64.655 151.62,55.464 147.666,55.464 147.666,64.655 145.282,64.655 145.282,68.131 153.208,68.131 
		153.208,64.655 	"/>
	<polygon points="191.307,64.655 191.307,55.464 187.353,55.464 187.353,64.655 184.969,64.655 184.969,68.131 192.897,68.131 
		192.897,64.655 	"/>
	<polygon points="138.759,57.449 138.759,63.129 140.706,61.859 140.706,57.618 	"/>
	<polygon points="132.581,63.341 133.808,63.341 133.808,62.579 	"/>
	<polygon points="139.394,63.129 140.241,63.129 142.229,61.859 141.431,61.859 	"/>
	<polygon points="140.452,63.637 140.452,66.727 142.398,65.012 142.398,62.325 	"/>
	<polygon points="152.113,57.449 152.114,64.347 154.06,63.076 154.06,57.449 	"/>
	<polygon points="152.748,64.347 153.595,64.347 155.583,63.076 154.786,63.076 	"/>
	<polygon points="153.806,64.854 153.806,67.944 155.753,66.229 155.753,63.542 	"/>
	<polygon points="145.785,64.303 147.011,64.303 147.011,63.542 	"/>
	<polygon points="191.752,57.037 191.753,64.146 193.699,62.876 193.699,56.577 	"/>
	<polygon points="192.386,64.146 193.233,64.146 195.223,62.876 194.423,62.876 	"/>
	<polygon points="193.444,64.653 193.444,67.743 195.393,66.029 195.393,63.341 	"/>
	<polygon points="185.423,64.103 186.649,64.103 186.649,63.341 	"/>
	<polygon fill="#FFFFFF" points="147.276,2.415 147.276,20.512 151.537,25.482 178.281,25.482 178.281,3.992 168.894,3.992 
		168.577,0.474 152.155,0 	"/>
	<rect x="152.155" y="1.78" width="15.388" height="13.244"/>
	<polygon points="150.411,2.415 150.411,14.072 148.363,12.969 148.363,3.361 	"/>
	<rect x="142.063" y="6.529" width="4.883" height="2.678"/>
	<rect x="155.297" y="3.992" fill="#FFFFFF" width="1.575" height="8.821"/>
	<rect x="159.064" y="3.992" fill="#FFFFFF" width="1.575" height="8.821"/>
	<rect x="162.826" y="3.992" fill="#FFFFFF" width="1.576" height="8.821"/>
	<polygon points="169.157,5.567 169.157,16.435 152.155,16.435 152.155,24.154 177.048,24.154 177.048,5.567 	"/>
	<polyline points="148.363,14.859 148.363,20.196 150.983,23.116 150.983,16.489 	"/>
	<path fill="none" stroke="#FFFFFF" stroke-width="1.9264" d="M177.048,24.716c0,0,1.499,6.232,0.761,13.018
		c-0.737,6.784-3.55,14.201-3.55,14.201l9.783-0.159c0,0,2.217-6.785,2.607-13.568c0.39-6.785-1.68-18.226-1.68-18.226"/>
	<path stroke="#FFFFFF" stroke-width="0.9632" d="M195.223,28.256c0,0,7.308-5.124,8.053-1.445
		C204.519,32.949,195.223,28.256,195.223,28.256z"/>
	<path stroke="#FFFFFF" stroke-width="0.9632" d="M195.863,38.468c0,0,7.624-4.641,8.129-0.922
		C204.837,43.752,195.863,38.468,195.863,38.468z"/>
	<path stroke="#FFFFFF" stroke-width="0.9632" d="M194.789,47.662c0,0,8.079-3.793,8.181-0.042
		C203.142,53.88,194.789,47.662,194.789,47.662z"/>
	<rect x="101.143" y="45.963" width="7.532" height="10.776"/>
	<polygon points="114.157,51.352 114.157,49.571 109.536,49.571 109.536,54.416 114.157,54.416 114.157,53.555 116.853,53.555 
		116.853,51.352 	"/>
	<polygon points="89.615,54.416 99.852,54.416 99.852,49.571 89.615,48.607 	"/>
	<polygon points="106.954,71.753 98.796,71.753 101.686,58.21 106.954,58.21 	"/>
	<path d="M90.336,52.233c-2.058,0-12.329-0.224-12.329-4.661c0-1.02,0.393-1.974,1.103-2.748c-0.69-0.806-1.135-1.783-1.102-2.883
		c0.031-1.094,0.556-2.06,1.324-2.834c-0.941-1.03-1.386-2.268-1.242-3.534c0.1-0.887,0.427-1.63,0.903-2.227
		c-0.657-0.81-1.009-1.759-1.002-2.759c0.006-0.942,0.386-1.718,0.986-2.32c-0.724-0.953-1.063-2.09-0.969-3.327
		c0.109-1.45,1.195-2.514,2.608-3.14c-0.043-0.293-0.056-0.597-0.038-0.909c0.419-7.399,14.623-10.62,25.271-12.396
		c9.331-1.559,36.096-1.357,37.231-1.349l-0.011,1.444c-0.28-0.003-27.773-0.209-36.982,1.329
		c-5.854,0.977-23.666,3.951-24.066,11.053c-0.007,0.128-0.007,0.251-0.002,0.369c0.528-0.118,1.071-0.183,1.601-0.194
		c2.162-0.038,3.611,0.819,3.774,2.249c0.072,0.624-0.2,1.187-0.745,1.544c-0.971,0.638-2.705,0.543-4.032-0.223
		c-0.671-0.388-1.192-0.914-1.541-1.54c-0.904,0.428-1.567,1.074-1.627,1.872c-0.077,1.008,0.237,1.789,0.702,2.384
		c0.867-0.437,1.897-0.662,2.902-0.662c0.008,0,0.017,0,0.025,0c2.162,0.008,3.616,1.011,3.616,2.495
		c0,0.517-0.286,0.969-0.786,1.24c-1.221,0.665-3.656,0.274-5.43-0.872c-0.172-0.111-0.336-0.228-0.49-0.349
		c-0.337,0.34-0.55,0.773-0.555,1.313c-0.005,0.725,0.268,1.318,0.631,1.782c1.007-0.652,2.264-0.946,3.474-0.874
		c1.747,0.099,2.922,0.951,2.922,2.122c0,0.709-0.341,1.296-0.958,1.651c-1.145,0.657-3.2,0.417-4.89-0.569
		c-0.199-0.117-0.39-0.242-0.569-0.373c-0.268,0.37-0.456,0.83-0.52,1.398c-0.121,1.058,0.403,1.897,0.943,2.465
		c1.104-0.7,2.383-1.096,3.437-1.062c1.467,0.04,2.358,0.88,2.324,2.194c-0.019,0.744-0.384,1.333-1.025,1.658
		c-1.148,0.581-3.153,0.19-4.773-0.931c-0.568,0.548-0.959,1.21-0.98,1.925c-0.022,0.768,0.327,1.417,0.778,1.928
		c0.166-0.102,0.342-0.197,0.525-0.284c1.625-0.777,3.38-0.762,4.367,0.035c0.403,0.325,1.029,1.079,0.698,2.466
		c-0.076,0.316-0.465,1.331-2.328,1.085c-1.041-0.138-2.283-0.635-3.324-1.411c-0.394,0.428-0.715,1.01-0.715,1.767
		c0,2.428,7.333,3.215,10.884,3.216V52.233L90.336,52.233z M81.425,44.911c0.202,0.128,0.376,0.225,0.497,0.286
		c1.358,0.698,2.361,0.669,2.527,0.541c0.134-0.649-0.144-0.876-0.237-0.949C83.756,44.419,82.595,44.369,81.425,44.911
		L81.425,44.911z M81.712,39.158c1.129,0.633,2.324,0.806,2.839,0.543c0.136-0.07,0.228-0.165,0.234-0.405
		c0.005-0.223,0.018-0.688-0.918-0.713C83.23,38.559,82.444,38.78,81.712,39.158L81.712,39.158z M81.216,33.384
		c0.044,0.029,0.087,0.054,0.128,0.079c1.354,0.791,2.839,0.909,3.441,0.564c0.167-0.097,0.232-0.208,0.232-0.398
		c0-0.285-0.625-0.627-1.558-0.679C82.86,32.913,81.989,33.012,81.216,33.384L81.216,33.384z M81.369,28.489
		c0.271,0.165,0.535,0.295,0.768,0.394c1.6,0.69,2.942,0.533,3.139,0.317c-0.023-0.618-1.119-0.98-2.201-0.984
		C82.568,28.216,81.95,28.299,81.369,28.489L81.369,28.489z M82.493,22.721c0.247,0.339,0.559,0.579,0.849,0.745
		c1.002,0.579,2.124,0.524,2.517,0.268c0.113-0.075,0.108-0.118,0.102-0.172c-0.08-0.699-1.209-0.975-2.31-0.969
		C83.269,22.6,82.875,22.645,82.493,22.721L82.493,22.721z"/>
</g>
<g>
	<rect x="12.612" y="239.236" width="108.123" height="11.293"/>
	<rect x="18.235" y="184.888" width="20.193" height="50.818"/>
	<rect x="41.921" y="193.71" width="35.529" height="41.996"/>
	<polygon points="80.686,183.125 72.937,183.125 72.937,190.536 80.686,190.536 80.686,235.707 115.448,235.707 115.448,183.125 	
		"/>
	<rect x="62.086" y="187.359" width="6.313" height="4.234"/>
	<polygon points="68.399,179.243 60.64,179.243 58.725,179.243 57.278,179.243 57.278,191.593 60.64,191.593 60.64,184.888 
		68.399,184.888 	"/>
	<g>
		<polygon fill="#FFFFFF" points="101.664,221.841 101.664,233.518 82.548,233.518 82.548,221.841 84.193,195.9 99.486,195.9 		"/>
		<polygon points="99.486,221.841 84.193,221.841 85.641,197.896 98.04,197.896 		"/>
		<rect x="84.193" y="225.19" width="15.293" height="6"/>
		<rect x="87.174" y="214.603" fill="none" stroke="#FFFFFF" stroke-width="1.6998" width="9.202" height="4.411"/>
		<ellipse fill="#FFFFFF" cx="88.385" cy="202.133" rx="1.211" ry="1.672"/>
		<ellipse fill="#FFFFFF" cx="92.001" cy="202.133" rx="1.211" ry="1.672"/>
		<ellipse fill="#FFFFFF" cx="95.816" cy="202.133" rx="1.211" ry="1.672"/>
		<ellipse fill="#FFFFFF" cx="88.122" cy="207.776" rx="1.211" ry="1.672"/>
		<ellipse fill="#FFFFFF" cx="92.27" cy="207.776" rx="1.211" ry="1.672"/>
		<ellipse fill="#FFFFFF" cx="95.816" cy="207.776" rx="1.211" ry="1.672"/>
	</g>
	<rect x="47.214" y="200.46" fill="none" stroke="#FFFFFF" stroke-width="1.6998" width="9.174" height="30.729"/>
	<rect x="61.198" y="200.461" fill="none" stroke="#FFFFFF" stroke-width="1.6998" width="9.175" height="30.729"/>
	<rect y="193.71" width="11.075" height="10.095"/>
	<polygon points="12.612,196.621 12.612,204.962 3.469,204.962 16.803,230.384 16.749,208.515 	"/>
	<rect x="2.462" y="204.962" width="4.698" height="4.453"/>
	<line fill="none" stroke="#FFFFFF" stroke-width="1.6998" x1="11.859" y1="203.805" x2="17.452" y2="219.014"/>
	<polygon points="22.711,181.793 38.429,181.793 44.192,179.243 29.648,179.243 	"/>
	<polygon points="41.507,184.888 45.423,181.793 45.423,188.589 41.507,191.593 	"/>
	<polygon points="47.214,189.476 44.192,191.593 56.388,191.593 56.388,189.476 	"/>
	<polygon points="58.485,177.777 68.399,177.777 70.305,175.152 61.267,175.152 	"/>
	<polygon points="69.477,179.243 69.477,191.593 71.49,191.593 71.49,175.924 	"/>
	<polygon points="74.287,180.518 115.952,179.923 118.144,175.152 77.983,175.924 	"/>
	<polygon points="120.271,176.832 117.25,183.429 117.25,235.376 120.271,230.861 	"/>
	<polygon points="122.955,239.236 122.955,249.912 126.871,244.881 126.871,233.518 	"/>
	<polygon points="119.264,235.707 121.948,235.707 126.2,230.384 122.955,230.384 	"/>
</g>
</svg>
