<?xml version="1.0" encoding="utf-8"?>
<!-- Generator: Adobe Illustrator 14.0.0, SVG Export Plug-In . SVG Version: 6.00 Build 43363)  -->
<!DOCTYPE svg PUBLIC "-//W3C//DTD SVG 1.1//EN" "http://www.w3.org/Graphics/SVG/1.1/DTD/svg11.dtd">
<svg version="1.1" id="レイヤー_1" xmlns="http://www.w3.org/2000/svg" xmlns:xlink="http://www.w3.org/1999/xlink" x="0px"
	 y="0px" width="84.614px" height="39.253px" viewBox="0 0 84.614 39.253" enable-background="new 0 0 84.614 39.253"
	 xml:space="preserve">
<g>
	<path d="M29.324,11.785c0.001-0.036,0.011-0.07,0.011-0.106c0-1.37-1.11-2.481-2.48-2.481c-1.371,0-2.481,1.111-2.481,2.481
		c0,0.036,0.009,0.07,0.011,0.106H5.607L0,18.396h29.992v-6.611H29.324z"/>
	<path d="M29.992,20.858H0l5.607,6.61h19.01c0.189,1.183,1.206,2.09,2.441,2.09c1.237,0,2.254-0.907,2.441-2.09h0.492V20.858z"/>
	<g>
		<circle cx="20.912" cy="19.517" r="5.532"/>
		<path fill="#FFFFFF" d="M20.911,26.169c-3.667,0-6.652-2.984-6.652-6.652s2.985-6.652,6.652-6.652
			c3.668,0,6.653,2.984,6.653,6.652S24.579,26.169,20.911,26.169L20.911,26.169z M20.911,15.107c-2.431,0-4.41,1.979-4.41,4.41
			c0,2.432,1.979,4.41,4.41,4.41c2.432,0,4.41-1.979,4.41-4.41C25.321,17.086,23.343,15.107,20.911,15.107L20.911,15.107z"/>
	</g>
	<path d="M32.016,20.858v6.61c0,0,3.071,0,7.901,0c4.113,0,8.015,8.459,14.358,9.991c6.496,1.569,24.078,2.065,26.825,1.657
		c2.063-0.307,3.951,0.176,3.425-2.502c-0.406-2.063-1.449-4.742-4.752-4.687c-7.949,0.134-14.361,1.751-17.465,1.481
		c-3.103-0.271-9.703-1.361-11.271-4.314c-1.306-2.459-5.853-8.239-10.419-8.237C37.561,20.86,32.016,20.858,32.016,20.858z"/>
	<path d="M32.016,18.396v-6.611c0,0,3.071,0,7.901,0c4.113,0,8.015-8.458,14.358-9.991c6.496-1.569,24.078-2.066,26.825-1.657
		c2.063,0.307,3.951-0.175,3.425,2.503c-0.406,2.062-1.449,4.742-4.752,4.686c-7.949-0.134-14.361-1.751-17.465-1.481
		c-3.103,0.27-9.703,1.361-11.271,4.314c-1.306,2.459-5.853,8.24-10.419,8.237C37.561,18.394,32.016,18.396,32.016,18.396z"/>
</g>
</svg>
