<?xml version="1.0" encoding="utf-8"?>
<!-- Generator: Adobe Illustrator 14.0.0, SVG Export Plug-In . SVG Version: 6.00 Build 43363)  -->
<!DOCTYPE svg PUBLIC "-//W3C//DTD SVG 1.1//EN" "http://www.w3.org/Graphics/SVG/1.1/DTD/svg11.dtd">
<svg version="1.1" id="レイヤー_1" xmlns="http://www.w3.org/2000/svg" xmlns:xlink="http://www.w3.org/1999/xlink" x="0px"
	 y="0px" width="56.297px" height="78.447px" viewBox="0 0 56.297 78.447" enable-background="new 0 0 56.297 78.447"
	 xml:space="preserve">
<g>
	<path d="M46.309,63.121c-2.987-3.469-3.844-9.146-4.644-13.871c0.384,0.098,0.786,0.164,1.213,0.164
		c2.125,0,3.848-1.32,3.848-2.947c0-1.628-1.723-2.947-3.848-2.947c-0.544,0-1.061,0.089-1.53,0.245
		c0.088-1.076,0.273-2.046,0.584-2.835c1.898-4.805,3.588-6.39,1.601-9.322c-1.428-2.106-6.509-2.395-8.239,2.281l-1.944-5.396
		l4.96-22.757L33.668,0L27.81,21.46L21.95,0l-4.64,5.736l4.959,22.757l-1.58,6.304c-1.809-4.438-6.746-4.128-8.15-2.058
		c-1.988,2.932-0.297,4.517,1.6,9.323c0.178,0.447,0.305,0.967,0.409,1.515c-0.097-0.006-0.188-0.022-0.287-0.022
		c-2.125,0-3.848,1.32-3.848,2.947c0,1.628,1.723,2.947,3.848,2.947c0.102,0,0.198-0.018,0.298-0.023
		c-0.67,4.955-1.95,9.404-4.843,14.821C4.872,73.316-3.464,77.111,1.55,78.172c6.532,1.382,9.505-2.621,13.691-7.95
		c5.305-6.755,7.354-15.576,7.34-23.412l2.07-0.001l0.011-0.523c0.038-1.781,0.499-3.783,1.053-3.928
		c0.131,0.063,0.365,0.439,0.59,1.143c-0.568,1.565-0.797,3.577-0.735,4.675c0.084,1.503,0.658,1.79,1.124,1.763
		c0.232-0.014,0.663-0.127,0.936-0.75c0.499-1.138,0.335-3.758-0.195-5.645c0.015-0.037,0.032-0.074,0.047-0.111
		c0.363-0.826,0.693-1.061,0.806-1.07c0.16,0.049,0.507,0.523,0.854,1.439c-0.417,1.611-0.518,3.548-0.421,4.487
		c0.139,1.353,0.645,1.661,1.075,1.661c0.029,0,0.057-0.002,0.084-0.004c0.588-0.053,1.254-0.571,1.096-2.753
		c-0.055-0.747-0.29-2.171-0.714-3.433c0.06-0.193,0.124-0.381,0.194-0.559c0.292-0.743,0.55-0.928,0.624-0.938
		c0.015-0.002,0.041-0.004,0.098,0.044c0.521,0.442,0.828,2.429,0.882,3.698l0.02,0.499l1.416,0.036
		c0.133,7.615,2.223,16.041,7.334,22.549c4.186,5.328,7.16,9.332,13.691,7.949C59.536,75.979,53.019,70.912,46.309,63.121z
		 M26.708,48.706c-0.122-0.489-0.107-1.577,0.08-2.755C26.939,47.402,26.821,48.338,26.708,48.706z M29.863,48.687
		c-0.115-0.446-0.146-1.343-0.063-2.354C29.989,47.523,29.947,48.33,29.863,48.687z M33.491,45.471l-0.392-0.01
		c-0.081-1.061-0.353-3.223-1.226-3.967c-0.27-0.23-0.586-0.332-0.916-0.293c-0.54,0.064-0.967,0.514-1.298,1.166
		c-0.385-0.664-0.859-1.113-1.408-1.072c-0.52,0.03-0.959,0.383-1.322,0.921c-0.091-0.173-0.188-0.321-0.289-0.444
		c-0.424-0.514-0.864-0.505-1.09-0.454c-1.507,0.339-1.855,3.128-1.935,4.423h-1.049c-0.089-3.441-0.575-6.661-1.355-9.389h5.109
		l1.919-3.765l1.491,3.765h4.834C33.901,39.061,33.512,42.174,33.491,45.471z"/>
	<g>
		<circle cx="27.673" cy="27.675" r="3.602"/>
		<path fill="#FFFFFF" d="M27.673,31.996c-2.383,0-4.321-1.938-4.321-4.321s1.938-4.321,4.321-4.321
			c2.382,0,4.321,1.938,4.321,4.321S30.055,31.996,27.673,31.996L27.673,31.996z M27.673,24.792c-1.59,0-2.883,1.293-2.883,2.883
			c0,1.589,1.293,2.883,2.883,2.883s2.883-1.293,2.883-2.883C30.556,26.085,29.263,24.792,27.673,24.792L27.673,24.792z"/>
	</g>
</g>
</svg>
