<?xml version="1.0" encoding="utf-8"?>
<!-- Generator: Adobe Illustrator 14.0.0, SVG Export Plug-In . SVG Version: 6.00 Build 43363)  -->
<!DOCTYPE svg PUBLIC "-//W3C//DTD SVG 1.1//EN" "http://www.w3.org/Graphics/SVG/1.1/DTD/svg11.dtd">


<!--
	<svg xmlns="http://www.w3.org/2000/svg" width="350" height="48" viewBox="0 0 350.753 48.981">
	<svg xmlns="http://www.w3.org/2000/svg" width="200" height="27" viewBox="0 0 350.753 48.981" fill="white"  fill-opacity="1.0" stroke-opacity="1.0">
-->

<svg xmlns="http://www.w3.org/2000/svg" width="200" height="25" viewBox="0 0 350.753 48.981" fill="white"  fill-opacity="1.0" stroke-opacity="1.0">
<g>
	<path d="M43.943,32.606c-2.729-1.938-4.668-6.102-4.668-6.102h9.335v-7.324H36.762v-4.38h10.627v-7.18H36.69V0h-7.682v7.621h-2.441
		c0.502-0.646,0.861-4.452,0.861-4.452l-6.822-1.794c0,0-0.502,3.876-1.077,6.318c-0.574,2.442-2.226,4.451-2.226,4.451V8.842
		h-3.302V0H6.463L6.319,9.057H1.436v6.965h4.596c0,0-0.431,4.092-2.584,7.395C2.762,24.467,0,29.521,0,29.521l2.297,8.687
		c0,0,1.725-1.795,2.586-3.661c0.861-1.867,1.579-3.877,1.579-3.877v18.313h7.682V26.218c0,0,0.533,0.939,1.041,1.837
		c0.508,0.898,1.113,1.968,1.113,1.968l2.226-5.532v2.229h8.042c0,0-4.164,5.6-6.032,7.18c-1.868,1.579-6.174,4.738-6.174,4.738
		l4.164,6.966c0,0,4.237-2.872,6.463-5.528s4.021-5.674,4.021-5.674v14.58h7.826V35.048c0,0,1.507,2.441,3.089,4.31
		c1.581,1.868,6.246,6.103,6.246,6.103l4.164-7.684C50.332,37.776,46.671,34.546,43.943,32.606z M18.596,18.895v3.589
		c0,0-3.889-4.211-2.872-3.159c1.265,1.308,0.321,0.284-1.867-3.374h4.092l2.943,2.944H18.596z M29.151,18.894h-6.82
		c0,0,1.723-2.729,2.01-4.165h4.81V18.894z"/>
	<g>
		<path d="M53.486,7.765h25.993V0h8.185v7.765h5.243l-3.95-4.595l5.673-2.441l4.667,4.595L95.49,7.765h5.456v7.396H88.094
			c0,0-0.72,4.165,1.364,12.063c2.083,7.898,4.022,10.984,4.74,10.984c0.718,0,1.651-7.18,1.651-7.18l6.174,3.807
			c0,0-0.718,6.604-2.441,9.906c-1.723,3.303-2.944,3.303-5.169,3.231c-2.226-0.072-5.314-1.005-9.119-8.185
			s-5.169-24.484-5.169-24.484H53.486V7.765z"/>
		<polygon points="55.283,20.043 78.833,20.043 78.833,27.224 70.575,27.224 70.575,36.845 80.699,34.906 80.699,41.798 
			54.062,47.11 54.062,38.782 63.251,37.993 63.251,27.366 55.354,27.366 		"/>
	</g>
	<g>
		<path d="M142.912,8.838C138.476,6.583,133.666,0,133.666,0h-8.722c0,0-3.608,5.004-7.743,7.936s-13.005,6.466-13.005,6.466
			l4.36,7.442c0,0,1.653-0.526,3.91-1.8c2.256-1.274,3.082-2.184,3.082-2.184v3.383h27.664v-3.308c0,0,1.354,1.052,3.082,2.108
			c1.728,1.057,4.285,2.176,4.285,2.176l3.834-8.194C154.414,14.025,147.347,11.093,142.912,8.838z M122.464,13.95
			c0,0,2.705-1.846,3.458-2.84c0.752-0.994,3.383-3.475,3.383-3.475s1.768,2.104,3.007,3.157c1.458,1.24,3.759,3.158,3.759,3.158
			H122.464z"/>
		<path d="M151.932,23.995h-45.03l0.038,7.771l12.593-0.075l-4.211,8.044l-7.818,0.15l0.978,8.721c0,0,33.604-3.158,33.829-2.934
			c0.226,0.227,2.555,3.309,2.555,3.309l6.316-4.134c0,0-3.383-5.489-4.887-7.066c-1.505-1.577-5.262-6.24-5.262-6.24h10.899V23.995
			z M135.394,36.489c0.602,0.766,2.105,2.795,2.105,2.795h-13.458l4.436-7.442h9.697l-5.486,2.181
			C132.688,34.022,134.792,35.724,135.394,36.489z"/>
	</g>
	<g>
		<path d="M164.639,0h7.367v7.785h4.961l2.782,3.325c0,0-1.581,3.817-2.707,5.622c-1.127,1.804-3.308,4.886-3.308,4.886
			s1.728,2.406,3.608,3.758c1.88,1.354,4.963,2.707,4.963,2.707l-4.211,7.217c0,0-2.104-0.979-3.608-2.48
			c-1.504-1.504-2.405-2.481-2.405-2.481v18.644h-8.119V33.194c0,0-1.202,0.98-1.954,1.43s-1.955,1.051-1.955,1.051l-3.533-7.216
			c0,0,6.992-4.436,8.27-6.24s5.412-7.593,5.412-7.593h-12.027V7.635h6.314L164.639,0z"/>
		<polygon points="186.666,0 194.935,0 194.935,13.349 204.183,13.349 204.183,20.866 194.785,20.866 194.785,39.735 
			205.458,39.735 205.458,47.403 176.216,47.403 176.216,39.886 186.59,39.886 186.59,20.866 179.073,20.866 179.073,13.499 
			186.666,13.499 		"/>
	</g>
	<g>
		<path d="M265.381,3.913h39.131v8.25h-17.028v6.963h20.208v8.022h-20.284v7.797c0,0-0.153,1.892,0.681,2.422
			c0.831,0.529,8.551,0,8.551,0l9.233-0.91v8.932c0,0-9.08,0.758-12.714,0.758c-3.635,0-8.838,0.898-12.64-2.348
			c-3.104-2.649-2.42-6.281-2.42-6.281l-0.154-10.369h-15.514v-7.946h15.668v-7.039h-12.718V3.913z"/>
		<rect x="317.223" y="2.702" width="9.309" height="24.371"/>
		<path d="M341.14,2.702h9.613c0,0-0.304,22.327-0.304,24.371s-1.515,10.444-8.854,15.212c-7.364,4.781-13.323,5.904-13.323,5.904
			s-0.98-2.197-2.42-4.24s-3.104-4.085-3.104-4.085s8.779-1.817,12.034-4.542s6.283-5.939,6.283-10.235S341.14,2.702,341.14,2.702z"
			/>
	</g>
</g>
</svg>
