<svg xmlns="http://www.w3.org/2000/svg" width="841.89" height="595.28" viewBox="0 0 841.89 595.28">
  <path fill="#00526F" d="M553.854 366.997c-.672-.79-1.392-1.565-2.164-2.327.803.88 1.496 1.698 2.088 2.435.024-.038.05-.072.076-.108z"/>
  <path fill="#00526F" d="M0 357.905c5.226-1.47 11.16-2.132 18.06-2.132.833 0 1.656.033 2.47.096h.05c25.46 2.01 42.312 33.91 42.484 34.25l.284-.15-1.49 4.03c-1.922 5.19-3.808 10.26-5.63 15.12-2.806-4.88-13.998-21.72-35.43-22.8-.303-.02-.69-.05-1.155-.11-3.288-.33-6.44-.21-9.47.31-3.57.61-6.964 1.81-10.172 3.6v1.55c5.88-3.46 12.38-4.84 19.51-4.12.49.05.9.09 1.23.1 22.77 1.15 33.63 20.72 34.88 23.11l-1.32 3.51c-3.38 9.01-6.52 17.27-9.25 24.41-2.38-3.19-14.86-19-28.36-18.49-7.2.27-12.69 2.05-16.68 8.04v2.41c1.16-2.1 2.46-3.73 3.93-5 3.33-2.88 7.48-3.89 12.59-4.1.05-.01.09-.01.14-.01l.08-.01h.05c14.04-.43 27.43 18.27 27.57 18.46l.28-.2-1.54 4.04c-4.1 10.69-7.04 18.24-8.16 21.11-2.97 7.56-20.65 50.14-34.94 81.35v3.23c1.11-2.41 2.25-4.9 3.4-7.44 5.56-12.29 11.47-25.88 16.75-38.22 7.89-18.45 14.34-34.11 16.02-38.4 2.95-7.56 18.49-47.54 34.77-92.31 6.48-17.82 15.42-43.92 23.31-66.94 6.13-17.9 11.93-34.82 15.57-44.95 1.15-3.19 7.04-21.67 8.95-27.66 4.63 12.11 31.12 81.39 36.72 94.02 8.28 18.69 50.17 103.55 59.89 113.6l.02-.03c-2.12 14.41-2.21 29.03-1.69 43.31 1.19 32.98-3.48 76.81-20.58 91.8-8.44 7.4-17.92 14.31-26.47 19.93h2.43c8.15-5.45 17-11.97 24.93-18.93 22.98-20.14 21.3-85.48 21.03-92.86-1.14-31.31.58-64.23 20.63-92.98 5.37-7.69 29.82-28.17 61.07-26.12 28.73 1.88 35.84 17.32 36.65 19.35-3.5 3.76-6.53 7.94-8.96 12.54-1.65 3.14-3.09 6.38-4.34 9.69-.11-.19-.25-.42-.42-.66-2.54-3.7-11.09-12.37-33.88-7.94-14.46 2.81-23.05 10.2-28.48 25.59-5.12 14.55-7.43 36.25-9.16 68.06-.11 2.04-.24 4.03-.39 5.99-4.18 54.18-23.19 78.04-31.48 88.44-.85 1.07-1.59 1.99-2.18 2.79-2.04 2.74-4.5 5.07-7.17 7.07h2.18c2.24-1.82 4.31-3.89 6.07-6.26.59-.78 1.31-1.7 2.15-2.75 8.67-10.87 28.96-36.33 32.17-95.18 3.53-64.69 9.31-87.11 36.55-92.4 26.85-5.21 33.22 8.56 33.29 8.7l.3-.13c-.4 1.11-.75 2.24-1.12 3.37-1.87 5.81-3.27 11.78-4.26 17.83l-.04.24c-1.84-1.23-6.35-3.89-11.22-4.04-2.1-.07-4.26.32-6.3 1.5-9.74 5.62-17.82 15.57-18.08 80.61-.07 15.86-2.09 29.27-6.19 40.52-.18.49-.37.95-.56 1.43-.02.07-.05.13-.08.2-3.77 9.68-9.15 17.7-16.21 24.26-3.12 2.89-6.53 5.52-10.3 7.86-9.7 6.01-19.1 10.69-27.16 14.22h3.3c7.46-3.39 15.9-7.71 24.56-13.08 23.04-14.27 33.83-38.23 33.98-75.41.28-69.56 10.18-75.28 17.41-79.445 6.59-3.81 15 1.7 16.61 2.83-.15 1.01-.27 2.03-.41 3.04-1.85 14.04-1.95 28.145-2.01 40.655-.02 3.95-.03 7.77-.1 11.42l-.01.65c-.64 33.883-4.04 58.48-10.11 73.41-1.52 3.73-3.2 6.88-5.06 9.4-2.85 3.87-6.24 7.75-9.92 11.52-5.14 5.27-10.84 10.35-16.48 14.99h2.1c9.34-7.79 18.77-16.75 25.38-25.72 9.43-12.81 14.62-40.937 15.43-83.59l.02-.646c.07-3.65.09-7.48.11-11.43.11-23.77.25-53.35 12.74-76.99 11.01-20.84 34.1-33.35 61.78-33.48h.25c26.04 0 39.13 17.99 41.6 21.78-.68.43-1.35.88-2.01 1.35-3.62 2.54-6.88 5.472-9.82 8.85-2.73 3.13-5.04 6.004-7 8.73-.1.15.1-.146 0 0-3.37-1.81-12.12-7.11-27.59-6.8-.8.02-.01-.07-.8.02-.52.06-2.66.265-3.23.32-9.01.855-23.96 2.28-30.13 36.353-1.88 10.39-2.94 23.81-2.76 41.18.72 71.615-12.46 95.55-18.08 105.78-.45.81-.85 1.54-1.2 2.21-2.37 4.53-5.41 8.48-8.73 11.9l-.18.19h1.86c3.13-3.33 5.98-7.14 8.25-11.47.34-.66.74-1.38 1.18-2.19 5.68-10.31 18.98-34.47 18.25-106.44-.73-73.103 20.35-75.11 31.67-76.19.58-.05 1.14-.1 1.67-.16 13.32-1.49 24.05 3.905 28.74 6.845-.42.6-.81 1.21-1.2 1.81-4.15 6.51-6.26 12.35-7.1 19.08-3.26-1.038-14.33-3.38-22.79 8.91-9.33 13.55-8.04 57.81-7.48 76.7.09 3.06.16 5.49.16 6.95 0 2.67-.19 6-.56 9.71-1.29 13.11-4.7 31.154-9.22 43.393-.8 2.16-1.63 4.14-2.49 5.88-3.29 6.63-7.17 12.33-11.14 17.15h1.72c3.8-4.71 7.49-10.22 10.63-16.55 7.2-14.53 12.42-45.68 12.42-59.59 0-1.477-.07-3.91-.17-6.99-.55-18.77-1.83-62.71 7.25-75.9 8.34-12.12 19.01-9.23 21.53-8.32-.11 1.16-.19 2.35-.24 3.57-.3 7.23.45 15.7 1.46 26.99.27 3.03.56 6.27.85 9.72.34 4.09.69 8.49 1.02 13.28l.13 1.98c1.42 20.67 3.54 51.63-9.24 72.88-.35.59-.72 1.18-1.09 1.76-7.97 12.12-19.06 25.98-29.96 37.18h1.96c10.57-11 21.2-24.39 29.13-36.44 14.25-21.65 12.03-54.04 10.55-75.47l-.13-1.97c-.6-8.86-1.27-16.39-1.87-23.03-2.79-31.26-3.63-40.7 15-62.09 9.29-10.67 21.75-16.94 39.478-19.63l.04-.01c1.25-.19 2.53-.36 3.84-.51.16-.02.32-.05.49-.06 2.79-.33 5.71-.57 8.76-.73l.05-.01c1.42-.08 2.8-.05 4.15.04 23.11 1.51 35.97 25.81 37.64 29.15-.78.95-1.55 1.95-2.32 2.98-2.79 3.74-5.492 8.01-8.07 12.88-.18.34-.37.68-.55 1.03-1.61 3.11-3.06 6.09-4.4 8.96l-.1-.17c-2.523-4.22-14.07-22.12-28.265-22.12h-.01l-1.61-.01c-10.13-.07-23.98-.16-31.66 25.61-6.25 20.95-5.955 56.61-5.76 80.21.09 11.57.17 20.71-.53 24.12l-.14.68c-2.11 10.3-6.496 31.74-17.36 43.23-4.156 4.39-8.77 9.11-13.39 13.35h1.984c4.3-4 8.54-8.36 12.39-12.43 11.124-11.77 15.56-33.46 17.694-43.88l.14-.69c.727-3.547.65-12.747.555-24.397-.19-23.52-.48-59.06 5.7-79.815 7.4-24.8 20.12-24.717 30.36-24.64l1.62.002h.01c14.96 0 27.47 22.07 27.6 22.3l.2-.11c-.66 1.45-1.282 2.87-1.88 4.27-2.04 4.778-3.74 9.28-5.14 13.638-1.91-3.77-8.65-15.23-19.02-12.39l-.95.26c-10.166 2.73-15.77 4.24-15.297 60.55.41 50.258-5.35 61.05-10.94 71.49l-.25.46c-.69 1.29-1.39 2.61-2.06 3.99-1.35 2.77-3.17 6.16-5.29 9.79-2.19 3.75-4.71 7.75-7.366 11.6h1.617c5.42-7.97 10.04-16.238 12.25-20.8.74-1.52 1.49-2.92 2.28-4.4 5.66-10.588 11.514-21.53 11.09-72.13-.46-55.27 4.785-56.68 14.3-59.24l.95-.258c11.17-3.06 17.91 12.62 17.98 12.78l.173-.07c-.58 1.88-1.1 3.73-1.59 5.57-3.43 12.99-4.62 25.24-5.8 40.29-.13 1.73-.263 3.49-.403 5.3-.57 7.44-1.21 15.88-2.15 25.36-.94 9.47-2.08 17.68-3.91 25.24-3.64 15.06-10.02 27.57-22.87 42.35h1.79c18.9-22.02 23.54-39.2 26.33-67.46.93-9.51 1.573-17.95 2.14-25.4 2.3-30.26 3.69-48.52 20.16-80.392 15.81-30.62 36.6-37.82 51.26-38.46 11.66-.51 21.6 1.44 30.65 6.136 5.1 2.65 9.92 6.16 14.6 10.61-.04.09-.08.19-.12.275-.605 1.29-1.17 2.63-1.707 4l-.16.42c-3.02 7.84-5.02 16.9-6.34 26.32-2.81-4.31-11.66-15.246-27.84-13.15-28.72 3.74-36.57 12.76-41.81 86.886-2.51 35.5-5.03 55.92-9.13 68.76-.526 1.648-1.07 3.16-1.65 4.57-1.89 4.6-4.09 8.05-6.71 10.88-1.746 1.88-3.85 3.93-6.155 6.026h1.98c1.96-1.82 3.73-3.56 5.16-5.11 9.946-10.71 13.95-29.78 17.85-85.02 5.2-73.62 12.34-81.96 40.63-85.645 18.02-2.342 26.49 12.3 27.384 13.95-.27 2.09-.51 4.19-.72 6.3-.64 6.394-1.03 12.81-1.27 18.99-3.59-3.86-14.25-13.925-22.83-7.88-15.07 10.63-15.09 27.46-15.11 50.76-.006 8.76-.016 18.68-.82 29.57-2.696 36.37-8.59 54.28-15.794 64.08h1.69c7.06-10.16 12.8-28.32 15.446-63.98.82-10.94.83-20.89.83-29.67.02-22.9.04-39.44 14.55-49.67 8.503-5.99 20.1 6.58 21.97 8.72-.05 1.478-.09 2.93-.13 4.37-.14 5.09-.2 9.94-.26 14.36-.04 2.62-.07 5.11-.11 7.41l-.02.65c-.64 33.88-4.04 58.48-10.11 73.41-1.52 3.74-3.205 6.88-5.06 9.4-2.85 3.87-6.24 7.75-9.93 11.53-4.58 4.7-9.62 9.25-14.65 13.47h2.09c8.73-7.42 17.39-15.81 23.56-24.2 9.43-12.81 14.62-40.93 15.44-83.59l.01-.64c.04-2.31.08-4.79.11-7.42.29-22.75.736-56.7 10.75-78.12.05.05.1.09.147.14l.95-.96c-.16-.15-.32-.29-.48-.45.2-.4.39-.8.6-1.19 10.98-20.78 34.94-33.77 62.54-33.9h.25c26.04 0 39.134 17.996 41.6 21.78-.69.436-1.337.91-1.996 1.37-3.61 2.54-6.89 5.45-9.83 8.826-2.73 3.13-5.03 6-6.99 8.73l-.31.43c-3.37-1.81-15.27-7.67-27.23-7.24-.82.03-1.63.084-2.44.174-.526.06-1.075.11-1.65.17-9.01.86-23.962 2.28-30.124 36.35-1.88 10.395-2.94 23.82-2.76 41.19.72 71.62-12.45 95.56-18.08 105.786-.45.81-.85 1.54-1.2 2.21-2.07 3.956-4.644 7.466-7.47 10.57h1.8c2.59-2.96 4.95-6.26 6.88-9.944.34-.66.74-1.38 1.18-2.182 5.68-10.32 18.98-34.475 18.25-106.45-.73-73.1 20.35-75.106 31.678-76.184.58-.057 1.13-.11 1.66-.17 12.06-1.34 25.07 4.91 28.74 6.85-.42.62-.8 1.22-1.188 1.83-4.15 6.5-6.28 12.35-7.12 19.08-3.26-1.04-14.33-3.38-22.79 8.91-9.33 13.55-8.04 57.81-7.49 76.7.09 3.06.16 5.49.16 6.94 0 2.68-.2 6.01-.57 9.73-1.29 13.106-4.7 31.14-9.22 43.36-.8 2.17-1.63 4.15-2.5 5.89-2.95 5.94-6.38 11.14-9.91 15.63h1.69c3.365-4.37 6.614-9.364 9.42-15.03 7.205-14.53 12.42-45.67 12.42-59.58 0-1.48-.07-3.91-.16-6.99-.546-18.77-1.83-62.71 7.25-75.9 8.35-12.12 19.01-9.23 21.53-8.32-.113 1.16-.19 2.35-.244 3.56-.3 7.23.45 15.7 1.46 26.99.27 3.01.55 6.22.84 9.65.343 4.11.694 8.52 1.02 13.35l.14 1.97c1.42 20.68 3.53 51.64-9.25 72.884-.36.59-.72 1.18-1.1 1.757-7.62 11.58-18.07 24.73-28.49 35.66h1.94c10.09-10.7 20.11-23.42 27.68-34.92 14.25-21.65 12.03-54.04 10.56-75.48l-.134-1.97c-.6-8.85-1.27-16.38-1.864-23.03-2.79-31.26-3.64-40.69 15-62.09 9.29-10.67 21.74-16.932 39.47-19.63.017 0 .03-.01.04-.01 1.25-.19 2.53-.36 3.84-.51l.48-.06c2.79-.32 5.72-.57 8.77-.73h.04c.2-.01.39-.01.59-.01.54-.02 1.076-.033 1.606-.03.48.01.94.03 1.41.05 25.07 1.24 38.24 29.267 38.37 29.56l.38-.17c-1.91 2.12-3.71 4.41-5.414 6.81-1.66 2.32-3.22 4.79-4.69 7.38-.46.82-.95 1.63-1.4 2.49-1.62 3.09-3.09 6.04-4.44 8.9-.02-.03-.04-.07-.06-.103-2.54-4.24-14.08-22.12-28.27-22.12h-.02l-1.61-.01c-10.14-.08-23.974-.16-31.66 25.6-6.242 20.95-5.952 56.62-5.76 80.22.096 11.566.17 20.7-.53 24.11l-.14.69c-2.105 10.3-6.49 31.73-17.35 43.22-3.66 3.87-7.68 8-11.744 11.83h1.95c3.74-3.57 7.4-7.346 10.77-10.9 11.12-11.77 15.56-33.45 17.7-43.88l.14-.69c.72-3.54.65-12.74.55-24.38-.19-23.53-.48-59.07 5.71-79.83 7.393-24.8 20.153-24.71 30.354-24.64l1.62.01h.01c14.96 0 27.48 22.07 27.6 22.3l.1-.05c-.557 1.195-1.066 2.36-1.575 3.53-2.18 4.955-3.97 9.63-5.44 14.14-2.02-3.94-8.7-15.025-18.93-12.22l-.94.26c-10.17 2.73-15.77 4.234-15.3 60.55.42 50.25-5.35 61.044-10.93 71.48-.08.15-.15.294-.23.44-.69 1.3-1.39 2.625-2.07 4.015-1.34 2.78-3.17 6.19-5.31 9.84-1.89 3.24-4.03 6.67-6.3 10.02h1.61c4.97-7.49 9.15-15.01 11.22-19.28.73-1.52 1.48-2.93 2.277-4.41 5.66-10.59 11.51-21.538 11.09-72.13-.46-55.27 4.78-56.68 14.3-59.248l.95-.25c11.17-3.06 17.91 12.62 17.98 12.78h.01c-.55 1.78-1.05 3.53-1.51 5.27-3.54 13.362-4.66 25.95-5.83 41.7-.09 1.15-.18 2.302-.26 3.48-.57 7.62-1.21 16.26-2.17 26.01-.93 9.442-2.08 17.63-3.9 25.18-3.51 14.57-9.57 26.75-21.56 40.886h1.764c17.82-21.3 22.32-38.33 25.04-65.93.96-9.77 1.6-18.417 2.17-26.046 2.223-30.06 3.57-48.207 20.134-79.74 11.07-21.08 27.88-33.66 51.37-38.48 5.02-1.03 9.63-.996 13.89.064v-1.41c-.6-.14-1.202-.26-1.82-.36-.35-.06-.7-.12-1.06-.17-.04-.97-.15-1.973-.34-3 .45-.49 1.55-1.613 3.22-2.82v-1.62c-1.6 1.066-2.8 2.125-3.56 2.87-.98-3.94-3.023-8.13-6.14-12.2-.76-.99-1.57-1.98-2.464-2.95.48-.47 1.32-1.24 2.48-2.15 1.62-1.17 3.645-2.52 5.88-3.75 1.167-.59 2.445-1.15 3.807-1.644v-61.3c-1.21.763-3.03.62-3.68-.22-1.5-1.945-.76-5.395 1.89-5.395.89 0 1.43.11 1.79.33V-9H0v366.905zm34.088.443c2.592-1.424 10.093-4.886 21.897-4.886.207 0 .4.01.603.014.567.007 1.134.018 1.68.043.665.03 1.314.07 1.942.14h.042c9.338.89 14.385 4.46 14.583 4.6-.418 1.18-.83 2.35-1.238 3.5-1.38 3.89-2.7 7.57-3.927 10.95l-.112.31c-1.126-1.1-4.855-4.2-10.964-3.93-3.807.15-6.33 1.62-7.42 2.41-3.84-4.11-8.447-8.16-13.69-11.3-1.11-.67-2.233-1.3-3.396-1.87zm18.007 14.172c1.004-.69 3.238-1.935 6.542-2.073l.01-.002c.038 0 .07.002.107 0 6.512-.188 10.115 3.805 10.15 3.847l.282-.243c-.476 1.3-.95 2.59-1.423 3.89-1.324 3.62-2.642 7.22-3.944 10.75-1.11-1.97-4.31-7.36-9.24-13.3-.79-.95-1.62-1.91-2.49-2.88zm46.343-207.823c1.5 1.946.76 5.396-1.893 5.396-2.345 0-2.275-.74-2.753-2.387-1.12-3.855 3.535-4.452 4.646-3.01zm127.47 198.2c.503-.574 1.143-1.27 1.89-2.034-.826.895-1.453 1.634-1.82 2.085-.022-.017-.046-.033-.07-.05zm-18.087 37.51c8.66.645 15.77 9.22 15.84 9.304l.62-.5c-4.3 9.88-6.98 20.06-8.61 30.35-.22-.26-.45-.56-.69-.88-3.9-5.12-10.94-17.49-18.88-32.38l-1.3-2.45c1.4-1.14 5.65-3.96 13.04-3.43zm16.71 8.24c-.38-.443-1.35-1.527-2.76-2.814-2.99-2.714-8.01-6.335-13.83-6.77-.54-.044-1.07-.062-1.58-.07-2.26-.037-4.22.225-5.88.643-3.17.79-5.25 2.135-6.32 2.98-2.02-3.827-4.09-7.798-6.16-11.813-.35-.688-.71-1.365-1.06-2.056 1.55-1.725 8.7-8.797 21.71-8.168 13.45.64 21.11 13.52 22.34 15.74-2.46 4.04-4.58 8.15-6.43 12.32zm10.07-17.907c-.99 1.43-1.92 2.86-2.83 4.3-1.11-1.88-3.85-6.03-8.14-9.61-3.78-3.165-8.77-5.89-14.94-6.19-6.93-.35-12.23 1.37-16.01 3.4-3.26 1.757-5.39 3.738-6.42 4.83l-.22-.423c-2.96-5.77-5.91-11.595-8.76-17.287l-1.31-2.607c1.59-1.35 12.8-10.58 24.46-11.297 23.98-1.487 39.45 23.53 41.61 27.235-.63.54-1.22 1.06-1.79 1.58-1.4 1.27-2.61 2.48-3.6 3.58-.83.93-1.52 1.78-2.03 2.51zm47.64-26.07c-6.08.9-11.77 2.548-16.98 4.61-1.34.533-2.65 1.085-3.92 1.666-7.23 3.303-13.34 7.32-17.97 11.06l-.27.217c-.82-1.39-2.91-4.735-6.13-8.655.57-1.513 3.86-8.943 13.78-9.04 9.81-.11 13.5 4.987 13.54 5.04l.8-.562.31-.215c-.16-.23-4.06-5.6-14.36-5.6h-.29c-9.47.09-13.41 6.4-14.66 9.09-.02.05-.05.11-.07.15-1.63-1.89-3.53-3.88-5.64-5.82-.42-.37-.83-.75-1.26-1.12-.66-.57-1.32-1.13-2.01-1.68 2.03-2.46 11.93-13.69 23.38-13.69h.26c21.24.31 31.92 10.93 34.7 14.18-1.07.11-2.12.25-3.17.4zm15.16-5.812c-1.11-1.44-.56-3.995 1.4-3.995 1.74 0 1.69.55 2.04 1.768.83 2.86-2.61 3.3-3.44 2.23zm1.88-165.806c-2.84 0-2.76-.896-3.33-2.89-1.35-4.67 4.28-5.393 5.63-3.644 1.82 2.354.92 6.532-2.29 6.532zm67.37 172.62c-4.58 1.167-8.95 2.704-13.05 4.605-.35-.493-.9-1.197-1.71-2-1.07-1.076-2.59-2.29-4.58-3.325-2.51-1.307-5.79-2.314-9.97-2.32h-.01c-7.27 0-14.38 7.876-14.68 8.21l.61.54.4.358c.03-.027.99-1.087 2.51-2.41 2.59-2.243 6.82-5.24 10.97-5.335.07 0 .14-.017.21-.017h.01c8.93.016 13.57 4.97 15.03 6.892-.87.43-1.73.873-2.58 1.333-5.59 3.03-10.63 6.75-14.96 11.12-.11.114-.23.22-.34.336-.52-1.19-1.68-3.4-3.92-5.95-1.07-1.21-2.37-2.49-3.96-3.77-1.04-.83-2.2-1.66-3.5-2.47-2.36-1.47-5.17-2.85-8.51-4.03-1.01-.36-2.07-.69-3.17-1.01 1.91-2.99 11.53-16.72 28.14-17.3h.03c6.74.01 12.1 1.13 16.36 2.78 9.24 3.96 13.21 10.92 14.2 12.93-1.17.24-2.33.51-3.47.8zm26.68-2.306c-.16-.017-.33-.03-.5-.047.06-.07.11-.13.18-.2l.33.24zm81.41 11.63c-1.19-.06-2.42-.064-3.67 0-5.93.32-11.36.94-16.37 1.854-.1.02-.21.034-.31.053l.08-.062c-.23-.3-.46-.56-.7-.84-9.06-11.06-17.22-12.8-22.62-13.12-11.18-.64-16.74 5.38-17.61 6.42l-.12.15 1.07.82c.05-.06 5.34-6.68 16.59-6.03 5.2.3 13.09 2 21.92 12.95-1.07.21-2.11.45-3.14.69-7.31 1.73-13.64 4.2-19.16 7.49-.08.05-.16.09-.24.14-1.21-1.87-4.84-6.94-11.13-11.79-.75-.58-1.55-1.16-2.39-1.73-1.19-.82-2.45-1.61-3.81-2.37-4.27-2.4-9.35-4.44-15.28-5.57-1.25-.23-2.54-.42-3.86-.57 1.46-1.81 11.31-13.19 30.72-15.59.56-.06 1.12-.13 1.69-.17.55-.05 1.11-.09 1.68-.13 1.19-.07 2.4-.13 3.65-.14h.24c18.74 0 33.27 12.66 38.66 18.11 4.98 5.04 7.24 8.84 7.5 9.82-1.09-.16-2.21-.27-3.36-.33zm52.05 17.632c-.51.354-1.03.718-1.54 1.095-3.69 2.705-7.37 6.063-10.95 10.213-.14.162-.28.31-.42.475-1.14-2.2-4.37-7.97-9.62-13.83-.66-.74-1.35-1.48-2.08-2.21.08-.14 2.89-5.23 10.23-6 .03 0 .06 0 .09-.01.42-.04.86-.06 1.3-.07.17 0 .32-.01.49-.01.51 0 1.05.01 1.6.06 8.26.64 12.77 6.14 14 8.32-1.02.61-2.05 1.28-3.08 1.99zm14.03-6.943c-3.18 1.02-6.46 2.407-9.77 4.27-1.49-2.67-6.35-8.312-15.06-8.98-9.69-.754-13.87 4.916-14.8 6.415-3.38-3.26-7.4-6.35-12.05-8.63-.72-.35-1.44-.686-2.19-.994 1-1.856 8.85-15.086 28.73-12.09 19.29 2.914 27.22 16.685 28.46 19.066-1.09.272-2.19.584-3.3.943zm19.9-2.474c-2.05-.07-4.15-.06-6.31.03-2.78.13-5.79.49-8.94 1.18-.73-1.5-8.78-16.93-29.6-20.07-7.3-1.1-13.08-.04-17.55 1.88-8.4 3.59-12.16 10.18-12.63 11.05-.09-.03-.19-.06-.29-.09-1.88-.69-3.86-1.24-5.92-1.62.02-1.59-2.89-5.32-3.82-6.46-.83-1.03-2.64-3.15-5.28-5.69-.87-.84-1.83-1.72-2.88-2.63 3.07-2.71 19.8-16.58 39.9-16.13h.12c.64.02 1.3.05 1.95.1 36.67 2.59 54.34 24.34 55.12 38.72-1.25-.11-2.53-.18-3.83-.22zm5-26.28c.17-.07.35-.14.52-.21.36-.14.73-.28 1.09-.42 2.52-.91 5.45-1.67 8.84-2.09.15-.02.31-.03.46-.04.46-.05.93-.09 1.4-.13.88-.05 1.77-.07 2.69-.06 32.99.43 42.04 17.56 43.59 21.19-1.18.7-2.32 1.43-3.45 2.19-2.57 1.73-5.01 3.6-7.27 5.64-6.03-6.52-15.79-11.11-25.14-11.74-10.41-.71-20.31 5.13-23.36 7.12-1.11-3.95-3.29-8.18-6.52-12.29-.77-.97-1.57-1.94-2.45-2.89.57-.61 2.24-2.2 5.04-3.91 1.34-.79 2.87-1.59 4.6-2.33zm44.13 29.69c-3.57 3.8-6.64 8.01-9.07 12.61-.14.28-.28.57-.42.85-10.32-9.72-21.3-15.03-34.45-16.49v-.01c-.05-1.23-.21-2.51-.51-3.83 2.4-1.59 12.6-7.87 22.93-7.16 10.2.69 19.37 6.08 24.24 11.32-.94.88-1.84 1.8-2.71 2.73zm59.02-154.47c-2.84 0-2.75-.89-3.34-2.89-1.35-4.67 4.29-5.39 5.64-3.64 1.82 2.36.92 6.54-2.29 6.54zm58.03 147.23c-7.31 1.73-13.63 4.21-19.15 7.5-.07.05-.16.09-.24.14-1.22-1.87-4.87-6.98-11.2-11.84-.73-.56-1.51-1.12-2.32-1.68-.85-.58-1.72-1.15-2.65-1.7 1.65-1.65 7.4-6.58 16.8-6.04 5.2.3 13.08 2.01 21.92 12.95-1.07.22-2.12.45-3.15.69zm24.9-2.85c-1.19-.06-2.41-.06-3.66 0-5.93.33-11.36.94-16.37 1.86-.1.03-.21.04-.31.06l.08-.06c-.24-.29-.47-.56-.7-.84-9.06-11.06-17.22-12.81-22.62-13.12-10.56-.61-16.63 5.11-18.09 6.69-4.26-2.39-9.33-4.4-15.22-5.52-1.14-.22-2.31-.41-3.52-.55 2.56-3.09 14.58-15.97 37.44-16.08h.2c18.74 0 33.28 12.66 38.67 18.12 4.97 5.03 7.23 8.81 7.49 9.8-1.1-.16-2.22-.27-3.37-.32zm39.43 29.99l-.11-.22c-.93-1.84-4.22-7.96-9.8-14.18-.66-.73-1.35-1.48-2.08-2.22.18-.33 2.94-5.21 10.15-5.99l.35-.03c.34-.03.69-.04 1.05-.06.2 0 .39-.01.59-.01.51 0 1.02.02 1.57.06 8.72.67 13.08 7.99 14.11 9.97-5.88 3.43-11.15 7.65-15.82 12.7zm27.33-18.07c-2.91 1.08-5.7 2.32-8.37 3.7-.65.34-1.31.67-1.96 1.03-.01-.03-.04-.07-.06-.11-1.25-2.35-5.92-9.84-15.12-10.55-9.67-.75-13.85 4.89-14.8 6.41-3.37-3.26-7.4-6.33-12.05-8.62-.71-.35-1.45-.69-2.2-1 1-1.85 8.85-15.08 28.73-12.09 18.75 2.84 27.14 17.03 28.79 20.2-1 .33-1.98.68-2.95 1.04zm19.19-4.4c-2.06.07-4.18.3-6.38.75-2.96.61-5.81 1.34-8.56 2.19-1.54-3.01-10.19-18.12-29.88-21.1-7.32-1.1-13.11-.03-17.59 1.89-8.34 3.58-12.1 10.11-12.59 11.02l-.28-.09c-1.89-.69-3.87-1.24-5.94-1.62 0-1.6-2.89-5.3-3.82-6.44-.83-1.03-2.64-3.15-5.29-5.7-.87-.84-1.83-1.72-2.88-2.64 3.08-2.71 19.83-16.58 39.93-16.13.03.01.06 0 .09.01.65.01 1.3.04 1.95.09 36.88 2.6 54.05 23.44 54.79 37.85-1.15-.09-2.34-.1-3.54-.06zm-5.44-218.77c6.61-2.07 7.64 6.54 5.16 8.6-3.34 2.77-9.25 1.41-9.25-3.5 0-4.34 1.27-4.21 4.09-5.1zM800.6 19.05c3.334-2.774 9.246-1.406 9.25 3.5 0 4.343-1.27 4.213-4.093 5.097-6.608 2.07-7.634-6.54-5.157-8.6zm-11.677 177.46c2.852-.83 3.3 2.616 2.23 3.44-1.44 1.108-3.996.56-3.996-1.4-.002-1.74.546-1.687 1.765-2.04zM766.93 300.32c1.738 0 1.688.55 2.04 1.767.827 2.856-2.615 3.298-3.438 2.23-1.112-1.442-.565-3.997 1.398-3.997zm-20.51-90.173c1.108 1.442.563 3.995-1.4 3.995-1.737 0-1.683-.546-2.04-1.765-.828-2.855 2.617-3.297 3.44-2.23zm-4.385-84.953c1.604 2.077.813 5.762-2.02 5.762-2.506 0-2.43-.79-2.944-2.55-1.19-4.116 3.78-4.755 4.97-3.212zm-31.727 157.6c1.74 0 1.685.548 2.04 1.766.83 2.856-2.618 3.298-3.442 2.23-1.108-1.44-.563-3.996 1.402-3.996zM672.81 171.827c2.774 3.337 1.41 9.248-3.496 9.25-4.344 0-4.214-1.267-5.097-4.09-2.074-6.61 6.54-7.635 8.594-5.16zm-6.46-126.942c1.817 2.356.92 6.534-2.29 6.534-2.84 0-2.755-.9-3.337-2.89-1.358-4.67 4.28-5.4 5.628-3.65zm-25.37 222.107c2.845-.004 2.757.896 3.337 2.89 1.36 4.667-4.28 5.393-5.626 3.644-1.81-2.357-.92-6.534 2.29-6.534zm-.47 51.057c4.343 0 4.212 1.26 5.096 4.09 2.072 6.6-6.54 7.63-8.598 5.16-2.772-3.34-1.404-9.25 3.5-9.25zm-39.597-105.72c1.11 1.44.563 3.99-1.398 3.99-1.74 0-1.688-.55-2.04-1.77-.83-2.86 2.618-3.3 3.438-2.23zm-9.747-181.38c2.857-.83 3.298 2.61 2.23 3.44-1.44 1.11-3.996.56-3.996-1.4 0-1.74.545-1.69 1.766-2.04zM573.64 87.58c2.855-.83 3.298 2.616 2.23 3.44-1.44 1.108-3.995.562-3.995-1.4 0-1.74.546-1.687 1.766-2.04zm-14.678 68.027c4.667-1.358 5.392 4.28 3.642 5.626-2.354 1.816-6.532.922-6.532-2.29-.003-2.843.894-2.756 2.89-3.336zm-1.537 138.366c4.343 0 4.21 1.27 5.096 4.09 2.08 6.61-6.53 7.635-8.59 5.16-2.77-3.338-1.4-9.248 3.5-9.25zm-11.81-52.718c2.505 0 2.434.79 2.943 2.55 1.197 4.116-3.777 4.754-4.965 3.21-1.597-2.075-.81-5.76 2.02-5.76zm-14.137 95.795c1.74-.003 1.688.543 2.038 1.766.83 2.854-2.614 3.295-3.437 2.228-1.11-1.442-.57-3.994 1.39-3.994zm-16.8-208.255c2.355-1.817 6.538-.92 6.538 2.292 0 2.843-.898 2.756-2.894 3.335-4.67 1.357-5.394-4.28-3.643-5.627zm-9.27 71.616c0 1.74-.547 1.69-1.765 2.05-2.854.83-3.298-2.61-2.23-3.44 1.444-1.11 3.996-.56 3.996 1.4zm-6.18-146.9c1.44-1.11 3.99-.56 3.99 1.4.004 1.74-.542 1.69-1.762 2.04-2.854.83-3.297-2.61-2.227-3.44zM471.915-3.72c1.946-1.5 5.396-.76 5.396 1.892 0 2.345-.74 2.276-2.38 2.753-3.85 1.12-4.45-3.534-3.01-4.645zm.314 259.967c-1.51-1.944-.76-5.396 1.89-5.396 2.34 0 2.27.74 2.75 2.39 1.12 3.86-3.54 4.46-4.65 3.01zm2.07 66.2c2.84 0 2.75.893 3.34 2.89 1.35 4.67-4.29 5.392-5.63 3.645-1.82-2.358-.92-6.534 2.29-6.534zm-42.92-184.21c3.33-2.773 9.24-1.407 9.25 3.5 0 4.34-1.27 4.212-4.1 5.096-6.61 2.073-7.64-6.538-5.16-8.596zM414.27 57.89c2.077-1.602 5.76-.812 5.76 2.02 0 2.507-.788 2.432-2.55 2.942-4.114 1.198-4.753-3.775-3.21-4.962zm-3.6 150.762c2.356-1.815 6.534-.92 6.534 2.29.002 2.843-.894 2.758-2.89 3.337-4.67 1.35-5.393-4.29-3.644-5.63zm-13.32 52.58c1.738 0 1.687.547 2.04 1.766.83 2.855-2.617 3.297-3.44 2.228-1.11-1.44-.563-3.994 1.4-3.994zm-20.508-90.175c1.108 1.44.562 3.994-1.403 3.994-1.74.01-1.69-.54-2.04-1.76-.83-2.85 2.61-3.3 3.44-2.23zm-4.388-84.954c1.603 2.077.812 5.762-2.02 5.762-2.507 0-2.432-.79-2.942-2.548-1.197-4.118 3.776-4.757 4.962-3.214zM359.002-5.444c3.336-2.774 9.248-1.407 9.25 3.5 0 4.342-1.27 4.213-4.09 5.096-6.61 2.073-7.635-6.538-5.16-8.596zm-7.742 337.35c2.843-.002 2.757.896 3.337 2.892 1.358 4.667-4.282 5.393-5.627 3.644-1.816-2.357-.92-6.535 2.29-6.535zm-10.53-88.202c1.737 0 1.684.548 2.04 1.766.828 2.854-2.618 3.298-3.442 2.23-1.11-1.442-.56-3.996 1.4-3.996zm-37.496-110.967c2.774 3.335 1.406 9.247-3.5 9.25-4.343 0-4.213-1.27-5.097-4.092-2.072-6.61 6.54-7.633 8.597-5.158zm-13.25-101.573c1.11 1.44.562 3.994-1.4 3.994-1.737 0-1.685-.546-2.04-1.767-.83-2.85 2.617-3.29 3.44-2.22zm-2.767 332.948c-.065.007-.13.007-.196.013-.71-.922-3.16-3.83-7.58-6.873 4.41 2.873 6.87 5.698 7.78 6.86zM271.404 227.9c2.843 0 2.756.896 3.335 2.89 1.35 4.67-4.29 5.394-5.63 3.644-1.82-2.355-.92-6.534 2.29-6.534zm-.474 51.058c4.345 0 4.215 1.268 5.097 4.09 2.074 6.61-6.54 7.635-8.597 5.16-2.772-3.337-1.406-9.248 3.5-9.25zm-39.592-105.714c1.108 1.442.562 3.996-1.402 3.996-1.737 0-1.684-.547-2.04-1.766-.83-2.855 2.617-3.3 3.442-2.23zm-9.643-90.742c1.815 2.356.92 6.535-2.29 6.535-2.843 0-2.757-.895-3.337-2.89-1.358-4.67 4.283-5.394 5.627-3.645zm-14.272-66.26c4.67-1.36 5.393 4.28 3.644 5.625-2.356 1.816-6.534.92-6.534-2.292 0-2.84.897-2.755 2.89-3.334zM200.23 329.08c2.504-.006 2.43.785 2.94 2.547 1.196 4.115-3.776 4.755-4.963 3.213-1.602-2.076-.812-5.76 2.02-5.76zm-5.008-83.19c1.737 0 1.685.547 2.04 1.766.83 2.855-2.617 3.298-3.44 2.23-1.11-1.442-.563-3.995 1.4-3.995zm-20.51-90.173c1.11 1.44.563 3.994-1.4 3.994-1.738 0-1.686-.54-2.04-1.76-.83-2.85 2.616-3.29 3.44-2.23zm-8.77 57.815c4.116-1.197 4.754 3.776 3.21 4.962-2.076 1.602-5.762.812-5.762-2.02 0-2.507.792-2.433 2.552-2.942zm-32.71-175.83c6.61-2.073 7.633 6.54 5.16 8.597-3.337 2.77-9.25 1.4-9.25-3.5 0-4.35 1.268-4.22 4.09-5.1zm-34.575 54.26c1.814 2.356.92 6.534-2.29 6.534-2.842 0-2.76-.896-3.338-2.89-1.36-4.668 4.28-5.393 5.62-3.644zM68.477 254.27c2.507-.002 2.43.79 2.94 2.548 1.2 4.116-3.775 4.757-4.962 3.214-1.6-2.077-.81-5.762 2.022-5.762zM36.694 12.18c2.356-1.817 6.534-.922 6.534 2.29 0 2.843-.896 2.756-2.89 3.336-4.67 1.358-5.393-4.28-3.644-5.627zM23.428 82.393c1.442-1.108 3.997-.562 3.997 1.4 0 1.74-.547 1.687-1.767 2.04-2.854.83-3.297-2.616-2.23-3.44zm3.642 91.532c1.6 2.078.81 5.763-2.02 5.763-2.508 0-2.434-.79-2.944-2.55-1.197-4.118 3.777-4.757 4.964-3.214zM20.895 333.34c-1.163 8.107-10.314 5.305-11.167 1.684-1.147-4.875 3.128-10.663 8.056-8.433 4.36 1.98 3.607 3.29 3.11 6.75zm-7.163-93.78c1.74 0 1.686.548 2.04 1.768.83 2.854-2.616 3.297-3.44 2.23-1.11-1.443-.563-3.997 1.4-3.997zm3.01-121.84c2.773 3.338 1.403 9.25-3.502 9.25-4.34.002-4.21-1.266-5.096-4.09-2.073-6.608 6.54-7.634 8.597-5.16zm828.74 478.56v-.732c-.13.245-.27.488-.407.732h.408z"/>
  <path fill="#00526F" d="M831.104 368.734c-.74-.885-1.546-1.753-2.413-2.602.92.992 1.69 1.907 2.32 2.718.04-.038.07-.08.1-.116z"/>
  <path fill="#0086C7" d="M55.756 357.505c-9.84 0-15.326 1.43-18.274 2.715 5.243 3.134 9.85 7.187 13.69 11.292 1.09-.785 3.614-2.26 7.42-2.413 6.11-.27 9.838 2.83 10.964 3.93l.112-.31c1.228-3.38 2.546-7.06 3.927-10.95-1.627-1.01-7.663-4.25-17.615-4.27h-.224z"/>
  <path fill="#0086C7" d="M58.648 370.444c-.002 0-.006 0-.01.002.04-.002.077 0 .116-.002-.036.002-.07 0-.106 0z"/>
  <path fill="#409AD6" d="M67.007 377.336c-.086-.105-2.55-3.077-8.303-2.85-1.724.073-3.09.477-4.122.913 4.926 5.94 8.13 11.33 9.236 13.29 1.302-3.53 2.62-7.13 3.944-10.76-.287-.14-.55-.34-.755-.61z"/>
  <path fill="#0086C7" d="M19.643 386.225c.463.05.852.09 1.156.103 21.43 1.08 32.62 17.918 35.42 22.8 1.82-4.866 3.71-9.928 5.63-15.124-.15-.147-.28-.31-.38-.506-.14-.272-11.43-22.095-29.48-30.46-.13-.045-.26-.09-.39-.165-.02-.01-.04-.025-.05-.037-4.17-1.866-8.69-3.018-13.51-3.018-6.97 0-12.89.657-18.06 2.14V389.5c3.73-1.905 7.2-2.68 10.17-2.966 3.03-.52 6.18-.633 9.47-.31z"/>
  <path fill="#409AD6" d="M16.726 421.576l-.077.004.12-.004c-.02.002-.03 0-.05 0zm-12.798 4.108c3.313-2.516 7.444-3.74 12.584-4.096-5.104.21-9.26 1.218-12.584 4.096z"/>
  <path fill="#409AD6" d="M16.677 420.23c13.5-.517 25.982 15.295 28.36 18.488 2.73-7.146 5.864-15.404 9.248-24.41-.047-.073-.098-.147-.137-.23-.11-.24-11.147-23.518-35.57-23.518-.213 0-.42.008-.643.008-.534 0-1.15-.028-1.842-.06-3.736-.172-9.557-.43-16.092 3.487v34.266c3.99-5.99 9.48-7.77 16.68-8.03z"/>
  <path fill="#ADD8F2" d="M20.146 503.89c-5.276 12.346-11.19 25.934-16.75 38.22.398-.835.794-1.67 1.196-2.524 4.75-10.113 9.997-22.223 15.554-35.697zM34.906 465c1.12-2.87 4.058-10.42 8.155-21.112-.12-.118-.23-.25-.33-.4-.11-.19-11.66-18.868-25.89-17.87-7.44.504-13.17 2.166-16.84 13.855v106.85C14.29 515.11 31.97 472.526 34.91 465z"/>
  <path fill="#0086C7" d="M250.432 353.38c-9.613 0-18.187 8.495-21.372 12.073.43.374.846.75 1.26 1.127 2.124 1.866 4.04 3.8 5.71 5.674 1.25-2.682 5.194-8.992 14.663-9.083h.287c10.304 0 14.204 5.38 14.365 5.61l-.305.22c.076.1.143.19.206.28 5.207-2.06 10.898-3.71 16.98-4.6-3.896-3.79-13.652-11.02-31.555-11.28h-.23zm86.66 10.608c-4.15.095-8.376 3.092-10.963 5.335 3.23-2.176 7.63-4.778 10.84-5.32.04-.008.08-.008.12-.015z"/>
  <path fill="#0086C7" d="M339.496 353.197h-.018c-16.16 0-23.472 11.63-24.92 14.256 3.338 1.182 6.148 2.565 8.508 4.03.05-.035.095-.07.147-.11l-.603-.54c.3-.333 7.416-8.207 14.687-8.207h.013c4.186.006 7.46 1.013 9.977 2.317 2.155.947 3.636 2.248 4.58 3.325.805.803 1.36 1.507 1.71 2 4.103-1.9 8.47-3.438 13.054-4.604-2.09-3.748-8.91-12.456-27.13-12.467zm122.322 23.93c.163-.02.323-.043.486-.06-.162.017-.325.04-.486.06zm-3.872.518l.037-.007-.037.007zm17.324-1.272c-1.352-.088-2.732-.115-4.15-.04-.02.003-.035.003-.053.005 1.443-.073 2.838-.05 4.204.035zm-43.32-24.938h-.226c-18.01.088-29.043 8.006-33.923 12.575 5.93 1.124 11.02 3.165 15.29 5.57.06-.044.11-.097.17-.135.03-.022.12-.085.25-.166.88-1.04 6.44-7.07 17.62-6.42 5.4.31 13.56 2.06 22.62 13.12l.93.85c5.02-.92 10.45-1.54 16.38-1.86 1.25-.07 2.47-.06 3.67 0-3.71-6.47-19.83-23.55-42.76-23.55zM580.613 358h-.41c-11.358 0-19.396 6.07-21.713 8.047 3.23 4.11 5.41 8.34 6.523 12.292 3.06-2 12.957-7.83 23.368-7.12 9.36.63 19.11 5.22 25.15 11.74 2.27-2.04 4.7-3.91 7.28-5.64-.03-.08-.09-.14-.11-.22-.26-.76-6.97-18.69-40.07-19.11zm-26.76 8.997l-.075.107c-.592-.736-1.285-1.556-2.088-2.435-8.204-8.08-22.135-14.5-42.377-15.93-19.202-1.38-34.756 10.91-38.987 14.63 2.646 2.54 4.45 4.66 5.284 5.69.93 1.14 3.837 4.86 3.824 6.46 2.065.38 4.04.93 5.927 1.62 1.72-2.83 5.69-8.09 12.92-10.96 4.48-1.91 10.26-2.98 17.56-1.88 20.82 3.14 28.87 18.57 29.61 20.07 3.15-.69 6.15-1.05 8.94-1.18 2.17-.1 4.26-.1 6.32-.03-.21-5.4-2.45-11.05-6.84-16.2z"/>
  <path fill="#409AD6" d="M239.09 375.93c1.9 2.44 3.317 4.567 4.253 6.068 4.638-3.74 10.746-7.76 17.976-11.062-1.23-1.064-4.17-2.764-10.74-3.127-8.35-.44-10.91 6.09-11.5 8.12zm98.556-7.94c-2.896.488-7.872 3.676-11.08 5.955 1.594 1.273 2.894 2.555 3.955 3.763 2.05 2.115 3.41 4.1 4.27 5.606 4.34-4.367 9.37-8.088 14.96-11.117-.04-.064-.1-.12-.14-.196-.11-.21-2.96-5.52-11.96-4.01zm94.748-.19c-6.137-.738-12.726 2.556-15.496 4.155.833.57 1.63 1.148 2.39 1.73 6.07 4.472 9.746 9.252 11.368 11.65 5.524-3.29 11.852-5.765 19.166-7.488-.966-.92-1.83-1.762-2.633-2.548-5.13-5.02-6.67-6.53-14.8-7.5zm81.986.862c-15.643-2.365-22.842 6.142-25.287 10.086 4.657 2.283 8.677 5.37 12.06 8.633.932-1.49 5.105-7.16 14.8-6.41 8.713.67 13.568 6.31 15.06 8.98 3.317-1.86 6.596-3.25 9.776-4.27-2.48-4.23-10.09-14.54-26.41-17.01z"/>
  <path fill="#409AD6" d="M513.76 382.267c.162-.007.32-.013.487-.013-.167 0-.325.006-.486.013zm-1.384.083c.03-.002.06-.007.087-.01-.027.003-.058.008-.087.01zm87.194 19.253c.044-.088.08-.187.122-.276-4.68-4.458-9.508-7.967-14.608-10.614 6.64 3.862 11.755 8.3 14.487 10.89z"/>
  <path fill="#409AD6" d="M588.24 376.418c-10.968-.82-22.054 6.95-22.165 7.028-.064.045-.133.078-.2.114v.017c13.15 1.45 24.13 6.766 34.45 16.49.144-.284.28-.575.425-.852 2.43-4.6 5.493-8.812 9.067-12.608-2.15-2.995-8.145-9.164-21.577-10.19zm-14.04 13.64c11.163 4.58 19.54 11.985 23.51 15.956.05-.14.103-.278.155-.414-2.825-2.78-12-11.172-23.664-15.542z"/>
  <path fill="#ADD8F2" d="M515.748 386.35c-6.23-.49-9.836 2.332-11.524 4.22 5.25 5.855 8.485 11.626 9.623 13.83.14-.163.282-.312.42-.474 3.603-4.33 7.182-7.634 10.952-10.213.51-.377 1.02-.74 1.54-1.095-1.12-1.93-4.17-5.743-11.02-6.27z"/>
  <path fill="#0086C7" d="M231.9 394.266c.518-.787 1.042-1.572 1.585-2.353.72-1.027 1.783-2.283 3.134-3.676.98-1.092 2.19-2.302 3.6-3.574-3.6-5.815-18.18-26.878-39.73-25.527-10.48.647-20.69 8.52-23.24 10.615 2.85 5.7 5.8 11.52 8.76 17.29 1.08-1.04 3.24-2.85 6.64-4.4 3.78-2.03 9.08-3.75 16.01-3.4 6.17.3 11.15 3.02 14.94 6.19 3.92 2.97 6.68 6.48 8.28 8.84z"/>
  <path fill="#409AD6" d="M229.516 398.07c-1.736-2.902-8.944-13.617-20.97-14.198-13.913-.68-19.966 6.303-20.217 6.6-.11.13-.24.235-.37.33 2.07 4.016 4.14 7.986 6.16 11.813 1.06-.844 3.14-2.188 6.32-2.98 1.74-.5 3.72-.785 5.88-.64.51.007 1.04.024 1.58.067 5.82.436 10.84 4.057 13.83 6.77 1.05.804 1.94 1.543 2.57 2.118 1.54-3.348 3.26-6.646 5.18-9.88z"/>
  <path fill="#ADD8F2" d="M209.337 403.667c-6.54-2.22-11.97 1.604-13.254 2.618 7.936 14.89 14.977 27.264 18.883 32.387 1.607-9.003 4.028-18.037 7.646-26.788-.74-.745-5.86-5.696-13.275-8.217z"/>
  <path fill="#FFF" d="M213.71 484.542c-.516-14.277-.432-28.892 1.688-43.31l-.028.028c-9.722-10.047-51.614-94.91-59.893-113.6-5.596-12.63-32.09-81.906-36.716-94.017-1.9 5.99-7.8 24.476-8.94 27.66-3.64 10.128-9.44 27.043-15.57 44.945-7.88 23.02-16.82 49.113-23.3 66.934-16.28 44.77-31.82 84.75-34.77 92.305-1.67 4.29-8.13 19.95-16.01 38.4-5.56 13.476-10.8 25.585-15.55 35.697-.4.854-.79 1.69-1.19 2.524-1.15 2.546-2.28 5.03-3.39 7.44v46.73H166.7c8.55-5.625 18.03-12.538 26.47-19.933 17.1-14.987 21.772-58.822 20.576-91.803z"/>
  <path fill="#ADD8F2" d="M286.35 581.287c3.264-3.414 6.276-6.897 8.838-10.377 2.373-3.224 4.4-6.778 6.145-10.55 6.07-14.932 9.467-39.525 10.112-73.413l.013-.645c.07-3.652.087-7.47.105-11.42.06-12.51.152-26.62 2.012-40.657-1.77-1.754-7.984-7.175-13.7-3.17l-.13.09c-7.582 5.316-16.177 11.343-16.44 76.94-.144 35.468-12.147 61.567-35.678 77.58l-.833.57c-5.676 3.925-11.713 7.252-17.614 10.044h40.697c5.63-4.64 11.337-9.72 16.474-15zm108.54-23.945c11.08-20.227 10.79-49.183 9.204-72.588-.342-5.036-.686-9.718-1.01-14.092l-.105-1.455c-.3-3.448-.58-6.68-.85-9.717-1.01-11.286-1.76-19.76-1.46-26.99-1.6-.82-4.81-2.092-8.48-1.375-3.89.756-7.4 3.537-10.43 8.26-7.49 11.675-6.68 49.033-6.24 69.104.14 6.44.24 11.09.04 13.14-.8 8.2-7.02 47.39-13.32 59.88-2.77 5.48-5.99 10.41-9.36 14.76h10.93c10.89-11.21 21.98-25.06 29.96-37.18.38-.58.74-1.17 1.1-1.76zm84.093-25.742c.272-2.745.545-6.043.854-9.773.552-6.637 1.235-14.838 2.24-23.802 1.172-15.052 2.365-27.302 5.797-40.293-.892-2.46-6.885-17.857-16.21-15.063l-.792.23c-8.23 2.44-12.363 3.67-11.91 58.15.42 49.79-6.66 62.46-12.35 72.64-.96 1.71-1.866 3.33-2.705 5.07-2.154 4.44-5.76 10.94-10.012 17.51h18.854c12.85-14.78 19.22-27.29 22.86-42.35 1.54-6.78 2.55-14.06 3.36-22.33zm84.424 51.213c3.265-3.416 6.276-6.9 8.84-10.38 2.376-3.224 4.402-6.78 6.146-10.553 6.07-14.93 9.466-39.526 10.11-73.41l.014-.647c.044-2.304.074-4.79.108-7.413.06-4.42.124-9.27.26-14.357-.273-.138-.523-.336-.716-.605-.08-.102-7.36-10.066-14.5-10.807-2.12-.22-3.96.43-5.66 1.97-12.85 11.68-12.81 27.73-12.75 49.94.02 8.41.05 17.94-.71 28.12-2.41 32.41-7.73 50.68-14.3 61.63h8.5c5.03-4.22 10.06-8.76 14.64-13.46z"/>
  <path fill="#409AD6" d="M251.686 449.33c.67-4.982 1.448-9.527 2.356-13.693-1.07 4.38-1.822 8.983-2.356 13.693z"/>
  <path fill="#409AD6" d="M255.586 574.188c5.426-5.22 11.552-12.923 16.214-24.264.025-.065.054-.128.08-.196.19-.464.37-.952.555-1.43 4.1-11.25 6.127-24.654 6.19-40.516.262-65.046 8.342-74.99 18.08-80.614 2.044-1.18 4.207-1.57 6.303-1.504 4.258-.454 8.34 1.543 11.266 3.802.99-6.043 2.383-12.02 4.26-17.83-.256-.56-6.535-13.663-32.203-8.683-25.7 4.99-30.64 25.023-34.25 91.325-.74 13.58-2.46 25.495-4.78 35.936-4.15 22.78-11.81 39.794-22.06 52.25-3.42 4.888-6.48 8.49-8.64 11.04-.51.607-.97 1.15-1.37 1.634-.32.383-.68.765-1.07 1.143h4.01c8.06-3.53 17.46-8.21 27.16-14.22 3.78-2.34 7.19-4.97 10.3-7.86zm105.578-.938c3.827-11.83 7.41-31.522 9.225-43.396.36-3.712.56-7.036.56-9.712 0-1.458-.07-3.883-.16-6.95-.55-18.896-1.85-63.15 7.48-76.703 8.46-12.29 19.53-9.95 22.79-8.92.84-6.73 2.94-12.58 7.1-19.09-4.29-2.3-17.18-8.42-28.35-5.57-.83.21-1.75.38-2.75.57-9.8 1.85-28.04 5.29-27.34 74.5.72 71.33-13.28 96.18-19.26 106.79-.55.97-1.03 1.82-1.43 2.59-1.71 3.25-3.72 6.2-5.92 8.89h24.4c3.97-4.82 7.85-10.53 11.14-17.15.86-1.74 1.69-3.73 2.49-5.88zm79.106 3.752c.89-1.838 1.823-3.51 2.814-5.282.15-.27.303-.542.455-.817l.24-.463c5.58-10.438 11.35-21.23 10.93-71.484-.48-56.313 5.13-57.817 15.29-60.55l.95-.26c10.36-2.836 17.11 8.62 19.02 12.394 1.4-4.352 3.09-8.86 5.14-13.635.08-.206.15-.42.23-.624-4.01-7.35-15.35-23.85-25.74-22.62-1.7.21-3.33.36-4.88.5-11.56 1.05-17.93 1.62-24.56 23.86-5.25 17.61-5.46 54.49-5.6 78.89-.08 12.77-.13 22-.79 25.47-.98 5.09-6.54 31.19-19.7 45.11-2.79 2.95-5.68 5.93-8.59 8.81h23.32c2.65-3.85 5.17-7.85 7.37-11.6 1.57-2.78 2.96-5.4 4.07-7.68zm110.89-74.372c.02-23.3.034-40.137 15.11-50.765 8.578-6.042 19.232 4.02 22.823 7.883.246-6.18.636-12.598 1.273-18.993-.03-.06-.078-.104-.102-.17-.313-.843-7.51-19.578-27.97-16.18-.972.16-1.923.31-2.852.453-6.99 1.1-12.65 1.99-17.293 7.075-1.11 1.324-2.18 2.813-3.2 4.497-5.75 10.178-9.7 30.374-12.65 72.182-4.13 58.414-10.49 75.832-20.1 86.176-.42.445-.9.945-1.44 1.492h29.77c7.2-9.792 13.1-27.71 15.79-64.076.81-10.89.82-20.813.82-29.573z"/>
  <path fill="#0086C7" d="M214.12 589.215c.592-.796 1.33-1.718 2.18-2.786 8.287-10.4 27.3-34.27 31.48-88.44.09-1.3.185-2.6.257-3.94.964-17.69 2-32.47 3.65-44.73.533-4.71 1.286-9.32 2.355-13.7.94-4.31 2.027-8.2 3.3-11.69 5.425-15.4 14.013-22.79 28.476-25.59 22.785-4.43 31.34 4.23 33.878 7.94.1.11.214.23.31.34.96-3.03 2.042-5.75 3.26-8.07 2.352-4.45 5.234-8.52 8.567-12.2-1.683-3.58-9.343-16.01-35.15-17.71-22.822-1.49-41.938 9.24-52.388 17.92-.085.09-.18.16-.285.24-3.436 2.88-5.903 5.53-7.213 7.4-20 28.58-21.404 64.26-20.393 92.15.27 7.45 1.96 73.37-21.497 93.93-6.527 5.72-13.688 11.16-20.58 15.96h32.618c2.674-2 5.137-4.33 7.176-7.07z"/>
  <path fill="#0086C7" d="M247.29 530.214c-5.592 25.13-14.68 41.7-22.063 52.25 10.244-12.456 17.907-29.47 22.063-52.25zm78.17 55.296c.42-.8.92-1.693 1.488-2.7 5.818-10.327 19.444-34.517 18.736-104.767-.186-18.396.99-32.374 3.02-43.03 6.16-34.073 21.118-35.498 30.127-36.354.58-.06 1.13-.11 1.65-.17.8-.09 1.59-.14 2.38-.17 11.81-1.21 23.7 4.64 27.6 6.8 1.96-2.73 4.28-5.61 7-8.73 2.95-3.38 6.2-6.32 9.82-8.85-2.91-4.31-13.43-17.48-34.04-19.55-.17 0-.35-.02-.52-.06-1.61-.15-3.28-.23-5.01-.23h-.26c-27.16.12-49.82 12.36-60.59 32.76-9.51 18.01-10.3 63.46-10.64 82.86l-.06 3.16c-.03 1.49-.04 3.16-.06 5-.21 20.5-.6 58.65-17.64 81.8-5.88 7.99-13.86 15.89-22.02 22.97h41.32c.07-.07.13-.13.19-.2 2.86-3.1 5.46-6.61 7.54-10.58z"/>
  <path fill="#0086C7" d="M412.137 582.93c10.864-11.486 15.25-32.92 17.358-43.224l.137-.685c.7-3.4.626-12.54.53-24.11-.192-23.6-.484-59.26 5.765-80.21 7.682-25.76 21.53-25.68 31.657-25.6l1.613.01h.01c14.197 0 25.742 17.9 28.267 22.12 1.046-2.34 2.147-4.61 3.33-6.76.58-1.05 1.152-2.07 1.723-3.06 2.575-4.86 5.28-9.14 8.067-12.88-2.52-5.14-15.073-28.17-37.607-28.17-.592 0-1.19.02-1.797.05-24.577 1.32-40.524 7.64-51.704 20.48-16.125 18.52-15.1 32.4-12.368 69.51.324 4.39.668 9.08 1.01 14.12 1.73 25.51 1.918 57.52-12.084 78.8-7.11 10.81-16.397 22.69-25.89 33.01h28.59c4.625-4.23 9.237-8.95 13.393-13.35zM542.15 431.934c-1.127 1.23-2.19 2.712-3.2 4.497 1.025-1.68 2.094-3.17 3.2-4.49z"/>
  <path fill="#0086C7" d="M504.23 590.257c2.62-2.823 4.815-6.274 6.707-10.874.566-1.406 1.116-2.923 1.652-4.57 4.09-12.833 6.62-33.257 9.13-68.752 5.23-74.12 13.09-83.14 41.8-86.88 16.18-2.09 25.03 8.84 27.84 13.15 1.31-9.41 3.31-18.48 6.34-26.31-3.97-3.97-12.35-11.37-23.51-15.95-6-2.24-12.65-3.43-19.43-2.22-21.86 3.88-33.13 7.15-50.42 38.57-14.76 26.81-18.48 71.66-20.48 95.76-.31 3.75-.59 7.07-.86 9.84-2.6 26.4-7.03 43.13-24.39 64.29h39.45c2.3-2.09 4.41-4.14 6.15-6.02z"/>
  <path fill="#FFF" d="M276.027 283.047c-.882-2.822-.752-4.09-5.097-4.09-4.905.004-6.272 5.914-3.5 9.25 2.058 2.476 10.67 1.452 8.597-5.16zm78.57 51.75c-.58-1.995-.494-2.893-3.337-2.89-3.21 0-4.106 4.178-2.29 6.534 1.345 1.75 6.986 1.03 5.627-3.64zm44.795-71.8c-.352-1.22-.3-1.765-2.04-1.765-1.962 0-2.51 2.553-1.4 3.993.824 1.07 4.27.628 3.44-2.227zm-196.222 68.63c-.51-1.76-.436-2.552-2.942-2.55-2.833 0-3.623 3.687-2.02 5.764 1.187 1.55 6.16.91 4.962-3.21zm274.467-6.29c-.583-1.997-.497-2.89-3.338-2.89-3.21 0-4.11 4.177-2.3 6.534 1.34 1.75 6.98 1.03 5.63-3.64zm-3.517-74.487c-2.652 0-3.395 3.453-1.893 5.397 1.113 1.444 5.766.847 4.646-3.01-.477-1.646-.41-2.386-2.754-2.386zM9.728 335.023c.853 3.62 10.004 6.424 11.167-1.683.497-3.46 1.25-4.775-3.11-6.75-4.93-2.23-9.204 3.558-8.057 8.433zm61.69-78.205c-.51-1.76-.435-2.55-2.94-2.548-2.834 0-3.624 3.685-2.023 5.762 1.187 1.543 6.16.902 4.963-3.214zm477.142-13.013c-.51-1.76-.44-2.55-2.945-2.55-2.83 0-3.618 3.686-2.02 5.763 1.186 1.542 6.16.904 4.964-3.213zm-15.044 95.01c-.35-1.223-.3-1.77-2.038-1.766-1.96 0-2.51 2.55-1.398 3.99.82 1.07 4.267.62 3.436-2.23zM15.77 241.327c-.352-1.22-.3-1.767-2.038-1.767-1.963 0-2.51 2.554-1.4 3.995.824 1.07 4.27.626 3.44-2.228zM300.822 356.62c-.354-1.218-.3-1.767-2.04-1.767-1.962 0-2.51 2.556-1.4 3.995.824 1.07 4.27.63 3.44-2.227zm-103.56-108.963c-.353-1.22-.3-1.766-2.04-1.765-1.962 0-2.51 2.553-1.4 3.995.824 1.068 4.27.625 3.44-2.23zm365.258 50.406c-.884-2.82-.752-4.09-5.095-4.09-4.904.002-6.276 5.912-3.5 9.25 2.058 2.475 10.67 1.45 8.596-5.16zM274.74 230.79c-.58-1.993-.493-2.89-3.335-2.89-3.212 0-4.107 4.18-2.292 6.535 1.345 1.75 6.985 1.025 5.627-3.644zm68.03 14.68c-.356-1.218-.303-1.766-2.04-1.766-1.964 0-2.51 2.554-1.403 3.996.825 1.07 4.27.625 3.442-2.23zM0 389.5v.634c3.208-1.79 6.6-2.986 10.173-3.6-2.966.284-6.44 1.06-10.173 2.965zm16.092 1.01c.69.03 1.308.06 1.842.06.224 0 .43-.01.642-.01 24.424 0 35.462 23.28 35.57 23.518.04.084.09.158.138.23.437-1.16.876-2.333 1.32-3.518-1.244-2.398-12.1-21.97-34.873-23.115-.32-.016-.73-.057-1.22-.106-7.13-.72-13.63.66-19.51 4.12v2.3c6.54-3.92 12.36-3.66 16.1-3.49zm.748 35.108c14.227-1 25.774 17.68 25.89 17.868.092.152.208.283.33.4l1.55-4.04-.275.195c-.135-.19-13.525-18.89-27.565-18.46l-.12.01c-.046 0-.09.01-.137.01-5.14.36-9.27 1.58-12.584 4.1-1.47 1.27-2.78 2.9-3.93 5v8.8c3.66-11.69 9.39-13.35 16.84-13.85zm38.916-68.113c.075 0 .15 0 .225.002 9.96.02 15.99 3.26 17.62 4.262l1.24-3.51c-.2-.15-5.24-3.72-14.58-4.61h-.04c-.63-.07-1.28-.11-1.94-.14-.54-.03-1.11-.04-1.68-.05-.2-.01-.39-.02-.6-.02-11.8 0-19.3 3.46-21.89 4.89 1.17.57 2.29 1.2 3.4 1.87 2.95-1.29 8.44-2.72 18.28-2.72zm2.95 16.98c5.75-.227 8.216 2.745 8.302 2.85.206.274.467.475.755.61.475-1.3.947-2.59 1.423-3.897l-.28.243c-.037-.04-3.64-4.03-10.152-3.84h-.117c-3.305.14-5.54 1.39-6.542 2.08.875.97 1.7 1.93 2.488 2.88 1.032-.43 2.397-.84 4.122-.91z"/>
  <path fill="#FFF" d="M31.565 362.835c.02.012.033.027.052.037.124.076.255.12.386.166 18.055 8.364 29.342 30.187 29.48 30.46.1.194.23.357.375.505l1.49-4.03-.285.15c-.172-.335-17.023-32.233-42.484-34.25-.02 0-.04-.002-.05-.004-.82-.07-1.64-.1-2.47-.1-6.9 0-12.84.66-18.06 2.13v4.05c5.17-1.48 11.09-2.14 18.06-2.14 4.82 0 9.34 1.15 13.5 3.02zm219.125-12.747l-.256-.002c-11.455 0-21.35 11.224-23.382 13.688.693.55 1.353 1.112 2.007 1.68 3.18-3.58 11.75-12.074 21.37-12.074.08 0 .16 0 .24.002 17.9.26 27.65 7.49 31.55 11.28 1.04-.155 2.1-.292 3.16-.4-2.78-3.25-13.46-13.866-34.71-14.174zm142.612 13.27l-.333-.244c-.07.072-.12.127-.18.195l.5.04zm-106.282.767c.065-.006.132-.006.197-.013-.91-1.162-3.377-3.987-7.78-6.86 4.422 3.043 6.87 5.95 7.584 6.873zm-61.113-1.228c.025.018.05.033.072.05.36-.45.99-1.19 1.81-2.084-.75.764-1.39 1.46-1.89 2.034zm130-10.96c-4.256-1.654-9.617-2.775-16.356-2.785h-.03c-16.6.58-26.23 14.31-28.13 17.297 1.11.31 2.17.64 3.18 1 1.45-2.63 8.76-14.26 24.92-14.26h.02c18.23.01 25.04 8.72 27.14 12.46 1.15-.29 2.31-.56 3.48-.8-.98-2.01-4.96-8.96-14.19-12.93zm-125.59 14.643c2.115 1.938 4.014 3.926 5.643 5.82l.07-.146c-1.672-1.875-3.587-3.808-5.712-5.674z"/>
  <path fill="#FFF" d="M264.242 369.56c-.037-.055-3.728-5.152-13.537-5.04-9.92.095-13.206 7.525-13.772 9.04 3.228 3.92 5.314 7.266 6.134 8.654.088-.07.187-.144.275-.216-.936-1.5-2.354-3.63-4.253-6.07.59-2.02 3.14-8.55 11.49-8.118 6.56.363 9.51 2.063 10.73 3.127 1.27-.58 2.58-1.133 3.92-1.666-.07-.09-.13-.17-.21-.27l-.8.57zm83.045-4.617c1.99 1.035 3.504 2.25 4.58 3.325-.945-1.077-2.425-2.377-4.58-3.325zm-20.722 9.002c3.21-2.28 8.184-5.467 11.08-5.955 8.997-1.52 11.853 3.8 11.96 4.01.038.076.097.133.14.197.852-.46 1.714-.904 2.59-1.333-1.465-1.923-6.1-6.876-15.027-6.892h-.01c-.07 0-.137.016-.205.016-.04.007-.08.007-.12.014-3.207.543-7.606 3.146-10.845 5.32-1.528 1.324-2.487 2.384-2.513 2.41l-.403-.36c-.052.04-.098.076-.147.11 1.297.806 2.46 1.634 3.5 2.463zm86.525-4.365c1.35.763 2.617 1.557 3.808 2.375 2.77-1.6 9.36-4.894 15.496-4.155 8.126.976 9.673 2.486 14.795 7.5.8.786 1.66 1.627 2.63 2.548 1.03-.243 2.07-.477 3.14-.688-8.84-10.95-16.73-12.648-21.92-12.95-11.26-.65-16.54 5.972-16.59 6.038l-1.07-.822c.01-.022.05-.07.12-.146-.13.08-.22.144-.25.166-.07.037-.12.09-.17.135zm41.35 7.25l-.082.062c.103-.02.212-.03.313-.052l-.93-.856c.24.283.47.547.7.846zm30.92.332c.095.033.194.06.288.094.467-.87 4.23-7.462 12.632-11.05-7.23 2.867-11.208 8.125-12.92 10.956z"/>
  <path fill="#FFF" d="M431.922 347.39h-.24c-1.255.01-2.463.068-3.652.14-.565.036-1.125.08-1.675.133-.574.05-1.133.11-1.692.177-19.41 2.408-29.266 13.783-30.72 15.597 1.32.15 2.61.34 3.86.574 4.88-4.56 15.912-12.48 33.923-12.57h.225c22.94 0 39.06 17.09 42.77 23.55 1.15.06 2.27.17 3.37.33-.25-.97-2.51-4.77-7.49-9.81-5.39-5.46-19.93-18.11-38.66-18.11zm83.713 18.274c-19.88-2.995-27.732 10.234-28.728 12.09.745.31 1.47.645 2.186.994 2.445-3.944 9.645-12.45 25.288-10.086 16.33 2.47 23.93 12.785 26.41 17.013 1.12-.358 2.22-.67 3.31-.943-1.24-2.382-9.17-16.153-28.46-19.068zM330.52 377.708c2.235 2.54 3.397 4.76 3.918 5.94.112-.115.233-.22.347-.334-.856-1.507-2.214-3.49-4.264-5.606zm88.766-4.02c6.285 4.85 9.915 9.92 11.13 11.787.08-.045.16-.09.24-.138-1.623-2.4-5.3-7.18-11.37-11.65z"/>
  <path fill="#FFF" d="M515.85 382.308c-.557-.043-1.088-.055-1.603-.054-.167 0-.325.006-.486.013-.44.01-.88.03-1.29.074-.02.01-.05.01-.08.01-7.34.78-10.15 5.86-10.23 6.01.73.74 1.42 1.48 2.08 2.22 1.69-1.88 5.3-4.71 11.53-4.22 6.86.53 9.9 4.34 11.02 6.27 1.03-.7 2.06-1.38 3.08-1.99-1.22-2.18-5.73-7.68-13.99-8.32zm-1.583 21.618c3.586-4.15 7.267-7.508 10.952-10.213-3.78 2.58-7.35 5.884-10.96 10.213zm-280.782-12.013c-.544.78-1.068 1.565-1.585 2.353-1.593-2.363-4.354-5.87-8.28-8.843 4.283 3.58 7.028 7.73 8.14 9.61.904-1.438 1.84-2.87 2.83-4.292.51-.73 1.192-1.57 2.03-2.5-1.35 1.4-2.414 2.65-3.135 3.68zm-47.24-4.45c1.025-1.094 3.16-3.075 6.42-4.83-3.395 1.558-5.562 3.36-6.64 4.405l.22.426zm53.975-2.8c.57-.52 1.162-1.043 1.795-1.58-2.155-3.707-17.623-28.722-41.602-27.236-11.664.717-22.877 9.948-24.46 11.297.432.863.873 1.738 1.31 2.607 2.545-2.09 12.75-9.96 23.234-10.61 21.55-1.35 36.126 19.71 39.724 25.53z"/>
  <path fill="#FFF" d="M208.612 380.58c-13.01-.63-20.165 6.442-21.71 8.167.356.69.71 1.368 1.064 2.056.13-.096.255-.2.362-.33.25-.298 6.304-7.28 20.218-6.6 12.025.58 19.233 11.295 20.97 14.198-1.926 3.24-3.643 6.53-5.183 9.88-.637-.57-1.52-1.31-2.577-2.11 1.417 1.29 2.388 2.37 2.767 2.82 1.844-4.16 3.965-8.28 6.423-12.32-1.224-2.22-8.886-15.1-22.334-15.75z"/>
  <path fill="#FFF" d="M196.083 406.285c1.285-1.015 6.714-4.838 13.254-2.618 7.415 2.52 12.534 7.472 13.275 8.217-3.618 8.75-6.04 17.785-7.646 26.788.244.322.478.624.697.885 1.63-10.29 4.313-20.476 8.614-30.35l-.62.504c-.07-.08-7.177-8.65-15.837-9.3-7.393-.53-11.648 2.29-13.042 3.43.44.83.87 1.64 1.305 2.45zm4.373-6.65c1.656-.417 3.61-.68 5.88-.64-2.153-.145-4.136.14-5.88.64zm85.894 181.652c3.683-3.777 7.073-7.65 9.923-11.525 1.856-2.52 3.542-5.663 5.06-9.4-1.744 3.77-3.77 7.325-6.144 10.55-2.57 3.478-5.58 6.96-8.84 10.375zm-38.725 4.38c23.53-16.014 35.535-42.113 35.677-77.58.265-65.6 8.86-71.625 16.44-76.94l.13-.09c5.717-4.006 11.932 1.415 13.7 3.17.136-1.02.256-2.035.41-3.05-1.61-1.135-10.02-6.64-16.605-2.836-7.227 4.17-17.125 9.89-17.403 79.45-.152 37.18-10.95 61.14-33.98 75.41-8.665 5.38-17.1 9.69-24.56 13.08h7.743c5.9-2.79 11.938-6.12 17.614-10.04l.84-.57zm156.468-100.913c1.585 23.405 1.875 52.36-9.205 72.588 12.773-21.25 10.656-52.207 9.238-72.88l-.134-1.978c-.325-4.793-.67-9.19-1.014-13.277l.106 1.455c.323 4.374.667 9.056 1.01 14.092zm-28.515 36.882c.2-2.05.097-6.706-.042-13.147-.438-20.07-1.253-57.43 6.236-69.11 3.03-4.73 6.537-7.51 10.424-8.26 3.673-.72 6.885.55 8.478 1.37.05-1.22.128-2.41.243-3.57-2.524-.91-13.186-3.81-21.53 8.32-9.08 13.19-7.796 57.13-7.25 75.9.09 3.08.163 5.51.163 6.98 0 13.9-5.216 45.05-12.42 59.58-3.138 6.33-6.83 11.84-10.623 16.55h3.645c3.37-4.35 6.59-9.27 9.358-14.76 6.302-12.49 12.52-51.68 13.318-59.89zm71.034 52.06c5.69-10.18 12.77-22.85 12.352-72.645-.454-54.47 3.68-55.7 11.91-58.14l.79-.23c9.326-2.79 15.32 12.61 16.21 15.07.485-1.84 1.01-3.69 1.59-5.57l-.174.08c-.066-.15-6.812-15.84-17.974-12.78l-.952.26c-9.518 2.56-14.764 3.97-14.3 59.24.42 50.59-5.432 61.54-11.092 72.13-.792 1.48-1.54 2.88-2.277 4.4-2.21 4.57-6.828 12.83-12.246 20.8h3.44c4.25-6.57 7.85-13.07 10.01-17.51.84-1.73 1.74-3.35 2.7-5.06zm32.37-42.096c-.815 8.27-1.82 15.56-3.364 22.33 1.826-7.563 2.974-15.77 3.907-25.24.935-9.483 1.58-17.92 2.144-25.36.14-1.813.27-3.57.4-5.305-1.01 8.964-1.69 17.165-2.24 23.802-.31 3.73-.58 7.027-.86 9.774zm-227.296-82.27c-1.648 12.256-2.685 27.043-3.65 44.728-.07 1.335-.165 2.633-.256 3.933.15-1.96.288-3.94.398-5.98 1.734-31.81 4.038-53.51 9.164-68.05-1.272 3.49-2.36 7.38-3.3 11.69-.908 4.17-1.686 8.71-2.356 13.7z"/>
  <path fill="#FFF" d="M303.007 425.664c4.874.152 9.388 2.813 11.222 4.04.01-.077.03-.157.04-.238-2.93-2.26-7.01-4.256-11.27-3.802zM272.435 548.3c-.184.476-.364.964-.554 1.428.19-.477.38-.945.56-1.43zm-16.85 25.888c7.064-6.563 12.444-14.586 16.215-24.264-4.66 11.34-10.787 19.043-16.214 24.264z"/>
  <path fill="#FFF" d="M216.58 593.505c2.168-2.55 5.225-6.153 8.646-11.04 7.383-10.55 16.472-27.122 22.063-52.25 2.32-10.44 4.04-22.356 4.78-35.937 3.61-66.302 8.55-86.334 34.25-91.325 25.66-4.98 31.94 8.123 32.2 8.682.36-1.125.71-2.26 1.12-3.373l-.3.128c-.07-.14-6.44-13.914-33.29-8.707-27.25 5.292-33.03 27.71-36.55 92.398-3.21 58.86-23.5 84.32-32.17 95.19-.85 1.06-1.57 1.97-2.15 2.76-1.77 2.37-3.84 4.44-6.08 6.26h4.99c.39-.37.76-.76 1.07-1.14.39-.48.86-1.02 1.37-1.63zm113.893-8.71c5.98-10.61 19.976-35.46 19.256-106.79-.7-69.208 17.54-72.653 27.33-74.503 1-.188 1.92-.364 2.75-.575 11.17-2.85 24.06 3.263 28.35 5.563.38-.6.78-1.203 1.2-1.813-3.68-1.934-16.69-8.185-28.74-6.844-.53.06-1.09.11-1.67.164-11.33 1.08-32.41 3.084-31.68 76.188.72 71.968-12.58 96.128-18.26 106.44-.44.803-.84 1.526-1.19 2.185-2.27 4.332-5.12 8.137-8.25 11.47h3.53c2.19-2.69 4.21-5.643 5.91-8.896.4-.77.88-1.62 1.42-2.59zm39.915-54.94c-1.814 11.872-5.397 31.564-9.225 43.395 4.522-12.238 7.937-30.285 9.225-43.396zM440.27 577c-1.103 2.278-2.493 4.9-4.07 7.68 2.123-3.63 3.94-7.02 5.285-9.79.668-1.38 1.367-2.703 2.055-3.99-.152.276-.305.548-.455.818-.992 1.773-1.927 3.444-2.814 5.282zm-26.172 10.476c13.16-13.914 18.71-40.015 19.693-45.105.67-3.47.72-12.7.79-25.47.14-24.4.34-61.28 5.6-78.88 6.63-22.23 13-22.81 24.56-23.85 1.56-.14 3.18-.28 4.88-.49 10.4-1.23 21.73 15.27 25.74 22.62-.08.21-.15.42-.23.63.6-1.4 1.22-2.81 1.89-4.27l-.19.11c-.13-.22-12.64-22.3-27.6-22.3h-1.63c-10.23-.07-22.96-.15-30.36 24.64-6.19 20.76-5.9 56.3-5.71 79.82.1 11.65.18 20.85-.55 24.4l-.14.69c-2.13 10.42-6.57 32.11-17.7 43.88-3.85 4.07-8.09 8.43-12.38 12.43h4.78c2.92-2.87 5.8-5.86 8.59-8.8zm83.376-156.26c.032.056.07.116.1.165 1.338-2.87 2.795-5.85 4.403-8.96.18-.35.365-.68.55-1.03-.57 1-1.143 2.02-1.723 3.07-1.183 2.15-2.284 4.42-3.33 6.77z"/>
  <path fill="#FFF" d="M216.405 486.392c-1.01-27.895.394-63.575 20.393-92.157 1.31-1.87 3.777-4.515 7.213-7.398.11-.07.2-.15.29-.238 10.45-8.68 29.57-19.41 52.39-17.92 25.81 1.69 33.47 14.12 35.15 17.7-3.33 3.68-6.21 7.75-8.56 12.2-1.22 2.31-2.3 5.03-3.26 8.06-.09-.11-.21-.23-.31-.35.17.24.31.46.42.65 1.26-3.31 2.69-6.55 4.35-9.69 2.43-4.6 5.47-8.78 8.97-12.54-.81-2.03-7.92-17.47-36.65-19.35-31.25-2.05-55.71 18.43-61.08 26.12-20.05 28.74-21.77 61.67-20.63 92.98.27 7.38 1.95 72.72-21.04 92.86-7.92 6.95-16.77 13.47-24.92 18.92h5.24c6.89-4.8 14.05-10.24 20.58-15.96 23.46-20.56 21.77-86.48 21.5-93.93z"/>
  <path fill="#FFF" d="M298.445 573.308c17.04-23.145 17.43-61.304 17.64-81.8.018-1.842.036-3.52.064-5.006l.05-3.164c.33-19.405 1.12-64.852 10.64-82.864 10.77-20.392 33.42-32.64 60.59-32.757h.26c1.73 0 3.4.077 5.01.224.17.05.34.06.52.06 20.6 2.06 31.12 15.24 34.03 19.55.65-.46 1.33-.91 2.01-1.34-2.47-3.78-15.56-21.77-41.6-21.77h-.25c-27.68.13-50.77 12.64-61.78 33.48-12.49 23.64-12.63 53.22-12.75 76.99-.02 3.96-.04 7.78-.11 11.44l-.02.65c-.81 42.66-6 70.78-15.43 83.59-6.61 8.97-16.04 17.94-25.38 25.72h4.44c8.16-7.08 16.14-14.98 22.02-22.97z"/>
  <path fill="#FFF" d="M408.128 484.48c-.342-5.044-.687-9.733-1.01-14.116-2.734-37.106-3.757-50.99 12.367-69.507 11.18-12.84 27.126-19.156 51.704-20.48.6-.033 1.2-.047 1.79-.047 22.53 0 35.09 23.027 37.6 28.172.76-1.028 1.53-2.027 2.31-2.98-1.67-3.34-14.53-27.638-37.64-29.15-1.37-.084-2.77-.108-4.21-.035-3.05.164-5.97.407-8.77.73-.16.016-.32.04-.49.06-1.3.153-2.59.32-3.84.51l-.04.007c-17.73 2.698-30.19 8.963-39.48 19.63-18.64 21.397-17.79 30.83-15 62.095.59 6.64 1.26 14.17 1.86 23.02l.13 1.97c1.47 21.43 3.69 53.82-10.56 75.47-7.93 12.05-18.56 25.43-29.13 36.44h4.36c9.49-10.32 18.78-22.2 25.89-33.01 14-21.28 13.81-53.29 12.09-78.8z"/>
  <path fill="#FFF" d="M483.867 522.16c2-24.1 5.727-68.954 20.48-95.757 17.298-31.427 28.57-34.69 50.423-38.57 6.785-1.21 13.437-.02 19.43 2.225 11.664 4.37 20.84 12.762 23.665 15.542.54-1.37 1.102-2.707 1.706-3.997-2.73-2.59-7.84-7.027-14.48-10.89-9.05-4.693-18.99-6.645-30.65-6.136-14.65.643-35.44 7.838-51.26 38.46-16.46 31.876-17.85 50.14-20.16 80.396-.56 7.447-1.21 15.89-2.14 25.392-2.78 28.257-7.42 45.432-26.33 67.456h4.09c17.35-21.16 21.78-37.88 24.38-64.28.27-2.76.55-6.08.86-9.83zm-138.182-44.117c.708 70.25-12.917 94.44-18.736 104.767-.57 1.007-1.07 1.9-1.49 2.7-2.08 3.968-4.68 7.484-7.54 10.576 3.32-3.42 6.35-7.366 8.73-11.897.35-.67.75-1.4 1.19-2.22 5.63-10.23 18.81-34.17 18.08-105.78-.18-17.38.88-30.8 2.76-41.19-2.03 10.65-3.21 24.63-3.02 43.03z"/>
  <path fill="#0086C7" d="M738.878 378.65c.16-.02.32-.042.482-.06-.163.018-.32.04-.482.06zm-3.873.52c.012-.004.023-.007.04-.01-.017.003-.028.006-.04.01zm16.772-1.3c-.465-.022-.93-.045-1.405-.05.476.005.94.03 1.405.05zm-3.602-.013c-.017.002-.03.002-.045.002.216-.01.425-.01.64-.02-.203 0-.392 0-.595.01zm-39.168-24.9h-.223c-17.954.09-29.026 8.027-33.923 12.594 5.9 1.12 10.97 3.14 15.23 5.53 1.46-1.57 7.53-7.3 18.09-6.69 5.4.32 13.56 2.06 22.62 13.12l.93.86c5.02-.91 10.45-1.53 16.38-1.85 1.25-.06 2.48-.06 3.67 0-3.71-6.47-19.83-23.55-42.76-23.55zm122.097 15.777l-.094.116c-.637-.81-1.406-1.726-2.32-2.718-8.21-8.05-22.125-14.44-42.32-15.868-19.193-1.38-34.753 10.922-38.984 14.64 2.65 2.556 4.46 4.675 5.295 5.705.93 1.14 3.82 4.84 3.82 6.44 2.07.38 4.05.93 5.94 1.62 1.72-2.83 5.68-8.07 12.88-10.94 4.48-1.92 10.27-3 17.59-1.89 19.69 2.97 28.35 18.09 29.88 21.1 2.75-.85 5.6-1.58 8.56-2.19 2.21-.45 4.33-.68 6.38-.75-.36-5.11-2.53-10.42-6.6-15.29zm10.82 10.903c.758-.744 1.957-1.804 3.56-2.866v-15.6c-3.796 1.83-7.493 4.47-9.706 6.27 3.118 4.07 5.16 8.26 6.147 12.21z"/>
  <path fill="#409AD6" d="M709.453 369.323c-6.158-.746-12.74 2.56-15.504 4.155.81.556 1.59 1.114 2.32 1.68 6.11 4.487 9.81 9.3 11.44 11.71 5.52-3.298 11.84-5.775 19.15-7.502-.96-.918-1.83-1.76-2.63-2.544-5.12-5.012-6.67-6.524-14.8-7.5zm81.987.864c-15.526-2.345-22.798 6.173-25.275 10.092 4.648 2.28 8.67 5.35 12.048 8.61.94-1.52 5.125-7.17 14.797-6.41 9.198.71 13.873 8.19 15.122 10.55.67-.32 1.342-.63 2.022-.92 2.67-1.38 5.456-2.62 8.37-3.7-1.46-2.88-8.814-15.48-27.084-18.24z"/>
  <path fill="#409AD6" d="M790.75 383.79c.196-.006.39-.015.59-.015-.2 0-.394.01-.59.015zm-1.402.09c.115-.015.232-.024.353-.032-.12.01-.23.017-.35.032zm54.315.502c.613.103 1.22.222 1.82.362v-2.695c-1.125 1.15-1.686 2.12-1.75 2.23-.017.03-.046.06-.07.09zm1.82 4.968v-.05c-.437-.13-.872-.26-1.322-.37.45.134.89.273 1.33.42z"/>
  <path fill="#ADD8F2" d="M804.29 395.063c-.467-1.098-3.19-6.552-11.484-7.19-6.22-.486-9.827 2.333-11.52 4.22 5.578 6.228 8.873 12.34 9.802 14.187 4.372-5.04 8.673-8.565 13.2-11.217zM671.942 558.87c11.085-20.228 10.797-49.185 9.21-72.593-.342-5.033-.687-9.714-1.01-14.086-.036-.51-.072-1.02-.11-1.53-.29-3.42-.573-6.63-.844-9.64-1.005-11.29-1.756-19.76-1.458-26.99-1.59-.82-4.803-2.09-8.477-1.38-3.887.76-7.396 3.54-10.425 8.27-7.488 11.68-6.675 49.04-6.235 69.11.14 6.44.243 11.1.044 13.15-.8 8.21-7.016 47.4-13.32 59.89-2.45 4.86-5.258 9.27-8.21 13.24h11.25c10.417-10.92 20.874-24.07 28.492-35.65.37-.57.74-1.16 1.09-1.75zm84.104-25.747c.27-2.745.542-6.04.852-9.767.526-6.348 1.18-14.128 2.112-22.634 1.178-15.75 2.295-28.336 5.837-41.7-1.134-3.063-7.038-17.55-16.12-14.832l-.794.235c-8.233 2.444-12.366 3.668-11.912 58.147.42 49.8-6.66 62.466-12.35 72.643-.95 1.72-1.86 3.342-2.7 5.07-1.99 4.105-5.21 9.95-9.04 15.994h19.2c12-14.14 18.05-26.32 21.57-40.89 1.54-6.76 2.54-14.03 3.36-22.27zm76.284-25.06c.022 8.405.05 17.936-.708 28.116-2.296 30.94-7.252 49-13.42 60.1h26.873c.137-.25.276-.49.408-.74V457.79c-.138.113-.273.218-.408.34-12.846 11.678-12.804 27.723-12.744 49.93z"/>
  <path fill="#409AD6" d="M638.227 574.762c3.824-11.82 7.402-31.484 9.22-43.36.365-3.724.564-7.055.564-9.735 0-1.457-.07-3.882-.16-6.947-.55-18.897-1.84-63.153 7.49-76.705 8.46-12.29 19.53-9.95 22.79-8.913.85-6.725 2.97-12.576 7.12-19.075-4.27-2.294-17.18-8.425-28.36-5.574-.83.21-1.75.387-2.74.576-9.8 1.84-28.04 5.29-27.34 74.49.72 71.34-13.27 96.18-19.25 106.79-.54.96-1.02 1.82-1.43 2.59-1.38 2.65-2.98 5.09-4.71 7.37h24.43c3.54-4.49 6.97-9.69 9.91-15.63.87-1.74 1.7-3.73 2.5-5.9zm79.1 3.76c.89-1.835 1.824-3.507 2.814-5.28l.47-.84.24-.44c5.58-10.437 11.35-21.23 10.93-71.483-.47-56.32 5.13-57.82 15.3-60.55l.94-.26c10.23-2.81 16.92 8.28 18.94 12.21 1.47-4.51 3.26-9.18 5.44-14.14-4.03-7.38-15.32-23.79-25.7-22.57-1.7.2-3.33.35-4.88.49-11.56 1.04-17.93 1.62-24.56 23.85-5.25 17.61-5.46 54.49-5.59 78.89-.07 12.77-.12 21.99-.79 25.46-.98 5.09-6.54 31.19-19.69 45.1-2.3 2.43-4.66 4.88-7.06 7.28h22.83c2.26-3.36 4.4-6.79 6.3-10.03 1.59-2.8 2.99-5.44 4.1-7.73zm116.25-151.272c-15.508 4.414-24.865 7.08-30.215 82.885-4.12 58.35-10.48 75.793-20.068 86.146h29.364c6.72-10.09 12.17-27.99 14.736-62.55.808-10.88.816-20.81.824-29.57.02-23.3.034-40.14 15.112-50.77.704-.49 1.424-.87 2.152-1.16v-27.76c-2.116.06-4.354.46-6.715 1.23-1.81.59-3.527 1.08-5.19 1.56z"/>
  <path fill="#0086C7" d="M832.04 389.306c-1.346.392-2.655.766-3.932 1.132-19.95 5.702-30.94 8.842-46.7 37.488-14.76 26.805-18.48 71.665-20.48 95.763-.312 3.75-.586 7.06-.857 9.83-2.53 25.75-6.81 42.31-23.14 62.76h39.87c1.66-1.56 3.19-3.08 4.5-4.5 2.63-2.83 4.82-6.28 6.71-10.88.57-1.41 1.12-2.92 1.65-4.56 4.1-12.84 6.63-33.26 9.13-68.76 2.83-40.08 7.02-60.64 14.58-71.95 2.22-3.58 4.65-5.95 7.32-7.66 5.89-4.21 13.24-6.07 22.53-7.91.79-.15 1.55-.25 2.29-.31v-30.41c-.43-.15-.87-.29-1.32-.42-3.6-.88-7.64-.93-12.12.37zm-228.033 195.03c5.82-10.33 19.444-34.516 18.737-104.77-.188-18.4.987-32.38 3.02-43.038 6.163-34.068 21.118-35.49 30.128-36.347.57-.05 1.12-.1 1.645-.16.81-.09 1.622-.14 2.434-.17 11.8-1.19 23.68 4.67 27.55 6.81 1.96-2.73 4.27-5.6 7-8.73 2.94-3.38 6.22-6.29 9.84-8.82-2.87-4.26-13.4-17.51-34.07-19.57-.16.01-.33-.01-.5-.05-1.61-.14-3.28-.22-5.02-.22h-.26c-27.16.12-49.81 12.37-60.59 32.76-9.51 18.01-10.3 63.46-10.64 82.87l-.06 3.17c-.02 1.49-.04 3.16-.06 5.01-.21 20.5-.6 58.65-17.64 81.8-5.46 7.42-12.73 14.77-20.28 21.45h40.95c2.39-2.77 4.57-5.84 6.35-9.25.42-.8.92-1.69 1.49-2.7z"/>
  <path fill="#0086C7" d="M689.198 584.454c10.858-11.487 15.244-32.92 17.353-43.223l.15-.68c.7-3.4.62-12.54.53-24.1-.19-23.6-.48-59.27 5.76-80.22 7.69-25.76 21.53-25.68 31.66-25.6l1.61.01h.02c14.19 0 25.73 17.88 28.27 22.12 1.05-2.34 2.15-4.61 3.34-6.76.87-1.58 1.73-3.09 2.58-4.53 1.47-2.59 3.03-5.05 4.69-7.38.9-1.31 1.79-2.56 2.68-3.74-2.21-4.6-15.38-29.69-39.55-28.43-24.58 1.33-40.52 7.64-51.7 20.48-16.12 18.52-15.1 32.4-12.36 69.52.32 4.38.67 9.07 1.01 14.11 1.73 25.51 1.92 57.52-12.08 78.8-6.76 10.28-15.5 21.53-24.5 31.48h28.84c4.06-3.83 8.08-7.95 11.74-11.82z"/>
  <path fill="#FFF" d="M556.04 363.157c.885.952 1.688 1.917 2.45 2.89 2.316-1.976 10.354-8.048 21.714-8.048h.41c33.1.42 39.803 18.35 40.07 19.11.026.08.08.14.116.22 1.13-.76 2.27-1.49 3.453-2.19-1.55-3.64-10.597-20.77-43.587-21.19-.917-.02-1.808.01-2.683.06-.47.04-.94.07-1.395.12-.153.01-.307.03-.455.04-3.386.41-6.323 1.18-8.834 2.09-.37.14-.74.28-1.09.42-.18.07-.36.14-.53.21-1.73.74-3.26 1.54-4.61 2.33-2.8 1.71-4.47 3.3-5.04 3.91zm279.758-.822c-1.158.906-1.998 1.677-2.483 2.145.893.974 1.7 1.96 2.463 2.952 2.213-1.796 5.91-4.44 9.706-6.266v-4.228c-1.36.496-2.64 1.055-3.806 1.648-2.237 1.226-4.26 2.578-5.88 3.75zm-247.508 10.23c-10.323-.703-20.528 5.575-22.926 7.164.294 1.31.456 2.6.51 3.83.068-.04.137-.07.2-.12.112-.08 11.198-7.85 22.166-7.03 13.432 1.02 19.428 7.19 21.577 10.19.878-.94 1.775-1.85 2.716-2.73-4.875-5.24-14.044-10.63-24.244-11.32zm-33.02 133.977c-.06-22.21-.102-38.255 12.747-49.933 1.7-1.55 3.54-2.2 5.66-1.97 7.136.74 14.418 10.7 14.492 10.8.19.27.44.47.71.6.04-1.44.08-2.89.13-4.37-1.88-2.15-13.47-14.72-21.97-8.72-14.51 10.22-14.52 26.77-14.54 49.66-.01 8.78-.02 18.73-.83 29.67-2.65 35.66-8.39 53.82-15.45 63.98h4.03c6.57-10.95 11.89-29.22 14.3-61.63.75-10.18.73-19.71.7-28.12zm8.137 76.27c3.683-3.78 7.075-7.655 9.924-11.526 1.86-2.52 3.54-5.665 5.07-9.405-1.74 3.78-3.77 7.33-6.14 10.56-2.56 3.48-5.57 6.96-8.84 10.38z"/>
  <path fill="#FFF" d="M506.207 594.788c9.604-10.344 15.97-27.762 20.095-86.176 2.95-41.808 6.9-62.004 12.65-72.182 1.008-1.785 2.07-3.266 3.2-4.497 4.64-5.084 10.302-5.977 17.292-7.075.93-.145 1.88-.293 2.85-.454 20.463-3.397 27.66 15.338 27.972 16.18.023.067.07.112.102.17.21-2.103.446-4.207.716-6.294-.89-1.647-9.362-16.296-27.384-13.95-28.29 3.685-35.432 12.025-40.632 85.647-3.902 55.237-7.903 74.307-17.85 85.018-1.44 1.548-3.202 3.284-5.168 5.105h4.715c.547-.547 1.028-1.047 1.442-1.492z"/>
  <path fill="#FFF" d="M512.59 574.813c-.536 1.646-1.086 3.163-1.652 4.57.58-1.41 1.127-2.928 1.652-4.57zm51.93-191.387c-.774-14.382-18.446-36.133-55.114-38.723-.652-.047-1.304-.078-1.946-.093h-.115c-20.102-.447-36.83 13.424-39.9 16.133 1.05.91 2.008 1.797 2.882 2.637 4.23-3.72 19.785-16.02 38.987-14.637 20.242 1.43 34.173 7.847 42.377 15.927.78.762 1.5 1.537 2.17 2.327 4.39 5.148 6.63 10.804 6.84 16.204 1.3.05 2.58.12 3.83.23zm166.977-5.073l-.08.063c.104-.02.21-.03.313-.054-.314-.285-.636-.58-.93-.854.232.283.462.548.697.845zm-23.397-12.62c-9.4-.54-15.142 4.384-16.797 6.04.928.553 1.8 1.126 2.646 1.705 2.76-1.597 9.34-4.9 15.5-4.155 8.12.975 9.67 2.486 14.79 7.5.8.784 1.66 1.625 2.63 2.543 1.03-.244 2.07-.472 3.14-.687-8.83-10.95-16.72-12.65-21.92-12.95z"/>
  <path fill="#FFF" d="M708.985 348.912c-.05 0-.098 0-.148.002h-.06c-22.864.11-34.884 12.99-37.44 16.08 1.212.144 2.378.338 3.524.557 4.9-4.56 15.97-12.5 33.93-12.59h.23c22.94 0 39.05 17.08 42.77 23.55 1.15.06 2.27.17 3.37.33-.26-.98-2.52-4.77-7.48-9.79-5.39-5.46-19.92-18.12-38.66-18.12zm53.44 29.764c.093.032.195.058.288.092.49-.912 4.248-7.443 12.592-11.024-7.2 2.868-11.164 8.103-12.88 10.932zm79.84 2.534c.187 1.026.3 2.03.34 3.004.356.046.706.11 1.06.168.022-.034.052-.06.07-.097.063-.11.624-1.08 1.75-2.236v-3.66c-1.673 1.2-2.776 2.33-3.22 2.82zm-10.667 4.878c-23.493 4.817-40.297 17.402-51.366 38.478-16.568 31.536-17.91 49.68-20.137 79.738-.568 7.63-1.207 16.276-2.17 26.045-2.717 27.6-7.218 44.63-25.04 65.93h4.036c16.34-20.45 20.62-37.01 23.15-62.76.27-2.77.55-6.08.86-9.83 2-24.1 5.72-68.96 20.48-95.77 15.76-28.65 26.75-31.79 46.7-37.49 1.28-.37 2.59-.74 3.94-1.13 4.48-1.3 8.53-1.26 12.12-.38.45.11.89.24 1.33.37v-3.15c-4.25-1.06-8.86-1.1-13.88-.07z"/>
  <path fill="#FFF" d="M786.465 346.226c-.653-.047-1.303-.075-1.95-.093-.028-.002-.06 0-.088-.002-20.1-.44-36.85 13.43-39.924 16.14 1.047.92 2.01 1.8 2.882 2.64 4.23-3.72 19.79-16.02 38.984-14.64 20.19 1.43 34.11 7.82 42.32 15.87.86.85 1.67 1.72 2.41 2.6 4.07 4.87 6.24 10.18 6.6 15.29 1.2-.03 2.38-.03 3.54.06-.74-14.42-17.91-35.25-54.78-37.86zm-90.19 28.932c6.33 4.87 9.985 9.976 11.203 11.846.082-.047.163-.09.242-.137-1.627-2.41-5.332-7.22-11.445-11.71zm111.92 17.988c.643-.36 1.305-.69 1.96-1.028-.68.293-1.354.6-2.023.918.02.034.046.077.062.11zm-1.177.654c-1.03-1.98-5.394-9.297-14.11-9.97-.544-.042-1.058-.055-1.566-.055-.2 0-.395.01-.592.015-.355.01-.71.027-1.05.058-.12.008-.236.018-.352.032-7.204.777-9.962 5.652-10.143 5.99.73.738 1.418 1.48 2.08 2.22 1.693-1.885 5.302-4.704 11.52-4.218 8.296.64 11.02 6.093 11.484 7.19-4.53 2.652-8.83 6.178-13.21 11.217l.11.22c4.66-5.05 9.93-9.27 15.82-12.7z"/>
  <path fill="#FFF" d="M792.692 367.188c-19.878-3-27.728 10.23-28.728 12.09.75.312 1.482.65 2.2 1 2.478-3.918 9.75-12.436 25.275-10.09 18.27 2.76 25.62 15.357 27.08 18.236.97-.36 1.95-.713 2.95-1.04-1.65-3.166-10.04-17.365-28.79-20.196zm-140.054 155.97c.2-2.048.097-6.702-.044-13.143-.44-20.07-1.253-57.433 6.235-69.106 3.02-4.73 6.53-7.51 10.42-8.27 3.67-.72 6.88.55 8.47 1.38.05-1.22.13-2.41.24-3.57-2.53-.91-13.19-3.81-21.53 8.31-9.08 13.19-7.8 57.13-7.25 75.9.09 3.08.16 5.51.16 6.99 0 13.91-5.22 45.05-12.42 59.58-2.81 5.66-6.06 10.66-9.42 15.03h3.59c2.95-3.97 5.75-8.38 8.21-13.24 6.3-12.5 12.52-51.68 13.31-59.89zm28.512-36.88c1.59 23.407 1.877 52.364-9.208 72.59 12.78-21.25 10.664-52.21 9.245-72.887l-.138-1.97c-.33-4.82-.68-9.24-1.02-13.35.04.51.07 1.02.11 1.53.32 4.38.67 9.06 1.01 14.09zm74.896 46.845c-.815 8.247-1.816 15.515-3.357 22.27 1.82-7.548 2.96-15.736 3.89-25.182.96-9.75 1.6-18.38 2.16-26 .08-1.18.17-2.33.26-3.48-.94 8.51-1.59 16.29-2.11 22.64-.31 3.73-.59 7.02-.85 9.77zm-32.376 42.093c5.69-10.177 12.77-22.844 12.35-72.643-.453-54.48 3.68-55.703 11.913-58.147l.793-.235c9.083-2.71 14.987 11.77 16.12 14.84.462-1.74.96-3.49 1.51-5.27l-.005.01c-.06-.16-6.8-15.84-17.97-12.78l-.95.26c-9.52 2.57-14.76 3.97-14.3 59.25.42 50.6-5.43 61.55-11.09 72.13-.79 1.48-1.54 2.89-2.27 4.41-2.07 4.27-6.25 11.79-11.22 19.28h3.4c3.83-6.04 7.06-11.89 9.04-15.99.84-1.73 1.75-3.35 2.71-5.07z"/>
  <path fill="#FFF" d="M607.532 586.318c5.977-10.61 19.975-35.456 19.255-106.794-.697-69.204 17.54-72.65 27.342-74.497.99-.19 1.91-.365 2.74-.576 11.18-2.85 24.09 3.28 28.36 5.58.38-.6.76-1.2 1.18-1.82-3.67-1.93-16.68-8.19-28.74-6.84-.53.06-1.09.11-1.67.17-11.33 1.08-32.41 3.09-31.68 76.19.73 71.98-12.57 96.13-18.25 106.45-.44.8-.84 1.52-1.18 2.18-1.93 3.69-4.29 6.99-6.88 9.95h3.35c1.73-2.27 3.32-4.72 4.71-7.37.4-.76.88-1.62 1.43-2.59zm39.913-54.918c-1.816 11.877-5.395 31.542-9.22 43.36 4.517-12.224 7.93-30.254 9.22-43.36zm69.882 47.122c-1.11 2.296-2.51 4.934-4.097 7.73 2.134-3.65 3.964-7.057 5.31-9.838.675-1.39 1.378-2.72 2.07-4.014l-.47.84c-.99 1.776-1.922 3.448-2.813 5.282zM691.157 589c13.153-13.91 18.712-40.016 19.69-45.104.668-3.47.723-12.698.79-25.467.135-24.41.343-61.29 5.594-78.9 6.64-22.24 13.01-22.81 24.57-23.86 1.55-.15 3.18-.29 4.88-.5 10.39-1.23 21.68 15.19 25.71 22.56.51-1.17 1.02-2.33 1.58-3.53l-.09.05c-.12-.23-12.63-22.3-27.59-22.3h-.01l-1.61-.01c-10.2-.07-22.96-.16-30.36 24.64-6.19 20.75-5.9 56.3-5.7 79.82.1 11.64.17 20.84-.55 24.38l-.14.69c-2.13 10.43-6.57 32.11-17.7 43.88-3.37 3.56-7.03 7.33-10.77 10.9h4.7c2.4-2.4 4.76-4.85 7.06-7.28zm83.373-156.263c.022.035.044.075.064.104 1.35-2.85 2.822-5.81 4.443-8.9.45-.85.935-1.66 1.4-2.49-.847 1.44-1.703 2.95-2.573 4.53-1.183 2.15-2.283 4.42-3.333 6.76z"/>
  <path fill="#FFF" d="M575.504 574.83c17.038-23.145 17.43-61.302 17.64-81.8.022-1.842.036-3.518.063-5.004l.06-3.165c.336-19.4 1.123-64.85 10.64-82.86 10.773-20.39 33.425-32.64 60.59-32.76h.26c1.735 0 3.408.08 5.02.23.163.04.333.06.5.06 20.67 2.07 31.194 15.31 34.07 19.58.66-.46 1.308-.93 1.994-1.37-2.46-3.78-15.55-21.77-41.59-21.77h-.25c-27.59.13-51.56 13.12-62.54 33.9-.2.39-.4.8-.6 1.19.16.16.32.3.48.46l-.95.96c-.04-.05-.09-.09-.14-.14-10.01 21.42-10.46 55.36-10.75 78.12-.03 2.63-.06 5.11-.11 7.43l-.01.65c-.81 42.66-6 70.78-15.43 83.59-6.17 8.39-14.83 16.78-23.56 24.2h4.37c7.55-6.68 14.82-14.02 20.28-21.45z"/>
  <path fill="#FFF" d="M685.187 486.005c-.34-5.042-.688-9.733-1.008-14.11-2.74-37.113-3.76-51 12.36-69.516 11.18-12.84 27.12-19.16 51.7-20.48 24.16-1.27 37.34 23.82 39.55 28.43-.89 1.17-1.78 2.42-2.68 3.73 1.71-2.41 3.5-4.69 5.41-6.82l-.39.17c-.14-.3-13.3-28.32-38.38-29.56-.47-.02-.93-.05-1.41-.05-.53-.01-1.07 0-1.61.02-.22 0-.43 0-.64.01-3.05.16-5.98.41-8.77.73-.17.01-.32.04-.48.06-1.31.15-2.59.32-3.84.51l-.04.01c-17.73 2.69-30.19 8.96-39.48 19.63-18.63 21.39-17.79 30.83-15 62.09.6 6.64 1.27 14.17 1.87 23.02l.14 1.97c1.46 21.43 3.68 53.82-10.56 75.47-7.57 11.49-17.59 24.21-27.68 34.91h4.3c9-9.95 17.74-21.2 24.5-31.48 14.02-21.27 13.83-53.28 12.1-78.79zM659.97 399.84c11.966-.425 23.865 5.433 27.232 7.24.1-.142.214-.288.317-.43-3.88-2.147-15.75-8-27.55-6.81zm-55.056 183.663C610.542 573.278 623.72 549.34 623 477.72c-.176-17.374.886-30.8 2.766-41.19-2.034 10.658-3.21 24.636-3.02 43.036.706 70.255-12.918 94.44-18.738 104.77-.568 1.006-1.068 1.896-1.487 2.697-1.78 3.412-3.95 6.485-6.34 9.248h.07c2.83-3.1 5.41-6.61 7.48-10.57.35-.66.75-1.39 1.2-2.2zm195.21-75.823c-3.9 55.236-7.9 74.306-17.845 85.02-1.04 1.108-2.24 2.317-3.56 3.58h4.56c9.58-10.352 15.95-27.794 20.07-86.145 5.35-75.804 14.7-78.47 30.21-82.886 1.66-.48 3.38-.97 5.19-1.56 2.36-.77 4.6-1.17 6.71-1.23v-3.35c-.66.06-1.33.14-2.02.28-28.69 5.68-38.03 11.06-43.34 86.28z"/>
  <path fill="#FFF" d="M788 580.898c.577-1.406 1.126-2.922 1.648-4.557-.534 1.65-1.084 3.16-1.65 4.56zm32.672-152.923c-2.67 1.71-5.104 4.083-7.32 7.658 2.152-3.225 4.576-5.696 7.32-7.658zm8.892 76.18c-.007 8.78-.015 18.734-.827 29.673-2.52 33.938-7.838 52.03-14.437 62.452h3.9c6.17-11.1 11.125-29.157 13.42-60.1.758-10.182.73-19.712.71-28.116-.06-22.208-.103-38.254 12.744-49.933.135-.12.27-.22.408-.33v-4.09c-.465.22-.928.47-1.378.79-14.502 10.23-14.52 26.77-14.54 49.67z"/>
  <path fill="#00526F" d="M820.672 427.975c-2.744 1.962-5.168 4.434-7.32 7.658-7.554 11.317-11.742 31.87-14.573 71.952-2.51 35.497-5.04 55.923-9.13 68.757-.53 1.635-1.08 3.15-1.65 4.557-1.89 4.6-4.09 8.05-6.71 10.88-1.32 1.42-2.85 2.94-4.51 4.5h1.94c1.31-1.27 2.52-2.48 3.55-3.58 9.94-10.72 13.94-29.79 17.84-85.02 5.31-75.23 14.64-80.61 43.33-86.29.69-.14 1.36-.22 2.02-.28v-1.35c-.74.06-1.5.15-2.29.31-9.29 1.84-16.64 3.69-22.53 7.9zm7.548 76.18c-.01 8.758-.018 18.685-.825 29.57-2.565 34.56-8.016 52.457-14.736 62.555h1.64c6.6-10.423 11.91-28.515 14.43-62.452.81-10.938.82-20.89.82-29.672.02-22.896.03-39.44 14.54-49.666.45-.316.91-.568 1.38-.785v-1.483c-.73.29-1.45.67-2.16 1.165-15.08 10.63-15.1 27.468-15.12 50.77z"/>
  <path fill="#FFF" d="M299.735 141.986c4.905-.003 6.273-5.915 3.5-9.25-2.057-2.475-10.67-1.45-8.596 5.158.88 2.824.75 4.092 5.09 4.092zm-80.33-52.95c3.21 0 4.106-4.18 2.29-6.534-1.344-1.75-6.984-1.024-5.625 3.645.58 1.995.493 2.892 3.335 2.89zm-46.092 70.676c1.963 0 2.51-2.554 1.4-3.994-.824-1.07-4.27-.626-3.44 2.23.353 1.218.302 1.764 2.04 1.764zm194.182-70.396c.51 1.76.435 2.55 2.943 2.548 2.83 0 3.622-3.685 2.02-5.762-1.187-1.542-6.16-.903-4.963 3.214zm-271.127 9.18c3.21 0 4.105-4.177 2.29-6.533-1.345-1.75-6.984-1.024-5.627 3.644.58 1.995.5 2.892 3.34 2.89zm.177 71.598c2.654 0 3.394-3.45 1.893-5.396-1.11-1.443-5.766-.846-4.646 3.01.478 1.645.408 2.386 2.753 2.386zm-71.495 9.594c2.83 0 3.62-3.685 2.02-5.763-1.187-1.543-6.16-.904-4.963 3.213.51 1.762.436 2.55 2.943 2.55zm263.534-144.53c1.962 0 2.51-2.554 1.4-3.994-.823-1.068-4.27-.626-3.44 2.228.355 1.22.303 1.768 2.04 1.766zm86.858 139.892c1.964 0 2.51-2.552 1.403-3.993-.825-1.07-4.27-.625-3.44 2.23.352 1.218.3 1.766 2.037 1.764zM13.24 126.97c4.905 0 6.275-5.912 3.5-9.25-2.058-2.474-10.67-1.448-8.596 5.16.885 2.824.755 4.092 5.096 4.09zm282.685 63.183c.58 1.993.493 2.89 3.336 2.89 3.22 0 4.11-4.178 2.3-6.533-1.34-1.75-6.98-1.025-5.62 3.643zm-65.99-12.913c1.965 0 2.51-2.554 1.403-3.996-.825-1.068-4.27-.625-3.44 2.23.353 1.218.3 1.766 2.038 1.766zm415.67 144.9c-.884-2.822-.753-4.09-5.097-4.09-4.905.004-6.272 5.912-3.5 9.25 2.058 2.473 10.67 1.447 8.597-5.16zm123.365-20.053c-.352-1.218-.302-1.767-2.04-1.767-1.963 0-2.51 2.555-1.398 3.997.822 1.068 4.265.626 3.438-2.23zm72.835-6.752c.644.836 2.468.982 3.68.217v-5.28c-.357-.223-.898-.33-1.788-.33-2.65 0-3.39 3.45-1.892 5.393zm-197.488-25.453c-.58-1.994-.492-2.894-3.336-2.89-3.21 0-4.1 4.177-2.29 6.534 1.35 1.748 6.99 1.023 5.63-3.644zm68.033 14.678c-.357-1.217-.303-1.765-2.042-1.765-1.965 0-2.51 2.555-1.402 3.995.823 1.07 4.27.627 3.443-2.23zm-48.133-107.574c.883 2.824.753 4.09 5.097 4.09 4.906 0 6.27-5.913 3.497-9.25-2.05-2.474-10.66-1.45-8.59 5.16zM664.06 51.42c3.21 0 4.107-4.18 2.29-6.535-1.347-1.75-6.984-1.025-5.627 3.644.582 1.99.496 2.89 3.338 2.89zm75.954 79.536c2.835 0 3.625-3.685 2.02-5.762-1.187-1.543-6.157-.904-4.964 3.213.514 1.76.44 2.55 2.944 2.55zm5.006 83.187c1.964 0 2.51-2.553 1.4-3.995-.823-1.068-4.268-.625-3.44 2.23.357 1.22.302 1.766 2.04 1.765zm-79.52 15.1c.583 1.995.497 2.893 3.34 2.89 3.21 0 4.108-4.177 2.292-6.532-1.348-1.75-6.986-1.02-5.63 3.65zm-65.985-12.913c1.96 0 2.508-2.553 1.398-3.995-.82-1.068-4.27-.625-3.44 2.23.354 1.218.302 1.766 2.042 1.766zm237.915-42.487c2.475-2.058 1.448-10.67-5.16-8.597-2.823.883-4.09.753-4.09 5.097 0 4.905 5.912 6.273 9.25 3.5zM593.396 34.395c1.068-.825.628-4.27-2.23-3.44-1.22.354-1.765.303-1.765 2.04 0 1.963 2.56 2.51 4 1.4zm-30.792 126.838c1.75-1.345 1.025-6.984-3.642-5.626-1.996.58-2.893.493-2.89 3.336 0 3.212 4.177 4.106 6.532 2.29zm13.264-70.213c1.07-.824.627-4.27-2.228-3.44-1.22.353-1.767.3-1.767 2.04 0 1.96 2.557 2.508 3.995 1.4zm-139.332 55.813c2.825-.884 4.092-.754 4.092-5.097-.002-4.906-5.914-6.272-9.25-3.5-2.475 2.06-1.45 10.67 5.158 8.597zm-22.22 67.447c1.996-.58 2.893-.495 2.89-3.338 0-3.21-4.178-4.105-6.534-2.29-1.748 1.344-1.024 6.985 3.643 5.627zm3.168-151.427c1.762-.51 2.55-.436 2.55-2.942 0-2.83-3.685-3.62-5.76-2.02-1.544 1.19-.905 6.16 3.21 4.97zm83.972-5.908c1.22-.354 1.766-.302 1.763-2.04 0-1.963-2.55-2.51-3.99-1.4-1.07.823-.63 4.268 2.22 3.44zm16.866 77.477c1.995-.58 2.894-.493 2.894-3.335 0-3.21-4.183-4.108-6.537-2.292-1.76 1.347-1.03 6.984 3.64 5.627zm-14.678 68.028c1.218-.353 1.766-.3 1.766-2.04 0-1.962-2.552-2.51-3.995-1.402-1.07.826-.625 4.272 2.23 3.443zM474.924.925c1.647-.478 2.387-.408 2.387-2.753 0-2.653-3.45-3.393-5.39-1.892-1.44 1.11-.85 5.766 3.01 4.645zM40.338 17.805c1.994-.58 2.89-.492 2.89-3.335 0-3.21-4.178-4.106-6.534-2.29-1.75 1.345-1.025 6.984 3.644 5.626zm-14.68 68.03c1.22-.354 1.767-.302 1.767-2.04 0-1.963-2.554-2.51-3.997-1.4-1.067.823-.624 4.27 2.23 3.44zM138.394 46.3c2.473-2.057 1.45-10.67-5.16-8.596-2.822.883-4.09.753-4.09 5.097 0 4.91 5.912 6.28 9.25 3.5zm30.76 172.195c1.543-1.186.905-6.16-3.212-4.962-1.76.51-2.55.435-2.55 2.942 0 2.832 3.685 3.62 5.762 2.02zm621.992-18.55c1.07-.824.623-4.27-2.23-3.44-1.218.353-1.766.3-1.764 2.04 0 1.962 2.554 2.51 3.994 1.4zM211.066 21.867c1.75-1.346 1.026-6.984-3.643-5.626-1.994.58-2.89.5-2.89 3.34 0 3.21 4.178 4.11 6.534 2.29zm594.684 5.775c2.823-.884 4.092-.754 4.092-5.097-.002-4.905-5.914-6.273-9.25-3.5-2.476 2.06-1.45 10.67 5.16 8.597zM364.162 3.152c2.822-.883 4.09-.754 4.09-5.097-.002-4.905-5.914-6.273-9.25-3.5-2.475 2.06-1.45 10.67 5.16 8.597z"/>
</svg>
