<svg xmlns="http://www.w3.org/2000/svg" width="152" height="50" viewBox="0 0 176.926 58.11">
<rect opacity="0.25" fill="#F1F1F1" width="176.926" height="58.11"/>
<g>
	<polygon fill="#FFFFFF" points="40.723,17.301 28.864,17.301 28.864,23.769 34.793,23.769 34.793,34.574 28.864,34.574 
		28.864,40.81 40.723,40.81 40.723,32.839 54.92,40.81 61.86,40.81 61.86,34.92 56.26,34.92 47.269,29.055 55.708,24.006 
		61.86,24.006 61.86,17.301 54.604,17.301 40.88,25.978 	"/>
	<polygon fill="#FFFFFF" points="63.911,17.301 63.911,23.848 70.063,23.848 70.063,34.417 63.911,34.417 63.911,40.81 82.84,40.81 
		82.84,34.417 76.768,34.417 76.768,24.006 82.84,24.006 82.84,17.301 	"/>
	<polygon fill="#FFFFFF" points="84.497,17.301 84.497,29.764 91.043,29.764 91.043,24.006 98.221,24.006 98.221,34.92 
		91.833,34.92 91.833,40.81 109.973,40.81 109.973,34.259 104.058,34.259 104.058,23.927 111.708,23.927 111.708,29.447 
		117.782,29.447 117.782,17.301 	"/>
	<path fill="#FFFFFF" d="M149.883,17.301c-1.263,0-13.33,0-13.33,0s-11.23,0-12.62,0s-4.022,0.632-4.022,3.234s0,16.563,0,17.983
		s1.311,2.291,3.628,2.291s24.895,0,26.502,0s2.682-0.792,2.682-2.527s0-16.485,0-18.142S151.145,17.301,149.883,17.301z
		 M146.807,33.155c0,1.263-0.158,1.419-1.025,1.419c-0.868,0-16.643,0-18.221,0c-1.576,0-1.656-0.236-1.656-1.024s0-7.572,0-8.203
		s0.316-1.499,1.814-1.499s8.598,0,8.598,0s8.676,0,9.385,0c0.71,0,1.105,0.158,1.105,1.184S146.807,31.893,146.807,33.155z"/>
</g>
</svg>
