<svg xmlns="http://www.w3.org/2000/svg" width="137" height="60" viewBox="0 0 259.11 114.703">
<!--	
<svg xmlns="http://www.w3.org/2000/svg" width="259.11" height="114.703" viewBox="0 0 259.11 114.703">
-->
  <g fill="#B91A31">
    <path d="M23.125 83.375H9.875V25.25S.75 27.75 0 28.25V16.625S37.25 6.75 69 3.375 123.5 0 131.875 0c17.25 0 68.75 3.875 80.5 5.375S259 15.75 259 15.75v11.375S223.75 16.5 189.75 13.75s-39-2.375-57.75-2.375-36.875 1.25-51.75 2-57.125 8.375-57.125 8.375v61.625z"/>
    <path d="M41 39.125H28.375V75.5s5.375 7.875 10 7.875c6.375 0 8.5-2.625 8.5-2.625v2.625H59.25v-44.25H46.875V67s-.25 5.75-3.063 5.75-2.938-3.25-2.938-5.625.126-28 .126-28zM83.125 83.25H95.75V46.875S90.374 39 85.75 39c-6.376 0-8.5 2.625-8.5 2.625V39H64.875v44.25H77.25V55.375s.25-5.75 3.063-5.75 2.938 3.25 2.938 5.625-.12 28-.12 28zm36-44.125v2.563S116.75 39 111.375 39 101 42.75 101 47.25v29.625s2.75 6.5 10.5 6.5 7.625-2 7.625-2v7.375h-16v8.875H126c3.5 0 5.875-3.625 5.875-6 0-1.5.5-52.625.5-52.625l-13.25.125zm0 30.75c0 1.75-1.5 2.625-2.438 2.625s-3.063.125-3.063-2.5V53.875S114.874 50 116.688 50s2.438 2.625 2.438 2.625v17.25zm49.322 13.5c.14-14.828.427-44.375.427-44.375l-13.25.125v2.563S153.25 39 147.874 39c-5.375 0-10.375 3.75-10.375 8.25v29.625s2.75 6.5 10.5 6.5 7.62-2 7.62-2v2h12.82zm-12.823-13.5c0 1.75-1.5 2.625-2.438 2.625s-3.063.125-3.063-2.5V53.875S151.373 50 153.187 50s2.438 2.625 2.438 2.625v17.25zm18-42.125H186v55.625h-12.376zm40.626 11.375H208S203.5 39 200.873 39c-2.624 0-9.25 4.875-9.25 9.5v27.125s3.75 7.75 7.625 7.75h17.124c2.5 0 6.375-4.125 6.375-7.125v-28s-5.126-9.125-8.5-9.125zm-4 30.125c0 2.25-1.25 3.375-3.064 3.375s-2.688-1.25-2.688-3V53.5s.625-3.25 2.688-3.25c1.76 0 3.063 1.125 3.063 2.625V69.25z"/>
    <path d="M241.124 39.125h-13V77s4.626 6.25 6.5 6.25c1.875 0 6.375.125 8 .125s4.75-2.75 4.75-2.75V90.75c-3.625 1.75-35.44 8.344-51 9.875-15.55 1.53-45.625 3.125-69.874 3.125-24.25 0-61.875-2.875-72.625-4.5s-43.75-8.75-43.75-8.75v12.25s53.625 10.625 82.5 11.625 88.835-.352 106.25-3.25c19.155-3.19 51.46-8.188 56.75-10.75 4.124-2 3.124-3.5 3.374-7.25s0-54 0-54h-11.88s-.25 28-.25 30.5-1.63 3.125-3.13 3.125-2.63-1.25-2.63-2.75V39.125zm-211.856-4.64l.164-1.4.486-5.63.235-3.29c.392.005.73.01 1.02.01.27 0 .593-.004.974-.01l.178.66c.052.175.116.38.193.62.078.235.212.63.403 1.185l.96 2.684 1.19 3.6 1.54-3.6 1.76-3.93c.07-.142.13-.292.19-.45s.16-.416.28-.77c.34.006.69.01 1.05.01.29 0 .62-.003.99-.01l-.09 3.607-.04 2.37c0 .22-.01.45-.01.67l.01 1.73v.98c0 .11.01.44.02.98-.34-.01-.57-.01-.68-.01-.16 0-.39.01-.7.02l.05-.96.12-5.44c.02-.61.03-1.28.03-2.03v-.62l-3.4 7.96-.45 1.1c-.34-.01-.57-.01-.7-.01-.16 0-.4 0-.74.01l-.92-2.85-.95-2.8-.94-2.71c-.04-.12-.11-.33-.21-.65l-.09.89-.47 6.5-.03.65c-.01.22-.013.54-.023.98l-.65-.01-.664.02zm20-1.203c-.063.277-.125.63-.187 1.06-.49.12-.92.202-1.29.245-.36.043-.72.064-1.08.064-.64 0-1.22-.07-1.74-.22s-.95-.41-1.32-.79c-.36-.37-.63-.8-.79-1.29-.16-.48-.24-.99-.24-1.53 0-.75.15-1.44.44-2.09.3-.64.74-1.14 1.33-1.51.59-.37 1.34-.55 2.25-.55.47 0 .92.07 1.35.2.43.14.79.34 1.07.61.29.27.51.61.66 1.01.16.4.23.84.23 1.31 0 .19-.01.36-.04.53H44c-.02.28-.03.49-.03.64 0 .53.11 1.02.34 1.46.226.45.562.79 1.005 1.02.445.23.956.35 1.535.35.666 0 1.477-.16 2.433-.48zm-5.22-3.598h4.615c-.005-.317-.026-.564-.062-.74-.03-.177-.1-.36-.2-.55s-.23-.352-.4-.49c-.16-.14-.37-.244-.6-.317s-.49-.11-.76-.11c-.29 0-.57.04-.84.12s-.5.192-.7.334c-.2.15-.37.31-.52.5s-.24.37-.31.55c-.07.18-.13.42-.2.71zm7.202 4.8l.085-1.096c.016-.23.036-.597.062-1.096l.186-4.604c.006-.378.008-.665.008-.862.25.005.47.007.67.007.22 0 .43-.002.65-.007l-.07 1.406c.18-.282.34-.507.48-.673.15-.17.33-.32.56-.47s.5-.25.8-.33.61-.12.93-.12c.23 0 .45.02.66.07s.42.12.6.21c.19.09.34.19.48.31.13.11.24.24.32.38s.16.33.25.59c.32-.58.71-.99 1.18-1.22.48-.24 1-.35 1.59-.35.37 0 .73.06 1.08.17.35.11.63.28.83.5s.35.44.42.67c.07.23.11.47.11.71s-.02.6-.05 1.09c-.03.48-.07 1.22-.12 2.21s-.07 1.81-.07 2.47c-.27-.01-.49-.02-.64-.02-.16 0-.41 0-.74.01.06-.68.11-1.42.15-2.23l.1-1.88c.03-.46.04-.85.04-1.17 0-.29-.03-.52-.09-.69-.07-.16-.16-.31-.3-.44-.14-.13-.31-.23-.51-.3-.2-.07-.43-.1-.69-.1-.21 0-.4.02-.57.07-.16.04-.32.11-.48.2-.17.1-.32.22-.45.36-.13.13-.25.29-.34.46-.1.17-.18.38-.24.63-.08.3-.13.67-.16 1.11-.03.47-.06 1.09-.08 1.85l-.07 2.11c-.3-.01-.52-.01-.67-.01-.14 0-.37 0-.71.01.06-.63.1-1.27.13-1.93l.09-1.83c.03-.56.04-1.05.04-1.44 0-.26-.02-.48-.08-.66-.05-.18-.15-.34-.29-.49-.14-.15-.31-.27-.51-.34-.2-.08-.43-.12-.67-.12-.26 0-.5.04-.73.13-.23.09-.45.22-.64.39s-.36.38-.492.63-.24.58-.32.98c-.075.4-.135 1.11-.18 2.12-.05 1.01-.07 1.85-.07 2.54-.33-.01-.56-.016-.682-.016l-.71.02zm13.663 0l.07-.847c.01-.15.024-.436.046-.854l.21-5.125.09-3.493c.31.005.56.008.73.008.18 0 .41-.002.69-.008-.08.646-.14 1.573-.2 2.782.54-.116.98-.194 1.33-.234.35-.04.69-.06 1.02-.06.65 0 1.22.08 1.72.24.49.163.9.43 1.23.802.32.373.55.784.68 1.232.13.45.2.925.2 1.43 0 .574-.08 1.13-.24 1.666-.17.537-.41 1.013-.74 1.43-.33.415-.73.718-1.2.91s-.99.288-1.54.288c-.3 0-.58-.03-.85-.09-.26-.06-.5-.15-.71-.26s-.39-.24-.54-.38c-.14-.14-.27-.28-.36-.42-.1-.14-.2-.33-.32-.58l-.03 1.57c-.3-.01-.52-.01-.64-.01-.09 0-.32.01-.69.02zm1.58-6.524c-.036.838-.062 1.39-.077 1.658-.016.268-.023.588-.023.96 0 .793.094 1.4.28 1.825s.463.745.834.96.79.326 1.26.326c.542 0 1.01-.14 1.4-.4.392-.27.695-.68.912-1.23.21-.55.32-1.12.32-1.71 0-.83-.23-1.5-.68-2.01-.45-.51-1.13-.77-2.04-.77-.32 0-.64.02-.98.07-.34.05-.74.15-1.22.29zM80.7 33.282c-.064.277-.126.63-.188 1.06-.495.12-.925.202-1.29.245-.363.043-.727.064-1.088.064-.646 0-1.225-.07-1.738-.22-.514-.15-.955-.41-1.32-.79-.367-.37-.63-.8-.79-1.29-.16-.48-.24-.99-.24-1.53 0-.75.146-1.44.44-2.09.295-.64.737-1.14 1.328-1.51.592-.37 1.342-.55 2.25-.55.47 0 .92.07 1.35.2.428.14.783.34 1.068.61.283.27.503.61.658 1.01.154.4.232.84.232 1.31 0 .19-.016.36-.047.53h-5.91c-.02.28-.03.49-.03.64 0 .53.112 1.02.34 1.46.228.45.564.79 1.007 1.02.444.23.955.35 1.534.35.667 0 1.477-.16 2.433-.48zm-5.22-3.598h4.615c-.005-.317-.026-.564-.062-.74-.037-.177-.104-.36-.202-.55s-.23-.352-.39-.49c-.16-.14-.37-.244-.6-.317s-.49-.11-.76-.11c-.29 0-.57.04-.84.12s-.5.192-.7.334c-.2.15-.37.31-.52.5s-.24.37-.31.55c-.07.18-.13.42-.2.71zm7.194 4.8c.186-2.908.278-5.23.278-6.962l-.008-.695c.264.005.48.007.65.007.196 0 .417-.002.66-.007l-.063 1.255c.19-.313.36-.548.51-.707.15-.16.32-.29.5-.393.19-.103.4-.184.63-.242s.48-.087.74-.087c.22 0 .43.025.65.076.01.33.03.7.06 1.11-.32-.09-.6-.13-.86-.13-.3 0-.58.05-.82.14-.24.1-.46.24-.65.44s-.35.43-.48.71c-.1.22-.18.51-.23.86-.05.35-.09.99-.13 1.92-.02.68-.03 1.4-.03 2.16v.5c-.28-.01-.5-.02-.67-.02-.15 0-.39.01-.7.02zm9.706 0l.115-1.74.162-3.62.108-3.568c.005-.207.008-.413.008-.62l-.008-.77.8.007.75-.008c-.093 1.26-.162 2.576-.208 3.946-.083 2.2-.143 4.33-.178 6.38l-.73-.01c-.1 0-.37.01-.82.02zm3.74 0l.165-1.398.485-5.632.235-3.29c.39.006.73.01 1.02.01.268 0 .592-.003.974-.01l.17.66c.05.176.11.382.19.62.07.236.21.63.4 1.186l.95 2.684 1.18 3.6 1.54-3.6 1.75-3.93c.06-.142.12-.292.18-.45l.28-.77c.33.006.68.01 1.04.01.29 0 .62-.003.99-.01l-.1 3.607-.04 2.37c0 .22-.01.45-.01.67l.01 1.73v.98c0 .11.01.44.02.98-.34-.01-.57-.01-.69-.01-.16 0-.4.01-.71.02l.04-.96.11-5.44c.01-.61.02-1.28.02-2.03l-.01-.62-3.4 7.96-.45 1.1c-.34-.01-.57-.01-.71-.01-.16 0-.41 0-.75.01l-.92-2.85-.95-2.8-.94-2.71c-.04-.12-.11-.33-.21-.65l-.1.89-.48 6.5-.03.65-.03.98-.65-.01-.67.02zm21.944-1.322c-.073.365-.138.76-.194 1.187-1.018.2-1.95.3-2.796.3-.754 0-1.482-.11-2.185-.34s-1.32-.57-1.84-1.04-.9-1.02-1.14-1.66c-.24-.64-.36-1.32-.36-2.04 0-.78.13-1.53.39-2.25s.66-1.33 1.19-1.84c.53-.5 1.18-.88 1.93-1.13s1.55-.38 2.37-.38c.89 0 1.77.09 2.65.27 0 .25.03.64.08 1.17-.57-.17-1.06-.29-1.46-.35-.4-.06-.79-.09-1.15-.09-.62 0-1.2.09-1.77.28-.56.18-1.06.47-1.49.88s-.76.89-.99 1.48c-.23.58-.34 1.2-.34 1.83 0 .59.09 1.15.27 1.68.18.53.46.97.84 1.34.38.36.83.64 1.35.84s1.11.29 1.76.29c.82 0 1.76-.16 2.83-.48zm11.743-4.462c.893.006 1.58.01 2.06.01.512 0 1.087-.003 1.728-.01-.117 1.508-.2 3.327-.255 5.46-1.563.327-2.9.49-4.01.49-.82 0-1.605-.103-2.356-.31-.75-.206-1.384-.52-1.9-.944-.516-.423-.904-.968-1.164-1.633-.262-.666-.39-1.37-.39-2.11 0-.84.162-1.633.49-2.376.327-.743.788-1.367 1.383-1.87.594-.505 1.263-.865 2.006-1.082.74-.217 1.56-.325 2.47-.325.99 0 2.09.128 3.31.385.01.378.03.786.07 1.225-.73-.23-1.35-.392-1.88-.48-.53-.088-1.01-.132-1.46-.132-.7 0-1.36.102-1.99.306-.63.204-1.17.517-1.62.938s-.79.94-1.02 1.56c-.23.62-.35 1.26-.35 1.92 0 .59.09 1.144.28 1.66s.47.94.85 1.267c.38.32.85.57 1.39.75.55.17 1.14.26 1.79.26.35 0 .77-.03 1.25-.1s.97-.17 1.47-.32l.15-3.58h-.73c-.49 0-1.04.01-1.67.04.03-.37.04-.7.04-1.01zm5.638 5.784c.186-2.908.278-5.23.278-6.962l-.008-.695c.264.005.48.007.65.007.197 0 .416-.002.66-.007l-.063 1.255c.19-.313.36-.548.508-.707.146-.16.313-.29.5-.393.185-.103.395-.184.63-.242s.48-.087.73-.087c.218 0 .433.025.645.076.005.33.022.7.054 1.11-.32-.09-.61-.13-.86-.13-.31 0-.58.05-.82.14-.25.1-.46.24-.66.44s-.36.43-.48.71c-.11.22-.19.51-.24.86-.06.35-.1.99-.13 1.92-.02.68-.03 1.4-.03 2.16v.5c-.28-.01-.51-.02-.68-.02-.16 0-.39.01-.71.02zm9.473-7.83c.542 0 1.06.075 1.55.226.49.15.914.39 1.273.718s.64.74.82 1.24.28 1.026.28 1.58c0 .6-.1 1.174-.3 1.724s-.48 1.016-.83 1.398c-.35.383-.79.664-1.31.843-.52.18-1.07.27-1.67.27-.55 0-1.07-.082-1.56-.243-.49-.16-.91-.413-1.27-.756s-.63-.762-.81-1.26c-.18-.495-.28-1.016-.28-1.56 0-.82.17-1.56.52-2.22.34-.656.84-1.148 1.51-1.473.66-.32 1.37-.48 2.12-.48zm-.034.96c-.526 0-1.01.127-1.45.385-.44.25-.768.64-.98 1.16-.21.51-.316 1.08-.316 1.68 0 .53.088 1.01.263 1.44.18.42.47.77.87 1.03s.89.39 1.46.39c.39 0 .76-.07 1.1-.2s.65-.34.91-.64.45-.66.57-1.09c.13-.44.19-.89.19-1.36 0-.44-.06-.86-.18-1.25s-.31-.7-.57-.94c-.25-.24-.54-.4-.86-.5-.32-.1-.65-.15-.98-.15zm12.84 6.87c-.254-.01-.47-.015-.65-.015-.21 0-.423 0-.645.01l.03-1.46c-.13.23-.23.4-.32.52s-.21.24-.34.36c-.14.12-.28.21-.42.3-.14.08-.31.15-.5.21s-.42.11-.67.16c-.26.04-.53.06-.82.06-.63 0-1.17-.1-1.62-.28-.45-.19-.79-.45-1.02-.8-.23-.35-.35-.81-.35-1.41 0-.09 0-.25.01-.46.01-.22.02-.5.04-.85l.13-2.52.02-.81c0-.19.01-.43.01-.71h.71c.14 0 .36 0 .66-.01-.08.88-.15 1.85-.21 2.89-.07 1.05-.1 1.72-.1 2.01 0 .44.07.79.22 1.06.14.26.39.47.73.61.34.14.73.21 1.16.21.38 0 .75-.06 1.1-.19.3-.12.55-.27.76-.47.22-.22.41-.5.56-.84.11-.25.19-.58.25-.98.03-.29.07-.8.11-1.55.04-.91.07-1.83.08-2.77l.72.01c.15 0 .37-.01.65-.01-.07.91-.16 2.29-.25 4.13-.06 1.02-.09 2.19-.11 3.52zm1.92 3.416c.103-1.3.2-3.068.29-5.306.093-2.238.143-4.067.153-5.488.846-.176 1.523-.296 2.032-.36.5-.062 1.01-.093 1.52-.093.8 0 1.5.125 2.1.374s1.05.688 1.38 1.315c.33.627.49 1.337.49 2.128 0 .55-.08 1.08-.23 1.59-.16.513-.39.97-.71 1.373s-.7.707-1.15.91c-.45.205-.95.307-1.51.307-.33 0-.65-.04-.95-.117s-.57-.18-.8-.306-.42-.267-.57-.423-.34-.39-.56-.703l-.09 3c-.02.49-.03.84-.03 1.06v.75c-.27-.01-.49-.01-.69-.01-.18 0-.42.01-.71.02zm1.773-9.894l-.055.575-.04.79-.046 1.01c-.01.26-.015.44-.015.55 0 .38.04.73.12 1.06.08.33.24.64.48.91s.53.49.85.63c.33.14.66.21 1.01.21.49 0 .93-.13 1.32-.39.4-.26.71-.65.93-1.17.22-.52.33-1.08.33-1.7 0-.62-.11-1.15-.35-1.6-.23-.45-.54-.77-.94-.97-.39-.2-.83-.3-1.33-.3-.7 0-1.46.14-2.26.42z"/>
  </g>
</svg>
