<svg xmlns="http://www.w3.org/2000/svg" width="300" height="300" viewBox="-95 -95 400 400">
  <path fill="#54C3F1" d="M197.86 103.43c0 54.7-42.745 99.04-95.474 99.04-52.725 0-95.47-44.34-95.47-99.04 0-54.696 42.745-99.04 95.47-99.04 52.73 0 95.473 44.343 95.473 99.04z"/>
  <path fill="#D3EDFB" d="M139.52 52.908c-2.383-.08-10.356 1.55-12.603 8.54-2.245 6.987 1.75 11.26 2.872 13.46 1.11 2.2 3.11 4.79 2.61 7.894-.5 3.106-.88 4.27-2.25 4.917-1.37.64-6.49 2.07-8.49-2.85s-6.8-10.45-8.98-11.52c-2.37-1.17-12.35-4.4-17.84 5.3s2.49 16.44 3.99 17.73c1.49 1.29 9.1 2.46 12.47 2.46 3.36 0 6.61-.52 8.48 1.81 1.87 2.32 2.24 5.69-1.88 8.02-4.12 2.33-9.73-.65-15.22 1.68s-9.86 10.1-5.61 17.99c4.24 7.89 12.35 7.63 16.22 6.08 3.86-1.55 6.6-6.47 8.6-10.1 1.99-3.62 4.77-7.68 9.1-5.82 4.24 1.81.5 9.83-.38 11.13-.87 1.29-4.74 5.17-3.62 13.72 1.13 8.54 8.74 9.44 13.48 9.57 4.74.13 11.35-2.98 12.23-11.26.87-8.29-3.87-11.78-5.36-13.07-1.5-1.3-4.37-5.83-.88-9.45 3.492-3.63 8.73 1.29 8.98 2.85.25 1.55 3.62 8.93 9.98 11.26 6.36 2.32 13.97-.65 16.093-5.83 2.12-5.18 2.66-14.04-5.49-16.96-7.235-2.59-10.6-.08-15.35-1.68-4.61-1.55-3.486-5.3-3.24-6.6.25-1.29 3.12-4.02 5.99-3.75 2.867.26 8.73 1.94 13.597-1.17s8.11-7.9 6.118-15.4c-2-7.51-8.86-9.32-13.1-9.58-4.248-.26-9.23 3.23-11.73 8.02-2.49 4.79-5.86 8.28-8.86 8.28-2.996 0-5.347-3.19-3.867-7.12 1.99-5.31 5.18-8.11 5.86-10.23 1-3.11 1.497-8.54-1.743-12.55-3.25-4.02-6.24-5.7-10.23-5.83z"/>
  <path d="M.026 100.834c-.706 32.693 12.882 61.785 37.23 80.95 15.026 11.833 34.378 20.296 57.137 25.208-15.15 3.68-28.193 7.68-45.88 10.043-17.688 2.363-43.89 5.016-43.89 5.016 33.44 3.77 90.676-4.83 110.194-11.71 9.46 1.09 24.95 1.96 29.72 1.67 13.49-.81 18.913-10.13 18.087-10.01-13.794 2.09-32.127.64-29.55.75 12.83-5.76 19.936-9.11 32.894-18.3 26.81-19.02 42.57-40.93 42.57-80.93 0-64-49.48-103.5-106-103.5S1.28 42.73.026 100.83zm11.513.666c0-51.557 42.68-95.132 94.23-95.132 51.55 0 90.26 44.575 90.26 96.132 0 26.937-8.76 48.91-35.51 71.9-9.9 8.506-27.64 19.79-46.76 26.783-66.18-8.19-102.24-44.78-102.24-99.683z"/>
  <path d="M29.355 68.977c4.8-3.48 9.21-8.25 13.23-14.31l1.17-1.622c.898-1.438 1.35-2.457 1.35-3.06 0-.24-.21-.63-.63-1.17-.722-.84-1.08-1.528-1.08-2.07v-.358c1.438.06 3.298.42 5.58 1.08 4.32 1.2 6.48 2.58 6.48 4.14 0 1.5-2.85 4.56-8.55 9.18-4.563 3.72-10.412 6.6-17.55 8.64v-.45zm3.33 1.978c.42.78.87 1.682 1.35 2.7.3.603.72 1.5 1.26 2.7.66 1.56 1.11 2.82 1.35 3.78l1.08 5.76c1.02 5.462 2.702 10.17 5.042 14.13 2.28-1.5 4.14-3.238 5.58-5.22 1.38-1.92 2.91-4.92 4.59-9-2.46.66-5.04 1.17-7.74 1.53h-1.35c-1.2 0-2.492.21-3.87.63.718-2.16 2.67-4.108 5.85-5.85 4.32-2.22 8.43-3.33 12.33-3.33 3.3 0 4.95.84 4.95 2.52 0 .84-.24 1.65-.72 2.43l-4.77 5.85-4.142 5.22c-1.56 1.92-2.49 3.33-2.79 4.23 1.86-.36 3.33-.598 4.41-.72.96-.058 2.43-.15 4.41-.27 1.5.063 2.85.393 4.05.99 2.46-5.818 4.11-10.47 4.95-13.95.84-3.42 1.26-7.23 1.26-11.43 0-3.897-1.68-5.85-5.04-5.85-1.92 0-3.93.362-6.03 1.08l-9.27 3.33c-.96.36-1.95.54-2.97.54-.24 0-.66-.03-1.26-.09-.12-.06-.24-.09-.36-.09-2.46-.6-4.052-.9-4.77-.9-2.46 0-3.69-.3-3.69-.9 0-.54 1.47-1.29 4.41-2.25.78-.238 1.56-.48 2.34-.72 1.08-.24 2.4-.54 3.962-.9.12-.058.238-.09.36-.09 2.76-.66 4.56-1.048 5.4-1.17l4.68-.54c2.458-.3 4.288-.508 5.49-.63 1.618-.18 2.788-.27 3.51-.27 3.358 0 6.448 1.02 9.27 3.06 2.82 2.103 4.23 4.41 4.23 6.93 0 2.882-.57 6.423-1.712 10.622l-3.06 12.15-1.98 6.568c-1.2 3.242-2.7 4.86-4.5 4.86-.96 0-3.15-1.08-6.57-3.24-3.48.66-6.12 1.353-7.92 2.07-1.858.66-3.96 1.74-6.3 3.24l-.72.09-.27-.36c3.54-2.16 6.15-4.11 7.83-5.85-1.32.18-2.25.36-2.79.54-2.16.66-3.66.99-4.5.99-.72 0-1.8-.36-3.24-1.08.18.78.27 1.53.27 2.25 0 1.08-.63 1.62-1.89 1.62-3.36 0-6.24-2.76-8.64-8.28-2.4-5.52-3.6-12.09-3.6-19.71 0-3.18.6-6.45 1.8-9.81l.45.09zM62.723 160.6c1.98.24 3.27.36 3.87.36 2.04 0 4.05-.42 6.03-1.26l5.76-2.432c.42-.18.96-.3 1.62-.36.78-.058 2.28-.118 4.5-.18 1.14 0 2.28-.18 3.42-.54 1.02-.3 2.94-1.05 5.76-2.25 3.9-1.68 7.8-2.52 11.7-2.52 2.16 0 4.02.45 5.58 1.35 1.56.96 2.34 2.04 2.34 3.24 0 1.262-2.25 2.55-6.75 3.87-1.98.54-4.44 1.8-7.38 3.78-.54.36-1.65 1.082-3.33 2.16-.72.48-1.47.96-2.25 1.44.12-.66.51-1.2 1.17-1.62 3.96-3 6.78-5.67 8.46-8.01-2.04.12-3.36.27-3.96.45l-3.6 1.26c-.36.12-.75.27-1.17.45h-.18c-.062 0-.122.03-.18.09h-.09l-4.32 2.43c-.24.18-.78.27-1.62.27-.9 0-1.53-.09-1.89-.27l-3.96-1.53c-.48-.12-.932-.18-1.35-.18-1.02 0-1.95.42-2.79 1.26l-4.68 5.04c-.603.72-1.442 1.08-2.52 1.08-1.32 0-2.49-.39-3.51-1.17-1.442-.898-2.792-1.89-4.052-2.97-1.44-1.2-2.01-2.07-1.71-2.61l.36-.72c.25 0 .49.032.73.09zm20.97-44.822c.96 2.342 1.44 4.652 1.44 6.932 0 .6-.062 1.5-.18 2.7-.122 1.38-.302 2.97-.54 4.77-.3 2.88-.45 6.54-.45 10.98 0 1.8.15 4.05.45 6.75 2.64-.78 4.588-1.44 5.85-1.98 1.32-.6 3.03-1.56 5.13-2.88v-4.23c-2.4.9-4.23 1.35-5.49 1.35-1.62 0-2.82-1.56-3.6-4.68 3.18-.36 6.3-2.19 9.36-5.49v-2.34c-1.86.602-3.422.9-4.68.9-1.02 0-2.402-.21-4.14-.63 1.5-1.68 3.718-3.18 6.66-4.5h.09c0-.06.028-.09.09-.09.058 0 .118-.03.18-.09.18-.06.33-.12.45-.18.18-.12.36-.21.54-.27.058-.06.147-.12.27-.18.058 0 .147-.03.27-.093.06-.418.09-.988.09-1.71 0-1.14-.42-2.43-1.26-3.868-.42.06-.96.09-1.62.09-1.8 0-3.99-.84-6.57-2.53l.09-.45 1.17-.27 7.29-1.89 7.38-2.16c.36-.06.69-.12.99-.18.72-.12 1.44-.27 2.16-.45.96-.18 1.89-.33 2.79-.45h.45c3.36.3 5.04 1.14 5.04 2.52 0 1.02-2.58 2.22-7.74 3.6-1.26.3-3.54.78-6.84 1.44 2.22.78 3.48 2.19 3.78 4.23 1.078-.6 2.1-.9 3.06-.9.6 0 1.08.06 1.44.18 2.64.6 3.96 1.38 3.96 2.34 0 .42-.51 1.08-1.53 1.98-.72.54-1.77 1.41-3.15 2.6-1.74 1.5-3.09 2.61-4.05 3.33l-.45 2.07c1.98-.9 3.54-1.35 4.68-1.35.66 0 1.38.24 2.16.72 1.5.84 2.25 1.62 2.25 2.34 0 .78-1.53 1.92-4.59 3.42-1.08.48-2.76 1.44-5.04 2.88l-.54 4.41c2.94-.66 5.31-1.11 7.11-1.35 1.74-.24 3.54-.36 5.4-.36 4.32 0 7.77.93 10.35 2.79 2.52 1.86 3.78 4.35 3.78 7.47 0 1.68-.27 3.6-.81 5.76-.54 2.1-1.53 5.28-2.97 9.54-1.56 4.5-3.27 8.22-5.13 11.16-1.68 2.64-3.452 3.96-5.312 3.96-1.74 0-3.6-.78-5.58-2.34l-9.09-7.38c-1.44-1.08-3.09-2.19-4.94-3.33-2.04-1.2-4.59-2.55-7.65-4.05l.09-.45c3.72 1.26 7.23 2.61 10.53 4.05 5.04 2.28 9.54 3.42 13.5 3.42 1.26 0 2.34-.63 3.24-1.89 1.68-2.46 3.06-5.58 4.14-9.36 1.14-3.84 1.71-7.41 1.71-10.71 0-3.12-1.59-4.86-4.77-5.22-6.36.48-12.39 2.1-18.09 4.86-3 1.44-5.1 2.16-6.3 2.16-1.02 0-2.7-.54-5.04-1.62v.9c0 2.4-.81 3.6-2.43 3.6s-3-1.47-4.14-4.41c-1.2-2.94-1.8-6.45-1.8-10.53 0-4.56.36-8.85 1.08-12.87.66-3.9 1.89-8.91 3.69-15.03.84.12 1.62.96 2.34 2.52z"/>
  <path d="M100.344 206.168c44.308-38.455 50.656-104.703 56.43-105.752 4.598-.836 10.867 24.243 15.465 24.243 5.01 0 15.04-46.82 19.64-71.48 12.54 40.96 15.46 89.87-16.72 119.13-14.21 12.95-45.15 33.44-65.21 33.02"/>
  <path d="M104.168 58.928h-3.25v-4.22h-4.906v4.22h-3.25V48.084h3.25v4h4.906v-4h3.25v10.844zm14.61 0h-3.345l-.883-2.188h-4.703l-.898 2.188h-3.35l4.79-10.844H114l4.775 10.844zm-4.977-4.094l-1.58-3.938-1.6 3.938h3.19zm17.82 4.094h-3.98l-4.14-5.063v5.063h-3.25V48.084h3.25v4.844l3.92-4.844h3.55l-4.03 5.078 4.69 5.766zm12.69-4.85c0 .93-.17 1.723-.52 2.377-.34.656-.8 1.174-1.37 1.556s-1.18.66-1.84.83c-.65.17-1.31.25-1.96.25-.91 0-1.8-.15-2.67-.47-.86-.31-1.59-.84-2.17-1.6-.58-.75-.87-1.73-.87-2.93v-6h3.25v5.15c0 .72.11 1.31.31 1.78.21.47.49.81.86 1.03.37.22.8.33 1.3.33.48 0 .9-.1 1.27-.32s.66-.55.86-1.02.31-1.05.31-1.77V48.1h3.25v5.99zm12.47 1.767c0 .937-.32 1.685-.95 2.243-.64.56-1.53.84-2.67.84h-6.24V48.084h5.23c.68 0 1.27.065 1.77.195s.91.3 1.22.53.53.49.69.8c.15.31.23.64.23 1.01 0 .39-.07.76-.23 1.1s-.35.61-.58.82c-.23.21-.46.37-.7.45.74.29 1.31.66 1.69 1.1.39.45.58 1.02.58 1.73zm-3.81-4.636c0-.52-.17-.86-.51-1.03s-.88-.26-1.61-.26h-.69v2.56h.71c.75 0 1.28-.09 1.62-.26.33-.17.5-.52.5-1.03zm.53 4.5c0-.92-.67-1.38-2.01-1.38h-1.32v2.75h1.33c1.35 0 2.02-.46 2.02-1.37zm16.79 3.21h-3.34l-.88-2.19h-4.7l-.9 2.18h-3.34l4.79-10.85h3.61l4.78 10.84zm-4.97-4.1l-1.58-3.94-1.6 3.93h3.19zm-63.21 14.67c0 .4-.07.79-.2 1.18-.13.38-.36.74-.66 1.07-.3.33-.72.6-1.24.8-.52.2-1.13.31-1.84.31h-2.14v4.06h-3.25V66.08h5.39c.71 0 1.32.103 1.84.312s.94.48 1.25.814c.31.33.53.69.67 1.09.14.39.21.79.21 1.19zm-3.31.01c0-.51-.15-.86-.45-1.05-.3-.19-.85-.28-1.63-.28h-.69v2.59h.7c.54 0 .96-.03 1.25-.1.29-.07.5-.19.64-.37.13-.18.2-.45.2-.79zm16.72 2c0 1.01-.23 1.94-.7 2.79-.46.85-1.16 1.52-2.08 2.02-.92.5-2.04.75-3.36.75-1.34 0-2.47-.26-3.39-.78s-1.61-1.21-2.06-2.06c-.45-.85-.67-1.76-.67-2.73 0-.98.23-1.89.67-2.73.45-.85 1.14-1.53 2.07-2.05.93-.52 2.06-.78 3.4-.78 1 0 1.89.14 2.68.44s1.43.7 1.94 1.21.89 1.1 1.15 1.77c.26.67.39 1.38.39 2.13zm-3.31 0c0-.41-.06-.78-.18-1.12-.12-.34-.3-.63-.55-.88-.24-.25-.54-.44-.89-.58-.35-.14-.75-.21-1.21-.21-.88 0-1.57.26-2.07.77s-.75 1.18-.75 2.01c0 .83.26 1.5.76 2.01s1.19.77 2.07.77c.6 0 1.11-.118 1.54-.35.43-.236.75-.56.97-.98.22-.427.33-.907.33-1.45zm22.66-5.44l-4.69 11h-1.89l-2.81-6.41-2.88 6.41h-1.9l-4.59-11h3.38l2.25 6 2.58-6h2.34l2.53 6 2.36-6h3.35zm12.64 5.62c0 1.11-.2 2-.6 2.67-.4.67-.88 1.21-1.42 1.63-.77.61-1.86.91-3.25.91h-5.84V66.08h4.5c.68 0 1.26.035 1.74.106.48.07.92.17 1.3.3.39.13.72.27.99.43.27.16.52.34.73.52.37.306.69.66.97 1.07.28.41.5.89.67 1.43s.25 1.13.25 1.77zm-3.31-.14c0-.88-.16-1.57-.5-2.06-.34-.49-.74-.82-1.22-.99s-.95-.25-1.44-.25h-1.39v6.41h1.4c.86 0 1.6-.2 2.23-.61s.94-1.24.94-2.51zm13.49 5.36h-8.15V66.08h8.02v2.188h-4.76v1.97h4.55v2.187h-4.55v2.31h4.9v2.185zm12.65 0h-3.49l-.86-1.91c-.31-.71-.59-1.22-.84-1.54-.25-.33-.49-.54-.73-.63s-.54-.14-.91-.14h-.37v4.22h-3.25V66.08h5.53c.89 0 1.62.183 2.2.55.57.363.98.807 1.24 1.33s.38 1.02.38 1.49c0 .546-.1 1.01-.31 1.39-.21.38-.43.653-.66.825-.23.17-.492.33-.783.49.35.2.637.442.86.72.23.28.536.844.926 1.69l1.09 2.353zm-4.42-7.41c0-.5-.16-.85-.49-1.04-.33-.2-.86-.3-1.6-.3h-.69v2.59h.7c.8 0 1.35-.09 1.64-.26.3-.18.44-.51.44-1zM100.8 94.92h-8.06V84.09h3.19v8.25h4.863v2.592zm12.318-5.41c0 1.01-.225 1.94-.68 2.79s-1.14 1.523-2.04 2.023-2 .75-3.298.75c-1.31 0-2.42-.26-3.324-.78s-1.58-1.207-2.02-2.057c-.44-.85-.664-1.76-.664-2.73 0-.972.22-1.882.66-2.73.436-.846 1.11-1.53 2.02-2.05.91-.516 2.02-.775 3.33-.775.98 0 1.854.15 2.62.45s1.4.7 1.894 1.21.87 1.1 1.127 1.77c.257.68.38 1.39.38 2.13zm-3.25 0c0-.41-.055-.78-.173-1.118-.117-.335-.295-.627-.533-.875-.234-.25-.524-.44-.87-.58-.34-.14-.736-.21-1.186-.21-.86 0-1.533.252-2.024.77s-.74 1.18-.74 2.01c0 .83.246 1.5.74 2.01s1.166.77 2.02.77c.586 0 1.09-.12 1.502-.355.414-.234.73-.562.94-.982s.32-.9.32-1.443zm16.16.184c0 1.11-.193 2-.59 2.67s-.86 1.218-1.395 1.634c-.763.61-1.826.92-3.193.92h-5.73V84.09h4.41c.66 0 1.23.033 1.7.104.474.07.898.17 1.276.3.38.127.7.27.966.43s.51.333.72.517c.36.31.68.66.95 1.07.27.41.49.89.65 1.43.16.54.24 1.13.24 1.77zm-3.25-.14c0-.88-.16-1.566-.49-2.06-.33-.49-.728-.82-1.19-.985s-.936-.25-1.416-.25h-1.37v6.4h1.366c.84 0 1.564-.21 2.18-.61s.92-1.25.92-2.51zM138 94.17c-.23.09-.422.162-.585.22-.163.06-.32.11-.47.156-.15.05-.367.11-.65.182-.486.113-.97.2-1.45.26-.484.06-.993.09-1.53.09-1.074 0-2.07-.2-2.983-.6-.915-.4-1.646-1.02-2.194-1.867-.55-.85-.825-1.88-.825-3.11 0-.8.146-1.57.428-2.34.29-.76.72-1.37 1.3-1.83.48-.38.97-.67 1.46-.87s.98-.34 1.44-.4c.47-.06.99-.1 1.56-.1.94 0 1.71.07 2.32.22s1.27.34 2 .57v2.57c-.48-.28-.99-.52-1.52-.71-.54-.192-1.21-.29-2.01-.29-.92 0-1.66.18-2.22.536-.55.36-.94.78-1.15 1.28-.21.49-.32.97-.32 1.434 0 .55.13 1.05.38 1.51.25.46.63.83 1.13 1.11.51.28 1.12.42 1.84.42.41 0 .85-.057 1.31-.166v-1.27h-1.44v-2.19h4.2V94.2zm5.715.753h-3.19V84.09h3.19v10.84zm14.207 0h-2.84l-5.5-6.03v6.03h-3.16V84.09h2.83l5.48 6v-6h3.186v10.84zm12.69-.76c-.23.09-.426.16-.588.22-.164.06-.32.11-.47.155-.15.05-.37.11-.65.182-.49.115-.97.202-1.452.263-.482.06-.99.09-1.527.09-1.08 0-2.07-.2-2.99-.6-.915-.4-1.647-1.02-2.195-1.87-.55-.843-.82-1.88-.82-3.11 0-.79.14-1.57.42-2.332.284-.76.715-1.37 1.295-1.83.48-.38.968-.67 1.46-.87.49-.2.974-.34 1.44-.4.47-.06.99-.1 1.558-.1.938 0 1.708.07 2.316.22s1.27.34 2 .57v2.56c-.48-.28-.99-.52-1.52-.71-.54-.19-1.21-.29-2.01-.29-.92 0-1.66.18-2.21.54-.56.36-.94.78-1.16 1.28s-.33.97-.33 1.43c0 .54.12 1.05.37 1.51.25.46.63.83 1.13 1.1.51.28 1.12.42 1.84.42.41 0 .85-.053 1.31-.162v-1.27h-1.44v-2.19h4.22v5.214z"/>
</svg>
