<svg xmlns="http://www.w3.org/2000/svg" width="300" height="300" viewBox="-13 -90 580 580">
  <g fill="none" stroke="#AB0E2C" stroke-linecap="round">
    <path d="M167.663 310.547v28.12m0-66.74v36.146m14.845-38.145l.902 69.418m-12.88-.468l.23-3.286 9.574.406.14 3.348m-12.81-64.798l14.844-1.843m-14.845 12.62l14.845-1.636m-14.845 3.93l14.845-1.61M169.93 308.4l.116-18.555 10.53-1.11.485 45.317-11.28-.334.11-23.67"/>
    <path d="M171.56 292.082l7.47-.503v13.19l-7.37.12zm.452 23.844l7.017-.442v16.163l-7.12-.2zm.24-6.133l5.87-.3-.184 2.98-5.686-.39z"/>
    <path d="M173.258 293.78l3.892.016v8.973l-3.582-.14zm.726 24.476l3.166-.408-.087 12.168-3.08-.12zm-1.972-2.33l1.972 2.33m5.046-2.772l-2.185 2.596m.218 11.936l1.966 1.63m-5.05-1.75l-2.07 1.55m-.36-39.364l1.87 1.705m5.5-1.517l-1.88 1.84m.09 8.66l1.88 2m-5.47-2.14l-1.91 2.26m-1.18-28.686l9.88-1.165.21 6.67-10.05 1.34zm2.13 1.36l7.79-.83-7.8.83z"/>
    <path d="M172.615 282.45v-4.886l-2.13-1.36"/>
    <ellipse cx="168.654" cy="309.188" rx="1.504" ry="1.486"/>
    <path d="M156.86 338.667l-.907-62.463 4.974-.748.56 63.03m-5.357-52.246l4.797-.556m-4.797 2.72l4.905-.506"/>
    <path d="M155.953 276.204l1.998 2.192 2.87-.29m-2.87.29l.22 7.288m2.76 4.17l-2.97.477.55 44.82 2.94.34"/>
    <path d="M161.43 333.06h-1.74l-.098-41.04 1.24-.143m27.9 63.21l28.356 1.97m-23.71 3.788l23.58 1.407 28.22-1.238m-52.143 5.228l23.548 1.812 28.596-2.155m-47.1 6.43l19.24 1.12 28.18-1.71m-50.37-18.57l-.2 2.33m3.14.48v4.57m10.15-3.62v4.58m-5.33-5.46v-2m0 7.42v5.2m-8.31-5.2v4.74m17.75-4.28v5.77m-5.32-.22v5.09m-8.03-5.9v5.47m15.79-4.12v4.79m-3.79.24v6.2m-8.69-6.7v5.66m21.08-5.18v5.65m10.42-6.28l.07 5.71m9.7-6.01v5.25m-16.25-9.92v5.34m11.21-6.15v5.47m-16.59-10.2l.47 5.54m10.84-5.68v4.61m8.47-5.29v4.73m-5.22-10.2l.1 5.14m-9.27-4.75v5.72m-26.46-8.08l22.07-1.06 14.04 2.83m-14.03-2.83v3.26m-19.58-4.6l4.07 1.86m5.56-2.46l4.02 2.19m6.35-.21l3.1-1.71m4.78 3.33l2.4-1.39m-14.33.32v2.66m-7.61-2.74v1.9m14.88-1.32l-.13 2.21"/>
    <path stroke-width=".5" d="M341.266 248.39l7.078.093m-7.078 3.79l6.59-.18m-6.356 3.317l6.504-.27m-6.504 4.338h6.504m-6.35 3.824l6.35-.182m-6.35 3.986l6.35-.21m-6.504 3.95l6.844-.18m-6.54 3.884l6.2-.218m-5.95 3.908l6.565.165m-6.39 3.855l6.38-.2m-6.57 3.483l6.56.162m-6.21 3.517l6.55-.196m-6.83 4.144h6.48m-6.57 3.747l6.91-.344m-6.55 4.104l6.55-.15m-6.6 3.935l6.59-.233m-6.66 3.97l6.31-.24m-6.25 3.72h6.43m-6.34 4.29l6.5-.36m-6.35 3.71l6-.3m-5.93 4.03l6.18-.46m-6.1 3.78l5.85.13m-5.58 3.92h5.59m-5.6 3.41l5.6-.21m-5.59 4.25l5.6-.15m-5.6 3.8l5.77-.25m-5.38 3.96h5.55m-5.79 4.05l5.79-.57m-5.72 4.04l5.37-.27m-5.21 4.32l5.39-.48m-5.16 3.91l5.16-.26m-5.16 3.83l5.32-.1m-5.29 3.64l5.28-.39m-5.28 4.47l175.57-8.31m-102.17 1.04h4.06m-3.66-3.5h3.67m-3.85-3.7h3.84m-3.85-3.63h3.99m-3.99-3.27l3.77-.33m-4.07-3.56l4.06-.18m-4.04-3.43h4.06m-4.06-3.05h3.88m-3.88-3.77h4.06m-4.06-3.52h4.28m-4.28-3.45l4.06-.25m-4.06-3.84h4.06m-4.01-3.62h3.84m-4.21-3.39l4.21.09m-4.21-3.34h4.64m-4.9-3.38h4.91m-4.64-3.89h4.5m-4.5-3.49h4.5m-4.5-3.56h4.65m-4.64-3.45h4.65m-4.9-3.45h4.76m-4.76-3.2h4.76m-4.76-4h4.55m-4.55-3.4h4.55m-4.54-3.63h4.55m-.14-3.48l-4.82-.18m0-3.66h4.97m-4.55-3.88h4.91m-5.33-3.59h5.33m-5.33-3.41l38.46.47m-38.04-3.84l38.03.33M416 254.16l38.77.15M416 250.32l38.6 1.01m-3.807 13.595h3.97m-4.353 3.6h4.36m-4.19 3.55l4.19-.18m-4.19 3.81l4.19-.31m-3.98 3.57l4.21.32m-4.21 3.02l3.73-.18m-3.74 3.74h3.732m-3.734 3.6h3.976m-3.97 3.31h3.74m-3.555 3.41h3.79m-3.8 3.556l3.79-.14m-3.69 4.06l3.68-.21m-3.69 3.41l3.68-.4m-3.69 4.58l3.96-.15m-3.82 3.52l3.54-.18m-3.54 3.27h3.54m-3.36 3.53h3.73m-3.73 3.16H455m-3.64 3.55H455m-3.64 3.7h3.73m-3.72 3.45h3.72m-3.475 3.19h3.472m-3.476 3.6h3.81m-3.81 3.44h3.69m-3.69 3.27l3.69-.18m-3.29 3.85h3.29m-3.11 3.34h3.11m-3.45 3.49h3.57m-3.57 4.14h3.45m59.12-3.56h4.28m-3.77-3.07h3.78m0-3.39h-3.94m.17-2.94l4.12-.22m-4.44-2.47l4.09-.22m-4.09-3.81h4.09m-4.09-3.19l4.09-.29m-4.22-3.19h4.23m-4.09-3.3h4.09m-4.09-3.7h4.15m-4.15-2.94h3.95m-4.25-3.45l4.25-.29m-4.29-3.52l4.16-.18m-3.81-3.15h3.95m-4.25-3.08h4.21m-4.2-3.48h4.2m-4.2-3.23l4.11-.14m-4.36-3.27h4.11m-4.11-3.41h4.11m-4.11-3.23h4.11m-4.23-3.37l4.09-.14m-3.96-2.93l3.96-.15m-3.63-3.01l3.34-.36m-3.67-3.3h4.02m-4.15-3.23h4.09m-4.08-2.94l3.79-.18m-3.67-3.7h3.88m-4-3.3h3.95m-3.82-3.55l3.83-.18m-3.83-3.16h3.67m-3.67-3.15h3.53m-3.53-3.09h3.53m-3.53-3.34h3.67m-172.34-8.73v4.01m-1.27 3.75v2.8m2.36.25v4.07m-2.8.26V263m3.02-14.5v3.64m-.51 11.05v3.78m-2.51.15v3.56m2.8.09l.07 3.51m-2.87.213v3.64m6.53-2.65v2.77m-4.01.17v3.49m-2.22.42v3.13m.93.18v3.51m2.16 0v4.04m-3.38 0v3.58m3.38 0v3.56m-3.38.37v3.74m2.83.08l.08 3.46m-2.8.23v3.43m3.01.22v3.95m-2.72.18l.08 3.2m2.9-.07v3.51m-2.72.45l.07 3.16m3.05.44v3.8m-2.51 0l-.07 3.12m1.71.29l.21 3.89m-2.46.196l.07 3.36m2 .25v3.57m-1.45.33v3.7m2-.2v3.57m-2 .27l.15 3.91m2.21-.2l.23 3.53m-1.23.26l-.1 3.36m-1.18.26l.07 3.21m5.52.21l.22 3.87m7.33-4.19l.15 3.78m7.25-4.05l.18 3.7m7.26-4.31l.44 3.84m6.64-4.23v4.02m6.76-4.3v3.98m6.67-4.26v3.71m6.13-3.97v3.91m6.43-4.17v3.71m5.7-4.16l.18 3.83m6.03-3.83v3.83m6.71-3.38v2.98m6.23-3.36v3.04m6.23-3.27v2.9m5.86-3.46v3.23m6.11-3.61v3.32m5.43-3.49v3.15m5.52-3.16v2.8m5.88-3.35l-.23 3.25m5.7-3.47v3.05m5.34-3.57l-.15 3.47m5.99-3.87l.06 3.59m6.25-4.01v3.73m6.5-4.17l-.15 3.87m7.18-4.17v3.75m7.81-4.22v3.79m6.86-4.01v3.73m-3.44.29v1.42m-7.36-1.09v1.72m-7.4-1.19v1.41m-6.71-1.26v1.73m-6.67-1.41v1.73m-6.22-1.31l.12 1.59m-5.63-1.13v1.42m-5.26-1.35v1.6m-5.92-1.46v1.75m-5.15-1.51v1.76m-5.23-1.51v1.3m-6.46-.91v1.83m-5.55-1.64l-.16 1.78m-5.98-1.49V369m-6.13-1.49v1.787m-6.21-1.49v1.49m-6.76-1.17v1.57m-5.6-1.303v1.8m-6.35-1.5v1.81m-6.21-1.648c-.07.137-.2 1.955-.2 1.955m-6.7-1.51v1.7m-6.73-1.3v1.93m-6.58-1.64v1.64m-6.79-1.36v1.61m-6.97-1.21v1.78m-7.84-1.36v1.6m-7.5-1.17l-.11 1.47m70.91-15.94v3.8m1.37-7.43v3.84m-1.75-7.1l.19 3.27m2.13-7.29v3.77m-2-7.25l-.12 3.48m2.12-6.53s-.13 3.28 0 3.16m-2.13-3.16l-.09-3.78m2 0v-3.34m-1.59-3.5v3.51m1.76-7.51l-.16 3.64m-2.38-7.51v3.66m1.75-6.97v3.3m-.59-10.01v3.29m1.18-7.17v3.89m-2.82-7.37v3.49m2.31-7.04v3.56m-2.31-7.23v3.78m2.31-7v3.45m-2.31-6.65l-.13 3.42m2.44-3.28v-4.14h-1.69l-.16-3.4m1.85 0v-3.63m-2.44 0v-3.57m2.75-3.56v3.72m-2.34-3.91v-3.86m2.5-3.59l.13 3.59m-2.22-3.59l-.13-3.28m-7.5 14.93v2.85m-6.97-2.84v2.85m-5.65-2.84v3.01m-5.84-3.26v3.1m-6.16-3.11v2.92m-5.91-2.91v2.73m-5.09-2.74v2.74m-5.19-2.98l.15 3.04m-4.25-3.04v2.73m-5.28-2.83v2.98m-4.69-2.91v2.76M421 257.55v3.33m6.12-3.28l-.14 3.29m7.36-3.05l-.12 3.28m6.81-3.4v3.47m-9.59 0v.7m6.66-.69l-.22.85m6.5-.69v.69m3.78-4.21v3.35m1.97.17v1.56m3.69-5.083v3.518m-1.87 3.844l-.13 3.3m1.84.15l-.18 3.22m-1.85.33v3.47m1.75-.05l.1 3.4m-1.6.38l-.07 2.97m1.56 3.6v3.59m-1.56 0v3.3m1.93 0l-.17 3.41m-.2 3.56c-.06.15-.01 3.58-.01 3.58m-1.2.33v3.01m1.61-.11l.15 4.31m-1.22.15v3.19m1.22 3.27l-.06 3.23m-1.16.33c.09.14 0 2.96 0 2.96m1.44.36l-.28 3.36m-.24 3.7v3.3m-1.1.15v3.19m1.69 0v3.59m-.35 3.44v3.17m0 3.75v3.34m-.67 3.69l.1 3.82m63.89-9.69l-.08 3.19m-.17-9.13l-.08 2.58m1.19-6.33v3.57m-1.94-6.93v3.19m1.75-6.52v3.03m-1.57-6.5v3.2m.52-9.68l-.1 2.78m-.61-10.2v3.7m1.35-6.9l.08 2.75m-1.42-5.97l-.12 3.08m1.47-6.57v3.49m-1.75-6.72l-.13 3.23m1.87-6.65v3.19m-1.75-6.6l-.13 3.41m1.47-6.64l.22 3.23m-1.56-6.66v3.43m.25-9.54v3.01m1.09-6.75l.08 3.38m-1.86-6.61l-.19 3.23m1.78-6.17v2.94m-1.69-6.81v3.7m1.87-7.01l-.09 3.24m-1.78-6.8l.1 3.55m1.408-6.89v3.2m-1.25-6.37v3.15m1.25-6.24l.1 3.08m-1.85-6.43v3.34m1.18-7.44v3.9m-5.55-3.9v1.25m-5.72-1.39v1.63m-5.25-2.12v1.7m-5.85-1.7v2.12m-5.57-2.44l.12 2.014m-5.63-2.01l.22 1.86m-6.22-1.85v1.58m-5.4-1.9v1.96m-6.19-1.95l-.12 1.97m-5.63-2.12v2.07m-6.19-2.35v3.76m-3.35.24v2.83m-4.53.14l-.07 3.09m-6.72-3.09l-.12 3.08m3.72-6.4l-.13 3.16m3.97-7.22l-.534 4.15m-7.25-4.01v3.82m-4.19 0l-.13 3.26m-3.59.14v2.91m-6.5-2.99v3.19m3.6-6.61l-.08 3.34m-6.52-3.72v3.74m-3.03.13v3.08M430.93 247l-.377 3.76m-6.66-4.126l-.19 3.94m-7.77-4.26v1.71m-6.29-2.01v2.01m-5.22-2.01v1.67m-6.404-1.67l-.12 1.155m-6.19-1.66v1.8m-5.94-1.79v1.24m-4.68-1.54v1.63m-6.1-1.63l-.12 1.37m-6.94-1.37l-.16 1.19m-6.66-1.53v1.25m-7.25-1.41l-.25 1.45M248.27 329h11.12m-10.5-63.14l10.41-1.53m-10.6 4.375l10.62-1.13m-10.614 4.72l10.59-1.36m-10.4 4.02l10.4-1.21m-10.4 3.8c.545-.17 10.4-1.16 10.4-1.16m-10.4 3.635l10.41-.65m-10.41 3.61l10.5-.76m-10.5 3.89l10.4-.965M249 288.73l10.333-.865m-10.4 3.84c.45-.094 10.5-1.17 10.5-1.17m-10.19 4.23l10.19-.84m-10.5 3.95l10.4-1.043m-10.4 4.177l10.41-1.43m-10.41 4.75l10.795-1.14m-10.148 4.84l9.76-1.43m-9.96 4.91l10.185-1.22m-10.955 4.33l10.713-1.04m-10.97 3.55c.26.08 11.21-.63 11.21-.63m-11.21 4.05l11.21-.9m-11.21 3.68l11.364-.46m-11.36 3.11l11.366-.35m-11.362 6.26h11.21m-11.21 2.9h11.48m-11.9 2.33l11.64.63m-8.1-74.23v1.6m6.27-2.66v1.85m-2.91.95v2.42m-3.36.96v3.2m6.27-4.17v3.38m-2.69.33v2.78m-5.4-1.97v2.47m1.83-.09v2.56m6.27-3.29v2.62m-2.68.42v2.7m-4.92-2.13v2.5m1.95-.14v2.87m5.67-3.14v2.72m-2.69.25v2.94m-4.92-2.65v3.1m2.37-.22v2.64m5.62-3.02v2.56m-2.21.18v2.77m-5.14-2.06v2.53m2.88-.22v3.2m4.48-3.69v3.4m-7.99.78v2.94m5.99-3.39v2.56m-2.48.47l.19 2.93m4.83-3.44v2.68m-2.04.37l.28 3.53m-5.84-2.77v3.39m2.59-.01v3.21m3.83-.46v3.69m-6.93-2.52v3.15m2.57 0v2.81m5.02-.28v2.9m-7.59-2.17v2.39m4.01 0v2.96m-5.16-2.43v2.92m2.63 0v2.61m6.11-3.1v3.1m-2.6.23v2.53m-5.39-2.08v2.37m2.43.18v2.85m5.89-3.32v3.31m-2.54 0v2.94m-5.77-2.94v2.75m2.75.19l.22 2.73m5.34-2.72v2.91m-2.32.15v2.62m-5.99-2.62v2.1m1.88.56V341m6.43-3.34v3.95m-136.8-96.666l-28.6 6.162m28.66-8.774l-4.14.523m.9 2.67v2.31m-7.17-.59l.21 1.96m-5.95-.79l.26 2.03m-4.59-1.09l-.06 2.01m-4.61-1.01l-.07 1.81m-2.03.46l-1.39.35m5.61-3.08v-2.2m4.78-1.48v2.48m4.85-3.23v2.24m6.36-4.25v3.03m6.07-3.88v2.65m-26.63 9.3H93.1m1.013 1.73l-1.144.41m0 1.81h1.14m-1.15 1.93h1.31m-1.48 1.93c.17.05 1.48 0 1.48 0m-1.31 2.26l1.31-.1m-1.31 1.89l1.31.17m-1.18 2.1l1.18-.175m-1.31 2.41l1.52-.22m-1.52 2.186h1.43m-1.31 2.2h1.38m.13 1.9l-1.52.215m0 2.06l1.38-.21M197.2 246.2l6.084.116m-81.06-1.555l64.32 1.23m-64.444-4.17l81.18 1.72m-77.026-4.55l77.284 1.7m-72.064-4.43l72.112 2m-66.53-4.57l66.226 1.78m-59.83-4.53l59.83 1.65m0-2.36l-54.43-1.77s-.486 2.53-.328 2.58m5.47-5.14l49.542.8m-43.086-3.78l42.83 1.37m-36.732-4.17l36.736 1.34m.304-2.57l-31.24-1.11m5.51-2.62l25.426 1.01m-19.378-3.96l19.16.76m.215-2.59l-14.97-.27m14.97-2.42h-9.11m9.12-2.65h-3.8M188.96 249h-1.67l-1.83.25m17.84-.253h-7.93m-8.07 2.88l16.26.16m-.25 2.36l-16.31.15-1.48.17m1.79 2.71l16 .18m.26 2.72l-16.26-.17-1.39.17m17.65 2.76l-15.83-.45-1.82.224m6.46 2.88h-5.07l-1.39.12m1.82 2.59l4.65.09m-4.64 2.59l4.648.18m0 2.72h-6.29m5.87 2.64h-6.05m1.818 2.98h4.23m0 2.86l-4.222.17-1.65-.09m1.91 2.76h3.96m-3.96 2.49h4m-4.03 3.24l4.236-.37m-4.28 3.42l4.41-.28m-4.376 2.45l3.96-.14m.08 2.89l-3.96.13h-2.17m2.3 3.16l3.74-.27m-3.96 2.68l4.37.02m-4.29 3h3.87m-4.26 2.91l4.25-.07m-3.46 2.68h3.46m-3.75 2.79l59.79-.64m-59.79 3.48l59.79-1.23m-59.51 3.85l59.5-.64m-59.507 3.58l59.5-.81m-51.24 3l-8.26.49-1.84-.24m32.66-.25l28.68-.7m-59.31 4.11h7.85m24.7-.41l27-.39m-51.79 3.22l-7.76.37-2.23-.36m32.853 0l28.92-.27m-51.8 2.91l-8.07.41-1.92-.7m32.035-.4l29.5.69m-45.18 3.05l-14.13.3-1.824-.64m61.13-.64l-34.78.75m-24.72-8.29h-1.82m1.37-5.21l-1.56-.4m1.68-2.33l-1.48-.21m1.55-2.62h-1.55m1.39-2.82l-1.58-.04m1.53-3.02l-1.53.16m1.49-2.53l-1.87.09m2.06-3h-1.68m1.26-3.26l-1.26.26m1.49-2.7l-1.87.13m1.64-5.9H186m1.58-2.26l-1.59.19m1.533-3.14l-1.71-.25m1.77-2.97l-1.64.3m1.69-2.81l-1.64.08m1.34-5.78l-1.33.07m1.34-8.59l-1.51.17m1.51-2.88l-1.51.12m1.51-10.93l-1.916.26m1.44-5.76l-1.44.21m11.96-44.64l.117 2.41m-6.58-.07v-.72m2.62 1.21v1.93m7.14-1.92l-.1 2.16m.75-5.02V205m-4.2 10.89l.133-2.98m-7.308-.49v3m-6.91-2.86l-.43 2.77m-2.73 0l-.21 2.7m7.12-2.53v2.786m6.85-2.52l-.22 2.75m7.33-2.37v2.37m-3.37.36v2.353m-6.88-2.42v2.17m-6.98-2.66v2.4m-6.94-2.8l-.28 2.54m-5.86-2.18v1.83m-4.43.62l-.32 2.36m7.28-2.62v2.62m6.9-2.31v2.56m7.17-2.35v2.79m7.05-2.54v2.53m6.86-2.32v2.76m-3.47.07l.11 2.31m-7.1-2.39v2.27m-6.66-2.71v2.53m-6.96-2.85v2.7m-7.17-2.94v2.93m-7.09-3.16l.12 2.9m-3.96.21v2.68m7.69-2.68v2.68m6.82-2.34v2.6m6.58-2.73v3.15m7.17-2.86v3.1m7.05-3.15v3.16m6.87-3.01v3.46m-3.36-.11v2.38m-6.87-2.61v2.42m-6.91-2.64v2.35m-6.96-2.48l.26 2.4m-7.43-2.73v2.53m-7.03-2.76v2.56m-7.38-2.81v2.4m-3.32.32v2.75m-7.12-3.12v2.72m14.18-2.23v2.63m6.96-2.44v2.82m7.28-2.72v2.64m6.79-2.45v2.75m6.95-2.56v2.9m7.22-2.7v2.9m6.47-2.45v2.63m-3.14.27l.1 2.24m-6.97-2.68v2.68m-6.91-2.87l.06 2.49m-6.89-2.76l-.13 2.76m-6.78-2.76v2.5m-7.42-2.79v2.66m-6.65-2.66V237m-6.94-2.93l-.26 2.73m-7.2-2.76v2.46m-3.96-.04v2.81m7.23-2.61v2.77m-14.52-2.665s-.06 2.16 0 2.25m4.35-2.65l.11-1.658m17.51 2.25v2.47m6.88-2.37l.14 2.7m7.16-2.46v2.47m6.82-2.2v2.52m7.01-2.42v2.43m6.96-2.23l-.21 2.53m7.23-2.07v2.23m7.04-2.16v2.16m-3.4.08v2.86m-6.94-2.96l-.23 3.08m-7.23-3.29v2.876m-6.94-3.03l.31 2.89m-6.78-2.83v2.69m-7.48-2.94l.06 2.78m-7-2.967v2.82m-6.62-2.82l-.12 2.68m-6.79-3.026v2.69m-7.69-2.685l-.32 2.687m-6.44-3.024v2.66m2.63.37v2.88m7.56-2.77l-.27 2.91m7.73-2.67v2.82m6.94-2.53v2.664m7.01-2.66v2.67m7.15-2.36v2.63m6.82-2.71v2.84m6.79-2.628v2.75m6.96-2.68l-.12 2.19m14.68-1.77v2.59m-3.69.01v2.7m-13.87-2.85v1.563m-6.84-1.79l-.07 1.78m-6.68-1.91l-.13 1.775m-7.26-1.98v1.98m-7.38-1.98v1.59m-6.46-1.85v1.85m-6.99-1.92v1.92m-7.75-2.07v2.13m-6.76-2.12v2.07m66.92 3.38l-.12 1.24m7.08-2.66V252m-13.2-2.71l.12 2.54m9.6.34v2.1m-6.69-2.33l.07 2.41m-2.86.44v2.71m6.25-2.95v3.04m7.19-3.04l-.24 2.96m-3.4.31v2.2m-6.64-2.33v2.545m-2.52.07v2.4m6.04-2.114v2.34m6.75-2.42l-.12 2.61m-3.24.05s-.12 1.52.1 1.28m-7.38-1.51v2.87m-1.69.06v2.45m.1 2.98l.1 2.82m0 2.64v2.98m.31 2.92l-.31 2.78m.3 2.52v2.95m.23 3.19l.19 2.12m-.13 2.96l-.1 3.07m0 2.77l.09 2.84m.09 3l.27 2.52m.22 2.78v2.78m4.07-4.95v2.1m6.743-1.69v1.45m-3.06.4v2.54m10.39-4.38v1.44m-3.32.25v2.3m10.24-4.4v1.85m9.2-1.45v1.36m8.99-1.76v1.52m8.14-1.52v1.59m-29.85.32v2.48m8.06-2.49v2.43m9.314-2.62v2.43m8.7-2.52v2.15m7.29-2.25v2.25m-3.15.37v2.84m-7.92-2.85v2.9m-8.67-2.79v2.65m-7.87-2.6c-.05 0 .22 2.61.22 2.61m-8.4-2.44c-.06 0 0 2.75 0 2.75m-7.5-2.52l-.07 2.57m-7.21-2.5v2.7m-3.75.18v2.79m7.39-2.9l-.22 2.81m7.82-2.88V324m7.6-2.764V324m7.98-2.907v2.852m8.46-2.808l.26 2.69m8.19-2.734v2.506m7.33-2.79v2.78m-3.32.34l.32 1.95m-7.81-2.14v2.34m-8.3-2.16v2.3m-7.73-2.24v2.24m-8.03-2.16v1.03m-8.35-.92v1.06m-7.81-.91v2.24m-5.72-2.04l.15 2.44m2.4.08V330m-2.29 0v2.72m5.75-2.5v2.2m27.87-5.94v2.923m8.08-3.12v2.93m7.97-3.12v3.12m7.24-3.12v3.12m-3.37.194v2.75m-7.39-2.75v2.75m-7.98-2.657v2.655m-6.21-2.15l-.21 2.286m18.66.14l-.19 2.46m-7.41-2.46l.2 2.3m-7.18-2.29l.27 1.95m-5.35-1.65v1.65m-27.35-1.58v2.43m-2.25.12l.25 3.03m8.16-3.14v2.97m15.9-3.46l.13 3.06m8.06-3.28v3.16m5.72-3.03l-.21 2.91m7.01-2.75v2.6m8.03-2.41v2.24m-3.203.18v3.62m-7.6-3.35l.22 3.53m-7.07-3.53s-.38 3.27-.22 3.35m-6.37-2.99l.06 3.42m-23.6-3.02v3.34m-6.1-3.34v3.34m-61.77-87.35l5.41.06m8.67.15l10.44.17m-24.33-2.04h5.2m8.99.16l9.97.3m-24.18 3.64h7.43m5.31-.42h12.15m-25.08 2.15l24.89-.31m-24.7 2.24l24.69-.27m-24.66 2.03l24.34-.2m-24.41 2.22l24.37.02m-24.33 1.73l24.37-.22m-24.41 1.84l24.73-.27m-24.89 2.35l24.89-.69m-24.89 3.08l24.89-.75m-24.895 2.73l24.89-.55m-24.65 2.28l24.9-.48m-24.94 2.6l24.89-.47m-24.89 2.93l24.69-.68m-24.89 3.02l25.13-.67m-25.14 2.99l25.23-.36m-25.07 3.19l24.98-.79m-25.13 3.55l25.14-.68m-25.14 3.39l25.32-.16m-25.33 2.47h25.24m-25.24 2.87l25.55.02m-25.55 2.66h25.4m-25.56 2.52h25.56m-25.4 2.46l25.23-.29m-25.238 2.79l25.4-.23m-24.7 2.48l24.52-.24m-23.23 2.86l23.55-.58m-22.64 3.17l22.17-.64m-20.6 3.09l20.84-.74m-20 3.37l20.08-.7m-18.28 3.4l18.33-.53m-17.307 3.08l17.45-.16m-16.34 3.04l16.11-.31m-14.9 3.09l14.82-.54m-13.23 3.26l13.75-.59m-13.52 2.91l13.76-.16m-22.64-84.15l.09 1.5m.12 2.44v1.58m0 2.08v1.67m-2.06-3.36v1.56m0-5.92l-.11 2.41m-.2-4.09v-.8m4.58 4.9v-1.04m1.68 1.05v1.58m-1.77.09v1.72m3.84-1.76v1.94m4.25-1.93v1.77m4.76-1.7v1.77m4.14-1.71v1.52m-11.01-1.83v-1.42m4.26-.3v1.64m4.85-1.64v1.64m-2.14-3.38v1.53m4.05-1.53v1.64m-6.75-1.79V253m4.41.26v1.26m3.75-1.265v1.5m-3.01 5.59v1.74m-4.72-1.64l.11 1.67m-4.65-1.567s-.09 1.46 0 1.56m-4.37-1.644v1.642m-5.77.21v1.76m3.91-1.81v1.944m4.03-1.947v2.06m4.71-2.134v2.13m4.29-2.12l.09 2.12m4.42-2.14v2.02m-1.89.13l-.07 1.43m-4.16-1.43v1.43m-4.59-1.45l.06 1.63m-4.62-1.57v1.61m-3.91-1.67v1.63m-1.88.11v1.6m3.66-1.45l-.05 1.4m4.32-1.4v1.33m4.445-1.5l.07 1.44m4.53-1.43c-.08.06.11 1.24.11 1.24m4.16-1.31v1.44m-1.95.19v1.55m-4.09-1.67v1.78m-4.7-1.66l-.08 1.79m-4.626-1.69v1.68m-3.75-1.73v1.97m-2.04.06v2.38m3.7-2.49v2.28m4.32-2.18v2.07m4.69-2.36v2.29m4.6-2.43v2.12m4.6-2.24v2.26m-1.88.28v1.87m-4.64-1.87v1.87m-4.72-1.7v1.97m-4.66-1.94v1.94m-3.7-1.83l-.09 2.01m-3.32.09v1.71m4.81-1.81l.14 1.58m4.435-1.72l-.09 1.72m4.81-1.76v1.68m4.67-1.76v1.61m4.34-1.78l.09 1.8m-1.818.22v1.89m-4.67-1.97l.14 2.11m-4.78-2.03v2.03m-4.5-1.95v2.04m-4.71-1.96v1.95m-2.34.21v2.44m5.08-2.44c-.05.09-.23 2.31-.23 2.31m4.525-2.49l.07 2.23m4.39-2.22l.1 2.04m4.71-2.17v2.1m3.96-2.1l-.09 2.1m-1.47.07v2.29m-4.48-2.02v2.21m-4.78-2.03v2.16m-4.51-2.23l.14 2.34m-4.51-2.22v2.22m-2.437.18l-.1 2.19m4.71-2.31v2.31m4.39-2.38v2.37m4.69-2.48v2.29m4.65-2.44v2.44m2.67.03l.117 2.36m-4.69-2.21l.09 2.43m-5.12-2.44l.072 2.52m-4.53-2.45l.1 2.68m-4.7-2.62v2.64m2.38.25c-.084.28.066.01.09 2.57m-4.53-2.36l-.07 2.21m8.984-2.76v2.76m4.85-2.92v2.6m5.11-2.43l.09 2.53m2.51.12v2.88m-4.76-2.76v2.76m-5.215-2.8c-.02 0 0 2.92 0 2.92m-4.64-2.79l-.09 2.9m-4.46-2.65v2.63m-2.46.08v2.13m4.69-2.13l-.01 2.13m4.4-2.13v2.13m5.25-2.05l.08 2.23m4.9-2.39v2.3m2.85.09v2.76m-5.28-2.76v2.87m-5.22-2.73v2.62m-4.78-2.62l-.11 2.73m-4.52-2.87v2.87m-2.37.02v2.66m4.71-2.68v2.68m4.74-2.68v2.68m5.11-2.68v2.68m5.2-2.66v2.66m-2.44 0v2.51m5.15-2.52c-.04 0 0 2.52 0 2.52m-10.3-2.52v2.52m-5.1-2.52l-.05 2.51m-4.41-2.52v2.34m-3.45.18v2.45m5.68-2.45V306m4.8-2.126v2.14m5.15-2.323v2.17m5.05-1.98l.08 1.88m-1.877.24v2.4m-5.49-2.25l.11 2.26m-5.4-2.16v2.28m-4.9-2.34l-.21 2.43m2.54.13l-.09 1.92m-4.47-2.04v2.28m9.65-2.35v2.25m5.61-2.29v2.24m5.68-2.2l.23 2.14m-2.64.11v2.2m-5.84-2.15l.186 2.25m-5.37-2.05s-.14 2.35-.08 2.35m-4.94-2.44v2.56m2.72.118l.23 2.41m4.92-2.52v2.33m5.61-2.66v2.45m5.61-2.46v2.38m-2.57.07l.11 2.23m-5.565-2.03l.18 2.27m-5.45-2.16l.06 2.45m-4.92-2.25v2.41m2.344 0l.11 2.57m5.08-2.74v2.57m5.4-2.86l.044 2.56m5.25-2.44l.09 2.36m-2.44.08l.16 2.79m-5.56-2.51l.09 2.77m-5.4-2.69v2.68m2.55.26v2.5m-4.87-2.54l.09 2.58m10-2.81v2.74m5.12-2.47l.08 2.39m-2.258.16v2.56m-5.36-2.57l.042 2.65m-4.81-2.65v2.65m2.1.14v2.75m5.43-2.67v2.39m5.02-2.48l.12 2.36m-2.39.22l.16 2.57m-5.4-2.41v2.64m-2.24.18l.1 2.09m4.8-2.39l.17 2.45m5.13-2.45c-.05.06-.05 2.45-.05 2.45m-2.27.16l.16 1.76m-5.31-1.53v1.6m-47.6-86.71l24.323.23m-27.9 1.24l27.92.59m-27.79 1.72l27.92.45m-27.64 1.93h27.25m-27.49 1.92l27.49.25m-27.25 1.72l27.5-.13m-27.71 2.18l27.47-.36m-27 2.46l27.01-.6m-27.25 2.58l27.5-.78m-27.26 2.89l27.01-.69m-27.01 2.84l27.25-.4m-27.3 3.04l27.255-.51m-27.28 3.32l27.26-.37m-27.5 2.71l27.67-.25m-27.43 3.03l27.26-.39M94 285.95l28.548-.6m-30.5 3.15l30.22-.23m-30.268 3l30.5-.247m-30.14 3.197l30.01-.548M92 296.794l30.5-.88m0 2.506l-30.5.754m.36 2.82l30.01-.65m-29.89 3.33l30.02-.7m-30.14 3l30.42-.9m-30.42 3.676l3.76-.19m-3.76 2.73l3.37-.17m-3.25 2.68l3.64-.178m-3.64 2.822l3.64-.34m-3.64 2.916l3.64-.19m-3.416 2.703l3.41-.18m-3.64 2.95l3.812-.15m-3.584 2.93l3.41-.17m-3.76 2.5l3.76-.346m-3.64 2.773l3.54-.19m-3.31 2.62l3.41-.29m-3.524 2.4l3.523-.145m-3.71 3.04l3.71-.492m-3.41 3.3h1.73m-1.72 2.88h1.97m-1.97 2.8h2.46m-2.64 2.27l2.26-.24m-2.08 2.86H95m14-101.27v1.68m-15.05 42.86v2.186m5.993-2.33l.07 1.87m6.12-2.11v2.26m6.42-2.47v2.31m6.51-2.44v2.07m-16.14-1.94v-2.32m-6.554 2.63v-2.45m12.99 2.07v-2.39m6.84 2.19v-2.31m2.86-.23v-2.41m-6.77.12v2.42m-6.51-2.42v2.68m-6.49-2.6v2.74m-5.13-2.74l-.04 2.68m2.2-3.12l-.05-2.39m6.51 0l-.16 2.65m6.73-2.65v2.38m6.7-2.57v2.73m5.42-2.73c0-.18-.06-.44.05 2.57m.24 2.77v2.25m-2.84-7.76l-.1-2.72m-6.55 2.91v-2.78m-6.39 2.7l.1-2.45m-6.35 2.44l-.06-2.45m-5.5 2.56l.08-2.43m2.03-.3v-2.24m6.35 2.25l.08-2.47m6.74 2.25l.06-2.35m6.23 2.35v-2.35m5.91 2.19l-.22-2.36m-2.42.03l-.1-2.57m-6.55 2.66v-2.69m-6.18 2.75v-2.69m-6.53 2.82l.12-2.76m-3.35.03v-2.24m6.27 2.18l-.08-2.26m6.85 2l-.03-2.2m6.15 2.35V278m5.85 2.294l-.18-2.458m-2.56-.013v-2.796m-6.4 2.797l-.07-2.692m-6.47 2.88v-2.78m-6.1 2.903l.06-2.825m-1.82.02v-2.636m5.03 2.544l-.08-2.544m6.1 2.334l-.08-2.334m6.44 2.204l.05-2.358m5.74 2.358l-.2-2.537m-2.21.03v-2.27m-6.19 2.37v-2.09m-6.31 2.09v-2.09m-5.44 2.15l-.12-2.09m-4.93 2.25v-1.96m2.54-.22v-2.02m4.69 1.9v-1.9m6.13 1.75l-.11-1.95m6.31 1.79v-1.98m5.91 1.81l-.17-1.98m-2.31-.22V266m-6.2 1.95v-1.72m-5.97 1.887l-.1-1.67m-5.8 1.89V266.4M96 268.334v-1.803m2.13-.22l-.098-1.87m5.05 1.91v-1.9m5.76 1.78v-1.87m6.31 1.66l-.1-1.74m5.563 1.67l-.08-1.67m-2.506-.13l-.22-1.75m-6 1.83l-.05-1.68m-5.45 1.61v-1.75m-5.39 1.83v-1.68m-4.92 1.8v-1.81m2.48-.24v-1.62m4.95 1.52v-1.52m5.59 1.31l-.07-1.31m5.54 1.62l-.1-1.62m5.59 1.39v-1.39m-3.07-.13l-.14-2.05m-4.95 1.92l-.1-1.92m-5.31 1.92v-1.79m-5.37 1.79v-1.79M96 260.41v-1.8m2.486-.295v-2.05m5.363 2.22v-2.153m4.89 2.15v-1.926m5.44 1.922v-1.8m5.07 1.612l.05-1.78m-2.55-.16l-.08-1.98m-5.11 1.96v-2.1m-5.46 2.03l.29-2.17m-5.04 1.89l.07-1.906m-4.91 2.03l.11-2.176m2.32-.445l.18-1.07m4.87 1.245v-1.12m10.15 1.537v-1.61m4.91 1.845l-.14-1.65m-2.05-.168v-.962m-5.19.885v-1.38m-5.31 1.36l.1-1.45m-4.3 1.28l.26-1.19m-5.91 48.043l.08 2.7m6.35-2.86v2.86m6.34-2.96l.09 2.83m6.57-2.96v2.816m5.61-3.043c-.03.15.14 2.91.14 2.91m-2.34.22l.09 2.43m-7.06-2.36l.08 2.58m-6.42-2.44v2.56m-6.36-2.49v2.57M94.04 302l.076 2.67m2.507.04v2.173m6.25-2.302l-.05 1.99m6.69-2.2l.12 2.14m6.333-2.25v2.07m5.754-2.28v2.11m-2.25.17l-.09 2.86m-6.48-2.6v2.61m-6.607-2.47v2.47m-6.254-2.28v2.28m-5.86-2.2l-.06 2.68m.06 2.64l.24 2.42m-.27 2.58v2.65m.17 2.77l-.09 2.37m.13 3.03v2.14m.11 2.61l.09 2.27m-.05 2.2l-.16 2.97m0 8.48l-.1 2.02m-.41 2.86c.01.17 0 3.01 0 3.01m-9.05-58.9l6.69-.29m-9.66 2.99l9.85-.39m-9.6 2.89l9.84-.41m-9.69 2.79l9.7-.38m-9.48 3.08l9.84-.51m-9.84 2.97l9.84-.38m-9.82 2.74l9.48-.34m-9.84 2.85h9.81m-9.48 2.65h9.27m-9.28 2.29l9.27.2m-9.26 2.49h9.48m-9.68 2.89l9.96.06m-9.56 2.56h9.39m-9.59 2.36l9.48.13m-9.48 2.42l9.59.29m-9.18 2.02l9.16.25m-24.58-1h-6.91m.29 2.15l31.23 1.16m-31.33 1.31l31.66 1.55m-31.79 1.22l31.79 1.38m-31.44 1.11l31.26 1.68m0 2.43l-31.6-1.94m31.87 4.57l-31.75-2.51m-.03 2.15l31.6 2.98m-24.86-21.6H60.7m6.71-3.03H65m2.32-3.04H65.8m1.338-3.26l-1.337.11m1.64-2.92l-1.73.17m1.62-2.76l-1.52.31m1.64-3.04l-1.64.35m1.34-2.68l-1.33.2M67 310.3l-1.18.09m1.18-2.45l-1.18.13m1.24-2.42l-1.24.1m1.2-2.778l-1.2.22m24.08-7.6v1.765m-3.76.29v2.676m3.77-.03v2.03m-6.26-1.48V303m2.94-.203v2.337m4.19.133v2.3m-5.71-2.185l-.09 2.57m3.26.13l.03 2.23m-4.92-1.934v2.29m2.44 0v2.1m5-2.23v1.85m-2.52.5v2.506m-4.607-2.407v2.242m2.126.18v2.48m5-2.33v2.47m-2.54.08l.02 2.2m-4.11.29v2.24m6.62-2.16v2.24m-2.94.38v2.63m2.94.26v2.31m-5.89-2.63l.13 2.45m2.82.45v2.02m2.62.29v2.37m-5.88-2.22v2.18m2.91.15v2.16m2.9.25l.06 2.08m-6.81-2.21v2.1m-6.13-2.23v1.96m-5.94-2.13v1.95m-5.75-2.55v2.34m-2.25-4.68v2.15m2.67-5.12v2.96M63 337.27v2.39m5.63-2.17v2.446m5.79-2.28l-.03 2.433m5.835-2.29l.03 2.6m6.68-2.23v2.67m3.485.34v2.4m-5.84-2.74l.065 2.35m-6.71-2.69v2.52m-6.18-2.93v2.72m-5.5-2.88l.162 2.63M62 339.76v2.67m1.58.07v2.368m5.673-2.07v2.513m5.17-2.09l.03 2.23m5.82-2.22l-.044 2.68m6.6-2.41v2.77m3.18.29v2.29m-5.88-2.58v1.93m-6.62-2.43v2.25m-5.77-2.56v2.25m-5.11-2.38v1.91m-4.13-2.27v2.09m2 .24v2.12m4.74-1.76v2.03m5.26-1.66l-.12 2.01m6.43-1.71v2.38m6.1-1.7l-.09 1.99m2.61.41V354m-5.46-2.916l.14 2.41m-5.75-2.77v2.157m-6.64-2.53v1.94m-4.74-2.4v1.77m-4.49-2.37v2.13m1.99.24v1.85m5-1.22l.09 1.82m5.42-1.32v1.95m6.05-1.47v2.27M86.8 354l.02 2.25"/>
    <path d="M316.207 1.02L524.72 162.77l-1.6 1.282L316.206 3.582zm-.41-.445L178.8 82.535v3.044l137.406-82m-.41.6v8.99l-136.46 79.01v-6.6m136.462-72.41l1.445 1.14-136.763 79.2-1.388-.91m138.15-78.28l199.664 154.39 2.563-4.28 3.65-.39m-3.65.38L315.79 7.08M544.8 239.8l-.077 2.9-211.035-7.904.595-1.583m-.595 1.583l-137.61-97.02v-1.53"/>
    <path d="M501.48 216.09v-52.04L310.103 18.456m206.803 150.25H501.48m-317.124-77.44l.93 103.7 14.152-6.678 13.255-3.94M181.82 93.035l2.57 1.97m47.717-.985l11.334-6.887.42 41.916-11.75 5.16zm11.75-7.134l.93.01.61 42.595-1.54-.77m1.54 1.18l-11.706 5.28-1.66-.63"/>
    <path d="M233.69 95.006l8.25-4.623.523 37.096-8.772 3.73zm57.92 29.412l15.578-6.18.515 45.262-16.094-11.27z"/>
    <path d="M293.54 126.607l11.974-4.12v35.536l-11.975-7.982zm13.98-8.527h.875l.695 45.69h-1.387"/>
    <path d="M294.73 126.197v23.012l10.784 6.91m-10.784-6.92l-1.19.83m-58.25-19.67V96l6.677-3.824M233.69 95l1.092.866M220.617 138s-1.147-.622 0-1.962c0 0 1.258-.906 2.598-.866 1.338.04 1.34 2.83 1.34 2.83m-26.787.965v7.674l134.916 97.42 2.13-9.22m-2.13 9.22l207.775 5.69 2-7.12m-339.05-91.91h-1.47v29.5l11.13-3.68"/>
    <path d="M201.94 180.213l1.31.818 9.822-3.11m-7.486-25.63l-1.956.34.356 24.23 7.327-2.88.115-17.47"/>
    <path d="M207.89 153.952l-2.595.558-1.108-1.98m1.513 23.124l-.544-21.394m7.916 3.433v31.278l1.637.99-.82 1.07v7.94l-5.57 2.05-91.52 42.16-3.93-8.35"/>
    <path d="M116.807 243.16l-37.9 9.25-2.7-6.386"/>
    <path d="M75.307 246.434l37-11.623 101.823-44.1"/>
    <path d="M213.072 189.298l-100.684 43.877-37.41 11.296.656 1.97m109.65-51.47L74.98 244.47m66.776-29.97v-14.477l-49.01-1.474.08 36.59h2.947m14.99-36.05l.38 29.15"/>
    <path d="M139.428 215.547v-12.822l-28.284-.575m-1.62 26.817v-28.54H94.22v33.075l4.558.29"/>
    <path d="M106.663 230.252v-27.445H96.507v28.322h8.2m93.818-42.42v-6.11l-10.148 3.46v7.2"/>
    <path d="M197.182 189.352v-4.825l-7.35 2.528v5.786"/>
    <path d="M190.16 187.38l.998.96 6.024-2.174m-5.948 2.147v3.845m211.05-65.96l-40.75-5.05 1.056 49.05 39.693 3.47z"/>
    <path d="M399.473 128.24l-34.62-3.472v42.11l34.563 3.32zm-17.913-1.302v41.49"/>
    <path d="M397.002 130.956l-13.28-1.142v36.913l13.883 1.7zm-18.522-2.186l-11.25-1.102-.113 37.7 11.994 1.207m20.37-38.335l-3.04 2.666m-31.57-6.138l2.38 2.9m-.11 37.7l-2.26 1.51m32.75 1.55l1.81 1.77m-17.85-43.26l2.16 2.876m0 36.913l-1.81 1.7m-2.8-42.23v42.05"/>
    <path stroke-width=".5" d="M198.525 183.063l5.662-2.33m-5.662 6.262l14.788-5.097"/>
    <path d="M203.63 203.167v62.438l56.066-6.833.526 106.303M341.04 244.29l2.753 129.252m-84.313-8.467l84.313 8.467v3.122l-84.313-9.056zm84.313 8.467l175.592-8.467v2.014l-175.592 9.57M517.7 249.12l1.685 115.948"/>
    <path d="M517.193 367.208l.713 16.773-171.215 12.07-.48-19.51m.48 19.52l-84.42-10.5-.08-17.65m36.5 3.92v7.11l7.89 1.13v-7.38"/>
    <path d="M301.637 372.674v4.75l4.93.75m-4.93-.75l-2.96 1.5m128.263-6.794v7.92h13.376v-8.65"/>
    <path d="M428.69 372.674v5.5h9.376v-6.356m-9.376 5.606l-1.75 2.625m11.126-1.88l2.25 1.87M279.37 266.18l58.47-6.18.515 107.208-58.343-5.59z"/>
    <path d="M281.56 267.986l10.71-1.09 43.77-4.448.82 101.968-55.3-4.087v-92.86m11.473-.65l-1.03 94.28m28.467-97.07v99.17m2.298.17v-99.58"/>
    <path d="M295.47 266.82l1.288 1.68.643 90.67-3.08 1.782c.1.008.52-94.315.52-94.315"/>
    <path d="M296.758 359.54l23.713 1.116V265.9l-23.71 2.6m27.95-2.96l11.36-1.14m-13.15 14.534l13.16-1.032m-13.15 3.99l12.98-.58m-12.6-17.282l1.42 1.51.02 13.273m-.01 7.09l9.63-.472.87 75.67-10.5-.14zm-31.69-16.845l-9.57.958v11.54l9.08-.44m-10.42-13.184l1.35 2.084m-1.52 11.674l1.53-.135m-1.52 2.86l11.1-.388m-10.16 3.753l8.18-.405-.23 70.134-7.67-.48zm65.6-41.593l67.62 2.01v27.844l-67.62-.73z"/>
    <path d="M350.94 249.068l62.52 1.99v21.005h-62.52zm103.902.682l59.04 1.184v26.6h-59.04z"/>
    <path d="M457.45 252.3l54.32.87-.25 22.002-54.07-.124zm-108.376 26.118l66.998.516 1.117 85.482-68.12 2.792z"/>
    <path d="M351.56 280.638l62.522.675.994 80.74-63.515 3.022z"/>
    <path d="M351.56 283.372h60.782l1.12 77.284-61.9 2.718m62.52-82.06l-1.74 2.06m2.734 78.68l-1.615-1.398m41.39-81.136l59.04.496 1 79.3-59.29 4.058z"/>
    <path d="M456.83 281.313l55.313 1.03v75.11l-54.196 3.203z"/>
    <path d="M456.83 283.372l53.695.994v71.347l-52.6 3.36m52.6-3.36l1.618 1.74m0-75.11l-1.618 2.023M457.45 254.04l52.204 1.243v19.885m2.116-21.998l-2.116 2.113m-158.714-4.35l60.894 2.238v19.39m1.626-21l-1.626 1.62m9.566 8.58l28.838.7 1.74 100.76-30.578 1.87z"/>
    <path d="M423.39 263.642l25.108.757v15.12h-24.61z"/>
    <path d="M423.45 265.54l23.68.36v11.633l-23.294.37m23.294-.37l1.368 1.986m0-15.12l-1.367 1.5m-23.68 15.99h26.05l1 79.46-26.35.7z"/>
    <path d="M426.496 284.366h20.137v34.8l-20.137.498zm.87 40.022l19.277-.37.488 33.435-19.76.743z"/>
    <path d="M426.496 286.228h18.522v32.98m1.615-34.842l-1.615 1.862m-17.65 39.527l17.65-.622v32.4m1.625-33.513l-1.625 1.113"/>
    <path stroke-width=".5" d="M425.217 328.593c.232-.285 1.18.38.758.906s-1.686.23-.758-.91zm1.39-7.733s.295-1.097 1.096-.485 3.307 2.55 3.307 2.55l-1.2.906s-2.95-2.27-3.203-2.97z"/>
    <path stroke-width=".5" d="M426.787 320.48l-1.305.99s-.463.147 0 .738c.465.59 1.678-.647 1.678-.647"/>
    <path stroke-width=".5" d="M426.082 321.016l-.318-.827-.97.18v3.24l1.454-.11.248-1.41"/>
    <path d="M200.764 138.662l63.193 4.333m-59.33-1.597l63.403 4.28m-58.487-.798l63.603 3.913m-59.156-.763l63.985 3.81m-60.19-1.124l64.58 3.893m-60.035-1.09l63.988 3.89m-60.89-1.29l65.832 4.09m-61.66-1.14l64.535 3.41m-60.905-1.02l64.924 3.09m-61.672-.62l65.327 2.92m-61.63-.31l66.18 3.17m-60.97.42l65.52 2.45m-60.72 1.05l195.23 11.41m-189.41-7.28l194.46 10.07m-190.27-7.1l196.25 10.41m-191.28-6.9l199.38 11.39m-192.65-6.61l200.3 10.85m-195.08-7.16l201 10.43M283.18 197l198.93 8.35m-193.68-4.63l199.47 7.83m-193.19-3.91l200.15 7.77m-193.92-2.82l200.512 6.47m-195.12-2.65l200.49 5.62m-196-2.44l200.58 4.97m-197.96-3.12l201.27 4.95m-196.97-1.84l200.71 4.1m-198.02-2.27l202.21 4.39M325.52 226.5l202.88 4.43m-198.93-1.14l205.043 4.96m-202.74-3.32l209.35 6.58m-303.12 23.37v2.126s4.144 1.15 4.78-.816v-1.89"/>
    <path d="M238.566 263.873l-.53 1.05s-.21 2.267 0 3.01c.202.726 2.614 2.955 4.78 1.04 1.525-1.348-.688-5.44-.688-5.44m-25.748.907l21.655.484"/>
    <path d="M242.816 265.003l5.875-.08.63 48.872-56.87.165v-49.483h11.19m38.94-.037l17.14-1.992"/>
    <path d="M195.066 266.634l35.5.185v44.73h-35.5zm42.786-.01l-4.41.013.042 3.098.582 41.814h12.125v-44.73l-2.85-.19"/>
    <path d="M233.484 269.735l10.832.28v41.534m1.874-44.25l-1.874 2.71m-49.25-.96l33 .67v41.81m2.5-44.25l-2.5 2.43m20.25 44.06v27.25l11.792 1.12m-57.588-.27l-13.954.26-1.625-94.39-66.5-.61-26.22 5.75.48 28.77-1.94.23.05-32.63M248.33 341l-35.37.66m-91-94.54v-6.38"/>
    <path d="M94.69 281.69v3.61l-1.945 1.25h-2.18v-4.376l2.18-.25"/>
    <path d="M90.566 283.05h2.063l2.06-.626m-1.95 0v4.125m2.57 70.25h-2.57l-.81-70.25"/>
    <path d="M60.016 352.924l32.73 3.875v2.37l-32.556-3.69zm32.73 6.25l2.57-.5m-.626-18.25v7.5l27.5 3.875v-7.63z"/>
    <path d="M95.316 348.012V367.8l29.125 9.5v-25.5m-2.25 0h8.51m-8.5-7.626h8.88m5.05 0l52.45-2-2-1.625-1.28-92.78M136.12 351.8l52.45-1.5v9.75m-56.627 1.5l61.127-1.5v1.872l-61.13 1.878zm1.915 8.95l55.75-2 8.212 1.172-56.875 2.75z"/>
    <path d="M134.066 372.475l6.875 1.7 56.88-2.797v-1.704m-63.75.876v2.234m58.75-10.532l.22 6.465"/>
    <path d="M197.816 370.33v7.48l-56.703 3.813m-9.177-20.125l-3.625-.476.03 2.03 3.63.75m-1.27-9.782l-6.25.03m4.07 0v6.987m5.56 2.763v7.02m-9.62 6.48l16.5 4.124v-9m-4.72-18.404l52.35-2.22m6.41-21.154l2.85-5.258 2.72 5.258 21.04-.505-3.03-4.75h-20.72"/>
    <path d="M196.83 327.212v7.985h4.412v-4.55m.506 4.55l17.293-.708v-3.85m-16.13 20.68l-14.34.47 28.56 4.43 28.81-.79-22.52-5.15-10.37.44m4.09 5.48l-.5 23.82-18.79-2.24"/>
    <path d="M216.613 380.05l29.328-2.626-.4-22.25m3.78-14.03v36.28h-3.37m3.38 0l12.95 2.625m-71.84-37.88v8.12h-2.33M132.7 332v29.553m-1.52-32.734l-.108 32.56m5.15-.35l-.63-22.98m.63-2.86l4.45.1v2.75l-4.55.05zm-.52 3.1l-11.45-23.93-.06-4.69 12.02 25.51"/>
    <path d="M140.668 335.3l-12.164-25.615-4.244.357m1.098 6.638v27.494m3.146-.292v-20.628"/>
    <path d="M123.775 343.882L121.94 248.8l1.835-1.334.666 62.745m4.07-.52l-.11-62.44m5.21.54v2.57s1.81-1.45 5.01-1.28c3.2.17 4.79 1.29 4.79 1.29v-2.57"/>
    <path d="M135.102 249.574l-1.027 1.838s.336 4.148.416 4.326c.38.85.76 1.115 4 1.115 3.15 0 3.94-1.117 3.94-1.117l.32-4.473-.38-1.416m-37.72.79l17.29 1m6.57 0l5.57.32m9-.002l10.49.692m22.68-4.862l-22.68 4.17.91 86.6 32.07 1.233m-63.42-30.6l-26.83.497v3.658h26.92m-26.65.427v26.654l2.81-.732.12-3.614 2.39-5.072m-5.32-14.326l7.83 19.717m-6.87-23.054l6.61 16.904m-.3-16.692l.65 28.185m1.5-.114l-.37-28.017m8.41 18.58l-7.4-18.42 2.76.59m-3.5 4.04l8.14 19.65m0 4.73v-29.44m1.28 0v29.88m.59-29.62l7.68 17.83m.15 7.5l-8.4-19.7m-1.44-2.58l-3.54 6.3m3.54-1.76l-2.45 4.47m-2.51 0l-3.03 6.92m4.44-3.46l-4.02 9.14 3.45-.24 2.13-5.15m11.45-12.85l-2.59 4.87m-1.88 2.96l-3.35 6.16m4.86-2.75l-4.86 7.64m7.7-11.7l-.67 1.56m-6.66 9.86l2.77-.39 2.87-4.57m-2.87 8.21l4.91.85M109.95 338v2.245l-3.65 1.22m3.242-.99l4.48.99m4.09-12.71v-3.12"/>
    <path d="M99.463 336.078h-2.61l3.595-9.54m1.232-2.548l2.097-5.163m-4.437 20.865l4.763.486m-6.237-26.83l3.06.794 1.403 3.52m9.53 2.168l-2.34-5.685m6.4-.375l2.91.375 3.67 7.412m-25.98 10.09l2.79-7.924m1.33-2.313l3.17-6.308m50.47 23.776l-18.43.444m-12.21 0l-5.14-.327.08 2.94-3.14.85m-1.65-3.832h-3.54m-6.2.07l-3.44.67m84.63-91.045l-29.61 5.094v16.34m-1.94.322l31.79-4.214m-31.79 7.153l31.83-4.285m-21.79-16.41v16.425m2.27-17.118v16.563"/>
    <path d="M166.07 252.41l2.16 1.625v14.262m0-14.262l16.56-3.518m-26.948 19.218v-14.523l5.952-1.177m-8.108-.293l2.156 1.47m10.78 5.618l16.663-2.874m-16.663 4.396l16.663-2.826m-9.312-6.88l.208 6.88m1.27-7.116l.38 6.678m-1.64 1.982v6.36m1.84-6.608l.2 6.14m-17.39-12.338v14.844m1.25-.41v-14.434m.75 17.5l.2 66.38m1.49-66.608v66.543m45.9-68.71v41.53m2.04-41.85l.11 42.03M184.4 126.85L36.2 187.93l.834 1.71 147.67-60.16M61.61 185.29l1.14 102.285m30.34-13.79l-49.085 22.18 30.493-2.42 16.068-7.01m-46.17 9.39l.153 1.58 30.02-1.85-.08-2.12m.08 2.11l17.36-7.72"/>
    <path d="M91.94 294.34l-13.864 6.066-28.704 1.48-1.71-4.362m28.643-2.62l1.77 5.5M65.708 302.9l-3.528 1.633v24.575l3.528.053zm-3.528 1.632l-4.328.313v24.26h4.328m3.826-26.438l-5.276.233-3.17 1.9m2.63-3.47v1.57m-1.094 3.812v5.522m1.712-5.522v5.212m0 17.235v23.76"/>
    <path d="M67.187 300.967l.466 34.164 15.014.17-.604-36.63"/>
    <path d="M69.437 300.852l.364 31.765h10.61l-.63-32.955m-10.14 9.526l10.32-.692"/>
    <path d="M79.952 310.755l-9.498.51.777 1.357m0-11.578v8.037"/>
    <path d="M79.71 312.232l-8.48.39v19.864m-9.41 23.564v7.753l31.81 4.696 1.686-.7m-1.286-8.63v9.32"/>
    <path d="M76.89 357.378v4.18l2.43-.174v-3.443m-18.512-6.14l-48.868-6.69v1.5l47.7 7.45m1.97 8.23l-1.42-.35v-6.44m.34 6.62l-48.59-9.06v-6.43m0 0V209.19m25.09-19.55L4.22 206.985l-2.516 1.33-1.01-1.765 35.5-18.62m3.693 6.2L6.443 211.42l-2.225-4.44m33.645-4.483l-.42 102.03m-2.376.266L34.94 202.78l-2 .894 1.064 100.857m-4.314 43.01l-2-140.61 2-1.37 1.565 142.2M29.98 205.49l2.624.064"/>
    <path stroke-width=".5" d="M37.652 202.807l-2.71-.026 26.667-13.14"/>
    <path d="M44.397 304.797H34.004v1.913h10.393"/>
    <path d="M34.845 307.1l.22 14.31 2.376.664.22-15.364-.21-1.913m7.49 16.003l-7.07 1.274m-12.11-26.4l-9.81.76.79 31.737 9.33.43zm-5.6 1.982l.49 28.467m0-14.435l4.88-.168m-4.87 1.916h4.88m-5.12-14.35l5.12-.424m-8.06 1.59l2.7-.204m-1.83 24.268h2.07m1.75-25.23l.3 12.434m0 2.457v12.146m12.63-4.393v26.54m2.59.356l-.21-26.552m7.22-26.4l-.27-10.134 3.7-.364.36 8.786m7.08-3.196v-6.28l-4.31.69v7.168m-6.62 5.31l.34 23.78 4.12-.636-.26-20.395m2.43 1.48v19.845h4.31v-19.845"/>
    <path d="M55.258 288.972H53.09l.117 2.842m.168 10.3v15.462l2.15-.24m-9.1-22.222v-5.118l1.853-.24h2.946"/>
    <path stroke-width=".5" d="M49.006 317.275l2.218-.098"/>
    <path d="M46.424 297.656v19.92l2.582-.3m-5-40.626c-1.093-.203-2.116 1.062-1.996 2.025s1.995.74 1.995.74v-2.766zM25.25 348.656v3.633h1.682v-3.13m7.45 1.31v6.32l1.993.57v-6.63m12.057 1.76v2.97h2.9l-.108-2.34"/>
    <path stroke-width=".5" d="M309.09 159.83l1.537-.748m-1.86-26.047l1.235-.5m-1.598-13.78l1.432-.26"/>
    <path d="M308.326 19.486l2.592 153.14-49.897-31.483-63.75-4.954 137.02 97.02 210.67 6.93-105.91-58.6-128.12-8.92"/>
    <path stroke-width=".5" d="M184.356 93.035L308.38 22.617l9.882 2.045"/>
    <path stroke-width=".5" d="M184.41 97.215l123.846-70 15.635 1.73"/>
    <path stroke-width=".5" d="M184.438 100.28l123.94-68.27 22.532 2.275"/>
    <path stroke-width=".5" d="M184.356 103.348L308.99 36.42l28.012 2.5m-152.646 69.262L308.38 41.215"/>
    <path stroke-width=".5" d="M184.537 111.465l124.23-66.03 42.756 4.533m-166.96 64.505L308.99 50.61m-124.4 66.662l47.517-23.25m12.68-7.126L308.99 55.02m-124.366 66.126l47.407-23.93m12.79-6.404l64.17-31.187m-76.96 42.188l-47.37 23.36m.41 2.903l46.97-22.806m-47.41 26.314l47.49-22.686m-36.03 28.372l-11.01 4.658-14.52-.973m27.46-4.71l34.11-15.37m-26.41 15.97l26.33-11.673m-34.56 18.51l-12.4 5.747-27.85-2.88m56.1-9.29l18.72-8.47m-7.47 7.44l7.48-3.71m-4.05 6.05l81.38-33.67 132.22 13.59m-256.69 34.5l13.09-6.19m-12.93 9.7l16.09-7.08m-16.09 10.46l16.88-7.37m-16.87 10.45l16.88-6.77m-16.65 10.63l16.66-6.96m-16.65 10.41s15.93-6.11 16.29-6.17m-16.29 9.55l16.66-6.11m-16.81 9.28l16.82-5.96m-16.65 9.74l16.65-5.69m-16.88 9.92l16.87-6.17m-16.72 9.22l3.15-1.18m-3.09 4.66l3.1-1.18m56.7-95.2L309 63.87m-63.88 35.09l64.03-30.602 79.115 9.558"/>
    <path stroke-width=".5" d="M245.12 102.907l64.11-30.065 86.14 10.484M244.944 106.84l64.285-29.46m-64.42 33.42l64.33-28.258M245 115.368l64.217-28.795"/>
    <path stroke-width=".5" d="M245.396 118.756l64.145-27.464 114.51 13.85"/>
    <path stroke-width=".5" d="M245.12 123.354l64.49-27.916 119.808 13.79"/>
    <path stroke-width=".5" d="M245.396 126.86l64.297-26.58 126.176 13.857"/>
    <path stroke-width=".5" d="M236.482 138.968l73.858-29.03 136.79 12.606"/>
    <path stroke-width=".5" d="M243.857 139.598l66.07-25.504 143.264 13.22M252.23 140.46l39.38-14.64m-30.183 15.578l30.182-11.502m-26 13.786l26-9.467m-22.01 12.34l22.01-7.607m-16.84 10.677l16.84-6.51m-13 9.125l13-4.833m-8.42 7.723l8.07-2.89m-3.49 5.783l8.33-2.643m-3.47 5.713l8.02-2.524m-3.21 5.56l7.03-2.89m-1.57 6.33l7.88-2.27 51.36 3.11m-53.07-12.63l1.53-.42 51.52 4.07m-53.04-8.23l1.42-.52 51.61 3.89m-53.17-8.06l1.4-.54 51.4 4.03m-52.7-7.95l1.3-.49 51.76 4.41m-53.39-8.02l1.78-.74 51.6 4.33"/>
    <path stroke-width=".5" d="M308.535 128.81l1.627-.843 51.623 4.817m-53.38-8.964l1.757-.93 51.37 4.048M308.99 41.215l35.78 3.615m-35.616 5.413l48.465 4.778m-48.39-.64l57.73 7.33m-57.73-2.38l64.34 7.42m-64.04-2.85l71.15 8.27m-71.31 4.85l92.34 11.15m-91.89-6.21l100.89 13.06m-100.8-8.76l107.51 14.03M310.39 118.5l51.177 4.393m-51.178 9.258l51.14 4.3m-50.68 23.01l51.29 4.05m40.62-36.56l57.14 5.5m-57.14-.36l63.37 5.11m-63.38-1.05l71.04 6.85m-71.52-2.49l78.62 7.89m-78.62-3.27l86.29 9.12m-85.81-4.55l90.9 8.44m-90.9-3.88l96.82 8.38m-96.81-4.19l98.71 7.54m-98.84-3.7l98.7 7.73m-98.71-3.86l98.7 8.11m-99.07-3.48l99.19 8.43m-.13 3.49l-190.49-13.44-3.16 1.06m136.37 14.03l57.28 2.4m-51.88.59l51.88 3.45m-43.14 1.38l43.28 2.61m-35.04 1.96l35.03 2.35m-26.01 2.65l26.01 1.48m-16.92 3.55l16.79.75m-9.17 3.46l9.29.43m-316.73-76.2l47.3-21.98"/>
    <path d="M37.862 189.298l2.02 4.84L184.75 135.17"/>
    <path stroke-width=".5" d="M177.792 138.003l6.99.66 47.25-21.39m-68.192 26.41l21.222 1.995 12.4-5.687m-48.37 9.7l35.53 2.45m-43.456.62l43.597 2.5m-49.883.22l50.077 2.78m-57.324.17l57.354 3.38m-64.87-.31l64.903 3.84m-71.413-1.18l71.413 4.59m-79.883-1.14l79.76 4.76m-86.45-2.03l86.615 5.01m-94.062-2l94.02 5.38m-99.644-2.68l99.727 6.19m-109.306-2.7l109.153 5.77m-117.86-2.23l118.03 5.62m.16 3.48L61.62 187l-49.53 23.014m49.56-19.78l123.28 4.73m-123.32-.83l115.67 4.41m-115.11-1.28l30.56 1.28m49.01 1.47l29.38 1.29m-108.95.08l30.57.75m49 .657l22.86 1.44m-22.88 2.33l15.03 1.2m-15.01 2.68l7.55.67m-56.51 11.35l-30.613-.51-24.32 9.19m24.32-5.57l30.45.46m0 4.06l-30.45-.77-24.41 8.26m40.13 5.6H62.05l-24.19 7.2m24.475-3.52l14.005-.15m-13.88 3.67h15.58"/>
    <path d="M87.313 250.357h5.48"/>
    <path stroke-width=".5" d="M62.75 253.742l30.042.293m-30.042 2.82l29.758.43m-29.758 3.07l30.042.467m-30.304 3.18l30.02.102m.122 3.326H62.487l-24.626 5.03m24.89-1.26l29.76-.17m-.81 3.4l-29.08.233-18.21 2.8m18.26 1.003l20.44-.147m-7.46 3.37h-12.9l-24.88 3.48m.2-81.78l23.82-10.94m-24.02 14.64l23.75-10.76m-23.75 22.24l24.32-10.97 30.57 1.25"/>
    <path stroke-width=".5" d="M37.862 214.938l24.318-10.696 30.565 1.242m-31.135-5.057l-23.748 10.45m0 11.063L61.9 211.423l30.73.88"/>
    <path stroke-width=".5" d="M37.77 224.55l24.282-9.612 31.038.61"/>
    <path stroke-width=".5" d="M37.862 227.552l24.318-8.983 30.45.57m-54.86 14.99l24.29-8.35m-24.198 15.01l24.213-8.22 30.612.51"/>
    <path stroke-width=".5" d="M38.003 243.984l23.897-7.547 30.04.42"/>
    <path stroke-width=".5" d="M37.862 247.466L62.18 239.9l22.79.088M61.9 246.84l-24.038 6.902m-.092 3.112l24.41-6.497m0 3.16l-24.318 6.05m-.092 3.557l24.41-6.27m0 3.5l-24.41 5.882m.092 3.114l24.448-5.246m-.13 6.926l-24.318 4.655m4.004 2.28l-4.095.68m24.54-.18l-24.44 3.225m24.79 3.19l-7.12 1.026"/>
    <path d="M51.224 286.55l-2.774.307"/>
    <path stroke-width=".5" d="M44.45 287.482l-6.798.934m.118 2.942l6.627-.932m-6.535 4.212l6.75-.966m-6.842 4.438l6.627-.824m-6.535 3.812l6.535-.23m11.637-11.896h3.054m-10.032 14.626l2.168-.16m-1.388 3.272h-.78 1.753m-1.76 3.49l2.3-.13m-2.17 3.928l2.16-.174m-2.04 6.006h1.91m4.59-16.605l3.98-.327m-3.98 3.666l1.87-.146M55.8 310.2l1.88-.26m-2 3.496l1.86-.26m-1.736 3.804l1.88-.163m-2 3.25h2m-.13 3.507l-19.916.594m19.9 2.7l-19.7.392m0 3.168l22.95.272m0 3.355l-23.37-.487m23.46 3.814l-23.04-.286m23.04 3.944l-23.04-.498m23.07 3.888l-23.32-.99m23.32 4.83l-23.07-2.16m-8.446-1.184l-17.53-1.873m17.466-1.267l-17.41-1.244m17.53-2.244l-17.35-.916M29.47 335l-17.345-.945m17.13-2.395l-17.315-.96m17.41-1.936l-3.29-.17m-9.78-.446l-4.29-.243"/>
    <path d="M26.053 326.123h-8.067l-.786-28.467 8.25-.74"/>
    <path stroke-width=".5" d="M29.257 325.896l-3.005.114m2.875-3.23h-2.875m2.995-2.97l-3.04.19m3.05-3.02H26.09m3.12-3.37l-3.12.16m3.078-3.015H26.09m3.037-2.848h-3.032m2.81-3.243l-2.814.133m2.95-3.192l-2.94.28m2.82-3.605l-2.81.382"/>
    <path d="M28.73 295.395l-2.98.28"/>
    <path stroke-width=".5" d="M28.906 292.345L11.94 294.23m16.79-4.806l-16.79 1.934m16.657-5.163l-16.656 2.22m16.84-5.365l-16.83 2.348m16.79-5.57l-16.79 2.596m16.52-5.278l-16.52 2.68m16.66-6.028l-16.65 2.85m16.66-6.08l-16.65 3.23m16.26-6.368l-16.26 3.77m16.26-6.412l-16.26 3.668m16.26-6.78l-16.11 3.89m15.97-6.976l-16.27 3.89m16.32-6.918l-16.17 4.426m16.17-7.578l-16.17 4.66m16.26-7.29l-16.26 4.96m16.17-7.9l-16.17 4.76m16.02-8.174l-16.02 5.064m16.17-8.28l-16.17 5.482m16.17-8.135l-16.17 5.394m16.17-8.28l-16.17 5.59m16.1-9.12l-16.09 6.43m15.75-9.31l-15.75 6.11m15.99-9.17l-15.75 6.44m15.68-9.43l-15.91 6.71M27.9 218.6l-15.92 7.22m15.92-10.85l-15.93 7.24m15.92-11.3l-15.92 7.68m15.61-10.24l-15.45 7.23m20.72-11.76l-20.89 9.295m4 83.35l-4.14.483m4.14 2.167l-3.997.29m4.13 2.51l-4.13.23m3.995 2.69H12m4.05 2.82h-3.97m4.21 3.14h-4.34m4.22 3.21l-4.292-.155M16.16 317h-4.29m4.15 2.585h-4.127M16.7 322.3l-4.637-.17m4.212 2.817l-4.383-.304"/>
    <path d="M87.733 238.747l30.162-7.972m-69.445 63.19l26.755-.717m-22.33-1.283l25.445-.075"/>
    <path stroke-width=".5" d="M57.135 290.04l24.43.435"/>
    <path d="M60.73 288.416l24.497.462m-21.464-1.832l25.218.194m-21.79-1.74l22.9-.102m-18.85-1.726l19.01-.238m-14.62-1.744l16.89-.044m-13.34-1.56l13.34-.214m-9.59-1.48l9.71.074m-6.14-1.556h6.26m-2.91-1.404l2.8-.156M98 234.223l25.012-5.68m-18.267 2.487l21.6-3.87m-15.204 1.08l20.42-3.422m-12.94.065l18.53-2.498m-12.96 0l18.15-2.26m-13.1 0l21.21-3.53m-15.23.845l23.39-4.4m-16.06 1.112l22.08-3.738m-14.41.296l19.34-2.44m-13.35-.245l18.18-1.857m-13.05-.44l19.94-2.56m-13.94-.133l18.87-2.014m-13.32-.35l16.77-1.14m-12.31-.97l16.96-1.05m-12.42-.98l16.69-.87m-12.7-.67l16.95-1m-13.17-.7l17.9-1.53m-14.69 0l19.48-2.08m-16.17.15l16.96-2.3m-13.24.69l13.12-2.55M39.2 312.23h3.803v2.87H39.2z"/>
    <path stroke-width=".5" d="M260.06 325.882l19.553.175m-61.673-164.96l-4.916 1.782m6.916-.34l-6.916 2.77m9.35-.66l-9.287 3.41m12.62-1.37l-12.44 3.92m15.013-2.07l-15.014 5.28m17.677-3.36l-17.92 6.22m20.277-4.52l-20.034 7.14m23.014-4.99l-23.256 8.11m26.54-5.75l-26.626 8.78m.328 2.52l29.15-9.26m-28.332 11.95l31.258-9.61m-31.258 12.44l34.56-10.28m-34.56 13.1l37.498-10.98m-40.27 14.36l42.975-12.4m2.508 1.81l-53.048 15.62m0 2.84l57.01-15.6m-57.01 18.28l60.896-15.48m-60.896 18.07l63.693-16.05m-63.81 19.02l67.51-16.34m-67.4 19.18l69.97-16.82m6.43 4.13l-76.53 18.14m.11 2.64l80.12-18.1m-80.24 20.59l83.79-17.76m-83.67 20.75l87.72-18.1m-87.72 21l91.74-18.09M203.72 238l95.537-18.24m-95.65 20.62l99.515-17.62m-99.503 20.7l103.35-18.11m-103.65 20.9l107.48-17.84M203.63 248.9l111.09-17.94M203.58 251.8l114.95-18.08m-115.21 20.59l118.65-18.12m-118.65 21.32l122.96-18.21.14 3.71m-122.85 17.22l126.76-17.76M203.58 263l137.43-17.983m-81.24 14.08L341 248.5m-81.228 13.24l81.224-9.24m-80.818 12.634l80.818-9.66M260.06 268.51l19.262-1.992m-19.417 5.4l19.417-2.05m-19.655 4.69l19.655-1.153m-19.148 4.68l19.148-1.33m-19.262 4.412l19.262-1.59m-19.555 4.497l19.555-.848m-19.417 4.004l19.417-.91m-19.262 3.855l19.262-.907m-19.148 4.508l19.148-.92m-19.148 4.107l19.148-.824m-19.262 4.03l19.262-1.17m-19.262 4.25l19.262-.63m-19.262 3.63h19.262m-19.262 2.79h19.553m-19.553 3.61h19.262m-19.148 3.23l19.148.12m-19.148 3.17l19.148-.38m-19.262 3.37l19.553.14m-19.263 6.58h19.107m-19.283 3.24h19.148m-19.148 2.9l19.574.15m-19.398 3.06l19.263.14m-19.44 3.13l19.284.36m-19.283 2.58l19.44.69m-19.44 2.44l19.705.79m-19.71 2.31l19.72.92m-19.73 2.25l19.75 1.13m-19.6 1.87l19.29 1.07m-19.44 1.93l19.79 1.57m-19.8 1.76l83.53 8.44m-.4-4.08l-5-.21m0-3.74l5 .31m-5-3.45l5.16.17m-5.16-3.79h4.77m-4.78-4.06h5m-5.08-3.46h4.86m-4.88-4.06h4.88m-4.9-3.71h4.89m-4.91-3.66h4.66m-4.53-4.04h4.59m-4.76-3.41h4.7m-4.65-3.92h4.64m-4.53-3.46h4.36m-4.59-3.61l4.59-.14m-4.31-3.3h4.06m-4.06-4.29h4.12m-4.13-3.49h4.06m-4.06-3.7h3.97m-3.97-3.83h3.88m-4.01-3.76h3.93m-3.81-3.75H342m-3.85-3.95h3.77m-3.65-3.28l3.8-.24m-3.85-3.29l3.49-.16m-3.64-3.86l3.73-.33m-3.79-3.1l3.53-.18m-3.76-3.7l3.71-.25m-3.49-3.38l3.406-.36M338 263.84l3.24-.29m-3.26-3.18l3.36-.28m-127.3-101.64v4.03m4.186-1.16v1.89m-3.607 1.46v2.81m5.62-4.62l.17 2.48m-1.68.61v2.91m-4.91-1.11v2.65m1.31-.42v3m6.75-4.96l.06 2.7m-2.32.82v2.81m6.04-4.8v2.7m-11.42 1.29v2.67m1.78-.62v2.68m5.92-4.73v2.62m6.3-4.63v2.38m-2.61.93l.04 3.12m6.13-5.32v3.18m-12.62 1.31v3.08m-4.93-1.33v3.1m1.78-.62v2.984m6.31-5.185l-.22 3.26m6.53-5.46v3.3m6.72-5.65l.17 3.38m-16.09 5.37v2.65m6.18-4.66v2.69m6.58-4.96l-.06 2.89m5.66-4.75v2.79m-2.26 1.04l.05 2.98m5.98-5.12l.43 3.15m-12.7.8v2.99m-6.52-.92l-.19 3.04m-5.69-1.17v2.79m2.69-.49l-.18 2.77m6.49-4.86l-.27 3m6.55-4.84v2.8m6.13-4.63v2.86m5.7-4.61v2.9M216 192.9v2.64m6.25-4.276v2.39m6.85-4.55v2.77m6.22-4.53v2.737m5.99-4.55v2.8m5.37-4.36v2.79m-28.46 8.33v2.6m7.55-4.61l-.14 2.48m6.64-4.57l-.09 2.68m6.13-4.45v2.67m5.7-4.19v2.56m6.07-4.23v2.51m-2.33.65v2.5m5.95-4.22v2.46m-11.89.98l-.054 2.45m-6.11-.67l-.09 2.69m-6.13-.89v2.7m-6.68-.77v2.74m-6.52-.85l-.25 2.84m-6.044-.93v2.71m-4.73-.69v2.08m2.86-.84v2.8m5.12-4.3l-.24 3.11m6.63-4.86l-.177 3.06m6.495-5.06l-.32 3.17m6.89-5.12v3.23m5.82-4.83v3.45m6.69-5.44l-.224 3.67m5.95-5.44v3.61m6.59-4.7v3.04m-4.04 1.17l.24 3.43m7.62-5.12l.4 3.24m-15.1.32v3.52m-5.01-2.08l-.12 3.38m-6.49-1.64v3.15m-5.54-1.63l-.18 3.22m-6.07-1.42v2.95m-6.485-1.28V207m-5.67-1.374v2.82m-4.59-1.44l-.25 2.67m2.58-.65v2.49m5.33-3.83v2.48m5.85-3.97v2.51m6.35-4.114v2.64m6.04-4.04l.09 2.37m6.39-4.16v2.67m5.34-4.02v2.69m6.53-4.353v2.69m7.13-4.5v2.58m6.34-4.19l.56 2.58m-57.19 14.6l-.21 2.84m4.86-4.19v3.02m5.21-4.33v2.82m5.8-4.29l-.27 3.19m6.43-4.75l-.18 3.24m6.65-4.86l-.04 3.27m5.82-4.62l-.12 3.24m6.22-4.89v3.27m7.11-5.05l.18 3.23m6.32-4.75l.2 3.13m6.79-4.32l.29 2.7m-2.75.78v2.98m-7.17-1.24v2.96m-7.22-1.08l.12 2.79m-6.86-1.21l-.2 2.91m-5.69-1.46l.22 2.62m-6.02-1.34l-.1 2.95m-6.22-1.42v2.91m-6.26-1.4v2.9m-5.41-1.5v2.8m-4.92-1.7v2.78m-4.15-1.78v2.88m1.97-.48v2.45m4.61-3.42l.06 2.35m5.33-3.79v2.44m5.26-3.7v2.48m6.41-4.02v2.64m6.22-4.15v2.71m6.11-4.11l.05 2.68m6.33-4.28v2.87m6.97-4.47v2.83m6.99-4.59v3.01m6.81-4.65v3.06m6.34-3.77l.48 2.18m-2.73.76l.12 2.22m-7.3-.41l.08 2.12m-6.64-.64v2.4m-7.24-.72v2.43m-6.58-.99v2.54m-5.96-1.29v2.7m-6.62-1.04l-.14 2.64m-6.03-1.32v2.77m-5.81-1.42l.07 2.75m-6.09-1.35l.14 2.76m-4.83-1.67v2.73m-4.39-1.59v2.69m1.97-.4v2.61m5.18-3.91v2.6m4.83-3.67v2.68m5.97-4.08v2.79m6.03-4.26v2.86m6.35-4.42v3.03m6.18-4.49v3.1m6.28-4.59l.093 3.04m7.01-4.72l.23 3.17m6.4-4.74l.15 3.29m6.73-4.83v3.18m7.1-4.95v3.47m4.1-.93v3.6m-6.73-1.99v3.17m-7.744-1.31v3.19m-6.38-1.89v3.23m-7.16-1.62v3.14m-7.17-1.52v3.04m-5.89-1.52v2.76m-6.13-1.57v2.9m-5.78-1.57v2.79m-6.5-1.32l-.08 2.71m-5.56-1.35v2.54m-4.74-1.41v2.42m-4.47-1.54l.13 2.47m1.91-.34v2.98m5-4.1v3.08m5.05-4.07v3.04m5.75-4.32v3.09m6.07-4.38l.08 3.16m5.9-4.28v3.06m6.194-4.52l.18 3.21m6.27-4.57V223m6.66-4.675v3.183m6.87-4.638v3.35m7.08-4.792v3.332m7.82-5.05v3.435m6.99-4.914v3.37m6.37-1.13v3.62m-9.72-1.68l-.07 3.62m-7.45-2.06l.08 3.52m-7.29-1.9v3.25m-7.11-1.91v3.25m-6.56-1.9l.05 3.16m-5.89-1.96v3.29m-6.16-1.78l.11 2.84m-5.95-1.87v3.01m-6.43-1.68v3.08m-6.41-1.61v2.8m-6.28-1.64v3.01m-4.54-2.02v2.92m-4.59-2.01v2.92m2.45-.48v2.92m4.76-3.61v2.7m5.51-3.93l.07 2.78m5.61-4v3.02m6.25-4.19v3m6.76-4.39v3.1m5.686-4.22v3.13m6.49-4.37l.064 3.04m6.09-4.2l-.11 3.14m6.66-4.53v3.25m7.19-4.49v3.12m7.076-4.69v3.34m7.61-4.84v3.3m8.37-4.94v3.44m5.79-.93l.21 3.66m-7.79-2.22v3.25m-8.95-1.59v3.29m-7.66-1.69V228m-7.11-1.98v3.24m-7.2-1.8v2.95m-6.66-1.73l.07 3.05m-6.05-1.9v2.96m-6.21-1.78v2.82m-6.52-1.57V235m-6.25-1.59v2.7m-6.14-1.524v2.595m-5.94-1.46v2.53m-4.97-1.5v2.38m-4.72-1.55v2.28m1.51 0v2.85m5.936-4.05v3.05m5.64-4.06v3.05m5.78-4.07l.18 3.07m5.73-4.03v2.85m6.41-4.07v2.98m6.36-4.1v3.13m6.41-4.17v2.96m6.467-4.2v3.16m6.2-4.25v3.17m6.89-4.24v3.03m7.33-4.46v3.13m8.4-4.63v3.21m7.99-4.62v3.16m7.78-4.43l.28 3.08m-3.03.58v3.48m6.91-4.7v3.65m-15.69-.83v3.43m-7.93-2.15v3.46m-7.84-2.09v3.39m-7.28-1.94v3.15m-6.74-2.14v3.26m-6.32-2.1v3.15m-6.48-1.99l.07 3.06m-6.41-2.02v3.08m-6.1-1.99v2.95m-6.41-1.9v2.97m-5.53-2l-.256 2.96m-5.78-1.82V244m-5.7-1.8v2.664m-4.94-1.856v2.76m1.9-.263v2.656m5.76-3.66v2.74m6.014-3.73v2.55m5.35-3.43l.06 2.66m5.91-3.62v2.72m6.41-3.66v2.49m5.5-3.39v2.56m7.16-3.9v2.9m6.82-3.99v2.89m5.28-3.69l-.06 2.85m7.17-4.03l-.15 2.9m7.24-4.14l-.17 3m7.45-4.24l-.19 3.08m8.88-4.46v3m9.39-4.61l.09 3.11m6.42-4.19l.21 3.12m-3.02.64v3.17m7.62-4.55l.24 3.31m-15.14-.9v3.29m-8.11-1.97v3.17m-8.65-1.77v3.22m-8.02-1.92l-.03 3.18m-6.77-1.97v3.03m-6.91-2.04l.11 2.97m-5.3-2.12v3.1m-6.59-2.03v2.96m-7.08-1.82v3.01m-6.15-2.02v3.01m-5.96-2.05v2.99m-6.8-1.75v2.72m-5.74-1.93v2.94m-5.72-2v2.91m-4.58-2.16l.18 2.86m2.27-.36v2.3m5.06-3.1v2.53m5.53-3.31v2.46m6.24-3.46v2.35m6.5-3.37v2.5m5.97-3.35v2.33m6.63-3.57v2.47m6.48-3.49l.06 2.69m6.14-3.67v2.73m6.48-3.74l.09 2.59m6.84-3.52v2.62m7.2-3.92V243m7.99-4.08v2.666m8.37-3.86v2.775m7.87-4.05l.11 2.83m7.81-4.05l.08 2.6m7.6-3.92l.24 2.97m-3.55.54v3.72m8.46-4.21l.07 2.83m-17.14-1.03l.13 3.66m-7.41-2.55v3.57m-7.08-2.5v3.61m-8.82-2.14v3.45m-7.94-2.05l.09 3.07m-7.02-2.33l.11 3.25m-6.44-2.05l-.08 3.02m-6.22-2.29l-.14 3.32m-6.75-2.12v3.16m-7.08-2.08v3.1m-5.8-2.35v3.31M229 250.7v3.06m-6.43-2.35v3.3m-6.317-2.34l-.01 3.27m-5.502-2.43v3.248m-5.48-2.41v3.22m1.87-.124v2.63m6.53-3.74v2.825m5.99-3.72V258m6.71-3.878v2.84m6.3-3.77v2.99m6.12-3.78l.13 2.906m5.96-3.92v3.085m6.58-3.99v3.07m6.56-4.026v2.984m7.26-4.14v3.17m6.35-4.11v3.3m7.36-4.39v3.29m7.35-4.22l.1 3.25m8.23-4.64v3.48m7.93-4.44v3.13m7.41-4.33l.09 3.33m8.17-4.66v3.63m13.91-.53v2.57m6.8-1.69v.61m-16.3-1.48v3.75m-8.64-2.47v3.66m-7.77-2.58l.09 3.59m-7.48-2.52v3.51m-7.45-2.52v3.49m-7.89-2.46v3.5m-7.37-2.46l.14 3.27m-8.2-1.96l.06 3.04m-7.13-2.13v3.19m-6.17-2.13l.27 2.9m-6.99-2.07l.09 2.93m-6.38-2.23v3.1m-5.9-2.12l.1 2.87m-6.44-2.16v3m-6.79-2.06l-.2 2.98m-6.11-2.08l-.2 2.9m-5.51-2.1l-.48 2.88m-4.71-2.02l.13 2.61m2.92-.17v2.02m4.76-2.84v2.55m6.28-3.39v2.65m6.98-3.57v2.99m6.37-3.56v2.26m6.13-3.23v2.67m5.41-3.12v2.52m6.9-3.78l.07 2.7m6.82-3.6v2.8m6.48-3.65l.01 3.45m7.74-4.46v3.34m7.54-4.22v3.35m7.53-4.44v3.46m7.67-4.46l-.01 3.46m6.8-4.25v3.37m7.92-4.27v3.23m8.1-4.5l.08 3.28m8.93-4.45v3.37m8.03-4.41v3.38m-2.53.43v3.84m6.97-4.76l.24 3.82m-16.26-1.5v3.47m-7.94-2.66v3.57m-9-2.29v3.22m-7.73-2.29v3.2m-7.45-2.25v3.17m-7.6-2.17v2.88m-7.52-1.72v2.74m-6.61-2.05l-.04 2.8m-6.44-1.85v2.36m-1.44.39V265m5.25-3.82l-.12 3.21m6.32-4.125v3.367m7.24-4.18v3.19m7.66-4.05l.1 3.164m7.07-3.86l.01 2.99m7.29-3.68l.11 2.8m8.58-3.83v2.9m7.93-4.04v3.1m9.13-4.134v3m7.38-3.885v3m-3.55.42l-.01 3.75m-8.26-2.73v3.96m-9.53-2.86v3.65m-8.12-2.45v3.33m-7.39-2.51v3.29m-7.45-2.58v3.36m-6.44-2.53v3.215m-7.1-2.41v3.51m-7.19-2.55l.06 3.19m-5.88-2.51l-.06 3.31m-3 .56v3.15m6.76-4.03v3.4m6.12-3.85v3.21m65.14-14.74l.15 4.52m-.08 3.61l.07 3.37m-69.28 3.79v2.88m-5.87-2.38v2.86m-3.01.3v3.3m6.94-3.74l.04 3.29m8.68-3.65v3.11m-2.87.2l.08 2.88m-8.37-2.3v2.99m-3.81.42v2.74m8.19-3.45v3.26m7.04-3.89l.15 3.58m-3.19.14l-.04 2.89m-8.33-2.52v3.12m-3.81.3v2.83m8.57-3.29v2.88m4.38 0v3.39m-8.5-3.19v3.6m-5.13.32v3.11m8.38-3.44v3.1m7.69-3.62v3.28m-2.81.12v2.95m-7.75-2.61v2.93m-5.12.58V303m8.88-3.43l.08 3.25m4.3 0v3.51m-8.12-3.24v3.24m-6.13-3.004v3.008m2.38 0v2.798m8-2.79v2.79m3.878 0v3.61m-7.81-3.616v3.61m-6.06 0v3.04m8.4-2.89v3.09m7.91-3.23v3.3m-4.13 0v2.873m-7.9-2.89v2.87m-3.37.3l-.09 2.7m7.32-2.89l.09 3.18m8.06-3.34v3.29m-3.5.34l.06 3.51m-8.31-3.64v3.58m4.06.28v2.73m-7.69-3l-.15 3m15.53-2.62v2.63m-2.44.3v2.95m-8.12-3.25v3.25m-5.13 0v2.9m8.57-2.91v2.99m7.81-2.99v2.99m-3.75.19v2.94m-7.5-3.01v3.01m-4.56.24v3.09m8.17-3.09l-.15 3.15m7.11-3.24v3.32m-3.5.09v3.02m-7.07-3.02l.08 2.83m-5.83-2.83v2.68m2.94.15v3.09m6.406-2.86v3.19m6.72-2.88v3.03m-2.81.21v3m-7.06-3.39v3.06m-5-3.35v3.12m3.13.15l-.37 3.21m6.19-2.94v3.29m5.38.3v2.84m-9.1-3.19v2.76m-5.8-.33v3.06m9.13-2.56l-.23 3.18m5.98.78l-.44 3.42m-10.05-4.39v3.36m-4.69-.48v1.53m9.44-.58l-.12 1.49m9.51-.54l-.04 1.76m4.91-4.87l.1 3.4m2.9.58v1.41m5.69-4.42l.17 3.41m3.66.46v1.36m5.1-4.41v3.45m3.75.49v1.38m4.12-4.45v3.36m2.71.4v1.74m5.15-4.65v3.43m2.5.35v1.2m5.87-4.54V370m3.68.373v1.72m4.5-5.32v4.05m4.38.44V373m2.47-5.414v3.94m-2.47-7.785l-.09 3.7m2.56-6.68v3.14m-2.47-7.01v3.62m-.02-11.05l.02 3.28m0-10.92v3.5m.44-11.4l-.09 4.04m.09-11.37l.14 3.92m-.23-10.98l.04 3.6m.21-11.38l-.13 4.23m-.92-11.15v3.43m.7-11.28l-.13 3.76m-.314-11.46v3.95m.14-10.75v3.43m-.07-10.73l-.06 3.12m-.63-10.77v3.38m-135.75-49.7l74.167-16.96"/>
    <path d="M186.55 246.156c.208-.79 1.427-1.95 3.27-2.557 2.215-.73 7.386.06 7.387 2.68 0 1.51-10.993 1.13-10.658-.13z"/>
    <path d="M195.605 247.064s.273 4.216-3.406 4.298c0 0-3.67 1.162-3.34-4.313m16.99 88.02l.36 17.87m6.71-11.23l-.15 11.2m.2-15.02l-.05 3.81m.08-6.73l-.04 2.91m-10.16 4.02v9.09m0-12.88v3.78m0-6.71v2.92"/>
    <path stroke-width=".5" d="M310.918 173.178l128.724 9.073"/>
  </g>
</svg>
