<svg xmlns="http://www.w3.org/2000/svg" width="300" height="300" viewBox="-15 -10 400 400">
  <path fill="#88157B" d="M56.225 39.334c0 1.233-1 1.445-2.232 1.445H2.233C1 40.78 0 40.56 0 39.33V29.8c0-1.232 1.426-3.807 3.808-3.807h48.608c2.814 0 3.81 2.574 3.81 3.807v9.534zM44.653 23.57v-4.04c0-1.45-1.046-2.628-2.336-2.628h-8.053c-1.29 0-2.337 1.178-2.337 2.63v4.04H23.81v-4.04c0-1.452-1.047-2.63-2.337-2.63H13.42c-1.29 0-2.337 1.178-2.337 2.63v4.04H4.066s.152-8.47.38-11.814S8.48 8.754 8.48 8.754h40.54c4.07 0 3.614 3.612 3.614 3.612V23.57h-7.98zM12.14 44.914c0 1.232-1 2.232-2.233 2.232H6.353c-1.23 0-2.23-1-2.23-2.232v-.346c0-1.232 1-2.232 2.23-2.232h3.554c1.232 0 2.232 1 2.232 2.232v.346zm40.16 0c0 1.232-1 2.232-2.232 2.232h-3.554c-1.233 0-2.232-1-2.232-2.232v-.346c0-1.232 1-2.232 2.232-2.232h3.554c1.232 0 2.232 1 2.232 2.232v.346z"/>
  <path fill="#2CA339" d="M123.117 39.34c0 1.23-1 1.442-2.232 1.442h-36.01c-1.234 0-2.232-.212-2.232-1.443V29.8c0-1.23 1.426-3.808 3.807-3.808h32.86c2.813 0 3.808 2.574 3.808 3.808v9.534zM110.39 23.574v-4.04c0-1.45-1.046-2.63-2.337-2.63h-9.627c-1.29 0-2.337 1.178-2.337 2.63v4.04H86.7s.15-8.467.38-11.813 4.03-3 4.03-3h24.793c4.067 0 3.612 3.61 3.612 3.61v11.21h-9.134zM95.567 44.917c0 1.232-1 2.232-2.23 2.232H89.78c-1.23 0-2.23-1-2.23-2.24v-.35c0-1.23 1-2.24 2.23-2.24h3.556c1.232 0 2.23 1 2.23 2.23v.34zm23.625 0c0 1.232-1 2.232-2.232 2.232h-3.554c-1.23 0-2.23-1-2.23-2.24v-.35c0-1.23 1-2.24 2.23-2.24h3.554c1.23 0 2.232 1 2.232 2.23v.34z"/>
  <g fill="#0C68AC">
    <path d="M345.452 36.058c1.957-3.592 3.04-7.636-.645-7.636h-4.775v-17.38c0-6.597-2.24-9.11-4.12-10.057-2.1-1.06-4.188-.438-5.34.413-1.964 1.453-2.585 3.166-2.774 4.307l-6.773 5.34s1.61 1.3 6.55 2.36c5.413 1.156 6.657.34 6.657.34l-4.068-7.864c.154-.67.59-1.67 1.813-2.58.66-.49 1.805-.74 2.87-.2 1.056.53 2.823 2.27 2.823 7.95v17.38h-36.443s-1.498.01-1.502 1.3c-.008 1.72 1.754 1.51 1.754 1.51s1.11.07 2.07.11c.93.04.03 7 .75 10.71.24 1.28 1.4 2.16 3.33 2.75l-1.58 2.23c-.54.76-.36 1.81.4 2.35.75.53 1.8.36 2.34-.4l2.21-3.13c.07-.11.14-.23.18-.35 4.17.5 10.08.44 17.32.17 3.14-.11 5.51-.3 7.36-.62.03.28.12.56.29.81l2.21 3.13c.53.76 1.58.94 2.34.4.75-.53.93-1.58.4-2.34l-2.06-2.9c2.91-1.3 3.98-3.67 6.37-8.05z"/>
    <circle cx="324.036" cy="15.166" r="1.23"/>
    <circle cx="322.118" cy="18.661" r="1.229"/>
    <circle cx="320.17" cy="22.351" r="1.23"/>
    <circle cx="327.549" cy="16.396" r="1.23"/>
    <circle cx="326.321" cy="19.89" r="1.23"/>
    <circle cx="324.036" cy="24.217" r="1.23"/>
    <circle cx="330.803" cy="18.66" r="1.231"/>
    <path d="M329.57 21.12c.683 0 1.233.553 1.233 1.232s-.55 1.23-1.232 1.23c-.67 0-1.23-.55-1.23-1.23s.56-1.23 1.23-1.23z"/>
  </g>
  <g fill="#E99415">
    <path d="M34.466 90.97c1.375.047 2.258 1.233 2.29 2.348.03.936.368 12.562.476 16.307.02.725-.965 1.166-.965 1.166s-12.373.17-14.697.17c-3.078 0-2.51-.87-2.44-1.21.628-3.03 3.618-5.75.573-5.58-14.868.8-12.657-13.18-10.04-13.18 3.102 0 23.428-.05 24.803-.01zm3.807-1.07c-.31 0-.627-.072-.924-.225-1-.51-1.39-1.73-.88-2.725l8.16-15.893c.51-.995 1.73-1.385 2.72-.877.99.51 1.38 1.73.87 2.725L40.07 88.8c-.36.7-1.07 1.1-1.8 1.1zm-4.037.09H9.488c-.45 0-.813-.363-.813-.813s.363-.813.813-.813h24.748c.45 0 .813.364.813.813s-.37.813-.82.813z"/>
    <circle cx="22.501" cy="84.529" r=".871"/>
    <circle cx="22.501" cy="80.8" r=".871"/>
    <circle cx="22.501" cy="77.443" r=".871"/>
    <circle cx="20.001" cy="74.363" r=".871"/>
    <circle cx="16.947" cy="72.339" r=".871"/>
    <circle cx="12.857" cy="74.083" r=".872"/>
    <circle cx="25.173" cy="74.596" r=".872"/>
    <circle cx="28.447" cy="72.853" r=".871"/>
    <circle cx="31.621" cy="74.954" r=".872"/>
  </g>
  <g fill="#D6226D">
    <path d="M195.414 72.22h-38.906c-1.232 0-2.232 1-2.232 2.232v24.374c0 1.232 1 2.23 2.232 2.23h12.343l2.86 1.763-7.28 8.48h22.28l-8.33-8.42 2.37-1.83h14.68c1.23 0 2.23-1 2.23-2.23V74.45c0-1.232-1-2.23-2.23-2.23zm-2.894 23.14c0 1.233-1 2.233-2.232 2.233h-29.9c-1.23 0-2.23-.998-2.23-2.232V77.59c0-1.234 1-2.233 2.23-2.233h29.9c1.233 0 2.232 1 2.232 2.232v17.77zm1.845 4.91c-.917 0-1.662-.743-1.662-1.662 0-.918.745-1.663 1.662-1.663.92 0 1.665.745 1.665 1.663-.002.92-.745 1.663-1.665 1.663z"/>
    <path d="M172.727 80.73H163.4c-.87 0-1.575.706-1.575 1.576 0 .87.705 1.576 1.575 1.576h3.09v7.878c0 .87.704 1.575 1.575 1.575.87 0 1.576-.705 1.576-1.575v-7.878h3.09c.87 0 1.58-.705 1.58-1.576 0-.87-.7-1.575-1.57-1.575zm8.366 11.668c-1 0-2.167-.176-5.22-9.71-.266-.83.19-1.716 1.02-1.98.83-.267 1.715.193 1.978 1.02.69 2.15 1.58 4.59 2.27 6.187.7-1.586 1.61-3.988 2.33-6.11.28-.825 1.17-1.27 2-.988.82.278 1.27 1.17.99 1.996-3.23 9.58-4.28 9.585-5.29 9.587-.02-.002-.04-.002-.06-.002z"/>
  </g>
  <g fill="#A28A78">
    <path d="M267.278 72.43h-33.04c-1.052 0-1.903.85-1.903 1.9v20.742c0 1.05.852 1.9 1.902 1.9h33.04c1.05 0 1.903-.85 1.903-1.9v-20.74c0-1.05-.85-1.9-1.902-1.9zm-16.37 23.876c-.474 0-.862-.39-.862-.865s.39-.86.863-.86.86.39.86.87-.39.87-.87.87zm14.587-4.603c0 1.05-.852 1.9-2.627 1.9h-25.67c-.324 0-1.176-.85-1.176-1.9v-14.91c0-1.05.852-1.9 1.9-1.9h25.668c1.05 0 1.904.852 1.904 1.9v14.91zm7.71 18.513c0 1.05-.85 1.9-1.903 1.9H231.39c-1.05 0-1.902-.85-1.902-1.9l2.682-9.88c0-1.05.852-1.9 1.902-1.9h33.877c1.04 0 1.9.85 1.9 1.9l3.35 9.88z"/>
    <circle cx="250.911" cy="91.176" r="1.385"/>
    <path d="M254.993 89.363c-.367 0-.72-.2-.896-.553-.012-.018-1.15-2.167-3.188-2.172h-.01c-2.19 0-3.23 2.127-3.24 2.15-.24.5-.84.71-1.34.47-.5-.24-.72-.84-.48-1.34.06-.136 1.61-3.292 5.05-3.292h.01c3.27.008 4.9 3.14 4.97 3.273.25.49.05 1.1-.44 1.35-.15.07-.31.11-.46.11z"/>
    <path d="M244.366 85.687c-.13 0-.264-.025-.393-.08-.508-.22-.746-.8-.533-1.31.072-.167 1.78-4.106 7.455-4.2 5.63-.093 7.377 3.086 7.45 3.22.26.49.07 1.1-.42 1.36s-1.1.072-1.358-.42c-.045-.078-1.303-2.22-5.64-2.148-4.31.07-5.58 2.85-5.634 2.97-.168.37-.537.6-.927.6z"/>
    <path d="M241.75 82.092c-.22 0-.44-.07-.625-.217-.436-.345-.51-.978-.166-1.413.14-.18 3.53-4.38 9.95-4.38 7.04 0 9.54 4.257 9.65 4.44.27.482.1 1.096-.38 1.37-.49.273-1.1.104-1.38-.378-.08-.133-2.09-3.42-7.9-3.42-5.46 0-8.35 3.578-8.37 3.614-.2.252-.5.384-.79.384z"/>
  </g>
  <g fill="#9B1B5A">
    <path d="M273.883 215.457c-.438-.684-1.2-1.03-2.268-1.03h-34.637c-.422-1.21-.863-2.485-1.34-3.846-.322-1.13-1.244-2.25-2.613-2.25h-6.912c-.87 0-1.574.71-1.574 1.58s.7 1.58 1.57 1.58h6.5l.03.1c2.54 7.29 6.47 18.75 7.5 22.27-1.15.73-2.34 1.83-2.66 2.4-.85 1.51-1.21 3.86-.12 5.71.69 1.19 2.23 2.61 5.64 2.61h.72c9.05 0 25.31-.36 25.48-.36.86-.02 1.55-.74 1.53-1.61-.02-.87-.77-1.58-1.61-1.54-.17.01-17.28.37-26.13.37-1.06 0-2.43-.19-2.94-1.05-.46-.77-.19-1.97.13-2.54.2-.28 1.01-.92 1.6-1.31.03 0 .07.01.1.01 3.63 0 21.84-.05 23.9-.46 1.38-.27 2.08-1.43 5.82-12.27.63-1.83 1.23-3.56 1.47-4.08.1-.23.21-.45.3-.65.63-1.33 1.17-2.48.47-3.58zm-32.71 11.19h5.565v6.697l-3.488.014c-.3-1.236-.923-3.26-2.076-6.71zm8.716 0h8.09v6.582c-2.46.04-5.3.07-8.1.09v-6.68zm0-3.147v-5.924h8.09v5.924h-8.1zm-3.15-5.924v5.924h-6.63c-.59-1.704-1.26-3.67-2.04-5.924h8.66zm18.02 15.438c-.69.056-1.98.106-3.63.15v-6.517h6.17c-.93 2.613-1.97 5.368-2.55 6.367zm5.8-15.31c-.11.22-.21.45-.32.69-.28.628-.76 1.995-1.58 4.354-.08.23-.17.487-.26.752h-7.28v-5.924h9.49l-.06.13z"/>
    <circle cx="243.766" cy="249.537" r="2.768"/>
    <circle cx="265.815" cy="249.536" r="2.766"/>
  </g>
  <path fill="#8ABA29" d="M45.42 217.39c0-1.606-1.222-2.91-2.73-2.91h-8.705c.746-2.12 1.518-4.856 2.01-5.632 1.627-.215 4.79-.545 4.826-.548 1.09-.113 2.66-.3 2.56-1.453-.1-1.155-1.06-1.994-2.15-1.886-.16.02-4.11.43-5.52.65-.9.14-2.36.37-5.13 8.88H14.25c-1.508 0-2.73 1.31-2.73 2.92 0 .7.944 2.63 1.243 2.96l14.007 14.66v8.77h-5.12c-1.51 0-2.73.47-2.73 2.07 0 1.61 1.22 2.07 2.73 2.07h13.64c1.505 0 2.73-.46 2.73-2.07 0-1.61-2.01-2.07-3.52-2.07h-3.85v-8.77l14.013-14.75c.605-.67.755-2.71.755-2.86zm-23.585 7.214l-5.482-5.98h24.652l-5.688 6.23-13.482-.25z"/>
  <g fill="#E60012">
    <path d="M21.768 164.076h14.025v2.945H21.768z"/>
    <path d="M50.072 160.57H6.892c-1.23 0-2.233 1-2.233 2.232v13.56c0 1.23 1 2.23 2.23 2.23h2.2c-.05.17-.08 2.338-.08 2.338 0 1.23 1 2.232 2.23 2.232h.73c1.23 0 2.23-1 2.23-2.232 0 0-.03-2.165-.07-2.337h27.24c-.04.17-.07 2.337-.07 2.337 0 1.23.99 2.232 2.23 2.232h.73c1.23 0 2.23-1 2.23-2.232 0 0-.03-2.165-.07-2.337h3.63c1.23 0 2.23-.998 2.23-2.23V162.8c0-1.23-1-2.23-2.23-2.23zm-12.595 15.638H20.084v-13.395h17.393v13.395zm-21.094-35.726v-.617c0-.652-.527-1.182-1.182-1.182-.65 0-1.18.53-1.18 1.182v.617c-4.48.416-6.88 3.073-6.88 3.073h16.12c.01 0-2.4-2.657-6.87-3.073zm39.52 8.578H47.48v-.753H29.97v2.976c0 1.135 1.113 2.633 2.87 3.393H21.42c.955-.832 1.842-2.363 1.842-3.23v-3.395h1.666c.652 0 1.182-.52 1.182-1.18 0-.65-.53-1.18-1.182-1.18h-1.666v-1.01H7.142v1.01H4.595c-.652 0-1.182.53-1.182 1.19 0 .66.53 1.18 1.182 1.18H7.14v3.4c0 .87.888 2.4 1.843 3.23H1.85v3.94h53.207v-3.93h-10.63c1.65-.73 2.937-2.14 3.036-3.25h8.44c.653 0 1.183-.53 1.183-1.18-.002-.65-.53-1.18-1.182-1.18zm-23.946-15.03s3.31 1.42 3.406 3.69-1.42 3.502-1.42 4.732v2.227s-2.38-1.77-1.324-4.12c1.35-3.03.09-5.78-.67-6.53zm5.513 0s3.314 1.42 3.405 3.69c.096 2.27-1.418 3.502-1.418 4.732v2.227s-2.38-1.77-1.324-4.12c1.355-3.03.094-5.78-.662-6.53zm5.512 0s3.313 1.42 3.404 3.69c.096 2.27-1.416 3.502-1.416 4.732v2.227s-2.38-1.77-1.326-4.12c1.356-3.03.096-5.78-.662-6.53z"/>
  </g>
  <path fill="#1D2A75" d="M159.494 150.853v28.566c0 2.55 2.074 4.63 4.635 4.63h26.95c2.56 0 4.63-2.08 4.63-4.63v-28.57h-36.22zm18.11 30.686c-7.394 0-13.394-6-13.394-13.4s6-13.4 13.395-13.4c6.468 0 11.863 4.58 13.118 10.68h-3.24c-1.26-4.27-5.204-7.39-9.878-7.39-5.688 0-10.302 4.61-10.302 10.3s4.612 10.3 10.302 10.3c5.04 0 9.225-3.62 10.12-8.4h3.09c-1.01 6.39-6.532 11.28-13.21 11.28zM191 168.14c0 .18-.022.355-.027.532h-3.08c.002-.11.016-.217.016-.33 0-.455-.04-.9-.1-1.34h3.13c.03.374.05.753.05 1.138zm-5.252-2.284c-.87-.717-2.432-.463-4.54.067-2.892.726-3.993 3.047-5.988 3.217-3.674.313-5.31-1.144-6.026-2.042.604-4.11 4.134-7.27 8.412-7.27 3.836 0 7.078 2.54 8.142 6.027zm5.336-26.484H164.13c-2.562 0-4.636 2.074-4.636 4.633v4.865h36.224v-4.866c0-2.56-2.073-4.634-4.634-4.634zm-25.197 7.948c-1.766 0-3.197-1.432-3.197-3.197 0-1.765 1.43-3.195 3.197-3.195 1.766 0 3.196 1.43 3.196 3.195 0 1.764-1.43 3.197-3.196 3.197zm13.394-.588h-4.87v-2.61h4.87v2.61zm6.3 0h-4.87v-2.61h4.87v2.61zm6.3 0h-4.87v-2.61h4.87v2.61z"/>
  <g fill="#2096D5">
    <path d="M268.385 148.367l-13.088-5.837s.002.466-.117 1.108l-3.73-2.8c-.045-.77.006-1.548.1-1.72.44-.437 2.002-2.44 1.615-4.215-.14-.637-.586-1.5-1.914-1.992-1.18-.43-2.23-.39-3.11.14-1.54.93-1.86 2.96-1.89 3.18-.06.46.26.87.71.94.46.07.88-.25.94-.7.06-.4.37-1.55 1.11-1.98.43-.25.98-.25 1.68.01.68.25.82.57.87.79.19.88-.75 2.28-1.16 2.69-.6.61-.65 1.98-.58 2.98l-3.54 3.01c-.21-.56-.3-.96-.3-.96l-11.93 6.17 2.12 8.6 6.02-2.12-.72 17.33 20.57-.74-1.51-16.71 5.4 1.938 2.5-9.05zm-18.306-.796c-1.45-.12-2.44-1.09-3.08-2.11l3.68-3.11 3.94 2.96c-.66 1.29-1.96 2.49-4.55 2.27z"/>
    <circle cx="245.479" cy="177.509" r="1.504"/>
    <circle cx="245.479" cy="183.08" r="1.503"/>
    <circle cx="245.479" cy="189.183" r="1.503"/>
    <circle cx="252.059" cy="176.007" r="1.504"/>
    <circle cx="252.625" cy="183.035" r="1.503"/>
    <circle cx="259.03" cy="176.531" r="1.503"/>
    <circle cx="259.561" cy="183.035" r="1.503"/>
    <circle cx="259.516" cy="188.315" r="1.503"/>
  </g>
  <g fill="#2CA339">
    <path d="M27.613 274.09c-1.088 0-1.967.882-1.967 1.97 0 1.087.88 1.968 1.967 1.968 8.09 0 14.666 6.58 14.666 14.664 0 8.088-6.58 14.666-14.67 14.666-7.31 0-13.37-5.378-14.47-12.382l1.14 1.254c.73.804 1.98.862 2.78.13.8-.732.86-1.977.13-2.78l-6.35-6.977-5.92 7.76c-.66.866-.49 2.103.37 2.76.35.27.77.404 1.19.404.59 0 1.18-.266 1.56-.776l1.13-1.48c1.26 9.05 9.03 16.03 18.42 16.03 10.26 0 18.6-8.34 18.6-18.6s-8.34-18.6-18.6-18.6z"/>
    <path d="M7.607 283.192h5.414v2.333H4.53v-.96c0-.653.106-1.24.325-1.76.22-.52.5-.985.83-1.398.332-.41.697-.776 1.09-1.093.395-.317.77-.604 1.125-.86.373-.267.7-.52.986-.764.28-.244.518-.486.713-.726.19-.24.33-.483.43-.73.09-.246.14-.51.14-.788 0-.546-.16-.96-.46-1.236-.31-.28-.78-.42-1.42-.42-1.1 0-2.15.437-3.15 1.31v-2.476c1.11-.718 2.36-1.077 3.76-1.077.64 0 1.22.085 1.74.254.51.17.94.41 1.3.73.35.32.63.7.81 1.15.18.45.28.95.28 1.5 0 .59-.09 1.11-.27 1.57s-.42.87-.72 1.25-.65.72-1.04 1.03c-.39.31-.8.61-1.22.9-.29.2-.56.41-.83.61-.27.2-.5.4-.7.59-.21.2-.37.38-.48.57-.12.18-.18.36-.18.53zm15.14-10.432v8.047h1.534v2.1h-1.53v2.618h-2.56v-2.617h-5.56v-2.198c.5-.552 1-1.155 1.53-1.812.53-.654 1.04-1.33 1.53-2.023.5-.695.95-1.394 1.38-2.097.43-.704.79-1.376 1.08-2.017h2.61zm-5.605 8.048h3.043v-4.46c-.207.385-.434.775-.676 1.17-.25.395-.5.784-.77 1.166-.27.385-.54.754-.81 1.113-.28.36-.54.696-.8 1.01z"/>
  </g>
  <g fill="#7D4E22">
    <path d="M361.827 88.144c-.855-3.75-4.154-7.03-9.035-5.977-6.492 1.402-6.225 10.06-6.064 15.23.037 1.172-.055 3.02-.83 3.63-3.174 2.503-29.268 1.3-30.547.905-3.03-.94-2.31-4.876-2.35-6.77-.08-4.213.19-7.768-2.02-10.23-1.06-1.19-2.25-2.484-4.64-2.553-4.41-.14-6.35 1.48-7.62 4.78-1.28 3.3-1.27 6.25-.11 8.37 1.16 2.11 4.82 4.34 7.13 2 1.77-1.8-1.72 11.96 4.04 12.77.42.06 1.07.12 1.85.18v2.47c0 1.39.93 2.51 2.08 2.51h2.05c1.15 0 2.08-1.13 2.08-2.52v-2.15c3.51.13 7.54.22 11.02.22 4.85 0 10.08-.23 14.32-.6v2.53c0 1.38.94 2.51 2.08 2.51h2.05c1.15 0 2.08-1.13 2.08-2.52v-3.32c.66-.12 1.21-.26 1.61-.39 5.44-1.84 2.56-11.12 3.09-12.37.18-.42.69 1.24 3.24.56 3.57-.97 5.59-4.66 4.53-9.31z"/>
    <path d="M344.15 92.405c0 3.403-1.792 6.16-4.005 6.16h-20.79c-2.212 0-4.007-2.76-4.007-6.16V79.9c0-3.402 1.795-6.16 4.008-6.16h20.79c2.212 0 4.005 2.76 4.005 6.16v12.505z"/>
  </g>
  <path fill="#796A56" d="M128.742 363.393l-1.953 2.858 1.93 3.05h-2.1l-.86-1.59c-.07-.12-.15-.3-.25-.53h-.03c-.06.16-.14.34-.24.52l-.87 1.61h-2.09l2-2.94-1.88-2.96h2.11l.84 1.66c.11.22.19.4.24.56h.02c.06-.18.14-.37.25-.56l.86-1.64h1.98zm7.392-4.278v11.837h-2.543v-8.962c-.14.124-.3.24-.49.35-.19.113-.39.213-.6.3-.21.088-.44.166-.67.227-.23.06-.46.106-.68.134v-2.14c.66-.19 1.29-.44 1.88-.74.59-.3 1.12-.63 1.6-.99h1.54zm7.492 12.037c-2.754 0-4.133-1.934-4.133-5.805 0-2.006.373-3.54 1.12-4.592.743-1.05 1.825-1.576 3.24-1.576 2.692 0 4.038 1.96 4.038 5.9 0 1.96-.36 3.46-1.1 4.5-.73 1.04-1.79 1.56-3.16 1.56zm.118-10.027c-1.105 0-1.658 1.387-1.658 4.158 0 2.612.54 3.92 1.62 3.92 1.056 0 1.583-1.348 1.583-4.04s-.52-4.038-1.55-4.038zm-30.834-7.968h-2.15s-2.19-13.793-4.297-14.38c-2.246-.628-11.623-.96-20.45 0-3.862.416-4.78 12.04-4.925 14.38h-.758c-4 0-7.244 3.198-7.244 7.144v3.65c0 3.93 3.217 7.12 7.195 7.14v4.55c0 1.24 1.08 2.23 2.41 2.23h2.14c1.33 0 2.41-.99 2.41-2.23v-4.54h19.09v4.55c0 1.24 1.08 2.23 2.41 2.23h2.14c1.33 0 2.41-.99 2.41-2.23v-4.5c0-.02-.01-.04-.01-.06 3.84-.18 6.9-3.3 6.9-7.12v-3.65c0-3.94-3.24-7.14-7.24-7.14zm-34.635 9.72c0-2.4 1.945-4.345 4.344-4.345 2.39 0 4.34 1.944 4.34 4.344 0 2.397-1.95 4.342-4.34 4.342-2.4 0-4.35-1.944-4.35-4.342zm23.39 5.436h-10.37v-5.324h10.368v5.32zm-15.732-15.718l.79-5.652c0-2.6 2.22-4.713 4.958-4.713h8.76c2.74 0 4.04 1.98 4.96 4.713l.79 5.26c0 1.95-20.25 2.108-20.25.392zm24.602 14.747c-2.4 0-4.344-1.942-4.344-4.342 0-2.396 1.95-4.34 4.35-4.34 2.4 0 4.34 1.943 4.34 4.34 0 2.4-1.94 4.342-4.34 4.342zM69.36 338.81v5.886h-3.85v-17.093h6.032c4.305 0 6.46 1.815 6.46 5.45 0 1.714-.618 3.103-1.856 4.165-1.234 1.06-2.885 1.592-4.95 1.592H69.36zm0-8.25v5.327h1.515c2.05 0 3.074-.896 3.074-2.69 0-1.758-1.03-2.636-3.08-2.636h-1.51z"/>
  <path fill="#D6226D" d="M339.846 226.653h-2.148s-2.19-13.792-4.295-14.38c-2.248-.628-11.623-.96-20.45 0-3.864.42-4.78 12.042-4.927 14.38h-.758c-4 0-7.242 3.198-7.242 7.145v3.645c0 3.93 3.215 7.114 7.193 7.14 0 .016-.01.03-.01.047v4.5c0 1.23 1.08 2.232 2.41 2.232h2.13c1.33 0 2.41-1 2.41-2.232v-4.5c0-.016-.01-.03-.01-.045h19.08c0 .016-.01.03-.01.045v4.5c0 1.23 1.08 2.232 2.41 2.232h2.13c1.33 0 2.41-1 2.41-2.232v-4.5c0-.023-.01-.04-.01-.063 3.84-.18 6.89-3.297 6.89-7.123V233.8c0-3.95-3.24-7.147-7.24-7.147zm-34.633 9.72c0-2.4 1.943-4.344 4.342-4.344s4.342 1.94 4.342 4.34c0 2.39-1.943 4.34-4.342 4.34s-4.342-1.95-4.342-4.34zm23.387 5.437h-10.363v-5.325H328.6v5.325zm-15.728-15.717l.787-5.654c0-2.61 2.22-4.72 4.96-4.72h8.75c2.74 0 4.03 1.98 4.96 4.71l.79 5.26c-.01 1.95-20.26 2.11-20.26.39zm24.6 14.747c-2.4 0-4.343-1.944-4.343-4.34 0-2.4 1.94-4.345 4.34-4.345s4.34 1.944 4.34 4.344c0 2.39-1.95 4.34-4.34 4.34zm-41.177-28.534v5.89h-3.848V201.1h6.03c4.31 0 6.462 1.814 6.462 5.448 0 1.715-.62 3.104-1.86 4.166s-2.89 1.592-4.96 1.592h-1.84zm0-8.25v5.33h1.516c2.06 0 3.08-.9 3.08-2.694 0-1.757-1.02-2.635-3.07-2.635h-1.52zm59.19 32.728l-1.95 2.862 1.94 3.047h-2.1l-.853-1.594c-.07-.13-.154-.31-.248-.54h-.023c-.05.16-.13.33-.23.52l-.85 1.61h-2.09l2-2.94-1.87-2.97h2.12l.84 1.66c.11.22.19.4.23.55h.03c.06-.18.14-.37.25-.57l.86-1.65h1.99zm2.408 7.183v-2.22c.777.565 1.68.846 2.715.846.65 0 1.156-.138 1.52-.42.368-.28.548-.67.548-1.17 0-.518-.223-.916-.674-1.194-.45-.28-1.066-.43-1.855-.43h-1.072v-1.96h.99c1.508 0 2.262-.5 2.262-1.51 0-.94-.578-1.41-1.734-1.41-.777 0-1.53.25-2.262.75v-2.09c.82-.41 1.76-.62 2.85-.62 1.18 0 2.11.27 2.77.8.66.53.99 1.23.99 2.07 0 1.52-.76 2.46-2.3 2.84v.04c.82.1 1.47.4 1.94.89.47.5.71 1.1.71 1.82 0 1.08-.4 1.94-1.19 2.56-.79.63-1.88.94-3.27.94-1.19 0-2.17-.19-2.92-.58zM209.013 363.16c-.013-.52-.01-1.105-.003-1.75.02-3.092.045-6.937-1.643-8.637-.57-.573-1.29-.865-2.14-.865-.66 0-1.23.246-1.696.73-1.76 1.84-1.55 6.866-1.39 10.904.07 1.63.15 3.48-.03 3.862-.24.538-1.19.707-2.06.732v-18.258c0-.91-.74-1.647-1.65-1.647h-35.41c-.91 0-1.64.74-1.64 1.65v21.73c0 .91.74 1.65 1.65 1.65h2.57v1.62c0 .91.74 1.65 1.65 1.65h.77c.91 0 1.65-.73 1.65-1.64v-1.61h22.86v1.62c0 .91.74 1.65 1.65 1.65h.77c.91 0 1.65-.73 1.65-1.64v-1.61h1.86c.91 0 1.65-.74 1.65-1.64v-2.33c1.18-.02 2.61-.29 3.12-1.4.28-.6.24-1.92.14-4.39-.14-3.41-.35-8.57 1.07-10.05.25-.26.52-.38.86-.38.54 0 .97.17 1.32.52 1.35 1.35 1.32 5.08 1.31 7.81 0 .63-.01 1.22 0 1.75h-.06c-.91 0-1.65.74-1.65 1.64v1.58c0 .87.15 1.57.95 1.63v1.48c0 .16.13.3.3.3.16 0 .29-.13.29-.29v-1.464h1.24v1.49c0 .16.13.29.29.29s.29-.13.29-.29v-1.49c.908 0 1.06-.74 1.06-1.642v-1.58c.008-.87-.68-1.58-1.54-1.633zm-41.45-4.685h-3.24v-3.26h3.24v3.26zm0-4.42h-3.24v-3.22h3.24v3.22zm4.103 4.42h-2.943v-3.26h2.943v3.26zm0-4.42h-2.943v-3.22h2.943v3.22zm4.396 4.42h-3.234v-3.26h3.234v3.26zm0-4.42h-3.234v-3.22h3.234v3.22zm4.357 4.42h-3.2v-3.26h3.19v3.26zm0-4.42h-3.2v-3.22h3.19v3.22zm4.35 4.42h-3.19v-3.26h3.19v3.26zm0-4.42h-3.19v-3.22h3.19v3.22zm4.07 4.42h-2.92v-3.26h2.91v3.26zm0-4.42h-2.92v-3.22h2.91v3.22zm4.06 4.42H190v-3.26h2.906v3.26zm0-4.42H190v-3.22h2.906v3.22zm4.43 4.42h-3.27v-3.26h3.27v3.26zm0-4.42h-3.27v-3.22h3.27v3.22zm-27.42-21.885s4.33 1.858 4.46 4.83c.12 2.97-1.86 4.582-1.86 6.19v2.917s-3.11-2.315-1.73-5.392c1.77-3.955.12-7.553-.87-8.544zm7.21 0s4.33 1.858 4.45 4.83c.12 2.97-1.86 4.582-1.86 6.19v2.917s-3.11-2.315-1.73-5.392c1.77-3.955.12-7.553-.87-8.544zm7.21 0s4.33 1.858 4.46 4.83c.12 2.97-1.86 4.582-1.86 6.19v2.917s-3.12-2.315-1.74-5.392c1.77-3.955.12-7.553-.87-8.544z"/>
  <path fill="#DE551A" d="M99.616 97.89s-7.672-.03-9.283-6.55c-1.016-4.096.645-6.435 1.47-8.06 2.245-4.416-.56-8.06-.56-8.06s3.223 0 5.326 3.573c1.32 2.247 2.1 2.664 2.1 2.664s-.84-3.364.98-5.467c1.71-1.972 2.1-1.963 2.66-3.925.42-1.472-1.19-4.905-1.19-4.905s3.04 1.342 4.86 4.706c1.82 3.366 1.89 4.36 2.2 5.995.21 1.14.84 5.37 0 7.13-.84 1.76.58-2.1 4.28-3.8 2.04-.94 1.64-3.8.96-5.85-.09-.26 3.99 2.42 3.45 6.08-.71 4.79-1.63 4.3-2.03 6.86-.22 1.42 1.22 6.32-1.88 8.22-4.5 2.75-8.87 3.12-9.41 7.76 0 0-2.76-2.1-2.47-4.89.33-3.2 2.37-2.99 4.08-4.99 2.51-2.93 2.04-4.13 1.19-6.1 0 0-1.93 2.35-3.44 2.68 0 0 1.54-2.79 1.41-4.74-.17-2.67-2.2-3.16-2.2-3.16s.4 1.61-.73 2.43c-.75.55-1.45 2.57-1.15 4.82.09.73-2.33-2.17-2.33-2.87 0-1.19-1.24 1.77-.67 5.17.63 3.72 2.33 5.33 2.33 5.33zm-2.74 6.345c-1.667.853-9.69 7.897-9.47 9.22.22 1.32 3.74 4.735 5.504 2.975 1.764-1.764 5.398-8.26 5.838-9.252.442-.994-.054-3.868-1.87-2.943zm4.736 2.83c-1.318 0-2.2 4.517-2.092 7.82.11 3.305.865 3.414 3.957 2.755 3.094-.66 3.645-.88 3.203-2.865-.44-1.982-2.754-5.177-2.754-6.718 0-1.54-.77-.99-2.314-.99zm6.058-1.98c-.87.52-1.762 2.093 0 3.635 1.764 1.54 4.457 4.844 5.727 5.615.895.544 3.967-1.872 4.186-3.193.22-1.322-3.28-3.464-4.736-4.17-1.546-.755-2.423-3.54-5.177-1.888z"/>
  <g fill="#DE551A">
    <path d="M351.04 177.2h-7.746v-5.772c1.05-1.3 2.414-3.04 3.11-4.13.583-.908.228-1.615-.956-1.615h-7.537c-.41 0-1.26.34-.55 1.438.5.78 1.98 2.73 3.12 4.2v5.88h-21.73v-5.74c1.05-1.3 2.41-3.04 3.11-4.13.59-.91.23-1.61-.95-1.61h-7.53c-.41 0-1.26.34-.55 1.44.5.78 1.98 2.73 3.12 4.21v5.85h-6.88c-.94 0-1.7.76-1.7 1.7s.76 1.7 1.7 1.7h42.01c.94 0 1.7-.76 1.7-1.7s-.76-1.69-1.7-1.69z"/>
    <path d="M298.67 165.95c-.2 0-.404-.054-.586-.167-.53-.323-.7-1.015-.38-1.547.093-.15 2.286-3.695 6.603-3.695h51.432c2.76 0 5.46 2.32 5.76 2.58.47.41.51 1.13.1 1.6-.42.47-1.13.52-1.6.1-.64-.56-2.65-2.01-4.27-2.01H304.3c-3.02 0-4.603 2.5-4.667 2.61-.216.35-.587.54-.97.54zm20.092-9.39l.63-1.6c.874-2.216 2.298-5.85 2.4-6.156.308-.918.394-1.175 12.854-1.25-.416-1.773-1.172-3.35-2.48-4.11-1.8-1.05-3.15-.21-3.21-.172-.52.335-1.22.19-1.56-.323-.34-.52-.216-1.21.298-1.56.104-.07 2.543-1.7 5.613.09 5.21 3.03 3.924 13.12 3.863 13.55l-.125.95-18.283.56z"/>
  </g>
  <path fill="#796A56" d="M84.814 252.407c-.364 0-.734-.074-1.09-.227-1.402-.6-2.05-2.226-1.45-3.63l16.3-38.006c.602-1.403 2.23-2.053 3.63-1.45 1.403.602 2.054 2.227 1.452 3.63l-16.3 38.005c-.448 1.04-1.47 1.67-2.542 1.67zm9.676.385c-.363 0-.732-.074-1.088-.225-1.402-.602-2.053-2.228-1.45-3.63l16.3-38.008c.602-1.41 2.227-2.06 3.63-1.46s2.054 2.23 1.452 3.63l-16.3 38.01c-.45 1.05-1.47 1.67-2.543 1.67zm25.367-23.896s-7.294-.756-7.294 2.62c0 3.38 3.724 9.17 1.143 11.012-1.037.742-5.11-.74-7.63 2.073-1.187 1.33-2.996 8.81 2.785 7.71 10.11-1.92 11.52 1.04 15.3-1.26 2.42-1.47-.22-22.53-4.29-22.15z"/>
  <path fill="#B81C25" d="M191.33 216.335h-6.457v-.776c0-1.31-.766-2.36-1.71-2.36h-.665c-.943 0-1.71 1.05-1.71 2.36v.77h-3.403v-.78c0-1.31-.765-2.36-1.71-2.36h-.664c-.94 0-1.71 1.06-1.71 2.36v.77h-2.75v-.7c0-.79-.64-1.43-1.42-1.43-.78 0-1.42.64-1.42 1.42v.7h-4.89c-.32 0-.58.26-.58.58 0 .32.27.58.59.58h4.9v.9c0 .78.64 1.42 1.43 1.42s1.43-.64 1.43-1.42v-.9h2.75v.37c0 1.3.77 2.36 1.71 2.36h.67c.94 0 1.71-1.06 1.71-2.36v-.37h3.4v.37c0 1.3.77 2.36 1.71 2.36h.67c.94 0 1.71-1.06 1.71-2.36v-.37h6.46c.325 0 .588-.27.588-.59s-.267-.59-.59-.59zm-17.79-15.525s.466 1.623.263 4.097c-.206 2.476-2.302 3.55-2.48 4.884l-.317 2.41s-2.504-2.68-.827-5.05c2.15-3.04 2.97-4.26 3.36-6.33zm2.27-3.75s3.378 3.29 3.503 6.286c.123 2.995-1.873 4.618-1.873 6.238v2.938s-3.137-2.334-1.747-5.435c1.788-3.98 1.117-9.03.118-10.027zm4.702 4.838s3.27-.11 4.114 2.61c.77 2.48-.298 2.716-.043 4.952.158 1.396.327 2.158.327 2.158s-3.674-1.52-2.847-4.346c.808-2.767-.65-4.548-1.55-5.374zm12.203 26.162c.023-.157.04-.32.04-.486 0-2.596-4.24-6.71-15.62-6.71-7.57 0-15.618 2.35-15.618 6.71 0 .21.024.413.062.612-.12 1.092-.68 8.2 3.97 12.528 1.1 1.028 2.4 1.87 3.82 2.52l-5.7 12.067c-.42.88-.04 1.93.84 2.34.24.12.49.17.74.17.65 0 1.29-.37 1.59-1l5.87-12.44c.86.2 1.74.34 2.63.42v14.14c0 .97.78 1.76 1.75 1.76s1.76-.78 1.76-1.76v-14.14c.75-.07 1.51-.18 2.26-.34l6.95 13.52c.31.61.92.96 1.56.96.27 0 .54-.06.8-.2.86-.44 1.2-1.5.76-2.36l-6.69-12.99c1.7-.74 3.26-1.74 4.58-3.04 3.18-3.11 3.56-11.04 3.6-12.24zm-2.304-.486c0 1.23-2.46 2.844-6.65 3.727l3.14-6.56c2.55 1.04 3.52 2.31 3.52 2.84zm-13.27-4.37c.28 0 .55.004.81.01l-4.9 8.494c-1.57-.186-2.96-.473-4.17-.82l4.74-7.505c1.11-.112 2.28-.18 3.53-.18zm-13.27 4.37c0-1.233 2.48-2.85 6.69-3.73l-3.93 6.232c-1.77-.8-2.75-1.728-2.75-2.502zm13.28 4.37c-.51 0-1.02-.012-1.51-.03l4.95-8.564c1.57.14 2.92.372 4.07.662l-3.69 7.724c-1.18.13-2.45.208-3.82.208z"/>
  <path fill="#40220F" d="M127.262 162.7c-1.04-4.084-7.69-17.87-14.764-16.926-4.707.627-4.55 2.824-8.235 2.824-2.605 0-2.88-2.183-8.19-1.96-5.61.236-11.1 8.626-11.807 16.154-.703 7.53 1.57 8.672 5.592 8.672 4.368 0 10.857-3.343 15.582-3.456 4.86-.118 12.488 4.263 17.745 3.32 5.253-.94 4.43-7.225 4.077-8.627zm-27.647-.507h-3.893v3.893h-2.584v-3.893H88.87v-2.583h4.268v-3.893h2.584v3.893h3.893v2.583zm11.42 1.84c-1.352 0-2.447-1.094-2.447-2.443 0-1.352 1.096-2.445 2.447-2.445 1.35 0 2.444 1.094 2.444 2.445 0 1.348-1.1 2.444-2.45 2.444zm7.33-.027c-1.353 0-2.445-1.094-2.445-2.442 0-1.353 1.093-2.446 2.444-2.446s2.444 1.094 2.444 2.446c.002 1.35-1.092 2.442-2.444 2.442z"/>
  <path fill="#359DD1" d="M174.89 38.63c0 .975-.673 1.143-1.505 1.143h-24.26c-.83 0-1.504-.168-1.504-1.143v-7.543c0-.975.96-3.012 2.57-3.012h22.14c1.9 0 2.57 2.037 2.57 3.012v7.543zm-8.574-12.473V22.96c0-1.148-.706-2.08-1.574-2.08h-6.486c-.87 0-1.574.932-1.574 2.08v3.196h-6.32s.104-6.698.258-9.347c.154-2.65 2.715-2.38 2.715-2.38h16.703c2.74 0 2.434 2.85 2.434 2.85v8.86h-6.156zm-9.986 16.89c0 .973-.673 1.764-1.504 1.764h-2.395c-.83 0-1.5-.79-1.5-1.76v-.27c0-.97.68-1.76 1.51-1.76h2.4c.83 0 1.51.79 1.51 1.77v.28zm15.917 0c0 .973-.675 1.764-1.505 1.764h-2.394c-.83 0-1.505-.79-1.505-1.76v-.27c0-.97.674-1.76 1.505-1.76h2.394c.83 0 1.505.79 1.505 1.77v.28zm35.77-4.417c0 .975-.67 1.143-1.503 1.143h-24.262c-.832 0-1.504-.168-1.504-1.143v-7.543c0-.975.96-3.012 2.564-3.012h22.14c1.897 0 2.565 2.037 2.565 3.012v7.543zm-8.573-12.473V22.96c0-1.148-.706-2.08-1.574-2.08h-6.487c-.87 0-1.574.932-1.574 2.08v3.196h-6.32s.1-6.698.25-9.347c.15-2.65 2.71-2.38 2.71-2.38h16.7c2.74 0 2.43 2.85 2.43 2.85v8.86h-6.16zm-9.986 16.89c0 .973-.675 1.764-1.505 1.764h-2.393c-.83 0-1.506-.79-1.506-1.76v-.27c0-.97.675-1.76 1.506-1.76h2.393c.83 0 1.505.79 1.505 1.77v.28zm15.916 0c0 .973-.674 1.764-1.504 1.764h-2.393c-.832 0-1.506-.79-1.506-1.76v-.27c0-.97.68-1.76 1.51-1.76h2.4c.83 0 1.51.79 1.51 1.77v.28z"/>
  <path fill="#1C2A55" d="M253.325 48.433c0 .802-.557.94-1.24.94H232.09c-.687 0-1.24-.14-1.24-.94v-6.22c0-.804.79-2.483 2.114-2.483h18.246c1.563 0 2.115 1.68 2.115 2.483v6.22zm-7.07-10.283v-2.635c0-.947-.58-1.713-1.296-1.713h-5.35c-.72 0-1.3.766-1.3 1.713v2.635h-5.21s.08-5.522.21-7.703c.12-2.183 2.24-1.96 2.24-1.96h13.77c2.26 0 2 2.356 2 2.356v7.31h-5.08v-.003zm-8.23 13.92c0 .803-.556 1.455-1.24 1.455h-1.972c-.686 0-1.238-.652-1.238-1.455v-.227c0-.803.555-1.455 1.238-1.455h1.973c.688 0 1.24.652 1.24 1.455v.227zm13.122 0c0 .803-.557 1.455-1.24 1.455h-1.975c-.686 0-1.238-.652-1.238-1.455v-.227c0-.803.555-1.455 1.238-1.455h1.975c.684 0 1.24.652 1.24 1.455v.227zm29.523-3.637c0 .802-.555.94-1.242.94h-19.996c-.684 0-1.238-.14-1.238-.94v-6.22c0-.804.79-2.483 2.11-2.483h18.25c1.564 0 2.116 1.68 2.116 2.483v6.22zm-7.068-10.283v-2.635c0-.947-.582-1.713-1.297-1.713h-5.348c-.715 0-1.297.766-1.297 1.713v2.635h-5.21s.087-5.522.212-7.703c.127-2.183 2.238-1.96 2.238-1.96h13.77c2.258 0 2.006 2.356 2.006 2.356v7.31h-5.074v-.003zm-8.232 13.92c0 .803-.555 1.455-1.238 1.455h-1.975c-.684 0-1.238-.652-1.238-1.455v-.227c0-.803.55-1.455 1.23-1.455h1.97c.68 0 1.24.652 1.24 1.455v.227zm13.12 0c0 .803-.556 1.455-1.24 1.455h-1.974c-.684 0-1.238-.652-1.238-1.455v-.227c0-.803.555-1.455 1.238-1.455h1.973c.68 0 1.24.652 1.24 1.455v.227zm-25.165-32.12c0 .805-.557.944-1.24.944H232.09c-.687 0-1.24-.14-1.24-.943v-6.21c0-.8.79-2.48 2.114-2.48h18.246c1.563 0 2.115 1.68 2.115 2.48v6.22zm-7.07-10.28V7.035c0-.947-.58-1.715-1.296-1.715h-5.35c-.72 0-1.3.768-1.3 1.715V9.67h-5.21s.08-5.522.21-7.706c.12-2.18 2.24-1.958 2.24-1.958h13.77c2.26 0 2 2.356 2 2.356V9.67h-5.08zm-8.23 13.92c0 .804-.556 1.455-1.24 1.455h-1.972c-.686 0-1.238-.65-1.238-1.454v-.22c0-.8.555-1.45 1.238-1.45h1.973c.688 0 1.24.65 1.24 1.46v.23zm13.122 0c0 .804-.557 1.455-1.24 1.455h-1.975c-.686 0-1.238-.65-1.238-1.454v-.22c0-.8.555-1.45 1.238-1.45h1.975c.684 0 1.24.65 1.24 1.46v.23zm29.523-3.64c0 .805-.555.944-1.242.944h-19.996c-.684 0-1.238-.14-1.238-.943v-6.21c0-.8.79-2.48 2.11-2.48h18.25c1.564 0 2.116 1.68 2.116 2.48v6.22zm-7.068-10.28V7.035c0-.947-.582-1.715-1.297-1.715h-5.348c-.715 0-1.297.768-1.297 1.715V9.67h-5.21s.087-5.522.212-7.706C260.79-.216 262.9.006 262.9.006h13.77c2.258 0 2.006 2.356 2.006 2.356V9.67h-5.074zm-8.232 13.92c0 .804-.555 1.455-1.238 1.455h-1.975c-.684 0-1.238-.65-1.238-1.454v-.22c0-.8.55-1.45 1.23-1.45h1.97c.68 0 1.24.65 1.24 1.46v.23zm13.12 0c0 .804-.556 1.455-1.24 1.455h-1.974c-.684 0-1.238-.65-1.238-1.454v-.22c0-.8.555-1.45 1.238-1.45h1.973c.68 0 1.24.65 1.24 1.46v.23z"/>
  <g fill="#026636">
    <path d="M313.652 326.267v55.006h30.12v-55.006h-30.12zm29.334 54.218H314.44v-53.43h13.69c0 .01-.01.017-.01.025v7.577c0 .03.017.055.02.084l-3.61 5.57h8.753l-3.98-5.77v-7.45c0-.01-.003-.02-.003-.02h13.688l-.002 53.43z"/>
    <circle cx="326.461" cy="341.881" r=".521"/>
    <circle cx="326.461" cy="344.411" r=".521"/>
    <circle cx="326.461" cy="347.452" r=".521"/>
    <circle cx="326.461" cy="350.665" r=".521"/>
    <circle cx="326.461" cy="353.963" r=".521"/>
    <circle cx="328.823" cy="342.668" r=".521"/>
    <circle cx="328.823" cy="345.72" r=".521"/>
    <circle cx="328.823" cy="348.238" r=".52"/>
    <circle cx="328.823" cy="351.061" r=".521"/>
    <circle cx="328.823" cy="354.361" r=".52"/>
    <circle cx="331.185" cy="341.669" r=".521"/>
    <circle cx="331.185" cy="344.201" r=".521"/>
    <circle cx="331.185" cy="347.241" r=".521"/>
    <circle cx="331.185" cy="350.453" r=".521"/>
    <circle cx="331.185" cy="353.752" r=".521"/>
    <path d="M319.107 368.178c0 .435.353.787.788.787h.467c-.135 1.407-.234 5.698 3.113 7.78l-.447 1.196c-.152.41.057.86.46 1.02.093.04.185.05.277.05.317 0 .617-.19.737-.51l.402-1.07c1.07.37 2.385.55 4 .47 1.525-.07 2.777-.35 3.805-.76l.44 1.18c.11.32.41.51.73.51.09 0 .18-.01.27-.05.41-.15.61-.6.46-1.01l-.51-1.37c3.24-2.18 3.21-6.08 3.09-7.41h.34c.43 0 .78-.35.78-.79s-.36-.78-.79-.78h-17.65c-.44 0-.79.35-.79.79z"/>
    <circle cx="326.461" cy="357.496" r=".522"/>
    <circle cx="326.461" cy="360.796" r=".521"/>
    <circle cx="328.823" cy="357.894" r=".52"/>
    <circle cx="328.823" cy="361.194" r=".521"/>
    <circle cx="331.185" cy="356.499" r=".521"/>
    <circle cx="331.185" cy="359.798" r=".52"/>
  </g>
  <path fill="#7D4E22" d="M79.09 307.47h1.044v4.138H82v-4.138h6.257v-2.103H79.09m10.205 0h9.165v2.103h-9.165zm10.202 0h9.167v2.103h-9.167zm10.203 2.103h6.93v4.138h1.868v-4.138h.37v-2.103H109.7m9.175 2.103l6.246-9.54v.78l1.41-.06v-5.303l-7.65 12.02m-20.42-25.99l-19.97 7.27v1.867l1.24-.484v16.23l-.63.366h9.17l16.33-11.278h-3.82l5.3-5.515 4.87 5.515h-5.31L89.3 304.626h9.166l12.804-10.89.008.01.45-.398h1.04L99.5 304.626h9.167l10.204-11.278h-4.37l4.61-5.425 4.6 5.425h-3.79l-10.21 11.278h9.17l7.14-11.278h.52v-12.7h.75v-1.27H98.46v-.002zm-6.62 3.88l5.86-2.31-2.6 6.503-3-4.295-.26.18v-.08zm-2.15.846l-3.51 7.667-3.82-4.78 7.33-2.887zm-7.91 4.08l3.84 4.81-3.83 8.374v-13.183zm.74 14.454l3.94-8.593 3.44 4.303-7.37 4.29zm7.41-6.165l-2.91-3.65 2.92-6.356v10.006zm1.92-11.593l2.73 3.9-2.72 6.81v-10.71zm.85 11.84l2.7-6.76 2.58 3.69-5.28 3.07zm5.78-4.45l-2.54-3.65 2.55-6.37v10.01zm2.05-.4v-10.32l4.75 5.38-4.75 4.94zm.8-11.23h9.99l-5.21 5.41-4.78-5.42zm10.35 11.72l-4.76-5.4 4.77-4.96v10.36zm2.05.05v-10.84l4.6 5.42-4.6 5.42zm.79-11.78h9.2l-4.6 5.42-4.6-5.43zm9.99 11.77l-4.6-5.43 4.6-5.43v10.85z"/>
  <g fill="#138B3B">
    <path d="M166.674 295.287c-.21 0-.38.17-.38.378v.753c0 .21.17.376.38.376.208 0 .375-.17.375-.376v-.753c0-.21-.17-.378-.38-.378zm0-4.524c-.21 0-.38.17-.38.376v.75c0 .21.17.38.38.38.208 0 .375-.17.375-.38v-.75c0-.21-.17-.38-.38-.38zm0 2.263c-.21 0-.38.17-.38.378v.75c0 .212.17.378.38.378.208 0 .375-.168.375-.378v-.75c0-.208-.17-.378-.38-.378zm0-4.526c-.21 0-.38.17-.38.377v.753c0 .21.17.378.38.378.208 0 .375-.17.375-.378v-.753c0-.207-.17-.376-.38-.376zm0-4.52c-.21 0-.38.168-.38.376v.753c0 .2.17.37.38.37.208 0 .375-.17.375-.38v-.76c0-.21-.17-.38-.38-.38zm0 2.262c-.21 0-.38.167-.38.374v.753c0 .2.17.37.38.37.208 0 .375-.17.375-.38v-.76c0-.21-.17-.38-.38-.38zm0 11.306c-.21 0-.38.17-.38.378v.753c0 .2.17.37.38.37.208 0 .375-.17.375-.38v-.76c0-.21-.17-.38-.38-.38zm0 6.785c-.21 0-.38.17-.38.376v.75c0 .21.17.38.38.38.208 0 .375-.17.375-.38v-.76c0-.21-.17-.38-.38-.38zm0-22.617c-.21 0-.38.17-.38.378v.753c0 .21.17.376.38.376.208 0 .375-.17.375-.376v-.753c0-.21-.17-.378-.38-.378zm0 18.094c-.21 0-.38.168-.38.377v.752c0 .21.17.37.38.37.208 0 .375-.17.375-.38v-.76c0-.21-.17-.38-.38-.38zm0 2.263c-.21 0-.38.168-.38.375v.753c0 .21.17.38.38.38.208 0 .375-.17.375-.38v-.75c0-.2-.17-.37-.38-.37zm8.716-11.31c-.21 0-.376.17-.376.376v.75c0 .21.168.38.377.38s.38-.17.38-.38v-.75c0-.21-.17-.38-.37-.38zm0-4.52c-.21 0-.376.166-.376.373v.753c0 .2.168.37.377.37s.38-.17.38-.38v-.76c0-.21-.17-.38-.37-.38zm0 2.257c-.21 0-.376.17-.376.377v.753c0 .21.168.378.377.378s.38-.17.38-.378v-.753c0-.207-.17-.376-.37-.376zm0-4.52c-.21 0-.376.168-.376.376v.753c0 .2.168.37.377.37s.38-.17.38-.38v-.76c0-.21-.17-.38-.37-.38zm0 9.046c-.21 0-.376.17-.376.378v.75c0 .212.168.378.377.378s.38-.168.38-.378v-.75c0-.208-.17-.378-.37-.378zm0-11.31c-.21 0-.376.17-.376.378v.753c0 .21.168.376.377.376s.38-.17.38-.376v-.753c0-.21-.17-.378-.37-.378zm0 18.094c-.21 0-.376.168-.376.377v.752c0 .21.168.37.377.37s.38-.17.38-.38v-.76c0-.21-.17-.38-.37-.38zm0-4.523c-.21 0-.376.17-.376.378v.753c0 .21.168.376.377.376s.38-.17.38-.376v-.753c0-.21-.17-.378-.37-.378zm0 9.046c-.21 0-.376.17-.376.376v.75c0 .21.168.38.377.38s.38-.17.38-.38v-.76c0-.21-.17-.38-.37-.38zm0-2.26c-.21 0-.376.168-.376.375v.753c0 .21.168.38.377.38s.38-.17.38-.38v-.75c0-.2-.17-.37-.37-.37zm0-4.525c-.21 0-.376.17-.376.378v.753c0 .2.168.37.377.37s.38-.17.38-.38v-.76c0-.21-.17-.38-.37-.38zm.365 9.688c.005-.02.013-.035.013-.057v-.21c0-.21-.17-.38-.377-.38-.21 0-.37.17-.37.37v.21c0 .02.01.03.01.05h-7.98c.01-.02.02-.04.02-.06v-.21c0-.21-.17-.38-.37-.38s-.37.17-.37.37v.21c0 .02.01.03.01.05h-1.1v2.41h.75v.43h1.23v-.44h7.52v.49h1.23v-.49h.64v-2.41h-.81zm7.505-19.26c-.195 0-.352.155-.352.35v.703c0 .19.156.35.352.35.194 0 .35-.16.35-.36v-.71c0-.2-.156-.35-.35-.35zm0 2.107c-.195 0-.352.16-.352.354v.702c0 .19.156.35.352.35.194 0 .35-.16.35-.35v-.71c0-.2-.156-.36-.35-.36zm0-8.43c-.195 0-.352.156-.352.35v.702c0 .194.156.352.352.352.194 0 .35-.157.35-.352v-.7c0-.196-.156-.352-.35-.352zm0 2.107c-.195 0-.352.156-.352.35v.703c0 .194.156.35.352.35.194 0 .35-.155.35-.35v-.702c0-.19-.156-.35-.35-.35zm0 2.108c-.195 0-.352.156-.352.352v.7c0 .195.156.355.352.355.194 0 .35-.16.35-.354v-.7c0-.19-.156-.35-.35-.35zm0 8.432c-.195 0-.352.156-.352.35v.7c0 .196.156.354.352.354.194 0 .35-.157.35-.353v-.7c0-.19-.156-.35-.35-.35zm0 6.322c-.195 0-.352.16-.352.352v.703c0 .194.156.352.352.352.194 0 .35-.16.35-.36v-.71c0-.2-.156-.35-.35-.35zm0-2.107c-.195 0-.352.156-.352.35v.705c0 .194.156.35.352.35.194 0 .35-.155.35-.35v-.704c0-.195-.156-.35-.35-.35zm0-2.107c-.195 0-.352.156-.352.35v.703c0 .2.156.36.352.36.194 0 .35-.16.35-.35v-.7c0-.19-.156-.35-.35-.35zm0-4.215c-.195 0-.352.156-.352.35v.703c0 .194.156.35.352.35.194 0 .35-.155.35-.35v-.702c0-.195-.156-.35-.35-.35zm9.058 10.85c-.02-.176-.164-.313-.342-.313-.182 0-.323.138-.344.314h-8.03c-.02-.177-.163-.314-.345-.314-.18 0-.322.138-.344.314h-1.13v2.094h.75v.4h1.233v-.4h7.517v.448h1.23v-.448h.636v-2.094h-.84zm-.34-12.96c-.194 0-.354.16-.354.354v.702c0 .19.16.35.354.35.192 0 .352-.16.352-.35v-.71c-.003-.2-.16-.36-.352-.36zm0-2.108c-.194 0-.354.156-.354.352v.702c0 .19.16.35.354.35.192 0 .352-.16.352-.36v-.71c-.003-.2-.16-.35-.352-.35zm0-4.215c-.194 0-.354.156-.354.35v.703c0 .194.16.35.354.35.192 0 .352-.155.352-.35v-.702c-.003-.19-.16-.35-.352-.35zm0-2.107c-.194 0-.354.156-.354.35v.702c0 .194.16.352.354.352.192 0 .352-.157.352-.352v-.7c-.003-.196-.16-.352-.352-.352zm0 4.215c-.194 0-.354.156-.354.352v.7c0 .195.16.355.354.355.192 0 .352-.16.352-.354v-.7c-.003-.19-.16-.35-.352-.35zm0 12.647c-.194 0-.354.156-.354.35v.705c0 .194.16.35.354.35.192 0 .352-.155.352-.35v-.704c-.003-.195-.16-.35-.352-.35zm0 2.107c-.194 0-.354.16-.354.352v.703c0 .194.16.352.354.352.192 0 .352-.16.352-.36v-.71c-.003-.2-.16-.35-.352-.35zm0-6.322c-.194 0-.354.156-.354.35v.7c0 .196.16.354.354.354.192 0 .352-.157.352-.353v-.7c-.003-.19-.16-.35-.352-.35zm0 2.108c-.194 0-.354.156-.354.35v.703c0 .2.16.36.354.36.192 0 .352-.16.352-.35v-.7c-.003-.19-.16-.35-.352-.35zm0-4.215c-.194 0-.354.156-.354.35v.703c0 .194.16.35.354.35.192 0 .352-.155.352-.35v-.702c-.003-.195-.16-.35-.352-.35z"/>
    <path d="M200.875 280.25h1.893v-1.507h-46.89v1.507h1.897l-2.513 34.154 1.51.04 2.28-25.63 2.65 19.52 1.494-.205-3.785-27.88h6.89v.33c0 .21.17.37.38.37s.38-.17.38-.38v-.34h7.97v.33c0 .21.17.37.38.37s.38-.17.38-.38v-.34h7.15v.35c0 .19.16.35.35.35.2 0 .35-.16.35-.35v-.35h8.02v.35c0 .19.16.35.36.35.19 0 .35-.16.35-.35v-.35h6.91l-2.51 34.15 1.51.04 2.29-25.63 2.65 19.52 1.5-.21-3.79-27.88z"/>
  </g>
  <g fill="#00A29A">
    <path d="M276.084 279.937h-43.162c-1.232 0-2.232.998-2.232 2.232v28.32c0 1.23 1 2.23 2.232 2.23h43.162c1.234 0 2.232-1 2.232-2.23v-28.32c0-1.24-.997-2.24-2.232-2.24zm-28.92 25.964c-5.41 0-9.8-4.38-9.8-9.79 0-5.41 4.39-9.8 9.8-9.8 5.413 0 9.8 4.39 9.8 9.81 0 5.41-4.387 9.8-9.8 9.8zm19.628-13.12c-.154 1.44-1.756 2.06-1.756 2.06v12.15c-.752.76-1.627-.12-1.627-.12v-12.11s-1.7-.71-1.76-1.9c-.19-3.74.43-5.19.89-5.17.69.03.02 3.59.66 3.62.94.04.72-.7.73-1.4.01-1.23.08-2.19.39-2.16.31.03.38.99.45 2.14.05.83-.17 1.35.64 1.24.61-.08.09-3.36.53-3.43.44-.07 1.1 2.51.82 5.11zm5.33 13.91c-.754.76-1.627-.12-1.627-.12v-9.76s-2.23-.36-2.23-5.48c0-5.23 3.734-6.15 3.857-5.36.12.79 0 20.73 0 20.73z"/>
    <path d="M247.346 303.142c-3.865 0-7.01-3.146-7.01-7.01 0-1.53.486-2.99 1.408-4.21l.67.506c-.81 1.075-1.236 2.356-1.236 3.704 0 3.403 2.766 6.17 6.168 6.17 2.06 0 3.98-1.025 5.127-2.74l.697.466c-1.302 1.95-3.484 3.114-5.824 3.114z"/>
  </g>
  <g fill="#DE551A">
    <path d="M327.58 274.984c-11.337 0-20.562 9.223-20.562 20.562 0 11.336 9.225 20.56 20.56 20.56 11.34 0 20.564-9.224 20.564-20.56 0-11.34-9.225-20.562-20.563-20.562zm-15.835 20.56c0-3.368 1.064-6.49 2.863-9.057l21.557 22.346c-2.477 1.604-5.422 2.547-8.584 2.547-8.73 0-15.83-7.104-15.83-15.837zm27.966 10.163l-21.84-22.644c2.69-2.095 6.06-3.355 9.72-3.355 8.73 0 15.84 7.104 15.84 15.836 0 3.867-1.39 7.408-3.7 10.163z"/>
    <path d="M337.08 299.54h-22.565v-6.125h22.566v6.124zm-21.236-1.334h19.908v-3.46h-19.908v3.46zm21.786-4.7h2.026v5.966h-2.027zm.785-.634c-.078 0-.156-.027-.22-.084-.138-.12-.15-.33-.03-.47.057-.062 1.36-1.59.197-3.42-.627-.986-1.297-1.424-1.832-1.778-.588-.385-1.092-.718-1.225-1.51-.232-1.4.28-2.45.303-2.494.082-.166.283-.228.445-.15.164.082.23.28.15.447-.006.01-.44.91-.242 2.09.08.484.36.687.94 1.063.56.366 1.33.87 2.03 1.977 1.44 2.256-.24 4.2-.26 4.218-.06.08-.15.12-.25.12z"/>
    <path d="M337.374 292.27c-.04 0-.08-.006-.12-.023-.17-.065-.253-.26-.187-.43.006-.01.396-1.027.006-1.8-.2-.394-.59-.668-1.148-.813-.732-.188-1.697-.604-2.117-1.508-.334-.715-.256-1.596.232-2.612.078-.166.28-.235.443-.157.164.08.234.278.156.445-.4.828-.48 1.517-.23 2.044.31.668 1.08.99 1.68 1.146.75.194 1.28.584 1.57 1.156.52 1.043.04 2.29.02 2.344-.05.13-.18.21-.31.21z"/>
  </g>
  <g fill="#192E7A">
    <path d="M25.874 338.208c-11.34 0-20.56 9.225-20.56 20.564 0 11.336 9.22 20.56 20.56 20.56 11.336 0 20.56-9.224 20.56-20.56.003-11.34-9.222-20.564-20.56-20.564zm-15.838 20.564c0-3.368 1.064-6.487 2.865-9.057l21.56 22.345c-2.48 1.604-5.42 2.546-8.58 2.546-8.73 0-15.84-7.104-15.84-15.834zm27.97 10.158L16.16 346.288c2.686-2.097 6.05-3.355 9.713-3.355 8.73 0 15.836 7.104 15.836 15.837 0 3.866-1.4 7.407-3.71 10.16z"/>
    <path d="M31.19 351.602l-.115-4.41 1.897 3.025 5.017 1.04v3.884l-3.82.32-.34 2.17.48 4.05v8.68h-2.69l-1.61-5.74-10.16-.9L18 369.8l-2.194-.018v-9.736l-4.047 1.928 3.95-4.78 13.4-.81"/>
  </g>
  <g fill="#0B318F">
    <circle cx="242.398" cy="374.366" r="3.438"/>
    <circle cx="272.241" cy="374.366" r="3.437"/>
    <path d="M276.67 358.22h-6.728c-.234-1.176-.722-2.94-1.746-5.19-1.89-4.152-1.178-4.308-4.71-4.528-3.534-.222-11.402 0-14.852 0-3.736 0-6.248 6.563-7.238 9.718h-2.608c-3.25 0-4.465 3.423-4.465 5.772v4.412c0 1.022.828 1.852 1.852 1.852h42.455c1.023 0 1.853-.83 1.853-1.852v-6.372c0-1.824-1.767-3.813-3.813-3.813zm-30.725-.743l1.308-3.7c.383-1.13 1.27-2.505 2.294-2.505h3.696v6.94c-3.983-.082-7.298-.327-7.298-.735zm11.218.766v-6.97h6.22c1.023 0 1.814 1.486 2.082 2.504l1.307 3.7c0 .485-4.685.74-9.61.766zm13.807-22.61c-.743-.786-1.983-.822-2.772-.08-.787.745-.823 1.984-.08 2.77l1.058 1.12H242.46l.962-1.297c.646-.87.46-2.098-.408-2.74-.87-.646-2.098-.463-2.74.407l-4.187 5.65 4.24 5.196c.39.47.953.72 1.52.72.438 0 .875-.15 1.24-.44.84-.69.963-1.92.277-2.76l-.665-.82h26.56l-.67.73c-.73.79-.68 2.03.12 2.77.37.34.85.51 1.32.51.53 0 1.06-.22 1.44-.64l4.92-5.36-5.43-5.76z"/>
  </g>
</svg>
