<svg xmlns="http://www.w3.org/2000/svg" width="300" height="300" viewBox="-9 -83 600 600">
  <g fill="none" stroke="#956134">
    <path stroke-width=".568" d="M390.136 254.563l135.003 7.862M407.4 270.13l118.35 3.35m-140.786 9.507l140.84 3.167M395.3 312.986l60.09-1.397m53.69-.31l17.23-.79m-130.945 16.96l61.042-2.57m52.304-.91l17.1-.64m-139.93 35.78l70.92-4.77m52.93-2.83l17.07-.64m-140.33 22.86l71.23-5.2m52.3-.3l17.19-.69m-121.73-84.1v14.25m0 15.61v14.14m0 14.62v15.47m-.55 14.84v17.84m17.51-64.06v14.96m0-28.84v-14.01m1.27-14.42v-13.26m-16.78-9.42v-5.63m18.99 1.06v-3.63m12.05 31.2v13.39m0-26.57v-13.65m-.2 54.66v13.52m0 14.86v15.22m-15.66 1.08v13.94m15.67-.63l.19 17.25m18.86-115.71v13.07M472 271.81v-12.48m-15.57-.97v-3.79m33.1 17.9l.05 12.12m16.47-11.64v-11.57m-16.51-1.12l.09-3.47m28.59 16.71V286m-.48-23.99v-3.64m.48 40.72l.04 11.79m-.036 13.05l.038 12.816m1.12 14.796v16.03M375.45 283.1l-26.76-.107m40.51 0l-.12-13.46m-28.448 1.66v11.857m4.06 30.273l-15.59-.33m15.58 16.704l-15.65.02m11.585-32.58l.347 16.183m-.81 16.42l.465 14.7m16.35 15.75l-27.38 1.72m27.8 13.192l-27.38 2.084m10.94-15.996l.34 14.954m-20.077-13.718l-38.55.952m38.866 14.21l-38.61 1.044m4.926-65.18h-5.75m5.33 16.188l-4.756.095m37.52-46.745l-38.082.46m17.36 0l.23 2.654m11.6-3.01v-10.56m-31.45-1.943v9.47m31.457 67.82v14.55m0 15.81v17.03m-13.14-31.94l-.07 15.02m-66.75-96.91h-9.07m8.7 32.03l-9.02-.02m-.32 19.19h9.35m-9.34 33.01l9.01-.53m-9.29 18.24l9.08-.56m-42.52-102.77l26.175.31m-25.44 33.64h25.515m-25.52 19.26l25.12-.17m-40.5 35.29l40.5-2.28m-152 8.56l65.1-3.67m-.195 18.87l-63.99 4.41-73.08-18.18m223.754 7.81l-40.29 2.78M232.2 238.33l123.33 6.953m-119.585-5.13l122.98 6.584m-117.63-4.93l123.24 6.13m-120.094-4.49L368.19 249m-118.89-4.133l122.654 5.558m-118.3-3.69l122.99 4.76m-120.24-3.07l124.03 4.188m-118.83-2.48l124.17 4.28m-120.55-2.92l127.7 4.87m-121.854-3.07l128.63 5.43m4.08-229.76l136.46 228.92M405.83 27.18l136.236 230.05m2.008-.33l-136.8-231.686m1.67-.978L546.514 256.6m2.976.63l-139-235.422m1.795-1.227l139.24 236.32m1.803-.29L413.968 18.14M62.488 250.92l146.498-30.84M67.16 246.587l146.832-31.705M70.91 243.114l148.84-34.21m-145.087 30.73l150.583-36.283M79.124 235.5l151.536-37.926M82.697 232.187l152.89-39.728M86.625 228.64l154.032-41.453M90.8 224.677l155.247-43.08M94.93 221.492l156.49-45.475M98.658 217.393l157.17-45.95m-153.36 42.575L260.34 165.93m-153.997 44.34l159.004-48.713M109.954 206.92l161.41-51.61m-157.327 47.827L275.38 151.14m-157.485 48.42l161.733-52.832m-158.133 49.495l163.055-54.606M125.555 192.46l163.69-55.72m-159.65 51.975l163.593-56.067m-160.023 52.758l164.73-57.644M136.807 182.03l165.86-59.223M140.982 178.16l165.335-59.146M145.33 174.862l166.58-61.656m-163.68 58.236l167.698-62.406M152.196 168.57l168.42-64.402M154.892 165.93l168.92-65.078M157.166 163.16l170.86-66.687m-167.41 63.487l171.15-67.37M164.26 156.584l171.824-68.478m-167.66 65.19l171.678-69.36M171.61 149.77S343.968 79.92 343.893 80m-169 66.728L348.07 75.66m-169.406 67.572L351.272 71.64m-169.38 68.6L356.02 67.404M186.067 136.37l173-73.14M190.66 132.932L363.576 59.56M192.69 130.23l175.158-75.106m-171.464 71.683L370.347 52.53m-170.03 70.632L373.68 49.067M204.396 119.38l172.866-74.03m-168.626 70.1l173-74.643m-169.146 71.07L385.506 36.79m-169.083 71.442L388.497 33.57M220.27 104.664l172.94-75.876m-169.435 73.33L395.49 25.844M225.52 99.8l174.044-77.61m-170.39 74.22L403.47 18.138M231.785 94.453l176.867-81.698" stroke-linecap="round"/>
    <path stroke-width="1.136" d="M417.675 9.304l-209.032 217.53-3.64-2.463L417.673 3.54 563.9 257.47l-3.338 1.518z" stroke-linecap="round"/>
    <path stroke-width="1.136" d="M419.425 6.58l1.578-.923-3.186-4.855-4.095 2.888 2.014 1.862M62.856 254.43l1.972 4.558 146.687-27.007L415.998 15.67l141.155 243.32 2.79-1.08" stroke-linecap="round"/>
    <path stroke-width="1.136" d="M205.002 224.37l-145.787 29.3 5.613.76 143.815-27.597m2.872 5.147l-3.636-5m349.27 32.008H537.5L401.697 30.794m154.038 225.748l-18.936 1.26M399.99 32.6l2.657 109.43m-8.84-102.89l2.318 101.373m34.105-50.41l60.096 99.103M400.184 40.552L427.94 86.33m108.858 172.658l-165.525-9.3m86.404 4.742l28.248-5.306 39.593.908-29.884-50.817m-180.56-75.845l154.74 33.16M308.07 129.835l166.836 33.945M329.78 134.252l.66 101.52m-8.708-103.157l1.275 102.247m74.847-86.76v24.565m4.793-23.587l.91 24.496m6.145-22.392v22.997m50.438-12.85l.608 22.41m3.982-22.02l1.024 23.31M365.33 166.91l131.297 23.402v3.295L365.33 170.24zm0 0l-34.89 8.95v1.515h3.792m1.062 0v53.85" stroke-linecap="round"/>
    <path stroke-width="1.136" d="M360.476 172.533l-19.114 4.836-6.068-.76 25.182 51.57m4.854-58.71l-4.854.91 1.366 66.9h8.343l-2.428-65.84m-1.67 65.83l-1.425-67.69m-16.708 21.15l13.497 27.41m-20.08-40.81l6.59 13.38m13.7 37.43l-28.18 3.03v9.86l28.37-3.79m-22.9-7.74v-45m0 44.29l10.29-23.65m2.18 4.47l-9.12 20.66m9.12-33.64l9.07-23.06m.27 10.16l-7.55 17.673m143.43 47.102l-125.7-11.226m124.26-43.94l1.43 46.52m-6.3-47.387l1.05 46.902m-37.06-53.31v49.885m3.35-49.29v49.29m-44.59-57.22l.79 53.488m2.75-52.858l.73 52.855m-4.27-51.973l-42.63 47.96 126.17 11.657v9.5m-88.55-71.525l-38.47 43.67m19.78-22.44l-.36-.52-10.42-14.79m-9-12.76l8.99 12.76m-10.61-6.39l18.6 24.876m6.76.675l20.53 28.146m-24.12-24.377l18.964 25.055m-1.67-10.053l6.06.578m-34.427-3.286l21.52 2.055m-30-2.867l2.17.21m31.39-1.185l9.92.956m-31.57-3.04l15.11 1.456m-27.6-2.66l6.17.59m19.71-8.623l17.98 2.29m-43.88-5.577l14.99 1.9m10-3.44l18.854 2.394m-44.73-5.677l16.03 2.033m17.543-7.414l10.79 1.813m-30.79-5.18l13.426 2.26m-27.41-4.615l7.562 1.273m30.43.166l6.77 1.095m-34.49-5.445l21.14 3.28m-31.59-5.12l3.686.6m38.88 39.842l.09 4.493m-.37-19.083l.2 10.088m-.46-24.145l.18 9.337m-.37-19.31l.095 4.98m-51.06-.88l1.826-.44m-12.96 3.18l6.563-1.61m-14.73 3.62l3.03-.74m2.92-5.76l10.3-2.33m-2.19 16.39l7-1.06m-21.05 3.18l7.56-1.14m7.34 3.15l6.15-.86m-21.055 2.96l9.53-1.2m10.59 9.72l.93-.05m-11.94.7l5.33-.31m-14.44.847l4.91-.29m2.01 4.71l9.323-1.42m-16.243 2.47l2.58-.39m107.17-35.72l-31.56 42.06m35.697-41.415l-34.65 46.15m18.94-25.02l16.44 25.49m-33.84-52.44l15.1 23.4m-.21 6.9l16.51 25.18M417 182.52l16.057 24.485m14.137-12.416l6.392 1.02m-25.742-4.13l15.048 2.41m-25.526-4.1l4.803.77m22.29 7.66l9.74 1.42m-23.39-3.41l9.27 1.35m-22.72-3.4l7.88 1.16m12.82 11.62l16.26 2.15m-36.96-4.9l15.09 2m8.72 5.71l12.4 1.44m-36.59-4.26l13.39 1.56m17.5 11.69l5.69.74m-25.34-3.31l14.46 1.89m-25.53-3.34l6.64.87m26.86 7.88l2.9.35M425.17 224l20.39 2.466m-28.237-3.38l3.342.4m30.74-33.734v4.984m-.31 4.43v8.95m0 5.24v8.96m37.15-30.06l-30.61 41.594m2.766 2.066l29.88-38.354m-31.85-10.934l16.84 22.48m13.32 21.04l2.21 3.543m-12.35-19.81l10.17 16.28m-30.96-37.7l14.47 20.62m2.77 4.58l14.28 21.51m-.49-8.92l2.17.25m-24.38-2.29l16.25 1.49m-24.24-2.22l3.57.32m24.44-1.08l4.626.575m-21.81-2.72l11.12 1.386m-22.743-2.836l7.09.88m15.38-7.44l10.71 1.273m-33.17-3.94l13.26 1.58m7.677-2.63l11.716 1.64m-32.65-4.58l13.4 1.87m13.608-6.95l5.64.94m-19.92-3.317l9.13 1.52m-21.87-3.64l6.3 1.045m23.99-.77l2.55.37m-23.8-3.447l15.76 2.28m-24.8-3.59l3.09.45m22.79-5.21l-18.793 3.1m21.72-.38l-19.294 2.72m9.647 7.07l-4.696.25m5.55 2.445l-3.21.33m-7.85-1.77l-5.81.55-.06 3.35 7.475-.98m18.248-2.37l-3.41 7.067m5.73 5.02l-6.75.5m-5.71 1.44l-3.827.64" stroke-linecap="round"/>
    <path stroke-width="1.136" d="M469.672 216.994l-8.054 1.16v3.54l5.28-.33m-4.854-3.21V214.7m0-4.15v-1.222m0-3.848v-3.645m5.144 9.425v-2.575m.375 6.402v2.11m-5.043 4.785v1.36m13.818-2.567l-2.178 4.423m4.452-.605l-.587.605m-10.462 3.77l.678 8.278m4.28-8.47l-3.21 7.683m7.04-6.75l-3.82 7.53m11.05-6.18l-8.17 1.15m-4.68.88l-2.75.62m4.17-4.02l-4.43.79m-134.62 5.26l-114.38-10.5m114.38 16.19v1.16l-126.34-7.81v-1.49M413.42 3.69L233.54 90.294v2.49L414.114 7.237M233.042 92.785L59.546 253.605m21.804 2.34l10.578 1.525m122.198-22.202L91.928 257.47l4.916 9.235" stroke-linecap="round"/>
    <path stroke-width="1.136" d="M225.635 235.98l47.844 18.53 137.31 6.793-60.13-17.674-18.16-1.05" stroke-linecap="round"/>
    <path stroke-width="1.136" d="M220.58 236.656v2.744l52.538 18.07 137.5 5.995.173-2.162m-137.31-6.793l-.36 2.96m-52.48 8.046l-.05 1.317 52.54-2.044v-6.86" stroke-linecap="round"/>
    <path stroke-width="1.136" d="M94.93 262.873l126.776-23.086-.28 6.69m51.692 18.313l134.417 5.29v-6.748M368.18 67.782l24.26 8.062v26.434l-29.548-7.8V71.844m13.973-1.177V97.52" stroke-linecap="round"/>
    <path stroke-width="1.136" d="M379.545 73.993l10.707 3.173v21.28L379.017 95.8zm-2.68 0l-12.203-4.022m0 .7v22.12l11.578 3.41m51.996-9.38l1.402.5 1.34 24.09-26.85-6.61-.57-26.7 24.678 8.73m-10.416-3.69v25.03" stroke-linecap="round"/>
    <path stroke-width="1.136" d="M418.402 86.22l9.12 2.84.926 19.1-10.046-2.05m-3.172-21.08v20.553l-9.118-2.512-.53-21.28zm-23.74 62.52l.91 23.45m-61.96-33.674l61.05 11.753m.91 25.97l.04 10.85m5.414-9.89v9.88m-5.454 4.81l.04 4.37m6.422 1.15v5.34m0 4.71v4.19m.353 11.01v9.35m-6.775-19.61v4.58m0 4.93v8.77M389.162 175v9.45m-.15 5.692v8.36m-.172 8.975l-.082 8.224m0 4.4v9.41m14.992-52.48v5.15m.345 10.48v9.14m0 5.37v9.58m0 10.07v4.01m5.965-77.97l50.08 9.78m-71.127 7.67l-.255-21.8m67.71 14.13v20.46m4.36 3.9v2.17m4.926-.55l-.11 5.71m-30.542-36.58v20.95m-2.052-21.344v21.34m0 3.78v9.314m2.052-9.31v10.172m0 4.24v4.91m-2.052-4.91v2.29m2.052 12.59v8.67m-2.052-6.79v6.772m2.052 4.83v8.6m-2.052-9.05v8.88m-72.085-90.52v24.24m-1.967-24.24v25.06m27.365 225.64l141.932-11.42v-2.697l-1.534.43m-176.21 16.56l27.03-2.29m-60.21 5.02l24.91-2.053m-100.92 5.81l8.83-.427" stroke-linecap="round"/>
    <path stroke-width="1.136" d="M386.364 391.322l141.043-11.147-1.89-121.822M350.55 393.575l27.03-1.7m-60.22 4.865l24.91-2.488m-100.93 6.178l8.834-.84m-34.25 2.453l17.03-1.082m-17.03 1.09l-134.168 6.59v2.49l151.195-7.34m153.27-12.46l-1.29-121.25m-9.2-1.25l2.11 134.1s1.63.77 4.64.77c3.02 0 3.88-.76 3.88-.76l-.12-11.59M347.75 272.2s.25-1.055-3.66-1.055-3.76 1.057-3.76 1.057l2.04 128.54s2.283 1.77 4.34 1.64c2.21-.14 3.85-1.63 3.85-1.63l-2.82-128.54z" stroke-linecap="round"/>
    <path stroke-width="1.136" d="M234.178 266.833l-1.223 142.85s-.174 1.448 3.748 1.448 4.06-1.44 4.06-1.44l1.648-142.98m22.56 147.78s3.14 1.42 5.47 1.42c2.33 0 4.9-1.41 4.9-1.41l.73-145.65s-1.57-.72-4.03-.72-4.76.73-4.76.73l-2.29 145.66zm75.36-128.38h-32.34v62.75l33.56-1.99" stroke-linecap="round"/>
    <path stroke-width="1.136" d="M340.326 293.34l-26.94-.85v49.54l26.94-1.753m-24.64-47.787v49.39m22.54-48.114l.85 46.51" stroke-linecap="round"/>
    <path stroke-width="1.136" d="M319.783 341.613l-.578-45.15h16.04l.994 43.814m-.53-23.02l-16.25.214m16.31 2.87h-16.31m16.63 14.13l-16.41.76m16.08 2.41l-16.05.85" stroke-linecap="round"/>
    <path stroke-width="1.136" d="M319.7 299.018h13.275v18.003m2.27-20.55l-2.27 2.56m0 21.32l.567 14.13m41.732-48.36H364.06l.995 57.78 11.827-1.28m8.808-.98l9.742-1.33-.974-54.18h-9.36" stroke-linecap="round"/>
    <path stroke-width="1.136" d="M375.722 290.643h-7.118l.993 46.088h7.193m8.356-46.08h6.168v45.24h-4.967m-14.867-45.24l1.216 46.09m16.49-46.08v44.58" stroke-linecap="round"/>
    <path stroke-width="1.136" d="M374.423 335.876v-38.703h1.745m9.042-.71h1.847l.567 39.413m-2.228-22.02h1.91m-.96 2.314l.96.355m-12.01-2.67h.872m-1.745 2.67h2.05m0 16.987h-2.05m0-2.272h2.28m8.867-1.03h1.737m-1.703 3.302h1.986m70.102 52.172l-2.216-101.003 52.336.78 2.642 95.86" stroke-linecap="round"/>
    <path stroke-width="1.136" d="M460.586 290.643l44.004 1.846 2.058 82.79-44.146 3.83z" stroke-linecap="round"/>
    <path stroke-width="1.136" d="M501.75 292.49l1.917 80.67-41.196 4.12m41.2-4.12l2.98 2.128m-27.04-82.798l2.77 82.798m-4.6-83.924l3.04 83.924" stroke-linecap="round"/>
    <path stroke-width="1.136" d="M483.368 298.308l13.698.568 1.988 64.16-13.634 1.474zm6.935.83l2.392 64.585m-7.275-12.397l13.23-.51m-13.23-12.596l12.836-.353m-14.056-12.75l13.646-.692m-14.164-12.062h13.243m-35.63-14.055l12.918.568 1.637 66.367-12.74 1.42m3.722-67.787l2.095 67.076m-7.63-53.59h12.632m-12.64 13.343h12.63m-11.96 13.91l13.2-.71m-13.2 14.338l13.2-1.27M276.62 279.43l25.48.355.994 116.89 14.265.064" stroke-linecap="round"/>
    <path stroke-width="1.136" d="M276.62 286.1h21.86l1.49 110.64h-4.187l-.567-106.202-18.596.105m-26.33 3.265s7.167-.567 8.728 0c1.562.568 1.566 2.81.284 2.556-1.202-.238-8.375.07-9.51-.355-1.135-.43-.64-2.21.497-2.21zm.283 2.555v7.38m9.227-6.953v6.954m-10.187.426h10.972m-10.367 0s-.785 1.903 4.258 1.917c6.108.016 4.968-1.917 4.968-1.917m-8.87-10.858v-.923m8.446 1.41v-1.42m-9.407-1.14c-.388.99.605 1.2 4.012 1.13 3.406-.08 6.618.28 6.604-1.07-.02-1.35-2.5-3-5.54-2.84-3.18.16-4.69 1.77-5.08 2.77z" stroke-linecap="round"/>
    <path stroke-width="1.136" d="M251.34 289.51l.35-10.08h15.412" stroke-linecap="round"/>
    <path stroke-width="1.136" d="M266.472 286.1H255.47v2.488m-4.13 17.182l-1.166 97.057 4.287-.422.02-96.218m0 95.327l4.54-.553-.75-95.19m8.21-15.23l-6.67.11m16.26 106.34l19.73-1.6m-36.24 3.43l5.6-.71m-5.59 2.86l5.6-.51m-.16 4.2l-23.99 2.1m34.54-6.74l41.83-3.27v3.27l-41.65 3.68m4.46-34.4h12.2v17.89l-12.21.81z" stroke-linecap="round"/>
    <path stroke-width="1.136" d="M282.44 371.838h5.855v11.497h-5.855zm5.856 11.497l4.08 3.833m-4.08-15.33l3.513-2.555m-9.37 2.555l-2.27-2.555m2.27 14.052l-2.27 4.645m-14.88-16.142h-2.16v18.595h2.15m10.39-27.963l16.69-.568-.57-65.013-15.76.28m-10.76 66.15h-2.16v-5.43m0-14.02v-46.33h3.48" stroke-linecap="round"/>
    <path stroke-width="1.136" d="M276.62 302.6s10.606 2.402 10.606 27.08-7.058 27.872-8.707 27.82c-1.04-.03-2.82-.845-2.82-.845" stroke-linecap="round"/>
    <path stroke-width="1.136" d="M276.62 359.12l12.25-.657-.574-58.31-12.368.214m12.368-.213l3.513-3.265m-2.94 61.57l3.5 3.44" stroke-linecap="round"/>
    <ellipse cx="261.282" cy="335.661" stroke-width="1.136" stroke-linecap="round" rx="1.578" ry="2.424"/>
    <ellipse cx="261.752" cy="356.623" stroke-width="1.136" stroke-linecap="round" rx="1.706" ry="1.841"/>
    <path stroke-width="1.136" d="M265.634 352.202s-2.986-.236-4.025-.023-.24-1.03-.8-4.65c-.56-3.63-1.54-6.32.47-6.7 2-.39 1.85 4.6 1.85 4.6v4.35l2.5.3m-2.5 5.46v-3.46m112.16-82.01l-27.41 2.11m-7.56.83l-64.28-3.5m-9.58-.7l-24.08-.73m-21.82-1.27l13.5 13.19m42.53 25.21s8.85 4.34 8.74 23.62c-.11 19.28-5.69 28.95-9.32 25.44" stroke-linecap="round"/>
    <path stroke-width="2.271" d="M241.96 349.137l9-.515m-43.05 3.008l26.066-1.877m8.536-54.905h6.704m-41.306.222l26.455-.222m-9.723-24.106v131.105M508.244 298.59l18.027.207m-131.54-1.502l60.75.706m-106.97-1.23l15.66.18m-61.53-.7l5.33.06m201.64 40.55l17.25-.78m-141.27 6.84l71.75-3.66m-107.72 4.92l27.45-1.25m-73.98 3.38l4.99-.23M446 254.35l2.29 132.61"/>
    <path stroke-width="1.136" d="M447.127 262.873l75.102 3.96m-.5-8.933l3.92 122.213"/>
    <ellipse cx="483.738" cy="278.872" stroke-width="1.136" stroke-linecap="round" rx="1.682" ry="3.612"/>
    <ellipse cx="482.712" cy="333.138" stroke-width=".568" stroke-linecap="round" rx=".656" ry=".948"/>
    <path stroke-width="1.136" d="M456.408 390.433l70.772-5.58 51.566 4.197-73.36 9.787z" stroke-linecap="round"/>
    <path stroke-width="1.136" d="M456.408 390.433v4.17l48.98 8.75 73.358-11.225v-3.078" stroke-linecap="round"/>
    <path stroke-width="1.136" d="M456.408 394.602v4.717l48.98 8.96 71.744-11.07v-3.97m-71.745 15.04v-9.45M232.82 410.58l-5.39-.31 45.002 7.943 126.447-14.36-12.43-1.527m-35.82-3.076l6.04-.583 20.88 2.565m-101.97 5.235l66.69-6.416m-101.25 9.75l23.92-2.3m-37.52 5.5L82.69 423.89l35.646 10.48 154.09-14.208m-45-7.38v-2.51" stroke-linecap="round"/>
    <path stroke-width="1.136" d="M398.592 403.884v2.89l-125.72 15.33m-190.175 1.782v1.538l34.75 10.893 154.985-14.212v-3.892m-35.972-173.35v5.254l-4.436 1.692-162.97 62.16-1.893-3.99zm-3.113 6.617l.812 8.482-158.56 65.11-2.98-11.64m-5.47-3.446L.57 313.433v3.588l68.485-3.04m-68.487-.54l96.276-46.72 139.616-21.85m-234.7 72.5l1.78 8.51 72.06-.79m-64.715.8v21.24m197.02-76.37v79.75l-14.848.82m-45.854 3.63l-65.453 2.97.7-35.66" stroke-linecap="round"/>
    <path stroke-width="1.136" d="M147.21 357.125l-65.453 3.337-73.05-11.21v-2.144l73.05 10.81m110.437-3.52l15.727-1.137m-.01-2.76v51.15M81.76 361.3v47.35L9.6 388.807V349.47" stroke-linecap="round"/>
    <ellipse cx="186.568" cy="285.006" stroke-width="1.136" stroke-linecap="round" rx="3.673" ry="3.582"/>
    <path stroke-width="1.136" d="M184.254 287.786s.31-2.41 2.71-2.41c2.18 0 2.29 1.357 2.29 1.357m32.063-30.84l-.737-5.476L90.8 269.64m56.63 135.19l1.195-105.812 43.56-.496V403.04" stroke-linecap="round"/>
    <path stroke-width="1.136" d="M156.623 308.858l26.018-.397-.45 42.49-26.09.69z" stroke-linecap="round"/>
    <path stroke-width="1.136" d="M149.974 405.342l.797-104.58 39.47-.353v102.63m-41.06-103.52l1.95 1.24m41.07-1.69l-1.94 1.33m-20.43 8.76v42.14m-13.34-29.1l25.56.05m-25.76 15.77l25.41-.51" stroke-linecap="round"/>
    <ellipse cx="186.234" cy="347.182" stroke-width="1.136" stroke-linecap="round" rx="1.284" ry="1.439"/>
    <ellipse cx="186.411" cy="328.951" stroke-width="1.136" stroke-linecap="round" rx="1.107" ry="1.094"/>
    <path stroke-width="1.136" d="M160.45 362.954l19.217-1.128-1.004 37.764-18.684 1.37zm-3.356-3.67l3.357 3.936m22.67-5.223l-3.45 4.425" stroke-linecap="round"/>
    <path stroke-width="1.136" d="M178.663 399.224l4.427 3.603.03-44.83-26.026.707-1.003 45.935 3.89-3.68M44.75 330.07l24.306-1.124v23.925l-24.306-3.3zm9.468-.438v20.98" stroke-linecap="round"/>
    <path stroke-width="1.136" d="M56.9 331.866l9.307-.52-.347 18.565-8.96-1.3zm-2.685 0h-6.733v15.702l6.232.52M35.93 328.95l-.607 19.14-9.197-1.65v-17.49z" stroke-linecap="round"/>
    <path stroke-width="1.136" d="M35.323 331.606l-7.375-.26v12.58l7.375.606M26.82 328.95l1.128 2.656m0 12.32l-1.822 2.514m190.2-79.153l-.403 134.756M9.593 388.805v1.756l72.164 20.57.94 14.3M227.43 413l44.307 7.163" stroke-linecap="round"/>
    <path stroke-width="1.136" d="M9.593 390.56v9.49l73.104 25.374" stroke-linecap="round"/>
    <path stroke-width=".568" d="M81.757 374.64L9.593 362.47m190.465 23.694l-.078 16.663m.23-49.01l.276 13.82m-57.92 3.503v18.985m-16.968-31.662v13.375m.355 19.62v15.01m-25.503-32.883v19.14m-11.446-31.683v13.19m1.022 19.343v14.66M71.436 372.9v18.557m-8.97-33.955v13.638m0 18.084v14.035m-14.984-34.4v16.39m-5.892-30.96v13.57m0 16.16v12.95m-14.206-31.51v15.02m-7.688-29.18v12.86m0 14.4l-.457 12.87" stroke-linecap="round"/>
    <path stroke-width="1.136" d="M528.295 382.484l.934 2.534M398.86 404.83l57.546-7.393M101.17 268.103L9.592 312.966M116.18 265.88l-94.1 46.365m172.628-57.735L59.215 310.398m113.96-52.928l-123.88 53.44m100.854-50.062L42.34 311.27m87.998-47.487L32.493 311.78" stroke-linecap="round"/>
  </g>
</svg>
