<svg xmlns="http://www.w3.org/2000/svg" width="285" height="60" viewBox="0 0 242.026 50.728">
<!--
<svg xmlns="http://www.w3.org/2000/svg" width="242.026" height="50.728" viewBox="0 0 242.026 50.728">
-->
  <path fill="#ED6C00" d="M0 .01h12.02l11.373 24.686L35.346.01h4.103L21.93 39.17 10.14 17.976v21.26H0M41.162.01h6.01v39.16h-9.498V17.977l-9.73 21.195H24.04M50.143.01h7.432v7.174h-7.432zm0 10.415h7.432v28.81h-7.432zM67.633 0l-5.986.01v33.474c0 2.714 1.68 5.687 6.008 5.687h8.078v-4.65s-3.36-.13-5.816-.13c-2.455 0-2.39-1.35-2.39-2 0-.64.028-16.86.028-16.86h7.016v-5.1h-6.92L67.64 0zm40.232.038l-5.988.01v33.474s1.68 5.688 6.01 5.688h8.078v-4.653s-3.36-.13-5.816-.13-2.4-1.357-2.4-2.003.03-16.866.03-16.866h7.01v-5.095h-6.93V.038zm-24.02 10.387h-6.192v22.942c0 3.193 2.58 5.918 5.918 5.918h14.62v-28.86H92.1V34.64h-5.48c-1.274 0-2.796-.83-2.796-2.794s.024-21.42.024-21.42zm45.267-1.03c-2.166 0-11.833-1.22-11.833 15.972s9.16 15.11 11.83 15.11 11.92.946 11.92-15.11-7.56-15.973-11.92-15.973zm.043 25.75c-1.375 0-5.375.045-5.375-9.417 0-10 2.5-10.75 5.375-10.75 4.29 0 5.54 3 5.54 10.39 0 9.722-4.165 9.777-5.54 9.777zm50.625-26.35c-2.168 0-11.834-1.22-11.834 15.973 0 17.194 9.166 15.11 11.834 15.11 2.666 0 11.916.945 11.916-15.11 0-16.056-7.553-15.973-11.916-15.973zm.04 25.75c-1.374 0-5.374.045-5.374-9.416 0-10 2.5-10.75 5.375-10.75 4.3 0 5.55 3 5.55 10.39 0 9.72-4.16 9.77-5.54 9.77zm-32.958-24.12h-6.916l9.916 26.886-5.832 13.42h3.724l16.916-40.3h-4.058l-6.75 16.22m12.334-16.22l-16.834 40.3h3.25l16.668-40.3"/>
  <path d="M204.65 28.548h2.16v6.797c0 .89-.08 1.572-.235 2.05-.21.626-.59 1.128-1.143 1.506-.55.38-1.28.57-2.182.57-1.06 0-1.875-.29-2.447-.89-.57-.59-.86-1.46-.863-2.61l2.043-.23c.025.62.115 1.05.27 1.31.235.39.59.58 1.07.58.483 0 .825-.13 1.024-.41.2-.27.3-.85.3-1.71v-6.94zm5.99 5.332l-1.868-.337c.21-.752.572-1.31 1.084-1.67.514-.36 1.275-.542 2.285-.542.92 0 1.61.11 2.06.33s.77.5.95.83c.19.34.28.95.28 1.84l-.02 2.4c0 .69.04 1.19.1 1.52.07.33.19.68.37 1.05h-2.03c-.05-.13-.12-.34-.19-.6-.03-.12-.06-.2-.07-.24-.353.34-.73.6-1.13.77-.4.17-.83.26-1.282.26-.8 0-1.434-.21-1.895-.65-.46-.43-.69-.98-.69-1.64 0-.44.1-.83.31-1.172s.506-.61.885-.79c.37-.186.92-.346 1.63-.48.96-.18 1.63-.35 2-.51v-.204c0-.393-.1-.68-.295-.844-.194-.164-.56-.25-1.106-.25-.363 0-.65.07-.853.22s-.37.395-.5.756zm2.755 1.67c-.264.088-.682.192-1.254.315-.57.12-.94.24-1.11.358-.27.19-.4.433-.4.726 0 .28.11.53.32.74.22.21.49.31.82.31.37 0 .73-.13 1.07-.37.25-.19.41-.41.49-.68.06-.18.08-.51.08-1.01v-.41zm3.99-4.043h1.92v1.143c.248-.39.586-.708 1.01-.952.426-.244.896-.366 1.414-.366.9 0 1.67.354 2.3 1.062.63.71.94 1.695.94 2.96 0 1.298-.32 2.308-.95 3.028s-1.41 1.08-2.31 1.08c-.43 0-.82-.086-1.17-.256-.35-.172-.72-.465-1.1-.88v3.92h-2.06v-10.74zm2.037 3.757c0 .875.174 1.52.52 1.938.348.418.77.627 1.268.627.48 0 .877-.2 1.193-.58.318-.39.477-1.02.477-1.89 0-.82-.164-1.42-.49-1.82-.328-.4-.732-.6-1.217-.6-.502 0-.92.19-1.252.58-.33.38-.49.96-.49 1.72zm8.723-1.384l-1.867-.337c.21-.752.57-1.31 1.084-1.67.512-.36 1.273-.542 2.285-.542.918 0 1.602.11 2.05.33s.767.5.948.83c.184.34.275.95.275 1.84l-.02 2.4c0 .69.032 1.19.097 1.52.066.33.19.68.37 1.05h-2.036c-.05-.13-.11-.34-.19-.6l-.07-.24c-.35.34-.73.6-1.13.77-.4.17-.82.26-1.28.26-.8 0-1.43-.21-1.89-.65-.46-.43-.69-.98-.69-1.64 0-.44.11-.83.32-1.172.21-.346.51-.61.89-.79.38-.186.93-.346 1.64-.48.97-.18 1.63-.35 2-.51v-.204c0-.393-.09-.68-.29-.844-.19-.164-.56-.25-1.1-.25-.36 0-.65.07-.85.22s-.374.395-.5.756zm2.754 1.67c-.27.088-.69.192-1.26.315-.57.12-.95.24-1.12.358-.27.19-.41.433-.41.726 0 .28.1.53.32.74.21.21.48.31.82.31.37 0 .72-.13 1.06-.37.24-.19.41-.41.49-.68.05-.18.08-.51.08-1.01v-.41zm11.12 3.735h-2.06v-3.97c0-.84-.05-1.383-.13-1.63-.09-.246-.23-.438-.43-.574s-.44-.2-.72-.2c-.36 0-.68.1-.96.3s-.48.46-.59.78-.16.92-.16 1.79v3.52h-2.06v-7.78h1.91v1.15c.68-.88 1.53-1.32 2.56-1.32.45 0 .87.09 1.24.25.38.16.66.37.856.62s.33.54.4.87c.076.32.115.78.115 1.386v4.84z"/>
</svg>
