<svg xmlns="http://www.w3.org/2000/svg" width="300" height="300" version="1" viewBox="90 -40 300 720" >
  <g fill="#231916" fill-rule="nonzero">
    <path d="M129.882 55.103c1.67-.557 2.618 1.09 2.836 2.182.218 1.09-1.308 1.31-2.4.874-1.09-.44-3.054-2.19-.436-3.06"/>
    <path d="M209.53 191.925c-3.272.654-10.474.218-14.183-2.4-3.71-2.62-1.31-3.492 1.09-4.8 2.403-1.31 9.385-2.62 11.566-1.53 2.183 1.092 10.695 1.692 11.348 1.748 2.62.217 6.99 1.31 9.39.872 2.4-.435 10.26 0 12.01-.218 1.75-.217.87 1.528.87 2.4 0 .873-5.02 3.928-6.33 3.055-1.3-.872-3.7.22-6.32.655-2.62.436-16.15-.436-19.42.218m3.06 6.765c-1.52-.22-5.67-2.62-4.8-3.492.88-.873 5.24-.873 5.9-.654 1.11.372.44 4.364-1.09 4.146m-18.11-1.528c-.44-1.31-1.09-4.145-.22-4.8 0 0 4.59.872 4.37 1.527-.21.65-3.71 4.58-4.14 3.27m18.55-38.84c-1.75-4.37-8.29-21.17-12.44-25.97-4.14-4.8-2.18-6.99.66-7.64 2.84-.66 9.39-.44 11.13-.44 1.75 0 13.97-8.51 13.97-8.51s9.6 4.36 12.22 6.54c2.62 2.18 27.28 8.94 36.22 10.91 8.95 1.96 21.17 2.84 23.57 3.71 2.4.87-1.31 8.51-1.74 9.38-.43.87-3.71-.88-6.55-1.31-2.83-.44-12.44-3.49-17.23-3.49-4.8 0-12.22-1.97-13.75-3.5-1.53-1.53-19.42-5.24-23.57-6.11-4.14-.87-16.8-3.71-18.54-4.36-1.74-.66-4.36-1.53-1.96.87s10.7 16.36 16.81 27.71c6.11 11.34 4.36 25.09 3.71 25.96-.65.87-12.66 1.31-14.84.65-2.18-.66-5.89-20.08-7.64-24.44m-16.8-42.99c2.18-1.09 11.13-4.37 10.69-9.6-.43-5.24-5.01-9.6-8.07-13.1-3.05-3.49-5.24-6.11-8.73-7.42-3.49-1.31-7.98-6.62-6.55-6.33 1.09.22 6.55-1.97 8.51-1.97s12-.22 15.93 3.49c3.93 3.71 10.04 9.17 13.09 14.4 3.06 5.24 4.37 15.28-3.92 21.17-8.29 5.89-9.6 4.14-12.65 3.05-3.05-1.09-10.47-2.62-8.29-3.71m-1.31 7.2c-2.4 1.09-4.58 1.96-8.51 1.09-3.93-.87-7.42 0-7.42-3.05s-1.96-5.89.87-6.33c2.84-.44 8.08.65 9.82 1.09 2.29.57.87 1.96 2.84 2.84 1.96.87 4.8 3.27 2.4 4.36m-40-12.4c-4.14-.22-24.66-1.09-27.27-2.62-2.62-1.53-18.98-4.59-25.53-5.24-6.55-.66-24.44-3.93-25.53-5.24-1.09-1.31 18.55-1.96 21.82-2.4 3.27-.44 25.96-1.53 29.89-1.31 3.92.22 20.07-.65 23.34-.87 3.27-.22 18.98.22 21.6-.44 2.62-.66 20.31-.07 21.82.44 1.31.44 4.58 5.02 5.89 6.33 1.31 1.31 3.27 8.07 1.31 7.64-1.97-.43-9.82 5.24-10.48 5.24-.66 0-10.48 0-13.75-.65-3.28-.65-18.99-.65-23.13-.87m-2.62-34.91c-1.09-2.18 2.18-.87 3.93-.87 1.74 0 4.14 1.53 4.14 1.53 6.76-.65 9.6-1.53 10.25-.65.65.87 5.24 1.09 4.58 3.27-.66 2.18.87 4.8 5.23 8.08 2.89 2.17 5.58 2.61 7.07 2.67l1.22-.04s-.46.07-1.22.05c-1.79.07-5.09.18-6.64.18-2.19 0-8.29-.87-10.91-.66-2.62.22-5.68.44-7.2-1.74-1.53-2.18-2.18-4.15-3.28-5.02-1.1-.87-6.12-4.58-7.21-6.76m-13.09-5.02c-7.42-1.31-18.55-6.98-17.24-7.2 1.31-.22 7.2.65 8.95 1.96 1.75 1.31 8.29 2.84 12 2.84 3.71 0 9.39-1.75 9.39-1.75 2.18 1.97 8.95.44 11.78.66 2.84.22 10.69 1.53 12 1.09 1.31-.44-.22 1.53-2.18 2.4-1.96.87-11.13 3.71-12.87 3.06-1.74-.65-3.71-.44-5.45-.87-1.75-.44-8.95-.88-16.37-2.19m-21.6-13.1c-1.31-3.49 1.88-5.43 3.93-5.67 3.71-.44 15.06 1.09 18.33 2.18 3.27 1.09 10.48 2.84 12.44 6.76 1.96 3.93-7.86 5.24-9.39 5.67-1.52.44-13.53-3.05-16.36-4.58-2.84-1.52-7.64-.87-8.95-4.36m13.75-9.6c1.53.44 18.11 4.37 19.86 5.46 1.75 1.09 1.96-1.09 1.96-1.09s-3.93-1.31-3.71-2.19c.22-.87 3.27.88 6.55 1.53s12.65 2.62 14.62 3.93c1.96 1.31 3.27 3.93 2.62 3.71-.66-.22-14.18-1.53-15.49-1.74-1.31-.22-5.46-.44-5.46-.44s-6.763-4.36-8.29-5.02c-1.53-.65-12.657-3.27-14.4-3.27-1.75 0-6.55.22-6.55.22l-1.31-2.62c1.53.44 8.073 1.09 9.6 1.53m24 12.21s2.4-.22 6.11-.43c3.71-.22 12.22 2.18 13.31 2.18 1.09 0 2.4 3.27 1.744 3.27-.65 0-5.89.65-8.73.22-2.83-.44-12.213-.44-12.213-1.09s1.09-3.71-.22-4.15m20.29-13.53c7.64-.22 24 1.96 26.84 1.74 2.84-.22 6.54 0 4.58 1.74-1.97 1.75-10.472 6.985-12.872 8.51-2.4 1.53-13.97 6.33-13.97 5.02 0-1.31-1.96-5.456-5.02-6.98-3.05-1.53-10.04-6.766-18.11-8.076 0 0 10.91-1.74 18.55-1.96M242.44 92c6.76-.22 23.345-1.75 27.93-1.31 4.58.43 25.315-.66 28.587-.44 3.27.22 20.51-1.09 18.55 0-1.97 1.09-12.44 7.203-13.97 8.51-1.53 1.31 4.58 1.75 6.325 1.97 1.75.22 10.474.652 12.44 0 1.965-.66 12.655.87 13.965.65 1.31-.22-10.04 7.64-28.804 9.16-18.76 1.53-32.51 3.49-36.44 3.05-3.926-.432-15.926-1.523-18.98-1.31-3.06.22-21.39-.87-23.13-.43-1.75.44.434.22-1.31-8.51s-1.75-9.82-1.75-9.82c1.09-.87 9.815-1.31 16.58-1.524m60.008 50.41c1.09-1.96-.91-5.52-.44-7.42.87-3.49 3.93-2.83 7.42-1.96 3.49.87 2.4 5.67 2.84 10.91.44 5.24-1.74 13.967-8.72 13.75-6.98-.22-4.58-6.33-4.15-6.984.44-.655 1.97-6.33 3.06-8.29m14.62 16.364c-.65.872-5.67 2.62-6.55.872-.87-1.747.88-1.964 1.97-3.055.79-.79 5.24 1.31 4.58 2.18m-3.27-7.64c1.75-1.09 2.4-1.967 2.4-1.967 1.53.22 3.93 1.095 4.37 1.97.44.87-3.92 2.62-5.02 2.62-1.09 0-3.49-1.53-1.74-2.62m8.95-18.12c0 .872-3.71 4.363-5.45 3.27-1.74-1.09-3.05-3.49-3.05-3.49.65-.22 8.51-.657 8.51.216m2.18 10.04c.22.437-4.15 2.18-6.33 1.74-2.19-.43-3.5-3.27-1.75-5.01.77-.77 7.85 2.834 8.07 3.27m-82.26 50.63c.87 1.53 1.75 2.62.44 3.056-1.31.434-2.18-1.31-2.18-1.31s-2.84-.656-1.75-1.965c1.09-1.31 2.62-1.31 3.49.22m-15.71 5.02c-.87-.43-4.58-2.62-3.49-3.49 0 0 4.36-1.31 5.24-.22.87 1.09-.87 4.15-1.75 3.71m-6.54-.87c-.66.87-2.18 3.27-1.96 1.31.22-1.96.65-3.71.65-3.71s1.97 1.53 1.31 2.4M114.17 52.92c-.872.873-.436 1.745-.436 3.054 0 1.308-4.8-1.528-8.51-2.182-3.71-.655-5.02-.655-6.328.217-1.31.87-7.2-3.27-10.693-3.93-3.49-.66-8.728-1.75-11.13-1.53-2.4.22-2.18 1.96-1.745-1.53.436-3.5 2.254-5.17 3.49-5.46 8.294-1.97 17.896 2.4 25.097 4.8 7.2 2.4 12.002 5.02 12.002 5.02s-.874.65-1.746 1.53m-.21 8.07c-.22 1.09-3.71.65-5.23-.22-1.53-.87-4.58-1.09-6.11-2.18-1.53-1.09 1.31-1.78 2.4-1.97 2.62-.44 4.15.22 6.11 1.09 1.97.87 3.06 2.18 2.84 3.27m-42.34-19.2c-.65.43-.43 2.18-.87 4.14s-5.67 1.31-11.56.43c-5.89-.88-5.89-4.8-4.36-8.73 1.53-3.93 5.01-2.43 6.98-3.49 2.83-1.53 6.54 3.71 8.51 4.14 1.96.44 1.96 3.05 1.31 3.49m-6.98 25.1c-1.09 1.97-2.62 3.49-3.05 1.75-.43-1.75 1.08-3.78 2.4-3.93 1.97-.22 1.75.22.66 2.18M213.5 41.32c2.835-.66 6.545 0 7.854 1.525 1.31 1.53.22 3.27-1.53 3.93-1.743.66-3.925 2.4-5.234.88-1.308-1.53-3.928-1.967-5.018-2.84 0 0 1.09-2.838 3.928-3.49M517 405.99c-3.93-17.02-22.477-64.15-25.313-66.77-2.838-2.61-9.383-3.92-10.91-1.3-1.53 2.62-6.11 39.714-5.676 47.133.44 7.417-4.58 37.314-5.45 42.987-.87 5.673-4.58 18.766-6.11 17.24-1.52-1.53-15.71-50.41-17.89-60.883-2.18-10.474-10.91-30.99-16.15-53.466-5.24-22.47-11.35-53.46-13.31-69.83-1.96-16.36-1.74-44.51-3.27-44.51s-7.64.22-7.42 5.46c.22 5.24 2.4 11.79.22 26.84-2.18 15.06-10.26 48.67-12.44 61.11-2.18 12.44-6.98 46.92-10.9 59.14-3.93 12.22-16.15 41.03-16.15 49.54 0 8.52-3.27 14.84-4.58 15.28-1.31.44-12-30.98-13.31-44.08-1.31-13.09-12.87-47.78-13.74-52.15-.87-4.36-3.27-14.18-4.58-12.87-1.31 1.31-5.24 17.24-5.67 22.69-.43 5.46-6.11 35.13-6.98 38.19-.87 3.06-15.27-38.84-18.54-51.93-3.27-13.09-10.48-29.02-12.44-36.44-1.97-7.42-7.2-44.52-10.91-53.9-3.71-9.38-4.37-37.97-8.08-39.06-3.71-1.09-3.06 20.73-4.8 23.79-1.74 3.06-.65 19.86-2.83 25.75-2.18 5.89-5.02 35.35-5.46 48.66-.44 13.31-.87 46.7-2.84 51.5-1.97 4.8-2.4 17.24-3.93 14.4-1.53-2.83-11.13-62.19-14.4-72.23-3.28-10.04-10.04-37.53-11.13-43.86-1.09-6.32-2.84-22.69-3.27-28.36-.43-5.67-.87-20.08.44-21.38 1.31-1.31 2.4-3.05 3.49-2.84 1.09.22 3.06 2.41 4.15 2.41 1.09 0 4.8-5.89 5.45-6.54.66-.66 1.31-3.49 2.84-2.84 1.53.65 6.11 7.42 9.39 9.16 3.27 1.75 1.31-6.54 1.09-7.2-.22-.65-1.31-2.62-.66-3.49.66-.87.88-4.36-1.31-7.85-2.18-3.49-3.49-1.97-3.49-3.71 0-1.75-.65-15.71-5.45-26.19s-13.74-20.73-14.62-22.26c-.87-1.53 21.61 5.89 27.93 7.2 6.33 1.31 24.23 5.02 26.84 5.67 2.62.66 13.75 2.62 15.49 4.15 1.75 1.53 5.02 1.09 5.02 2.84 0 1.75-.22 5.45 1.97 7.42 2.18 1.97 7.86.88 10.26 2.19 2.4 1.31 2.84 1.74 6.11 1.74 3.27 0 10.04-.44 10.69-1.53.66-1.09-6.98-5.24-7.63-5.24-.65 0 3.06-1.74 5.46-1.74s5.24-.22 5.89-1.09c.66-.87-3.49-2.83-5.67-3.71-2.18-.87-5.46-3.05-3.28-3.27 2.19-.22 7.64-.87 9.6-1.31 1.96-.43 4.36-2.4 2.18-2.62-2.18-.22-11.78-3.71-11.13-4.58.66-.87 4.8-2.84 6.98-3.71 2.19-.87 2.84-3.49 1.75-3.27-1.09.22-8.95-.87-10.04-.87-1.09 0-5.01.44-6.76.44s-2.84-1.31-6.55-.44c-3.71.87-5.46 1.97-6.11 4.8-.32 1.36-9.82-.43-13.31-.87-3.5-.44-16.37-4.36-25.32-6.55-8.94-2.18-25.96-8.29-24.66-8.72 1.31-.44 4.37 1.09 4.15-.22-.21-1.31-.21-3.05-.21-3.05s7.64.87 13.97.66c6.33-.22 20.95.87 32.3 0 11.35-.88 24.88-1.75 29.68-2.84 4.8-1.09 19.2-6.33 21.17-7.64 1.96-1.31 10.25-3.71 11.13-3.93.87-.22.21-2.18.21-2.18s-5.23.65-11.34-.22c-6.11-.88-13.53.22-17.24-.22-3.71-.44-9.16-.66-9.16-.66s5.46-3.71 8.08-4.8c2.62-1.09 7.42-4.15 8.29-4.366.87-.22-8.73-1.1-15.05-.66-6.33.43-33.39-1.09-37.315-.66-3.93.43-18.98 1.31-24.22 1.09-5.24-.22-18.76.65-19.42.43-.65-.22-6.98-12.44-14.84-15.93-7.85-3.49-11.56-4.8-19.64-3.927-8.07.87-10.69-.22-11.56-.22-.873 0-3.49.22-5.02 0-1.53-.213-2.834-.43-.22-1.09 2.62-.65 12-5.45 17.46-8.73 5.457-3.27 10.69-7.42 11.57-8.29.88-.87 2.84-2.62 4.8-1.962s5.02 2.62 8.73.22c3.71-2.4 7.42-6.98-.87-8.95s-10.69-.872-12.44.65c-1.74 1.53-2.4 3.49-2.83 4.37-.44.87-11.13-.655-22.04-.87-10.91-.22-13.97-.44-20.08-.22-6.11.22-12.65 1.53-13.09 3.05-.44 1.52-9.6-1.09-11.35-1.31-1.744-.22-9.82-.88-12.22-1.31-2.4-.44-7.64-1.53-8.73-1.09-1.09.43.87 3.27 1.75 3.27s.88.655-.21 1.53c-1.09.87-1.31 1.52-3.275.65-1.96-.87-21.39-7.854-23.79-8.29-2.4-.44-11.13-.87-13.53-1.31-2.4-.44-2.48 1.91-3.93.22-1.303-1.53-8.94-6.77-11.123-6.984-2.18-.22-3.93-11.78-8.074-16.8-4.142-5.02-3.71-6.11-2.4-5.67 1.31.44 10.26-.22 12 .22 1.74.44 7.64 1.09 10.47-.44 2.84-1.53-3.49-7.86-5.013-7.86-1.53 0-8.51-2.4-12.01-1.75-3.49.65-3.7-.65-10.91 1.75-3.52 1.17-8.51 1.09-10.48 1.31-1.97.228-16.57 2.038-20.3 3.278-3.94 1.3-15.13 8.88-15.94 10.9-.44 1.09 2.62 1.09 2.62 1.09s.87-1.09 3.05-1.96c2.18-.876 5.23-2.62 11.56-3.93s9.16-1.75 12.872-2.186c3.71-.43 5.674-.65 5.674-.65s2.4 4.148 6.77 7.64c4.36 3.49 9.82 13.97 9.38 15.06-.436 1.096 1.18 2.238-3.273 5.02-1.74 1.09-.98 7.517 1.75 8.296 4.588 1.31 2.87 1.698 6.55 4.15.656.44-.872.66.438 4.15s0 6.77-.652 7.64c-.65.88.44 6.33-1.52 9.39-1.962 3.06.87 5.46 2.18 5.24 1.31-.22 2.4-3.27 3.49-3.93 1.096-.65 6.33-5.02 6.55-6.76.22-1.74.22-13.31-.22-15.49-.433-2.18-.214.44 4.8.44s12 1.53 14.62 2.18c2.62.66 9.606 2.62 9.82 3.49.22.87-1.31 1.97 1.53 2.84 2.83.88 7.85 3.06 9.38 3.71 1.53.66 6.11-.43 7.85.44 1.74.88 4.8 3.71 10.04 5.02 5.23 1.31 10.25 3.49 11.13 4.15.87.66 3.71 8.07 5.02 10.04 1.3 1.97 9.38 5.02 13.74 5.89 4.36.87 1.96 1.09-2.41 1.53-4.36.44-18.29 2.08-27.5 1.09-6.11-.65-23.35 1.31-29.02 1.31-5.68 0-19.86 2.62-26.63 2.18-6.77-.43-7.42-.65-9.6-.21-2.19.43-1.94 3.82-.22 3.05 3.93-1.74 6.76.66 8.94 1.09 2.18.44 8.73 3.71 22.25 6.33 13.53 2.62 33.17 5.46 38.41 6.33 5.23.87 34.47 1.31 37.31 2.18 2.84.88 5.46.44 6.11 4.37.66 3.93-1.3 6.11 7.42 8.51 8.73 2.4 12.66 2.4 14.19 2.62 1.53.22 3.92 15.29 11.56 23.57 2.62 2.84 2.62 14.62 6.98 24.44 2.24 5.03.44 5.02.44 5.02s-4.49-.04-11.342-1.53c-5.02-1.09-13.96 4.37-14.18 6.55-.12 1.17.65 6.11 1.09 9.17.44 3.055-1.53 5.236 1.96 5.455 3.49.21 9.82-4.59 10.04-5.46.22-.87 1.75-1.09 1.75-1.09s3.276 3.49 5.46 5.67c2.18 2.18-1.31 9.16-1.745 12.87-.436 3.71-4.8 25.75-5.236 33.39-.43 7.64-5.67 41.46-6.98 45.39-1.31 3.93-3.92 23.57-4.36 30.12-.43 6.55-2.83 15.06-3.49 28.804-.65 13.745-2.18 14.4-2.83 16.145-.65 1.74-2.4 6.54-5.02 5.23-2.61-1.31-13.31-44.95-16.58-59.13-3.27-14.19-5.89-20.73-6.55-31.43-.65-10.69-.65-19.64-1.31-22.47-.65-2.83-1.31-3.71-3.92-1.96-2.62 1.743-6.98 21.383-8.29 31.42-1.31 10.04-4.36 32.08-5.02 42.12-.65 10.04-4.58 36.22-6.32 38.62-1.74 2.4-3.71 15.06-5.89 13.74-2.18-1.307-6.76-49.75-8.29-61.75-1.53-12-6.54-32.95-8.07-50.41-1.525-17.46-5.45-36.44-3.924-43.21 1.53-6.764 1.24-3.69.44-6.546-1.53-5.455-6.55-3.27-6.55-3.27s-.87-3.06-2.837 11.126c-1.97 14.186-4.15 46.05-4.805 56.085-.65 10.04-.87 28.37-7.2 48.44-6.32 20.08-3.71 25.53-5.89 29.03-2.18 3.49-11.56 35.57-11.78 38.4-.22 2.83-3.28 29.24-6.11 35.35-2.84 6.11-8.73 24.87-9.82 24.44-1.09-.44-6.77-35.57-6.11-54.78.65-19.204.87-22.48 1.74-32.73.87-10.26-1.53-8.95-3.06-8.3-1.53.66-7.86 13.75-9.17 24.01-1.31 10.26-5.02 35.35-7.42 49.32-2.4 13.97-16.8 67.65-17.68 82.92-.9 15.27-8.98 44.08-9.41 49.75-.44 5.67-1.31 19.42 6.98 22.04 8.29 2.62 8.94-18.33 10.03-38.19 1.09-19.86 9.6-63.29 10.48-70.71.876-7.42 8.95-45.17 10.696-46.91 1.74-1.746 1.52 32.294 2.61 42.987 1.09 10.69 1.96 37.31.44 44.08-1.524 6.76 9.387 5.457 10.26 2.4.878-3.06 5.24-37.97 8.95-49.54 3.71-11.56 12.876-54.77 16.586-70.92 3.71-16.15 8.51-38.84 10.91-53.02 2.4-14.19 7.42-38.19 8.29-51.5.87-13.31 3.49-43.21 4.58-49.1 1.09-5.89 1.52-8.29 1.74-7.42.22.87 2.83 28.15 2.62 35.79-.22 7.63 6.33 39.06 6.76 47.57.44 8.51 2.4 28.15 5.24 41.46 2.84 13.31 2.4 32.08 4.15 33.6 1.74 1.53 7.85 1.75 9.16 0 1.31-1.74 13.53-52.81 13.75-60.22.22-7.42 3.49-34.047 3.49-41.68 0-7.64 1.965-18.116 3.274-17.46 1.31.655 7.2 41.9 11.35 53.9 4.15 12 5.24 27.93 8.51 35.79 3.27 7.854 10.04 21.163 12 23.564 1.97 2.4 4.37-.65 4.8-1.74.44-1.09 4.15-32.3 5.24-37.75 1.09-5.46 2.836-25.97 4.146-33.17 1.31-7.2 5.23-34.914 6.32-46.48 1.09-11.567 4.366-33.17 5.02-38.626.656-5.46 5.24-23.79 5.24-23.79s1.53 23.13 3.49 32.73c1.96 9.6 7.86 35.57 10.48 46.05 2.62 10.47 7.42 42.77 8.51 49.1 1.09 6.33 3.05 27.49 5.45 37.75 2.4 10.26 5.24 14.4 6.55 14.84 1.31.44 3.27-1.09 3.49-5.456.22-4.36 4.8-21.17 3.93-27.06-.87-5.89 5.89-53.02 3.93-70.26-1.97-17.24 3.05-31.43 3.71-39.72.65-8.29 3.49-24.66 3.71-25.53.22-.87 7.2 34.04 8.73 40.81 1.52 6.76 2.84 30.11 6.55 36.88 3.71 6.76 16.8 47.14 20.29 61.1 3.49 13.97 10.69 48.23 13.09 50.41 2.4 2.18 7.64 2.18 8.73 1.31 1.09-.87.65-38.84 2.4-44.74 1.74-5.9 2.84-16.15 3.71-17.9.87-1.74 6.98 20.3 8.29 28.37 1.31 8.07 3.93 35.79 8.73 44.3 4.8 8.51 6.76 30.11 10.47 32.51 3.71 2.4 3.92 1.74 7.2.87 3.27-.87 11.13-54.12 16.8-66.99l5.67-12.88s12.66-47.13 11.79-56.08c-.875-8.944 3.05-34.26 3.926-41.68.87-7.42 3.27-25.75 5.46-27.93 2.19-2.18 8.95 56.3 11.79 62.63 2.84 6.325 7.86 36.22 11.35 44.95 3.49 8.73 6.77 32.73 9.61 44.3 2.833 11.56 12.22 45.605 15.05 53.243 2.84 7.64 7.42 26.41 10.7 27.72 3.275 1.31 4.37.22 4.15-1.53-.22-1.74 3.93-44.51 9.6-64.15 5.67-19.64 4.144-36.66 3.71-44.3-.44-7.63 1.53-20.94 2.4-23.13.87-2.18 19.64 52.16 21.82 60.23 2.18 8.08 12.66 37.97 15.06 42.34 2.4 4.36 10.48 3.71 11.57 0 1.09-3.71-14.84-36.23-18.76-53.25"/>
    <path d="M32.837 646.496c6.184-6.184 40.243-118.93 44.448-126.134 4.204-7.208 6.007-13.816 10.81-13.816 4.806 0 7.81 40.846 5.407 51.055-2.403 10.22-3.004 32.44-3.004 32.44s30.633-75.08 28.832-97.3c-1.803-22.22 18.02-82.89 18.02-82.89s6.605-3.6 6.005 22.83c-.6 26.43 6.607 54.06 8.41 60.07 1.8 6.01 13.814 71.48 14.414 75.68.6 4.21 24.62-73.87 24.02-89.49-.6-15.62 18.62-69.68 19.82-71.48 1.2-1.8 5.4-6 7.21 3.61 1.8 9.61 4.8 67.27 8.41 72.68 3.6 5.41 21.62 114.73 23.42 117.13 1.8 2.4 9.61-36.64 17.42-36.04 7.81.6 11.41 15.02 12.61 18.02 1.2 3 11.41-78.68 9.01-100.91-2.41-22.22 3-49.85 6.6-53.45 3.6-3.6 4.2 4.81 9.01 24.63 4.8 19.82 28.23 66.07 31.83 77.49 3.6 11.41 18.02 61.26 18.62 63.67.6 2.4 25.83-78.08 25.22-90.69-.6-12.61-2.41-26.42 1.2-33.63 3.6-7.21 12.01-7.81 16.22 11.41 4.2 19.22 12.61 57.66 18.62 66.67 6 9.01 24.02 50.46 22.82 54.06-1.2 3.61-19.22 18.02-21.03 6.01-1.8-12.01-8.41-33.03-14.42-57.06-6.01-24.02-5.41-52.25-9.61-42.64-4.21 9.61-16.82 46.25-18.02 63.67-1.2 17.42-12.62 37.24-12.02 49.86.6 12.61 6.61 19.22-3.6 20.42-10.21 1.2-12.02 6-13.82 0-1.81-6.01-19.22-76.28-23.43-97.91-4.21-21.62-20.42-76.28-22.83-84.09-2.41-7.81-1.8 16.82-1.2 37.84.6 21.02 1.2 76.88 0 91.3-1.2 14.41-2.41 39.64-1.8 41.44.6 1.8-15.02 7.21-16.22 4.2-1.2-3-7.21-37.24-11.41-34.84-4.21 2.4-3.61 25.83-7.81 28.23-4.21 2.41-11.41 6.01-15.02 3.61-3.61-2.4-11.41-28.23-16.22-39.04-4.81-10.81-11.41-100.91-12.01-114.72-.6-13.82-4.81-46.25-6.61-37.84-1.8 8.41-14.42 62.46-16.22 75.08-1.8 12.61-20.42 84.09-21.63 87.69-1.2 3.6-3.01 4.2-11.41 3.6-8.41-.6-8.41-2.4-12.01-41.44-3.6-39.04-12.01-101.51-13.21-98.51-1.21 3.01-6.01 27.63-6.61 47.45-.6 19.82-18.62 70.28-23.43 78.69-4.81 8.41-16.22 33.64-24.03 40.24-7.81 6.61-13.22 10.21-14.42 3.61-1.2-6.61-.6-10.21 4.81-30.63 5.41-20.42 6.01-54.06 6.61-58.86.6-4.81-10.21 35.44-16.22 54.66-6 19.21-12 34.22-13.81 43.83-1.8 9.62-7.21 16.82-12.61 11.42-5.4-5.41-10.21-4.81-4.2-10.81"/>
  </g>
</svg>
