<svg xmlns="http://www.w3.org/2000/svg" width="300" height="300" viewBox="0 0 230 230">
  <path fill="#DF230E" d="M36.26 98.306c-1.125.557.156 4.515.32 3.784s3.022-2.098 2.516-2.117c-.505-.017-2.837-1.667-2.837-1.667zm6.496-7.86s-1.393-.696-2.053-1.73c-.42-.66-1.35-2.075-1.35-2.075s-2.32.52-2.825.5c-.506-.02-2.607-.41-2.73.45-.125.87 1.67 4.62 3.058 6.97 1.386 2.35 4.747 3.58 4.896 3.26.15-.31 1.004-7.37 1.004-7.37zm8.064 19.847c-.2.404-.352.814-.783 1.305-.433.49-.183 1.566.174 1.523.61-.06 2.48-.87 2.63-1.33.16-.45-1.81-1.9-2.01-1.49z"/>
  <path fill="#DF230E" d="M65.75 102.05c1.65-3.62 1.118-5.434.504-4.998-.614.438-5.15 2.48-7.175 3.743-2.03 1.258-7.07 1.996-7.42 1.938-.35-.06-.24 1.05-.73 1.932-.5.883-1.09 2.188-2.35 2.602-1.26.414-.8.477-2.4-1.053-1.6-1.53-1.24-3.91-1.14-4.135.1-.23-2.3-1.19-2.19-.68.16.69.4 2.77 1.38 6.26.97 3.48-.07 5.65.04 6.21.11.55 3.28-.11 3.6-.29.33-.18.78-2.37 1.55-3.43s1.2-1.58 2-1.42c.79.17 2.83 2.59 3.61 2.57.78-.02 9.04-5.65 10.69-9.27zM55.698 90.043c-1-.36-4.877-2.524-4.934-2.205-.058.32-1.972 1.078-2.827 1.83-.855.75-3.31 1.168-3.31 1.168s-.47 1.593-.55 2.48c-.078.885-.35 4.526-.18 4.992.166.465 2.32.73 3.42.814 1.1.086 3.844.555 8.316-.985 4.473-1.54 9.863-5.53 9.58-5.356-.282.18-8.515-2.37-9.515-2.73z"/>
  <path fill="#DF230E" d="M47.837 105.032c.344-.588 2.168-2.682 1.238-2.395-.93.29-2.282-.496-2.282-.496-.58.81.7 3.48 1.044 2.9zM45.45 82.217c-1.007-.175-1.96-.203-2.62-.095-2.083.337-1.04 3.274-.528 4.396.51 1.123 1.55 1.667 2.376 1.697.828.03 2.24-.838 3.472-1.852 1.233-1.013 1.146-2.443.75-2.963-.393-.52-2.445-1.01-3.45-1.183z"/>
  <path fill="#DF230E" d="M17.148.294c-.08.4-.56.96-1.36 1.28s-3.04-.4-6-1.52C9.73.034 9.68.02 9.62 0H7.023C6.277.366 5.94.953 5.63.775c-.56-.32-1.36.8-2.32 1.68C2.526 3.172.856 4.14 0 4.395v16.76c.204-.03.393-.05.53-.04 1.28.08 1.28.88 1.17 1.6-.112.72 1.47 2.96 1.63 3.36.16.4.88-.08 1.76-.08s3.6-1.52 6.32-1.2c2.72.32 2.48 1.12 1.92 1.92-.56.8-4.4 4.24-4.72 5.046-.32.81.08.32.56 1.12.48.8 1.6 3.6 1.358 4.64-.24 1.04 1.6.32 1.52.72-.08.4-.56.96-1.36 1.28s-3.04-.4-6-1.52c-2.958-1.12-3.6 1.04-4.16.72-.157-.09-.335-.05-.53.05v206.66h245.426V0H15.72c.347.357 1.493-.024 1.428.294zM131.656 116.65c.47-.685 0-4.98 2.83-8.99 4.238-6.003 8.14-5.07 15.308-8.14 7.167-3.066 16.188-3.066 16.778-3.302.59-.235-.12-3.302-.59-4.717-.473-1.41.254-5.25.59-6.25.267-.8 2.004-.35 3.537 0 1.53.36 2.35 3.54 2.47 4.72.11 1.18-.83 4.72-1.06 5.55-.24.83 1.77.24 7.43.71s10.49 1.54 17.69 4.37c7.19 2.83 7.43 10.27 7.55 12.84.11 2.58.94 4.62 1.53 7.77.59 3.15 2.83 4.64-.94 5.23-3.78.59-4.6 2.01-5.9 2.2-1.3.19-1.18-6.44-.71-8.21.47-1.77-1.65-3.07-1.77-6.98-.12-3.91-1.3-5.41-2.36-8.12-1.06-2.71-5.55-4.13-7.79-4.13s-9.79-1.89-12.98-1.65c-3.19.24-7.31.36-9.32.48-2.01.12-15.57 1.65-18.52 3.73s-4.48 5.94-5.9 7.71.35 9.32-1.06 10.38c-1.42 1.06-4.25-.23-6.14-1.77-1.89-1.53-1.18-2.71-.71-3.39zm57.444 52.11c1.77 2.006 2.48 2.95.592 4.482-1.89 1.533-3.067.59-5.78.354-2.714-.236-2.478-3.303-2.595-5.426-.118-2.123-1.652-4.602-2.95-4.246-1.298.354-4.128-.473-7.194-.12-3.068.355-5.545-.235-6.96 0s-1.77 8.612-2.714 11.208-4.96 1.297-7.67.824c-2.72-.47-.95-5.777.85-8.61 1.79-2.83 3.86-3.774.8-4.245-3.07-.47-7.08-2.12-6.73-3.42.35-1.29-.59-.82-.83-1.41s-2.01.24-2.6-.7c-.59-.94-1.18-4.24-1.3-6.72-.12-2.47-2.24-7.43-.95-12.85 1.29-5.42 2.35-5.3 5.42-9.79s6.01-4.48 9.91-5.19c3.89-.7 6.84.12 6.49-.82s-.47-8.14-.94-8.63c-.48-.49-10.03.14-11.09 0-1.07-.13-4.72-2.57-5.19-3.23-.47-.65.71-.76 2.09-.44s4.98.06 7.81 0 6.72-.55 9.08-.44c0 0 11.09.36 13.8-.01 2.71-.37 2.95.49 5.19 1.67s1.65 2.13 1.18 3.19-6.37.12-8.38.12-7.91-.83-8.5-.84c-.59-.02 1.29 7.22 1.41 7.77s6.84-.79 9.55 0c2.71.79 4.36 1.81 7.43 5.11s6.84 16.63 7.08 22.65c.23 6.02-1.07 8.38-2.36 10.26s-6.73 2.48-7.2 3.54c-.48 1.06 1.41 4.01 3.18 6.02zM30.554 80.292s.205-5.614 6.523-11.253c5.545-4.95 9.927-4.04 8.272-5.58 0 0-.15-2.69.08-2.19.22.5 1.43.78 2.87 1.65 1.43.87 2.16.97 1.95.07s.62-3.73 1.04-1.83c.42 1.9 1.65 1.6 2.63 1.5.98-.1 1.67 1.17 1.46.05-.2-1.12 1.63-4.45 1.32-2.75s-.1 2.68-.1 2.68 3.16.36 9.28.34c6.11-.02 8.54.31 8.54.31s2.56-3.08 4.08-4.5c1.51-1.41 3.81-4.02 9.58-1.36 5.77 2.65 1.41 8.12 2.39 8.15.97.03 4.81 2.13 4.81 2.13s6.98-3.66 10.14-3.3c3.16.36 6.25 2.91 6.35 6.83.1 3.91-4.58 4.96-4.58 4.96s4.45 5.3 6.24 9.76 2.57 9.87 6.17 11.71 4.57 2.12 3.42 3.3c-1.15 1.18-9.45 1.12-9.45 1.12s2.35 2.78 3.78 3.56c1.44.79 2.81 3.28 2.54 4-.27.72-.06 1.46.45 7.84.5 6.37-.6 36.65.57 41.34 1.17 4.69 5.51 13.4 13.05 21.01 7.55 7.61 27.09 14.68 43.19 15.75 16.1 1.07 28.15-7.53 30.27-12.1 2.12-4.57 5.32-25.24 3.84-31.65-1.48-6.41 1.68-25.85 13.7-27.13s15.75 3.76 17.59 7c1.84 3.25-2.76 8.49-6.77 11.37-5.02 3.61-5.75 18.96-5.65 22.88.1 3.91-.05 12.73-5.26 28.19s-23.17 18.47-38.83 18.88c-15.67.41-48.01-4.44-51.19-4.31-3.18.13-28.18 1.66-33.54 1.22-5.36-.44-26.68.74-28.88.66-2.2-.08-18.19 2.52-20.39 2.68-2.21.16-12.26.78-14.63-4.69-2.37-5.47-.62-6.38 2.87-8.21 3.49-1.83 14.74-1.91 14.74-1.91s-2.82-3.04-4.22-5.02c-1.4-1.99-1.61-2.78-2.71-2.08-1.1.69-9.53 2.34-12.67 1.24-3.14-1.1-7.29-1.25-9.72-8.4-2.43-7.15 1.05-8.79 9-8.99 7.95-.2 10.21 4.84 10.21 4.84s-1.45-7.22.39-10.82c1.84-3.6 6.56-5.63 6.56-5.63s-3.24-5.01-4.33-8.72c-1.09-3.7-3.8-3.07-3.8-3.07s.39 2.71.09 4.16c-.3 1.46-2.52 5.4-7.28 5.12-4.76-.28-5.06-2.14-5.06-2.14s-1.54 1.9-4.64-.17c-3.11-2.06-2.76-4.99-2.76-4.99s-1.32-2.45-2.76-4.74c-2.86-4.54 1.74-7.52 3.51-9.17 1.77-1.65 11.27-3.99 11.27-3.99s-.79-1.74-1.71-3.24c-.93-1.5-4.22-2.6-4.22-2.6s1.14 1.88-.16 4.39c-2.39 4.66-6.63 5.14-10.72 3.28-4.09-1.86-3.18-6.72-3.18-6.72s-.77 1.2-2.87-1.81c-2.09-3.01-1.03-5.17-1.03-5.17s-2.4-.84-4.01-4.06c-2.7-5.4 2.8-9.68 4.32-11.09 1.52-1.42 5.39-5.31 10.44-2.92s5.61 5.46 8.96 7.29 4.94 1.89 4.94 1.89-1.24-2.74.15-4.15c1.4-1.42 2.17-2.37 2.17-2.37l1.74 2.51s1.22-3.38.2-5.37c-1.03-1.99-1.4-5.19-1.4-5.19s-1.28 1.67-2.42 2.6c-1.13.94-.48 3.17-1.67 2.14-1.19-1.02-2.55-4-2.21-6.43.33-2.44.87-3.88.87-3.88s-2.11-2.52-2.69-4.15c-.58-1.63-.94-3.57-.94-3.57s-7.58-.03-9.56.63c-1.98.66-9.36 1.86-12.05 2.01-2.7.15-4.64-.17-4.64-.17s.29-1.21 1.8-2.38c1.51-1.16 11.072-2.04 13.78-2.43 2.7-.39 10.05-.88 10.05-.88l-.94-.99-1.97.42c-1.97.42-7.84.45-10.5-.38-2.66-.83-14.11-1.98-14.11-1.98s7.19-2.67 13.5-1.46 14.4.52 14.4.52z"/>
  <path fill="#DF230E" d="M153.124 139.39c.944.118 8.374-.472 10.263-.472 1.888 0 2.477 0 1.887-1.65-.59-1.652-.19-7.9 0-9.73.1-.968-5.19-.534-6.605 0s-2.36.646-4.37 2.062c-2.01 1.414-2.83 4.953-3.42 7.785-.59 2.83 1.29 1.887 2.24 2.006zM38.566 84.22l-4.99-.687c-.566.394-.053 1.47-.053 1.47l5.043-.782z"/>
  <path fill="#DF230E" d="M48.38 80.943c4.837 1.398 3.697 3.313 3.697 3.313s9.083 1.553 12.746 1.687c3.663.134 11.468.664 11.667 1.893.2 1.23-5.718.72-9.28-.338l-10.047.645s7.22 3.164 8.703 2.73c1.482-.435 4.174-.47 4.88.233.71.704.638 2.657 1.624 2.448.986-.208 5.616.226 6.304 1.452.69 1.226-1.292 1.91-2.024 1.882-.732-.027-4.342-1.624-4.342-1.624s-1.217 6.558-2.526 8.956c-1.31 2.395-3.262 6.727-14.238 10.482-10.976 3.756-14.865 3.125-16.077 2.836-1.21-.287.15 9.297 9.646 10.377s24.542-2.53 26.603-5.387c2.06-2.86 5.497-3.225 4.938-1.287-.56 1.94-4.416 6.26-9.323 7.57-9.62 2.57-14.86 2.64-20.95 2.09-9.17-.82-12.66-5.46-13.31-8-.64-2.53-.08-4.47-1.04-4.75-.97-.28-1.65-1.53-1.65-1.53s1.35 3.23.1 3.92-4.18-.39-3.51-1.1c.67-.71-.16-5.14-.16-5.14s-2.84-2.79-3.59-2.33c-.75.47 1.05 4.93 1.76 5.45.72.52-2.96.87-3.87-1.12-.9-1.98-1.72-6.41-1.72-6.41s-2.37-2.04-5.35-.68c-2.98 1.36-5.81 5.17-6.4 8.08s1.28 5.18 2.58 3.03l1.3-2.15s4.16-.09 4.63.66c.46.75.16 2.46-1.6 3.61-1.75 1.16-3.05 3.31-3.11 4.78-.05 1.47.9 2.24 1.94.56 1.04-1.67 2.05-2.61 3.26-2.08 1.21.54 4.89-.06 3.64.87-1.26.94-4.33 4.71-4.16 6.68.17 1.98 1.82 3.75 3.83 2.36 2.01-1.39 2.39-5.05 1.68-5.81-.71-.76-1.39-2 1.8-2.38 3.19-.37 4.16-.09 6.08.96s5.96 4.35 5.91 5.58c-.04 1.24-1.8 2.52-.34 2.75 1.46.24 6.66-1.77 9.08-.95 2.41.82 1.63 2.26 5.98 3.64 4.35 1.38 12.45 7.3 13.38 8.56.93 1.26-.84 2.91-3.48 1.59s-1.86-2.65-1.97.35.79 5.24-1.16 4.92c-1.94-.31-3.85-1.6-3.77-3.8.08-2.19.9-4.37.21-5.61-.69-1.25-2.32-3.26-2.86-2.06-.53 1.2 1.37 2.74.1 3.92-1.26 1.18-2.76 2.1-3.18.13s-.49-5.15-1.36-5.43c-.87-.27-5.21-2.87-4.62-1.88.59 1 2.17 4.48 2.12 5.95-.05 1.46-.34 1.94-2.36.65-2.02-1.3-1.83-6.42-2.81-6.21-.99.21-3.92.35-6.36.02-2.44-.33-9.57.88-10.63 3.04-1.06 2.16-3.62 5.49 1 6.15 4.62.66 4.69-1.3 4.62.66-.07 1.96-2.31 1.42-1.49 3.39.81 1.97.29 2.93 2.51 2.28 2.22-.65 2.71-.63 3.16.36.46 1 1.27 2.1 4.25.98 2.97-1.11-.25-3.28.22-5.95.46-2.67 1.81-2.07 4.39-3.02s6.02 2.42 8.37 5.2c2.34 2.77 4.18 6.02 4.57 8.72.39 2.71 2.49 5.47 2.49 5.47s8.16-2.63 11.8-1.77c3.63.87 7.85-.69 11.27-.56 3.42.13 6.76 2.2 8.61 5.21 1.85 3.01 4.45 12.2 2.59 16.27-1.86 4.06-6.78 5.11-9 5.51-2.21.41-3.19.35-3.63-1.12-.43-1.47-1.57-3.9.91-4.81 2.48-.92 4.7-1.43 5.31-4.65s-.59-10.85-2.02-11.64-4.87-.67-7.56-.77c-2.68-.1-5.08-1.41-4.16.335s2.53 4.49 4.43 6.03c1.9 1.53 5.05 2.38 4.01 4.05s-3.73 1.64-5.83-.95-4.5-3.84-5.11-7.28c-.61-3.44-.41-2.21-2.13-2.03-1.71.18-8.33.67-7.42 2.42.91 1.75 2.27 4.73 4.68 5.79 2.4 1.066 7.75 1.895 8.18 3.55.43 1.655-2.99 1.53-5.18 1.21-2.19-.326-6.03-2.18-7.91-4.45-1.87-2.27-2.26-4.97-3.52-4.04-1.25.93-3.56 3.926-4.39 6.51-.82 2.59-1.39 4.58 1.78 4.91 3.17.33 5.08 1.63 7.51 1.96 2.44.336 7.06.99 8.24 2.016 1.19 1.02 1.86 2.59-2.05 2.65-3.92.06-6.13.55-8.79-.32-2.66-.87-4.8-2.45-5.08-1.47-.28.98 5.41 5.84 7.57 6.89 2.16 1.06 4.6 1.39 3.81 2.83s-4.24 2.29-7.15 1.7c-2.91-.595-5.07-1.64-3.66-.01 1.41 1.64 3.8 2.95 2.31 3.63-1.49.68-2.97 1.116-3.17-.114-.14-.884-2.01-2.87-2.51-3.51-.29-.05-.64-.07-1.05-.04-2.18.17 1.19 1.51 1.39 2.74.2 1.23-1.74.94-3.23 1.36-1.48.425-1.35-3.235-2.8-3.534-1.45-.3-4.15-.15-4.22 1.8-.07 1.96 2.89 6.47 8.56 5.94 5.67-.53 11.65-3.49 15.58-4.08 3.94-.59 20.82-.95 24.49-1.06s28.07 1.27 32.73.95c4.66-.313 14.46-.94 19.55.23 5.1 1.168 25.84 2.168 32.15 3.62 6.31 1.45 25.71-1.02 32.19-4.45 6.48-3.43 11.84-9.59 13.8-16.37 1.96-6.77 4.53-16.95 3.73-21.87-.8-4.92 1.67-19.01 3.77-22.843s7.1-6.84 7.93-9.49c.83-2.66 1.648-4.83-1.75-5.69-3.39-.86-4.56-2.37-7.28-1.49-2.72.88-3.513 2.56-3.513 2.56s5.94 4.61 5.87 6.56c-.07 1.95-2.927-.35-4.12-1.13s-4.1-1.62-4.84-1.4-1.95 6.52-1.95 6.52 5.55 1.93 6.48 3.19c.936 1.252-2.26 1.63-3.49 1.83s-4.66.4-4.7 1.58c-.042 1.18-1.27 7.98.65 9.03 1.92 1.042 4.37.89 4.8 2.37.44 1.484-3.57 4.03-4.58 4.97-1.01.94-1.08 2.896-.15 4.15.93 1.26 4.677-.81 4.62.66-.05 1.47-3.34 4.53-4.08 4.74-.75.22-1.17 5.1-2.22 7.01s4.32 2.11 4.02 3.82-4.27 2.93-5.72 2.556c-1.46-.37-2.79 2.76-3.53 2.98-.75.218.28 2.54 2.73 5.48s-1.31 2.397-2.52 2.108-3.07-3.04-3.78-3.56-5.75 3.46-6.73 3.42c-.98-.03 1.26 5.677 1.69 7.157.44 1.48-4.42.57-5.31-1.902-.89-2.48-.8-4.92-1.78-4.71-.99.21-6.42 1.72-6.42 1.72s-2.12 4.57-1.68 5.81-.3 1.46-1.5.92-3.34-2.32-3.26-4.52c.08-2.2-6.33-.72-7.76-1.75-1.43-1.03-.18 4.89-.71 6.09s.95.77-.54 1.21-5.33-1.42-5.25-3.62-.3-5.14-1.03-5.17-5.13-.19-6.81-.98c-1.68-.79.5 6.38-.96 6.08-1.46-.3-5.29-2.394-5.68-5.1-.39-2.7.66-4.65-.58-4.19s-3.13-1.35-3.91-.14c-.78 1.21-.39 3.91-.97 6.34-.58 2.426 2.57 3.27-.58 2.426-3.14-.85-5.22-4.35-5.86-6.82-.64-2.47.21-5.61-1.25-5.91-1.46-.3-9.34-5.335-9.79-6.4s-4.1 5.154-6.15 7.77c-2.052 2.614-4.44 7.66-6.42 8.325-1.98.66-4.35-1.38-4.27-3.58.08-2.19 2.91-6.01 4.29-10.35 1.38-4.35 4.59-10.84 4.39-12.56-.2-1.72-1.65-2.51-2.19-4.24-.54-1.74-2.42 2.84-6.694 6.11s-13.49 8.07-14.51 9.01c-1.01.94-2.5 1.52-1.4-1.69s4.44-7.74 6.73-10.34 10.81-14.77 11.14-17.2c.336-2.43.896-4.37.896-4.37s-5.34 5.67-9.56 7.23c-4.21 1.55-5.83 5.65-8.51 5.31s-2.08 3.34-3.21.86c-1.13-2.49-.21-7.59 2.77-8.95 2.99-1.36 7.53-5.35 9.35-8.22 1.815-2.87 8.64-9 8.42-9.73-.22-.73-.645-2.46-.645-2.46s-11.88 10.61-15.61 12.39-9.23 5.04-11.42 4.72c-2.19-.32-1.17-1.51-.39-2.7.78-1.197 8.12-8.02 10.59-8.9 2.48-.89 16.15-13.84 16.44-15.05.29-1.21 1.13-4.12-.33-4.17-1.47-.05 1.507-7.77.79-8.29-.712-.52-3.86-1.37-5.34-1.18-1.47.19 1.308 4.45 2.24 5.71.93 1.253 3.08 2.552.36 3.43-2.72.875-9.7-2.07-9.5-.84.2 1.23 5.677 5.344 6.37 6.346s-3.73 1.82-5.69 1.75c-1.95-.07-7.29-1.24-6.84-.005.44 1.24 4.96 4.83 5.176 5.57.22.74-4.73 2.28-6.18 1.73-1.45-.54-10.94-1.86-10.65-3.07.29-1.21 10.75.15 11.27-.56.51-.71-3.54-3.66-2.47-6.13 1.07-2.48 3.41.36 5.62.2 2.2-.167 4.15.083 3.71-1.157-.45-1.24-3.47-5.51-2.69-6.95s3.92-.1 6.36-.01c2.44.09 3.9.39 2.73-1.12-1.17-1.51-3.94-6.01-3.17-6.96.77-.95 2.037-2.13 3.96-1.32 1.93.8 4.66-.32 4.66-.32s-4.03-3.57-4.452-5.3c-.43-1.73-.31-4.9 1.14-4.36s1.68.79 3.16.6c1.47-.19-2.11-2.52-3.25-4.77-1.14-2.24-2.22-6.19-2.65-7.92-.42-1.72-2.88-8.17-4.132-7.24-1.25.94-.87 3.88-4.11 5.48-3.234 1.59-5.024 3.73-6.72 3.176-1.69-.55 3.38-5.5 3.93-7.19.55-1.69 2.42-6.028 2.42-6.028s-1.64-2.02-2.63-1.57c-1 .45-2.17 5.79-3.914 6.706-1.75.91-3.03 2.58-5.98 2.96-2.95.38-.87-2.97 1.97-7.02 2.84-4.056 3.27-2.57 2.84-4.056-.43-1.48-1.6-2.99-2.36-2.29-.76.7-1.86 4.08-3.37 5.25s-4.31 4.25-5.79 4.68c-1.49.44-3.41-.37-2.63-1.56.78-1.2 5.12-6.32 5.94-8.78.82-2.47 2.01-1.69-2.13-2.09-4.14-.4-15.14-.553-18.07-.66s-8.49-1.75-7.32-.38 2.13 1.9 1.61 2.86c-.53.96-3 1.6-3.67-.13l-.67-1.74s-1.85-1.54-1.8-.31c.05 1.22 1.99 1.78.97 2.97-1.02 1.18-1.18-1.02-2.9-.84-1.71.18-2.95.62-4.68 1.05-1.72.42-5.39.29-3.59 1.33 1.8 1.05 8.62 3.25 9.95 2.81 1.33-.44-1.22 2.65-3.9 2.31-2.68-.34-7.2-3.688-7.2-3.688s-4.767 3.25-5.797 4.68c-1.03 1.43-1.37 4.1-1.37 4.1l6.84.25c.48.015 2.48-1.136 7.32.264zm54.345 13.51c.564.384.77 1.252 1.51 1.89s2.973 2.3 2.894 3.06c-.08.763-.02 1.833-1.13 1.49-1.11-.35-2.69-1.68-3.39-3.436-.7-1.76-.69-3.542.11-3.003zm-7.28 7.63c.26.058.892 1.306 3.268 1.8 2.375.496 4.076 1.373 4.31 1.992s.493 1.8-.083 2.238-2.35.22-3.51-.127c-1.16-.348-2.232-1.662-3.375-2.467-1.142-.81-1.69-3.68-.61-3.44zm-6.472 6.287c.53-.03.682.838 1.64 1.13.957.288 4.375 1.534 4.413 1.892.04.357.09 1.734-.08 2.188s-.7 1.043-1.644.398c-.944-.645-3.372-2.518-4.005-3.305-.634-.788-.885-2.274-.324-2.303zm-5.942 3.705s2.3 1.357 2.73 2.137c.43.78 3.48 2.47 3.86 3.195.38.73.31 1.285-.05 1.426-.36.14-3.35-1.65-3.83-2.535-.47-.883-3.52-4.1-2.7-4.223zm-8.51-34.83c-.16.33-2.03 1.84-5.63 1.968-3.6.128-4.54-1.615-5.14-2.31-.59-.694-.94-1.505-.05-1.36 2.12.348 4.23.54 5.26.62.65.048 4.24.05 4.73.327.48.276 1.02.425.85.755zM71.7 67.31c.183.602.263.552 1.03 1.46.77.908 1.156 1.646 1.094 1.955-.063.31-.73.765-1.318.675-1.133-.17-1.296-1.366-1.287-2.323 0-.958.29-2.37.47-1.767zm-4.71-.717c.087.366.794.884 1.126 1.697.333.815 1.938 2.193 1.872 2.605-.066.41-1.18 1.034-1.636.872-1.532-.547-1.77-2.55-1.81-3.61-.04-1.064.357-1.93.447-1.564zm-3.7.693c.363.635.737 1.036 1.25 1.883.51.84 1.423 1.39 1.38 1.88-.044.49-.95.5-1.233.42-1.368-.39-1.95-2.56-1.918-3.46.03-.91.15-1.37.52-.73z"/>
  <path fill="#DF230E" d="M165.493 144.227c1.08-1.232-6.235.236-8.358 0s-6.004-1.063-6.364-.826 1.18 7.79.71 9.8-1.41 2.83-.11 2.6c1.3-.23 4.12-1.06 6.78-1.18 2.66-.11 7.62.48 7.85-.23.24-.71-1.21-9.32-.49-10.14zm6.74-6.135c1.18-.117 5.897-1.53 7.784-1.53 1.888 0 4.955.35 4.955-.474 0-.826-2.832-5.52-3.54-7.48-.706-1.957-.47-2.547-4.835-2.547s-3.775-.47-4.365 0c-1.752 1.41-.472 4.25 0 6.26.473 2.01-1.18 5.9 0 5.78zm12.74 3.776c-1.652-.117-7.667 1.652-8.375 2.123-.708.48-5.19-.94-4.72 0 .71 1.42.12 8.38 0 9.91-.117 1.54 3.304-1.06 6.277-1.18s6.347-2.36 7.997-3.65.472-7.08-1.18-7.19zm-80.84-71.773c-.56.163-2.09 1.81-2.09 1.81s.856.49 1.305.782c.45.293.438.614 1.142.824.705.22 1.19-.41 1.81-.99.62-.57 1.08-1.89.59-2.32-.492-.43-2.2-.26-2.757-.1zM86.886 64.91c.793.342 1.72-3.02.526-4.35-1.194-1.333-1.49-2.08-3.554-2.2-2.066-.122-5.795 3.745-5.746 4.897.035.782 3.383-.66 8.774 1.654zm-34.52 136.77c1.06.787.997.254 0 0zm-10.694-87.765c-.365-.105-1.832-2.78-2.044-3.248-.213-.47-.53-.617-.868.244-.34.87.752 2.93.752 2.93.595.07 2.524.19 2.16.08zm10.62 87.71c-.393-.3-.395-.252-.2-.004.1.02.19.04.274.06-.025-.02-.046-.03-.073-.05zM100.15 70.87c.413.014.99-.7 2.447-1.522 1.457-.822 4.713-.564 4.713-.564s-.553-1.216-.815-1.593c-.263-.37-2.733-.74-4.32-.15-1.584.59-3.272 2.74-3.272 2.74s.835 1.09 1.25 1.11zm-44.4 97.916c-2.553-1.857-1.328-2.818-2.096-2.645-.81.19-4.168 1.35-5.35 4.41s-.4 6.62.135 6.59c.53-.03.86-1.68 2.63-4.66 1.76-2.98 5.42-3.14 4.68-3.68zm-8.55 14.61s-1.204-.657-1.514-.593c-.31.068-.88.967-.604 1.822.276.852-.36 1.443-1.12 1.264-.76-.19-1.292-.36-1.42-1.05-.128-.7-.43-2.94-.963-3.03-.54-.1-1.73-.98-1.75-.45-.02.53.72 1.1-.06 1.68-.79.58-1.49.71-1.94.35-.45-.36-1.25-1.44-1.38-2.34-.12-.9-.79-1.47-1.19-1.17s-1.84-.15-3.7.25-4.3-.01-2.63 4.58c1.67 4.58 5.81 4.81 8.19 4.82 2.37.01 10.41-1.47 11.03-1.6.62-.13-1.32-3.81-.99-4.57z"/>
  <path fill="#FFF100" d="M15.79 1.575c.8-.32 1.278-.88 1.358-1.28.064-.32-1.08.062-1.43-.295H9.62c.057.02.11.033.168.055 2.96 1.12 5.2 1.84 6 1.52zM5.63.775c.31.178.647-.41 1.393-.775H0v4.394c.857-.253 2.527-1.222 3.31-1.94.96-.88 1.76-2 2.32-1.68zm-5.1 37.94c.56.32 1.2-1.84 4.16-.72s5.2 1.84 6 1.52 1.28-.88 1.36-1.28c.08-.4-1.76.32-1.52-.72s-.88-3.84-1.36-4.64c-.48-.802-.88-.308-.56-1.114.32-.8 4.16-4.24 4.72-5.04.56-.8.8-1.6-1.92-1.92-2.72-.32-5.44 1.2-6.32 1.2s-1.6.48-1.76.08c-.16-.4-1.74-2.64-1.63-3.36.11-.72.11-1.52-1.17-1.6-.137-.01-.326.01-.53.04v17.6c.194-.1.373-.13.53-.04z"/>
  <path fill="#FFF" d="M2.646 81.23s11.45 1.153 14.11 1.984c2.658.83 8.527.8 10.5.383l1.97-.418.94.98s-7.352.49-10.055.88c-2.7.39-12.27 1.26-13.78 2.43-1.51 1.16-1.79 2.38-1.79 2.38s1.95.31 4.64.16c2.7-.15 10.07-1.35 12.06-2.01 1.98-.67 9.56-.63 9.56-.63s.36 1.94.94 3.56 2.69 4.15 2.69 4.15-.54 1.45-.87 3.88c-.33 2.43 1.03 5.41 2.21 6.44 1.19 1.02.54-1.21 1.67-2.14s2.42-2.6 2.42-2.6.38 3.19 1.4 5.18c1.03 1.99-.19 5.37-.19 5.37l-1.74-2.51s-.77.95-2.16 2.36c-1.39 1.41-.15 4.15-.15 4.15s-1.59-.06-4.94-1.9-3.91-4.91-8.96-7.29c-5.05-2.39-8.92 1.51-10.44 2.92-1.52 1.41-7.01 5.69-4.31 11.09 1.61 3.22 4.01 4.06 4.01 4.06s-1.06 2.16 1.04 5.17c2.09 3.01 2.87 1.81 2.87 1.81s-.91 4.86 3.18 6.72c4.09 1.86 8.33 1.38 10.73-3.28 1.3-2.51.16-4.39.16-4.39s3.29 1.1 4.22 2.6c.92 1.5 1.72 3.24 1.72 3.24s-9.5 2.34-11.27 3.99c-1.77 1.64-6.37 4.62-3.51 9.16 1.44 2.28 2.76 4.74 2.76 4.74s-.35 2.92 2.75 4.99 4.64.16 4.64.16.3 1.86 5.06 2.14 6.98-3.66 7.28-5.12c.3-1.46-.09-4.16-.09-4.16s2.71-.64 3.8 3.07c1.08 3.71 4.32 8.72 4.32 8.72s-4.72 2.03-6.56 5.63-.39 10.81-.39 10.81-2.26-5.05-10.22-4.85c-7.95.2-11.43 1.84-9 8.99 2.42 7.15 6.58 7.3 9.71 8.39 3.14 1.09 11.57-.56 12.67-1.25 1.1-.7 1.31.09 2.71 2.08 1.4 1.98 4.22 5.02 4.22 5.02s-11.25.08-14.74 1.9c-3.49 1.83-5.23 2.74-2.87 8.21 2.37 5.46 12.42 4.85 14.63 4.69 2.21-.17 18.2-2.76 20.39-2.68 2.2.08 23.52-1.1 28.88-.66 5.37.44 30.36-1.09 33.54-1.22 3.19-.13 35.53 4.71 51.19 4.31 15.67-.41 33.63-3.42 38.83-18.88 5.21-15.46 5.37-24.28 5.27-28.2-.1-3.91.63-19.27 5.65-22.87 4.02-2.88 8.61-8.12 6.77-11.37-1.84-3.24-5.56-8.27-17.59-7s-15.18 20.72-13.7 27.13c1.48 6.41-1.72 27.08-3.84 31.65s-14.17 13.18-30.27 12.1-35.64-8.15-43.19-15.76c-7.55-7.61-11.88-16.32-13.05-21.01-1.17-4.68-.07-34.96-.57-41.34-.5-6.37-.72-7.12-.45-7.84.27-.72-1.1-3.22-2.54-4-1.44-.78-3.78-3.56-3.78-3.56s8.3.06 9.45-1.12c1.15-1.18.18-1.46-3.42-3.3s-4.38-7.25-6.17-11.71c-1.79-4.47-6.24-9.77-6.24-9.77s4.69-1.05 4.58-4.97c-.1-3.92-3.19-6.48-6.35-6.84-3.16-.36-10.14 3.3-10.14 3.3s-3.83-2.1-4.81-2.13c-.98-.04 3.38-5.5-2.39-8.16s-8.07-.05-9.58 1.36c-1.52 1.41-4.07 4.5-4.07 4.5s-2.43-.33-8.54-.31c-6.11.02-9.28-.34-9.28-.34s-.21-.98.1-2.69-1.53 1.63-1.32 2.75c.2 1.12-.49-.15-1.47-.05-.98.1-2.21.4-2.63-1.5-.42-1.9-1.26.93-1.05 1.83s-.52.8-1.95-.07c-1.44-.87-2.65-1.15-2.873-1.65-.227-.5-.08 2.19-.08 2.19 1.66 1.53-2.73.62-8.27 5.57-6.32 5.64-6.52 11.26-6.52 11.26s-8.09.68-14.41-.53c-6.39-1.17-13.58 1.5-13.58 1.5zm33.936 20.86c-.165.73-1.446-3.227-.322-3.784 0 0 2.332 1.65 2.837 1.667.505.02-2.35 1.387-2.515 2.117zm.274-7.535c-1.387-2.35-3.183-6.097-3.06-6.966.125-.87 2.226-.48 2.732-.46.505.02 2.824-.5 2.824-.5s.93 1.41 1.35 2.07c.66 1.03 2.054 1.73 2.054 1.73s-.855 7.05-1.004 7.37c-.15.31-3.51-.91-4.896-3.26zm14.59 14.195c-.793-.166-1.226.355-2 1.414-.776 1.063-1.224 3.252-1.553 3.426-.328.172-3.5.838-3.607.283-.11-.557.937-2.727-.04-6.213-.978-3.486-1.224-5.564-1.383-6.262-.116-.51 2.284.45 2.184.68-.1.225-.463 2.604 1.138 4.135 1.6 1.53 1.143 1.467 2.4 1.053 1.257-.414 1.856-1.72 2.348-2.602.493-.883.382-1.99.73-1.932.35.06 5.392-.68 7.417-1.938 2.024-1.262 6.562-3.305 7.175-3.743.613-.43 1.146 1.38-.504 5s-9.9 9.26-10.68 9.27c-.78.02-2.82-2.4-3.61-2.57zm1.39 3.042c-.154.455-2.024 1.262-2.625 1.33-.35.043-.6-1.033-.17-1.523.43-.49.59-.9.79-1.31.2-.41 2.17 1.04 2.02 1.5zm-6.043-9.65s1.352.784 2.282.495c.93-.287-.894 1.807-1.238 2.395-.343.586-1.625-2.084-1.044-2.89zm8.84-4.004c-4.472 1.54-7.216 1.072-8.317.985-1.1-.086-3.254-.35-3.42-.814-.167-.47.104-4.11.182-5 .078-.89.55-2.48.55-2.48s2.454-.42 3.31-1.17c.854-.75 2.77-1.51 2.826-1.83.057-.32 3.936 1.84 4.934 2.2 1 .36 9.233 2.91 9.516 2.74.282-.18-5.108 3.81-9.58 5.35zM48.15 86.364c-1.233 1.014-2.645 1.882-3.472 1.852-.827-.03-1.866-.574-2.376-1.697-.51-1.13-1.555-4.06.528-4.4.66-.11 1.613-.08 2.62.09 1.005.17 3.057.66 3.452 1.18.394.52.48 1.95-.752 2.96zm-9.39 24.547c.338-.86.654-.71.868-.24.212.47 1.68 3.15 2.044 3.25.364.11-1.565-.01-2.16-.08 0 0-1.09-2.06-.752-2.92zm9.423 77.05c-.618.14-8.653 1.61-11.033 1.6-2.38-.01-6.515-.24-8.19-4.82-1.674-4.59.768-4.19 2.625-4.58 1.856-.39 3.298.05 3.693-.25s1.065.27 1.185 1.17c.12.9.926 1.98 1.373 2.34.448.37 1.143.24 1.932-.35.788-.58.042-1.15.06-1.68.02-.53 1.216.35 1.75.45.534.1.835 2.34.963 3.03.13.7.66.87 1.42 1.05.77.18 1.4-.41 1.12-1.26-.27-.85.3-1.75.61-1.82.31-.06 1.52.6 1.52.6-.33.76 1.61 4.44.99 4.57zm2.884-15.49c-1.767 2.98-2.095 4.63-2.63 4.67-.537.04-1.316-3.52-.135-6.58s4.54-4.22 5.35-4.4c.768-.17-.458.79 2.095 2.65.744.54-2.913.7-4.68 3.68zm51.107-105.43c1.586-.58 4.057-.22 4.32.16.262.38.814 1.6.814 1.6s-3.256-.26-4.713.57c-1.456.82-2.034 1.54-2.447 1.52-.414-.01-1.248-1.1-1.248-1.1s1.69-2.14 3.274-2.73zm4.125 5.49c-.62.58-1.11 1.21-1.81 1-.71-.21-.7-.53-1.15-.82-.45-.29-1.31-.78-1.31-.78s1.53-1.64 2.09-1.81c.56-.16 2.26-.33 2.75.1.49.43.03 1.75-.59 2.33zM83.85 58.36c2.065.122 2.36.867 3.554 2.2 1.194 1.332.267 4.692-.526 4.35-5.39-2.312-8.74-.87-8.772-1.653-.05-1.152 3.68-5.02 5.745-4.896zM35.58 76.32c1.03-1.428 5.794-4.68 5.794-4.68s4.524 3.345 7.2 3.687c2.68.342 5.235-2.744 3.903-2.303-1.33.44-8.155-1.765-9.95-2.808-1.796-1.043 1.866-.91 3.592-1.335 1.72-.42 2.96-.87 4.68-1.05 1.72-.18 1.88 2.03 2.9.84 1.02-1.18-.92-1.74-.97-2.97-.05-1.22 1.79.31 1.79.31l.67 1.74c.67 1.74 3.14 1.09 3.66.14.52-.96-.44-1.48-1.61-2.85s4.39.27 7.32.38 13.92.27 18.07.66c4.14.4 2.94-.38 2.12 2.08-.83 2.47-5.17 7.59-5.95 8.78-.78 1.2 1.15 2 2.63 1.57 1.48-.43 4.28-3.51 5.79-4.68 1.5-1.17 2.61-4.55 3.37-5.25.76-.7 1.92.81 2.36 2.29.43 1.48 0 0-2.84 4.05s-4.92 7.4-1.97 7.02c2.94-.38 4.23-2.04 5.97-2.96 1.74-.91 2.92-6.25 3.91-6.7.99-.45 2.63 1.57 2.63 1.57s-1.87 4.33-2.42 6.03c-.55 1.69-5.62 6.64-3.93 7.19 1.69.55 3.48-1.58 6.71-3.18 3.24-1.59 2.85-4.54 4.11-5.47 1.25-.94 3.71 5.51 4.13 7.24.43 1.73 1.5 5.68 2.65 7.92 1.14 2.24 4.72 4.57 3.25 4.76-1.48.19-1.71-.06-3.16-.6s-1.57 2.63-1.14 4.36c.42 1.73 4.45 5.3 4.45 5.3s-2.73 1.12-4.66.32c-1.93-.81-3.19.37-3.96 1.32-.77.95 2 5.45 3.17 6.96 1.17 1.51-.29 1.21-2.73 1.12-2.44-.09-5.57-1.42-6.36.02s2.23 5.7 2.68 6.94c.44 1.24-1.5.99-3.71 1.15-2.21.16-4.55-2.68-5.62-.2-1.07 2.47 2.98 5.42 2.47 6.13-.51.72-10.98-.64-11.27.57-.29 1.21 9.2 2.53 10.64 3.08 1.44.54 6.39-.99 6.17-1.74-.22-.74-4.73-4.33-5.18-5.57-.44-1.23 4.89-.06 6.85.01 1.95.08 6.38-.74 5.68-1.74s-6.17-5.12-6.37-6.35c-.2-1.23 6.78 1.72 9.5.84 2.72-.88.57-2.18-.36-3.43-.93-1.25-3.71-5.51-2.24-5.7 1.48-.19 4.63.65 5.34 1.17.72.51-2.26 8.23-.79 8.28 1.47.06.63 2.96.34 4.17s-13.96 14.16-16.44 15.05c-2.48.89-9.82 7.71-10.59 8.9-.78 1.2-1.8 2.38.39 2.71 2.19.32 7.69-2.94 11.42-4.72s15.61-12.39 15.61-12.39.43 1.72.64 2.45c.22.73-6.61 6.86-8.42 9.73-1.82 2.87-6.36 6.86-9.35 8.22-2.98 1.36-3.9 6.46-2.77 8.95 1.13 2.48.53-1.2 3.21-.86s4.3-3.76 8.51-5.32c4.21-1.56 9.55-7.23 9.55-7.23s-.56 1.93-.89 4.37c-.34 2.43-8.85 14.59-11.14 17.19s-5.64 7.13-6.74 10.34.39 2.63 1.4 1.69 10.23-5.74 14.51-9 6.15-7.84 6.69-6.11c.55 1.73 1.99 2.52 2.2 4.24.2 1.72-3.01 8.21-4.39 12.56s-4.21 8.16-4.29 10.36c-.08 2.2 2.29 4.24 4.27 3.58 1.98-.66 4.36-5.71 6.42-8.32 2.05-2.62 5.7-8.84 6.15-7.77s8.33 6.1 9.79 6.4c1.45.3.6 3.44 1.25 5.91s2.71 5.97 5.86 6.81c3.15.84 0 0 .58-2.43s.19-5.13.96-6.34 2.66.6 3.9.14.19 1.49.58 4.19c.39 2.7 4.22 4.8 5.68 5.09 1.45.3-.73-6.87.95-6.07 1.69.8 6.08.96 6.81.98s1.12 2.98 1.04 5.17 3.76 4.05 5.25 3.61 0 0 .53-1.2-.72-7.11.71-6.08c1.43 1.03 7.84-.45 7.76 1.75-.08 2.2 2.05 3.99 3.26 4.52s1.94.32 1.5-.92 1.67-5.81 1.67-5.81 5.43-1.51 6.42-1.72c.98-.21.89 2.24 1.78 4.71.88 2.48 5.74 3.39 5.31 1.91-.44-1.48-2.68-7.19-1.7-7.15.98.03 6.01-3.94 6.73-3.43s2.57 3.27 3.78 3.56 4.97.83 2.52-2.1-3.48-5.26-2.738-5.48c.74-.22 2.08-3.35 3.53-2.98 1.456.37 5.41-.85 5.72-2.55s-5.064-1.9-4.02-3.81 1.47-6.79 2.215-7.01c.74-.214 4.03-3.27 4.08-4.74.06-1.462-3.69.6-4.62-.653-.93-1.26-.86-3.22.15-4.16s5.02-3.48 4.58-4.963c-.43-1.48-2.88-1.33-4.8-2.37-1.92-1.05-.69-7.85-.65-9.03.05-1.18 3.48-1.38 4.71-1.58s4.42-.575 3.49-1.83c-.94-1.26-6.49-3.19-6.49-3.19s1.21-6.3 1.95-6.52 3.65.62 4.84 1.39 4.05 3.08 4.12 1.13c.07-1.95-5.87-6.57-5.87-6.57s.8-1.68 3.52-2.56c2.72-.88 3.89.63 7.28 1.49s2.58 3.03 1.75 5.69c-.83 2.66-5.83 5.66-7.93 9.49s-4.57 17.93-3.77 22.85c.8 4.92-1.77 15.1-3.73 21.87-1.96 6.78-7.32 12.94-13.8 16.37-6.48 3.43-25.89 5.9-32.19 4.45-6.31-1.45-27.05-2.45-32.15-3.61-5.09-1.165-14.89-.544-19.55-.226-4.66.32-29.06-1.06-32.73-.95s-20.55.477-24.49 1.068c-3.93.59-9.91 3.55-15.57 4.07-5.67.53-8.64-3.98-8.56-5.94.07-1.95 2.76-2.1 4.22-1.8 1.45.3 1.32 3.96 2.8 3.53 1.48-.42 3.43-.13 3.23-1.36-.2-1.23-3.58-2.57-1.39-2.74.4-.03.75-.01 1.05.04-.2-.25-.2-.29.2.01l.07.06c.99.26 1.06.79 0 0l-.27-.06c.5.64 2.37 2.63 2.51 3.52.2 1.23 1.685.79 3.176.11 1.49-.68-.91-1.99-2.31-3.626-1.41-1.64.75-.59 3.66.01s6.365-.26 7.15-1.7c.79-1.44-1.647-1.77-3.81-2.83-2.16-1.06-7.85-5.91-7.57-6.9.28-.99 2.42.59 5.08 1.46s4.875.38 8.79.32c3.915-.07 3.24-1.64 2.053-2.66-1.19-1.02-5.81-1.68-8.24-2.01-2.433-.33-4.34-1.627-7.51-1.957-3.165-.33-2.603-2.327-1.78-4.91.83-2.58 3.14-5.58 4.397-6.51 1.25-.93 1.64 1.77 3.52 4.04 1.87 2.27 5.72 4.12 7.9 4.45 2.19.32 5.605.44 5.18-1.21-.43-1.66-5.78-2.49-8.19-3.55-2.404-1.07-3.763-4.05-4.68-5.8-.913-1.74 5.708-2.23 7.425-2.41 1.71-.18 1.52-1.41 2.12 2.04.61 3.44 3.01 4.68 5.11 7.27 2.11 2.6 4.8 2.62 5.836.95s-2.11-2.52-4.01-4.06c-1.9-1.534-3.51-4.284-4.43-6.03s1.48-.43 4.17-.334c2.684.1 6.11-.02 7.55.77s2.625 8.41 2.02 11.64-2.83 3.74-5.306 4.65c-2.48.91-1.35 3.34-.91 4.81.43 1.47 1.41 1.53 3.62 1.12 2.22-.41 7.15-1.45 9-5.51 1.86-4.06-.74-13.26-2.58-16.26-1.85-3-5.2-5.08-8.62-5.206-3.41-.12-7.63 1.44-11.26.57-3.64-.87-11.8 1.77-11.8 1.77s-2.1-2.77-2.49-5.47c-.39-2.7-2.23-5.95-4.58-8.727-2.344-2.77-5.79-6.14-8.368-5.19s-3.93.34-4.39 3.02c-.468 2.67 2.76 4.84-.22 5.95-2.98 1.11-3.79.02-4.248-.98-.46-.99-.94-1.01-3.17-.36s-1.7-.31-2.518-2.27c-.818-1.97 1.42-1.43 1.492-3.39.07-1.95 0 0-4.62-.65-4.63-.66-2.06-3.99-1-6.15 1.05-2.16 8.19-3.37 10.62-3.04 2.44.34 5.37.2 6.36-.01.99-.21.8 4.92 2.82 6.22 2.02 1.3 2.31.82 2.36-.65.06-1.46-1.53-4.94-2.12-5.94-.59-1 3.75 1.6 4.62 1.88.88.27.95 3.454 1.37 5.43s1.91 1.05 3.18-.13c1.26-1.18-.64-2.72-.1-3.92.53-1.2 2.17.82 2.86 2.06.68 1.25-.13 3.42-.21 5.62-.08 2.2 1.83 3.49 3.772 3.81 1.947.32 1.05-1.91 1.16-4.91s-.68-1.67 1.97-.35c2.64 1.32 4.41-.33 3.48-1.586-.94-1.256-9.03-7.176-13.38-8.56-4.36-1.38-3.57-2.82-5.98-3.64-2.42-.82-7.63 1.19-9.09.96-1.46-.23.3-1.513.346-2.75.05-1.23-3.99-4.532-5.91-5.58-1.914-1.05-2.88-1.33-6.075-.954-3.19.37-2.505 1.62-1.8 2.38.71.752.33 4.41-1.68 5.81-2.01 1.4-3.65-.38-3.825-2.35-.17-1.98 2.9-5.75 4.16-6.68 1.25-.93-2.434-.33-3.64-.87-1.2-.53-2.21.41-3.25 2.08s-1.99.9-1.93-.56c.054-1.47 1.36-3.62 3.11-4.78 1.75-1.16 2.06-2.86 1.6-3.61-.46-.75-4.62-.66-4.62-.66l-1.3 2.15c-1.3 2.15-3.18-.113-2.58-3.025s3.42-6.72 6.41-8.08c2.98-1.36 5.35.68 5.35.68s.81 4.43 1.72 6.41c.9 1.99 4.58 1.633 3.87 1.12-.72-.517-2.51-4.98-1.76-5.44.75-.46 3.59 2.33 3.59 2.33s.83 4.43.16 5.14c-.66.71 2.27 1.79 3.52 1.1 1.25-.685-.1-3.91-.1-3.91s.69 1.25 1.66 1.53.41 2.214 1.05 4.75c.64 2.534 4.14 7.173 13.31 8 6.09.544 11.32.483 20.95-2.09 4.91-1.31 8.76-5.63 9.32-7.57.56-1.94-2.876-1.57-4.94 1.29-2.06 2.86-17.1 6.47-26.6 5.39s-10.856-10.66-9.64-10.38c1.21.29 5.1.92 16.08-2.84 10.97-3.75 12.92-8.086 14.23-10.48 1.31-2.4 2.53-8.956 2.53-8.956s3.61 1.6 4.34 1.62c.73.02 2.71-.66 2.02-1.88-.68-1.23-5.31-1.66-6.3-1.45-.98.21-.91-1.75-1.62-2.45-.71-.705-3.4-.67-4.88-.234-1.48.43-8.7-2.73-8.7-2.73l10.05-.65c3.56 1.05 9.48 1.56 9.28.33-.2-1.23-8.007-1.76-11.67-1.9-3.66-.13-12.75-1.69-12.75-1.69s1.14-1.91-3.7-3.31c-4.84-1.4-6.836-.25-7.325-.27l-6.84-.25s.35-2.67 1.38-4.1zm-2.01 7.213l4.988.688-5.042.79s-.513-1.07.054-1.47z"/>
  <path fill="#FFF" d="M68.94 76.162c-1.026-.08-3.143-.27-5.258-.62-.882-.144-.54.668.056 1.36.596.696 1.54 2.44 5.142 2.31 3.602-.126 5.47-1.636 5.636-1.967s-.37-.48-.852-.755c-.48-.278-4.08-.28-4.723-.328zm-4.254-4.684c.284.08 1.188.07 1.232-.42.043-.49-.868-1.042-1.38-1.888-.512-.847-.886-1.25-1.25-1.883-.366-.633-.486-.172-.52.732-.033.9.55 3.07 1.918 3.45zm3.664.29c.456.162 1.57-.462 1.637-.872.066-.412-1.54-1.79-1.872-2.605-.332-.81-1.04-1.33-1.128-1.69-.09-.36-.485.5-.445 1.57.038 1.06.276 3.07 1.81 3.61zm4.154-.368c.59.09 1.255-.367 1.318-.675.063-.308-.325-1.047-1.094-1.955-.77-.908-.848-.858-1.033-1.46-.185-.603-.47.81-.48 1.767-.007.957.157 2.153 1.29 2.323zm17.056 47.433c.362-.14.433-.697.052-1.426-.38-.727-3.427-2.416-3.857-3.195-.43-.78-2.724-2.137-2.724-2.137-.82.123 2.23 3.34 2.7 4.223.48.884 3.47 2.673 3.83 2.535zm3.742-4.856c.945.645 1.476.055 1.645-.398s.118-1.83.08-2.19c-.04-.36-3.457-1.61-4.414-1.9-.958-.29-1.11-1.16-1.64-1.13-.562.03-.31 1.51.323 2.3.634.78 3.06 2.66 4.006 3.3zm2.753-8.457c1.143.805 2.215 2.12 3.374 2.467 1.16.348 2.93.564 3.51.127s.31-1.62.08-2.238-1.94-1.496-4.31-1.992c-2.38-.494-3.01-1.742-3.27-1.8-1.08-.244-.54 2.63.61 3.436zm9.95-4.63c1.107.345 1.044-.726 1.123-1.487.08-.76-2.153-2.42-2.894-3.06s-.945-1.506-1.51-1.89c-.796-.54-.81 1.244-.11 3.002.7 1.758 2.282 3.088 3.39 3.436zm26.358 19.155c1.888 1.533 4.72 2.83 6.134 1.77 1.416-1.063-.354-8.61 1.062-10.38s2.94-5.63 5.89-7.71 16.51-3.615 18.52-3.732c2-.117 6.13-.236 9.32-.473 3.18-.236 10.73 1.652 12.97 1.652s6.72 1.416 7.78 4.13c1.06 2.712 2.24 4.208 2.36 8.12.11 3.91 2.24 5.207 1.77 6.977-.47 1.77-.59 8.39.7 8.2 1.3-.19 2.12-1.61 5.89-2.2 3.77-.59 1.53-2.08.94-5.23-.59-3.15-1.42-5.19-1.54-7.77-.12-2.58-.36-10.01-7.55-12.84s-12.03-3.89-17.7-4.37c-5.66-.48-7.67.11-7.43-.71.23-.83 1.18-4.37 1.06-5.55-.12-1.18-.94-4.37-2.48-4.72-1.54-.35-3.27-.8-3.54 0-.34 1-1.06 4.84-.59 6.25.47 1.41 1.18 4.48.59 4.71-.59.24-9.61.24-16.78 3.3-7.17 3.07-11.07 2.14-15.31 8.14-2.83 4.01-2.36 8.31-2.83 8.99-.48.69-1.18 1.86.7 3.4z"/>
  <path fill="#FFF" d="M193.11 159.208c1.298-1.887 2.596-4.246 2.36-10.262-.236-6.016-4.012-19.346-7.078-22.648s-4.717-4.32-7.43-5.11c-2.714-.786-9.438.554-9.556 0s-2.005-7.784-1.415-7.765c.59.018 6.49.844 8.5.844s7.9.943 8.38-.12c.48-1.06 1.06-2.003-1.18-3.183-2.24-1.18-2.47-2.043-5.19-1.67-2.71.37-13.8.018-13.8.018-2.36-.117-6.25.377-9.08.438s-6.42.318-7.81 0-2.56-.205-2.09.445c.47.652 4.13 3.092 5.19 3.23 1.06.134 10.62-.493 11.09 0 .47.487.59 7.685.94 8.628s-2.59.117-6.49.824c-3.89.71-6.84.71-9.91 5.19s-4.12 4.364-5.42 9.79c-1.29 5.428.83 10.38.95 12.857.12 2.48.7 5.78 1.3 6.725.59.94 2.36.11 2.6.7.24.59 1.18.12.83 1.41-.35 1.3 3.66 2.95 6.73 3.42 3.07.47 1 1.41-.8 4.24-1.79 2.83-3.56 8.14-.85 8.61 2.71.47 6.72 1.77 7.67-.83.95-2.6 1.3-10.97 2.72-11.21s3.89.35 6.96 0c3.07-.36 5.9.47 7.19.12 1.3-.36 2.84 2.12 2.95 4.24.12 2.12-.12 5.19 2.6 5.42 2.72.23 3.9 1.18 5.78-.36 1.89-1.54 1.18-2.48-.59-4.48s-3.65-4.96-3.18-6.02c.48-1.06 5.91-1.65 7.2-3.54zm-42.227-21.823c.59-2.832 1.415-6.37 3.42-7.785 2.006-1.416 2.95-1.525 4.365-2.06s6.705-.97 6.605 0c-.19 1.827-.59 8.075 0 9.728.59 1.65 0 1.65-1.887 1.65-1.89 0-9.318.59-10.263.473-.942-.11-2.83.83-2.24-2zm15.098 16.987c-.23.707-5.19.117-7.85.234-2.65.12-5.47.945-6.77 1.182-1.3.236-.35-.59.12-2.596s-1.06-9.555-.7-9.79 4.24.59 6.37.825 9.44-1.232 8.36 0c-.72.826.73 9.436.49 10.145zm6.26-22.06c-.47-2.005-1.75-4.85 0-6.25.59-.474 0 0 4.37 0s4.13.59 4.84 2.546c.71 1.96 3.54 6.654 3.54 7.48 0 .824-3.07.473-4.95.473-1.89 0-6.6 1.42-7.78 1.54-1.18.12.48-3.77 0-5.78zm5.93 20.407c-2.97.11-6.39 2.71-6.27 1.18.12-1.54.71-8.5 0-9.91-.47-.95 4.01.47 4.72 0s6.72-2.24 8.38-2.13c1.65.11 2.83 5.9 1.18 7.19s-5.02 3.54-7.99 3.65z"/>
</svg>
