<svg xmlns="http://www.w3.org/2000/svg" width="300" height="300" viewBox="0 0 230 230">
  <path fill="#DF230E" d="M33.705 221.22c-1-.016-1.64-.736-2.455-1.37-.817-.636-.93-.02-1.005.302-.074.32.69 1.162.69 1.162s-1.128.564-.528 1.338c.3.387 1.244 1.107 3.052.344 1.8-.762 1.96-2.152 1.96-2.152s-.72.392-1.72.376zm-29.56-91.455c.96-3.266-1.16-3.97-3.01-4.345-.455-.092-.837.03-1.135.273v2.957c.027.01.05.027.08.037 1.476.47 2.793-.928 2.793-.928l-.393 1.85s-.768.67-2.48.26v1.62c1.89-.05 3.763-.44 4.144-1.74zm29.982 84.987s-.015-.218-.488-.49c-.48-.272-.79.058-1.09.51-.35.52-.41 1.88.33 2.887.74 1.01 1.83 1.01 1.83 1.01s-.15-.08-.28-1.5c-.14-1.43 1.04-2.15.46-2.6-.58-.45-.78.17-.78.17zm3.37 6.94s-.06.396-.553 1.42c-.494 1.027-1.04 1.11-1.39 1.354-.352.244-.22.67.052.967.272.298 1.18.065 1.18.065s.093.356.274.868.7.48 1.03.1c.328-.38.667-1.004.528-2.178-.138-1.175-1.12-2.594-1.12-2.594zM.665 180.626c.858-.154.97-1.25.546-2.95-.22-.88-.71-1.497-1.21-1.93v4.592c.14.184.36.342.67.288zm137.322 48.652s-.64.328-2.646.697c-2.01.37-2.71-.336-3.43-.586-.72-.26-1.2.39-1.34 1.1-.14.71 1.15 1.78 1.15 1.78s-.42.51-.97 1.31c-.02.03-.03.06-.05.09h4.68c.01-.02.03-.03.04-.04 1.56-1.45 2.58-4.37 2.58-4.37zM3.024 174.288c.633-.036.203-1.32.203-1.32s.328.263.865-.043c.648-.368.104-1.19-.325-1.68-.43-.488-1.308-1.214-3.065-.97-.26.036-.492.098-.702.175v1.647c.238.014.485.047.748.138 1.266.433 1.643 2.086 2.276 2.05zm140.596 54.12c-.692-.54-2.43-.358-2.43-.358s1.093 1.792 1.43 3.067c.157.596.443 1.584.196 2.563h3.76c-.012-.222-.022-.442-.043-.682-.237-2.63-2.22-4.052-2.912-4.592zm37.926-10.898c1.84 1.25 8.504 5.728 8.504 5.728s-.82-1.443-.748-3.875c.072-2.433 1.834-3.7 1.834-3.7s-2.38 1.554-4.816 1.685c-2.44.13-5.867-.58-4.774.162zm48.71-164.242c-.5-.09-.75.38-.77.86-.02.48.94 1.05.94 1.05s-.224.38-.5.963c-.28.59.185 1 .784.96.596-.04 1.408-.28 2.28-1.39.283-.36.507-.81.69-1.26v-1.58c-.258.12-.616.27-1.11.44-1.28.45-1.815.06-2.313-.03zm-1.782 155.08c-.906-.23-4.715-1.763-4.764-3.59-.047-1.827-6.104-6.267-11.236-4.187s-4.496 7.99-6.494 10.46c-2 2.48-10.7 1.72-11.97 6.95-1.27 5.24 2.862 9.52 3.866 9.86 1.004.34 14.602 2.52 16.102-2.56 1.834-6.22-2.21-7.57-5.74-8.28-3.53-.71-4.822 5.34-2.01 6.23 2.814.9 5.326-1.77 5.326-1.77l-.748 3.53s-1.63 1.48-5.35.35c-4.88-1.47-3.045-6.78-1.158-8.86 1.887-2.07 7.422-4.04 11.346.44 3.926 4.48 1.977 8.68 1.355 9.07-.62.39 2.83.29 2.83.29l3.11 1.11s5.54 1.08 8.54-.76c.83-.51 1.53-.88 2.19-1.15v-23.63c-2.79 2.11-5.21 6.53-5.21 6.53zm2.046-162.6c-.153-1.225-.77-.8-1.103-.594-.332.208-.398 1.563-.398 1.563s-1.43-.477-1.58.682c-.07.57.11 1.98 2.28 2.86 2.16.88 3.46-.16 3.46-.16s-.94-.28-1.76-1.13c-.83-.86-.76-2-.92-3.23zM21.045.818C21.53.818 22.58.36 23.87 0h-5.107c.253.417.47.763.522.896.16.4.88-.08 1.76-.08z"/>
  <path fill="#DF230E" d="M5.02 125.375c2.058 2.348 1.036 4.552.71 4.757-.325.2 1.485.148 1.485.148l1.632.58c1.632.58 2.91.564 4.48-.4s2.32-1.048 4.013-.732c1.693.316 2.373 2.518 5.697 3.467 3.323.95 5.484-1.966 5.78-4.83.3-2.864-2.37-4.38-3.908-4.548-1.54-.168-2.46.317-3.31 2.1-.85 1.785.78 2.26 2.63 2.792 1.84.53 2.39-3.6 2.39-3.6s.78 2.31.25 3.98-2.18 1.75-3.87 1.44c-1.59-.3-5.02-3.29-3.25-5.53 1.77-2.24 5.14-3.1 8.12-1.41 2.98 1.68 2.62 4.92 2.62 4.92l3.03.09c2.5.07 4.5-1.2 4.5-1.2s-1.91-.22-3.16-1.27-1.86-1.87-2.94-3.23c-1.08-1.36-3.85-4.9-5.96-5.45-2.11-.54-3.22 1.34-3.94 1.7-1.3.65-.42 3.38-1.72 2.28-1.3-1.11-1.52-.95-1.62-2.87-.1-1.92-1.85-2.29-3.57-1.54-1.73.74-3.41 3.83-3.41 3.83-.48-.12-2.48-.93-2.5-1.89-.03-.96-3.2-3.29-5.9-2.2-2.64 1.08-2.37 4.08-3.35 5.42v2.23c1.32-.69 3.42-.9 5.02.91zM90.628 21.24c1.474-1.304 3.24-.582 3.27-1.592.03-1.01-.818-.72-.818-.72s.23-.193.15-.94c-.083-.75-.705-.83-1.45-.798-.863.037-2.427 1.066-2.946 2.712-.52 1.648.353 2.866.353 2.866s-.032-.223 1.44-1.528zm-7.37 11.607c.69.058 1.66-.07 2.855-1.18 1.193-1.106 1.977-3.352 1.977-3.352s-.49.252-2.03.536c-1.542.29-2.08-.25-2.635-.45-.556-.19-.925.3-1.033.85-.11.55.884 1.37.884 1.37s-.32.4-.742 1.01c-.422.62.034 1.17.724 1.23zm-36.77 131.95c6.746-4.67 13.493-3.763 13.493-3.763s1.56-2.336 3.64-5.708c2.08-3.374 2.6-5.58 2.6-5.58s-6.2-1.9-11.93-2.075c-1.94-.06-9.34 2.47-11.54 4.94-2.56 2.87-3.37 5.71-4.8 9.73-1.43 4.02-4.67 4.15-7.65 4.02-2.98-.13-7.31-1.52-12.07 8.18-4.75 9.7 4.15 15.31 2.86 13.49-1.3-1.81-.26-5.7-.52-7-.26-1.3 1.43-.78 1.17.13s.52 6.23.91 7.66c.39 1.43 2.98 1.82 2.98 1.82s-1.04-1.04-1.04-4.67 1.56-4.67 1.04-3.89c-.52.78.39 8.43 1.17 9.47.78 1.04 4.15.39 2.34-.65-1.82-1.04-1.04-5.84 0-5.97 1.04-.13 1.3 5.19 1.82 7.01.52 1.82 6.75-3.37 6.75-3.37s-1.42-3.63 0-8.3c.78-2.53 2.08-10.77 8.83-15.44zM83.36 24.877c2.315 1.39 3.987.436 3.987.436s-1.017-.478-1.81-1.602-.51-2.42-.467-3.84c.044-1.42-.733-1.05-1.15-.87-.42.18-.735 1.72-.735 1.72s-1.545-.8-1.92.5c-.186.65-.22 2.29 2.096 3.68zm8.16 9.074c.692.05 1.167-.63 1.134-.48-.033.16.15.99.844.97 1.007-.02 1.33-1.25 1.15-3.27-.182-2.01-1.702-3.11-2.234-3.52-.53-.41-1.863-.27-1.863-.27s.84 1.38 1.1 2.36c.17.64.55 1.88-.31 2.86-.86.98-.5 1.33.19 1.37zm49.278 22.74c1.328-.43 2.275.53 2.58-.12.303-.65-.332-.7-.332-.7s.205-.06.363-.57c.15-.51-.23-.74-.73-.93-.57-.21-1.88.02-2.68.94-.81.93-.58 1.97-.58 1.97s.04-.15 1.37-.59zm-2.992 8.54c.44.23.94-.08.875.01-.06.09-.18.69.28.87.66.27 1.22-.44 1.67-1.81s-.23-2.5-.46-2.92c-.23-.42-1.14-.7-1.14-.7s.16 1.13.06 1.84c-.07.47-.17 1.38-1.01 1.78s-.7.72-.26.95zm-5.074-3.04c.433.23 1.1.42 2.19.04 1.09-.38 2.233-1.63 2.233-1.63s-.39.03-1.473-.22c-1.086-.25-1.285-.75-1.59-1.03-.31-.28-.69-.06-.912.26-.226.33.192 1.14.192 1.14s-.32.17-.77.45c-.447.29-.303.77.13 1.01zM92.1 24.84s1.453-.776 2.993.04c1.367.723 1.502 2.676 2.23 2.75.73.073.47-1.468.47-1.468s.326.358.994.106c.806-.304.33-1.34-.07-1.975-.405-.63-1.277-1.62-3.327-1.65-2.484-.042-3.25 2.077-3.25 2.077l-.04.127zm45.415 33.575s-.528-.597-.728-1.553c-.2-.956.347-1.722.777-2.638.43-.916-.184-.89-.506-.893-.322-.01-.96.91-.96.91s-.78-.96-1.39-.22c-.304.37-.786 1.43.332 2.98 1.116 1.56 2.475 1.41 2.475 1.41zm-40.038 32.18l-.908.827c-.91.825-3.22 1.402-3.55 4.706-.33 3.302 4.04 8.254 4.04 8.254s1.15-2.064 1.4-3.22.86-1.1 1.73-4.375c1.04-3.916-2.73-6.19-2.73-6.19z"/>
  <path fill="#DF230E" d="M114.343 152.862s2.855.26 4.022.388c1.167.13 4.93 1.04 9.34 4.932 4.412 3.892 12.457 4.02 12.197 4.93s-5.708 2.335-9.86.908-6.23-3.762-9.99-6.617c-3.763-2.854-6.877-2.465-6.877-2.465s-1.816 1.297-3.762 1.167c-1.946-.128-4.282-.52-4.282-.52l-2.46 1.17c-2.46 1.167-3.5 3.372-4.8 2.983-1.3-.39-1.43-1.557-.52-2.596.91-1.038 5.32-3.373 5.32-3.373s-2.47-2.21-3.11-3.12-1.42-4.54-1.42-4.54-2.07 0-3.76-.13-3.5 1.3-5.19 3.24c-1.68 1.94-7.26 1.94-7.26 1.94s-.39 2.2-1.68 4.54c-1.3 2.33-4.28 6.62-4.28 6.62s4.67.52 7.01 1.68 4.54 1.03 13.63 7.91c9.08 6.88 20.63 5.84 20.63 5.84-1.3 2.72-5.45 2.86-7.78 2.86-2.34 0-9.6-1.3-13.1-2.86-3.5-1.56-12.07-7.79-14.4-9.47-2.34-1.69-5.58-3.5-6.75-4.15-1.17-.65-2.2 1.81-2.85 2.46-.64.65-3.11 2.33-7.78 2.07-4.67-.26-5.06-3.63-5.06-3.63s-3.76.52-6.61 1.81c-2.85 1.3-4.41 1.56-9.86 10.12-5.45 8.56 1.04 19.72.78 18.16-.26-1.56 1.17-2.86 1.56-3.51.39-.65.78 4.93.65 5.7-.13.78 3.5 3.64 2.85 2.73s-.52-3.63 0-4.93c.52-1.3 1.17-.65.78.39-.39 1.04.78 4.67 1.04 5.84s4.41 2.2 14.14 1.3c9.73-.91 12.72-7.26 13.11-10.51s-4.8-7.91-6.74-8.95c-1.95-1.03-7.01-1.03-8.43 2.6s.91 4.93 2.34 5.45c1.43.52 2.86-1.04 2.86-1.04s-.13 1.17-.52 2.07c-.39.91-6.13 1.39-7.39-.9-3.49-6.33 1.56-11.03 5.06-12.72 3.51-1.69 10.77-1.69 15.31 5.97 4.54 7.66-2.2 14.79-2.2 15.7s5.84 2.72 6.87 3.24c1.04.52-.91-3.5 0-4.41.91-.91.91 3.24 2.21 4.15 1.3.91 4.93 1.56 3.76.66s-2.98-4.16-1.42-4.55c1.56-.39 2.47 4.8 3.77 4.54 1.29-.25 4.41-1.03 3.37-1.81s-3.11-4.28-1.17-3.63c1.95.65 1.17 3.63 2.73 3.11s2.856-1.04 2.856-1.04.44-1.16-1.17-1.81c-1.6-.65.52-1.56.78-.52s1.82 2.72 4.67 0c2.86-2.73 6.36-4.28 9.21-4.54s9.34 2.07 7.53.52c-1.82-1.56 0-2.08.78-1.43 1.09.91 1.38 2.29 2.98 2.2 2.743-.15 4.95-.8 4.28-1.79-1.96-2.86-.65-1.85-.65-1.85s3.59 3.06 9.04-1.09c5.45-4.15 14.7-12.92 18.72-14.61s12.33 0 17.39-1.43c5.06-1.43 12.85-6.88 15.57-8.82 2.73-1.95 18.493-9.47 18.493-9.47s-7.34.39-10.97-.91c-3.63-1.3-3.63-.91-10.25.78s-7.008 1.95-13.62.91-10.9-5.58-16.35-7.4c-5.45-1.82-8.44 4.02-16.22 2.46-7.78-1.56-13.23-7.39-18.81-8.17-5.58-.78-9.73 2.2-9.73 2.2s.65 1.29 2.07 3.37c1.43 2.08-.51 3.63-.51 3.63zm-36.43-93.636c-.33.742-1.656 1.215-2.313 1.238-1.24.042-4.044-.248-5.53-.165-1.487.08-2.394.57-2.394.57l.495 1.98c.17.66 1.9 2.31 3.24 2.56 1.34.24 3.7 2.06 2.63 3.58-2.05 2.9-2.89 6.49-2.56 7.06.33.58-.99 6.6 8.09 6.52 9.08-.09 9.99-3.47 11.4-5.2 1.4-1.74-.74-4.54-1.15-5.37-.41-.83-2.8-1.65-3.13-4.3-.33-2.64 1.98-3.14 2.48-3.64s4.3-2.72 2.23-5.28c-2.06-2.56-5.28-3.22-6.27-3.39-.99-.16-1.9.74-4.04 1.4-2.14.66-1.98 0-1.98 0s-.82 1.65-1.16 2.39zm-3.92 4.082c-.65 0-1.173-.488-1.173-1.09s.524-1.092 1.17-1.092c.647 0 1.17.49 1.17 1.092s-.523 1.09-1.17 1.09zm12.893-3.47c.646 0 1.17.487 1.17 1.09s-.523 1.09-1.17 1.09-1.17-.487-1.17-1.09.523-1.09 1.17-1.09zm-6.388 7.895c1.29.215 2.977.992 3.016 2.103.04 1.11-.24 1.388-.873 1.587-.63.198-.95.238-.91.397.04.16-.47.635-.67.794-.2.158-.87 3.016-.79 4.563.08 1.548.56 2.34.56 2.34s3.85-.476 5.08-2.182 1.39-1.745 1.83-1.666-1.59 2.61-1.82 2.73c-.24.12-1.35 2.42-6.07 2.54-4.72.12-7.06-2.26-7-3.53s1.01.87 2.35 1.46c1.88.83 4.9.79 4.9.79s-1.43-.16-1.27-3.61c.16-3.45.91-4.21.59-4.33-.32-.12-2.5-.4-2.06-1.95.44-1.55 2.18-2.23 3.18-2.06zm-40.115 147.35s.35-.04.487-.54c.166-.603-.644-.768-1.188-.803-.545-.034-1.495.056-2.393 1.242-1.09 1.44-.18 2.793-.18 2.793l.05.078s.16-1.184 1.3-1.736c1.01-.494 2.21.262 2.56-.133.35-.397-.67-.902-.67-.902zm16.973-144.55c-.248 3.056-.33 2.89 1.898 6.936s7.1 5.69 7.43 4.87c.33-.83-.33-2.32-1.733-2.98s-3.88-3.72-5.61-6.44c-1.73-2.73-.41-5.95-.41-5.95s-1.32.49-1.57 3.55z"/>
  <path fill="#DF230E" d="M79.347 70.55c.04-.436.794-.634.515-.317-.277.317.596.873.794.753.2-.12-.277-.477-.08-.753.2-.278.556.277.715.396.16.11.56.31.64-.6.08-.92-.67-1.23-1.86-1.19-.52.01-1.11-.24-1.54.75s.79 1.39.83.95zm28.78 36.392c0 .575 2.612 3.19 2.64 3.217-.018-.03.034-.26 5.284-1.65 5.62-1.49 10.41 1.07 15.94.49 5.53-.58 8.34-3.06 10.32-6.11 1.98-3.06 5.11-10.52.75-14.86-4.36-4.35-8.09-3.22-10.81-3.22-2.72 0-5.62 1.96-5.44 6.19.13 3.1 1.32 6.19 4.79 6.77 3.47.58 5.21-.33 5.12-2.97-.08-2.65-2.06-1.33-2.06-1.33l.08.82c.09.82-.33.91-2.39.58-2.06-.33-3.63-2.56-2.97-4.79.66-2.23 4.21-1.74 6.94-.83 2.72.91 7.97 3.17 4.04 10.48-2.49 4.65-8.34 5.45-13.29 6.19-4.95.74-10.89-1.82-13.54-1.9-2.64-.09-4.79 1.4-4.79 1.4s-.57.91-.57 1.48zM92.024 143.52c3.373-.52 5.58 0 5.58 0s.39-5.84.518-7.656c.13-1.815.185-6.78-5.32-6.746-6.765.042-7.133 7.136-8.172 10.77-1.036 3.632-2.074 9.21-2.074 9.21s3.373-.907 4.54-2.465c1.17-1.557 1.557-2.594 4.93-3.114z"/>
  <path fill="#DF230E" d="M55.458 89.934c4.045 1.238 10.65 1.816 11.392 1.816.743 0 .248 1.817-1.65 7.925-1.9 6.11.99 10.732 1.32 13.704s6.357 11.64 6.11 19.81c-.25 8.17-1.9 12.21-2.23 14.77-.33 2.56-3.302 8.58-6.604 12.38-3.3 3.79-1.238 6.19-1.238 6.19s.412-.75.578-1.82c.165-1.08 2.56-2.89 2.477-2.4-.083.49-.826 2.89-1.734 3.71-.91.82.57 1.07 1.4.63.82-.44.58-.39.49-1.46-.09-1.07 2.06-2.97 2.06-2.97s.33-.25.41.82c.08 1.07-.5 2.56-.91 3.38-.42.82 1.48-.58 5.61-5.62 4.12-5.03 6.19-9.99 7.43-18.41 1.24-8.42 4.62-14.28 6.77-16.18 2.14-1.9 7.92-2.72 11.64 0 3.71 2.72 2.22 9.24 1.48 14.36-.74 5.11 1.24 6.02 1.57 9.24.33 3.22 6.6 4.71 6.68 3.96.08-.74-2.48-2.64-.99-2.23 1.48.41 3.79 2.23 4.45 1.73.66-.5.08-.66-1.16-1.71-1.24-1.04-1.65-2.01-1.41-1.6.25.41 3.22 1.81 3.39 1.57s0-2.97-.91-3.06c-3.04-.27-3.47-5.11-4.37-6.77-.91-1.65-.25-8.83-.42-12.22s-1.98-7.01-3.22-9.65c-1.24-2.64-1.49-6.36-1.49-6.36s-3.14 0-5.37-3.22c-1-1.44-.74-4.71-.74-4.71s-1.16-.42-3.97-3.8c-1.75-2.11-2.4-7.1-2.07-8.42.33-1.32 3.71-5.2 7.34-4.87 3.63.33 5.12 3.3 5.12 8.17s-1.48 5.03-3.3 9.16c-1.82 4.13.33 3.8.41 4.7s5.53 2.06 4.7 1.35-.75-1.85-.99-2.43c-.25-.58 1.24-.41 1.48.83.25 1.24 1.57 1.73 2.14 1.56.57-.17 0-.58-.66-1.21s-.75-2.01-.83-2.26c-.08-.24 1.07.17 1.57.99.49.83 1.65 1.74 1.65.99 0-.74-2.15-2.64-2.31-3.71-.17-1.07-1.32.66.9-4.87 2.23-5.53 3.14-9.74 2.64-13.04-.49-3.3-4.21-6.44-6.52-7.68-2.31-1.24-4.54-.66-5.94-1.24-1.41-.58.16-4.29 1.32-7.51 1.15-3.22 0-6.77-.58-9.91-.58-3.14 1.07-3.8 1.4-4.62.33-.83 3.79-3.55 3.79-3.55s-.9.58-2.14.66c-1.24.08-.58.25-.75-1.24-.16-1.48 1.32-2.14 1.32-2.14s-3.05.91-4.62.99c-1.57.08-1.15.58-7.35 0-6.19-.58-4.71-1.16-9.83-1.32-5.12-.17-7.35.9-7.35.9.91-.41 3.31 1.16 4.05 1.324.74.17 2.56 1.82 2.242 2.48-.31.66 2.05-.33 2.88-1.24.83-.9 1.98-.49 3.14-1.15 1.154-.66 5.61 0 8.25 3.8 2.647 3.79 0 6.52 0 6.52s1.076.08 1.737.41c.66.33 1.82 1.07 1.32 3.22-.49 2.14-2.64 3.63-3.38 3.46-.75-.16-1.73-1.73-1.73-1.73s1.48.166 2.23-.41c.74-.58 1.4-1.9.9-2.89-.49-.99-.66 1.07-1.32-.08s-1.73.25-2.64.41c-.91.16-1.65 1.07-1.98 1.9-.33.82 1.407 1.65 3.39 3.38 1.98 1.73 1.98 5.2 1.403 5.95-.58.74-1.73 1.48-3.38 3.96-1.65 2.47-10.07 3.63-14.86 2.56-4.79-1.08-5.94-4.54-6.27-8.18-.33-3.635 1.98-6.11 2.31-7.43.33-1.32-1.65-.91-3.38-3.138-1.26-1.616-.99-4.71-.99-4.71l-2.15.66c-2.14.66-3.38 1.98-3.38 1.98s-.33 4.375-.17 7.265c.16 2.89 3.63 7.27 6.023 8.5 2.39 1.24 3.63 5.036 1.483 6.11-2.15 1.07-5.78-.33-6.85-1.32-1.57-1.45-1.4-.75-4.54-5.12-5.12-7.14-.83-14.78 3.22-17.67s6.52-1.98 7.76-2.39c1.24-.41 7.35.5 6.6-.41-.74-.903-3.46-.41-2.47-1.4.99-.99 4.46 1.49 5.29.99.82-.49-1.08-.91-2.15-1.155s-2.475-1.4-2.31-1.65c.165-.248 3.14.99 3.96.743.83-.25-1.9-1.488-2.97-1.818s-3.38-.99-6.35-.414c-2.97.57-6.85.9-14.53 5.94-7.67 5.03-8.33 14.61-7.34 18.41.99 3.8 5.45 10.9 9.49 12.14zm11.39-18.352c-.634.08-2.5.834-4.007-1.468-1.5-2.3-.04-4.246.92-4.84.95-.596 3.02-.874 4.41.912.33.42-.16 1.23-.67 1.23s-1.11-.675-1.47-.616c-.35.06-.79.685-1.19.907-.39.224-.35.78 0 1.375s3.61 1.23 3.73 1.428c.12.2-1.07.992-1.7 1.072z"/>
  <path fill="#DF230E" d="M0 71.248c2.342.347 2.105 1.11 1.57 1.872-.202.288-.833.922-1.57 1.65v9.735c.185 0 .313.024.29.133-.03.157-.14.34-.29.52v32.647c.837-1.168 2.06-2.31 3.94-2.73 2.73-.61 4.18.762 4.903 1.476.724.72.952 2 1.714 1.44 0 0 1.748-3.35 5.64-3.66 3.894-.31 4.324 1.36 4.782 2.06.45.71 1.18-.55 3.52-.53 2.34.02 4.5.72 6.1 2.47s3.95 6.61 7.14 6.92c3.18.31 5.88-.14 5.88-.14s-2.96 3.53-7.19 4.52c-4.23 1-5.9-.39-5.9-.39s.17 3.1-2.12 4.9c-2.29 1.79-8.23 1.14-10.18-1.15-1.96-2.29-1.44-1.96-2.13-1.87-.7.09-2.24 1.74-4.85 2.04-1.23.14-3.17-.68-4.33-1.19-1.16-.51-2.01-.38-2.01-.38s-2.36 1.54-4.93 2.13v33.43c.19.29.2.59 0 .91v1.38c1.04-.35 2.16-.38 2.95.01 1.31.65 2.35 2.19 2.21 3.02-.14.84-1.24 1.47-1.24 1.47s.3.54-.1 1.28c-.4.75-1.68.18-2.03-.65-.13-.3-.79-1.52-1.81-1.51v1.58c.09.04.18.07.27.12 1.66.95 2.72 3.55 2.12 5.39-.48 1.49-.87 1.83-1.94 1.77-.18-.01-.33-.05-.46-.09v51.92h129.4c.28-.69.77-1.61.77-1.61s-1.86-1.06-.65-2.73c.83-1.13 1.59-1.26 2.21-.99.62.26 2.83.83 3.61.76 2.73-.22 3.57-2.17 3.57-2.17s.65 2.71 0 4.37c-.28.72-.79 1.56-1.43 2.39h4.04c.32-.92-.07-2.08-.41-2.68-.46-.8-.93-3.63-.93-3.63s3.39-.8 5.64 1c1.45 1.16 2.36 3.27 2.48 5.32h85.38v-4.19c-1.53.9-3.54 1.86-6.1 2.16-2.34.27-6.04-1.3-8.24-2.27-2.2-.98-3.83-.73-3.83-.73s-6.52 4.27-12.4 4.51c-5.89.23-9.66-2.62-12.71-5.75-3.06-3.14-5.76-4.47-7.55-5.62s-10.73-7.5-10.73-7.5 8.96 2.19 13.37.6c4.41-1.6 16.08-5.41 17.23-6.49 1.15-1.09 3.05-9.39 10.88-11.14 5.2-1.17 7.97 1.45 9.35 2.81s1.81 3.8 3.26 2.73c0 0 2.35-4.48 7.47-6.28v-140c-.31.41-.65.8-1.02 1.12-1.19 1.03-2.37.55-3.06.19-.4-.21-.67-.87-.58-1.35.09-.48.38-1.32.38-1.32s-1.33-.5-.71-1.72c.43-.83.91-.99 1.34-.88s1.94.25 2.45.13c.52-.13.9-.34 1.2-.56v-1.76c-.48.53-1.24 1.15-2.23 1.25-1.78.16-4.327-1.14-4.73-3.44-.24-1.4.19-1.8.27-1.93.09-.13 1.27-.5 1.27-.5s-.17-1.55 1.11-1.65c1.29-.1 2.11.83 2 1.95-.11 1.12.36 2.27.84 2.71.29.26.963.49 1.47.64v-1.46c-.47-.6-.9-1.56-.81-3.07.06-1.064.39-1.81.81-2.33V0H29.03c.884.396.653.966.253 1.536-.56.8-4.4 4.24-4.72 5.047-.32.806.08.313.56 1.113.48.8 1.6 3.6 1.36 4.64-.24 1.04 1.6.32 1.52.72-.08.4-.56.96-1.36 1.28-.8.32-3.04-.4-6-1.52s-3.6 1.04-4.16.72c-.56-.32-1.36.8-2.32 1.68-.96.88-3.28 2.16-3.76 2s-1.04-1.28-1.36-1.36-.4-.88.24-1.44c.642-.56 1.28-3.04 1.792-3.44.51-.4-2.27-1.04-3.47-1.92-1.2-.88-2.08-3.6-1.92-4.8.157-1.2 1.358-2.32 2.24-2.48s1.04-.08.878.4c-.16.48 1.92 0 2.48 0 .528 0 .563-1.352.97-2.176H0v71.248zm30.47 152.32c-.972-.686-.96-1.177-.982-1.304-.023-.128.46-1.048.46-1.048s-1.022-.813-.32-1.634c.705-.82 1.738-.76 2.336-.032.598.73 1.56 1.133 2.103 1.107s1.7-.756 1.7-.756.5 1.75-.457 2.9-3.237 1.89-4.84.77zm5.167-4.4s-1.706.797-3.493-1.212c-1.596-1.793-.708-3.355-.346-3.856.414-.575.845-.726 1.444-.718.598.007.92.543.92.543s.247-.502.786-.416c.54.08.76.5.53 1.52-.23 1.01-.445 1.55-.472 2.2-.053 1.3.63 1.93.63 1.93zm3.955 6.492c-.098 1.313-1.08 1.73-1.7 1.924-.367.116-.92-.12-1.15-.457-.23-.336-.554-1.004-.554-1.004s-1.09.49-1.442-.605c-.24-.746-.046-1.13.275-1.32.33-.19 1.3-1 1.53-1.374.8-1.302.2-2.317.2-2.317s1.44.594 1.97 1.434.99 2.41.89 3.72zm2.464-9.627c.205.68-.89 1.098-1.59.81-.253-.103-1.374-.438-1.972.183-.366.38-1.438 2.117-1.438 2.117s-1.167-1.102-1.146-2.557c.02-1.456 1.044-3.06 2.203-3.455 1.158-.39 2.692-.1 3.106.48.41.58.13 1.61.13 1.61s.5.14.7.82zm1.948 5.96c-.52.458-.947.274-.947.274s-.362.885-.874 1.03c-.513.145-1.38-.37-1.37-1.198.01-.83-1.002-1.19-1.516-1.25s-1.94-.78-1.94-.78.75-1.79 2.298-2.22c1.55-.42 3.718.49 4.454 1.93.59 1.16.57 1.6-.11 2.2zm90.057 5.278c-2.68-.16-6.16-2.69-6.22-6.2-.04-2.14.69-2.64.85-2.8s2.01-.44 2.01-.44.1-2.35 2.04-2.19c1.94.16 2.94 1.72 2.52 3.36s.01 3.46.62 4.22c.61.77 2.9 1.67 2.9 1.67s-2 2.57-4.69 2.4zm5.62-3.36s-2.96-1.63-1.93-6.35c.92-4.21 4.12-4.57 5.23-4.58 1.27 0 1.95.46 2.57 1.34s.19 1.91.19 1.91.99-.17 1.44.7.07 1.64-1.64 2.38-2.73 1-3.7 1.65c-1.95 1.31-2.14 2.96-2.14 2.96zm13.98 2.22c-.4 1.22-2.19 1.9-2.19 1.9s.33.87-.44 1.89-2.53-.13-2.86-1.45c-.11-.47-.81-2.45-2.35-2.66-.93-.13-4.59.16-4.59.16s.37-2.86 2.5-4.37c2.14-1.51 5.55-1.72 7.35-.46 1.8 1.27 3 3.8 2.6 5.01zm46.43-109.81c1.88 1.32 3.13 3.97 2.71 5.23-.42 1.27-2.28 1.98-2.28 1.98s.35.91-.46 1.97-2.64-.13-2.98-1.51c-.12-.49-.85-2.56-2.45-2.78-.98-.13-4.79.16-4.79.16s.38-2.98 2.61-4.55c2.23-1.58 5.79-1.8 7.67-.48zm-10.37 10.32c-.48-.84-.97-3.79-.97-3.79s3.54-.84 5.89 1.04c2.36 1.88 3.36 6.17 2 8.87-1.11 2.19-1.79 2.64-3.44 2.27-1.27-.28-1.46-1.13-1.46-1.13s-1.74.43-2.52-.18-.96-2.49.3-3.39c1.27-.9.7-2.83.22-3.67zm4.62-17.41c.65.92.19 1.99.19 1.99s1.04-.18 1.5.73c.47.91.07 1.72-1.72 2.49-1.78.77-2.84 1.04-3.86 1.72-2.03 1.36-2.22 3.09-2.22 3.09s-3.09-1.7-2.02-6.62c.96-4.39 4.3-4.77 5.46-4.78 1.33-.01 2.03.48 2.68 1.39zm-16.71 15.67c.87-1.18 1.66-1.31 2.3-1.04.65.28 2.95.86 3.77.8 2.85-.23 3.72-2.26 3.72-2.26s.68 2.82 0 4.56c-.68 1.74-2.56 4.15-4.66 5.45s-3.81.27-4.79-.45c-.58-.43-.83-1.52-.57-2.24s.91-1.94.91-1.94-1.94-1.11-.67-2.85zm6.61-6.39c.64.79 3.02 1.74 3.02 1.74s-2.09 2.68-4.89 2.51c-2.8-.17-6.43-2.81-6.5-6.47-.04-2.23.72-2.75.89-2.92s2.09-.46 2.09-.46.11-2.45 2.12-2.29c2.02.16 3.07 1.8 2.63 3.5-.44 1.71.01 3.62.65 4.41zm-6.63-76.6c1.58.02 4.41-.88 4.41-.88s-.19-4.54-.18-5.45c.02-.92-.99-2.35-1.25-2.6-.7-.65 3.1 2.04 3.61 2.79.51.75.64 1.21.2 2.42s-.61 2.77-.61 2.77 1.89-.41 2.9-.27c1 .14 3.64 1.7 3.64 1.7s-.91-.52-.85 1.46c.06 1.98-.42 7.34-.71 7.38-.28.03-2.9-.35-3.52-.28-.62.06-.86.21-.86.21s-.69 10.64-.56 11.95c.12 1.3-.27 1.84-.27 1.84s-1.71-7.17-1.2-10.35c.24-1.51.14-2.73-.24-3.22-.37-.5-2.06.45-3 .32-.95-.13-2.47-.82-2.72-1.18s.02-.31-.23-3.51c-.16-2.06.67-4.11-.97-4.7-1.64-.58.87-.38 2.45-.36zm-32.15 17.41c.63 1.02.68 2.55.22 3.07-.46.52-1.5.48-1.5.48s-.02.51-.63.85c-.6.34-1.24-.61-1.11-1.34.05-.26.13-1.4-.6-1.84-.44-.26-2.33-.91-2.33-.91s.8-1.35 2.19-1.64c1.4-.29 3.15.34 3.78 1.36zm-5.89-4.65c1.37-1.91 3.05-1.4 3.61-1.16.64.27.87.65 1 1.22s-.32.99-.32.99.53.13.57.66c.04.54-.32.84-1.33.84s-1.57-.09-2.2.03c-1.26.24-1.7 1.02-1.7 1.02s-1.13-1.45.4-3.59zm1.71 7.15c.74 1.39.34 3.66-.88 4.67-.98.82-1.4.9-2.12.38-.55-.39-.46-.84-.46-.84s-.92-.15-1.17-.61c-.25-.45.06-1.39.85-1.56.79-.17.92-1.21.86-1.71-.05-.5.32-2.02.32-2.02s1.87.33 2.61 1.71zm-7.42-7.52c.45-1.07.92-1.17 1.03-1.22.12-.05 1.1.22 1.1.22s.56-1.15 1.49-.66c.94.5 1.1 1.5.54 2.22-.56.73-.74 1.74-.6 2.25s1.09 1.46 1.09 1.46-1.55.85-2.86.19c-1.31-.67-2.5-2.68-1.78-4.45zm-2.04 6.75c.27-.29.84-.74.84-.74s-.7-.93.27-1.5c.66-.39 1.07-.29 1.32-.02.26.26 1.24 1.02 1.65 1.16 1.42.47 2.25-.32 2.25-.32s-.25 1.49-.94 2.18c-.68.69-2.08 1.46-3.36 1.65-1.27.19-1.88-.66-2.2-1.21-.19-.32-.08-.9.19-1.19zm-33.7-39c1.38.97 2.3 2.92 1.99 3.85-.3.93-1.68 1.45-1.68 1.45s.26.67-.34 1.45-1.94-.1-2.19-1.11c-.09-.36-.62-1.88-1.8-2.04-.71-.09-3.52.12-3.52.12s.28-2.19 1.92-3.35c1.64-1.15 4.26-1.32 5.64-.35zm-7.63 7.59c-.35-.62-.71-2.79-.71-2.79s2.6-.61 4.33.77 2.48 4.54 1.47 6.53c-.81 1.61-1.32 1.94-2.53 1.67-.93-.21-1.07-.83-1.07-.83s-1.27.32-1.85-.13c-.58-.45-.71-1.83.23-2.49.93-.66.51-2.08.16-2.7zm-2.58-10.31c.71-3.23 3.16-3.51 4.01-3.51.98 0 1.5.35 1.98 1.03.48.67.15 1.47.15 1.47s.76-.13 1.1.54c.35.67.06 1.26-1.26 1.83-1.31.57-2.09.77-2.84 1.27-1.49 1.01-1.63 2.27-1.63 2.27s-2.27-1.25-1.48-4.87zm-6.3 9.03c.64-.87 1.22-.97 1.69-.76.48.21 2.17.64 2.77.59 2.1-.17 2.74-1.66 2.74-1.66s.5 2.08 0 3.35c-.5 1.28-1.88 3.05-3.42 4.01s-2.8.2-3.52-.33c-.42-.31-.61-1.12-.42-1.65.19-.53.67-1.43.67-1.43s-1.43-.81-.49-2.09zm-.64-8.49c.12-.13 1.54-.33 1.54-.33s.08-1.8 1.56-1.68c1.48.12 2.26 1.32 1.93 2.58-.32 1.26.01 2.66.48 3.24.47.58 2.22 1.28 2.22 1.28s-1.53 1.97-3.6 1.84c-2.06-.12-4.73-2.06-4.77-4.76-.03-1.64.53-2.02.65-2.15zM46.63 62.61c5.533-6.93 8.523-7.66 11.97-9.08 5.952-2.45 10.4-1.813 10.4-1.813s3.55-3.14 11.063-3.22c7.51-.09 6.19 1.6 11.97 2.31 7.555.92 15.52-3.22 15.52-3.22s-.33 1.15-1.486 2.06c-1.153.91-1.65 1.15-1.65 1.15l-.493.91c-.494.9-1.57 1.4-1.57 1.4s1.983-.25 3.305-.91c1.31-.66 2.72-1.49 2.72-1.49s.49.74-2.23 3.22c-2.73 2.47-4.13 4.37-4.46 5.03-.33.66-1.57 2.56-.17 5.11 1.4 2.56 2.31 6.69 2.31 7.18 0 .5-1.08 2.977-1.82 4.297s-1.24 2.806-1.24 2.806 2.72-.494 5.53.415c2.8.904 6.44 5.28 7.1 7.84.66 2.56-1.08 11.64-2.4 13.205-1.32 1.57-1.16 2.89-1.16 2.89s.82-1.487 4.87-.66c4.04.824 8.09 1.815 11.72 2.145 3.63.33 8.34-1.9 9.5-2.56 1.15-.66 5.2-3.8 4.2-6.935s-4.29-4.13-5.86-4.295c-1.57-.168-3.88.33-3.63 1.65.25 1.32 1.9 1.98 1.9 1.98s.58-2.23 1.73-1.98c1.16.245 4.69-.35 4.21 3.794-.48 4.14-4.87 5.03-7.43 4.13-2.56-.91-8.17-2.06-6.93-11.06 1.11-8.08 9.16-6.61 9.74-6.61.58 0 4.71-.33 8.59 3.05s7.34 6.68 3.38 16.51c-3.96 9.82-10.16 9-12.8 9.74s-12.68-.82-15.85-.5c-2.8.28-5.57-.05-7.1.68-.4.19.33.56-1.07 1.38s-3.64.41-2.98 1.82c.66 1.4 3.96 7.26 4.37 8.91.41 1.65.07 7.33-.33 10.4-.91 7.02 1.48 9.83 1.48 9.83s3.11-3.55 9.48-4.13c6.37-.58 13.38 4.87 15.94 5.53 2.56.66 6.35 1.82 9.82 1.49 3.46-.33 6.19-2.31 9.82-1.98 3.63.33 11.55 5.28 14.53 6.68 2.97 1.4 6.93 1.81 13.2.41s4.7-2.31 9.24-2.4c4.54-.08 5.2 1.81 10.64 2.14 5.45.33 6.2.41 11.73-.99 5.53-1.41 13.54-6.44 13.54-6.44s-.75 3.05-8.92 7.84c-8.17 4.78-9.99 7.18-13.29 8.5-3.3 1.32-23.61 11.14-24.52 13.04-.9 1.9-9.16 4.7-17.25 4.95s-12.05 2.15-16.76 6.27-6.69 8.58-14.78 11.97c-8.09 3.38-14.28-.99-20.31 0-6.03.99-10.32 11.22-18.08 11.8s-9.74-.58-12.96-2.32c-3.22-1.73-5.37-3.63-5.37-3.63s-1.65 4.25-17.34 4.13c-10.23-.09-15.1-4.3-17.99-7.76s-2.81-6.77-2.81-6.77-1.49 4.12-11.64 4.62c-10.15.49-16.26-12.47-14.78-20.31 1.48-7.84 8.17-11.06 10.89-12.38s9.17-2.4 10.57-4.21c1.4-1.82 0-8.84 8.75-12.22 8.75-3.39 8.99-2.48 13.53-2.48 4.54 0 10.232 1.49 10.232 1.49s3.55-13.13 2.31-18.95c-1.24-5.82-6.36-14.82-7.02-22.99-.47-5.79.8-6.26 1.4-9.91 0 0-11.64-1.49-16.346-8.01-4.7-6.52-6.956-16.49-.49-24.6zM.587 42.2c.16-1.2 1.36-2.32 2.242-2.48.88-.16 1.04-.08.88.4-.17.48 1.92 0 2.47 0 .56 0 .56-1.52 1.04-2.32.48-.8.88-2.24 1.12-2.8.24-.56 2.28-1.168 3.04-1.12 1.28.08 1.28.88 1.17 1.6-.11.72 1.47 2.96 1.63 3.36.16.4.88-.08 1.76-.08s3.6-1.52 6.32-1.2c2.72.32 2.47 1.12 1.92 1.92-.56.8-4.4 4.24-4.72 5.047-.32.805.08.31.56 1.112.48.8 1.6 3.6 1.36 4.64-.24 1.04 1.6.32 1.52.72-.08.4-.56.96-1.36 1.28-.8.32-3.04-.4-6-1.52s-3.6 1.04-4.16.72c-.56-.32-1.36.8-2.32 1.68-.96.88-3.28 2.16-3.76 2-.48-.16-1.04-1.28-1.36-1.36-.32-.08-.4-.88.24-1.44.64-.56 1.28-3.04 1.79-3.44.51-.4-2.27-1.04-3.47-1.92-1.2-.88-2.08-3.6-1.93-4.8z"/>
  <path fill="#DF230E" d="M191.894 120.103s1.98-1.052 4.072.058c1.86.99 2.043 3.64 3.033 3.74.99.1.63-1.99.63-1.99s.44.49 1.35.15c1.09-.41.45-1.82-.1-2.68-.55-.86-1.74-2.2-4.52-2.25-3.38-.06-4.42 2.82-4.42 2.82l-.06.17zm-46.338 97.877c.037-1.316-1.068-.938-1.068-.938s.3-.252.195-1.228-.918-1.08-1.89-1.04c-1.124.05-3.16 1.39-3.84 3.537-.677 2.15.46 3.74.46 3.74s-.04-.29 1.88-1.99 4.222-.75 4.263-2.07zm38.242-171.31c-.275-.028-.217 2.686-.217 2.686s.25-.262 1.25-.258 2.07.467 2.14.173c.08-.29.24-2.94.24-2.94s-.93.43-1.11.53c-.17.1-1.84-.14-2.29-.18zm4.135 70.62s-.043-.303 1.96-2.077 4.405-.79 4.448-2.165c.04-1.374-1.11-.978-1.11-.978s.32-.264.21-1.28c-.11-1.02-.96-1.13-1.97-1.085-1.17.05-3.29 1.45-4 3.69-.7 2.24.48 3.896.48 3.896zm-8.063 13.707c.94.08 2.26-.096 3.884-1.604 1.623-1.505 2.69-4.56 2.69-4.56s-.667.342-2.76.73c-2.1.384-2.83-.352-3.585-.613-.76-.263-1.26.407-1.41 1.147-.15.74 1.2 1.857 1.2 1.857s-.44.536-1.01 1.375c-.57.83.05 1.58.98 1.66zm2.465-17.657c.06-1.936-.996-1.428-1.566-1.188-.57.242-1 2.33-1 2.33s-2.1-1.087-2.61.676c-.26.88-.3 3.104 2.85 4.997 3.15 1.892 5.42.594 5.42.594s-1.39-.65-2.46-2.18c-1.08-1.53-.7-3.3-.64-5.23zm-47.677 109.933c-1.034-1.466-.667-3.156-.61-5.013s-.954-1.37-1.5-1.14c-.544.232-.957 2.234-.957 2.234s-2.01-1.042-2.5.648c-.24.844-.29 2.975 2.73 4.79 3.02 1.813 5.2.568 5.2.568s-1.32-.62-2.36-2.087zm56.447-90.773c.943.06 1.59-.867 1.545-.656-.047.21.205 1.34 1.146 1.318 1.37-.03 1.81-1.702 1.563-4.445-.25-2.742-2.32-4.228-3.04-4.79-.73-.565-2.54-.373-2.54-.373s1.14 1.87 1.49 3.2c.23.873.75 2.56-.43 3.884-1.18 1.326-.69 1.8.25 1.86zM41.977 219.068c-1.26-.757-2.55-.332-3.02-.197-.472.14-.96.98-.96.98s1.166.1 1.85.37c.45.18 1.338.49 1.54 1.41.204.93.56.87.884.48.33-.39.13-.95.21-.87.08.09.65.34.93-.08.42-.6-.16-1.31-1.42-2.07zm137.16-169.733c1.13-.078 3.075-.448 3.075-.448s.492-1.91-.15-1.963c-.64-.052-1.732.875-1.91.973-.176.098-1.693-.568-2.143-.65-.49-.09-.01 2.166-.01 2.166l1.13-.078zm5.58-4.28c.513-.07 1.677.136 1.677.136s.775.07.162-2.01c-.44-1.5-2.37-.77-2.77-.56-.633.34-.19 2.35-.19 2.35s.61.16 1.12.09zm-43.97 14.385s1.165-.096 1.94.87c.69.855.226 2.166.68 2.42.456.25.718-.827.718-.827s.113.326.62.35c.61.027.593-.78.51-1.308-.087-.527-.378-1.414-1.702-2.014-1.61-.72-2.7.44-2.7.44l-.065.07zm41.423-13.857c-.013-.226-.345-2.386-.583-2.24-.236.147-2.418.697-2.965.49-.547-.207-.55.35-.55.35s.01 1.465.257 1.88c0 0 3.85-.254 3.84-.48zm-34.67 176.29c-3.238-.057-4.234 2.705-4.234 2.705l-.055.164s1.9-1.008 3.91.056c1.78.942 1.96 3.488 2.91 3.584.95.095.61-1.914.61-1.914s.43.468 1.3.14c1.05-.397.43-1.747-.09-2.575-.52-.828-1.66-2.112-4.33-2.16z"/>
  <path fill="#FFF100" d="M11.285 2.177c-.56 0-2.64.48-2.48 0 .162-.48.002-.56-.88-.4s-2.08 1.28-2.24 2.48c-.16 1.2.722 3.92 1.92 4.8 1.2.88 3.98 1.52 3.472 1.918-.51.402-1.15 2.88-1.79 3.442-.642.558-.562 1.36-.24 1.44s.88 1.2 1.36 1.36 2.8-1.12 3.76-2c.96-.88 1.76-2 2.32-1.68.56.32 1.2-1.84 4.158-.72 2.96 1.12 5.2 1.84 6 1.52.8-.32 1.28-.88 1.36-1.282.08-.398-1.76.32-1.52-.718.24-1.04-.88-3.842-1.36-4.64-.48-.802-.88-.308-.56-1.114.32-.807 4.16-4.246 4.72-5.047.4-.57.63-1.14-.252-1.536H23.87c-1.29.36-2.34.817-2.825.817-.88 0-1.6.48-1.76.08-.053-.134-.27-.48-.522-.897h-6.507c-.407.824-.443 2.177-.97 2.177zm-8.778 44.82c1.2.88 3.98 1.52 3.47 1.92-.51.4-1.15 2.88-1.79 3.44-.64.56-.56 1.36-.24 1.44.32.08.882 1.2 1.36 1.36.48.16 2.8-1.12 3.76-2 .96-.88 1.76-2 2.32-1.68.56.32 1.2-1.84 4.16-.72s5.2 1.84 6 1.52c.8-.32 1.28-.88 1.36-1.283.08-.398-1.76.322-1.52-.718s-.88-3.84-1.36-4.64c-.48-.802-.88-.308-.56-1.113.32-.808 4.16-4.247 4.72-5.048.56-.8.8-1.6-1.92-1.92-2.72-.318-5.44 1.2-6.32 1.2s-1.6.48-1.76.08c-.16-.4-1.742-2.64-1.63-3.36.108-.72.108-1.52-1.17-1.6-.76-.047-2.802.56-3.04 1.12-.24.56-.64 2-1.12 2.8-.48.8-.48 2.32-1.042 2.32-.56 0-2.64.48-2.48 0 .16-.48 0-.56-.878-.4-.88.16-2.082 1.28-2.242 2.48-.158 1.2.723 3.92 1.922 4.8zM0 84.504v.653c.15-.182.26-.363.29-.52.023-.11-.105-.132-.29-.133zM1.57 73.12c.535-.763.77-1.525-1.57-1.872v3.523c.737-.72 1.368-1.36 1.57-1.65z"/>
  <path fill="#FFF" d="M63.465 95.216c-.6 3.647-1.872 4.118-1.404 9.906.67 8.172 5.78 17.172 7.02 22.99 1.24 5.82-2.31 18.948-2.31 18.948s-5.69-1.488-10.23-1.488-4.78-.907-13.54 2.48c-8.75 3.384-7.34 10.4-8.75 12.216-1.4 1.816-7.84 2.89-10.56 4.21s-9.41 4.54-10.89 12.384c-1.48 7.842 4.63 20.805 14.78 20.31 10.15-.497 11.64-4.624 11.64-4.624s-.08 3.303 2.81 6.77 7.76 7.678 18 7.76c15.69.125 17.34-4.13 17.34-4.13s2.15 1.9 5.37 3.634c3.22 1.732 5.2 2.89 12.96 2.31s12.05-10.812 18.08-11.804c6.03-.992 12.22 3.384 20.31 0 8.09-3.385 10.08-7.844 14.78-11.97s8.67-6.026 16.76-6.274 16.35-3.056 17.26-4.954c.91-1.9 21.22-11.722 24.52-13.042 3.31-1.322 5.12-3.717 13.29-8.504 8.18-4.787 8.92-7.842 8.92-7.842s-8.01 5.035-13.54 6.438c-5.53 1.404-6.27 1.322-11.72.992-5.44-.33-6.1-2.23-10.64-2.146-4.54.082-2.98.99-9.25 2.394s-10.24.99-13.21-.413c-2.97-1.404-10.89-6.357-14.53-6.688-3.63-.33-6.35 1.65-9.82 1.98-3.47.33-7.26-.83-9.82-1.49-2.56-.66-9.58-6.11-15.95-5.53-6.37.57-9.48 4.13-9.48 4.13s-2.39-2.81-1.48-9.83c.39-3.07.74-8.75.33-10.4-.42-1.65-3.72-7.52-4.38-8.92-.66-1.41 1.57-.99 2.97-1.82s.67-1.2 1.07-1.39c1.54-.73 4.31-.4 7.1-.68 3.18-.33 13.21 1.23 15.85.49s8.84.08 12.8-9.74c3.96-9.83.5-13.13-3.38-16.51-3.88-3.39-8.01-3.06-8.59-3.06-.58 0-8.63-1.47-9.74 6.6-1.24 9 4.37 10.15 6.93 11.06 2.56.91 6.95.02 7.43-4.13.48-4.15-3.05-3.55-4.21-3.8-1.15-.25-1.73 1.98-1.73 1.98s-1.65-.66-1.9-1.98c-.25-1.32 2.07-1.82 3.63-1.65 1.57.16 4.87 1.15 5.86 4.29.99 3.14-3.05 6.27-4.2 6.93-1.16.66-5.86 2.89-9.5 2.56-3.63-.33-7.68-1.32-11.72-2.15-4.05-.83-4.87.66-4.87.66s-.16-1.32 1.16-2.89 3.06-10.65 2.4-13.21c-.66-2.56-4.29-6.94-7.1-7.84-2.81-.91-5.53-.42-5.53-.42s.5-1.49 1.24-2.81 1.81-3.8 1.81-4.29-.91-4.62-2.31-7.18c-1.4-2.56-.16-4.46.17-5.12.33-.66 1.74-2.56 4.46-5.04 2.72-2.48 2.23-3.22 2.23-3.22s-1.4.82-2.72 1.48c-1.32.66-3.3.9-3.3.9s1.08-.49 1.57-1.4l.5-.91s.5-.25 1.65-1.16c1.16-.91 1.49-2.07 1.49-2.07s-7.96 4.14-15.52 3.22c-5.78-.71-4.46-2.4-11.97-2.31-7.53.09-11.08 3.23-11.08 3.23s-4.45-.64-10.4 1.81c-3.45 1.42-6.44 2.15-11.97 9.08-6.46 8.11-4.21 18.08.5 24.6 4.7 6.52 16.34 8.01 16.34 8.01zm-25.8 85.022c-1.428 4.67 0 8.303 0 8.303s-6.228 5.19-6.747 3.38c-.52-1.81-.778-7.13-1.817-7-1.03.13-1.81 4.93 0 5.97 1.82 1.04-1.55 1.69-2.33.65s-1.68-8.69-1.17-9.47c.52-.78-1.04.26-1.04 3.89 0 3.64 1.04 4.67 1.04 4.67s-2.59-.39-2.98-1.81c-.39-1.42-1.16-6.74-.91-7.65.26-.91-1.43-1.43-1.17-.13.26 1.3-.78 5.19.52 7.01 1.3 1.82-7.6-3.79-2.85-13.49 4.75-9.69 9.08-8.3 12.07-8.17 2.98.13 6.23 0 7.66-4.02 1.43-4.02 2.25-6.86 4.8-9.73 2.21-2.47 9.6-4.99 11.55-4.93 5.73.18 11.94 2.08 11.94 2.08s-.52 2.21-2.59 5.58-3.63 5.71-3.63 5.71-6.74-.9-13.49 3.77c-6.74 4.67-8.05 12.91-8.82 15.44zm84.85-36.59c5.58.78 11.03 6.617 18.813 8.176 7.785 1.556 10.77-4.283 16.22-2.466 5.448 1.816 9.73 6.358 16.347 7.396 6.617 1.037 7.006.778 13.625-.91 6.615-1.685 6.615-2.074 10.248-.777 3.633 1.298 10.97.91 10.97.91s-15.77 7.523-18.495 9.47c-2.723 1.945-10.51 7.396-15.568 8.822-5.06 1.42-13.365-.26-17.387 1.42-4.02 1.68-13.273 10.46-18.723 14.61-5.448 4.15-9.042 1.09-9.042 1.09s-1.313-1.02.65 1.84c.672.98-1.537 1.63-4.282 1.78-1.6.09-1.88-1.29-2.98-2.21-.77-.65-2.59-.13-.77 1.43 1.82 1.55-4.67-.78-7.52-.52s-6.36 1.81-9.21 4.54c-2.85 2.72-4.41 1.04-4.67 0-.26-1.04-2.38-.13-.78.52 1.61.65 1.17 1.81 1.17 1.81s-1.3.52-2.85 1.04c-1.56.52-.78-2.47-2.72-3.12-1.94-.65.13 2.85 1.17 3.63 1.04.78-2.08 1.55-3.37 1.81s-2.2-4.93-3.76-4.54c-1.55.38.26 3.65 1.43 4.55s-2.46.25-3.76-.66c-1.3-.91-1.3-5.06-2.2-4.15-.9.9 1.04 4.93 0 4.41-1.03-.52-6.87-2.34-6.87-3.25s6.75-8.05 2.21-15.7c-4.54-7.66-11.81-7.66-15.31-5.97-3.5 1.69-8.55 6.38-5.06 12.71 1.27 2.29 7.01 1.81 7.4.9.39-.91.52-2.08.52-2.08s-1.42 1.56-2.85 1.04-3.76-1.82-2.33-5.45 6.49-3.64 8.44-2.6c1.95 1.04 7.14 5.71 6.75 8.95s-3.37 9.6-13.1 10.51c-9.73.9-13.88-.13-14.14-1.3-.26-1.17-1.43-4.8-1.04-5.84.39-1.04-.26-1.69-.77-.39-.52 1.3-.65 4.02 0 4.93s-2.98-1.95-2.85-2.73c.13-.78-.26-6.35-.65-5.71-.39.64-1.82 1.94-1.56 3.5.26 1.55-6.23-9.6-.78-18.17s7.01-8.82 9.86-10.12c2.85-1.3 6.62-1.82 6.62-1.82s.39 3.37 5.06 3.63c4.67.26 7.14-1.43 7.79-2.08.65-.65 1.69-3.12 2.85-2.47 1.17.65 4.41 2.47 6.75 4.15 2.34 1.69 10.9 7.91 14.4 9.47 3.51 1.55 10.77 2.85 13.11 2.85s6.49-.13 7.79-2.86c0 0-11.55 1.04-20.63-5.84-9.08-6.88-11.29-6.75-13.62-7.91-2.34-1.17-7.01-1.69-7.01-1.69s2.98-4.28 4.28-6.62c1.29-2.33 1.68-4.54 1.68-4.54s5.58 0 7.27-1.94c1.69-1.95 3.51-3.38 5.19-3.25 1.69.13 3.76.13 3.76.13s.78 3.63 1.43 4.54 3.12 3.11 3.12 3.11-4.41 2.33-5.32 3.37c-.91 1.04-.78 2.21.52 2.6 1.298.39 2.33-1.82 4.8-2.99l2.46-1.17s2.34.39 4.29.52c1.95.13 3.77-1.17 3.77-1.17s3.12-.39 6.88 2.47c3.76 2.86 5.84 5.19 9.99 6.62s9.6 0 9.86-.91-7.78-1.03-12.19-4.93c-4.41-3.89-8.17-4.8-9.34-4.93-1.17-.13-4.02-.39-4.02-.39s1.95-1.56.52-3.63c-1.43-2.08-2.08-3.38-2.08-3.38s4.14-2.987 9.72-2.21zm-39.96 5.45s1.038-5.58 2.076-9.212c1.04-3.633 1.41-10.727 8.18-10.77 5.51-.033 5.45 4.932 5.32 6.747-.13 1.817-.52 7.655-.52 7.655s-2.2-.518-5.58 0c-3.37.52-3.76 1.557-4.93 3.113-1.16 1.56-4.54 2.47-4.54 2.47zm30.937-45.045c2.643.082 8.586 2.64 13.538 1.898 4.952-.74 10.793-1.53 13.29-6.19 3.926-7.3-1.32-9.57-4.043-10.48-2.724-.91-6.274-1.4-6.934.83-.66 2.23.906 4.46 2.972 4.79 2.063.33 2.476.25 2.394-.57l-.09-.82s1.98-1.32 2.06 1.32c.08 2.64-1.65 3.55-5.12 2.98-3.47-.58-4.66-3.66-4.79-6.77-.18-4.23 2.72-6.19 5.45-6.19 2.72 0 6.45-1.12 10.81 3.22 4.36 4.35 1.23 11.81-.75 14.86-1.98 3.06-4.79 5.53-10.32 6.11-5.53.58-10.32-1.98-15.93-.49-5.25 1.39-5.3 1.63-5.29 1.65-.03-.02-2.64-2.64-2.64-3.21 0-.57.58-1.48.58-1.48s2.14-1.49 4.79-1.4zM53.312 59.39c7.677-5.036 11.557-5.366 14.53-5.943 2.97-.578 5.282.083 6.355.413s3.797 1.568 2.972 1.816c-.83.247-3.8-.99-3.97-.743-.17.247 1.24 1.403 2.31 1.65 1.07.248 2.97.66 2.14 1.156-.83.49-4.29-1.99-5.29-1-.99.99 1.73.49 2.47 1.4.74.91-5.37 0-6.61.41-1.24.41-3.72-.5-7.76 2.39s-8.33 10.53-3.21 17.67c3.13 4.37 2.97 3.67 4.54 5.11 1.07.99 4.7 2.39 6.85 1.32 2.14-1.07.9-4.87-1.49-6.11-2.4-1.23-5.86-5.61-6.03-8.5-.17-2.89.16-7.26.16-7.26s1.24-1.32 3.39-1.98l2.15-.66s-.26 3.09.99 4.71c1.73 2.23 3.72 1.81 3.38 3.13-.33 1.32-2.64 3.8-2.31 7.43.33 3.63 1.48 7.1 6.27 8.17 4.79 1.07 13.21-.08 14.86-2.56 1.65-2.48 2.81-3.22 3.38-3.96.58-.75.58-4.21-1.4-5.95-1.98-1.73-3.72-2.56-3.39-3.38.33-.83 1.07-1.74 1.98-1.9.91-.17 1.98-1.57 2.64-.42.66 1.15.83-.91 1.32.08.5.99-.16 2.31-.91 2.89-.75.57-2.23.41-2.23.41s.99 1.57 1.73 1.73c.74.16 2.89-1.32 3.38-3.47.5-2.15-.66-2.89-1.32-3.22-.66-.33-1.73-.41-1.73-.41s2.64-2.73 0-6.53c-2.64-3.8-7.1-4.46-8.26-3.8-1.15.66-2.31.25-3.13 1.16-.83.91-3.19 1.9-2.88 1.24.31-.66-1.5-2.31-2.25-2.48-.74-.17-3.14-1.74-4.05-1.33 0 0 2.23-1.07 7.34-.91 5.12.16 3.63.74 9.82 1.32 6.19.57 5.77.08 7.34 0 1.57-.09 4.63-.99 4.63-.99s-1.49.66-1.32 2.14c.16 1.49-.5 1.32.74 1.24 1.24-.08 2.14-.66 2.14-.66s-3.46 2.74-3.79 3.56c-.33.82-1.98 1.48-1.4 4.62.57 3.13 1.73 6.68.57 9.9-1.154 3.22-2.72 6.93-1.32 7.51 1.405.57 3.63 0 5.94 1.24 2.316 1.24 6.03 4.37 6.526 7.67.5 3.31-.41 7.52-2.64 13.05-2.23 5.53-1.07 3.8-.91 4.87.163 1.07 2.31 2.97 2.31 3.71 0 .74-1.16-.17-1.65-.99-.5-.83-1.65-1.24-1.57-.99.08.25.165 1.62.825 2.25.66.63 1.24 1.05.66 1.21-.58.17-1.9-.33-2.15-1.57s-1.73-1.4-1.487-.82.16 1.71.99 2.42-4.63-.44-4.71-1.35-2.23-.58-.41-4.71 3.3-4.29 3.3-9.16-1.48-7.84-5.11-8.17c-3.63-.33-7.02 3.55-7.35 4.87-.33 1.32.31 6.31 2.06 8.42 2.81 3.39 3.96 3.8 3.96 3.8s-.26 3.27.74 4.71c2.23 3.22 5.36 3.22 5.36 3.22s.25 3.72 1.48 6.36c1.24 2.64 3.052 6.274 3.22 9.66s-.497 10.57.41 12.22c.91 1.65 1.33 6.49 4.37 6.77.91.08 1.07 2.81.91 3.05s-3.135-1.154-3.38-1.57c-.25-.41.16.56 1.4 1.6 1.24 1.05 1.82 1.21 1.16 1.71-.66.49-2.97-1.325-4.46-1.74-1.484-.414 1.075 1.48.99 2.23-.08.74-6.354-.745-6.685-3.97-.33-3.22-2.31-4.12-1.57-9.24s2.23-11.64-1.49-14.36c-3.71-2.73-9.49-1.9-11.64 0-2.14 1.9-5.53 7.76-6.77 16.18-1.234 8.42-3.3 13.38-7.43 18.41-4.12 5.04-6.02 6.44-5.61 5.62.41-.83.99-2.32.91-3.39-.084-1.07-.414-.83-.414-.83s-2.14 1.9-2.06 2.98c.09 1.07.33 1.02-.49 1.46-.82.44-2.31.19-1.4-.64.91-.828 1.65-3.22 1.74-3.718.08-.49-2.31 1.32-2.48 2.4-.16 1.074-.58 1.82-.58 1.82s-2.06-2.4 1.24-6.19c3.306-3.8 6.28-9.826 6.61-12.387.33-2.56 1.98-6.6 2.23-14.77s-5.78-16.84-6.11-19.81-3.21-7.6-1.31-13.71c1.9-6.11 2.39-7.93 1.65-7.93-.74 0-7.35-.58-11.39-1.82s-8.43-8.3-9.42-12.1c-.99-3.806-.33-13.38 7.342-18.418zm27.737-2.56c2.14-.66 3.05-1.567 4.04-1.402.99.166 4.21.826 6.27 3.385 2.06 2.56-1.74 4.787-2.23 5.283-.5.495-2.81.99-2.48 3.632.33 2.642 2.72 3.467 3.13 4.292.41.826 2.56 3.633 1.15 5.366-1.41 1.734-2.31 5.118-11.4 5.2-9.08.084-7.76-5.942-8.09-6.52-.33-.578.51-4.167 2.56-7.068 1.07-1.518-1.28-3.334-2.62-3.58-1.35-.25-3.08-1.9-3.24-2.56l-.5-1.982s.9-.495 2.39-.577c1.48-.09 4.29.2 5.53.16.65-.02 1.98-.5 2.31-1.24.33-.75 1.15-2.4 1.15-2.4s-.17.66 1.98 0zm-21.72 16.1c1.73 2.723 4.21 5.777 5.61 6.437s2.06 2.146 1.73 2.973c-.33.82-5.2-.83-7.43-4.87s-2.15-3.88-1.9-6.94c.24-3.06 1.56-3.55 1.56-3.55s-1.32 3.22.41 5.94zm39.13 28.232c-.25 1.156-1.41 3.22-1.41 3.22S92.67 99.43 93 96.128c.33-3.303 2.64-3.88 3.55-4.706l.906-.826s3.765 2.275 2.723 6.19c-.87 3.277-1.49 3.22-1.74 4.376z"/>
  <ellipse cx="86.886" cy="60.928" fill="#FFF" rx="1.17" ry="1.091"/>
  <ellipse cx="73.99" cy="62.218" fill="#FFF" rx="1.171" ry="1.092"/>
  <path fill="#FFF" d="M77.323 69.796c-.436 1.547 1.746 1.825 2.064 1.944.317.12-.437.874-.596 4.325-.15 3.453 1.27 3.61 1.27 3.61s-3.01.04-4.9-.792c-1.33-.592-2.28-2.738-2.34-1.468s2.29 3.65 7.01 3.53c4.73-.118 5.83-2.42 6.07-2.54.24-.118 2.26-2.657 1.83-2.736s-.59-.04-1.82 1.66-5.08 2.18-5.08 2.18-.47-.8-.55-2.34c-.08-1.55.6-4.41.8-4.57.2-.16.72-.64.68-.8-.04-.16.28-.2.92-.4.63-.2.91-.48.87-1.59-.04-1.11-1.72-1.89-3.01-2.11-1-.17-2.74.51-3.17 2.06zm1.19-.198c.437-.992 1.03-.737 1.548-.753 1.2-.04 1.95.278 1.87 1.19-.08.912-.47.714-.63.595-.16-.12-.51-.674-.71-.396-.2.277.28.634.08.753-.2.12-1.07-.437-.79-.753.28-.317-.47-.12-.51.317-.04.44-1.26.04-.83-.95zm-13.688-.516c-.357-.596-.396-1.15 0-1.375.397-.222.833-.847 1.19-.907.357-.06.953.615 1.468.615s1-.81.675-1.23c-1.39-1.785-3.453-1.507-4.404-.912-.953.596-2.42 2.54-.913 4.84 1.51 2.303 3.38 1.548 4.01 1.47.64-.08 1.83-.874 1.71-1.073-.12-.197-3.37-.833-3.73-1.428z"/>
  <path fill="#DF230E" d="M226.203 202.802c-1.45 1.073-1.887-1.374-3.266-2.732-1.38-1.36-4.143-3.977-9.35-2.813-7.828 1.752-9.73 10.06-10.88 11.14-1.145 1.083-12.82 4.897-17.228 6.49-4.41 1.594-13.38-.597-13.38-.597s8.94 6.35 10.73 7.498 4.49 2.484 7.54 5.617 6.82 5.983 12.71 5.752c5.89-.232 12.4-4.503 12.4-4.503s1.63-.256 3.83.722c2.2.977 5.9 2.544 8.25 2.27 2.55-.294 4.56-1.26 6.09-2.157v-4.05c-.66.27-1.36.64-2.19 1.15-3 1.83-5.43 1.86-8.55.76l-3.11-1.11s-3.45.1-2.84-.29c.62-.39 2.57-4.59-1.36-9.07s-9.46-2.51-11.35-.44c-1.89 2.07-3.72 7.38 1.16 8.86 3.72 1.12 5.35-.35 5.35-.35l.75-3.53s-2.52 2.66-5.33 1.77c-2.81-.9-1.52-6.94 2.01-6.23s7.57 2.06 5.74 8.28c-1.5 5.08-15.1 2.9-16.1 2.57-1.01-.34-5.14-4.62-3.87-9.86 1.27-5.24 9.97-4.48 11.97-6.95 1.99-2.48 1.36-8.38 6.49-10.46s11.19 2.36 11.23 4.19c.05 1.82 3.85 3.36 4.76 3.59 0 0 2.42-4.43 5.21-6.53v-5.3c-5.13 1.8-7.48 6.28-7.48 6.28zm-36.9 16.56c-.073 2.433.747 3.876.747 3.876s-6.664-4.48-8.504-5.728c-1.094-.742 2.334-.032 4.773-.163 2.43-.13 4.81-1.684 4.81-1.684s-1.76 1.267-1.84 3.7z"/>
  <path fill="#FFF" d="M226.203 202.802c-1.45 1.073-1.887-1.374-3.266-2.732-1.38-1.36-4.143-3.977-9.35-2.813-7.828 1.752-9.73 10.06-10.88 11.14-1.145 1.083-12.82 4.897-17.228 6.49-4.41 1.594-13.38-.597-13.38-.597s8.94 6.35 10.73 7.498 4.49 2.484 7.54 5.617 6.82 5.983 12.71 5.752c5.89-.232 12.4-4.503 12.4-4.503s1.63-.256 3.83.722c2.2.977 5.9 2.544 8.25 2.27 2.55-.294 4.56-1.26 6.09-2.157v-4.05c-.66.27-1.36.64-2.19 1.15-3 1.83-5.43 1.86-8.55.76l-3.11-1.11s-3.45.1-2.84-.29c.62-.39 2.57-4.59-1.36-9.07s-9.46-2.51-11.35-.44c-1.89 2.07-3.72 7.38 1.16 8.86 3.72 1.12 5.35-.35 5.35-.35l.75-3.53s-2.52 2.66-5.33 1.77c-2.81-.9-1.52-6.94 2.01-6.23s7.57 2.06 5.74 8.28c-1.5 5.08-15.1 2.9-16.1 2.57-1.01-.34-5.14-4.62-3.87-9.86 1.27-5.24 9.97-4.48 11.97-6.95 1.99-2.48 1.36-8.38 6.49-10.46s11.19 2.36 11.23 4.19c.05 1.82 3.85 3.36 4.76 3.59 0 0 2.42-4.43 5.21-6.53v-5.3c-5.13 1.8-7.48 6.28-7.48 6.28zm-36.9 16.56c-.073 2.433.747 3.876.747 3.876s-6.664-4.48-8.504-5.728c-1.094-.742 2.334-.032 4.773-.163 2.43-.13 4.81-1.684 4.81-1.684s-1.76 1.267-1.84 3.7z" opacity=".7"/>
  <path fill="#FFF" d="M186.19 112.605c-1.07 4.922 2.022 6.624 2.022 6.624s.19-1.73 2.227-3.09c1.01-.68 2.07-.95 3.85-1.72 1.78-.77 2.18-1.57 1.71-2.49-.47-.91-1.5-.73-1.5-.73s.45-1.08-.2-2c-.65-.92-1.36-1.4-2.68-1.39-1.16 0-4.5.38-5.46 4.78zm5.267-2.9c1.016-.044 1.863.066 1.975 1.084.11 1.01-.205 1.28-.205 1.28s1.154-.4 1.115.97c-.043 1.37-2.443.39-4.447 2.16s-1.96 2.08-1.96 2.08-1.19-1.66-.48-3.9c.705-2.24 2.832-3.64 4.002-3.69zm-1.643 11.645s3.813-.295 4.79-.162c1.605.22 2.333 2.288 2.454 2.783.34 1.39 2.18 2.58 2.984 1.52.807-1.06.463-1.97.463-1.97s1.863-.71 2.28-1.97c.42-1.26-.83-3.91-2.704-5.23s-5.43-1.09-7.66.48c-2.22 1.58-2.6 4.56-2.6 4.56zm6.555-4.24c2.78.05 3.97 1.39 4.52 2.25.54.865 1.19 2.273.1 2.687-.91.344-1.36-.145-1.36-.145s.35 2.096-.64 1.997c-.99-.1-1.18-2.76-3.04-3.74-2.1-1.11-4.07-.06-4.07-.06l.05-.17s1.04-2.88 4.42-2.82z"/>
  <path fill="#FFF" d="M189.486 130.302c-1.264.9-1.088 2.78-.3 3.396.784.614 2.522.186 2.522.186s.193.85 1.46 1.13c1.65.368 2.337-.076 3.444-2.265 1.365-2.71.355-7-1.996-8.88-2.35-1.88-5.887-1.04-5.887-1.04s.49 2.95.97 3.79c.47.84 1.05 2.77-.22 3.67zm1.363.335c1.17-1.325.66-3.01.42-3.884-.35-1.33-1.49-3.2-1.49-3.2s1.81-.192 2.53.372c.72.563 2.79 2.05 3.03 4.79.24 2.744-.2 4.415-1.57 4.446-.94.03-1.2-1.1-1.15-1.31.04-.21-.6.72-1.55.66s-1.43-.53-.26-1.86zm-12.9 1.295c.98.724 2.69 1.753 4.79.45s3.98-3.712 4.66-5.446c.68-1.735 0-4.558 0-4.558s-.88 2.03-3.73 2.266c-.82.067-3.13-.52-3.77-.795-.64-.28-1.44-.15-2.3 1.04-1.27 1.74.67 2.85.67 2.85s-.66 1.22-.91 1.94-.01 1.81.57 2.24zm.73-5.835c.15-.74.65-1.41 1.4-1.147.75.26 1.48.997 3.58.612 2.09-.386 2.76-.73 2.76-.73s-1.07 3.056-2.69 4.56c-1.63 1.51-2.95 1.684-3.89 1.605-.94-.08-1.56-.83-.99-1.667.57-.84 1.01-1.375 1.01-1.375s-1.36-1.117-1.21-1.858zm2.25-15.507c-2.02-.16-2.13 2.29-2.13 2.29s-1.93.282-2.09.458-.93.698-.89 2.927c.06 3.666 3.69 6.305 6.49 6.477 2.8.172 4.89-2.503 4.89-2.503s-2.39-.95-3.02-1.75c-.64-.8-1.09-2.7-.65-4.41.44-1.71-.61-3.34-2.63-3.5zm4.48 10.16s-2.27 1.298-5.42-.594c-3.15-1.893-3.11-4.116-2.85-4.997.51-1.77 2.61-.68 2.61-.68s.43-2.09.99-2.33c.57-.24 1.62-.75 1.56 1.19-.06 1.93-.44 3.7.64 5.23 1.08 1.53 2.46 2.18 2.46 2.18zm48.25-72.77v-5.407c-.43.524-.75 1.27-.81 2.332-.09 1.512.33 2.475.81 3.076zm-3.65 4.613c-.44-.11-.92.05-1.35.88-.63 1.222.7 1.728.7 1.728s-.29.84-.38 1.32c-.09.48.18 1.15.58 1.36.69.36 1.86.84 3.05-.19.37-.32.71-.7 1.02-1.12v-2.12c-.18.45-.41.91-.69 1.27-.87 1.11-1.69 1.35-2.28 1.39-.6.05-1.07-.36-.79-.95.28-.58.5-.96.5-.96s-.96-.57-.94-1.05c.02-.48.27-.95.77-.86.5.09 1.03.48 2.31.03.49-.17.85-.32 1.11-.43v-.7c-.31.23-.69.44-1.2.56-.51.12-2.02-.02-2.45-.13zm1.34-6.496c.11-1.117-.71-2.04-2-1.942-1.29.1-1.11 1.648-1.11 1.648s-1.19.367-1.27.494c-.09.126-.52.53-.27 1.928.4 2.3 2.94 3.6 4.72 3.433.99-.093 1.74-.713 2.22-1.25v-.966c-.5-.146-1.18-.377-1.47-.637-.48-.437-.95-1.59-.84-2.708zm-1.65 4.165c-2.17-.88-2.36-2.283-2.29-2.862.15-1.16 1.57-.682 1.57-.682s.06-1.355.39-1.563c.33-.207.95-.63 1.1.593.15 1.224.09 2.37.92 3.226.82.855 1.76 1.128 1.76 1.128s-1.3 1.04-3.47.16zm-84.2 169.034c1.71-.737 2.09-1.506 1.64-2.38s-1.44-.7-1.44-.7.43-1.033-.19-1.91-1.3-1.34-2.57-1.334c-1.11.006-4.32.37-5.23 4.583-1.02 4.718 1.94 6.35 1.94 6.35s.18-1.655 2.13-2.96c.98-.653 1.99-.91 3.7-1.65zm-6.1 2.75s-1.14-1.587-.46-3.734c.68-2.146 2.71-3.488 3.84-3.537.97-.04 1.78.064 1.89 1.04s-.2 1.228-.2 1.228 1.1-.38 1.06.938c-.04 1.32-2.34.38-4.26 2.08-1.92 1.7-1.88 1.99-1.88 1.99zm11.64-.938c-1.8-1.265-5.21-1.052-7.35.46-2.14 1.51-2.5 4.368-2.5 4.368s3.65-.282 4.59-.154c1.54.21 2.23 2.192 2.35 2.667.32 1.32 2.09 2.46 2.86 1.45.77-1.02.44-1.89.44-1.89s1.79-.68 2.19-1.89c.4-1.21-.79-3.75-2.59-5.02zm.87 5.498c-.87.33-1.3-.14-1.3-.14s.34 2.01-.61 1.915c-.95-.09-1.13-2.64-2.91-3.58-2-1.06-3.9-.05-3.9-.05l.06-.16s1-2.76 4.23-2.7c2.67.05 3.81 1.33 4.33 2.16.52.83 1.14 2.18.09 2.58z"/>
  <path fill="#FFF" d="M145.82 228.36c-2.252-1.802-5.64-.997-5.64-.997s.472 2.828.93 3.635c.34.598.725 1.765.41 2.682h1.296c.247-.98-.04-1.967-.197-2.563-.34-1.275-1.43-3.067-1.43-3.067s1.73-.185 2.43.356c.69.54 2.67 1.963 2.91 4.592.02.24.03.46.04.682h1.72c-.13-2.052-1.03-4.164-2.48-5.32zm-6.912-1.437s-.84 1.947-3.567 2.172c-.78.064-2.99-.498-3.61-.763-.61-.265-1.37-.14-2.2.997-1.21 1.67.65 2.73.65 2.73s-.49.92-.77 1.61h1.3c.02-.03.03-.06.05-.1.55-.81.97-1.32.97-1.32s-1.29-1.07-1.15-1.78c.14-.71.63-1.35 1.35-1.1s1.43.95 3.44.58 2.65-.7 2.65-.7-1.02 2.92-2.58 4.37l-.04.03h2.11c.64-.83 1.15-1.67 1.43-2.39.65-1.67 0-4.37 0-4.37zm-3.673-7.943c.423-1.638-.58-3.202-2.516-3.355-1.94-.152-2.04 2.195-2.04 2.195s-1.85.27-2.01.438-.89.67-.85 2.807c.06 3.514 3.54 6.043 6.23 6.207 2.68.166 4.69-2.4 4.69-2.4s-2.29-.906-2.9-1.668c-.61-.762-1.04-2.586-.62-4.224zm-3.415 5.812c-3.02-1.814-2.975-3.945-2.73-4.79.487-1.69 2.5-.647 2.5-.647s.414-2.002.958-2.233c.546-.23 1.56-.718 1.5 1.14s-.424 3.546.61 5.012c1.033 1.466 2.36 2.09 2.36 2.09s-2.18 1.243-5.198-.572zm-42.43-200.6s.142-1.27 1.64-2.27c.746-.5 1.524-.7 2.838-1.264 1.313-.566 1.604-1.156 1.262-1.825-.342-.67-1.1-.537-1.1-.537s.334-.793-.144-1.466c-.477-.672-.995-1.028-1.972-1.023-.85.005-3.31.284-4.01 3.516-.785 3.62 1.487 4.87 1.487 4.87zm-.557-4.29c.52-1.645 2.083-2.674 2.945-2.71.746-.033 1.368.05 1.45.797.08.74-.15.94-.15.94s.85-.29.82.72c-.03 1.01-1.797.28-3.27 1.59-1.475 1.3-1.443 1.53-1.443 1.53s-.87-1.22-.352-2.87zm1.737 5.85s2.803-.217 3.52-.12c1.182.163 1.717 1.683 1.807 2.047.25 1.01 1.603 1.89 2.194 1.11s.34-1.45.34-1.45 1.38-.52 1.68-1.45c.31-.93-.61-2.88-1.99-3.85-1.38-.97-3.99-.81-5.63.35-1.63 1.16-1.91 3.35-1.91 3.35zm4.82-3.116c2.05.036 2.922 1.02 3.326 1.656.402.635.877 1.67.07 1.975-.667.252-.994-.106-.994-.106s.26 1.55-.47 1.47c-.728-.07-.862-2.02-2.23-2.75-1.54-.81-2.993-.04-2.993-.04l.04-.12s.76-2.12 3.25-2.07z"/>
  <path fill="#FFF" d="M90.33 32.335c-.93.664-.802 2.045-.223 2.498.578.452 1.854.137 1.854.137s.15.624 1.08.832c1.22.27 1.72-.056 2.54-1.666 1.01-1.987.26-5.144-1.47-6.524-1.72-1.38-4.32-.764-4.32-.764s.37 2.17.72 2.79.78 2.035-.15 2.697zm1.002.248c.865-.975.484-2.214.313-2.855-.258-.98-1.095-2.354-1.095-2.354s1.332-.14 1.863.273c.532.414 2.053 1.506 2.234 3.523.18 2.017-.144 3.246-1.15 3.27-.692.015-.877-.817-.844-.97.033-.157-.44.525-1.135.48-.692-.042-1.05-.392-.186-1.367zm-9.482.952c.723.532 1.98 1.29 3.523.332 1.542-.958 2.925-2.73 3.425-4.006.5-1.27 0-3.35 0-3.35s-.645 1.5-2.737 1.67c-.6.05-2.29-.38-2.77-.58-.47-.2-1.05-.11-1.69.77-.93 1.28.5 2.1.5 2.1s-.48.9-.66 1.43c-.18.53 0 1.34.43 1.65zm.542-4.29c.108-.545.478-1.038 1.033-.845.555.192 1.093.733 2.636.45 1.54-.284 2.03-.536 2.03-.536s-.78 2.246-1.97 3.353c-1.19 1.11-2.16 1.237-2.85 1.18s-1.14-.61-.72-1.227c.42-.617.74-1.01.74-1.01s-.99-.82-.88-1.366zm2.688-2.47c2.062.128 3.6-1.84 3.6-1.84s-1.754-.697-2.223-1.28c-.468-.584-.8-1.983-.476-3.24.33-1.256-.44-2.456-1.93-2.574-1.48-.11-1.56 1.69-1.56 1.69s-1.41.21-1.54.34c-.12.13-.68.52-.65 2.16.05 2.7 2.72 4.64 4.78 4.77zM81.264 21.2c.375-1.295 1.92-.497 1.92-.497s.316-1.535.734-1.713c.417-.176 1.194-.55 1.15.874-.044 1.425-.326 2.722.467 3.846s1.81 1.602 1.81 1.602-1.672.955-3.986-.437c-2.32-1.392-2.28-3.026-2.1-3.674zM0 167.112v.912c.208-.32.19-.62 0-.912zm1.81 7.41c.35.836 1.625 1.405 2.025.66.403-.746.098-1.283.098-1.283s1.102-.63 1.24-1.47c.138-.84-.907-2.38-2.216-3.02-.793-.39-1.917-.36-2.958-.01v1.05c.21-.08.44-.14.7-.18 1.76-.25 2.63.48 3.06.97.43.49.97 1.31.32 1.68-.54.3-.87.04-.87.04s.43 1.28-.21 1.32-1-1.62-2.27-2.05c-.26-.09-.51-.13-.75-.14v.92c1.02-.02 1.68 1.21 1.81 1.51zm.584 5.564c.593-1.833-.465-4.433-2.128-5.384-.086-.05-.178-.074-.266-.114v1.156c.496.433.99 1.05 1.21 1.93.424 1.7.312 2.796-.547 2.95-.306.055-.524-.104-.664-.288v1.422c.12.045.27.08.45.093 1.07.07 1.46-.27 1.94-1.76zm32.554 33.424c-.54-.087-.786.415-.786.415s-.322-.536-.92-.543c-.6-.008-1.03.143-1.444.718-.36.5-1.25 2.063.346 3.856 1.787 2.01 3.493 1.21 3.493 1.21s-.684-.625-.632-1.93c.027-.653.243-1.194.473-2.207.23-1.02.01-1.44-.53-1.52zm-.514 3.67c.135 1.42.28 1.497.28 1.497s-1.087-.01-1.83-1.02c-.745-1.007-.68-2.365-.334-2.885.3-.453.614-.783 1.09-.512.472.273.487.49.487.49s.19-.62.772-.172c.58.452-.6 1.178-.47 2.6zm6.784-3.572c-.414-.577-1.948-.872-3.106-.478-1.16.395-2.182 2-2.203 3.455-.02 1.455 1.14 2.557 1.14 2.557s1.07-1.736 1.44-2.117c.6-.62 1.72-.285 1.97-.182.7.287 1.79-.13 1.59-.81-.21-.683-.71-.82-.71-.82s.28-1.026-.14-1.605zm-.174 2.376c-.355.395-1.558-.36-2.567.133-1.137.553-1.305 1.736-1.305 1.736l-.057-.078s-.916-1.354.173-2.793c.897-1.187 1.847-1.276 2.393-1.242.55.035 1.36.2 1.19.803-.13.5-.48.54-.48.54s1.02.504.66.9z"/>
  <path fill="#FFF" d="M39.656 217.865c-1.55.424-2.3 2.213-2.3 2.213s1.43.715 1.942.773 1.525.42 1.516 1.25c-.01.83.857 1.35 1.37 1.2.512-.14.874-1.03.874-1.03s.427.19.947-.27c.677-.6.702-1.03.105-2.2-.736-1.44-2.904-2.35-4.454-1.93zm3.746 3.275c-.287.413-.854.166-.93.08-.077-.086.12.483-.203.87-.33.39-.68.45-.89-.474-.2-.924-1.09-1.23-1.54-1.406-.69-.267-1.85-.363-1.85-.363s.48-.842.96-.977c.47-.135 1.76-.56 3.02.197 1.26.757 1.84 1.473 1.43 2.073zm-6.66-.635s.6 1.016-.193 2.317c-.23.374-1.21 1.184-1.53 1.374-.32.19-.52.574-.28 1.32.35 1.096 1.44.605 1.44.605s.32.67.55 1.01c.23.34.78.58 1.15.46.62-.19 1.6-.61 1.7-1.92.1-1.31-.35-2.88-.89-3.72-.54-.84-1.97-1.43-1.97-1.43zm1.348 5.96c-.33.378-.848.41-1.03-.1s-.273-.87-.273-.87-.907.233-1.18-.064c-.273-.29-.404-.72-.053-.96.35-.24.897-.32 1.39-1.35.494-1.02.555-1.41.555-1.41s.98 1.42 1.12 2.6c.13 1.18-.21 1.8-.53 2.18zm-2.323-6.563s-1.158.73-1.7.756-1.506-.38-2.104-1.107c-.598-.72-1.63-.78-2.335.04-.703.82.32 1.64.32 1.64s-.484.92-.46 1.05c.022.13.01.62.982 1.31 1.602 1.13 3.88.39 4.837-.76s.46-2.9.46-2.9zm-2.31 3.094c-1.807.764-2.75.043-3.05-.344-.6-.773.528-1.338.528-1.338s-.765-.842-.69-1.162c.074-.322.187-.938 1.004-.303.81.63 1.45 1.35 2.45 1.37s1.71-.38 1.71-.38-.16 1.39-1.96 2.15zM140.87 57.24c.626-.116 1.188-.026 2.204-.026 1.014 0 1.37-.303 1.336-.835-.035-.54-.566-.66-.566-.66s.44-.43.318-1c-.12-.57-.36-.95-.996-1.22-.557-.24-2.238-.75-3.604 1.16-1.53 2.14-.4 3.59-.4 3.59s.45-.79 1.707-1.02zm-.865-1.934c.8-.927 2.11-1.158 2.682-.94.496.19.88.417.723.928-.158.51-.363.572-.363.572s.635.048.332.7c-.31.648-1.26-.32-2.58.117-1.33.436-1.37.59-1.37.59s-.23-1.04.57-1.967zm1.678 2.654c-1.393.296-2.19 1.647-2.19 1.647s1.888.646 2.33.913c.722.437.644 1.58.6 1.84-.124.733.513 1.686 1.116 1.344.6-.34.62-.848.62-.848s1.04.045 1.5-.474c.46-.52.41-2.047-.22-3.066-.63-1.02-2.38-1.65-3.77-1.355zm1.828.97c1.33.6 1.62 1.487 1.71 2.015.09.527.1 1.335-.51 1.307-.5-.023-.62-.35-.62-.35s-.26 1.08-.71.827c-.45-.26.01-1.57-.68-2.42-.77-.97-1.93-.87-1.93-.87l.06-.07s1.1-1.17 2.7-.44z"/>
  <path fill="#FFF" d="M138.347 62.114c.055.503-.07 1.545-.863 1.715-.793.17-1.097 1.1-.847 1.56.25.46 1.17.61 1.17.61s-.08.45.468.84c.715.51 1.135.44 2.12-.38 1.212-1.01 1.614-3.28.876-4.67-.73-1.39-2.6-1.72-2.6-1.72s-.37 1.52-.32 2.02zm.73.386c.106-.71-.054-1.84-.054-1.84s.908.28 1.14.7c.23.42.913 1.56.464 2.925s-1.006 2.076-1.668 1.808c-.46-.185-.35-.78-.28-.87.06-.092-.44.218-.88-.005-.44-.224-.58-.552.26-.944s.93-1.308 1-1.774zm-5.254.934c1.275-.19 2.675-.957 3.358-1.647.69-.69.95-2.184.95-2.184s-.84.792-2.25.316c-.4-.14-1.39-.9-1.64-1.16-.25-.27-.65-.37-1.31.02-.97.57-.26 1.5-.26 1.5s-.56.45-.83.74c-.27.29-.38.87-.19 1.19.33.55.93 1.39 2.21 1.2zm-1.22-2.263c.45-.28.77-.44.77-.44s-.417-.81-.19-1.14c.223-.32.602-.54.91-.26.306.28.505.79 1.59 1.04 1.084.25 1.474.22 1.474.22s-1.142 1.25-2.232 1.63c-1.09.39-1.76.2-2.19-.03-.436-.23-.58-.72-.13-1zm3.023-2.44c1.308.67 2.862-.18 2.862-.18s-.947-.94-1.086-1.46c-.143-.51.035-1.51.6-2.24.564-.72.4-1.72-.535-2.22-.933-.49-1.49.66-1.49.66s-.98-.26-1.097-.21c-.116.05-.587.15-1.03 1.22-.727 1.77.467 3.79 1.776 4.45zm-.918-4.7c.608-.74 1.39.22 1.39.22s.64-.91.96-.91c.322 0 .936-.02.506.89-.43.92-.978 1.69-.777 2.64.2.96.728 1.56.728 1.56s-1.36.16-2.475-1.4c-1.118-1.56-.636-2.61-.332-2.98z"/>
  <path fill="#DF230E" d="M6.954 131.923c1.154.512 3.096 1.334 4.326 1.19 2.613-.302 4.154-1.952 4.85-2.038.693-.084.17-.42 2.126 1.873 1.953 2.29 7.893 2.945 10.18 1.15 2.287-1.794 2.112-4.896 2.112-4.896s1.662 1.39 5.894.397c4.233-1 7.186-4.53 7.186-4.53s-2.703.45-5.886.14c-3.183-.31-5.54-5.17-7.138-6.92s-3.758-2.45-6.098-2.47c-2.34-.02-3.07 1.24-3.528.53-.458-.71-.888-2.37-4.78-2.06-3.894.31-5.642 3.66-5.642 3.66-.762.56-.99-.72-1.714-1.44s-2.173-2.09-4.904-1.48c-1.88.42-3.103 1.56-3.94 2.73v4.42c.984-1.34.71-4.34 3.357-5.41 2.692-1.09 5.87 1.24 5.894 2.2.02.96 2.02 1.76 2.49 1.88 0 0 1.69-3.09 3.41-3.84 1.72-.75 3.47-.38 3.57 1.54.1 1.92.32 1.76 1.62 2.87 1.29 1.1.42-1.63 1.71-2.28.72-.37 1.82-2.25 3.93-1.7 2.11.54 4.88 4.08 5.95 5.44 1.07 1.36 1.69 2.18 2.93 3.22 1.24 1.05 3.15 1.26 3.15 1.26s-2.01 1.27-4.51 1.2l-3.03-.09s.36-3.24-2.62-4.92c-2.99-1.69-6.36-.83-8.13 1.41-1.77 2.23 1.66 5.22 3.24 5.52 1.69.31 3.34.23 3.87-1.44.53-1.68-.26-3.99-.26-3.99s-.55 4.13-2.39 3.6c-1.85-.54-3.48-1.01-2.63-2.79.85-1.78 1.77-2.27 3.3-2.1 1.54.17 4.21 1.68 3.91 4.55-.3 2.86-2.46 5.78-5.78 4.83-3.33-.95-4-3.15-5.7-3.47-1.7-.32-2.44-.23-4.02.73s-2.85.98-4.48.4l-1.63-.58s-1.81.05-1.49-.15c.32-.21 1.35-2.41-.71-4.76-1.6-1.82-3.7-1.61-5.02-.91v1.23c.3-.24.68-.37 1.13-.27 1.85.37 3.97 1.08 3.01 4.34-.38 1.29-2.26 1.69-4.15 1.73v2.18c2.58-.59 4.94-2.14 4.94-2.14s.86-.13 2.02.38z"/>
  <path fill="#FFF" d="M6.954 131.923c1.154.512 3.096 1.334 4.326 1.19 2.613-.302 4.154-1.952 4.85-2.038.693-.084.17-.42 2.126 1.873 1.953 2.29 7.893 2.945 10.18 1.15 2.287-1.794 2.112-4.896 2.112-4.896s1.662 1.39 5.894.397c4.233-1 7.186-4.53 7.186-4.53s-2.703.45-5.886.14c-3.183-.31-5.54-5.17-7.138-6.92s-3.758-2.45-6.098-2.47c-2.34-.02-3.07 1.24-3.528.53-.458-.71-.888-2.37-4.78-2.06-3.894.31-5.642 3.66-5.642 3.66-.762.56-.99-.72-1.714-1.44s-2.173-2.09-4.904-1.48c-1.88.42-3.103 1.56-3.94 2.73v4.42c.984-1.34.71-4.34 3.357-5.41 2.692-1.09 5.87 1.24 5.894 2.2.02.96 2.02 1.76 2.49 1.88 0 0 1.69-3.09 3.41-3.84 1.72-.75 3.47-.38 3.57 1.54.1 1.92.32 1.76 1.62 2.87 1.29 1.1.42-1.63 1.71-2.28.72-.37 1.82-2.25 3.93-1.7 2.11.54 4.88 4.08 5.95 5.44 1.07 1.36 1.69 2.18 2.93 3.22 1.24 1.05 3.15 1.26 3.15 1.26s-2.01 1.27-4.51 1.2l-3.03-.09s.36-3.24-2.62-4.92c-2.99-1.69-6.36-.83-8.13 1.41-1.77 2.23 1.66 5.22 3.24 5.52 1.69.31 3.34.23 3.87-1.44.53-1.68-.26-3.99-.26-3.99s-.55 4.13-2.39 3.6c-1.85-.54-3.48-1.01-2.63-2.79.85-1.78 1.77-2.27 3.3-2.1 1.54.17 4.21 1.68 3.91 4.55-.3 2.86-2.46 5.78-5.78 4.83-3.33-.95-4-3.15-5.7-3.47-1.7-.32-2.44-.23-4.02.73s-2.85.98-4.48.4l-1.63-.58s-1.81.05-1.49-.15c.32-.21 1.35-2.41-.71-4.76-1.6-1.82-3.7-1.61-5.02-.91v1.23c.3-.24.68-.37 1.13-.27 1.85.37 3.97 1.08 3.01 4.34-.38 1.29-2.26 1.69-4.15 1.73v2.18c2.58-.59 4.94-2.14 4.94-2.14s.86-.13 2.02.38z" opacity=".7"/>
  <path fill="#DF230E" d="M2.48 129.61l.393-1.85s-1.318 1.395-2.793.927c-.03-.01-.052-.026-.08-.037v1.22c1.712.41 2.48-.26 2.48-.26z"/>
  <path fill="#FFF" d="M2.48 129.61l.393-1.85s-1.318 1.395-2.793.927c-.03-.01-.052-.026-.08-.037v1.22c1.712.41 2.48-.26 2.48-.26z" opacity=".7"/>
  <path fill="#FFF" d="M175.146 42.258c1.64.583.81 2.635.973 4.695.25 3.203-.03 3.15.22 3.51.25.357 1.77 1.042 2.72 1.174.94.133 2.63-.815 3.01-.32.37.498.47 1.71.23 3.224-.51 3.18 1.2 10.35 1.2 10.35s.38-.53.26-1.83.56-11.94.56-11.94.23-.15.86-.21 3.24.32 3.52.29c.28-.03.77-5.4.7-7.37-.07-1.97.85-1.45.85-1.45s-2.63-1.56-3.64-1.7c-1.01-.13-2.9.28-2.9.28s.18-1.56.62-2.76.3-1.66-.2-2.41c-.51-.75-4.31-3.44-3.61-2.78.26.25 1.27 1.68 1.25 2.6-.02.92.18 5.46.18 5.46s-2.83.9-4.41.89c-1.58-.01-4.09-.22-2.45.37zm11.82 7.013c-.078.3-1.143-.16-2.14-.17s-1.245.26-1.245.26-.05-2.71.22-2.68c.45.05 2.12.29 2.3.19.18-.1 1.12-.53 1.12-.53s-.16 2.65-.24 2.95zm-3.18-6.65c.4-.21 2.33-.94 2.77.56.614 2.08-.16 2.02-.16 2.02s-1.165-.2-1.68-.13c-.51.07-1.118-.09-1.118-.09s-.444-2 .19-2.35zm-5.163 1.22c.547.21 2.73-.34 2.965-.49.238-.14.57 2.02.582 2.24s-3.84.48-3.84.48c-.248-.41-.256-1.88-.256-1.88s.002-.55.55-.35zm-.614 3.42c.44.09 1.96.75 2.14.65.18-.09 1.27-1.02 1.91-.97.64.06.15 1.97.15 1.97s-1.95.37-3.08.45l-1.14.08s-.48-2.25 0-2.16z"/>
</svg>
