<svg xmlns="http://www.w3.org/2000/svg" width="300" height="300" viewBox="30 0 600 600">
  <g fill="#231f20" fill-rule="nonzero">
    <path d="M556.165 396.82c-4.728 1.818-6.182-3.27-8.364-4.362-2.18-1.09-5.81-3.273-9.09-3.23-3.27.045-1.45 1.048 1.09 2.502 2.55 1.454 4.37 8 3.28 8.728-1.09.727-10.54-3.273-11.63-5.09-1.09-1.82-8.72-6.183-10.91-5.82-2.18.364 1.09 4 2.19 6.182 1.09 2.182 0 2.91-5.09 1.82-5.09-1.092-16-2.183-21.45-4-5.45-1.82-10.91-2.91-10.91-5.092 0-2.182 5.09-10.545 5.09-10.545 1.92-3.3 3.28-10.183 4.73-10.546 1.46-.363 13.82 4.363 26.78 5.454 12.96 1.1 20.13 6.19 28.13 12 8 5.82 10.91 10.19 6.18 12m-82.54-33.09c-15.64 31.64-45.09 40.73-98.55 51.64-53.45 10.91-109.82-2.91-143.27-9.09s-53.45-28.36-64.72-53.82c-11.27-25.45-2.18-52.36 0-56.36l4.73-8.36c4.73-8.36 5.82-1.82 5.46 4.16-.36 5.97 4.73 20.58 9.82 25.3 5.09 4.73 8.73 14.55 44 33.82 35.28 19.27 89.46 18.18 103.64 17.46 14.18-.72 75.64-10.91 96.36-35.63 20.73-24.72 10.91-58.18 10.91-58.18s16.37 14.55 26.55 29.82c6.46 9.69 20.73 27.64 5.09 59.27m-16.73 73.45c-.36 6.55-6.91 17.82-10.91 11.64s-6.18-4-5.45-2.18c.73 1.82 3.76 11.32-4 11.32-14.3 0-12.36-6.59-13.09-6.87-.73-.28-10.18-4.08-8-.24 2.18 3.84-2.54 9.25-8.36 7.12-5.81-2.13-5.79-12.96-5.45-14.23 1.82-6.91 5.09-6.91 13.46-7.63 8.365-.72 16-6.91 26.18-9.81 10.18-2.91 9.82-8 14.545-3.36 4.73 4.638 1.46 7.73 1.096 14.276m-189.49 15.61c-8.357 10.45-14.544 2.183-17.45-1.09-2.91-3.27 0-6.906-4.73 1.82-4.73 8.727-18.55 2.18-18.91 0-.37-2.18.72-12.363 0-10.18-.73 2.18-2.91 8.725-9.46 8.725-4.31 0-4.92-3.24-7.64-12-2.85-9.17 1.54-13.27 4.72-16.36 3.51-3.4 18.65 4.73 25.56 7.28s25.59 6.55 27.89 6.55c2.75 0 5.82 8 0 15.28M145.98 405.2c-5.09 1.454-17.09 5.453-24.364 4.727-7.274-.725-6.183-8.362-7.273-10.544-1.09-2.18-4 .364-5.82 4.728-1.82 4.37-2.18 8-8.73 8-6.542 0-2.09-12.3-3.633-11.27-2.182 1.46-2.182-6.18-5.455-2.91-3.27 3.28-4.728 14.18-13.455 9.09s-4-11.63 4-18.91c8-7.27 23.272-12 29.09-12 5.82 0 7.395 4.48 18.56-1.03 16.35-8.06 17.44 1.76 22.17 9.03 4.725 7.28 9.816 6.55 10.466 12.37.65 5.82-10.468 7.27-15.56 8.73m81.09-167.27c6.547-2.18 15.274-5.09 21.093-15.27 5.81-10.18-1.82-30.91-6.55-37.45-4.73-6.54-21.82-25.81-25.82-28.72 0 0-7.28-8.72-14.57-19.63-7.29-10.9 5.47-2.18 17.83 0 12.36 2.19 20 8 29.45 14.19 9.45 6.18 26.91 38.55 32.36 49.45 5.45 10.91 1.45 7.64 2.18 12 .73 4.37 9.09 8.37 12.36 10.18 3.27 1.82 14.18 3.28 12.73-.72-1.46-4 4.73-24.73 10.18-35.63 5.45-10.91 15.27-21.09 23.27-30.91s29.09-14.91 39.63-16.366c10.54-1.454 2.91 5.455 0 13.82s-7.64 19.636-24 38.545c-16.37 18.91-8.73 27.27-6.91 31.27 1.81 4 9.09 4.73 15.27 10.547 6.18 5.82 19.27 11.64 22.54 14.91 18.543 18.547 20.952 17.28 22.18 43.79 1.19 25.667-22.545 42.757-28.36 46.39-5.82 3.64-37.457 12.73-42.91 13.82-5.457 1.09-6.18-3.27-6.91-8.73-.73-5.45 0-14.91 1.452-16.72 1.454-1.82 8.73-5.46 9.82-10.184 1.09-4.73-5.09-5.82-8.37-5.82-3.27 0-11.634 9.09-12.725 10.91-1.09 1.82-5.09-3.636-12.136-4.73-2.86-.44-13.68-2.54-13.68-2.54s3.634 6.18 8 8.36c4.36 2.18 9.815 4.365 12.36 5.09 2.545.73 2.18 7.64 2.91 10.548.726 2.91 2.544 13.09 2.544 15.635s-10.54 0-26.548 0c-27.633 0-34.91-8-58.91-20s-34.91-36-35.64-54.91c-.72-18.906 19.28-38.906 25.82-41.09M562.3 381.6c-1.82-5.09-14.54-13.82-24.73-16-10.18-2.18-25.09-7.27-30.54-6.18-5.457 1.09-13.82 1.09-7.275-9.457 6.55-10.545.98-33.28-4.87-42.354-6.18-9.6-15.12-31.1-33.67-41.65-18.54-10.55-29.82-15.64-34.91-18.55-5.09-2.91-21.45-12-32.722-15.637-11.27-3.64-26.546-7.278-26.91-11.278-.36-4 2.182-14.55 10.182-22.55s21.813-34.91 22.54-40.363c.73-5.454 10.55-14.91 7.275-21.09-3.27-6.18-18.887-10.133-36-6.545-22.546 4.73-28.97 8.23-44.36 20.367-18.91 14.91-29.82 38.55-29.82 38.55-1.09-.36-17.09-30.18-23.64-36.36-6.547-6.18-24.73-18.54-44.73-22.91-20-4.36-31.636-11.27-42.91-9.09-11.27 2.18-13.14 5.37-10.544 15.27 4 15.28 18.18 32.73 27.64 41.09 9.45 8.37 27.63 21.46 29.45 25.46 1.82 4 6.97 10.91 3.3 13.46s-20.03 9.818-27.67 13.818c-7.64 4-19.26 17.826-20.73 19.636-6.18 7.635-27.636 18.18-40.73 38.545-13.09 20.36-11.27 33.812-12 42.902-.725 9.09 3.64 20.37 3.64 22.55 0 2.184 1.46 5.09-12 7.64-13.45 2.543-38.54 8-47.633 14.543-9.09 6.55-19.274 14.55-17.09 21.09 2.18 6.55 8.725 14.91 26.907 18.184 18.185 3.27 32.004 2.18 45.82 0 13.82-2.18 30.175-11.45 36-11.274 2.536.08 5.88 2.547 8.94 3.27 3.06.73 8.88 3.64 8.516 8.367-.363 4.727-1.82 19.637 10.18 30.18 12 10.547 22.55 13.09 29.09 13.456 6.55.366 19.276 7.27 37.09 4.366 17.82-2.91 18.186-7.27 20-13.82 1.82-6.543 4.37-10.18 7.277-9.09 2.91 1.09 26.91 1.82 43.27 2.547 16.36.73 42.18-1.815 45.45-.36 3.27 1.456 2.18 8 7.632 11.275 5.45 3.27 14.51 10.047 32 10.167 23.27.16 42.91-3.62 49.45-11.983 6.545-8.365 5.454-22.547 4.73-26.91-.73-4.36-1.457-7.27-4-8.36-2.55-1.095-6.185-4 1.09-8 7.27-4 7.634-5.82 13.82-4.73 6.18 1.09 18.904-1.82 29.813 1.453 10.91 3.278 31.635 4 35.635 3.278 4-.73 17.454 1.09 20-8.36 2.544-9.455-5.455-13.455-7.27-18.545"/>
    <path d="M252.006 258.868c.9.54-.392 2.738-.913 3-.522.26-1.565-.262-1.043 1.173.52 1.44 3.52 4.05 5.737 5.35 2.217 1.31 5.216 3.26 8.085 2.61 2.87-.65 4.955-5.08 4.303-7.3-.65-2.21-2.216-4.17-7.04-4.82-4.826-.65-3.783-.78-5.348-.91-1.564-.13-4.433.52-3.78.92m91.15 6.52c.26.78 1.956 1.44 2.478 2.35.52.91 3.52 5.09 5.476 5.48 1.96.39 1.7.41 4.55 1.56 1.25.5 1.96.74 4.84.66 4.31-.12 4.57-2.22 3-6.78-1.56-4.56-4.56-6.13-8.34-6.39-3.78-.26-5.6.65-6.78 1.57-1.17.92-1.95 1.57-2.74 1.83-.78.26-2.47-.26-2.47-.26"/>
  </g>
</svg>
