<?xml version="1.0" encoding="utf-8"?>
<!-- Generator: Adobe Illustrator 14.0.0, SVG Export Plug-In . SVG Version: 6.00 Build 43363)  -->
<!DOCTYPE svg PUBLIC "-//W3C//DTD SVG 1.1//EN" "http://www.w3.org/Graphics/SVG/1.1/DTD/svg11.dtd">
<svg version="1.1" id="レイヤー_1" xmlns="http://www.w3.org/2000/svg" xmlns:xlink="http://www.w3.org/1999/xlink" x="0px"
	 y="0px" width="90.949px" height="54.432px" viewBox="0 0 90.949 54.432" enable-background="new 0 0 90.949 54.432"
	 xml:space="preserve">
<path d="M89.903,33.876c-1.443-1.045-11.39,0.404-11.39,0.404s0.453-1.015,1.235-4.358c0.783-3.344,0.679-5.973-0.927-5.999
	c-1.604-0.025-6.766,3.396-6.766,3.396s1.799-3.036,1.99-5.953c0.191-2.915-1.716-11.409-2.77-9.383s-4.88,4.009-4.88,4.009
	s2.984-4.186,0.134-8.464c-2.851-4.277-7.5-5.664-6.941-4.05c0.559,1.615-1.403,5.67-1.403,5.67s0,0-0.267-1.61
	s-2.969-6.03-6.751-6.84c-3.782-0.81-4.647-1.367-3.955,0.979c0.692,2.347,0.755,7.601-0.093,5.837
	c-0.847-1.765-5.732-6.658-11.272-7.038c-5.54-0.379-5.148,2.545-2.972,3.311c2.177,0.764,2.817,6.465,2.817,6.465
	s-0.869-0.451-6.409-0.831c-5.54-0.379-10.577,4.357-11.019,4.642c-0.442,0.285,1.005,1.037,1.134,2.055
	c0.13,1.019,1.166,0.171,3.794,0.066s3.752,2.687,3.752,2.687s-2.488,0.398-5.575,1.809c-3.087,1.41-7.7,7.029-7.7,7.029
	l0.991,1.913c0,0,1.888,0.614,4.236-0.224c2.349-0.839,5.114-0.357,3.793,0.06c-1.32,0.417-5.343,5.607-5.343,5.607
	s-9.931,0.427-14.307,0.358C-1.333,35.354,0.301,51.869,0.29,52.6c-0.012,0.729,1.14,1.769,5.079,1.831
	c3.939,0.062,24.112-1.953,30.078-0.837c5.965,1.115,36.471,0.867,41.292,0.652c4.82-0.217,12.855-0.818,13.608-2.266
	C91.098,50.533,91.345,34.92,89.903,33.876z M22.923,33.4c0.452-0.868,3.396-2.573,4.121-2.269c0.725,0.302,1.044-1.443,0.63-2.909
	c-0.415-1.466-8.277-2.613-8.277-2.613s0.75-1.301,4.574-3.138c3.823-1.837,5.259-0.354,5.989-0.343
	c0.73,0.012,1.624-1.141,1.655-3.184c0.031-2.027-6.48-5.502-6.48-5.502s3.096-1.994,6.149-1.216c2.121,0.541,5.366,2.128,6.535,2
	c1.169-0.127,0,0,0.922-2.904c0.922-2.904-1.193-7.608-1.193-7.608s2.318,1.059,5.07,2.415c2.751,1.357,2.277,3.685,2.277,3.685
	s0.827,3.078,3.328,1.805c2.501-1.275,2.895-7.689,2.895-7.689s3.198,0.78,3.736,3.708c0.538,2.927-0.646,3.93-0.655,4.514
	c-0.01,0.583,1.288,1.626,3.631,1.079c2.343-0.547,4.319-5.478,4.319-5.478s2.14,3.099,1.96,5.285
	c-0.181,2.186-2.121,4.929-2.274,5.364s-0.032,2.042,2.446,2.228c2.479,0.185,5.736-2.829,5.736-2.829s1.667,5.281-0.259,7.147
	c-1.927,1.867-3.225,0.825-3.248,2.284c-0.022,1.459,0.105,2.629,2.87,3.111c2.766,0.481,7.029-1.533,7.029-1.533
	s-0.473,2.221-0.642,3.678c-0.168,1.456-3.541,2.425-3.981,2.563c-0.439,0.14-13.133-0.062-13.133-0.062s-0.184-6.861-4.067-10.425
	s-13.192-5.609-19.974-1.338c-6.781,4.271-5.74,12.3-5.74,12.3l-7.149-0.113C21.723,35.411,22.471,34.269,22.923,33.4z
	 M47.898,27.553c-4.994-2.593-10.311,1.409-11.652,3.14c-1.341,1.73-1.378,4.064-1.378,4.064l-2.917-0.046
	c0,0,1.195-11.072,9.955-11.227c8.759-0.153,11.88,5.588,12.725,7.498s-0.064,4.086-0.064,4.086l-0.729-0.012
	C53.836,35.058,52.891,30.146,47.898,27.553z M50.48,35.005l-13.277-0.21c0,0,1.686-5.047,7.522-4.989
	C48.957,29.845,50.48,35.005,50.48,35.005z M86.876,49.883c-0.896,1.299-24.259,1.97-26.603,2.579
	c-2.344,0.612-32.52-1.617-36.311-1.824c-3.792-0.204-19.874,1.583-19.85,0.124c0.023-1.459-1.124-11.984,1.371-12.82
	c2.494-0.837,32.552-0.452,34.741-0.472c0,0,23.502-0.213,26.859-0.306c3.356-0.094,18.839-0.87,19.421-0.715
	C87.086,36.605,87.773,48.584,86.876,49.883z"/>
</svg>
