<?xml version="1.0" encoding="utf-8"?>
<!-- Generator: Adobe Illustrator 14.0.0, SVG Export Plug-In . SVG Version: 6.00 Build 43363)  -->
<!DOCTYPE svg PUBLIC "-//W3C//DTD SVG 1.1//EN" "http://www.w3.org/Graphics/SVG/1.1/DTD/svg11.dtd">
<svg version="1.1" id="レイヤー_1" xmlns="http://www.w3.org/2000/svg" xmlns:xlink="http://www.w3.org/1999/xlink" x="0px"
	 y="0px" width="30.574px" height="48.742px" viewBox="0 0 30.574 48.742" enable-background="new 0 0 30.574 48.742"
	 xml:space="preserve">
<g>
	<path d="M29.71,10.243C28.94,9.858,20.396,0.161,19.242,0.007S7.774,2.315,7.774,2.315S6.62,6.318,6.081,7.704
		s-3.079,6.003-3.463,6.542s0.692,1.231,0.539,2.001s-2.617,4.926-2.155,6.157s4.32,3.993,4.387,4.387C5.61,28.09,0,38.953,0,42.57
		c0,4.85,5.003,6.928,7.774,5.927c2.948-1.064,8.697-19.55,8.928-19.935s6.081-0.154,6.466-0.539s3.693-7.543,3.693-7.543
		s1.54-4.695,3.465-7.312C30.857,12.444,30.479,10.628,29.71,10.243z M4.362,22.316c-0.03,0.031-0.051,0.044-0.051,0.011
		C4.311,22.306,4.332,22.306,4.362,22.316c0.32-0.334,2.181-3.991,2.181-3.991s1.338,0.99,2.078,1.847
		c0.498,0.576,2.374,2.925,2.374,2.925s-1.834,3.001-1.681,3.387C9.458,26.847,4.873,22.479,4.362,22.316z M3.463,45.85
		C0.77,44.263,1.54,42.262,1.54,42.262s1.718,1.707,2.771,2.386c0,0,2.604,1.539,3.342,1.154S6.14,47.427,3.463,45.85z
		 M5.347,42.494c-1.797-1.271-2.422-2.078-2.422-2.078s0.77-2.049,0.847-2.002s1.291,1.763,1.924,2.309
		c0.824,0.711,2.475,1.387,3.079,1.387S7.851,44.263,5.347,42.494z M9.914,39.183c-0.523,0.077-0.678,0.848-2.833-0.692
		s-2.386-2.078-2.386-2.31c0-0.23,0.396-1.873,2.386,0.693c0.368,0.475,1.078,1,2.155,1.077s1.758-0.538,1.758-0.538
		S10.437,39.107,9.914,39.183z M11.623,35.257c-0.462,0.386-2.091,0.848-3.97-0.385c-1.879-1.23-1.648-1.539-1.495-1.77
		s0.385-0.871,0.385-0.871s1.62,1.623,2.617,1.871c0.924,0.231,2.309,0,2.54-0.461c0.231-0.463,0.308-1.434,0-1.41
		c-0.308,0.024-1.386,0.516-2.309,0c-0.923-0.515-1.628-1.283-1.738-1.592s-0.012-2.119,0.506-1.848c0,0,1.925,1.078,2.232,0.77
		c0.308-0.308,0.308-0.308,0.308-0.308s0.077-0.12,0.924,0.363s2.147,0,2.147,0S12.084,34.873,11.623,35.257z M21.166,25.483
		c-0.076,0.308-2.284,0.016-3.635,0.016s-4.677,0.985-4.677,0.985s1.309-2.848,1.616-3.002s2.43-0.752,3.463-0.924
		c0.688-0.114,4.926-0.923,4.926-0.923S21.244,25.175,21.166,25.483z M27.247,11.398c-0.077,0.154-3.464,6.773-3.464,7.235
		c0,0-4.387,0.539-6.542,0.847s-4.772,0.693-4.772,0.693s-2.849-2.462-3.926-3.694S6.542,14.63,6.542,14.63s2.309-4.387,2.925-5.85
		s1.154-4.079,1.154-4.079s4.541-0.77,5.849-0.924c1.309-0.154,2.618-0.462,3.08-0.385c0.461,0.077,4.463,5.234,5.079,5.927
		s0.616,1.231,1.386,1.462S27.324,11.244,27.247,11.398z"/>
	<path d="M18.78,7.242c-4.996-1.038-8.389,2.001-7.697,5.772s4.926,4.849,5.815,4.772s0.574-1.77,0.574-1.77
		s0.846,1.308,3.154,1.078c2.31-0.23,3.926-2.463,3.311-4.849C23.32,9.859,19.931,7.48,18.78,7.242z M20.474,13.014
		c-0.231,2.001-2.001,1.693-2.31,2.232c-0.307,0.539-0.633,0-0.633,0s-2.445-0.308-3.446-1.154s0.385-5.542,4.079-4.31
		C19.228,10.136,20.705,11.013,20.474,13.014z"/>
</g>
</svg>
