<?xml version="1.0" encoding="utf-8"?>
<!-- Generator: Adobe Illustrator 14.0.0, SVG Export Plug-In . SVG Version: 6.00 Build 43363)  -->
<!DOCTYPE svg PUBLIC "-//W3C//DTD SVG 1.1//EN" "http://www.w3.org/Graphics/SVG/1.1/DTD/svg11.dtd">
<svg version="1.1" id="レイヤー_1" xmlns="http://www.w3.org/2000/svg" xmlns:xlink="http://www.w3.org/1999/xlink" x="0px"
	 y="0px" width="176.871px" height="88.675px" viewBox="0 0 176.871 88.675" enable-background="new 0 0 176.871 88.675"
	 xml:space="preserve">
<g>
	<path d="M176.576,76.368c-0.834-1.184-3.405-2.42-3.405-2.42s-0.024-13.769-0.401-15.663c-0.379-1.896-0.631-22.626-0.83-25.675
		c-0.199-3.049,0.086-22.314-1.765-23.47c-1.85-1.156-16.639-0.844-22.422-1.307c-5.782-0.462-9.285,0.361-9.285,0.361
		s0.065-2.229,0.122-4.112c0.056-1.883-11.395-1.789-12.263-1.815c-0.869-0.025,0.406,5.809-0.167,5.56
		c-0.572-0.249-6.517-0.107-7.673-0.229c-1.156-0.121-0.874,4.988-0.874,4.988s-3.193,0.195-3.917,0.174
		c-0.725-0.022-0.612-3.787-0.738-4.37c-0.128-0.583,0.746-5.63,0.211-7.095c-0.536-1.465-11.413-1.21-13.154-1.117
		c-1.742,0.093-4.05-0.265-5.357-0.16c-1.307,0.105-0.972,13.159-0.972,13.159S81.65,13.398,80.198,13.5
		c-1.452,0.102-13.176-0.393-13.176-0.393s0.108-3.619,0.129-4.343c0.022-0.723-1.975-1.797-2.554-1.815
		C64.02,6.932,51.976,7.442,49.655,7.518c-2.321,0.075-15.443-0.632-17.23-0.514c-1.314,0.087-1.225,7.064-1.276,8.802
		c-0.052,1.738-1.043,20.402-1.056,20.836c-0.013,0.435-6.954-9.771-6.954-9.771s0.235-3.036,0.282-4.629
		c0.048-1.593-18.638-1.86-20.967-1.494C0.125,21.113-0.285,29.94,0.156,34.59s1.772,3.387,1.772,3.387s0.126,1.018-0.07,2.751
		c-0.196,1.733,0.901,3.795,2.787,3.706c1.887-0.09,9.557,0.284,9.557,0.284s4.17,5.92,5.272,7.838
		c1.103,1.916,9.449,13.614,9.449,13.614s-0.214,2.312-0.1,3.329s2.26,1.951,2.26,1.951s-3.492,0.477-3.926,0.464
		c-0.435-0.014-3.606,9.166-1.394,12.71c2.213,3.544,4.13,2.441,6.754,1.939c2.624-0.501,27.68-0.043,30.869-0.094
		c3.19-0.05,39.276-0.133,47.116-0.625c7.84-0.49,47.081,0.534,50.271,0.484c3.189-0.049,15.437,2.345,15.437,2.345
		S177.41,77.553,176.576,76.368z M2.939,33.623c-0.257-1.131,0.167-10.544,1.182-10.511c1.014,0.034,3.756,0.405,3.756,0.405
		c2.176-0.08,11.89-0.225,12.452,0.371c0.562,0.596,0.281,10.008-0.303,10.135c-0.583,0.127-9.126-0.126-11.004-0.328
		C7.145,33.494,3.196,34.754,2.939,33.623z M29.223,60.962c0,0-12.293-15.438-12.028-17.023c0.265-1.586-1.614-1.788-2.619-2.107
		c-1.004-0.319-9.441,0.722-9.852-0.082c-0.411-0.803-0.908-3.58,0.11-3.686l11.92-1.239l12.58,20.373L29.223,60.962z
		 M29.496,51.841c0,0-10.011-14.21-9.143-14.184c0.869,0.026,2.169,0.21,2.914-0.493c0.745-0.703,0.283-4.629,0.283-4.629
		l6.224,9.961L29.496,51.841z M135.353,5.725c1.132,0.903,0.458,13.781,0.411,15.374c-0.048,1.592-6.146,1.99-5.678,0.845
		c0.47-1.145,0.322-15.642-0.814-16.399C129.272,5.544,134.221,4.822,135.353,5.725z M120.589,9.979
		c0.143,0.092,5.804-0.206,6.081,0.181c0.277,0.387-0.571,14.274,0.842,15.475c1.414,1.201,8.563-0.411,9.725-0.478
		c1.161-0.067,1.907-0.77,1.964-2.651c0.056-1.882-0.513-11.986-0.513-11.986s12.317-0.011,14.044,0.418
		c1.726,0.429,15.071-0.043,15.616,1.133c0.546,1.176,0.316,28.267,0.28,34.353c-0.036,6.086,0.364,26.677,0.364,26.677
		s-17.854,0.992-21.051,1.294c-3.196,0.301-21.866-0.545-21.84-1.414c0.026-0.868-0.584-9.59-0.584-9.59s0.726,0.012,3.187,0.095
		c2.46,0.082,15.386-0.907,17.698-0.658c2.312,0.248,8.52,1.013,9.054-2.304s-1.736-4.979-1.736-4.979s1.364-1.988,1.573-4.156
		c0.209-2.167-2.701-6.602-3.308-10.533c-0.608-3.931-1.397-11.489-1.508-12.652c-0.11-1.163-17.243-0.079-18.27,0.325
		c-1.025,0.404-1.852-1.099-2.722,3.817c-0.871,4.916-4.613,13.79-4.613,13.79s-0.156-19.076-0.088-21.349
		c0.067-2.273-0.091-11.552-1.104-11.583c-1.013-0.031-3.185-0.095-3.185-0.095S120.448,9.887,120.589,9.979z M142.405,55.641
		c3.051,0.091,9.306-0.737,9.434-0.153c0.129,0.584,1.008,5.103,0.573,5.089c-0.435-0.012-23.64,0.601-24.18-0.72
		s-1.31-4.677-0.44-4.651C127.792,55.205,139.355,55.55,142.405,55.641z M132.671,49.698c0.39-1.146,0.158-3.001,1.24-3.049
		c1.238-0.055,8.519-0.369,9.211,0.274c0.692,0.645,1.854,2.996,0.799,3.11C142.869,50.148,132.282,50.846,132.671,49.698z
		 M146.419,52.572c0,0,1.296-6.736-1.773-7.208c-3.07-0.472-13.29-1.755-13.056-0.39c0.232,1.366-3.176,3.874-2.64,5.339
		c0.537,1.465,1.252,1.775,1.252,1.775s-3.79,0.757-3.329-0.099c0.459-0.855,6.515-19.225,6.408-20.532
		c0,0,13.955-1.469,13.898,0.415c-0.056,1.883,0.961,6.694,1.33,8.879c0.37,2.185,3.483,9.523,3.458,10.392
		C151.942,52.012,146.419,52.572,146.419,52.572z M109.896,12.213c-0.387-0.012-6.051,0.398-6.051,0.398s-0.799-2.342,0.078-2.606
		c0.878-0.264,5.581-0.847,6.033,0.18S110.283,12.224,109.896,12.213z M97.147,4.007c0.877-0.264,11.748-0.375,12.617-0.349
		c0.869,0.026-0.086,2.896-0.086,2.896s-8.131,0.481-8.303,1.419c-0.173,0.938-1.294,4.526-1.294,4.526l-3.186-0.095
		C96.896,12.404,96.269,4.271,97.147,4.007z M86.925,16.309c2.593,0.512,33.678-1.894,33.91-0.003
		c0.233,1.891,1.37,26.995,0.801,31.47c-0.567,4.476,0.561,22.88-0.639,23.602c-1.836,1.105-15.926,2.28-27.851,1.199
		c-11.924-1.08-24.104-0.864-24.09-1.299c0.013-0.434-1.702-25.532-1.864-29.823s0.475-25.285-0.676-25.754
		C66.516,15.701,84.332,15.797,86.925,16.309z M34.21,9.313c0.186-0.366,10.285,1.034,11.739,0.994
		c1.158-0.032,17.707-0.921,18.098,0.54c0.391,1.461-0.662,17.37-0.733,24.613s2.293,34.848,1.386,36.125
		c-0.907,1.276-27.841,0.619-30.26-0.902c-2.418-1.521-1.678-11.788-1.557-15.842c0.121-4.054,0.876-26.492,0.873-30.26
		C33.753,20.811,34.025,9.678,34.21,9.313z M142.951,82.611c-5.792,0.347-46.752-0.524-51.662,0.054
		c-4.909,0.579-41.566,0.356-44.747,0.116c-3.18-0.241-17.583,1.649-17.97,0.044c-0.387-1.606,0.086-7.822,1.109-8.082
		c1.022-0.261,5.388-0.855,5.388-0.855c2.013,0.495,30.655,2.219,32.248,2.266c1.593,0.048,33.771-0.153,35.656-0.241
		c1.823-0.085,18.784,0.146,20.993-0.46c-0.427-0.357,0.823-0.443,0.18-0.067c-0.04,0.023-0.103,0.046-0.18,0.067
		c0.356,0.298,1.884,0.786,6.675,1.358c10.525,1.256,39.412-0.405,40.134-0.282c0.722,0.124,2.713-0.836,2.834,6.997
		C173.625,84.54,151.043,82.128,142.951,82.611z"/>
	<path d="M76.154,61.637c0.454,4.216,5.267,3.2,8.198,2.128c2.931-1.073,6.354,0.77,7.273-0.942
		c0.92-1.711,0.265-33.178-0.113-35.073c-0.379-1.895-5.315-1.607-6.762-1.65c-1.448-0.043-8.559-0.751-8.959-0.85
		c-0.667-0.166-0.698,8.822-0.363,12.166C75.763,40.758,75.701,57.421,76.154,61.637z M79.162,28.831
		c1.304,0.036,9.125,0.127,9.087,1.431c-0.039,1.303-0.023,18.693,0.335,19.573c0.359,0.881,0.376,10.01,0.376,10.01
		s-3.189,0.051-5.374,0.42c-2.185,0.37-4.528,1.17-4.634-0.137c-0.105-1.309,0.242-17.818-0.132-19.858
		C78.447,38.229,77.571,28.787,79.162,28.831z"/>
	<path d="M96.548,62.969c0.859,0.316,10.444,4.484,12.214,4.277c2.981-0.35,1.059-21.706,0.707-24.531
		c-0.351-2.825,0.501-11.952,0.465-15.576c-0.037-3.624-3.099-2.99-4.275-2.446c-1.176,0.544-9.338,1.801-11.186,1.985
		c-1.341,0.134-0.587,23.459-0.184,29.413C94.692,62.043,95.687,62.653,96.548,62.969z M97.23,30.383
		c1.026-0.404,9.786-2.607,9.765-1.883c-0.021,0.725-0.487,16.361-0.553,18.533c-0.064,2.172-0.155,14.921-0.466,15.637
		s-7.335-1.813-8.298-3.58c-0.962-1.768-0.543-15.789-0.805-16.75C96.613,41.378,97.23,30.383,97.23,30.383z"/>
	<path d="M133.621,34.657c-2.012,4.288,2.104,2.381,1.735,1.21C134.989,34.697,134.01,33.827,133.621,34.657z"/>
	<path d="M138.844,34.472c-3.675,1.724,0.013,4.399,0.978,3.027C140.788,36.128,139.375,34.223,138.844,34.472z"/>
	<path d="M144.915,36.34c-0.063-1.409-0.619-2.438-1.582-1.76C139.485,37.288,144.977,37.749,144.915,36.34z"/>
	<path d="M134.123,39.599c-2.261,0.368-1.757,3.136-0.077,2.584C135.724,41.631,134.482,39.54,134.123,39.599z"/>
	<path d="M138.578,40.456c-1.399,0.248-2.137,1.675-0.059,1.947C140.597,42.673,139.976,40.208,138.578,40.456z"/>
	<path d="M143.333,39.872c-0.868,0.407-0.714,4.038,1.415,2.064S144.202,39.464,143.333,39.872z"/>
</g>
</svg>
