<?xml version="1.0" encoding="utf-8"?>
<!-- Generator: Adobe Illustrator 14.0.0, SVG Export Plug-In . SVG Version: 6.00 Build 43363)  -->
<!DOCTYPE svg PUBLIC "-//W3C//DTD SVG 1.1//EN" "http://www.w3.org/Graphics/SVG/1.1/DTD/svg11.dtd">
<svg version="1.1" id="レイヤー_1" xmlns="http://www.w3.org/2000/svg" xmlns:xlink="http://www.w3.org/1999/xlink" x="0px"
	 y="0px" width="70.462px" height="104.845px" viewBox="0 0 70.462 104.845" enable-background="new 0 0 70.462 104.845"
	 xml:space="preserve">
<path d="M69.546,96.369c-2.878-3.072-8.556-13.685-10.184-20.591s-1.651-13.55-1.651-13.55s2.24-0.91,3.049-0.847
	c0.81,0.063,1.938,1.236,1.251,3.08s-0.946,1.688-0.905,2.912c0.039,1.224,4.938-2.46,3.707-5.811
	c-1.229-3.351-6.228-1.843-6.228-1.843s3.077-6.402,3.31-9.366c0.231-2.964,0.824-3.596-2.617-4.68
	c-3.44-1.083-7.302,3.226-7.302,3.226s-1.863-2.179-2.981-3.487c-1.117-1.308-3.208-4.047-2.896-4.564
	c0.312-0.519,0.818-0.071,0.966-1.958s-1.44-1.063-1.44-1.063c0.571-2.531,3.818-17.189,5.099-21.427
	c1.281-4.238,2.679-3.044,2.443-5.231S43.712-0.026,43.021,0.479c-1.006,0.734-3.764,8.247-4.109,10.931
	c-0.346,2.685-6.171,18.226-6.171,18.226s-2.868-10.121-3.751-16.156c-0.884-6.035-0.212-12.896-1.662-13.416
	s-4.647,2.211-6.566,4.231c-2.068,2.174-5.974,4.47-5.709,5.382c0.845,2.918,4.171,12.528,4.832,14.478s1.537,13.271,1.878,14.11
	c0.342,0.84,1.916,1.506,1.916,1.506l-1.127,5.741c0,0,0.003-1.762-4.235-3.043c-4.238-1.28-5.775,1.04-7.106,4.189
	c-1.331,3.148,2.258,9.26,2.258,9.26s-0.838-1.421-3.245-0.118c-2.406,1.304-3.49,6.506-2.604,9.016
	c0.889,2.509,5.969,1.687,5.969,1.687s-1.023,6.156-3.044,12.912C8.523,86.17,0.391,91.364,0.021,96.08s4.087,4.93,10.161,5.269
	c6.074,0.34,8.538-5.161,8.53-6.788c-0.008-1.628-0.65-2.085-0.65-2.085s2.196-7.284,4.652-14.412s3.504-15.317,3.577-16.26
	c0.074-0.942,4.23-0.347,4.23-0.347s-0.776,6.446-1.161,7.907c-0.385,1.46,4.806,2.681,5.753-0.77
	c0.948-3.45-0.489-5.869-0.592-6.283c-0.104-0.415,1.98-1.064,1.98-1.064s-0.579,7.411,1.13,8.086
	c1.609,0.637,3.845,1.115,4.253-2.378c0.41-3.494-2.116-5.86-2.116-5.86s0.467-0.776,2.344-0.494c1.875,0.282,2.38,2.491,2.38,2.491
	s-1.854,6.362,0.924,7.257c1.332,0.43,1.77,0.288,1.867,0.026c0.802,3.051,3.989,15.289,5.452,22.509
	c1.693,8.355,3.946,10.206,9.656,11.737C68.102,106.152,72.424,99.44,69.546,96.369z M45.626,45.149
	c0.518,0.313,2.483,2.906,2.483,2.906s-5.507,2.822-6.097,1.691c-0.589-1.131-2.741-3.739-2.741-3.739s1.659-1.497,1.36-2.876
	c-0.298-1.379,0.325-2.414,0.325-2.414l1.752,0.137C42.709,40.854,45.108,44.838,45.626,45.149z M35.463,32.966
	c1.556-0.827,1.883-5.004,3.12-8.703c1.24-3.699,5.831-19.066,5.831-19.066s5.042,4.868,4.937,6.215
	c-0.105,1.348-2.951,6.348-4.621,14.009c-1.67,7.663-2.804,11.575-2.804,11.575c-0.964,0.195-2.964-0.231-2.964-0.231
	s-3.615-2.316-5.533-2.061C31.511,34.962,33.906,33.794,35.463,32.966z M31.978,44.082c-1.462-1.605-2.864-6.2,1.738-6.106
	c1.243,0.026,3.626,0.424,3.757,3.96C37.603,45.471,33.44,45.688,31.978,44.082z M9.893,61.74c-0.037-2.986,4.182-3.197,4.182-3.197
	l0.306,4.658C14.38,63.201,9.931,64.726,9.893,61.74z M12.312,98.397c-2.116,1.055-9.069-0.168-8.932-1.919
	c0.137-1.752,5.959-6.854,8.558-12.345c2.598-5.491,7.597-22.589,5.767-26.935c-1.829-4.345-5.083-12.699,1.114-10.758
	c1.833,0.574,4.813,7.29,3.991,16.31C21.987,71.77,14.428,97.343,12.312,98.397z M22.232,20.136
	c-0.887-4.271-3.036-9.728-3.036-9.728l5.925-4.688c0,0,0.816,10.368,1.01,13.094s3.685,11.812,3.685,11.812l1.542,2.832l1.4,0.651
	c0,0-2.624,1.345-3.862,3.087c-0.609,0.856-3.907-0.306-3.907-0.306S23.117,24.408,22.232,20.136z M24.692,49.341
	c0.487-1.046,1.753-6.827,2.014-8.408l1.481,0.115c0,0-0.681,3.497,1.267,4.599s4.108,1.542,4.108,1.542l-0.221,2.829
	C33.342,50.018,24.203,50.387,24.692,49.341z M31.929,68.074c-1.499-0.254,0.358-4.582,0.358-4.582S33.427,68.327,31.929,68.074z
	 M38.901,66.992c-1.308,1.118-0.958-4.007-0.958-4.007S40.208,65.874,38.901,66.992z M48.627,51.813
	c-0.632,0.238-2.196,1.036-2.692,3.257c-0.626,2.799,0.479,6.003,0.479,6.003s-1.52-2.019-3.629-2.454s-3.924,0.236-3.924,0.236
	s-2.095-0.979-3.618-0.555c-1.524,0.423-2.618,0.879-2.618,0.879s-1.156-0.497-3.473-0.678c-2.315-0.182-3.031,0.306-3.031,0.306
	s0.006-5.287-0.609-6.081c-0.616-0.794,8.11,0.296,8.951-0.045s2.086,0.045,2.273-0.966c0.187-1.012,0.301-3.849,0.301-3.849
	l1.124-0.861c0,0,0.429,4.914,2.521,5.892C42.507,53.749,47.405,52.218,48.627,51.813c0.164-0.063,0.281-0.096,0.281-0.096
	S48.806,51.754,48.627,51.813z M57.17,95.129c-1.167-11.071-8.491-30.083-8.062-33.845c0.431-3.763-0.878-4.407,0.521-6.67
	c1.398-2.264,6.96-5.76,8.607-6.038c0.943-0.158,1.366,1.599-1.564,7.877c-2.932,6.277-2.237,14.736,0.811,22.567
	c3.047,7.831,7.409,17.933,9.282,19.978C68.639,101.043,58.338,106.201,57.17,95.129z"/>
</svg>
