<?xml version="1.0" encoding="utf-8"?>
<!-- Generator: Adobe Illustrator 14.0.0, SVG Export Plug-In . SVG Version: 6.00 Build 43363)  -->
<!DOCTYPE svg PUBLIC "-//W3C//DTD SVG 1.1//EN" "http://www.w3.org/Graphics/SVG/1.1/DTD/svg11.dtd">
<svg version="1.1" id="レイヤー_1" xmlns="http://www.w3.org/2000/svg" xmlns:xlink="http://www.w3.org/1999/xlink" x="0px"
	 y="0px" width="146.238px" height="67.998px" viewBox="0 0 146.238 67.998" enable-background="new 0 0 146.238 67.998"
	 xml:space="preserve">
<g>
	<path d="M145.925,21.285c-1.636-5.451-7.222-4.088-7.222-4.088s0.408-3.679-1.227-4.224s-29.161-0.136-34.34,0.817
		c-5.178,0.954-38.563,0.545-38.563,0.545s0.272-2.453-2.316-3.543s-16.761-0.545-16.761-0.545s-0.136-0.954-0.409-2.044
		s-4.497-2.725-3.406-4.224s5.587-1.09,5.996,0.272s-2.316,2.916-2.316,2.916l2.861,0.899c0,0,2.862-1.226,2.998-3.542
		s-6.677-7.358-11.174-2.453s1.635,5.723,2.044,6.541s0,1.362,0,1.362s-14.308,1.363-15.262,1.227S26.42,1.391,24.24,1.663
		s-7.085,5.314-7.085,5.314s-3.543-6.541-6.405-5.859c-1.993,0.475-3.27,7.767-3.27,7.767s-3.407,0-5.178,0s-2.18,5.451-2.18,5.451
		s-0.273,12.536,0,15.398s4.769,1.227,5.451,1.908s0,24.665,0.272,26.844s13.899,8.039,13.763,7.358s-0.954-33.658-0.954-33.658
		l9.948,0.682c0,0-1.09,34.393,0.136,35.075s12.536-5.232,13.218-7.004s1.226-25.618,1.226-25.618l10.629-0.409c0,0,0,0,0.136,2.59
		c0.136,2.588,3.543,4.224,5.996,2.588c2.453-1.635,1.227-4.496,1.227-4.496s4.503,0.303,5.178,0
		c0.897-0.402,0.817-4.154,0.817-4.154s19.622-0.888,23.302-0.206s24.255-0.545,26.98-0.545s21.121-0.954,21.394-1.499
		s0.409-8.585,0.409-8.585s2.316-0.409,3.27-0.409c0.954,0,1.091,1.499,0.273,2.725c-0.818,1.226-2.453-0.817-2.726,0.409
		s2.181,2.726,2.181,2.726S147.561,26.736,145.925,21.285z M28.601,13.518c1.225-0.045,31.75-1.635,32.431,0s0.954,4.088,0,3.952
		s-32.704,0.556-32.431,0.005S27.507,13.558,28.601,13.518z M22.771,5.811c2.238-0.617,0.792,8.98,0.247,8.625s-5.454-0.1-5.454-0.1
		S20.532,6.427,22.771,5.811z M11.976,4.116c2.725-2.044,1.635,9.539,1.635,9.539h-2.726C10.886,13.654,9.251,6.16,11.976,4.116z
		 M3.937,11.338c0.817-0.954,3.815,0,3.815,0l0.681,2.316H3.937C3.937,13.654,3.119,12.292,3.937,11.338z M12.113,46.63
		c-0.409,1.908-0.818,12.264-0.818,12.264s-3.271-0.544-2.862-1.498s-0.409-25.481,0-26.163s6.813,0.707,6.813,0.707
		s0.682,11.421,0,11.012S12.522,44.723,12.113,46.63z M14.429,59.849c0.136-0.818-0.484-13.764,1.121-14.172v0.545l1.333,15.125
		C16.882,61.347,14.292,60.667,14.429,59.849z M34.324,64.208c0,0-2.469,1.908-2.87,0.818s0-16.602,0-16.602s2.461,0.249,2.87,0.795
		C34.732,49.765,34.324,64.208,34.324,64.208z M39.365,61.211c-0.409,0-2.725,1.09-2.725,1.09s0.307-15.126-0.8-15.534
		s-3.56-0.137-3.833-1.771s-0.272-9.402,0-10.084c0,0,6.949-0.816,7.358,0C39.774,35.73,39.774,61.211,39.365,61.211z M58.034,37.91
		c-2.181,0-1.227-2.998-1.227-2.998h2.453C59.26,34.912,60.215,37.91,58.034,37.91z M64.575,31.914
		c-1.499,0-32.977,0.273-32.84-0.954s-0.693-2.76,0-2.726c0,0,19.35,0.971,20.849,0.826s11.719-1.052,11.992,0.015
		S66.074,31.914,64.575,31.914z M136.25,26.463c0,0-7.494,1.226-7.903,0s-0.272-5.723-0.817-5.723s-2.726-0.024-2.453,0.806
		s0.137,5.462,0.137,5.462s-5.042,1.226-4.633,0c0.408-1.226-0.137-1.908-0.682-2.316s-2.181-0.273-1.908,0.409
		s-0.137,2.453-0.137,2.453h-5.859c0,0-0.135-2.725-0.681-2.725s-2.317-0.137-2.181,0.136s0,3.134,0,3.134h-5.041
		c0,0,0.137-3.271-0.409-3.407s-2.044-0.273-2.044,0.136s-0.137,3.271-0.137,3.271s-3.679,0.136-3.543,0
		c0.137-0.136,0.272-3.134-0.408-3.407c-0.682-0.272-2.59,0-2.59,0v3.467c0,0-4.088,0.469-3.543,0s-0.408-3.604-0.408-3.604
		s-2.453-0.545-2.316,0.272s-0.137,3.54-0.137,3.54h-3.543c0,0,0.137-4.221-0.682-4.221c-0.816,0-2.18,0.409-2.18,0.409v3.812
		c0,0-4.088,0.133-3.951,0c0.136-0.133,0-5.824-0.818-6.112c-0.817-0.289-2.18-0.153-2.18,0.665s0,5.506,0,5.506h-4.77
		c0,0,0-4.144-0.545-4.28s-1.908-0.545-1.908,0.272s-0.136,4.007-0.136,4.007s-1.363-2.1-2.044-2.645s-4.151-1.09-4.151-1.09
		s0.618-0.681,0-1.226s-1.163-0.409-1.844,0.136s-0.545,1.771-0.545,1.771l-2.725-0.136c0,0,0-3.375-0.409-2.982
		s-2.861-1.21-2.861,0s-0.136,3.254-0.136,3.254h-2.862c0,0-0.136-2.181-0.681-2.181s-2.862-0.818-2.862,0s0,2.453,0,2.453
		l-2.453,0.272c0,0,0.409-1.907-0.409-2.316s-2.18-0.681-2.316,0S41,26.191,41,26.191l-2.589-0.136c0,0,0-2.044-0.681-2.316
		s-2.044-0.272-2.317,0.136s-0.409,2.589-0.409,2.589h-3.543c0,0,0.272-2.862-0.545-3.134s-2.497-0.408-2.748,0.409s0,5.314,0,5.314
		h-2.567c0,0-0.272-6.7-0.954-6.484s-2.453-0.761-2.589,0s0,6.484,0,6.484S3.892,29.188,3.573,28.371s-1.181-10.765,0-11.446
		s7.313,0.766,7.313,0.766c1.635,0.052,14.581,0.597,14.581,0.597s-0.272,2.589,0.954,2.453s37.746-0.409,38.427-0.545
		s-0.273-1.771,0.681-1.908s29.841-0.921,33.93-0.597s36.384-1.856,36.792-1.583S136.25,26.463,136.25,26.463z"/>
</g>
</svg>
