<?xml version="1.0" encoding="utf-8"?>
<!-- Generator: Adobe Illustrator 14.0.0, SVG Export Plug-In . SVG Version: 6.00 Build 43363)  -->
<!DOCTYPE svg PUBLIC "-//W3C//DTD SVG 1.1//EN" "http://www.w3.org/Graphics/SVG/1.1/DTD/svg11.dtd">
<svg version="1.1" id="レイヤー_1" xmlns="http://www.w3.org/2000/svg" xmlns:xlink="http://www.w3.org/1999/xlink" x="0px"
	 y="0px" width="139.722px" height="79.64px" viewBox="0 0 139.722 79.64" enable-background="new 0 0 139.722 79.64"
	 xml:space="preserve">
<g>
	<path d="M139.282,38.267c-3.012-19.484-13.361-21.795-14.867-22.096c-1.508-0.301-35.555,0-38.568,0s-6.527,0-6.527,0
		s-4.619-2.411-6.428-3.013c-1.809-0.603-4.721-2.712-4.721-2.712s2.512-2.008,2.411-3.415S69.576-0.013,64.053,0
		c-6.636,0.015-7.332,4.821-7.332,4.821S34.625,6.528,32.717,6.528s-1.406,0.904-1.708,1.206s-5.592-0.442-6.327,0
		c-1.002,0.602-0.806,9.843-0.906,11.651c0,0-4.62-2.009-8.638,2.41c-2.297,2.527-3.413,7.333-3.413,7.333S1.48,29.028,0.866,29.028
		s-1.596,7.935,0,8.437s11.662,0.603,11.662,0.603s-0.101,1.607,0.401,3.917c0.502,2.31,2.913,4.117,2.913,4.117
		s0.401,5.524,0.2,5.926C15.842,52.43,6,54.338,3.288,55.242c-2.712,0.903-2.009,6.227-2.41,8.235s9.239,3.013,10.746,3.716
		s12.655,2.912,12.655,2.912s-0.401,5.424,0,6.429s11.449,2.712,12.454,3.013s57.453-0.202,57.453-0.504
		c0-0.301,0.402-10.445,0.1-10.947c-0.301-0.502-7.432-4.218-8.336-4.117c-0.904,0.1-2.813-0.302-2.912-0.703
		c-0.1-0.402-0.402-1.708-0.402-1.708s14.162-0.302,18.18-0.603c4.016-0.301,28.021-0.603,28.021-0.603
		S142.295,57.751,139.282,38.267z M60.233,5.123c1.205-2.913,3.716-2.109,3.716-2.109c1.206,0.201,3.363,1.472,3.415,3.816
		c0.035,1.607-0.703,3.31-4.721,2.511C60.635,8.941,59.092,7.882,60.233,5.123z M56.618,7.936c0,0,1.305,3.615,3.615,4.017
		s6.327,0.402,6.327,0.402l5.926,2.712c0,0-6.328-0.1-11.048-0.603s-10.646,0.301-11.951,0S36.933,9.04,36.933,9.04L56.618,7.936z
		 M8.408,35.555c0,0-5.021,0-5.122-0.502s-0.602-2.84,0.402-3.027s4.72,0.114,4.72,0.114c0.904,0.1,9.441-0.301,9.943,0
		s1.708,1.004,0.402,2.611S8.408,35.555,8.408,35.555z M19.858,29.429c0,0,1.708-2.611,4.118,1.105s-0.355,7.733-2.287,8.235
		s-3.036-1.506-3.036-1.506s2.244,0.101,3.131-1.506S23.273,30.534,19.858,29.429z M15.439,38.368c0,0,1.506,3.214,5.021,3.314
		c3.516,0.101,7.771-4.854,6.127-11.148c-1.206-4.62-5.13-4.745-6.127-4.62c-2.41,0.301-3.517,2.51-3.616,3.415s-1.908,0-1.908,0
		s-0.028-5.022,4.405-6.83s9.656,2.838,9.054,11.362s-2.37,10.28-7.834,10.934C15.098,45.451,15.439,38.368,15.439,38.368z
		 M28.897,22.7c0,0,4.119-0.904,6.228,0.803s3.615,7.031,3.113,12.253s-3.218,7.232-4.622,8.135s-6.627,0.946-6.627,0.946
		s4.721-4.261,4.52-12.095S28.897,22.7,28.897,22.7z M34.521,46.604c2.611-1.307,6.329-5.97,6.429-13.129
		s-3.305-12.181-5.921-13.386s-8.04-0.603-8.04-0.603v-5.524c0,0,7.029,2.411,8.838,3.013s9.743,1.808,9.643,2.812
		s-0.905,34.349-1.708,35.755s-18.106-3.214-18.846-3.917s0-3.214,0-3.214S31.91,47.908,34.521,46.604z M10.719,65.686
		c-0.703,0.201-6.629-1.205-6.629-1.908s0-4.949,0-4.949s4.42,2.94,5.524,2.84c1.104-0.1,1.104-0.1,1.104-0.1
		S11.422,65.485,10.719,65.686z M24.916,68.01c0,0-11.687-1.883-11.687-2.305c0-0.421,0.603-4.639,0.603-4.639
		s11.65-2.467,12.454-2.238s8.336,2.037,8.336,2.037l-8.938,1.908L24.916,68.01z M36.33,76.031c0,0-8.839-1.406-8.839-1.908
		s-0.437-6.297,0.402-6.113c0,0,7.733,1.693,8.336,1.693S36.33,76.031,36.33,76.031z M90.967,77.035
		c-0.502,0.301-25.31,0.102-28.524,0.201c-3.214,0.102-22.398,0-22.699-0.401s-0.698-6.845,0-6.83c0,0,22.913,0.502,23.86,0.502
		s26.759-0.401,27.363-0.502C91.569,69.904,91.469,76.734,90.967,77.035z M84.94,65.686c0.504,0,3.918,1.307,4.32,1.908
		c0.4,0.604-31.838,0.502-36.057,0s-13.566,0.302-14.868-0.301s-11.049-2.009-9.892-2.611s10.899-1.005,11.603-2.712
		s-1.105-1.708-2.21-2.21s-11.417-2.094-12.253-2.31c-2.712-0.702-5.825,0.603-7.935,0.704c-2.109,0.1-7.132,1.807-7.332,1.104
		s-5.022-1.808-4.52-2.711c0.503-0.904,10.445-1.507,11.148-2.21s0.603-7.231,0.603-7.231s2.458,1.205,4.142,0.904
		c1.684-0.302-2.215,5.322,2.898,6.629c5.113,1.305,19.476,4.82,19.978,4.82s2.979-2.785,2.946-3.652s0.469-23.164,0.569-25.072
		s0.101-9.542,0.603-10.245s14.563-0.473,15.065,1.622s-0.001,36.846,0.803,37.247s3.113-1.907,3.314-4.017
		s-0.804-30.031-0.603-30.834s0.401-5.624-3.214-5.825S48.751,18.08,47.512,18.08s-19.618-6.83-20.522-7.533
		c-0.951-0.74,4.117-0.301,5.122,0s15.97,5.725,16.572,5.725s29.629,1.607,30.231,3.114c0.604,1.506,0.805,44.091,0.502,44.694
		c-0.301,0.603-17.074-0.302-18.581,0s-15.366-0.581-14.965,0.212s3.517,1.094,4.922,1.395
		C52.198,65.987,84.438,65.686,84.94,65.686z M83.032,58.656c-0.301-1.105,0-5.324,0-5.324s7.363-1.72,6.73-14.257
		c-0.498-9.847-6.863-10.537-6.863-10.537l0.133-7.545c0,0,10.256,3.113,10.246,19.735C93.268,55.748,83.333,59.761,83.032,58.656z
		 M83.032,50.721V30.734c0.805,0.201,4.922,4.821,3.918,12.454C85.946,50.822,83.032,50.721,83.032,50.721z M127.727,58.254h0.301
		c-2.209,0.201-38.764,0.574-38.764,0.574s2.707-3.588,3.008-4.291c0.303-0.703,17.678,0,17.678,0s2.813-2.109,0.1-2.912
		c-2.711-0.803-16.371,0-16.371,0s1.307-2.511,1.307-2.912c0-0.402,13.961-0.301,15.668-0.502s1.809-3.014-0.402-2.914
		c-2.209,0.102-14.262-0.002-14.262-0.002l0.301-4.567c0,0,13.258,0.553,14.363,0.553c1.104,0,3.213-2.209-0.102-3.113
		s-14.16,0-14.16,0s0.301-4.062-0.303-4.692c-0.602-0.631,12.385-0.43,13.174-0.43c0.787,0,2.125-1.708,0-2.31
		s-14.277-0.502-14.277-0.502s-1.406-3.014-1.707-3.516c-0.303-0.502,16.17,0.401,16.672,0s2.811-2.21-0.201-2.611
		c-3.014-0.401-18.18-0.703-18.18-0.703s-2.098-2.31-4.463-3.113s-4.676-1.205-4.676-1.205V18.08c0,0,39.873,0.101,41.48,0.703
		c1.605,0.603,11.064,3.641,12.152,24.206C136.686,54.783,128.028,58.254,127.727,58.254z"/>
</g>
</svg>
