<?xml version="1.0" encoding="utf-8"?>
<!-- Generator: Adobe Illustrator 14.0.0, SVG Export Plug-In . SVG Version: 6.00 Build 43363)  -->
<!DOCTYPE svg PUBLIC "-//W3C//DTD SVG 1.1//EN" "http://www.w3.org/Graphics/SVG/1.1/DTD/svg11.dtd">
<svg version="1.1" id="レイヤー_1" xmlns="http://www.w3.org/2000/svg" xmlns:xlink="http://www.w3.org/1999/xlink" x="0px"
	 y="0px" width="84.918px" height="46.484px" viewBox="0 0 84.918 46.484" enable-background="new 0 0 84.918 46.484"
	 xml:space="preserve">
<path d="M50.503,19.749c5.005-2.78,11.944-6.231,15.32-6.881c3.376-0.648,12.723,0.52,13.762-0.129
	c1.039-0.649,7.141-2.467,4.804-7.141C80.953-1.273,68.03-0.634,62.188,1.313S46.608,11.18,43.882,12.089s-5.063,0.649-5.063,0.649
	s-0.648-3.945-6.231-3.766c-4.188,0.135-2.727,3.766-3.376,3.838s-17.137,0.188-19.344,0.057c-2.207-0.129-3.766,0-4.154,0
	S0,22.995,0,22.995s2.077,1.688,2.467,1.818c0.39,0.129,1.298-0.779,3.765-0.779s13.632,0.26,13.632,0.26s-4.674,1.558-6.881,1.947
	C10.775,26.629,2.856,26.37,1.947,27.02c-0.909,0.648,2.207,8.828,5.583,9.217c3.376,0.391,12.982-0.779,15.06-0.779
	s10.776-0.908,10.776-0.908s0.389,4.284,5.192,3.506c2.958-0.48,4.674-4.414,4.674-4.414s2.337,0.908,3.896,0.908
	c0.662,0,11.212,4.682,14.8,7.4c5.063,3.838,18.825,7.92,20.643,0c1.737-7.572-15.579-10.906-18.695-11.295
	c-3.116-0.391-11.425-4.545-16.877-5.973s-6.621,0.39-7.53-0.52c-0.909-0.908-1.42-0.774-1.039-1.168
	c0.959-0.991,0.13-2.207,0.13-2.207S43.492,23.644,50.503,19.749z M34.145,15.984c0.39,0.778,0,5.987,0,5.987
	s-0.778-3.025-1.817-3.986c-1.039-0.963-3.246-2.65-3.246-2.65S33.755,15.206,34.145,15.984z M22.85,20.398
	c0.909-3.069,3.766-2.337,3.766-2.337c1.688-0.26,3.635,2.313,3.635,5.182c0,2.867-3.245,2.868-4.284,2.608
	S21.365,25.41,22.85,20.398z M19.475,19.035c-0.779,2.272-0.779,2.272-0.779,2.272s-13.242,0.52-13.892,0.779
	c0,0,2.598-5.064,3.246-5.324c0.648-0.259,13.502-0.778,13.502-0.778S20.254,16.762,19.475,19.035z M34.317,30.655
	c-1.081,0.52-23.541,3.115-24.71,2.596c-1.169-0.519-3.376-3.635-3.376-3.635s5.584-0.191,8.699-0.81s7.563-1.657,7.563-1.657
	s1.266,1.818,5.42,1.688c4.154-0.129,5.712-4.543,5.712-4.543s1.948,1.824,1.948,2.275S35.398,30.135,34.317,30.655z M32.717,12.348
	c0,0-0.321-1.002,1.601-1.038c1.256-0.024,1.904,1.688,1.904,1.688S33.496,12.479,32.717,12.348z M39.208,27.798
	c0,0,3.376-1.298,7.66,0s12.029,4.642,14.54,5.521c6.103,2.139,16.878,2.918,17.138,7.072s-10.348,2.552-12.723,0.779
	c-3.92-2.926-10.934-6.908-13.892-7.852c-2.173-0.691-10.387-3.832-12.724-2.924V27.798z M40.247,32.862
	c0.778,0.52-1.168,2.824-2.337,2.256s0-2.256,0-2.256S39.469,32.342,40.247,32.862z M37.91,17.153v-1.169c0,0,3.635,0.909,6.231,0
	S59.979,5.7,63.875,4.559C69.198,3,79.325,2.482,81.272,7.156S71.145,8.973,68.549,9.233s-11.554,1.947-14.8,3.766
	c-3.246,1.816-5.063,5.589-9.218,5.65S37.91,17.153,37.91,17.153z"/>
</svg>
