<?xml version="1.0" encoding="utf-8"?>
<!-- Generator: Adobe Illustrator 14.0.0, SVG Export Plug-In . SVG Version: 6.00 Build 43363)  -->
<!DOCTYPE svg PUBLIC "-//W3C//DTD SVG 1.1//EN" "http://www.w3.org/Graphics/SVG/1.1/DTD/svg11.dtd">
<svg version="1.1" id="レイヤー_1" xmlns="http://www.w3.org/2000/svg" xmlns:xlink="http://www.w3.org/1999/xlink" x="0px"
	 y="0px" width="93.042px" height="103.906px" viewBox="0 0 93.042 103.906" enable-background="new 0 0 93.042 103.906"
	 xml:space="preserve">
<g>
	<g>
		<path d="M91.464,58.369c-1.502-2.575-15.236-6.438-15.236-6.438s-0.858-10.301-1.502-11.803s-2.146-25.966-3.648-29.185
			s-21.674-2.79-21.674-2.79S48.975,0,40.82,0S30.09,6.438,30.09,6.438c-2.146-0.858-12.661,5.58-13.948,5.58
			s-2.79,23.176-2.79,23.176S9.49,34.55,7.773,34.55s-1.287,4.291-0.429,7.511s6.866,0.429,6.223,1.072s-1.073,13.091-1.073,13.091
			S1.55,66.738,0.477,67.812s0,18.669,0,20.601s9.871,4.292,18.025,5.579s31.331,9.228,32.403,9.871s15.88-6.008,18.885-6.866
			s19.527-7.297,20.815-9.442s1.502-16.309,2.146-19.742S92.966,60.944,91.464,58.369z M72.58,42.704c1.932,4.506,0,17.597,0,17.597
			l-11.588,4.936c0,0-1.716-10.515-1.287-11.588s2.575-4.937,1.717-9.657s-1.785-6.009-1.785-6.009s-0.457-17.934,1.355-19.099
			c0,0,6.652-4.292,7.511-4.721S70.648,38.198,72.58,42.704z M37.387,4.077c4.506-1.287,9.134,0.848,9.134,6.009
			c0,2.237-3.554,0-3.34-1.502S42.51,5.381,39.8,6.224c-1.25,0.389-3.487-0.063-3.916,1.148s-1.154,4.805-1.931,2.714
			C33.351,8.464,32.881,5.364,37.387,4.077z M30.35,6.542c-0.053-0.021-0.11-0.045-0.172-0.069
			C30.223,6.491,30.285,6.516,30.35,6.542z M31.012,6.807C31.045,6.819,31.048,6.821,31.012,6.807L31.012,6.807z M30.747,6.7
			c-0.059-0.023-0.131-0.053-0.211-0.085C30.608,6.645,30.679,6.673,30.747,6.7z M19.576,13.885
			c1.502-2.082,10.301-4.872,10.301-4.872s-1.187,4.507,3.698,5.15s2.943-5.058,6.473-5.15c1.631-0.043-2.231,1.917,5.279,3.855
			s4.507-1.836,4.507-1.836s15.235-0.088,16.094,1.629c0,0-5.579,3.862-8.047,4.077S18.074,15.967,19.576,13.885z M57.201,67.382
			c0,0-3.506,0.858-3.935,0s-0.989-10.944-0.989-10.944s4.179-0.347,4.837-1.191c0.02-0.325,0.048-0.457,0.087-0.311
			c0.029,0.11-0.012,0.213-0.087,0.311C56.988,57.303,57.201,67.382,57.201,67.382z M21.721,46.781h11.854
			c0,0-0.266,3.048,1.666,5.172s4.807,3.197,4.807,3.197s-2.017-0.644-2.017,1.073s-0.143,14.806-1.145,15.235
			s-16.023,0.43-16.023-1.287S20.004,46.781,21.721,46.781z M20.505,44.206c-2.432,2.146-2.432,15.45-2.432,15.45h-2.36
			c0,0-1.124-15.956,0.858-16.309c0,0,6.009-1.072,7.296-1.287s0,1.287,0,1.287S21.542,43.292,20.505,44.206z M27.515,35.622h2.575
			c0,0,0.858,7.726,0,7.726s-2.575,0-2.575,0S26.227,35.622,27.515,35.622z M36.886,48.927c-2.098-3.443-0.258-7.033,2.216-8.854
			s5.581-1.875,5.581-1.875s6.438,1.121,7.511,7.32S43.719,60.142,36.886,48.927z M50.301,56.438v12.554c0,0-3.859,0.967-4.31-1.18
			s-1.362-10.086-1.362-10.086s4.113,0.43,4.229,0S50.301,56.438,50.301,56.438z M40.047,57.511h2.682v10.253l-2.682,1.228V57.511z
			 M41.388,71.698c0,0,13.598-1.478,14.025,0s0,2.766,0,2.766s-13.887,0.43-14.025,0S40.208,71.817,41.388,71.698z M54.983,51.953
			c0,0,1.241-2.908,0.431-7.532s-3.22-5.34-3.22-5.34s4.831,0.659,6.009,4.267C60.127,49.245,54.983,51.953,54.983,51.953z
			 M17.644,24.464c-0.215-3.219,0.858-7.696,0.858-7.696s10.301,1.688,16.953,2.331s20.815,0.43,21.459,2.146s0,15.88,0,15.88
			s-3.219-1.718-9.228-2.146s-10.516,0.644-12.661,3.434s-1.451,4.936-1.451,4.936h-1.124c0,0,1.39-7.297,1.124-8.584
			s-6.918-3.218-7.562-1.931s-1.287,3.647-1.287,3.647l-8.154-1.287C16.572,35.193,17.859,27.683,17.644,24.464z M9.703,40.987
			c-2.147,0.215,0.217-3.648,0.002-3.862s15.235,2.359,15.235,2.359C23.867,41.844,11.85,40.772,9.703,40.987z M48.859,99.142
			c0,0-22.591-6.438-28.941-9.013S6.055,88.514,4.125,85.995S3.148,72.849,3.148,72.849s20.861,6.551,23.795,7.194
			s23.358,6.867,23.358,6.867L48.859,99.142z M49.189,83.047c-2.575,0-42.274-12.876-45.493-14.056s8.798-9.335,8.798-9.335
			s-0.644,3.22,1.073,4.078s3.301,0,3.301,0s-0.727,6.7,1.42,7.964s20.172,2.121,20.172,2.121s-0.473,4.293,1.588,4.937
			s18.584-1.717,18.584-1.717v-5.341c0,0,2.146-0.771,2.146-2.437s12.661-5.527,12.661-5.527s2.146,1.072,3.219-0.43
			s0-8.369,0-8.369s12.232,3.862,12.876,5.794S72.365,71.245,68.288,73.391S51.764,83.047,49.189,83.047z M88.674,84.979
			c-0.215,0.644-35.193,14.163-35.193,14.163V84.979c0.215-1.287,36.068-18.67,36.068-18.67S88.889,84.335,88.674,84.979z"/>
		<path d="M46.521,43.348c-1.61-0.853-3.792,6.832-3.792,6.832S49.609,44.983,46.521,43.348z"/>
		<path d="M44.805,39.081c-3.017-0.332-0.669,2.958-0.669,2.958S47.822,39.413,44.805,39.081z"/>
		<path d="M48.549,42.039c-3.1-0.797,1.142,2.382,1.142,2.382S51.649,42.836,48.549,42.039z"/>
	</g>
	<ellipse cx="40.187" cy="43.36" rx="1.085" ry="1.061"/>
	<ellipse cx="38.76" cy="47.695" rx="1.142" ry="1.057"/>
	<ellipse cx="42.155" cy="51.863" rx="1.111" ry="1"/>
	<ellipse cx="47" cy="52.376" rx="1.008" ry="1.111"/>
	<ellipse cx="50.323" cy="48.033" rx="0.999" ry="1.108"/>
</g>
</svg>
