<?xml version="1.0" encoding="utf-8"?>
<!-- Generator: Adobe Illustrator 14.0.0, SVG Export Plug-In . SVG Version: 6.00 Build 43363)  -->
<!DOCTYPE svg PUBLIC "-//W3C//DTD SVG 1.1//EN" "http://www.w3.org/Graphics/SVG/1.1/DTD/svg11.dtd">
<svg version="1.1" id="レイヤー_1" xmlns="http://www.w3.org/2000/svg" xmlns:xlink="http://www.w3.org/1999/xlink" x="0px"
	 y="0px" width="83.125px" height="71.102px" viewBox="0 0 83.125 71.102" enable-background="new 0 0 83.125 71.102"
	 xml:space="preserve">
<g>
	<g>
		<polygon points="37.995,71.102 0,60.424 0,47.598 37.995,57.274 		"/>
		<polygon points="39.723,57.083 39.723,71.102 83.125,59.387 83.125,45.368 		"/>
		<polygon points="2.016,46.971 38.73,55.864 81.78,44.708 42.577,38.305 		"/>
	</g>
	<polygon fill="#FFFFFF" points="20.1,38.578 20.1,43.541 50.995,51.354 67.795,46.559 67.795,38.578 41.425,33.457 	"/>
	<g>
		<polygon points="51.516,49.98 21.573,42.665 21.573,7.275 51.516,10.724 		"/>
		<polygon points="53.223,10.192 53.223,49.12 67.088,45.368 67.088,7.13 		"/>
		<polygon points="23.591,6.099 52.599,9.266 64.968,6.527 40.526,4.476 		"/>
		<polygon points="46.066,53.074 41.585,52.074 41.585,37.213 46.066,37.213 		"/>
		<path fill="#FFFFFF" d="M47.591,37.744v14.237l-1.025,0.592V36.714h-5.481v15.761l5.481,1.223h0.077l1.948-1.109V37.744H47.591z
			 M45.566,52.45l-3.481-0.777V37.713h3.481V52.45z"/>
	</g>
	<polygon fill="#FFFFFF" points="11.593,40.935 11.635,47.709 26.873,51.104 34.739,48.533 33.778,24.979 21.275,23.323 
		11.674,25.391 	"/>
	<polygon points="25.932,50.202 12.46,47.27 12.46,25.821 25.932,27.472 	"/>
	<polygon points="27.2,27.482 27.2,49.967 33.708,47.778 33.246,25.37 	"/>
	<polygon points="14.19,25.431 26.57,26.747 31.292,25.274 21.055,23.859 	"/>
	<rect x="46.571" y="48" width="1.016" height="3.291"/>
	<g>
		<g>
			<g>
				<g>
					<g>
						<path fill="#FFFFFF" d="M46.782,22.029H42.66c0,0-7.507-0.38-7.507,8.424c0,8.333,7.828,8.124,7.828,8.124l4.123-0.148
							c3.309,0,5.859-3.459,5.859-8.194C52.963,25.498,50.091,22.029,46.782,22.029z"/>
					</g>
					<g>
						<path d="M46.629,22.979l-3.648-0.146c3.035,0,5.363,3.408,5.363,7.432c0,4.024-2.238,7.479-5.273,7.479l3.558-0.194
							c3.034,0,5.494-3.261,5.494-7.285C52.124,26.241,49.664,22.979,46.629,22.979z"/>
					</g>
					<ellipse cx="41.424" cy="30.264" rx="5.494" ry="7.285"/>
				</g>
			</g>
		</g>
		<circle fill="#FFFFFF" cx="41.241" cy="25.27" r="0.715"/>
		<circle fill="#FFFFFF" cx="41.425" cy="35.603" r="0.715"/>
		<circle fill="#FFFFFF" cx="37.333" cy="30.633" r="0.715"/>
		<circle fill="#FFFFFF" cx="45.342" cy="30.302" r="0.715"/>
		<circle fill="#FFFFFF" cx="44.058" cy="27.27" r="0.716"/>
		<circle fill="#FFFFFF" cx="44.058" cy="34.172" r="0.716"/>
		<circle fill="#FFFFFF" cx="38.764" cy="33.803" r="0.716"/>
		<circle fill="#FFFFFF" cx="38.049" cy="27.27" r="0.715"/>
		<path fill="#FFFFFF" d="M39.056,27.999l2.046,3.568c0,0,0.549,0.613,1.003,0.136c0.454-0.479-0.01-0.892-0.01-0.892L39.056,27.999
			z"/>
	</g>
	<polygon fill="#FFFFFF" points="44.301,0 39.415,0.517 39.415,6.453 45.331,7.275 49.188,6.032 49.089,0.434 	"/>
	<polygon points="44.661,6.547 39.863,5.953 39.863,0.74 44.661,1.334 	"/>
	<polygon points="45.534,1.375 45.636,6.64 48.678,5.562 48.527,0.74 	"/>
	<polygon points="40.831,0.572 45.002,1.016 47.923,0.539 44.301,0.078 	"/>
	<path stroke="#FFFFFF" d="M21.321,20.269c-0.897,0.034-8.259-1.243-8.259-1.243v5.528l8.213-1.231L21.321,20.269z"/>
	<polygon points="13.67,18.728 20.105,19.827 20.1,19.34 16.78,18.413 	"/>
	<polygon fill="#FFFFFF" points="23.591,16.573 20.105,17.3 20.105,25.649 24.237,25.985 27.078,25.057 27.007,17.184 	"/>
	<polygon points="23.848,25.555 20.424,25.27 20.424,17.613 23.848,18.093 	"/>
	<polygon points="24.543,18.115 24.543,25.37 26.719,24.726 26.606,17.613 	"/>
	<polygon points="21.321,17.376 24.196,17.77 26.175,17.331 23.634,16.986 	"/>
</g>
</svg>
