<?xml version="1.0" encoding="utf-8"?>
<!-- Generator: Adobe Illustrator 14.0.0, SVG Export Plug-In . SVG Version: 6.00 Build 43363)  -->
<!DOCTYPE svg PUBLIC "-//W3C//DTD SVG 1.1//EN" "http://www.w3.org/Graphics/SVG/1.1/DTD/svg11.dtd">
<svg version="1.1" id="レイヤー_1" xmlns="http://www.w3.org/2000/svg" xmlns:xlink="http://www.w3.org/1999/xlink" x="0px"
	 y="0px" width="93.604px" height="73.806px" viewBox="0 0 93.604 73.806" enable-background="new 0 0 93.604 73.806"
	 xml:space="preserve">
<path d="M93.603,4.498c0.083-3.891-5.503-4.875-8.621-4.379c-3.117,0.497-6.729,7.415-7.722,10.751
	c-0.992,3.335-11.538,33.305-11.538,33.305l-4.151-0.232c0,0,3.185-1.702,4.645-3.771c1.458-2.067,2.85-17.302,3.111-19.572
	c0.262-2.269,1.795-3.257,2.673-4.552c0.878-1.295,1.289-3.823-0.519-5.134c-1.807-1.311-34.466-0.991-36.208-1.089
	c0,0-30.19-0.616-33.456,0.14c-3.266,0.758-1.334,4.628-0.315,5.625s8.283,10.404,8.372,11.215
	c0.089,0.811,5.158,11.036,5.715,13.083c0.558,2.045,2.379,3.086,2.379,3.086S7.27,42.107,4.063,41.793
	c-3.206-0.313-3.743,2.075-3.387,5.318c0.355,3.244-0.764,8.824,1.208,9.604c1.971,0.782,7.358,0.547,7.358,0.547l0.728,1.386
	c0,0-2.329,0.809-3.811,3.278c-1.481,2.468-1.194,9.336,5.084,9.956c6.279,0.621,13.518-1.525,13.647-6.22
	c0.129-4.695-4.981-6.996-4.981-6.996l0.596-1.041c0,0,20.146,0.054,21.098-0.161c0.953-0.214,15.712,0.074,15.712,0.074
	l1.599,2.644c0,0-4.025-0.093-5.344,4.267c-1.875,6.196,1.127,8.66,5.403,9.034c4.278,0.374,9.991,1.501,12.36-4.814
	c2.369-6.316-2.51-7.932-2.51-7.932l-2.151,0.013c0,0,1.161,0.871,1.783,4.131c0.624,3.259-2.032,5.124-3.268,5.593
	c-1.236,0.468-8.445,2.079-8.325-2.482c0.122-4.56,2.86-5.481,2.86-5.481s1.213,2.353,2.85,1.906
	c1.637-0.445,4.949-6.842,4.949-6.842s5.126-0.385,5.716-1.292c0.588-0.907,0.949-9.753,0.949-9.753s2.111,0.656,3.392-0.617
	c1.28-1.271,0.612-3.725,0.763-6.404c0.15-2.677,2.451-7.787,4.805-13.834C85.501,19.625,93.519,8.389,93.603,4.498z M10.345,20.788
	c-1.375-1.824-7.547-5.995-6.238-8.544c1.31-2.55,25.212,0.741,30.763-0.023c0,0,13.281,0.341,15.706,0.209
	c2.426-0.132,18.465-1.115,18.978,1.735c0.513,2.851-1.161-0.871-3.001,5.608c-1.84,6.479-1.93,22.461-7.749,23.208
	c-5.817,0.748-29.714,0.484-32.622-0.351c-2.908-0.834-6.107-1.282-6.634-3.863C19.02,36.184,11.721,22.611,10.345,20.788z
	 M20.992,65.714c-0.827,2.773-4.375,3.784-7.85,3.454c-3.474-0.328-5.913-2.346-4.23-6.013c1.683-3.667,2.099-1.494,2.099-1.494
	s1.441,3.045,3.324,3.012s4.941-4.294,4.941-4.294S21.819,62.938,20.992,65.714z M13.006,57.206l3.481,0.195
	c0,0-0.834,2.908-1.928,3.25C13.465,60.993,13.006,57.206,13.006,57.206z M62.5,60.919c-0.914-0.454-0.158-1.978-1.699-3.228
	l3.75,0.209C64.55,57.9,63.415,61.373,62.5,60.919z M70.002,54.086c-0.574,0.64-25.839,0.837-28.799,0.939
	c-2.961,0.102-24.052,0.13-26.321-0.132S4.004,54.842,4.035,54.296c0.03-0.546-1.298-8.009-0.182-8.753
	c1.117-0.743,24.937,0.86,29.2,1.502c4.263,0.643,38.01-1.224,37.942,1.32C70.961,49.638,70.577,53.447,70.002,54.086z
	 M75.636,37.439c-0.212,6.205-1.673,8.284-3.269,7.987c-1.595-0.299-3.007-1.451-3.007-1.451s5.861-15.926,6.994-19.354
	c1.133-3.43,7.368-21.214,9.415-21.771c2.046-0.557,4.448-0.288,4.336,1.721c-0.113,2.008-6.621,12.659-8.669,18.051
	C79.389,28.016,75.906,29.586,75.636,37.439z"/>
</svg>
