<?xml version="1.0" encoding="utf-8"?>
<!-- Generator: Adobe Illustrator 14.0.0, SVG Export Plug-In . SVG Version: 6.00 Build 43363)  -->
<!DOCTYPE svg PUBLIC "-//W3C//DTD SVG 1.1//EN" "http://www.w3.org/Graphics/SVG/1.1/DTD/svg11.dtd">
<svg version="1.1" id="レイヤー_1" xmlns="http://www.w3.org/2000/svg" xmlns:xlink="http://www.w3.org/1999/xlink" x="0px"
	 y="0px" width="103.497px" height="48.652px" viewBox="0 0 103.497 48.652" enable-background="new 0 0 103.497 48.652"
	 xml:space="preserve">
<g>
	<g>
		<polygon points="13.248,28.734 13.248,4.915 4.139,4.915 4.139,43.043 7.938,45.25 7.938,28.734 		"/>
		<polygon points="9.45,46.128 13.248,48.334 13.248,30.246 9.45,30.246 		"/>
	</g>
	<g>
		<polygon points="23.917,30.246 23.917,48.652 27.489,46.625 27.489,30.246 		"/>
		<polygon points="33.233,5.037 23.917,5.037 23.917,28.734 29,28.734 29,45.767 33.233,43.363 		"/>
	</g>
	<g>
		<path d="M101.922,12.439h-0.91V9.386H34.751v9.438h3.181v-4.106h0.756v4.106h3.47v-2.624h0.756v2.624h3.47v-2.624h0.756v2.624
			h2.988v-2.624h0.756v2.624h3.471v-2.624h0.756v2.624h6.213v-2.246h0.755v2.246h3.47v-2.246h0.756v2.246h2.988v-2.246h0.756v2.246
			h3.471v-2.246h0.756v2.246h2.617v-3.757h0.756v3.757h23.365v-3.239h0.91c0.869,0,1.574-0.705,1.574-1.574
			C103.497,13.143,102.792,12.439,101.922,12.439z M58.483,18.796h-0.756V14.69h0.756V18.796z"/>
		<rect y="9.386" width="33.241" height="9.438"/>
	</g>
	<rect x="14.096" width="3.623" height="8.63"/>
	<rect x="19.006" width="3.688" height="8.63"/>
	<rect x="2.947" y="8.63" fill="#FFFFFF" width="1.192" height="10.555"/>
	<rect x="13.248" y="8.713" fill="#FFFFFF" width="1.192" height="10.556"/>
	<rect x="22.725" y="8.828" fill="#FFFFFF" width="1.193" height="10.556"/>
</g>
</svg>
