<?xml version="1.0" encoding="utf-8"?>
<!-- Generator: Adobe Illustrator 14.0.0, SVG Export Plug-In . SVG Version: 6.00 Build 43363)  -->
<!DOCTYPE svg PUBLIC "-//W3C//DTD SVG 1.1//EN" "http://www.w3.org/Graphics/SVG/1.1/DTD/svg11.dtd">
<svg version="1.1" id="レイヤー_1" xmlns="http://www.w3.org/2000/svg" xmlns:xlink="http://www.w3.org/1999/xlink" x="0px"
	 y="0px" width="76.421px" height="50.316px" viewBox="0 0 76.421 50.316" enable-background="new 0 0 76.421 50.316"
	 xml:space="preserve">
<g>
	<g>
		<path d="M76.007,11.393C72.878-4.494,59.784,0.872,59.784,0.872L35.492,6.064c4.839-0.487,12.057,26.277,12.057,26.277
			l22.361-7.088C69.91,25.253,78.359,23.332,76.007,11.393z"/>
	</g>
	<polygon fill="#FFFFFF" points="27.388,6.406 31.286,3.732 55.701,6.319 55.269,34.197 49.452,36.235 42.976,12.146 	"/>
	<g>
		<g>
			<polygon points="28.407,42.906 8.45,37.815 8.45,8.491 28.407,12.361 			"/>
			<polygon points="9.238,7.691 28.894,11.393 54.281,6.93 29.776,4.693 			"/>
			<polygon points="29.776,12.768 54.281,8.165 53.9,34.696 29.776,43.047 			"/>
		</g>
		<g>
			<g>
				<path fill="#FFFFFF" d="M17.623,16.376H13.06c0,0-8.31-0.42-8.31,9.326c0,9.225,8.666,8.993,8.666,8.993l4.563-0.165
					c3.664,0,6.486-3.829,6.486-9.071C24.465,20.217,21.286,16.376,17.623,16.376z"/>
			</g>
			<g>
				<path d="M17.453,17.428l-4.037-0.162c3.359,0,5.936,3.773,5.936,8.227s-2.477,8.279-5.836,8.279l3.938-0.215
					c3.359,0,6.083-3.61,6.083-8.064S20.813,17.428,17.453,17.428z"/>
			</g>
			<ellipse cx="11.693" cy="25.493" rx="6.082" ry="8.064"/>
			<path fill="#FFFFFF" d="M11.551,31.903c-2.417,0-4.384-2.781-4.384-6.201c0-3.419,1.967-6.201,4.384-6.201
				s4.384,2.782,4.384,6.201C15.935,29.122,13.969,31.903,11.551,31.903L11.551,31.903z M11.551,20.688
				c-1.733,0-3.197,2.296-3.197,5.014s1.464,5.014,3.197,5.014c1.732,0,3.196-2.296,3.196-5.014S13.284,20.688,11.551,20.688
				L11.551,20.688z"/>
			<g>
				<path d="M10.884,27.535H1.958c-0.784,0-1.42-0.82-1.42-1.833c0-1.012,0.636-1.832,1.42-1.832h8.925
					c0.784,0,1.42,0.82,1.42,1.832C12.304,26.715,11.668,27.535,10.884,27.535L10.884,27.535z"/>
				<path fill="#FFFFFF" d="M10.884,28.073H1.958C0.879,28.073,0,27.009,0,25.702s0.879-2.371,1.958-2.371h8.925
					c1.08,0,1.958,1.064,1.958,2.371S11.963,28.073,10.884,28.073L10.884,28.073z M1.958,24.407c-0.479,0-0.882,0.594-0.882,1.295
					s0.404,1.295,0.882,1.295h8.925c0.478,0,0.882-0.594,0.882-1.295s-0.404-1.295-0.882-1.295H1.958L1.958,24.407z"/>
			</g>
		</g>
		<polygon points="57.482,38.593 22.333,50.316 22.409,46.446 57.144,34.485 		"/>
		<polygon points="21.673,46.534 21.673,50.316 14.98,48.256 14.98,44.813 		"/>
		<polygon points="9.801,42.769 9.801,46.769 3.198,44.373 3.198,40.952 		"/>
		<polygon points="8.189,38.131 3.198,40.439 9.994,42.349 13.416,40.542 19.277,42.048 15.309,44.306 21.604,45.981 28.407,43.552 
					"/>
		<polygon points="10.314,42.906 10.29,46.556 13.392,44.605 13.416,41.157 		"/>
		<polygon points="13.838,41.295 17.959,42.28 14.351,44.579 14.009,44.579 		"/>
	</g>
	<path fill="#FFFFFF" d="M69.314,12.374c-0.223-0.637-0.924-0.973-1.558-0.748l-9.862,3.461c-0.477-2.008-1.095-3.572-1.619-4.671
		l7.174-2.202c0.645-0.198,1.008-0.881,0.81-1.526s-0.88-1.005-1.526-0.81l-7.39,2.268c-0.419,0.129-0.698,0.47-0.803,0.865
		l-0.163,0.118c0.003,0.005,0.047,0.069,0.121,0.184c0,0.119-0.002,0.24,0.035,0.36c0.094,0.304,0.301,0.534,0.555,0.684
		c0.855,1.661,2.209,4.966,2.486,9.658c0.402,6.789-3.432,9.656-3.594,9.775l0.601,0.834c0.14-0.1,2.657-1.973,3.649-6.134
		c0.001,0,0.001,0.001,0.002,0.001c0.12,0,0.242-0.019,0.363-0.057l8.686-2.697c0.645-0.2,1.005-0.885,0.805-1.529
		c-0.2-0.645-0.889-1.005-1.529-0.805l-7.96,2.473c0.032-0.61,0.044-1.242,0.004-1.922c-0.052-0.876-0.141-1.703-0.254-2.483
		c0.087-0.01,0.175-0.015,0.261-0.045l9.959-3.495C69.202,13.708,69.537,13.011,69.314,12.374z"/>
</g>
</svg>
