<?xml version="1.0" encoding="utf-8"?>
<!-- Generator: Adobe Illustrator 14.0.0, SVG Export Plug-In . SVG Version: 6.00 Build 43363)  -->
<!DOCTYPE svg PUBLIC "-//W3C//DTD SVG 1.1//EN" "http://www.w3.org/Graphics/SVG/1.1/DTD/svg11.dtd">
<svg version="1.1" id="レイヤー_1" xmlns="http://www.w3.org/2000/svg" xmlns:xlink="http://www.w3.org/1999/xlink" x="0px"
	 y="0px" width="27.085px" height="51.06px" viewBox="0 0 27.085 51.06" enable-background="new 0 0 27.085 51.06"
	 xml:space="preserve">
<g>
	<g>
		<path d="M13.503,17.513c1.763-0.017,3.392-0.664,4.584-1.824c1.085-1.055,1.675-2.425,1.657-3.856
			c-0.035-3.068-2.863-5.564-6.306-5.564c-1.831,0.017-3.46,0.664-4.653,1.824C7.7,9.146,7.112,10.516,7.128,11.947
			c0.035,3.069,2.865,5.566,6.309,5.566"/>
		<path d="M16.506,0L3.261,3.493L0,15.558l9.985,8.573l13.246-3.493l3.262-12.065L16.506,0z M19.516,17.021
			c-1.566,1.524-3.695,2.375-5.994,2.396l-0.085,0c-4.534,0-8.262-3.342-8.309-7.45c-0.022-1.94,0.769-3.79,2.228-5.208
			c1.567-1.524,3.697-2.375,5.996-2.396c4.619,0,8.346,3.341,8.393,7.448C21.767,13.752,20.975,15.603,19.516,17.021z"/>
	</g>
	<polygon points="0,16.778 9.608,25.203 9.608,31.25 0.3,22.694 	"/>
	<polygon points="10.535,25.045 23.09,21.92 23.09,27.988 10.535,31.25 	"/>
	<polygon points="23.946,21.534 23.946,27.376 27.085,16.505 27.085,9.508 	"/>
	<path d="M10.11,32.58l-5.168-4.305L2.215,44.636c0,0-1.485,5.659,4.675,6.354c6.145,0.693,7.147-4.004,7.147-4.004l3.682-16.49
		L10.11,32.58z M12.919,47.702c-0.123,0.351-1.21,0.872-2.315,1.247c-0.628,0.213-1.539,0.297-3.112,0.076
		c-1.518-0.213-2.806-0.791-3.744-1.824C3.195,46.591,3.09,46,3.097,45.958l0.296-2.085c-0.004,0.024,0.328,1.47,1.064,2.215
		c0.831,0.842,1.592,1.581,3.178,1.8c3.871,0.533,5.679-1.93,5.699-2.001L12.919,47.702z M13.649,43.876
		c-0.123,0.35-1.21,0.873-2.315,1.248c-0.628,0.213-1.539,0.297-3.112,0.076c-1.518-0.213-2.806-0.791-3.744-1.824
		c-0.554-0.609-0.658-1.202-0.651-1.242l0.295-2.086c-0.004,0.025,0.328,1.469,1.064,2.215c0.831,0.842,1.592,1.582,3.179,1.8
		c3.87,0.532,5.678-1.93,5.699-2.001L13.649,43.876z M12.167,41.009c-0.629,0.213-1.539,0.297-3.112,0.076
		c-1.518-0.213-2.806-0.791-3.744-1.824c-0.554-0.609-0.659-1.203-0.652-1.242l0.296-2.086c-0.004,0.025,0.328,1.47,1.064,2.215
		c0.831,0.842,1.592,1.582,3.178,1.801c3.87,0.532,5.679-1.932,5.699-2.002l-0.415,1.814C14.359,40.111,13.271,40.634,12.167,41.009
		z"/>
</g>
</svg>
