<svg xmlns="http://www.w3.org/2000/svg" width="300" height="300" version="1" viewBox="0 0 900 900">
  <path d="M405.4 67.1c-.3.6-.6 7.9-.5 16.1 0 12.3.3 15.4 1.6 16.8 1.1 1.2 1.5 3.2 1.3 6.1l-.3 4.4-8.7.3c-6.1.2-9 .7-9.8 1.7-.7.8-2.2 1.5-3.4 1.5-3 0-12.5 5.3-15.8 8.8-4.6 4.9-7.8 12.9-7.8 19.3 0 3.2.4 6 .9 6.4.5.3 1.2 1.9 1.6 3.6.8 3.3 8.6 11.9 13.2 14.2 1.6.8 5 3.8 7.6 6.6 5 5.3 5.2 7.2 1.2 9.4-7.4 4-22.5 19.1-22.5 22.4 0 .7-.4 1.3-1 1.3-.5 0-1-.6-1-1.4 0-2.2-15.1-17-18.8-18.5-1.8-.7-3.2-1.7-3.2-2.2 0-.5-.8-.9-1.9-.9-1 0-2.4-.7-3.1-1.5-.7-.8-2-1.5-2.9-1.5-.9 0-3.8-1.1-6.6-2.5-2.7-1.3-5.7-2.5-6.6-2.5-.9 0-2.2-.7-2.9-1.5-.7-.8-2.1-1.5-3.2-1.5-1 0-3.1-.8-4.6-1.7-1.5-.9-2.8-1.7-2.9-1.8-.1 0-.9-8.1-1.8-18-2.2-24-1.8-22.9-8.5-23.5-3-.3-6.5-1.1-7.7-1.8-1.2-.7-4-1.2-6.2-1.2s-4.3-.5-4.6-1c-.3-.6-2.1-1-3.8-1-1.8 0-4.2-.7-5.5-1.5-1.6-1.2-4.3-1.5-10.9-1.3l-8.7.3-2.8 4c-1.8 2.7-2.8 5.3-2.8 8 0 2.2-.7 5.1-1.5 6.5-1 1.7-1.4 5.8-1.5 13 0 6.9-.4 11-1.2 11.8-.7.7-4.4 1.2-9.4 1.2-5.3 0-9.2.5-11 1.5-1.6.8-4.4 1.5-6.2 1.5-1.8 0-4 .4-5 .9-.9.5-5.6 2.8-10.4 5.1-9 4.2-17.5 9.5-21.6 13.3-3.3 3.1-8.2 13.5-8.2 17.6-.1 2-.7 4.7-1.5 6.1-2.1 3.6-2 17.9.2 22.2l2.9 5.8c.7 1.4 3 3.4 5.1 4.5 2.1 1 4 2.3 4.1 2.7.2.4 1.2.8 2.2.8.9 0 2.3.7 3 1.5.7.8 1.8 1.5 2.5 1.5 1.1 0 5.8 2 9.7 4.1 1 .5 2.6.9 3.7.9 1 0 2.4.7 3.1 1.5.7.8 2.5 1.5 4.1 1.5 1.5 0 3 .4 3.3.9.7 1.1-1.8 2.1-5.4 2.1-1.6 0-3.2.4-3.5 1-.3.5-2.3 1-4.4 1-2 0-4.6.7-5.7 1.5-1 .8-3.5 1.5-5.5 1.5s-4.2.7-4.9 1.5c-.7.8-2.5 1.5-4.1 1.5-1.5 0-3.1.4-3.4 1-.3.5-1.5 1-2.5 1s-3.1.6-4.7 1.4c-1.5.8-5.4 2.7-8.6 4.2-3.1 1.5-6.2 3.3-6.8 4.1-.7.7-1.7 1.3-2.3 1.3-1.3 0-10.6 8.9-10.6 10.1 0 .4-1.3 2.8-3 5.2-1.6 2.5-3 5.4-3 6.5 0 1.2-.4 2.4-1 2.7-.5.3-1 3.6-1 7.2 0 6.5.1 6.6 5.6 13.5 5.6 6.8 12.3 12.8 14.2 12.8.5 0 1.2.7 1.6 1.5.3.8 1 1.5 1.6 1.5.6 0 2.8 1.1 5 2.5s4.8 2.5 5.9 2.5c1 0 2.4.7 3.1 1.5.7.8 2.3 1.5 3.6 1.5 1.2 0 2.6.4 2.9 1 .3.5 1.8 1 3.3 1 1.5.1 3.8.7 5.2 1.5 1.4.8 4.1 1.4 6 1.5 2 0 4.4.6 5.5 1.4 3.9 2.6 22 3.5 43.8 2.1 8.7-.6 11.7-.5 11.7.4 0 .6-1 1.5-2.2 2-3.4 1.3-13.2 9.7-14.8 12.5-1.1 2.1-1 3 .4 6 .9 1.9 3 4.5 4.8 5.7 1.7 1.2 7.4 6.4 12.7 11.6 5.3 5.1 11 10 12.7 10.8 1.7.8 3.6 2 4.1 2.7.6.7 1.3 8 1.7 16.1.3 8.2 1.1 15.7 1.6 16.7.6 1 1 5.4 1 9.7.1 5.3.5 8.4 1.5 9.7 2 2.6 1.9 6.6 0 6.6-.8 0-1.5-.5-1.5-1.1 0-2.1-4.3-7-8.4-9.6-2.2-1.4-4.5-3.2-4.9-3.9-.4-.8-1.7-1.4-2.7-1.4-1 0-2.2-.5-2.5-1-.3-.6-1.4-1-2.4-1s-2.4-.7-3.1-1.5c-.7-.8-2.2-1.5-3.4-1.5-1.1 0-3-.7-4-1.5-1.1-.8-3-1.5-4.3-1.5-1.3 0-2.3-.5-2.3-1 0-.6-.8-1-1.8-1s-2.7-.7-3.8-1.5c-1-.8-2.8-1.5-3.9-1.5s-2.9-.7-3.9-1.5c-1.1-.8-2.8-1.5-3.8-1.5s-1.8-.5-1.8-1c0-.6-.9-1-1.9-1-1.1 0-2.6-.7-3.5-1.5-.8-.8-2.4-1.5-3.5-1.5-1.2 0-2.1-.4-2.1-.9s-1.1-1.2-2.5-1.5c-2.5-.6-2.5-.8-2.6-10.9 0-5.6-.8-14.3-1.8-19.2l-1.7-9-11.5-.7c-6.3-.4-14.4-1.2-18.1-1.8-3.7-.5-10.9-1-16.1-1-5.8 0-11.1-.6-13.7-1.5-8.9-3.1-16-.7-16 5.6 0 1.3-.7 3.3-1.5 4.3-.8 1.1-1.5 3-1.5 4.2 0 1.2-.7 2.7-1.5 3.4-.8.7-1.5 2.3-1.5 3.6 0 1.4-.4 3.2-.9 4.2-1 2.1-3.5 7.8-4.9 11.3-1.6 4-7.2 9.9-9.3 9.9-1.1 0-3.4 1-5.2 2.2-7.7 5.2-8.7 5.8-10.2 5.8-.8 0-1.5.4-1.5.9s-2.2 2.3-4.9 4c-6.3 3.8-27.2 24-29.7 28.6-1 1.9-2.2 3.5-2.6 3.5-.5 0-.8.8-.8 1.9 0 1-.7 2.4-1.5 3.1-.8.7-1.5 1.8-1.5 2.5s-.7 1.8-1.5 2.5-1.5 2-1.5 3-.7 3.1-1.5 4.6c-1.8 3.4-2 15.5-.4 17.1 1.2 1.2 3.3 4.6 4.8 7.9 1.2 2.7 9.1 10.4 10.6 10.4.7 0 1.8.6 2.4 1.4 1.5 1.8 11.6 6.6 14 6.6 1 0 2.4.7 3.1 1.5.7.8 2.8 1.5 4.7 1.5 4 0 4.2 2.3.2 2.8-1.3.2-2.8.8-3.4 1.3-.5.5-2.6.9-4.6.9-2 0-4.2.7-4.9 1.5-.7.8-2.3 1.5-3.6 1.5-2.4 0-3 .2-9.2 3.3-1.9.9-4 1.7-4.8 1.7-.8 0-1.7.7-2 1.5-.4.8-1.4 1.5-2.3 1.5-1.6 0-11.1 8.3-11.1 9.7 0 .5-2.9 4.2-6.5 8.2-3.6 4.1-6.5 7.8-6.5 8.2 0 .4-.6 1.4-1.3 2.1C9.1 589 8 592.1 8 598.8c0 5 .4 7.3 1.5 8.2.8.7 1.5 1.8 1.5 2.5 0 2.9 40.3 45.5 43.1 45.5.6 0 2.5 1 4.2 2.3 4.7 3.4 12.9 6.9 22.2 9.6 4.4 1.3 67.2.9 91.4-.6 14.7-.9 13.9-1.1 20.9 5.6 3.6 3.4 5 4.1 8.5 4.1 2.3.1 5.3.7 6.7 1.5 1.4.8 3.5 1.4 4.8 1.5 1.2 0 2.2.4 2.2.9s1.6 1.2 3.5 1.5c2 .4 3.3 1.1 3 1.7-.4.5-9.5.9-21.8.9-17.1.1-21.6.4-23.1 1.5-1.2.9-4.2 1.5-7.2 1.5-2.9 0-5.5.4-5.8.9-.3.4-2.4 1.1-4.6 1.5-2.2.3-4 1.1-4 1.6 0 .6-1.1 1-2.4 1-1.4 0-2.7.4-3.1 1-.3.5-3.4 2.3-7 4.1-3.5 1.7-6.6 3.7-6.9 4.5-.3.8-1.2 1.4-2.1 1.4-1.9 0-4.4 2.1-17.2 14.5-5.7 5.4-10.3 10.4-10.3 11.1 0 .6-.6 1.6-1.3 2.3-1.7 1.3-6.3 10.7-7.1 14.4-.4 1.5-1.1 2.7-1.6 2.7-.6 0-1 1.7-1 3.9 0 2.1-.7 5.5-1.5 7.4-1.9 4.6-1.9 14 0 20.3.8 2.7 1.5 6.5 1.5 8.5s.7 4.2 1.5 4.9c.8.7 1.5 2 1.6 2.9 0 .9.8 2.8 1.7 4.2.9 1.5 2.7 4.4 4 6.5 2.3 3.9 13 12.4 15.6 12.4.7 0 1.9.7 2.6 1.5.7.8 2.7 1.5 4.4 1.5 1.7 0 4 .7 5 1.5 1.1.8 3.9 1.5 6.2 1.5 2.4 0 4.6.4 4.9 1 .3.5 1.8 1 3.3 1 1.5.1 3.8.7 5.2 1.5 1.5.8 5.3 1.4 9.3 1.5 3.8 0 7.8.6 9 1.2 6.8 3.8 118.7 3.8 125.4 0 1.2-.6 5-1.2 8.5-1.2 3.6-.1 7.4-.7 8.8-1.5 1.4-.8 4.2-1.4 6.2-1.5 2 0 4-.5 4.3-1 .3-.6 1.6-1 2.9-1 1.2 0 3.1-.7 4.2-1.5 1-.8 2.6-1.5 3.5-1.5 1.6 0 15.6-7.3 17.4-9.1.5-.5 1.5-.9 2.1-.9 1.2 0 7.6-4.3 18.4-12.4 4.3-3.3 11.8-11.7 14.1-16 3.7-6.8 3.9-7.7 3.9-17.9 0-8.1-.3-10.7-1.5-11.7-.8-.7-1.5-2.1-1.5-3.2 0-1-1.1-3.1-2.5-4.6-1.4-1.5-2.5-3.2-2.5-3.8 0-1.3-16.5-17.4-17.9-17.4-.5 0-2.8-1.6-5.1-3.5s-4.6-3.5-5.1-3.5c-.6 0-2.2-1.1-3.7-2.5s-3.4-2.5-4.2-2.5c-.9 0-2-.4-2.6-.9-.9-.8-11.4-6.8-14.4-8.1-.8-.4-3-1.4-4.8-2.3-1.9-.9-4.2-1.7-5.3-1.7-1 0-1.9-.4-1.9-.9 0-1.2 5.7-4.1 8-4.1.9 0 2.5-.7 3.6-1.5 1-.8 2.9-1.5 4.1-1.5 1.2 0 2.4-.4 2.8-.9.3-.5 2-1.3 3.7-1.7 3-.6 5.1-1.5 8.8-3.6.8-.4 2.2-1.1 3-1.4.8-.3 3.8-1.7 6.5-3 2.8-1.3 5.5-2.4 6.2-2.4.6 0 1.3-.7 1.7-1.5.3-.8 1.2-1.5 1.9-1.5.8 0 3.5-1.1 6.1-2.5 6-3.2 9.6-3.2 12.6 0 1.4 1.5 3.5 2.5 5.1 2.5 1.4 0 3.2.7 3.9 1.5 1 1.2 4.2 1.5 16.6 1.5 8.5 0 15.4.3 15.4.7 0 .5-.9 1.9-2 3.3s-2 3-2 3.6c0 .6-.7 1.7-1.5 2.4s-1.5 2.3-1.5 3.5c0 1.2-.7 2.8-1.5 3.5-.8.7-1.5 2.3-1.5 3.5 0 1.3-.7 3.6-1.5 5.1-.8 1.6-1.5 4.6-1.5 6.6s-.4 4-1 4.3c-1.3.8-1.3 25.2 0 26 .6.3 1 2.1 1 3.8 0 1.8.7 4.5 1.5 6.1.8 1.5 1.5 3.7 1.5 4.7 0 1.1.4 1.9 1 1.9.5 0 1.8 1.7 2.9 3.7 2.2 4.4 7 9.2 12.1 12.2 7.9 4.7 15.5 8.1 18.1 8.1 1.4 0 3.2.7 3.9 1.5.7.9 2.9 1.5 5.2 1.5 2.2 0 4.9.5 6.1 1.2 2.3 1.2 21.9 3 32.7 3 13.9 0 43.8-2 45.8-3.1 1.1-.6 6-1.1 10.7-1.1 5 0 9.5-.5 10.8-1.2 1.2-.7 6-1.6 10.7-2 23.8-2.1 27.1-2.5 28.2-3.6.7-.7 3.8-1.2 6.9-1.2 3.1 0 7-.7 8.5-1.5 1.6-.8 5.2-1.5 8.1-1.5 2.8 0 5.5-.4 5.8-1 .3-.5 2.7-1 5.3-1 2.6 0 5.6-.7 6.6-1.5 1.1-.8 3.1-1.5 4.5-1.5s3.5-.7 4.5-1.5c1.1-.8 3-1.5 4.3-1.5 1.3 0 2.3-.5 2.3-1 0-.6 1.1-1 2.4-1 1.3 0 2.9-.7 3.6-1.5.7-.8 1.9-1.5 2.6-1.5.8 0 3.2-1.1 5.4-2.5s4.6-2.5 5.3-2.5c.7 0 1.8-.5 2.3-1 1.4-1.4 7.1-4.7 10.7-6.3 1.5-.6 2.7-1.5 2.7-1.9 0-.4 1.7-1.6 3.8-2.7 2-1.1 5.2-3.3 7-5 1.8-1.7 5.3-4.4 7.7-6.1 2.4-1.7 5.8-5 7.4-7.3 1.6-2.3 3.8-5.1 5-6.1 1.1-1.1 2.1-2.5 2.1-3.3 0-.7.7-2.4 1.6-3.8 1.9-2.9 1.6-21-.5-26.5-4.9-12.9-12.8-22.2-22.8-27.2-2.6-1.2-4.9-2.6-5.1-3.1-.2-.4-1.3-.7-2.5-.7s-3.1-.7-4.1-1.5c-1.1-.8-3.2-1.5-4.7-1.5s-3.1-.5-3.4-1c-.3-.6-2.4-1-4.6-1-2.2 0-5-.6-6.2-1.2-1.2-.7-5.8-1.6-10.2-1.9-9-.8-18.5-2.9-18.5-4.1 0-.4.6-.8 1.4-.8.8 0 2.1-.6 2.8-1.4.8-.7 2.9-2.1 4.8-3.1s4.6-2.9 6.1-4.4c1.5-1.4 4.6-4.2 7.1-6.2 2.4-2 6.3-6.2 8.7-9.3 4.3-5.6 4.4-5.9 4.4-13.1 0-5-.4-8.1-1.4-9.2-.8-1-2.3-3.4-3.4-5.3-1-1.9-3-4.7-4.5-6.1-3.2-3.3-13.3-8.9-15.9-8.9-1.2 0-2.1-.5-2.1-1 0-.6-2.4-1-5.3-1-3.1 0-6.1-.6-7.3-1.5-1-.8-3.7-1.5-5.9-1.5s-4.9-.7-5.9-1.5c-1.1-.8-3.4-1.5-5.1-1.5-4.2 0-5.8-2.9-6.7-12-.4-4.1-1.1-10.4-1.6-14-1.4-10 .2-10.1 7.1-.5 3 4.2 16.2 13.5 19.2 13.5.7 0 1.8.7 2.5 1.5s2.5 1.5 4.1 1.5c1.5 0 3.1.5 3.4 1 .3.6 2.3 1 4.3 1 2.1 0 4.6.6 5.7 1.4 2.3 1.6 17.5 2.9 32.5 2.9 15-.1 36.2-1.6 38-2.8.8-.5 5.8-1.3 11-1.7 18.9-1.5 26.5-2.4 28.7-3.6 1.2-.7 4.4-1.2 7.1-1.2 2.7 0 6.3-.7 7.8-1.5 1.6-.8 4.8-1.5 7.1-1.5s4.5-.4 4.8-1c.3-.6 2.8-1 5.4-1 3.1 0 5.3-.5 6.1-1.5.7-.8 2.7-1.5 4.5-1.5 1.8 0 4.6-.7 6.1-1.5 1.6-.8 3.9-1.5 5.1-1.5 1.2 0 2.5-.5 2.8-1 .3-.6 1.7-1 2.9-1 1.3 0 2.9-.7 3.6-1.5.7-.8 1.8-1.5 2.5-1.5 1.7 0 7.4-2.9 10.4-5.4 5.4-4.3 14.1-14.1 14.1-15.9 0-1 .7-2 1.5-2.3.8-.4 1.5-1.4 1.5-2.4s.7-3.1 1.5-4.6c2.1-4.1 2.1-25.6 0-27.4-.8-.7-1.5-2.5-1.5-4s-.7-3.3-1.5-4c-.8-.7-1.5-1.9-1.5-2.7 0-.8-1.1-2.9-2.5-4.7-1.4-1.8-2.5-3.6-2.5-4.1 0-1.1-23.1-23.5-24.3-23.5-.5 0-2.3-1-4-2.3-4.6-3.2-9.5-5.7-11.2-5.7-.8 0-1.5-.5-1.5-1 0-.6-.9-1-1.9-1-1.1 0-2.6-.7-3.5-1.5-.8-.8-2.5-1.5-3.8-1.5-1.3 0-3.2-.7-4.2-1.5-1.1-.8-3.2-1.5-4.7-1.5s-3.1-.5-3.4-1c-.3-.6-2.1-1-3.9-1-1.9 0-5.3-.7-7.6-1.5s-5.6-1.5-7.2-1.5c-3.6 0-3.3-1.5.7-3.8 4.7-2.8 10.8-9.6 14.3-16.2 2.7-5.2 3.2-7.2 3.2-12.8-.1-4.3-.6-7.4-1.5-8.6-.8-1.1-1.5-2.6-1.5-3.4 0-3.7-15.6-19.2-19.3-19.2-.9 0-1.9-.5-2.2-1-.3-.6-1.4-1-2.4-1s-2.4-.7-3.1-1.5c-.7-.8-2.9-1.5-4.9-1.5-2 0-4.5-.7-5.5-1.5-1.2-.9-4.2-1.5-7.8-1.5H743v-4.8c0-2.6-.7-5.6-1.5-6.6-.8-1.1-1.5-4.1-1.5-6.7 0-2.5-.7-6.3-1.5-8.2-.8-2-1.5-5.4-1.5-7.6 0-2.2-.4-4.3-1-4.6-.5-.3-1-2.2-1-4.1 0-3-.4-3.7-3-4.5-1.6-.6-3-1.5-3-2 0-2-56.7-.5-65.6 1.7-2.4.6-2.4.7-2.4 13.4 0 10.4.3 12.9 1.5 13.4 1.2.4 1.5 2.4 1.5 9v8.4l-4.7 3c-2.7 1.7-5.9 4.1-7.3 5.4-1.4 1.3-4.2 3.4-6.3 4.7-4.2 2.6-11.7 12-11.7 14.8 0 1-.7 2.7-1.5 3.7-2 2.6-1.9 12.5 0 15 .8 1.1 1.5 3 1.5 4.3 0 5.8 9.3 16 18.5 20.2 1.7.7 3.7 1.7 4.5 2.2.8.5 2.2 1.2 3 1.5.8.3 2.2 1 3 1.5.8.5 2.3 1.2 3.3 1.5.9.4 1.7 1 1.7 1.4 0 .4-.8 1-1.7 1.4-1 .3-2.6 1-3.5 1.6-4 2.3-5.4 3.1-7.4 3.9-1.2.5-3.6 2.3-5.5 4.1-1.9 1.7-4.7 4-6.4 5.2-3.1 2.2-15.5 16.1-15.5 17.4 0 .4-1.1 2.2-2.5 4-1.4 1.8-2.5 4-2.5 4.8 0 .9-.4 1.6-.8 1.6-.9 0-3.7 6.1-4.7 10.3-.4 1.5-1.1 3-1.6 3.3-.5.3-.9 1.8-.9 3.3 0 1.6-.7 3.4-1.5 4.1-.9.8-1.5 2.9-1.5 5.5 0 2.4-.7 5.6-1.5 7.1-.8 1.6-1.5 4.8-1.5 7.1 0 4.3-1.2 5.7-2.4 2.8-.4-1.1-2.2-1.5-7.5-1.5-3.8 0-7.3-.5-7.6-1-.3-.6-1.5-1-2.7-1-1.1 0-3.6-1.3-5.5-3-1.8-1.6-4-3-4.7-3-.7 0-2.1-1-3.2-2.1-1-1.2-2.9-2.5-4.1-3-2.1-.8-2.3-1.5-2.3-8.8 0-4.4-.5-9.2-1.2-10.8-.6-1.5-1.4-5.3-1.8-8.3-.7-5.3-2.3-10.8-4.1-14-.5-.8-1.6-3.1-2.5-5-.8-1.9-2-4.2-2.5-5-.5-.8-1.2-2.2-1.5-3-.3-.8-1.2-2.8-2-4.4-1.3-2.5-1.3-3.1.1-5.2.8-1.3 1.5-3.6 1.5-5.1 0-1.5.7-3.7 1.5-4.7 1-1.4 1.5-4.5 1.5-9.6s-.5-8.2-1.5-9.6c-.8-1-1.5-3.1-1.5-4.5 0-1.5-.7-3.2-1.5-3.9-.8-.7-1.5-1.7-1.5-2.2 0-.5-.4-1.4-1-2.1-.5-.7-2.2-2.7-3.6-4.5-3.2-4-12.7-11.2-14.7-11.2-.8 0-2-.7-2.7-1.5-.7-.8-2.1-1.5-3.1-1.5-1.1 0-1.9-.5-1.9-1 0-.6-1.7-1-3.9-1s-4.4-.6-5.1-1.5c-1.5-1.9-4-2-4-.2 0 .7 1.7 2.3 3.8 3.4 2 1.2 5.2 3.5 7.1 5.2 1.9 1.7 4 3.1 4.6 3.1 2 0 9.2 7.8 12.6 13.7 5 8.6 6.2 12.1 6.6 19.7.5 7.6-.6 10-2.9 6.4-.9-1.3-2.4-3.3-3.5-4.5-1.1-1.2-3.2-4.2-4.8-6.7-1.6-2.6-3.3-4.6-3.7-4.6-.4 0-.8-.6-.8-1.4 0-.7-1.3-2.9-3-4.7-1.6-1.9-3-3.8-3-4.2 0-.5-1.1-2.3-2.5-4.1-1.4-1.8-2.5-3.7-2.5-4.1 0-.5-10.4-11-23.1-23.4-19.6-19.2-23.2-23.2-24.1-26.6-1.7-6.9-2.1-9.5-1.3-9.5 1.5 0 7.5 6.9 7.5 8.5 0 .9 1.1 3.1 2.5 4.9 1.4 1.8 2.5 3.7 2.5 4.2 0 1.2 8.7 9.5 11.7 11.2 1.3.6 3.3 1.2 4.6 1.2 1.3 0 3.2.7 4.3 1.5 1 .8 2.9 1.5 4 1.5 1.2 0 2.4.7 2.8 1.5.3.8 1.6 1.5 3 1.5 1.3 0 2.6.4 2.8.8.4 1.2 16 8.5 22.4 10.5 5.4 1.8 9.6 2.2 10.7 1 .8-.8-4.8-4.3-6.9-4.3-.9 0-1.4-.7-1.2-1.7.2-1.1 2.1-2.2 5.1-3.1 4-1.1 4.7-1.7 4.7-3.8 0-2.8-1.6-3.1-4.8-.9-1.6 1.2-4.1 1.5-8.9 1.3-8.2-.4-9-2.2-1.2-2.6 5.1-.3 6.1-.7 9.7-4.2 4.3-4.3 6.5-4.8 9.6-2.5 1.1.8 3 1.5 4.3 1.5 1.3 0 2.3.4 2.3 1 0 .5 1.3 1 3 1 1.6 0 4.8.7 7 1.6 4.4 1.8 9.1 1.2 5.8-.7-2.7-1.5-2.2-4.8.7-5.9 2.7-1 8.5-6.5 8.5-8 0-2.3-6.3-3-8.4-.9-.6.5-2.4.9-4.2.9-1.7 0-5.1.7-7.4 1.5-4.6 1.6-13.7 2-15.8.6-1-.6-.5-1.4 2.2-3 2-1.3 3.6-2.7 3.6-3.2s-4.2-.9-9.4-.9c-6.7 0-9.5-.4-9.9-1.3-.2-.7-3.1-2.6-6.3-4.1-7.8-3.9-12.4-8.2-12.4-11.7 0-1.5-.7-3.4-1.5-4.3-.8-.8-1.5-3.2-1.5-5.4 0-2.3-.6-4.5-1.5-5.2-.8-.7-1.5-2.5-1.5-4s-.7-4.1-1.5-5.6c-2.4-4.6-1.9-8.8 1.8-14.1 1.7-2.6 4.2-5.7 5.5-6.9 1.2-1.2 2.2-2.5 2.2-2.9 0-.4 1.4-2.4 3-4.5 1.7-2.1 3-4.2 3-4.7 0-1.9 3-6.9 5.5-9.3 1.4-1.3 2.5-2.9 2.5-3.6 0-.7 1.5-2.9 3.4-4.8 3.6-3.8 7.4-4.7 9.6-2.1.7.9 3.5 1.5 7.3 1.7l6.2.3.3 7.2c.2 4.7.8 7.5 1.7 8.3.8.7 1.5 1.8 1.5 2.5 0 1.7 2 5.3 5.3 9.6 1.5 2 2.7 3.9 2.7 4.2 0 .3 2 2.6 4.3 5.1 6.4 6.6 16.2 10.8 28.2 12.2 2.2.2 8.8 1.2 14.7 2.1 10 1.5 11.6 1.5 26 0 8.4-1 18.5-2 22.3-2.2 17.3-1.3 21-1.8 22.9-3.1 1.1-.8 3.9-1.4 6.2-1.4 2.3 0 6.1-.7 8.4-1.5 2.3-.8 7.1-1.5 10.6-1.5 3.4 0 6.6-.5 6.9-1 .3-.6 3.2-1 6.3-1 3.4-.1 6.5-.7 7.6-1.5 1.1-.8 3.7-1.5 5.7-1.5 2.1 0 4.1-.5 4.4-1 .3-.6 1.6-1 2.9-1 1.2 0 3.1-.7 4.2-1.5 1-.8 2.6-1.5 3.5-1.5.9 0 4.9-3.1 8.8-7 5.6-5.4 7.1-7.5 7.1-9.8 0-1.6.7-5.1 1.5-7.8 1.7-5.5 2-14 .6-14.9-.6-.3-1.3-2.7-1.7-5.2-.5-3.4-1.7-5.8-4.2-8.5-3.4-3.7-10.4-7.8-13.3-7.8-.8 0-2.4-.7-3.5-1.5-1-.8-2.6-1.5-3.5-1.5-.9 0-3-.7-4.5-1.5-1.6-.8-3.7-1.5-4.6-1.5-1 0-1.8-.5-1.8-1 0-.6-1.1-1-2.4-1-1.3 0-3.7-.6-5.3-1.4-4-2-15.2-5.7-19.1-6.3-1.8-.3-3.5-.9-3.8-1.5-1-1.5 1.7-3.8 4.6-3.8 1.5 0 3.3-.7 4-1.5.7-.8 2-1.5 3-1.5s2.3-.7 3-1.5c.7-.8 2.1-1.5 3.1-1.5 1.1 0 1.9-.5 1.9-1 0-.6.8-1 1.8-1 2.5 0 16.8-13.4 17.6-16.5.4-1.4 1.1-2.5 1.6-2.5.6 0 1-3.7 1-8.9 0-7-.3-9-1.5-9.5-.8-.3-1.5-1.3-1.5-2.3 0-5.5-13-22.2-19-24.5-1-.4-2.1-1.1-2.5-1.7-.3-.6-1.7-1.1-3.1-1.1-1.3 0-2.4-.5-2.4-1 0-.6-1-1-2.2-1-1.3 0-3.2-.7-4.2-1.5-1.1-.8-3.4-1.5-5-1.5-1.7 0-4-.7-5-1.5-1.1-.8-3.2-1.5-4.7-1.5s-3.1-.5-3.4-1c-.3-.6-2.1-1-3.9-1-1.9 0-3.9-.7-4.6-1.5-.7-.8-2.2-1.5-3.3-1.5-1.1 0-3.6-.7-5.6-1.6-3.1-1.3-3.9-2.4-5.4-7.2-.9-3.2-1.7-7.6-1.7-10 0-3.2-.4-4.4-1.7-4.8-1-.3-2.8-1.1-4-1.7-1.7-.7-5-.7-12.1.3-7.9 1-10.3 1-12.2 0-2.2-1.2-44.9-3.5-45.9-2.4-.8.7 0 18.8.8 19.9 1.2 1.5 1.9 5.2 1.2 6.2-.8 1.2-12.9 9.3-13.9 9.3-.4 0-3.8 3.1-7.6 6.9-6.3 6.3-8.6 9.3-10.1 13.1-.4.8-1.3 2.7-2.1 4.2-.9 1.7-1.4 5.9-1.4 12.8 0 9 .3 10.6 2.6 14.8 3.2 5.9 7.8 10.4 12.9 12.6 2.2.9 5.3 2.4 6.8 3.2 1.6.8 3.8 1.4 5 1.4 1.2 0 3.1.7 4.1 1.5 1.1.8 2.8 1.5 3.8 1.5s2.6.4 3.6.9c.9.6 2.9 1.2 4.4 1.6 1.5.3 3.2 1.4 3.8 2.4.8 1.7 0 2.7-5.7 7.2-3.7 2.9-9.3 6.7-12.5 8.3-3.1 1.7-8.9 6.2-12.8 9.9l-7.1 6.8-2.7-1.7c-1.5-1-3.3-2.4-4-3.1-.7-.7-2.2-1.3-3.2-1.3s-2.2-.5-2.5-1c-.8-1.3-9.8-1.3-11.2.1-.6.6-2.8.9-4.9.7l-3.9-.3-.5-9.2c-.3-5.3-1-9.7-1.8-10.5-.6-.6-1.2-2.3-1.2-3.8-.1-1.4-.8-3.4-1.8-4.6-2.1-2.5-7.8-5.4-10.6-5.4-3 0-9.6-2-9.6-2.8 0-.5 2.5-3.4 5.5-6.5s5.5-6.5 5.5-7.4c0-1 .7-2.7 1.5-3.7 2-2.7 2-10.5 0-11.2-.8-.4-1.5-1.4-1.5-2.4 0-1.7-6.1-9.2-10.9-13.4-1.4-1.2-4.6-4-7.2-6.4-2.5-2.3-5.1-4.2-5.7-4.2-.6 0-2.3-1.1-3.9-2.4-1.5-1.2-4.6-3.1-6.8-4-2.2-1-5.3-2.4-7-3.1-1.6-.7-4.1-1.6-5.5-1.9-1.4-.2-4.2-1.1-6.2-1.8l-3.8-1.3v-7.4c0-4.1-.7-9.7-1.5-12.5-.8-2.8-1.7-6.2-1.9-7.6-.4-2.1-1.6-2.9-6.1-4.3-3.1-.9-6.9-1.7-8.4-1.7-1.6 0-3.4-.7-4.1-1.5-.7-.9-2.9-1.5-5.1-1.5-2.1 0-4-.4-4.3-.9-.3-.5-2.6-1.2-5.1-1.5-2.4-.4-4.7-1.1-5-1.7-.9-1.3-20.2-1.2-21.1.2zm16.1 7.9c.3.5 2.8 1.2 5.6 1.6 2.7.4 5.2 1.1 5.5 1.5.3.5 2.2.9 4.2.9s4.6.7 5.6 1.5c1.1.8 3 1.5 4.3 1.5 6.2 0 10.3 6.2 10.3 15.4 0 8.1-4.2 11-10 6.9-2-1.4-4.7-1.7-17.2-1.5-16.3.2-16.8 0-16.8-6.7 0-1.6-.4-3.3-1-3.6-1.8-1.1-1.2-14.6.7-16.7 1.7-1.9 7.7-2.5 8.8-.8zm194 11.1c.5.5 7.9.9 16.5.9 12-.1 15.9-.4 17.4-1.5 2.7-2 14.9-2.1 16.5-.1.7.9 1.1 4 .9 7.8l-.3 6.3-5.4.3c-3 .2-5.9-.2-6.4-.7-.6-.6-3.6-1.1-6.6-1.1-3.1 0-7.3-.4-9.4-.9-3.8-.9-14.7.6-16.3 2.2-.4.4-1.8.7-3.2.7-1.3 0-3.7.8-5.3 1.7-4.4 2.6-6.3 1-7-6.3-.3-3.2-.9-6.7-1.4-7.8-.5-1.2-.3-2.1.6-2.7 1.6-1.1 7.9-.2 9.4 1.2zm48 21.6c5.5.4 11 1.4 12.2 2.1 1.2.6 3.7 1.2 5.6 1.2 1.9 0 4 .7 4.7 1.5.7.8 2.5 1.5 4.1 1.5 1.5 0 3.1.4 3.4 1 .3.5 1.6 1 2.8 1 1.2 0 3.1.7 4.1 1.5 1.1.8 3 1.5 4.3 1.5 1.3 0 2.3.4 2.3.8 0 .7 1.8 1.6 9 4.6.8.3 2.2 1 3 1.5.8.5 2.2 1.2 3 1.5 4.7 1.8 11.9 7.4 15.1 11.9 3.2 4.4 3.6 8.1 1.4 11.1-.8 1.1-1.5 3-1.5 4.2 0 1.3-.4 2.6-1 2.9-.5.3-1 1.7-1 2.9 0 1.3-.7 2.9-1.5 3.6-.8.7-1.5 1.9-1.5 2.7 0 1.9-12.1 13.3-14.1 13.3-.9 0-2.2.7-2.9 1.5-.7.8-2.1 1.5-3.1 1.5s-2.1.4-2.4 1c-.3.5-1.8 1-3.3 1-1.5 0-3.6.7-4.6 1.5-1.1.8-3.5 1.5-5.4 1.5-1.8 0-4.3.6-5.5 1.2-1.2.7-5.3 1.6-9.2 2-3.8.4-9.2 1.1-12 1.5-4.9.8-5 .9-5 4.3v3.5l10.5-.2c5.8-.1 13.8-.5 17.9-1 5.4-.6 7.8-.5 9 .4.9.7 2.8 1.3 4.2 1.3 1.5 0 3.2.7 3.9 1.5.7.8 2.7 1.5 4.5 1.5 1.9 0 3.5.5 3.7 1.1.3 1 3.5 1.9 12.3 3.6 1.7.3 3.9 1.2 5 1.9 1.1.8 3.2 1.4 4.7 1.4s3 .4 3.3 1c.3.5 1.9 1 3.4 1s3.6.7 4.7 1.5c1 .8 2.8 1.5 3.9 1.5s4.9 2.8 8.4 6.1l6.4 6.1v8.9c0 6.9-.3 9.3-1.6 10.7-.9 1-1.7 2.3-1.7 2.9 0 1.8-6.8 8.3-10.3 9.9-1.8.8-3.9 1.8-4.7 2.3-2.9 1.7-6.5 3.1-8.9 3.6-1.4.2-2.9.9-3.5 1.5-.5.5-2.1 1-3.6 1-1.4 0-3.4.7-4.4 1.5-1.1.8-3.6 1.5-5.5 1.5-2 0-4.5.7-5.5 1.5-1.1.8-2.8 1.3-3.8.9-1-.3-3.2.2-5 1-1.7.9-5.2 1.6-7.8 1.6-2.5 0-5.5.7-6.6 1.5-1.2.9-4.2 1.4-8.1 1.5-3.4 0-6.4.4-6.7.9-.3.4-4.5 1-9.4 1.3-4.8.3-9.8 1-10.9 1.7-3.5 1.8-44.1 1.5-48.6-.4-2-.8-5-1.5-6.7-1.5-1.6 0-3-.5-3-1 0-.6-1.1-1-2.4-1-1.3 0-2.9-.7-3.6-1.5-.7-.8-1.9-1.5-2.8-1.5-1.8 0-18.2-16.3-18.2-18.1 0-.7-.7-2.1-1.6-3.1-2.5-2.6-2.5-17.9-.1-20.6.9-1 1.7-2.5 1.7-3.4 0-.8 1.1-2.5 2.5-3.8 1.4-1.3 2.5-2.9 2.5-3.6 0-.8 1.4-2.7 3-4.4 1.7-1.7 3-3.6 3-4.3 0-1.8 11.3-12.7 13.2-12.7.8 0 2.1-.7 2.8-1.5.7-.8 2.1-1.5 3.1-1.5s2.1-.5 2.4-1c.3-.6 1.9-1 3.4-1 1.6 0 3.4-.7 4.1-1.5.7-.8 2.7-1.5 4.5-1.5 4.4 0 9.5-3 9.5-5.5 0-1.4-1.3-2.6-4.3-3.9-2.3-1-5-2.2-5.9-2.7-1-.5-2.6-.9-3.6-.9s-2.7-.7-3.8-1.5c-1-.8-3.3-1.5-5-1.5-1.7 0-3.7-.7-4.4-1.5-.7-.8-2.5-1.5-4.1-1.5-1.5 0-3.1-.5-3.4-1-.3-.6-1.5-1-2.5-1-2 0-7.5-2.7-9.8-4.8-.7-.6-1.8-1.2-2.3-1.2-1.2 0-4.9-3.2-4.9-4.4 0-.5-.6-1.7-1.3-2.5-2.3-2.8-3.9-11.4-2.7-14.5.5-1.5 1-4.2 1-6 0-1.8.7-4.1 1.5-5.2.8-1 1.5-2.6 1.5-3.5 0-4 7.7-14.6 13.3-18.5 2.3-1.6 6-3.8 8.2-4.8 2.2-1 4.7-2.3 5.5-2.7 1.7-1 44.9-.4 59.5.8zM461 113.6c4.1.3 8.4.9 9.5 1.3 5.1 2.1 11.5 5.3 12 6.2.4.5 1.5.9 2.6.9 1 0 1.9.4 1.9.8 0 .5 1.5 1.6 3.4 2.4 4.2 2.1 18.1 15.1 21.2 20 3.5 5.5 3.4 16.2-.1 21.8-1.4 2.2-2.5 4.3-2.5 4.7-.1.5-.9 1.8-1.9 3-1.7 2-2.9 2.3-9.5 2.3-4.1 0-7.8-.5-8.1-1-.3-.6-4.3-1-8.8-1-4.5 0-10.4-.7-13.1-1.5-2.7-.8-7.9-1.5-11.6-1.5-3.7 0-8.4-.7-10.3-1.5-4.8-2-22.2-2-25.7 0-1.4.8-5 1.4-8.1 1.5-3.1 0-7.3.7-9.3 1.5l-3.7 1.6-4.9-4.3c-6.5-5.7-15-15.3-18.3-20.5-2.3-3.6-2.7-5.4-2.7-11 .1-3.8.6-7.8 1.4-9.1 1.6-3 6.5-6.2 9.3-6.2 1.2 0 2.5-.5 2.8-1 .3-.6 2.7-1 5.2-1 3.3 0 5.9-.8 9.5-3 2.8-1.8 6.2-3 8.1-3 1.9 0 3.7-.3 4.1-.8.9-.8 33.9-3.1 37.6-2.6 1.4.2 5.9.7 10 1zm-193.2 14.7c.8.6 3.6 1.4 6.3 1.9 2.7.4 7 1.2 9.7 1.6 2.6.4 5.9 1.6 7.4 2.6 2.5 1.6 2.7 2.3 3.2 11.4.3 5.3.8 12.3 1.1 15.4l.7 5.8h-6c-3.4 0-7.3-.6-8.9-1.2-1.7-.8-9.5-1.5-19.3-1.8-14-.4-16.4-.7-16.1-2 .3-.8.7-5 1.1-9.2.3-4.2 1.2-8.3 1.9-9.2.8-.9 1.1-3.9.9-8.1-.4-8.7.8-9.6 10.1-8.8 3.6.3 7.2 1 7.9 1.6zm-8.3 42.7c1.5.6 6.8 1 11.9 1 5.8 0 11 .6 13.6 1.5 2.3.8 6.4 1.5 9.1 1.5 2.6 0 5.1.4 5.4 1 .3.5 2.6 1 4.9 1 2.7 0 4.8.6 5.6 1.5.7.8 2.7 1.5 4.4 1.5 1.7 0 4 .7 5 1.5 1.1.8 3 1.5 4.2 1.5 1.3 0 2.6.4 2.9 1 .3.5 1.5 1 2.7 1 1.1 0 3.2.6 4.6 1.4 1.5.8 3.4 1.7 4.2 2 .8.3 2.4 1.2 3.5 1.8 10.5 6.6 12.7 10.7 12.8 23.5.1 8.4-.2 9.5-2.3 11.8-1.3 1.4-2.9 2.5-3.6 2.5-.7 0-3.7 2.2-6.7 5-6 5.5-6.7 5.8-6.7 3.2 0-1-.6-2.6-1.4-3.7-.7-1.1-1.6-3.2-2-4.8-.3-1.5-1.1-2.7-1.6-2.7-.6 0-1-.9-1-2.1 0-1.1-.7-2.7-1.5-3.5-.8-.9-1.5-2.4-1.5-3.5 0-1-.4-1.9-1-1.9-.5 0-1-.9-1-1.9 0-1.7-4.2-6.1-5.9-6.1-1 0-16.1 15-16.1 16 0 .4-1.8 3.5-4 6.8s-4 6.6-4 7.4c0 .8-.7 2.3-1.5 3.4-.8 1-1.5 2.9-1.5 4 0 1.2-.7 2.4-1.5 2.8-.8.3-1.5 1.5-1.5 2.6s-.4 2.8-.9 3.8c-2.4 4.3-4.1 8.6-4.1 10.2 0 .9-.7 2.5-1.5 3.6-.8 1-1.5 3.1-1.5 4.5 0 1.5-.7 3.2-1.5 3.9-.8.7-1.5 2.7-1.5 4.6 0 1.8-.4 3.6-1 3.9-.5.3-1 2.3-1 4.4 0 2.1-.7 6-1.5 8.7-.8 2.7-1.5 7.1-1.5 9.9-.1 2.7-.7 6.1-1.5 7.5-.8 1.4-1.4 4.5-1.5 7 0 2.6-.5 5.1-1 5.6-.6.6-1.3 3.5-1.6 6.5-.3 3-1 6.3-1.5 7.4-.4 1.1-1 3.8-1.1 5.9-.3 3.4-.7 4.1-3.1 4.7-1.6.4-5.4.4-8.5-.2-3.1-.5-14.5-.9-25.2-.9-14.4 0-20.5-.4-23.5-1.5-2.2-.8-6.2-1.4-9-1.5-2.7 0-5.9-.7-6.9-1.5-1.1-.8-2.6-1.5-3.3-1.5-.8 0-2.4-.9-3.6-2-1.2-1.2-3.2-2.3-4.4-2.6-1.3-.4-2.3-1-2.3-1.5s-.8-.9-1.9-.9c-1 0-2.4-.7-3.1-1.5-.7-.8-2-1.5-2.9-1.5-3.2 0-18.6-8.6-23-12.9-4.5-4.3-4.6-4.5-4.7-10.9 0-3.7.5-6.9 1.2-7.6.6-.7 1.4-2.1 1.8-3.2.8-2.5 6-7.6 10.6-10.3 7.6-4.4 15.4-8.1 17-8.1 1 0 2.3-.7 3-1.5.7-.8 2.5-1.5 4-1.5s4.1-.7 5.6-1.5c1.6-.8 3.9-1.5 5.1-1.5 1.2 0 2.5-.5 2.8-1 .3-.6 1.6-1 2.9-1 1.2 0 3.1-.7 4.2-1.5 1-.8 2.6-1.5 3.5-1.5.9 0 3.8-1.2 6.5-2.7 4.6-2.5 5.6-2.7 17-2.5 7.8.1 13.3.7 15.5 1.6 4.2 1.8 22.5 2.1 23.5.4 1-1.6-5.5-6.8-8.3-6.8-1.3 0-4-.7-6-1.5-1.9-.8-6.3-1.5-9.7-1.5-3.4-.1-7.2-.7-8.6-1.5-1.4-.8-4.6-1.4-7.2-1.5-2.6 0-5-.5-5.3-1-.3-.6-2.1-1-3.8-1-1.8 0-4.1-.7-5.1-1.5-1.1-.8-3-1.5-4.2-1.5-1.3 0-2.5-.4-2.8-.9-.3-.5-2.5-1.9-4.8-3.1-2.4-1.3-5.2-2.8-6.3-3.4-4.9-2.6-16.5-12.4-16.5-13.9 0-.6-.7-1.8-1.6-2.8-1.1-1.3-1.6-3.9-1.6-9.8 0-7.5.3-8.4 3.1-12 1.7-2.1 3.1-4.3 3.1-4.8 0-1.7 12-13.1 15.5-14.7 1.9-1 3.5-2.1 3.5-2.6 0-.6.8-1 1.9-1 1 0 2.4-.7 3.1-1.5.7-.8 2.1-1.5 3.1-1.5s2.1-.5 2.4-1c.3-.6 1.7-1 3.1-1 1.4 0 3.5-.5 4.7-1.2 1.2-.7 5.1-1.5 8.7-1.9 3.6-.4 8.1-1.2 10-1.7 4.2-1.2 22.8-.6 26.5.8zm190.2 7.5c2 .9 6.6 1.5 10.7 1.5 3.9 0 9.3.7 12 1.5 3.4 1 9.5 1.5 19.7 1.5 8.8 0 15 .4 15.4 1 .3.5 2.3 1 4.4 1 2.2 0 4.4.6 5.1 1.5.7.8 1.9 1.5 2.7 1.5 1.9 0 6.4 5 8.6 9.7 1 2.1 2.5 5.1 3.3 6.6 1.9 3.9 1.8 9.2-.3 12.5-2.7 4.1-10.6 11.2-12.5 11.2-.9 0-2 .4-2.3 1-.4.6-8.4 1-20.9 1-16.2 0-20.6.3-22.2 1.5-1.2.9-4.2 1.4-7.9 1.5-3.4 0-6.6.5-7.3 1.2-1.3 1.3-15.1 2.9-25.7 3-8.3.1-17.1-1.4-18.7-3-.7-.7-2.2-1.2-3.4-1.2-1.2 0-3.7-.8-5.6-1.7-6-3-6.8-3.3-8.3-3.3-.9 0-1.8-.7-2.1-1.5-.4-.8-1.7-1.5-3-1.5s-2.4-.5-2.4-1c0-.6-1-1.4-2.3-1.9-3.6-1.4-8.7-6.1-8.7-8.1 0-1-.7-2-1.5-2.4-.9-.3-1.5-1.8-1.5-3.4 0-1.6.7-3.5 1.5-4.2.8-.7 1.5-1.9 1.5-2.7 0-1.9 11.3-12.6 15.8-15 1.7-1 3.2-2.1 3.2-2.5 0-.5.8-.8 1.9-.8 1 0 2.4-.7 3.1-1.5.7-.8 2.7-1.5 4.5-1.5 1.8 0 3.8-.7 4.5-1.5 1-1.2 4.3-1.5 18.2-1.5 12.7 0 17.7.4 20.5 1.5zm-79.1 43.4c5.3 4.8 10.5 8.1 12.9 8.1.7 0 1.8.7 2.5 1.5s2.1 1.5 3 1.5c1 0 3.1.6 4.7 1.4 1.5.8 4.2 1.9 5.8 2.6 1.7.7 4.3 1.8 5.8 2.6 1.6.8 3.9 1.4 5.2 1.4 1.2 0 2.8.7 3.5 1.5.7.8 2.5 1.5 4.1 1.5 1.5 0 3.1.4 3.4 1 .3.5 1.9 1 3.5 1s3.2.5 3.5 1.1c.7 1.1-8.2 9.9-10.1 9.9-.6 0-2 1-3.2 2.2-1.1 1.3-3.8 3.1-5.9 4.2-2.1 1-5 2.5-6.5 3.2-1.4.8-4.1 1.4-5.9 1.4-3.4 0-8.4 3.2-13.1 8.5-2.9 3.2-3.4 5-1.8 6 .6.3 1 1.2 1 2 0 1.1-2 1.5-8.2 1.7-7.8.3-8.3.5-9.7 3-1.4 2.5-1.4 2.9.7 5.1 2.1 2.2 7.2 3.8 12.2 3.9 3.6 0 12.6-1.6 13.8-2.5 1.2-1 2.1-.5 7.2 4 1.4 1.3 3.2 2.3 4.1 2.3.9 0 1.9.7 2.3 1.5.3.8 1.6 1.5 3 1.5s2.8.4 3.1 1c.3.5 1.8 1 3.3 1 1.5 0 4 .7 5.6 1.5 1.5.8 4.5 1.5 6.6 1.5 2.1 0 5.4.7 7.3 1.5 2 .8 4.7 1.5 6.1 1.5 1.4 0 3 1 3.9 2.4 1.5 2.2 1.5 2.8 0 6.5-.9 2.3-2 4.1-2.5 4.1-.4 0-.8.8-.8 1.8 0 2-11 13.2-12.9 13.2-.6 0-1.1-.8-1.1-1.8 0-2-6.2-5.2-10.1-5.2-2.7 0-7.4 4.4-10.3 9.5-2.2 3.8-8.5 6.5-15.2 6.5-2.8 0-6.5.5-8.2 1.1-4.4 1.5-8.2-1.1-8.2-5.7 0-1.8-.4-3.6-1-3.9-.5-.3-1-2.1-1-3.8 0-1.8-.7-4.5-1.5-6.1-.8-1.5-1.5-4.3-1.5-6.1 0-1.8-.7-3.8-1.5-4.5-.8-.7-1.5-2.9-1.5-4.9 0-2-.7-4.5-1.5-5.5-.8-1.1-1.5-3.2-1.5-4.7s-.4-3.1-1-3.4c-.5-.3-1-1.7-1-2.9 0-1.3-.7-2.9-1.5-3.6-.8-.7-1.5-2.3-1.5-3.5 0-1.2-.7-2.8-1.5-3.5-.8-.7-1.5-1.9-1.5-2.6 0-1.4-.3-2.2-3.3-8.2-.9-1.9-1.7-4.2-1.7-5.2 0-.9-.7-2.3-1.5-3-.8-.7-1.5-1.8-1.5-2.5s-.7-2.6-1.5-4.1c-.8-1.6-1.5-3.7-1.5-4.7 0-.9-.4-1.7-1-1.7-.5 0-1-1.1-1-2.4 0-1.3-.7-2.9-1.5-3.6-.8-.7-1.5-2.3-1.5-3.5 0-1.2-.7-2.8-1.5-3.5-.8-.7-1.5-2.4-1.5-3.8 0-2.3.2-2.4 4.1-1.8 7.8 1.3 15.4-4.7 19.1-14.9 1.3-3.7 2.9-6.5 3.7-6.5.7 0 3.7 2.2 6.7 4.9zm190.3-2c1.3 1.8 2.1 4.5 2.1 7 0 5-1.7 6.1-9.3 6.1-4.4 0-5.8-.4-7.6-2.4l-2.3-2.4 2.5-3.9c4.9-7.7 11-9.5 14.6-4.4zM321.3 227c.9 1.1 1.7 2.3 1.7 2.6 0 .3.7 2.2 1.6 4.2.8 2.1 2.2 5.3 3.1 7.2.8 1.9 2.1 4.8 2.9 6.3.8 1.6 1.4 3.7 1.4 4.7s.5 2.2 1 2.5c.6.3 1 1.6 1 2.9 0 1.2.7 3.1 1.5 4.2.8 1 1.5 3 1.5 4.4 0 1.4.7 3.4 1.5 4.4.8 1.1 1.5 3.1 1.5 4.4 0 1.3.7 3 1.5 3.8.8.9 1.5 2.8 1.5 4.4 0 1.6.5 3.2 1 3.5.6.3 1 1.9 1 3.4s.7 3.6 1.5 4.7c.8 1 1.5 3.1 1.5 4.5s.7 3.4 1.5 4.5c.8 1 1.5 3 1.5 4.4 0 1.4.7 3.6 1.5 5s1.4 3.7 1.5 5.2c0 1.6.5 2.8 1 2.8.6 0 1 1.5 1 3.3 0 1.8.7 4.2 1.5 5.3.8 1 1.5 3.2 1.5 4.9 0 1.6.7 3.9 1.5 4.9.8 1.1 1.5 3.4 1.5 5.2 0 1.8.4 3.5.9 3.8.4.3 1.1 3.6 1.4 7.2.4 3.7 1.1 7.2 1.7 7.8.5.5 1 4 1 7.6 0 4.3.5 7.3 1.5 8.6.9 1.1 1.4 4.2 1.5 7.7 0 3.2.5 6.7 1.1 7.9 1.1 2 2.3 10.1 3.7 24.5.4 4 1.3 7.8 2 8.5.7.7 1.2 3.8 1.2 7.2.1 3.4.7 7.2 1.5 8.6.8 1.4 1.4 4.8 1.5 7.6 0 2.8.6 6.7 1.4 8.5.8 1.9 1.2 4.6.9 6-.3 1.5.2 4 1.1 5.7.9 1.7 1.6 4.8 1.6 7 0 2.1.7 4.7 1.5 5.8 1.2 1.6 1.4 11.1 1.5 64.6 0 42.5-.3 62.9-1 63.3-1.6 1-5.7-2.1-7.4-5.3-.8-1.5-2.7-3.4-4.3-4.2-1.5-.8-3.2-2.1-3.6-2.7-.4-.7-1.3-1.3-1.9-1.3-.6 0-2.6-1.1-4.4-2.5-1.8-1.4-3.9-2.5-4.7-2.5-.8 0-2-.7-2.7-1.5-.7-.8-2.1-1.5-3.1-1.5s-2.1-.5-2.4-1c-.3-.5-1.9-1-3.4-1-1.6 0-3.4-.7-4.1-1.5-.9-1-3.2-1.5-7.9-1.5-3.8-.1-7.6-.7-9.1-1.5-1.4-.8-4.3-1.4-6.6-1.5-2.2 0-4.4-.4-5-.9-.5-.5-7-1.1-14.4-1.3-7.9-.2-14.4-.9-15.7-1.6-3.3-1.8-27.2-1.6-29.7.3-1.1.8-3.2 1.5-4.7 1.5s-2.9.3-3.1.7c-.6 1.4-9.6 7.2-10.2 6.6-1.2-1.2-.6-4.4.9-4.9.8-.4 1.5-1.8 1.5-3.3 0-1.4.7-3.5 1.5-4.5.8-1.1 1.5-3 1.5-4.2 0-1.3.5-2.6 1-2.9.6-.3 1-1.7 1-2.9 0-1.3.7-2.9 1.5-3.6.8-.7 1.5-2.3 1.5-3.6 0-2.5 2.6-4.4 5.9-4.4 1 0 2.1-.6 2.3-1.2.3-.8 3.4-1.6 7.9-2 13.4-1.3 19.6-2.3 21-3.5.8-.6 3.9-1.3 6.9-1.6 3-.2 7.2-.9 9.4-1.5 6.8-1.8 7.9.2 4.6 8.4-.7 1.7-1 4.2-.6 5.7.8 3.2 10.4 13.7 14.3 15.7 1.5.8 3.6 2.1 4.6 2.9 2.5 2.1 3.4.5 1.4-2.8-.9-1.6-1.7-4.3-1.7-5.9 0-1.7-.4-3.4-1-3.7-.5-.3-1-1.4-1-2.4s-.7-2.4-1.5-3.1c-1.1-.9-1.5-3.4-1.5-9.4 0-12.1.2-11.9-16.2-11.7-11.4.2-13.8 0-15.2-1.4-1.4-1.4-1.6-4.5-1.6-21.5 0-11.9-.4-21-1.1-22.7-.6-1.5-1.3-6.2-1.6-10.3-.2-4.1-.9-7.9-1.4-8.4-.5-.6-.9-2.4-.9-4.2 0-2.9-.6-4.6-4.4-11.9-2-3.9-2.9-12.3-3.3-30.8l-.4-18.7h3.5c1.9 0 3.8-.5 4.1-1 .3-.6 1.9-1 3.4-1s3.6-.7 4.7-1.5c1-.8 2.5-1.5 3.2-1.5 3.1 0 5.2-3.9 5.2-9.5 0-5.4-.1-5.6-6-11.5-4.2-4.2-6.8-6-8.5-6-1.4 0-3.3-.4-4.3-.9-.9-.5-2.5-1.2-3.5-1.5-1.7-.5-1.8-1.4-1.3-8.3 1.4-20.2 2.4-29 3.4-31.6.7-1.6 1.2-6.5 1.2-11s.7-10.4 1.5-13.1c.8-2.7 1.5-7.7 1.5-11 .1-3.8.6-6.8 1.5-8 .8-1.1 1.5-3.2 1.5-4.7s.5-3.1 1-3.4c.6-.3 1-1.7 1-2.9 0-1.3.7-2.9 1.5-3.6.8-.7 1.5-2.1 1.5-3.2s.6-3.2 1.4-4.6c1.2-2.5 2.5-5.3 4-9.2.3-.8 1-2.2 1.4-3 .5-.8 1.7-3.3 2.7-5.5.9-2.2 2.1-4.7 2.6-5.5.4-.8 1.8-3.4 3-5.8 1.3-2.3 2.6-4.2 3.1-4.2.4 0 .8-.8.8-1.7 0-2.1 5.9-8.2 8-8.3.9 0 2.3.9 3.3 2zm206.1 10.6c2.5.4 4.6 1.2 4.6 1.8 0 .7-1.4 2.5-3.1 4.2-1.7 1.6-4 4.6-5.2 6.6-1.1 2.1-2.4 3.8-2.7 3.8-.4 0-1.6 1.9-2.9 4.2-4.2 8.1-7.1 11.8-9.5 11.8-.7 0-1.9.7-2.6 1.5-1.7 2.1-15.8 2.1-18.6 0-1-.8-3.6-1.5-5.6-1.5-2 0-4-.5-4.3-1-.3-.6-2.1-1-3.9-1-1.8 0-4.1-.7-5.2-1.5-1-.8-3.7-1.5-5.9-1.5s-5.1-.7-6.5-1.5c-1.4-.8-4.4-1.4-6.7-1.5-2.3 0-4.4-.4-4.7-.9-.3-.4-2.8-1.1-5.6-1.3-2.8-.3-5.3-.8-5.7-1.1-1-1 2.8-4.7 4.8-4.7 1 0 2.1-.5 2.4-1 .3-.6 1.4-1 2.4-1s2.4-.7 3.1-1.5c.7-.8 2-1.5 2.9-1.5 1 0 2.8-1.1 4.1-2.5 1.3-1.4 3.1-2.5 4-2.5.9 0 2.5-.7 3.6-1.5s4.1-1.4 7.2-1.5c2.9 0 6.3-.6 7.5-1.3 1.4-.8 8.6-1.4 20.2-1.7 9.9-.3 20.1-.7 22.6-.8 2.5-.1 6.7.1 9.3.4zm-99 33.9c2.7.8 6.7 1.5 8.9 1.5 9.2 0 14.7 5.2 14.7 13.8 0 5.3-.8 7.2-3 7.2-1 0-2.3.7-3 1.5-1.7 2.1-14.8 2.1-17.6 0-1.1-.9-4.2-1.4-7.7-1.5-3.1 0-6.5-.4-7.5-1-.9-.5-3.5-1.7-5.7-2.7-4.6-2-12.5-9.7-12.5-12.1 0-.9 1.4-3.1 3.2-4.9l3.2-3.3h11c6.9 0 12.9.6 16 1.5zm30 0c1.5.8 4.9 1.5 7.5 1.5 2.6 0 5.2.5 5.9 1.2.6.6 2.8 1.2 4.9 1.4 2.1.1 4.4.2 5.1.3.6.1 1.2.5 1.2 1.1 0 .6-4.3 1-10.9 1-6.3 0-11.2-.4-11.6-1-.3-.6-1.4-1-2.4-1-2.2 0-7.4-4.3-6.5-5.3 1.1-1.1 3.7-.8 6.8.8zm39.9 11c3.6 1.5 6.7 4.9 6.7 7.3 0 1.4-.1 1.4-32-.4-11-.6-12.8-1.8-9.2-6.2 1.6-2.1 2.5-2.2 16.3-2.2 10.7 0 15.6.4 18.2 1.5zm-91.9 13c1.1.8 3 1.5 4.2 1.5 1.3 0 2.6.4 2.9 1 .3.5 2.3 1 4.3 1s5 .7 6.6 1.5c2 1.1 5.9 1.5 13.2 1.5H448l6.7-4.1c6.5-4 6.8-4.1 9.8-2.6 1.6.8 3.8 1.8 4.8 2.1 1.4.4 1.7 1.7 1.7 6.8 0 8.5-.5 9-7.6 8.6-5.3-.3-5.9-.5-6.4-2.8-.6-2.4-.9-2.5-9-2.7-23.3-.6-36-3.4-42.7-9.2-3.8-3.2-2.8-5.5 1.1-2.6zm316.4 4.7c.7.7 1.2 2.9 1.2 4.9 0 2.1.5 4.1 1 4.4.6.3 1 2.6 1 4.9 0 2.7.6 4.8 1.5 5.6.9.7 1.5 2.9 1.5 5.1 0 2.1.7 5.4 1.6 7.3.9 1.9 1.4 4.1 1.1 5-.7 1.8-5.2 2.1-9 .7-4-1.6-35.4-1.8-36.8-.4-3.9 3.9-13.9-1.9-13.9-7.9 0-1.6-.7-3.9-1.5-5.2-1.2-1.8-1.5-4.8-1.3-13.2.3-10.3.4-10.9 2.3-10.5 6.8 1.3 16.2 1.1 19-.3 3.8-2 30.4-2.3 32.3-.4zm-259.4 24c.9 1.7 1.6 4.8 1.6 7 0 2.9 1 5.2 4.4 9.9l4.4 6-.6 14.8c-.3 10.7-.1 15.8.8 18.2.7 1.9 1.6 5.4 2 7.9.7 4.3 2.4 9.7 4 13 .4.9 1.1 3.5 1.5 5.8.4 2.3 1.1 4.4 1.6 4.8.5.3.9 4.4.9 9.2 0 4.8.7 10.9 1.5 13.6.8 2.7 1.5 7.1 1.5 9.8 0 4.3-.3 5-2.6 5.8-1.4.6-13 1-25.9 1-26 0-26.3-.1-26.3-6.6 0-2-.5-4.1-1.1-4.7-.6-.6-1.1-2.7-1.1-4.7-.1-1.9-.7-4.6-1.5-6-.8-1.4-1.4-4.1-1.5-6 0-2-.5-4.1-1.2-4.8-2-2-3.1-11.8-3-27.2 0-16.5.8-23.4 2.8-25.1.8-.6 1.4-2.6 1.4-4.4 0-1.8.7-3.8 1.5-4.5.8-.7 1.5-2.4 1.5-3.9 0-1.9 1-3.2 3.8-4.8 2-1.3 5.4-3.7 7.4-5.5 3.4-2.8 4.1-3 6.4-2 1.4.7 3 1 3.5.7.5-.4.9-5.1.9-10.6V321h4.9c4.6 0 5.1.3 6.5 3.2zM713.5 343c1.4.5 6.4 1.1 11 1.3 4.8.2 9 .8 9.7 1.5.7.7 3.5 1.2 6.2 1.2 2.8.1 6.2.7 7.6 1.5 1.4.8 3.5 1.4 4.8 1.5 1.2 0 3 .4 4 .9.9.4 3.5 1.7 5.7 2.7 2.2 1 4.4 2.4 4.8 3.1.4.7 1.4 1.3 2.1 1.3 1.5 0 5 3.7 5.9 6.2.4 1 1.1 1.8 1.7 1.8.5 0 1 .6 1 1.4 0 .7.7 1.9 1.5 2.6.8.7 1.5 2.5 1.5 4s.7 4.1 1.5 5.6c2 3.9 2 13.7 0 15.4-.8.7-1.5 1.8-1.5 2.5 0 2.4-11.8 13-17.7 15.8-3.2 1.6-7.1 3.5-8.6 4.3-1.6.8-3.9 1.4-5.2 1.4-1.3 0-2.7.4-3 1-.3.5-2 1-3.6 1-1.7 0-4.2.6-5.7 1.4-2.4 1.2-14.9 2.7-23.7 2.9-6.9.1-16.5-2.2-22.7-5.4-1-.5-2.5-.9-3.4-.9-.9 0-2.8-.6-4.2-1.4-1.5-.8-3.4-1.7-4.2-2-.8-.3-2.2-1-3-1.5-.8-.5-2.8-1.4-4.5-2.1-1.6-.7-3.8-1.7-4.8-2.2-1-.5-3.7-1.9-6-3-2.3-1.2-5.6-3.2-7.4-4.5-1.7-1.2-3.6-2.3-4-2.3-1.4 0-6.7-6-9.7-10.7-2.7-4.4-3.7-13.5-1.6-14.8.6-.3 1-1.5 1-2.6 0-5.6 23.1-24.9 29.7-24.9 1.1 0 2.4-.5 3.1-1.2.6-.6 3.9-1.2 7.4-1.4 3.5-.1 7.4-.7 8.8-1.3 3.2-1.3 22.1-1.4 25.5-.1zm-313.3 20c-.4 9.9-1.6 11-11.7 11-8.9 0-10.5-1.2-10.5-7.7 0-6.7 1.8-8.3 9.4-8.3 3.8-.1 6.8-.6 8.1-1.6 4-3 5-1.5 4.7 6.6zm-136.6-.3c.3 1 1 2.6 1.5 3.5.5 1 .9 3.1.9 4.8 0 2.3-.4 3-2 3-1.1 0-2.8.4-3.8.9-7.2 3.5-9.3 4.2-12.8 4.3-2.9.2-4.7-.4-6.2-1.8l-2.3-2.1 3.9-4c4.1-4.2 11.5-8.3 15-8.3 1.1 0 2.4-.5 2.7-1 1-1.6 2.5-1.2 3.1.7zm245.6 17c15.5 15.7 18.8 19.5 18.8 21.5 0 .9.3 1.8.8 2 1 .4 4.2 6.7 4.2 8.3 0 .7.7 1.5 1.5 1.9.8.3 1.5 1.4 1.5 2.4 0 1.1.7 2.5 1.5 3.2.8.7 1.5 2.1 1.5 3.1 0 1.1.5 1.9 1 1.9.6 0 1 .8 1 1.9 0 1 .7 2.4 1.5 3.1.8.7 1.5 2.1 1.5 3.2 0 1 .7 2.1 1.5 2.4.8.4 1.5 1.7 1.5 3s.5 2.4 1 2.4c.6 0 1 .8 1 1.9 0 1 .7 2.4 1.5 3.1.8.7 1.5 2 1.5 3s.7 2.3 1.5 3c.8.7 1.5 2.2 1.5 3.4 0 1.1.7 3 1.5 4 1.2 1.5 1.5 5.1 1.5 15.2 0 15.6-.1 15.7-11.7 16.8l-7.3.6v-6.5c0-3.6-.7-8.2-1.5-10.2-.8-1.9-1.5-5.4-1.5-7.7s-.7-5.1-1.5-6.2c-.8-1-1.5-3.3-1.5-5.1 0-1.7-.4-3.4-.9-3.7-.5-.3-1.2-2.2-1.6-4.2-.3-2-1-4.4-1.5-5.3-.4-.9-1.6-3.4-2.5-5.6-1-2.2-2.2-4.7-2.7-5.5-.4-.8-1.1-2.2-1.4-3-1.5-3.8-4.2-8.9-7.1-13.8-1.8-2.9-3.3-5.4-3.3-5.7 0-1.4-7.3-10.8-11.7-15.2l-5.3-5.1v-9.4c0-8.8.4-10.8 2-10.8.3 0 5.8 5.3 12.2 11.7zm-223.7 2.2c4.6 2.7 5 3.2 5.3 7.1.5 7-5.8 11.6-14.5 10.7-9.2-1.1-15.4-2.4-16.5-3.5-.7-.7-2.1-1.2-3.3-1.2-1.2 0-3.5-1.4-5.3-3.1-2.7-2.6-3-3.3-1.9-5 .7-1.1 2.4-2.3 4-2.6 1.5-.3 2.7-.9 2.7-1.4 0-.5 1.7-.9 3.8-.9 2.1 0 4.7-.7 5.8-1.5 1.2-.9 4.2-1.4 8.4-1.4 5.3 0 7.4.5 11.5 2.8zm107.1.1c7 0 7.4.1 7.4 2.2 0 4 3.2 22.3 4.1 23.2.5.6.9 2 .9 3.3 0 1.3.7 2.6 1.5 2.9.8.4 1.5 1.4 1.5 2.4 0 1.1.5 2.2 1.1 2.5.5.4 1.4 1.7 1.9 3 .7 1.7 1.8 2.5 4.2 2.7 3 .3 3.3.7 3.6 3.8.2 1.9.8 4 1.4 4.7 1 1.3 2.5 9.3 3.5 19 .2 2.9 1.1 5.7 1.9 6.4.8.6 1.4 2.9 1.4 5.3 0 2.3.7 5.1 1.5 6.2.8 1 1.5 3.6 1.5 5.6 0 2 .5 4 1 4.3.6.3 1 2.5 1 4.8.1 2.3.7 5.3 1.5 6.7 2.2 3.9 2.1 69.3-.1 78.1-.9 3.4-1.4 7.7-1.1 9.5.3 2 0 3.9-.8 5.1-.8 1-1.5 2.9-1.5 4.3s-.7 3.4-1.5 4.4c-.8 1.1-1.5 3.6-1.5 5.6 0 1.9-.6 4.5-1.4 5.6-.8 1.1-1.6 4.6-2 7.9-1.3 14.9-2.4 21.7-3.4 22.7-.7.7-1.2 3.3-1.2 5.9 0 2.6-.8 6.2-1.7 8.1-.9 1.8-1.9 4-2.3 4.8-.4.8-1.8 1.7-3.1 1.8-1.3.2-3.2 1-4.3 1.8-2.3 1.6-10.3 1.9-12.5.5-1.2-.7-1.3-3.3-.8-13.8.3-7.1 1.1-14.2 1.7-15.7 1.6-4.2 1.6-119.1 0-123.1-.7-1.7-1.6-10.7-2.1-20-1.8-31.9-2.4-39-3.6-41.2-.7-1.2-1.3-4.8-1.3-8-.1-3.2-.7-6.9-1.5-8.3-.8-1.4-1.4-5.2-1.5-8.6 0-3.5-.7-7.4-1.6-9.3-1-2-1.4-4.6-1.1-6.5.3-1.7-.1-4.9-.9-7.1-1.4-4.2-1.9-12.7-.7-13.9.4-.3 1.3-.4 2.1-.1.7.3 4.7.5 8.8.5zm-255 11.5c3.5 1.1 9.8 1.5 22.4 1.5 12.1 0 18.3.4 20 1.3 2.5 1.2 2.5 1.4 2.8 15.6.1 8-.1 14.7-.5 15.1-.4.4-5.3.2-10.8-.3-15.2-1.5-37.2-.8-42 1.3-1.1.5-5.5 1.1-9.7 1.5-6.5.5-7.8.3-7.8-.9 0-.8.5-1.8 1-2.1.6-.3 1-1.5 1-2.5s.7-3.1 1.4-4.7c.8-1.5 1.7-3.5 2-4.3.3-.8 1-2.2 1.5-3 .5-.8 2.1-4.2 3.7-7.5 6.4-13.5 6.5-13.6 15-11zM511 421.2c0 .7 1.4 2.6 3 4.2 1.7 1.6 3 3.4 3 3.9 0 .6.8 1.9 1.7 2.9 1 1.1 1.6 3.5 1.6 6.2 0 2.5-.7 5.6-1.6 7-.9 1.4-1.7 3.6-1.7 4.8 0 1.3-.7 3.2-1.5 4.2-.8 1.1-1.5 3.1-1.5 4.4 0 3.7-2.5 2.1-2.8-1.9-.2-1.9-.8-3.8-1.3-4.4-.5-.5-.9-2.5-.9-4.5 0-1.9-.7-4.8-1.5-6.4-.8-1.5-1.5-4.7-1.5-7 0-2.2-.7-5-1.5-6-1.5-2-2.2-13.6-.8-14.9.8-.9 7.3 5.8 7.3 7.5zm261 1.3c1.4.8 4.3 1.5 6.5 1.5s5.1.7 6.5 1.5c1.4.8 4 1.4 5.8 1.5 1.7 0 3.2.4 3.2 1 0 .5 1.2 1 2.6 1 1.4 0 3.8.6 5.2 1.4 1.5.8 3.4 1.7 4.2 2 .8.3 2.2 1 3 1.5.8.5 2.6 1.3 4 1.8 5.5 2.2 12 5.5 12.5 6.4.4.5 1.3.9 2.1.9s2.7 1.1 4.2 2.5 3.1 2.5 3.7 2.5c1.5 0 16.5 15 16.5 16.4 0 .7 1.1 2.3 2.5 3.6 1.4 1.3 2.5 3.1 2.5 3.9 0 .9.7 2.5 1.5 3.5.8 1.1 1.5 2.9 1.5 4.1 0 1.2.6 2.7 1.3 3.4.8.8 1.2 4.7 1.2 12.4-.1 11.1-.1 11.2-3.7 16.8-3.4 5.3-8.3 9.9-10.7 9.9-.5 0-1.4.6-1.8 1.3-1.1 1.7-11 6.7-13.3 6.7-1 0-2.3.7-3 1.5-.7.8-1.9 1.5-2.7 1.5-1.7 0-10.8 2.8-13.5 4.1-1 .5-3 .9-4.5.9-1.6 0-3.7.7-4.7 1.5-1.1.8-3.6 1.5-5.6 1.5-2 0-4 .4-4.6 1-.5.5-2.9 1.2-5.4 1.5-2.4.3-4.9 1-5.4 1.5-.6.6-3.1 1-5.7 1-2.8 0-5.1.6-5.8 1.4-.7.8-3.5 1.7-6.4 2-16.3 1.7-21.9 2.5-23.2 3.6-1 .8-10 1.1-31.2 1.1-25.1 0-30.3-.2-32.8-1.5-1.6-.9-4.9-1.6-7.2-1.6s-4.5-.5-4.8-1c-.3-.6-1.9-1-3.4-1-1.6 0-3.4-.7-4.1-1.5-.7-.8-1.9-1.5-2.8-1.5-2.1 0-9.2-3.2-9.2-4.2 0-.4-.8-.8-1.7-.8-1.7 0-17.3-14.7-17.3-16.3 0-.4-1.1-2.5-2.5-4.5s-2.5-4.6-2.5-5.8c0-1.2-.7-2.7-1.5-3.4-1.2-1-1.5-3.6-1.5-11.5s.3-10.5 1.5-11.5c.8-.7 1.5-2.5 1.5-4s.7-3.3 1.5-4c.8-.7 1.5-2 1.5-3s.7-2.3 1.5-3c.8-.7 1.5-1.7 1.5-2.2 0-.5 2.2-4.2 4.8-8.1 2.7-4 5.1-8 5.5-9 .3-.9 1.1-1.7 1.6-1.7s1.1-1.1 1.5-2.3c.7-2.8 16.9-18.7 19-18.7.7 0 2.7-.7 4.2-1.5 1.6-.8 3.7-1.5 4.6-1.5.9 0 1.8-.5 2-1.2.5-1.4 12.3-1.4 14.1 0 1.9 1.5 24.2 2.3 34.7 1.2 17.9-1.8 23.5-2.7 25.7-3.8 1.2-.7 3.9-1.2 6.1-1.2 2.2 0 5.5-.7 7.3-1.5 4.3-1.8 8.7-1.8 11.9 0zm-599.6 11c2.7.8 7.7 1.5 11.2 1.5 3.5 0 6.6.4 6.9 1 .3.5 2.7 1 5.3 1 2.6.1 5.8.7 7.2 1.5 1.4.8 3.9 1.5 5.5 1.5 1.7 0 4.1.7 5.5 1.5 1.4.8 3.7 1.4 5.2 1.5 1.5 0 3 .4 3.3 1 .3.5 1.4 1 2.3 1 1 0 4.4 1.4 7.7 3.2 3.3 1.7 7.3 3.8 8.8 4.5 1.5.8 5.4 3.9 8.5 6.8 10.4 9.8 17.3 29.1 12.8 36-.9 1.3-1.6 4-1.6 5.8 0 1.9-.7 4-1.5 4.7-.8.7-1.5 1.9-1.5 2.6 0 2.6-8.5 13.2-12 15-1.9 1.1-3.9 2.4-4.3 3.1-.4.7-1.7 1.3-2.7 1.3-1 0-2.2.4-2.5 1-.3.5-1.6 1-2.9 1-1.2 0-3.1.7-4.2 1.5-1.6 1.2-8 1.4-39.1 1.5-20.9 0-39.3.4-42 1-13.6 2.8-62.6 5.1-64.7 3-.5-.5-1.9-1-3-1.1-1.2 0-4.1-1.1-6.6-2.4-2.5-1.3-5.5-2.9-6.8-3.4-4-1.9-20.8-19.4-21.7-22.6-1.7-6.5-.4-18.3 2.1-19.8.8-.4 1.4-1.6 1.4-2.6s1.1-2.8 2.5-4.1c1.4-1.3 2.5-2.8 2.5-3.4 0-.9 7.8-9.9 13.7-15.9 3.9-3.8 10.1-8.7 11.2-8.7.6 0 2.8-1 4.9-2.3 2-1.2 5.3-3 7.2-3.9 1.9-.9 5.9-2.8 8.8-4.2 3-1.4 6-2.6 6.7-2.6.7 0 1.8-.7 2.5-1.5.7-.9 2.9-1.5 5.1-1.5 2.1 0 4.1-.5 4.4-1 .3-.6 3.6-1 7.3-1 3.7-.1 8.1-.7 9.7-1.5 4.4-2 30.4-2 36.9 0zm316 25c.9 1.3 1.6 3.5 1.6 4.9 0 1.4.5 2.8 1 3.1.6.3 1 2.1 1 3.9 0 1.9.7 3.9 1.5 4.6.8.7 1.5 2.7 1.5 4.5 0 1.8.7 3.8 1.5 4.5.8.7 1.5 2.7 1.5 4.4 0 1.7.7 3.9 1.4 4.9.8 1 1.2 2.7.9 3.7-.3 1.1.2 3.1 1.1 4.5.9 1.3 1.6 3.5 1.6 4.8 0 1.3.7 3.2 1.5 4.3.8 1 1.5 3 1.5 4.4 0 1.4.7 3.4 1.5 4.4.8 1.1 1.5 3.2 1.5 4.7s.5 3.1 1 3.4c.6.3 1 1.9 1 3.4s.7 3.6 1.5 4.7c.8 1 1.5 3.2 1.5 4.9 0 1.6.7 3.9 1.5 4.9.8 1.1 1.5 3.5 1.5 5.3 0 1.9.6 4.4 1.4 5.6.8 1.2 1.6 4.6 1.7 7.5.4 6.7-1.5 9.2-6.9 9.2-2.1 0-4.2.4-4.8.9-.5.4-3 1.1-5.5 1.4-4.5.6-4.6.5-6.2-2.9-1-2-1.7-6-1.7-9.7-.1-3.5-.7-7.3-1.5-8.7-.8-1.4-1.4-4.2-1.5-6.2 0-2-.4-4-1-4.3-.5-.3-1-2.5-1-4.9 0-2.3-.7-5.1-1.5-6.2-.8-1-1.5-3.7-1.5-6 0-2.2-.7-4.9-1.5-6-.8-1-1.5-3.1-1.5-4.5 0-1.5-.7-4-1.5-5.5-.8-1.6-1.5-3.9-1.5-5.1 0-1.2-.4-2.5-1-2.8-.5-.3-1-1.7-1-2.9 0-1.3-.7-2.9-1.5-3.6-.8-.7-1.5-2-1.5-3s-.7-2.3-1.5-3c-.8-.7-1.5-1.8-1.5-2.4 0-1.6-3.7-4.9-7.5-6.5-1.6-.7-3.8-1.7-4.7-2.2-2.7-1.4-5.1-1-7.8 1.1-2.2 1.6-2.5 2.6-2.3 7.2.1 2.9.7 8.7 1.3 12.8.6 4.1 1.4 10.1 1.8 13.2.4 3.2 1.3 6.3 2 7 .7.7 1.2 3.3 1.2 5.8s.5 5.1 1.2 5.8c1.9 1.9 3.1 23 3.1 55.2 0 30.9-1 46.1-3.1 48.2-.6.6-1.2 2.2-1.2 3.4 0 1.4-2.2 4.2-6.1 7.8l-6 5.6h-8.2c-6.3 0-8.7-.5-10.5-1.8-2.3-1.8-2.3-1.9-.8-5.6.9-2.1 1.6-5.4 1.6-7.3 0-1.9.5-4.4 1.2-5.6 1.1-2.1 1.6-4.1 3.6-16.7.5-2.8 1.4-5.6 2-6.2.7-.7 1.2-4.1 1.2-7.9 0-3.6.7-8.6 1.5-10.9.8-2.3 1.5-7.5 1.5-11.5 0-4.2.6-8.8 1.5-10.8.8-2.1 1.5-6.7 1.5-10.6 0-3.8.5-7.3 1-7.6.6-.3 1-3.6 1-7.2 0-3.7.7-9.3 1.6-12.5 1.4-5 1.5-6.7.4-11.6-.6-3.1-1.6-10.4-2.1-16.2-2.1-23.2-2.5-26.6-3.7-28.7-.6-1.2-1.2-4.8-1.2-8.1v-5.9l16.3-.6c8.9-.4 17.6-1.1 19.2-1.6 1.7-.5 5.3-1 8.1-1 4.4-.1 5.4.3 6.8 2.4zm38.3 8.5c.8 1.6 1.3 6.8 1.3 14.2 0 6.7.4 11.9 1 12.3.6.3 1 1.4 1 2.3 0 .9.6 2.9 1.4 4.3.7 1.4 1.6 3.7 1.9 5.1.4 1.5 2.2 3.6 4.2 4.8 2.4 1.5 3.5 2.9 3.5 4.6 0 2.4-.1 2.4-9 2.4-8.6 0-9 .1-9.6 2.4-.3 1.4.1 3.7 1 5.4.9 1.7 1.6 4.2 1.6 5.5 0 1.3.7 3.2 1.5 4.3.8 1 1.5 2.6 1.5 3.5 0 .9.7 3 1.5 4.5.8 1.6 1.5 3.7 1.5 4.6 0 .9.5 2 1 2.3.6.3 1 1.7 1 2.9 0 1.3.7 2.9 1.5 3.6.8.7 1.5 2.3 1.5 3.6 0 1.2.5 2.6 1 2.9 1.3.8-.6 3.5-2.4 3.5-1.7 0-4.6-5.3-4.6-8.3 0-1.4-.4-2.9-1-3.2-.5-.3-1-1.9-1-3.4 0-1.6-.6-3.4-1.4-4-.8-.6-1.6-2.6-1.9-4.4-.5-3.2-2.2-8.7-3.8-11.9-.5-1-.9-2.8-.9-4.1 0-1.3-.7-3.2-1.5-4.3-.8-1-1.5-3.3-1.5-4.9 0-1.7-.7-3.9-1.5-4.9-.8-1.1-1.5-3.4-1.5-5 0-1.7-.7-4-1.5-5-.8-1.1-1.5-3.4-1.5-5.2 0-1.8-.4-3.6-1-3.9-.5-.3-1-2.1-1-3.9 0-1.8-.7-4.1-1.5-5.2-.8-1-1.5-3.4-1.5-5.3s-.7-4.2-1.6-5.2c-3.1-3.4-1.1-4.9 6.3-4.9 5.9 0 7.2-.3 9.3-2.5 3-2.9 5-2.8 6.7.5zm-251.3 35.5c.3 4.4.9 13.2 1.3 19.5.5 6.3 1.2 12 1.6 12.7 1.3 2-1.4 6.3-4 6.3-1.2 0-2.3.4-2.3 1 0 .5-.8 1-1.9 1-1 0-2.4.7-3.1 1.5-1.8 2.2-6.3 1.8-11.6-1-2.6-1.4-5.3-2.5-6.1-2.5-.7 0-1.6-.7-1.9-1.5-.4-.8-1.5-1.5-2.5-1.5s-1.9-.3-1.9-.8c0-1.3 5.5-6.8 8.3-8.2 3.6-1.8 12.7-10.9 12.7-12.7 0-.7.4-2.1.9-3.1 2.1-3.9 4.1-8.6 4.1-9.7 0-.7.7-1.8 1.5-2.5s1.5-2.5 1.5-4c0-2.9 1-4.5 2.1-3.3.4.5 1 4.4 1.3 8.8zm190.8-1.8c1 .9 1.8 2.1 1.8 2.7 0 .6 1.1 2.3 2.5 3.8s2.5 3 2.5 3.4c0 .4 1.4 2.9 3 5.6 1.9 3.1 3 6.2 3 8.6 0 2.1.4 4.2.9 4.7.5.6 1.2 4.5 1.4 8.8.2 4.3.9 8.3 1.6 9 .6.6 1.1 4.4 1.1 8.8 0 4.5.6 9.1 1.5 11.2.8 2.1 1.5 6.7 1.5 10.5 0 6.3-.2 7-3.1 9.8-3.7 3.4-7.9 9.8-7.9 11.8 0 .7-.6 2.6-1.4 4.1-1.4 2.7-1.1 10.2.5 12 .5.5.9 1.9.9 3.2 0 2.4 11.3 15.3 13.4 15.3.7 0 3 1.5 5.2 3.4 3.5 3.1 3.7 3.5 1.9 4.1-1.1.4-2.8 1.1-3.7 1.6-1 .5-2.4.9-3.2.9-.7 0-1.9.7-2.6 1.5-.7.8-2.1 1.5-3 1.5-1 0-3.1.6-4.7 1.4-9.3 4.7-13.2 5.3-16.6 2.6-2.7-2.2-3.6-5.4-1.7-6.5.6-.3 1-1.4 1-2.4s.7-2.4 1.5-3.1c.8-.7 1.5-2.3 1.5-3.6 0-1.2.7-2.9 1.5-3.8.8-.8 1.5-2.9 1.5-4.6 0-1.7.6-4.3 1.4-5.8 1.9-3.8 1.8-81.4-.1-83.3-.7-.7-1.3-2.9-1.3-4.9 0-1.9-.7-4.4-1.5-5.4-.8-1.1-1.5-4.1-1.5-6.7 0-2.6-.7-6-1.5-7.5-1.8-3.5-2.1-14.4-.3-14.4.6 0 2 .7 3 1.7zm104.9 1.9c.8.8 2.3 1.4 3.2 1.4.9 0 1.7.4 1.7 1 0 .5-.8 1-1.7 1-1 0-3.1.7-4.7 1.5-1.5.8-3.9 1.5-5.1 1.5-1.2 0-3.6.7-5.1 1.5-1.6.8-5.4 1.5-8.5 1.5-6.7 0-10.3-2.8-9.7-7.6l.3-2.9 9.5-.6c11.5-.7 18-.1 20.1 1.7zm27.5 13.7c0 2.1.6 4.3 1.2 4.9.7.7 1.2 3.5 1.2 6.2.1 2.8.7 6.2 1.5 7.6.8 1.4 1.5 4.7 1.5 7.5 0 2.7.7 6.1 1.5 7.5 1.6 2.8 1.9 10.7.5 13-.7 1.2-4.3 1.6-16.7 2.2-8.7.3-21 1-27.4 1.4l-11.7.7-3.1-4.3c-1.7-2.4-3.1-5.1-3.1-6 0-1-.7-2.3-1.5-3-.8-.7-1.5-2.1-1.5-3.1 0-1.9-.2-2.6-3.3-8.7-.9-1.9-1.7-4.1-1.7-5 0-.9-.7-2.6-1.5-3.6-1.8-2.4-1.9-5.8-.3-7.4.7-.7 3.7-1.2 6.7-1.2 3.3-.1 6.4-.7 7.5-1.5 1.1-.8 3-1.5 4.3-1.5 1.3 0 2.3-.5 2.3-1 0-.6.8-1 1.9-1 1 0 2.4-.7 3.1-1.5.7-.8 2.2-1.5 3.4-1.5 1.1 0 3-.7 4-1.5 1.1-.8 3.7-1.5 5.7-1.5 2.1 0 4.1-.5 4.4-1 .4-.7 4.6-1 10.8-.8l10.1.3.2 3.8zm-366.7 26.5c3.4.5 6.8 1.5 7.4 2.1.6.6 1.9 1.1 2.9 1.1 2 0 8.7 3.2 8.8 4.2 0 .3-1.4.9-3 1.3-6.1 1.3-9 3.4-9 6.5 0 1.6-.4 3.2-1 3.5-.5.3-1 1.4-1 2.3 0 .9-.7 3-1.5 4.6-.8 1.5-1.5 3.6-1.5 4.5 0 1-.7 2.6-1.5 3.7-.8 1-1.5 3-1.5 4.4 0 1.4-.7 3.4-1.5 4.4-.8 1.1-1.5 3-1.5 4.2 0 1.3-.4 2.6-1 2.9-.5.3-1 1.6-1 2.9 0 1.9-4.6 6.6-6.5 6.6-.3 0-2.3 1.5-4.3 3.4-6.3 5.8-8.5 7.6-9.3 7.6-1.8 0-15.9 14.3-15.9 16.1 0 1.1-.4 1.9-.8 1.9-1.1 0-3.2 8.9-4 16.9l-.7 6.4-7 1.8c-4.6 1.2-10.6 1.9-17.3 1.9-5.7 0-11.1.4-12.1 1-2.9 1.5-49.7 1.8-51.2.3-.7-.7-2.2-1.3-3.3-1.3-1.2 0-3.4-.7-5-1.5-1.5-.8-3.4-1.5-4.1-1.5-.8 0-2.6-.6-4.2-1.4-1.5-.8-5.5-2.6-8.8-4.1-9.6-4.3-12.5-5.9-12.5-6.7 0-.5-.9-.8-2-.8s-2.3-.7-2.6-1.5c-.4-.8-1.4-1.5-2.3-1.5-.9 0-3.4-1.6-5.6-3.6-2.2-1.9-5.1-4.1-6.6-4.9C36.3 628.6 24 614.3 24 612c0-.6-.7-1.8-1.5-2.6-.8-.9-1.5-2.4-1.5-3.4s-.4-2.2-1-2.5c-1.9-1.2-1.2-14.7 1-19C24.8 577 41.7 562 46.3 562c.8 0 2-.7 2.7-1.5.7-.8 2.7-1.5 4.6-1.5 1.8 0 3.6-.5 3.9-1 .3-.6 2.2-1 4.1-1 1.9 0 5.1-.7 7.1-1.5 1.9-.8 5.4-1.5 7.7-1.5s4.7-.5 5.3-1.1c1.1-1.1 12.4-2.7 25.8-3.6 4.4-.2 8.6-1 9.4-1.6.8-.7 4.4-1.5 8-1.9 10.3-1.1 24-3.4 24.8-4.2 1.1-1 74.9 0 82.2 1.2zM611 571.5c3 .8 8.3 1.5 11.7 1.5 3.4 0 6.5.4 6.8 1 .3.5 2.3 1 4.4 1 2.2 0 4.4.6 5.1 1.5.7.8 2.7 1.5 4.6 1.5 1.8 0 3.5.4 3.9.9.3.5 2 1.3 3.7 1.7 6.3 1.3 17.8 10.1 17.8 13.5 0 .9.7 2.2 1.5 2.9 1.1.9 1.5 3.2 1.5 8.3 0 6-.4 7.5-2.5 10.3-2.6 3.4-3.6 4-12.2 8.3-6.5 3.2-8.2 3.9-12 4.6-1.8.4-3.3 1.1-3.3 1.6s-1.7.9-3.7.9c-2.1 0-4.7.7-5.7 1.5-1.1.8-3.9 1.5-6.2 1.5-2.4 0-4.6.4-4.9 1-.3.5-3 1-5.8 1-2.9 0-6.2.6-7.3 1.4-1.1.8-4.9 1.6-8.4 1.8-3.6.3-9.1 1-12.2 1.7-4.4.9-7.9.9-14.5.1-10.7-1.3-48.9-3.1-52-2.3-1.2.3-3.2-.2-4.5-1.1-1.2-.9-3.5-1.6-5-1.6-1.6 0-2.8-.5-2.8-1 0-.6-.7-1-1.6-1-.9 0-3.3-1.4-5.4-3-2.1-1.7-4.3-3-4.9-3-1.6 0-13.1-11.8-13.1-13.4 0-.8-.7-1.9-1.5-2.6-2.3-1.9-1-7.5 3-13.1 2-2.7 4-4.9 4.3-4.9.4 0 2.6-1.8 4.9-3.9 5.8-5.5 8.4-7.1 11-7.1 1.3 0 2.3-.5 2.3-1 0-.6 1.2-1 2.8-1 1.5 0 4-.7 5.6-1.5 1.5-.8 4.5-1.5 6.5-1.5 2-.1 4.7-.7 6.1-1.5 1.4-.8 4.4-1.4 6.7-1.5 2.3 0 4.5-.5 4.8-1 .3-.6 4.1-1 8.3-1.1 4.2 0 10.9-.6 14.7-1.3 10.1-2 40.5-2 47.5-.1zm-301.6 16c2.7.8 7.5 1.5 10.7 1.5 3.2 0 6.1.4 6.4 1 .3.5 2.3 1 4.4 1 2 0 4.6.7 5.7 1.5 1 .8 2.8 1.5 3.8 1.5 2.2 0 15.9 6.4 17.8 8.3 1.7 1.7 7.7 4.7 9.5 4.7 1.8 0 13.3 11.7 13.3 13.6 0 .8.7 2.2 1.5 3.1.9.8 1.3 2.3 1 3.2-.2.9.2 2.9 1 4.5 2 3.8 2 15.4 0 18-.8 1.1-1.5 3-1.5 4.2 0 2.8-10.5 14.4-13 14.4-1.1 0-2.2.5-2.5 1-.8 1.3-12 7-13.6 7-.7 0-2 .6-2.8 1.4-3.4 3-11.6 6.6-15 6.6-2 0-4.6.6-5.7 1.4-1.1.8-4.9 1.7-8.4 2-19.7 1.6-27.8 2.6-30.3 3.5-1.6.6-5.1 1.1-7.9 1.1-3.4 0-5.8.6-7 1.7-2.9 2.6-2.1 3.3 4 3.3 3.1 0 7 .7 8.6 1.5 1.5.8 3.8 1.5 5 1.5 1.2 0 3.1.7 4.2 1.5 1 .8 2.9 1.5 4.1 1.5 1.2 0 2.5.4 2.8 1 .3.5 1.9 1 3.4 1 1.6 0 3.4.7 4.1 1.5.7.8 2.1 1.5 3 1.5 1 0 3.1.6 4.7 1.4 1.5.8 4.2 2 5.8 2.6 1.7.7 3.7 1.6 4.5 2.1.8.5 2.2 1.2 3 1.5 7.2 3 9 3.9 9 4.6 0 .4.6.8 1.4.8.8 0 3.1 1 5.2 2.2 4.6 2.9 19.3 16.6 20.5 19.3.5 1.1 1.8 3.3 2.8 5 1.1 1.6 2 4.4 2 6.1.1 1.7.7 5 1.5 7.2 1.3 3.6 1.3 4.7-.1 9.4-.9 2.9-2.2 6.7-2.9 8.3-2.3 5.4-18.9 19.5-22.8 19.5-.8 0-1.9.7-2.6 1.5-.7.8-1.8 1.5-2.5 1.5s-2.6.7-4.1 1.5c-1.6.8-3.7 1.5-4.6 1.5-1 0-1.8.4-1.8 1 0 .5-1.2 1-2.7 1-1.6 0-3.7.7-4.7 1.5-1.1.8-3.2 1.5-4.7 1.5s-3.1.4-3.4 1c-.3.6-1.8 1-3.3 1-1.5 0-4 .7-5.6 1.5-1.5.8-4.2 1.5-6 1.5-1.7.1-4.2.7-5.6 1.5-1.4.8-4.8 1.4-7.7 1.5-2.8 0-5.4.4-5.7.8-.6 1-26.4 2.6-40.6 2.6-20.2-.1-68.2-3.5-72.3-5.2-1.6-.7-5.2-1.2-8-1.2-3 0-6-.7-7.1-1.5-1.1-.8-3.7-1.5-5.7-1.5-2.1 0-4.1-.5-4.4-1-.3-.6-1.5-1-2.5-1-1.8 0-7.6-2.2-11-4.1-.8-.5-2.9-1.6-4.7-2.5-8.6-4.3-20.3-19.5-20.3-26.2 0-1.3-.7-5.5-1.7-9.3-1.5-6.5-1.5-7.3.2-15.6 1.9-9.1 2.3-10.1 6.7-16.8 3-4.7 17.4-18.5 19.3-18.5.7 0 1.9-.7 2.6-1.6 1.2-1.4 9.3-7.1 14.4-10 9.6-5.4 18-9.4 19.9-9.4 1.3 0 2.9-.7 3.6-1.5.8-.9 3-1.5 5.7-1.5 2.4 0 5.4-.5 6.6-1.2 1.2-.7 6.5-1.6 11.7-2 5.2-.5 12.4-1.1 15.9-1.4 3.5-.3 7.3-.1 8.5.4 6.7 3.2 13 4.2 26.2 4.2 11.4 0 14.1-.3 15.6-1.7 1-.9 1.8-2.4 1.8-3.3 0-2.3-3.7-6-6-6-1 0-2.1-.4-2.4-.9-.3-.5-6.5-.9-13.7-.9-10.5 0-13.4-.3-14.8-1.6-1-.9-3-1.6-4.4-1.6-1.5 0-3.5-.4-4.5-.9-.9-.4-4.8-2.3-8.7-4.2-17.6-8.6-21.5-20.9-11.4-36.3 2.2-3.2 3.9-6.2 3.9-6.6 0-2.2 20.8-20.5 28.9-25.5.9-.6 3.1-2 4.8-3.3 1.7-1.2 3.5-2.2 3.9-2.2.4 0 1.5-.6 2.3-1.4 3-2.6 11.2-6.6 13.4-6.6 1.3 0 3.2-.7 4.3-1.5 2.8-2.1 40.8-2.1 47.8 0zm242.1 61c11.5 2.1 57.2 2.1 64.1 0 6.5-2 21.2-1.9 23.8 0 1.1.8 3.4 1.5 5.2 1.5 1.8 0 3.6.4 3.9 1 .3.5 2.1 1 3.8 1 1.8 0 4.1.7 5.1 1.5 1.1.8 3.1 1.5 4.5 1.5s3.5.7 4.5 1.5c1.1.8 3.2 1.5 4.7 1.5s3.1.4 3.4 1c.3.6 1.6 1 2.9 1 1.2 0 3.1.7 4.2 1.5 1 .8 2.7 1.5 3.6 1.5 1.6 0 6.7 1.9 11 4.1 1 .5 2.4.9 3.1.9 2.1 0 13 6 15 8.3.9 1.1 1.7 2.6 1.7 3.4 0 .7.5 1.3 1 1.3.6 0 1 4.3 1 10.9 0 6.3-.4 11.2-1 11.6-.5.3-1 1.5-1 2.7 0 1.1-.6 3.2-1.4 4.6-.7 1.5-2.2 4.5-3.2 6.7-2.2 4.7-7.5 12.8-8.7 13.4-.5.2-2.4 1.6-4.2 3.2-1.8 1.6-3.9 2.9-4.8 2.9-.8 0-2 .7-2.7 1.5-.7.8-2.1 1.5-3.1 1.5s-2.1.4-2.4 1c-.3.5-1.4 1-2.3 1-.9 0-3 .7-4.6 1.5-1.5.8-3.6 1.5-4.5 1.5-1 0-2.6.7-3.7 1.5-1 .8-2.9 1.5-4.2 1.5-1.2 0-3 .4-4 .9-3.3 1.6-12 4.1-14.4 4.1-1.3 0-3.3.7-4.4 1.5-1 .8-3.6 1.5-5.6 1.5-2 0-4 .4-4.3 1-.3.5-2.3 1-4.3 1s-5 .7-6.6 1.5c-1.5.8-5 1.5-7.6 1.5-2.9 0-5.2.6-5.9 1.4-.7.8-3.5 1.7-6.4 2-12.9 1.3-19.4 2.3-21.4 3.4-1.2.7-4.5 1.2-7.3 1.2s-6.1.6-7.3 1.2c-2.2 1.2-7.4 1.9-28.7 3.6-5.8.5-11.5 1.4-12.7 2-2.9 1.6-45.6 1.7-48.5.1-1.1-.6-4.4-1.5-7.2-2-9.7-1.6-11.5-2.1-12.7-3.5-.6-.8-1.9-1.4-2.9-1.4s-2.3-.7-3-1.5c-.7-.8-1.8-1.5-2.4-1.5-2.3 0-15.2-13.5-17.4-18.2-1.3-2.6-2.7-5-3.3-5.3-.5-.4-.9-1.6-.9-2.8 0-1.3-.6-3.1-1.4-4.2-3.9-5.7-3.7-34 .3-35.3.6-.2 1.1-1.2 1.1-2.1 0-2.6 21.3-24.1 23.8-24.1.4 0 2.4-1.2 4.3-2.6 1.9-1.4 5-3.2 6.9-4 1.9-.9 4.2-2 5-2.5.8-.5 2.2-1.2 3-1.5 2-.8 8.1-3.5 10.2-4.5 1-.5 2.6-.9 3.7-.9 1 0 2.4-.7 3.1-1.5.7-.8 2.2-1.5 3.4-1.5 1.1 0 3-.7 4-1.5 1.1-.8 3-1.5 4.2-1.5 1.3 0 2.6-.5 2.9-1 .3-.6 1.8-1 3.3-1 1.5 0 3.8-.7 5.2-1.4 3.5-2 30.9-2 41.5-.1zm-96.2 8c1.7 2.4 1.7 2.5-.3 4.5-1.1 1.1-2.8 2-3.8 2s-2.3.5-2.9 1.1c-.6.6-4.2 1.6-8 2.1-9.7 1.5-40.3 2.1-40.3.9 0-1 5.6-4.1 7.5-4.1.7 0 1.8-.7 2.5-1.5s2.3-1.5 3.6-1.5c1.3 0 2.4-.5 2.4-1 0-.6 3.1-1 7.4-1 4.1 0 7.8.4 8.1 1 1.7 2.8 14.4.2 18.3-3.7 1.9-1.9 3.5-1.6 5.5 1.2z"/>
  <path d="M602.1 137.9c-2.1 1.3-.4 5.1 2.3 5.1 1.2 0 2.7.5 3.2 1 .6.6 4.8 1.3 9.5 1.6 4.6.3 10 .9 11.9 1.4 6 1.7 12.5 1.2 14.4-.9 2.9-3.2 1.7-5.5-3.4-6.4-12.8-2.3-35.4-3.4-37.9-1.8zm63.9 4.2c-.7 1.1-1 2.2-.8 2.4.2.2 7.6.6 16.5.9 17 .6 19 .2 15.7-3.5-1.5-1.7-3.1-1.9-16-1.9-13.5 0-14.4.1-15.4 2.1zm4 25.9c-.8.5-4.4 1-7.9 1s-8.8.8-11.8 1.7c-4.3 1.5-5.3 2.2-5.1 3.8.3 1.7 1.2 2 6.3 2.3 3.2.2 6.8-.1 8-.7 1.1-.5 5.2-1.2 9-1.4 3.9-.2 8.8-1.2 10.9-2.1l4-1.8-2.5-1.9c-2.6-2-8.4-2.5-10.9-.9zm-10.8 56.2c-1.5 1.5-1.6 9.4-.1 10.3.5.4 1.4 1.8 1.9 3.1 1 2.4 4.3 3.3 5.5 1.4.3-.6 1.6-1 2.9-1 3.9 0 10.5-3.8 11.2-6.4.9-3.9-1.1-6.6-5.1-6.6-1.8 0-3.7-.5-4-1-.9-1.4-10.9-1.2-12.3.2zm12.1 26.7c-6.6 3.7-7.3 4.9-4.7 7.5 1.1 1.2 3.6 1.6 9 1.6 6.1 0 8-.4 10.4-2.2 3.4-2.5 3.8-4.8 1.2-7.1-2.5-2.3-11.7-2.2-15.9.2zM399 131.9c-2.7 2.2-2.9 2 5.2 3.9 6.9 1.7 26 2.5 27.8 1.3 1.3-.9 1.3-1.4 0-3.8l-1.6-2.8-14.4-.2c-13-.3-14.8-.1-17 1.6zm68.3.8c-2.5 1-1.4 4.1 1.7 4.8 1.6.4 3.2 1.1 3.5 1.6.8 1.2 20.5 1.2 20.5-.1 0-.6-.4-1-1-1-.5 0-1.6-1.4-2.5-3l-1.6-3-9.7.1c-5.3 0-10.3.3-10.9.6zm-19.7 26c-3.8.4-6.6 2.2-6.6 4.2 0 .5 4.3 1.2 10.3 1.4 5.6.3 11.6.8 13.3 1.2 3.7.8 8.4-1.7 8.4-4.5 0-2.4-12.8-3.6-25.4-2.3zm-237.9 33c-2.4 2.3 4.6 7.3 10.3 7.3 3.2 0 11-3 11-4.2 0-2.6-19.1-5.4-21.3-3.1zm71.3 8.8c-1.1 1.4-1 1.9.8 3.7 1.7 1.7 3.6 2.2 10.2 2.5 4.5.2 9.1.8 10.2 1.4 4.4 2.4 6.8-2.3 2.6-5.1-2.4-1.4-8.6-2.8-17.4-3.7-3.9-.3-5.3-.1-6.4 1.2zm-24.7 28.9c-3.3.7-5.8 1.9-6.7 3.2-1.5 2.1-1.5 2.1 10.2 2.2 6.4 0 12.8-.3 14.2-.8 6.9-2.3 6.8-2.1 2.5-4-4.5-2.1-12.3-2.3-20.2-.6zm-20.6 53.3c-5 2.1-5.7 5.1-2.2 9.7 1.5 2 4.1 4.2 5.8 5.1 7.9 3.9 18.7-.3 18.7-7.4 0-3.5-3.8-5.9-11-7.1-2.5-.4-5.2-1-6-1.3-.8-.3-3.2.2-5.3 1zm5.1 45.8c-1.7 2.3-1.5 5.5.3 5.5.5 0 .9 1.1.9 2.5 0 2 .5 2.5 2.5 2.5 1.4 0 3.3-.4 4.3-1 .9-.5 3.4-1.7 5.5-2.6 2.3-1 3.9-2.5 4.3-4 1.2-4.7.1-5.4-8.3-5.4-7.1.1-8 .3-9.5 2.5zm212.9-138.7c-2.4 2.6-2.1 5.1.7 6.2 1.3.5 2.7 1.4 3.1 1.9.7 1.2 7.5 1.5 9 .3 3.1-2.3 3.6-4 2-7.1-1.5-2.9-1.9-3.1-7.4-3.1-4.3 0-6.2.5-7.4 1.8zm-3.1 24.3c-1.9 1.9-1.9 2 4.4 7.9l6.3 5.9 2.9-1.7c5.1-3 7.1-5.7 5.9-8-3-5.6-15.4-8.3-19.5-4.1zm-36.5 62.3c-2.1 2.5-.6 6.3 2.6 6.9 6.4 1.2 7.5-6.2 1.2-7.8-1.7-.4-3-.1-3.8.9zM741 369.2c-1.9.5-5.3 1.2-7.5 1.6-3 .5-4.1 1.2-4.3 2.8-.2 1.7.6 2.5 3.8 3.8 5 2 6.8 2 11.3.1 2-.8 5.2-1.5 7.1-1.5 3.8 0 9.6-2.8 9.6-4.7 0-.7-.9-1.7-1.9-2.3-2.4-1.2-13.3-1.1-18.1.2zm-77.5 5.8c-.3.5-1.4 1-2.3 1-2.1 0-5.5 3.7-4.7 5 .4.6 6 1 12.5 1 10.4 0 12.3-.3 15.6-2.2l3.6-2.1-2.3-1.8c-1.9-1.5-4.3-1.9-12.1-1.9-5.4 0-10 .4-10.3 1zm47 23c-14.8.4-18.6.8-21.3 2.3-6.6 3.6-1 7.4 8.8 6.1 2.5-.4 9-.8 14.5-.9 8.3-.2 10.7-.6 14-2.5 6.1-3.4 6.9-4.2 5.3-5.1-.7-.5-1.7-.8-2.3-.7-.5.1-9.1.5-19 .8zm22.5 56.5c-1.5.9-5.3 1.4-9.6 1.5-5.6 0-7.4.4-8.7 1.8-3.5 3.8-1.6 6.5 8 11.3 6.5 3.3 14.4 3.9 17.7 1.4 1.1-.8 2.7-1.5 3.7-1.5 1.9 0 6.9-6.1 6.9-8.4 0-.9-1.9-2.9-4.2-4.6-4.6-3.3-9.6-3.9-13.8-1.5zm21.6 45c-1.6.8-4.1 1.5-5.6 1.5s-3.3.7-4 1.5c-.7.8-1.9 1.5-2.6 1.5-.8 0-2.2.4-3.2.8-6.8 3.3-9.7 5.2-10 6.6-.4 2 3.5 5.5 6.3 5.6 1.1 0 2.9.7 3.9 1.5 1.3 1 4.4 1.5 8.9 1.5 6.7 0 7-.1 10.4-3.7 3.2-3.5 3.4-4.2 3.1-9.7-.2-4.6-.7-6.2-2.3-7.2-1.7-1.1-2.5-1.1-4.9.1zm-560.8-34.6c-8.4.8-9.4 1.2-8.4 3.7.5 1.4 1.5 1.5 5.4 1 3.5-.4 5.3-.2 6.7.9 1.5 1.1 5.1 1.4 14.6 1.5 6.9 0 12.9-.3 13.2-.6.9-1-1.2-4.4-2.7-4.4-.8 0-1.9-.7-2.6-1.5-1.3-1.6-11-1.8-26.2-.6zm-83.5 4.8c-1.6.6-1.7 4.5-.1 6.1.7.7 3 1.2 5.3 1.2 2.2.1 5.1.7 6.5 1.5 1.6.9 5.5 1.4 10.8 1.5 8.9 0 10-.7 8.8-5.4-.9-3.8-7.4-5.6-19.6-5.5-5.8 0-11.1.3-11.7.6zm42.4 32c-.4.3-.7 1.4-.7 2.4 0 2.4 7.4 3.2 24.1 2.7 13.2-.4 15.5-1.1 14.2-4.5-.4-1-4.4-1.3-18.7-1.3-10.1 0-18.6.3-18.9.7zm-6.4 65c-1.9 1.2-2.3 2.5-2.3 6.4 0 7.3 1 7.9 14.9 7.9 11.5 0 11.9-.1 15.9-3 2.3-1.7 4.2-3.4 4.2-3.8 0-.5-2-2.7-4.4-5l-4.5-4.2-10.8.1c-8.1 0-11.4.4-13 1.6zm10.7 46c-.8.4-2 1.1-2.6 1.7-.6.6-2.5 2.2-4.2 3.6-1.8 1.4-3.2 3.4-3.2 4.5 0 2.1 3.2 5.5 5.2 5.5.6 0 2 .8 3 1.7 1.3 1.2 3.7 1.7 8.2 1.7 5.9 0 6.5-.2 9.9-3.8 5.2-5.3 5.1-9.5 0-13.1-3-2-4.9-2.5-9.3-2.4-3 0-6.2.3-7 .6zm432.7-24.9c-2.1 2.3-2.1 3.2.1 4.8 2.4 1.8 16.2 1.8 20.4 0 1.8-.8 4.2-1.7 5.3-2.1 1.6-.5 1.2-.9-2.4-2.6-6.1-2.7-21-2.8-23.4-.1zm-79.7 2.6c-2.1 2.1-1 5.5 2.1 7.2 2.5 1.2 4.9 1.5 10.8 1 17.9-1.4 23.5-2.2 23.9-3.4.2-.6 1.1-1.2 2.1-1.2 2 0 4.1-1.9 4.1-3.8 0-1.1-3.9-1.3-21-1-11.6.2-21.5.7-22 1.2zm52.5 26.1c-1.6.8-4.5 1.4-6.2 1.5-4.7 0-4 1.5 1.5 3 5.4 1.5 16.2 1.7 31.2.6 8.4-.7 10.9-1.3 12.7-2.9 1.2-1.1 2-2.4 1.7-2.8-.9-1.5-37.5-.9-40.9.6zm-268.8 10.8c-1.4 3.7.8 4.2 17.7 4.2 17.3 0 20.4-.7 17.6-4-1.7-2.1-34.5-2.3-35.3-.2zm-72.7 2.6c-.8.6-2.3 1.1-3.2 1.1-1.9 0-5.8 2.9-5.8 4.3 0 1 31.3.3 36.3-.9 5-1.2 4.8-2.7-.5-3.6-9.2-1.4-25.3-1.9-26.8-.9zm62 33c-10.3.6-10.5.7-10.8 3.1l-.3 2.5 14.3-.3c12.6-.3 14.5-.6 16.3-2.3 1.7-1.7 1.8-2.1.5-2.9-.8-.5-3.3-.9-5.5-.8-2.2.1-8.7.4-14.5.7zm-44 70.6c-.7.8-2.1 1.5-3.1 1.5-1.3 0-1.9.7-1.9 2.4 0 2.7 5.7 7.6 8.7 7.6 1.1 0 2.8.7 3.9 1.5 1 .8 3.9 1.5 6.2 1.5 3.9 0 4.9-.5 8.8-4.6 3.7-3.8 4.5-5.2 4.2-7.7l-.3-3.2-12.6-.3c-10.3-.2-12.8 0-13.9 1.3zm-2 53.1c-1.9.7-5.9 1.3-8.7 1.3l-5.3.1v3.9c0 3.3.6 4.3 3.6 6.6 2.7 2 4.3 2.6 6.7 2.2 4.1-.6 10-2.9 12.1-4.6 1.5-1.2 4.9-7.2 4.4-7.6-.2-.1-1.4-.9-2.8-1.8-2.8-2-5.1-2-10-.1zm337.3-97.8c-4.2 1.2-5.2 1.9-5.6 4-.3 1.8.2 3.2 2.1 4.8 2.2 2.1 3.5 2.4 10.4 2.4 6.3 0 8.3-.4 9.9-1.9 2-1.8 2-1.8-.2-5.5-1.4-2.5-2.8-3.6-4.4-3.6-1.3 0-3.4-.4-4.7-.8-1.4-.5-4.3-.3-7.5.6zm8.2 47.2c-.3.5-2.5 1-4.8 1-5.6.1-10.3 3.7-9.2 7.1.4 1.3 1.3 2.7 1.9 3.1 2 1.3 11.1.9 13.2-.7 1-.8 2.7-1.5 3.6-1.5 2.4 0 5.8-3.1 5.8-5.1 0-3.4-8.8-6.6-10.5-3.9z"/>
</svg>
