<svg xmlns="http://www.w3.org/2000/svg" width="300" height="300" viewBox="-10 -105 320 320">
  <path d="M286.914 26.614c.58.155 1.203.31 1.823.427.97.24 2.02.43 3.145.63.893.12 1.668.35 2.367.58.23.12.5.16.73.16.58.43 1.47.47 2.6.04.08-.04.08-.15-.04-.35-.27-.58-.9-.85-1.79-.85-1.67-.5-3.5-.97-5.4-1.32-.16-.04-10.75-1.98-10.91-1.98-1.21.04-14.25-3.41-17.47-4.11-.82-.19-1.59-.38-2.37-.62-.82-.27-1.67-.5-2.64-.7-1.48-.34-3.03-.69-4.62-1.12-.86-.27-1.79-.46-2.8-.58-1.24-.19-2.37-.5-3.46-.93-.16-.04-4.7-1.12-5.47-1.32-1.67-.35-3.34-.74-5.01-1.12-1.44-.39-2.99-.66-4.7-.89-.23 0-.47-.11-.7-.19-1.2-.66-6.87-1.74-7.8-1.9-1.63-.23-3.22-.54-4.7-.97-.86-.23-1.67-.42-2.37-.62-.51-.15-.97-.31-1.48-.46-1.4-.39-7.99-2.33-10.13-2.29-.16 0-.27-.04-.43-.08-3.22-.7-12.11-2.44-13.16-2.44-.51 0-9.16-2.13-9.7-2.02-.27.04-.43 0-.55-.11-.35-.42-.86-.7-1.4-.77-.93-.15-2.76-.54-2.91-.39-.74.78-3.92 1.36-4.08 1.36-1.55 0-4.66-.19-4.66-.19-1.44-.15-4.5-.19-4.66-.19h-7.37c-.77 0-2.33-.19-2.33-.19-2.94-.16-5.93-.2-8.92-.2h-.39C136.47.9 123 .7 123 .7c-1.28-.15-2.56-.19-3.88-.19H88.88c-.62-.43-1.515-.544-2.718-.39-1.01.118-2.057.156-3.105.156-.7-.04-1.01.158-.97.585.04.7-7.76 1.31-10.284 1.63-.233 0-15.216 2.99-17.08 3.15-1.707.16-4.898.53-4.937.53-1.36.27-5.51.79-7.49 1.3-.507.04-1.01.12-1.477.27-1.21.35-4.82.58-4.97.74-.35.23-10.87 1.94-11.03 1.94-1.52.04-8.04 1.59-8.15 1.59-3.38.62-12.89 2.52-13.08 2.64-.7.47-1.63.66-2.84.62.31.86 1.2 1.05 2.68.62.15 0 3.41-.85 3.57-.89 1.47-.39 3.02-.74 4.62-.97.5-.08 1-.19 1.55-.31 1.2-.35 2.13-.35 2.71 0-1.05.74-2.49 1.2-4.23 1.32-.16.04-.31.08-.47.08-1.32.43-2.72.78-4.19 1.09-.16 0-.31.08-.47.12-1.01.35-2.02.66-3.03.97-.31.07-.55.07-.78.07-1.93-.26-1.97 1.01-1.97 1 1.51.04 2.68-.15 3.57-.62.23-.12 5.51-1.4 6.87-1.63.42-.04 2.52-.47 3.14-.47-2.8 2.21-5.82 4.27-8.97 6.13-.12.04-.58.07-.74.04-1.63-.2-2.8.07-3.5.81 0 .12-.24.39-.39.39.04 2.41 1.32 3.54 3.88 3.3.11 0 .27-.08.42-.19.39-.35 1.05-.51 1.9-.39 2.52.74 4.97 1.47 7.41 2.25.11.04.23.08.35.08-.08.81-2.22.97-2.37 1.01-1.01.23-2.02.46-2.99.73-1.25.35-7.38.9-8.23 1.36.74.43 1.75.51 3.06.24 1-.23 2.05-.35 3.14-.39 1.9-.08 7.1-.89 7.53-1.2.15-.15.35-.23.62-.27.7-.15 1.08 0 1.16.47-.97.81-2.29 1.32-3.88 1.51-2.45.27-4.89.58-7.38.857-.78.12-1.55.2-2.33.24-.62.074-1.24.23-1.79.423-.12.04-.08.15.04.35.31.42.89.58 1.74.5 0-.157 4.23-.54 5.47-.7.7-.116 1.36-.23 1.94-.39.39-.08.54.15.43.7-.04.27-.08.5-.08.77.04 1.16-.74 1.63-2.37 1.36-.85-.12-2.19.28-3 .01-.08 0 .28-.67.13-.86-.24-.35-.59-.66-.97-.9H4.4c.31 1.55-.157 2.33-1.36 2.33h-1.5c.196.7.74 1.09 1.554 1.2 1.242.16 1.326 0 2.717-.13.39 0 .74-.254 1.09-.1.5.19.74.78.74 1.75 0 .815-.23 1.28-.7 1.36-1.55.35-3.1.66-4.62.97.59.43.18 1.37 1.83 1.1.33-.06.84.16.46 1.97-.11.58.04.85.43.81.82-.51 1.2-1.56 1.17-3.11l.35-.08c.9-.15 1.79-.15 2.76-.078.43.04.62.5.47 1.32-.04.39-.07.78-.07 1.166-.19.816-.97 1.166-2.33 1.05-.51-.08-1.05-.04-1.55.04-.27.04-1.94.08-2.33.08-.11 0-.23.04-.31.08-.31.19-.58.43-.85.7.51.77 3.11.5 3.11.39.39 0 .74.07 1.05.23.51.31.85 1.63.78 2.75 0 0-2.17.5-3.76.5-.04.93.47 1.36 1.55 1.168.16 0 .39 3.34.39 3.496H3.49c.427 1.13 1.59 1.56 3.533 1.28.775-.11.498-.05.818 1.15-.11.51.43 1.27.2 1.69-.04.08-.78.15-1.05.15H3.5c-.118 1.13 1.276 1.82 2.673 1.7 0 0-.107 2.08-.69 2.54-.155.12-.9.5-1.13.57-.04 0-.08.12-.08.24 1.05.66 2.486.93 4.27.89.467 0 .62.35.506 1.05-.08.504-.12 1.824-.12 1.94-.23.12-.51.194-.78.23-1.55.08-3.1.16-4.65.16 0 .28.08.47.16.7.04.04.12.08.23.08.24.46.45.29 1.59.46.39-.07.58.16.58.7-.04 1.05.21 1.57-.18 2.11-.12 0-1.06.22-1.22.22.35 1.09 1.39 1.475 3.14 1.24 1.12-.19 1.59.47 1.39 1.9-.04.23 0 .47.11.74H4.66c0 .23.27.774.39.774.27 0 .502.04.696.16.077 0 .63 1.2.63 1.32.505 2.096-.67 2.29-2.493 2.02 0 .23.27.777.388.777 1.01.39 2.18.66 3.5.78 1.48.08 1.87 1.09 1.21 2.99 0 .08-.15.118-.42.118H3.5v.39c.156.11.66.385.776.385 1.207-.04 1.63.74 1.246 2.33-.04.27-.116.5-.194.735-.04.15-.504.43-.66.43H2.72c.193.97.97 1.44 2.366 1.36.117 0 2.25.39 3.066.58 0 .12.04.23.04.39.39 1.55 0 2.33-1.2 2.33-.503 0-1.01 0-1.55-.08-1.398-.08-1.903.08-1.553.47.15.114.39 2.443.39 3.49-1.56-.076-1.83.2-.74.74.66.39 2.56 1.01 2.64.97 1.7-.23 2.36.51 1.98 2.18.31 1.2-1.83 1.162-2.33 1.2-1.36.04-3.5-.62-3.54-.62-.74-.16-1.52-.19-2.29-.19.08.58.35.93.81 1.088.11.035.23.074.35.074.73.27 2.71.62 2.71.77 0 .9.27 2.72.38 2.72 0 .15-.04.19-.08.27-.55.39-1.4.47-2.64.12.39 1.432 1.56 2.132 3.5 2.132.77 0 2.71.62 3.1.7 1.24.19 2.44.47 3.57.78.62.19 1.2.31 1.86.43 1.55.27 3.26.46 5.04.62 1.59-.47 20.92 1.82 24.45 1.9 3.46.07 6.52.46 9.32 1.2 1.28 0 3.88.23 3.88.39 3.34.58 6.68 1.12 10.09 1.702.89.15 1.82.31 2.75.54 1.4.31 2.91.55 4.62.62.27.04 2.87.47 3.88.62.08.42 1.44.38 1.55.38.47.43 1.24.7 2.33.78 0 0 .08.04.19.19.15.12.35.2.58.24 1.94.195 3.61.195 5.04-.04.47-.46.66-1.24.58-2.33h.58c.59.43 2.11.27 3.31.27 1.36 0 1.82.16 2.52-.27 1.09-.5 1.94-1.16 2.64-2.02.04-.07 4.5-.23 6.32-.46 1.12-.15 42.27.94 49.25.94h10.09c1.86-.31 3.18-.08 3.99.66.74.772 1.36.7 1.75-.12.07-.12.23-.16.46-.16h1.55c.47.47 1.25.66 2.33.58.16 0 .27.08.39.2.47.42 1.24.58 2.33.46.39-.08.78-.08 1.17-.08 1.43.27 2.44.27 2.95-.39.11-.11-.12-1.25.07-1.33.08-.04 1.25.08 1.25-.03.27-.158 1.36-.07 1.36-.19 1.4-.04 4.8-.97 6.39-.777h4.27c1.82-.155 3.65-.23 5.43-.27 1.98-.08 3.69-.31 5.08-.7.51-.156 1.79-.43 1.94-.43 1.67-.387 7.38-.54 8.15-.697 1.01-.16 7.11-.31 8.58-.78 1.59-.47 5.59-.81 5.75-.81 2.25.15 12.81-1.83 16.3-2.29.113-.04.27-.04.385-.04 2.02-.08 3.842-.24 5.472-.43 1.01-.12 2.02-.27 3.03-.43.775-.16 1.55-.23 2.405-.27 1.82-.12 3.49-.27 5.043-.47 1.36-.16 2.64-.31 3.88-.47 1.71-.27 3.537-.427 5.4-.506 1.827-.12 3.38-.47 4.66-1.13 1.785.54 3.38.5 4.77-.154.31-.15.66-.27 1.047-.31 2.33-.19 4.66-.43 6.99-.7 1.21-.12 2.22-.39 3.11-.77.66-.27 3.15-1.01 3.22-1.05.55-.47.51-.89-.11-1.28-.12 0-.815-.08-.97-.19-.51-.55-.97-1.13-1.4-1.75-.08-.12-2.172-.35-2.21-1.17-.04-.93-.194-1.71-.47-2.33 1.4.08 2.488-.16 3.34-.66.12-.08.16-.27.2-.51.04-1.63-.2-2.99-.74-4.118-.04-.12-.74.04-.894.12-.23.072-.387.033-.543-.08-.54-.58-.73-1.55-.58-2.91 0-.16.04-.23.08-.23.24-.12.43-.2.7-.28 1.52-.386 1.52-.77 0-1.046-.31.31-.81.5-1.51.62-1.44.19-2.1-.27-2.02-1.4.04-.278-.66-1.75-.35-1.94.39 0 .77 0 1.16.072 1.248.12 2.14-.04 2.72-.5l.2-.158c-.31-.35-.5-.78-.62-1.36-.31-1.36 0-2.137.82-2.33l.58-.586c-2.06-.15-4.19-.19-6.4-.19 0 0-.19-2.1-.77-3.11 2.093 0 4.15-.07 6.21-.19.27 0 .463-.114.54-.31.04-.08 0-.154-.04-.31-.15-.43-.58-.54-1.28-.35 0-1.05.12-2.06.39-3.03 0-.04.157-.08.39 0 1.4.16 2.06-.27 1.94-1.2 0-.04-.62-.04-.773-.04-2.17 0-6.6-.27-6.6-.39.47-.47.58-1.24.43-2.33-.04-.43.19-.58.78-.505 2.09.24 3.76.04 5-.66.7-.46.58-.7-.39-.77-.23 0-.98 0-.98-.04-.08-1.05.275-1.83-.19-2.29-.08-.78.68-.46 1.57-.27.23.04.06-.59.176-.71.15-.12.19-.19.15-.19-1.67-.27-3.3-.39-5.01-.39-.23 0-.43-.08-.58-.2-.545-.58-.74-1.55-.583-2.91 1.7 0 3.37-.08 5.04-.2.12 0 .27-.04.43-.04 1.01-.23 1.28-.54.74-.93-1.13.12-2.29-.65-1.78-2.05.15-.42 1.23-.63 1.58-.9.15-.11.15-.23 0-.35-.12-.15-.31-.19-.586-.19h-3.49c-1.51.12-2.02-.77-1.43-2.68.16-.46 1.98-.42 2.21-.42h3.89c.27 0 .47-.08.58-.19.16-.152.16-.23 0-.35-.34-.27-1.87-.583-2.02-1.01-.31-.774-.23-1.24.236-1.4.23-.04 1.68-.23 1.87-.34.81-.66.62-.93-.62-.813-2.59.2-4.37-.99-4.31-.93v-1.2c2.21 0 3.69.22 5.86.22.157 0 1.01-.22 1.12-.22-.07-.857-.73-1.13-1.94-.857-.27.04-.383.04-.42-.04-.386-1.28-.386-2.29.04-2.99h.78c.27 0 .43-.073.505-.19.39-.583.35-.854-.12-.893-1.01-.04-2.05-.16-3.06-.35l-1.63-.24c-2.6-.42-5.17-.81-7.69-1.16-.75-.12-1.26-.28-1.98-.66 2.1-.04 7.28.33 11.65 1.16 1.17 0 3.32.95 4.33.83l-.19-.19c-.114-.16-.23-.27-.39-.39-.74-.43-1.27-.55-3.4-1.1-1.05-.28-1.66-.38-2.862-.57-.27-.04-1.87-.34-2.14-.34-1.2.08-4.04-.3-4.63-.73 1.67-.43 5.52-.36 7.74-.12.5.04 1 .19 1.39.5.46.27 1.16.39 2.09.35.66 0 1.21.15 1.56.58.39 0 .78-.08 1.13-.2.04 0 .04-.08.04-.2 0-.16 0-.2-.04-.24-1.24-.39-1.71-1.52-1.51-3.26 1.16-.39 2.33-.86 3.42-1.32.08-.04.08-.12.08-.24-.12 0-.19-.04-.23-.07-.16-.383-.62-.5-1.32-.31-.12.12-1.13.47-1.44.587-.39.19-.94.152-1.6-.04-.31-.118-.69-.08-1.2 0-.74.192-1.67.27-2.75.23 0-.16-6.06-3.15-6.17-3.19-.47-.27-.9-.62-1.21-1.085 1.43.39 8.46 1.71 9.31 1.75.89.04 1.67.19 2.4.42.78.31 1.67.466 2.64.543.97.16 1.59.04 1.86-.465.08-.08.08-.19.08-.31-.113 0-3.03-.35-3.88-.77-.78-.15-1.55-.31-2.29-.5-.27-.04-.54-.073-.81-.073-1.51-.04-9.93-1.94-10.05-1.94-1.05.11-1.43-.35-1.2-1.36 2.79.32 5.39.78 7.84 1.32zM4.696 24.13c0 .233-.078.427-.232.504-1.126.854-1.94.7-2.523-.504v-1.165c.35-.31.86-.466 1.56-.426.16.03.27.03.39.03.66.11.93.62.82 1.55zm75.455-5.822c.08 1.59-.27 2.096-.97 1.553-.27-.27-.62-.46-1.04-.66-1.16-.42-3.88-1.51-4.03-1.51-2.09-.42-4.03-.97-5.82-1.63-1.24-.46-1.86-1.55-1.9-3.18 1.32-.23 1.67-.77 3.08-1.47.87-.43 2.04-1.45 3.01-1.8.16-.04 2.08-1.26 3.24-1.81 1.05-.5 1.94-1.12 2.72-1.9 0-.15 1.05-1.55 1.17-1.55.16.12.2.23.2.39.16 4.51.28 9.05.39 13.59zm-31.24-2.33v-3.104c0-.932.27-2.717.39-2.717 3.03 1.087 6.13 2.135 9.36 3.027.08.04 1.79.854 1.9.854 0 .505.08 1.01.24 1.475.12.31.08.7-.04 1.165-.11.427-2.83 2.368-3.96 3.028-2.13 1.165-4.31 2.29-6.67 3.337l-.23.117c-.58-.583-.77-1.553-.58-2.91-.11 0-.38-4.155-.38-4.27zm13.69-3.786c0 .116-.59.077-1.15.76-.56.682-1.05.466-1.67-.077-1.32-.738-2.83-1.36-4.58-1.825-1.43-.35-2.87-.814-4.34-1.28 0 0-.77-.35-.77-.776 1.36-.35 2.76-.66 4.27-.893.28-.03 3.23-.34 3.92-.46.62-.15 1.25-.27 1.91-.35.12 0 5.82-.7 7.38-.81 0 0 5.71-1.16 5.86-1.2 1.01-.11 2.32-.41 3.36-.29.12.04-.02.37.1.53-.85.66-1.78 1.32-2.71 1.91-2.72 1.59-5.4 3.18-8.15 4.7h-.39c-1.43-.04-1.87-.22-3 .09zm2.58 2.623c.04.232 0 .466-.15.62-1.12 1.554-2.25 1.593-3.3.156v-1.93c.16 0 .39-.27.39-.38 1.83-.81 2.84-.31 3.07 1.56zm-6.75 4.852c.12-.156 2.37-1.475 3.73-1.63.9-.078 4.2-1.165 5.4-1.125.55.04 1.67.66 1.94.66 3.15.582 6.02 1.475 8.54 2.678-.58.426-1.47.62-2.71.543-.74-.078-1.36-.078-1.94-.04-1.98.118-6.63 1.01-7.37 1.088-2.25.16-7.49.55-7.76.55-1.67.12-3.26.24-4.66.35-.11.04-.27-.04-.39-.15 2.06-.7 3.81-1.67 5.24-2.91zM20.5 12.37c.037-.04.885-.23.885-.345.74-.31.86-.393 1.91-.393.97-.04 5.628-1.086 7.375-1.242.27 0 5.045-.66 6.985-1.086.893-.233 9.85-1.6 9.85-1.716 1.63-.078 3.038-.38 4.474-.69.15 0 .31-.078.46-.078.46-.117 1.01-.155 1.51-.155 2.44-.543 8.03-1.397 8.19-1.437 1.21-.27 10.37-2.018 12-2.058h.38c1.39-.035 2.68-.19 3.88-.462.89-.195 1.28.116 1.16.854h-.39c-1.28-.04-3.73.427-3.88.427C70.41 5 54.34 7.25 54.34 7.25c-1.94.23-3.764.58-5.433.97-.118 0-3.73.54-4.66.77-.737.27-4.386.5-5.046.77-5.31 1.125-10.75 2.173-16.3 2.988-.5.08-.89.194-1.24.31-1.01.43-1.47.233-1.47-.58.16 0 .24-.038.31-.115zm27.79 10.208c-.117 1.28.043 1.366-1.32 1.217-.117 0-.194-.44-.194-.48-.117-1.513-.195-4.89-.195-5.006V9.38c1.17-.116 1.6.544 1.28 1.98-.07.348.51 9.973.43 11.216zm-2.72-3.144c.234 1.514-.077 2.445-.93 2.756-.854-.194-1.67-.35-2.367-.62-.35-.117-5.437-1.398-5.71-1.748-.542-.66-.97-1.397-1.24-2.29.93-.35 1.707-.893 2.33-1.553.93-1.01 2.016-1.87 3.18-2.61 1.243-.74 2.37-1.55 3.417-2.45.97.35 1.396 1.24 1.28 2.71-.078 1.39-.078 5.28.04 5.78zm-2.99-8.694c-2.912 1.785-5.434 3.92-7.647 6.403-.776 0-1.513.04-2.29.194-.66.116-1.32.31-1.98.583-.814-.467-1.746-.854-2.716-1.165-.97-.31-1.9-.66-2.755-1.047-1.084-.505-2.25-.932-3.45-1.282v-.388c1.202-.35 11.8-2.6 13.972-2.794 1.048-.078 3.648-.505 3.88-.466.97 0 2.72-.583 3.106-.583.428.04.388.234-.116.544zm-8.19 9.005c-.66.93-1.436 1.008-2.367.27-.117-.115-.27.06-.27-.175 0-.27-.46-.418.075-1.144s2.018-.543 2.562.466c.113.194.113.388 0 .583zm-2.95 1.67h3.88c.97-.35 2.098-.35 3.456.154 1.553.58 3.222 1.08 5.046 1.51.16.04.31.08.47.11 1.514.23 1.786.58.815 1.08-.582.27-1.358.35-2.406.23-.11 0-2.79.42-4.27.39 0 .11-5.28.89-6.21 1.04-2.02.39-3.96.77-5.82 1.16-.39.08-2.99.7-3.88.11 1.21-.39 6.99-4.04 8.62-5.36.08-.04.31-.35.31-.47zm-11.256 0v-6.6h.388c2.06.543 3.885 1.242 5.555 2.096.31.16.66.28.97.43.815.27 1.63.59 2.446.86.233.08.466.16.66.27.504.24.238.9.466 1.79.23.89.27.9-.51 1.28-1.01.55-1.9 1.05-2.72 1.6-.47.27-.86.55-1.17.82-.2.12-4.39 2.91-4.51 2.99-.39.2-.82.43-1.21.7-.12 0-.2 0-.2-.04-.12-1.9-.2-6.05-.2-6.17zm-.388 7.373c1.824-.156 3.61-.31 5.434-.543.112-.04 2.674-.854 4.265-.815.155 0 5.395-1.242 6.986-1.203.55.04 2.72-.543 3.11-.543 1.52-.31 8.46-1.358 10.48-1.358.78 0 1.55-.078 2.33-.156 1.4-.194 2.8-.388 4.27-.543.51-.04 1.05-.116 1.59-.232 1.79-.31 9.98-.815 10.83-1.203 1.32 0 3.88-.272 3.88-.388h1.17c1.83 0 3.65-.04 5.44-.04.43 0 .58.273.39.816v.194c-2.05.117-4.11.194-6.21.194-1.63.31-3.41.466-5.43.466-.7 0-1.36.04-1.94.155-2.37.42-4.81.73-7.37.85-1.86.11-3.65.35-5.39.7-.74.11-1.67.23-2.72.31-.15.04-4.38.7-5.47.77-1.71.08-3.42.27-5.05.5-.5.07-5.7 1.08-5.82 1.12-.97.15-1.86.31-2.72.5-1.2.23-4.15.62-4.27.66-.97.15-1.86.31-2.72.46-1.67.31-3.33.58-5.04.85v-1.55zm59.54-1.204c-.078-.62-.155-1.28-.155-1.902-.23 0-.46.04-.62.194-.54.427-.73 1.28-.58 2.523.04.23 0 .42-.11.5-1.04.7-2.18 1.21-2.56 2.6-.37 1.39-.01 3.39.95 4.15.96.76 1.5 1.32 2.55 1.28h.78v3.49h-2.72c-.89 0-1.78.04-2.68.19-1.78.27-6.25.39-6.25.39-1.66.11-5.27.19-5.43.19h-8.54c-1.16 0-1.55-.78-1.16-2.33v-6.21c0-.16.27-.39.39-.39 1.05-.55 2.99-1.94 3.11-1.94.43.04.62-.24.51-.82-.07-.47-.27-.78-.58-.89-.66-.19-1.28-.43-1.86-.62-.66-.43-4.07-.86-4.27-1.55 1.28-.16 4.39-.59 4.7-.62 2.02-.16 10.33-.94 11.22-.94 2.18-.16 6.6-.66 6.6-.78.55 0 5.55-.27 7.34 0 .04 0 .04.11.04.38v1.16c.2 1.09-.58 2.06-.62 1.9zm-.155 8.19c-.11 0-.23-.04-.38-.04-.5-.115-1.55-.582-1.63-.582-.7-.388-.99-.724-.7-2.484.3-1.76 1.35-2.644 2.33-2.716.99-.073.66 0 .78 0 0 1.008.04 2.057.16 3.066.08 1.242-.07 2.174-.54 2.756zM63.62 50.912c-.078-.543-.194-1.047-.35-1.552.97-.078 1.358.466 1.203 1.552-.04.117-.04.233-.04.388.15.116.23.272.27.427.31.892.35 1.358.115 1.397l-1.514.233c-1.395.232-2.17-.078-2.365-.893.73-.427 1.63-.776 2.67-.97.04 0 .04-.08.04-.195 0-.16 0-.28-.04-.39zm6.637 19.407v7.76c0 .23-.04.43-.194.58-.586.58-1.556.77-2.915.58-.116 0-2.717-.2-2.717-.2-1.55-.16-3.1-.19-4.65-.19h-8.15c0-.16-.04-.24-.08-.28-.39-.31-.31-5.71-.31-7.49V56.34H70.3v2.33c0 .117-.052 9.2-.052 11.645zM47.74 77.3V56.34h1.943v22.122c-.116 0-.27 0-.35.04-1.085.232-1.59-.04-1.59-.816V77.3zm0-22.9c1.592-.194 2.058 0 1.4.582-.157.117-.35.194-.584.233-.7.154-.97-.156-.815-.816zm-.387-1.164c-.116 0-.194-.04-.194-.078-.12-.35-.2-.698-.2-1.086 1.05-1.32 2.99 0 3.1 0 .77.737.62 1.242-.39 1.475-1.09.232-1.86.115-2.33-.31zm2.717-2.717c-.272-.16-.504-.2-.776-.24-1.864-.16-2.99.43-3.493 1.79 0 .23.35 1.59.24 1.67-.74.5-1.71.77-2.95.77-1.71 0-5.04 0-5.04-.12V37.32c0-1.552-.15-7.102 0-8.54.82.74 7.38 1.98 8.89 2.447 1.36.39 4.15 1.71 4.23 1.865.08.077.08 2.91.08 4.23v8.152c0 .116 0 2.174.04 2.33.1.9-.5 3.215-.43 3.104-.27-.156-.5-.27-.77-.388zm-9.703 38.39c.155.04.27.04.388.04 2.096 0 8.035.38 8.15.38 3.494 0 6.988.04 10.48.19v.19c1.708-.04 3.26.04 4.697.15 1.668.15 9.276.46 9.276.62h4.27c.155 0 .388 1.16.388 1.55 0 .11-.233.39-.388.39h-6.21c-1.166 0-2.29-.12-3.456-.28-.97-.19-2.134-.27-3.532-.31-2.368-.08-4.813-.19-7.374-.31-1.63-.12-3.3-.27-5.008-.54-1.552-.24-3.377-.27-5.473-.12-.504 0-5.278-.43-5.783-.5-1.242-.16-2.523-.2-3.92-.2-2.02.04-5.938-.66-6.21-.66-1.67-.04-7.607-1.2-9.704-1.17h-.35c-1.047.12-1.436-.35-1.203-1.36 1.786-.08 3.338.04 4.696.35.12 0 .24.04.35.04 1.33 0 12 1.04 15.92 1.51zm15.136-3.85c-.35.5-.66 1.28-.776 2.25 0 .04-.116.04-.388 0-.78-.08-1.52-.24-2.29-.47-.16-.04-.31-.04-.43-.04-.66.03-.93-.31-.78-.97.81-.66 1.28-1.67 1.55-3.07 0-.04.11-.08.38-.08 1.05-.12 1.67.15 1.94.81 1.08.23 1.36.73.77 1.55zm2.797-.16c.73-.16 1.47-.31 2.25-.39.11-.04.19-.12.19-.24-.04-.7.31-.97.97-.77.42-.04.54.23.35.73-.08.27-.12.54-.12.78.15 1.24-.16 1.9-1.01 1.98-.12 0-.66.19-.82.23-.465.08-1.01.19-1.475.27-1.397.23-2.174-.08-2.368-.9.114 0 1.24-1.55 2.02-1.71zm-.08-1.79c.77-.93 1.24-.9 1.36 0 .07.42-.12.7-.59.77-.66.15-.93-.12-.78-.78zM34.93 30.69c-1.475-.155-2.794-.543-3.88-1.126 1.202-.116 2.25-.31 3.182-.582.466-.116.97-.272 1.437-.35l.46-.116c.74-.194 1.01.155.74 1.048.11 1.514-1.67 1.126-1.94 1.126zm-1.164.892c1.047.195 2.095.427 3.104.7v22.51c-.583.427-4.774.62-5.822.738-2.018.195-4.075.35-6.21.428-.232 0-1.164-.04-1.164-.04-.233-2.173-.388-20.803-.35-20.92.156-1.747 0-3.144-.426-4.27h.776c1.203-.23 2.484-.426 3.882-.58v-.195c.97.155 1.94.388 2.755.698 1.09.35 2.22.66 3.46.94zM23.29 72.648V59.45h1.552c1.32-.27 9.317-1.512 10.908-1.745 1.01-.117 4.774-.583 5.396-.583 1.436-.27 2.988-.425 4.658-.387h.388V78.47c-.737.503-1.785.813-3.066.93-1.125.08-2.174.312-3.105.7-.15.077-5.01 1.435-6.21 1.63-.15 0-8.57 2.21-10.13 2.56h-.19c-.12-3.88-.19-7.76-.19-11.642zm20.183-16.884c-.505 0-1.048 0-1.553.078-1.127.077-3.34.504-3.495.504-1.746.194-6.21.776-6.598.776-.737.272-5.434.738-6.598 1.087-1.4.42-2.06.03-1.95-1.09 1.94-.12 3.88-.23 5.82-.39.15 0 3.37-.39 3.49-.39 1.78-.04 5.43-.66 5.43-.78 2.64-.08 5.24-.2 7.76-.39h.38c-.58.42-1.47.66-2.72.58zM59.58 53.24h-4.076c-.116 0-.194-.038-.194-.038-.116-.776-.194-1.514-.194-2.29.466-.427.854-.27 1.165.388.12.233.28.505.39.777 1.83-.39 2.8 0 2.91 1.164zm-2.135-3.493c.893.117 1.28.62 1.164 1.475 0 .04-.12.078-.39.078-.78 0-1.05-.505-.78-1.553zm1.164-3.105c-.12.117-.28.233-.43.31-.47.312-.93.66-1.32 1.05-.12.116-.24.193-.31.232-1.05.427-1.75 1.048-2.22 1.9v2.72c0 .23-.04.387-.12.426-1.01.426-1.75.388-2.22-.04v-6.986h3.11c1.16 0 2.33.04 3.49.194v.194zm-7.77-14.75c-.51-.038-.9-.154-1.21-.35-.35-.31-.74-.504-1.17-.66-.97-.27-1.83-.62-2.64-1.008-.16-.078-1.44-.388-1.9-.543-.74-.19-1.52-.42-2.37-.66-.16-.07-2.29-.23-2.76-.66h.39c.15 0 3.88-.66 3.88-.77 2.25-.04 4.31.16 6.17.62 1.55.39 3.26.7 5.08.94 0 .12-.04.23-.08.31-.89 1.17-2.02 2.1-3.42 2.8zm18.63 23.29H59.38c-1.94 0-3.882.077-5.784.27-1.398.156-2.173-.232-2.368-1.047 2.445 0 9.703-.272 9.703-.388 2.99 0 5.94.116 8.89.388.04 0-.19.62-.35.776zm-9.66-10.325c-1.55.27-3.42.35-5.48.232h-.39c-1.48.19-2.02-.59-1.55-2.33.39 0 4.54-.39 4.66-.39 1.82 0 5.43-.27 5.43-.39h9.7c.16 0 4.27-.27 4.27-.39h2.33c.47.19.39 1.78.39 1.94H75.3c-1.436.08-2.873.19-4.27.31-.62.04-1.242.15-1.864.31-.308.08-6.907.19-9.352.7zM19.02 77.693V66.826c0-.388.387-9.586.387-9.704 0-1.32.66-5.123.583-6.25-.117-2.444-.583-11.76-.583-13.933v-.39c0-1.83.272-5.44.39-5.44h1.55c.855.31 1.204 1.2 1.01 2.71-.155 1.16-.232 2.33-.232 3.49V83.9c0 .118.04 1.9-.738 1.747-.582-.08-1.242-.156-1.98-.195-.115 0-.193 0-.193-.04-.118-2.288-.195-7.604-.195-7.722zm-2.72-50.07h-.39c-1.707-.62-3.415-1.203-5.083-1.746-1.088-.31-3.3-1.165-3.456-1.165-1.12-.04-1.51-.737-1.16-2.134 3.26-1.902 6.37-3.96 9.4-6.133.08-.04.2-.077.31-.077.47.698.08 3.346.19 3.346 0 .116.67 7.444.2 7.91zm-4.27 5.046c1.203-.24 2.368-.47 3.532-.74.117-.04.233-.04.35-.04.854.19 1.126.97.815 2.33 0 .11-.04.23-.04.39-1.087.15-2.29.27-3.493.35-1.165.04-1.552-.74-1.165-2.29zm3.493 11.87c-1.125.04-2.29.08-3.493.11-.232.04-.755 0-.755 0 .178-1.28.018-2.33-.41-3.07.662-.27 1.398-.43 2.33-.39.932 0 1.708-.16 2.33-.39.853.19 1.124.97.814 2.33 0 .11-.04.23-.04.38.19.66-.08 1.01-.78 1.01zm-.542-6.48c.08-.7 0-1.36-.23-1.9h1.56c.47.58.58 1.47.43 2.71-.04.11-.04.23-.04.38-1.2.31-1.78-.08-1.7-1.21zm-6.29-.39c.04-.24.3-.58.14-.81 1.05-.16 1.77-.24 2.81-.43 1.56-.31 2.18.23 1.94 1.67.2 1.47-.58 2.05-2.36 1.74-.08 0-.23 0-.39.04-1.7.43-2.44-.31-2.13-2.21zm4.51 8.58v1.94c-.42 1.12-1.59 1.55-3.49 1.24-.39-.04-.7-.2-.97-.35-.11-.08-.19-.27-.19-.51 0-.93-.12-1.71-.39-2.33 1.9.08 3.61.08 5.05 0zm-.38 50.07c1.36-.35 2.13-.08 2.29.78.23 1.24.12 2.13-.35 2.71h-.39c-.23 0-.46-.08-.62-.2-.54-.47-.93-3.07-.93-3.3zm1.57-3.61c0 .11.56.16.56.31.51 1.94-.18 2.24-1.74 2.13-.77 0-1.55-.08-2.29-.16-.15-.04-.27-.04-.42-.04-.66.04-.93-.31-.77-.97.47-.35.7-.98.78-1.91 0-.04.12 0 .39.04.59.15 1.21.27 1.94.31.9.08 1.15.62 1.58.27zm-1.57-5.32h1.55c.16 0 .63.04.7.08.04.08.08.15.08.31v3.1c-.11 0-1.78-.39-1.94-.39-.15 0-.19 0-.19-.04-.15-1.01-.19-2.06-.19-3.07zm2.33-1.17c-.23 0-.5-.04-.77-.08-.77-.08-1.55-.12-2.32-.08-.7 0-1.01-.2-1.01-.63.04-1.2-.11-2.1-.54-2.72 1.24-.08 4 .23 4.27 0 .47.7.39 3.34.39 3.49zm-1.46-9.45c-.89-.16-2.26.02-3.07-.25-.08 0 .12-.09.08-.31-.2-1.08.39-1.6-.19-2.41 1.71 0 3.34.11 5.01.38.04 0 .04.11.04.39v.77c.06.47.06 1.71-1.86 1.42zm1.78-4.95c-.15.47-.62.54-1.43.23-.43-.16-.5-.66-.23-1.44.19-.62.12-1.17-.2-1.48 1.83-.27 2.45.62 1.86 2.68zM10.1 67.6v-2.72h1.944c1.165 0 2.255-.25 3.34-.02.08.04.15.52.15.79 0 .66.075.764.075 1.424-.12 0-.31.515-.47.515h-5.05zm5.47-5.05c0 .11-.04.27-.04.39-.114.11-.27.19-.424.27-.234.08-.83.04-.986-.08-.585-.58-.337-1.557-.14-2.91h.385c1.202-.04 1.59.733 1.202 2.33zm.08-5.05c-.08.385-.117.773-.117 1.16h-5.44c-.233 0-.39 0-.39-.04-.076-1.08-.775-2.56-.775-2.67v-.39c1.98.16 5.28-.39 5.434-.39 1.204-.03 1.63.74 1.28 2.33zm-8.89-3.6c-.08-.197.01-.4-.08-.66-.326-.96.072-1.65-.39-1.85 0-.154 1.172-.124 1.172-.24 1.12-.194 1.04-.163 2.24-.202.81-.07 1.2.32 1 1.37-.115.51.175 1.16.06 1.66-.07.47-.98.41-1.84.41-1.08 0-1.82.03-2.17-.48zm1.01 9.43c-.11 0-.23 0-.35.04-.58.115-.33-.075-.3-.5.47-.468.19-1.17.27-2.258h.78c1.44 0 2.51-.22 3.9-.22.16 0 .6.147.76.147 0 .39.04.85.072 1.2.21 1.14.493 1.18-.47 1.36-1.552.15-3.105.23-4.66.23zm-.38 8.93v-2.72h5.05v2.71c-.58.424-1.47.142-2.717.142-1.086 0-1.863.283-2.33-.145zm.39 8.92v-.39c0-.93-.29-1.9-.29-2.79.15 0 .56.07.68.07 1.4.04 2.68.157 3.88.35.16 0 .23.04.39.04.43.426.58 1.203.43 2.33 0 .232-.08.39-.16.426-1.126.42-4.27-.04-4.93-.04zm-.38 8.923c-.237 0-.687-.406-.72-.484.65-1.18-.06-1.39-.06-2.62 1.55 0 2.99.12 4.27.35.15 0 .27.04.39.04 0 .11.033.23.033.38.468 1.86-.192 2.64-1.98 2.33H7.38zM6.25 98.42c-.778-.116-1.05-.854-.855-2.097.04-.27.04-.543.04-.775 1.28.116 2.483.31 3.57.543.737.16 1.475.28 2.25.31.66.08.932.55.777 1.48.232 1.4-.35 1.9-1.902 1.44-.156-.08-.31-.11-.466-.15-1.086-.27-2.212-.5-3.415-.74zm4.23 9.938v1.163c-1.01 0-2.057-.19-3.066-.5-.155-.08-.27-.08-.427-.08-.892 0-1.358-.31-1.32-.97.04-1.2-.007-2.43-.474-3.01 0-.15.588.17.588.05h.69c.86.2.72.21 1.69.36.28.04.55.08.78.08 1.56 0 2.06.97 1.56 2.92zm.427-4.078c-.97.04-1.63-.154-1.98-.58.156 0 .388-.66.388-.778v-2.328c.66 0 2.95.39 3.494.39h.38c0 .387.04.776.11 1.125.31 1.59-.08 2.36-1.28 2.36-.24 0-.51-.04-.74-.12-.16-.08-.28-.08-.39-.08zm3.493 6.327c-.04.04-.194.08-.427.08-.544-.157-1.01-.234-1.553-.234-.737-.04-.854-.467-.35-1.28.117-.155.194-2.6-.426-3.145h.776c.427.426 1.203.7 2.33.776 0 0-.118 2.678-.35 3.803zm.738-5.744c-.544.155-.815.04-.815-.388.04-1.164.04-2.328.04-3.493h.778c.47.582.7 1.475.66 2.717 0 .69-.19 1.08-.66 1.16zm.66-25.268c-.04.155-.195 1.748-.66 1.98h-.388c-.233 0-.39-.04-.39-.118-.27-.97-.387-1.98-.387-2.988h.388c.16 0 1.83-.08 1.44 1.12zm.232-27.13c-.077.387-.116.775-.116 1.163-.737.39-1.785.543-3.104.427-.233-.04-.683.108-.683.07-.04-1.592.456-2.756-.282-3.455 1.32 0 1.896-.263 2.944-.497.11-.04.23-.04.35-.04.85.196 1.12.973.89 2.33zm-.116-3.882c0 .117 0 .195-.04.195-1.35-.015-1.677.674-1.754-.142.427-.582.513-1.955.435-3.158h.195c1.514-.195 2.057.582 1.63 2.33-.04.27-.116.465-.232.698 0 .038-.08.077-.234.077zm2.33-8.54v11.645c0 .117-.39 6.056-.39 8.927v50.46c-.116 0-1.59.038-1.59-.387.038-2.174.038-4.425.038-6.6v-17.85c0-1.71.388-7.26.388-7.375v-4.27c0-1.165.194-3.882.194-3.882-.117-5.43-.194-10.86-.194-16.3.155 0 .776-8.42.776-8.54v-2.72c0-1.16.194-5.04.194-5.08-.116-1.9-.194-18.98-.194-20.53v-4.66h1.164v15.53c0 .89-.387 9.43-.387 11.64zm60.16 78.017v.388c-.116 0-1.242-.077-1.437-.193-.698-.39-1.63-.66-2.794-.777-.156 0-.31-.038-.428-.038-1.552-.232-3.104-.466-4.62-.7-.154-.037-.31-.037-.426-.077-1.32-.077-2.49-.27-3.5-.465-1.44-.31-2.84-.583-4.27-.815-1.67-.31-3.38-.582-5.05-.815-1.67-.27-5.71-.62-5.86-.66-1.36-.348-7.46-.89-8.89-.89-4.19-.313-8.23-.816-12.03-1.477-1.4-.23-2.8-.35-4.27-.38-1.94-.04-3.54.21-4.98-.34-.12 0-.79-.51-.79-.55-.16-2.02.16-3.96-.07-5.78 3.57.31 7.06.62 10.52.97 1.86.2 3.65.39 5.39.62 3.41.51 18.75 2.64 20.53 2.88.81.12 1.59.27 2.41.43 1.67.35 3.45.59 5.39.7.12.04.27.04.43.08 1.09.27 9.51 1.36 10.01 1.52 1.05.27 4.19.43 4.35.51.11.04.23.08.35.08v5.82zm-.776-6.986c-1.203-.62-8.54-1.708-10.48-1.592-.62 0-4.58-.736-6.17-.854-.544-.077-4.125-.736-4.093-.72-.776-.35-1.963-.328-2.895-.483-.155-.037-.31-.037-.427-.037-2.018-.08-3.765-.312-5.395-.738-.155-.04-.31-.04-.427-.077-1.86-.155-3.68-.428-5.39-.7-.15-.038-.27-.038-.42-.038-1.98-.077-3.8-.31-5.43-.62-.5-.118-1.05-.195-1.55-.234-1.82-.23-3.6-.38-5.43-.46-.5-.04-1.01-.11-1.47-.27-.74-.19-1.51-.31-2.41-.31-2.02-.08-3.84-.23-5.43-.54-.27-.07-.42-.15-.46-.23-.62-1.16-.85-2.67-.7-4.5v-9.32h2.72c1.32 0 5.75.62 6.52.97.66.28 1.5.29 2.65.5 1.41.26 2.27.12 3.09.31 1.59.35 3.42.26 5.44.46 1.82.19 4.52.32 5.53.36 1.9.04 3.76-.06 5.51.17 3.42.47 7.03.7 10.87.74 1.32 0 15.45 1.48 16.69 1.55v11.65c0 1.4.27 4.27.39 4.27 0 .11-.19.93-.78.77zm.388-21.348h-.388c-.116 0-3.493-.39-5.047-.39-.11 0-4.38-.387-5.82-.387h-5.04c.9-.31 1.32-1.09 1.28-2.33 0-.97.24-2.95.2-2.99-.93-.78-1.78-1.59-2.64-2.45-.93-.2-1.63-.08-2.02.31-.46.5-.89.46-1.28-.08-.11-.16-.19-.24-.27-.28-1.82-.31-3.49-.31-4.97.04-.35.39-1.24 1.9-1.36 2.25-.27.77-.73 1.47-1.35 2.02-.31 1.36-.04 2.06.82 2.13 1.52.15 2.91.35 4.23.62 1.01.23-6.05-.04-7.76-.04-3.14.03-9.2-.59-9.31-.63-3.26-.2-10.52-1.2-11.21-1.09-1.59.23-2.37-.23-2.37-1.4 1.17-.12 2.25-.32 3.19-.55 1.13-.27 6.45-1.44 7.8-1.9 1.2-.47 2.49-.82 3.77-1.17 1.71-.43 3.49-.82 5.44-1.16.89-.2 1.82-.35 2.76-.47 1.01-.12 2.06-.2 3.07-.2h1.16c2.6 0 5.16.04 7.76.19v.2c2.72 0 18.71 1.47 19.8 1.55v1.56s.08 6.13-.38 6.6zm-6.21-18.63V56.344h1.166c.464.427.425 5.084.542 6.21.155 1.28.232 2.6.232 3.88V79.63h-1.55c-.117-.27-.195-.542-.195-.814-.11-1.398-.19-7.61-.19-7.725zm-.39-17.08c1.593-.426 2.252-.077 1.98 1.05-.04.077-.155.115-.387.193-1.25.23-1.75-.16-1.6-1.25zm1.942-.736c-1.552.388-2.62-.178-2.182-1.057.438-.878.9-.418 1.405-.496.16-.04.43.155.47.194.23.08.35.2.43.32.39.58.35.93-.11 1.05zm5.046 21.308c-1.203.31-1.708-.078-1.553-1.165.16 0 .17-7.11.17-7.228 0-1.67.22-3.524.22-5.193.16 0 1.54-.094 1.54-.056.27 1.786.02 3.277.02 5.102 0 2.445.08 4.93.24 7.336.04.74-.15 1.127-.62 1.204zm.388-14.75H75.98c0 1.67-.146 4.187-.146 5.855v.39c0 2.057-.147 3.344-.147 5.4v3.106c0 .11.233.93.816.81.116-.04 2.116.07 1.948.73-.15.61-.04 3.22-.04 3.88h-.39c-.77 0-2.33-.2-2.33-.2-.81-.12-.77-2.02-.77-2.14v-1.94c0-2.72-.19-8.15-.19-8.15-.11-3.77-.19-7.53-.19-11.26v-.39c1.55 0 3.11.11 4.62.35.04.03.12 2.79-.35 3.53zm-.388-4.618c-1.01-.04-2.057-.04-3.105-.04-.12 0-.2-.038-.2-.076-.12-.35-.2-.7-.2-1.087 1.32 0 2.6.04 3.88.194v.2c.19.55.04.82-.39.82zm.388-1.98h-2.33c-.232 0-.427-.077-.582-.193-.116-.155-.232-.31-.35-.505-.58-1.164-1.824-1.708-3.725-1.63-.117 0-1.165.622-1.165.776-.117.117-.307 1.007-.385 1.163-.426.74-1.17.39-2.333.39-.233 0-.427-.07-.543-.19-.74-.97-1.36-2.05-1.79-3.3-.66-.73-1.55-1.35-2.6-1.78-.93-.42-1.63-1.12-2.06-2.09 1.12-.42 2.56-.62 4.27-.62.77.04 1.55 0 2.33-.08.66-.07 1.32-.07 1.94-.07 1.43 0 2.83-.07 4.27-.19 0 0 1.82-.19 2.72-.19h.39c1.2-.23 1.9.04 2.17.86 0 .35.04.74.08 1.13.08 1.55.19 3.07.27 4.58.08.97-.12 1.63-.58 1.98zm2.717-11.255c0 .116-.39 7.607-.39 9.315v5.822c0 .117-.39 15.643-.39 23.288v38.816h-.78c0-1.94-.39-8.812-.39-8.928V98.265c0-1.823.39-14.904.39-15.526V67.21c0-4.268.77-32.99.77-33.767v-.39c0-1.707.39-7.257.39-7.374v-4.27c0-.39-.39-9.47-.39-9.71V2.78h1.16v29.5c0 .117-.39 8.773-.39 9.705zm2.71-9.704c0 .12-.39 19.64-.39 21.74v5.05c0 .12-.39 7.49-.39 8.15v52.79c-.12 0-.24 0-.35.04-.59.12-.82 0-.82-.42h-.2c-.12-1.43-.2-2.87-.2-4.27V67.99c0-4.386.38-15.68.38-16.69v-1.94c0-2.213.39-9.317.39-10.48v-.39c0-2.716.27-10.48.39-10.48V2.006h1.56v9.705c0 .62-.39 17.59-.39 20.57zM87.21 3.6c-.154 1.79-.27 3.57-.27 5.4-.116 0-.39 9.043-.39 13.584v.388c0 .894-.39 10.986-.39 12.81v43.47c0 4.385-.113 34.156 0 34.156v6.6c-.113 0-1.394-.04-1.433-.12-.078-.036-.116-.54-.116-.657V69.16c0-.39.39-4.93.39-5.047 0-3.105.39-17.234.39-20.96v-.388c0-6.87.39-20.843.39-20.96V9.775c0-.545.39-6.368.39-8.54.86.19 1.2.965 1.05 2.362zM278.6 80.767c.08-.23.08-.504.08-.737 1.824-.156 2.956.78 2.18 2.914 0 .08-1.184.19-1.456.19-1.165 0-1.15-.775-.802-2.366zm.856-27.52V50.92h3.104c.27 0 .39 0 .39.037.076.932.27 1.592.582 2.02.155.193.193.27.116.27-1.63.388-3.028.35-4.193 0zm1.24 3.728c-.04.117-.193.117-.426.08-.853-.156-1.125-.894-.814-2.25 1.514-.197 1.902.54 1.242 2.17zm-1.242-7.607c-.117 0-.194 0-.194-.04-.116-.893-.193-1.786-.193-2.68.543 0 1.048.04 1.514.156.04.04.04.078.04.23 0 .12.04.235.04.35.35 1.44-.04 2.1-1.2 1.98zm.74 9.082c.036.04 2.66-.283 3.24.3.156.116-.06.824-.02 1.057.27 1.242-.04 1.9-.854 1.98h-2.716c-.234 0-.39-.04-.39-.08-.27-1.124-.388-2.25-.388-3.415.386 0 .775.04 1.125.158zm.27 7.14c-.04.04-.08.077-.234.077h-.777c-.116 0-.193 0-.193-.04-.116-.853-.193-1.784-.193-2.677 1.552-.116 2.02.776 1.397 2.64zm2.056 1.476c.778.114 1.088.813.895 2.093-.038.27-.115.46-.233.7-.232.46-.813.66-1.784.58-.66-.08-1.28-.12-1.94-.12v-3.49c1.045 0 2.055.07 3.064.23zm-2.29 6.75c-.27 1.01-.58.97-.892-.076-.155-.623-.27-1.244-.27-1.865 1.163-.115 1.55.506 1.163 1.942zm1.94 2.175c.43.04.66.47.7 1.32 0 1.48-.894 2.06-2.68 1.75-1.163-.19-1.55-1.2-1.124-2.91.932-.23 1.98-.31 3.106-.15zm-3.492 15.68h-.194c-.117-1.05-.194-2.09-.194-3.1 1.358-.31 1.863.2 1.592 1.56 0 .12-.04.24-.04.39 0 .12.193 1.36-1.166 1.16zm4.192 1.56c.077 0 .116.12.154.39.35 1.4-.078 2.14-1.24 2.14h-.39c-1.165.12-2.29.08-3.416-.19-.04 0-.076-.15-.076-.39.465-.46.697-1.24.775-2.33h.39c1.32 0 2.56.12 3.8.39zm-4.19-5.82c-.114 0-.193 0-.193-.04-.124-1.07.173-1.86.173-2.99 1.436 0 2.506-.07 3.902-.07h.388c1.203-.31 1.902-.07 2.058.74.31 1.44-.115 2.18-1.24 2.25-1.554.12-3.224.16-5.087.12zm-3.26-57.44c-.037.24 0 .51 0 .78.117 1.17.156 2.33.156 3.49-1.28-.39-2.484-.85-3.57-1.36-.35-.11-.7-.23-1.05-.31-1.164-.23-2.212-.54-3.183-.97-.738-.35-1.32-.77-1.71-1.4-.113-.15-.192-.39-.192-.62 2.8-.74 5.63-1.36 8.54-1.9.16-.04.27-.04.39-.04.47.43.66 1.21.62 2.33zm-11.513-2.27c-1.05-.35-1.89-.04-2.304.33-1.28-.15-2.25-.58-2.95-1.36-.078-.15-.232-.27-.39-.39-1.63-1.32-3.26-2.67-4.813-4.07 1.748.19 3.417.5 5.008.93.544.15 1.088.27 1.63.35 1.36.23 6.133.89 6.716 1.2.27.16 2.717.9 3.726 1.13.27.04.544.12.815.23.545.23 1.203.35 1.902.43-.466.43-2.603.59-2.757.66-1.475.47-3.145.7-5.007.7-.737-.03-.994.11-1.577-.13zm.752 2.65c0 .66-1.35.86-2.24.62-.16-.03-.24-.11-.28-.27-.08-.5-.16-1.01-.16-1.51 1.28-1.2 2.74-.81 2.66 1.17zm-3.91-1.04c.03.04.07.12.07.27-.55.7-1.45.9-3.11 1.34-.12 0-3.9.84-4.48.84-.7.04-2.23.69-2.23.26-.08-2.99.1-6.86.1-9.81.27 0 .77.23.77.39 2.83 2.33 5.78 4.58 8.85 6.72zm.07 1.87c.15-.04.27-.04.39-.04.46 1.05 1.63 1.4 3.45 1.01.15-.04.83-.37.94-.33 1.39.48 1.77.41 2.63.76 2.25.94 4.54 1.71 6.95 2.45-.78.62-9.44-.62-12.43-1.01-.93-.11-1.71-.23-2.37-.35-1.17-.19-2.33-.46-3.42-.7-.58-.15-2.76-.23-2.76-.66 2.29-.31 4.5-.69 6.6-1.12zM182.55 3.34c.66 0 .807.22 1.427.22.154 0 6.17 1.36 7.373 1.59.544.08 1.05.195 1.554.195 1.32.08 2.483.272 3.493.583.27.117.54.194.813.194 1.708.195 3.377.427 4.968.7.816.155 1.63.31 2.407.466.505.078.97.232 1.437.388 1.358.504 2.91.854 4.735 1.087.115.04 16.727 3.805 17.504 4.076.74.27 1.52.54 2.33.73.82.23 1.71.42 2.68.58 1.6.23 3.15.62 4.62 1.16.16.04.32.11.47.11.62.08 1.24.19 1.87.31 1.56.31 3.15.66 4.7 1.01 1.63.35 3.19.74 4.66 1.2 1.13.27 2.26.62 3.46.97 1.4.39 2.99.77 4.7 1.08.12 0 .27.04.39.04 1.25.04 2.29.27 3.07.66.15.08.31.15.46.15 1.75.27 7.19 1.55 7.85 1.86.78.35 1.63.58 2.6.77.12 0 .27.04.39.04 1.17 0 1.83.43 1.94 1.36-.62.47-1.39.5-2.32.04-.74-.31-1.63-.54-2.68-.62-.15 0-.31-.04-.46-.08-1.82-.58-3.72-1.05-5.74-1.4-.27-.08-.54-.12-.82-.12-1.63-.16-6.91-1.4-7.72-1.79-.15-.08-.31-.12-.42-.16-1.09-.08-1.98-.27-2.72-.59-1.16-.5-5.82-1.47-6.6-1.47-.5-.04-4.92-1.36-6.98-1.63-1.67-.23-3.22-.62-4.66-1.09-1.43-.5-2.98-.93-4.61-1.28-1.59-.35-5.31-1.55-5.78-1.71-1.36-.5-7.8-1.78-8.11-1.94-.93-.39-2.13-.66-3.57-.81-.93-.08-1.86-.23-2.76-.43-1.2-.27-2.48-.51-3.84-.74-.54-.08-1.08-.16-1.63-.27-1.78-.27-3.45-.66-4.97-1.13-.15-.04-14.01-2.79-14.01-2.79-1.77-.39-2.4-.52-2.4-1.73.16 0 .86.15.98.15zm67.256 28.13c.034.962-.854.425-1.01.425V21.8c0-.153.146-.71.146-.827 0-.155.883.39.883.273.266.31.135.982-.098 2.497-.117.504.193 6.715.08 7.724zm-14.98-9.67c-.97.04-1.787.234-2.446.544-.038 0-7.065-5.124-10.247-7.646-.077-.04-.116-.155-.116-.272 2.058-.116 3.648.233 4.774 1.01.2.077 4.62 1.396 5.71 1.475.24.04 3.89 1.05 4.19 1.21.31.12 6.91 1.44 7.38 1.63.74.27 1.71.47 2.8.51-1.59 1.01-3.53 1.63-5.82 1.98-1.2.16-2.37.31-3.53.47-.62.04-1.12-.11-1.51-.5-.27-.23-.66-.35-1.16-.39zm.62 3.455c0 .156-.115.233-.233.233-1.397.078-1.9-.777-1.552-2.523 1.52-.698 2.1.078 1.79 2.29zm-9.12-5.82c1.085.736 5.277 3.88 5.63 4.424.112.15.152.38.152.66.038.77-.505 1.12-1.553.97-.155 0-3.26.7-4.62 1.04-1.202.35-6.13 1.12-6.13.7-.08-4.16-.117-8.31-.117-12.42h.388c1.98 1.62 4.076 3.18 6.25 4.61zm4.23 7.335c.582-.155 1.202-.233 1.94-.194.774.04 1.552.078 2.33.078 1.2.04 1.41-.186 2.39-.783 2.562 1.6 6.263 3.7 8.903 5.17.11.04.23.08.34.08-.58.43-1.48.55-2.68.27-.58-.15-1.24-.23-1.98-.27-1.71-.11-3.38-.19-5.05-.31-2.6-.15-4.97-.5-7.03-1.01-.62-.15-1.24-.31-1.87-.39-.16-.04-.27-.04-.43-.04-1.23-.05-3.06-.58-5.45-1.04 2.56-.43 6.18-.9 8.55-1.55zm10.17-.04c-1.205-.582-2.253-1.32-3.185-2.212 1.52-.466 3.03-.854 4.66-1.242 1.56-.35 5.23-2.114 5.23-2.23.47.402.72 1.105.4 2.735-.11.74-.31 5.36-.54 6.87-.04.04-.11 0-.35-.07-.04-.04-1.18-.7-1.18-.82-1.9-1.32-2.85-1.93-5.03-3.02zm-22.98 1.28c-.154 0-.192 0-.192-.038-.155-1.67-.388-5.007-.388-5.046-.157-1.67-.195-3.338-.195-5.006v-4.66c.55 0 1.01.04 1.52.157.04.04.04.077.04.232V24.9c0 .116.08 2.794-.77 3.104zm-29.886-3.88c-.505 0-3.92.04-4.658-.388.39 0 1.165-.272 1.165-.388 1.05-.155 2.097-.272 3.104-.39.16 0 7.23-1.9 7.65-2.133.55-.35 1.36-.35 2.45-.07.55.12 3.69.93 4.19.04.04-.12.7-.15.86-.15 3.73 2.06 7.53 4.12 11.3 6.14.12.04 1.37.74 1.53.74-1.61.06-2.65-.12-3.85-.35-1.63-.31-13.27-1.59-15.14-1.94-1.82-.35-8.11-.66-8.57-1.09zm3.377-16.457c.66.31 5.744 1.125 7.103 1.32 2.02.31 3.92.776 5.745 1.397.776.31 10.246 2.174 10.944 2.135.23-.04.42 0 .58.155.15.116.15.233.04.272-.82.466-1.63.854-2.53 1.165-1.67.62-11.14 2.833-11.26 2.795-.78-.117-1.59-.42-2.37-.613-1.45.03-1.9 1-2.72 1.23 0-.16 0-.24-.08-.27-.58-.35-4.12-2.8-5.28-3.69-2.41-1.83-8.23-6.76-8.31-6.76-.39-.2-.62-.51-.7-.93.15-.01 7.37 1.2 8.81 1.78zm9.276 12.033c-.544.582-1.087.582-1.668.04-.467-.428-.622-.91-.506-1.92.89-.466 1.59-.682 2.17-.14.62.66.66 1.36 0 2.02zm5.24 1.63c-.156-.08-.605-.706-.722-.744-2.62-1.038-2.38-.5-2.42-2.284 2.49-.66 4.93-1.28 7.38-1.98 1.21-.31 2.37-.775 3.42-1.28.51-.27 1.17-.31 2.02-.194.43.04.62.427.47 1.165-.04.23.31 8.73.31 10.44v.38c-3.49-1.83-6.95-3.65-10.44-5.52zm-24.88 1.63c0-2.096.622-13.16.467-14.362-.04-.543-.078-1.824-.078-1.94v-.388c.582.232 1.01.582 1.32 1.087.038.04 5.24 5.162 8.267 7.297 1 .7 5.2 3.493 5.24 3.493.23.078.38.194.5.35.69.66.5 1.085-.59 1.203-1.48.194-4.54.776-4.66.776-2.84.466-8 2.096-8.11 2.174-.7.27-1.48.505-2.37.7v-.39zm1.94 1.94c.155 0 16.73 1.476 18.282 1.748.776.116 1.515.232 2.29.35.117 0 .272.04.428.078 1.707.27 3.493.504 5.396.66.5.04 1.04.116 1.59.194 1.66.31 5.66.66 5.82.698 1.75.233 3.45.505 5.04.7 1.01.154 2.02.27 3.06.425 1.59.19 3.18.42 4.69.73 1.74.35 3.49.62 5.39.77.11.04.27.04.43.04 1.86.19 3.64.35 5.39.5 1.82.19 3.61.39 5.43.62.11.04.27.04.38.04 2.06 0 11.92 1.9 15.53 2.13.97.04 1.9.15 2.75.27 2.02.23 3.96.46 5.82.74.74.07 1.51.19 2.29.27.27.04.5.04.74.04 1.24-.16 1.9.15 1.98 1.01-.51.35-1.28.38-2.37.11-1.55-.47-3.34-.66-5.4-.58-1.9.04-3.73-.08-5.4-.39-.86-.16-2.99-.51-3.15-.51-2.06 0-20.11-3.07-21.35-3.11-.16 0-.27 0-.39-.04-1.94-.11-3.73-.31-5.44-.54-1.71-.27-3.5-.47-5.44-.54-.54-.04-1.01-.08-1.55-.19-3.19-.59-6.68-.93-10.48-1.01-.16 0-13.67-2.1-15.1-2.29-.16-.04-.31-.04-.43-.08-2.29-.27-4.58-.54-6.95-.74h-.43c-3.8-.2-7.41-.55-10.87-.97-.12 0-.2-.04-.2-.08-.12-.35-.19-.7-.19-1.09h2.33zm-2.328 17.08v-14.75h1.166c1.32.23 21.58 1.94 22.9 2.33 3.5.387 6.87.852 10.13 1.473 1.67.31 9.67 1.43 10.83 1.39.97-.04 16.3 1.78 16.69 1.82 2.14.15 4.12.46 5.9.89.58.15 1.24.27 1.86.31 1.36.15 5.05.7 5.05.7-.39.62-1.28.89-2.72.77v1.55c0 .23 0 .39-.04.39-2.4.23-4.85.38-7.33.38-2.72 1.78-7.99 5.97-8.11 5.97-.85-.2-1.9-.24-3.14-.16v-.19c-1.43-.16-16.14-1.36-17.85-1.36-.15 0-7.6-.39-7.76-.39-.62 0-1.93-.2-1.93-.2-2.33-.16-4.66-.2-6.99-.2h-.39c-2.83 0-11.64-.39-13.19-.39h-5.05v-.39zm78.404 18.24v-9.704h.38c3.3-.35 6.79-.466 10.48-.39h.38c1.01-.23 1.16 1.4 1.16 1.554V67.99c-.74-.31-1.63-.465-2.72-.427-1.01 0-1.79-.233-2.33-.738 0-.504-.12-.892-.39-1.165-.23-.27-.47-.543-.58-.854-.39-.854-3.42-.427-3.85-.116-.16.116-.27.27-.43.388-.12.117-.2.194-.23.194-.74.117-1.52.117-2.29 0v-.388c0-.27.39-4.152.39-4.657zm13.97 30.277h.39c1.08-.312 1.51-.04 1.36.736 0 0-.82.42-.98.42h-4.27v.19c-1.28.11-4.12.19-4.27.23-1.4.23-2.95.35-4.66.35v.19c-1.44.12-2.84.19-4.27.19h-.39c-2.48.07-13.82.77-13.97.77-.39 0-5.59.39-7.38.39h-9.32c-1.32 0-12.43.19-12.43.19-1.44.11-2.87.19-4.27.19h-.39c-.78 0-6.6.19-6.6.19-1.94.12-3.88.19-5.82.19h-16.3c-.12 0-.2 0-.2-.04-.12-.51-.2-1.01-.2-1.51 1.55 0 10.36.39 13.19.39h12.81c.15 0 14.51-.39 16.3-.39h15.14c1.32 0 9.2-.39 9.31-.39h1.16c3.06-.2 6.05-.43 8.93-.78.15 0 2.29-.47 3.49-.43 1.32.04 6.09-.74 7.37-.74h.39c.55 0 4.55-.39 5.83-.39zm-5.44-5.824h1.16c.15 0 .49.36.61.36.46.43.44.83.44 1.96.03 1.2-.2 2.13-.66 2.72h-.78c-.24 0-.39-.04-.39-.08-.23-1.63-.39-3.3-.39-4.97zm3.1.77h.39c.85.19 1.16.97.93 2.33-.08.66-.27 1.24-.47 1.78-.04.11-.2.15-.47.15-.12 0-.2 0-.2-.04-.12-1.4-.2-2.84-.2-4.23zm2.33.39h.39c.15 0 1.05.38 1.16.38v3.49c-.12 0-1.17-.04-1.17-.08-.28-1.24-.39-2.52-.39-3.8zm-4.23 11.99c.5 2.09-.16 3.03-1.98 2.75-.12 0-.24 0-.39-.04-.82-.08-.78-2.18-.78-2.3V93.2h2.71c.46.584.62 1.476.46 2.717-.04.505-.08 1.01-.08 1.554 0 .12.04.24.04.35zm-4.12 2.56c.15.11.15.19.04.27-.39.19-.86.31-1.4.39-1.09.11-2.26.23-3.5.31h-.2c-.12-2.6-.2-5.21-.2-7.77h2.72c1.55-.12 2.09.77 1.67 2.71-.28 1.24.73 3.92.85 4.07zm-6.6.93c0 .04-2.37 1.4-2.91 1.28-.27-.08-.39-.12-.39-.12-.24-2.06-.39-4.12-.39-6.17v-1.94c.85-.35 1.86-.39 3.06-.2.46.08.66.54.54 1.36-.08.66-.12 1.28-.12 1.94 0 1.28.08 2.56.19 3.84zm-5.24.81v.39c0 .11 0 .19-.04.19-1.28.38-2.68.54-4.23.58-.12 0-.2 0-.2-.04-.12-1.67-.2-3.34-.2-5.01v-3.49h2.33c1.78-.35 2.4.42 1.97 2.33-.2.81.35 3.88.35 5.04zm-8.16 1.55c0 .11 0 .19-.04.19-.62.12-1.25.19-1.9.19v-9.31h2.33c.85-.2 1.28-.04 1.32.39.15 2.33.31 4.65.42 6.98 0 .11 0 .27.04.38.11 1.2-.59 1.55-2.18 1.16zm-8.93-8.54h5.05c0 2.83.39 8.54.39 8.54.15 0-1.95.77-3.11.77h-1.55c-.16 0-.2 0-.2-.04-.16-1.67-.2-3.34-.2-5.01 0-.16 0-.27.04-.39.15-1.59-.01-2.87-.43-3.88zm-1.94 9.74c-.39-.04-2.91.54-4.27.35V95.16h4.66c0 1.396.62 8.926.77 8.926.62.62.23.892-1.16.815zm-8.93.74h-.78c-.24 0-.39 0-.39-.04-.23-3.46-.39-6.95-.39-10.44h4.27c0 2.71.38 8.15.38 8.15.15.5.23 1.04.35 1.55.04.27-2.29.78-3.46.78zm-3.49-10.29V106h-5.05V95.16c1.71 0 3.34.038 5.04.194zm-7.38 11.06c-.93 0-2.96.19-3.9.19-.23 0 .01-2.02.01-2.14v-8.93H215v8.92c0 .11-.16 2.17-1.17 1.94zm-5.43-10.87v11.26h-4.66V95.55h4.66zm-5.82 10.87v.39h-.39c-1.01 0-3.34.39-3.46.43-1.09.23-1.59-.04-1.59-.82V95.93h5.04c0 2.175.04 4.387.19 6.56 0 .04.2 2.6.2 3.92zm-6.45-7.38c-.12 1.28-.16 2.56-.16 3.88v4.27h-4.65V95.93h4.27c.46.7.62 1.747.54 3.105zm-6.36-2.71v10.87h-3.11c-.12 0-.23 0-.39-.04-.43-.04-.54-.43-.39-1.13v-9.7h3.88zm-5.36 2.72c-.04.5-.08 1.01-.08 1.55v6.99h-4.65V96.32h4.27c.47.584.62 1.477.47 2.72zM216.22 45c.12.04.2.074.35.074 1.4 0 2.84.037 4.27.192v.19h2.72c.157 0 5.048.23 5.048.39 1.59.35 3.413.502 5.43.464 1.28-.04 2.21.31 2.79 1.01.54.7.27.97-.856.855-1.436-.464-3.144-.696-5.046-.736-1.82 0-9.93-.82-12.42-.82h-1.16c0-.16-3.34-.39-5.05-.39-.154 0-11.88-.39-12.03-.39-2.72 0-10.6-.39-11.65-.39h-5.04c-.116 0-2.95-.39-3.105-.43-.42-.04-.54-.43-.38-1.13.27.11 4.54.39 4.65.39h19.41c1.94 0 11.91.62 12.07.7zm44.99 36.95c-1.7-.467-3.41-.97-5.04-1.477-1.7-.544-3.37-1.05-5.08-1.437-1.32-.347-2.48-.812-3.45-1.356V66.44c2.6.27 4.93.775 6.984 1.55.58.194 1.203.35 1.94.466 1.785.233 3.454.582 5.046 1.087v12.42h-.39zm-.38 6.6h-.39c-.11 0-.19 0-.19-.04-.12-1.9-.198-3.846-.198-5.787.388 0 .777.04 1.126.156.04.04.04.08.04.24 0 1.01.04 2.06.15 3.07.08 1.13-.08 1.91-.547 2.37zm-1.866-1.94c.08 1.51-2.056 1.2-2.056.772.04-1.826.04-3.65.04-5.435 1.16-.15 1.82.24 1.93 1.17v.39c0 1 .04 2.05.08 3.1zm-3.18-.39c0 1.28-.39 1.51-1.165.773h-.39c-.12 0-.19-.04-.23-.08-.08-.23-.16-.463-.16-.696v-5.05h.39c.39 0 .77.03 1.12.15.04.04.04.08.04.23.15.112.19.27.23.39.12 1.44.15 2.832.15 4.27zm-2.87-3.497c-.157 1.28-.353 2.563-.585 3.805-.04.04-.12 0-.35-.08-.04-.04-.31-.23-.47-.23h-.39c-.12-.275-.19-.545-.19-.817-.12-1.67-.19-3.34-.19-5.01h1.16c.85.2 1.2.97 1.01 2.33zm-3.885-2.716c.12 1.43.15 2.83.15 4.27 0 1.28-.39 1.51-1.17.77-.12 0-.24-.04-.35-.08-.16-.08-.27-.19-.43-.31v-5.81c.35.31.85.5 1.55.58v.19c.15.112.19.27.23.384zm-2.56-19.8V40.43h5.82v23.68c-.12 0-.23-.04-.39-.04-1.17-.233-2.33-.466-3.5-.738-.11 0-.19-.04-.19-.04-.23-1.435-.81-2.444-1.75-3.065zm.38 26h.39c2.71.5 5.31 1.084 7.84 1.71 1.43.343 2.71.732 3.88 1.12.46.194.97.31 1.44.427.77.16 3.5 1.05 2.96 1.164-.47.16-1.52.09-2.67-.003 0 .114-1.03.043-1.03.043-1.28.115-2.56.19-3.88.19h-.39c-4.85.54-10.06.816-15.53.775v.194c-1.66.11-3.33.19-5.04.19h-13.2v.19c-2.09.116-4.11.195-6.21.195h-.39c-2.09 0-9.5.424-10.09 0 .9-.39 2.06-.546 3.5-.39h.39c.27-.27.66-.39 1.17-.39h.38c1.59.196 2.87 0 3.84-.464.15-.08.23-.156.23-.156-.74-.936-1.32-2.02-1.83-3.226-.08-.15-.15-.23-.31-.23-1.32.036-2.21-.31-2.72-.97h10.48c2.18 0 4.39.036 6.6.19v.2c-.16 0-.23 0-.35.08-1.28.582-2.33 1.475-3.14 2.64-.16.892.12 1.4.77 1.513.16 0 .23.04.39.04.62.23 1.4.38 2.33.38h.39c1.01.11 1.78 0 2.36-.31.12-.08.2-.08.35-.08h3.88c.93-.23 1.71-.62 2.33-1.21.12-.12.23-.23.23-.39.12-.47 0-.78-.31-.93-1.32-.54-2.33-1.4-3.03-2.52h13.97zm-44.64-7.76v-12.8h19.42c1.2-.09.96 2.99.96 3.102.15 2.95.19 5.94.23 8.92 0 1.16-2.6 1.16-2.76 1.16h-5.05c-3.26 0-12.65-.39-12.81-.39zm2.1 3.88c-.12 1.05-.2 2.06-.35 3.064-.16 1.05-.58 1.17-1.36.43V80h1.16c.43.426.62 1.24.54 2.327zm-11.26.734c-.12-1.01-.15-2.05-.15-3.06v-.38h1.55c.46.2.62.74.54 1.55-.12.78-.08 1.51.07 2.29.35 1.94-.25 2.76-.41 2.76-.12 0-2.39 0-2.51.04-1.59.39-2.37-.04-2.37-1.2-.11 0-.19 0-.19-.04-.11-1.28-.19-2.56-.19-3.84v-1.55h2.33c0 1.79.27 5.44.38 5.44.15.12.23.27.31.43.07.08.69-1.16.61-2.4zm-8.69-4.61h-4.66v-12.8h17.85c.46.47.62 1.24.54 2.33-.12 1.05-.16 2.06-.16 3.11v7.38h-13.58zm2.68 7.6c-1.13-.12-1.52-.62-1.13-2.17v-4.27c1.08-.19 1.82-.04 2.17.51.11.15.15.39.15.66v2.33c0 .23.04 3.1-1.21 2.95zm-2.64.28c-.86.11-1.28-.08-1.32-.55-.2-1.78-.27-3.61-.27-5.39.15 0 .38-.66.38-.77h1.55c0 1.28.03 6.68-.35 6.72zM190.58 54c-.114 0-.23-.04-.347-.077-.156-.08-.274-.196-.43-.31v8.152c-.697.463-1.745.54-3.064.31-.86-.156-1.13-.894-.82-2.25h2.71c.15 0 .23-.04.23-.08.31-.66.23-1.01-.24-1.087h-1.94c-.12 0-.2-.04-.27-.115-.51-.62-.66-1.63-.51-2.988-.12 0-.2-.04-.23-.08-.16-.388-.47-.62-.94-.7v5.435c0 .115-.08 1.706-.78 1.55-.12 0-.2 0-.2-.04-.12-2.444-.2-4.89-.2-7.334v-2.32c.54-.27 2.33-1.047 2.33-1.164.27.386.54.736.85 1.085.39.505 1.17.7 2.25.66.15 0 .27.04.38.195.54-.156 1.05-.273 1.55-.35.16-.04.66-.04.78-.04 0-.155 2.29-.466 2.14-1.747l.19.193c.15.12.27.235.39.39.46.078.77.31.93.7.04.038.12.077.23.077.46.7.77 9.16.77 9.314 0 .11-.04.19-.08.27-.66.5-1.67.7-3.03.5-.12 0-.24 0-.39.04-1.75.31-1.94-2.64-1.94-2.76.07-2.02-.08-3.81-.39-5.44zm6.87-3.88c0 1.592-.347 2.096-1.046 1.553 0-.155-.04-.233-.08-.27-1.67-1.476-3.34-2.95-4.97-4.387 1.82 0 3.61.04 5.43.194v.194c.464.58.7 1.474.66 2.715zm.7-1.164c0-.155.194-1.32.194-1.553h.38c.43.582.62 1.475.466 2.717-.04.506-.08 1.01-.08 1.554 0 .893.196 3.105.196 3.105.154 1.28.193 2.56.193 3.88 0 .23.04 1.55-.39 1.47-.82-.12-1.94.46-1.94.42-.04-.78.85-8.66.97-11.61zm.58 13.196c-.152 0-.23-.04-.27-.116-.076-.036.895-1.045 1.05-1.045.154 0 .23.04.35.08 1.162.86.813 1.21-1.128 1.09zm1.943 1.165c.426-.04.582.233.464.777-.038.27-.116.385-.232.463-1.82.7-2.67.27-2.56-1.242h2.33zm-4.66 22.52v-6.21c.66 0 1.28.04 1.9.194.04 0 .04.04.04.2v.77c0 .12.08 2.95.2 4.23 0 .04.076.04.192.04.815-.19 1.203-.97 1.01-2.36-.155-1.28-.234-2.56-.234-3.84v-13.2h1.56v8.93c0 2.95.39 8.93.39 8.93 0 .62.74 2.33.7 2.33-.97.27-3.26.39-3.41.39h-2.33v-.39zm4.66-25.618V47.8h9.318c-.15.58-.54.97-1.16 1.086-1.78.31-3.18 1.01-4.27 2.017v8.93c0 .506.91 1.648 1.06 1.648.16 0 1.19-.14 1.35-.14 0 .27-.11.83-.23.91-.54.19-4.15-.7-4.19-.78-.19-.19-.7-.66-.73-.7-.51-.12-.86-.31-1.13-.54zm10.716-5.79c-.16.85.38 4.42.23 5.78-.04.5-.08 1.01-.08 1.55.77.5 1.08-.04.97-1.59-.16-1.67-.2-5.28-.2-5.4v-1.94c1.08.04.8-1.48 1.46-1.87.93-.54 3.47 1.49 3.85 2.38.43.58.45 2.31.41 3.4 0 .11.04 3.04.04 3.16.15.58-1.18.26-1.61.22 0-.16.3-4.24.3-4.24-.16-.62-.24-2.14-.27-2.22-.2-.19-.47-.35-.7-.46v5.04c0 .5.26 3.54-.17 4.12-.16 0-5.04.15-5.27.15-.16 0-2.14-.04-2.18-.08-.12-.23-.16-.43-.16-.7v-3.1c0-.16-.23-4.31-.27-4.39-.08-.04-.3-.05-.45-.05 0 .78-.44 1.33-.44 2.11v.39c0 .5.03 1.01.15 1.51.31 1.59-.12 2.36-1.32 2.36 0-.16-.2-.39-.2-.39-.16-2.88-.2-5.71-.2-8.54.16 0 1.55-.66 1.55-.78 1.08-.2 1.59.31 1.55 1.55h.38c.39 0 2.75.54 2.56 1.98zm-.63-4.7c1.28 0 1.51.39.77 1.12-.54.5-.77.12-.77-1.13zm8.61 1.55c-.04.5.31 10.32.31 10.48.39 0 1.17-.28 1.17-.39 0-.16-.2-3.11-.2-3.11-.16-3.38-.2-6.75-.2-10.09.81.19 1.16.97.89 2.33-.08.38.5 5.27.5 5.82.12 1.28.12 4.11.08 4.19-.19.31-.47.58-.7.85 0 .23.2 1.05.2 1.12-.08.47-4.23.43-4.81-.03V60.9c.54.12 1.52.05 2.07.05 0 0 .22-1.02.22-1.14V57.9c0-.156 0-.273.04-.39.11-1.823-.43-4.89-.51-4.93-2.22-1.318-4.08-2.95-5.75-4.773 2.1 0 6.21.232 6.21.388.43.7.62 1.746.47 3.105zm-2.02 12.42c.16 0 2.95.07 4.27.19v.39c-3.1.11-6.21.19-9.31.19h-6.21c-.16 0-3.73-.39-3.88-.39v-.78c2.56 0 5.2.07 7.76.19 0 0 4.89.19 7.37.19zM209.21 52c-.428.077-.544-.156-.39-.7.427-.854.815-1.087 1.087-.737.62.775.388 1.242-.697 1.436zm16.3 24.14v9.318h-.387c-1.51.116-1.76-.446-1.55-2.718V65.66h.39c1.202-.038 1.81.298 1.5 1.89-.077.387.052 7.543.052 8.59zm-.426-13.66c-.425.503-1.162.542-2.21.193-.272-.078-.43-.388-.467-.893.427-.582 1.203-.776 2.29-.582.854.194.97.62.388 1.28zm-2.57 20.46c.37 2.18-.517 2.44-.44 2.44-.156 0-.676.074-.83.074-1.127.116-1.165-2.212-1.165-2.33v-3.492h2.32c.42-.04-.05 2.415.1 3.308zm-3.95 2.67c-1.553.27-2.21-.31-1.98-1.708v-4.27h1.943c0 1.67.232 5.046.387 5.046.196.544.04.854-.35.933zm-2.91-2.136c.312 1.748-.27 2.562-1.785 2.37-.97.036-1.48-.352-1.52-1.167 0-1.437-.04-2.872-.04-4.27v-.39h2.71c.42-.037.62.233.54.777-.12.894-.08 1.786.08 2.68zm-6.638 1.166c-.155-1.515-.194-3.067-.194-4.62 1.085-.194 1.784-.038 2.172.505.116.155.155.388.155.66v2.33c0 .114.04.23.04.386.23 1.4-.43 1.94-1.98 1.56-.16-.27-.2-.54-.2-.81zm2.91 5.472l-.387-.04c-1.05-.076-1.83-.464-2.33-1.124-.16-.116-.28-.232-.43-.27-.39-.156-.66-.467-.74-.894 2.64-.428 3.92.348 3.88 2.328zm-6.597-5.046V80.02h1.94c.15.118.19.272.23.388.11 1.553.19 3.107.35 4.62v.232c-.78.775-1.59.815-2.53.194v-.388zm1.98 3.416c.11.04.19.078.35.078.23.116.5.27.69.465.19.195.39.35.58.428.35.155.39.426.04.853-.55.776-.86.7-.93-.194-.08-.582-.35-.97-.78-1.165-.16 0-.24-.04-.35-.08-.16-.076-.28-.115-.39-.115-.97.04-1.63-.155-1.98-.582 1.2-.194 2.17-.117 2.75.31zm-.47 1.048c.04 0 .04.037.04.194-.16.116-.24.155-.32.155-.31-.12-.7-.08-1.17.08-.82.23-1.32.15-1.63-.24.77-.43 1.78-.47 3.06-.2zm-2.29 1.358V90.5c.81-.194 1.39-.077 1.67.27.07.08.11.118.27.118h.19c-.35.427-1.05.543-2.14.388v-.388zm36.83-31.556c-.23.077-.35.077-.35.04-.27-1.514-.39-4.853-.39-4.97v-4.657c.15 0 2.05-1.125 2.25-1.01.08 0 .08.08.08.234v9.7c-.12 0-1.44.58-1.59.66zm.89 3.106c-.04.077-.19.077-.43.04-.86-.157-1.13-.894-.82-2.252 1.51-.195 1.9.543 1.24 2.212zm1.06 1.763c.21.6.21.49-.37.53-2.45.08-4.89.16-7.38.16-1.79 0-3.61.08-5.4.16-1.24.12-2.18-.08-2.76-.54v-.78h8.54c1.55 0 3.11-.07 4.66-.27 1.36-.15 2.48.16 2.69.76zm.06 18.81c-.31 1.84-.35 2.1-2.37 1.67-.12 0-.2 0-.2-.04-.12-1.51-.19-3.06-.19-4.62v-.39c1.41-.32 2.85-.42 2.52 1.74 0 0 .23 1.49.23 1.64zm-7.8-16.88c.54-.07 2.6-.07 3.1-.07h.38c1.43 0 2.83.08 4.27.2V77.7c0 .232 0 .387-.04.387-1.67.235-3.3.39-5.01.39h-6.99c-1.16 0-4.46-.39-4.46-.39-.16-4.15-.12-8.045-.12-12.2h.38c1.71.003 7.15.364 8.47.247zm1.16 14.29v-.77h2.32v2.33c0 .12.04.23.04.39.46 1.87-.49 2.5-2.28 2.19v-.39c.04-1.47-.15-1.8-.1-3.73zm-2.68 4.54c-.47-.15-.7-.62-.7-1.43-.04-1.36.24-2.64-.07-3.88h1.88c0 1.28.23 3.89.39 3.89.31 1.32-.2 1.79-1.52 1.44zm-5.86 2.45c1.78-.23 3.18-.15 4.15.27.23.08.42.2.62.31.19.12.39.24.58.35.08 0 .08.08.08.23 1.01.27 1.01.59-.08.97-.7.24-1.48.43-2.25.59-.97.04-1.52-.31-1.71-1.12 0-.15-.12-.27-.27-.31-.7-.15-1.05-.58-1.13-1.28zm.19 2.14c-.16.12-.23.12-.39 0-.15-.15-.23-.27-.39-.38-.16-.15-.27-.27-.51-.35-.04-.04-.08-.11-.08-.23 1.67-.11 2.1.24 1.36.98zm1.36-9.89h2.33v5.44h-.39c-1.52.12-2.35.12-1.85-2.57-.16 0-.09-1.97-.09-2.86zm-2.72 0c1.2-.31 1.74.08 1.59 1.17-.04.12-.04 2.72-.04 3.88v.39c-.16 0-.24 0-.39.04-1.01.2-1.36-.22-1.36-.26-.16-1.4-.2-3.81-.2-5.21h.38zm-.12 10.06c.08 0 .08.12-.08.27-.39.47-1.13.7-2.14.63-.39 0-.55-.31-.39-.85.62-.42 1.51-.42 2.6-.04zm19.33-21.27c-.12.74-.2 1.52-.2 2.29v12.81c0 .12 0 .62-.08.74-.08.16-.16.27-.31.43-.12 0-.24-.04-.39-.04-.82-.19-1.09-.93-.78-2.29v-9.71c0-2.06.39-6.48.39-6.6 1.2-.03 1.67.74 1.36 2.37zm-1.75-4.69c1.4-.11 1.78.12 1.16.74-.66.66-1.01.39-1.17-.74zm.77-.89c-1.09 0-1.48-.58-1.17-1.82 1.13-.54 1.79-.15 1.94 1.17.04.43-.19.66-.78.66zm0-12.69v9.71h-.97c-.12-4.42-.2-8.81-.2-13.2-1.28-.11-4.66 2.18-4.66 2.33V62.6h-.39v-1.94c0-3.88-.23-12.3-.39-12.42 1.98-1.435 3.92-2.793 5.9-4.19.08-.04.19-.076.31-.076.46.58.39 5.04.39 6.21zm-1.55-7.37c-.78.39-4.74 3.27-4.93 3.58-.58.97-1.01.93-1.28-.08 1.24-.62 6.36-4.31 7.14-5.74.04-.08.11-.08.23-.08 0 1.17-.39 1.94-1.17 2.33zm-6.02 8.93c-.16.78-.2 1.56-.2 2.33v8.54h-10.48c0-.12 0-.27-.08-.35-.47-1.09-1.32-1.75-2.64-1.98-.24 0-1.17-.04-1.17-.04-.23-2.06-.39-4.11-.39-6.17V48.6h5.04c.15 0 .62 0 .77.04.97.27.58.386-1.17.35.43 1.24.62 2.79.58 4.654 0 0 3.53.04 4.08.115 1.67.31 2.33-.39 1.94-2.06.11-1.05.11-1.83 0-2.33h2.71c.81.19 1.16.97.97 2.33zm-4.78.39c-.04.27-.12.43-.23.51-.27.16-3.15.31-3.73-.11V50.2c1.01 0 2.09-.04 3.1-.04.43 0 1.01 1.28.86 1.98zm-52.47-5.44h4.27c1.55 0 3.1.12 4.62.35.03.04 0 .12-.12.35 0 .04-.08.08-.23.08-.12.12-.28.23-.43.31-.97.58-1.98 1.13-3.03 1.67-1.2.58-2.25 1.36-3.14 2.29V61.8h-2.33c-.11 0-.23-.04-.27-.113-.08-.04-.11-.15-.11-.27V46.65c.27-.002.54-.002.77-.002zm-.39 16.3h2.32c4.66 0 9.32.08 13.97.2.15 0 .27.08.39.2.15.12.27.28.39.39-.32.86-1.21 1.21-2.72 1.05-1.82-.19-3.61-.27-5.43-.27h-8.54c-.12 0-.24-.04-.35-.08-.47-.15-.59-.62-.43-1.47h.39zm.38 16.69h.38c.15 0 .23.04.31.08.04.08.07.16.07.31 0 1.17.04 2.33.15 3.46.07 1.25-.08 2.18-.55 2.76h-1.16c-.12 0-.2 0-.2-.04-.12-1.52-.19-3.07-.19-4.62v-1.94h1.16zm.38 7.77h12.81c.15 0 7.8-.35 11.45-.19l-.2.15c-.27.16-.54.27-.77.43-.16 0-.23.04-.35.08-.58.39-1.17.89-1.59 1.48-.23 1.44-.04 2.37.7 2.84.04.08.07.12.07.28H185.1c-.23 0-4.19.04-4.654-.39h-1.16v-4.7h1.55zm81.67-3.64c0-1.44.22-2.73.22-4.12v-9.71c.39 0 .78.08 1.13.16.04.04.04.11.04.23v7.37c0 .12-.39 6.83-.39 7.38 0 .12.05 4.26.05 4.42-.12 0-.68-.19-.79-.23-.16-.08-.27-.19-.43-.31 0-.15.17-5.07.17-5.19zm1.49-14.74c-.04.08-.2.08-.47.04-.66-.04-.89-.58-.78-1.48 1.36-.31 1.74.16 1.24 1.44zm-.85-2.6c-.51-.12-.9-.39-1.17-.78 1.01-.89 1.66-.85 2.09.12.27.66-.04.93-.94.66zm3.22 20.18c-.08.9-.12 1.79-.12 2.72 0 .12 0 .2-.04.2-.81.23-1.18.23-1.61-.12 0-.15.1-4.61.1-4.73v-.39h1.16c.46.43.62 1.24.5 2.33zm-7.49-20.15c.64.16 1.39.48 2.25.71.04.04.08.16.08.43V68c-.78.505-1.67.505-2.72 0-1.01-.503-1.15-.78-2.67-.896-.16 0-1.71-.333-1.86-.41-1.13-.427-2.19-.557-3.59-.79l-.47-.115c-.77-.16-1.36-.51-1.7-1.01-.12-.2-.2-.39-.2-.66 2.33.5 4.55 1.15 7.15 1.54.12 0 .27.04.43.04 1.28.11 2.03.46 3.29.78zM87.72 20.64v-6.6c0-1.32.775-8.15.775-8.15V2.01h55.12c.27 0 8.927.386 8.927.386h9.316c1.94 0 6.87.39 6.986.39 1.357-.196 2.328 0 2.91.58.156.117.195.31.195.583v13.58c0 1.94.07 3.88.19 5.78.08 1.24-.12 2.17-.59 2.75h-7.77c-.12 0-6.99-.39-8.54-.39h-8.93c-.89 0-6.06-.39-7.76-.39-.12 0-6.33-.39-8.15-.39h-.39c-1.01 0-6.72-.39-8.54-.39-1.79 0-3.61-.12-5.4-.31-1.48-.16-7.65-.47-8.97-.47H87.7v-3.1zm39.2 85.78h-3.88v-.194c-1.824-.153-3.61-.19-5.434-.19h-2.33c0-.157 0-.196-.038-.196-2.02-.155-4.076-.193-6.17-.193-.39 0-.777.04-1.127.12-1.63.31-2.4-.11-2.36-1.28v-26.4h1.56c.39 0 .74-.07 1.13-.19 0 0 .04-.08.04-.19v-6.21h.39c3.61-.04 6.96.14 10.34-.09 2.91-.15 5.37-.543 7.69-.454 1.23.05 2.09.63 2.55.17v-.39c.86.198 1.17.97.94 2.33-.11.506-.23.97-.46 1.4-.04.08-.15.08-.39 0-.03-.04-.07-.114-.07-.23-.5-.388-1.01-.814-1.51-1.24-.58-.507-1.12-.39-1.59.464.04 1.01.43 1.59 1.2 1.79.51.08.97.234 1.48.35.43.118.82.31 1.2.584.47.31.78.7.9 1.21.08.23.08.47.08.74 0 .66.47.89 1.36.78.9-.97.74-1.82-.42-2.68-.23-.15-.43-.35-.54-.54s-.19-.42-.19-.66v-.39h6.99c.16 0 4.54-.27 6.6-.39h6.99c.78.12 1.36.47 1.75.93v.24c-.07.97.35 1.36 1.28 1.17.08 0 .08-.16.08-.39-.04-.43.78-.93.78-1.16-1.08-.58-2.05-1.32-2.83-2.25-.04-.04-.11-.08-.27-.08 0-1.16-.04-2.33-.15-3.49-.04-.11.16-.31.51-.5.39-.23.39-1.12.08-2.6-.27-1.43-.43-2.99-.43-4.66V51.3c-.08-.466-.31-.7-.78-.776-.11 0-.23-.04-.35-.078-.74-.388-1.4-.854-1.98-1.475 1.13-.07 1.86.2 2.25.82.04.12.08.2.08.35.74-.19.93-.81.62-1.9-.04-.04-.07-.04-.23-.04-.12-.15-.85-.35-1.05-.23-.97.55-1.9.47-2.83-.15v-1.95h.39c.54.51 1.09 1.01 1.63 1.44.08.08 1.75.12 1.86.12 1.52.08 2.18-.7 1.98-2.33-.04-.15-.58-1-.42-1.55h.39c.82-.42 1.13.23.94 1.94-.07 1.17-.15 2.33-.15 3.5v.78c-.12 0-.39 8.93-.39 11.26v9.32c.54.27.97.59 1.36.97.15.12.19.31.19.58 0 1.4.08 2.84.19 4.23 0 .16.08.27.2.43.15.24.31.47.5.66.04.08.157.12.27.12v17.85c0 3.11.08 6.21.198 9.32.08 1.21-.12 2.14-.58 2.72h-4.66c-2.45 0-4.9-.07-7.34-.23-2.06-.15-4.23-.19-6.64-.15v-.19c-3.73-.15-7.49-.19-11.26-.19zm-18.51-76.193c.04.077 1.514 1.708 2.64 2.018.115 0 1.202.55 1.863.59.155.04.31.04.427.04.7-.04.97.27.854.97-.038.27-.115.47-.27.58-.7.86-1.786 1.28-3.3 1.36-.505 0-1.01 0-1.552.08-1.203.12-2.136-.04-2.718-.46v-1.56c0-.27.078-.46.194-.62.466-.58.66-1.394.582-2.48-2.096-.74-4.037-1.67-5.783-2.794-1.63-1.08-5.706-2.68-5.745-2.75-.194-.2-.275-.14-.43-.37 1.707 0 4.972-.06 4.972.1h3.882c1.436 0 2.833.12 4.192.35.038.04-.085.65-.332 2.08-.246 1.44-.134 1.99.526 2.88zm12.032-3.027c-.078-1.165.66-1.553 2.213-1.126h.775c1.515-.193 2.02.216 1.592 1.96 0 .118.402 2 .402 2.154 1.546 2.337 2.004 2.64 4.604 3.222.155 0 .27.04.388.04 0 .115.04.23.04.387.154.815-.428 1.786-.428 1.94h-3.492s-9.16-.388-9.315-.388c-1.47.19-1.98-.59-1.55-2.33 1.4-.31 2.6-.78 3.53-1.52.24-.15.43-.35.59-.54.12-.19.78-2.4.66-3.8zm16.224 1.203c-.155 1.12-.543 2.05-1.203 2.71 0 .11-1.784 1.16-1.94 1.16-1.28 0-1.357.27-4.32-.88s-2.665-4.44-2.665-4.56v-.77c3.26 0 9.703.39 9.703.39.39-.003.51 1.473.43 1.94zm1.552-1.17c-.038-.43.194-.62.777-.55.892.08 1.784.15 2.678.15 1.05 0 2.058.04 3.106.19v.2c-.28 2.484.27 4.114 1.63 4.97.07.04 1.04.85 1.55 1.01.46.15 2.02.464 2.25.62 0 .116.04.23.04.39.15.7-.66 1.55-.82 1.51-.7-.04-1.79.815-1.94.815h-12.8c-.12 0-.62-.27-.78-.39-1.22-.4-1.98-.12-2.25-.467-.31-.46-.18-.67-.09-1.47v-.39c1.16 0 2.33-.07 3.49-.19 0 0 1.9-.85 2.29-1.79.03-.11 1.12-2.68.85-4.62zm8.5-.39c1.94 0 6.87.39 7.375.39h.39v2.33c-.233 1.28-.855 2.21-1.9 2.79-.158.08-.313.11-.43.15-2.173.31-5.045-.89-5.122-.97-.07-.15-.54-.47-.62-.54-.35-.24.31-3.92.31-4.16zm5.824 15.52c0 .11-.232.42-.272.46-.427.39-1.086.47-2.057.31-.504-.27-1.008-.54-1.552-.77-.23-.15-.46-.31-.58-.5-.11-.195-.23-.35-.39-.505-.66-.737.59-3.92.59-4.036.54-.66 1.44-.893 2.72-.815.16.04.28.04.39.04.78 0 1.32.23 1.67.66.08.074.51.62.58.89.43 2.17.08 3.604-1.08 4.265zm.387 2.33c0 .11-.43.62-.47.7-.97 1.04-1.83 1.08-2.64.07-.12 0-.2-.04-.2-.07-.12-.35-.2-.7-.2-1.09h1.94c.15 0 1.16.04 1.51.157.04.04.04.08.04.23zm-3.89 23.29c.43.35 1.08.54 1.94.58v.19c.46.47.54 1.24.31 2.29-.2 1.05-.58 1.05-1.09.04-1.48-.19-1.9.27-1.32 1.24.11.2.15.31.08.31-1.09.27-2.25.39-3.42.39 0 .12-4.12.39-4.27.39-2.72.39-9.2.58-9.36.66-.24.08-.74-2.21-.74-3.372.38 0 .77.08 1.12.16.04.04.04.12.04.24 1.01.47 1.9.51 2.79.12.5-.23 1.24.24 1.48.24.46-.07.58-.42.38-1.12 1.39-.12 3.76.11 3.88 0 .46-.47 3.14.07 3.57.27.19.08.46.11.7.11-.16-1.59.11-2.17.89-1.74.7.39 1.43.7 2.21.97.46-.31.77-1.94.77-1.94zm-.39-1.56v-16.3c.97-.07 1.67.16 2.05.66.08.08.15.12.27.12.46.43.66 1.207.62 2.33-.16 4.388-.24 8.81-.24 13.2 0 .114 0 .19-.08.27-.51.27-1.13.426-1.87.503h-.39c-.39.04-.54-.23-.39-.776zm-18.05-.77c.08 1.36-.58 3.38-.55 3.495 0 .426-.23.543-.82.39V51.3c1.16-.115 1.63.544 1.39 1.98-.16.853-.16 9.16-.04 12.38zm-1.56-15.72l-.16.235c-.16.23-.27.465-.43.736 0 .9.04 1.79.11 2.68.11 1.13-.04 1.9-.51 2.37-.12.118-.27.195-.39.23-.66.08-1.28.197-1.91.31-1.44.276-2.1-.19-1.98-1.32V51.3h.39v-1.554c0-.543-.08-1.01-.2-1.513-.27-.777-.7-.932-1.36-.427v6.212c0 .115 0 .193-.04.193-1.05.32-1.44-.15-1.13-1.35V44.7c.54-.154 2.72-1.435 2.72-2.328l.35.078c.46.155.5.582.11 1.32-.04.077-.51.388-.55.426-.08.078-.16.116-.31.116v.388c.27.504.7.582 1.32.233.31-.194.42 0 .27.543-.08.427-.51.62-1.2.582-.12 0-.24.04-.39.194.73.194 1.32.505 1.74.97.16.117.2.31.2.583 0 1.94.15 3.727.39 5.434.46-.47.62-1.25.5-2.37-.08-.89-.31-2.72-.31-2.72-.12-.51-.19-1.01-.19-1.52.62-.94 1.01-2.22 1.16-3.85 0-.04.08 0 .19.15.15.11.15.31.08.5-.39.89-.36 1.78.11 2.79.65.89 1.28 1.67 1.94 2.33l-.32.11c-.66.31-.74.7-.27 1.24zm-22.97 15.61c-.08-.04-.12-.154-.12-.27-.12 0-.2 0-.2-.04-.12-1.513-.2-3.066-.2-4.62h2.72c2.21.506 3.14-.27 2.75-2.33 0-.153-.04-.27-.04-.386 2.4.193 3.37-1.09 2.87-3.92-.12-.505-.55-5.67-.55-5.784v-.38c1.32.23 2.76.35 4.27.387h.39v12.42c0 .12-.39 5.32-.39 5.44h-5.43c-1.01 0-6.06-.43-6.1-.508zm1.59 5.55c-.12 1.166-.16 4-.16 4.27v1.55h-.39c-.23 0-1.31-.072-1.59-.072-.12 0 .22-3.8.22-3.84-.12-1.63-.2-3.34-.2-5.01h1.55c.46.7.62 1.75.54 3.11zm2.17-32.29c-.39.04-.78.117-1.13.195-2.1.427-3.03-.23-2.76-2.057v-.39c1.7 0 3.34.12 5 .39 0 0-.47 1.79-1.13 1.86zm-3.88 2.795v-1.94c.65.233 1.39.31 2.29.194 1.24-.19 1.9.12 1.97.97 0 .12.04.23.12.27.04.08 1.21 1.98 1.75 2.873.04.117.08.196.08.35-.12 0-.23-.04-.35-.077-1.87-.7-4.51-3.46-4.51-3.46-.08-.39-.43-.506-.97-.35v4.27c1.28 0 1.59.39.89 1.242-.08.08-.12.155-.12.31 0 .116-.78 2.95-.78 3.105-.24.27-.43.62-.55 1.12l-.04.23c-.12-2.486.19-9.008.19-9.12zm7.1.82c-.58-.505-1.55-1.1-1.43-2.225 0-.154-.17-1.46.51-2.824.08-.16.46-1.28 2.36-1.51.85-.1 1.51-.08 2.02.23.85.54 2.06 2.41 2.06 2.45.35 1.82-.05 3.34-1.01 4.04-.96.69-4.46-.11-4.5-.15zm4.35 3.41s-.04.04-.2.04c-.12.233-.27.504-.43.74-.08.153-.23.23-.39.27-2.1.39-2.99-.467-2.68-2.56h1.17c1.9-.507 2.79 0 2.52 1.51zm-7.61 6.64c.15 1.395-.08 1.783-.74 1.16h-1.16c-.24 0-.39-.04-.43-.08-.23-1.4-.35-2.795-.35-4.19.66-.12 1.12-.39 1.47-.856.03-.073.07-.19.07-.31 0-.15-.04-.23-.08-.27-.39-.31-.47-.853-.31-1.67.54-.153.93-.35 1.28-.7.04-.04.15-.074.27-.074 1.43-.857 2.17-.47 2.25 1.16.04 1.55.08 3.104.08 4.66 0 1.28.07 2.56.19 3.84 0 .04.08.04.19.04 0 .116.03.23.03.39.15.81.04 1.32-.43 1.55h-.78c-.12 0-.19 0-.19-.04-.12-1.9-.2-3.84-.2-5.78 0-.157 0-.27-.04-.39-.04-.583-.27-.97-.73-1.165-.43.58-.62 1.475-.43 2.717zm-3.26 3.53c0-.04.08-.04.19-.04v-1.16h2.72c.15 0 .19 0 .23.04.43 1.707-.27 2.367-2.17 1.9v.39c.19.7.85 1.01 1.98.93.42-.04.5.27.23.97-.04.156-.12.27-.27.43-.58.426-1.48.66-2.72.66-.7 0-1.05-.234-1.05-.66-.08-1.05-.11-2.097-.11-3.106.54.157.89.04.97-.35zm1.75 11.217h4.27c.15 0 11.41.39 11.64.39.15 0 2-.08 3.12-.196.78-.08.72 1.09.6 2.13-.04.11.04.27.15.39h-.39c-1.79 0-5.44.19-5.44.19-2.84.11-8.78.19-8.93.19h-4.66c-.11 0-.19-.04-.23-.08-.31-.89-.51-1.9-.54-3.02h.39zm19.01-1.163h-8.15v-6.21c0-.78.54-3.57.35-4.66-.16-.7.81-15.41.81-15.527 2.09 0 4.15.04 6.21.195v.19c-1.79 1.287-5.82 3.73-5.82 3.887V54c0 .117.07.855.15 1.088.04.04.62 1.28.81 1.98 0 0 .85 1.203.97 1.203.93.74 5.31.39 5.43.39v5.44c0 .11.04.66.04.77.15.7-.66 1.17-.82 1.17zm8.49-22.97c.04-.08 1.02-1.72.98-3.04h2.55c2.33 0 4.66.04 6.99.2v.19c-.04 1.44.47 2.41 1.48 2.874.07 0 .11.47.11.585.15.59 0 .86-.43.82-.12 0-.23-.04-.35-.07-1.94-.85-3.53-2.13-4.7-3.8-.12 0-.23-.03-.31-.11-.62-.5-1.28-.46-2.02.12 0 .11-.04.23-.08.27-.97.85-1.98 1.67-3.03 2.44 0 .12-.04.24-.08.27-.35.35-.7.62-1.09.89.07 1.21.19 2.37.38 3.5v.39c-.08.43-.47.66-1.17.66-1.21 0-2.14-.23-2.72-.66.69.16 2.44-.81 2.64-1.2.07-.11.07-.62.03-.74-.23-.78-.46-1.55-.74-2.33.15 0 1.19-.73 1.5-1.23zm.43-5.367H144c.27 0 .505-.04.777-.077.814-.12 1.32.04 1.475.5.038.23.077.35.038.35-3.065.23-6.17.39-9.276.39 0-.15 0-.23-.077-.23-.39-.196-.623-.51-.7-.93zm7.88 29.073c.12 1.12-.04 1.9-.51 2.363-.12 0-.24-.04-.31-.11-.47-.27-1.13-.39-2.02-.27v-16.3c.39-.93 1.01-1.55 1.98-1.9.11-.04.23-.04.35-.04.81-.03.77 1.79.77 1.94v5.44c0 .12-.39 4.54-.39 4.66v1.16c0 .12.04 2.22.11 3.07zm-7.88-16.656c1.05-.66 1.36-.152 1.05 1.517-.12.58-.27 1.24-.43 1.94-.16.62-.27.62-.39 0-.08-.7-.12-1.36-.08-1.94.04-.51 0-1.01-.16-1.52zm.39 13.977v-7.77c.46-.08.77-1.17.77-1.17 0-.15 1.17-3.37 1.17-3.49v-.77c.27 0 .5.04.7.16.07 0 .07.07.07.23.47.31.39 2.17.39 2.33v10.09c0 1.16.04 2.33.15 3.45.11 1.78-1.17 1.98-1.32 1.98H137c-.115 0-.19 0-.19-.04-.12-1.52-.195-3.07-.195-4.62v-.39zm2.33-15.53c-1.05.27-1.63.04-1.75-.78-.08-.58-.12-1.24-.2-1.94.54-.93 1.2-1.16 1.9-.74.15.11.31.15.42.15.97-.08 1.55.15 1.78.66.11.19.15.43.15.7.15 0 .19 0 .19.04.42 1.78-.43 2.4-2.53 1.9zm5.51-3.53c-.47-.82-.31-1.01.46-.62.27.19.62.31.97.42.73.23 1.08.93 1.08 2.18 0 .7-.2 1.04-.66 1.12-.23 0-.51.04-.78.04-1.21.19-2.06 0-2.53-.54-.12-.16-.19-.35-.23-.62-.12-.51-.19-1.05-.35-1.56.78 0 1.51-.08 2.13-.2l-.12-.23zm-1.63 4.31c.97-.63 1.82-.55 2.52.19l-.23.04c-1.05.27-1.83.19-2.29-.23zm2.71 15.52V50.52c.15 0 .39-.272.39-.39 1.12.04 1.63.7 1.59 1.942-.04.116-.04 3.998-.04 5.822v.388c0 2.562.08 5.163.19 7.763.08 1.086-.12 1.862-.58 2.328h-.78c-.24 0-.43-.078-.59-.194-.55-.58-.2-3.18-.2-3.3zm-13.98-4.66c.47-.74.7-1.75.7-3.11 0-.74.08-1.4.31-2.02.12-.35.23-.7.31-1.05.23-.78.31-1.56.35-2.37 0-.7.23-1.09.66-1.2.7-.16 1.09-.04 1.16.42.47.58.62 1.48.55 2.72-.12 1.16-.16 2.32-.16 3.49v12.81c-.12 0-.23-.04-.39-.04-1.21-.2-2.49-.31-3.88-.35V60.2h.38zm-.39-10.48c1.63-.08 1.94.46.97 1.71-.12.15-.24.27-.39.42l-.04-.23c-.16-.7-.31-1.36-.54-1.91zm3.41-7.42c-.36 1-.16.45-1.14.98-.99.53-2.98.53-4.49-.36-1.21-.7-1.55-2.5-1.38-3.78.17-1.28.89-1.91 1.38-2.15.48-.24 2.79-.6 4.42.14.23.12 1.28.78 1.28.94.62 1.39.28 3.23-.08 4.23zm-7.38-5.43c-.08.15-.7 1.43-.7 1.59h-.39c-1.94 0-4.47-.08-6.41-.08v-.39c0-.51-1.07-1.26-1.35-1.54.27 0 6.59.05 8.53.05h.39c0 .12 0 .24-.08.35zm-1.05 6.63c-.27.39-.51.11-.74-.82-.04-.23-.08-.5-.08-.74 1.28 0 1.55.54.81 1.55zm-2.36 13.6c1.43 0 2.83.04 4.27.19v.19c-.51 0-1.01 0-1.56.08-1.2.12-2.13-.04-2.72-.46zm5.55-10.21c-.47-.55-.62-1.44-.51-2.6.39 0 .77.04 1.12.15.03.03.69.58 1.2.62.54 0 1.01.07 1.51.19 1.01.31 1.01.81-.08 1.59-.93.66-3.19.11-3.26.04zM118.76 28c0 .117-.044 1.72-.92 2.53-.7.647-2.412.964-2.57.964-.27 0-4.303-.34-5.072-1.66-1.45-2.483-.8-3.463.42-4.55 0 0 .16 0 .39-.04 2.447-.077 7.65.43 7.766.43v2.33zm36.1 9.705c1.166 0 2.33.08 3.495.196.42.07.54.5.31 1.32-.16.46-2.88.03-3.03.03-.12 0-.2-.04-.23-.07-.24-.47-.39-.97-.55-1.48zm2.21 33.34c.08-1.122.12-2.29.12-3.45.853.31 1.2 1.24.97 2.716l-.35 2.67c-.04.16-.08.31-.155.47-.04.08-.08.2-.08.35-.43-.58-.62-1.51-.51-2.75zm1.128-4.305c-.03.04-.07.078-.23.078h-.39c-.5 0-.89.117-1.16.388 0 .12.04.275.04.39.31 1.24.04 1.865-.82 1.94-.12 0-.193 0-.193-.04-.11-1.63-.19-3.335-.19-5.004h.78c2.01-.466 2.71.31 2.17 2.25zm.16-3.416h-.39c0 .115 0 .192-.07.23-.19.08-.42.157-.66.234-1.43.31-1.32-2.484-1.39-3.61-.115-2.29.196-7.607.196-7.723V40.43c.93 0 1.82.04 2.72.195v13.002c0 2.446.08 9.238-.39 9.704zm.39-32.217v5.63c-1.43.116-2.83.194-4.27.194 0-.15-1.94-.93-2.71-1.16-.112 0-.23-.04-.31-.12-.463-.39-.772-1.01-.85-1.82 2.405.2 4.07-.35 4.967-1.63.04-.08.08-4.85.08-4.97h6.21c1.44 0 2.83.12 4.19.35.08.04-.15.43-.31.43-.11 0-.23.04-.31.08-1.97 1.25-4.19 2.25-6.67 3.03zm-71.42 85.77V42.37c0-.154.39-11.915.39-12.03v-5.82h1.17v3.103c0 .117.27 12.81.39 12.81v55.503c0 .118.39 12.265.39 16.3 0 .895.08 1.787.24 2.68.39 2.21-.466 2.36-2.56 1.97zm5.05-72.567v67.54c0 1.01-.39 5.67-.39 5.83-.11 0-1.2.04-1.2-.39.04-2.87.04-5.703.04-8.535v-.39c0-2.096-.39-9.316-.39-10.48v-22.52c0-6.87-.38-26.936-.38-27.557V24.52c.66 0 1.28.04 1.9.193.04 0 .04.04.04.2.47.425.39 18.63.39 19.405zm1.87 72.43c-.19.08-.31.12-.31.12-.23-2.448-.38-4.89-.38-7.338V25.68c.39 0 7.61 3.262 10.56 4.97.08.038.197.077.31.077v67.537c0 .118-.383 7.608-.383 11.257v.39c0 .12-.04.2-.07.24-3.3 2.02-9.62 6.56-9.7 6.6zm66.84-1.01h-20.96c-2.33 0-9.7-.19-9.7-.19-1.43-.157-2.83-.194-4.27-.194-.62 0-2.17-.195-2.33-.195-5.43-.15-16.53-.19-16.69-.19h-4.27c-.5 0-1.01.04-1.51.08-1.13.12-1.902-.04-2.37-.46 1.05-.54 2.06-1.08 3.028-1.7.933-.58 1.865-1.2 2.795-1.78.7-.07.93-1.16.78-1.16-.11 0-.23-.04-.23-.08-.08-.23-.16-.93-.16-1.09v-1.94c.54 0 11.8.39 12.42.39h.39c1.94 0 3.88.04 5.82.19 0 0 6.17.42 9.32.42 3.45 0 23.01.59 23.91 1.21.11.08.15.23.15.5v1.17c.08.55.47.9 1.17.97.54.08 1.05.35 1.4.78.12.12 2.64 1.98 4.04 2.52 0 .12.04.24.08.35l.12.23c-.78.12-2.75.2-2.91.2zm5.82-26.39v12.03c0 .11-.38 11.37-.38 14.36v.39c-.11 0-.58-.43-.62-.47-.31-.66-7.522-6.02-7.522-6.138V77.3h1.94c0-.157-.04-.235-.08-.35-.23-.273-.58-.43-1.083-.43v-8.54c.27 0 .5.08.69.158.07 0 .07.117.07.233.46.47.62 1.25.58 2.33-.12 1.67-.2 3.34-.2 5.05-.156.55.39 1.01.39 1.17 1.32-.39 2.87-.54 4.66-.42.15.04.27.04.39.04 1.2-.04 1.67.74 1.39 2.37-.155 1.01-.23 2.02-.23 3.07-.12 0-.234-.04-.35-.07-.156-.07-4.31-.31-6.25-.31v18.63c0 .12-.31 3.61-.195 4.23 0 0 .08.04.19.04.07.54.46.9 1.12 1.01 1.01.16 2.06.36 3.14.55.7.16 1.16-.66 1.16-.78v-.39c0-3.88.27-11.64.39-11.64v-3.49c0-1.44.38-6.21.38-6.99.89.24.39 5.83.39 6.6zm-4.89-50.467c.27-1.94 1.17-1.156 1.4.785 0 .503.04 1.01.12 1.513.12 1.13-.5 3.65-.5 4.31 0 .12-.39 4.78-.39 6.99v.39c0 .62-.31 19.26-.155 20.54.19 1.4-.16 2.17-1.01 2.37V57.51c0-.388.39-10.362.39-10.48 0-.388-.05-6.955.15-8.158zm1.02-3.097c.81-.893 1.822-1.514 3.14-1.824.39-.116.43.04.12.465-.115.117-.23.233-.425.35-.7.427-1.28 1.01-1.75 1.708-.74 1.165-1.91.54-1.09-.7zm-1.56 61.718c0-1.556.386-12.58.386-14.364.66-.427 1.56-.544 2.72-.427.16.036.28.036.39.036v21.74c0 .11 0 .58-.08.62-.62.27-1.32-.27-1.47-.27-.852-.16-1.63-.39-2.33-.74v-.39c.47-.58.39-6.09.39-6.21zm5.43-24.454h-.193c-.11-4.93-.19-9.82-.19-14.75h-.39v3.88c0 .504-.04 11.49-.16 13.16-.04.153-.08.27-.23.424h-2.33v-9.7c0-2.6.62-9.66.46-10.87-.04-.54-.08-1.82-.08-1.94V51.3c0-.155.39-2.212.39-2.33v-5.434c0-.155.27-6.21.39-6.21.58-.35 1.83-1.164 1.94-1.164.43-.04.39 1.01.39 1.165v7.375c0 .117.62 11.606.54 12.42-.08 1.048-.15 2.058-.15 3.105 0 3.222.08 6.482.24 9.704.04 1.36-.16 2.37-.62 3.11zm0-39.98h-.387c-2.72.114-4.5 1.163-5.43 3.103v7.767c0 1.01-.31 8.77-.19 10.44.04 1.128-.5 8.46-.39 10.09.04 1.13-.11 1.906-.58 2.37h-.39v-6.6c0-2.092.39-6.48.39-6.595v-12.04c0-.66.78-8.305.78-8.926.66-1.05 1.71-1.71 3.07-2.1.16-.04 3.15-2.05 3.15-2.17.78-.11.78 1.4.78 1.56 0 .5.04 2.17.04 2.33.16.66-.11.93-.81.77zm3.883 27.17c0 .115-.39 17.08-.39 18.63v1.55c0 .12-.39 5.28-.39 5.824 0 .118-.74 27.56-.66 27.91.6 2.77-1.77 2.04-1.52 2.29-.07-.233-.15-.972-.15-1.086V96.33c0-3.104.39-9.586.39-9.703 0-1.32.39-4.15.39-4.27V48.97c0-1.165.38-3.766.38-3.88v-1.555c0-.776.39-8.927.39-10.868V27.62h2.33v13.585c0 1.94-.39 9.316-.39 10.87v.387c0 1.28-.39 6.6-.39 7.763zm2.95 14.75c.04 1.36-1.01 15.76-1.01 15.912v3.1c0 .12-.35 19.91-.27 20.532.12.97-.08 1.59-.58 1.82-.19.078-.31.118-.31.04-.27-.97-.39-1.98-.39-2.99V96.71c0-1.164.39-6.753.39-8.15v-.39c0-1.32.39-4.15.39-4.27 0-.385.39-7.53.39-8.15V63.332c0-1.823.39-8.42.39-8.54v-4.268c0-1.708.47-28.14.39-30.663V7.83c0-1.32.39-5.046.39-5.435h.78V13.26c0 1.01-.32 29.615-.12 37.262 0 1.203-.66 12.42-.66 14.36v.39c0 3.22.07 6.442.23 9.703zm2.1-7.377v13.2c0 .117-.39 4.503-.39 5.435V94c0 .12-.19 18.516-.15 18.633.12 1.047.2 2.056.27 3.104.16 1.745-.27 2.25-1.28 1.552V93.61c0-1.165.39-5.435.39-6.21V58.67c0-1.94.39-6.093.39-6.21V44.7c0-2.6.39-8.034.39-8.15V28.4c0-4.037.39-16.962.39-17.078V1.23c.54 0 1.05.04 1.52.155.04.04.04.078.04.233v.388c.08 2.096-.39 15.254-.39 16.302v19.02c0 .115-.62 15.136-.77 15.136v6.987c-.01.12-.39 5.83-.39 8.16zm2.33-6.6V77.7c0 .116-.39 4.27-.39 5.043v35.322h-1.17c0-.12 0-.28-.08-.35-.08-.16.08-4.58.08-5.48v-23.29c0-.155.39-5.706.39-5.822 0-.27.27-22.124.39-22.124v-6.6c.74.19.93.73.62 1.63-.15.46.35 3.45.16 4.96zm.04-12.61c-.16 0-.24-.08-.24-.196-.12-4.037.19-12.305.19-12.42 0-5.823.38-18.516.38-18.63v-2.33c0-.27.85-9.977.97-11.606 0-.15.08-.31.2-.42.47.43.58 1.21.43 2.33-.31 2.29-.47 4.74-.43 7.38v4.66c0 .51-.39 9.71-.39 12.42v.39c0 1.94.08 3.88.2 5.78.08 1.4-.93 11.41-.89 11.65.16.74.01 1.05-.42 1.01zm95.9 56.51c-.04.077-.08.193-.08.35-.7.04-3.46.466-4.19.62-1.29.272-2.72.468-4.35.505-.51.04-1.01.114-1.48.23-.93.27-2.1.426-3.57.39-.23 0-.5 0-.78.04-1.82.112-3.61.23-5.4.384-.93.118-11.68 1.28-13.23 1.554-.5.114-5.7.735-5.82.773-1.82.23-3.61.46-5.39.7-3.33.46-6.71.93-10.09 1.47-1.67.23-8.58.7-10.13.7-1.01.11-2.1.23-3.1.35-1.2.07-2.36.27-3.45.5-2.02.43-10.51 1.09-12.46 1.09-1.78.04-3.45.19-5 .5-1.43.31-4.93.66-5.08.7-1.32.27-1.82-.28-1.55-1.6.85.15 4-.47 5.05-.59.12 0 .27-.04.43-.12.82-.39 9.94-.86 12.77-1.24h.39c1.55 0 5.2-.39 5.44-.39h.39c1.4 0 17.43-1.75 18.63-1.98 1.59-.35 10.52-1.28 12.03-1.24 1.63 0 3.19-.12 4.66-.39 1.9-.39 3.84-.7 5.86-.93 2.1-.31 10.32-.9 10.44-.9 1.94 0 5.71-.62 5.86-.7 1.05-.43 5.75-.66 6.56-.85 1.32-.27 2.6-.51 3.92-.74 1.32-.19 2.29-.04 2.87.54l-.12.23zm-.47-2.172c-1.09.04-2.25.12-3.49.24-.77.12-3.33.43-3.8.54-1.01.35-2.17.59-3.53.78-1.47.24-5.35.39-5.47.39-1.83.27-3.61.43-5.44.58v.2c-1.28.12-2.56.2-3.88.2h-.39c-.39 0-1.94.39-2.33.39h-.38c-1.09.2-2.25.31-3.49.39h-.39c-1.12 0-2.17.16-3.1.39-.23 0-1.79.24-2.33.35-.78.16-13.74 1.4-13.97 1.44-1.43.12-2.83.24-4.23.35-1.67.2-10.9 1.56-10.9 1.56-1.44.11-5.43.38-5.43.38-1.32.12-2.56.2-3.88.2-1.55.23-8.7.27-10.13.62-1.01.23-5.78.93-6.56.93h-1.16v-3.49h2.71c2.98-.39 9.97-.39 10.09-.39h6.6c1.71 0 7.37-.39 8.54-.39h.38c1.94 0 9.16-.7 10.87-.77h.39c2.49 0 11.22-.42 12.81-.73 1.79-.27 13.86-1.59 13.97-1.59 1.4-.19 2.8-.35 4.27-.54.12-.04 4.54-.7 5.01-.77.16-.04 2.72-.62 3.92-.78 1.05-.15 2.1-.38 3.11-.62 1.7 0 5.04-.27 5.04-.38 1.75-.19 5.43-.66 5.43-.77h1.17c.27 0 .43.04.5.15.43.77.27 1.2-.51 1.2zm-.78-2.91h-2.33c0-1.16-.58-6.21-.62-6.29-.07-.23-.15-.46-.15-.69h3.49c1.01-.23 1.48.15 1.32 1.16-.07.89-.07 1.78.08 2.68.31 2.02-.27 3.06-1.78 3.14zm1.56-18.63v-.39c0-1.7-.37-3.37-.37-5.04 0-.15 0-.23-.08-.23-2.21-1.08-4.4-1.78-7.31-2.09v6.99c1.59.47 3.3.86 5.05 1.17 1.01.2 1.83.51 2.56 1.01.12.12.2.28.24.55.11.93 0 1.59-.47 1.94-.12 0-.23-.04-.35-.08-2.76-.81-5.63-1.59-8.58-2.25V70.71c1.67-.117 2.99.077 4 .504.7.31 1.44.545 2.21.74.59.154 1.24.23 1.94.31.55.232.97.582 1.36.97.16.116.2.31.2.582v1.94c0 1.01.03 2.06.15 3.07.08 1.125-.08 1.9-.54 2.37zm-1.24-.77c-.04.43-.35.55-1.04.27-1.12-.39-2.4-.62-3.92-.66-.43-1.28-.54-2.83-.39-4.66v-.39c1.24-.08 2.29 0 3.15.19.82.2 1.4.55 1.75 1.09.12.16.16.39.16.66.27 1.01.39 2.17.31 3.49zm.86-8.92c-1.98-.62-4.03-1.16-6.17-1.67-.15-.07-.27-.07-.39-.07-1.35.16-1.86-.42-1.59-1.74 1.44.27 2.83.58 4.23 1.01 1.28.39 2.76.7 4.31.94.16 0 .23.04.31.08.74.78.55 1.28-.7 1.48zm1.09-2.48c-.19.08-.43.16-.7.16 0-.11 0-.23-.08-.23-.19-.08-.42-.15-.7-.15v-.2c-.66.04-.77-1.24-.77-1.36v-9.7c0-1.32.08-7.57-.39-8.15-.23-.15-.5-.19-.77-.23-1.55-.11-3.11-.15-4.66-.15v.2c-2.06.12-4.11.19-6.21.19h-3.49v14.75c0 .12-.04.62-.08.66-.08.08-.15.12-.31.12-.12 0-2.02-.42-3.11-.39v-26.8h.39c1.67.24 2.8-.11 3.38-1.01.08-.11 3.77.28 5.55.39.12.04.27.04.39.04 2.02.08 3.81.27 5.44.62 1.36.31 2.91.43 4.66.39.51-.04.93.04 1.24.2.24.08.43.19.62.31.51.23.66.81.47 1.79v12.42c0 .12-.39 6.06-.39 8.93v2.72c0 .12.08 3.81-.38 4.27 0 .12 0 .19-.08.23zm1.44 32.76c.08 1.36-.12 2.37-.58 3.11-.12 0-.19 0-.19-.04-.11-1.51.2-19.36.2-24.02v-.39c0-1.94.39-9.2.39-9.31 0-1.67.39-6.48.39-6.6 0-4.15.39-13.08.39-13.19 0-1.82-.39-16.07-.39-18.24v-.39c-.2-2.56-.31-5.12-.39-7.76h1.16V30c0 3.103.39 11.1.39 12.03v29.5c0 .116-.39 5.55-.39 6.21v.387c0 1.94-.35 10.21-.31 10.87.08 1.783-.78 10.21-.66 12.81zm1.36-4.27c1.51-.19 2.02.58 1.59 2.33 0 .12-.04.23-.04.39-.07.43-.46.59-1.16.47-.27-.07-.39-.11-.39-.19-.27-.97-.39-1.98-.39-2.99h.39zm4.97 6.33c-.47.2-.93.27-1.48.27-.39 0-1.39 0-1.55.04-1.74.31-2.4-.5-1.94-2.36 1.09.04 2.02-.08 2.76-.27 1.56-.46 2.76 2.14 2.22 2.33zm-.7-3.99c-.23 0-.39-.04-.39-.04-.08-.93-.31-1.59-.78-1.9-.11 0-.19-.04-.23-.08-.07-.23-.15-.46-.15-.7 1.13-.31 2.41-.5 3.88-.58 1.24-.08 2.1.15 2.52.74.16.16.2.35.2.62v.39c.19 1.48-.58 2.02-2.33 1.67-.38-.07-.77-.11-1.16-.11h-1.55zm8.54 1.16l.08.35c.19 1.05-.23 1.52-1.24 1.44-.27-.04-.51 0-.78.11-.59.24-1.94.62-1.98.62-2.29.66-3.19-.19-2.68-2.52h.39c2.28.08 4.34.08 6.21 0zm-1.51-8.85c1.47-.27 2.01.51 1.59 2.25-.04.27-.12.43-.27.59-.12.12-.31.2-.59.2h-5.43v-.39c0-.93-.12-1.71-.39-2.33 1.86.04 3.53-.08 5.08-.31zm-1.2-2.02c.27.9 0 1.36-.74 1.44-1.36.16-5.75.16-5.71-.27.04-1.28-.27-2.21-.93-2.71 1.32-.27 2.76-.38 4.27-.38h.39c1.9-.47 2.72 1.94 2.72 1.94zm.35-9.7c.04 0 .07.12.11.39.23 1.82-.7 2.44-2.8 1.94h-.38c-1.2.19-2.13.04-2.71-.39 0-.16 0-.27-.04-.39-.19-.58-.27-1.24-.35-1.94 2.1 0 4.15.12 6.17.39zm-.67-8.68c0 .12-.07 1.92-.07 2.08 0 .23 0 .39-.07.39-1.24.27-2.48.47-3.76.62-2.13.24-2.91-.73-2.36-2.95h3.1c1.94-.5 3.17-.14 3.17-.14zm.28-8.4c.04 0 .04.12.04.39v.78c.2 1.48-.58 2.06-2.36 1.79-.85-.15-1.75-.31-2.64-.38-.62-.08-.97-.43-1.09-1.05-.08-.62-.11-1.24-.11-1.9 2.1 0 4.16.12 6.17.39zm.04-7.96v.2c0 .12.04.23.04.39.24 1.4-.43 1.94-1.98 1.56h-1.94c-1.47.2-1.98-.58-1.55-2.32h.39c1.71 0 3.38.04 5.05.2zm.78-6.4c-.19.81-.97 1.16-2.33.97-1.16-.12-2.33-.23-3.49-.27-.81-.04-1.08-.66-.85-1.9.08-.24.08-.51.08-.74 1.52-.08 2.54.02 3.54.25.68.15.88.19 1.27.11 1.4-.31 1.91.41 1.79 1.58zm-4.27-8.93c1.4-.11 2.56-.04 3.53.16.62.16 1.21.35 1.79.54.08.04.12.2.12.47v1.16c-.04-.39.35 1.19-1.79.77-.39-.08-.74-.2-1.09-.31-.74-.23-1.62-.03-2.4-.38-.08-.08-.15-.23-.15-.47v-1.94zm0 4.04c.9-.08 1.28.24 1.17 1.01.2.7.08 1.01-.35.97-.15 0-.31-.06-.46-.08-1.66-.16-3.3-.21-5.32-.13 0-.15-.07-.64-.07-.75v-1.16h1.94c.778 0 1.55.04 2.33.12.27.04.5.04.778.04zm-5.04-4.81h.39c1.08-.04 1.98.04 2.75.31.43.12.62.54.62 1.24 0 .82-.23 1.28-.66 1.32-1.32.16-2.44.12-3.49-.15v-.39c-.11-.77.14-1.55-.02-2.33h.41zm10.87-5.82c1.28-.81 1.74-.27 1.4 1.51 0 .16-.12.24-.24.24-1.05.12-1.4-.46-1.17-1.74zm-1.55.78c-.31.43-.97.62-1.94.51-.9-.08-1.79-.04-2.64.12-1.32.27-2.88.31-4.74.2-.23-.04-.39-.08-.39-.11-.27-1.12-.39-2.25-.39-3.41v-3.1c.39 0 9.97 4.77 10.09 5.82z"/>
  <path d="M260.83 40.354c1.01-.232 2.213-.35 3.494-.31h4.658c1.59.27 2.562 0 2.87-.893.042-.03-.036-.11-.19-.15-.234-.08-.467-.11-.738-.11h-7.378c-2.443.35-4.617.35-6.596 0 .348 1.44 1.63 1.94 3.88 1.48zm8.927.466c-4.347-.116-8.5 0-12.42.388.66 1.243 1.707 1.59 3.222 1.01.42-.156.93-.233 1.43-.233h9.31c.27 0 .46-.078.58-.195.15-.155.15-.27 0-.35-.43-.388-1.01-.582-1.75-.62h-.39zm-8.15 3.493h.388c1.32 0 2.6-.078 3.88-.194v-.2c2.214 0 4.387-.16 6.56-.39.04 0 0-.12-.115-.31-.154-.31-.504-.47-1.01-.47h-5.82c-1.396 0-2.833.07-4.23.23-1.126.15-2.445.19-3.92.15.737 1.09 2.173 1.47 4.27 1.16zm10.09.777h-13.584v.388c.154.116.39.62.39.776 2.29-.31 12.03-.155 12.03 0 1.36.31 2.097.04 2.174-.815.04-.43-.31-.55-1.01-.35zm-.037 1.785c-1.01-.155-2.02-.233-3.066-.233h-10.092c.155 1.126 1.087 1.514 2.717 1.203.15-.04.27-.04.38-.04h9.31c.39 0 .73-.077 1.05-.23.65-.312.58-.545-.31-.7zM259.278 71.87c-1.243-.697-2.64-1.24-4.23-1.667-1.36-.388-4.54-1.05-4.696-1.05h-.39v5.823c0 1.165 2.6 1.397 2.757 1.475.11.04.23.08.34.08.74.7 4.15 1.79 4.66 1.9.15 0 .27.04.39.04.81 0 1.09-.5.81-1.59 0-.11-.04-.62-.04-.73 0-.54.58-3.18.42-3.88 0-.15-.04-.27-.04-.39zm-1.088 3.494c-.037.505-.077 1.01-.077 1.553 0 .116 0 .233.04.388 0 .428-1.048-.04-1.166-.077-1.242-.543-2.522-1.048-3.92-1.476-.116 0-.232-.04-.31-.116-.31-.155-.592-.418-1.096-.418-.11 0-.45-.147-.6-.147v-.38c0-1.43.08-2.58.08-3.97v-.39c.39 0 .48.15.83.23.04.04.33.04.33.16 1.01.16 1.94.35 2.76.58 1.01.31 1.9.62 2.68.97.47.7.62 1.75.47 3.11zm-26.355.66c.428-.194.894-.27 1.436-.27h7.38c.16 0 .35-.294.46-.294v-1.638c0-1.708-.07-1.833-.07-3.502 0-.116.04-.272.04-.388.16-.543 0-.815-.42-.777h-5.05c-1.7 0-2.01.074-3.72.074h-.39c-.15 0-1.44-.57-1.71.36-.26.93 0 3.17 0 4.99v.38c.16 1.16.45 1.07 2.06 1.05zm-.892-3.765v-1.94c0-.12-.042-.18 0-.39.043-.21 3.65 0 5.436 0h3.1c.46.46.47 1.17.32 2.25-.04.5-.17 2.79-.32 2.79h-3.11c-1.79 0-5.11.25-5.44 0s0-1.94 0-2.72zm-36.097 1.94v-5.05c-.116 0-1.01-.39-1.164-.39h-11.644v6.21c.27.39.58.7.93.97.155.11.39.19.622.19h1.164c1.71 0 3.377.04 5.046.15.272.04 3.376.15 4.657 0 .428-.08.583-.51.467-1.36-.04-.24-.078-.51-.078-.74zm-1.164-3.88v3.88c0 .11 0 .77-.077.77-1.242.27-4.038.39-4.192.39-.62 0-1.94-.2-1.94-.2-1.05-.16-4.114-.2-4.27-.2v-5.04h10.48v.39zm.776-10.1V61c.583.544.854.428.815-.39-.04-.153-.04-.27-.04-.386 0-.155 0-.272.04-.388.155-2.25.04-4.19-.427-5.822-.426.698-.583 1.747-.504 3.104.115 1.164-.62 1.552-2.214 1.164v.778c.544.348 1.28.62 2.292.775.038 0 .038.117.038.39zm17.08 16.3h6.985c.427-.59.62-1.52.543-2.76-.116-1.01-.232-4.74-.932-4.85-1.047-.08-2.095-.16-3.105-.16h-6.6c-.62 0-1.89-.3-1.94 0-.06.29 0 4.89 0 7.37v.39c.54.38 4.5 0 5.04 0zm-3.883-4.66v-1.94h.388c.622 0 3.34-.39 3.494-.39 1.01 0 2.057.08 3.104.15.12.04.24.04.39 0 1.36-.16 2.14.15 2.25 1.01.08.39.08.77.08 1.16 0 1.01-.08 2.06-.19 3.07-.08.46-4.07.62-4.07.62-1.7-.16-3.34-.2-5.04-.2-.15 0-.19-.04-.23-.08-.11-.23-.15-.47-.15-.7v-2.72zM70.565 33.13c-.584-.737-3.028-1.28-3.067-1.397-.233-.543-.388-1.125-.466-1.785-.117-.7-.31-1.36-.66-1.94 0-.156-.622-.39-.777-.39v3.495c-.077.815-2.527 1.68-3.104 3.493-.57 1.812.12 3.765 1.21 4.62 1.13.97 3.86 1.242 4.86.98 1.01-.26 2.07-.917 2.72-2.06.65-1.14.35-.86.35-.86.43-1.94-1.01-4.078-1.05-4.155zm-1.477 4.97c-.388.854-2.988.93-3.144.893-1.747-.465-2.826-3.11-2.29-4.386.537-1.28.66-1.577 1.592-1.9.93-.33.232-.04.35-.04 1.24-.2 2.1-.188 3.104.383 1.004.572 1.397 1.437 1.397 1.553.35 1.785 0 2.91-1.01 3.492zm-1.55 21.93c-4.775-.155-9.588-.194-14.363-.194v13.97c0 .387.078.736.194 1.086 0 .038.07.077.19.077.46.43 6.75 0 8.93 0h5.43V63.33c0-1.048-.04-2.058-.16-3.106-.04-.117-.08-.195-.24-.195zM56.28 73.812c0 .117-.515.16-.515.314-.116 0-1.31.073-1.426.073v-4.66c0-1.94-.1-7.77-.1-8.78 1.82-.27 1.86.1 1.76 2.57-.02.39-.12 3.76-.12 3.88 0 1.44.38 5.82.38 6.6zm2.756-10.48c0 .117-.04 8.384-.04 10.09v.778h-.388c-.388 0-1.164-.27-1.164-.388 0-.66-.194-8.15-.194-8.19-.116-1.63-.194-3.337-.194-5.007 1.824-.27 1.896.327 1.98 2.717zm3.066 10.48v.388h-1.747c-.116-3.22-.388-12.46-.388-12.498-.116-.35.026-.55.026-.94 1.786-.348 1.784.134 1.76 2.183 0 .116.232 6.598.35 6.598v4.27zm2.58-6.84c-.117 1.048.138 3.618.138 3.734V74.2h-1.164c-.116 0-.194 0-.194-.04-.116-1.67-.194-3.337-.194-5.007v-.388c.116-2.95-.04-5.667-.388-8.15h.776c.155 0 .64.146.756.146 0 .39.346 5.13.27 6.22zm.84 7.007c0-.16.073-1.49.073-2.11 0-1.83-.24-8.06-.24-8.17.038-1.09.143-2.2-.168-2.94 1.514-.2 1.983.51 1.673 2.29-.116.62.133 3.07.016 4.15-.078.5.03 3.25.03 4.03 0 .11-.033 1.87-.033 1.98.02.49-.148.75-1.35.75zM114.5 22.96c1.126.272 4.542 0 4.658 0H137.4c.157 0 4.542.04 6.6.195v.193c1.476-.04 2.756.078 3.92.35.117 0 .234.04.35.04.466-.582.66-1.514.583-2.717 0-.15.854-8.11.775-9.35-.116-1.9-.193-3.84-.193-5.78 0-.15 0-.27-.04-.35-.35-1.24-1.474-1.63-3.453-1.2 0-.15-2.834-.39-4.27-.39h-4.658c-1.94 0-8.656.39-10.092.39h-12.808v10.09c0 .12-.04 5.86.35 8.15 0 .12.038.23.038.39zm1.166-1.94V5.887c.427-.348 1.087-.503 1.94-.425.155.04 14.245-.35 14.36-.35h9.317c.154 0 3.997.04 5.82.194V5.5c.467.427.622 1.242.505 2.368-.077.854-.116 1.747-.116 2.678 0 2.833.078 5.667.194 8.54.078 1.085-.116 1.862-.582 2.328-.116 0-.388.388-.466.426-1.242.233-6.908-.04-8.46-.04h-14.75c-1.786 0-3.61.04-5.397.156-1.12.078-1.9-.116-2.36-.542v-.39zm-13.973 1.553h5.045c1.71 0 3.377-.078 5.008-.233.466-.078.66-.505.543-1.358-.08-.35-.12-.737-.12-1.125V6.277c0-.155.04-.272.04-.39.23-1.318-.16-1.94-1.21-1.94 0-.154 0-.193-.04-.193-2.18-.156-4.35-.194-6.56-.194H90.04v9.32c0 2.83.08 5.665.196 8.537h.194c0 .116.04.232.117.27.04.08.157.118.27.118.08.543.47.815 1.168.776h9.705zM110.62 6.27c.47.583.66 1.476.548 2.757-.077 1.785-.154 3.57-.154 5.395v6.21c-.117 0-.233-.04-.35-.077-.154-.08-.27-.196-.427-.31-.117 0-.233-.04-.31-.12-1.903-1.707-3.77-3.19-5.827-4.78 0-.154-.663-.417-.7-.534 1.05-.68.61-1.14.237-2.71 2.29-1.86 4.542-3.76 6.715-5.74.04-.04.156-.08.273-.08zm-7.76-1.552h1.555c1.825 0 3.61.117 5.397.39 0 0 0 .08-.117.312 0 .04-.078.077-.233.077-1.44 1.24-2.875 2.56-4.35 3.8-.193.156-.35.35-.466.583-.775 1.475-2.406 2.096-4.89 1.825-.117 0-.233-.04-.35-.08-.39-.232-.815-.464-1.203-.7 0-.153-.04-.23-.076-.31-1.786-1.94-3.57-3.92-5.357-5.9h10.092zm-.683 10.144c0 .078-.596.337-.868.337-1.44.04-1.98-.89-1.56-2.72 2.02-.35 3.12.28 2.42 2.38zM91.99 20.56c-.234-1.748-.39-3.572-.39-5.357V5.887c.156 0 3.26 2.33 4.154 3.727.078.078.194.194.31.35.156.116.7.853.933 1.008.155.077.31.194.426.35.31.466 1.165 1.397 1.165 1.553 0 .232.04.504.04.776.115 1.01-.08 1.75-.583 2.18-1.71 1.48-6.056 4.78-6.056 4.74zm5.82.854c-.503 0-1.01.208-1.513.116-1.734-.316-2.666.255-2.977-.6.155 0 3.015-1.535 3.908-2.428.155-.155.27-.27.466-.388.35-.272.7-.543 1.047-.777.9-.7 1.11-1.376 2.7-1.337 1.09-.04 2.86.64 3.28 1.376.04.078 4.54 3.572 4.74 4.038H97.81zm52.788 1.55c.27 1.28.775 1.71 1.59 1.243.12-.078 12.267-.465 12.383-.465h6.22v-9.316c0-1.552.39-4.93.43-5.046.16-1.59 0-2.872-.42-3.88-.62-.273-12.26-1.165-13.58-1.165h-6.6v12.032c0 .116-.31 5.046-.19 6.56 0 .038.08.038.2.038zm16.302-.347c-1.164-.04-2.33-.04-3.493-.04h-.388c-.9 0-2.99.195-3.11.195-.9.117-5.13.27-5.44-.582.15 0 1.94-1.437 2.33-1.94.81-1.01 1.67-1.94 2.64-2.834.19-.194 1-.66 1.24-.66.54.35 1.32.543 2.33.582.15 0 .27.078.35.233 1.08 1.52 3.96 5.05 3.53 5.05zm-7.413-9.355c.04-.27.04-.543.04-.776.58-.466 1.357-.698 2.328-.698.58.04.893.388.97 1.047 0 .156.04.31.04.466.31 1.83-.545 2.53-2.486 2.06-.74-.19-1.05-.89-.9-2.09zm9.354-5.046v8.152c0 1.164.08 2.33.16 3.454.16 1.553-.15 2.096-.93 1.592 0-.156-2.48-3.222-3.49-4.658h-.19c.24-1.514-.19-4.463-.23-4.463-.39-.117-.5-.427-.35-.97.54-.272 3.03-1.786 3.53-2.29.43-.506.93-.778 1.52-.817zM157.98 5.5c.155 0 3.105.388 3.883.388.154 0 4.93.39 5.045.39h.39c-.583 1.202-1.515 2.21-2.718 3.103 0 .12-.23.43-.27.47-.854.97-4.618 1.44-4.734 1.4-.39-.23-.814-.46-1.202-.7 0-.15-.04-.23-.08-.31-1.124-1.36-3.607-4-3.645-4.03-.08-.23-.16-.46-.16-.7h3.49zm-5.82 16.69v-8.928c0-1.165.388-5.977.388-6.986 1.05.35 1.863 1.01 2.484 1.824.04.078.116.117.232.117.388.932.93 1.67 1.63 2.212.078.07 1.36 1.39 1.785 1.74.04.08.08.15.08.31-.43.43-.2 2.56-.24 2.64-.19.97-.66 1.78-1.32 2.37-1.24 1.12-3.69 3.96-3.73 4-.31.5-.74.85-1.32 1.08v-.39zm83.837 32.758c-1.436-.117-2.873-.155-4.27-.155v.388c-.35 2.41.04 4.08 1.24 4.93.08.08.156.12.31.12.817-.58 1.67-.66 2.448-.23.62.31.97.27 1.01-.15.156-1.82 0-3.37-.466-4.62-.04-.15-.16-.23-.27-.27zm-2.6 3.765c-.08-.04-.08-.194-.08-.427.12-1.047-.04-1.824-.426-2.33.93-.504 1.63-.464 2.14.157.16.155.24.35.27.582.35 1.825-.31 2.484-1.9 2.018zm-2.834-1.59c0-.27-.04-.505-.116-.738-.04-.155-.08-.31-.157-.466-.078-.24-.155-.39-.27-.47-1.165-.62-2.64-.86-4.504-.66h-.39v4.27c.31 1.08 1.36 1.55 3.145 1.28.62-.08 1.28-.12 1.91-.12.43-.58.58-1.52.43-2.72-.04-.16-.04-.27-.04-.39zm-3.104 2.172c-.7.04-1.05-.194-1.09-.62-.04-.932-.08-1.825-.08-2.718 1.2-.194 2.09-.04 2.52.543.15.156.23.31.35.543.77 1.515.23 2.252-1.71 2.252zM26.39 76.14c0 .777.08 1.514.193 2.29 0 0 .072.04.19.04.7.426 1.59.39 2.68-.116.152-.04 2.91-.35 3.96-.543 1.59-.31 3.14-.54 4.654-.73.893-.11 1.67-.23 2.33-.35.62-.15 1.24-.27 1.9-.35.117-.04 1.476-.19 1.553-.62v-.39c0-1.32-.387-7.26-.387-7.37v-1.94c0-.5-.427-2.83-.194-3.8.31-1.12.11-1.82-.59-2.02h-.39c-4.93.24-14.37 1.36-14.4 1.36-.62.12-1.25.2-1.91.2v8.93c0 .12.08 3.73.19 5.4 0 .04.07.04.19.04zm13.98-14.748c1.203-.04 1.41.444 1.393.932-.076.505.19 8.142.31 8.142 0 1.398.202 4.356.163 4.395-.076.08-.31.35-.31.51-.116 0-.97 0-.97-.04-.116-1.78-.194-5.66-.194-5.78 0-.77-.39-5.43-.39-6.98V61.4zm-.94 1.593c-.037 1.11.163 5.12.163 5.78 0 1.554.274 4.66.39 4.66.35 1.357.08 2.095-.776 2.25-.27.04-.388.04-.388.04-.24-2.06-.66-7.956-.66-8.46.04-2.484-.09-3.96-.51-5.863 1.51-.194 1.83-.227 1.78 1.593zm-4.495 3.064v-4.27c1.514-.2 1.722-.1 1.782.89.095 1.55.264 5.41.288 6.16.04 1.16.26 2.25.26 3.42v3.88c-.117 0-1.553.35-1.553.31-.274-1.13-.39-3.69-.39-3.81 0-.16-.39-4.27-.39-5.83v-.78zm-3.493-2.33v-1.56h2.307c.15 2.4.02 4.77.29 6.98.27 2.4.46 4.81.5 7.37-.12 0-.23 0-.35.04-.58.19-2.21.35-2.37.35v-4.27c0-.66-.39-6.72-.39-8.93zM27.557 77.3V62.555c2.213-.39 3.144.543 2.872 2.717-.08.777.11 6.21.23 6.21.04 1.514-.14 1.995.05 3.315.04.116.04 1.965-.04 2.042-.27.5-1.57.66-1.61.66-.47.11-.97.19-1.52.19v-.39zm76.076-1.164V43.533c0-1.435 0-4.54-.04-4.656-.038-.97-.154-1.902-.35-2.717-.115 0-2.366-1.94-2.715-2.326-.427-.35-1.048-.504-1.94-.466-1.592.117-2.756.66-3.494 1.63 0 .39-.388 4.658-.388 6.21V57.12c0 2.446.053 13.154.053 14.435v8.927c1.16-.04 1.73-.23 2.66-.5.93-.234 5.32-1.125 5.43-1.125.85-.08 1.12-.738.81-1.942 0-.153-.04-.658-.04-.774zm-3.765.35c-.204 1.583-.41 2-.527 2.04-.66.23-2.54.716-3.47.716v-6.99c0-1.436.39-8.034.39-8.15V50.52c0-2.33.66-11.063.59-12.42-.04-.855.55-1.05 1.71-.66.16.038.31.115.43.27.82 1.125 1.17 2.794 1.05 5.046-.15 3.376-.27 10.712-.27 10.867V74.97c0 .118.16 1.16.12 1.515zm.39-39.048c-.195-.078-2.485-1.36-3.223-2.057.66-.54 1.552-.81 2.716-.77.16 0 2.34 2 2.46 2 .63.73.51 1.19.24 1.42-.23.27-1.76-.42-2.18-.58zm2.444 4.542c-.154 1.164-.232 3.726-.232 3.88v19.02c0 3.105.038 10.48.116 10.83.233 1.396-.038 2.173-.893 2.366h-.39c-.115 0-.192-.035-.23-.035-.08-.5-.157-1.01-.157-1.51V38.85c.156 0 .777.535.777.42.854.31 1.203 1.202 1.01 2.716zm.93 41.142c-.23-.467-1.823-.194-1.98-.194-.89.116-1.667.27-2.327.465-1.397.465-2.95.738-4.62.893v23.678c.272.155.543.232.816.35.12 0 3.46-1.086 4.58-1.28.16-.04.32-.078.47-.233.55-.46 1.21-.85 1.9-1.16.47-.58.62-1.51.55-2.75-.11-1.12.82-15.95.66-17.04-.04-.15-.04-2.09-.04-2.71zm-1.94 13.585v7.375c0 .115-.04.62-.077.736-.078.156-.155.27-.31.428-.117 0-3.34 1.553-5.047 1.94h-.193c-.117-3.26-.194-6.48-.194-9.703v-12.42c1.87.04 3.42-.195 4.74-.623.78-.31 1.24-.232 1.48.232 0 1.79-.38 10.717-.38 12.036zm-31.827 6.21c0-.155 0-.27.04-.388.116-1.48 0-2.64-.428-3.5-.116 0-.233-.04-.35-.08-1.01-.35-3.92-.51-3.92-.51-1.436-.16-2.245-.2-3.682-.2-.116 0-.527-.11-.937-.08-.156-.08-1.487-.12-1.604-.16-1.94-.12-2.705-.16-4.646-.16h-.388v5.05c.582.43 1.475.66 2.716.58h.777c1.397.04 2.56.15 3.532.43.833.2 1.506.58 3.16.69.35.43 1.157.55 2.127.51.116 0 .82.07.938.07.97-.08 1.228-.07 1.655.24.155.11.35.19.62.27.546.11.39-2.02.39-2.8zm-.777.78c0 .23-.04.386-.077.386-1.55.427-2.79.427-3.8 0-2.4-.7-5.12-1.166-8.11-1.357h-.39c-.85.04-1.28-.156-1.36-.62-.11-1.283.39-2.373.12-3.38 3.15.23 5.52.39 8.58.662.16.04.27.04.39.04 1.32 0 2.6.037 3.88.192v.195c.47.424.66 1.2.62 2.327-.04.232.04.504.16.774v.778z"/>
  <path d="M73.59 98.264c.08-1.28-.27-1.98-1.047-2.133-1.436-.35-4.62-.77-4.62-.77-3.492-.15-17.58-.58-17.853-.58v4.66c0 1.67.272 5.05.39 5.05.115.23-.205.54-.01.73.038.08.595.12.71.12 1.465-.01 1.55.55 2.83.43 1.01-.07 14.323 1.83 14.71 1.79 1.243-.04 2.29.08 3.107.43.854.58 1.552.55 2.134-.15.16-.15-.03-1.01-.19-1.01 0-.15-.15-8.03-.15-8.54zm-1.783 8.928c-1.087-.427-2.407-.698-3.882-.775-.7-.077-1.358-.155-1.94-.312-1.514-.35-3.183-.582-5.046-.66-.12 0-6.87-.97-8.16-.97h-1.55v-8.54h.39c1.28 0 18.47.854 20.18.97v.196c.46.7.66 1.75.58 3.11 0 .12 0 .27.04.39.11 1.05.15 2.06.15 3.11v2.33c0 .12-.08 1.32-.78 1.17zm-29.5-6.21c0-.544.04-1.048.08-1.552.154-1.36 0-2.408-.467-3.107-.427-.348-.932-.582-1.553-.698-.388-.04-.738-.116-1.126-.232-.97-.233-2.13-.388-3.53-.428-2.09-.077-4.31-.155-6.6-.192h-2.32v5.048c.2.82.97 1.13 2.33.9.39-.08 7.45 1.04 8.58 1.13.9.07 1.8.07 2.53.39.59.2 1.02.31 1.72.27.47 0 .91-.42.64-1.08-.04-.16-.11-.31-.27-.43zm-3.493 0h-.39c-1.357-.04-5.16-.97-6.208-.893-.7 0-2.174-.28-2.33-.28-.388 0-1.98.04-1.98-.39.04-1.17.04-2.33.04-3.5v-.39c1.436 0 4.27.23 4.27.38h1.166c1.318 0 2.6.04 3.88.19 0 0 3.338.19 3.494 1.74 0 .11.04.62.04.77.386 2.33-.275 3.11-1.982 2.33z"/>
  <path d="M45.024 100.206v-.388c0-1.048.04-2.058.155-3.105.07-1.087-.08-1.902-.55-2.33-.86-.465-1.87-.698-3.11-.775-.7-.078-1.36-.155-1.94-.27-1.67-.313-3.5-.505-5.44-.505-.51 0-2.9-.33-3.88-.388-.97-.35-2.14-.545-3.5-.583-1.01 0-2.06-.078-3.11-.195v8.153c0 .62.07 1.28.19 1.9 0 0 9.62 1.28 10.25 1.398 1.59.388 3.3.66 5.08.894 1.78.192 3.45.504 5.04.853.08.428.46.506 1.08.232.07-.037.07-.116.07-.232 0-.155 0-1.436-.04-1.552-.31-.817-.43-1.865-.35-3.107zm-.776 3.88c-.504 0-1.01-.076-1.475-.194-.427-.154-.854-.27-1.28-.35-.622-.154-1.243-.31-1.865-.388-1.59-.27-3.298-.543-5.045-.775-.155-.04-.31-.04-.427-.08-1.475-.08-2.756-.23-3.88-.51-1.515-.31-3.184-.47-5.046-.43-.117 0-.194 0-.194-.04-.117-2.18-.195-4.39-.195-6.56v-1.94c1.44 0 2.4.11 3.83.26.62.04 1.61.08 2.11.31.31.11.66.19 1.05.19 1.94 0 3.88.04 5.82.19.12 0 .28 0 .43.07 1.59.54 3.38.85 5.4.89.16 3.06.43 6.05.78 8.92v.39zM195.81 33.573c-.583-.737-3.028-1.28-3.067-1.397-.232-.543-.387-1.125-.465-1.785-.116-.69-.31-1.35-.66-1.94 0-.15-.62-.39-.775-.39v3.5c-.077.82-2.527 1.68-3.105 3.5-.58 1.81.116 3.77 1.203 4.62 1.13.97 3.86 1.24 4.86.98 1.01-.26 2.07-.91 2.72-2.06.65-1.14.35-.86.35-.86.43-1.94-1.01-4.07-1.05-4.15zm-1.475 4.97c-.39.853-2.99.93-3.145.89-1.747-.464-2.827-3.11-2.29-4.384.537-1.28.66-1.58 1.59-1.91.932-.33.233-.04.352-.04 1.24-.2 2.1-.18 3.104.39 1.006.57 1.398 1.43 1.398 1.55.35 1.78 0 2.91-1.01 3.49zm25.977-3.5c-.58-.737-3.026-1.28-3.065-1.397-.232-.543-.39-1.125-.466-1.785-.11-.69-.11-.47-.46-1.05 0-.15-1.01-.09-1.17-.09 0 .89.2.61.2 1.54v.78c-.07.82-2.52 1.68-3.1 3.5-.58 1.81.12 3.77 1.21 4.62 1.13.97 3.86 1.24 4.86.98 1.01-.26 2.07-.91 2.72-2.06.65-1.14.35-.86.35-.86.43-1.94-1.01-4.07-1.05-4.15zm-1.475 4.97c-.388.853-2.987.93-3.143.89-1.747-.464-2.827-3.11-2.29-4.384.535-1.28.66-1.58 1.59-1.91.93-.33.233-.04.35-.04 1.242-.2 2.103-.18 3.105.39 1 .57 1.39 1.43 1.39 1.55.35 1.78 0 2.91-1.01 3.49zm-98.712-28.608c-.496-.497-1.31-.542-1.987 0s-1.807 4.878-1.807 5.33c0 .632.95 1.626.86.994-.09-.64.32-3.53.68-3.35.45.22.86.31 1.76-.32s1-2.17.5-2.67zm-1.13 1.896c-.47.5-1.038.77-1.038.77.045-.36.207-2.48 1.58-2.48.316 0 .27.86-.542 1.72zm8.64 3.02c-.54-.09-.81-.17-.54-.39.3-.24.48-.6.934-1.5.45-.9.75-2.12.75-2.44 0-.31-.21-.99-.91-.81-.52.14-1.57 1.28-1.81 2.38-.24 1.12-.18 1.6-.18 2s-.44.41-.59.4c-.37-.04-.75-.12-.57-.65.14-.42.48-.69.57-.87.09-.18-.09-.69-.5-.69s-.73.38-.77.83-.18 1.27-.45 1.27-.45-.15-.32-.66c.12-.47.54-.96.36-1.19-.18-.22-.54-.4-.59-.09-.05.32-.75 1.6-1.18 1.85-.23.14-.36-.23-.32-.63.04-.4.35-1.36.18-1.44-.5-.23-.48.15-.83.07-.41-.09-1.16.46-1.43.87-.28.41-.59 1.55-.05 1.9.45.29 1.29-.47 1.58-.87.27-.37-.07.66.56.75.6.09 1.07-.28 1.16-.64.09-.36.04 1.07.77 1.03.72-.05.76-.48.85-.71.09-.22.54.53 1.04.57s1.02.02 1.07-.25c.04-.27.33.65 1.19.56.85-.09.81-.42.85-.64.04-.22-.33.14-.88.05zm-6.863-1.57c-.057.34-.724 1.18-.903 1.04-.19-.13 0-.22.18-.54.18-.31.81-1.04.72-.49zm5.645.33c-.18-.13.37-1.99.497-2.21.226-.39.33-.72.572-.88.27-.18.512 0 .45.3-.06.3-.284 1.07-.496 1.4-.21.33-.857 1.52-1.023 1.4zm7.016-2.53c.14.13.556-.16.587-.57.03-.39-.21-.68-.723-.81-.325-.09-1.64-.15-2.092.25-.452.4-.754 1.19.075 1.89.828.71 1.762.73 2.198 1.45.207.34.03.66-.347.69-.37.03-1.24.09-1.91-.75-.51-.66-.69-.83-.75-1.13-.06-.3-.22 1.16.18 1.88.26.46 1.72 1.3 2.28 1.28.56-.01 1.49-.12 1.46-.9-.03-.78-.12-1.13-1.13-2-1-.87-1.68-.79-1.77-1.31-.12-.7.64-.55 1.07-.46.44.09.73.35.89.5zm1.813 1.22c.17-.06.498.13.453.35-.05.23.19-.49.72-.49.52 0 .58.14.68.45.06.21.2-.02.27-.1.13-.18.45-.46.76-.37.31.09.49.69.36 1.18-.14.48-.25 1.1.01 1.12.39.03 1.1-1.81 1.17-2.2.07-.39.63-.19.6.21-.03.34-.56 1.01-.5 1.48.06.47-.05.95-.21.88-.17-.07-.14-.28-.26-.24-.09.04-.5.68-.92.64-.43-.04-.49-.12-.59-.4-.23-.63.55-2.63.03-2.36-.59.3-.61 2.53-.98 2.59-.52.08-.52-.98-.21-1.37s.27-1.39-.36-1.09c-.36.17-.44 2.4-.73 2.73-.29.33-.57-.62-.41-1.26.3-1.14-.15-1.59.07-1.68zm5-.96c-.28-.16-.604-.93-.287-1.31.31-.37.69.2.79.65.05.21-.26.81-.51.66zm1.744-1.1c.135-.18.047-.77-.24-.71-.285.06-.602 1.27-.872 2.14-.27.88-.558 2.49-.136 2.95.286.32.858.36 1.13-.01.266-.37.522-.85.646-.84.302.02.03.8.422.83.39.03.723-1.05 1.114-1.05.257 0 .587 1.51 1.113 1.61.527.11.828-1.5.994-1.95.11-.29-.22.09-.33.16-.1.07-.43.45-.73.43-.21-.01-.28-.65-.69-.75-.42-.1-.64-.01-1.07.29-.59.42-.04-1.17.29-1.49.33-.32.82-1.2.83-1.72.02-.51-.09-.91-.24-.76-.15.15-1.67 3.27-2.11 3.86-.42.57-.94 1.05-.99.52-.06-.63.26-2.34.61-2.36s.21.15.5-.07c.23-.18.82-.89.5-.96-.31-.07-.83.08-.71-.09zM50.583 78.6c-.497-.497-1.31-.54-1.987 0-.678.54-1.806 4.877-1.806 5.33 0 .633.948 1.626.858.994-.09-.632.316-3.52.678-3.342.452.226.858.317 1.76-.316.904-.635.995-2.17.497-2.667zm-1.128 1.897c-.47.5-1.04.77-1.04.77.047-.36.208-2.484 1.582-2.484.316 0 .27.86-.542 1.718z"/>
  <path d="M58.097 83.502c-.543-.092-.812-.178-.543-.393.302-.24.482-.61.934-1.51s.753-2.12.753-2.44c0-.32-.21-1-.9-.82-.51.13-1.57 1.27-1.8 2.38-.24 1.11-.18 1.59-.18 2 0 .41-.43.41-.58.39-.37-.04-.75-.12-.57-.65.15-.43.49-.7.58-.88s-.09-.7-.49-.7-.72.38-.76.83c-.04.45-.18 1.26-.45 1.26s-.45-.16-.32-.67c.12-.47.54-.96.36-1.19-.18-.23-.54-.41-.59-.09-.04.32-.74 1.6-1.17 1.85-.22.13-.36-.23-.31-.64.05-.41.36-1.37.18-1.44-.5-.23-.47.15-.83.07-.4-.09-1.16.46-1.43.87s-.58 1.55-.04 1.9c.45.28 1.29-.47 1.58-.87.27-.38-.07.66.56.75.6.09 1.07-.29 1.16-.65.09-.36.04 1.07.77 1.02.73-.05.77-.48.86-.71.09-.22.54.53 1.04.57.5.04 1.02.01 1.07-.26.04-.27.33.64 1.19.55.86-.09.81-.42.86-.65.05-.23-.33.13-.87.04zm-6.866-1.578c-.05.34-.72 1.174-.9 1.038-.18-.135 0-.226.18-.542.18-.316.82-1.037.73-.496zm5.65.327c-.18-.13.37-1.99.5-2.21.23-.39.33-.73.57-.89.27-.18.51 0 .45.3-.06.31-.28 1.07-.49 1.4-.21.34-.86 1.53-1.02 1.4zm7.02-2.52c.14.13.56-.16.59-.57.03-.39-.21-.67-.72-.81-.32-.08-1.64-.15-2.09.26-.45.41-.75 1.19.08 1.9s1.77.72 2.2 1.45c.21.34.03.66-.35.69-.37.03-1.25.09-1.91-.75-.51-.65-.69-.83-.75-1.13-.06-.3-.22 1.16.18 1.89.26.46 1.72 1.3 2.28 1.28.56-.01 1.49-.12 1.46-.9-.03-.78-.12-1.13-1.13-2-1-.87-1.68-.79-1.77-1.31-.12-.7.63-.55 1.07-.46.44.09.73.34.89.5zm1.82 1.22c.17-.06.5.12.45.35-.04.23.2-.49.73-.49s.59.14.68.45c.06.21.21-.02.27-.1.14-.18.46-.47.77-.38.32.09.5.69.36 1.18-.13.48-.24 1.1.02 1.12.39.03 1.1-1.81 1.17-2.2.08-.39.64-.19.61.21-.02.34-.55 1.01-.49 1.48.06.47-.05.95-.21.88-.17-.07-.14-.28-.26-.24-.09.03-.49.68-.92.63-.42-.04-.48-.12-.58-.4-.22-.63.56-2.63.03-2.36-.59.3-.6 2.53-.98 2.59-.52.08-.51-.98-.21-1.37.3-.39.27-1.38-.36-1.08-.36.17-.44 2.4-.72 2.73s-.58-.63-.41-1.26c.3-1.14-.15-1.59.08-1.68zm5-.96c-.27-.16-.6-.93-.28-1.31s.7.2.8.65c.05.21-.25.82-.51.67zm1.75-1.1c.14-.18.05-.76-.24-.7-.28.06-.6 1.27-.87 2.14s-.55 2.49-.13 2.95c.29.32.86.36 1.13-.01.27-.37.53-.85.65-.84.3.02.03.8.42.83.39.03.73-1.05 1.12-1.05.26 0 .59 1.51 1.12 1.61.53.11.83-1.5 1-1.95.1-.28-.23.09-.33.17-.11.08-.44.45-.74.44-.21-.01-.28-.65-.69-.75-.42-.1-.65-.01-1.07.29-.59.43-.04-1.17.29-1.49.33-.31.81-1.2.83-1.71s-.09-.92-.24-.77c-.15.15-1.67 3.27-2.1 3.86-.42.57-.94 1.06-.99.53-.06-.64.26-2.35.6-2.37.35-.02.21.15.5-.08.22-.18.81-.89.49-.96-.31-.08-.82.07-.7-.09zm115.89 4.13c-.49-.49-1.31-.54-1.98 0-.67.54-1.8 4.88-1.8 5.33 0 .64.95 1.63.86 1-.09-.63.32-3.52.68-3.34.45.23.86.32 1.76-.31.91-.64 1-2.17.5-2.67zm-1.12 1.9c-.47.5-1.04.77-1.04.77.05-.36.21-2.48 1.59-2.48.32 0 .27.86-.54 1.72z"/>
  <path d="M195.854 87.913c-.54-.092-.81-.178-.54-.394.3-.24.48-.61.933-1.51.45-.91.752-2.12.752-2.44 0-.32-.22-1-.91-.82-.52.13-1.57 1.27-1.81 2.38-.24 1.11-.18 1.59-.18 2 0 .41-.44.41-.59.39-.37-.04-.75-.12-.57-.65.14-.43.48-.7.57-.88.09-.18-.09-.7-.5-.7-.41 0-.73.38-.77.83-.05.45-.18 1.26-.45 1.26s-.45-.16-.32-.67c.12-.47.54-.96.36-1.19-.18-.23-.55-.41-.59-.09-.05.32-.75 1.6-1.18 1.85-.23.13-.36-.23-.32-.63.04-.41.35-1.37.18-1.45-.5-.23-.48.15-.83.07-.41-.09-1.16.46-1.43.87s-.59 1.55-.05 1.89c.45.28 1.29-.47 1.58-.87.27-.38-.07.66.55.75.6.09 1.07-.29 1.16-.65.09-.36.05 1.07.77 1.02.72-.05.77-.48.86-.71.09-.23.54.53 1.04.57.49.04 1.02.01 1.06-.26.04-.28.33.64 1.19.55.85-.09.81-.43.85-.65.04-.23-.33.13-.87.04zm-6.864-1.578c-.057.338-.724 1.174-.904 1.038-.18-.135 0-.225.18-.54.182-.32.814-1.04.724-.498zm5.645.327c-.18-.13.368-1.99.497-2.212.226-.392.33-.73.57-.89.272-.18.514 0 .453.3-.06.303-.285 1.07-.497 1.402-.21.33-.858 1.52-1.023 1.4zm7.015-2.528c.142.126.557-.165.588-.573.03-.39-.21-.67-.723-.81-.325-.08-1.64-.15-2.093.26-.45.41-.752 1.19.074 1.9.83.71 1.764.73 2.2 1.45.206.35.028.66-.348.69-.376.03-1.25.09-1.91-.75-.518-.66-.694-.83-.755-1.13-.06-.3-.226 1.16.18 1.88.26.46 1.72 1.3 2.275 1.28.558-.01 1.49-.12 1.46-.9-.03-.78-.12-1.13-1.13-2-1.008-.87-1.686-.79-1.775-1.31-.125-.7.632-.55 1.07-.46.437.09.723.35.888.5zm1.813 1.216c.17-.068.497.122.453.346-.046.227.195-.497.722-.497.527 0 .587.13.678.45.06.21.207-.02.27-.11.136-.18.452-.47.768-.38.315.09.497.69.36 1.17-.134.48-.245 1.09.016 1.11.393.03 1.1-1.81 1.175-2.2.076-.39.633-.2.603.21-.025.34-.557 1-.496 1.47.06.47-.046.95-.212.87-.165-.08-.135-.29-.255-.24-.09.03-.497.68-.92.63-.42-.05-.483-.12-.586-.41-.23-.64.55-2.64.02-2.37-.59.3-.6 2.53-.98 2.59-.53.08-.52-.98-.21-1.37.3-.39.27-1.39-.37-1.09-.36.17-.44 2.39-.73 2.72-.29.33-.58-.63-.41-1.27.3-1.15-.15-1.6.07-1.69zm4.997-.964c-.276-.164-.6-.933-.284-1.31.317-.375.693.196.798.648.05.21-.256.813-.513.662zm1.748-1.098c.134-.182.045-.768-.24-.708-.286.06-.603 1.265-.873 2.138s-.56 2.485-.137 2.95c.287.316.858.362 1.13-.014.267-.37.524-.85.647-.844.302.016.03.798.422.83.39.03.723-1.054 1.114-1.054.26 0 .59 1.505 1.12 1.61.53.106.83-1.506 1-1.957.11-.29-.22.09-.33.16-.1.07-.44.45-.74.43-.21-.01-.28-.65-.69-.76-.42-.11-.64-.02-1.06.28-.59.42-.04-1.18.29-1.49.33-.32.82-1.21.83-1.72s-.09-.92-.24-.77c-.15.15-1.67 3.27-2.1 3.85-.42.57-.94 1.06-.99.53-.06-.64.26-2.35.61-2.37.35-.02.21.15.5-.08.23-.18.82-.89.5-.96-.32-.08-.83.07-.71-.09zM98.598 128.6c1.22-.764 4.89 3.085 5.145 4.115.258 1.03 1.16 5.018 1.16 7.718s-1.93 7.847-3.99 8.105c-2.058.257-2.7-4.118-2.058-8.105.643-3.986.515-3.473.258-4.374-.258-.9-1.544-6.82-.516-7.46zm12.222 2.186c.855-.57 4.76 1.158 4.888 1.672.13.515 1.415 3.217 1.93 3.217.515 0 5.017-4.374 5.017-5.532s-.515-1.158 0-1.286 4.76-.9 5.402-.257c.644.643 1.99 4.877 1.287 9.52-.644 4.244-.644 7.203-.13 7.46.516.258 1.287-.515 1.545-.127.25.385.38 3.86-.9 3.86-1.29 0-4.12-2.446-4.89-4.248-.77-1.8-1.75-7.674-1.03-8.232 1.16-.9-1.16 1.157-1.29 2.06-.13.9-.39 4.5-2.06 4.63-1.68.13-3.86-1.158-4.38-2.06-.52-.9-.52 3.475-1.67 4.504-1.16 1.028-1.42 2.573-2.19 2.443-.77-.13-3.09-2.06-3.22-3.345-.13-1.287 2.06-7.46 1.41-9.776-.64-2.32-.13-4.25.26-4.51zm25.47 2.056c.617-.22 2.573 2.317 2.573 3.73 0 1.416-1.03 7.72.644 8.235 1.672.514 3.216-.516 3.987-4.76.77-4.245 1.8-8.748 1.673-9.52-.13-.773 3.86 7.075 3.86 8.232s-.902 6.17-1.288 7.07c-.39.9-.9 3.73-4.89 3.34-3.99-.39-6.31-2.19-6.95-4.25-.65-2.06-1.93-4.38-.77-8.24 1.15-3.86-.65-3.22 1.15-3.86zm23.542-.898c.202.473 6.175.256 6.818.644.644.385 2.958 1.414 2.7 3.472-.257 2.06-1.03 1.286-1.414 1.93-.386.643-2.188 3.604-4.245 5.533-2.05 1.93-5.14 3.987-5.66 3.86-.51-.13 6.82.513 9.78-2.318 2.96-2.83-3.99 6.562-5.66 6.562s-5.38-1.743-7.2-2.958c-1.15-.78-2.18-2.19-1.15-3.61 1.03-1.42 6.29-4.8 6.82-7.46.13-.65-2.83.13-3.86-1.55-1.02-1.68-2.7-4.25-1.41-4.76 1.29-.52 4.12-.26 4.51.64zm13.764 2.186c.795.44 2.96 2.7 2.83 3.987-.128 1.286-.063 3.83-.515 4.89-.38.9.28 3.065.65 3.343 1.03.772 4.76-2.828 4.63-6.303-.14-3.985-.77-6.69 0-10.162 0 0 5.53 5.918 5.66 7.46.13 1.545 1.42 10.29-1.93 12.22s-3.08 3.732-7.59 1.546c-4.5-2.18-6.04-5.91-5.91-9.13.13-3.21-.13-9.13 2.19-7.85z"/>
</svg>
