<?xml version="1.0" encoding="utf-8"?>
<!-- Generator: Adobe Illustrator 14.0.0, SVG Export Plug-In . SVG Version: 6.00 Build 43363)  -->
<!DOCTYPE svg PUBLIC "-//W3C//DTD SVG 1.1//EN" "http://www.w3.org/Graphics/SVG/1.1/DTD/svg11.dtd">
<svg version="1.1" id="レイヤー_1" xmlns="http://www.w3.org/2000/svg" xmlns:xlink="http://www.w3.org/1999/xlink" x="0px"
	 y="0px" width="61.065px" height="55.391px" viewBox="0 0 61.065 55.391" enable-background="new 0 0 61.065 55.391"
	 xml:space="preserve">
<g>
	<path d="M54.915,44.555c0,1.009-0.239,1.827-1.629,1.827H2.43c-1.39,0-1.628-0.818-1.628-1.827v-3.78
		c0-1.009,0.239-1.826,1.628-1.826h50.856c1.39,0,1.629,0.817,1.629,1.826V44.555z"/>
	<ellipse cx="10.134" cy="51.881" rx="3.668" ry="3.51"/>
	<polygon stroke="#FFFFFF" stroke-width="0.7248" points="12.604,46.833 10.18,50.58 7.664,46.893 	"/>
	<ellipse cx="45.521" cy="51.881" rx="3.668" ry="3.51"/>
	<polygon stroke="#FFFFFF" stroke-width="0.7248" points="47.992,46.833 45.567,50.58 43.05,46.893 	"/>
	<polygon points="61.065,1.038 55.236,0 48.763,37.367 54.593,37.367 	"/>
	<path d="M47.191,34.746c0,1.255-1.018,2.271-2.271,2.271H19.897c-2.21-0.488-4.163-1.044-5.476-2.271L0,12.83
		c0-1.254,1.017-2.271,2.271-2.271h46.654c1.254,0,2.271,1.017,2.271,2.271L47.191,34.746z"/>
</g>
</svg>
