<?xml version="1.0" encoding="utf-8"?>
<!-- Generator: Adobe Illustrator 14.0.0, SVG Export Plug-In . SVG Version: 6.00 Build 43363)  -->
<!DOCTYPE svg PUBLIC "-//W3C//DTD SVG 1.1//EN" "http://www.w3.org/Graphics/SVG/1.1/DTD/svg11.dtd">
<svg version="1.1" id="レイヤー_1" xmlns="http://www.w3.org/2000/svg" xmlns:xlink="http://www.w3.org/1999/xlink" x="0px"
	 y="0px" width="79.02px" height="54.219px" viewBox="0 0 79.02 54.219" enable-background="new 0 0 79.02 54.219"
	 xml:space="preserve">
<g>
	<path d="M79.02,51.384c0,1.566-1.27,2.835-2.835,2.835H2.834C1.269,54.219,0,52.95,0,51.384V38.485
		c0-1.564,1.269-2.834,2.834-2.834h73.35c1.565,0,2.835,1.27,2.835,2.834V51.384z"/>
	<g>
		<path d="M36.926,23.332c-2.477,0-4.492,2.015-4.492,4.492c0,2.476,2.015,4.492,4.492,4.492s4.492-2.016,4.492-4.492
			C41.418,25.347,39.402,23.332,36.926,23.332z"/>
		<path d="M65.267,32.467c0,0-4.847,0.048-6.308-0.753c-1.049-0.575-1.702-1.975-1.049-2.455c0.76-0.561,1.094-0.006,3.511-2.579
			c2.417-2.575,2.197-6.985,2.197-6.985s-3.257,1.756-4.696,2.061c-2.252,0.477-2.696-0.93-2.355-1.542
			c0.417-0.746,0.938-0.344,2.474-2.803c2.452-3.924-1.635-8.909-1.635-8.909s-0.903,3.094-2.273,4.601
			c-2.058,2.265-2.976,0.802-3.062,0.244c-0.189-1.251,0.482-0.732,0.432-3.947c-0.082-5.148-4.375-7.917-4.375-7.917
			s-0.653,3.364-1.234,5.11c-0.742,2.225-1.631,1.631-1.832,1.396c-0.73-0.848,0.305-0.914-1.836-3.895
			C40.788,0.704,35.849,0,35.849,0s1.54,3.364,1.731,5.11c0.192,1.746-1.083,1.542-1.564,1.268C35.194,5.911,35.89,5.1,33.169,3.3
			c-3.198-2.116-8.821-1.481-8.821-1.481s3.256,2.467,4.234,4.247c0.858,1.562,0.415,2.286-0.403,2.373
			C26.915,8.573,27.347,7.918,25.01,7c-4.712-1.849-10.669,0.499-10.669,0.499s4.705,1.656,6.366,3.537
			c1.367,1.548,0.756,2.104,0.488,2.417s-0.347,0.286-3.268,0.119c-4.331-0.248-8.581,3.512-8.581,3.512s4.495,0.165,6.479,1.294
			c1.834,1.043,1.653,1.836,1.339,2.374s-0.846,0.427-3.645,1.764c-2.799,1.337-4.936,5.859-4.936,5.859s3.583-0.647,5.428-0.485
			c1.845,0.161,1.904,0.788,1.854,1.37c-0.089,1.029-0.872,1.322-2.454,3.26c-0.212,0.26-0.388,0.528-0.558,0.797h13.401
			c-0.852-1.648-1.342-3.513-1.342-5.492c0-6.623,5.388-12.011,12.011-12.011s12.012,5.388,12.012,12.011
			c0,1.979-0.49,3.844-1.342,5.492h17.076C65.074,32.813,65.267,32.467,65.267,32.467z"/>
		<path d="M30.434,27.824c0-3.58,2.912-6.492,6.492-6.492c3.58,0,6.492,2.912,6.492,6.492c0,2.313-1.221,4.341-3.047,5.492h4.916
			c1.039-1.578,1.65-3.465,1.65-5.492c0-5.52-4.492-10.011-10.012-10.011c-5.52,0-10.011,4.491-10.011,10.011
			c0,2.027,0.61,3.914,1.65,5.492h4.915C31.654,32.165,30.434,30.137,30.434,27.824z"/>
	</g>
</g>
</svg>
