<?xml version="1.0" encoding="utf-8"?>
<!-- Generator: Adobe Illustrator 14.0.0, SVG Export Plug-In . SVG Version: 6.00 Build 43363)  -->
<!DOCTYPE svg PUBLIC "-//W3C//DTD SVG 1.1//EN" "http://www.w3.org/Graphics/SVG/1.1/DTD/svg11.dtd">
<svg version="1.1" id="レイヤー_1" xmlns="http://www.w3.org/2000/svg" xmlns:xlink="http://www.w3.org/1999/xlink" x="0px"
	 y="0px" width="126.871px" height="75.377px" viewBox="0 0 126.871 75.377" enable-background="new 0 0 126.871 75.377"
	 xml:space="preserve">
<g>
	<rect x="12.612" y="64.084" width="108.123" height="11.293"/>
	<rect x="18.235" y="9.736" width="20.193" height="50.818"/>
	<rect x="41.921" y="18.559" width="35.529" height="41.996"/>
	<polygon points="80.686,7.972 72.937,7.972 72.937,15.384 80.686,15.384 80.686,60.555 115.448,60.555 115.448,7.972 	"/>
	<rect x="62.086" y="12.207" width="6.313" height="4.235"/>
	<polygon points="68.399,4.091 60.64,4.091 58.725,4.091 57.278,4.091 57.278,16.442 60.64,16.442 60.64,9.736 68.399,9.736 	"/>
	<g>
		<polygon fill="#FFFFFF" points="101.664,46.689 101.664,58.366 82.548,58.366 82.548,46.689 84.193,20.748 99.486,20.748 		"/>
		<polygon points="99.486,46.689 84.193,46.689 85.641,22.745 98.04,22.745 		"/>
		<rect x="84.193" y="50.038" width="15.293" height="6"/>
		<rect x="87.174" y="39.451" fill="none" stroke="#FFFFFF" stroke-width="1.6998" width="9.202" height="4.411"/>
		<ellipse fill="#FFFFFF" cx="88.385" cy="26.981" rx="1.211" ry="1.672"/>
		<ellipse fill="#FFFFFF" cx="92.001" cy="26.981" rx="1.211" ry="1.672"/>
		<ellipse fill="#FFFFFF" cx="95.816" cy="26.981" rx="1.211" ry="1.672"/>
		<ellipse fill="#FFFFFF" cx="88.122" cy="32.624" rx="1.211" ry="1.672"/>
		<ellipse fill="#FFFFFF" cx="92.27" cy="32.624" rx="1.211" ry="1.672"/>
		<ellipse fill="#FFFFFF" cx="95.816" cy="32.624" rx="1.211" ry="1.672"/>
	</g>
	<rect x="47.214" y="25.309" fill="none" stroke="#FFFFFF" stroke-width="1.6998" width="9.174" height="30.729"/>
	<rect x="61.198" y="25.31" fill="none" stroke="#FFFFFF" stroke-width="1.6998" width="9.175" height="30.729"/>
	<rect y="18.559" width="11.075" height="10.094"/>
	<polygon points="12.612,21.469 12.612,29.811 3.469,29.811 16.803,55.232 16.749,33.363 	"/>
	<rect x="2.462" y="29.811" width="4.698" height="4.453"/>
	<line fill="none" stroke="#FFFFFF" stroke-width="1.6998" x1="11.859" y1="28.653" x2="17.452" y2="43.862"/>
	<polygon points="22.711,6.642 38.429,6.642 44.192,4.091 29.648,4.091 	"/>
	<polygon points="41.507,9.736 45.423,6.642 45.423,13.438 41.507,16.442 	"/>
	<polygon points="47.214,14.324 44.192,16.442 56.388,16.442 56.388,14.324 	"/>
	<polygon points="58.485,2.625 68.399,2.625 70.305,0 61.267,0 	"/>
	<polygon points="69.477,4.091 69.477,16.442 71.49,16.442 71.49,0.772 	"/>
	<polygon points="74.287,5.366 115.952,4.772 118.144,0 77.983,0.772 	"/>
	<polygon points="120.271,1.679 117.25,8.278 117.25,60.225 120.271,55.709 	"/>
	<polygon points="122.955,64.084 122.955,74.76 126.871,69.729 126.871,58.366 	"/>
	<polygon points="119.264,60.555 121.948,60.555 126.2,55.232 122.955,55.232 	"/>
</g>
</svg>
