<svg xmlns="http://www.w3.org/2000/svg" width="127" height="50" viewBox="0 0 200 78.961">
<!--
<svg xmlns="http://www.w3.org/2000/svg" width="152" height="60" viewBox="0 0 200 78.961">
<svg xmlns="http://www.w3.org/2000/svg" width="200" height="78.961" viewBox="0 0 200 78.961">
-->
  <path fill="#D2152C" d="M25.976 18.62H1.39s.865 13.966.618 30.776C1.76 66.206 0 78.84 0 78.84h21.29s-.99-27.59-.99-31.793L41.067 78.84H64.18s-2.1-12.608-2.1-30.11 1.606-30.11 1.606-30.11H42.18s1.853 11.248 1.605 28.057L25.975 18.62zm97.036 0s-28.697-.33-39.44 0c-7.676.235-16.55 8.775-16.55 16.933s4.397 15.426 16.933 18.91c13.064 3.634 28.958 5.153 28.923 7.047-.04 2.122-20.295.757-23.607.74-5.35-.024-20.14-2.966-20.14-2.966V78.84s37.56.274 43.39 0c5.42-.256 17.68-5.587 17.68-17.577s-10.78-16.297-16.93-18.91c-10.4-4.422-28.44-5.066-28.43-6.305.02-1.708 15.69-.743 19.78-.495 6.93.42 18.42 2.225 18.42 2.225V18.62zm29.538 0h-19.774s1.235 13.128 1.235 30.11c0 16.98-1.23 30.11-1.23 30.11h19.78V66.824l8.53-9.147 11.74 21.163H200l-26.312-36.86 20.395-23.36h-26.45l-15.08 22.37V18.62z"/>
  <path d="M.958.912h4.854L8.55 9.08 11.277.91h4.98v.758h-1.08c-.27 0-.453.05-.554.146-.1.098-.15.267-.15.505v9.21c0 .23.054.39.163.48.164.13.385.19.663.19h.95v.76h-6.13v-.76h1.15c.21 0 .37-.06.48-.18.11-.12.16-.29.16-.5V1.67L8.09 12.967h-.72L3.558 1.572v8.81c0 .506.16.92.48 1.244.32.323.785.518 1.395.583v.75H.958v-.76c.564-.05 1.004-.25 1.316-.6s.47-.79.47-1.33V2.49c0-.332-.06-.55-.173-.66-.11-.11-.33-.163-.66-.163H.96V.912zM23.91.61c1.137 0 2.185.274 3.144.823s1.705 1.296 2.24 2.244c.535.947.804 2.016.804 3.205 0 1.808-.59 3.315-1.772 4.52s-2.648 1.81-4.398 1.81c-1.162 0-2.204-.274-3.125-.823-.922-.55-1.648-1.29-2.18-2.22s-.8-2.02-.8-3.25c0-1.83.585-3.34 1.753-4.53C20.743 1.2 22.188.61 23.91.61zm.05.783c-.646 0-1.207.178-1.684.534-.475.356-.853.93-1.133 1.723s-.42 1.88-.42 3.258c0 1.45.13 2.548.388 3.294.26.747.64 1.3 1.13 1.658s1.07.538 1.73.538c.98 0 1.75-.417 2.33-1.25.58-.833.87-2.282.87-4.345 0-1.444-.12-2.53-.37-3.253-.25-.725-.62-1.265-1.11-1.62-.49-.36-1.06-.537-1.72-.537zm7.89-.48h10.538l.268 4.58h-.74c-.175-.978-.4-1.74-.678-2.29s-.594-.94-.95-1.17-.745-.347-1.17-.347c-.243 0-.423.05-.536.15-.115.102-.172.247-.172.437v9.325c0 .18.057.326.168.44s.245.17.402.17h1.37v.76h-6.447v-.76h1.304c.195 0 .35-.055.465-.166.114-.11.17-.26.17-.444V2.322c0-.217-.057-.377-.174-.48-.117-.104-.3-.155-.55-.155-1.386 0-2.323 1.27-2.813 3.807h-.718L31.85.912zm12.96 0h6.178v.757H49.87c-.238 0-.412.048-.52.143-.11.095-.163.235-.163.42v9.333c0 .217.057.372.17.464.147.12.36.18.637.18h.994v.758H44.81v-.758h.945c.326 0 .555-.055.688-.163.133-.11.2-.27.2-.48v-9.23c0-.228-.062-.395-.184-.504-.13-.11-.32-.163-.58-.163h-1.07V.912zM59.07.61c1.138 0 2.185.274 3.144.823s1.706 1.296 2.24 2.244c.536.947.805 2.016.805 3.205 0 1.808-.6 3.315-1.78 4.52s-2.65 1.81-4.4 1.81c-1.17 0-2.21-.274-3.13-.823-.92-.55-1.65-1.29-2.18-2.22-.54-.94-.8-2.02-.8-3.25 0-1.83.58-3.34 1.75-4.53C55.9 1.2 57.35.61 59.07.61zm.05.783c-.646 0-1.207.178-1.683.534-.476.356-.853.93-1.133 1.723s-.42 1.88-.42 3.258c0 1.45.13 2.548.388 3.294.258.747.634 1.3 1.13 1.658.493.358 1.07.538 1.727.538.97 0 1.74-.417 2.33-1.25s.87-2.282.87-4.345c0-1.444-.13-2.53-.38-3.253-.25-.725-.62-1.265-1.12-1.62-.5-.36-1.07-.537-1.72-.537zm7.93-.48h3.742l6.528 8.264V3.56c0-.553-.157-.998-.473-1.332-.314-.334-.764-.52-1.345-.558V.912h4.4v.758c-.612.065-1.054.25-1.32.55-.265.3-.398.75-.398 1.34v9.407h-.942l-7.43-9.51v6.586c0 .754.174 1.304.52 1.65.344.344.772.516 1.283.516h.203v.75h-4.865v-.76h.334c.478 0 .88-.19 1.206-.57s.49-.87.49-1.47V2.39c-.365-.48-.83-.72-1.395-.72h-.538V.91zm42.355.912l.563-1.198h.603l.21 4.833h-.75c-.23-1.39-.67-2.423-1.32-3.097-.64-.674-1.38-1.01-2.21-1.01-.91 0-1.67.434-2.26 1.302s-.89 2.24-.89 4.113c0 1.982.33 3.454.988 4.415.53.755 1.307 1.132 2.334 1.132 1.025 0 1.89-.378 2.59-1.133.505-.55.858-1.358 1.06-2.43h.733c-.172 1.376-.696 2.462-1.57 3.26s-1.95 1.2-3.23 1.2c-1.65 0-3.035-.584-4.15-1.748-1.12-1.165-1.677-2.657-1.677-4.476 0-2.02.64-3.633 1.93-4.838 1.1-1.026 2.38-1.54 3.853-1.54.58 0 1.12.09 1.62.273s1.03.496 1.6.942zM119.785.61c1.135 0 2.183.274 3.142.823s1.706 1.296 2.24 2.244c.536.947.804 2.016.804 3.205 0 1.808-.59 3.315-1.77 4.52s-2.64 1.81-4.39 1.81c-1.16 0-2.2-.274-3.12-.823-.92-.55-1.65-1.29-2.18-2.22-.53-.94-.79-2.02-.79-3.25 0-1.83.58-3.34 1.75-4.53 1.17-1.19 2.61-1.78 4.33-1.78zm.05.783c-.647 0-1.21.178-1.685.534-.476.356-.854.93-1.133 1.723-.28.793-.42 1.88-.42 3.258 0 1.45.13 2.548.387 3.294s.635 1.3 1.13 1.658c.494.358 1.07.538 1.728.538.973 0 1.75-.417 2.33-1.25s.873-2.282.873-4.345c0-1.444-.125-2.53-.375-3.253-.25-.725-.622-1.265-1.117-1.62-.494-.36-1.067-.537-1.72-.537zm7.263-.48h3.742l6.528 8.264V3.56c0-.553-.157-.998-.473-1.332-.315-.334-.764-.52-1.345-.558V.912h4.4v.758c-.613.065-1.054.25-1.32.55-.266.3-.398.75-.398 1.34v9.407h-.943l-7.43-9.51v6.586c0 .754.17 1.304.52 1.65.34.344.77.516 1.28.516h.2v.75H127v-.76h.334c.48 0 .88-.19 1.207-.57s.49-.87.49-1.47V2.39c-.36-.48-.83-.72-1.39-.72h-.54V.91zm15.602 0h10.54l.268 4.58h-.742c-.174-.978-.398-1.74-.676-2.29s-.594-.94-.95-1.17c-.355-.23-.745-.347-1.17-.347-.243 0-.423.05-.537.15s-.17.247-.17.437v9.325c0 .18.055.326.166.44s.24.17.4.17h1.37v.76h-6.45v-.76h1.3c.19 0 .35-.055.46-.166.11-.11.17-.26.17-.444V2.322c0-.217-.06-.377-.18-.48-.12-.104-.3-.155-.55-.155-1.39 0-2.33 1.27-2.82 3.807h-.718l.26-4.582zm12.935 0h6.292c1.02 0 1.854.13 2.498.394.644.263 1.124.622 1.438 1.075.314.453.473.957.473 1.51 0 .886-.396 1.603-1.19 2.15-.603.42-1.532.69-2.787.815.63.104 1.11.268 1.45.495.34.226.64.563.9 1.01.34.586.62 1.29.84 2.11.13.527.25.86.36.995s.22.204.35.204c.36 0 .57-.47.64-1.42h.72c-.06 1.01-.28 1.74-.68 2.17-.4.44-.96.66-1.68.66-.52 0-.93-.1-1.24-.32s-.55-.52-.72-.93c-.1-.23-.24-.78-.41-1.64-.2-1.01-.38-1.69-.54-2.03-.16-.35-.37-.6-.63-.77-.26-.17-.57-.25-.95-.25h-.887v4.44c0 .198.057.347.17.45.163.14.354.207.57.207h1.093v.76h-6.105v-.76h.943c.244 0 .43-.064.554-.19.122-.13.185-.31.185-.536V2.4c0-.25-.056-.433-.17-.55-.113-.116-.276-.174-.49-.174h-1.024v-.76zm4.27 5.47h1.02c.9 0 1.612-.233 2.135-.695.392-.353.587-.948.587-1.785 0-.77-.193-1.335-.578-1.69-.39-.357-1.06-.535-2.01-.535-.51 0-.83.056-.96.167s-.2.36-.2.746v3.79zM175.145.61c1.138 0 2.185.274 3.144.823s1.7 1.296 2.24 2.244c.53.947.8 2.016.8 3.205 0 1.808-.59 3.315-1.78 4.52s-2.65 1.81-4.4 1.81c-1.17 0-2.21-.274-3.13-.823-.92-.55-1.65-1.29-2.18-2.22-.54-.94-.8-2.02-.8-3.25 0-1.83.58-3.34 1.75-4.53C171.97 1.2 173.42.6 175.14.6zm.05.783c-.646 0-1.207.178-1.683.534-.476.356-.853.93-1.133 1.723s-.42 1.88-.42 3.258c0 1.45.12 2.548.38 3.294.26.747.63 1.3 1.13 1.658.49.358 1.07.538 1.72.538.97 0 1.75-.417 2.33-1.25s.87-2.282.87-4.345c0-1.444-.13-2.53-.38-3.253-.25-.725-.62-1.265-1.12-1.62-.495-.36-1.07-.537-1.72-.537zm7.655.277V.912h6.187v.758h-1.044c-.3 0-.508.057-.627.17-.12.115-.18.3-.18.555v8.966c0 .37.057.6.172.7.113.1.383.15.807.15h1.736c.65 0 1.25-.3 1.81-.92.56-.61.99-1.59 1.29-2.94h.74l-.27 4.62h-10.61v-.76h1.06c.24 0 .41-.06.53-.18.12-.12.18-.28.18-.5V2.31c0-.223-.06-.384-.18-.485-.12-.1-.33-.15-.63-.15h-.95zM87.328.9c.602-.6 1.277-.9 2.027-.9.85 0 1.525.25 2.027.75.55.55.825 1.227.825 2.027 0 .9-.3 1.65-.9 2.252-.45.45-1.102.87-1.952 1.27 1.352 1.8 2.45 2.95 3.303 3.45.3-.55.45-1.35.45-2.4h1.577c-.05 1.15-.326 2.25-.826 3.3.6.4 1.15.67 1.65.82l-.6 1.5c-.36-.1-1.03-.5-2.03-1.2-.95.9-2.23 1.35-3.83 1.35-1.35 0-2.38-.35-3.08-1.05-.7-.7-1.05-1.5-1.05-2.4 0-1.05.4-1.98 1.2-2.78.35-.35.8-.7 1.35-1.05-.7-1.05-1.05-1.98-1.05-2.78 0-.85.3-1.58.9-2.18zm-.75 8.783c0 .55.2 1.026.6 1.426.45.45 1.076.67 1.877.67 1.15 0 2.052-.3 2.703-.9-1.252-1.1-2.453-2.43-3.604-3.98-.25.15-.5.35-.75.6-.55.55-.826 1.28-.826 2.18zm1.8-7.957c-.298.3-.448.777-.448 1.426 0 .6.25 1.302.75 2.102.6-.3 1.05-.6 1.352-.9.45-.45.676-.95.676-1.502 0-.45-.15-.826-.45-1.126-.25-.25-.577-.375-.977-.375-.35 0-.65.13-.9.38z"/>
</svg>
