<svg xmlns="http://www.w3.org/2000/svg" width="103" height="50" viewBox="0 0 84.604 41.635">
<g>
	<g>
		<polygon fill="#FFF" points="6.828,5.246 1.162,5.246 1.162,24.341 3.995,24.341 3.995,9.338 15.221,24.341 20.047,24.341 
			20.047,5.246 17.319,5.246 17.319,20.802 		"/>
		<path fill="#FFF" d="M31.273,3.147c0,0-8.678,15.188-9.357,16.813c-0.604,1.443-1.168,4.381,2.118,4.381
			c2.694,0,11.226,0,11.226,0l-0.629-2.938l-8.813-0.104l5.351-9.758l6.82,12.8h4.605L31.273,3.147z"/>
		<path fill="#FFF" d="M58.262,5.038c0,0-6.156,0-9.023,0s-7.367,3.287-8.289,7.345c-0.5,2.203-0.396,3.505,0,5.561
			c0.548,2.845,4.125,6.189,7.029,6.189s10.283,0,10.283,0v-2.906c0,0-6.303-0.031-8.66-0.031s-4.793-2.955-4.455-6.61
			c0.351-3.811,2.511-6.504,4.455-6.504s8.66,0.104,8.66,0.104V5.038z"/>
		<polygon fill="#FFF" points="63.588,5.246 60.021,5.246 60.021,24.341 63.588,24.341 63.588,16.473 73.031,16.473 
			73.031,24.341 76.389,24.341 76.389,5.246 73.135,5.246 73.135,13.115 63.588,13.115 		"/>
		<polygon fill="#FFF" points="84.152,5.246 80.166,9.443 80.166,24.341 84.152,24.341 		"/>
		<circle fill="#FFF" cx="81.788" cy="2.623" r="2.622"/>
	</g>
	<g>
		<g>
			<path fill="#FFF" d="M2.44,40.137H1.653v-4.225c-0.263,0.719-0.643,1.367-1.142,1.947L0,36.989c0.813-0.883,1.352-2.043,1.614-3.479H0.315
				v-0.912h1.338v-2.029h0.748c0.209,0.056,0.223,0.139,0.039,0.249v1.78h1.102v0.912H2.44v1.2c0.525,0.359,0.971,0.787,1.338,1.284
				l-0.59,0.787c-0.289-0.497-0.538-0.855-0.748-1.077V40.137z M6.652,32.434h1.811v0.911H6.652v1.284h2.479v0.911H6.731
				c0.472,0.884,1.364,1.739,2.677,2.567l-0.473,0.953c-1.023-0.772-1.785-1.546-2.283-2.319v3.396H5.865v-3.313
				c-0.551,0.993-1.313,1.836-2.283,2.526l-0.433-0.829c1.128-0.828,2.021-1.822,2.677-2.981H3.542v-0.911h2.323v-1.284H4.763
				c-0.157,0.387-0.38,0.76-0.669,1.118l-0.63-0.704c0.473-0.524,0.853-1.312,1.142-2.36l0.787,0.207
				c0.158,0.082,0.131,0.151-0.079,0.207l-0.197,0.621h0.748v-1.864h0.748c0.21,0.028,0.223,0.111,0.04,0.249V32.434z"/>
			<path fill="#FFF" d="M18.028,38.646c0.104,0,0.17-0.083,0.197-0.249l0.079-0.704l0.866,0.414l-0.158,0.994
				c-0.079,0.47-0.315,0.704-0.708,0.704c-0.787,0-1.456-0.566-2.007-1.698c-0.525-1.076-0.801-2.595-0.827-4.556h-4.841v-0.911
				h4.802v-1.905h0.866c0.262,0.056,0.275,0.166,0.04,0.331v1.574h2.755v0.911h-2.755c0.104,1.933,0.367,3.3,0.787,4.101
				C17.463,38.314,17.765,38.646,18.028,38.646z M15.587,38.397c-1.47,0.331-2.952,0.636-4.448,0.911
				c-0.053,0.249-0.145,0.276-0.275,0.083l-0.197-1.035c0.656-0.056,1.299-0.138,1.929-0.249v-2.36h-1.574V34.96h3.897v0.787h-1.535
				v2.236c0.603-0.083,1.299-0.207,2.086-0.373L15.587,38.397z M17.398,30.942c0.367,0.193,0.722,0.456,1.063,0.787l-0.708,0.621
				c-0.263-0.275-0.604-0.538-1.023-0.787L17.398,30.942z"/>
			<path fill="#FFF" d="M28.931,34.753c-0.447-0.11-1.037-0.387-1.771-0.828v0.869h-4.448v-0.828c-0.708,0.525-1.377,0.884-2.007,1.077
				l-0.354-0.994c1.836-0.524,3.201-1.657,4.094-3.396l0.827,0.124c0.209,0.028,0.223,0.111,0.04,0.249
				c0.839,1.325,2.178,2.236,4.015,2.733L28.931,34.753z M27.317,39.144l-5.708,0.662c-0.132,0.138-0.25,0.166-0.354,0.083
				l-0.275-1.035l1.614-0.083l1.102-2.112h-2.834v-0.911h8.069v0.911H24.68l-1.181,2.07l3.228-0.248
				c-0.341-0.331-0.722-0.663-1.142-0.994l0.708-0.497c1.259,0.994,2.125,1.822,2.598,2.485l-0.827,0.538
				C27.855,39.709,27.606,39.419,27.317,39.144z M27.081,33.883c-0.919-0.524-1.667-1.311-2.244-2.36
				c-0.578,0.994-1.247,1.78-2.007,2.36H27.081z"/>
			<path fill="#FFF" d="M32.907,32.475h0.827l0.157-0.165l0.59,0.621l-0.275,0.207c-0.315,0.636-0.748,1.312-1.299,2.029
				c0.656,0.222,1.233,0.512,1.732,0.87l-0.433,0.911c-0.446-0.387-0.879-0.704-1.299-0.953v4.101H32.12v-4.101
				c-0.473,0.442-0.958,0.815-1.457,1.118l-0.354-0.828c1.259-0.718,2.243-1.726,2.952-3.023h-2.598v-0.787h1.457v-1.78h0.748
				c0.21,0.027,0.223,0.11,0.04,0.248V32.475z M37.236,31.273v2.195h1.811v0.911h-1.811v4.308h2.165v0.911h-5.393v-0.911h2.322
				V34.38h-1.692v-0.911h1.692v-2.526h0.866C37.459,30.998,37.473,31.108,37.236,31.273z"/>
		</g>
		<g>
			<path fill="#FFF" d="M44.518,30.096h11.484v1.203h-4.758c-0.109,0.365-0.273,0.748-0.492,1.148v8.859h-1.258v-7
				c-1.24,1.568-2.808,2.771-4.703,3.609l-0.766-1.258c2.697-1.13,4.648-2.916,5.852-5.359h-5.359V30.096z M55.291,37.752
				c-1.203-1.349-2.479-2.424-3.828-3.227l0.766-0.984c1.422,0.729,2.771,1.787,4.047,3.172L55.291,37.752z"/>
			<path fill="#FFF" d="M70.057,38.354v1.203H58.244v-1.203H70.057z M68.689,30.916v1.203h-8.969v-1.203H68.689z"/>
			<path fill="#FFF" d="M84.604,40.268l-0.328,1.039h-5.688c-2.078,0-3.773-0.748-5.086-2.242c-0.037,0.803-0.291,1.658-0.766,2.57l-1.039-0.602
				c0.547-0.911,0.82-2.133,0.82-3.664v-1.914h1.039c0.291,0.037,0.311,0.146,0.055,0.328v2.078c0.256,0.328,0.564,0.656,0.93,0.984
				v-4.156h-2.57V33.65h2.461v-1.805h-2.133v-1.039h2.133v-1.805h1.039c0.291,0.037,0.311,0.146,0.055,0.328v1.477h1.75v1.039h-1.75
				v1.805h1.969v1.039h-1.859v1.75h1.477v1.039h-1.477v2.078c0.803,0.475,1.859,0.711,3.172,0.711H84.604z M78.15,38.736
				c1.203-0.51,2.188-1.221,2.953-2.133c-0.475-1.239-0.748-2.661-0.82-4.266h-1.094v3.555c0.328-0.219,0.619-0.438,0.875-0.656
				l0.438,0.875c-0.656,0.511-1.385,1.003-2.188,1.477c-0.037,0.219-0.127,0.292-0.273,0.219l-0.547-0.984l0.602-0.328v-5.195h2.133
				l-0.109-2.242l1.094,0.055c0.256,0.109,0.236,0.237-0.055,0.383l0.055,1.805h2.898v1.039h-2.844
				c0.109,1.313,0.291,2.389,0.547,3.227c0.365-0.729,0.693-1.622,0.984-2.68l1.094,0.492c0.146,0.183,0.072,0.292-0.219,0.328
				c-0.328,1.167-0.783,2.188-1.367,3.063c0.365,0.875,0.674,1.313,0.93,1.313c0.109,0,0.201-0.419,0.273-1.258l0.984,0.438
				c-0.037,1.459-0.42,2.188-1.148,2.188c-0.547,0-1.131-0.619-1.75-1.859c-0.547,0.766-1.531,1.477-2.953,2.133L78.15,38.736z
				 M82.963,31.189c-0.475-0.474-0.857-0.82-1.148-1.039l0.602-0.711C83,29.805,83.4,30.15,83.619,30.479L82.963,31.189z"/>
		</g>
	</g>
</g>
</svg>
