<svg xmlns="http://www.w3.org/2000/svg" width="238" height="50" viewBox="0 0 242.026 50.728">
  <path fill="#FFF" d="M0 .01h12.02l11.373 24.686L35.346.01h4.103L21.93 39.17 10.14 17.976v21.26H0M41.162.01h6.01v39.16h-9.498V17.977l-9.73 21.195H24.04M50.143.01h7.432v7.174h-7.432zm0 10.415h7.432v28.81h-7.432zM67.633 0l-5.986.01v33.474c0 2.714 1.68 5.687 6.008 5.687h8.078v-4.65s-3.36-.13-5.816-.13c-2.455 0-2.39-1.35-2.39-2 0-.64.028-16.86.028-16.86h7.016v-5.1h-6.92L67.64 0zm40.232.038l-5.988.01v33.474s1.68 5.688 6.01 5.688h8.078v-4.653s-3.36-.13-5.816-.13-2.4-1.357-2.4-2.003.03-16.866.03-16.866h7.01v-5.095h-6.93V.038zm-24.02 10.387h-6.192v22.942c0 3.193 2.58 5.918 5.918 5.918h14.62v-28.86H92.1V34.64h-5.48c-1.274 0-2.796-.83-2.796-2.794s.024-21.42.024-21.42zm45.267-1.03c-2.166 0-11.833-1.22-11.833 15.972s9.16 15.11 11.83 15.11 11.92.946 11.92-15.11-7.56-15.973-11.92-15.973zm.043 25.75c-1.375 0-5.375.045-5.375-9.417 0-10 2.5-10.75 5.375-10.75 4.29 0 5.54 3 5.54 10.39 0 9.722-4.165 9.777-5.54 9.777zm50.625-26.35c-2.168 0-11.834-1.22-11.834 15.973 0 17.194 9.166 15.11 11.834 15.11 2.666 0 11.916.945 11.916-15.11 0-16.056-7.553-15.973-11.916-15.973zm.04 25.75c-1.374 0-5.374.045-5.374-9.416 0-10 2.5-10.75 5.375-10.75 4.3 0 5.55 3 5.55 10.39 0 9.72-4.16 9.77-5.54 9.77zm-32.958-24.12h-6.916l9.916 26.886-5.832 13.42h3.724l16.916-40.3h-4.058l-6.75 16.22m12.334-16.22l-16.834 40.3h3.25l16.668-40.3m35.37 18.13h2.16v6.8c0 .89-.08 1.57-.235 2.05-.21.63-.59 1.13-1.143 1.51-.55.38-1.28.57-2.182.57-1.06 0-1.875-.29-2.447-.89-.57-.59-.86-1.46-.863-2.61l2.043-.23c.025.62.115 1.05.27 1.31.235.39.59.58 1.07.58.483 0 .825-.13 1.024-.41.2-.27.3-.85.3-1.71v-6.94zm5.99 5.33l-1.868-.33c.21-.75.572-1.31 1.084-1.67.514-.36 1.275-.54 2.285-.54.92 0 1.61.11 2.06.33s.77.5.95.83c.19.34.28.95.28 1.84l-.02 2.4c0 .69.04 1.19.1 1.52.07.33.19.68.37 1.05h-2.03c-.05-.13-.12-.34-.19-.6-.03-.12-.06-.2-.07-.24-.35.34-.73.6-1.13.77-.4.17-.83.26-1.28.26-.8 0-1.43-.22-1.89-.65-.46-.432-.69-.98-.69-1.645 0-.44.1-.83.31-1.18.21-.345.507-.61.886-.79.37-.185.92-.345 1.63-.48.96-.18 1.63-.35 2-.507v-.202c0-.4-.1-.68-.295-.85-.194-.167-.56-.25-1.106-.25-.363 0-.65.07-.853.216s-.37.396-.5.757zm2.755 1.67c-.264.09-.682.2-1.254.32-.57.12-.94.24-1.11.36-.27.19-.4.44-.4.73 0 .28.11.53.32.74.22.21.49.32.82.32.37 0 .73-.12 1.07-.37.25-.18.41-.41.49-.68.06-.18.08-.51.08-1v-.41zm3.99-4.04h1.92v1.15c.248-.39.586-.7 1.01-.95.426-.24.896-.36 1.414-.36.9 0 1.67.36 2.3 1.07.63.71.94 1.7.94 2.96 0 1.3-.32 2.31-.95 3.03s-1.41 1.08-2.31 1.08c-.43 0-.82-.09-1.17-.26s-.72-.46-1.1-.88v3.92h-2.06V31.51zm2.037 3.76c0 .88.174 1.52.52 1.94.348.42.77.63 1.268.63.48 0 .877-.19 1.193-.58.318-.38.477-1.01.477-1.88 0-.81-.164-1.42-.49-1.81-.328-.39-.732-.59-1.217-.59-.502 0-.92.19-1.252.58-.33.39-.49.96-.49 1.72zm8.723-1.38l-1.867-.33c.21-.75.57-1.31 1.084-1.67.512-.36 1.273-.54 2.285-.54.918 0 1.602.11 2.05.33s.767.5.948.83c.184.34.275.95.275 1.85l-.02 2.4c0 .68.032 1.19.097 1.51.066.33.19.68.37 1.05h-2.036c-.05-.13-.11-.34-.19-.6l-.07-.24c-.35.34-.73.597-1.13.77-.4.17-.82.255-1.28.255-.8 0-1.43-.215-1.89-.65-.46-.434-.69-.983-.69-1.647 0-.44.11-.83.32-1.175.21-.34.51-.61.89-.79.38-.18.93-.34 1.64-.48.97-.18 1.63-.35 2-.51v-.2c0-.392-.09-.68-.29-.843-.19-.17-.56-.25-1.1-.25-.36 0-.65.07-.85.215s-.37.39-.5.752zm2.754 1.67c-.27.09-.69.2-1.26.32-.57.12-.95.24-1.12.36-.27.19-.41.43-.41.73 0 .29.1.54.32.74.21.21.48.32.82.32.37 0 .72-.12 1.06-.36.24-.18.41-.41.49-.68.05-.18.08-.51.08-1v-.41zm11.12 3.74h-2.06v-3.97c0-.84-.05-1.38-.13-1.63-.09-.24-.23-.43-.43-.57s-.44-.2-.72-.2c-.36 0-.68.1-.96.3s-.48.46-.59.78-.16.92-.16 1.79v3.52h-2.06v-7.78h1.91v1.15c.68-.88 1.53-1.32 2.56-1.32.45 0 .87.08 1.24.247.38.164.66.373.85.63s.33.54.4.86c.074.324.113.786.113 1.39v4.83z"/>
</svg>
