<!DOCTYPE svg PUBLIC "-//W3C//DTD SVG 1.1//EN" "http://www.w3.org/Graphics/SVG/1.1/DTD/svg11.dtd">

<svg xmlns="http://www.w3.org/2000/svg" width="114" height="50" viewBox="0 0 259.11 114.703">

<g>
	<g>
		<path fill="#FFF" d="M23.125,83.375H9.875V25.25c0,0-9.125,2.5-9.875,3V16.625c0,0,37.25-9.875,69-13.25S123.5,0,131.875,0
			c17.249,0,68.749,3.875,80.499,5.375s46.625,10.375,46.625,10.375v11.375c0,0-35.25-10.625-69.25-13.375s-39-2.375-57.749-2.375
			c-18.75,0-36.875,1.25-51.75,2S23.125,21.75,23.125,21.75V83.375z"/>
		<path fill="#FFF" d="M41,39.125H28.375c0,0,0,30.75,0,36.375s5.375,7.875,10,7.875c6.375,0,8.5-2.625,8.5-2.625v2.625H59.25
			v-44.25H46.875c0,0,0,24.5,0,27.875s-0.25,5.75-3.063,5.75s-2.938-3.25-2.938-5.625S41,39.125,41,39.125z"/>
		<path fill="#FFF" d="M83.125,83.25H95.75c0,0,0-30.75,0-36.375S90.374,39,85.75,39c-6.376,0-8.5,2.625-8.5,2.625V39H64.875
			v44.25H77.25c0,0,0-24.5,0-27.875s0.25-5.75,3.063-5.75s2.938,3.25,2.938,5.625S83.125,83.25,83.125,83.25z"/>
		<path fill="#FFF" d="M119.125,39.125v2.563c0,0-2.375-2.688-7.75-2.688C105.999,39,101,42.75,101,47.25s0,26.25,0,29.625
			s2.75,6.5,10.5,6.5s7.625-2,7.625-2v7.375h-16v8.875c0,0,18.75,0,22.875,0c3.5,0,5.875-3.625,5.875-6c0-1.5,0.5-52.625,0.5-52.625
			L119.125,39.125z M119.125,69.875c0,1.75-1.5,2.625-2.438,2.625s-3.063,0.125-3.063-2.5s0-13.375,0-16.125S114.875,50,116.688,50
			s2.438,2.625,2.438,2.625S119.125,68.125,119.125,69.875z"/>
		<path fill="#FFF" d="M168.447,83.375C168.586,68.547,168.874,39,168.874,39l-13.25,0.125v2.563c0,0-2.374-2.688-7.75-2.688
			c-5.375,0-10.375,3.75-10.375,8.25s0,26.25,0,29.625s2.75,6.5,10.5,6.5s7.625-2,7.625-2v2H168.447z M155.624,69.875
			c0,1.75-1.5,2.625-2.438,2.625s-3.063,0.125-3.063-2.5s0-13.375,0-16.125S151.374,50,153.187,50s2.438,2.625,2.438,2.625
			S155.624,68.125,155.624,69.875z"/>
		<rect x="173.624" y="27.75" fill="#FFF" width="12.375" height="55.625"/>
		<path fill="#FFF" d="M214.249,39.125c-3.375,0-6.25,0-6.25,0S203.499,39,200.874,39c-2.624,0-9.25,4.875-9.25,9.5
			s0,24,0,27.125s3.75,7.75,7.625,7.75s14.625,0,17.125,0c2.501,0,6.375-4.125,6.375-7.125s0-22.75,0-28
			S217.624,39.125,214.249,39.125z M210.249,69.25c0,2.25-1.25,3.375-3.063,3.375s-2.688-1.25-2.688-3s0-14.75,0-16.125
			s0.625-3.25,2.688-3.25c1.76,0,3.063,1.125,3.063,2.625S210.249,67,210.249,69.25z"/>
		<path fill="#FFF" d="M241.124,39.125h-13c0,0,0,34.75,0,37.875s4.626,6.25,6.5,6.25c1.875,0,6.375,0.125,8.001,0.125
			c1.624,0,4.749-2.75,4.749-2.75V90.75c-3.625,1.75-35.439,8.344-51,9.875c-15.549,1.529-45.625,3.125-69.874,3.125
			c-24.25,0-61.875-2.875-72.625-4.5s-43.75-8.75-43.75-8.75v12.25c0,0,53.625,10.625,82.5,11.625s88.835-0.352,106.249-3.25
			c19.156-3.189,51.461-8.188,56.75-10.75c4.125-2,3.125-3.5,3.375-7.25s0-54,0-54h-11.875c0,0-0.25,28-0.25,30.5
			s-1.625,3.125-3.125,3.125c-1.499,0-2.625-1.25-2.625-2.75S241.124,39.125,241.124,39.125z"/>
	</g>
	<g>
		<path fill="#FFF" d="M29.268,34.484l0.164-1.398l0.486-5.632l0.235-3.289c0.392,0.005,0.731,0.008,1.021,0.008
			c0.268,0,0.592-0.002,0.973-0.008l0.178,0.658c0.052,0.177,0.116,0.383,0.193,0.62c0.078,0.237,0.212,0.632,0.403,1.187
			l0.952,2.684l1.185,3.599l1.54-3.599l1.756-3.931c0.063-0.141,0.123-0.291,0.183-0.45s0.153-0.415,0.282-0.768
			c0.336,0.005,0.684,0.008,1.045,0.008c0.289,0,0.62-0.002,0.992-0.008l-0.098,3.606l-0.042,2.366
			c-0.005,0.222-0.008,0.443-0.008,0.665l0.008,1.731v0.975c0,0.111,0.005,0.436,0.016,0.975c-0.341-0.01-0.568-0.015-0.682-0.015
			c-0.16,0-0.396,0.005-0.705,0.015l0.046-0.96l0.117-5.443c0.016-0.61,0.023-1.288,0.023-2.034l-0.008-0.62l-3.398,7.96
			l-0.448,1.096c-0.337-0.01-0.571-0.015-0.706-0.015c-0.161,0-0.409,0.005-0.746,0.015l-0.919-2.85l-0.95-2.804l-0.943-2.707
			c-0.041-0.121-0.11-0.337-0.208-0.65l-0.095,0.884l-0.473,6.501c-0.011,0.217-0.02,0.434-0.027,0.65
			c-0.009,0.217-0.018,0.542-0.028,0.975l-0.649-0.015C29.829,34.469,29.607,34.474,29.268,34.484z"/>
		<path fill="#FFF" d="M49.268,33.282c-0.063,0.277-0.125,0.63-0.187,1.059c-0.495,0.121-0.925,0.203-1.29,0.246
			c-0.363,0.043-0.727,0.064-1.088,0.064c-0.646,0-1.225-0.076-1.738-0.227c-0.514-0.151-0.955-0.415-1.321-0.79
			c-0.366-0.375-0.63-0.805-0.79-1.289c-0.16-0.484-0.24-0.996-0.24-1.535c0-0.751,0.147-1.448,0.441-2.09
			c0.295-0.643,0.737-1.147,1.328-1.516c0.592-0.368,1.342-0.552,2.251-0.552c0.47,0,0.919,0.067,1.348,0.2
			c0.429,0.134,0.784,0.336,1.069,0.608c0.283,0.272,0.503,0.609,0.658,1.009c0.154,0.401,0.232,0.838,0.232,1.312
			c0,0.182-0.016,0.358-0.047,0.529h-5.91c-0.021,0.277-0.031,0.489-0.031,0.635c0,0.529,0.113,1.017,0.342,1.462
			c0.227,0.446,0.563,0.784,1.006,1.013c0.444,0.229,0.955,0.344,1.534,0.344C47.501,33.766,48.312,33.605,49.268,33.282z
			 M44.047,29.684h4.616c-0.005-0.317-0.026-0.564-0.062-0.741c-0.037-0.176-0.104-0.359-0.202-0.548S48.168,28.042,48,27.904
			c-0.167-0.139-0.369-0.244-0.604-0.317s-0.489-0.11-0.763-0.11c-0.294,0-0.575,0.041-0.841,0.121s-0.5,0.191-0.705,0.333
			c-0.203,0.141-0.377,0.306-0.519,0.495s-0.248,0.372-0.317,0.548C44.182,29.15,44.113,29.387,44.047,29.684z"/>
		<path fill="#FFF" d="M51.25,34.484l0.085-1.096c0.016-0.231,0.036-0.597,0.062-1.096l0.186-4.604
			c0.006-0.378,0.008-0.665,0.008-0.862c0.242,0.005,0.465,0.007,0.666,0.007c0.218,0,0.432-0.002,0.645-0.007l-0.07,1.406
			c0.176-0.282,0.334-0.507,0.477-0.673c0.143-0.167,0.329-0.32,0.562-0.461s0.497-0.25,0.794-0.329s0.605-0.117,0.926-0.117
			c0.222,0,0.441,0.025,0.658,0.076s0.417,0.121,0.6,0.211c0.184,0.091,0.342,0.194,0.473,0.31c0.132,0.116,0.238,0.242,0.318,0.378
			s0.16,0.333,0.244,0.59c0.314-0.58,0.708-0.985,1.181-1.217c0.472-0.232,1-0.348,1.584-0.348c0.372,0,0.731,0.058,1.081,0.174
			c0.348,0.116,0.625,0.282,0.832,0.499s0.345,0.442,0.414,0.676c0.07,0.234,0.105,0.47,0.105,0.707
			c0,0.242-0.019,0.604-0.055,1.088c-0.035,0.484-0.076,1.221-0.123,2.211c-0.046,0.99-0.071,1.815-0.076,2.476
			c-0.274-0.01-0.489-0.015-0.645-0.015c-0.165,0-0.41,0.005-0.736,0.015c0.057-0.68,0.105-1.421,0.146-2.223l0.102-1.875
			c0.025-0.454,0.038-0.844,0.038-1.172c0-0.293-0.031-0.522-0.093-0.688c-0.063-0.165-0.162-0.313-0.299-0.444
			c-0.137-0.131-0.306-0.231-0.507-0.3c-0.202-0.068-0.431-0.103-0.689-0.103c-0.206,0-0.397,0.023-0.573,0.068
			c-0.165,0.045-0.325,0.114-0.48,0.205c-0.17,0.096-0.322,0.215-0.457,0.356c-0.134,0.136-0.248,0.291-0.34,0.462
			c-0.099,0.177-0.179,0.387-0.24,0.629c-0.078,0.303-0.132,0.675-0.163,1.114c-0.036,0.469-0.063,1.086-0.084,1.852l-0.062,2.117
			c-0.3-0.01-0.525-0.015-0.674-0.015c-0.141,0-0.375,0.005-0.707,0.015c0.053-0.625,0.094-1.268,0.125-1.928l0.092-1.829
			c0.025-0.564,0.039-1.046,0.039-1.444c0-0.257-0.025-0.475-0.078-0.654c-0.051-0.179-0.148-0.342-0.29-0.491
			c-0.142-0.148-0.313-0.262-0.515-0.34c-0.201-0.078-0.424-0.117-0.666-0.117c-0.258,0-0.504,0.044-0.736,0.132
			c-0.232,0.088-0.446,0.218-0.643,0.39s-0.361,0.381-0.496,0.631c-0.134,0.25-0.238,0.577-0.313,0.983
			c-0.075,0.406-0.135,1.112-0.178,2.121c-0.044,1.008-0.065,1.857-0.065,2.547c-0.331-0.01-0.559-0.015-0.683-0.015
			C51.82,34.469,51.586,34.474,51.25,34.484z"/>
		<path fill="#FFF" d="M64.913,34.484l0.069-0.847c0.01-0.151,0.025-0.436,0.047-0.854l0.215-5.125l0.094-3.493
			c0.314,0.005,0.561,0.008,0.736,0.008c0.181,0,0.41-0.002,0.689-0.008c-0.072,0.646-0.137,1.573-0.193,2.782
			c0.543-0.116,0.986-0.194,1.332-0.234c0.347-0.041,0.688-0.061,1.023-0.061c0.65,0,1.223,0.081,1.719,0.242
			c0.496,0.162,0.905,0.429,1.229,0.801c0.322,0.373,0.551,0.784,0.686,1.232c0.134,0.449,0.201,0.925,0.201,1.429
			c0,0.575-0.082,1.13-0.244,1.667c-0.163,0.537-0.408,1.013-0.736,1.429c-0.328,0.416-0.727,0.719-1.196,0.911
			s-0.983,0.288-1.541,0.288c-0.3,0-0.581-0.032-0.845-0.095c-0.263-0.063-0.5-0.15-0.712-0.261s-0.392-0.237-0.538-0.378
			c-0.147-0.141-0.269-0.282-0.364-0.423c-0.095-0.141-0.202-0.335-0.321-0.582l-0.023,1.572c-0.299-0.01-0.512-0.015-0.635-0.015
			C65.516,34.469,65.285,34.474,64.913,34.484z M66.494,27.96c-0.037,0.838-0.063,1.391-0.078,1.658
			c-0.016,0.268-0.023,0.588-0.023,0.961c0,0.792,0.094,1.4,0.279,1.824s0.464,0.745,0.835,0.961s0.791,0.325,1.261,0.325
			c0.541,0,1.008-0.133,1.398-0.4c0.393-0.267,0.696-0.674,0.913-1.221c0.216-0.547,0.325-1.115,0.325-1.705
			c0-0.832-0.227-1.501-0.678-2.011c-0.451-0.509-1.13-0.763-2.037-0.763c-0.314,0-0.641,0.026-0.979,0.078
			C67.374,27.72,66.968,27.817,66.494,27.96z"/>
		<path fill="#FFF" d="M80.699,33.282c-0.063,0.277-0.125,0.63-0.187,1.059c-0.495,0.121-0.925,0.203-1.29,0.246
			c-0.363,0.043-0.727,0.064-1.088,0.064c-0.646,0-1.225-0.076-1.738-0.227c-0.514-0.151-0.955-0.415-1.321-0.79
			c-0.366-0.375-0.63-0.805-0.79-1.289c-0.16-0.484-0.24-0.996-0.24-1.535c0-0.751,0.147-1.448,0.441-2.09
			c0.295-0.643,0.737-1.147,1.328-1.516c0.592-0.368,1.342-0.552,2.251-0.552c0.47,0,0.919,0.067,1.348,0.2
			c0.429,0.134,0.784,0.336,1.069,0.608c0.283,0.272,0.503,0.609,0.658,1.009c0.154,0.401,0.232,0.838,0.232,1.312
			c0,0.182-0.016,0.358-0.047,0.529h-5.91c-0.021,0.277-0.031,0.489-0.031,0.635c0,0.529,0.113,1.017,0.342,1.462
			c0.227,0.446,0.563,0.784,1.006,1.013c0.444,0.229,0.955,0.344,1.534,0.344C78.933,33.766,79.743,33.605,80.699,33.282z
			 M75.479,29.684h4.616c-0.005-0.317-0.026-0.564-0.062-0.741c-0.037-0.176-0.104-0.359-0.202-0.548s-0.231-0.353-0.399-0.491
			c-0.167-0.139-0.369-0.244-0.604-0.317s-0.489-0.11-0.763-0.11c-0.294,0-0.575,0.041-0.841,0.121s-0.5,0.191-0.705,0.333
			c-0.203,0.141-0.377,0.306-0.519,0.495s-0.248,0.372-0.317,0.548C75.613,29.15,75.545,29.387,75.479,29.684z"/>
		<path fill="#FFF" d="M82.674,34.484c0.186-2.908,0.278-5.229,0.278-6.962l-0.008-0.695c0.264,0.005,0.48,0.007,0.651,0.007
			c0.195,0,0.416-0.002,0.658-0.007l-0.062,1.255c0.19-0.313,0.36-0.548,0.507-0.707c0.147-0.159,0.314-0.29,0.5-0.393
			c0.186-0.103,0.396-0.184,0.631-0.242s0.479-0.087,0.732-0.087c0.217,0,0.431,0.025,0.643,0.076
			c0.005,0.333,0.023,0.706,0.055,1.119c-0.32-0.085-0.607-0.128-0.859-0.128c-0.306,0-0.579,0.049-0.822,0.147
			c-0.242,0.098-0.46,0.247-0.654,0.446c-0.193,0.199-0.352,0.438-0.476,0.714c-0.104,0.222-0.183,0.509-0.236,0.862
			c-0.054,0.353-0.097,0.996-0.128,1.928c-0.021,0.68-0.031,1.401-0.031,2.162v0.506c-0.278-0.01-0.504-0.015-0.674-0.015
			C83.225,34.469,82.988,34.474,82.674,34.484z"/>
		<path fill="#FFF" d="M92.379,34.484l0.116-1.739l0.162-3.621l0.108-3.568c0.005-0.207,0.008-0.413,0.008-0.62l-0.008-0.771
			l0.799,0.008l0.751-0.008c-0.093,1.26-0.162,2.576-0.208,3.946c-0.083,2.197-0.143,4.321-0.178,6.373l-0.729-0.015
			C93.107,34.469,92.834,34.474,92.379,34.484z"/>
		<path fill="#FFF" d="M96.12,34.484l0.165-1.398l0.485-5.632l0.235-3.289c0.391,0.005,0.731,0.008,1.02,0.008
			c0.268,0,0.592-0.002,0.974-0.008l0.179,0.658c0.051,0.177,0.115,0.383,0.193,0.62c0.077,0.237,0.211,0.632,0.402,1.187
			l0.952,2.684l1.185,3.599l1.54-3.599l1.757-3.931c0.062-0.141,0.123-0.291,0.182-0.45s0.153-0.415,0.283-0.768
			c0.335,0.005,0.684,0.008,1.045,0.008c0.289,0,0.619-0.002,0.99-0.008l-0.098,3.606l-0.041,2.366
			c-0.005,0.222-0.008,0.443-0.008,0.665l0.008,1.731v0.975c0,0.111,0.006,0.436,0.016,0.975c-0.341-0.01-0.568-0.015-0.682-0.015
			c-0.16,0-0.395,0.005-0.705,0.015l0.047-0.96l0.116-5.443c0.015-0.61,0.022-1.288,0.022-2.034l-0.008-0.62l-3.396,7.96
			l-0.449,1.096c-0.336-0.01-0.572-0.015-0.707-0.015c-0.16,0-0.408,0.005-0.744,0.015l-0.92-2.85l-0.95-2.804l-0.942-2.707
			c-0.041-0.121-0.111-0.337-0.209-0.65l-0.095,0.884l-0.474,6.501c-0.01,0.217-0.02,0.434-0.027,0.65s-0.017,0.542-0.027,0.975
			l-0.648-0.015C96.682,34.469,96.46,34.474,96.12,34.484z"/>
		<path fill="#FFF" d="M118.064,33.162c-0.073,0.365-0.138,0.761-0.194,1.187c-1.018,0.202-1.949,0.303-2.796,0.303
			c-0.754,0-1.482-0.112-2.185-0.336s-1.313-0.571-1.832-1.04s-0.897-1.021-1.134-1.656c-0.238-0.635-0.357-1.315-0.357-2.041
			c0-0.776,0.133-1.524,0.396-2.245s0.662-1.332,1.196-1.833c0.535-0.501,1.18-0.877,1.937-1.126S114.643,24,115.469,24
			c0.889,0,1.773,0.091,2.656,0.272c0.006,0.255,0.034,0.646,0.086,1.172c-0.573-0.171-1.061-0.286-1.464-0.344
			c-0.403-0.058-0.785-0.087-1.146-0.087c-0.614,0-1.203,0.092-1.767,0.276c-0.563,0.184-1.061,0.478-1.494,0.881
			s-0.766,0.898-0.996,1.485c-0.229,0.587-0.344,1.198-0.344,1.833c0,0.589,0.092,1.149,0.275,1.678
			c0.183,0.529,0.464,0.976,0.844,1.342c0.379,0.365,0.83,0.645,1.352,0.839s1.107,0.291,1.758,0.291
			C116.05,33.638,116.994,33.479,118.064,33.162z"/>
		<path fill="#FFF" d="M129.807,28.701c0.893,0.005,1.58,0.008,2.061,0.008c0.511,0,1.086-0.002,1.727-0.008
			c-0.117,1.507-0.201,3.326-0.255,5.458c-1.563,0.328-2.899,0.492-4.009,0.492c-0.82,0-1.606-0.104-2.357-0.31
			c-0.75-0.207-1.384-0.521-1.9-0.945c-0.516-0.423-0.904-0.968-1.164-1.633c-0.262-0.666-0.391-1.369-0.391-2.109
			c0-0.841,0.163-1.634,0.491-2.377c0.327-0.743,0.788-1.367,1.383-1.871c0.594-0.504,1.263-0.864,2.006-1.081
			c0.743-0.217,1.567-0.325,2.471-0.325c0.991,0,2.097,0.128,3.315,0.385c0.01,0.378,0.036,0.786,0.077,1.225
			c-0.723-0.231-1.348-0.392-1.874-0.48c-0.527-0.088-1.012-0.132-1.457-0.132c-0.696,0-1.359,0.102-1.99,0.306
			c-0.63,0.204-1.17,0.517-1.619,0.938s-0.789,0.941-1.021,1.561c-0.232,0.62-0.35,1.26-0.35,1.92c0,0.59,0.095,1.143,0.283,1.66
			s0.474,0.938,0.855,1.266c0.383,0.328,0.849,0.578,1.398,0.752c0.551,0.174,1.148,0.261,1.793,0.261
			c0.352,0,0.77-0.031,1.256-0.094c0.484-0.063,0.975-0.17,1.471-0.321l0.154-3.576h-0.728c-0.485,0-1.043,0.013-1.673,0.038
			C129.791,29.344,129.807,29.009,129.807,28.701z"/>
		<path fill="#FFF" d="M135.445,34.484c0.186-2.908,0.278-5.229,0.278-6.962l-0.008-0.695c0.264,0.005,0.48,0.007,0.65,0.007
			c0.197,0,0.416-0.002,0.659-0.007l-0.062,1.255c0.191-0.313,0.359-0.548,0.508-0.707c0.146-0.159,0.313-0.29,0.499-0.393
			c0.186-0.103,0.396-0.184,0.631-0.242s0.479-0.087,0.731-0.087c0.217,0,0.432,0.025,0.644,0.076
			c0.005,0.333,0.022,0.706,0.054,1.119c-0.32-0.085-0.605-0.128-0.859-0.128c-0.305,0-0.578,0.049-0.82,0.147
			c-0.243,0.098-0.461,0.247-0.654,0.446c-0.193,0.199-0.353,0.438-0.477,0.714c-0.104,0.222-0.182,0.509-0.236,0.862
			c-0.055,0.353-0.097,0.996-0.128,1.928c-0.021,0.68-0.03,1.401-0.03,2.162v0.506c-0.279-0.01-0.504-0.015-0.675-0.015
			C135.995,34.469,135.761,34.474,135.445,34.484z"/>
		<path fill="#FFF" d="M144.918,26.653c0.542,0,1.059,0.076,1.55,0.227c0.49,0.151,0.914,0.391,1.273,0.718
			s0.631,0.741,0.817,1.24s0.278,1.026,0.278,1.58c0,0.6-0.1,1.174-0.298,1.724s-0.478,1.016-0.837,1.398
			c-0.358,0.383-0.797,0.664-1.316,0.843c-0.519,0.179-1.075,0.269-1.669,0.269c-0.553,0-1.074-0.081-1.564-0.242
			c-0.491-0.161-0.915-0.413-1.274-0.756s-0.631-0.762-0.816-1.259c-0.187-0.496-0.279-1.017-0.279-1.561
			c0-0.821,0.17-1.561,0.512-2.219c0.34-0.657,0.841-1.149,1.502-1.474C143.457,26.815,144.164,26.653,144.918,26.653z
			 M144.884,27.613c-0.526,0-1.01,0.128-1.451,0.386c-0.44,0.257-0.767,0.644-0.979,1.16c-0.211,0.517-0.316,1.08-0.316,1.689
			c0,0.534,0.088,1.014,0.263,1.44c0.175,0.426,0.464,0.77,0.866,1.032s0.887,0.393,1.454,0.393c0.387,0,0.753-0.064,1.099-0.193
			s0.646-0.341,0.904-0.639s0.449-0.662,0.572-1.092c0.124-0.431,0.186-0.883,0.186-1.357c0-0.443-0.062-0.859-0.186-1.248
			c-0.123-0.388-0.313-0.699-0.568-0.934c-0.255-0.234-0.543-0.399-0.865-0.495C145.539,27.661,145.214,27.613,144.884,27.613z"/>
		<path fill="#FFF" d="M157.723,34.484c-0.253-0.01-0.47-0.015-0.651-0.015c-0.207,0-0.421,0.005-0.643,0.015l0.038-1.459
			c-0.124,0.227-0.231,0.402-0.321,0.525c-0.091,0.124-0.203,0.245-0.337,0.363c-0.135,0.119-0.272,0.218-0.415,0.299
			c-0.142,0.081-0.309,0.152-0.499,0.215s-0.415,0.116-0.67,0.159c-0.256,0.043-0.528,0.064-0.817,0.064
			c-0.63,0-1.168-0.094-1.615-0.28c-0.446-0.187-0.785-0.451-1.014-0.794c-0.23-0.343-0.346-0.811-0.346-1.406
			c0-0.091,0.006-0.245,0.016-0.461c0.01-0.216,0.025-0.499,0.047-0.847l0.129-2.517l0.023-0.809
			c0.006-0.186,0.008-0.423,0.008-0.71l0.714,0.007c0.146,0,0.367-0.002,0.667-0.007c-0.072,0.882-0.143,1.847-0.207,2.895
			c-0.066,1.048-0.099,1.719-0.099,2.011c0,0.443,0.073,0.797,0.222,1.062c0.146,0.265,0.393,0.469,0.736,0.612
			c0.343,0.144,0.732,0.215,1.166,0.215c0.382,0,0.749-0.065,1.1-0.196c0.301-0.116,0.553-0.272,0.76-0.469
			c0.223-0.217,0.408-0.497,0.559-0.839c0.107-0.252,0.191-0.577,0.248-0.975c0.035-0.287,0.072-0.804,0.108-1.55
			c0.041-0.907,0.069-1.829,0.085-2.767l0.721,0.007c0.154,0,0.372-0.002,0.651-0.007c-0.072,0.907-0.157,2.286-0.255,4.135
			C157.774,31.979,157.738,33.154,157.723,34.484z"/>
		<path fill="#FFF" d="M159.643,37.901c0.104-1.3,0.201-3.069,0.292-5.307c0.092-2.238,0.142-4.067,0.152-5.488
			c0.846-0.176,1.523-0.296,2.032-0.359c0.509-0.063,1.019-0.094,1.529-0.094c0.806,0,1.505,0.125,2.099,0.374
			s1.056,0.688,1.386,1.315c0.331,0.627,0.495,1.337,0.495,2.128c0,0.549-0.077,1.08-0.232,1.591
			c-0.154,0.512-0.391,0.969-0.709,1.372s-0.701,0.707-1.15,0.911c-0.45,0.204-0.951,0.306-1.504,0.306
			c-0.331,0-0.648-0.039-0.953-0.117s-0.57-0.18-0.795-0.306s-0.414-0.267-0.566-0.423s-0.336-0.391-0.554-0.703l-0.095,2.994
			c-0.021,0.489-0.031,0.841-0.031,1.058v0.749c-0.262-0.01-0.49-0.015-0.686-0.015C160.173,37.886,159.936,37.891,159.643,37.901z
			 M161.417,28.006l-0.055,0.575l-0.039,0.786c-0.021,0.413-0.035,0.75-0.047,1.009c-0.01,0.259-0.015,0.442-0.015,0.548
			c0,0.373,0.04,0.726,0.12,1.059c0.08,0.333,0.24,0.636,0.48,0.911c0.24,0.275,0.522,0.483,0.848,0.624
			c0.325,0.141,0.661,0.212,1.007,0.212c0.485,0,0.926-0.131,1.321-0.393c0.395-0.262,0.703-0.653,0.926-1.172
			c0.221-0.519,0.332-1.086,0.332-1.701c0-0.62-0.115-1.154-0.348-1.603c-0.232-0.449-0.545-0.772-0.938-0.972
			c-0.393-0.199-0.837-0.298-1.332-0.298C162.971,27.59,162.217,27.729,161.417,28.006z"/>
	</g>
</g>
</svg>
