<svg xmlns="http://www.w3.org/2000/svg" width="103" height="50" viewBox="0 0 84.604 41.635">
<!--	
<svg xmlns="http://www.w3.org/2000/svg" width="123" height="60" viewBox="0 0 84.604 41.635">
<svg xmlns="http://www.w3.org/2000/svg" width="84.604" height="41.635" viewBox="0 0 84.604 41.635">
-->
  <g fill="#D2273C">
    <path d="M6.828 5.246H1.162V24.34h2.833v-15l11.225 15h4.827V5.247H17.32v15.556M31.273 3.147s-8.678 15.188-9.357 16.813c-.604 1.443-1.168 4.38 2.118 4.38H35.26l-.63-2.937-8.812-.104 5.35-9.76 6.82 12.8h4.606l-11.32-21.2zm26.99 1.89H49.24s-7.368 3.288-8.29 7.346c-.5 2.203-.396 3.505 0 5.56.548 2.846 4.125 6.19 7.03 6.19h10.28v-2.906s-6.303-.03-8.66-.03-4.793-2.956-4.455-6.61c.35-3.812 2.51-6.505 4.455-6.505s8.66.104 8.66.104V5.038zm5.325.21H60.02V24.34h3.568v-7.867h9.443v7.868h3.36V5.25h-3.25v7.87h-9.55m20.57-7.87l-3.99 4.196V24.34h3.99"/>
    <circle cx="81.788" cy="2.623" r="2.622"/>
  </g>
  <path d="M2.44 40.137h-.787v-4.225c-.263.72-.643 1.367-1.142 1.947L0 36.99c.813-.884 1.352-2.044 1.614-3.48h-1.3v-.912h1.34v-2.03H2.4c.21.057.224.14.04.25v1.78h1.102v.912H2.44v1.2c.525.36.97.787 1.338 1.284l-.59.787c-.29-.49-.538-.85-.748-1.07v4.44zm4.212-7.703h1.81v.91h-1.81v1.285h2.48v.91h-2.4c.47.88 1.363 1.74 2.676 2.56l-.473.95c-1.023-.78-1.785-1.55-2.283-2.32v3.39h-.787v-3.31c-.55.99-1.313 1.83-2.283 2.52l-.433-.83c1.12-.83 2.02-1.82 2.67-2.98H3.54v-.91h2.323v-1.28h-1.1c-.158.38-.38.76-.67 1.12l-.63-.71c.473-.53.853-1.32 1.142-2.36l.787.2c.158.09.13.15-.08.21l-.196.62h.748v-1.86h.748c.21.03.223.11.04.25v1.62zm11.376 6.212c.104 0 .17-.083.197-.25l.08-.703.865.414-.158.994c-.08.47-.315.71-.708.71-.787 0-1.456-.56-2.007-1.7-.525-1.07-.8-2.59-.827-4.55h-4.84v-.91h4.8v-1.91h.867c.262.06.275.17.04.33v1.58h2.755v.91h-2.755c.104 1.94.367 3.3.787 4.1.34.66.64 1 .904 1zm-2.44-.25c-1.47.332-2.953.637-4.45.912-.052.25-.144.276-.274.083l-.197-1.03c.656-.05 1.3-.14 1.93-.25v-2.36H11.02v-.78h3.897v.79H13.38V38c.604-.083 1.3-.207 2.087-.373l.117.788zm1.81-7.454c.367.193.722.456 1.063.787l-.7.62c-.26-.28-.6-.54-1.02-.79l.67-.62zm11.532 3.81c-.446-.11-1.036-.386-1.77-.827v.87h-4.448v-.83c-.708.526-1.377.885-2.007 1.078l-.354-.994c1.84-.53 3.21-1.66 4.1-3.4l.83.12c.21.03.23.11.04.25.84 1.32 2.18 2.23 4.02 2.73l-.39.99zm-1.613 4.39l-5.708.664c-.14.138-.25.166-.36.083l-.28-1.04 1.61-.09 1.1-2.11h-2.83v-.92h8.07v.91h-4.25l-1.18 2.07 3.22-.25c-.34-.33-.72-.66-1.14-.99l.71-.5c1.26.99 2.12 1.82 2.59 2.48l-.82.54c-.21-.31-.46-.6-.75-.87zm-.236-5.26c-.91-.523-1.66-1.31-2.24-2.36-.58.995-1.24 1.78-2 2.36h4.25zm5.83-1.407h.83l.16-.165.59.62-.27.208c-.31.636-.75 1.312-1.3 2.03.66.22 1.24.51 1.74.87l-.43.91c-.44-.387-.88-.704-1.3-.953v4.1h-.78v-4.1c-.47.442-.96.815-1.46 1.118l-.35-.828c1.26-.718 2.24-1.726 2.95-3.023h-2.6v-.787h1.46v-1.78h.75c.21.027.226.11.04.248v1.532zm4.33-1.202v2.195h1.81v.91h-1.81v4.31h2.16v.91h-5.39v-.91h2.33V34.38h-1.7v-.91h1.7v-2.527h.87c.27.055.28.165.04.33zm7.28-1.177h11.49V31.3h-4.76c-.11.364-.27.747-.49 1.147v8.86H49.5v-7c-1.24 1.567-2.81 2.77-4.704 3.608l-.763-1.258c2.697-1.13 4.648-2.916 5.85-5.36h-5.36v-1.2zm10.78 7.656c-1.2-1.35-2.47-2.424-3.82-3.227l.77-.984c1.42.73 2.77 1.79 4.05 3.18l-.98 1.04zm14.77.602v1.203H58.25v-1.203h11.81zm-1.37-7.438v1.203h-8.97v-1.21h8.97zm15.92 9.352l-.33 1.04H78.6c-2.077 0-3.77-.75-5.085-2.243-.04.803-.29 1.658-.77 2.57l-1.04-.602c.548-.91.82-2.133.82-3.664v-1.92h1.04c.29.03.31.14.055.32v2.08c.26.33.566.65.93.98v-4.15h-2.57v-1.04h2.463v-1.8H72.3V30.8h2.132V29h1.04c.29.04.31.148.054.33v1.477h1.75v1.04h-1.75v1.804h1.97v1.04h-1.86v1.75h1.477v1.04h-1.477v2.08c.803.48 1.86.71 3.172.71h5.796zm-6.45-1.532c1.2-.51 2.19-1.22 2.95-2.133-.47-1.24-.75-2.66-.82-4.266h-1.1v3.555c.33-.22.62-.438.88-.656l.44.875c-.65.52-1.38 1.01-2.18 1.48-.04.22-.13.29-.274.22l-.54-.98.6-.33v-5.2h2.136l-.11-2.24 1.095.06c.258.11.238.24-.053.39l.06 1.81h2.897v1.04H81.3c.11 1.32.29 2.39.55 3.23.365-.73.693-1.62.984-2.68l1.1.49c.15.19.076.29-.22.33-.323 1.17-.78 2.19-1.36 3.07.363.88.67 1.32.93 1.32.11 0 .2-.42.27-1.256l.986.438c-.036 1.46-.42 2.19-1.147 2.19-.55 0-1.13-.62-1.75-1.86-.55.77-1.53 1.48-2.956 2.137l-.49-.99zm4.81-7.547c-.47-.48-.85-.82-1.15-1.04l.61-.71c.58.36.98.71 1.2 1.04l-.66.71z"/>
</svg>
