<svg xmlns="http://www.w3.org/2000/svg" width="152" height="50" viewBox="0 0 176.926 58.11">
<!--
<svg xmlns="http://www.w3.org/2000/svg" width="182" height="60" viewBox="0 0 176.926 58.11">
<svg xmlns="http://www.w3.org/2000/svg" width="176.926" height="58.11" viewBox="0 0 176.926 58.11">
-->
  <path fill="#1D2088" d="M0 0h176.926v58.11H0z"/>
  <path fill="#FFF" d="M40.723 17.3h-11.86v6.47h5.93v10.804h-5.93v6.236h11.86v-7.97l14.197 7.97h6.94v-5.89h-5.6l-8.99-5.865 8.438-5.05h6.152V17.3h-7.256L40.88 25.98m23.03-8.68v6.548h6.153v10.57H63.91v6.392h18.93v-6.393h-6.072v-10.41h6.072V17.3m1.657 0v12.464h6.546v-5.758h7.178V34.92h-6.385v5.89h18.14v-6.55h-5.915V23.926h7.65v5.52h6.073V17.3m32.1 0h-25.95s-4.022.633-4.022 3.235v17.983s1.314 2.29 3.63 2.29h26.5s2.685-.79 2.685-2.526V20.14s-1.578-2.84-2.84-2.84zm-3.076 15.855c0 1.263-.158 1.42-1.025 1.42h-18.22c-1.577 0-1.657-.237-1.657-1.025v-8.203s.316-1.5 1.814-1.5h17.98c.71 0 1.104.16 1.104 1.185v8.123z"/>
</svg>
