<svg xmlns="http://www.w3.org/2000/svg" width="200" height="200" viewBox="-55 -15 210 210" preserveAspectRatio="xMidYMin slice">
  <path d="M7.877 0c.75.688 6 3.938 6.438 4.375s-.063 2.438 0 3 2.313 1.063 3.313 1.188 3.875 1.063 4.313 1.375 2.375 4.75 2.688 4.875-1.25 6.125-1.813 6.875-.938 4.125-1.688 4.438-2-1.125-2.188-1.563-.688-10.688-.938-10.938-3.5-1.188-3.875-1-1.625.75-1.563 1.25-1 9.5-1.313 11.313S9.564 29 9.564 29.875s-.063 1.938-1.688 1.5-3.375-4.5-3.688-4.813 2.125-9.125 2.375-9.625 1.375-5 1.313-5.25-2.875-1.063-4.313-1.5-1.436-.437-1.436-.437-.125-3.5.5-4 1.687-.062 2.562.25 1.5.5 1.938.125.063-2.813.188-3.563S7.877 0 7.877 0zm27.562 2.188c1.34.398 2.625.125 3.563 2.313s.875 5.813 1.313 6.438 2.625 2.188 3.375 2.75 2.125 1.125 2.063 1.563-1.063.313-1.125.75-.313 1.5-.313 1.875-1.125 1.875-1.125 1.875-2.438-1.25-3.063-1.25-1.188.063-1.25 1.25 0 5.25-.188 6.125-.5 1.75-1.125 1.563-5.938-2.75-6.5-3.25.563-5.19.875-6.19.563-1.711.375-2.262-2.375-1.988-2.875-2.176-1.188-.563-1.25-1.5-.625-2.75-.625-2.75 1.125-.875 2.688-.75 2.313.625 2.438.25-.188-4.375-.25-5.063-.188-1.563.063-1.938 1.35-.096 2.936.377zm19.938 2.875c.45.504 2.5 2.875 3.125 3.75s1.625.625 1.188 1.625-1.313 2-1.75 3.25-1.625 5.375-.813 5.938 3.438.063 4.125 0 2.313.467 2.875.265-.813-2.827-1.188-3.452-1.438-3.063-1.313-3.5 1.5-.188 2 0 2.188.914 3.313 1.613 3.25 1.387 3.438 1.574 2.75 4.375 3.688 5 1.938 2.063 1.938 2.438-1.313 3.938-1.813 4.25-4.313-2.125-4.625-2.563-1.188-1.375-2-1.188-7 2.563-7.5 2.75-9.063.375-9.625.25-3.5-4.813-3.875-5.563 3.875-8.375 4.375-10.063 1.813-3.375 1.938-4.5.677-3.916 2.499-1.874zm25.937 1.312c.475.037.188.375 2.188 1.375S87.189 10 87.189 10s.875-.125.875 1-1.688 1.875-2.563 2.188-3.688-.875-5.188-1.875S75.813 7.875 76 7.5s-.063-1.063.438-1.125 4.064-.062 4.876 0zm-1.75 6.313c.438 0 3.25.625 3.688.813s2.525 1.455 2.563 2.238c.017.35-1.313 2.074-1.313 2.387S83.314 17 81.752 17s-3.25 1.063-3.5.875-.75-.438-.75-.625-1.875-3.586-2.375-4.012-.688-1.551-.313-1.551 4.75 1.001 4.75 1.001z"/>
  <path d="M97.189 3.938c.919 1.174 2.063 7.664 1.25 10.613s-4.25 8.637-4.25 8.887 0 .875-1.813 2-4.938 3.063-6.938 2.875-3.688-2.938-4.875-3.563-3.313-1.375-3.313-1.875 5.063-1.375 6.188-1.938 6-3.148 7.438-5.199 3.546-6.901 4-7.801c.813-1.609 1.188-5.437 2.313-3.999zM75.374 93.211c.269-.154.922 2.036 1.152 2.496.23.461 3.494 6.375 3.687 7.182s3.994 3.726 4.686 3.879c.691.154 4.531 2.957 4.954 3.034s4.032-2.419 5.031-3.226 1.882-1.844 1.997-2.15c.115-.308 1.075-2.843.922-3.342s-3.38-1.152-3.688-1.152-1.997.5-2.496.768c-.499.27-3.072.538-3.495.73s-.269.883-.576.883-1.536-1.498-1.958-2.342c-.422-.846-2.535-4.686-2.919-5.108s-2.382-3.841-3.149-4.84-1.268-.921-1.882-1.075-3.535-.769-4.304-1.191-.384-.614-.614-1.459.038-4.8 0-5.3-1.036-.768-3.264-2.381-2.267-3.341-2.343-3.495 3.148-1.037 3.379-1.344 4.686-1.344 5.339-1.958 1.268-4.993 1.651-7.105 2.382-7.604 3.034-10.216 2.996-6.414 2.573-7.297c-.521-1.087-2.266.192-2.42.23s-5.261 2.151-5.491 2.419-2.727 6.913-2.919 7.527-3.227 10.446-3.419 10.792-2.343 3.034-2.496 3.265-5.914 1.613-6.067 1.421 1.036-1.728 1.229-1.843.538-2.343.576-3.648-1.306-1.882-1.613-1.805-1.767 0-2.073-.461-2.382-1.267-3.359-1.716c-1.049-.481-.489-3.429 1.796-7.021s6.041-8.653 7.511-10.286 7.184-3.918 11.648-7.674 9.821-6.925 9.821-6.925-9.813.721-15.266 3.66c-3.474 1.872-8.429 6.298-11.592 8.979-2.31 1.958-5.631 8.233-6.591 9.692s-2.496 6.644-2.535 7.105-.922.5-2.112.307-.998-1.037-1.229-1.574-1.921-3.956-2.997-5.339-4.877-5.185-5.876-6.029-6.299-5.147-7.682-5.876-10.217-4.878-11.83-5.723-7.796-3.457-8.41-3.687-.999 2.151-.922 2.535 2.381 1.344 2.611 1.613 5.263 2.65 6.146 3.188 7.527 4.263 7.719 4.532 7.956 5.875 9.602 7.758c1.692 1.937 4.878 5.647 5.992 7.183s2.188 3.188 1.612 4.877-2.342 2.765-2.918 2.919-1.806-.461-2.074-.768-2.881.307-3.188.46-.537.5-.23.845.538 1.959.269 2.535.154 1.229.385 1.536.461 1.152-.346 1.805-2.854 1.314-3.918.922c-.729-.269-.575-2.112-.614-2.727s-2.305-4.686-2.305-5.531-4.34-8.986-4.647-9.755-5.799-9.947-6.298-10.177-2.306.884-2.689 1.229-3.533 1.651-3.533 1.997 2.15 2.65 3.495 3.994 3.072 3.802 3.687 4.993c.498.966 2.344 4.416 3.765 6.836s2.496 6.874 2.496 7.297.269.307.998.96 2.267 2.958 2.689 3.534 1.843.154 1.996.422.308 1.421.077 1.805-2.228.346-2.88.538-2.688 1.152-2.843 1.344-.499 2.42-.346 3.418.039 4.339-.153 4.685-2.842-.038-2.996.461-2.227 6.145-3.571 8.833c-1.195 2.39-7.989 9.141-8.143 9.371s-2.381.27-3.303.346-5.031.23-5.3.23 2.765 2.766 3.226 3.149 5.033 3.341 5.647 3.418 3.149-.69 3.648-.769c.499-.076 2.267-2.381 2.573-2.918s5.646-8.871 6.567-10.178c.922-1.305 1.536-2.457 2.112-2.457s1.574 1.344 1.574 1.535c0 .192.039 2.035-.038 2.92-.077.883.23 6.221.23 6.221-.807-.154-1.92.96-2.804 1.498-.884.537-2.035 4.225-2.535 4.992-.5.77-2.073 5.453-2.112 5.838s-.806 5.262-1.151 5.723-2.497 6.76-2.804 6.875-2.804-.653-3.533-.846c-.729-.191-4.187.461-5.146.653s-1.421 1.498-1.229 2.151c.192.652-.461 5.223 0 5.184s2.189-.23 3.149-.96c.701-.533.884-1.574 4.109-2.112 1.14-.189 2.919.346 3.688.691s2.15 1.421 2.343 1.421 2.957-7.144 3.571-8.756 2.996-7.22 3.534-8.142 2.843-4.84 3.073-4.801.998 2.228 1.19 3.188 1.19 2.842 1.882 3.418 3.418 2.15 4.992 2.65c1.574.498 5.915 2.496 7.336 2.727s7.45 2.88 8.104 2.918c.653.039 1.92-1.074 2.649-1.459s10.063-5.646 10.945-6.184c.883-.537 8.834-5.646 9.449-6.299.615-.652.652-5.031 1.037-5.185s3.11 3.226 3.303 3.571 1.575 4.148 1.921 5.186 3.419 12.98 3.419 13.365c0 .383 1.498.729 1.767.845s3.571 1.612 4.07 1.997 2.036-.039 2.497-.308 4.531-3.034 4.531-3.38-.807-1.844-.922-2.227c-.115-.385-1.421-.653-1.997-.653s-3.303-1.036-3.879-1.229-2.804-5.646-3.072-6.413c-.269-.769-2.573-5.801-3.456-7.721-.883-1.921-1.806-6.76-2.074-7.259s-1.613-.923-2.688-1.269-2.727-.807-3.226-.998c-.499-.192-.538-3.303-.538-4.071s-.422-6.913-.346-9.256.502-1.954.771-2.108zM46.267 68.535c.191-.869 1.725-2.209 3.064-2.146 1.02.049 2.745 1.659 3.191 2.298s.894 1.851.574 1.851-3.063.319-3.511 0-2.554-.574-2.809-1.021-.701-.113-.509-.982zm-3.575 7.302c.511-.639 1.723-1.851 2.233-2.106s4.787-.255 4.787-.255c.575-.128 5.299-.255 5.49 0s3.319 4.212 3.639 4.532 2.362 2.618 2.106 3-9.385.191-11.235.319-5.809.191-6.574.447-5.171.128-5.106-.383 4.15-4.915 4.66-5.554zM45.82 93.75c.191.598.383 4.109.383 4.109s-2.617-4.279-3-5.14-2.107-4.052-2.873-4.308 2.171.127 2.554.063.639-.638.639-.638c.957.127 2.106-.638 2.298 0s-.192 5.316-.001 5.914zm2.298 34.237c-.256.255-7.276-2.937-8.234-3.128s-8.361-4.341-8.106-4.915-.958-9.575-.767-11.809.766-5.106.702-7.021 0-7.47-.063-8.395-.51-5.97-.063-5.969 4.021.444 4.404.829 2.872 5.683 2.872 5.683c.256.958 3.447 6 4.021 7.084.574 1.086 2.873 4.66 2.937 5.043s.319 6.895.383 9.32c.063 2.425 1.212 6.766 1.34 7.531s.83 5.492.574 5.747zm2.681-31.086c-.639.191-1.383-4.724-1.298-5.809s-.481-2.872-.007-3.383.922-.894 2.326-.255c1.158.526 1.404.127 1.404.638s-.383 3.639-.702 4.915-1.084 3.703-1.723 3.894zm17.745 9.128c-.447 1.404-.046 8.01-2.234 10.596-2.483 2.937-4.979 4.341-7.724 6-2.744 1.66-5.553 3.128-5.744 2.682-.191-.447-1.213-7.915-1.213-8.682 0-.766-.512-7.213-.256-7.276s3.959-10.851 4.086-11.617 1.787-5.107 1.787-5.49 1.148-4.085 1.468-4.085 3.129-.511 4.149-.447c.513.032 4.341-.702 4.596-.638s.83 4.276 1.085 5.936.447 11.617 0 13.021z"/>
  <path d="M60.65 100.684c.069-.242.829-1.762 1.451-1.728s3.491.794 3.905.863-.38 2.073-.829 2.696c-.449.621.172 1.416-.484 1.416s-4.734-.483-4.665-.967c.07-.484.622-2.28.622-2.28zm1.038 6.773c.339-.021 1.832 0 1.97.587s-.138 2.385 0 3.179c.138.795-1.037.035-1.763 0-.726-.034-2.211-.242-2.35-1.037-.139-.794.205-2.142.482-2.279.278-.139 1.043-.413 1.661-.45zm.241 5.805c.677.267 2.039.588 2.108 1.348s.91 1.693-.962 2.522-2.635 1.763-3.048 1.21-.482-3.353-.31-3.768c.174-.414 1.635-1.54 2.212-1.312zm-5.908 2.607c.799.01 2.211.503 2.211 1.746 0 1.244-.518 2.143-1.105 2.178-.588.034-2.42-1.59-2.212-2.281s.741-1.647 1.106-1.643zm-11.957 4.787c.088.064 1.59 1.59 1.763 1.9s-.622 1.244-1.763 1.037c-1.141-.208-1.763-1.383-1.521-1.729s1.335-1.344 1.521-1.208zm-6.289-3.939c.166-.05 1.417 2.039 1.59 2.35s-.761 1.426-1.141 1.577-.967.565-1.382.601c-.415.033-1.658-2.696-1.451-3.076s2.039-1.349 2.384-1.452zm-.622-6.67c.242.208 1.764 1.346 1.832 1.537s-.312 1.539-.415 1.815-.761 1.382-.968 1.382-2.016-.104-2.234-.275c-.219-.174-.219-1.063-.219-1.274s-.727-1.181-.761-1.388 1.004-2.51 1.625-2.326c.622.184 1.14.529 1.14.529zm-1.347-7.359c.139.034 1.278.622 1.244.898s-.546.691-.359.863c.187.174.773.312.912.727.139.414-1.728 1.555-2.004 1.831s-1.21 1.243-1.521 1.14-.207-1.52 0-2.176c.207-.657-.082-.83-.196-1.452s.68-1.071.196-1.485c-.483-.415.692-.761 1.037-.588s.691.242.691.242zm13.176 63.89c-.543-.74-4.984-6.317-5.182-6.366s.346-2.122.247-2.419.74-5.971.542-6.811-.986-4.786-.986-4.786-.987.592-2.319.789-1.876 0-1.876 0c.246.099-2.221 3.997-3.158 4.984s-5.577 6.021-5.676 6.416-1.727 1.135-1.727.789-.938-2.023-.938-2.023-2.615-3.108-2.911-3.355-1.579-1.678-2.961-1.974-2.32-.494-4.837.789-2.961 2.912-2.961 3.109-1.579 5.33-2.023 5.873-3.109 7.008-3.158 7.354.69.74.938.74-.05 1.085.493 2.072 1.283 3.603 1.579 3.85 2.912 1.776 3.554 1.826 3.109 1.48 3.454 1.728.494.789.642 1.382 1.333 3.553 1.925 3.701 2.419 1.826 4.343 2.023 3.604 0 3.801-.247.395.296.592.493 4.54 1.432 5.182 1.333 1.728-.987 2.122-1.382 3.505-3.701 3.702-3.948 2.665-.05 3.454-.247 2.023-.444 2.468-.69 1.875-2.073 2.072-2.715 2.764-6.662 2.715-7.008-2.569-4.54-3.112-5.28zm-6.909 7.402c-1.382 1.777-2.469.839-3.011 1.086s-1.528-.05-1.825.74-.297 1.925-.938 2.566-1.875.741-1.875.987-.986 1.035-2.072.443-1.234-.889-1.777-.839-.938-.641-1.036-.246-1.086 2.122-1.185 2.615-.247 1.529-.543 1.678-1.333-.985-1.826-1.085-.889.196-.938-.297-.444-4.836 0-6.316.592-2.073.197-2.172-1.234-1.185-2.764-1.283-1.826.69-2.122 1.283-.296.79-.839.79-1.777.543-1.925.839-.443.642-.443.642-1.382-1.825-1.53-3.701.691-3.406 1.629-4.097 1.432-1.186 2.122-.987c0 0-.051-.938-.297-1.382s-2.369-2.073-2.418-2.319 1.629-2.369 1.925-2.665 1.48-1.233 2.122-1.135.789-.063 1.135-.5 2.962.845 3.061 1.092 1.629.495 1.925.938.345.592.246 1.332-.542 1.355-.147 1.678c.275.225 1.578 1.432 1.628 1.185s1.825-1.284 2.319-1.629c.458-.319 3.63-3.482 4.087-4.372.037-.199.06-.288.06-.168 0 .039-.023.099-.06.168-.127.685-.432 2.748-.66 2.914.249-.093 1.576-.457 1.41-.01-.197.53-3.159 3.739-3.554 4.43s-1.332 1.431-1.135 1.628 1.876.494 2.172.494 2.517-2.369 3.06-2.566 1.777-.592 1.826.197-.246 4.688-.296 4.935 1.727-1.579 2.072-2.072 2.023-2.813 2.023-2.813 1.085 3.504 1.233 3.85.346 2.367-1.036 4.144zm61.398 2.171c-.346-.05-.839-2.271-1.579-3.504s-3.307-3.652-3.85-4.343-.642-3.455-.642-4.146-.938-.74-.938-.74.247-1.679.247-2.073-1.728-2.221-3.109-3.898-3.751-1.283-5.182-1.185-3.307 2.221-4.837 2.764-3.898 3.158-4.984 2.862-3.85-2.418-5.231-3.504-4.293-4.343-4.293-4.343c-.492-.099-.791 2.271-.742 3.109s-.197 2.023-.74 3.997.79 5.873.346 5.877-1.48.885-1.579 1.082-.592 1.185-2.912 2.615-2.221 4.097-2.171 4.393.988 2.47 1.087 4.938 1.382 3.158 1.925 3.652 4.49 2.468 5.132 2.468 3.603.986 3.801 1.682.938 1.082 1.431 1.003 2.172-.81 2.764-1.003.938.391 1.728.588 2.862.494 3.553.396 2.369-1.333 3.924-1.728 3.331 1.086 3.775 1.382 3.109.049 3.898-.638 3.504-3.856 3.899-4.498 1.776.148 2.764-.246 3.208-2.962 3.208-4.837-.348-2.072-.693-2.122zm-6.663 0c-.642.691-2.419-.396-2.616-.346s-1.085 1.579-1.529 2.862-.74 3.998-1.382 4.195-1.481.643-1.876.247-1.628-1.629-1.628-1.629-.198.247-.494.099-.494-3.701-.444-3.8-1.332.543-1.678.543-.593 0-.987-.148-1.283.986-1.678 1.233-.789.395-.69 1.086.346 2.517 0 3.307-.988 1.432-1.234.889-.938-3.405-1.579-4.146-.986-1.875-1.036-2.221-.739-.05-1.036-.05-2.271-.049-1.185-.296 1.727-.79 1.529-.889-1.777.001-2.023.396-.542 1.529-.986 2.072-1.975 3.061-2.073 3.751-3.06-.642-3.701-1.283-2.271-1.037-2.023-1.728.296-3.603.839-3.701 1.729-1.678 1.975-2.023 3.011-1.243 3.504-1.584-.444-3.153-.642-3.845-.297-3.109-.297-3.109c.691.74 4.608 3.506 5.034 3.85.489.395 3.405 2.369 3.405 2.369s-1.776-3.505-2.023-4.097-.298-1.382-.864-2.122-1.604-1.974-1.604-1.974 3.85.986 4.491 1.431 3.059 1.234 3.257 1.333 1.728.156 2.073.201-1.284-.991-1.53-1.484-1.875-1.333-1.875-1.975 1.283-.887 1.826-1.184 2.122-1.431 2.862-1.283 2.467 1.331 3.06 1.727 1.332 1.875 1.48 2.023-1.234 1.431-1.826 2.665-.84 3.258-.642 3.455 3.604 1.579 3.998 1.776 2.962.642 3.208.987 1.281 1.729.64 2.42z"/>
</svg>
