<?xml version="1.0" encoding="utf-8"?>
<svg version="1.1" id="レイヤー_1" xmlns="http://www.w3.org/2000/svg" xmlns:xlink="http://www.w3.org/1999/xlink" x="0px"
	 y="0px" width="200" height="200" viewBox="0 -40 177 200" enable-background="new 0 0 177.343 157.13"
	 xml:space="preserve">
<g>
	<path d="M165.626,57.7c-4.245-2.816-18.831-6.23-21.341-6.021c-2.512,0.21-19.25,2.72-23.853,3.557S105.997,57.7,105.997,57.7
		s0.837-1.836,1.883-3.51c1.047-1.674,5.021,1.464,6.277,0.627c1.255-0.837,6.276-5.858,6.276-7.741s-11.716-1.255-13.181-0.418
		s-15.692,0.209-16.32,1.046s0.628,2.72,0.628,2.72s6.276,1.256,8.159,2.93s-1.045,3.138-1.674,3.975
		c-0.627,0.837-12.344,0-12.344,0s-9.625-4.185-15.692-3.766s-10.88,1.255-10.88,0s3.975-6.092,3.975-6.092
		s-8.16-0.604-11.298-0.186s-8.16,0-8.16,0l4.812-6.485c0,0-4.394-2.93-6.276-3.767s-4.185-4.812-4.185-4.812s-1.883-0.419-3.976,0
		s-6.695,0-6.695,0l12.554,10.461c0,0-5.021,8.787-8.788,8.997s-3.766-3.558-3.766-3.558l-7.532,0.21l7.323,8.159l5.858,2.093
		l5.44-5.858c0,0,12.344,0.209,13.39,0s-2.72,4.185-2.72,4.185l-9.625,9.691l4.185,2.653l-4.394,7.741c0,0,0.837-1.465-10.88-1.884
		s-33.686,17.994-27.2,32.012s12.972,19.877,31.593,19.562s25.107-12.238,25.107-25.001S46.995,79.36,46.995,79.36l1.255-5.503
		l19.876,19.667c0,0-0.837,2.511-1.464,4.185s-0.837,7.323-0.837,7.323l-3.976-3.139l-3.138,1.883l6.695,10.88l4.185-1.674
		l-1.046-2.72l2.511-0.209c0,0,2.092,4.394,8.788,2.929s8.788-6.276,8.788-6.276l3.348-0.209c0,0,5.439,25.316,38.707,19.249
		c11.283-2.058,23.643-20.505,16.947-33.896s-18.621-16.319-27.2-16.319s-16.737,6.695-17.575,6.904
		c-0.836,0.209-6.904-5.858-6.904-5.858l4.604-5.021c0,0,3.766-0.628,4.603,0.209s4.185,3.139,4.185,3.139l4.394-2.302
		c0,0,25.735-0.627,35.569-1.464c9.833-0.837,22.596,0,22.596,0S172.95,62.56,165.626,57.7z M42.392,84.318
		c0,0,2.72,0.627,2.72,2.511s-5.858,4.521-5.858,4.521l-1.674-0.778L42.392,84.318z M35.854,97.723l-4.551,1.16l4.551-5.089
		C38.522,94.481,35.854,97.723,35.854,97.723z M35.069,104.637l-4.603-2.406h5.324C39.021,104.031,35.069,104.637,35.069,104.637z
		 M31.303,81.343c1.674-1.093,3.975-1.209,4.487,0s-2.186,7.997-2.186,7.997l-3.138-1.264L31.303,81.343z M28.978,91.351l1.488,5.72
		l-3.976-3.276C25.444,89.865,28.978,91.351,28.978,91.351z M25.235,81.343c1.255,0.553,1.255,6.491,1.255,6.491l-5.231,3.517
		l-5.23-5.363C16.029,85.987,20.436,79.229,25.235,81.343z M13.833,91.351l5.962,3.197l-1.674,4.335c0,0-6.473,0.53-7.323-1.16
		C8.479,93.11,13.833,91.351,13.833,91.351z M10.38,112.462c-4.603-3.659-1.464-7.825-1.464-7.825l9.624-2.108l1.255,4.806
		C19.795,107.334,14.983,116.121,10.38,112.462z M26.49,123.025c-8.777,1.602-10.461-4.189-10.461-4.189s4.394-7.317,5.231-6.271
		s5.23,0,5.23,0V123.025z M24.189,108.568l2.301-5.21l1.046,5.21C25.235,110.203,24.189,108.568,24.189,108.568z M22.724,104.637
		c-3.32,0.269-1.465-3.533-1.465-3.533l6.277-1.418L22.724,104.637z M22.097,97.723c-0.837-1.66,2.043-3.175,2.043-3.175
		l3.397,3.175H22.097z M33.16,107.334c-0.82,3.267-2.694,2.155-2.694,2.155l-1.488-6.056L33.16,107.334z M30.466,123.025
		c0,0-3.348-8.996,0-9.255s7.114-4.009,7.114-4.009l5.021,6.568C41.974,119.887,30.466,123.025,30.466,123.025z M45.846,112.564
		c0,0-5.64-3.813-6.536-4.376c-0.019-0.008-0.038-0.004-0.057-0.018c-0.107-0.081-0.075-0.065,0.057,0.018
		c0.836,0.358,2.036-4.83,2.036-4.83l8.16,1.278C50.97,108.217,45.846,112.564,45.846,112.564z M49.087,93.794
		c4.185,1.733,1.883,5.089,1.883,5.089s-10.461,1.128-9.624,0.71s-1.255-2.989-1.255-2.989L49.087,93.794z M85.977,71.556h6.838
		v0.837h2.23l-4.534,4.604l-4.534-2.721V71.556z M84.028,63.396c0,0-2.302,4.527-5.44,3.205s-2.511-4.311-2.511-4.311l5.858-0.987
		L84.028,63.396z M47.622,66.602c0,0,3.782-7.728,12.763-8.437c5.277-0.417,18.203,0,18.203,0s-6.904,2.094-6.904,3.558
		s0.837,4.879,0.837,4.879H59.339l-3.557-4.59l-2.929,2.64l1.674,1.95H47.622z M73.646,108.171c0,0-4.682-3.673-2.38-7.067
		l4.761,1.836L73.646,108.171z M77.215,98.883l-2.812-2.22c0,0,1.046-1.882,2.511-2.092s3.113,1.046,3.113,1.046L77.215,98.883z
		 M78.588,108.171c-1.046-1.884,1.439-4.813,1.439-4.813l5.95,1.278C85.977,104.637,79.634,110.055,78.588,108.171z M81.517,100.639
		l2.511-3.976c0,0,1.806,2.93,1.949,3.976S81.517,100.639,81.517,100.639z M82.354,90.387c0,0-1.255-0.418-5.649,0s-5.021,0-5.021,0
		L54.945,72.602l18.831-1.046l13.809,9.415L82.354,90.387z M97.418,107.136c1.883-1.895,11.089-2.499,11.089-2.499l-9.206,4.998
		C99.301,109.635,95.536,109.03,97.418,107.136z M107.932,118.836c-2.877,1.041-4.969-4.189-4.969-4.189l7.611-6.078l2.326,1.694
		C112.901,110.263,110.809,117.795,107.932,118.836z M112.015,106.424l4.68-3.065l-2.796,5.21
		C111.758,109.594,112.015,106.424,112.015,106.424z M112.064,120.725c0.837-2.302,4.185-6.078,4.185-6.078s2.93,1.245,3.766,0
		l1.36,8.379C121.375,123.025,111.227,123.026,112.064,120.725z M127.174,97.723l-5.8,1.87l3.403-5.045
		C127.241,95.989,127.174,97.723,127.174,97.723z M126.5,103.358l-3.975-2.255h4.648C128.267,102.405,126.5,103.358,126.5,103.358z
		 M118.543,99.413l-1.849-4.865c0,0,2.901-1.697,4.68,0L118.543,99.413z M120.643,108.568c-1.452,1.952-3.139,0.921-3.139,0.921
		l1.53-4.853L120.643,108.568z M122.526,108.568l-1.151-5.21l3.653,3.976C123.555,111.31,122.526,108.568,122.526,108.568z
		 M129.565,120.725c0,0-4.738-4.604-3.064-6.068s4.395-6.088,4.395-6.088l6.008,2.74
		C136.426,118.422,129.565,120.725,129.565,120.725z M139.536,107.334c0,0-8.223-1.465-7.582-1.37s0-4.86,0-4.86l7.582-3.381
		C144.829,102.758,139.536,107.334,139.536,107.334z M131.954,85.987c6.707-0.057,7.582,5.364,7.582,5.364l-7.582,5.363
		l-4.779-3.608L131.954,85.987z M126.5,82.645c0,0-3.139,8.788-3.348,7.928s-4.609-1.022-4.609-1.022l-2.295-6.905
		C126.5,79.715,126.5,82.645,126.5,82.645z M109.344,101.104c0,0-1.352-3.367,1.207-3.381l5.697,3.381H109.344z M110.551,84.318
		c0,0,3.814,6.068,3.3,6.254s-1.996,1.383-1.996,1.383l-4.603-5.753C108.716,83.482,110.551,84.318,110.551,84.318z M101.184,90.572
		l7.323,3.976c0,0-1.883,0.963-1.883,2.167s-9.206,0.994-9.206,0.994S98.883,90.968,101.184,90.572z M97.418,87.248
		c0,0-0.562,3.347-2.373,6.276s-2.857,6.068-2.857,6.068H89.51c0,0-1.089-4.813-1.926-5.649s5.649-9.625,5.649-9.625L97.418,87.248z
		 M87.584,66.844c0,0-0.495-2.101-1.607-4.553l14.789-0.987l3.348,5.54H87.584z M110.495,66.844l-3.242-5.54
		c0,0,5.648-1.883,6.485,0S110.495,66.844,110.495,66.844z M123.991,66.844c-1.047,0.946-5.649,2.963-5.44-0.242
		s1.046-5.926,5.44-5.298C125.045,61.455,125.037,65.897,123.991,66.844z M127.547,66.602c-0.838-4.67,0-8.622,0-8.622
		c2.092-0.023,4.604-0.022,4.394,1.232s0.024,5.431,0.013,7.632C131.941,69.045,128.383,71.271,127.547,66.602z M134.034,68.345
		c0,0,2.719-8.469,1.464-10.37c0,0,4.185-3.156,8.369-1.064s-4.185,3.557-4.185,3.557l1.883,7.878H134.034z M149.307,66.844
		c-1.465,1.992-7.441-2.387-5.859-5.54c0.339-0.675,2.621-2.777,5.859-0.091C151.817,63.296,150.772,64.852,149.307,66.844z
		 M163.116,67.345l-1.047-4.734l-2.51-0.341c0,0-1.674,5.886-2.302,5.075s-4.394-0.501-4.394-0.501s1.465-6.33,1.046-8.864
		c0,0,2.093-0.773,7.114,1.903c5.021,2.677,6.067,6.961,6.067,6.961L163.116,67.345z"/>
	<g>
		<path d="M18.54,0h-3.975L8.706,6.277L4.313,0L0.965,1.047l1.674,24.479h3.138l0.418-10.671l3.696,1.883l3.836-3.975l1.674,12.763
			h3.138c0,0,0.628-6.068,0-7.742S18.54,0,18.54,0z"/>
		<path d="M21.887,9.834c-1.046,9.206,3.139,15.692,3.139,15.692c3.976,2.093,6.904-2.093,8.578-7.114S32.349,2.93,30.047,1.047
			S22.934,0.628,21.887,9.834z M30.256,15.901c-1.255,3.557,0.535,5.23-2.348,5.23s-3.848-14.399,0-15.9
			C28.146,5.139,31.512,12.345,30.256,15.901z"/>
		<path d="M44.902,1.884c0,0-0.209,20.504-3.138,19.248S40.299,1.884,40.299,1.884h-3.557c0,0,0.209,10.461,1.046,17.574
			s6.068,8.997,10.043,3.348s0-20.922,0-20.922H44.902z"/>
		<path d="M67.708,3.348l-5.021,0.21c0,0,1.116,14.904,0,14.854C59.969,18.291,56.41,3.139,56.41,3.139s-3.972-1.981-3.557-1.255
			c0.837,1.465,0,24.232,0,24.232h3.975l-0.209-4.984c2.302,0.418,5.649,5.858,5.649,5.858s5.858,0.419,5.44,0
			S67.708,3.348,67.708,3.348z"/>
		<path d="M84.028,3.999c0,0-4.394-0.232-6.277-0.023S70.01,2.93,70.01,2.93v5.23l3.975-0.628l0.418,21.969h2.616V8.788l7.009-1.047
			V3.999z"/>
		<path d="M91.141,4.185c0,0-1.046,6.067-1.631,8.579s-7.575,16.737-7.575,16.737h4.042l3.533-6.904h5.816l1.255,6.904h3.767
			L95.117,5.23L91.141,4.185z M91.141,18.412l1.674-5.648l1.256,5.648H91.141z"/>
		<path d="M104.114,4.185h-2.93c0,0,0.628,7.114,1.256,8.997s0,17.366,0,17.366h3.975c0,0-0.836-6.486-1.045-7.114
			S104.114,4.185,104.114,4.185z"/>
		<polygon points="117.504,16.843 110.181,5.23 107.461,5.23 109.135,30.548 112.064,30.548 112.274,20.086 119.387,29.501 
			122.735,28.455 122.735,6.068 117.504,4.185 		"/>
		<path d="M140.1,19.877c0,0,4.186-7.741,1.465-10.88S129.639,5.23,129.639,5.23l1.047,25.317c0,0,13.6,3.557,13.6-3.371
			C144.286,23.597,140.1,19.877,140.1,19.877z M140.938,13.182c0.568,3.477-5.23,3.033-5.23,3.033l-1.047-6.172
			C134.661,10.043,140.37,9.705,140.938,13.182z M135.708,27.177v-4.998c0,0,3.926-2.301,4.393,3.348
			C140.569,31.175,135.708,27.177,135.708,27.177z"/>
		<path d="M144.286,7.741c0,0,2.092,7.532,2.51,12.554c0.419,5.021,0,11.74,0,11.74h3.976c0,0,0-4.835,0-10.32
			s-2.72-16.484-2.72-16.484L144.286,7.741z"/>
		<path d="M177.343,7.741l-10.88,0.21l-3.557-2.721l-5.44,10.357L155.792,5.23l-3.557,1.256c0,0-0.419,3.557,0,7.964
			s0,17.585,0,17.585l4.185-1.487l1.465-5.415l3.975,6.328h14.646l0.837-4.284c0,0-6.277,0.441-7.323,0s-0.418-4.161-0.418-4.161
			l7.741,0.418l-1.047-4.801h-6.485l-0.628-5.451l8.16-0.418V7.741z M164.697,27.177l-4.929-7.509l4.929-6.904V27.177z"/>
	</g>
	<g>
		<path d="M9.892,138.299c-0.488-3.348,6.556-1.883,6.556-1.883l-6.556-6.904l-8.927,7.323c0,0-2.72,1.674,2.511,3.975
			s7.323,4.185,7.015,6.486s-7.015,3.976-7.015,3.976l3.975,3.348c0,0,10.461,1.255,10.043-6.904S10.38,141.646,9.892,138.299z"/>
		<path d="M17.506,133.487c0,0,1.452,2.929,2.289,8.613s-0.976,14.192-0.976,14.192l6.553,0.837v-10.88c0,0,10.324,0,5.164-8.578
			C26.667,131.241,17.506,133.487,17.506,133.487z M24.743,142.101l-1.391-5.266c0,0,4.183,0.21,4.602,3.348
			S24.743,142.101,24.743,142.101z"/>
		<path d="M38.625,133.107h-4.527c0,0,0.552,21.721,1.808,21.581s13.692,0,13.692,0v-5.719h-8.671L38.625,133.107z"/>
		<path d="M49.598,135.579c1.139,0.628,2.418,19.109,2.418,19.109h4.185l-2.511-19.109H49.598z"/>
		<path d="M56.201,138.718l5.021,0.866l0.418,16.081l6.089-0.976c-1.443-3.905,0-15.972,0-15.972l4.373-0.837v-4.773H56.201V138.718
			z"/>
		<path d="M89.51,144.387c0,0,0.376-5.878-1.089-8.808s-12.344-1.255-12.344-1.255l0.942,21.341c0,0,14.331-1.465,15.587-4.394
			S89.51,144.387,89.51,144.387z M81.936,137.881c0,0,3.271-0.628,4.042,0s-4.878,4.22-4.878,4.22L81.936,137.881z M81.936,150.644
			v-3.976c0,0,5.858-1.045,6.277,1.884S81.936,150.644,81.936,150.644z"/>
		<path d="M102.858,135.579c-13.39,3.557-8.269,13.041-5.857,16.11c2.508,3.194,12.711,3.282,14.227-3.069
			C113.319,139.852,104.678,135.096,102.858,135.579z M102.776,150.754c-1.383-1.575-7.45-0.629-4.73-6.855
			c2.721-6.227,6.85-3.613,8.369,2.588C107.461,150.754,102.776,150.754,102.776,150.754z"/>
		<path d="M148.678,142.334c2.093-2.87-0.836-6.755-3.348-9.227c-2.51-2.472-13.181,0.74-13.181,0.74l0.837,18.679l-8.16-18.679
			h-5.857l-7.418,19.976l3.547,0.865l3.033-6.974h7.323l3.348,7.95h10.671l-1.654-8.16l8.141,8.16l3.434-1.842l-4.063-7.337
			C145.331,146.486,146.586,145.204,148.678,142.334z M119.178,143.898l3.557-5.39l1.465,5.878L119.178,143.898z M137.819,141.447
			l-0.856-4.612c0,0,6.276-1.464,6.276,1.674S137.819,141.447,137.819,141.447z"/>
		<path d="M164.697,140.334c-0.34-6.137-12.647-7.227-12.647-7.227v24.022C152.049,157.13,165.626,157.13,164.697,140.334z
			 M155.374,148.62v-8.286c0,0,3.977-0.838,4.395,3.585S155.374,148.62,155.374,148.62z"/>
	</g>
</g>
</svg>
