<svg xmlns="http://www.w3.org/2000/svg" width="303" height="303" preserveAspectRatio="xMidYMin slice" viewBox="-30 -10 363 363">
  <path d="M0 114.189S26.722 8.115 27.48.942c.75-7.093 12.58 27.733 17.972 41.215s-5.007 3.082-5.007 3.082-7.318-21.186-9.245-26.193-20.8 79.35-23.111 89.75S0 114.189 0 114.189z"/>
  <path d="M297.576 242.541c-1.6-3.491-11.201-25.896-13.674-30.405-2.474-4.51-17.459-44.225-18.041-46.262s-9.748-35.788-11.931-41.607-4.801-35.206-9.311-45.39-15.421-13.966-20.222-12.075c-4.802 1.891-11.202 10.038-11.057 27.205s6.254 43.353 6.254 43.353-7.419-2.91-12.074-6.546c-2.666-2.083-6.401-6.401-7.855-6.547-1.455-.146 1.309 5.528 6.4 10.329s12.656 7.565 12.365 8.438-10.475 5.528-10.475 5.528 4.656.727 8.002.291 5.674-2.182 6.11-2.037 2.618 5.237 1.745 5.092-8.001.437-8.001.437 17.894 14.548 23.276 24.44c5.268 9.68 4.365 21.968 1.602 21.095-2.765-.873-7.275-16.148-7.711-20.513s-16.003-16.293-13.094-13.529c2.91 2.764 5.819 22.881 5.819 22.881s-8.729.832-15.712-.769c-5.678-1.302-12.947-7.564-14.693-8.874s-22.549-1.309-30.114-2.5-28.269 1.072-30.131 2.004c-3.201 1.601-5.22 10.825-8.421 10.098s-1.746-3.491-1.746-4.364.291-2.327-.728-3.2-2.764 4.364-5.237 1.455 2.91-6.111 2.328-7.274c-.507-1.013-4.759-.263-5.467-.051-.013-.328-2.509-2.365 2.484-4.895 7.828-3.967 27.715-2.764 39.062-2.619 11.348.146 25.75 2.182 26.188 0 .582-2.91-5.238-12.22-5.238-12.22s-2.182 6.692-2.327 7.274-6.11 0-7.128 0c-1.019 0 2.472-11.494 2.763-12.076s-1.163-4.073-2.036-4.364-6.401-.146-13.821 4.51-12.802 3.928-12.947 2.182 12.947-7.419 19.931-13.239 3.346-10.62-.291-10.475-10.766 2.764-19.931 4.219-16.439.535-21.531-2.473c-2.84-1.677-2.764-5.383 5.237-9.747s19.785-4.365 19.785-4.365c1.018-1.019 9.02-14.839 10.911-15.712 1.892-.873 8.001 9.166 8.001 9.166s3.928-.728 7.274-.728 8.583.291 8.583.291 4.074-6.692 5.529-8.001 4.654 9.747 4.654 9.747l5.238.582s-2.037-9.311-3.492-12.075-6.838-17.603-6.838-17.603-10.037 19.64-11.057 20.804c-1.018 1.164-5.527 3.346-7.419 1.891s-9.021-18.185-9.894-17.749-9.892 18.767-10.619 19.349-11.93 3.055-13.093 2.473-14.548-11.639-22.113-16.006-24.731-11.78-24.731-11.78l-6.401-13.239s1.309-1.019 8.292-1.601 14.839 0 14.839 0l-9.457-13.966s-14.257 5.674-20.076 8.292S55.349 71.02 55.349 71.02c-.873-2.765-10.039-28.66-10.039-28.66l-4.946 1.019 11.644 31.714s0 .728-3.492 6.547-3.201 13.966-3.201 13.966.728-1.891 3.492-5.237 6.546-6.401 6.546-6.401 13.093 32.442 15.275 36.952 19.64 38.698 19.64 38.698c-5.528 5.965-7.855 22.113-7.855 22.113s3.783-5.528 6.401-8.583 6.546-6.401 6.546-6.401 15.857 29.387 17.603 33.605 25.459 46.847 25.459 46.847-.291 1.746-2.328 4.51-2.764 12.657-2.764 12.657 2.182-1.892 4.51-4.074 6.256-3.928 6.256-3.928l2.764 1.892s1.6 5.819 1.6 7.273c0 1.049-.355 6.134.291 5.528 1.71-1.603 3.055-1.891 3.055-1.891s2.764 6.109 3.637 6.982 20.949 33.024 24.732 38.698c3.781 5.674 21.24 35.933 22.549 36.515s6.983-4.219 6.983-4.946-31.134-51.21-31.134-51.21 2.037-1.164 3.637-2.328c1.602-1.164 4.947-1.601 4.947-.728s5.965 14.111 6.109 11.639 4.656-12.512 4.656-12.512 1.309-.437 1.745.146 7.128 12.075 6.692 10.475c-.438-1.601 2.473-13.238 2.473-13.238s10.62 7.419 9.457 5.674c-1.164-1.745-1.164-9.893-1.164-9.893s13.82 5.092 11.639 3.2c-2.183-1.892-6.547-10.329-6.547-10.329s4.801-9.311 3.346-19.494c-.93-6.507-4.946-19.349-4.946-19.349s8.48 6.184 20.367 10.911c12.802 5.092 26.353 6.671 26.353 6.671.145 1.891 10.309 11.805 10.309 11.805s15.42 12.077 22.84 2.184-1.308-24.007-2.91-27.498zM150.933 133.576l4.219.727s-3.928 3.928-3.928 4.51-2.619-1.018-2.619-1.018l2.328-4.219zm-6.111 2.036h1.891v6.401l-4.51-2.182 2.619-4.219zM86.485 88.331c3.783-1.018 9.165 1.746 9.165 1.746 2.473 1.164 14.111 8.001 15.421 8.729s13.821 7.274 14.839 9.02 2.764 2.618 1.309 3.346-8.292 3.201-8.729 3.201-9.457-5.965-12.657-8.438-7.419-7.856-8.001-7.274-2.764 4.946-4.946 5.237-4.074-.873-4.074-1.673-3.346-.363-3.346-1.527 2.473-4.074 3.201-3.783-3.637-1.892-5.383-3.201.813-4.74 3.201-5.383zm-4.073 40.153c-2.764-6.692-22.404-47.281-22.404-47.281s2.764-3.637 5.819-5.237 7.419-4.073 7.419-4.073l5.383 7.71s-1.891 4.51-1.309 5.819-2.764 0-2.473 4.219 3.782 6.546 3.782 6.546-.873 2.618.582 4.655 4.219 4.074 4.219 4.074-2.328 2.618 2.619 4.073 5.528 1.746 5.528 1.746 6.692 15.275 6.983 15.711 3.637-1.891 3.637-1.891-.146-3.782 0-6.11-5.092-11.639-5.092-11.639 13.239 9.747 13.675 10.184-5.673 3.782-5.092 4.219 6.546 3.346 6.983 2.619.873 4.801 3.782 7.42 7.565 6.255 7.565 6.255l1.746 5.237s1.309-6.255 3.782-6.255 4.364 5.237 4.364 5.237l2.764-4.51 1.455-.146s3.201 5.965 3.201 6.692-4.51-1.31-4.51-1.31l1.892 4.219s-1.019 5.383.291 6.692 4.656 4.365 9.748 3.492 14.111-5.237 14.111-5.237-1.163 7.855-4.072 8.146c-2.91.291-22.02.169-24.732 0-4.655-.291-13.82 3.346-13.82 3.346s-6.401-6.11-5.237-6.983c3.249-2.437 6.837-4.074 12.802-5.383l-7.71-8.001s-8.292 2.037-13.53 5.528-9.602 6.255-9.602 6.255-11.785-19.346-14.549-26.038zm54.991 129.333c-.437.582 2.764-4.219 4.073-5.092 0 0 1.456 2.765 1.892 2.619s-5.529 1.891-5.965 2.473zm5.383-13.384c-.873-.582-17.603-33.461-19.494-36.225s-22.55-43.062-22.55-43.062 2.619-3.492 3.783-4.365 3.201-2.182 3.201-2.182l4.219 4.219s.873 4.074 0 4.074-2.328.146-2.91 2.182-1.746 6.691.291 7.855 4.219 1.31 4.219 2.765-.727 3.782.873 4.219 5.237 1.602 5.237 2.474-.728 3.782 1.164 3.637 4.22 1.165 4.656 1.892 7.274 14.257 7.274 14.257 6.547-4.946 7.565-5.092-6.692-10.62-6.692-10.62 1.309-8.001 2.619-9.02 16.081-.771 17.749-1.31c4.511-1.455 18.767.146 18.767.146l4.074 16.608s-9.893 3.032-15.275 5.068-9.641 11.128-10.475 15.711c-1.455 8.002 4.073 17.604 4.364 18.331s-4.801 1.454-7.419 2.764-4.367 6.256-5.24 5.674zm9.165 18.622c0 .873-2.327-3.831-1.455-5.188 0 0 4.219.485 4.655 0s-3.2 4.315-3.2 5.188zm23.714 30.26l2.183-8.147s3.055 2.037 3.781 2.037c.728 0-5.964 6.11-5.964 6.11zm-2.827-6.929l-15.795-22.458s.729-3.057.729-3.347 6.98 5.966 7.418 6.402 1.02-8.488 1.02-9.045-.291-3.758 1.455-3.758c1.745 0 8.291 5.672 9.164 6.4s1.455-8.893 1.455-10.192 2.764-8.283 3.201-12.356c.436-4.073.145-15.711.145-15.711.582 0 3.783-2.037 4.365-2.037s3.637 14.983 4.364 18.185 6.255 15.688 7.128 17.519 4.511 5.1 3.638 7.175-4.946 3.53-7.565 3.821c-2.618.291-8.001 1.601-10.766 4.219-2.765 2.617-9.956 15.183-9.956 15.183zm-10.049-25.889c.363.667-2.546-2.824-2.4-3.843l4.801-1.358c-.001 0-2.764 4.534-2.401 5.201zm7.201-8.789s3.782-1.455 4.655-1.31.582 4.946 1.019 5.528-5.674-3.199-5.674-4.218zm22.114 43.498c.291 1.455-1.454-5.093-1.018-5.965 0 0 3.491 1.455 4.219 1.164s-3.492 3.346-3.201 4.801zm14.874-8.345c-.589 1.357-1.999 5.468-1.999 5.468l-2.254-3.088s3.306-1.495 4.253-2.38c.155-.358.257-.535.257-.384-.001.104-.1.237-.257.384zm4.184-3.002l3.928-1.31s-.582 5.818 0 6.691-3.928-5.381-3.928-5.381zm9.893-4.655s.436 2.182 1.309 3.346-3.928-1.601-3.928-1.601l2.619-1.745zm12.656-41.607c-12.656-6.983-22.549-20.804-22.549-20.804s-2.764 5.964-2.473 8.001 7.42 27.931 8.146 35.787-.437 16.148-2.764 18.04c-2.328 1.892-18.768 9.457-25.75 7.42-6.983-2.037-4.352-6.013.145-9.311 6.547-4.801 9.461-2.898 17.021-3.928 0 0 3.492-2.765 3.492-3.201s-.729-7.42-3.056-10.62-8.293-22.695-9.021-26.187c-.727-3.491-.436-9.892-.872-10.619s-1.019-5.237-4.801-5.674-11.931-.001-14.403 2.764-4.766 12.803-4.929 17.749-1.617 11.618-4.235 13.374c-2.619 1.756-14.92 3.792-14.92 3.792-1.23-.582-5.158.999-5.303-3.792s7.129-6.392 8.583-6.683c1.454-.291 4.358.774 4.358.774l3.061-4.848s-9.747-8.583-6.4-19.203c3.346-10.62 13.092-11.348 17.166-11.784s9.893.582 10.475 0 1.601-1.456 1.601-2.619-3.054-12.219-4.218-14.547-2.328-8.002-.873-8.438c1.454-.437 6.838-1.019 8.001-.582s3.782 6.983 5.965 7.856 11.784 6.256 15.13 5.528 14.111-3.638 14.984-3.347 9.02 21.239 11.93 25.022c2.909 3.783 4.31 9.888 10.766 16.73 7.273 7.711 10.766 10.23 10.766 10.23s-12.366.103-25.023-6.88zm29.971 1.746s-6.256-4.656-11.058-9.603-10.475-24.15-10.475-24.15 10.911-11.639 5.237-26.478c-4.061-10.621-16.585-22.549-16.585-22.549s-3.929-14.403-4.801-19.204-6.256-42.917-4.946-52.082 6.4-12.22 6.4-12.22 5.238 39.571 4.947 45.536 14.548 47.136 17.894 55.982c3.346 8.846 17.022 46.582 19.932 53.711s11.202 21.531 11.202 21.531-.873 1.164-4.655-1.019-13.092-9.455-13.092-9.455zm17.166 23.858c-4.655-4.51-4.946-7.564-4.946-7.564s7.856-.582 8.147-1.746 7.128 12.511 9.311 14.402c2.181 1.892-7.857-.582-12.512-5.092zm16.875 2.618s-6.982-9.604-9.02-14.259-20.513-41.17-20.513-41.17-12.512-32.296-18.331-45.971c-5.818-13.675-9.893-42.917-11.348-46.99s-6.546-42.335-5.964-42.335 5.827 6.999 8.874 13.093c2.473 4.946 9.719 41.607 9.719 41.607s6.43 29.532 7.739 33.169S275.9 206.9 275.9 206.9s13.675 26.478 18.912 37.534 2.911 21.385 2.911 21.385z"/>
  <path d="M151.952 117.209c-1.077-2.553-.604-4.529 2.114-4.982s4.227 2.566 3.17 4.982-4.772 1.215-5.284 0zm26.571-1.358c.313-1.507 1.357-3.329 4.076-1.514 2.717 1.815 2.323 2.746.754 4.955-.996 1.403-5.585.182-4.83-3.441zm11.926 31.854s1.063 11.775 5.284 12.681c2.214.475-3.688 3.624-6.944 0-5.203-5.787 1.357-11.171 1.66-12.681zm22.494 163.95h7.396s-.604-5.132 0-5.283c.604-.151 7.549 0 7.549 0v4.378l3.623-.302v5.736h-3.17s2.415 10.869 2.415 11.775-6.643.604-6.643.604v-8.152l-5.284 5.283-5.887-.15s9.284-8.086 9.209-9.209c-.076-1.123-7.699-.303-9.209.15s.001-4.83.001-4.83zm21.739-2.868h8.002v-3.02h4.68v3.02h5.737v4.831h-3.774l1.057 14.994h-6.491l-.755-11.153s-4.227 5.065-4.68 4.915-5.285-1.51-5.285-1.51 8.908-5.887 9.21-7.548-6.794-.151-6.794-.151l-.907-4.378zm20.683 1.51h4.68s.604-3.926 0-4.529 4.076 0 4.076 0 .755 4.529 1.51 4.529h5.133l3.321 14.04h-4.528l-3.322-8.454s-3.623 8.604-3.02 9.511c.604.906-5.133 0-5.133 0l3.02-9.746h-4.982l-.755-5.351zm21.135-5.586l11.475 2.415v3.774l-11.475-2.264m2.566 3.171s7.852 1.51 8.908 2.566 0 2.817 0 2.817l-8.002-1.543-.906-3.84zm.756 6.642s7.129 1.511 8.621 2.718c1.493 1.207 0 3.623 0 3.623l-8.621-1.661v-4.68z"/>
</svg>
