<?xml version="1.0" encoding="utf-8"?>
<svg version="1.1" id="レイヤー_1" xmlns="http://www.w3.org/2000/svg" xmlns:xlink="http://www.w3.org/1999/xlink" x="0px"
	 y="0px" width="200" height="200" viewBox="0 -40 241 300" enable-background="new 0 0 241.561 263.732"
	 xml:space="preserve">
<g>
	<path d="M102.193,58.18c-1.525-5.743-10.856-9.78-15.522-10.138c-3.678-0.283-8.882,2.602-12.292,1.705
		c-1.227-0.323-6.096-3.765-9.062-3.769c-5.204-0.006-6.819,1.974-7.985,2.243c-1.167,0.269-2.692,0.179-4.038-0.359
		c-1.346-0.539-7.896-1.794-11.664-0.897c-3.768,0.897-6.011,5.204-7.357,5.563s-3.499-0.359-6.819,0.539
		c-1.734,0.469-8.703,4.037-10.587,5.473c-1.884,1.436-6.191,2.692-10.498,2.333C2.063,60.513,0,58.988,0,58.988
		s2.152,5.024,5.203,6.908c3.05,1.884,7,3.051,7,3.051s-0.628,1.794,5.383,3.769s12.203,3.678,16.15,2.781
		c3.948-0.897,7.537-3.41,10.049-3.051c2.512,0.359,4.666,2.513,14.355,4.307c9.689,1.794,13.728-2.782,15.073-3.14
		c1.346-0.359,5.627,1.705,13.279,2.512C97.378,77.273,103.718,63.922,102.193,58.18z M92.144,61.57
		c-0.807,2.711-4.127,5.493-8.165,6.121c-4.038,0.628-7.447-0.987-7.088-2.512c0.359-1.525,2.872-2.871,5.115-2.333
		c2.243,0.539,2.871,2.243,2.871,2.243l2.871-2.063c0,0-1.436-2.691-6.101-3.14c-4.666-0.449-6.64,1.076-8.883,2.512
		c-2.243,1.436-3.768,2.961-3.319,3.679c0.449,0.717,0.987,1.524,2.063,1.345s-1.974,2.153-1.974,2.692
		c0,0.538-5.204,2.96-12.561,2.781s-10.497-3.589-11.484-4.935l-7.357,0.09c0,0-4.307,3.679-11.036,2.961
		s-11.395-4.935-11.395-4.935s4.845-2.064,6.101-3.23c1.256-1.166,0.718-3.857,1.256-4.037c0.538-0.18,2.333-2.961,5.742-2.602
		c3.41,0.359,5.114,2.602,5.024,3.23s1.704-0.269,1.884-1.077c0.18-0.808,1.167-5.563,7.268-6.639s8.613,0.359,10.766,2.153
		c2.153,1.794,2.782,2.422,3.5,1.974s0.987-4.486,2.781-5.652c1.794-1.167,4.575-1.256,8.075,0.717
		c3.5,1.974,1.256,3.948,1.256,4.755c0,0.808,0,1.615,2.961,1.346c2.96-0.269,4.038-1.615,4.755-1.884
		c0.717-0.269,7.267-1.884,10.676-0.987C91.157,55.04,92.951,58.858,92.144,61.57z"/>
	<path d="M189.85,18.473c0,0-11.125,7.856-18.214,7.497c-3.772-0.191-8.254-2.063-9.33-2.781c-1.077-0.718-6.191-4.216-11.484-3.768
		c-5.293,0.448-7.447,2.333-8.524,2.153c-1.076-0.18-7.984-3.858-13.368-2.961c-5.383,0.897-6.729,3.051-7.357,3.948
		c-0.628,0.897-3.499-0.718-12.561,0c-9.062,0.718-12.074,6.597-12.561,9.87c-1.256,8.434,2.961,11.933,8.344,13.548
		c5.383,1.615,15.432-1.705,15.701-1.525c0.27,0.179,4.396,2.961,11.215,2.064c6.818-0.897,11.933-4.217,15.074-5.115
		c3.14-0.897,10.686,1.779,14.803,1.256c9.985-1.266,11.485-6.729,12.562-8.613c1.077-1.884,4.218-2.691,5.742-3.14
		c1.525-0.449,7.627-2.961,9.601-6.998S189.85,18.473,189.85,18.473z M159.345,37.724c-4.037,0.897-9.869-1.526-11.934-1.884
		c-2.063-0.358-5.541,1.272-9.151,3.769c-7.267,5.024-13.727,0-13.727,0s1.436-6.012,0.987-6.55
		c-0.449-0.539-8.792-2.871-10.408-2.871c-1.615,0-6.908,3.858-6.639,3.858s5.204,1.794,6.011,1.884
		c0.807,0.09,1.615-2.512,3.589-2.063c1.974,0.449,1.167,4.396-1.346,5.293c-2.513,0.897-8.822,3.811-13.728-0.718
		c-3.499-3.23,0.179-8.703,2.781-10.408c1.957-1.282,6.819-1.794,10.587-1.884c3.769-0.09,8.972,2.691,9.242,3.14
		s1.884-0.179,2.512-0.717c0.628-0.539,0.808-4.845,0-4.845s1.973-3.23,6.549-1.794s4.486,5.563,4.486,5.563l7.627,0.09
		c0,0,0.894-2.739,3.409-3.409c2.691-0.718,6.189,1.436,7.268,3.14c1.075,1.705,5.023,2.692,5.921,2.602
		c0.897-0.09,5.204,0.006,5.204,0.006S163.381,36.827,159.345,37.724z"/>
	<path d="M241.53,63.653c-0.269,0.179-7.446,3.858-13.548,3.858s-9.151-2.153-11.216-4.037c-2.063-1.884-4.037-5.563-9.868-6.909
		c-5.832-1.346-7.806,1.346-11.216,0.808c-3.408-0.539-4.575-3.051-9.6-4.038c-5.024-0.987-9.511,3.23-11.036,3.23
		c-1.524,0-4.396,0-8.344,0s-7.446,3.32-11.305,3.948s-4.038-0.964-9.241-0.897c-6.654,0.086-10.083,4.723-11.843,6.37
		c-11.215,10.498,6.998,18.841,14.535,18.124c7.536-0.717,13.728-3.409,14.086-3.319c0.359,0.089,7.896,2.691,12.112,2.512
		c4.218-0.179,16.778-3.589,18.752-4.038c1.975-0.449,4.037,1.436,6.19,1.974c2.153,0.538,4.576,1.525,8.613,0.807
		c4.039-0.718,11.125-2.243,13.458-2.063c2.333,0.18,8.613,1.615,13.459-4.307C240.365,69.754,241.799,63.474,241.53,63.653z
		 M223.765,75.855c-4.396,1.077-7.537-1.166-11.753,0c-4.218,1.167-7.177,2.178-10.587,1.313c-3.411-0.865-5.742-2.838-8.165-3.377
		s-10.055,3.076-12.112,3.701c-8.792,2.67-16.958-1.996-16.958-1.996s0.487-4.432-2.691-5.114
		c-7.985-1.713-11.484,2.602-11.484,2.602s2.512,0.089,6.011,1.077c3.499,0.987,0.898,2.626-0.538,3.107
		c-1.436,0.481-6.55,2.12-12.471,0c-5.921-2.121-0.897-9.478,0.896-9.747c1.847-0.277,5.563-2.512,7.538-2.512
		c1.973,0,5.831,2.512,5.831,2.512l3.32-1.256c0,0,0.453-3.168,3.499-4.217c8.074-2.782,9.688,1.166,9.688,1.166l4.039,0.269
		c0,0,0.18-3.947,5.203-4.845s8.613,0.897,8.972,2.243s-0.358,2.512,0,2.692c0.358,0.179,4.756,0.717,5.563,1.256
		c0.808,0.538,0.359-2.692,4.486-2.602c4.127,0.089,8.164,2.405,10.497,6.541s3.765,3.789,5.563,4.315
		c3.68,1.077,12.382-1.974,12.382-1.974S228.162,74.778,223.765,75.855z"/>
	<g>
		<g>
			<path d="M84.159,0.04c0.628,0,7.177,0,8.703,0s4.217-0.09,5.025,0c0.807,0.09,1.794,0.897,1.256,1.525
				c-0.539,0.628-2.333,0.987-2.333,1.436c0,0.449,1.384,1.346,2.486,1.794s5.678,1.525,7.562,3.499
				c1.884,1.974,2.154,6.999,2.064,8.524c-0.09,1.525-2.602,1.435-3.679,0.717c-1.077-0.717-3.049-4.755-2.826-6.101
				c0.224-1.346-0.853-3.768-1.571-4.038s-4.561-1.077-4.299-0.359c0.262,0.718,3.671,2.423,3.492,2.961
				c-0.18,0.539-4.127,0.448-4.486,0.359c-0.358-0.09,0.449,5.383-0.089,6.101c-0.539,0.718-2.064-1.704-2.692-3.588
				s0.359-5.114-0.718-5.563c-1.077-0.449-2.243-1.885-3.589-1.436s-0.717,1.884,0.09,2.422c0.807,0.539,2.512,1.077,2.333,1.795
				c-0.18,0.717-2.333,0.538-2.871,0.538c-0.538,0-2.063-0.358-2.243-0.089c-0.18,0.269,0.987,1.615,2.422,1.794
				c1.436,0.18,2.692-0.448,2.781,0c0.09,0.449,0.539,2.153-0.089,2.153s-3.769,0.359-3.769,0.359s1.077,1.256,0.539,1.705
				c-0.539,0.449-3.678,2.591-3.499,1.924c0.179-0.667-1.884-11.524-1.256-11.973s1.435-2.333,2.243-2.333
				c0.808,0,6.64-0.897,6.999-0.897s-0.718-1.166-1.256-1.346c-0.539-0.179-8.224,0.27-8.105-0.179
				C82.903,1.296,82.813,0.04,84.159,0.04z"/>
			<path d="M97.438,14.037c0,0,1.435-1.974,1.884-1.615s1.705,0.628,1.974,1.167c0.269,0.538-0.897,2.422-0.897,2.422L97.438,14.037
				z"/>
		</g>
		<path d="M127.136,11.884c-0.269-2.064-0.987-5.024-1.974-5.473c-0.987-0.449-5.648-0.788-6.64-0.808
			c-1.332-0.026-7.088,0.448-6.998,3.697c0.089,3.249,6.998,5.814,8.613,4.895c1.615-0.919,1.256-3.119,0.987-4.095
			c-0.269-0.977,1.615-1.176,1.726-1.086c0.111,0.089,2.401,4.037,2.939,5.182C126.328,15.339,127.405,13.947,127.136,11.884z
			 M117.131,11.255c-0.852-0.359-3.364-1.615-1.48-3.14c0.595-0.482,2.871-0.449,2.96,0.538
			C118.702,9.641,117.983,11.615,117.131,11.255z"/>
		<path d="M133.686,4.526c0.628-0.179,10.229-0.717,10.229-0.717l0.987,2.243c0,0-2.872,0.987-5.608,1.256
			c-2.737,0.269-4.172,0-4.172,0L133.686,4.526z"/>
		<path d="M135.57,9.3c0,0,1.615,1.417,2.423,1.328c0.807-0.089,3.499-0.517,4.396-0.662c0.896-0.146,5.832-0.666,5.832-0.666
			l0.808,2.045c0,0-0.898,0.72-4.127,1.033c-3.23,0.313-5.384,1.3-6.102,1.21C138.083,13.499,133.955,9.856,135.57,9.3z"/>
		<path d="M148.221,3.181c0,0,8.164,0.269,8.164,0c0-0.27-0.986-2.064-0.986-2.064s2.512-0.987,2.87-0.718
			c0.359,0.27,1.347,1.974,1.347,1.974l2.871-0.547c0,0,2.243,2.791,2.063,3.06c-0.18,0.269-4.037,0.538-4.037,1.256
			s3.409,6.908,3.409,6.908l-3.589,1.145c0,0-0.449-4.607-0.986-4.895c-0.539-0.287-2.956,3.078-2.956,3.078l-3.235-0.931
			c0,0,5.024-4.499,5.024-5.126s-3.229-0.358-5.204-0.269c-1.974,0.09-1.614,0.569-2.871-0.434
			C148.849,4.616,148.221,3.181,148.221,3.181z"/>
		<path d="M171.369,0l3.41,0.353c0,0,0,2.649-0.718,2.918c-0.719,0.269,2.153,9.421,2.063,9.87s-3.857,0.454-3.857,0.454
			l-1.437-6.32c0,0-3.319,2.936-3.678,2.831c-0.359-0.105-2.154-1.63-1.885-1.81c0.269-0.179,2.961-3.499,3.589-4.486
			C169.485,2.822,171.369,0,171.369,0z"/>
		<path d="M185.096,9.3c1.191-0.158,3.589-0.467,3.857,1.507c0.271,1.974-1.614,2.423-3.229,2.064
			C184.109,12.512,183.837,9.466,185.096,9.3z"/>
		<path d="M195.684,9.182c0.941-0.097,3.499,0.381,3.499,1.9c0,1.519-1.078,3.449-4.128,1.901S194.486,9.305,195.684,9.182z"/>
		<path d="M206.718,8.744c0.405-0.194,2.693-1.495,4.039,1.361c1.346,2.855-2.244,3.261-3.141,2.879
			C206.718,12.602,204.476,9.82,206.718,8.744z"/>
	</g>
	<path d="M121.393,91.917c-0.718,0.179-2.871,5.742-6.37,5.742s-7.357-9.51-9.178-10.228c-1.821-0.718-12.266-0.808-14.33,0.538
		c-2.063,1.346-1.256,8.254,2.692,12.023c3.947,3.769,6.19,3.229,8.21,2.422c2.02-0.807,4.531-2.55,2.556-5.114
		c-2.556-3.319-6.729-4.666-6.729-4.666c-0.09-2.512,5.832-1.974,7.178-0.358c1.346,1.615,4.037,8.972,5.024,10.138
		c0.987,1.166,4.755,1.705,7.895,1.525c3.141-0.179,2.871-1.615,3.051-5.743S122.111,91.737,121.393,91.917z M98.784,95.445
		c1.072,0.229,2.421,1.227,3.229,2.573c0.808,1.346-2.512,1.705-3.589,0.359C97.348,97.031,97.742,95.223,98.784,95.445z"/>
	<path d="M153.872,98.694c-0.896-2.016-6.28-5.252-9.151-4.713c-2.871,0.538-9.6,9.689-12.023,9.42
		c-2.423-0.269-4.665-7.447-4.665-7.447l-2.692,8.248c0,0,0,2.07,2.422,2.967s7.357-0.628,8.972-1.167
		c1.615-0.538,1.705-2.243,3.678-5.742c1.974-3.499,6.191-3.589,6.909-3.769s4.396,5.563,3.499,5.024
		c-0.898-0.538-3.679,0.449-4.486,1.077c-0.808,0.628-2.153,0.359-3.589,1.38s-2.333,5.35-2.153,5.978
		c0.18,0.628,3.229,4.306,4.396,4.486c1.167,0.18,1.974-0.089,4.666-2.063s2.87-3.679,2.781-4.576
		C152.347,106.9,154.769,100.709,153.872,98.694z M146.515,108.964c-0.539,0-2.692-0.717-2.333-1.436
		c0.358-0.718,3.229-3.499,4.844-1.436C149.5,106.696,147.053,108.964,146.515,108.964z"/>
	<path d="M103.808,110.489c1.297-0.156,6.639,0.089,7.447-0.628c0.808-0.718-3.14,3.858-3.14,3.858s-4.307,0.628-6.64,0
		s-4.665-2.512-4.665-3.05c0-0.539,0.538-2.064,0.538-2.064S101.565,110.758,103.808,110.489z"/>
	<path d="M123.367,111.834c0,0,5.474,5.204,8.524,6.191c3.05,0.987,8.344,0.718,8.344,0.718s-3.409,4.396-6.28,4.306
		c-2.871-0.09-7.268-2.512-7.268-2.512S123.546,112.373,123.367,111.834z"/>
	<path d="M109.37,124.665c0,0-13.009,0.718-15.791,0.539c-2.782-0.179-3.141-1.077-10.453-2.602
		c-7.313-1.525-12.337-8.118-12.337-8.118s0.717,0.133,1.256-0.854c0.538-0.987,0.538-3.319,0.538-3.319s1.974,0.897,3.41,0.992
		c1.436,0.094,5.293-0.633,9.331-1.351c4.037-0.718,10.139-1.884,10.139-1.884l-2.602-5.204c0,0-3.678,1.974-5.114,2.333
		c-1.436,0.359-5.114,1.256-7.895,0.897c0,0-1.346-0.179-4.038-0.628c-2.691-0.449-3.678-4.755-3.947-7.896
		c-0.27-3.14,0.987-15.163,0.987-15.163s-1.077,0.269-2.871,6.999c-1.794,6.729-0.269,15.252-0.269,15.252s-4.127-1.436-5.652-6.909
		c-0.861-3.088-2.243-9.959-2.243-9.959s-1.077,1.077-1.436,6.131c-0.359,5.055,2.153,9.659,1.525,9.659
		c-1.081,0-5.473-1.345-6.28-1.166c-0.808,0.179-2.961,2.333-2.961,2.333l-1.458,8.075c0,0,2.265,3.768,4.149,4.217
		c1.884,0.449,8.523,1.167,9.152,1.077c0.628-0.089,0.089-0.448,0.269-1.077c0.179-0.628,2.244-2.333,2.244-1.974
		c0,0.359,3.05,7.986,3.05,7.986s-6.101,7.804-6.999,14.354s3.141,12.561,3.141,12.561s1.436-5.921,2.781-14.085
		c1.346-8.166,3.679-10.768,3.679-10.768s0.358,0.897,1.525,0.539c1.167-0.359,2.602-0.628,2.602-0.628s-2.512,3.499-4.217,10.318
		s1.884,14.087,1.884,14.087s-0.27-9.512,1.794-15.701c1.287-3.861,2.064-5.743,2.602-5.833c0.539-0.09,2.333,0.897,3.948,1.167
		c1.615,0.27,4.217,0.718,4.217,0.718s1.794,2.602,2.512,4.037s3.051,6.639,3.051,6.639l4.755-0.538c0,0-3.588-5.293-3.23-6.997
		c0.148-0.702,2.064-0.27,5.743-0.897s8.344-2.243,7.985-2.781C107.485,128.702,109.37,124.665,109.37,124.665z M68.098,112.553
		c-1.256,0.269-2.333-1.696-3.006-1.251c-0.672,0.444-0.852,2.87-1.48,3.182s-2.602,0.585-3.141,0
		c-0.538-0.585-0.538-5.25-0.538-5.25s-1.167,1.714-2.333,2.068c-1.166,0.354-2.243,0.812-2.243,0s0.18-3.952,0.987-4.222
		c0.807-0.269,3.068-0.195,4.127,0c1.35,0.25,5.115,0.897,6.102,0.718c0.987-0.179,3.14-0.718,3.14-0.718
		S69.354,112.284,68.098,112.553z"/>
	<path d="M90.349,143.237c0.808,0.358,5.115,7.087,4.666,7.895s-4.935,6.729-6.46,7.626c-1.525,0.898-8.265,1.615-8.265,1.615
		s4.766-5.114,6.201-7.357C87.927,150.772,90.349,143.237,90.349,143.237z"/>
	<path d="M101.205,144.134c0,0,5.832,5.654,6.101,5.832c0.269,0.179-0.359,9.421-0.987,9.69c-0.628,0.268-7.088-7.268-7.088-8.793
		S99.77,143.954,101.205,144.134z"/>
	<path d="M113.587,140.813c0,0,6.012,3.222,6.64,3.316s-0.359,6.915-0.359,7.766c0,0.852-0.089,2.288-0.089,2.288
		s-3.859-5.025-4.755-7.718C114.126,143.775,113.587,140.813,113.587,140.813z"/>
	<path d="M142.747,123.051c0,0,2.961,6.189,7.537,8.522c4.575,2.333,15.971,0.358,15.971,0.358s-10.05,7.896-10.857,7.716
		c-0.808-0.179-6.907-1.075-7.715-2.153C146.874,136.419,140.773,130.589,142.747,123.051z"/>
	<path d="M135.299,134.356c0,0,3.679,4.172,4.935,6.457c2.122,3.859,7.626,6.191,7.626,6.191s-0.001-1.166,0.717-1.166
		c0.719,0,6.461,2.513,6.461,2.513s0.358,2.78,2.332,5.832c1.975,3.05,2.691,3.229,4.665,4.216c1.975,0.987,11.575,6.46,12.65,8.524
		c1.078,2.063,1.705,10.317,1.705,10.317s7.356,0.809,8.075,0c0.718-0.808-4.305,5.473-6.46,5.474
		c-4.037,0.001-10.497-3.32-10.497-3.32s-0.719,1.077,2.153,3.32c2.87,2.243,6.19,5.293,7.447,5.921
		c1.255,0.629,2.87,1.705,2.87,1.705l-0.987,6.55c0,0-2.063-3.948-4.127-5.204c-2.063-1.256-7.667-2.924-9.868-6.191
		c-2.782-4.126-1.257-6.818-1.257-6.818s-6.437-5.119-5.204-7.626c0.31-0.631,6.64,2.96,7.536,3.499
		c0.897,0.538,4.217,2.602,4.665,2.153c0.449-0.448-0.717-8.075-3.05-10.318c-2.332-2.242-11.255-5.555-14.804-7.447
		c-5.384-2.871-4.487-9.959-4.487-9.959s-9.241-0.986-11.304-1.48C135.029,147.005,133.775,134.448,135.299,134.356z"/>
	<path d="M76.71,163.695l2.513,6.639c0,0-5.115,6.908-6.999,9.421c-1.884,2.512-5.107,7.617-5.114,11.574
		c-0.015,8.254,10.228,10.228,10.228,10.228S67.2,203.8,65.316,203.71c-1.884-0.089-5.922-8.075-3.589-14.983
		c2.333-6.908,9.51-15.163,10.138-16.777C72.494,170.334,76.71,163.695,76.71,163.695z"/>
	<path d="M77.967,194.738c0,0,1.794-4.396,2.781-4.127c0.986,0.269,3.051,7.357,4.396,8.882c1.346,1.525,2.524,1.795,2.524,1.795
		l-0.371,3.05c0,0-4.217-0.806-5.294-2.152S77.967,194.738,77.967,194.738z"/>
	<path d="M84.516,191.508c0,0,2.244,1.523,5.115,1.704c2.871,0.18,6.28,1.346,6.28,1.346s-0.987-3.948-1.615-4.666
		c-0.628-0.717,0.09-3.319-1.166-3.588c-1.256-0.27-8.434-2.419-9.242-2.601c-0.807-0.181-1.525-0.898-2.512-3.231
		c-0.987-2.333-1.616-4.666,0.807-6.999c2.423-2.332,4.777-1.256,6.022-2.063c1.245-0.808,0.797-4.396,3.757-4.128
		c2.96,0.27,2.333,2.153,5.473,2.153c3.14,0,1.77-2.153,5.865-1.257c4.094,0.898,4.313,3.052,4.069,4.487
		c-0.244,1.436-0.154,5.563,0.474,5.652s1.705-0.27,2.153-0.359s2.244-5.922,5.922-7.088s4.485-0.539,5.383-0.627
		c0.897-0.091,4.935-3.169,5.653-2.976c0.717,0.193,5.652,0.731,5.652,1.359c0,0.629-0.359,2.513,0.628,2.782
		c0.987,0.269,2.064-2.333,3.589-1.885s2.153,1.436,1.974,2.243s0.27,10.498-1.167,10.946c-1.436,0.448-5.473,1.165-5.383,0.627
		c0.09-0.537,1.613-3.229,2.376-4.396c0.764-1.166,0.854-5.113-0.402-4.036c-1.256,1.076-5.114,4.665-5.383,4.665
		s0.538-4.308,0.538-5.114s0-2.781-0.987-2.602c-0.987,0.179-3.589,4.396-4.396,4.396c-0.807,0-2.09-1.436-3.557-1.167
		c-1.467,0.27-3.945,2.602-3.424,3.589c0.521,0.987,6.623,1.166,7.071,1.166s-0.538,1.526,0.09,1.885
		c0.628,0.358,2.243,1.976,2.243,1.976s-4.127,1.343-7.716,0.806c-3.589-0.538-6.37-1.436-7.178-1.436s-2.243,0.269-2.692,0.269
		s-5.228-3.589-5.53-4.307c-0.302-0.717,1.647-5.921,0-6.101c-1.648-0.179-3.353,1.705-3.442,3.051
		c-0.09,1.346-0.627,2.96-0.627,2.96l-1.885,0.36c0,0-0.449-4.037-0.897-4.486s-1.884-1.347-2.243,0.448
		c-0.359,1.795-0.808,3.678-0.808,3.678s-3.05-2.512-4.307-2.422s-2.578,2.399-1.423,4.385s4.833,1.984,6.089,3.601
		c1.256,1.615,6.549,5.113,7.806,6.55c1.256,1.436,7.229,4.844,8.101,4.396c0.872-0.448,1.679-1.345,1.769-1.973
		c0.09-0.629,0.449,1.165,1.256,0.986c0.808-0.18,2.243-2.333,2.782-2.423c0.538-0.09,3.588-1.257,4.127-2.153
		c0.538-0.896,0.839,0.707,0.839,0.707l-0.57,0.819c0,0,3.23,2.603,5.652,3.319s7.896,1.256,7.896,1.256s-4.217,5.024-6.101,4.665
		c-1.884-0.358-6.281-3.15-7.178-3.19c-0.897-0.039-0.717-3.628-1.974-3.718c-1.256-0.089-1.256-0.089-1.256-0.089
		s-4.486,4.127-5.024,4.485c-0.538,0.358-5.204,0.449-5.921,0.808c-0.718,0.359-4.217-2.422-5.024-2.063
		c-0.808,0.358-4.755,3.229-5.473,3.05c-0.718-0.179-4.226-0.93-5.921-1.524c-0.867-0.306-1.615-2.514-2.691-2.962
		S84.516,191.508,84.516,191.508z"/>
	<path d="M141.399,179.035c0,0,2.153-0.179,3.857-0.448c1.706-0.269,4.666,0.089,5.833,0.448c1.166,0.359,3.858,5.652,3.588,6.729
		c-0.269,1.076-0.985,4.374-1.614,4.834c-0.628,0.46-5.295,1.088-6.729,2.434c-1.436,1.346-2.333,0.808-2.333,0.808l-8.883-1.525
		c0,0,7.24-1.213,8.704-3.05C148.039,183.969,141.399,179.035,141.399,179.035z"/>
	<path d="M90.527,202.276c0,0,3.678,5.022,4.486,6.279s0.808,4.397,2.153,5.922c1.346,1.525,9.331,8.793,15.521,10.229
		c6.191,1.436,13.369,4.755,14.355,6.55c0.987,1.795,0.808,5.653-0.897,9.511c-1.705,3.857-5.204,5.294-8.613,5.742
		s-6.819-2.422-7.447-2.602c-0.628-0.181-5.204-0.444-7.716,2.648c-2.512,3.093,0.898,3.9,1.167,3.721
		c0.269-0.18,4.806-2.96,6.126-2.691c1.32,0.27,3.384,2.469,3.384,2.715s-4.486,4.373-2.333,5.091
		c2.153,0.718,5.563-5.204,5.563-5.204s1.974-0.628,2.333-0.09c0.359,0.539,0.987,4.485,3.409,3.589
		c2.423-0.896,2.998-8.074,5.626-9.51s7.922-6.371,8.102-7.089c0.179-0.717,3.081,3.141,3.081,3.141s-5.414,3.947-6.759,5.742
		s-1.435,6.461-1.256,7.896c0.179,1.435,0.09,3.229-3.409,4.575s-7.088,2.781-8.793,2.691s-3.499-3.32-4.486-3.051
		c-0.987,0.27-7.357,1.525-9.421,0.629c-2.063-0.897-1.166-3.858-1.166-3.858s-7.178-0.09-8.165-2.603
		c-0.987-2.512,0.089-10.677,5.293-12.201c5.204-1.525,9.869-1.076,12.471-0.359c2.602,0.718,6.999-0.001,8.254-1.705
		c1.256-1.704,3.589-5.019-0.807-6.277s-11.036-1.258-14.984-2.155s-9.869-3.231-11.933-10.14
		C91.604,212.504,90.527,202.276,90.527,202.276z"/>
	<path d="M136.913,225.872c0,0,6.21,4.218,7.994,5.474c1.786,1.256-0.079,6.819,0,7.088c0.082,0.27-1.355,0-1.355,0L136.913,225.872
		z"/>
	<path d="M149.205,229.73c0,0,2.782-1.704,2.603-2.063s-0.27,3.797,0.448,4.546c0.718,0.748,1.256,2.273,1.347,3.08
		c0.089,0.808,0.987,7.179,0.627,7.717c-0.359,0.537-1.435,1.525-3.051,2.063c-1.615,0.538-11.125,3.498-11.125,5.023
		c0,1.526-0.18,2.603,2.422,2.962c2.602,0.358,5.383-2.513,5.383-2.513s1.885,1.947,1.885,2.543c0,0.597-1.615,3.647-0.808,4.725
		c0.808,1.076,2.602,0.807,3.947-2.153c1.346-2.961,0.897-4.037,2.513-3.947c1.614,0.089,3.499,3.319,5.204,3.678
		c1.704,0.358,3.05-2.243,2.691-3.409c-0.359-1.166-3.948-7.878-5.024-8.964c-1.077-1.085,5.562-11.283,6.011-10.805
		s4.845,2.362,4.845,2.362s-5.203,6.567-4.845,8.442s3.41,1.875,4.307,6.182c0.896,4.308,0.629,8.883-2.87,10.678
		c-3.5,1.795-6.191-0.539-6.551,0c-0.358,0.539-2.87,4.486-7.626,3.769c-4.755-0.718-7.089-4.308-7.985-4.487
		c-0.896-0.179-5.832-1.794-7.088-3.588s-3.501-1.974-1.84-6.011c1.661-4.038,4.532-5.475,7.583-6.102
		c3.05-0.628,5.922-1.704,6.37-2.602S149.205,229.73,149.205,229.73z"/>
	<path d="M161.227,217.888c0.539-0.359,2.782,4.127,2.872,5.293c0.089,1.167-0.359,4.037-0.719,4.845
		c-0.358,0.808-2.513,2.064-2.78,3.141c-0.271,1.077-1.437,3.768-1.437,3.768l-2.602-4.126c0,0,3.512-6.281,3.773-7.627
		C160.6,221.836,161.227,217.888,161.227,217.888z"/>
	<path d="M227.263,120.535c-6.101-7.088-17.674-7.357-26.467-4.844c-8.793,2.512-12.472,12.561-13.907,23.417
		c-1.437,10.855,2.423,30.236,3.857,35.799c1.437,5.563,1.795,11.483-2.87,18.393c-4.665,6.91-11.485,8.523-12.562,8.613
		c-1.077,0.089-11.205-2.423-11.205-2.423s6.719,10.68,6.54,17.856c-0.18,7.177-3.77,12.651-3.77,12.651l7.358-0.448
		c0,0,2.153-1.077,4.037-4.577c1.884-3.499,3.857-8.612,3.857-8.612s2.871,1.436,6.102,0c3.23-1.435,13.278-15.073,14.355-18.482
		c1.076-3.409,0.09-14.087-0.359-16.24c-0.448-2.153-4.935-19.291-6.101-32.121c-1.167-12.83,4.396-24.763,6.37-26.464
		c1.975-1.702,12.022-2.785,13.549-2.605c1.524,0.179,6.369,2.153,9.778,7.806c3.409,5.652,1.795,13.099,0.719,17.675
		c-1.077,4.576-5.294,4.307-6.102,4.665c-0.807,0.359-6.19-2.422-5.832-6.549s2.333-3.679,3.679-3.59
		c1.347,0.091,2.423,2.513,2.423,2.513l3.229-4.396c0,0-1.167-2.513-5.742-3.141c-4.576-0.629-10.317,3.141-9.779,10.139
		c0.538,6.997,11.484,16.508,16.957,14.086c5.474-2.422,8.523-11.484,9.151-18.214C235.16,134.711,233.365,127.624,227.263,120.535z
		 M191.825,204.517c-3.858,4.844-10.489,8.86-12.651,8.254c-0.581-0.164-1.975-5.384-1.975-5.384s6.999-0.807,10.14-2.96
		c3.14-2.153,6.549-8.165,6.549-8.165S195.682,199.672,191.825,204.517z"/>
</g>
</svg>
