<svg xmlns="http://www.w3.org/2000/svg" width="200" height="200" viewBox="-15 -180 540 540" preserveAspectRatio="xMidYMin slice">
  <path d="M51.714 54.779h7.9v3.16h-7.9zm-36.607 8.164c.022.067.135.032.284-.046-.2-.032-.306-.021-.284.046z"/>
  <path d="M104.912 110.348l3.951-7.901s-16.592-8.955-22.649-15.274c-1.388-1.447-20.542-15.274-21.068-16.328-.527-1.053 10.797-3.16 10.534-4.741-.263-1.58.527-2.107 0-2.897s-6.584-2.897-6.848-4.214 0-10.535 0-10.535-14.748-.526-17.908-1.053c-3.161-.527-1.317-10.27-1.317-12.462 0-2.191 7.9-4.128 8.954-9.396 1.054-5.267-3.16-14.222-16.064-14.222-12.905 0-22.122 8.955-21.332 17.119.79 8.163 16.856 6.417 18.961 6.319 2.608-.122 1.054 10.271 1.054 13.167 0 2.897-15.802 1.58-15.802 1.58s.263 2.107 0 3.161c-.241.965-8.395 9.395-9.987 10.226 2.13.344 15.736 5.929 15.255 6.894-.527 1.053-6.058.527-6.058.527l.263 13.167S8.787 111.928 7.47 112.982c-1.317 1.053-7.47-.264-7.47-.264v4.741s4.836 0 5.89.264c1.054.263 2.107 9.216 2.107 9.216l5.267-2.37s-1.316-6.32-1.58-7.373c-.263-1.054 1.844-5.004 3.892-6.584 2.049-1.58 8.486-12.905 8.486-12.905s.263 14.222.263 16.856c0 2.632.79 21.857.79 21.857s9.481-1.315 12.905.264c1.219.563 2.107 23.44 1.844 25.283-.264 1.844-8.954 1.581-13.168 1.581s-11.061-.79-11.061-.79-.527-1.054 1.58 6.057c2.107 7.111 1.317 9.744 2.107 10.271.791.526 28.969-2.37 28.969-2.37s-.79-16.854-.79-21.068 2.37-19.227 2.37-19.227l3.687-.263s2.896 4.214 2.896 7.472c0 3.259.264 16.231.264 19.655s.79 15.801.79 15.801L82 176.977s-1.354-12.929-2.371-14.221c-1.5-1.91-14.639-1.317-14.639-1.317s-1.162-7.638-1.162-12.378c0-4.741.527-8.955 1.162-10.535.635-1.581 10.953-2.634 10.953-2.634l1.844-23.701c2.634 1.581 17.645 12.904 17.645 12.904l5.268-6.32s-18.962-13.958-23.175-16.856c-7.8-5.364-15.241-20.295-15.241-20.295s5.232 2.388 13.134 9.234c7.899 6.848 29.494 19.49 29.494 19.49zM67.251 60.674c3.16-1.216-.726 2.753 2.634 3.508s-.264 3.238-2.634 3.502c-2.37.263 0-7.01 0-7.01zM28.275 62.88c-1.317.063-5.004-1.58-4.477-2.208.526-.626 2.897-2.207 2.897-2.207 2.107.001 2.897 4.352 1.58 4.415zm12.363-41.547c-7.097 3.688-4.463 8.955-4.463 8.955s-6.583.525-6.057-6.321c.527-6.848 7.637-7.111 10.007-7.111 2.371 0 10.534.008 11.061 6.72s-3.452-5.93-10.548-2.243zm2.385 2.897c2.896-.79 3.951 1.844 0 4.478-2.666 1.776-2.897-3.687 0-4.478zm-.263 149.586s-17.119 1.844-16.855 1.054c.263-.79 0-5.793 0-5.793s11.587-2.106 12.904-2.106h3.951v6.845zm32.129-5.266c0 1.315 1.053 4.212 0 4.476-1.054.264-12.114 1.054-11.588 0 .527-1.054 0-6.056 0-6.056s11.588.263 11.588 1.58zm-10.798-47.404c3.16-.527 0-24.757 0-24.757l4.477 5.794v26.336s-38.187 4.739-37.396 0c.79-4.74 1.58-50.827 2.37-52.407.791-1.58 17.119-1.054 17.119-1.054l5.004 8.69-16.855 2.633s.527 16.854 0 23.702 0 13.169 0 13.169 22.122-1.58 25.281-2.106zM45.919 93.229s8.166-.791 9.745 0c1.58.79 3.16 22.123 1.843 21.86-1.317-.264-12.378 1.849-11.588.002s0-21.862 0-21.862zm12.026-22.911c-2.544.526-6.231-1.054-6.231-1.054l2.717-3.161h7.027c0 .001-.97 3.688-3.513 4.215zm3.776-7.34c-1.054.129-17.645-.161-17.645-.098s.79 6.121-.263 7.174c-1.054 1.054-7.638-.513-8.165-2.364-.527-1.85-2.897-8.435-1.054-9.225s10.797-1.053 10.797-1.053l-.526-2.634-10.962.527.691-2.634c3.424 0 26.599-1.844 27.389 0 .792 1.844.792 10.178-.262 10.307zm21.069-49.81l20.542 2.107v3.688s-11.587 1.317-11.587 2.37c0 1.054.527 8.165 1.317 8.691s10.271 0 10.271 0 1.581 6.583 1.581 7.373-22.122 0-22.122 0 .524-21.331-.002-24.229zm49.774 1.317c-1.317.264-23.702 1.317-23.702 1.317.526 4.214 0 21.946 0 21.946h23.702c-.574-2.72 1.317-23.526 0-23.263zm-4.477 16.066s-9.744 1.317-10.534 0-2.634-8.428 0-8.428h10.534v8.428zm8.954-14.485h8.955s-1.054 14.222 1.58 14.485c2.634.263 8.691 0 8.691 0l1.053 7.197s-17.382.879-18.172 0c-.79-.877-2.107-21.682-2.107-21.682zm37.397 0h-12.641c1.054 4.214 0 22.073 0 22.073h13.432s3.16-1.269 3.95-3.639c.791-2.371 5.267-7.397 5.267-7.397l-10.008-11.037zm-1.317 16.329c-1.054.264-5.53 2.106-6.32-4.214 0 0 .298-5.654 2.633-6.321 3.688-1.054 6.848 3.375 7.111 5.243.263 1.868-2.371 5.028-3.424 5.292z"/>
  <path d="M82.79 43.455l6.321 1.317 4.74 13.167 2.634-4.477 5.53-.264 4.741 4.741 1.053-14.484 7.11 1.053s-4.477 21.069-3.95 22.122c.526 1.054-5.004 0-5.004 0l-7.11-5.268-3.424 6.848h-9.48c-.001 0-1.845-21.858-3.161-24.755zm54.251 23.702c-1.844-.79-4.477-23.702-5.53-23.702h-12.378c0 2.897-1.58 24.054-1.58 24.054l3.399-.879 2.658-6.584 4.599 1.316 1.458 5.794c0 .001 9.218.791 7.374.001zm-10.798-14.485v-4.214l3.688 4.214h-3.688zm11.042-9.217h5.287s5.793 9.218 6.32 11.324c.527 2.107 4.477-11.324 4.477-11.324h7.11s-7.11 21.332-7.374 22.122c-.263.79-10.271 0-10.271 0l-5.549-22.122zm26.882 0s18.435-.263 20.278-1.317 0 5.266 0 5.266l-11.324 1.053-1.844 3.161 13.168 1.054v3.687h-12.641s-2.107 3.161-.527 3.424c1.58.264 13.987 0 13.987 0v6.146h-21.098s.79-2.634 0-10.446c-.789-7.816.001-12.028.001-12.028zm-56.358 44.771s10.797-10.007 18.171-11.324 16.329 3.951 15.275 12.377c-1.054 8.426-5.57 9.216-3.97 10.797 1.6 1.58 11.344 5.531 12.661 14.749 1.317 9.218-11.324 9.218-11.324 9.218s4.115 15.801-5.58 20.803c-9.695 5.005-19.965-1.316-21.282-2.633s-6.32 6.584-12.905 6.848c-6.584.263-15.801-9.219-16.065-19.752-.263-10.534 0-8.427 0-8.427l3.688 1.58s-1.053 16.327 13.694 16.854c14.748.526 8.691-7.9 8.691-7.9l6.057.527s7.111 12.377 14.748 5.266c7.637-7.11-3.95-15.273-3.95-15.273l3.16-5.004s11.156 8.882 11.851 1.581c1.054-11.062-15.538-12.642-15.538-12.642l-.79-5.268s11.587-5.529 4.477-12.377-18.435 3.686-18.435 3.686l-2.634-3.686z"/>
  <path d="M297.957 70.58c-7.9 1.317-14.358-.894-14.358-.894l3.297 12.48s-13.431 4.478-15.802 5.004c-2.37.527-48.983 10.798-52.671 9.745-3.687-1.054-22.122.527-29.759 1.844-7.637 1.317-16.855 2.897-16.855 0s-5.267-11.588-5.267-11.588l-6.063 1.053s5.009 8.165 3.336 10.008-11.231 2.37-11.231 2.37l.263 8.428s.264 1.053 2.634 5.266c2.371 4.212-2.897 13.167-2.897 13.167s5.043 4.932 4.736 7.111c-.594 4.208-8.438 3.951-8.438 3.951l-4.198 2.37s10.802 7.092 1.316 12.642c-9.486 5.549-12.958-1.844-12.958-1.844l-8.637 5.005s-3.453 15.009-17.645 11.323c-11.698-3.038-10.797-14.747-10.797-14.747l-10.271-4.209s2.107 9.213 4.74 15.269c2.633 6.057 11.061 14.484 24.487 11.324 13.427-3.161 18.123-10.797 18.123-10.797s8.218 4.557 15.84-3.951c5.796-6.47 2.912-5.793 8.438-5.529 0 0 4.477 13.167 19.229 13.957 10.938.586 17.645-2.106 26.599-6.584s5.004-17.381.79-19.127c-4.214-1.745-11.061 4.116-13.694 5.438-2.633 1.322-6.848-2.376-11.061-1.322s-7.111 6.321-12.114 8.955-11.588-5.531-12.378-5.795c-.79-.263 1.053-3.687 2.629-5.794 1.576-2.107 4.837-2.897 7.905-9.481 3.068-6.583-1.41-12.377-1.41-12.377s59.875-2.371 84.103-10.368c15.38-5.078 46.614-14.651 46.614-14.651l5.794 7.375s7.637-8.955 8.164-10.371c.527-1.415 18.698-27.025 18.698-27.025s-21.331 1.052-29.231 2.369zm-120.354 89.014c.79-1.315 4.79-3.949 7.662-3.949 2.873 0 1.029 1.58 2.609 3.95 1.581 2.369 5.267 1.58 7.374 0s1.317-3.95 1.317-3.95-1.844 1.316-3.688 1.054c-1.843-.264-1.053-4.478 2.371-5.268s6.75.057 6.584 6.058c-.166 5.999-13.704 8.426-17.387 9.217-3.683.79-10.793-3.951-12.637-3.161.001-.001 5.005-2.635 5.795-3.951zm124.041-67.156c-2.107 1.054-3.687-3.424-3.687-3.424s-27.653 14.749-70.58 21.07c-42.927 6.32-63.562 5.003-63.562 5.003s-2.804-10.27 1.937-8.953c4.74 1.317 15.802-.264 22.122.263 0 0 40.387-6.152 53.461-6.321 20.278-.264 53.988-14.486 53.988-14.486l-2.896-6.583s19.225-5.268 20.805-4.741c1.58.527-9.481 17.119-11.588 18.172zM266.887 0l17.909 1.317v3.424s-7.11.79-8.954 2.897c-1.844 2.107-2.108 1.846.789 3.688 2.897 1.843 8.165 0 8.165 0l1.317 17.116s-19.226-1.099-19.226-1.338V23.44l9.613-.791 1.711-6.583h-11.325V0zm24.493 2.37h8.69s5.268 11.852 7.375 11.852-1.844-11.852 0-11.852h7.637s-.863 6.345 0 12.113c1.221 8.166 1.053 10.976 1.053 10.976l-8.69.658s-8.954-12.945-9.481-14.792c-.527-1.844.79 17.116.79 17.116l-7.374-1.338s1.053-16.568 0-24.733zm45.824 24.733c-.79-1.868 0-22.889 0-22.889h-16.328c.263 5.268 0 22.889 0 22.889s17.118 1.865 16.328 0zm-10.015-6.825c-2.1 0-5.012-9.744 0-10.007 2.9-.153 5.538 2.108 5.538 5.794 0 3.686-3.438 4.213-5.538 4.213zm15.282-16.064l3.686 1.317 4.478 16.591s5.004-9.217 3.424-8.954c-1.581.264 4.74 0 4.74 0s2.897 7.9 4.478 7.11 2.896-14.484 2.896-14.484l7.639.527-6.585 21.611h-6.32s-4.741-4.493-4.741-5.81-4.478 6.319-4.478 6.319l-7.636-1.338c-.001 0-1.581-20.519-1.581-22.889zM266.887 60.31l1.054-26.864h9.481s3.424 4.391 5.004 4.302c1.58-.088 3.687-4.302 3.687-4.302h9.481l1.053 24.493h-5.267l-1.844-18.172s-5.003.79-5.793 8.428l-3.161.527-7.11-8.428s-.527 14.749.263 17.646c.79 2.896-6.848 2.37-6.848 2.37zm47.931-25.811h-11.057l-2.111 25.848h3.951l1.58-7.939s4.74-.527 5.53-.263c.79.263 1.317 8.202 1.317 8.202h3.687l-2.897-25.848zm-7.637 8.956l2.501-5.707 1.449 5.707h-3.95zm12.115-8.956h17.935l-1.08 7.521s-8.706.91-8.961 1.435-1.546 4.739 1.864 5.793c3.411 1.053 6.833 0 6.833 0l-.263 8.691h-13.431l-2.897-23.44zm23.175 0h7.9s-1.844 4.214 0 5.004c1.844.791 6.058.791 7.77 0 1.712-.79 1.185-5.004 1.185-5.004h6.585s-.527 22.989 0 25.848c.526 2.858-6.585 0-6.585 0l.264-12.289s-8.164 1.189-9.218 1.189-2.898 10.348-2.372 11.1c.527.752-6.846 0-6.846 0s2.634-21.37 1.317-25.848zm28.707 1.054h7.899s-1.316 12.115-1.054 15.539c.264 3.424 1.054 10.526 1.054 10.526h-9.743s2.896-11.316 2.896-16.583c0-5.268-1.052-9.482-1.052-9.482zm12.903 0h7.373l8.955 14.485V35.553l5.268-1.054v27.118h-6.058s-6.058-11.325-8.165-13.033c-2.106-1.707-.263 13.033-.263 13.033h-7.11s1.054-7.637 1.317-13.559c.263-5.921-1.317-12.505-1.317-12.505zm26.863-1.054s16.591-.263 16.854-1.053c.263-.791-.264 3.33 0 4.693.263 1.364-7.825.047-8.39 1.101s-1.881 3.687 2.333 5.531c4.213 1.844 6.133 0 6.133 0v3.813s-9.557.137-9.557 1.981c0 1.843-.526 3.778 2.37 4.918 2.896 1.139 7.187.876 7.187.876v3.988h-16.931c.001 0 .791-22.424.001-25.848zM211.292 158.072s1.844.019 3.976.03"/>
  <path d="M303.495 153.6c-2.384-3.974-7.65-1.887-7.75-2.669-.173-1.362-2.384-6.869-11.326-8.459s-10.234 4.271-13.612 4.271c-5.567 0-4.173-3.277-9.836-3.675-5.663-.398-10.83 7.054-10.83 7.054-6.856 1.192-6.956 1.69-9.936 4.571-1.355 1.309-1.392 4.968-1.392 4.968s-8.743-4.67-10.929-5.267c-2.652-.723-5.067-4.272-5.067-4.272s-.596 7.85-1.192 7.949c-.336.055-2.995.048-5.763.03l-3.779.343 1.395 5.688h8.545c1.888 2.979.894 4.571 1.291 4.272.397-.298 9.936-8.446 9.936-8.446 1.292 0 2.882 1.173 2.882 1.173s4.57 6.677 7.551 9.359c6.426 5.783 14.981 3.079 14.981 3.079s9.958 5.863 17.508 6.458c7.551.597 14.406-6.656 14.406-6.656s5.564 1.293 12.32-4.668c5.11-4.509 2.981-11.128.597-15.103zm-10.035 12.022l-6.26-2.484s-5.762 6.957-11.128 8.049c-5.365 1.093-10.432.299-12.519-3.378-2.087-3.676-3.081-4.272-3.081-4.272s-7.128.884-10.233.695c-3.279-.198-4.246-6.912.325-8.004 4.571-1.093 7.72.827 7.72.827s1.891-7.328 6.164-6.833c4.272.497 6.756 4.571 6.756 4.571l3.279.199s4.372-7.751 9.042-6.358c4.669 1.39 3.08 6.259 3.08 6.259l4.571 2.881s6.855-4.272 8.743 1.192c1.887 5.464-6.459 6.656-6.459 6.656zm109.061-71.894c-3.866-7.913-9.538-5.168-12.022-4.969-2.484.199-4.968-6.879-12.42-6.856-6.873.021-9.638 4.671-12.141 5.466-2.504.794-6.249-.126-9.22.695-3.899 1.076-4.499 5.981-5.493 5.981-.991 0-9.312.081-12.889 2.764s-7.65 8.147-7.749 10.531c0 0-6.656-1.889-8.744 6.36-1.163 4.591 5.265 8.846 5.345 9.84.081.993-.081 1.489-.975 6.657-.894 5.165.975 10.531.975 10.531s-3.459 1.49-5.446 1.471c-1.986-.02-7.949 0-7.949 0l4.173 6.278-4.868 5.465c1.292.203 4.67 2.679 4.67 2.679l3.775-3.974s1.888 1.291 3.378 1.987c1.49.694 4.77 3.677 4.77 3.677s.297-13.612.297-14.109 2.981.994 4.67.298c1.689-.695 5.962-2.981 6.955-2.981.994 0 5.068 2.98 11.931 2.116 6.863-.865 9.034-4.501 10.128-4.601 1.093-.1 4.867 3.166 12.816-2.583 5.203-3.762 4.371-11.525 4.272-12.022-.1-.498 3.378-.595 5.166-2.151 1.789-1.554 2.683-6.095 3.08-6.294.397-.199 2.583.796 5.465-1.49 2.883-2.286 2.484-9.142 2.484-9.142s8.722-5.166 5.566-11.624zm-28.116 26.825c-.896 1.49.597 9.339-2.087 11.426s-7.924 2.272-10.035.994c-3.278-1.987-7.948 5.166-9.538 5.961s-2.875-1.019-3.775-4.174c-.253-.884-7.65-.199-8.147-1.986-.497-1.789-.895 5.266-3.974 5.663-.99.129-4.968.696-3.278-5.464 1.689-6.16 8.446-7.651 8.446-7.651l-1.193-5.215s-6.458 1.539-8.942.446-3.775-6.06 0-9.042c3.775-2.98 4.571-.396 6.657-1.588 2.086-1.193 1.093-7.452 4.868-9.936 3.776-2.484 11.726 0 11.726 0s3.771-4.768 7.649-4.77c7.65-.005 10.731 6.756 11.823 8.644 1.093 1.888 7.53-1.705 9.24 7.055.794 4.073-8.545 8.147-9.44 9.637zm19.971-16.692c-1.193 1.391-1.589.894-2.285 0-.695-.894-1.689-3.974-5.565-4.968-3.874-.995-4.769-1.092-5.065-1.292-.299-.199-5.037-5.798-8.148-7.65-1.07-.637 5.765-2.683 8.546.794s3.478 2.683 4.271 2.683 5.599-4.988 8.048.078c1.788 3.697-.994 4.093-.994 5.286-.001 1.195 2.385 3.679 1.192 5.069z"/>
  <path d="M345.591 149.867c-3.975 2.583.597 5.267 2.783 6.358 2.186 1.094 7.849 0 5.265-3.975-2.582-3.974-6.891-3.135-8.048-2.383zm1.491 3.577c-.298-2.384 1.374-1.865 2.08-1.788 1.094.119 2.292.497 2.193 1.788-.1 1.291-3.975 2.384-4.273 0zm.198 17.288c2.781.1 5.664-6.458 1.881-8.148-3.783-1.688-5.2.093-5.856 1.094-1.886 2.881 1.194 6.955 3.975 7.054zm-.429-7.055c1.866-1.008 2.119 2.98 1.225 3.776-.895.795-4.539-1.987-1.225-3.776zm-1.366 10.831c-3.585 2.284-1.186 6.358 1.544 7.648 2.729 1.293 5.219-2.483 4.624-5.065-.596-2.584-5.273-3.155-6.168-2.583zm3.677 4.867c-.788.695-4.394-.589-1.453-2.186.851-.461 2.24 1.491 1.453 2.186zm14.711-25.832c.895-1.689 1.094-4.671-1.49-5.961-2.584-1.293-4.381 1.072-4.968 1.652-1.328 1.317-.497 3.215.739 4.806 1.237 1.588 4.824 1.192 5.719-.497zm-2.781-3.776c.902-.414 1.589.896.895 2.583-.697 1.691-3.457-1.408-.895-2.583zm-2.938 12.119c-2.439 3.177-.342 4.871 2.453 5.707 2.797.835 5.947-3.319 3.871-5.707s-5.098-1.595-6.324 0zm1.869 3.183c-.521-1.789-.709-1.49 1.123-2.584.99-.592 1.931.327 1.831 1.556-.097 1.226-2.433 2.816-2.954 1.028zm15.773-18.978c-.794-2.683-4.954-1.46-5.564-.597-1.19 1.69-1.291 4.472 1.79 5.627 3.08 1.158 4.568-2.348 3.774-5.03zm-1.391 1.811c-.299.871-3.94.377-1.672-1.712.577-.529 1.97.839 1.672 1.712zm41.758-52.143c0-.226 1.204-7.742 1.204-7.742s2.328 1.879 4.583 2.104 6.689-.075 10.071 3.757c3.383 3.833 8.191 15.558 9.02 17.662.826 2.104 1.352 6.915 1.427 7.065.075.151 5.637-.226 6.162 0 .527.226-3.757 5.037-4.133 8.041-.375 3.007-2.405 7.667-2.405 7.667s-4.885-4.961-7.966-7.667c-3.081-2.705-5.336-4.66-5.336-4.66s5.712-1.58 6.237-1.88c.525-.299-1.277-11.271-3.006-14.202-1.728-2.932-5.561-6.614-8.041-7.065s-7.817-3.08-7.817-3.08zm28.409 5.185l11.425-1.652v2.78s-9.695 3.157-10.221 4.133c-.527.977-1.204-5.261-1.204-5.261zm5.112-17.587l7.365-5.861 6.089 8.869s-3.008 3.305-3.008 4.208c0 .901-10.446-7.216-10.446-7.216zm15.256-8.342s7.213-1.278 7.59-1.278c.376 0-.226 8.642 0 9.62l-4.584 1.052s-1.352-7.965-3.006-9.394zm19.767 13.002s2.705-8.116 7.063-8.643l4.435 6.764s-7.516 3.232-7.892 4.133c-.375.903-3.606-2.254-3.606-2.254zm8.267 11.649l9.394-.375s.45 6.46 0 7.514c-.224.526-7.771-1.352-9.548-1.961-.681-.232.003-2.849.154-5.178zm-2.18 14.581l9.095 6.689-2.344 3.155-8.554-6.763m-6.99 6.763v7.667s-4.66 1.728-4.66 1.427v-10.597s3.982 1.579 4.66 1.503zm-17.061-6.688s-6.613 10.031-6.613 10.501c0 .472-6.389-4.339-6.389-4.339s3.983-1.127 4.472-1.878c.488-.751 6.05-6.765 6.05-6.765l2.48 2.481zm18.414-25.478c-5.787-3.08-9.215-2.564-11.799-1.491-4.735 1.967-9.396 3.972-9.32 13.667.075 9.695 14.729 10.146 19.767 7.892 5.035-2.256 7.14-16.986 1.352-20.068zm-8.418 15.407c-3.833.151-11.725-7.666 1.729-12.55 2.261-.822 5.261-.979 5.336 5.485s-3.232 6.915-7.065 7.065z"/>
  <path d="M493.567 208.489c.21.629 12.891-3.773 12.891-3.773v-9.433s-4.924 3.354-8.913 5.659-7.751-.629-8.554-1.029c-.806-.4-2.154-8.195-2.154-8.195s-31.99-3.264-36.553-1.048c-3.887 1.888-14.578-30.189-19.191-36.897-4.612-6.708-20.148-50.972-20.148-50.972l-3.537-1.442s-19.917 27.885-24.738 40.841c-4.821 12.954-27.883 45.325-29.35 45.744-1.468.419-35.849-1.887-35.849-1.887s-5.869 13.413-7.127 13.838c-1.258.422-5.661-6.294-5.661-6.294l-9.853-1.677s-6.499 8.175-16.143 7.966c-9.644-.21-15.723-11.529-15.723-11.529l-9.731-1.258s-6.202 10.69-17.523 10.341-15.933-8.874-15.933-8.874l-11.321-.419s-3.144 8.175-15.304 7.756c-14.471-.498-16.98-9.017-16.98-9.017l-5.87.629s-2.936 6.29-16.563 9.435-18.658-9.854-18.658-9.854l-11.95-2.097s-7.127 4.402-11.74 6.919c-4.612 2.518-13.208 1.678-13.208 1.678l-5.451-8.806s-24.948-1.887-42.138 0-50.586 0-50.586 0L0 196.953s80.992-4.817 82.673-3.979c1.681.838 10.688 19.288 12.575 21.174 1.887 1.887 19.287 32.495 19.287 32.495s76.728-.21 83.017.209c6.29.419 68.135-.838 76.94-1.048s32.705 3.773 32.705 3.773 14.885-52.202 15.933-52.202 37.478-2.303 37.478-2.303 19.542-29.561 24.993-36.628c5.45-7.066 21.385-35.856 21.385-35.856s14.254 27.2 16.979 40.408c2.725 13.207 17.191 36.688 17.191 36.688s14.466-1.887 19.078-1.048 17.106 1.468 17.106 1.468 8.89 25.367 13.114 34.59c4.225 9.224 5.75 17.821 5.75 17.821l8.684-5.241c-3.354-2.935-11.321-26.415-10.449-24.738.872 1.678 12.019-3.354 12.019-3.354s-1.15-10.693-1.15-9.227c0 1.468-11.53 5.452-11.74 4.403-.21-1.047-.21-6.498-.001-5.869zm-239.2-13.209s3.81 4.555 6.08 5.66c1.887.919-6.819 7.151-9.643 7.549-8.595 1.211-11.531-3.146-11.531-3.146s13.749-5.241 15.094-10.063zm-43.075 3.773s2.196 2.048 6.598 2.806c4.402.759 6.918.969 6.918.969s-2.3 5.776-11.528 6.872c-9.228 1.095-13.629-5.825-13.629-5.825l11.641-4.822zm-39.523-.629c.419-2.097 4.003 5.345 10.063 4.192 3.983-.758-8.75 7.044-14.466 7.081-7.757.053-17.324-2.888-17.324-2.888s21.307-6.287 21.727-8.385zm-67.297 5.661s22.432-8.596 22.642-9.854c.209-1.258 4.156 3.432 7.966 4.926 1.78.698-8.805 9.328-12.998 10.168-4.193.84-10.902 0-10.902 0s-8.956-4.37-6.708-5.24zm194.131 31.658s-172.33 2.725-176.522 0c-4.192-2.726-15.537-16.145-13.219-17.192 2.318-1.048 6.72.839 13.219-.629 0 0 11.251-6.34 13.2-11.319.847-2.166 10.49 13.206 27.472 11.319s27.463-8.452 28.302-8.105c.839.35 12.578 9.266 19.288 8.267 6.709-.999 20.964-9.479 23.48-8.385 2.516 1.097 2.363 6.751 14.675 8.463 7.337 1.019 18.868-8.509 19.707-8.461.839.047 12.644 10.842 17.4 11.995 6.919 1.677 18.239-2.726 18.239-2.726l-5.241 16.773zm7.432-22.643l-5.545-4.661s-4.613 3.194-9.644 2.984c-5.032-.21-6.918-3.563-6.918-3.563s16.772-3.147 17.401-3.985 5.87 3.985 5.87 3.985l-1.164 5.24zm-179.343 45.698c-4.193-.42-12.369-2.1-12.369-2.1s.209 5.872 1.677 5.243c1.467-.628 12.999 1.258 12.999 1.258s3.354 12.787-3.353 11.529-5.243-3.772-5.243-4.676-4.193-1.403-4.612-.06c-.419 1.347-1.125 9.122-.419 11.024 1.094 2.948 10.692 2.728 13.417 1.677 2.725-1.048 5.66-2.516 7.547-5.24 1.888-2.726-1.048-18.656-1.048-18.656s-4.403.42-8.596.001zm35.221 24.609c.057-.008.035-.013-.021-.019.006.006.015.022.021.019zm-3.984-23.142c-1.048-1.048-14.046-1.887-14.046-1.887.629 1.887-1.048 24.107-1.048 24.107l5.87.921 1.887-10.354h3.983c-.838 2.309 1.048 10.354 1.048 10.354s5.713-.066 6.269-.019c-.656-.356-2.925-22.084-3.963-23.122zm-9.014 7.547v-5.241c1.048 0 4.822 1.468 5.241 3.773.419 2.306-5.241 2.097-5.241 1.468zm35.639 3.082s-.419-3.082-1.258-5.493c-.838-2.41 0-7.022 0-7.022-1.467-1.467-16.271.027-17.401 0-1.653-.04 0 25.028 0 25.028s8.177.13 7.548 0c-.629-.126 0-12.513 0-12.513h11.111zm-13.417-8.323c.26-1.445 6.289-.629 7.337 1.049 1.049 1.677-1.048 3.563-3.669 3.563-2.62 0-4.495-.016-3.668-4.612zm31.866-4.193l-14.885-.647c1.468 2.919.839 25.676.839 25.676h5.66s.629-5.952 0-7.21 1.887-2.726 2.662-1.258 3.208 7.127 3.208 7.127l5.953 1.341s-1.848-8.231-1.969-11.402c-.184-4.822-1.468-13.627-1.468-13.627zm-7.966 8.805s-.977-5.542 1.048-4.612c2.053.941 3.774 1.468 4.403 4.612s-5.451 0-5.451 0zm35.849-8.805h-3.984s.21 13.626-1.677 13.416c-1.887-.209-7.757-13.416-7.757-13.416l-6.499-.647s1.258 11.758 1.113 16.789c-.145 5.033 0 8.943 0 8.943l3.079-.057s-.209-12.87 1.468-12.513c1.677.357 10.063 10.543 10.063 10.543s7.547.21 6.918 0c-.628-.208-2.724-23.058-2.724-23.058zm10.057 0s-1.887 14.255-.402 15.093c1.485.839 10.465-2.55 12.688.42.322.43 1.341 2.096 1.341 3.356 0 1.258-12.369 1.258-13.627 2.097-1.258.838.838 4.119.838 4.119h17.278V268.58s-3.651.489-9.058 0c-5.407-.492-3.398-1.816-3.607-3.059-.209-1.241 12.666-2.951 12.666-2.951v-3.354c-.752.211-18.117-.838-18.117-.838zm30.656 15.093c-.163-3.354 6.755-3.418 6.755-3.418v-2.87s-9.108.209-8.898-1.782c.21-1.994 8.805-2.83 8.805-2.83s.209-3.354 0-4.192c-.21-.838-13.417 0-13.417 0s-.209 6.289.839 11.675c1.048 5.386-.839 13.354-.839 13.354s16.563-.29 16.353-1.338c-.209-1.048-2.842-7.549-2.842-7.549s-6.594 2.305-6.756-1.05zm31.818-3.418c-.629-2.58-4.612-11.675-4.612-11.675h-10.063v22.014h5.032s.209-2.516.419-4.824c.21-2.306 1.677-2.516 3.773-1.048 2.096 1.467 2.307 5.872 2.307 5.872h6.918s-3.145-7.759-3.774-10.339zm-5.45-2.87c-.21 1.048-4.192 0-4.192 0l1.257-4.612s3.144 3.561 2.935 4.612z"/>
  <path d="M347.166 214.95c-4.193-.42-12.369-2.1-12.369-2.1s.21 5.872 1.677 5.243 13 1.258 13 1.258 3.354 12.787-3.354 11.529c-6.706-1.258-5.244-3.773-5.244-4.676s-4.192-1.403-4.611-.06c-.419 1.347-1.125 9.121-.419 11.024 1.094 2.948 10.692 2.728 13.417 1.677 2.725-1.048 5.662-2.516 7.548-5.24 1.886-2.726-1.049-18.656-1.049-18.656s-4.402.42-8.596.001zm35.221 24.608c.057-.008.035-.013-.021-.019.007.006.016.022.021.019zm-3.983-23.141c-1.049-1.048-14.048-1.887-14.048-1.887.629 1.887-1.048 24.106-1.048 24.106l5.871.922 1.886-10.354h3.984c-.838 2.309 1.049 10.354 1.049 10.354s5.713-.066 6.267-.019c-.655-.357-2.924-22.085-3.961-23.122zm-9.015 7.546v-5.241c1.048 0 4.823 1.468 5.242 3.773s-5.242 2.097-5.242 1.468zm35.639 3.082s-.419-3.082-1.257-5.493c-.839-2.41 0-7.022 0-7.022-1.468-1.467-16.273.027-17.401 0-1.653-.04 0 25.028 0 25.028s8.176.129 7.547 0c-.629-.126 0-12.513 0-12.513h11.111zm-13.418-8.323c.261-1.445 6.289-.629 7.338 1.049 1.05 1.677-1.049 3.563-3.67 3.563-2.62 0-4.494-.016-3.668-4.612zm31.867-4.192l-14.884-.647c1.467 2.919.838 25.676.838 25.676h5.66s.629-5.952 0-7.21 1.887-2.726 2.663-1.258c.774 1.467 3.208 7.127 3.208 7.127l5.952 1.341s-1.848-8.231-1.969-11.402c-.185-4.823-1.468-13.627-1.468-13.627zm-7.967 8.804s-.976-5.542 1.048-4.612c2.054.94 3.775 1.468 4.404 4.612s-5.452 0-5.452 0zm35.85-8.804h-3.983s.209 13.626-1.678 13.416c-1.886-.21-7.757-13.416-7.757-13.416l-6.498-.647s1.258 11.758 1.112 16.789c-.144 5.033 0 8.943 0 8.943l3.08-.057s-.21-12.87 1.467-12.513 10.063 10.543 10.063 10.543 7.548.21 6.919 0-2.725-23.058-2.725-23.058z"/>
  <path fill="#E60012" d="M176.525 184.849s.434-9.197 0-9.604c-1.767-1.657-8.611-.993-8.611-.993s12.365-10.71 12.365-12.255 5.962 13.8 9.054 14.463c3.091.662-6.956-.002-7.619 1.213-.662 1.215-.662 7.177-.662 7.177h-4.527zm-.883 6.957h4.306v11.151l-4.306-.775m0 7.068l4.306.552s-.883 9.716 0 9.936c.883.221-5.741 0-5.741 0l1.435-10.488zm33.257-23.456s.434-9.198 0-9.605c-1.767-1.655-8.611-.994-8.611-.994s12.365-10.71 12.365-12.255 5.962 13.802 9.054 14.464c3.091.663-6.956 0-7.619 1.215-.662 1.215-.662 7.176-.662 7.176h-4.527zm-.883 6.956h4.306v11.151l-4.306-.773m0 7.066l4.306.552s-.884 9.717 0 9.938c.883.221-5.741 0-5.741 0l1.435-10.49zm36.509-23.455s.434-9.197 0-9.604c-1.766-1.657-8.611-.993-8.611-.993s12.365-10.71 12.365-12.255c0-1.546 5.962 13.8 9.054 14.462 3.091.663-6.956-.001-7.619 1.214s-.663 7.177-.663 7.177h-4.526zm-.883 6.957h4.306v11.15l-4.306-.774m0 7.066l4.306.553s-.884 9.715 0 9.936c.883.22-5.741 0-5.741 0l1.435-10.489zm34.04-27.798s.434-9.196 0-9.604c-1.766-1.655-8.611-.993-8.611-.993s12.365-10.71 12.365-12.255c0-1.546 5.962 13.802 9.053 14.463 3.091.663-6.956 0-7.618 1.214-.663 1.215-.663 7.176-.663 7.176h-4.526zm-.884 6.957h4.306v11.152l-4.306-.775m0 7.066l4.306.554s-.883 9.716 0 9.936c.884.221-5.741 0-5.741 0l1.435-10.49z"/>
</svg>
