<svg xmlns="http://www.w3.org/2000/svg" width="200" height="200" viewBox="-10 -90 235 235" preserveAspectRatio="xMidYMin slice">
  <path d="M128.569 89.91c-.446-2.726-3.798-9.249-6.791-14.476s-7.866-11.312-8.444-12.063c-.894-1.162-1.295 0-3.719-1.818-.76-.57-5.976-4.214-10.176-4.705s-8.534.313-9.159.402c-.625.089-3.931-5.139-4.021-5.361-.089-.225 3.395-2.994 3.842-3.217.447-.225 4.021.402 4.825.313s4.513-4.379 5.629-5.854 6.3-7.773 6.3-7.773 3.171.492 4.378 0 2.993-5.406 2.725-6.299c-.268-.895-2.367-.805-2.367-.805s4.289-8.131 5.271-13.091-1.697-7.773-3.262-10.499c-1.563-2.726-7.327-4.065-11.214-4.602s-13.492 2.502-16.53 3.529-7.06 4.557-7.104 4.781c-.044.223 2.368 1.652 2.368 1.652s-1.674 1.318-3.485 2.502c-3.351 2.189-9.248 3.262-8.042 2.859s8.891-9.472 9.114-10.678 0-4.289 0-4.289-1.43 2.367-3.887 4.423c-1.917 1.604-9.025 6.567-9.427 6.567S64.186 9.576 63.248 7.7s-4.29-3.618-8.311-5.138S43.5.64 38.585 2.562s-6.657 7.282-6.657 7.282l-7.416-1.116c-.399-.061-4.334-.447-4.646-.313s-1.876 2.145-2.055 2.458c-.179.313 5.093 4.422 6.344 5.004 1.251.58 4.691 1.116 5.719 1.205 1.028.09 1.206.18 1.072 1.609s-2.636 1.295-2.993 1.563-.491 1.072-.491 1.831c0 .76 4.155.76 4.467.85s.313 1.877 1.207 4.334 4.378 4.378 4.11 4.78-3.083.894-4.646 1.027-6.925.894-7.64.491c-.715-.401-2.055-4.78-2.413-5.182-.357-.402-3.619.313-4.244.313s1.251 2.502.983 2.993-1.385.715-1.653.938c-.268.223-3.351 1.563-3.664.76-.313-.805-1.161-3.619-1.385-4.066s-4.2-.357-4.512.045 2.055 5.004 1.876 5.719-1.743.715-2.591 2.502-.224 7.059 2.77 7.595 8.086.805 8.533 1.073c.447.268 1.698 3.217 1.966 3.529s.313 10.097.313 10.097-7.729-3.306-14.788 2.323-7.104 12.376-4.78 22.652c2.323 10.275 8.801 17.289 10.142 18.317s6.389 8.399 14.52 11.348 9.919 3.128 16.576.269 6.612-7.774 6.746-11.17-1.519-10.142-1.608-10.633 1.072-.849 1.34-.76.76 2.011 2.1 5.183.759 8.846.134 10.32-4.512 8.489-4.512 8.489 4.646-2.637 5.987-4.2 2.502-8.757 1.385-13.627-4.467-9.561-4.021-9.561 3.797-.134 5.361.446c1.564.582 3.261.983 7.282.581s6.835-3.038 7.64-3.842c.57-.569 5.763.045 6.433.089.67.045 1.162 2.994 2.055 3.887.894.895 1.037 5.866 9.66 13.462s15.405 9.458 23.179 7.537c7.774-1.921 9.204-8.132 10.142-13.627s.402-11.661.625-12.376c.224-.715.715-1.607 1.028-1.385.313.225 3.172 8.578 2.859 11.661s-.894 10.097-.894 10.097 1.52-2.457 1.787-3.172 1.698-9.556 1.252-12.281zm-97.8-75.819c.224.536-2.949-.044-3.664-.536-.715-.491-2.28-2.475-1.474-2.457.536.012 5.629.135 5.674.492s-.76 1.965-.536 2.501zm72.602 49.548s7.014 4.959 8.443 7.773 5.764 9.874 5.764 9.874l-1.251.446s1.52 6.345 1.028 9.249c-.492 2.904-4.691 10.23-9.383 10.32-4.691.09-11.17-3.082-15.458-7.282-4.289-4.199-6.55-7.886-6.88-9.918-.043-.269 11.973-.938 11.973-.938s5.853-.179 5.897-.402-2.233-3.753-3.708-6.925-6.478-12.286-6.344-12.688 4.915-1.698 9.919.491zM82.238 21.553c-.447-.269-1.921-.045-1.921-.357s.446-.939 1.295-1.072c.849-.135 2.949-5.049 3.038-5.406s-1.296-.179-2.055.179-3.44 2.189-3.753 2.413c-.313.223-.849 0-.894-.537-.044-.535-.848-1.607-.268-1.877.327-.151 1.742-.76 2.77-1.161s5.138-3.038 5.228-3.708.581-1.653 1.206-1.608 2.278-1.21 2.859-.001c.581 1.207-.581 9.294-.715 9.74-.134.447 1.207.135 2.994-1.385s1.742-.76 1.474-1.921.715-7.64.849-7.863 5.808-2.323 8.756-2.011 7.907 2.682 8.31 7.461c.402 4.781-5.361 14.432-7.773 17.738-2.412 3.305-7.685 11.884-10.052 12.732s-3.931.938-5.763.67-4.647-.223-4.334-1.206 9.516-10.097 11.348-13.18 4.468-7.148 4.513-8.177c.044-1.027.447-5.004-.536-5.004S88.716 26.825 88.046 27.807c-.67.983-12.42 13.717-12.554 14.163s.134 5.406 0 5.942-2.413.67-3.217.402c-.804-.269-2.412-1.697-3.351-1.742s-12.242-.18-14.655-.18-13.179 1.118-14.653.984-11.08.269-11.527-.626c-.447-.893 7.55-3.082 8.086-2.322.536.759 8.087-4.156 9.695-4.781s8.489-4.199 8.623-4.289 4.691-2.992 4.959-2.77 1.653 1.475 2.145 1.475 12.019-6.121 13.001-6.836 6.97-3.977 7.327-4.244c.358-.269.76-1.162.313-1.43zm-22.92 57.41c.313-.715 8.131-14.564 9.114-16.129.983-1.563 7.64-10.945 8.265-11.795.625-.848 2.056-2.17 2.458-2.224s1.832.035 1.832.035 2.636-.179 2.636.269c0 .446-7.596 9.381-8.712 12.151S64.055 78.962 63.429 79.41c-.626.447-4.424.268-4.111-.447zM45.021 59.038c-2.1-1.385-7.818-6.076-7.64-6.657s12.512-.905 14.163-.938c1.207-.023 9.784-.268 10.142-.357s1.698-.402 2.323-.223c.625.178 3.128.938 3.708.982s3.038-.537 3.261-.313c.224.223.402.893.224 1.34s-4.378 6.389-4.736 7.015-5.541 9.516-6.389 9.649c-.848.134-12.956-9.114-15.056-10.498zm13.806-33.152c.58.058 7.327.805 7.863.581s-3.708 2.681-4.602 2.502-3.836-3.139-3.261-3.083zm3.842-5.272c1.564.135 4.423-.76 4.646-.715s-.894-2.099 0-2.055c.894.045 1.206 1.309 1.876 1.392s.849-1.123 1.207-1.123 2.368-.269 2.368-.269-2.904 3.307-2.904 3.574.134 1.251.044 1.43-5.763.268-6.478.268-2.815.447-3.842-.178c-1.027-.626-2.412-1.653-2.01-2.011s2.01-1.743 2.01-1.743 1.519 1.296 3.083 1.43zM55.967 9.356c.268-.447 1.475-2.412 1.385-2.77-.178-.711 4.691 6.076 4.646 7.014s-.581.402-.938.402-1.34-2.234-2.859-2.904-2.502-1.295-2.234-1.742zm-.938 2.412c.313.045 3.351 3.217 3.351 3.529s-3.127 1.832-4.2 2.056-1.876.491-1.742 0 2.591-5.585 2.591-5.585zm.09 12.42c-.045.357-1.787 1.073-2.502.85s-2.011-1.973-2.011-1.947-.965-2.178.271-1.984c.704.11 1.13-.09 1.547.536s2.74 2.188 2.695 2.545zm-4.915-20.08c-.153-.793 3.53.602 3.485 1.138s-2.636 6.165-2.726 6.567-2.904.58-2.904-.224 2.279-6.788 2.145-7.481zm-2.412 10.047c.472-.023 3.173.214 3.083.545-.09.33-2.189 2.162-2.815 2.207-.625.044-2.011-.224-1.921-.447s1.066-2.276 1.653-2.305zM38.99 8.999c.179-.402 4.241-5.248 5.942-4.87.804.179-1.776 6.964-2.145 7.148-.447.224-3.319-.28-3.396-.491-.143-.399-.579-1.385-.401-1.787zm3.619 7.46c-.357.09-3.127-2.189-2.591-2.502.231-.135 3.664-.223 3.798 0s-.85 2.413-1.207 2.502zm-5.674 8.4c-.134-.894-.849-6.39 0-6.567 1.023-.216 4.043 1.027 5.082 1.072s3.8 1.048 4.117 1.73c.317.682.987 2.781 1.032 3.139s-4.155 3.619-4.825 3.932-2.014.537-2.392.357c-.378-.178-2.88-2.77-3.014-3.663zM19.556 43.713c-2.77-.225-6.255-1.431-6.344-3.352s.179-3.664 4.557-3.396 10.543.626 12.599.224 11.75-3.172 13.046-4.065 8.444-4.647 9.382-4.87 1.474-.625 2.01.224c.235.372 2.055 1.921 2.055 2.188 0 .269-5.54 2.503-6.746 3.352s-4.423 3.307-4.915 3.351-9.561 3.574-11.348 3.574-6.88 1.251-7.372 1.519c-.491.268-4.154 1.474-6.924 1.251zm-5.185 58.124c-4.666-3.834-10.083-10.667-11-22.251-.917-11.583 3.917-14 7-15.083s7.25 0 7.25 0-6.917 1.103-7.917 2.26-4.25 6.074-4.167 7.157.351 12.845 4.833 19.833c4.917 7.667 12.833 12.167 12.833 12.167s-4.166-.249-8.832-4.083zm27.876 1.333c-1.542 10.25-12.958 7.119-12.958 7.119s2.166-2.202 2.583-2.619-.25-1.667-.25-1.667-4.333-.334-6.667-1.5-9.583-4.75-13.083-13.25-3.38-19.659 0-21.667c5.333-3.166 9.167 0 9.167 0l2 19.873h4.667s-1.417-15.455-1.583-16.789h1.75s6.917 5.334 8.833 8.75 6.837 13.127 5.541 21.75zm-1.042-17.167c-.583-1.75-4.5-8.75-4.5-8.75s6 8.149 7.167 10c1.417 2.25 1.833 8.334 1.833 8.334s-3.916-7.834-4.5-9.584zm5.25-8.193c-.25.943-1.583 2.629-1.583 2.629s-6.833-8.603-9.917-10.936-8.333-6.25-8.333-6.25l-.5-10.167s8 5.334 9.167 5.834 9 5.416 9 5.416 7.083 5 8.25 5.917 5.833 4.75 5.833 5.333c0 .584-1.755 2.584-2.044 2.167s-3.539-1.917-4.998-2.25-4.625 1.364-4.875 2.307zm8.417 8.36c-8-1.334-6.417-1.613-6.417-1.613s1.25-4.721 3.167-4.054 2.667 2.251 5.25 2.667c.994.16 5.667-.334 5.667-.584s1.789 2.25 1.789 2.25-1.456 2.668-9.456 1.334zm25.311-15.606c0 1.563-.67 4.378-.983 4.378s-1.34.224-.983-2.412 2.369-5.764 4.245-6.612c-.001-.001-2.279 3.082-2.279 4.646zm-1.743-4.2c-2.681 4.334-1.966 11.527-1.832 12.466 0 0-.76.983-3.664 1.161-2.904.18-2.055 0-2.055 0s-.715-.982-2.278-1.295c-.615-.123 3.574-7.06 4.512-8.4.938-1.34 4.333-6.701 4.557-7.014s5.049-6.791 5.049-6.791 1.742 2.279 1.876 2.994-4.891 4.819-6.165 6.879zm5.004 4.068c.894-3.397 3.574-6.703 5.093-7.016 0 0 2.726 6.656 3.396 7.818.67 1.161 3.753 6.656 3.753 6.656s-6.835.536-7.148.625c-.313.09-4.155 0-4.155 0s-1.832-4.685-.939-8.083zm30.337 34.311c-3.932 2.011-6.764 3.021-14.387 1.072-3.708-.948-9.605-4.511-9.605-4.511s-4.681-3.639-5.451-8.893c-.117-.8 5.674 7.64 13.671 10.32 10.151 3.402 14.297.446 15.548-.581s6.389-7.104 6.389-7.104-2.234 7.686-6.165 9.697z"/>
  <path d="M35.455 91.753s1.917.251 1.917 1.084-.583 3.834-.958 4.25-.958.75-.958.75 1.25 4.417-.333 5.75-2.25.833-2.25.833 2-1.499 1.667-5.083-.667-2.916-.5-3.25.667.75.75-1.25.665-3.084.665-3.084zm74.25-9.5c.173-.558.659-1.667 1.163-2.917s4.087 5.25 4.087 6.084c0 .833-1 .583-1 .583s.667 2.166.5 4.667c-.166 2.5-1.166 3.333-1.166 3.333l-2.421-1s1.879-3.159 1.087-6.413c-.791-3.254-2.577-3.277-2.25-4.337z"/>
  <path fill="#2EA7E0" d="M89.566 15.676s22.408-5.301 26.745-5.662 25.058-1.686 26.744-1.928c1.687-.24 20.479-.481 21.685-.481s16.143-.843 16.143-.843-12.648 3.373-18.07 4.457c-5.421 1.084-22.046 2.047-29.273 3.493-7.229 1.446-24.456 2.65-27.588 2.771-3.132.121-9.397 2.049-9.397 2.049l-6.989-3.856zM77.399 26.037s30.238-3.132 31.202-3.493c.963-.361 21.324-2.289 22.528-2.289 1.205 0 26.263-3.734 28.19-3.976s27.708-2.771 28.792-2.289-20.118 6.144-26.744 6.746-29.998 4.577-34.455 5.301-20.479 2.29-21.563 2.892-10.721 1.324-13.733 1.445-14.217-4.337-14.217-4.337zm24.545 10.721s30.389-5.657 34.967-6.383c4.578-.725 34.334-3.254 34.334-3.254s-26.624 6.504-28.913 7.107c-2.289.602-18.673 4.818-21.444 5.301-2.77.481-10.239 2.891-10.239 2.891l-8.705-5.662zm-10.57 14.939s25.058-2.65 26.021-2.65 22.167-3.012 22.167-3.012-10.361 6.243-12.529 6.977-17.348.854-22.167 2.06c-4.819 1.204-9.156 1.324-9.156 1.324l-4.336-4.699zM68 69.649s24.456-4.337 29.756-4.818c5.301-.482 31.443-4.338 33.491-4.338s27.708-4.697 28.672-4.818 32.406-4.459 32.406-4.459-12.529 4.82-16.745 5.784-27.227 5.782-33.25 7.107-22.286 3.012-24.575 3.614-16.746 1.807-23.01 2.529c-6.265.724-14.818 4.217-14.818 4.217S71.133 69.89 68 69.649zm30.721 6.506s10.119-.482 12.408-.604c2.289-.12 33.732-6.626 37.226-7.107s41.321-8.553 41.321-8.553-9.638 8.191-10.842 8.131c-1.205-.06-28.189 5-33.129 5.964s-35.78 7.229-38.431 6.987-8.553-4.818-8.553-4.818zm18.673 11.564s20.117-3.614 23.129-4.337c3.013-.723 21.444-5.3 25.42-5.542 3.976-.24 18.432-3.854 18.432-3.854s-10.236 6.987-13.129 7.589c-2.893.604-17.35 3.133-20.361 3.977-3.012.843-16.384 3.975-20.119 4.336-3.734.361-8.433 1.808-8.433 1.808l-4.939-3.977z"/>
  <path d="M119.122 41.92s1.917-16.416 2.583-16.5c.667-.084 5.334-1.167 5.334-1.167s2.5 8.501 3.25 8.417 1.25-9.334 1.75-9.667 3.166-1.75 3.583-1.417c.417.334.75 8.45 2.083 10.143 1.334 1.691 3.5 11.107 3.5 11.107s-4.333 1.084-4.583.834-1.75-7.917-1.917-8.584c-.166-.666.251-4.999-.416-5.166s-2.167 11.416-2.334 12.333c-.166.917-2.332 1.333-2.666 1.083s-4.084-9-4.334-9.25-.25 8-.25 8.417-5.663.095-5.583-.583zm19.917-18.667c.5-.004 7.334-.083 8 0s4.334.084 4.5.417.75 4.166.416 4.333c-.333.167-3.083-.333-3.083 0s-.167 14.5-.167 15-3.916.833-3.916 0 .417-8.083 0-8.667c-.417-.583-.75-3.75-.75-4.333s.167-1.833-.25-2.167c-.417-.333-5.083.25-4.75-.083s-.664-4.495 0-4.5zm29.833 11.417c-.417-1.333-2.167-1.667-2.583-2.049-.416-.381.833-2.285.833-2.868s-1.167-4.083-1.583-4.5-3.584-3.083-4.75-3.167c-1.166-.083-5.551-.317-6.25 0-.916.417.25 6.167.416 9.167.167 3-.497 11.833.334 12.257 1.604.818 10.333.66 10.75.66s3.75-3 3.833-3.5-.583-4.667-1-6zm-9.083-3.25c-.417-.667-.805-4.123-.334-4.084.416.035 2.326.167 2.58 1.667s-1.829 3.084-2.246 2.417zm1.666 7.666c-.166-.333-.416-3.416-.416-3.416s2.916-.166 3.083 2-2.5 1.75-2.667 1.416zm-28.333 17.5c-.083-3.332-1.5-5.416-2.333-6.25-.833-.832-2.673-1.74-4.25-1.583-1.666.167-1.084.333-3 2.5s-4 11.167-.334 15.25c3.667 4.083 7.417 1.917 6.959 1.583-.459-.332 3.125-4.166 3.375-4.833s-.334-3.333-.417-6.667zm-3.333 4.25c-.667 4.417-1.957 3.084-2.395 3.167-.439.083-2.355-6.083-2.022-7.083s.917-2.553 2.583-2.776c.828-.111 2.501 2.276 1.834 6.692zm5.75-8.75c.256-.461 4-1.916 4.75-1.75.75.167 5.25 7.918 5.666 7.75.417-.166-1.916-8.833-1.166-8.833s4.416-.249 5.083.833c.667 1.084 1.667 16.416 1.333 16.834-.333.416-4.416 1-4.666.5s-6.417-10.334-6.917-10.667 1.001 9.719.917 10.859-3.75.642-4.417.474c-.667-.166-.999-15.25-.583-16zm33.416 3.75c1.917-1.5 2.5-5.083 2.334-6.166s-4.667-3.584-6.75-3.334-5.065 1.127-6 1.5c-.426.171.5 16.417.416 17.167-.083.75 5 2.667 5.334 2.25s-1-4.833-.25-5.083 4.083 3.583 4.666 3.583c.584 0 5.084-.917 4.917-1.624-.163-.689-6.177-6.799-6.472-7.098.08.015.412-.105 1.805-1.195zm-2.958-1.696c-.958-.137-2.625-.554-2.375-.887s1-2.25 1.083-2.75c.111-.663 2.334.834 2.584 1.917s-.334 1.857-1.292 1.72zm20.708-2.637c-.083-1.833-4.324-5.177-4.916-5.185-1.333-.018-4.084.768-4.75.935s-3.75 3.667-4.084 7.583c-.333 3.917 1.5 6.917 4.334 8.417s4.166 1.167 6.958-1.25 2.542-8.667 2.458-10.5zm-4.083 5.313c-.417 3.688-1.667 3.938-2.25 3.771-.583-.166-2.833-1.166-2.583-4.583s2.115-4.055 3-3.755c.868.293 2.25.879 1.833 4.567zm13.583-12.634c-.25.18-4.833 2.238-5.083 2.488 0 0-.75 2.333-1.5 6.833s-3.167 10.083-3.75 10.654 5.917-.154 5.917-.571c0-.416.75-5.833 1.166-5.833.417 0 3.667-.417 4.269 0s1.648 5.833 1.648 5.833 4.25 0 4.417-.583-.25-3.667-1-5.833-5.834-13.167-6.084-12.988zm-3 8.067c0-.328.583-2.494 1.375-2.578 0 0 1.959 1.988 1.959 2.578 0 .587-3.334.327-3.334 0zm24.167.754c-.583-5.417-8.833-9.083-10.167-8.821-1.333.263-4.651.998-4.583 1.238.167.584 1.083 5.916 1.333 8.735s.417 8.431.75 9.181c.334.75 7.25 1.25 8.917 0s4.333-4.916 3.75-10.333zm-4.833 1.153c-.167.765-1.333 3.598-3.25 3.931-1.917.334-1.084-2.122-1.167-3.52-.083-1.396 0-2.552-.5-3.433 0 0 2.333-.381 2.833.452.5.834.417 1.667.917 1.667s1.334.138 1.167.903z"/>
</svg>
