<svg xmlns="http://www.w3.org/2000/svg" width="200" height="200" viewBox="-15 -80 420 420" preserveAspectRatio="xMidYMin slice">
  <path d="M206.66 5.629s-8.412 11.694-9.848 16.003-12.31 26.057-16.824 31.186-15.592 9.643-32.416 9.027-21.543 0-26.467-4.104-7.401-6.818-14.361-7.591c-11.079-1.231-19.081 1.847-26.672 4.309S53.4 56.1 50.323 53.843s1.599 8.203 14.567 17.234c11.489 8.001 26.056 12.925 30.98 13.951s18.26 2.257 19.901 1.847-8.617 8.412-28.108 11.284-25.646-1.437-25.646-1.437-20.721-22.773-23.593-25.235S12.743 50.851 9.906 49.945c-2.96-.946-6.771.205-9.179-6.771-2.605-7.543 1.79-5.076 13.282-2.872 14.978 2.872 26.304 2.425 37.34 1.436 12.938-1.159 20.106-3.078 28.313-4.104s29.954-6.565 33.442-8.001 12.515 3.078 13.336 3.898 6.879 8.841 9.546 10.072 18.548-8.732 23.92-13.117c3.086-2.519 11.465-9.675 20.903-13.368S206.66 5.629 206.66 5.629z"/>
  <path d="M119.938 63.896c-.231.926-4.476 7.562-4.861 8.102s-8.411-4.476-13.117-4.861-10.108-.926-10.108-.926 3.01 6.404 4.938 7.639 3.858 3.009 3.858 3.009-4.938.231-8.179 0-3.858.386-5.016-.386-8.41-13.426-8.102-14.197 10.03-1.852 12.962-2.161 4.321 1.312 4.938 1.312 7.253-1.544 11.96-1.351 10.727 3.82 10.727 3.82zM220.632.009c-1.648 1.197-7.408 12.268-8.796 14.814s-6.944 10.186-6.944 10.803 12.078 24.236 15.741 28.316c9.491 10.571 11.034 11.775 14.098 12.714 1.565.48-1.29 3.721-2.447 4.492s-1.521 2.314 2.905 5.092 12.552 4.926 17.851 3.936c8.255-1.543 19.707-6.638 23.102-9.184s11.774-3.085 15.632-2.854 12.192 2.855 19.059 8.025 16.976 9.259 19.367 10.031 5.4.54 5.786 2.083-8.134 8.338-9.723 11.419c-2.44 4.732-11.342 15.818-17.283 19.213s-9.105 5.402-12.809 6.713-14.429 3.781-14.66 4.398 9.49 3.55 15.277 4.63 12.346 1.08 13.812.926 18.465-11.189 25.397-20.448 8.763-11.671 11.331-14.506c4.475-4.938 5.831-9.056 8.454-10.137s9.446-2.594 15.619-17.254c4.229-10.042 5.04-13.153 4.398-13.581-2.083-1.389-14.969 3.704-19.599 6.096s-16.821 2.701-23.766 1.389-26.928-8.874-33.487-14.969-17.67-12.653-23.457-13.04-13.812 3.858-14.506 4.63-13.58-15.741-15.664-18.519-6.558-15.355-6.712-16.204-4.938 4.475-6.25 7.484-3.286 11.394-4.861 10.957c-1.389-.386-4.707-11.265-5.247-15.972S221.035-.284 220.632.009z"/>
  <path d="M304.457 88.295s-7.592-7.331-17.017-7.592-17.802 1.963-25.918 10.603c0 0 14.137.262 17.148 1.047s12.959 2.356 13.614 3.534-10.864 6.807-12.697 7.069-4.975 1.702-6.676 2.749-7.331 8.247-6.152 8.247 17.279-5.498 21.337-6.414 18.719-3.666 18.719-3.666 4.711-7.854 6.283-9.032 4.451-4.189 4.451-4.189-3.402-.523-6.676-2.225c-3.273-1.702-3.797-3.927-4.582-3.142s-1.834 3.011-1.834 3.011zm-58.965 13.975c-1.391-.521-8.955 1.565-11.824 3.304s-10.433 9.042-13.563 19.301-4.173 24.691-4.434 26.343-.173 10.397-.782 11.458-1.13.887-4.608-.938-8.694-3.564-10.52-5.651-3.913-4.521-4.173-4-1.412 1.845-2.314 2.053-3.076 2.207-3.424 3.164-2.912 3.391-2.978 3.913.717 1.564-.413 2.173-2.698.114-4.869 0c-3.304-.174-9.564 2.783-9.825 2s1.746-15.998 1.565-18.258c-.631-7.902-1.598-18.804-3.999-27.126-2.608-9.042-6.085-16.866-8.085-19.91s-6.478-10.765-7.401-9.676c-1.103 1.3-9.249 10.289-10.184 10.601s4.053 7.274 7.378 18.498 5.404 23.621 4.78 34.622-3.43 16.197-4.988 17.34-5.217 1.87-7.285 5.923-6.433 9.665-2.691 16.316 3.738 7.898 6.805 9.873 3.275 1.039 5.146 3.222.728 2.91 1.767 4.261-.52 2.702.104 4.469 2.806 2.597 3.845 3.117 4.469 3.015 4.885 3.534-1.247 2.494 5.092 6.235 12.159 6.235 14.757 6.027 2.819.115 3.858 0 .667.898 5.653.263c3.728-.476 3.688-1.513 4.83-1.406 1.558.146 4.252-1.768 5.035-2.289s3.043-1.131 3.391-1.913 2.521-4.694 2.434-6.955-.086-2.695.609-3.13-.696-2.261-.348-2.608 4.869-5.217 6.782-6.781 1.217-2.087 1.217-2.087.608-3.999 2-4.521 2.783-.695 3.913-.608 6.954-2.433 7.737-3.129 1.13-4 1.826-4.435-.441-.626 1.652-2c.775-.509 1.391-4.956 1.478-5.651s.435-8.344-.522-9.648-3.652-3.304-5.13-5.391-3.739-6.434-4-6.781 2.086-21.474 3.564-25.995 6-19.735 8.086-23.474 8.868-11.39 9.563-11.563-.001-1.564-1.392-2.086zm-73.204 99.199c.608 0 4.608-1.565 5.825-1.913s3.217-.695 3.217-1.999 1.919-1.355 2.695-1.222c2 .344.348 3.047 0 3.395s1.217 2.782.695 3.043-.174 2.869-.695 3.217-4.782 1.565-7.738.609-4.608-5.13-3.999-5.13zm24.059 19.352c-.461.884-2.15.998-3.302 1.459s-1.42 1.689-3.11 1.574-4.838.537-5.914.614-1.728-1.767-2.419-2.343-4.915-3.955-5.875-5.222-.039-1.882.499-2.343 2.381-.96 4.685-1.459 3.219-1.133 3.648-1.306c.784-.315 1.843 1.536 2.227 2.611s2.573 2.343 4.761 3.726 5.261 1.806 4.8 2.689zm8.109-14.571c-.261.348-3.13 1.044-3.999.708s-1.913 2.074-2.782 2.074-3.304-.521-4.782-1.478-2.261.087-3.478-.597.174-3.315.522-4.359.571-3.969-.03-4.674c-1.043-1.222-.579-2.629.726-2.455s1.056 2.408 1.652 2.956c.373.343 2.174 2.348 5.825 4.258s5.564 1.567 5.825 1.741.782 1.478.521 1.826zm12.085-15.3c-.348 0-2.608 1.13-3.478 1.565s-2.435 2.261-3.564 2.956-4.869 1.304-6.434.435-4.956-4.434-4.347-4.695 2.348-3.217 2.521-5.042 2.086-1.913 2.608-2.435 3.999-.348 3.912-1.217-1.652-1.217-2.26-1.652-.607-2.435-.607-2.435c-1.477-.696-2.522-2.521-3.479-2.347s-2.434 1.826-2.956 1.478-1.043 2.521-2.086 2.608-4 3.304-4.695 3.304-4 3.217-5.391 2.695-4.521-2.521-5.303-3.217.174-.869-1.217-2.086-2.695.087-4.086.696-4.521-.087-4.956.869-.783 2.261 1.043 3.391 3.13-.087 2.782 3.043-7.564 5.129-7.564 5.129c-.957-1.305-5.651-.695-7.39-2.869s.609-3.913.522-4.434-.348-1.391-1.565-2.521.695-2.869 1.565-3.651 2.086-.087 2.434-2.087 1.043-1.478 4.869-3.13 10.607-2.521 13.824-2.782 10.648-3.758 10.868-4.782c.261-1.217 4.173 1.478 7.39 3.217s7.477 3.739 8.346 4 2.869 2.521 3.826 4.347 4.695 4.869 4.919 5.564-.746 1.913-1.007 2.956 1.303 3.129.956 3.129zm-97.744-57.516c-1.578-.346-5.491-.894-6.895-.766s-6.639 4.341-7.022 5.107.383 2.809.766 5.107 1.149 5.745 5.107 7.405 12.641-2.042 13.279-2.553.511-7.151 0-7.789-3.386-6.105-5.235-6.511zm135.984 2.217c-1.574 1.398-7.467 2.434-8.171 3.529-1.149 1.788-.313 9.065.546 10.98s2.539 4.469 3.231 4.469 4.012-.127 5.289.766 3.277.626 4.937.243 7.722-7.649 7.722-9.397c0-2.465-3.21-8.21-3.721-8.594s-8.735-2.971-9.833-1.996zm-171.544 17.21c-.257-1.415-10.776-4.606-11.559-4.085s-9.908 8.343-12.081 9.299-11.82 4.085-20.25 1.564-18.599-8.641-18.686-8.927-.087 5.016 1.825 9.448 7.735 15.817 18.338 17.99 28.159-5.823 29.81-7.126 8.343-7.561 8.778-8.43 3.999-8.777 3.825-9.733zm2.086 66.4c-1.161-.225-6.692 1.825-9.386 3.303s-9.734 3.91-14.688 3.649-13.731-2.452-15.122-3.485-4.693-1.313-5.041 0 9.82 10.495 11.385 12.205 9.734 8.576 15.383 9.011c2.721.209 10.95-14.254 13.036-16.34s7.127-7.822 4.433-8.343zm6.605 18.251c-1.476.527-3.998 9.386-8.604 13.645s-11.906 10.69-16.426 12.342-11.125 2.606-12.602 3.736 7.735 4.693 10.951 5.823 8.518.608 12.254.348 6.17-.956 8.169-2.781 11.08-11.47 11.646-12.602c.782-1.564-.435-10.429-1.217-12.515s-2.954-8.431-4.171-7.996zm29.549 14.426c-2.012.367-9.212 1.478-9.386 2.086s-.087 6.084-1.13 7.475-1.39 1.479-1.825 3.998-3.216 4.084-3.65 5.735-5.562 7.388-7.126 7.648 13.645 2.781 16.339 1.651 9.299-5.997 10.603-7.822 5.388-12.428 5.562-14.774 1.825-7.996.956-7.996-7.04 1.397-10.343 1.999zm43.37 20.165c-2.71.735-9.213 4.172-10.429 5.563s-6.431 8.517-6.344 12.428 3.477 9.388 5.997 11.299 10.776 6.604 11.211 6.344-.695-14.591 0-17.812.782-11.303.695-12.433 3.997-6.78-1.13-5.389zm29.984-5.737c-2.101.252-10.603 5.997-11.993 6.779s-1.478 2.694-1.478 4.259-3.042 3.302-3.563 5.648-2.831 11.497-.087 16.948c2.095 4.163 3.057 7.389 4.172 7.745.782.25 5.823-9.57 6.605-11.396s4.78-11.298 5.301-14.079 3.215-16.165 1.043-15.904zm41.318-4.112c-3.359 1.301-8.236 2.275-10.837 2.926s-4.443 1.302-4.443 2.493 2.926 4.551 3.143 5.635 1.409 7.479 6.286 12.896 10.771 9.282 11.389 9.483c2.157.703 2.59-.815 2.699-1.356s-.434-13.005-.867-18.206 1.95-18.639 1.409-18.639-.65-1.192-2.926 2.167-5.853 2.601-5.853 2.601zm29.476-5.743c-.458.687-3.251 3.468-3.793 6.502s-.975 4.335-.975 4.335 7.803 7.26 11.054 8.669 8.127 3.685 11.812 1.626c0 0-6.286-6.64-9.537-10.201s-2.817-4.213-4.66-5.404-.759-3.251-.65-3.793-2.901-2.258-3.251-1.734zm19.616-20.592c-.639.959-4.877 8.778-5.418 10.945s-2.167 7.283-1.625 9.548 1.192 4.648 2.276 4.865 2.384-.976 3.793-.867 8.345 4.335 9.211 5.311 6.068 6.611 6.177 8.128 1.301-2.601 2.818-4.335 2.167-3.793 2.167-4.552.758-3.576 1.192-4.335-7.261-10.621-10.945-15.389-9.139-10.079-9.646-9.319zm30.671-33.271c-1.38 1.445-5.961 5.743-5.419 6.394s6.178 5.526 6.395 6.285-1.085 1.41 1.191 2.385 9.645 3.359 10.512 3.359 8.129 1.517 9.646 1.842 5.418.434 5.96 0-6.61-5.853-9.861-8.453-6.611-7.911-9.32-10.729-4.226-4.334-4.876-4.768-2.586 1.965-4.228 3.685zm-8.02-51.477c-1.395.889-6.068 4.013-8.344 4.824s-3.901 1.678-3.901 2.437 2.818 8.886 4.01 10.837 3.467 6.719 4.009 6.502.867-2.059 1.517-1.517 8.128 10.078 12.029 12.137 16.906 6.894 26.009 5.939 16.038-4.097 16.58-4.639-20.049-7.044-25.684-10.295-14.847-12.787-17.014-16.688-2.818-13.004-4.227-13.546-2.601 2.491-4.984 4.009z"/>
  <path fill="#F4B4D0" d="M104.447 168.645c-.666 1.367-8.884 3.714-10.522 6.553s-5.461 5.898-5.789 6.881-1.638 3.167-1.748 3.604-4.041 2.293-4.259 4.806-.328 14.527 1.311 16.493 6.444 8.191 10.267 10.922 12.56 4.915 15.837 4.26 8.629-3.604 10.485-3.495 5.134-2.403 5.898-2.403 2.511-4.588 6.225-6.335 2.622-16.601 3.059-20.751-5.789-11.14-8.301-13.325-1.092-3.713-1.857-4.587-5.352-.546-9.065-1.748-10.849-2.294-11.541-.875zm166.851 1.639c-3.823.219-13.032 2.731-14.107 5.024s-1.948 4.369-4.57 5.352-3.496 2.949-3.604 4.15-2.976 3.295-3.823 6.007c-1.092 3.495 0 7.973 0 9.502s-2.075 3.167 0 7.317 5.352 8.083 8.847 9.394 8.3 3.713 9.393 4.587 10.084 1.927 14.199-2.185c1.529-1.528 5.134.656 8.41-3.058s4.151-2.184 4.915-2.621 1.665-4.909 3.604-7.974c1.724-2.726 3.713-7.973 4.478-10.157s-5.024-15.291-9.174-18.567c-3.662-2.891-3.058-3.277-9.611-5.134s-8.957-1.637-8.957-1.637z"/>
</svg>
