<?xml version="1.0" encoding="utf-8"?>
<svg version="1.1" id="レイヤー_1" xmlns="http://www.w3.org/2000/svg" xmlns:xlink="http://www.w3.org/1999/xlink" x="0px"
	 y="0px" width="200" height="200" viewBox="-30 -50 266 330" enable-background="new 0 0 266.548 290.342"
	 xml:space="preserve">
<g>
	<g>
		<g>
			<path d="M11.863,80.747c-0.145-0.077-0.275-0.131-0.369-0.131C11.223,80.616,11.391,80.674,11.863,80.747z"/>
			<path d="M90.662,53.95c0,0-1.42,5.395-5.258,10.373c-3.508,4.549-6.076,7.627-6.076,7.627c0-0.833-2.334-2.833-2.334-2.833
				s0.668-3.833,0.834-5.333s-0.166-6.833-0.166-8s3.332-10.5,3.332-10.5s-1.666,1.167-4.832,2.5
				c-3.168,1.333-9.334,6.667-13.168,12.667c-3.832,6-3.332,12-3.332,12s-3.668-0.333-4.5-0.833c-0.834-0.5-15.334,6-17.668,6.667
				c-2.332,0.667-8.166,0.942-14.332,2.167c-4.73,0.939-9.742,0.536-11.299,0.297c1.652,0.876,6.387,6.391,9.299,8.536
				c3.166,2.333,7.166,1.5,7.166,1.5s1.719,2.177,4,5.667c3.113,4.762,15.666,9.5,22,8c6.332-1.5,13-1.667,13-1.667l-0.334-5.667
				c0,0-10.832,1.333-20.666-1.167c-3.961-1.007-11.834-6-11.834-6s3-0.833,4.334-2.167c1.332-1.333,9.5-4.667,16.834-5.833
				c7.332-1.167,11.5-0.5,11.5-0.5s-0.5-1.167-0.668-2.667c-0.166-1.5,0-2.833,0-2.833s1.168-0.5,2.5-1.5
				c1.334-1,3.5-1.167,3.5-1.167s0.334,0.833,2,1.5c1.668,0.667,1.668,1,1.668,1s-1.334,2.333-3.5,4.833
				c-2.168,2.5-3.668,2.5-3.668,2.5s1.834,1.833,4.5,1c2.668-0.833,7.168,0,7.168,0s3.832-2,7.5-6.833
				c3.666-4.833,8.832-16.167,8.832-16.167L90.662,53.95z M69.662,60.45c1.166-1.167,1.666-3,1.666-3s1.834,1.5,2.166,3
				C73.828,61.95,68.494,61.616,69.662,60.45z M69.494,68.783c-2.832,0.167-3.832,0-3.832,0l0.832-2.667c0,0,3.334-1.5,4.168-1.667
				c0.832-0.167,2.848-0.667,2.848-0.667l0.818,3.833C74.328,67.616,72.328,68.617,69.494,68.783z"/>
		</g>
		<path d="M101.494,61.116c0,0,1.334,7.334,0,9.167c-1.332,1.833-2.641,3.692-5.832,4.725c-0.834,0.27-1.668-1.558-1.668-1.558
			s4.668-6.167,5-7C99.328,65.616,99.494,62.283,101.494,61.116z"/>
		<g>
			<path d="M108.459,54.342l0.203,0.107C108.662,54.45,108.129,53.385,108.459,54.342z"/>
			<path d="M185.828,82.116c-3.166,0.167-16.834-0.905-23.666-1.369c-6.834-0.464-19.502-1.798-20.334-1.131
				c-0.834,0.667,0.834-9.167-1.334-14.167c-2.166-5-12.166-13.333-15.332-14.167c-3.168-0.833-3.668-2.667-3.668-2.667
				l-2.166,0.667c0,0,7.334,7.667,7.334,8.5s0,6.167-5.168,9c-5.166,2.833-3.666,1.292-3.666,1.292s-4.834-2.626-7.666-9.459
				c-1.037-2.501-1.514-3.722-1.703-4.274l-8.297-4.393c0,0,1.666,2.667,3.5,6.833c1.832,4.167,4,8.667,7.832,13.167
				c3.834,4.5,6.5,3.504,7.5,5.085s2.166,3.248,3.334,3.415c1.166,0.167,4.166,0.167,4.166,2.167s0,2,0,2s1.834-0.833,2.334,1
				s1.666,3.167,1.666,3.167s6.166-2,7.834-2.167c1.666-0.167,5.666-0.333,7.166,0.167s-3.166,2.833-4.332,3
				c-1.168,0.167-2.5,0.167-4,1.5s-2,2.167-2,2.167s0.832,1.5,2.5,2.833c1.666,1.333,7.42,1.5,8.127,1.667
				c0.705,0.167,1.871-0.667,2.539,0c0.666,0.667,1-2.5,2.166-2.833c1.168-0.333,7.834-2.666,8.5-2.333
				c0.668,0.333-1.5-2.333-1.5-2.333s3.621-0.127,6.168,0c2.434,0.122,5.166,1.333,5.166,1.333s-3.668,3.85-11,6.258
				c-7.334,2.408-15,3.075-15,3.075s-0.5,2-1.334,2.333c-0.832,0.333,6.5,4.333,12.334,4.667s15.666-5,20.166-11.333
				s13.5-11.167,15-10.667S188.994,81.949,185.828,82.116z M132.145,63.616c1.684-1.333,1.684-1.333,1.684-1.333
				c1.334,0.667,1,3.333,0.666,4.667c-0.332,1.333,0.334,0.918-2,1.126c-2.332,0.208-3-0.792-3-0.792S130.459,64.949,132.145,63.616
				z M129.494,80.616c-2.166-0.5-1.166-4.167-1.166-4.167c0.834,0.167,4.666,0.181,4.666,0.924S131.662,81.116,129.494,80.616z
				 M134.793,73.283c-0.631,0.333-5.131-0.833-5.299-2.333h5.299C134.793,70.95,135.426,72.95,134.793,73.283z M145.662,92.116
				c-1.168,1.167-1.834,2.667-4,1.333c-2.168-1.333-1-2.833-1-2.833s3.068-2.079,4.209-1
				C145.385,90.103,146.828,90.949,145.662,92.116z"/>
		</g>
		<path d="M63.662,88.45c-3.168-3.333-6-4.5-11-3.667s-7.168,2.5-7.168,2.5l-0.666,5.667c0,0,2.5-1.167,3.5-1.833
			s2.666-1.357,4,1.167c2.27,4.297,5.5,2.333,7.166,2.167C61.162,94.283,66.828,91.783,63.662,88.45z M59.994,91.283
			c-1,0-4.332,3-4.332,0s-1.668-3,1.332-3c0.668,0,2.334-1.333,3,0C60.662,89.616,60.994,91.283,59.994,91.283z"/>
		<path d="M133.494,96.783l-6-5.333c0,0-8.5,4.667-11.332,9c-2.834,4.333-4.334,13.833-3.168,19.833c1.168,6,5.334,11,5.334,11
			s-6.166-2.833-7-3.833s-0.834-3.5-1-4.333c-0.168-0.833-3.166-2.833-3.834-3.667c-0.666-0.833-1-4.167-1-4.167
			s0.834-1-3.406,3.833s-9.094,6.833-9.094,6.833s2.168-8.5,2.5-15.167c0.334-6.667-1.5-11-6.666-14.333
			c-4.457-2.876-17.334-1.409-17.334-1.409c0.834,0.591,2.5,5.742,2.5,5.742s4.334-0.667,9,0c4.668,0.667,6.334,9.333,5.668,12.333
			c-0.668,3-5.668,15.833-6.5,16.951c-0.834,1.117-6.168,6.549-3.834,12.216c2.332,5.667,8.834,5,8.666,6.667
			c-0.166,1.667-1.666,11-1.666,11c0.666,1,1.666,3.5,7,7.833c5.332,4.333,16.166,8,22.666,4.667c6.5-3.333,8.168-13.833,8.834-15.5
			s1.666-2.5,1.666-2.5l-3.166-0.833c0,0-3.666,7-10,10.833c-4.404,2.666-13.334,1.667-16.5,0c-3.168-1.667-4.166-7.167-4.166-7.167
			s2.5-0.833,3.166-1.5s0.334,0.833,2.166,3.667c1.834,2.833,7.658,3.773,11.668,0.833c7.5-5.5,7-8.167,7-8.167s0.666,0.667,1.5,0
			c0.832-0.667,3.666-4.167,3.832-5.167c0.168-1,0.168-4.5,0.168-4.5s2.166-2,2.332-3.667c0.168-1.667-2-4-2.5-4.5
			s5.334-1.167,5.334-1.167s-5.334-8.333-5-14.667c0.219-4.161,0.834-7.5,3-12.319S133.494,96.783,133.494,96.783z M111.994,135.191
			c1.211,0.617,3.168,2.092,1.168,3.259s-3.168,1.333-3.668-0.833S110.709,134.535,111.994,135.191z M102.494,129.283
			c1.256-0.837,5.168,1.833,4.668,2.167s-2.002,4.333-3.334,3.667c-1.334-0.667-4-0.206-4.5-2.52
			C99.328,132.597,101.494,129.95,102.494,129.283z M98.041,136.45c1.953-0.167,1.619,0.851,1.287,2.175
			c-0.334,1.325-3.334,5.658-3.334,1.658S98.041,136.45,98.041,136.45z M86.494,142.783c-3.666-1.167,0.02-6.13,2-7.317
			c2.785-1.668,3.834-1.85,4.5-1.517c0.668,0.333,0.166,5.017-0.666,4.675c-0.834-0.342,0.783,2.992,0.975,3.158
			S90.162,143.95,86.494,142.783z M92.494,147.783c0.816-1.398,1.334-0.463,4.5-1.398c3.168-0.935,1.834-2.435,3.168-0.935
			c0.797,0.898,0.008,4.667-0.58,4.667S90.713,150.836,92.494,147.783z M104.711,157.45c-3.217,0.833-5.129-1-5.129-1
			s3.846-3.33,5.129-3.167c1.801,0.229,4.439,0.167,4.695,1S107.928,156.616,104.711,157.45z M109.406,149.116
			c-1.578,0.333-3.078,0-3.078,0s-0.334-4-0.834-4.167s-0.344-3.167,3.912,0c1.955,1.456,4.33,1.5,5.377,1.167
			C115.828,145.783,110.984,148.783,109.406,149.116z M118.662,139.295c-0.334,0.988-2.5,2.488-3.5,2.488s0.332-1.788,0-4.644
			c-0.334-2.856,1.832-1.189,1.832-1.189C117.828,136.45,118.994,138.308,118.662,139.295z"/>
		<path d="M71.494,107.95c2.236-1.203,3.334-2.471,3.834-1.819s2,3.485,2.166,5.319c0,0-1,0.833-1.832,1.5
			c-0.834,0.667-4.168,1-4.168,0S69.824,108.849,71.494,107.95z"/>
		<path d="M129.662,105.954c0.691,0.492,3.332-0.33,3.832,0s0.668,4.297,1.168,3.813s-2.453,2.516-2.453,2.516s-1.215,0.667-1.881,0
			s-3.166-1.982-3.166-3.075S128.494,105.124,129.662,105.954z"/>
		<path d="M51.828,109.767c0,0-0.131,3.516,2.602,4.849c0,0-6.336,9.541-9.602,13.333c-4,4.647-21.5,7-23.166,6.333
			c0,0,7.705-5.999,17.166-13C47.162,115.116,51.828,109.767,51.828,109.767z"/>
		<path d="M42.828,131.116c0,0,2.834-0.039,3.166,1.48c0.334,1.52,1,3.187,2,4.187c0,0-2.334,4.833-3.166,5.667
			c-0.834,0.833-12.051,4.927-15,5.5c-6,1.167-20.667-2.5-20.667-2.5s13.833-1.667,17.833-3s11.166-5.167,12.834-7.333
			C41.494,132.95,41.219,130.905,42.828,131.116z"/>
		<path d="M47.994,144.283c1.168,0.5,4.334,3.896,4.334,3.896s-1.334,3.604-4.334,5.271s-5.832,3.5-9,4c-3.166,0.5-11.5,1.5-11.5,0
			s2.334-1,6.334-2.667s5.834-4.709,8.334-6.604S47.994,144.283,47.994,144.283z"/>
		<path d="M43.328,162.95l6.334,4c0,0-0.168,0.667-1.668,3c-1.5,2.333-3,5.667-8.082,7.333c-5.084,1.667-14.75,1.5-15.75,1.5
			s6.207-3.809,9.666-5.833C40.662,168.95,43.328,162.95,43.328,162.95z"/>
		<path d="M58.994,159.783c0,0,6.834,6.5,7.334,6.5s-2,6.667-4.5,9.667s-5.334,5.833-8.166,7.167c-2.834,1.333-8.834,2.5-8.834,2.5
			s5.666-8.167,7.5-10.667s4.832-7.333,5-9.167C57.494,163.95,58.994,159.783,58.994,159.783z"/>
		<path d="M137.662,146.95h4c0,0-1.334,1.667,0,2.667c1.332,1,8,4.833,8,4.833s-6.5,1.667-6,2.167s-3.168-1.5-4.5-3
			C137.828,152.116,137.662,146.95,137.662,146.95z"/>
		<path d="M145.994,135.95c0,0,2,4.333,3.668,5c1.666,0.667,7.5,1.167,7.5,1.167s-8.811,4.801-11.168,4.833
			c-1.123,0.016-1.123-5.5-1.123-7.31C144.871,137.463,145.994,135.95,145.994,135.95z"/>
		<path d="M154.162,125.616c0,0,4,5.127,6,6.98s10,3.353,10,3.353s-2.668,3.547-6.334,3.69s-4-0.357-6.666-2.024
			c-2.668-1.667-4-3.222-4-3.222L154.162,125.616z"/>
		<path d="M170.162,117.95c0,0-0.877,7.295,6,12.117c12.666,8.883,21,5.883,21,5.883s-13.834,7-18.168,5.5
			c-4.332-1.5-10.5-13-10-15.833s-1.5-6.333-1.5-6.333L170.162,117.95z"/>
		<path d="M159.162,151.822c0,0,2.832,1.127,5.166,1.127s3.166-0.564,3.166-0.564s4.668,5.731,7.5,7.397
			c2.834,1.667,12.668,5,12.668,5l-10.168,6.833c0,0-8.5-5-10-5.167s-4.666-3.294-5.832-4.73
			C160.494,160.283,159.828,152.695,159.162,151.822z"/>
		<path d="M149.662,161.719c0,0,4.832,5.73,7.5,7.397c2.666,1.667,10.332,5.833,10.332,5.833s-6.832,6.999-10.332,5.667
			c-3.5-1.334-8.668-6.167-9.334-12.167S149.662,161.719,149.662,161.719z"/>
	</g>
	<g>
		<g>
			<path fill="#036EB8" d="M92.959,159.022l3.798,7.787c0,0-6.267,12.534-9.876,18.042c-3.607,5.508-10.255,10.066-10.255,10.066
				l-13.484-1.9c0,0,14.435-7.596,19.562-16.047C87.83,168.518,92.959,159.022,92.959,159.022z"/>
			<path fill="#036EB8" d="M102.264,159.022l3.559,3.039c0,0-3.559,13.294-3.559,17.472c0,4.179-0.568,15.385-0.949,17.094
				c-0.379,1.709-4.558,3.607-4.558,3.607s-0.76-16.522-0.76-19.561C95.997,177.634,100.555,159.212,102.264,159.022z"/>
			<path fill="#036EB8" d="M111,164.91c0,0,0.949,15.764,2.469,23.551c1.52,7.785,8.357,24.688,8.357,24.688s-1.141,1.33-4.369-0.76
				c-3.229-2.088-7.025-9.496-8.545-15.193s-5.229-19.75-3.09-23.549C107.962,169.847,108.722,166.049,111,164.91z"/>
			<path fill="#036EB8" d="M115.559,153.895c0,0,0.939,7.878,3.988,13.674c9.591,18.231,23.17,24.118,23.17,24.118h-12.154
				c0,0-10.826-7.025-12.346-11.014s-5.507-15.004-5.887-15.764s0-11.015,0-11.015H115.559z"/>
			<path fill="#036EB8" d="M50.228,212.199c0,0,4.368,4.178,5.507,4.178c1.141,0,1.9,0,1.9,0s1.709-4.557,2.278-4.178
				c0.569,0.381,6.268,2.078,6.268,2.078s-2.279,3.43-2.089,4.76c0.189,1.328,6.267-0.76,6.267-0.76l1.14,4.938
				c0,0-5.887,2.277-6.077,2.848s2.278,3.799,2.469,5.129c0.19,1.328-5.697,3.988-5.697,3.988s-2.849-5.129-3.798-4.369
				c-0.95,0.76-3.799,4.369-3.799,4.369s-6.457-0.949-7.217,0s3.988-6.457,3.988-6.457s-7.195-1.164-6.268,0.379
				c0.57,0.949-0.76-3.229-1.52-4.559c-0.76-1.328,6.838,0.443,7.977-0.822c1.14-1.266-3.418-8.672-4.367-9.053
				C46.239,214.289,50.228,212.199,50.228,212.199z"/>
			<path fill="#036EB8" d="M96.757,212.177c0,0,3.559-2.258,4.153-3.396c0.595-1.141,3.186,5.201,4.264,4.785
				c1.078-0.418,2.219-4.871,2.979-4.924c0.76-0.051,4.029,0.709,4.009,1.277c-0.021,0.57-2.49,4.748-0.971,5.508s5.317,0,5.317,0
				s-0.189,5.127-1.139,5.508c-0.95,0.379-7.598,0-7.217,1.33c0.379,1.328,4.009,2.088,4.009,2.088s-1.921,1.52-2.681,2.09
				c-0.759,0.57-2.347-2.279-4.307-1.33s-4.43,4.748-5.568,4.938c-1.139,0.191-2.849-1.328-2.849-1.328l4.153-6.268
				c0,0-6.622-0.318-6.622,1.266c0,1.582-2.659-6.584-2.659-6.584s5.129-0.379,6.838-1.328
				C100.176,214.857,96.757,212.177,96.757,212.177z"/>
			<path fill="#036EB8" d="M148.034,212.177c0,0,6.267-3.488,6.457-3.537s-4.938-5.748-3.229-5.748s3.987-0.76,5.128-1.328
				c1.139-0.57,2.849,3.607,2.849,3.607l1.899-3.662h5.507c0,0-3.419,5.471-2.278,7.131c1.139,1.66,4.178-1.797,4.178-1.797
				s1.52,4.551,2.089,5.334c0.569,0.781-5.317-0.283-5.317,1.389s3.039,6.484,4.178,5.787c1.14-0.697-2.658,4.367-2.658,4.367
				l-6.268-6.014l-2.658,4.178l-5.129-1.52c0,0,3.229-5.508,2.47-5.887c-0.76-0.381-5.508,0-5.508,0L148.034,212.177z"/>
			<path fill="#036EB8" d="M140.627,219.353c0,0,4.559,2.152,6.078,2.152s-1.9,5.887,0,5.887c1.898,0,5.507-0.949,5.507-0.949
				l1.71,5.127l-7.598,1.9l3.229,4.557c0,0-3.229,1.521-3.229,3.039c0,1.52-5.697-6.078-5.697-4.938c0,1.139-1.52,6.836-1.52,6.836
				s-8.166-0.76-8.355,0s4.557-8.924,3.798-9.115c-0.759-0.189-7.11,1.414-7.11,1.414s-1.225-6.541,0-6.541
				c1.223,0,6.351-0.76,7.11-1.709c0.76-0.951-4.179-4.369-3.419-4.369s3.419-2.848,3.799-2.279c0.38,0.57,4.5,4.559,5.479,4.369
				C141.387,224.542,140.627,219.353,140.627,219.353z"/>
			<path fill="#036EB8" d="M112.161,231.181c0,0-0.021,3.785,2.448,4.082c2.469,0.295,4.368-5.559,5.317-5.195
				s3.987,3.592,3.987,3.592l-3.798,6.076c0,0,5.149-0.568,7.323-1.328c2.173-0.76-1.034,5.506,0,5.697
				c1.033,0.189-7.183,0.191-7.253,0.949c-0.07,0.76,5.321,5.129,6.708,4.559c1.389-0.57-3.93,3.418-3.93,4.367
				s-9.434-8.545-9.465-6.457c-0.031,2.09-4.02,6.457-3.449,7.406c0.57,0.951-7.977-1.139-5.982-2.088s4.273-7.219,3.514-7.408
				s-5.318-0.568-5.318-0.568s-0.189-5.889,0.76-5.889c0.95,0,5.508,0.191,5.508-1.139s-1.139-5.129-0.569-4.938
				C108.531,233.089,110.854,231.931,112.161,231.181z"/>
			<path fill="#036EB8" d="M60.673,238.787h4.748c0,0-2.089,5.887,0,6.646s6.077-0.758,6.077-0.758l2.279,5.887
				c0,0-4.748-0.76-5.697,0c-0.95,0.76,5.697,6.836,5.697,6.836s-6.458,3.039-6.553,5.508s-6.742-7.406-6.552-6.646
				s-6.457,4.938-6.267,6.268c0.189,1.328-6.838-1.898-6.457-3.418c0.379-1.52,4.557-5.51,4.557-6.459s-5.887,0.189-5.507,0.76
				s-0.018-6.266-0.018-6.266s3.815-0.381,5.146-1.33c1.329-0.949-3.609-3.988-2.85-4.938s4.369-2.85,4.369-2.85
				s2.415,6.078,3.866,5.889C58.964,243.724,60.673,241.255,60.673,238.787z"/>
		</g>
		<g>
			<path fill="#88D1F5" d="M72.447,205.294c0,0,4.748-3.717,5.508-3.473s2.658,5.371,3.799,5.182
				c1.139-0.191,1.52-7.598,2.469-7.977c0.949-0.381,5.127-0.189,4.748,1.52c-0.381,1.709-2.279,6.656-1.141,6.461
				c1.141-0.195,4.179-1.143,4.559-1.713s1.899,3.656,1.899,3.656s-5.673,2.641-4.938,3.537c1.141,1.389,5.835,2.369,5.888,3.441
				s-1.323,4.598-2.37,5.146c-1.049,0.551-7.315-4.008-7.506-3.059c-0.189,0.951-2.848,5-2.848,6.014s-5.439,0.941-7.787,1.014
				c-0.949,0.029,5.887-7.217,3.988-7.787c-1.898-0.568-4.559,1.898-4.938,0.76c-0.38-1.139-1.899-2.963-1.33-4.141
				c0.57-1.176,4.368-1.367,4.938-2.695C77.955,209.851,72.447,205.294,72.447,205.294z"/>
			<path fill="#88D1F5" d="M122.965,204.033c0,0,1.52-2.197,2.85-2.523c1.329-0.326,3.039,5.561,4.558,5.371
				s3.608-5.449,6.077-5.383s2.089,1.586,2.089,1.586l-1.519,3.803c0,0,5.507,0.473,5.697,1.754c0.189,1.279,0,5.838,0,5.838
				s-6.647-0.381-6.078,0.76c0.57,1.139,2.469,3.229,2.469,3.229s-2.849,6.328-3.988,5.254c-1.139-1.076-2.088-5.189-4.938-4.367
				c-2.849,0.822-3.287,5.381-3.287,5.381l-6.209-1.014c0,0,3.799-6.773,3.229-7.533c-0.568-0.76-6.457-0.379-6.457-0.379
				s2.436-7.604,2.602-7.168c0.168,0.436,4.996,1.188,5.375,0C125.814,207.451,122.965,204.033,122.965,204.033z"/>
			<path fill="#88D1F5" d="M144.806,246.316c0,0,5.128-1.848,5.128-3.393s5.317,5.102,5.317,5.102l1.14-6.268
				c0,0,4.178-0.379,4.748,0c0.569,0.379-1.141,5.697,0,6.268c1.139,0.57,2.849-0.381,4.367,0c1.52,0.379,2.09,5.887,2.09,5.887
				s-5.318-0.568-5.508,0c-0.189,0.57,3.229,5.889,3.229,5.889s-3.039,3.799-4.559,2.848c-1.519-0.949-5.887-4.938-6.836-3.418
				c-0.95,1.52-3.799,4.385-3.799,4.385s-4.178-0.967-5.317-1.346c-1.14-0.381,5.697-5.404,6.077-6.785
				c0.38-1.383-5.383-0.518-6.205,0s-1.961-2.881-1.961-2.881s5.508-1.334,5.317-1.627S144.806,246.316,144.806,246.316z"/>
			<path fill="#88D1F5" d="M87.071,229.033c1.3,0.281,4.558,1.33,4.558,1.33s-1.68,4.633,0,5.211c3.609,1.246,8.166,0,8.166,0
				s-1.328,5.658-2.278,6.016s-6.457,0.221-6.647,1.334c-0.189,1.113,3.039,2.631,3.419,4.342c0.38,1.709,1.52,2.85-0.854,3.039
				s-4.083-4.748-6.362-3.609c-2.279,1.141-4.938,5.129-4.938,5.129s-6.076-1.711-5.507-2.66s2.089-0.76,2.469-3.229
				s-4.938-1.139-5.317-0.568c-0.38,0.568,0-7.027,0-7.027s3.418,0.76,3.798,0s-1.899-4.18-2.469-4.369s4.843-2.479,4.843-2.479
				s2.627,4.082,3.831,4.082C86.701,235.574,84.882,228.56,87.071,229.033z"/>
		</g>
	</g>
	<g>
		<g>
			<path d="M21.448,52.606c-1.519,1.899-11.205-1.709-10.54-3.798c0.664-2.089,5.602-5.697,5.602-5.697s-0.189-2.469-0.949-3.039
				S5.305,37.604,5.305,37.604s-7.977,9.496-4.367,16.522c3.607,7.027,15.763,7.977,20.32,6.457c4.559-1.52,6.838-6.267,6.838-6.267
				l-4.938-5.128C23.157,49.188,22.967,50.708,21.448,52.606z"/>
			<path d="M39.869,30.197c0.189-1.329-8.197-5.453-11.773-4.558c-3.799,0.95-8.357,9.875-7.407,12.297s6.267,9.923,6.647,10.493
				c0.379,0.57,9.115,1.899,9.115,1.899s3.988-3.798,6.078-5.697c2.089-1.899-0.95-9.686-1.71-10.825S39.68,31.526,39.869,30.197z
				 M31.906,43.111c-4.001-0.57-3.408-8.903,0-8.546c1.545,0.162,5.685,0.254,6.064,3.356S35.906,43.681,31.906,43.111z"/>
			<path d="M51.074,31.906c-0.949,0-4.557-9.686-5.127-9.875s-6.457,2.089-6.457,2.089s2.279,5.318,5.508,10.434
				s2.278,7.418,2.278,7.418l13.104-7.418l-1.52-7.591C58.861,26.962,52.024,31.906,51.074,31.906z"/>
			<path d="M73.295,11.965c-4.938-3.608-11.965-1.33-15.193,1.139s-5.697,1.52-5.697,1.52s6.077,7.407,7.977,9.875
				s7.597,11.015,7.597,11.015s6.267-3.798,8.166-5.317s5.508-5.508,5.508-6.647S78.232,15.573,73.295,11.965z M72.155,22.801
				c-1.329,1.888-3.913,2.078-3.913,2.078l-4.443-7.027c0,0,3.799-3.228,6.078-2.089C72.155,16.902,73.484,20.914,72.155,22.801z"/>
		</g>
		<g>
			<path d="M108.809,5.128C107.479,3.229,106.15,0,106.15,0s-1.14,6.077-3.418,10.089c-1.99,3.504-4.559,6.624-4.559,6.624L92.287,0
				c0,0-0.95,1.33-2.659,1.899s-4.368,0-4.368,0s0,0,3.608,8.189s4.747,15.93,5.317,15.424s6.268,1.456,6.268,1.456l11.965-18.612
				C112.418,8.356,110.139,7.027,108.809,5.128z"/>
			<path d="M120.078,29.081c-0.439,0.165-0.443,0.167-0.443,0.167S120.04,29.285,120.078,29.081z"/>
			<path d="M128.561,18.802c-0.76-5.697-3.576-9.363-4.559-9.875c-4.367-2.279-9.495,5.697-10.064,6.593
				c-0.57,0.896-0.381,8.979,3.607,11.449c2.133,1.321,2.577,1.877,2.533,2.112c0.398-0.149,1.151-0.432,2.595-0.973
				C125.711,26.968,129.32,24.499,128.561,18.802z M116.596,17.852c0.76-3.542,4.586-2.333,4.586-2.333
				c1.491-0.136,3.391,2.688,3.011,3.365s-1.481,1.315-1.481,1.315s2.697,1.284,0,2.602S115.283,23.97,116.596,17.852z"/>
			<path d="M143.563,26.968c2.089-1.329,4.558-4.949,4.558-4.949s-0.189-3.217-1.519-6.699s-8.736-5.825-10.065-6.015
				c-1.33-0.19-2.279-2.469-2.279-2.469s-1.14,5.128-2.279,12.558c-1.139,7.43-6.836,15.739-5.127,15.158s8.926,2.86,9.686,2.291
				c0.759-0.57-0.38-11.775,1.898-8.736c2.279,3.039,4.179,9.496,4.179,9.496l5.507-3.05
				C148.121,34.553,141.475,28.297,143.563,26.968z M139.481,20.199c-1.995-0.638-2.153-2.6-2.153-2.6l0.918-2.279
				c0,0,1.332-0.994,2.471,0.199C141.854,16.712,141.477,20.837,139.481,20.199z"/>
			<path d="M202.248,45.01l-3.988-8.166c0,0-5.318,4.748-6.838,2.027s-1.519-8.674-1.519-8.674l-4.748,1.798h-1.52l2.47-5.027
				c0,0-3.988-1.52-5.129-1.456c-1.139,0.064-11.205-7.281-11.584-6.118c-0.381,1.163-3.039,1.262-5.128-0.511
				s-8.927-3.881-10.825-3.952s-2.09-4.843-2.09-4.843c-0.189,2.112-2.469,7.51-2.469,7.51l4.179,2.667c0,0-1.329,5.563-1.71,8.985
				c-0.379,3.422-3.229,4.555-3.229,4.555l7.787,3.798c0,0,1.898-7.027,2.089-8.353s1.52-5.781,1.52-5.781l4.748,2.043
				c0,0-1.899,2.215-3.038,7.343c-1.14,5.128-3.42,6.457-3.039,7.407c0.379,0.95,17.852,6.837,17.852,6.837s3.229-6.267,2.279-5.128
				s-9.686-3.608-10.256-4.051c-0.568-0.442,2.279-1.529,2.279-1.529s8.356,4.821,8.356,3.301s2.089-3.301,2.089-3.301
				s-8.356-4.485-8.166-5.625c0.189-1.14,8.546,0,8.546,0s3.419,11.965,4.748,13.674s-7.597,4.178-7.597,4.178l1.709,8.546
				c0,0,8.926-4.368,9.686-4.748s3.799,10.825,4.178,10.256c0.381-0.569,6.078-2.469,6.078-2.469s-5.128-8.546-5.128-9.875
				S202.248,45.01,202.248,45.01z"/>
		</g>
	</g>
</g>
</svg>
