<?xml version="1.0" encoding="utf-8"?>
<svg version="1.1" id="レイヤー_1" xmlns="http://www.w3.org/2000/svg" xmlns:xlink="http://www.w3.org/1999/xlink" x="0px"
	 y="0px" width="200" height="200" viewBox="0 -100 366 430" enable-background="new 0 0 266.548 290.342"
	 xml:space="preserve">
<g>
	<path d="M130.641,169.44c2.894-0.006,4.944,4.203,4.944,5.439s-3.214,3.956-4.944,3.214s-2.72-1.396-3.708-4.283
		S129.261,169.443,130.641,169.44z"/>
	<path d="M186.84,164.972c3.109-1.347,4.617,0.731,4.617,3.094s-3.956,5.082-5.686,2.61S183.459,166.437,186.84,164.972z"/>
	<g>
		<path d="M211.729,185.015c-2.225-2.719-4.368-5.439-4.368-5.439s1.154-12.855-0.576-19.283
			c-1.548-5.749-3.708-10.878-8.653-18.047s-14.586-6.181-19.53-5.439s-9.889,8.405-14.833,11.125s-19.778,1.978-23.239,1.978
			s-23.486,2.472-25.463,2.472s-7.417-0.989-10.136-3.956s-12.119-7.626-16.316-7.417c-9.889,0.495-19.53,10.877-20.272,15.822
			s6.428,14.586,6.675,16.811s1.236,5.686,1.236,5.686s-15.575-0.494-28.677,6.922s-20.767,22.25-16.811,51.174
			s18.294,33.374,28.43,44.252s28.815,18.416,28.815,18.416s-1.472,1.855,0.109,6.553c0.261,0.775-0.742,1.73-1.483,4.203
			s2.967,6.675,2.967,6.675s2.719-4.45,3.955-6.428s4.45-1.978,6.181-1.483s1.73,0.989,1.236,1.73s2.966,3.709,1.978,4.45
			s1.483,8.158,1.483,8.158s4.45-6.428,3.708-6.922s4.45-4.203,4.45-4.944s1.236-0.495,3.461,4.944s0,6.428,0,6.428
			s4.203-1.483,4.944-4.45s0.247-3.708-0.494-3.955s3.214-2.967,3.214-2.967s1.88,1.132,3.955,2.225
			c2.918,1.536,6.181,1.483,6.181,1.483s0.989,1.73,0.495,4.203s-0.989,4.696-0.989,4.696s5.686-1.235,6.181-2.966
			s-0.247-7.911-0.247-7.911s0,0,1.483-1.73s0.989-5.191,0.989-5.191s8.652,0.247,14.586-0.989s9.147-1.978,9.147-1.978
			s1.978,3.461,3.461,8.405s9.147,7.911,9.147,7.911s0,0,1.236,2.719s9.889,2.72,9.889,2.72s-4.203-1.73-4.697-6.428
			c-0.29-2.749,2.225-6.675,2.225-6.675s0.207,3.332,2.719,5.687c2.127,1.994,6.181,2.225,6.181,2.225s-3.708-6.675-4.203-6.628
			s0-5.486,0-5.486s2.719,1.483,4.45,3.709s3.956,1.73,3.956,1.73s-1.236-2.226-2.472-4.203s-0.247-5.686,0.495-7.416
			s4.203,0.494,5.438,2.225s0.248,6.675,0.989,7.169s4.697-4.449,4.203-6.922s-1.73-5.438-1.73-5.438s0,0-0.989-3.956
			s0.248-2.719-1.73-5.191s-7.417-8.158-7.417-8.158s5.192-7.911,4.697-14.339s-0.989-11.125-7.169-18.788s-7.417-8.653-7.417-8.653
			s8.158-4.696,12.288-10.226c5.762-7.715,8.479-11.529,10.209-19.935c0.249-1.21-0.495-6.922-0.495-6.922s-1.73,1.73,1.483-2.966
			S213.954,187.734,211.729,185.015z M52.025,201.579c10.178-9.979,20.52-11.866,20.52-11.866s0,20.519-10.383,33.375
			s-21.261,16.069-21.261,16.069S35.345,217.934,52.025,201.579z M133.113,307.389c-2.472,2.967-7.523,3.461-7.593,1.73
			s-1.726-5.439-4.112-4.203s-3.687,5.452-5.385,5.198s-1.451-4.456-3.429-4.209s-3.709,2.226-5.192,3.214s-4.45-0.989-4.45-3.214
			s-6.922-1.979-6.922-0.742s-4.45,1.006-2.719-4.317s14.338-10.763,23.733-9.279c3.419,0.54,9.726,2.224,12.527,7.169
			S135.585,304.422,133.113,307.389z M167.229,285.881c-4.944,6.675-2.967,11.866-2.967,11.866s-6.695,2.72-12.989,2.72
			s-13.216,0-13.216,0s-10.555-13.844-16.649-14.339s-11.534-1.978-17.467-0.247s-14.091,7.416-14.091,7.416
			s-26.599-16.069-33.571-25.711s-11.67-19.283-11.67-19.283s26.452-19.036,30.902-29.913s11.372-28.43,9.889-36.094
			s-7.417-18.542-5.686-23.98s8.9-9.395,12.608-6.428s5.933,8.9,12.608,8.9s11.875-2.344,22.992-3.461
			c7.285-0.732,27.441-1.483,32.138-2.472s7.751-2.225,11.91-5.439s5.148-9.888,13.554-9.394s10.203,9.953,13.597,17.305
			c4.45,9.642,1.483,21.014,1.483,21.014s-12.113,2.472-15.822,3.956s-4.45,4.944-4.45,4.944s-5.439-0.742-11.372-1.978
			s-4.45-2.472-8.405-1.483s-14.833,19.283-15.822,22.991s-3.461,23.979,10.63,31.396s21.755,3.709,21.755,3.709
			s-2.225,12.854-24.475,16.068s-36.588-1.729-39.061-2.966s-7.169-3.214-7.911-3.214s-4.697,0.988-4.697,0.988
			s6.18,18.79,16.811,24.97s37.33,5.933,42.027,2.225s9.889-8.405,9.889-8.405s9.394,4.449,10.877,5.933
			S171.646,279.918,167.229,285.881z M151.031,277.723c-10.501,2.966-25.011-1.73-29.623-6.181s-7.331-8.735-7.331-8.735
			s18.638,4.695,25.204,4.285c4.726-0.295,22.262-2.968,23.498-4.203S161.532,274.757,151.031,277.723z M198.598,293.297
			c-0.713,0.989-6.399-0.989-7.141,1.73s2.147,3.709-0.039,5.439s-3.96-2.719-5.792,0s1.833,4.943,0,5.933s-2.381-1.483-3.837,0
			s-2.908,2.72-2.908,2.72s-8.684-0.742-8.684-10.878s7.716-16.721,13.939-14.833c2.275,0.69,7.569,2.226,9.794,3.956
			S199.311,292.308,198.598,293.297z M193.929,261.9c2.426,10.383,0,19.036,0,19.036l-7.089-2.967c0,0-5.024-7.91-9.227-9.889
			s-4.203-1.979-4.203-1.979s1.236-1.483,0-3.214s5.631-4.695,8.378-9.641s3.837-4.945,3.837-4.945S192.264,254.771,193.929,261.9z
			 M185.625,234.953c-6.282,2.72-20.868,2.966-27.543-2.967s-7.664-14.833-3.956-24.722s7.17-15.011,11.125-14.428
			s6.675,2.314,8.158,2.314s4.203-0.742,4.203-0.742s1.267,6.675,9.227,9.394c3.155,1.078,8.936,6.181,8.936,6.181
			s-6.077,10.11-7.917,10.247s-10.246,3.598-10.246,3.598s-1.6,5.439-2.53,5.686s13.655-2.472,16.375-5.933s4.898-3.351,4.898-3.351
			l2.243,2.361C198.598,222.592,191.908,232.233,185.625,234.953z M203.571,214.794c-1.483,4.337-1.483,4.337-1.483,4.337
			l-3.49-2.225v-7.169c0,0,5.962-2.226,5.962-3.461S205.054,210.458,203.571,214.794z M205.795,194.41
			c-0.494,1.236-7.474-2.225-7.198-1.236s2.832,3.461,2.542,4.944s-0.346,4.203-2.542,3.956s-6.894-0.494-7.141-1.978
			s3.708-5.404,2.472-7.276s-4.848,1.342-6.009,3.073s-4.525-3.708,0-7.911s5.009-3.086,8.435-3.708
			c5.006-0.91,6.474-1.361,7.71,1.544S206.29,193.173,205.795,194.41z"/>
		<path d="M90.592,158.563c-10.136,2.72,0,10.877,0,10.877s2.719-0.989,3.214-3.708s3.214-2.472,3.214-2.472
			S93.218,157.858,90.592,158.563z"/>
		<path d="M186.018,152.135c0,0,0-2.72,0.989-4.716s3.956,4.716,3.956,4.716h2.967c0,0-1.73-3.956-3.708-6.922s-5.933-3.708-7.664,0
			s0,5.933,0,5.933L186.018,152.135z"/>
		<path d="M134.102,185.51c5.686-1.483,10.383-7.169,8.653-12.114s-5.3-10.04-10.877-11.187c-11.125-2.287-16.317,5.5-15.822,13.164
			S128.416,186.993,134.102,185.51z M119.269,171.171c3.284-8.187,6.676-6.168,10.302-5.439c4.207,0.846,6.509,1.571,9.229,8.079
			s-6.838,8.238-9.229,7.991S115.985,179.358,119.269,171.171z"/>
		<path d="M191.457,178.587c5.439-1.978,8.652-10.383,6.428-14.617s-7.679-7.485-12.855-7.879c-1.622-0.124-8.9,1.978-9.889,11.248
			S186.018,180.565,191.457,178.587z M179.096,167.585c1.73-7.292,5.104-6.551,7.744-7.787c2.614-1.224,6.922,1.456,9.067,6.181
			s-3.956,10.383-6.675,10.63S177.366,174.877,179.096,167.585z"/>
	</g>
</g>
<g>
	<path fill="#13AE67" d="M108.538,84.693c-0.06-0.476,1.646-2.799,1.234-3.375s-4.033-1.235-5.365-1.399s-1.796-0.659-2.208-1.235
		s0.741-1.646,1.07-1.646s0.247-2.799,0.165-3.292s-2.552-1.894-2.963-2.058s0.412-0.494,0.494-1.07s3.128-0.823,3.375-0.823
		s-0.247-4.116-0.494-4.604s-2.552-0.17-3.375-0.005s-3.622-3.869-4.034-4.61s-1.729-0.659-2.552-0.576s-2.305,3.457-2.305,4.116
		s-6.417,1.021-6.997,1.07c-0.981,0.083-1.811,4.856-1.894,5.433s8.479-0.247,9.138-0.412s0.082,1.729,0.082,1.976
		s-1.564,0.165-3.292,0.083s-3.375,1.317-3.128,1.646s-0.082,1.976-0.082,2.552s1.811,1.399,1.811,1.399s-3.046,1.07-4.363,1.893
		s-2.634-0.576-3.705-0.165s0.412,1.564,0.412,1.894s-0.082,2.963-1.317,3.951s-1.729,1.976-1.399,3.375s5.68,0.741,6.915,0.165
		s5.515-4.198,6.503-4.034s7.162-0.247,7.573,0s1.564,1.564,1.564,1.564s-4.445,0.494-5.433,0.577s-2.47,0.658-2.963,1.234
		s-2.881,0.494-2.881,0.494s0.823,7.573,0.659,9.137s0.576,7.82,0.988,7.573s7.573-0.906,10.454-0.741s4.774,1.152,4.774,1.152
		s-0.576-10.29-0.412-11.936s0.083-3.293,1.153-3.705s1.646,0.412,2.14,0.576s4.116-0.905,4.116-1.234S108.703,86.01,108.538,84.693
		z M93.065,82.224c-0.579,0-2.061-0.659-2.061-1.976s-1.152-2.223-0.412-2.634c0.935-0.52,5.104,0.329,4.939,0.823
		s-0.566,1.399,0.005,1.976S93.644,82.224,93.065,82.224z M95.622,89.714c1.065,0.14,3.778-0.493,4.025,0.741
		s-1.728,2.387-3.045,2.387s-3.533-1.237-3.619-1.647S93.737,89.467,95.622,89.714z M100.8,99.346
		c-0.412,0.576-2.783,0.906-5.178,0.988s-2.482-1.004-2.645-1.943s1.237-1.679,3.954-1.515c1.096,0.066,2.798-0.165,3.457-0.412
		S101.211,98.77,100.8,99.346z"/>
	<path fill="#13AE67" d="M117.346,80.166c0.29-0.061,2.387-0.165,2.799,0.659s2.305,1.729,2.716,1.235s1.4-4.856,1.976-4.774
		s4.856,2.457,4.856,2.457s-1.646,3.387-1.235,3.634s6.585,3.293,6.585,4.281s-0.247,6.009,0,6.503s-0.905,3.458-1.07,3.622
		s-2.881,0.659-2.881,0s-0.165-6.009-2.552-6.421s-2.436,1.564-2.329,2.634s0.765,7.984,0.765,8.231s-2.14-0.494-2.552-0.576
		s-2.964,0.329-3.128,0s0.247-9.054,0.247-9.795s0.165-1.268-0.329-2.075s-4.939-2.041-4.857-2.535S116.766,80.286,117.346,80.166z"
		/>
	<path fill="#13AE67" d="M133.48,78.766c0,0,6.833,3.21,7.985,4.774s1.317,4.116,1.152,4.61s-7.079-0.576-7.079-0.576
		S134.385,78.766,133.48,78.766z"/>
	<path fill="#13AE67" d="M145.745,84.117c0.38-0.316,2.963,3.718,3.622,4.164s1.482,2.504,1.482,2.504l1.646,5.104
		c0,0-3.622,0.823-3.951,0.412s-3.046-4.116-3.21-5.021S145.25,84.528,145.745,84.117z"/>
	<path fill="#13AE67" d="M157.763,81.153c0-0.42,6.092,4.774,6.174,5.433s0.988,4.363,0.988,4.363s-1.811,3.293-2.223,3.293
		s-4.445-2.306-4.939-2.964S157.763,82.47,157.763,81.153z"/>
	<path fill="#13AE67" d="M170.111,72.181c0.329-0.411,7.82-1.399,8.149-0.494s-0.165,8.266,0,9.442s0.116,11.137,0.116,11.137
		s-4.84-4.538-6.619-10.475C170.111,76.297,170.111,72.181,170.111,72.181z"/>
	<path fill="#13AE67" d="M174.247,96.794c0.753-0.772,3.683-0.84,4.136-0.379s3.005,1.449,2.923,2.272s-0.083,2.899-0.576,3.59
		s-4.692,1.843-4.939,2.337s-3.951-3.43-3.869-4.185S173.443,97.617,174.247,96.794z"/>
	<path fill="#13AE67" d="M182.623,76.132c0,0,4.116-2.964,5.104-3.293s6.421-0.659,8.067,0s2.058,1.399,2.387,3.787
		s1.564,4.164,1.564,6.897s-3.046,9.072-3.375,8.743s-2.305-1.811-2.963-0.905s-1.729,5.351-2.223,5.845s-3.869,0.247-3.951,0
		s-1.647-1.481-1.894-2.552s2.799-7.985,3.458-7.985s1.811,0.905,3.54-0.412s3.375-5.022,2.552-6.256s-2.222-1.234-3.704-0.823
		s-5.433,4.921-5.433,4.921L182.623,76.132z"/>
	<path fill="#13AE67" d="M190.443,99.346c0.654-0.258,2.14-0.987,3.045-1.07s1.152,2.305,1.235,2.963s0.741,3.417,0.741,3.417
		s-2.964,2.097-3.375,2.015s-5.268-1.07-5.268-1.564S188.152,100.251,190.443,99.346z"/>
</g>
<path fill="#F2A3C5" d="M20.115,46.573c-0.354-0.236-1.416-4.721-1.534-4.367s-6.02,3.659-6.02,3.659L6.66,40.79
	c0,0-6.137,4.603-6.609,9.914s2.479,9.914,4.603,12.629s1.298,8.852,1.298,8.852l1.534,1.888c0,0,2.125-0.944,2.715-2.714
	s7.554-6.728,8.97-8.026s3.423-9.796,3.305-11.685S20.469,46.809,20.115,46.573z M17.164,54.48
	c-0.354,1.652-2.006,5.147-3.895,5.465s-2.833,1.262-2.833,1.262s-3.895-6.846-4.367-8.144s-0.236-4.866,1.298-4.38
	s4.603,2.728,4.603,2.728s1.653-2.95,2.597-2.714S17.518,52.828,17.164,54.48z"/>
<path fill="#F2A3C5" d="M256.736,67.813c-0.415-0.094-3.004-3.908-2.989-3.535s-4.322,5.563-4.322,5.563l-7.321-2.642
	c0,0-4.097,6.486-2.647,11.618s5.846,8.382,8.798,10.163c2.952,1.78,4.365,7.81,4.365,7.81l2.106,1.218c0,0,1.649-1.639,1.57-3.503
	c-0.078-1.864,4.664-8.976,5.525-10.693s-0.29-10.373-1.072-12.096S257.151,67.907,256.736,67.813z M256.794,76.253
	c0.257,1.67-0.042,5.524-1.694,6.494c-1.652,0.969-2.198,2.188-2.198,2.188s-6.077-5.011-6.98-6.056
	c-0.903-1.044-1.953-4.463-0.347-4.556c1.607-0.092,5.273,0.911,5.273,0.911s0.494-3.345,1.46-3.461
	C253.275,71.657,256.537,74.583,256.794,76.253z"/>
<path fill="#F2A3C5" d="M323.824,146.748c-0.224-0.362,0.674-4.883,0.419-4.61c-0.255,0.273-6.996,0.827-6.996,0.827l-3.259-7.068
	c0,0-7.495,1.637-10.131,6.271c-2.636,4.635-1.865,10.048-1.061,13.4c0.804,3.352-2.498,8.591-2.498,8.591l0.611,2.355
	c0,0,2.325,0.024,3.598-1.341c1.272-1.365,9.666-2.98,11.494-3.573c1.827-0.593,7.184-7.488,7.861-9.255
	C324.541,150.579,324.048,147.109,323.824,146.748z M317.854,152.714c-1.008,1.356-3.963,3.849-5.813,3.353
	s-3.101-0.029-3.101-0.029s-0.698-7.846-0.588-9.222c0.11-1.377,1.808-4.524,3.001-3.445c1.194,1.079,3.053,4.394,3.053,4.394
	s2.729-1.997,3.49-1.39C318.657,146.982,318.863,151.358,317.854,152.714z"/>
<path fill="#A64A97" d="M346.375,36.286c-1.545-3.991-7.339-4.249-8.369-4.764s0.772-4.764,1.03-6.695s-2.575-5.15-5.021-6.051
	s-5.794-0.644-7.21,1.03s-3.552,3.024-4.764,3.476c-1.343,0.5-7.339-2.704-11.588-1.159s-6.438,5.537-5.922,10.815
	s4.893,7.082,4.893,7.082s-5.021,4.506-6.953,8.755s0.901,11.331,6.181,11.974s10.558-4.249,10.558-4.249s1.03,5.279,4.764,6.438
	s9.013-0.386,11.459-4.12s0-6.438-0.386-7.726s3.219-0.901,5.794-1.03S347.919,40.277,346.375,36.286z M331.053,23.281
	c2.985,0.065,3.219,4.12,2.317,6.566s-3.863,2.06-3.863,2.06s-1.931-0.901-3.219-0.772S323.299,23.112,331.053,23.281z
	 M313.284,54.054c-2.575,0.644-5.794-0.257-6.051-2.06s0.128-8.498,6.051-7.725c0,0,0.772,5.408,1.674,5.408
	S315.859,53.41,313.284,54.054z M311.34,36.157c-0.63-1.03-4.948-8.498,4.164-7.339c0.736,0.094,3.703,4.249,3.575,5.15
	s-1.227,4.378-2.03,4.378S311.97,37.187,311.34,36.157z M323.456,47.358c-1.674,0-7.21-0.515-6.309-4.506s4.727-7.714,6.309-7.468
	c1.451,0.226,2.961,0.644,3.348,4.635S325.13,47.358,323.456,47.358z M331.825,53.667c-0.258,3.09-2.061,5.021-3.992,4.12
	s-3.559-2.317-3.559-2.317s0.045-4.636,0.901-5.279s4.721,0.129,5.363-1.545C330.539,48.646,332.083,50.577,331.825,53.667z
	 M334.529,45.427c-4.249-0.258-3.605-2.061-3.605-2.704s-0.842-3.348-0.035-4.12s4.67-1.288,4.67-1.288
	c1.159,0,3.605-0.387,4.249,2.06S338.778,45.685,334.529,45.427z"/>
<path fill="#EA5514" d="M306.641,255.142c-1.545-3.991-7.339-4.249-8.369-4.765c-1.03-0.515,0.772-4.764,1.03-6.695
	c0.257-1.932-2.575-5.149-5.022-6.051s-5.794-0.644-7.21,1.03s-3.552,3.024-4.764,3.476c-1.343,0.501-7.339-2.703-11.588-1.158
	s-6.438,5.537-5.922,10.815s4.893,7.081,4.893,7.081s-5.021,4.507-6.953,8.756s0.901,11.33,6.181,11.975
	c5.279,0.643,10.558-4.25,10.558-4.25s1.03,5.279,4.764,6.438s9.013-0.386,11.459-4.12s0-6.438-0.386-7.726s3.218-0.901,5.794-1.03
	C303.679,268.79,308.186,259.133,306.641,255.142z M291.319,242.137c2.985,0.065,3.219,4.12,2.317,6.566
	c-0.901,2.447-3.863,2.061-3.863,2.061s-1.931-0.901-3.219-0.772S283.565,241.969,291.319,242.137z M273.55,272.91
	c-2.575,0.644-5.794-0.258-6.051-2.061s0.128-8.498,6.051-7.725c0,0,0.772,5.407,1.674,5.407S276.125,272.266,273.55,272.91z
	 M271.606,255.013c-0.63-1.03-4.948-8.497,4.164-7.339c0.736,0.094,3.703,4.248,3.575,5.15c-0.128,0.9-1.227,4.377-2.03,4.377
	S272.236,256.043,271.606,255.013z M283.722,266.215c-1.674,0-7.21-0.516-6.309-4.507s4.727-7.714,6.309-7.468
	c1.451,0.227,2.961,0.645,3.348,4.635C287.456,262.867,285.396,266.215,283.722,266.215z M292.091,272.523
	c-0.258,3.09-2.061,5.021-3.992,4.12s-3.559-2.317-3.559-2.317s0.045-4.636,0.901-5.279s4.721,0.129,5.363-1.545
	C290.805,267.502,292.349,269.434,292.091,272.523z M294.795,264.283c-4.249-0.258-3.605-2.061-3.605-2.704s-0.842-3.348-0.035-4.12
	s4.67-1.287,4.67-1.287c1.159,0,3.605-0.387,4.249,2.06S299.044,264.541,294.795,264.283z"/>
<path fill="#A64A97" d="M183.334,18.022c-1.545-3.991-7.339-4.249-8.369-4.764c-1.03-0.515,0.772-4.764,1.03-6.695
	c0.257-1.932-2.575-5.15-5.022-6.051s-5.794-0.644-7.21,1.03s-3.552,3.024-4.764,3.476c-1.343,0.5-7.339-2.704-11.588-1.159
	s-6.438,5.537-5.922,10.815s4.893,7.082,4.893,7.082s-5.021,4.506-6.953,8.755s0.901,11.331,6.181,11.974s10.558-4.249,10.558-4.249
	s1.03,5.279,4.764,6.438s9.013-0.386,11.459-4.12s0-6.438-0.386-7.726s3.218-0.901,5.794-1.03
	C180.372,31.67,184.879,22.013,183.334,18.022z M168.012,5.018c2.985,0.065,3.219,4.12,2.317,6.566s-3.863,2.06-3.863,2.06
	s-1.931-0.901-3.219-0.772S160.259,4.849,168.012,5.018z M150.244,35.79c-2.575,0.644-5.794-0.257-6.051-2.06
	s0.128-8.498,6.051-7.725c0,0,0.772,5.408,1.674,5.408S152.818,35.146,150.244,35.79z M148.299,17.893
	c-0.63-1.03-4.948-8.498,4.164-7.339c0.736,0.094,3.703,4.249,3.575,5.15s-1.227,4.378-2.03,4.378S148.93,18.923,148.299,17.893z
	 M160.416,29.095c-1.674,0-7.21-0.515-6.309-4.506s4.727-7.714,6.309-7.468c1.451,0.226,2.961,0.644,3.348,4.635
	S162.089,29.095,160.416,29.095z M168.785,35.404c-0.258,3.09-2.061,5.021-3.992,4.12s-3.559-2.317-3.559-2.317
	s0.045-4.636,0.901-5.279s4.721,0.129,5.363-1.545C167.499,30.382,169.042,32.313,168.785,35.404z M171.488,27.164
	c-4.249-0.258-3.605-2.061-3.605-2.704s-0.842-3.348-0.035-4.12s4.67-1.288,4.67-1.288c1.159,0,3.605-0.387,4.249,2.06
	S175.737,27.421,171.488,27.164z"/>
</svg>
