<?xml version="1.0" encoding="utf-8"?>
<svg version="1.1" id="レイヤー_1" xmlns="http://www.w3.org/2000/svg" xmlns:xlink="http://www.w3.org/1999/xlink" x="0px"
	 y="0px" width="200" height="200" viewBox="0 -90 335 390" enable-background="new 0 0 335.198 279.852"
	 xml:space="preserve">
<g>
	<g>
		<path fill="#F4B4D0" d="M67.689,125.706c1.124-1.623,5.564-4.554,8.094-4.385s9.443,0.675,9.612,9.95s-11.974,11.131-13.66,10.793
			S61.618,134.475,67.689,125.706z"/>
		<path fill="#F4B4D0" d="M14.568,142.102c0,0,2.867-6.414,7.589-6.008c4.722,0.404,11.13,2.428,10.961,8.668
			s-11.129,15.684-16.695,11.131S14.568,142.102,14.568,142.102z"/>
	</g>
	<g>
		<path fill="#0076BB" d="M48.719,167.643c0,0,5.08,5.313,9.468,5.313s21.231,3.662,31.408-9.469
			c10.177-13.133,12.128-16.903,12.128-16.903l3.806-5.286L110.841,130l-1.376-12.239l-1.825-11.547V95.821l7.589-7.106l4.157,2.949
			l10.623,22.631l8.103,37.04l-4.87,3.375l-13.625-6.697l-5.312,14.549l-20.89,20.117l-26.683,4.131l-14.318-4.131L48.719,167.643z"
			/>
		<path fill="#0076BB" d="M127.469,88.715h18.013l17.089,26.735l3.926,25.865c0,0-22.311,10.649-23.536,8.198
			s-3.714-28.751-3.714-28.751l-8.775-24.017L127.469,88.715z"/>
	</g>
	<g>
		<path fill="#E60012" d="M10.428,86.074l15.704-10.393c0,0-8.544-12.701-12.701-14.087S8.812,75.451,8.812,75.451L10.428,86.074z"
			/>
		<path fill="#E60012" d="M44.091,69.908H61.18l10.161,2.078c0,0-0.461-17.782-5.081-21.015s-13.857-1.848-15.473,0
			s-6.697,16.396-6.697,16.396V69.908z"/>
		<path fill="#E60012" d="M79.154,35.987l-3.695,7.492l10.161,7.981h9.469l-2.079,7.69l6.004,11.477l5.081,8.083l13.625,4.157
			l6.928,12.933l4.85,17.089l5.773,19.399l3.233,24.478l0.924,13.164l-6.004,7.852l1.386,3.49c0,0,8.083-8.801,7.621-12.727
			s-1.386-27.252-1.386-27.252s-6.005-21.938-7.39-25.864s-11.546-32.331-11.546-32.331l5.312-4.85l3.695-12.933l-3.002-10.623
			l8.083-2.079c0,0,3.695-8.545,3.002-10.161s-35.102-2.078-35.102-2.078L79.154,35.987z"/>
		<path fill="#E60012" d="M77.576,30.649c0,0,29.099,2.771,32.332,2.54s25.172,4.157,25.172,4.157s1.385-12.702-1.848-13.856
			s-9.237-2.309-9.237-2.309l-12.702,4.85l-5.773-1.155L94.666,18.64H84.273l-8.083,5.542L77.576,30.649z"/>
		<polygon fill="#E60012" points="56.33,163.668 81.502,153.738 105.783,129.951 105.783,137.928 92.356,159.049 76.191,166.209 
			59.563,168.98 		"/>
	</g>
	<g>
		<g>
			<path d="M218.997,86.927c-14.492-4.637-18.553-2.682-30.625,2.458c-9.831,4.187-22.576,14.083-22.576,14.083
				s-3.129-3.577-6.259-7.153s-8.047-8.941-8.047-8.941s1.788-7.6,0.67-13.636c-0.693-3.743-2.012-6.706-3.129-9.835
				s-8.047-8.271-8.494-9.835s1.788-2.235,3.353-4.247s1.788-1.341,2.235-0.671s0,1.789,0,1.789l3.576,3.129
				c0,0,5.812-1.565,6.63-1.565s1.641-6.259,2.088-7.153s2.235-1.789,5.141-1.341s7.824-2.683,7.824-2.683l-13.188-5.141
				c0,0,0,0-0.671-3.8s-4.471-7.153-6.706-7.153s-6.929,4.694-6.929,4.694s-3.526-7.309-7.377-9.835
				c-8.443-5.54-12.518-2.459-16.542-1.341s-6.259,5.588-8.718,3.85s-3.576-4.607-3.576-4.607
				c-3.353-2.099-11.624-6.396-19.671-4.607s-15.424,8.718-16.318,8.718s-14.083,1.118-14.977,0s-2.235-4.918-2.235-4.918
				s-9.164-0.221-8.717,4.473c0.519,5.455,1.565,9.165,1.341,11.4s-3.8,2.906-5.588,2.012S31.9,30.598,31.9,30.598
				s-3.352,4.245-3.576,6.704s1.565,10.953,6.036,11.624s9.835-2.906,9.388-1.118s0.671,3.576,0.671,3.576s-0.895,1.565-2.012,3.8
				s-0.447,9.388-1.118,9.388s-3.13-2.458-7.377-7.376s-7.376-3.8-14.977-2.906S7.983,58.537,4.63,66.808s3.8,26.601,3.8,26.601
				s-4.043,11.03-4.694,18.33c-1.85,20.75,6.036,35.988,16.542,44.707c10.506,8.717,18.777,8.494,18.777,8.494
				s1.565,4.471,3.577,8.047s4.917,20.119,4.917,20.119s-8.494,5.141-12.294,9.387c-3.8,4.248-28.836,23.025-32.636,30.848
				c-5.246,10.801-3.965,39.752,16.542,44.484c23.248,5.365,40.013-1.117,49.625-5.588s24.365-19.225,26.601-21.461
				c2.235-2.234,19-14.529,24.812-19.895s23.471-20.34,26.824-23.693s29.506-26.377,33.977-29.955
				c4.471-3.576,20.66-19.988,26.598-26.15c6.928-7.189,15.648-15.648,23.024-34.648C235.312,104.353,230.174,90.504,218.997,86.927
				z M157.303,39.539l5.588,2.012l-5.588,0.894V39.539z M43.077,44.125c-1.789,0.555-9.165,1.904-9.165,0s-4.21-6.741,2.683-4.586
				c0.64,0.2,6.259-0.238,6.482,0.999S44.866,43.571,43.077,44.125z M189.058,95.982c7.428-2.937,18.483-6.564,20.988-6.391
				c2.504,0.173-2.246,2.937-0.951,6.478c1.296,3.541,2.159,4.318,1.123,5.182s-9.234,9.586-10.188,9.241s-7.185-4.146-10.461-2.332
				c-3.275,1.814-5.779,5.096-5.693,8.032s2.764,5.873,3.022,5.959s-10.709,8.55-10.709,8.55s-4.146-13.474-4.75-14.423
				s-3.086-5.959-3.086-5.959S181.63,98.919,189.058,95.982z M199.94,122.584c-0.26,0.691-4.664,1.209-4.404-0.777
				c0,0,1.813-3.109,3.108-3.023S200.198,121.893,199.94,122.584z M191.044,118.006c-0.27,0.337-2.591-1.728-1.123-3.196
				c1.469-1.468,3.541-1.813,4.232-0.95S191.39,117.575,191.044,118.006z M153.907,97.019c2.418,2.418,13.992,20.383,16.064,29.97
				s1.987,30.746,0,35.064s-10.364,13.818-14.25,12.783c-3.887-1.037-5.96-7.602-6.478-8.551c-0.518-0.951-3.109-0.26-3.368-0.951
				c-0.259-0.689-2.305-8.119,0-8.723c1.855-0.484,15.459-4.664,17.619-8.895c2.159-4.232,4.664-8.292,3.973-13.301
				s-5.527-21.505-6.996-23.492s-9.069-14.769-9.76-15.201S151.489,94.6,153.907,97.019z M159.349,121.893
				c0.864,0.518,1.188,8.464,1.544,9.328s-3.186-2.418-2.753-2.764s0.864-2.85,0.864-3.196s-2.408-1.123-2.672-1.295
				s-2.596,2.85-3.287,2.677s-4.75-1.727-5.182-2.764s-1.555,3.627-1.555,3.627s4.836,2.291,4.836,2.743s-4.578,5.375-4.578,5.375
				s0,1.9,0.605,1.9s3.972-3.276,4.404-2.502s-0.95,8.635-0.259,8.375s3.368-0.689,3.541-1.209c0.173-0.519,0.614-6.391,1.473-6.478
				s5.091,2.159,5.091,2.159s-1.9,3.986-5.527,5.533c-3.627,1.549-11.833,5.521-12.265,4.572c-0.432-0.951-2.85-14.251-3.368-17.188
				s-3.109-13.473-3.109-13.473l2.159,1.095c0,0,2.505-1.181,3.282-0.404s-0.518,3.023-0.518,3.023s1.9,1.295,2.591,1.209
				s1.9-4.664,2.677-4.405s4.232,2.073,4.578,1.9s1.987-2.16,1.512-2.591s-4.276-1.555-4.017-2.246s2.678-1.468,2.678-1.986
				s-1.554-3.713-2.073-3.282s-2.073,2.107-2.332,1.917s-3.542-1.745-3.584-1.745s-1.598,1.036-1.684,1.382
				s-0.259-0.519-0.864-0.777s-2.591,0.726-2.677,1.14s0.691,2.228,0.777,2.66s-2.246,2.159-2.246,2.159s-3.455-11.573-4.232-13.128
				s-2.941-6.477-3.803-8.377s-2.588-6.046-2.588-6.046s3.455-0.259,3.455,0s1.037,2.185,1.468,2.172s3.541,0.246,3.541,0.592
				s-1.641,2.677-1.382,3.627s2.266,0.691,2.342,0.95s1.89-5.096,2.84-4.318s2.418,0.259,2.418-0.173s0.432-1.727,0.432-1.727
				s2.159,1.918,4.405,6.228S158.485,121.375,159.349,121.893z M129.378,180.441c0.864,2.42,3.023,10.969,1.123,14.424
				s-9.171,7.6-17.965,9.242c-6.478,1.209-8.637-2.418-9.155-3.195s-7.168-10.105-8.032-10.277
				c-0.864-0.174-2.332-1.814-8.464-1.555c-6.132,0.258-12.264,3.973-12.264,3.973s5.268,0.689,5.441,1.381
				s-0.741,7.016-3.023,8.982c-2.504,2.16-7.341,4.75-13.905,2.85c-6.564-1.898-6.909-9.5-7.341-10.623s-2.678-8.463-1.814-8.637
				c0.864-0.172,9.239,0.865,12.523,0.951c1.831,0.047,12.846,0.127,19.519-2.332c6.999-2.58,18.123-6.031,22.801-10.711
				c4.664-4.664,5.873-7.34,6.65-11.572s2.418-10.451,2.937-10.451s4.664,2.506,7.341,2.678s9.673,0,9.76,0.346s1.209,6.996,0,8.119
				c-1.209,1.121-2.937,1.467-5.182,5.096C128.083,172.756,128.515,178.023,129.378,180.441z M113.267,47.139
				c1.565,0.447,10.506,7.376,12.071,12.965s2.235,13.636,0,13.859s-6.249-4.917-9.16-4.247s6.957-3.399,7.818-7.153
				s-5.365-8.42-6.93-9.24s-5.365,4.993-5.141,5.887s-4.694-0.447-7.376-0.67s-3.8,2.682-3.129,6.929s4.47,5.588,6.035,4.694
				s6.547-2.682,6.547-2.682s-0.735,5.379-4.088,6.49s-3.353,1.11-3.353,1.11l6.259,2.682c0,0,2.246-4.471,3.358-4.471
				s6.477,3.353,7.595,3.353s-5.365,4.471-13.188,3.353s-10.283-10.506-10.729-13.412s-1.903-11.167,1.341-14.753
				C105.443,47.139,113.267,47.139,113.267,47.139z M102.76,38.997c0,0,5.589-0.144,6.483,1.541s-0.224,1.254-0.895,1.804
				S101.419,40.243,102.76,38.997z M117.514,40.538h4.694c0,0-3.353,3.927-4.694,3.588S113.937,40.538,117.514,40.538z
				 M116.178,58.316c1.754-0.32,2.677,2.235,2.677,4.023s-5.365,2.012-4.471,0S113.724,58.763,116.178,58.316z M109.69,67.034
				c-2.235,3.129-7.376-2.459-2.906-4.471C108.211,61.921,111.925,63.904,109.69,67.034z M137.711,158.664
				c0.271-0.342,3.471-4.125,3.971-4.125s0.125,4.5,0,5s-4.066,4-3.971,3.5S137.143,159.377,137.711,158.664z M137.711,153.164
				c-0.029-0.5-0.337-2.625-0.337-2.625c0.683-0.5,3.433-4.135,3.433-4.135l0.625,3.557
				C141.432,149.961,137.741,153.664,137.711,153.164z M140.262,142.539c-0.33,0.25-2.646,4.232-2.551,3.865
				c0.096-0.365-1.674-4.307-1.029-4.866c0.34-0.296,3.024-2.25,3.024-2.25S140.592,142.289,140.262,142.539z M136.541,138.538
				c-0.483-0.5-1.91-3.181-1.483-3.775c0.255-0.355,1.809-3.475,2.654-3.6s1.482,3.125,1.482,3.125S137.024,139.038,136.541,138.538
				z M137.374,126.042c-0.192,1.122-2.396,4.36-2.396,4.36l-0.921-3.239c0.125-0.375,1.842-4.185,2.483-4.03
				S137.566,124.92,137.374,126.042z M132.182,122.288c-0.375,0-0.75-2.25-0.75-2.25c0.5-0.125,2.125-5.25,2.625-4.75
				s0.843,1.591,0.921,2.358S132.557,122.288,132.182,122.288z M133.206,110.913c-0.274,0.375-2.774,3.375-2.774,3.375l-0.75-2.112
				c0.5-0.263,2.75-4.638,2.75-4.638S133.48,110.538,133.206,110.913z M128.37,105.636c-0.813-0.098-1.423-0.316-1.313-0.973
				c0.132-0.779,0.375-6,1-5.75s1.5,2.241,1.625,2.871S129.182,105.733,128.37,105.636z M130.588,124.311
				c0.086,0.777-0.604-0.259-1.813,0s-3.713,5.269-4.232,5.269s-5.441-3.109-6.391-2.677s-1.468,2.159-1.468,2.159
				s5.441,4.232,5.441,4.836s-4.319,1.209-3.8,1.814s1.469,2.245,1.9,1.813s1.555-1.754,2.937-1.05s0.957,2.346,0.479,3.382
				s-0.738,1.555-0.738,1.555s1.987,0.26,2.332,0s2.16-4.059,3.023-3.541s4.405,3.195,4.836,3.195s1.209-1.727,1.209-1.727
				s2.073,8.896,1.9,9.328s-7.255,1.813-11.055,0c-3.8-1.814-6.305-5.959-6.737-7.947c-0.432-1.986-4.75-15.028-6.391-18.396
				s-2.937-11.487-2.764-11.833s4.318-1.295,4.318-0.172s-1.728,4.146-1.728,4.146s3.998,2.591,4.331,2.332s1.197-5.096,1.974-4.621
				s3.714,2.894,4.059,2.894s2.159-3.334,1.986-3.524s-3.454-3.385-3.282-3.731s2.245-0.69,2.332-1.209s-0.777-3.369-1.209-3.455
				s-1.468,2.246-1.986,1.987s-0.95-1.037-0.95-1.641s1.468-5.009,1.382-5.527s-2.245-1.043-2.332-0.781s-1.468,4.926-2.332,4.494
				s-4.836-2.332-5.182-2.159s-1.845,2.851-1.397,2.851s3.643,1.986,3.643,2.764s-0.95,2.763-1.468,2.418s-1.814,1.169-3.023-1.92
				s-1.382-9.653-0.346-10.776s9.76-4.405,11.142-3.8c0,0,6.392,15.633,7.514,17.792S130.502,123.534,130.588,124.311z
				 M130.588,135.021c-0.259,0.086-2.591-2.375-2.591-2.375s1.295-2.202,1.813-2.375
				C130.95,129.891,130.847,134.935,130.588,135.021z M97.287,167.316c-0.395-0.088,5.059-3.455,5.317-4.146
				s-1.641-2.072-1.727-2.678s-2.764,3.455-3.59,3.195c-0.827-0.258-0.037-4.23,0-4.576s-2.801,0.346-2.801,0.346
				s5.031-4.492,8.125-9.674c2.164-3.625,5.952-14.424,5.952-14.424s1.209,3.455,1.728,4.664s0.864,9.242-0.604,13.732
				c-1.468,4.492-6.996,15.893-8.119,15.979S97.682,167.402,97.287,167.316z M95.609,174.924c-0.345-0.699-1.208-4.07,0.346-4.674
				c0.688-0.266,3.196,1.938,3.541,1.877S95.954,175.621,95.609,174.924z M119.682,82.038c0.947-0.437,3.115,0.353,3.451,0.089
				c0.03-0.105,0.049-0.147,0.049-0.089c0,0.04-0.02,0.067-0.049,0.089c-0.232,0.801-1.259,5.699-1.701,5.036
				C120.932,86.413,118.057,82.788,119.682,82.038z M124.682,97.188c-0.625-0.65-1.5-2.4-1.5-2.4s1.625-5.625,1.875-5.25
				s1,1.732,1.125,2.616S125.307,97.839,124.682,97.188z M110.389,83.352c2.43,0.671,3.124,0.67,3.895,2.235
				s-7.053,5.812-7.723,3.577s-2.683-8.986-2.683-8.986S107.959,82.681,110.389,83.352z M97.25,148.92
				c-6.91,9.586-24.096,15.891-34.72,16.928s-5.959-1.469-5.959-1.469s7.427-3.109,8.377-2.678s11.314-1.641,17.792-6.477
				c6.478-4.838,16.41-16.67,17.36-19.434s3.713-10.364,4.059-10.882S104.16,139.332,97.25,148.92z M90.427,167.316
				c0.173,0.346-3.973,1.898-3.8,2.158s0.519,1.209,1.123,1.295c0.604,0.088,5.055-0.691,5.032-0.086s-2.7,4.664-2.009,5.01
				s1.382,0.949,1.468,1.555s-7.687,2.764-11.833,3.713c-4.146,0.951-10.84,1.557-11.25,1.211s-0.713-4.578,0-4.232
				s3.924,1.641,4.175,1.641s0-2.418,0-2.418s-4.795-1.209-4.604-1.469s4.093-3.195,4.604-3.109c0,0-0.856-2.16,0-2.678
				s6.556-1.742,10.443-3.807c3.887-2.066,8.982-5.607,8.982-5.607s0.173,4.318-0.432,4.578s-2.764-1.9-3.023-1.555
				s-2.246,2.584-2.246,2.584S90.254,166.971,90.427,167.316z M67.626,173.967c-1.296,0.172-1.288-0.26-1.335-1.037
				s-0.646-2.102,0-2.16c0.818-0.072,5.566-0.432,5.999-0.518S68.922,173.793,67.626,173.967z M56.398,169.906
				c1.728,0,7.082,0.346,7.168,0.863c0.086,0.52,0.432,2.766,0,3.197s-3.541-1.297-4.059-0.951s-1.554,1.9-0.691,1.986
				s3.714,1.555,3.541,1.9s-2.827,2.506-2.234,2.85c0.593,0.346,1.543,1.297,2.147,1.209c0.604-0.086,3.381-4.023,4.02-3.107
				c0.366,0.523,0.385,4.662,0.385,4.662s-6.219,0.174-9.673-0.689c-3.455-0.865-5.096-1.383-5.096-2.506s-3.8-10.623-2.504-12.004
				C49.402,167.316,54.67,169.906,56.398,169.906z M133.006,171.121c1.468-1.641,2.85-2.332,3.714-2.332
				c0.61,0-1.986,7.082-2.937,7.168S131.538,172.762,133.006,171.121z M135.557,177.246c0,0,3.375-3.207,3.625-2.207
				s-3.75,3.875-3.625,3.875S135.557,177.246,135.557,177.246z M138.807,172.039c0.125-0.375-1.5-2.25-1-3.625
				c0,0,4-3.066,4.625-2.721s0.375,3.221,0,3.221S138.682,172.414,138.807,172.039z M145.679,67.034
				c1.565,5.812,3.353,16.239,2.235,17.955s-5.91-0.519-11.002-1.19s-14.48,3.13-11.351-2.012c0.986-1.621,8.27-6.035,8.047-11.177
				s-4.024-11.231-2.235-12.322S144.114,61.222,145.679,67.034z M141.208,45.109c-0.447,1.807-2.012,5.16-4.471,5.383
				s-8.494,3.129-9.947,0.894s-3.018-4.202-3.018-4.202s5.812-3.778,5.812-5.041c0-1.536,3.577,4.955,3.577,5.199
				s4.023-1.321,4.023-1.321s-2.235-3.956,0-3.878S141.656,43.302,141.208,45.109z M147.244,35.173c0,0,0.488-4.004,2.683-4.603
				c3.992-1.088,5.588,10.533,3.129,15.451s-5.588-5.484-5.588-5.484l-16.318-1.541c0,0-0.036-1.672,1.564-1.886L147.244,35.173z
				 M126.893,20.986C135.62,22.55,139.42,32.83,139.42,32.83s-2.682,3.16-2.906,2.141s-1.789-0.356-1.565-2.141
				s-0.447-4.99-1.118-4.84s-4.694,1.493-4.694,1.493l-0.447,3.347l-6.036-4.84l-4.247,2.581l-4.247-1.984
				C114.161,28.586,118.166,19.421,126.893,20.986z M126.455,35.089c0.894,1.544,0.894,2.4-4.694,1.86s-24.142-1.86-24.142-1.86
				l0.894-2.259C98.513,32.83,125.561,33.544,126.455,35.089z M92.031,19.197c6.706,1.118,14.977,7.829,15.2,10.285
				s-6.482,0-6.482,0s-0.67-4.25-2.012-5.591s-2.682,0-2.682,0s-1.783,3.577-2.792,3.353s-5.927-3.353-5.927-3.353l-1.564,0.923
				l1.788,2.877h-5.141l-3.129-3.8C79.29,23.892,85.325,18.08,92.031,19.197z M86.442,35.074c-2.682-0.229-5.588,0.215-4.917-2.242
				s3.577-2.257,3.577-2.257s6.259,0.918,6.482,1.588S89.125,35.303,86.442,35.074z M83.313,37.111c2.459,0.64,4.924,0,4.924,0
				l-4.924,6.451l3.199,2.459c0,0,6.195-6.896,6.751-7.024s2.792,1.708,2.792,1.708c0.894,0.399,3.129,3.441,3.129,3.441
				s-5.136,5.005-5.921,5.452s-6.567,1.9-14.868-4.447C74.818,42.416,80.854,36.472,83.313,37.111z M91.583,56.304
				c-1.006,1.118-2.906-2.683-2.906-2.683s3.354-0.671,3.8,0S92.589,55.187,91.583,56.304z M52.242,23.892
				c2.683,0,7.153,2.012,7.153,2.012c2.235,0.447,8.048,1.789,10.283,1.565s4.47-0.844,4.694,0.025s1.341,7.799-1.118,7.575
				s-4.247,0.005-4.247,0.005s-2.459-2.688-6.706-3.358s-6.259,0.447-6.259,0.447s-2.459-0.89-3.8-1.674
				S49.559,23.892,52.242,23.892z M67.454,43.786c0,0-0.102,0.576-0.107,0.011c-0.713,0.071-5.172,0.498-6.61,0.254
				c-1.565-0.265-3.8,0.298-3.353-3.336s2.903-4.302,5.373-3.411c1.79,0.646,4.91,1.118,4.687,4.471
				c-0.076,1.141-0.099,1.731-0.096,2.022C67.409,43.791,67.454,43.786,67.454,43.786z M69.901,52.504
				c5.142,6.482,4.024,14.753,4.024,14.753s-12.294-2.682-15.424-2.012s-9.835,2.012-9.835,2.012
				c-0.671-2.683,2.012-15.201,6.259-17.883S64.759,46.021,69.901,52.504z M48.442,40.538c2.012-3.458,3.129-3.049,4.247-3.588
				c0.923-0.446-0.67,5.272,0,6.167s-4.247,4.247-4.247,4.247S46.43,43.995,48.442,40.538z M33.321,60.179
				c3.577,1.788,4.838,7.078,4.838,7.078s-7.6,4.694-7.935,4.247s-6.147-11.848-7.936-12.294
				C20.595,58.787,29.744,58.391,33.321,60.179z M12.676,62.563c1.059-0.692,4.694-1.564,7.153,1.341s6.259,8.941,6.259,8.941
				s-5.365,3.353-6.706,5.812s-5.142,5.588-5.588,6.706S6.864,66.363,12.676,62.563z M18.888,121.625
				c-0.789-2.734-1.788-4.259-4.837-3.365s-2.524,1.788-3.05,1.735s-0.736-0.999-0.736-0.999c-0.368-0.579,1.472-3.05,4.68-3.313
				s4.943,0.894,5.626,2.839s2.261,6.94,1.104,11.252s-4.256,4.122-5.522,3.944c-3.364-0.473-7.307-2.629-6.834-4.837
				c0.161-0.749,2.228,3.167,6.625,1.84C19.256,129.722,19.788,124.742,18.888,121.625z M20.203,145.602
				c-0.053,0.525-1.682-0.787-1.104-1.576s3.891-3.208,4.785-3.156c0.42,0.025,1.946,1.367,2.051,1.578
				S20.255,145.076,20.203,145.602z M23.357,150.176c-0.105,0.527-2.682-1.629-2.524-2.34c0.158-0.709,4.995-3.918,5.731-3.76
				s1.209,1,1.262,1.42C27.875,145.873,23.462,149.65,23.357,150.176z M25.724,152.123c0.095-0.9,7.046-6.754,8.466-6.4
				s-1.314,4.664-3.155,5.611C29.194,152.279,25.618,153.121,25.724,152.123z M38.159,158.684
				c-10.657-2.061-9.165-4.248-9.165-4.248s7.376-1.789,9.165-5.141c1.789-3.354,3.354-4.918,4.918-5.813s2.022-2.223,11.847,2.922
				c6.371,3.338,22.8-5.604,22.8-5.604s6.036-0.224,7.824-0.671s2.235-2.234,2.235-2.234s-5.588-0.825-5.588-1.419
				s-0.67-4.841,0.224-4.841s7.376-2.235,8.718-3.353s3.577-4.024,2.459-3.353s-11.847,2.683-11.847,2.683s-1.341-1.565,0.67-2.459
				s14.306-5.364,16.094-7.153s-8.047,0.67-11.847,2.012s-14.53,5.365-14.53,5.365s-6.482-1.564-8.271-0.894
				s-9.835,5.812-9.835,5.812s1.565,2.235,2.235,2.458s1.341,2.976,0.447,3.723s-2.905,2.313-5.812,2.536s-6.259-0.67-7.824,0
				s-3.577,2.012-3.577,2.012s-4.694,0.895-5.588,2.012s-3.353,2.459-2.906,0.895s2.682-2.459,3.576-4.023
				c0.895-1.565-0.67-1.342-3.576,0.223s-2.601-1.117-2.083-1.788s4.095-1.048,5.212-1.865s-5.812-3.276-8.047-2.605
				s-7.996,4.024-7.91,4.694s-3.043,4.918-4.608,3.129c-1.565-1.787-4.716-9.786-3.458-8.89c1.688,1.203,4.904,3.166,9.27,2.184
				s4.917-8.271,4.471-12.071s-2.682-11.624-8.271-10.729s-1.401,0.192-5.614,1.788c-1.771,0.671-0.645-3.576,1.367-3.8
				s6.843-2.235,6.843-2.235s-5.622-2.906-7.909-1.565s0.023-5.118,7.909-4.471c5.451,0.447,4.82,9.336,9.475,16.318
				c5.365,8.047,12.294,5.142,14.083-1.117s0.224-18.33,3.577-21.459s2.907-7.6,15.983-7.824s11.717,10.283,12.732,11.4
				s5.709,13.188,15.768,10.729s9.843-11.239,8.718-18.553c-1.341-8.718-0.708-4.72-4.809-13.313
				c-2.121-4.443-11.062-3.616-11.286-6.552s-1.788-6.883-6.482-14.187s-1.789-7.303-4.694-8.644c0,0,10.06,2.458,12.742,4.917
				s12.07,21.012,14.753,22.8s4.694,15.648,4.694,17.212s2.288,17.144-3.353,30.177c-6.482,14.977-8.271,18.123-21.683,25.931
				C64.983,157.549,60.819,163.064,38.159,158.684z M64.665,129.722c1.021,0.21,5.959-1.052,6.698-1.104s1.579,1.524,0.948,1.84
				s-7.834,1.525-8.36,1.052C63.704,131.287,63.644,129.512,64.665,129.722z M64.161,128.092c0.789-1.841,4.004-1.262,4.004-1.262
				S63.97,128.538,64.161,128.092z M64.319,133.887c0.999,0.042,8.308-0.905,8.308-0.642s-0.894,2.786-3.05,3.26
				s-8.456,0.286-7.782-0.525C62.08,135.637,63.32,133.846,64.319,133.887z M75.304,133.887c-0.363-0.011-1.109-0.748,0-1.063
				l0.057-0.263c0.473-0.105,3.576-1.361,3.891-0.943s-0.42,4.821-0.789,5.144s-3.628,0.729-3.103,0
				C75.887,136.031,75.667,133.898,75.304,133.887z M75.256,130.117c-0.105-0.658-0.873-1.856-0.421-1.951
				c0.258-0.054,4.364-1.073,4.732-1.021s0.579,1.524,0.368,1.788S75.361,130.775,75.256,130.117z M75.939,139.502
				c0,0.421-8.308,5.207-9.149,3.313c-0.128-0.287,3.365-3.26,3.996-3.313S75.939,139.082,75.939,139.502z M64.634,139.555
				c-0.368,0.474-1.63,1.945-2.629,2.104s-5.479-1.227-5.153-1.525c0.16-0.146,1.473-1.156,3.313-1.156
				S65.002,139.081,64.634,139.555z M18.138,258.086c-3.196,2.072-3.454,3.541-4.836,2.938c-1.382-0.605-1.209-2.85-3.023-3.715
				c-1.814-0.863-3.714-0.086-3.627-1.295s-0.777-11.572,7.946-23.232s20.479-22.004,26.256-25.855
				c6.098-4.064,8.119-6.707,8.723-6.793s2.159,7.688,4.836,9.414c2.677,1.729,8.584,3.033,17.792,1.9s9.5-7.514,9.76-8.291
				s0.69-9.846,0.69-9.846c0.777-0.172,4.491-1.729,7.946-1.641c3.455,0.086,4.836,3.541,5.009,4.059
				c0.173,0.52,1.555,1.814-1.295,3.715s-19.692,17.359-24.097,19.432c-4.405,2.074-18.829,14.166-19.26,14.252
				s-2.159,1.037-3.368,0s-6.391-3.443-10.018,0.48s-0.777,8.414,0,9.191S21.334,256.014,18.138,258.086z M44.48,244.008
				c0,0,3.714-4.268,4.836-3.99s2.505,4.336,0,5.545S43.901,244.65,44.48,244.008z M41.285,239.949c-1.295-1.037-2.159-1.9,0-3.455
				s3.368-0.604,3.627,0.432C45.171,237.963,41.924,240.461,41.285,239.949z M222.567,122.06
				c-4.059,6.391-27.811,33.597-30.574,35.843s-26.859,23.75-28.5,25.391c-1.641,1.643-29.02,26.256-31.956,27.984
				c-2.937,1.727-28.068,23.061-30.918,24.787s-22.196,18.396-28.329,21.16s-16.063,12.01-28.845,14.602
				c-12.782,2.59-19.951,1.986-19.865,1.467c0.086-0.518-2.851-6.736-3.714-6.996c-0.863-0.258,6.476-6.221,6.476-6.221
				c0.691-0.518,13.732-12.695,14.51-12.438c0.777,0.26,4.75,4.318,8.292,3.541s7.543-4.93,7.255-8.896
				c-0.119-1.633-2.332-3.262-1.9-4.438s18.396-15.168,20.642-16.031s23.836-19.953,23.836-19.953s2.764,6.133,5.355,7.514
				c2.591,1.383,8.637,1.986,15.719-0.172c7.082-2.16,16.118-8.645,17.273-11.746c1.641-4.404-1.641-16.236-1.641-16.236
				s5.009-3.629,5.787-4.578s1.9-4.924,2.159-5.27c0.259-0.344,1.451-0.518,2.764,0.951c1.492,1.668,3.714,5.268,4.405,5.787
				c0.691,0.518,6.415,0.268,8.464-0.432c3.54-1.209,12.415-8.533,14.682-13.301c2.505-5.268,2.159-22.109,2.159-22.109
				s-0.172-4.764,1.037-5.794s12.868-10.703,13.818-10.53s4.837,2.332,7.859,2.418s7.516-1.942,8.205-4.405
				c1.209-4.318-1.555-7.6-1.813-7.773c-0.26-0.173,7.859-10.191,10.191-11.142s3.714-0.432,5.354-0.777s3.022-1.381,3.628-1.036
				C224.985,103.577,226.626,115.668,222.567,122.06z"/>
			<path d="M39.29,126.042c-1.209,0-5.733,3.951-6.205,3.996c-1.104,0.105-0.841,2.787,0,3.523s6.94,1.472,7.677,1.104
				s2.471-5.048,2.577-6.152S40.5,126.042,39.29,126.042z M38.186,131.457c-0.526,0.263-2.997,0.264-2.997-0.683
				c0-0.848,3.26-2.313,3.681-1.683S38.711,131.194,38.186,131.457z"/>
			<path d="M58.535,96.911c4.458-0.718,8.729,0.42,9.307,0.578s0.841-0.21-1.578-2.418s-7.834-1.525-11.778-0.315
				s-5.206,5.468-4.732,5.994C49.754,100.75,52.33,97.91,58.535,96.911z"/>
			<path d="M58.692,99.961c-2.263,0.028-13.671,7.939-9.78,16.195s10.463,7.572,17.562,5.995s8.308-10.464,5.363-16.353
				S60.24,99.941,58.692,99.961z M60.112,121.099c-3.103,0.473-9.464-4.154-9.044-8.308s2.307-10.013,9.654-10.411
				c1.807-0.098,8.304,0.845,9.644,8.466S63.215,120.625,60.112,121.099z"/>
			<path d="M62.215,105.745c-4.627-0.684-7.098,1.946-8.045,5.048s1.367,7.309,4.522,7.835s7.256-1.262,7.572-5.626
				S64.063,106.018,62.215,105.745z"/>
			<path d="M123.075,177.598c-1.209-0.863-6.698,0.088-7.601,0.432c-5.441,2.074-3.886,9.07-3.714,10.969
				c0.172,1.9,2.159,3.197,3.023,2.852s2.332,3.453,3.023,4.922s7.341-1.555,9.069-5.527S124.284,178.461,123.075,177.598z"/>
			<path d="M166.43,149.961c-1.468,0-4.819,4.111-5.787,4.492c-2.418,0.949-5.009-0.088-6.737,3.973
				c-1.728,4.059,1.641,5.873,4.146,6.736s6.65,1.381,9.069-4.318C169.54,155.143,167.898,149.961,166.43,149.961z"/>
		</g>
		<path d="M232.355,85.281c0,0,10.492-4.451,14.308-11.446c3.814-6.995,15.896-46.736,20.665-59.454s9.419-12.437,13.671-13.671
			c9.856-2.861,11.764,3.498,14.943,9.538s4.756-8.584,12.074-5.723c7.319,2.861,7.002,6.041,7.002,6.041s4.77-10.315,11.128-10.563
			s10.492,10.563,8.584,20.101s-5.723,11.446-5.723,11.446l-1.59-6.995c0,0,2.543-7.313,1.271-11.128s-3.497-5.086-5.087-3.497
			s-4.769,14.942-5.087,15.896s-6.995,6.676-7.631,5.087s0.947-4.451-1.271-10.81s-4.45-5.087-6.04-2.861
			s-3.498,22.255-10.811,29.25s-12.399,11.764-12.717,6.677c-0.318-5.087,3.18-17.168,8.584-23.845s1.271-20.348-0.318-20.666
			s-7.631-4.133-13.035,12.717s-13.281,54.737-18.122,59.454C244.755,92.912,232.355,85.281,232.355,85.281z"/>
		<g>
			<g>
				<path d="M206.897,195.486c0,0,0.818,4.178,0,4.27c-0.818,0.09-6.995-2.18-7.813-1.727c-0.817,0.455-2.361,2.635,0,3.271
					c2.361,0.635,8.992,3.996,9.901,7.084c0.909,3.09-1.907,7.541-5.087,8.357c-3.18,0.818-7.813-0.727-9.356-3.18
					c-1.544-2.451-3.634-4.088-3.634-4.088l1.454-1.725c0,0,1.998,2.451,6.086,1.816c4.088-0.637,3.988-1.637,1.585-3.725
					c-2.402-2.09-3.583-2.725-5.127-3.088c-1.545-0.363-5.088-4.18-3.998-6.904s4.633-5.27,6.086-5.178
					C198.449,190.762,206.897,195.486,206.897,195.486z"/>
				<path d="M210.804,193.852c0,0,5.178-0.545,5.45-1c0.272-0.453,2.577,4.498,3.542,5.27c1.861,1.488,5.724,5.85,6.904,5.695
					c0,0-0.545-7.875-1-10.602c-0.453-2.725,0.364-3.996,0.364-3.996s6.909,6.484,6.449,6.176c-0.777-0.52-0.636,3.182,0,5.996
					c0.636,2.816,1.726,12.082,1.726,12.082s-7.357,0.727-7.357,0.998c0,0.273-7.902-6.902-7.902-6.539s0.545,5.813,1.09,6.086
					c0.545,0.271-5.951,0.354-7.268,1.453c-0.545,0.455-1.033-12.654-1.453-15.443C210.845,196.688,210.804,193.852,210.804,193.852
					z"/>
				<path d="M249.228,193.215c-1.362-0.816-4.541-0.559-5.449-0.545c-2.359,0.037-6.086,2.361-7.177,3.906s-0.817,7.721,0.999,11.9
					c1.816,4.178,9.811,4.541,11.676,4.359s5.312-5.268,5.493-9.629C254.951,198.848,250.591,194.033,249.228,193.215z
					 M249.683,203.816c-0.545,3.297-3.543,4.479-6.178,3.842c-2.634-0.635-2.725-6.449-1.816-7.357s3.089-2.271,5.541-1.453
					C248.579,199.297,250.228,200.518,249.683,203.816z"/>
				<path d="M253.952,193.215c0.363,0,5.813-0.998,5.813-0.998s5.178,8.992,5.723,9.174s-1.362-8.639-0.545-8.77
					c0.817-0.133,4.542-0.404,4.542-0.404s2.367,10.941,4.724,10.994c0.999,0.021,0.999-12.541,0.999-12.541s5.904-0.82,6.359,0
					c0.453,0.818-1.454,8.359-1.454,10.539s-2.362,12.172-2.362,12.172h-3.179c0,0-4.814-6.539-4.814-6.176
					s-2.089,7.357-2.634,7.357s-5.451,0.545-5.451,0.545s-3.906-11.076-4.178-11.896
					C257.222,202.391,253.952,193.215,253.952,193.215z"/>
			</g>
			<path d="M209.532,222.193v4.27c0,0-5.27-2.271-7.177-1.271c-1.907,0.998-2.089,1.361-1.817,2.27
				c0.273,0.908,7.34,4.088,8.621,5.27c1.281,1.18,3.188,7.721,0.373,10.082c-2.816,2.363-10.629,1.727-11.537,1
				s-3.452-2.906-3.634-3.543c-0.182-0.635-1.181-5.359,0-5.359s3.725,3.814,6.087,3.633c2.361-0.182,2.634,1.092,2.634-2.543
				c0-3.633-5.087-4.359-5.45-4.178s-4.633-0.729-5.087-3.271s1.362-8.084,6.086-7.721S209.532,222.193,209.532,222.193z"/>
			<path d="M213.347,223.918c0,0,4.906-1.09,5.633-0.816c0.727,0.271,1.816,7.539,2.18,8.992s0.363,5.904,4.178,5.27
				c3.816-0.637,3.544-7.086,2.816-9.266c-0.727-2.18-0.363-5.723-0.363-5.723l5.178-1.561c0,0,3.906,10.736,2.362,14.551
				s-2.816,7.629-7.813,8.447s-11.99-0.926-13.534-11.5C212.438,221.738,213.347,223.918,213.347,223.918z"/>
			<path d="M258.948,237.09c-1.182-1.271-3.452-2.27-2.907-2.906s4.633-2.635,3.906-7.631c-0.411-2.822-5.632-7.357-9.447-7.086
				c-3.815,0.273-11.991,4.361-11.991,4.361c-0.615,0.299,0.273,7.176,1,10.537c0.727,3.359,1.181,7.631,1.181,7.631l5.632-0.727
				c0,0-0.999-5.541-0.955-6.086c0.045-0.545,2.227-0.818,5.134,1.09s6.177,6.268,6.177,6.268l5.814-1.453
				C262.491,241.088,260.129,238.361,258.948,237.09z M253.497,228.098c-0.271,0.998-3.36,2.18-5.904,1.361
				c-2.543-0.816-2.454-3.725-2.227-4.451c0,0,4.498-1.453,5.588-0.816C252.044,224.826,253.771,227.098,253.497,228.098z"/>
			<path d="M262.491,220.467c0.182-0.363,11.809-1.635,13.08-1.816s5.166-1.236,5.541,0c0.524,1.727,1.908,4.359,2.635,4.814
				c0.727,0.453-11.9,1.635-11.9,1.998s-0.09,3.088,0.727,3.18c0.818,0.09,7.631-1.182,7.631-0.818s1.545,4.701,1.908,4.576
				s-10.811,1.33-10.811,2.238s0.637,6.176,0.637,6.721s-6.45,1.182-6.45,1.182s-0.907-12.424-1.544-15.66
				C263.308,223.646,262.491,220.467,262.491,220.467z"/>
		</g>
	</g>
</g>
</svg>
