<?xml version="1.0" encoding="utf-8"?>
<svg version="1.1" id="レイヤー_1" xmlns="http://www.w3.org/2000/svg" xmlns:xlink="http://www.w3.org/1999/xlink" x="0px"
	 y="0px" width="200" height="200" viewBox="10 -50 266 330" enable-background="new 0 0 266.548 290.342"
	 xml:space="preserve">
<g>
	<g>
		<g>
			<path d="M195.303,189.564c0.802-0.14,3.267,0,3.618,0.707c0.354,0.705,1.589,3.347,0.883,3.879c-0.706,0.533-5.295,0.703-5.648,0
				C193.803,193.448,194.132,189.769,195.303,189.564z"/>
			<path d="M198.038,198.566c0,0,2.119-1.765,4.061-2.117c1.941-0.354,7.06-2.959,8.119-1.833c1.059,1.126,1.059,1.835,1.059,1.835
				s-7.766,4.41-9.178,4.234C200.687,200.507,198.038,198.566,198.038,198.566z"/>
			<path d="M204.657,216.57c0.088-1.059,1.854-3.178,3.795-3.53s3.883,1.06,3.883,2.647s-4.588,3.531-5.647,3.354
				C205.628,218.865,204.657,216.57,204.657,216.57z"/>
			<path d="M212.335,223.453c0.615-0.631,3.354-2.646,4.413-2.646s2.948,2.646,2.356,4.941s-4.298,2.473-5.004,1.412
				C213.395,226.101,211.013,224.812,212.335,223.453z"/>
			<path d="M153.736,177.209c1.036-0.976,4.236-1.412,5.118,0c0.883,1.412-0.883,3.883-1.588,4.589
				C156.56,182.504,150.735,180.034,153.736,177.209z"/>
			<path d="M140.321,179.113c1.219-0.744,4.414,2.047,4.236,2.808c-0.176,0.761-3.354,2.702-4.236,1.996
				C139.439,183.21,134.32,182.783,140.321,179.113z"/>
			<path d="M142.616,186.741c0,0,16.369-1.235,16.48-0.706s1.877,2.549,1.347,3.48s-16.063,1.462-17.827,1.639
				C140.852,191.33,142.616,186.741,142.616,186.741z"/>
			<path d="M145.794,206.333c1.194-0.831,1.961-1.412,5.393,0s1.719,3.706-0.16,4.942
				C149.147,212.51,141.733,209.157,145.794,206.333z"/>
			<path d="M150.206,216.019c1.412-0.051,4.59-0.33,4.59,1.787s-3.884,4.764-7.237,3
				C144.205,219.041,147.278,216.121,150.206,216.019z"/>
			<path d="M106.963,158.147c0.882-0.004,3.569-0.262,4.255,1.546c0.688,1.808-3.02,4.216-4.961,2.129
				S105.739,158.153,106.963,158.147z"/>
			<path d="M95.137,155.676c1.524-0.571,3.704,1.15,2.823,4.017s-7.941,0.895-7.059-1.561
				C91.783,155.676,93.725,156.205,95.137,155.676z"/>
			<path d="M99.021,162.63c2.452,0.415,10.766,2.225,10.766,3.107c0,0.882-0.675,3.884-1.484,4.06s-15.611-1.06-17.477-1.589
				s-0.983-5.578-0.983-5.578S96.882,162.268,99.021,162.63z"/>
			<path d="M89.634,184.068c0.878-0.323,5.805,0.555,4.859,3.202s-5.533,2.698-6.945,1.261S87.307,184.926,89.634,184.068z"/>
			<path d="M88.43,194.15c1.722-0.393,3.995,2.309,1.204,3.363C86.841,198.566,82.252,195.559,88.43,194.15z"/>
			<path d="M96.725,223.279c0.578-0.404,3.53,0,3.884,1.766c0.353,1.764-1.942,3.715-3.884,2.74
				C94.783,226.808,94.96,224.515,96.725,223.279z"/>
			<path d="M84.722,219.052c1.06,0.344,3.328,0.168,3.43,3.344c0.102,3.178-4.135,4.301-5.018,0.738S84.722,219.052,84.722,219.052z
				"/>
			<path d="M80.486,228.044c0,0,8.386,0.883,10.458,0.883c2.074,0,7.219,1.941,7.219,1.941l-0.203,3l-16.594-1.412L80.486,228.044z"
				/>
			<path d="M78.368,243.4c0.725-0.072,6.001,0.529,6.001,2.471s-1.765,4.59-6.001,4.414C74.132,250.107,73.073,243.929,78.368,243.4
				z"/>
			<path d="M77.839,253.285c1.059,0,4.818,1.379,3.527,5.119c-1.291,3.738-11.117,0.352-9.529-2.561
				C73.427,252.931,77.839,253.285,77.839,253.285z"/>
			<g>
				<path d="M235.461,208.455c-3.53-7.414-12.533-9.709-12.533-9.709s-1.059-7.414-1.235-10.061
					c-0.177-2.648-7.413-6.355-8.473-6.531c-1.059-0.176-8.295-4.06-10.061-4.06c-1.764,0-4.059-8.472-5.295-8.472
					s-13.591,3.354-13.591,3.354s0.706,3.177,0.177,3.177s-7.943-1.942-7.943-1.942s-2.823-2.294-2.823,1.236
					s-4.236,5.648-4.942,5.472s-1.059-5.825-4.236-8.649c-1.688-1.501-8.119-3.883-8.119-3.883s-0.353-1.765-0.529-2.471
					s-3.178-11.826-3.178-11.826s-17.65,3.883-18.003,4.942s0.706,11.296,0.706,11.296s-1.588-1.235-4.766,1.236
					c-3.178,2.471-3.707,6.354-6.178,7.59c-2.471,1.235-6.883-0.707-6.883-0.707s4.412-6.707,4.588-12.708
					c0.177-6.001-4.235-12.355-4.235-12.355s1.941-6.002,0.353-7.061c-1.588-1.059-17.65-4.236-17.65-4.236s1.236,5.119-0.353,5.648
					s-6.974-1.347-9.884-0.353c-5.68,1.939-12.18,7.943-12.18,7.943s0,0.706-1.412-2.118s2.824-9.708,2.824-9.708
					s-1.412-0.53-3.354-0.177s-1.412,6.884-4.412,5.119s1.412-8.119,0.354-9.708c-1.06-1.588-3.002,2.824-4.766,1.235
					c-1.766-1.589-0.178-7.236,1.412-8.119c1.588-0.883,1.411-1.059,0.529-2.718c-0.883-1.659-4.59,0-4.59,0
					s-1.059,2.012-1.588,1.306c-0.53-0.706,1.412-9.354,1.412-9.354s0.705-1.059-1.941-1.588c-2.648-0.529-2.472,7.766-4.061,5.471
					c-1.588-2.295,1.766-10.943,1.766-10.943l-2.118-1.589c0,0-1.589,7.237-3.001,4.766c-1.411-2.471,2.295-8.119,2.648-9.354
					c0.353-1.235-4.061-2.118-4.061-2.118l-2.646,4.942c-1.941-3.53,1.764-9.002,1.764-13.238s-2.646-8.649-3.176-11.473
					s-9.709-13.767-9.709-13.767s6.708,0.882,14.65,1.588s10.767,4.766,13.062,8.825s2.118,11.473,2.118,11.473
					s2.117,2.471,4.766,0.883c2.646-1.588,2.647-3.177,8.648,0s4.06,11.473,4.06,11.473s-13.415,7.59-11.473,17.297
					s4.942,12.002,8.825,12.708s4.941-1.059,5.824-1.942s-0.883,0.883,4.59,1.942c5.471,1.059,3.354-2.824,5.118-1.412
					s6.001,1.588,7.767,0.706c1.765-0.882,2.824-5.472,2.294-6.601s-3.177-1.695-4.942-1.695c-1.765,0-0.353,3.354-2.646,3.354
					c-2.295,0-4.061-4.589-4.943-4.942s-0.176,5.295-3.883,6.178c-3.706,0.883-4.059-6.531-4.059-6.531l-2.295,0.353
					c0,0-3.001,2.824-3.178,4.413c-0.176,1.589-3.354-0.706-3.529-4.236c-0.178-3.53,4.941-12.532,8.648-13.238
					s10.943-1.412,13.414-0.176s9.355,7.589,9.178,8.472c-0.176,0.883-4.235,2.294-4.235,2.294l3.177,3.53
					c0,0,1.412-4.589,9.885-0.706c8.472,3.883,5.647,7.06,5.647,7.06l4.06,2.471c0,0,0.529-2.118,10.943-3.177s12.885,3,14.826,3
					c1.942,0,3.707-1.412,9.178-4.942c5.472-3.53,10.943-3.177,10.943-3.177l2.295-2.294c0,0-8.119-3.707-13.768-1.941
					c-5.647,1.765-9.884,5.931-9.884,5.931s-8.151-5.523-16.768-3.989s-7.942,4.236-7.767,2.118s-1.765-3.883-1.765-3.883
					s6.354,0,12.002,0.53s27.888-3.707,33.079-4.766c5.19-1.059,16.342-7.767,18.46-8.472s12.708,6.177,15.356,11.649
					c1.852,3.827,5.471,12.532-0.177,11.826s-1.412-3.883-3.354-5.012s-2.647,4.836-5.472,4.306s-1.236-5.471-1.236-5.471
					l-1.764,0.176c0,0,0,0-1.59,0.989c-1.588,0.989-2.471,3.071-5.824,2.012s-1.059-7.06-1.059-7.06l-3.883-0.176
					c0,0-3.001,2.471-1.412,7.413c1.588,4.942,5.824,4.236,7.412,4.06c1.589-0.176,1.412,2.471,4.413,3.707s5.296-0.177,7.06,0.176
					c1.766,0.353,3.002,2.295,5.648,2.647c2.648,0.353,6.707-1.765,6.707-1.765s9.179,10.943,5.473,21.004
					c-3.707,10.061-13.238,10.943-14.65,12.002s6.178,6.002,6.178,6.002s7.236-2.824,10.061-4.061
					c2.824-1.234,11.473-9.531,11.649-11.473s2.302-9.708-1.589-15.355c-6.988-10.148-14.475-13.592-14.475-13.592
					s2.118-11.826-2.824-17.474c-4.941-5.648-15.885-9.531-16.591-11.649s7.59-6.53,2.824-20.121s-23.828-21.181-25.24-22.24
					s-1.765-21.004-4.413-34.065c-2.646-13.062-10.413-24.357-13.061-24.181c-2.648,0.177-7.414,6.884-7.236,22.769
					c0.176,15.885-2.119,30.005-4.236,29.476c-2.119-0.529-7.236-33.536-8.119-39.184S134.851,0,129.026,0
					s-7.766,5.472-11.119,16.768c-3.354,11.296-2.648,41.479-2.648,41.479s-9.356,4.587-12.533,7.765
					c-3.178,3.177-8.473,11.12-9.355,19.416c-0.882,8.296,3.354,17.827,3.178,19.239c-0.178,1.412-4.061,0.706-4.061,0.706
					s-0.882-3.883-1.412-7.06c-0.529-3.177-3.354-9.002-7.766-10.767s-6.354-1.588-6.884-1.588s-1.235-4.413-1.059-6.531
					s-1.765-6.883-7.767-10.237s-13.943-2.294-17.65-1.941s-8.825-1.059-12.355-2.294c-2.006-0.702-11.648-8.649-14.12-10.767
					c-2.052-1.758-16.858-8.132-21.837-10.25c1.219,0.843,2.966,2.714,4.717,6.896c3.177,7.589,12.178,13.238,15.002,13.238
					s6.531,3.177,7.414,5.472s10.061,17.121,12.178,21.357c2.119,4.236,1.693,7.933,0.707,15.356
					c-0.727,5.461-1.586,7.237,2.471,15.532c5.418,11.079,15.535,15.359,16.947,17.3s0.529,6.531,3.176,12.355
					c2.648,5.824,9.531,9.884,11.65,12.002c2.117,2.118,1.234,6.53,1.234,6.53s0.001-1.41-7.412,3.003s-6.531,18.356-5.472,20.474
					c1.06,2.118,7.59,6.178,12.532,9.002c4.941,2.824,11.473,5.295,11.473,5.295l-1.059,3.001c0,0-13.063-3.001-17.121,3.884
					c-3.109,5.271-0.529,16.061-0.529,16.061s-16.063,5.119-18.887,17.299c-2.824,12.178,13.768,18.885,17.65,18.928
					c3.883,0.041,7.59-3.926,6.002-3.572c-1.589,0.352-12.003-5.295-12.709-12.002s3.707-10.238,6.707-10.943
					c3-0.707,12.179-1.059,18.709,0.354c6.531,1.412,11.12,6.354,8.826,12.707c-2.295,6.355-17.475,7.943-17.475,9.885
					s12.18,3.883,15.355,3.529c3.178-0.354,12.18-2.824,13.944-11.119c1.765-8.297-2.294-13.768-2.647-14.297
					c-0.354-0.531,4.06-2.117,5.295-3.354s1.589-10.59,0.706-12.002s-5.647-4.766-6.354-5.648
					c-0.705-0.883,0.707-10.414,0.707-10.414l-9.355-4.059c0,0,9.708-2.295,15.886-6.531s5.118-13.238,6.53-12.885
					s9.002-1.589,9.002-0.177s6.001,10.591,6.001,10.591s-11.649,4.766-10.59,17.121c1.253,14.623,24.889,19.238,38.833,14.297
					c13.943-4.943,12.885-16.415,11.648-21.533c-1.234-5.119-9.002-8.297-9.531-8.826s0.707-2.646,3.001-4.412
					s3.884-6.178,3.884-6.178s0.882,1.588,4.588-0.177c3.707-1.765,5.119-7.06,6.178-6.53c1.06,0.529,5.119,3.883,4.942,4.412
					c-0.177,0.53-4.942,5.119-3.883,10.238c1.06,5.118,7.942,10.236,7.942,10.236s-5.824,13.768-6.001,18.18
					c-0.177,4.414,7.767,9.709,8.649,9.709s10.061,4.059,10.061,4.059s1.588-0.176,1.588-2.117s-1.941-1.59-5.648-5.119
					c-3.706-3.531-3.883-11.473-1.234-16.063c2.647-4.588,5.471-6.883,15.708-7.412s14.649,7.766,14.649,16.943
					c0,9.18-8.472,9.178-11.825,11.297c-3.354,2.117-13.415,5.119-13.237,6.531c0.176,1.412,8.648,3.354,13.414,3
					s15.885-0.707,18.886-7.766C238.462,229.812,238.991,215.869,235.461,208.455z M106.433,86.131
					c1.06-15.179,17.65-18.356,17.65-18.356s0.354-14.826,0-17.827c-0.353-3.001,1.412-19.592,1.412-23.299
					s0.529-17.474,1.941-18.18s4.061,9.178,4.766,19.592c0.707,10.414,4.264,30.888,7.162,33.183s8.547,3.354,11.725,3.177
					c3.177-0.177,3.529-1.412,3.529-1.412s0.177-18.18,0-22.945c-0.176-4.766-1.412-20.122,0.883-22.946s2.472-2.471,3.707,8.296
					s3.53,33.535,4.06,35.83s2.118,5.472,4.235,5.648c2.119,0.176,13.063,4.236,18.71,12.179s6.884,15.179,3.53,22.239
					s-18.357,13.591-29.477,16.415s-24.533,0.882-38.478-3.883S105.374,101.31,106.433,86.131z M113.14,147.027
					c0.883-0.177,0,3.707,0,4.413s-2.294-2.648-4.235-2.471C108.904,148.969,112.257,147.204,113.14,147.027z M100.961,210.748
					c0.529,0.883,1.412,3.354,0,3.177s-3.001-2.386-3.001-2.386S100.432,209.865,100.961,210.748z M102.902,224.337
					c1.06,2.824,0.946,11.65-4.204,12.885c-5.15,1.236-1.586-1.941-13.341-2.117c-11.755-0.178-11.327-6.354-10.747-8.473
					c0.58-2.117,3.885-13.943,19.883-9.178C95.663,217.802,101.843,221.511,102.902,224.337z M106.433,192.066
					c-1.588,8.089-15.355,9.501-24.181,7.207c-8.825-2.295-8.647-9.288-6.177-17.353s18.418-3.495,18.418-3.495
					C99.196,179.681,108.021,183.977,106.433,192.066z M108.904,176.205c-3.175-0.416-11.825-6.232-19.063-5.879
					s-8.296-1.686-8.472-5.432c-0.178-3.746,6.531-15.395,25.24-11.335c4.978,1.08,7.941,6.53,7.941,9.001
					S113.673,176.83,108.904,176.205z M148.692,159.735c1.338,0.53,2.749,3.707,2.22,4.06s-5.118,0-5.118,0
					S147.354,159.206,148.692,159.735z M134.85,178.988c4.235-7.426,14.826-6.189,14.826-6.189
					c3.001,0.353,12.179,1.941,13.237,5.118c1.06,3.177,0.178,15.976-1.234,16.195s-4.942-0.303-13.944,0.224
					c-9.002,0.525-9.354,2.467-9.354,2.467S130.614,186.414,134.85,178.988z M168.386,211.539c1.236,6.09-5.13,13.422-19.51,12.756
					c-14.379-0.664-17.909-5.363-17.379-11.31c0.529-5.946,9.607-13.536,21.66-10.712
					C156.71,203.105,167.151,205.447,168.386,211.539z M195.567,174.033c0.883,0.529,2.471,3.529,2.471,3.529s-4.589,1.941-5.471,0
					C192.567,177.562,194.685,173.502,195.567,174.033z M219.042,196.095c-0.353,0.883-10.766,4.766-12.178,5.648
					s-5.648,2.295-8.119,1.588c-2.472-0.705-11.12-6.883-8.826-11.473c2.295-4.589,7.237-5.471,7.237-5.471
					c1.235-0.178,6.53-1.413,7.942-1.59c1.412-0.176,5.119,0.795,5.119,0.795s-4.061,1.501-4.061,2.56s1.412,2.823,4.766,2.823
					s1.236-4.588,1.236-4.588s4.589,0.354,5.295,2.471S219.396,195.212,219.042,196.095z"/>
				<path d="M1.638,43.936C0.644,43.249,0,43.242,0,43.242S0.617,43.502,1.638,43.936z"/>
				<path d="M164.392,82.385c1.237,1.649,2.406,0.745,4.26,0.921s2.559-3.53,2.029-4.236s-2.742-2.114-4.06-1.941
					S163.219,80.821,164.392,82.385z"/>
				<path d="M124.79,85.072c0.176,0.529,2.117-0.176,3.177-1.324s0.529-2.029,0-3.309s-2.472-1.897-3.177-2.074
					c0,0-2.824-0.53-3.531,2.074C120.554,83.042,124.613,84.542,124.79,85.072z"/>
				<path d="M125.672,98.133c1.254,3.576,9.179,7.413,9.179,7.413s0.883,7.413,6.178,9.354c6.396,2.345,12.885,0.353,17.121-1.588
					s5.57-7.943,5.57-7.943s1.842-2.824,3.566-4.236c1.723-1.412,4.453-9.531,4.453-9.531l-5.824,0.353c0,0-0.706,1.235-2.195,4.06
					s-3.982,6.001-6.893,6.354c-2.911,0.353-4.855-5.648-4.855-5.648s4.412-2.471,4.766-4.766c0.353-2.294-0.354-3.354-1.766-5.119
					s-2.824-1.941-6.068-1.586c0,0-8.229,1.939-9.539,5.822c-1.31,3.883,4.311,4.942,3.958,5.825s-4.06,2.824-6.001,2.647
					s-8.743-6.707-8.743-6.707S125.32,97.131,125.672,98.133z M148.692,88.425c0.651,0.074,2.749,1.235,2.22,3.354
					s-1.94,2.648-4.589,1.942S144.001,87.896,148.692,88.425z M144.661,105.017c1.662-1.235,4.031-1.941,4.031-1.941
					c0.984,0.529,6.985,2.824,7.691,3s-0.077,4.763-8.555,6.354c-8.477,1.591-8.465-6.001-8.465-6.001S143,106.252,144.661,105.017z
					"/>
			</g>
		</g>
		<g>
			<path d="M191.265,37.015c0,0,2.395,1.597,5.588,1.098s15.965-2.096,15.965-2.096l3.793,7.384c0,0-4.191,7.783-4.092,8.681
				s7.982,9.779,7.982,9.779l-4.988,3.692c0,0-7.186-7.285-8.482-7.285s-11.076,8.383-12.772,7.784s-2.993-7.883-2.993-7.883
				s7.684-3.293,9.679-6.386s3.991-6.486,3.991-6.486s-12.672,0.499-13.67,0.699V37.015z"/>
			<path d="M221.101,40.607c0,0,2.594-1.297,2.693-2.096s5.289,6.086,4.79,11.475s-3.726,10.079-3.726,10.079l-4.357-2.794
				c0,0,2.795-2.694,1.697-9.679S221.101,40.607,221.101,40.607z"/>
			<path d="M234.97,48.091c0,0,9.58-0.799,11.975-1.198s9.38-1.197,9.38-1.197l1.497,4.391c0,0-6.986,2.395-10.278,3.293
				s-11.974,2.295-11.974,2.295S236.767,49.887,234.97,48.091z"/>
			<path d="M205.883,69.445l14.12-2.495l-0.699,5.688l-13.421,1.796C205.883,74.434,207.03,70.043,205.883,69.445z"/>
			<path d="M204.137,78.326c0,0,7.683-1.696,12.073-2.295s7.684,0,7.684,0s3.065,10.838,1.598,12.473
				c-4.391,4.889-9.281,4.889-9.281,4.889l-0.1-3.492c0,0,4.69-3.36,4.391-5.322c-0.299-1.962-2.295-3.16-2.295-3.16
				s-9.68,2.495-10.577,2.195S204.137,78.326,204.137,78.326z"/>
			<path d="M229.382,67.648c0.703,0.067,4.191,4.89,4.89,4.89s5.788-1.846,5.788-1.846s-0.3-3.743-1.397-5.239
				s-1.197-2.095-1.197-2.095l3.493-1.996c0,0,2.095,2.357,3.192,4.721s1.098,2.364,1.098,2.364l-3.093,1.796
				c0,0,1.297,5.389,0.998,6.087c0,0-7.784,1.795-8.184,2.694c-0.398,0.898,0.699,3.393,1.598,3.393
				c0.897,0,6.386-2.395,7.184-2.694c0.799-0.299,0.699,7.285,1.497,7.085s-3.991,4.39-4.69,4.291
				c-0.697-0.1-7.483,0.499-9.379-4.49C229.282,81.619,227.287,67.449,229.382,67.648z"/>
			<path d="M245.337,60.065l3.604-1.497c0,0,3.193,5.489,3.193,6.187s-3.398,2.894-3.398,2.894s-0.693-3.592-1.392-4.54
				S245.337,60.065,245.337,60.065z"/>
			<path d="M247.044,78.425l3.593-2.194c0,0,2.993,6.186,3.093,7.284s-3.342,1.796-3.342,1.796S247.942,78.625,247.044,78.425z"/>
			<path d="M252.932,75.332l3.991-1.597c0,0,1.397,6.386,1.797,6.586c0.398,0.2-3.693,1.696-3.693,1.696s-0.494-3.093-1.295-4.889
				C252.932,75.332,252.932,75.332,252.932,75.332z"/>
			<path d="M261.713,78.625l3.892,5.954c0,0-2.993,7.218-3.892,7.318s-5.262-1.796-5.874-1.497s3.878-4.191,4.377-7.285
				S261.713,78.625,261.713,78.625z"/>
			<path d="M267.8,61.362l7.084-1.297c0,0,2.695,9.679,2.994,9.679s0.699-1.297,0.699-1.297s2.594,0.699,2.992,0.699
				c0.4,0,2.596-0.399,2.596-0.399l0.398,5.688c0,0-6.187-0.898-6.686,0.698s-2.195,11.975-2.195,11.975s-5.488,3.093-5.887,2.594
				c-0.4-0.499,0.998-8.582,0-15.267S267.8,61.362,267.8,61.362z"/>
		</g>
	</g>
	<g>
		<path fill="#00A0E9" d="M140.874,109.514h4.07c0,0,1.252,16.856-6.066,26.616c-7.32,9.759-13.752,16.413-13.752,16.413
			l-8.872-3.993c0,0,14.639-10.646,18.409-21.958S140.874,109.514,140.874,109.514z"/>
		<path fill="#00A0E9" d="M148.415,107.961c0,0,4.436,2.883,5.102,18.631c0.665,15.748-6.654,31.717-11.978,33.27
			c0,0,7.345-14.913,5.327-24.176S148.415,107.961,148.415,107.961z"/>
		<path fill="#00A0E9" d="M153.559,107.961c0,0,4.394,0.222,8.164,6.21s6.328,18.409,14.757,27.946
			c8.428,9.538,19.4,17.744,19.4,17.744s-2.662,2.883-9.981,0s-13.53-10.425-18.409-18.853S153.559,107.961,153.559,107.961z"/>
		<path fill="#00A0E9" d="M161.058,143.893l3.992-1.109c0,0,3.549,4.214,5.545,7.763s8.65,15.083,11.312,19.296
			s7.763,14.86,7.763,14.86s-11.756-2.44-17.744-12.421S161.058,143.893,161.058,143.893z"/>
		<path fill="#00A0E9" d="M195.88,147.441h4.436c0,0,4.023,8.045,11.09,13.702c10.868,8.7,23.511,12.249,23.511,12.249
			s-9.537,5.988-18.409,0S195.88,147.441,195.88,147.441z"/>
		<path fill="#00A0E9" d="M187.229,197.79l4.436,2.884c0,0,3.992,21.515,7.764,27.281c3.77,5.768,13.086,33.27,13.086,33.27
			s-9.537-3.105-14.417-13.529c-4.999-10.68-9.538-39.259-9.538-39.259L187.229,197.79z"/>
		<path fill="#00A0E9" d="M127.565,211.32c0,0,4.658,2.884,5.545,5.323c0.888,2.439,2.884,16.856,1.996,24.62
			c-0.887,7.762-15.525,29.721-15.525,29.721s5.766-26.393,6.875-35.932C127.565,225.514,127.565,211.32,127.565,211.32z"/>
		<path fill="#00A0E9" d="M74.999,195.793l5.324,3.549L72.56,216.42c0,0,2.883,4.658,6.432,1.331s3.105-4.809,3.105-4.809
			s8.207-1.623,8.429-1.623s-1.109,14.416-8.983,13.973c-7.873-0.443-7.873-0.868-10.092,0.01c-2.217,0.878-5.766,0-5.766,0
			s-8.872,11.746-15.526,15.85s-12.643,8.539-12.643,8.539l-1.774-1.33c0,0,10.425-10.203,14.417-15.305
			s11.534-10.646,10.202-12.199c-1.33-1.553-7.541-2.884-8.428-9.537c-0.887-6.654,5.323-17.301,5.323-17.301l7.984,3.771
			c0,0-7.519,13.751-2.096,14.417s10.747-7.541,10.524-9.98S74.999,195.793,74.999,195.793z"/>
		<path fill="#00A0E9" d="M138.434,246.365l3.105,0.887c0,0-0.443,6.875,8.206,9.314c8.65,2.441,8.873-5.1,8.873-5.1l5.988,0.242
			c0,0,0.443,9.072,5.766,7.52c5.324-1.553,4.348-6.342,4.348-6.342h2.529c0,0,1.109,5.012,6.21,3.902s4.88-9.537,4.88-10.424
			c0-0.889,1.33-3.105,1.33-3.105s5.102,3.104,5.102,3.992c0,0.887-3.326,15.969-7.541,15.525s-7.319-3.549-7.319-3.549
			s-3.993,7.32-6.876,7.32s-5.322,2.662-8.871-1.775c-3.549-4.436-1.775-4.881-3.549-4.436c-1.775,0.443-2.884,4.656-9.094,3.326
			c-6.211-1.33-11.979-6.875-13.087-9.758C137.325,251.021,138.434,246.365,138.434,246.365z"/>
		<path fill="#00A0E9" d="M228.706,205.332c0,0.664,7.984,1.107,9.98-1.332s2.883-5.322,0-6.21s6.211-0.888,6.211-3.771
			s-3.992-7.763-3.992-7.763s6.653,1.997,6.653-2.884c0-4.879-4.214-7.318-4.214-7.318l2.218-3.549c0,0,8.649,6.209,7.763,12.198
			s-2.883,2.076-3.105,4.476c-0.221,2.4,3.771,3.952,0.888,8.61s-5.102,5.545-5.102,5.545s-0.602,6.653-4.958,7.985
			c-4.357,1.33-3.248,0-3.248,0L228.706,205.332z"/>
	</g>
</g>
</svg>
