<?xml version="1.0" encoding="utf-8"?>
<svg version="1.1" id="レイヤー_1" xmlns="http://www.w3.org/2000/svg" xmlns:xlink="http://www.w3.org/1999/xlink" x="0px"
	 y="0px" width="200" height="200" viewBox="0 -90 336 330" enable-background="new 0 0 266.548 290.342"
	 xml:space="preserve">
<g>
	<g>
		<path d="M330.996,162.398c-1.604-6.848-9.908-16.9-10.928-17.482c-1.02-0.583-8.158-5.1-9.469-6.266
			c-1.312-1.165-24.185,0.729-26.225,0.584c-2.039-0.146-16.462-0.146-17.481-0.292s-8.159,8.887-9.616,10.198
			c0,0-19.417-7.723-26.514-10.489c-6.567-2.56-13.549-7.575-15.152-8.741c-1.602-1.166-11.509-8.887-14.568-10.926
			s-18.793-12.966-18.793-12.966s-1.603-3.06-2.622-5.39s-2.914-7.138-4.08-9.323s0-2.768,0-3.642s2.185-3.934,2.04-4.954
			s-2.331-7.576-5.391-9.324s-7.138-0.146-8.013-0.874s-9.032-9.178-14.568-9.324s-8.013,3.351-8.158,2.622
			s-2.477-4.662-2.623-5.827s0.583-0.146,3.497,0.437s9.469,0,9.469,0s1.166-7.867,0.729-10.198s0.874-5.245,0-5.682
			s-8.887,0.292-9.469,0s1.748-2.623,3.205-4.953s1.603-5.682,1.02-6.702s-4.662-6.119-5.245-6.556s-1.748-0.291-3.205-0.291
			s-1.603-2.331-3.06-4.954s-6.41-6.993-10.926-4.516s-3.497,10.052-3.497,10.052s-2.477-2.914-6.264-10.926
			S106.056-1.061,99.792,0.105s-6.848,8.741-6.119,14.568s5.245,22.436,5.245,22.436s-5.973-14.714-7.721-17.191
			s-7.576-12.82-11.8-16.171s-6.27-2.085-8.304,0c-5.829,5.974-0.436,23.455,2.041,28.553s5.245,9.178,3.934,9.615
			s-0.291,4.078-0.291,4.078s0,0-3.351,3.788s-4.808,13.694-4.516,18.502s4.225,10.198,4.225,10.198
			c-1.166,0.874-6.41-1.748-7.139-2.04s-1.166-2.477-1.894-4.371s-4.808-6.264-6.119-7.284s-10.052,2.914-10.635,4.516
			s1.311,2.186,1.457,4.954s-5.075,7.205-5.828,9.469c-1.381,4.157,3.06,3.934,3.06,6.702s-3.06,2.757-2.915,4.953
			c0.192,2.911,2.185,4.953,3.351,6.265s-1.02,4.371-0.437,5.536s3.497,3.351,3.497,3.351s1.748,5.536,2.185,6.41
			s7.284,0.292,9.324-0.583s5.099-2.04,5.536-1.603s8.013,10.344,9.033,12.53s13.84,16.898,13.84,16.898s-1.457,0.875-3.497,1.312
			s-4.808,4.662-4.808,4.662s-8.887-0.583-11.072-0.874s-29.428-2.039-33.07-2.331s-14.637-4.995-22.582-3.205
			c-10.344,2.331-8.013,10.927-8.013,10.927c-7.867,3.934-8.595,10.635-1.603,17.191s31.031,7.137,32.925,6.846
			s39.044,0.875,45.454,0.146s29.428-2.186,29.428-2.186s8.596,11.51,8.45,12.385c-0.146,0.873-4.225,1.02-5.099,0.582
			s-2.914,1.166-3.642,1.02c-0.729-0.145,6.993,8.158,7.43,8.158s8.304-4.225,8.304-4.225s3.934,3.934,6.702,4.809
			c2.768,0.873,7.721,1.02,7.721,0s-6.847-9.471-7.284-9.615c-0.437-0.146,6.556-5.537,6.556-6.41c0-0.875-5.536-4.08-5.536-4.08
			s-5.536,4.225-6.264,4.225s-5.536-6.848-5.536-6.848s23.31-0.582,26.661-0.729c3.351-0.145,20.396-0.291,24.038-0.291
			s25.203-2.621,31.759-3.203s12.383-1.021,15.152-1.748c2.768-0.729,3.205-6.848,2.621-8.451
			c-0.582-1.602-10.052-3.787-10.488-3.787c-0.438,0,0.582-2.768,0.582-4.08c0-1.311-4.225-4.661-6.848-5.535
			c-2.622-0.874-25.786-1.166-30.885-0.583s-19.23,0-19.23,0s4.516-1.894,6.993-4.662c2.294-2.563,4.957-6.12,5.339-6.632
			c-0.031,0.134,0.353,0.383,4.422-0.069c5.245-0.583,8.304-2.04,8.304-3.497s1.457-3.642,1.457-5.244s-0.583-2.477-3.351-4.079
			s-10.781-1.603-11.218-1.603s0.146-3.934,0.146-3.934c1.457-1.02,6.993-3.642,6.993-3.642s11.8,12.529,23.31,19.522
			c9.048,5.497,20.396,12.966,27.389,15.88c6.992,2.913,25.495,10.344,28.846,14.422c1.055,1.285,0.875,5.973,1.895,9.033
			c1.02,3.059,3.351,13.549,3.351,13.549s11.071,1.457,15.589,1.164c4.516-0.291,22.727-0.145,26.951-1.02
			c4.225-0.873,20.104-0.873,21.854-3.059c1.748-2.186,1.311-7.285,1.311-7.285s1.641-2.074,2.622-4.662
			C331.822,167.582,332.598,169.244,330.996,162.398z M167.391,76.928c0,0,4.517,1.992,4.662,3.594s-2.768,3.779-3.205,2.982
			S167.1,77.996,167.391,76.928z M156.469,99.17c1.016-0.583,5.564-1.895,7.078-1.312s4.435,0.582,4.431,1.384s0.732,3.716,0,4.298
			s-8.105,2.622-8.862,2.331s-2.359-2.768-3.67-2.768s-4.517-2.331-4.517-2.331S155.453,99.753,156.469,99.17z M150.346,86.641
			c1.174-0.255,3.933-0.729,4.516,0s1.457,5.512,1.603,6.544s-3.788,1.76-3.788,0.886S149.679,86.786,150.346,86.641z
			 M165.061,83.874c0.728,0.728,2.768,9.154,2.914,9.312s-3.643-1.375-5.536-1.59s-4.866-7.177-2.364-7.721
			C160.921,83.689,164.333,83.146,165.061,83.874z M146.267,68.5c3.205-0.069,12.237,4.593,12.966,5.904s1.457,2.378,0,2.427
			s-9.761,3.545-12.675,4.565s-6.935,4.808-7.692,3.788s-2.815-4.775-0.757-8.354C139.142,75.033,143.062,68.568,146.267,68.5z
			 M139.857,91.449c0-1.311,0.548-2.033,1.748-2.622c0.925-0.454,3.642-1.311,4.371,0s2.186,3.181,1.894,4.358
			s-2.477,2.489-3.642,3.363S139.857,92.76,139.857,91.449z M142.333,108.057c-0.146,1.166-10.49,3.205-16.171,3.205
			s-8.979-1.165-10.535-2.477s-3.596-3.642-3.596-3.642s6.71,2.914,15.155,3.06s12.67-3.06,12.67-3.06
			C140.731,105.435,142.479,106.892,142.333,108.057z M136.943,32.592c1.311,0.437,2.768,2.622,0.729,5.39s-8.281,5.536-8.584,4.371
			s-3.071-4.972-1.906-6.784C127.82,34.577,135.632,32.155,136.943,32.592z M127.911,21.97c3.351-2.053,4.964,0.734,5.245,2.754
			c0.729,5.245-8.158,5.245-8.158,5.245S124.56,24.023,127.911,21.97z M101.396,8.554c0.103-0.927,4.371,1.748,6.265,6.41
			s9.615,19.376,9.615,19.376s-9.616,2.185-10.49,0.729s-4.516-13.986-5.39-18.356S101.25,9.865,101.396,8.554z M118.004,39.002
			c0.874,0,1.894,2.477,1.748,3.642s-12.238,3.642-17.045,4.371s-18.356,4.371-18.939,0s11.604-3.747,14.568-4.371
			C100.688,42.149,117.13,39.002,118.004,39.002z M78.669,12.778c0.797,0.387,4.808,7.576,6.993,10.635s7.43,13.403,7.43,14.423
			s-5.536,1.749-6.41,2.331s-6.556-11.509-8.013-16.317S73.57,10.301,78.669,12.778z M76.629,60.709
			c1.166-3.205,5.828-7.576,5.828-7.576s6.119-0.582,16.462-1.894s22.144-3.351,23.455-3.788s5.973-0.729,5.973-0.729
			s7.722,2.19,9.178,2.406s6.993-0.075,7.139,1.382s2.426,2.296,0.678,4.045c-1.714,1.715-13.88-2.141-14.763-3.321
			c0.44,0.983,2.296,5.417,2.618,7.434c0.395,2.477-0.466,12.674-6.3,16.025s-17.052,5.681-27.396,6.119s-16.899-0.437-20.687-4.37
			S75.464,63.914,76.629,60.709z M52.151,72.07c0.437,0,2.771-1.163,2.771-1.163c0.875-0.292,1.603-1.166,2.477,0
			s1.603,3.788,0.874,4.808s-4.808,1.603-4.954,0.583S51.714,72.07,52.151,72.07z M63.226,109.223
			c-0.874,1.166-2.462,3.351-4.655,3.351s-2.484-0.438-2.484-1.894s1.457-3.496,1.457-3.496s-5.268,0.437-5.475-1.166
			s5.664-3.369,5.664-3.369s-0.335-3.187-1.354-3.915s-5.827-0.146-5.682-2.186s-1.166-3.521,5.682-3.363s12.092,2.343,15.006,3.363
			s7.284,1.894,10.926,1.603s14.568-1.748,15.734-2.477s9.032-3.206,9.324-4.225s-2.039-2.622-2.331-3.059
			s-5.813,2.769-10.264,3.497s-13.483,2.186-19.748,0.437s-11.218-1.749-12.383-3.788s-1.748-4.808-2.331-4.808
			s-3.719,1.457-4.992,1.166s-3.167,0.583-2.292-2.04s6.848-2.331,10.781,0s9.046,3.09,10.781,3.351
			c2.914,0.437,11.898-1.311,11.898-1.311c1.796-0.292,11.849,1.02,14.908,1.166s14.242-0.729,17.901-2.331
			s10.798-3.205,10.798-3.205s1.333,6.811,2.623,10.781c1.894,5.828,6.556,9.47,6.119,10.198s-8.45,2.039-15.297,1.165
			s-14.86-3.642-15.588-3.788s-6.265,2.328-10.344,4.078s-13.257,2.624-16.899,2.478s-6.848,0.031-8.596,0.016
			S64.1,108.057,63.226,109.223z M108.826,141.419c0.437,4.516,4.808,9.178,5.245,9.178s1.166,2.477,0,2.623
			c-1.166,0.146-6.265,2.186-6.702,1.894s-2.04-0.146-2.04-1.021c0-0.873,1.457-3.35,0-4.516s-2.711-2.622-3.104-3.351
			s-1.412-13.31,5.144-16.489c0,0,1.457,1.484,1.457,2.066S108.389,136.904,108.826,141.419z M107.514,167.06
			c0,0-10.926,1.893-11.8,0.729c-0.874-1.166-2.524-3.352-1.845-3.934s8.063-2.332,8.063-2.332L107.514,167.06z M98.919,129.738
			c-0.437-0.701-13.258-18.475-13.112-19.204s6.701,0.223,7.284-0.763c0.181-0.307,1.603,8.775,2.914,10.523
			c1.311,1.748,6.155,5.133,5.918,6.063C101.687,127.288,99.356,130.441,98.919,129.738z M79.98,121.315
			c-1.749-2.04-5.828-9.47-5.828-9.47h5.828c0.583,0.437,7.867,11.072,8.741,12.82s8.158,10.197,8.158,10.197
			s-0.291,6.557-0.874,6.994c-0.583,0.437-1.231,0-1.231,0S81.729,123.355,79.98,121.315z M95.422,150.452l3.351,5.536
			c0,0-8.304,4.371-10.635,0S92.508,150.306,95.422,150.452z M21.706,151.472c9.033,1.748,27.798,1.894,28.978,1.894
			s29.588,1.776,29.588,1.776v2.788c0,0-17.213,0.972-28.201,0.681c-10.988-0.292-35.755-2.041-39.105-2.478
			S12.673,149.724,21.706,151.472z M91.052,174.343c-9.469-0.145-37.026-1.311-38.982-0.873s-30.073-0.145-32.112-0.438
			c-2.04-0.291-7.139,0.037-10.927-4.279s-0.874-5.627,6.119-6.355s29.574-0.436,32.633,0c3.06,0.438,19.23,0.582,20.396,0.438
			c1.166-0.146,20.688,0.291,20.688,0.291s-1.166,0.744-0.583,2.557c0.583,1.814,0.729,3.707,4.08,4.436s16.608-0.729,16.608-0.729
			s2.332,3.645,2.186,4.227S100.521,174.49,91.052,174.343z M214.885,162.689c5.1,2.186,2.914,2.332,2.331,4.662
			c-0.583,2.332-19.231,2.332-19.959,2.332s-38.024,0.291-40.788,0.727c-2.764,0.438-33.22,1.604-34.532,1.313
			c-1.312-0.293-2.04-2.623-2.04-2.623s19.522-1.738,21.271-2.234c1.748-0.494,7.479-3.738,7.479-3.738s13.208,0,14.9-0.146
			c1.692-0.145,21.618-0.145,26.134,0.438C194.198,164.001,209.785,160.503,214.885,162.689z M169.704,154.185
			c4.79,0.238,29.009-0.819,32.069-1.402s4.953,1.603,5.682,2.126c0.729,0.523-1.748,3.118-1.748,4.093s-23.601,0.629-25.35,0.337
			s-27.679-0.626-30.107-0.673c-4.314-0.084-6.896-0.639-7.907-1.367s4.07-3.787,4.361-3.113
			C146.995,154.86,164.915,153.949,169.704,154.185z M162.001,126.357c-0.583,5.884-4.047,13.459-12.367,17.102
			s-15.896,6.41-15.896,7.867s-1.457,3.934,0,4.662s6.993,2.039,6.847,3.934s-1.457,1.748-4.225,2.623
			c-2.768,0.873-20.633,3.643-20.733,3.059c-0.1-0.582-5.199-5.244-5.199-5.244s13.549-0.729,14.423-1.895s1.603-4.371,1.603-4.371
			s-3.972-2.33-7.23-6.264s-4.516-12.384-3.596-15.443c0.92-3.059,4.562-9.906,4.562-9.906l-2.622-4.662
			c0,0-3.496,3.205-4.808,5.245s-3.788,5.245-3.788,5.245s-5.099-5.391-6.119-7.867c-1.02-2.477-0.875-8.518,1.02-10.669
			s1.553-2.297,2.67-1.568s6.799,6.119,12.044,6.993s10.605,2.185,18.633,0.146c0.609-0.155,7.445-4.079,8.465-4.079
			s2.721,1.457,4.565,2.04s5.058,2.185,6.219,1.311S162.584,120.474,162.001,126.357z M169.704,126.559c0,0,6.865-0.728,8.031,0.583
			s1.748,1.895,0,3.643s-3.205,2.33-4.808,2.039s-2.659,0.727-3.223,0.072C169.14,132.241,168.673,126.648,169.704,126.559z
			 M170.742,111.845c-1.312,0.729-5.795,2.331-7.195-2.477c0,0,8.372-2.914,8.512-2.477S172.054,111.116,170.742,111.845z
			 M183.853,115.196l-3.496-1.603v-4.662c0,0,3.496,2.039,3.496,2.914S183.853,115.196,183.853,115.196z M196.236,124.666
			c-0.583,0.292-5.827-3.496-5.827-4.152c0-0.655,0-4.151,0-4.151l5.827,4.808C196.236,121.169,196.818,124.375,196.236,124.666z
			 M209.202,134.427c-1.312-0.146-7.722-4.588-7.722-4.588v-5.157c0,0,8.596,5.52,8.596,6.103S210.514,134.572,209.202,134.427z
			 M224.499,143.605c0,0-9.47-3.928-9.47-4.586s-1.02-4.588-1.02-4.588s9.906,4.949,10.489,5.823S224.499,143.605,224.499,143.605z
			 M237.611,149.724c0,0-7.139-2.039-7.139-3.06s-1.313-4.614-1.313-4.614l8.451,4.76V149.724z M250.285,155.142
			c-1.02-0.027-8.158-3.073-8.158-3.073v-3.073c0,0,8.741,2.57,8.887,3.689C251.159,153.803,251.305,155.169,250.285,155.142z
			 M258.298,158.666c-0.437-0.055-4.225-2.5-4.225-2.5l-0.583-3.48l4.808,1.5C258.298,154.185,258.734,158.719,258.298,158.666z
			 M270.535,144.771c0,0,23.893-1.021,25.641-1.166s13.84,0,14.132,0.582c0.292,0.584,1.165,0.34,1.021,1.7
			c-0.146,1.36-1.748,1.36-2.914,1.36s-17.92,1.603-19.959,1.748s-21.998,1.312-21.998,0S270.535,144.771,270.535,144.771z
			 M308.996,181.046c-2.768,0.291-21.561,1.895-23.309,1.895s-16.316,1.457-17.337,0s-2.04-14.701-2.769-17.258
			s-2.039-8.904-2.039-9.518c0-0.614,5.535-1.023,5.535-1.023c0.729-0.174,9.324-0.902,10.344-0.902c1.021,0,6.848,0,6.848,0
			l0.875,6.41c0,0-10.928,1.168-12.093,1.313s1.312,15.295,1.312,15.295l1.02,3.789l3.205-0.729l0.146-4.953
			c0,0,1.602-0.875,2.768,1.311c1.165,2.186,1.894,1.604,1.894,1.604s3.788-2.77,4.808-2.186c1.02,0.582,3.205,2.186,3.205,2.186
			l1.311-3.352c0,0-4.369-1.893-4.369-2.33s-1.441-2.332-1.449-1.895s-4.523,3.203-4.961,3.35s-2.041-0.436-2.041-0.436
			s4.226-3.352,4.226-4.08s1.894-1.895,1.894-1.895s7.285,2.77,9.179,2.623c1.894-0.145,2.622,3.934,2.622,4.371
			s-1.895,2.039-1.895,2.039l0.875,2.914l7.139-1.166c0,0-4.225-12.674-4.662-14.131s-1.311-4.342-2.039-4.647s-7.139,0-7.139,0
			l-1.166-5.405h-1.457c0,0,7.139-1.217,10.344-1.555c3.205-0.339,11.25-1.067,11.525,0.535s2.461,10.49,2.606,11.654
			c0.146,1.166,2.913,13.113,2.913,14.133S311.765,180.753,308.996,181.046z M285.104,163.71c0,0-3.641,5.244-5.098,5.389
			c-1.457,0.146-1.748-5.68-0.875-5.389C280.006,164.001,285.104,163.71,285.104,163.71z M290.932,162.982
			c0,0,4.953-1.164,5.536-1.02s1.747,2.928,1.02,3.721C296.76,166.478,291.66,165.312,290.932,162.982z M326.916,167.906
			c-1.166,3.379-4.516,3.861-4.516,3.861s-3.935-12.574-3.352-18.109c0,0,5.828,4.662,6.557,7.283
			C326.333,163.564,328.082,164.525,326.916,167.906z"/>
		<path d="M115.527,59.106c1.748-0.292,4.08-1.603,3.642-3.059s-2.612-3.052-3.642-3.06c-1.693-0.013-3.496,1.913-3.496,3.055
			C112.031,56.913,113.779,59.398,115.527,59.106z"/>
		<path d="M100.376,67.556c0.728,1.894,0.292,3.642,0.597,4.662s-3.074,5.536-3.074,5.536l3.858,1.311l2.698-2.768l12.82,1.02
			c0,0,2.477-4.225,1.947-4.371s-12.291-1.166-12.291-1.166s-1.166-2.04-1.457-3.788s0.437-1.894,0.874-2.914
			s2.623-3.788,2.04-3.934s-1.165-2.185-2.04-2.914s-4.271,0.324-5.376,0c-3.482-1.02-6.861,0.897-6.861,0.897s-0.729,1.725,0,3.765
			S99.648,65.663,100.376,67.556z M101.757,60.272c0.199,0.096,2.698-0.146,2.407,1.166s-2.337,1.413-2.407,2.382
			s-0.07,0.969-0.07,0.969s-3.351-0.441-3.788-2.26S99.351,59.106,101.757,60.272z"/>
		<path d="M87.946,63.897c1.967-0.386,1.81-1.291,1.503-2.896c-0.477-2.499-1.557-0.84-2.185-1.871
			c-0.874-1.434-2.767,0.405-3.713,1.719c-0.181,0.251,1.091,2.337,1.016,2.971S85.979,64.283,87.946,63.897z"/>
	</g>
	<g>
		<path d="M216.713,118.516c0,0,6.67-0.45,6.76-1.171s0-3.966,0-3.966s6.219-1.262,6.219-0.811s-0.27,5.227,0.451,5.047
			s4.596-0.811,4.596-0.811l-1.982-4.333l4.416-2.787l1.982,5.768l-2.884,1.352l-0.09,3.695l-5.498,1.712
			c0,0,2.344,10.096,2.704,10.727s-5.453,0-5.453,0s-2.117-9.824-2.389-10.186c-0.27-0.36-8.832,0.902-8.832,0.902V118.516z"/>
		<path d="M219.146,125.546h3.875c0,0,1.893,3.875,1.893,5.588c0,1.712-5.317,0.9-5.317,0.9L219.146,125.546z"/>
		<path d="M234.559,124.554c0.27-0.18,4.776-1.172,4.596-0.811c-0.18,0.36,2.074,7.209,2.074,7.57s-5.229,0-5.229,0L234.559,124.554
			z"/>
		<path d="M238.434,108.421l5.949-1.803c0,0,0.09,8.472,0,8.652c-0.091,0.18-3.605,0-3.605,0S238.344,109.052,238.434,108.421z"/>
		<path d="M243.301,121.941c0.09-0.271,3.695-0.811,4.236,0s2.253,5.87,2.253,6.945c0,1.076-3.785,1.166-3.785,1.166
			L243.301,121.941z"/>
		<path d="M250.24,120.228c0,0,4.146-1.082,4.507,0c0.36,1.082,1.262,6.932,1.262,7.342s-2.884,1.316-2.884,1.316L250.24,120.228z"
			/>
		<path d="M258.262,123.665l3.426-0.642c0,0,1.172,6.038,0.811,7.57c-0.36,1.532-1.081,2.623-1.081,2.623h-6.31
			c0,0,1.713-2.793,2.344-5.097S258.262,123.665,258.262,123.665z"/>
		<path d="M261.688,115.351c0,0,5.047-1.072,5.047-1.792s-0.451-2.574-0.451-2.574s6.039-2.744,6.49-1.933
			c0.45,0.811,0,5.858,0,5.858s7.209-1.623,7.3-1.352s1.263,7.48,1.263,8.472s0.359,6.855,0.359,6.855l-6.488,0.715
			c0,0-0.631-4.775-0.812-6.578s-0.541-3.275-0.541-3.275l-2.163-0.496c0,0-0.992,5.007-0.721,5.065
			c0.27,0.058-0.631,5.284-0.631,5.284s-5.229-0.459-4.957-2.031c0.27-1.573,1.621-3.173,1.531-3.905s-0.27-2.806-0.27-2.806
			l-3.516-0.36L261.688,115.351z"/>
	</g>
</g>
</svg>
