<svg xmlns="http://www.w3.org/2000/svg" width="200" height="200" viewBox="-30 -40 180 180" preserveAspectRatio="xMidYMin slice">
  <g fill="#6FB8E7">
    <path d="M11.525 21.123l22.899 6.926 12.157 18.235 1.979 10.177-6.786 1.414-8.763-16.963-12.015-8.622-9.471-2.545"/>
    <path d="M7.708 32.714c.99.141 15.125 3.957 18.941 7.774 3.817 3.817 7.774 5.23 7.774 5.23l5.23 13.288-7.492 3.11-3.958 3.675-7.633-1.555-7.209-10.743-5.653-1.273V32.714zm0 21.626s3.817 2.403 5.654 6.502c1.838 4.1 1.696 5.796 1.696 5.796h-7.35V54.34zm27.14 14.701s3.534-5.795 11.026-8.552c7.492-2.756 15.407-2.614 15.407-2.614l10.178 3.393s9.047 10.036 10.177 13.711c1.131 3.676-4.099 2.402-4.099 2.402l-12.439-9.646H54.073l-13.57 3.711-5.655-2.405z"/>
    <path d="M47.004 74.555s5.107-3.252 11.318-1.556c6.21 1.696 6.493 1.13 7.624 1.556 1.131.424 9.895 8.199 10.178 9.329.282 1.13-6.078 0-6.078 0l-8.477-6.289H51.528l-4.524-3.04z"/>
    <path d="M53.931 79.643s8.058.566 9.188 2.262c1.13 1.697 1.413 4.665 1.413 4.665l-7.067.707-3.534-7.634zm25.162 6.502s3.98-5.188 10.177-7.697c10.319-4.176 12.862-.643 15.267 2.468 2.402 3.11-12.723 1.272-12.723 1.272l-8.48 5.795-4.241-1.838zm8.48 4.806s3.109-5.23 9.754-5.23c6.643 0 8.48 3.959 8.48 3.959l-6.644 1.271-7.221.848-4.369-.848zm5.655 3.958s5.089-1.979 7.774 0c2.686 1.979-.706 3.11-.706 3.11l-3.605 1.695-3.463-4.805zm7.916 14.278l1.582-10.743 8.595-9.684h5.229l-.424 8.113-4.24 4.68s1.414 2.827 1.697 4.807c.282 1.979-.99 3.675-.99 3.675l-11.449-.848zM7.708 70.596l24.03-.705 13.288 4.664 8.905 11.873-4.665 7.601-12.722-9.643-14.559-2.426h-10.46l-2.969-.903"/>
    <path d="M9.97 83.459s15.691-2.402 22.899 4.523c7.209 6.927 12.581 12.439 12.581 12.439l-7.916 6.927-11.026-12.145-8.623-3.404H9.122l.848-8.34z"/>
    <path d="M8.556 95.203s14.701.482 17.528 4.193c2.827 3.711 7.35 13.183 7.35 13.183h-5.23l-10.743-8.688-6.077-1.631-2.828-7.057zm2.829 10.309s6.5.565 7.631 1.837c1.131 1.271 2.828 5.23 2.828 5.23H11.525l-.14-7.067zm35.619 6.359L52.8 94.029s14.872-7.258 24.737-4.068c12.581 4.068 21.345 21.91 21.345 21.91h-6.938l-7.056-13.569s-10.178-6.644-16.963-5.654c-6.785.99-10.319 4.807-11.45 8.481-1.13 3.676.99 5.23.99 5.23l11.025-8.905s5.692-2.262 13.306 4.947c7.615 7.209 3.375 9.47 3.375 9.47l-4.665-.988s-2.668-7.068-4.373-7.916c-1.706-.848-6.229-3.252-10.046.141-3.816 3.393-4.518 9.472-4.518 9.472l-14.565-.709z"/>
    <path d="M66.653 111.871s1.555-5.512 3.109-5.653 8.464.822 9.998 2.827c1.535 2.006-.668 4.523-.668 4.523l-12.439-1.697z"/>
  </g>
  <path d="M122.858 94.481c-1.24-6.78-2.471-11.939-2.334-22.231.085-6.372.492-21.407.412-31.977-.045-5.916.688-29.78 0-32.113-.686-2.333-1.51-6.863-9.195-7.274-7.685-.412-19.35-1.097-25.113-.823-5.765.274-27.447.823-32.251.823 0 0-14.959.412-18.115.137C33.105.748 16.774-.486 9.089.612c-7.685 1.098-7.96 6.999-7.96 9.607 0 2.607-.686 34.857-.549 36.368.138 1.51-1.372 29.505 0 34.995 1.373 5.489.687 26.35 2.196 28.82 1.51 2.47 4.392 5.9 7.959 6.24 3.568.341 12.9.483 17.154-.055 4.254-.539 32.525.265 35.681 0 3.157-.265 28.545-.147 33.623-.011 5.078.138 17.566-1.098 20.724-2.744s4.803-5.352 4.94-8.646c.138-3.295.704-6.862.001-10.705zM10.736 8.022c1.235-1.098 12.625-1.415 16.331-1.668 3.706-.253 26.487.159 26.487.159 2.195-.137 20.859-.275 23.193 0 2.332.274 28.956.686 30.604.823 1.646.138 4.803.138 4.94 2.333.138 2.195.686 22.232.686 24.017 0 1.784.687 11.94.687 14.822 0 2.881-.824 15.096-.824 16.879 0 1.784.824 7.823.824 7.823s-9.892-4.041-13.313-4.529c-5.764-.823-13.586 1.921-13.586 1.921s-6.45-7.41-10.704-10.979c-4.255-3.568-14.821-4.94-16.743-4.94s-7.411-.412-7.411-.412-1.373-8.393-5.901-14.489c-4.529-6.096-10.749-12.437-18.39-16.514-8.508-4.541-16.88-5.227-16.88-5.227s-1.236-8.921 0-10.019zm92.862 70.847c-3.463-.596-8.581-.5-12.011.386-5.626 1.454-8.98 6.863-8.98 6.863l-4.057-2.38s6.384-5.302 10.604-7.088c4.219-1.785 9.25-2.271 12.982-1.568 3.733.703 10.82 3.625 10.82 3.625l.324 5.031s-6.22-4.275-9.682-4.869zm1.73 7.357l-2.218 2.76s-3.57-1.84-5.843-1.515c-2.272.324-5.14 1.893-5.356 2.055-.216.163-1.061-.363-1.331-.092-.271.27-1.373 1.013-1.373 1.013l-2.11-2.651s4.381-4.543 9.197-4.544c8.06-.003 9.034 2.974 9.034 2.974zM63.616 75.569c-4.382-1.515-8.71-.864-9.846-.812-1.136.055-4.003.596-4.003.596l-2.38-2.272s3.57-2.651 12.55-1.947c8.98.703 11.306 4.11 12.713 5.626 1.406 1.515 2.435 6.221 2.435 6.221H70.54c0-.001-2.543-5.897-6.924-7.412zm1.244 8.223s-6.113 1.136-6.33 1.948c0 0-2.813-4.328-4.112-5.086 0 0 3.354-2.163 6.546-1.244 3.193.92 3.896 4.382 3.896 4.382zm.974-17.852c-4.869-2.435-12.118-2.758-15.688-1.515-3.57 1.244-9.954 4.761-9.954 4.761l-5.626-3.517s7.357-5.571 11.577-6.438c4.219-.866 13.142-.227 18.394 1.137 9.791 2.542 17.312 12.009 17.312 12.009l-2.976 3.138c-.001.001-8.17-7.141-13.039-9.575zM42.518 55.551s-6.625-15.57-12.389-19.422c-10.766-7.195-18.718-8.98-18.718-8.98l-.27-4.003s13.067 1.825 20.557 8.115c11.145 9.358 13.687 22.018 13.687 22.018l-2.867 2.272zm-32.459-23.1s6.383 1.082 13.849 5.518c7.465 4.436 7.628 7.033 9.034 10.116 1.407 3.083 3.462 10.657 3.462 10.657l-3.625 1.028s-5.518-8.926-7.52-11.631-6.654-5.68-8.656-6.708c-2.002-1.028-6.546-2.083-6.546-2.083v-6.897zm-.975 11.793s6.33.324 12.01 7.087 5.951 11.901 5.951 11.901h-5.356s-2.218-6.438-5.085-9.494-7.791-4.95-7.791-4.95l.271-4.544zm-.648 14.228c.156-.796 1.353-4.058 1.353-4.058s2.577-.019 4.761 4.058c1.623 3.03.974 5.248.974 5.248l-7.357.325c-.002 0-.05-3.95.269-5.573zm3.896 52.044c-.27 0 0-5.572 0-5.572s2.486-.547 4.652.596c3.733 1.968 3.733 4.7 3.733 4.7s-8.115.276-8.385.276zm20.287-.541l-4.112.265s-2.434-7.081-6.113-8.271-9.955-2.694-11.902-2.867c-.325-.028 0-4.761 0-4.761s8.115-.541 12.443 1.623 8.568 6.132 9.684 10.387c.552 2.109 0 3.624 0 3.624zm10.386-9.684c.054 1.568-2.056 9.088-2.38 9.684s-2.921 0-2.921 0 1.027-5.248-3.246-9.684c-4.274-4.436-6.6-9.033-13.741-10.604-7.141-1.568-10.279-1.189-10.279-1.189l-.271-4.274s10.279-1.406 17.745 0c7.465 1.407 12.551 5.301 13.849 7.411s2.434 4.545 2.434 4.545-1.244 2.543-1.19 4.111zM35.54 81.063c-5.681-2.087-15.743-3.224-18.772-2.899-3.03.325-7.303 0-7.303 0l-.974-6.328s6.762-1.57 11.523-.813 17.365 1.395 21.314 4.166c5.789 4.063 10.117 12.496 10.117 12.496l-2.651 3.625c0 .001-7.574-8.16-13.254-10.247zm41.441 28.425l-8.386.434s.541-4.6 4.868-4.869c4.329-.272 3.518 4.435 3.518 4.435zm9.791-.541l-4.814-.108s-1.406-4.651-3.517-5.626c-2.11-.974-5.946-1.461-6.22-1.515-.272-.055-4.816.812-7.359 3.679-2.542 2.867-2.759 4.22-2.542 4.977.217.758-4.652-1.082-4.652-1.082s1.2-5.524 5.302-8.601c3.029-2.272 10.078-3.517 11.359-3.517 1.948 0 5.223.096 8.603 3.029 4.111 3.571 3.84 8.764 3.84 8.764zm5.139.055c-.432-.163-3.245-6.925-4.436-8.602-1.189-1.678-3.57-4.924-6.87-5.572-3.3-.649-4.815-1.515-9.575-1.137-4.762.379-8.656 2.76-10.441 4.058s-4.058 3.517-4.166 4.274c-.108.757-.271 2.162-.595 2.704-.324.541-1.353 1.784-1.19 2.435.162.649-.974 3.408-.974 3.625 0 .216-4.814-.865-4.814-.865s3.083-11.037 5.031-14.12c1.948-3.084 9.576-7.79 19.421-7.735 9.846.053 13.796 6.383 15.364 7.248 1.569.865 8.169 11.144 8.169 12.551 0 1.028-4.49 1.299-4.924 1.136zm4.978-10.82c0 .975-2.921-3.949-2.921-3.949s1.19-2 3.246-2.109c2.055-.108 3.354 1.46 3.354 1.46s-3.679 3.624-3.679 4.598zm6.816 9.792h-2.218s2.109-9.089 4.544-12.118 6.925-5.896 6.925-5.896v6.33s-3.949 3.353-5.302 6.545-3.949 5.139-3.949 5.139zm10.279-1.515c.071 1.785-4.815 1.515-4.815 1.515s.324-2.38 1.84-4.436c1.515-2.056 2.976-2.813 2.976-2.813s-.047 4.588-.001 5.734z"/>
  <path d="M96.326 56.883c-1.06-1.569-5.64-5.216-5.767-5.513s1.271-2.629.721-3.011c-.552-.382-4.92-1.823-7.463-5.428-1.021-1.446-2.545-4.326-2.545-4.326s4.664-1.441 5.598-1.823c1.408-.576-5.555-5.428-6.064-5.428-.509 0-1.992.636-1.992.636s-.891-6.402-3.266-11.618c-2.641-5.802-6.021-7.082-6.191-6.954-.17.126-3.309 8.099-3.309 8.099s-1.418-1.2-3.01-2.46c-1.082-.856-3.732-2.883-3.732-2.883s.679 3.605.721 5.173c.042 1.568-.127 7.251 0 8.057s1.527 1.484 1.824 2.206-.891 4.41-1.018 5.216c-.127.805 1.145 3.605 2.842 3.858 1.695.254 2.077-.424 2.417-.042.339.381 2.925 2.756 3.265 3.477s-.084 3.604 0 3.902c.085.297 2.502-.127 4.707-.169s2.884.551 3.604.635c.721.085 1.739 1.272 1.653 1.527-.084.254-1.06 1.314-1.06 2.375s.722 5.64.933 5.767c.213.127 1.951-1.484 2.459-2.417.51-.933 1.994-.763 1.994-.763s.339 5.258.848 7.25c.546 2.139 2.629 3.732 2.842 3.563.211-.17 3.604-5.767 3.604-6.063s2.375.382 3.943.382c1.569-.003 2.502-1.657 1.442-3.225zM81.823 34.026c.551.211 1.484 1.398 1.103 1.866-.382.467-1.696.636-1.781.297s-.679-2.163-.679-2.163c.679-.339.805-.212 1.357 0zm-15.138 1.866c-.254 1.738-.848 2.119-1.738 2.162-.891.043-1.908-1.781-1.654-2.078.255-.296.934 1.103 1.357.806s.336-5.725.848-5.004c.249.352 1.441 2.375 1.187 4.114zm22.687 21.075c-.552.339-1.315 3.605-2.078 3.689-.764.085-2.672-3.9-1.951-4.41s2.842-.806 3.096-1.569-3.18-2.12-3.816-2.629-1.738-.891-2.121-.551c-.381.339-1.483-.678-1.738-1.908-.254-1.23.51-3.053.849-3.435.339-.381-.47-2.502-1.358-3.011-.889-.509-2.67 1.4-3.094 1.569-.424.169-3.223.592-5.004-1.697-1.781-2.289-3.902-3.944-3.689-4.834.212-.89.17-3.01 0-3.52s-.561-1.568-.301-1.696c.258-.127 1.403-.806.598-1.611-.807-.806-2.375-2.077-3.436-2.247-1.06-.17-1.992.254-2.205-.339-.211-.594-.721-6.36-.636-6.657.085-.297 4.241 4.75 4.58 4.918.339.169 1.653-3.393 1.908-4.665.254-1.272.763-5.259 1.78-5.47.83-.173 2.799 4.876 3.182 5.937.381 1.06.975 3.223.975 3.223s-1.95 2.756-2.545 2.671c-.594-.084-.509-.721-.891-.763-.381-.042-3.434-.17-3.307.169.127.339 2.459 2.842 2.629 3.308s1.654.381 2.205 0c.551-.382 2.502-2.205 3.011-2.12s1.611 3.69 1.823 5.046 1.527 6.192 1.951 6.743 2.205 1.06 2.713 1.866c.51.805.298 2.078.213 2.671-.086.593.551 1.739 1.102 2.544.552.806 2.333 3.818 3.139 4.454.807.635 5.301 2.205 5.385 3.562.084 1.356-2.418.423-2.969.762z"/>
  <path d="M71.222 22.28c.408-.118 1.484.763 1.568 1.398.086.636-.805 1.612-1.865 1.23-1.06-.381-1.018-2.246.297-2.628zm2.502 10.261c.322-.114 2.247 1.569 1.823 3.011-.424 1.441-3.963 2.585-4.06 2.29-.096-.296-1.113-1.272-.52-1.95.595-.679 1.442-2.885 2.757-3.351zm1.441 6.149c.131-.081 1.994-.594 2.333.466s-2.841 3.35-3.689 2.799-.212-2.289 1.356-3.265zm19.592-26.332c.24-.24 3.436-.255 3.689-.212s1.484 2.586 1.696 2.671c.212.085 9.286.297 9.923 1.4.636 1.103-4.113 5.47-4.877 5.47s-.934-.679-.679-1.017c.255-.34.721-2.248-.466-2.46-1.188-.212-4.199-.509-3.943 0 .254.509 4.113 6.913 3.9 7.379-.212.466-3.477.551-3.773.211s-3.251-5.598-3.449-5.724c-.197-.128-2.911.169-3.336-.084-.424-.255-2.926-3.987-2.714-4.071s5.089-.34 5.386-.722c.297-.383-1.569-2.63-1.357-2.841zm1.654 17.47c.519-.115 1.441-.212 3.266-.339 1.822-.127 8.649-.425 8.904-.254.254.17-3.351 5.682-3.139 6.191.213.509 2.121 1.272 2.036 1.951-.085.679-1.313 2.857-1.78 2.892-.468.034-8.609-6.241-9.287-6.411-.679-.17 1.526-.977 2.586-.085 1.061.891 3.563.255 3.816.127.255-.127 1.104-2.248.594-2.248-.509 0-5.64.255-6.232.17-.594-.086-1.663-1.795-.764-1.994zm8.269 11.959c.221-.204 2.417-.384 2.46.253.042.637-2.586 6.743-2.842 6.871-.254.127 2.758 1.823 2.842 2.459s-1.568 1.612-1.865 1.315-1.315-1.398-1.57-1.229c-.254.169-1.738 2.162-2.078 1.95-.338-.211-2.713-1.314-2.332-1.908.383-.594 1.824-1.823 1.484-2.375-.339-.551-3.604-3.477-3.35-3.858.254-.382 1.018-1.866 1.399-1.781.382.085 3.255 2.205 3.45 2.163.197-.044 1.85-3.351 2.402-3.86z"/>
</svg>
