<svg xmlns="http://www.w3.org/2000/svg" width="200" height="200" viewBox="-40 -15 290 290" preserveAspectRatio="xMidYMin slice">
  <path d="M25.504 4.772c0-1.723 4.083-1.324 7.502-1.875s4.634-.221 6.619 1.875 2.868 5.185 3.861 5.185 5.075-5.847 5.075-6.84.331-1.324 2.868-1.324 6.398 4.854 7.943 6.95.882 6.289-.441 8.164-5.295 5.074-5.626 5.516-2.096 2.206-1.765 2.979 8.164 6.289 9.377 7.392 4.193 3.53 1.104 5.957-10.149-.772-12.246-3.089c-1.562-1.726-2.51-2.958-3.641-3.751-.852-.598-3.671.315-2.868 3.199s1.875 6.289 1.655 7.502-7.281.882-10.59-.662-3.199-9.818-3.641-14.452.11-9.708-.552-13.128-4.634-7.391-4.634-9.598zm50.636.772c3.033 1.346 4.854 3.42 5.516 7.612s.772 19.967.441 21.732.331 4.523-1.103 4.413-8.715-2.206-8.826-4.633-.063-15.651 0-19.196c.11-6.178-2.868-8.053-2.647-9.928s5.851-.34 6.619 0zm15.334-.331c2.109.728 5.185 2.096 6.95 3.971s11.344 13.014 12.797 10.922c1.06-1.525 1.103-11.142 1.103-12.797s-.662-3.263 1.544-2.68 7.502 2.459 8.605 7.092 1.875 15.665 2.647 18.754.22 8.495-1.875 8.384-7.756-.626-11.583-5.957c-3.961-5.517-9.487-10.522-10.149-11.218s-3.199-.476-3.199 1.4 1.434 10.811.882 12.797-10.48-3.42-10.59-5.185-1.294-12.775-1.544-16.327c-.552-7.833-2.757-8.494-2.537-9.267s4.079-.879 6.949.111zm55.159-2.868c2.758.882 11.252 4.082 11.252 4.413s-7.392 1.655-10.26 3.31-6.84 5.075-7.833 9.929 2.647 8.163 4.854 8.715 5.074-.11 6.067-2.537-5.406-5.516-6.398-5.516 5.957-4.082 6.398-4.082 9.488 3.861 10.701 4.633 1.324 13.018 1.655 15.003.402 10.877-3.31 10.921c-2.427.029-6.729-4.744-6.729-5.626s.552-4.302.441-6.067-2.758.552-7.061.662-13.9-1.214-16.438-10.26-.22-17.872 3.861-22.505 7.17-3.199 7.833-2.868 4.967 1.875 4.967 1.875zm57.145 86.05c-2.207.221-1.875 1.324-8.164 1.655s-5.185.441-11.142 0-12.466-2.207-14.452-3.2-11.363-3.861-18.754-4.302-7.171 3.53-7.501 1.434 0-8.715-2.207-11.914c-1.05-1.522-8.825-11.143-11.252-14.011 0 0-9.928-9.818-10.48-9.708s-.441 3.31.772 5.847 1.103 13.018.551 15.555-4.523 16.438-5.405 16.438-2.648-5.626-3.972-6.729-3.199-5.185-3.53-9.267-6.95-8.053-5.957-7.281-1.103 4.192-1.103 2.868-4.964-3.31-4.964-3.31 1.875 1.213 2.316 4.854-2.427 7.501-2.979 9.929-7.612 12.245-8.274 13.018 1.655-.221 4.082-1.765 7.17-5.075 7.943-5.075 2.758 2.427 6.729 5.926 15.554 8.525 21.291 10.842 16.438 1.765 20.409 1.434 7.171-.772 11.915-1.544 7.17 2.317 7.501 3.199-2.316.772-3.937.11-5.881-.551-7.315-.331-2.979 3.751-2.427 3.42 5.626-.441 6.178 1.434-4.854 4.303-1.765 4.744 7.391.441 8.936-2.979 11.804-9.708 10.922-9.377-6.619-1.213-7.943-1.213-6.95-3.089-11.473-2.868-8.274 4.413-10.039 3.53-5.185-2.206-5.295-3.309 1.103-2.869 6.288-4.303 11.583-.551 13.935-.11 9.674 3.199 13.976 4.192 10.59-.331 11.363.221-3.972 5.626-5.406 7.17-5.405 7.061-10.701 11.252-19.416.883-17.761 2.537 17.099 3.861 22.174 3.089 9.708-5.185 14.672-14.011 9.377-10.811 12.135-12.466 8.715-1.103 8.715-1.986-6.399-3.86-8.605-3.639zM131.189 72.95c1.329 0 3.172 3.963 3.199 6.84.011 1.213-2.041 1.324-4.082 1.324-1.258 0-3.089 0-2.869-1.213s1.876-6.951 3.752-6.951zm1.986 21.733c-1.213.552-5.737-2.096-7.171-2.592s-3.31-.387-3.199-1.159.554-2.72 2.649-2.739 2.137 1.098 3.463 1.305c1.269.198 3.927.772 4.699 1.213s.772 3.42-.441 3.972zm-.773-6.509c-2.316-.221-6.617-1.324-6.949-1.434s.624-2.647 1.966-3.199.402-.237 2.997 0c1.428.13 3.75 0 3.971 1.544s.332 3.31-1.985 3.089z"/>
  <path d="M92.248 66.218c-.11-3.199-2.427-7.722-2.316-6.178s-2.207 4.302-5.422 11.252-8.615 13.79-8.615 13.79-.635-2.537-1.297-4.854-.441-11.473.552-15.775 4.082-5.295 9.36-9.156 5.422-11.473 5.422-11.473-2.207 1.875-7.653 4.964c-4.66 2.643-12.094 6.95-17.83 9.046s-12.576 7.281-15.003 13.68.11 13.127-.552 13.355-8.936-.228-10.701 0-8.053.213-13.679-1.772-4.854-5.626-6.619-8.936S5.317 67.1 4.214 67.762s1.765 4.523 3.42 6.729 1.986 13.9 1.655 16.547-3.861 2.869-1.875 12.025 12.135 19.857 15.775 21.512-.331 2.096 10.149-.552 11.804-4.854 11.103-4.413-7.021-2.207-12.868-4.964-11.142-9.157-13.348-13.9-5.185-10.811-2.427-10.59 10.26 2.868 14.452 3.972 13.459.551 16.658.22 5.075-.993 5.405.441-1.544 3.31-1.985 3.861 8.053 1.544 11.362 1.213 11.804-2.427 15.224-5.185S90.042 84.089 89.6 82.324s2.758-12.907 2.648-16.106zM71.151 90.157c.026 1.434-3.726 3.971-5.821 4.302s-3.972-.331-4.633-1.655-2.758-4.964-2.207-9.156 1.765-4.082 1.986-8.274.662-4.081 1.434-5.405 2.427-1.986 2.427-1.986c-.221 1.765.882 4.964 1.213 6.509s3.504 5.405 3.958 5.626-4.443 1.104-6.131 1.104-1.291 3.309 0 4.082 4.794-.868 6.131-.434 1.999 1.427 1.447 1.868-6.773.883-7.579 2.207-.475 1.434.518 2.096 1.434-.552 4.523-1.434 2.708-.884 2.734.55z"/>
  <path d="M52.202 102.512c.193-1.548-5.957-1.986-9.818-2.868s-7.061-.441-11.694-1.765-7.722-.772-7.722-.772 5.957 8.384 6.95 10.59 2.648 3.751 8.605 5.626 9.488 1.324 10.039.772-5.405-2.869-4.854-3.53 3.75-.441 5.626-.993 0-2.096-2.979-1.434-2.648-1.243-5.075-2.332-3.42-.978-3.696-2.743 3.144-.663 5.461-.772 8.936 1.986 9.157.221zm79.103 13.801c-.667-.167-7.167-6.917-8.333-7.25s-5.167 1.333-11.833 10.25-7.25 18.667-7.667 24.417 1.333 21.083 0 21.417-3.667 0-5.333 0-.667-.667-1.417-1.583-3.667-4.083-4.917-4-5.083 3.417-6.583 3.333-.5-1.167-.583-2.667-.833-15.083-2.083-19.387-2.667-13.447-4.083-18.197-5.623-7.292-8.667-8.75c-2.5-1.197-12.083-1.5-9.75-.333s9.25 7.093 11 12c.852 2.387 4.083 18.083 3.583 23.667s-1.417 16.167-2.167 18.667-5.25 11.75-3.917 13.833 6.333 5.25 5.917 5.833-2.75 2.75-1.417 5.417 3.083 7 7.25 12.083 7.167 7 15.75 7.167 9-.333 14.083-3.417 5.333-6.083 5.333-6.083 2.25-.167 4.25-1.583 4.333-6.167 3.333-7.5-.833-4.75-.833-5.333 1-1.583 1.833-3.75 1.167-9.583.5-10.833-5.667-4.417-6.583-5.417-.25-3.833-.667-6.167-.083-19.75.667-25.583 4.167-10.167 7-13.333 7-6.751 6.334-6.918zm-53.5 62.417c1.417-2.833 2.833-4.667 7.75-5.917s5.101-2.361 7.25-3.083c2.729-.917 3.083-3.083 3.083-3.083 1.167 1.25 2.417 4.417 5.583 5.167s7.489 2.047 9.083 2.667c3 1.167 4.417 5.583.417 7.75-5.772 3.127-7 1.916-7.5.833s1.583-3.333 3.333-3.833 3-.833 3-.833-3.833-2.252-6.583-2.376-7.292 2.542-7.688 2.876-1.979 1.667-2.396 1.417-3-2.25-5.167-3.167-6.25-.5-6-.25 3.333 1.75 3.917 4.167-1.167 2.583-4.5 2.5-4.999-2.001-3.582-4.835zm2.916 16.181c-1.5-2.764-1.5-3.68-.833-4.514s3.666.157 5.333 0c3.405-.321 4.917-1.25 6.667.5s1.75 4.917-1.083 5.75-8.584 1.027-10.084-1.736zm15.334 13.069c-5.5 0-9.333-1.667-9.25-2.708s3.166-.292 5.083-1.625 3.377-1.395 4.167-1.083c.93.367 1.916 1.75 3.833 2.417s4.75.917 5.5 1.25-3.833 1.749-9.333 1.749zm12.666-9.583c-4.833 0-6.833.25-7.5-2.083s-1.5-3.333 0-3.5 2 0 5 .417c1.983.275 7.25-.334 7.917-1.667s-.583 6.833-5.417 6.833z"/>
  <path d="M62.138 129.147c.916-.044 4.75 2.75 4.833 3.667s-.333 5-1.917 5-8.333-3.333-7.75-5.25 3.084-3.334 4.834-3.417zm65.333 2c3.413-.449 3.81 1.75 3.905 4.667s-1.822 3.833-5.238 3.583-5-7.417 1.333-8.25zm43.334 7c2.178 2.519 4.666 8.417 7.583 11.75s11.417 8.333 12.333 8.667-6.833 2-13.417-2-6.583-3.583-7.25-3.667-10 .917-15.583-3.25-11.333-13.367-12.417-18.559-.917-6.108 0-7.025 8 7.833 10.917 9.917 1.417 6.083 5.833 9.833 8.25 6 9.583 5-4.75-8.519-4.917-13.551.083-8.615.083-8.615 4.585 8.417 7.252 11.5zm-29.502 8.333c1.674.514 4.501 1.75 5.084 3.5s2.917 5.583 3.75 5.833 2.833 1.583 2.833 1.583-6.333 1-8.833-2.167-5.209-9.478-2.834-8.749zm-1.415 6.25c.68-.887.667 6.333 5.25 9.5s6.75 3.167 6.667 4.333-4.917 1-7.583 0-3.083-2.583-3.417-1.5.335 2.25 5.042 6.917 4.624 6.25 4.457 8.5-.833 1.5-1.333 1.333-3.417-4.25-5.5-5-3.167-1-3.583-.917.833 3.833 3.667 5.833 2.254 2.583 2.254 2.583-6.587-2.25-8.837-5.167-3.25-6.667-2.917-7.167 2.5 2 4.583 2.25 0-4.668-.917-5.709-1.334-5.374-.167-6.041.583-.25.75-2.75.033-4.976 1.584-6.998zm-6.834 29.417c.402-.919 1.917 5.167 2.917 6.75s2.25 3.667 1.917 3.833-4.75.333-5.417-5.292 0-3.958.583-5.291zm32.995-20.084c1.338 1 7.255 5.917 8.005 13.25s-.417 12.083-1.5 17.083-2.833 8.25-3.25 9.417 5 8.417 5.75 8.333-6.5-.917-12.75-5.583-5.083-11.333-5.083-15.25 1.167-8 1.417-8.5 2.167 6.917 4.25 8.75 3.083-4.75 4.167-7.917-.177-9.917-1.005-13.75-.001-5.833-.001-5.833zm-15.161 43.917c1.032 1.753 2.917 6.083 3.917 8.333s-1.411 6.25-2.997 8.917-3.419 4.833-3.419 4.833.002-7.916 0-11.75c-.004-6.166 1.749-11.605 2.499-10.333zm-9.667 7.417c0 .917.69 7.083 1.678 8.333s-3.568 8.083-4.957 8.833-3.389 3.75-3.389 3.75-.814-9.229 2.583-14.417 4.085-6.499 4.085-6.499zm-12.333 11.166c.25 1.417 2.167 5.75 2.917 6.333s-3.167 10.083-3.917 12-4.667 10.583-5 14.75-1 9.25-1 9.25-7.5-5.833-5.25-15.416 5.583-16.167 7-18.667 5.25-8.25 5.25-8.25zm-18.75 22.5c.967.872 2.333 1.251 2.083 3.917s-3.584 8.499-3.667 11.166-3.75 9.584-3.75 9.584-2.583-10.001-1.417-13.334 5.783-12.205 6.751-11.333zm-49.167-28.666c1.901.747 9.833 8.5 11.75 11.583s13.417 9.834 13.917 12.917 3 8.083 3.917 8.75 4.637 3.902 7.583 8.834c3.833 6.416 3.5 15.25 3.083 17s-6-8.167-6.917-9.917-2.167-5.25-3.167-5.75-2.25 2.417-2 5.5-.333 4.417-.333 4.417-5.833-1.167-6-10.167.916-5.834-.667-11c-1.583-5.167-9.333-12.583-12-16.25s-11.499-16.834-9.166-15.917zm-5.667 12.916c1.833.417 8.25 5.917 8.917 6.917s.583 9.417 0 11.75-.667 4.75-.667 4.75-5.916-7-6.083-10.5.167-5.25 0-7.417-2.167-5.5-2.167-5.5zm-16.25-28.25s2.5 4.333 3.25 5.083 1 4.083.583 6.417-.917 4.334 1.417 9.292 7.25 11.292 8.083 12.625 1.917 6.5 1 9.75-1.583 4-1.583 4 .333-6.083-4.667-12.75-9.333-9.833-10.25-13.625-2.416-10.458-1.083-14.625 3.25-6.167 3.25-6.167zM26.888 185.98c1.603.95 6.25 4.25 7.167 4.583s-2.083 2.333-2.75 5.667-.661 9.584-.747 12.167-2.419 7.333-2.919 8.333-2.417-6-2.333-8.833.333-5.75-.75-5.417-4.667 3.334-6.25 4.417-5.583 2.416-7.167 2.833 6.5-11 7.167-14.667 3.062-4.801 2.167-12.5c-.085-.718 5.016 2.587 6.415 3.417zm34.5 1.417c1.881 1.723 3.333 4.416 3.083 5.833s3 .583 2.917 2.75-4.707 7.935-6.667 8.917c-.831.417.667-3.171 0-5.252s-3.583.585-4.75 1.085-5.333-1.085-5.333-1.085 3.333-2.331 4.833-7.581.833-5.333 1.5-6 3.638.62 4.417 1.333zm-9.084-12.584c.932.559 1.417 2.917 2.167 4.75s-5.083 6.083-6.083 7.167-3.333 2.75-6.083 2.083-6.807-4.25-7.028-5.083 2.362.667 4.862-.667 11.332-8.75 12.165-8.25zm-.083-18.5c.336-1.252 2.25 6.25 1.583 8.5s-4.25 4.25-6.75 4.583-4.583-.667-4.583-.667 3.975-3.841 5.736-5.911c1.661-1.95 3.097-3.088 4.014-6.505zm-5.5-25.225c1.583.642 2.471 10.666.417 21.059-1.417 7.167-5.167 8.917-5.25 10s-1.5 5.25-6.625 8.5-8.708 2.452-11.458 4.143-5.583 4.941-9.75 5.441-8.583-1-9-2.167 8.234-1.067 12.167-6.083c5.358-6.833 4.25-9.161 4.25-9.161s3.333 4.828 2.75 5.411 8.667-3.583 11.917-8.333 7.858-8.75 8.762-16.5 1.82-12.31 1.82-12.31z"/>
  <path d="M37.388 139.436c.911.895 2.417 2.627 2.333 3.461s-4.155 8.167-5.494 8.833-5.756-1.833-7.089-1.5-4.667 2.583-7.25 4.25-4.333 4.25-7.333 4.5-10.917-.5-12.417-1.083 9.583-3.25 17.333-10.333 9.216-13.25 9.216-13.25 1.95 8.667.867 11.333-1 2.75.75 2.667 5.179-3 5.923-4.667 2.217-5.138 3.161-4.211z"/>
</svg>
