<svg xmlns="http://www.w3.org/2000/svg" width="200" height="200" viewBox="-55 -85 460 460" preserveAspectRatio="xMidYMin slice">
  <path d="M127.515 49.377s7-.333 7-2.667-.667-6.667 0-7 10.333-1.667 10.333 0-.333 6.333 1.667 6.667 5-2 4.333-4-1.811-4 .095-4.667 7.572-1 8.572 0 .333 4.702 2 5.518 10.379.483 12.189 1.816.856 8.333 0 8.333h-10.189s-2.667 1.333-1.667 3.333 0 4.667-.333 5.667-9.333.667-9 0 .887-4.333-1.39-4.667-6.61 0-6.277 1.667 0 7 0 7-7.333 2.333-6 0-.333-11.667-1.667-11.667-6.333.333-6.333 2-3.333-7.333-3.333-7.333zm49.288 22.712c-1.044-1.288-15.956-1.379-23.622-.379s-18.321 0-22.667 0c-4.297 0 0 11.333 0 17.161s1 18.505 1.667 17.839 43.667 1 44.622-4 1.045-29.333 0-30.621zm-39.622 12.288c.667-1.333 3-5.333 3-5.333 3 .667 6-1.333 6.667 0s2.333 4.666 0 5.333-10.333 1.333-9.667 0zm10.868 11.333c.132 1.333-6.869 2.667-8.202 1.333s-1.954-5.936 0-6c1.666-.055 5.07-.333 8.202 0s-.132 3.334 0 4.667zm17.799 3.334c-1.333 0-5.666 2.333-6.333 0s-2.339-8.913 0-8.161c2.202.708 2.666.839 6.333 0s1.333 8.161 0 8.161zm0-15.667c-1.318 1.648-9.137-1.258-9.316-.037-.015.213-.017.263-.017.037 0-.015.015-.023.017-.037.074-1.043.5-6.352 2.983-6.296 2.356.053 6.666-.333 8.333 0s-.667 4.666-2 6.333zm86.704.333c-.963-1-25.371-1.333-26.704-1.333s-4.667-4.333-5.333-6.333 28.667-3.667 31-3.667 0-3.333 0-4.963-27 1.63-29 1.63h-25s-1.333-13.333-1.667-14.667-9 0-10.333 0c0 0 2 5 .667 7.333s-1 3-3.348 2.333-1.318 10.333 0 11.667 6.682-.333 6.682-.333 2.333 8 1.333 9-4.333 2-6.333 2-1 7.333-1.667 9 21.333-2.667 26.333-4.333 9-11.333 9.995-10.333.671 18 0 20 5.671 1 6.671.667 2.333-11 3-12.493 3.667 10.826 4 13.16 0 0 1.667 0 2.667-8.333 2.667-10.333 2-2.333 4.667-1 1.333 11 .667 13 6.667 1.333 8 0 2.999-19.002 2.036-20.002zm-43.037-6.333c-1 2-6.667 10.667-6.667 8.667s-5.333-11.333 2-11c1.698.077 5.667.333 4.667 2.333z"/>
  <path d="M234.181 38.71c-.667-2-26.208.094-28 0-2.015-.105 4.333 24 4.667 24.667s24 1 24.667 0-.667-22.667-1.334-24.667zm-18.666 10.363c.333-2.362 1.712-5.426 3.333-5.362 1.666.065 6.667.333 8 1.667s2 4 0 3.667-11.666 2.39-11.333.028zm8.298 8.971c-2.631.667-9.857.404-4.298-4.26 1.355-1.137 8.524-1.593 8.595 0s-1.666 3.593-4.297 4.26zm37.368 12.989c2.479.568 7 .011 7.667 1.677s2.333 21.667 2 21.667 12.667-1.319 11.333-5.493-2.333-24.579-1.333-24.876 10 .776 10.667 3.406-1.333 27.963 0 26.963 13.999-2.333 14.333-3.667-2.666-26.703-2.666-26.703 13.666 4.369 13.666 5.369 2 35.596 2 35.596-56.333 2.455-56.333 1.763-3.207-36.131-1.334-35.702zm-152.666 33.94c.667-1.738-1.333-6.596-2.667-8.262s-14.88-.387-16-1.667c-2.333-2.667-18-5-20.667-4.667s-5.333 5.333-6.333 8 5 10 9.667 11.333 21 2.333 23.333 2.667 12-5.667 12.667-7.404zm-13 0c-1.333 4.071-11.667.262-14.333 0s-9.667-1.685-9.333-5.307 4.713-2.656 13.845.044c1.775.526 11.154 1.191 9.821 5.263zm20.333 16.404c-.667-3.333-16.529-5.442-20.204-5.333-3.88.115-13.463 2-15.463 7.235s6.667 10.431 22 7.431 14.334-6 13.667-9.333zm-30.156 2.439c1.155-2.772 9.952-2.106 9.952-2.106 2.537 0 7.537-.455 7.537 2.106s-18.644 2.773-17.489 0z"/>
  <path d="M345.848 89.71c-3.334-19.333 2-79.667 0-80.333s-22-5-33.333-5.667-54-2-65-1.855-72.667 1.855-79.667 1.855-70.333-1.333-83.333-1.833-64-2.167-65.667-1.833S12.515 3.71 9.515 3.71c0 0-1.667 37.667-1.667 41.333s-4.333 63.333-5.667 71.667-2.333 113-1.333 117.667-2.333 98.333 0 99.021 49.667-3.021 57.333-2.688 42.333-.333 68.667 2 76.667-2 84.667-2.188 66-3.813 74.333-2.813 57.667 4.334 58.667 2 .055-32.013 1.333-48.666c1.116-14.536.667-85.001.463-86.334s2.871-85.665-.463-104.999zm-330 31.26c.667-1.26 5.333-7.926 8.333-7.926s6.69 3.333 10.178 3.667 4.459-.454 8.488 0c3.659.412 17.695 1.763 18 6.667s-21.667-1.667-31.667 0-13.999-1.148-13.332-2.408zm-3 81.407s9.667-.001 9.667 1.666-7.333 3.334-8.333 3.667 8 3.334 8.333 4.667-8 4-9.667 3.333-3.667-3.667-3.667-3.667-.333-7.666 3.667-9.666zm249.667 37.333c-1.667 2.667-8.354 8.333-9.677 9.333s-5.657-2.666-5.657-2.666-1 3.666 0 5.666-3.667 2-3.667 2-5.97-6.667-7.818-7 1.182 6 0 8-5.849-1.333-5.849-1.333-1-6.333-4-6.333-1 8.332-1.667 8.999-.212 1.999-3.439 0-5.561-13.667-7.894-15.333 0 16.334-1.667 18.334-7.333-10-7.333-10-1 11.666-2.667 13.333-6-8.333-7.667-10 .333 10.667-1 12.667-8.334-8.667-8.667-10.667.667 10.667 2.333 13 1 1.666-1 2.333-9.894-4-10.447-3-2.554-8.334-5.887-10.667-2.667-1.999-2 4.334 0 10 0 10-5.667-13.335-9-14.334.333 8.667-1 11.667c-1.312 2.951-10.36-8.61-10.653-11.524.085 2.462.692 15.172 4.93 18.524 5.057 4-7.61.667-7.61.667s-10.333-14.999-12-17.333-4.152 10.333-2.91 12.333-.91 2.999 0 4.333c.851 1.247-6.667-7.7-7.65-9.962.357 2.271 1.455 12.172.893 13.296-.655 1.31-9.022-8.31-9.319-10.863.041 2.264.075 14.96-1.348 15.529-1.667.667-8.307-9.999-13.153-12.666s-.153 13.333 0 16.333-4.512-3.892-3.18-7-7.666 11.001-6.333 15.667-8.236-12.001-8.618-9.334.951 14.333-2.049 15-2.333-7.666-2.333-8.333-3.667 9.999-4.667 13.333-4.666-6.999-6.333-6.666 1.333 11.333.333 14.333-48 0-48 0c0-2.667-3.333-59.667-4.333-62s-1.333-32-1.333-32 12.667.334 11.333 1.667-2.667 2-2.667 2 2.863 6 2.765 9 3.235-.001 3.568-1.334 2.667-4.999 4.333-3.666 5 2.666 5 2.666-2-6 0-5 11-5 13-5.333 8 .334 8 2.667 5.779 10 6.223 10 7.11-5.334 5.11-7.667-1.92-7.333.374-7 12.293 1.999 13.96 1.333 13.333-.666 13 .667-7.644 4.333-9.489 4 12.516 11 12.335 13 1.154-11.999 3.487-12.333 9.667-4.334 9.667-4.334-2.851-6.573-7.333-4.333c-2.667 1.333.333-3.667 2-6s-4.667-7-4.667-7l7.466-3.667h13.201s-2.271 4.211-4.252 4.323c2.04-.056 18.585-.323 18.585-.323s-13.333 8-18.333 8 19 4 18.333 5-11 5.666-12 8 11.694 2 12.014 6.667 3.653 6.667 3.653 6.667 5-8.667 6-9.667 11-3.333 11-3.333-4.333-5.334-8-4.334-9.667-1.666-9.667-1.666 12.796-7.001 13.898-6.334 3.435.668 3.769 3.334 9 4.332 10.333 4.666-3.333 1.667-4.333 2.667 14.412.667 14.706 4-.327 3-3.85 3 4.222 7.333 3.85 9.333 9.627-10 10.294-14.333 2.667-5.667 2.667-5.667-5.832-2-9.083-2 3.416-6 5.749-6-1.333-2.333-4-2.333 3-6.333 3-6.333 4.333 2.332 7 1.666 15.333 1.001 15.667 3.334c0 0-9.666 4.999-14.333 4.666s8 3.667 8 3.667-7 5.001-8.667 5.667 7 .666 8.667 5.666 3.272 7 3.272 7 8.061-4 9.728-6.333 9.666-.999 14.333-1.333 8.667 2 8.667 2-6.334 1.666-7.667 3.666-2 8.668-1.667 11.334 2.697-5.333 6.515-5 10.484-3.001 11.151-4.334-1.667-5.333-1.667-5.333 14.159.333 15.413 1.333 3.592 7 1.925 9.667zM58.181 209.096c-.333 2.614-13.667 8.614-16 9.614s-5-2.895-5-2.895 2.667-1.771 4.667-3.438-2.667-2.229-3-3.281 3-5.385 5.667-6.719-9.333-3-11-4.667c0 0 7.667-3.667 11.667-3s11.333 3 11.333 3-6.333 6-8.333 7 10.333 1.772 9.999 4.386zm72-69.386l2.333-3.667s5.667 3.667 6 4.667-3 2-3 2 6 7.667 6 8.667-12.91-5.667-12.91-5.667l4.576-1.949-2.999-4.051zm46.622 4.052c.956 2.051-15.622-4.051-15.622-4.051s6.333-1.667 9-3.667 6.622-4.452 6.622-4.452-.955 10.118 0 12.17zm-6.288 55.281c.333 2-5 2.667-3.667 5.667s5 2.104 5.333 4.386-14.667 4.614-16.333 1.614-8-8.333-8-8.333l3.277-3.334s19.057-2 19.39 0zm23.666-61.155l3.833-3.844 3.833 2-2 8.139-5.666-6.295zm16 86.155s3.907-6.987 6.954-7c0 0 13.38-.338 13.38 1.831s-6.426 4.503-13.38 4.836l-6.954.333zm36.334-77.999l1.333-5h1.333s5.333.667 5.333 2.718-7.999 2.282-7.999 2.282zm10.666 0c3.333 0 1.667 10 1.667 10h-2.667l-5.667-4.565c.001 0 3.334-5.435 6.667-5.435zm19.667 0l-6.5 5-6.5-7.5s3.333-4.36 8-4.43 0 2.215 0 2.215l5 4.715zm0 56.333h2s3 5.667 5.667 9 7.667 12.666 7.667 12.666h-8l-13.833-25.666c-.001 0 5.832 4 6.499 4zm17.944 53.333h8.389l-11 26-6.667-1.667c.001 0 8.556-21.666 9.278-24.333zm-7.611-27.333h6s.222 2.666 1.611 6.333 6.055 11.333 6.055 11.333l-6.055 1.667s-7.944-17.333-7.611-19.333zm11.334 0l4.667-1 11.666 20.333h-6.333l-10-19.333zm-3.723-8.334l-9.278-18.666 6.667 1.333 8.667 17.333h-6.056zm-15.944 95.334l-6.333 2s11.333-29.668 11-32.334l6.206 2.334-10.873 28zm18-2h-11.333l11.333-22 6.334 1-6.334 21zm9.834-28.334c-1.167 0-6.168-.666-5.834-3.333s8.334-24.333 8.334-24.333h7s-8.333 27.666-9.5 27.666zm16.824 28.334l-8.658 4 4-8.334 9.315-4-4.657 8.334zm1.676-99.667l-9-15.333 4.666-2.667s9 16.333 9 18-4.666 0-4.666 0zm10 8.333v19s-7.668-12.334-5.334-21l5.334 2zm0 63c-.667 1.667-7.667 14-7.667 14h-6.667s8.666-20.334 9-25 2.446-7.666 2.446-7.666h2.888s.667 16.999 0 18.666zm2.333-118.301c-.667.635-10-1.698-10-1.698s2.334-4.333 3.667-5-7.334-1.667-7.334-3.333-2.333-13.333-3.333-15-9.001 15.667-10.667 16-7 .333-8.333-1-5.667-8-4-8.667 2.667-3 4-4-7.667-5.333-8.333-7-6.667-9-8-9.667-2 9-3.667 9.667-5 2-5 2-5-4.333-6.333-7-4-8.333-4-8.333-4.667 5.667-6.667 7.333-10 1.333-12.333 2.333-6.333 1-6.333 1-6.333-3-4.333-3 3.667-2 3.667-2-4.333-2.666-6.333-6.333-3.667-4.333-3.667-4.333-1.667 5.667-1.667 7-.333 7.333-.333 7.333l-5-2.667s4 8 4 11.333 1 8.667 1 8.667-10.333-4-9.667-5 1.667-4.333 2.667-4.333-8-5.667-9-7-1-4.667 1.333-5.667 6.667-4.333 6.667-4.333-8.667-9.667-9-11.333-3.333-4.667-3.333-4.667 1 7.333-.333 7.667-9.667 6-10.333 7.333-6 9-6 9-6.333-5.667-6.667-7.333-2.78-7.333-2.78-7.333l-6.553 9.333s-9.667 1-9.667 2 1 2-1.333 2.333-7.667.333-7.667.333l-1 2s-6-5.333-6.333-6.333-1 5.333-4.333 6-10.667-1.334-13-3.667-8-4-8-4-3.333 4.667-4.667 5.667-6.333 4-6.333 4 6.667 3 7.667 3-3.333 2.333-6.333 2.667-5-1-5-1 5.333 4.333 8 4.333-2.333 7.333-2.333 7.333-5.667-6-6-7-2.333-2.667-2.333-2.667-2.334 5-2.667 7-9-2.333-10-2.667-1.667 5-4 6-12.666 3.333-15.333 3.333-3.667-6-3.667-6 2.334.667 4.667-.333-8.333-7-9.333-9.667-4.667 2.667-7 3.333-10.667.333-10.667.333 7.333 6.666 7 10.333-2.333 2-3.333 2-13.333.667-13.333.667 4.333-6 6.333-6-3.667-2-4.667-1 1.666-5 3.333-6-10 1-11-1.667-2.333 7.667-4.667 8.333 4 3.667 3.667 6.333-16.667 1-17 1.667.667-13.667 0-17.667-.07-10.333-.07-10.333 7.404.667 13.737-1 10.333-1.667 10.333-1.667 11.667 3.333 20.333 1.667 14-5.333 14-5.333-3.333-8-9.333-9.333-18-4-22-2.667-2.667-2-7.667-3.333-13.333-3-15-4.333-2-11.667-.667-11.667 23.333 4.667 33 3 6-7.333 6-7.333-14.333-10.667-18.333-11-6.667 1.667-8.333.333-6-3.333-7.667-3.333-4.667.667-4.667.667 0-6 3.333-5.667 19.334 2.333 21.667 1.333 6 2.666 8.667 2.333 18-6.666 17.667-9.333-15.937-9-23-9c-9.333 0-26 4.333-26 3.333s.052-40.296 5-40.667c4.334-.324 49-3.667 64.667-4s74.379 0 83.189 0 76.478 2.852 85.811 1.926 69 2.074 69 2.074 4.666 52.667 4.333 64 2.001 59.667 2.334 62 2.996 23.399 2.329 24.034zm-313.334-79.7c0-3.665 8-3.997 13.333-2.665 2.929.731 11.666 2.993 11.333 5.33s-24.666 1-24.666-2.665zm12.667-26.665c4.823-1.654 15-2 18.333 1.333s-30 2.667-18.333-1.333z"/>
</svg>
