<?xml version="1.0" encoding="utf-8"?>
<svg version="1.1" id="レイヤー_1" xmlns="http://www.w3.org/2000/svg" xmlns:xlink="http://www.w3.org/1999/xlink" x="0px"
	 y="0px" width="200" height="200" viewBox="10 -90 390 330" enable-background="new 0 0 266.548 290.342"
	 xml:space="preserve">
<g>
	<g>
		<path d="M86.607,68.883c1.561-1.249,1.405-2.03,3.435-1.405s3.435,4.527,3.279,6.714s-4.84,4.06-7.495,2.967
			s-2.342-4.427-2.499-4.79S86.607,68.883,86.607,68.883z"/>
		<path d="M136.573,67.947c1.462-0.026,5.153,1.404,5.777,1.873s0.625,1.406,0,3.592s-2.029,3.592-2.654,3.279
			s-6.559-1.719-6.559-2.499s-0.313-2.811,0-3.591C133.45,69.82,135.572,67.964,136.573,67.947z"/>
		<path d="M253.212,39.838c-1.678-0.892-1.405,0-7.339-1.405s-14.677-1.405-13.584-1.873c1.093-0.469,10.15-8.9,10.15-9.369
			s0.544-4.982-0.781-5.777c-2.342-1.406-4.372-6.246-5.621-6.871c-1.249-0.624,3.123-0.937-5.777-2.342s-13.428,0.469-20.611,1.405
			s-16.551,3.123-18.425,4.06c-1.874,0.938-19.831,6.715-26.076,7.184s-19.674,4.059-25.14,5.934
			c-5.465,1.873-46.531,13.115-52.465,16.238c0,0-9.68,4.061-18.581,15.459c-11.361,14.551-6.87,32.01-3.747,37.631
			s13.741,15.763,13.741,15.763s-6.558,16.403-8.121,18.59c0,0-14.521,16.552-16.395,26.388c-1.874,9.838-4.528,21.861,1.874,28.42
			c3.357,3.439,3.418,4.994,3.279,5.777c-0.364,2.051-0.347,0.473-10.028,0.004c-9.681-0.467-9.178,4.367-7.304,9.207
			s3.666,7.346,8.351,10.938s11.14,3.518,18.038,2.492c9.18-1.367,14.053-3.904,14.053-3.904s6.056,5.545,8.744,5.465
			c8.189-0.244,17.176-3.434,20.143-6.4s5.465-15.303,5.465-15.303s3.123,8.744,3.748,10.93c0.625,2.188,1.717,6.09,7.651,7.809
			c5.934,1.717,11.086-1.25,12.335-2.344c1.249-1.092,4.528-0.779,6.402,0.313c1.874,1.094,11.555,5.152,19.83,5.777
			c3.118,0.236,11.711-1.561,16.396-4.527s9.369-7.027,8.275-10.93c-1.093-3.904-7.495-8.9-12.335-10.15
			c-4.841-1.248-14.053,0.313-14.833,0c-0.781-0.311,2.03-8.119,3.435-15.926s0-16.396-2.03-19.832s-5.152-7.963-5.152-7.963
			s0.469-2.029,1.093-3.436s0.468-12.023-0.625-14.365s-5.465-8.9-7.651-12.18c-2.186-3.278-1.874-5.621,0-6.87
			s2.596-1.997,6.402-5.465c2.694-2.455,6.558-6.091,6.558-6.091s-0.156,0.781,3.748,0s5.309-5.152,5.777-7.495
			s-0.305-5.656-0.781-6.089c-1.718-1.563-4.657-2.756-4.88-4.93c-0.625-6.09-3.802-13.654-3.802-15.168
			c0-1.512,1.499-2.076,3.685-2.544s12.647,2.498,18.269,3.123s11.398,0.312,27.325,0s16.239-1.405,27.169-4.528
			s16.541-14.816,16.552-17.645C259.631,42.649,255.692,41.156,253.212,39.838z M80.517,198.642c-2.03,2.344-1.755,4.373-1.19,6.715
			s2.87,0.781,0,2.342c-2.87,1.563-16.142,4.84-23.325,4.217c-7.183-0.625-6.246-7.963-4.372-9.213s14.157-1.563,16.525-1.094
			s4.242-0.313,4.242-0.313s-5.153-6.09-7.339-9.68c-2.186-3.592-6.402-8.744-2.811-19.986s10.462-21.393,10.462-21.393
			s-0.938,10.775,3.747,22.953c4.685,12.18,9.056,18.58,9.525,19.674S82.547,196.3,80.517,198.642z M129.078,208.011
			c-3.123-2.029-4.685-7.027-4.528-8.588c0.156-1.563,1.093-7.496,0.156-10.619c-0.937-3.121-0.937-3.121-0.937-3.121l-2.967-1.406
			c0,0-2.967,4.527-2.811,6.402c0.156,1.873-4.215-5.424-7.394-5.904c-0.836-0.125-3.692,8.713-3.692,9.807
			s-2.811,9.994-4.685,11.244c-1.874,1.248-3.436,2.951-8.276,2.881s-5.153-0.383-4.997-1.633
			c0.156-1.248,7.495-13.896,7.183-16.395s-9.368-26.076-11.242-29.043s0.229-18.562,1.405-22.953
			c1.577-5.889,4.528-17.488,4.528-17.488s16.765,3.965,25.607,2.81c2.328-0.304,14.677-1.874,17.488-2.811s9.994-2.343,9.994-2.343
			s6.559,19.832,6.48,23.891c-0.079,4.061,0.905,14.17-5.507,25.77c-6.126,11.08-14.246,18.732-14.714,22.947
			c-0.293,2.643,2.12,6.871,3.246,8.434c1.126,1.561,3.937,5.309,3.937,6.246C137.354,207.074,132.201,210.041,129.078,208.011z
			 M156.248,167.414c0,0,2.654,5.621,1.249,12.805c-1.405,7.182-4.373,11.086-3.904,14.209s2.811,5.934,6.402,6.715
			c3.591,0.779,14.521-1.873,17.332,0s1.718,5.932,0,6.244s-6.09,1.094-14.209,2.031c-8.12,0.936-15.302-1.094-15.927-2.498
			c-0.625-1.406-1.874-3.592-2.654-4.686c-0.781-1.092-6.885-3.902-5.733-9.891c0.781-4.061,8.544-4.787,12.448-11.813
			C155.154,173.503,156.248,167.414,156.248,167.414z M170.925,93.867c-1.874,3.279-6.714,3.904-11.867,3.436
			s-9.837-1.25-12.335-2.655s-5.309-4.372-5.309-4.372s14.366,0.937,16.239,0s6.402-2.029,8.9-1.093S172.798,90.587,170.925,93.867z
			 M224.639,59.202c-8.12,2.03-11.71,2.967-18.113,3.123s-27.638-2.187-29.512-2.187s-9.993-1.092-11.867,0
			c-1.874,1.094-3.124,1.264-4.841,2.193s-5.465,3.429-4.997,6.707c0.468,3.279,3.205,3.954,4.685,7.027
			c2.03,4.215-0.156,8.275-0.156,8.275s-8.743-0.625-15.146,0s-19.362,0.313-19.362-0.78c0,0,3.123-2.655,2.967-4.06
			c-0.156-1.406-2.81-5.622-3.903-6.715s-4.216-0.938-5.934-1.405s-5.446,1.245-8.276,0.156c-2.03-0.78-4.997,5.153-5.621,6.09
			s-0.313,6.727,0.312,7.032c0.625,0.307,7.027,4.679,7.027,5.146c0,0.469,1.249,11.087,0.625,11.555
			c-0.625,0.469-12.96,6.715-13.741,6.715s6.246,3.436,6.87,3.436s10.306-5.621,11.243-5.621s9.369,5.465,10.93,5.621
			s3.123-3.748,3.123-3.748l-12.023-6.559V89.65l2.499-2.186c0,0,9.525,5.621,12.804,6.871c3.279,1.248,18.894,6.713,18.894,6.713
			s-0.78,5.935-4.84,8.433s-19.05,5.62-22.797,5.465s-28.887-2.187-34.04-2.654s-13.741-5.933-16.864-14.365
			s-3.211-20.848,1.562-30.7c5.777-11.928,21.86-16.769,21.86-16.769c3.435-1.874,22.797-7.339,28.73-9.681
			s30.917-8.275,32.479-9.369c1.562-1.093,14.365-4.216,17.957-4.684c3.591-0.469,19.519-4.217,21.236-4.686
			c1.717-0.468,13.585-0.624,15.302-0.936c1.717-0.313,8.12-1.874,10.306-1.563c2.186,0.313,3.435,1.094,2.811,2.187
			s-10.774,9.057-17.176,10.931c-6.402,1.873-16.239,2.498-22.329,3.747s-14.99,1.718-21.548,1.093s-18.894,2.967-23.266,4.061
			c-4.372,1.092-10.462,2.498-12.648,2.654s-9.525,7.494-9.369,9.368s3.123,6.559,8.276,6.87c5.153,0.313,15.302-0.937,19.83-3.123
			c4.528-2.186,14.678-3.123,16.552-2.498s28.418-0.938,32.322-3.748s10.149-4.684,14.678-5.777
			c4.528-1.092,22.445-1.229,24.827-1.404c4.216-0.313,9.369,1.874,10.149,4.216S232.758,57.171,224.639,59.202z M113.464,80.37
			c-0.625,0.536-2.655,1.493-2.499,0s4.919-5.551,7.495-4.616c1.038,0.377,3.279,0.938,3.903,2.654
			c0.625,1.718,0.156,1.718-0.781,1.718s-3.123-0.78-3.903,0s-2.186,5.31-2.811,4.841s-1.405-2.186-1.405-2.186
			S114.089,79.833,113.464,80.37z M201.529,41.558c0,0-6.87,4.527-12.179,5.934c-5.309,1.404-13.094,2.949-15.302,2.967
			c-4.528,0.034-18.582-0.244-22.017,0.034s-12.18,2.933-13.741,3.869s-2.655,1.718-3.591,1.718s-5.309-0.625-5.309-2.967
			s-0.313-5.152,9.212-6.871c9.525-1.717,24.202-2.029,26.856-2.029s14.054-0.625,16.708-1.094
			C184.822,42.651,201.529,41.558,201.529,41.558z"/>
		<path d="M104.875,170.38c0,0,6.09,3.902,8.588,4.527s7.963,0,7.963,0v4.529c0,0-3.592,2.186-9.994,1.092
			c-6.402-1.092-5.933-3.279-5.933-3.279L104.875,170.38z"/>
	</g>
	<g>
		<g>
			<path d="M205.433,123.224c0.156-1.248,3.123-2.811,3.436-4.84c0.313-2.031-1.406-9.994-4.216-10.659s-9.837-0.185-13.897-0.028
				s-6.714-0.398-6.714-0.398s2.498,14.833,3.279,19.361s-1.249,15.303-1.249,15.303s12.492-0.313,16.239-2.03
				s5.621-4.06,6.595-5.153c0.974-1.092,0.9-4.06-0.974-5.934C206.058,126.972,205.277,124.474,205.433,123.224z M198.89,135.56
				c-1.732,1.405-5.324,0.625-5.792,0s-0.625-5.777,0-7.027c0.625-1.248,2.886-0.82,3.777-0.779c0.906,0.041,3.875,0.155,4.03,1.717
				S200.623,134.155,198.89,135.56z M196.064,118.853c-4.216,0.936-3.748,1.093-3.748,0c0-1.094-1.281-5.309-0.016-5.621
				s2.076-0.156,4.481-0.938c1.1-0.357,5.06,2.006,5.216,3.579S200.28,117.916,196.064,118.853z"/>
			<path d="M224.327,131.999c0,0-0.625-8.774-1.562-12.384s-3.591-14.035-3.591-14.035h-8.744c0,0,4.997,25.14,5.309,27.795
				c0.312,2.654-1.093,7.025-1.093,7.025s0,0,10.149-0.937s12.335,0,12.335,0l-1.874-7.465H224.327z"/>
			<path d="M243.845,107.298c-0.624,0.937-7.651-1.719-7.651-1.719s1.249,6.715,1.603,11.555c0.354,4.841,1.676,10.619,2.613,13.43
				s0.469,9.836,0.469,9.836h7.495c0,0-1.718-15.613-2.499-19.674S244.469,106.361,243.845,107.298z"/>
			<path d="M273.702,138.413c0.043,0.074,0.084,0.114,0.123,0.114C273.891,138.527,273.839,138.484,273.702,138.413z"/>
			<path d="M268.36,128.533c-2.186-0.313-7.495,0-7.495,0s0.937-0.624,3.436-3.902c2.499-3.279,8.588-7.496,8.588-7.496
				l-4.528-10.691c0,0-8.588,0.699-10.618,0.855s-10.618-1.719-10.618-1.719c0.468,0.938,1.25,9.057,1.25,9.057s1.562,0,4.84,0.156
				s7.275,0.156,7.275,0.156s-1.81,2.498-2.122,4.666s-7.339,10.949-7.339,10.949l3.435,6.869c0,0,6.871-1.873,8.744-2.186
				c1.675-0.279,9.334,2.56,10.495,3.165c-0.635-1.104-1.595-9.88-1.595-9.88S270.545,128.845,268.36,128.533z"/>
			<path d="M299.121,130.564c-0.624,0.156-10.462,1.435-10.462,1.435s4.216-7.524,5.621-9.009c1.405-1.482,7.183-7.053,7.183-7.053
				l-3.123-8.639c0,0-8.119-0.156-12.647,0s-11.086-2.811-11.086-2.811c0.156,0.78,1.873,12.803,1.873,12.803
				s3.592-0.78,6.559-1.098s8.432-0.256,8.432-0.256s-3.592,6.975-5.621,8.693c-2.029,1.717-7.651,5.777-7.651,5.777l2.811,9.056
				c0,0,5.309,0.313,8.744-0.155c3.436-0.469,9.993,1.092,9.993,1.092S299.745,130.408,299.121,130.564z"/>
			<path d="M324.884,105.58l-11.867,0.938c0.156,2.654-4.008,13.098-5.309,18.113c-1.187,4.574-7.971,14.52-7.026,14.678
				c0.944,0.157,8.588,4.84,8.588,4.84s1.249-3.123,1.249-3.748c0-0.624,5.152-10.148,5.152-10.148l6.871,0.156
				c0,0,1.249,2.967,2.342,4.371c1.093,1.406,2.967,8.12,2.967,8.12l6.962-4.372c0,0-8.68-18.912-9.929-26.269
				C324.679,111.053,324.884,105.58,324.884,105.58z M321.292,122.99c-0.78,1.328-6.089,1.016-6.089,0
				c0-1.015,3.278-7.116,3.278-7.116S322.073,121.664,321.292,122.99z"/>
			<path d="M348.878,128.797c0.479-0.009,1.26-0.217,2.395-1.147c2.03-1.665,5.152-5.986,5.465-7.777
				c0.313-1.79-4.997-11.793-6.87-12.574s-7.964-0.781-9.525-0.938s-8.275-0.781-8.275-0.781s1.249,3.592,2.03,7.496
				s1.873,7.495,2.498,16.551c0.625,9.057-0.781,12.961-0.781,12.961h7.651l0.156-9.057c0,0,2.187,1.405,3.747,2.816
				c1.561,1.412,3.748,7.801,3.748,7.801l9.368,1.406c0,0,1.86-3.285-2.654-9.838C354.225,130.484,350.311,129.131,348.878,128.797z
				 M343.465,122.054c-2.654,0.547-1.717-3.279-2.342-4.412c-0.625-1.131-2.342-4.723,1.249-4.41c1.244,0.107,6.09,2.498,6.09,5.309
				S346.12,121.507,343.465,122.054z"/>
			<path d="M385.156,119.615c-1.874-4.859-17.176-13.098-17.176-13.098l-10.149,0.781c0,0,2.343,7.651,3.034,8.895
				s2.899,19.68,3.368,22.334s-1.718,7.808-1.718,7.808s3.123,0.156,6.402,0.78c3.279,0.625,8.588,0.625,14.521-5.152
				C389.373,136.184,387.03,124.474,385.156,119.615z M379.691,129.626c-1.718,5.31-7.808,7.027-9.057,5.934
				c-1.249-1.092-1.405-8.542-2.654-11.688s-0.795-6.002,0-6.213c0,0,4.372-1.35,5.777,0S381.409,124.318,379.691,129.626z"/>
		</g>
		<g>
			<path d="M204.293,194.765c-0.078,0.035-0.137,0.078-0.165,0.131C204.073,195,204.142,194.939,204.293,194.765z"/>
			<path d="M223.78,170.224c0,0-1.328-4.061-2.265-4.996c-0.937-0.938-5.777,1.561-5.777,1.561l-2.342-5.309
				c0,0,1.093-2.498,1.561-3.592c0.468-1.092,0.781-6.245,0.781-6.245l-5.309-2.03l-2.03,3.013v3.39l-0.937-2.654l-7.495-1.718
				l-2.498,1.718c0.781,0.624,5.777,6.246,5.777,6.246l-9.994,5.934c0,0,2.811,3.902,6.558,3.434s8.9-1.248,8.9-1.248l1.913,4.061
				c0,0-3.162,1.873-4.88,2.498s-5.777,0.623-5.777,0.623s-0.937,0,1.562,2.967s2.599,5.467,2.599,5.467
				c1.975-0.313,7.707-2.967,7.707-2.967s-0.469,2.654-1.21,4.996c-0.642,2.029-5.353,8.27-6.332,9.395
				c1.074-0.488,6.607,0.566,8.791,0.131c2.342-0.469,6.09-2.5,7.339-6.871c1.249-4.373-0.625-12.023-0.937-13.428
				C219.173,173.191,223.78,170.224,223.78,170.224z"/>
			<path d="M254.15,176.939c-0.625-1.563-7.963-2.031-8.744-2.654c-0.781-0.625-2.654-2.031-1.405-1.977s7.808-2.24,7.808-2.24
				v-5.934c0,0-8.12-0.625-9.524-0.781s-3.123-1.404-3.592-2.811c-0.469-1.404,5.152-7.917,5.152-7.917l-5.152-3.949
				c0,0-9.681,0.468-12.023,0.937s-7.183-0.937-7.183-0.937s1.25,6.87,2.499,7.964c1.249,1.092,5.309-3.279,6.87-3.279
				s2.499,2.498,2.655,4.215c0.156,1.719-4.06,4.686-3.279,4.686s5.153,2.186,5.621,3.279c0.468,1.092-5.621-0.156-6.246,0.313
				s-2.967,1.717-2.967,1.717s1.562,3.123,4.997,3.748s4.997,0.313,4.997,0.313s1.718,1.561,0.781,1.873
				c-0.937,0.311-8.9,3.279-8.9,3.279l-0.781,10.461l-1.952,0.156l1.171,7.604c0,0,5.309-1.357,12.846-1.357
				c7.946,0,17.915,2.654,17.915,2.654c-0.156-1.717,3.903-8.275,3.903-8.275s-4.527-2.186-5.465-2.498
				S254.775,178.5,254.15,176.939z M231.821,185.371c-1.249-2.186,0.937-4.059,0.781-4.996c-0.077-0.463,1.718,0,1.718,0
				s-0.468,4.061,0,5.934S233.07,187.556,231.821,185.371z M241.502,186.308c-0.469,1.717-1.406,1.092-1.952-1.25s0-4.889,0-4.889
				h1.327C240.877,180.169,241.971,184.591,241.502,186.308z M248.374,188.025c-0.313,0.625-1.25,0-1.25,0s-2.782-6.51-1.718-7.027
				c0,0,2.564-1.967,3.904,1.094C250.026,183.726,248.687,187.4,248.374,188.025z"/>
			<path d="M277.884,172.488c-0.469-3.514-3.278-7.885-3.278-7.885s-0.781,0-2.343,0s-10.774-2.498-10.774-2.498
				s-0.313,9.682,0.938,14.209s2.186,6.559,2.811,6.559s12.491-0.469,12.647-1.094C278.041,181.156,278.353,176.001,277.884,172.488
				z M273.702,176.939c0,0-7.06-0.469-7.06-1.406c0-0.936,2.185-4.371,1.717-6.09c0,0,5.366,0.314,5.494,0.781
				C273.981,170.693,273.702,176.939,273.702,176.939z"/>
			<path d="M317.703,191.46c0,0-0.073,0.057-0.177,0.139C318.045,191.597,317.703,191.46,317.703,191.46z"/>
			<path d="M310.674,190.679c-8.588-1.404-9.993-7.963-11.398-10.51s-0.937-9.945-0.937-9.945s-2.967-3.123-4.405-4.84
				c-1.438-1.719,0.346-1.406,2.375-1.406s6.09-0.469,6.715,1.563c0.625,2.029-2.432,7.65-2.432,7.65s5.71,0,6.491,0
				c1.538,0,2.654-14.365,2.654-14.365s-2.03-2.342-3.279-2.967s-10.773,1.094-13.272,1.406s-6.558-2.813-9.056-3.748
				c-2.498-0.938-4.841,0-5.999,0.781c0,0-0.247,1.717,1.471,5.777s0.624,7.963,0.624,7.963s6.559,3.123,6.09,2.498
				s1.718-6.715,1.718-6.715l1.405,0.156c0,0-1.093,3.592-0.78,5.465c0.313,1.875,2.654,9.213,0.624,14.896
				c-2.03,5.682-11.151,12.631-11.151,12.631s9.902,1.516,12.713,0c1.727-0.93,5.152-6.135,5.152-6.135s3.685,6.121,9.872,6.135
				c4.517,0.012,10.598-4.551,11.657-5.371C316.936,191.599,315.238,191.427,310.674,190.679z"/>
		</g>
		<path d="M327.85,152.625c0,0,8.743,0.731,10.461,0.499s14.21-2.106,15.459-1.95s1.562,5.153,1.562,5.153l-10.931,2.811
			l0.168,1.592c0,0,5.767-0.188,9.357-0.344s5.914,0.783,6.938,2.5s4.929,10.789,4.46,12.498c-0.469,1.711-4.46,3.584-4.46,3.584
			s-2.721-9.367-3.034-10.305s-4.061-2.967-7.184-2.967s-4.147,3.904-4.182,4.371c-0.034,0.469-0.191,9.838,3.4,11.711
			s5.872,0.992,6.559,1.947c1.406,1.957,4.527,11.482,2.186,15.385c-2.342,3.904-12.647,3.748-15.146,3.748
			s-8.743,1.094-9.681,0.781s-3.437-3.904-2.655-5.154c0.781-1.248,11.087-3.373,12.18-3.482c1.093-0.107,7.808-0.732,7.808-0.732
			s-3.864-2.188-4.509-2.031s-11.729,2.344-14.54,0.781c-2.812-1.561,0.311-3.506,1.872-4.719c1.562-1.215,14.365,1.316,14.99-0.887
			c0.625-2.201-8.9-1.42-13.429-1.42s-4.84,2.307-4.84,2.307l-1.249-4.51c0,0,10.305-4.355,10.773-4.824s0.312-6.557-0.313-7.494
			s-2.03-4.373-2.811-4.373s-2.029,5.621-3.747,5.387s-3.748-1.795-3.748-1.795l-0.624-3.748c0,0-2.966-0.313-2.654,2.498
			s-0.022,7.988-0.022,7.988s-4.194-1.273-5.131-4.943c-0.937-3.668-0.78-12.881-0.78-12.881s4.686,2.029,7.651,2.498
			s9.056,0,9.056,0v-2.342c0,0-8.431-0.938-9.212-0.313S327.85,152.625,327.85,152.625z"/>
		<path d="M328.162,175.384c0,0,2.967-2.039,4.997-2.193c2.03-0.156,3.591,0,3.591,0l-0.468,4.24l-8.12,2.162V175.384z"/>
		<path d="M350.803,169.443h4.06c0,0,0.313,3.748,0,4.529c-0.313,0.779-3.436,1.412-3.436,1.412l-0.624-2.896V169.443z"/>
		<path d="M350.178,176.357l2.725,1.074c0,0-1.944,3.314-2.725,2.738S348.929,177.33,350.178,176.357z"/>
	</g>
</g>
<g opacity="0.4">
	<path fill="#036EB8" d="M92.381,15.138c0,0,7.403,7.082,9.656,6.76s3.863-3.219,5.794-5.15s0,0,3.541-0.645
		c3.541-0.644,11.588,0,15.45,0s23.498,2.254,27.039,2.254s11.91,0.966,15.45,0.644s36.051,2.253,44.42,1.61
		c8.369-0.645,16.416-2.254,22.21-2.576c5.794-0.321,15.91-4.043,16.094-2.896c1.288,8.047,6.438,9.656,9.014,9.656
		s12.553-3.862,13.519-5.15c0.966-1.287,0-5.472,0-7.402c0-1.932-2.896-5.15-11.588-5.152c-8.691,0-11.266,5.474-11.266,5.474
		s-21.888-0.321-28.648,0.966s-50.214,0.322-53.755,0s-18.991-2.254-24.463-2.575s-33.154-1.288-33.154-1.288
		s-7.082-9.334-11.266-9.656s-10.3,7.726-11.266,8.047c-0.966,0.322-29.292,5.473-29.292,5.473s8.369,1.932,13.52,2.253
		S92.381,15.138,92.381,15.138z M266.199,12.397c2.56,0.663,3.22,6.604-3.54,5.316S257.628,10.178,266.199,12.397z M96.244,8.134
		c0.322-4.262,2.204-5.513,4.185-4.262c1.361,0.859,6.116,5.14,2.575,8.524S95.922,12.396,96.244,8.134z"/>
	<path fill="#036EB8" d="M69.849,46.683c9.656-1.288,47.961-6.76,55.364-6.116s41.845,0.644,52.789,0s46.673-3.54,51.824-3.862
		s37.017-0.966,40.557-1.875c3.54-0.91,41.846,3.807,47.64,4.128s34.441-1.931,29.935-5.271c-4.507-3.338-36.051-0.201-44.098-2.155
		s-42.455,0.03-48.927,0.001c-16.094-0.07-16.738,2.586-29.292,2.586c-9.065,0.001-47.961-3.208-54.398-1.277
		c-6.438,1.932-52.79-1.609-59.227-1.287s-31.545,3.863-38.948,4.485s-32.188-0.301-40.235-0.622C24.786,35.095,0,36.705,0,36.705
		s13.52,7.725,22.854,9.979C32.188,48.935,60.193,47.97,69.849,46.683z"/>
	<path fill="#036EB8" d="M364.696,58.593c1.063-0.328,0.084-0.196-2.055,0.169C363.532,58.781,364.24,58.733,364.696,58.593z"/>
	<path fill="#036EB8" d="M298.387,55.181c0,0-3.54-4.957-11.909-5.602s-11.48,3.863-11.48,3.863s-18.777,0.643-25.858-0.645
		s-38.948-1.932-49.249,0s-44.098,4.185-55.364,4.185s-58.261,0-62.124,0s-19.957,3.862-19.957,3.862
		c26.999,1.93,20.922,5.15,43.776,3.219c12.226-1.033,55.686-0.965,63.733-2.574s38.626-1.287,53.755-1.803
		c15.129-0.514,43.776-1.738,44.299,0c0.522,1.739,6.237,10.172,18.146,10.172s17.704-9.656,19.313-10.623
		c1.609-0.965,24.463,2.576,30.257,3.219c4.321,0.48,20.636-2.619,26.915-3.692c-7.294-0.153-27.645-5.068-36.25-5.642
		C316.734,52.477,298.387,55.181,298.387,55.181z M284.546,61.812c-2.575,0.321-4.617-0.66-3.219-5.15
		c0.395-1.268,0-9.014,6.438-1.288S287.122,61.49,284.546,61.812z"/>
	<path fill="#036EB8" d="M37.339,91.103c7.082-0.965,18.991,2.575,33.798,0s27.039,0.322,53.111-2.575s34.12-5.472,34.12-5.472
		s-26.395-2.897-34.12-3.363c-7.726-0.467-41.523,1.432-51.18,1.682c-9.657,0.249-31.866-0.572-41.201-1.537
		C22.532,78.871,0,83.056,0,83.056s11.588,10.622,18.348,11.266S30.257,92.068,37.339,91.103z"/>
	<path fill="#036EB8" d="M302.894,89.171c-4.185-0.322-39.592,0.966-44.383,1.287c-4.791,0.322-49.608-4.828-54.758-5.793
		c-5.15-0.967-21.566,2.352-21.566,2.352s18.348,3.764,21.888,4.729s26.073,4.507,43.455,4.829s51.502-3.22,56.651-4.186
		c5.149-0.965,11.588,2.023,11.588,2.023s-1.931,4.093-1.931,7.312s11.266,4.185,18.347,3.541s3.863-8.993,3.863-8.993
		s13.197-0.985,16.416-1.859c3.219-0.873,10.3,1.518,19.313,1.84c9.013,0.321,13.52-3.219,13.52-3.219s-16.416-1.288-20.167-1.288
		s-32.943-3.267-39.703-4.729C318.667,85.552,307.079,89.494,302.894,89.171z M325.426,102.046
		c-6.116,0.967-7.404-1.925-6.438-3.537s3.537-6.75,6.438-3.537C327.28,97.024,331.542,101.082,325.426,102.046z"/>
	<path fill="#036EB8" d="M379.181,112.347c-4.506-0.966-48.605-0.322-52.146-0.644s-39.592,0.644-46.162,0
		s-41.069-0.644-45.576-0.644s-64.377-1.287-72.102-1.433s-37.338,2.222-48.604,1.755s-45.064,1.931-49.249,2.574
		s-12.231,0.322-15.45,0s-4.829-3.219-5.472-5.15c-0.644-1.931-9.7-4.031-14.807-3.352c-13.519,1.797-8.691,7.537-7.082,12.582
		c1.609,5.047,1.931,8.795,15.128,7.186s9.013-5.149,9.013-5.149s31.545,0,35.729,0s35.085-0.322,40.558-1.765
		c5.472-1.443,43.454-4.029,53.433-3.386s34.442,1.609,47.639,3.114c13.197,1.506,33.797-3.758,43.977-3.758
		s34.563,3.541,50.689,3.758c16.127,0.219,36.02,0.377,42.135-1.826C366.949,114.006,383.687,113.313,379.181,112.347z
		 M34.442,121.682c0,0-13.197-8.37-1.609-10.622c2.119-0.412,6.76,1.078,7.082,4.402C40.236,118.785,34.442,121.682,34.442,121.682z
		"/>
	<path fill="#036EB8" d="M328.605,130.929c-5.834,1.201-46.312-1.2-56.29,0c-9.979,1.201-36.695,1.654-45.064,2.619
		s-55.686-3.498-57.617-2.21s-17.704,4.829-19.635,4.829c0,0,29.292,0.643,35.407,0.643s37.982,3.219,48.927,2.254
		s30.579-2.896,40.665-1.932s25.644,1.932,35.622,1.932s28.969-3.541,37.816-2.896c8.848,0.644,27.525,0,27.525,0
		S334.439,129.729,328.605,130.929z"/>
	<path fill="#036EB8" d="M102.359,159.986c3.219-1.288,35.408,0.966,45.708-0.965s31.867,0.321,31.867,0.321
		s2.253,8.691,14.163,8.377s18.026-5.479,18.026-5.479s17.06,1.609,20.278,0.644s29.936,0.644,37.339-0.322
		s25.751,3.219,45.386,4.829s38.305-3.22,38.305-3.22s-37.982-2.896-41.846-3.219s-44.741-3.54-48.604-3.862
		s-49.192-2.619-49.192-2.619s-11-10.578-18.082-10.578s-11.588,7.725-11.588,7.725s-54.077,2.576-58.583,2.854
		s-41.201,0.044-46.351,0c-5.15-0.045-39.257,1.653-39.257,1.653s16.082,5.15,23.807,5.794S99.141,161.274,102.359,159.986z
		 M190.878,158.699c0.644-2.575,1.67-7.078,5.8-6.438c1.929,0.299,6.958-0.966,3.476,6.438S190.234,161.274,190.878,158.699z"/>
	<path fill="#036EB8" d="M171.565,184.792c-3.862,0.342-14.485-1.63-24.142-1.268s-53.111-0.362-63.411,1.268
		s-32.51,0.302-44.085-0.985s-28.339,2.253-28.339,2.253c4.828,6.438,15.451,6.116,24.142,6.116s30.257-0.966,34.764-1.932
		s36.695,1.609,42.167,0s39.27-1.609,45.708-1.609s42.984-6.438,42.984-6.438S175.427,184.45,171.565,184.792z"/>
	<path fill="#036EB8" d="M328.605,210.201c-5.512,0.645-45.668-2.897-57.256-3.219s-55.686-0.966-67.596-2.254
		s-29.535,2.254-29.535,2.254s29.857,5.794,41.767,6.115s21.566-0.644,33.798,1.609s35.729,2.897,45.064,2.575
		s19.635-3.862,23.852-3.862s32.478,1.609,36.984,1.609s16.738-4.75,16.738-4.75C362.765,208.104,334.117,209.556,328.605,210.201z"
		/>
</g>
</svg>
