<?xml version="1.0" encoding="utf-8"?>
<!DOCTYPE svg PUBLIC "-//W3C//DTD SVG 1.1//EN" "http://www.w3.org/Graphics/SVG/1.1/DTD/svg11.dtd">
<svg xmlns="http://www.w3.org/2000/svg" width="200" height="200" viewBox="-30 -20 210 210" preserveAspectRatio="xMidYMin slice">
<g>
	<g>
		<path d="M93.258,44.429c-0.107-0.89-1.195-16.712-4.129-22.688s-4.998-4.563-6.953-6.52c-1.957-1.956-8.367-4.791-11.952-4.563
			c-8.583,0.543-14.668,7.497-15.538,9.453s-4.238,6.193-4.672,9.996s-3.368,17.276-3.151,23.795s0.652,18.145,2.064,23.36
			s-0.435,13.908,1.413,17.494s5.106,13.799,19.231,12.387c14.125-1.413,16.516-4.238,19.558-11.3
			c3.043-7.063,1.521-21.296,1.521-22.926s2.499-13.799,3.15-16.841C94.454,53.033,93.368,45.319,93.258,44.429z M61.532,19.987
			c0.543-3.896,5.736-5.417,8.898-5.743c2.732-0.281,9.355,1.957,10.768,2.934s1.848,4.128-0.652,5.758
			c-2.498,1.63-2.934,2.391-5.215,0.87c-2.282-1.521,2.824-1.956,3.368-2.608s-0.217-2.281-3.259-3.585
			c-3.043-1.304-3.114,1.95-4.347,2.39c-0.663,0.237-2.934-0.947-5.215-0.582s-2.499,2.32-2.064,2.864s5.324-0.869,5.541,0.109
			s-0.543,3.26-2.825,3.368S60.989,23.883,61.532,19.987z M69.572,38.474c-2.282-0.435-4.672-0.33-4.237-1.088
			s3.033-0.976,5.048-1.302c0.922-0.149,5.128,0.652,5.744,1.63S71.854,38.908,69.572,38.474z M76.743,40.212
			c0.439-0.091,1.739,0,1.195,1.738C77.395,43.689,74.135,40.756,76.743,40.212z M71.168,42.494
			c-0.727,0.217-2.706-1.624-0.738-2.716c0.494-0.274,1.202-0.239,1.476,0.967S71.895,42.277,71.168,42.494z M65.769,40.739
			c-0.543,1.32-0.109,2.298-0.978,2.189s-2.554-2.112,0-4.242C65.464,38.126,66.313,39.419,65.769,40.739z M70.43,27.391
			c-0.315-0.869,0.989-3.585,2.076-3.585c0.486,0,3.042,3.477,3.585,3.585S70.745,28.26,70.43,27.391z M54.252,28.369
			c2.716-6.628,2.934-4.563,2.934-4.563s3.132,4.042,4.286,4.563c1.172,0.53,7.014,2.173,7.557,1.956s0.543,3.585,0.543,3.585
			s-7.823,1.304-9.887,2.173s-8.149,8.801-8.258,10.213S51.536,34.997,54.252,28.369z M60.489,44.429
			c-0.587,1.977-1.021,3.28-1.021,3.28s-1.413-3.803-1.195-4.781s0.739-1.848,2.217-2.173
			C61.455,40.542,61.076,42.453,60.489,44.429z M53.382,56.836c-0.435,1.086-0.978-3.259,0-5.65s0.556-2.873,2.934-4.346
			C57.52,46.094,53.817,55.75,53.382,56.836z M70.287,104.427c-13.473,1.117-16.47-7.605-17.452-10.648s-1.429-16.407-1.429-16.407
			c1.282,0.326,1.108,8.801,2.303,12.667s3.151,8.737,13.358,10.475c10.208,1.738,15.051-1.738,15.051-1.738
			S79.459,103.667,70.287,104.427z M58.707,63.247c0,0,2.064-0.326,4.02,0s3.26,0,3.803,4.998s0.869,18.036,0,18.58
			s-2.926,1.63-3.093,1.087S60.469,84,59.665,83.239c-0.225-0.213-0.178-0.323,0-0.529c0-0.001-0.329-1.376-1.892,1.833
			c-1.217,2.5-1.892,1.195-1.892,1.195s1.24-6.298,0.674-10.157s-0.892-8.422-0.674-9.835c0,0,2.357,6.523,2.809,9.835
			c0.451,3.312,0.975,7.128,0.975,7.129c0.458-0.53,1.807-1.714,1.807-7.057C61.472,66.289,58.44,63.682,58.707,63.247z
			 M70.795,92.91c-1.71,0.109-1.441-1.086-1.227-1.943s0.464-0.96,1.227-0.927c0.753,0.032,1.384-0.39,1.213,0
			S72.506,92.801,70.795,92.91z M77.125,95.734c0,0-2.773,2.173-5.815,2.282c-3.042,0.107-7.606-0.978-7.854-1.521
			s4.539-1.06,5.954-1.169C76.094,94.808,77.125,95.734,77.125,95.734z M74.631,91.909c0.169-1.218,0.518-1.752,1.495-1.87
			c0.826-0.099,0.942,1.892,0.78,2.218S74.461,93.127,74.631,91.909z M67.725,92.692c-0.217,0.543-1.956,1.086-2.442,1.086
			s-0.383-1.304,0-2.812s0.08-0.67,0.66-0.882C66.441,89.902,67.942,92.149,67.725,92.692z M60.489,95.3
			c-0.5-0.217-1.021-3.259-1.799-4.237s0.975-4.455,0.975-4.455s3.497,6.193,3.772,6.954S60.988,95.517,60.489,95.3z M80.411,94.213
			c-0.679,0.652-1.93-1.086-1.93-2.304s3.959-4.466,3.859-3.85C82.069,89.729,81.089,93.562,80.411,94.213z M84.684,86.499
			c-0.01,2.39-2.344-1.836-2.344-3.151c0-0.652-4.293,5.542-4.836,5.976c-0.544,0.435,0.066-0.465-1.76-1.265
			c-1.827-0.8-2.587-0.909-3.13-0.909s-1.856-0.761-2.232-0.217s-0.702,0.435-0.811-0.869s2.495-7.714,2.334-11.626
			s0.257-8.366,0.103-9.127s-0.606-1.375,0-2.209s1.941-2.367,3.105-2.354c0.928,0.01,2.109,0.435,2.955,0.435
			c0.848,0,2.803,0,2.912,0c0.108,0-3.328,3.613-4.074,7.171c-1.162,5.542,2.502,14.125,3.451,14.995s-0.789-10.512-0.572-11.341
			s1.197-2.893,1.197-2.893s1.845,5.107,2.063,5.976c0.217,0.869,1.646,2.934,1.639,3.585c-0.01,0.652-0.77,0.326-0.77,1.413
			S84.692,84.109,84.684,86.499z M84.567,58.14c-0.544-0.217-6.411-0.545-9.345-0.761c-4.427-0.326-6.954,2.608-7.606,3.369
			c0,0-2.846-1.835-7.127-1.787s-3.955,1.461-4.499,1.026s-1.521-2.282-1.086-2.608s2.499-4.346,2.716-6.084
			s0.752,1.835,2.044,3.368c0.824,0.978,0.552-2.426,1.807-5.505s1.806-4.165,1.965-4.165s1.375,0.832,2.505,0.633
			s2.326-1.411,2.978-1.402s3.019,0.293,4.334,0.205c1.316-0.088,4.402-0.451,4.814,1.197s1.448,7.516,2.289,8.385
			c0,0,2.47-6.302,3.23-6.302C83.588,47.709,85.11,58.357,84.567,58.14z M80.655,42.312c0.543-0.578,1.463,0.184,1.463,0.184
			c0.275-0.11,0.928-0.527,0.928,0.442s-2.174,4.229-2.391,5.968S80.112,42.89,80.655,42.312z M89.565,41.19
			c-0.436,3.912,0.326,9.019-0.652,9.019s-0.436-7.28-5.867-11.735c-5.434-4.455-8.412-4.346-8.412-4.346s-0.063-3.585,0.48-3.803
			c0.543-0.217,0.761-0.434,4.455-1.304c1.641-0.386,5.758-4.346,6.519-5.215S89.999,37.278,89.565,41.19z"/>
		<polygon points="59.665,82.71 59.665,82.71 59.665,82.71 		"/>
	</g>
	<path d="M69.496,6.242c-0.445-0.056,3.488,1.138,5.323,0.477c1.836-0.661,1.689-2.754,3.782-4.112S81.721,0,81.721,0
		s-3.34,0.184-5.58,1.102C73.901,2.019,70.083,6.315,69.496,6.242z"/>
	<path d="M84.879,2.019c-0.934,0.408-6.242,4.406-6.535,5.25c-0.294,0.844,5.654,1.689,7.49,0c1.835-1.689,6.021-4.663,6.791-4.663
		C93.397,2.606,87.229,0.991,84.879,2.019z"/>
	<path d="M98.428,4.406c-0.55,0.042-4.662,1.285-5.91,2.093s-3.451,1.62-4.223,1.746s4.148,2.145,6.646,1.595
		s3.341-1.961,5.066-2.669s2.901-1.369,2.901-1.369S101.366,4.186,98.428,4.406z"/>
	<path d="M104.781,8.245c-0.903,0.188-3.011,1.485-3.636,2.072c-0.623,0.587-1.945,1.505-2.569,1.285s6.095,1.608,8.004,0.033
		s3.745-3.044,4.259-3.044S106.8,7.825,104.781,8.245z"/>
	<path d="M97.329,15.971c0.682-0.186,2.9,0.11,3.23,2.386s-2.093,2.57-3.818,2.497s-4.553-2.142-4.662-2.448
		c-0.111-0.306,2.129-0.196,2.68-0.747S96.116,16.302,97.329,15.971z"/>
	<path d="M138.707,10.646c-1.946-3.453-4.296-6.276-9.104-6.938c-4.811-0.661-10.354,3.047-10.832,3.672
		c-0.477,0.625-5.507,3.745-5.507,3.745l0.954,1.157c0,0-0.551,0.128-0.99,0.165c-0.441,0.037-3.302,0.891-4.076,0.881
		c-2.938-0.037-4.662,0.477-4.444,0.697s3.196,4.112,4.738,3.965s4.517-1.432,5.838-2.065s2.313-2.634,2.974-2.671
		s1.102,1.873,1.322,2.056c0.22,0.184,4.258-0.037,5.54-0.147s4.336-0.587,7.089,0.526c2.754,1.113,2.461,4.21,1.689,5.643
		s-4.92,3.268-5.396,3.488c-0.478,0.22,0.477,2.864,0.477,2.864c0.808,0,3.525,0.147,5.066,0c1.543-0.147,4.002-0.073,6.059-3.011
		S140.653,14.099,138.707,10.646z M126.665,11.528c-1.836,0.037-5.066,0.367-5.287,0c0,0,0.109-1.873,3.561-2.864
		s6.719,0.694,7.674,1.981S128.5,11.492,126.665,11.528z"/>
	<path d="M120.019,19.423c1.796-0.207,3.268,0.661,4.81,1.689s1.726,1.358,1.726,1.358s-3.157-0.073-5.14,0.771
		s-3.085,0.771-4.113,0c-1.027-0.771-1.762-4.186-1.762-4.186S117.78,19.68,120.019,19.423z"/>
	<path d="M128.391,30.4c0.934,0.05,4.039,1.652,5.14,3.525s1.835,4.186,1.835,4.186s-3.414-0.184-6.461-2.203
		c-3.048-2.019-5.875-6.205-5.729-6.535C123.324,29.042,124.976,30.217,128.391,30.4z"/>
	<path d="M128.794,38.111c0.383,0.409,4.039,3.524,5.104,4.222s3.231,1.689,3.231,1.689s-3.746,1.689-6.572,0.918
		c-2.828-0.771-4.443-4.148-5.214-4.81s-0.037-4.076-0.808-5.03C123.764,34.146,127.143,36.349,128.794,38.111z"/>
	<path d="M119.579,44.207c0.797,0.114,4.654,1.313,5.838,0.935c0.514-0.164-2.777,3.753-5.213,3.36
		c-4.333-0.698-4.15-2.093-5.031-3.782s-0.734-2.019-0.734-2.019S117.522,43.913,119.579,44.207z"/>
	<path d="M107.977,48.209c0.514,0.55,4.332,5.69,4.626,5.69s-2.056,1.028-3.782-0.257c-1.725-1.285-1.945-2.937-2.019-3.488
		S107.977,48.209,107.977,48.209z"/>
	<path d="M115.467,51.734c0,0,2.467,1.506,4.482,2.02s5.246,0.991,5.246,0.991s-2.717,3.965-3.965,3.635s-3.672-1.248-4.259-1.799
		S115.467,52.542,115.467,51.734z"/>
	<path d="M126.812,49.384c0,0,4.001,0.991,6.058,3.304s3.158,5.324,3.635,6.646c0.478,1.322,2.02,4.002,2.387,4.002
		s-3.011,0.808-7.967-3.782C125.967,54.965,126.812,49.384,126.812,49.384z"/>
	<path d="M108.858,57.241c0,0,0.855,2.166,3.965,5.03c0,0-2.68,1.028-4.516-0.587S108.858,57.241,108.858,57.241z"/>
	<path d="M115.944,60.215c0.11-0.037,1.799,3.598,3.084,4.516s3.672,3.672,3.672,3.672s-3.048,1.248-5.066,0.33
		c-2.02-0.918-2.607-2.82-3.011-4.09S115.724,60.289,115.944,60.215z"/>
	<path d="M126.445,61.17c0,0,4.296,2.937,5.177,4.039s4.186,3.635,4.186,3.635s-5.544,0.771-7.453-0.147
		S126.078,62.602,126.445,61.17z"/>
	<path d="M106.655,62.593c0,0,0.661,1.56,1.799,2.565c1.139,1.005,2.313,2.915,2.313,2.915s-3.016,0.368-3.968-0.661
		s-1.76-1.537-1.355-2.77C105.847,63.41,106.655,62.593,106.655,62.593z"/>
	<path d="M105.664,69.872c0,0,1.876,1.982,2.388,2.79c0.513,0.808,1.32,2.938,1.32,2.938s-1.799-0.478-2.826-0.661
		c-1.029-0.184-1.727-1.725-1.727-2.019S105.664,70.57,105.664,69.872z"/>
	<path d="M112.125,70.937c0,0,3.305,3.781,3.818,4.957c0.645,1.473,1.395,1.652,2.533,4.589c0,0-3.193,0.257-5.029-1.615
		s-2.607-2.606-2.497-4.626S112.125,70.937,112.125,70.937z"/>
	<path d="M124.278,71.304c0.271-0.705,3.708,2.644,3.929,4.296s0.991,3.892,0,6.939s-1.889,2.717-1.889,2.717
		s-1.011-3.745-2.517-6.315S124.094,71.78,124.278,71.304z"/>
	<path d="M106.618,80.494c0.314-0.835,3.762,2.634,4.322,3.185c0.562,0.551,2.764,4.296,2.728,4.626s-4.696-1.138-5.616-1.652
		C107.132,86.139,106.213,81.568,106.618,80.494z"/>
	<path d="M103.204,85.267c0.637-0.438,2.852,0.983,3.316,1.313s1.897,1.688,1.934,2.056c0.037,0.367-0.873,1.028-0.84,1.652
		s0,3.341,0,3.341s-3.015-2.644-3.969-4.7C102.69,86.873,102.764,85.569,103.204,85.267z"/>
	<path d="M117.633,82.835c-0.312-0.623,3.744,3.509,4.148,5.518s-0.477,5.791-0.918,7.333c-0.44,1.542-1.762,3.12-1.762,3.12
		s-0.257-4.258-0.881-6.131c-0.625-1.873-1.322-5.543-1.029-6.755C117.487,84.708,117.78,83.129,117.633,82.835z"/>
	<path d="M112.346,92.858c0,0,2.166,4.039,2.938,5.104c0.771,1.064-0.037,5.177-1.139,7.086s-1.102,1.909-1.102,1.909
		s-1.395-4.59-1.688-6.058c-0.294-1.469-1.272-2.57-1.261-3.305S112.125,92.968,112.346,92.858z"/>
	<path d="M132.872,77.805c0,0,4.627,2.02,7.27,6.554c2.644,4.534,2.9,7.397,4.296,9.27s1.909,3.583,1.836,4.847
		c-0.184,3.158-2.534,4.516-2.534,4.516c0.205-0.137,0.846-3.781,0.074-4.883c-0.771-1.101-3.23-3.634-4.993-6.461
		s-4.039-4.022-4.884-6.38C133.092,82.909,132.872,77.805,132.872,77.805z"/>
	<path d="M100.231,90.398c0.588,0.037,2.863,1.469,3.341,2.203s0.588,4.847,0.808,5.177c0.221,0.33-2.9-0.991-3.708-3.01
		S100.231,90.398,100.231,90.398z"/>
	<path d="M124.756,98.439c0,0,1.285,4.186,1.615,5.911c0.331,1.726,0.111,4.148-0.807,5.508c-0.918,1.357-0.551,3.451-5.141,4.883
		s-4.836,0.66-4.836,0.66s0.283-3.267,1.018-4.111s4.772-4.516,5.654-5.287c0.881-0.771,1.872-2.46,2.056-3.818
		S124.756,98.439,124.756,98.439z"/>
	<path d="M105.077,101.817c0,0,2.754,2.13,3.048,4.332c0.294,2.203-0.492,5.69-1.604,7.416c-1.112,1.727-2.129,2.57-2.129,2.57
		s0.136-1.615-0.379-3.744c-0.514-2.13-1.433-6.096-1.12-7.27C103.205,103.946,105.077,101.817,105.077,101.817z"/>
	<path d="M96.192,95.025c0.367,0.037,2.166,1.139,2.166,2.203c0,1.064-1.284,5.618-1.082,6.279c0.201,0.66-1.965-1.909-1.744-4.406
		C95.751,96.604,96.192,95.025,96.192,95.025z"/>
	<path d="M92.667,100.239c0.7,0.031,1.506-0.074,1.616,2.129c0.109,2.203,0,4.406,0,4.406s-3.158-3.195-3.231-4.113
		S91.051,100.165,92.667,100.239z"/>
	<path d="M96.594,106.957c0.409-0.039,2.35,3.343,2.57,4.665c0.22,1.321-0.111,3.121-0.147,3.414s-4.259,4.773-5.434,4.957
		s1.101-1.469,0.991-4.59s-0.082-3.708-0.242-4.993C94.17,109.125,96.227,106.992,96.594,106.957z"/>
	<path d="M86.571,110.813c0.273-0.182,2.057,1.615,2.827,2.938s1.763,3.047,0.403,4.59c-1.357,1.541-3.928,3.341-4.369,3.524
		c-0.439,0.184,1.213-3.569,0.882-5.53C85.983,114.375,86.241,111.034,86.571,110.813z"/>
	<path d="M79.448,111.181c0,0,4.296,4.516,4.26,5.691c-0.037,1.175-1.23,6.668-3.048,7.123c-1.175,0.293-3.892,0.366-4.626,0.477
		s3.746-3.23,3.837-5.029C79.961,117.643,79.815,111.512,79.448,111.181z"/>
	<path d="M99.495,119.222c0.184,0.367,0.697,1.872,1.358,2.387c0.661,0.514,1.175,3.121,0.734,4.332s-5.397,4.627-6.572,5.397
		s-3.598,3.194-3.598,3.341s-1.737-0.881-0.942-4.038s5.232-6.683,5.768-7.747S99.495,119.222,99.495,119.222z"/>
	<path d="M113.19,111.548c0,0,0.918,4.326,1.102,4.789c0.184,0.462,0,2.775-1.451,4.316c-1.45,1.543-4.607,4.884-5.746,5.508
		c-1.138,0.624-4.736,2.533-4.883,2.938s1.064-6.242,2.387-7.711s5.154-4.552,5.496-5.984
		C110.436,113.972,113.19,111.548,113.19,111.548z"/>
	<path d="M85.358,129.87c0.551,0.771,2.277,3.194,2.24,4.406c-0.037,1.211-0.001,2.9-1.764,4.039
		c-1.762,1.137-7.306,5.801-7.342,6.205c-0.037,0.402-1.102-4.48,0.771-9.068C81.135,130.862,85.358,129.87,85.358,129.87z"/>
	<path d="M70.011,133.286c0,0,4.075,2.9,5.14,4.809c1.064,1.91,1.675,8.203,0.33,8.959c-0.587,0.33-1.725-3.855-3.891-4.92
		s-1.946-3.672-2.24-5.178C69.056,135.452,70.011,133.286,70.011,133.286z"/>
	<path d="M72.25,110.521c0,0,3.475,2.791,3.701,4.223c0.228,1.432-0.727,5.948-2.269,7.563c-1.542,1.615-2.864,1.468-2.864,1.468
		s0.698-5.801,0.734-7.783S71.993,110.888,72.25,110.521z"/>
	<path d="M62.264,111.181c0.22-0.072,2.68-0.146,3.892,0.699c1.212,0.844,2.421,3.633,2.423,6.131
		c0.003,3.342-2.35,5.508-2.35,5.508c-0.22-0.479-2.644-6.5-2.974-8.299S62.264,111.181,62.264,111.181z"/>
	<path d="M55.068,109.86c0,0,4.941,1.754,5.911,4.553c1.285,3.708-3.341,8.188-3.341,8.188s-0.184-4.773-0.587-6.371
		C56.647,114.633,55.068,109.86,55.068,109.86z"/>
	<path d="M54.591,127.373c0,0,4.685,1.425,6.425,3.635c2.901,3.685,2.901,8.849,2.901,8.849s-3.928-2.863-5.324-3.965
		s-1.872-2.645-2.68-4.333S54.591,127.373,54.591,127.373z"/>
	<path d="M50.258,109.272c0,0,2.497,1.175,2.974,2.313c0.477,1.139,1.248,3.636,0.734,4.297c-0.514,0.66-2.974,4.186-2.974,4.516
		s-1.138-0.697-1.358-1.432S49.708,109.677,50.258,109.272z"/>
	<path d="M42.767,121.278c0,0,3.653,3.599,4.084,4.039s2.047,2.9,2.377,4.075s-0.991,7.784-1.358,8.335s-1.321-3.746-2.68-5.435
		s-3.464-4.884-3.562-6.204C41.372,122.601,42.767,121.278,42.767,121.278z"/>
	<path d="M29.549,111.731c0,0,2.864,4.002,3.378,4.883c0.514,0.882,2.423,3.343,2.46,4.664s-0.587,6.095-0.587,6.095
		s-1.946-3.269-3.231-5.104s-2.9-3.372-2.937-5.119C28.595,115.403,29.549,111.731,29.549,111.731z"/>
	<path d="M23.638,104.976c0,0,0.844,2.094,1.652,2.828s1.616,1.285,1.616,2.057c0,0.77-0.955,7.379-0.587,8.957
		c0.367,1.579-0.074,3.012-0.074,3.012s-1.763-4.48-3.598-6.353s-1.909-4.332-1.799-5.801s-0.146-2.166,0.331-2.681
		C21.655,106.481,23.638,104.976,23.638,104.976z"/>
	<path d="M47.797,99.468c0,0,4.065,2.68,4.052,3.708s-3.317,4.993-3.574,5.14C48.017,108.463,48.972,102.222,47.797,99.468z"/>
	<path d="M39.316,89.665c0,0,2.129,0.184,2.9,2.791s-0.514,5.435-1.45,6.278s-2.368,1.945-2.368,1.945s1.395,1.396,1.726,2.057
		s1.285,2.938,1.285,2.938s0.808-0.551,2.864,0.697s2.405,4.002,2.579,6.131c0.174,2.13-3.901,6.426-3.901,6.426
		s0.331-3.563,0.037-4.663s-0.925-5.974-1.616-6.388c-0.367-0.221-2.249,2.71-3.451,3.855c-1.579,1.504-3.157,2.238-3.157,2.238
		s2.129-5.69,1.946-7.232s0.403-7.159,0.11-7.27s1.587-3.732,1.946-5.03C39.243,92.712,39.316,89.665,39.316,89.665z"/>
	<path d="M30.174,94.401c0,0,2.974,2.46,3.231,4.406c0.257,1.946-0.221,3.892-2.203,4.847s-4.81,1.873-4.81,1.873
		s1.028-3.709,1.579-4.406S30.064,95.429,30.174,94.401z"/>
	<path d="M17.578,79.825c0,0,2.803,1.653,3.237,4.479s-2.577,5.58-5.22,6.278s-3.561,0.073-3.965,0.367s-1.285,0.734-1.285,1.726
		s0.661,7.27-0.991,10.207c-1.652,2.938-7.196,9.693-7.196,9.693s0.037-9.436,0-9.877c-0.037-0.439,1.138-4.81,2.9-7.6
		s5.066-4.663,6.131-5.177s4.186-3.708,5.214-6.682S17.578,79.825,17.578,79.825z"/>
	<path d="M22.277,86.507c0,0,4.295,3.231,4.369,4.883s-0.184,5.544-4.589,6.866c-4.406,1.321-7.306,0.99-7.306,0.99
		s4.709-4.111,5.953-6.718S22.277,86.507,22.277,86.507z"/>
	<path d="M32.815,83.385c0,0,2.28,2.13,1.948,3.929s-4.317,3.038-5.289,3.047C29.107,90.364,32.815,83.385,32.815,83.385z"/>
	<path d="M28.997,78.539c0,0,1.872,2.166,2.056,3.451s-1.358,2.717-3.488,3.084s-1.909,0-1.909,0s1.726-2.223,1.946-3.186
		S28.997,78.539,28.997,78.539z"/>
	<path d="M38.506,77.657c0,0,2.129,2.019,2.093,2.533s-2.423,1.595-3.451,1.697S38.432,80.888,38.506,77.657z"/>
	<path d="M35.862,69.726c0,0,1.285,3.23,0.698,4.442s-1.248,1.652-2.9,1.799s-2.423-0.22-2.423-0.22s1.953-1.838,2.739-2.883
		S35.862,69.726,35.862,69.726z"/>
	<path d="M24.518,72.296c0,0,0.832,0.992,1.132,2.46s0.795,2.313,1.006,2.533s-4.599,3.378-5.076,3.378S24.188,72.92,24.518,72.296z
		"/>
	<path d="M14.274,69.726c0,0,2.423,3.562,2.533,5.838s-2.35,5.141-4.553,6.058S6.454,82.71,6.454,82.71s3.847-5.229,5.054-7.22
		C13.099,72.864,14.274,69.726,14.274,69.726z"/>
	<path d="M33.696,62.308c0,0,0.808,5.397-0.514,6.499s-4.186,0.404-4.186,0.404s2.497-2.536,2.827-3.342
		S33.696,62.308,33.696,62.308z"/>
	<path d="M21.36,64.399c0,0,1.285,2.937,1.285,4.589s-3.268,4.442-3.855,4.663s-1.285-2.606-0.184-4.626S21.36,64.399,21.36,64.399z
		"/>
	<path d="M29.877,57.35c0,0,1.91,4.075-0.33,4.773s-3.965-0.257-4.479,0S29.877,57.35,29.877,57.35z"/>
	<path d="M30.636,47.547c0,0,0.575,4.296,0,5.177s-1.971,1.836-3.439,1.909s-2.165-0.588-2.165-0.588s2.336-2.276,2.93-3.121
		S30.636,47.547,30.636,47.547z"/>
	<path d="M22.277,53.899c0,0,0.404,5.728-0.293,6.829s-5.177,3.488-5.691,3.671s2.423-2.79,2.497-6.095S22.277,53.899,22.277,53.899
		z"/>
	<path d="M11.887,60.544c0,0,1.505,5.214,0.551,6.682s-6.888,4.745-7.82,4.406c-0.404-0.147,2.863-2.937,4.516-6.462
		S11.887,60.544,11.887,60.544z"/>
	<path d="M13.979,46.849c0,0-0.441,4.148-0.734,5.837s-2.092,5.627-4.112,6.467s-6.646,1.904-6.646,1.904s5.066-4.723,5.746-6.418
		S10.088,47.914,13.979,46.849z"/>
	<path d="M23.011,39.358c0,0,0.808,3.525,0.734,4.002s-0.734,1.248-0.734,1.248s0.849,1.249,0.37,3.084s-1.03,4.405-2.572,4.919
		s-5.397,0.074-6.095,0.294s1.689-1.065,2.607-3.194s1.084-3.377,1.992-3.745s-2.947-0.038-3.498-0.404s2.459-1.689,3.01-2.313
		S23.011,39.358,23.011,39.358z"/>
	<path d="M15.412,33.3c0,0,0.881,5.837-0.257,8.554s-3.083,5.544-6.241,5.985S1.79,47.547,1.79,47.547s6.215-2.366,6.973-3.123
		c1.104-1.102,3.454-5.214,3.417-7.013S15.412,33.3,15.412,33.3z"/>
	<path d="M63.847,5.86c1.167-0.433-3.608-4.299-6.824-4.184S52.298,2.58,52.298,2.58s4.396,0.066,5.774,1.575
		S62.075,6.517,63.847,5.86z"/>
	<path d="M57.285,7.5c0,0-3.019-2.362-4.659-2.821s-3.769-0.488-5.446,0.281c-1.247,0.572-2.034-1.15-6.233-0.584
		s-5.249,1.708-5.249,1.708s5.971,0.871,7.677,2.161s4.265,1.356,5.446,1.29s2.69,0.017,2.69,0.017s-0.919-1.789-2.034-2.117
		s-0.262-1.164,1.969-0.517S55.382,8.55,57.285,7.5z"/>
	<path d="M46.065,17.015c0.822,0.43,3.149,0.459,3.412,2.231s-1.031,3.567-5.118,2.231c-3.412-1.116-1.837-6.496-1.837-6.496
		S44.936,16.425,46.065,17.015z"/>
	<path d="M33.401,10.646c1.772,0,4.724,0.53,5.512,1.645c0,0-4.986,0.853-6.496,1.509s-5.053,1.181-6.168,1.181
		s-2.297-0.853-1.837-1.443s2.493-1.903,2.559-2.166s-2.165-2.558-6.365-2.559c-6.627-0.001-9.711,3.543-9.711,3.543
		s4.593-0.066,6.496-0.459s6.419,0.459,6.359,1.378s-2.094,1.443-2.816,1.706s-5.905-0.262-9.383,0.788s-5.314,2.034-4.79,5.052
		s2.756,3.543,4.855,2.756s4.921-1.313,5.905-0.788s3.806,3.806,3.806,3.806s-6.693,0.853-8.202,1.837s-4.921,1.969-8.858,0
		s-4.79-7.48-4.002-11.023S10.881,3.484,13.979,2.615s10.039,1.736,11.745,2.786s3.937,3.686,4.134,4.533L33.401,10.646z"/>
	<path d="M26.315,16.004c0.913-0.111,4.659,1.076,5.118,1.995s-4.265,1.378-5.512,2.1s-5.38-0.459-5.38-0.459
		S23.821,16.307,26.315,16.004z"/>
</g>
<g>
	<g>
		<g>
			<path d="M10.162,155.673c0,0,3.083,2.25,3.583,2.25s-1.917,3.666-1.792,4.334c0.125,0.666-0.39,1.666,0.034,1.75
				c0.424,0.082,2.84,0.582,3.257,0c0.417-0.584,0.25-2.002,0-2.168s1.167-1.887,1.5-1.859s1.25,3.609,1.833,3.609
				s0.75-0.916,0.75-0.916s-0.667-5.25-0.417-5.416c0.25-0.168,3.917-0.834,4-0.584s-0.583,2.945,0.417,3.307
				c1,0.359,4-0.807,4.75-0.473c0.75,0.332,1,2,1,2.5s-5,0.166-5.083,0.832c-0.083,0.668,0.75,1.307,1.5,1.445s4.084-0.389,4.667,0
				s0.5,3.139,0,3.139s-4.084,0.834-5.417,0.834s-0.833,0.498-0.667,1.332s0.75,1.334,1.333,1.334s4.319-0.73,5.157-0.5
				c0,0-0.157,3.416-0.49,3.666s-5.083,0.584-5.25,0.918c-0.167,0.332-0.25,1.832,0.833,2.082s4.916-0.75,5.333-0.832
				c0.417-0.084,1.417-0.172,1.5,0.873c0.083,1.043,0.25,2.709,0,2.709s-6.917,0.5-8.5,0s-3-2.5-3.083-5.332
				c-0.083-2.834-0.083-3.752-0.083-4.168s-1-1.693-0.833-2.471c0.167-0.779-1.083,0.139-1.583,0.639s-2.083-1.75-2.083-1.75
				s-6,0.75-6.75,0.5s-2.417-3.75-2.5-4.334S9.329,155.673,10.162,155.673z"/>
			<path d="M19.852,175.589c-0.227-0.584,0.31-1.916-1.023-4.666s-3.755-1.295-4.75-1.166c-0.632,0.082-3.833,0.25-4.167,0.5
				s-0.5,7.25,0,8.416c0.5,1.168,1.667,2.084,2.167,2.416c0.5,0.334,1.083-1.082,1.417-1.832s1.833-1.668,2.583-1.084
				s0.75,2,0.98,2.416s2.52-0.832,2.793-0.527C20.125,180.368,20.079,176.173,19.852,175.589z M13.495,171.423
				c0.415-0.039,2.917-0.416,2.917,0s0.5,1.25,0,1.166c-0.5-0.082-2.917,0.428-2.917,0.006S12.835,171.485,13.495,171.423z
				 M17.162,176.173c-0.333,0.084-3.417,0.584-3.667,0s-1.071-1.334,1.423-1.916c0.891-0.209,2.244,0,2.244,0
				S17.496,176.091,17.162,176.173z"/>
		</g>
		<path d="M10.079,184.339c0,0,3.667-0.25,4,0s0.396,4.5,0.74,4.668c0.344,0.166-4.073,0.25-4.323-0.584
			S9.488,184.376,10.079,184.339z"/>
		<path d="M21.245,183.173c0,0,0.25,6.666,0,6.416s-3.083,0.387-3.25-0.473s-0.25-5.775,0-5.943
			C18.245,183.007,21.245,183.173,21.245,183.173z"/>
		<path d="M28.412,183.099c0,0,0.417,6.42,0,6.498c-0.417,0.076-3.667,0.211-3.917-0.48c-0.25-0.693-0.833-5.924-0.333-6.018
			C24.662,183.007,28.412,183.099,28.412,183.099z"/>
		<path d="M33.579,182.257c0,0,0.667,7.18,0,7.34s-3,0.469-2.917,0.064s-0.254-6.822-0.002-6.904
			C30.912,182.673,33.579,182.257,33.579,182.257z"/>
	</g>
	<path d="M41.597,165.257c0,0-1.182,4.73-0.435,5.082c0.435,0.205,4.388,0.416,4.277,0s-1.944-6.332-1.444-6.416
		s3.333,0.168,3.583,1c0.25,0.834,0.5,5.166,0.833,5.166s4.5,0.418,4.5,0.084s-0.917-7.416-0.417-7.916s4.333,2.082,4.5,2.75
		c0.167,0.666,1,7.75,0.333,8.25s-7.576,0.166-8.08,0.75c-0.504,0.582-0.246,6.582,0,6.582s5.354,0.029,5.342-0.527
		c-0.012-0.555-0.154-4.92,0-4.863c0.154,0.059,4.422,2.92,4.663,4.863c0.241,1.945,0.325,5.881-0.342,5.996
		s-20.798,0.453-22.25-0.551c-0.723-0.5,0.083-7.168,0-7.5c-0.083-0.334,4.787-0.584,4.935-0.168
		c0.148,0.418,0.065,4.834,0.481,4.834s2.5,0.5,2.583-0.416c0.083-0.918,0-7.584-0.5-7.418c-0.5,0.168-2.667-1.113-3-0.639
		c-0.333,0.473,0.25,0.773-0.417,0.998s-4.189-0.805-4.386-0.998s-0.053-8.695,0-8.861S40.866,165.173,41.597,165.257z"/>
	<g>
		<path d="M65.079,168.589c0.667-0.584,1.417-2.832,1.333-3.416c-0.083-0.582-5.75-2.832-6.083-2.25
			c-0.667,1.168-1.75,4.166,0.667,4.945C63.412,168.646,64.412,169.173,65.079,168.589z"/>
		<path d="M66.418,175.198c0.006-0.725,1.494-3.025,1.577-3.609s-5.917-1.082-6.667-1.082c0,0,0.083,3.5,0,4.332
			C61.246,175.673,66.412,175.923,66.418,175.198z"/>
		<path d="M67.412,178.089c-0.583,1.334-5.25,3.051-5.25,3.051s0.583,3.283,1.755,3.867c1.171,0.582,4.912,0.832,5.662-0.779
			S67.995,176.757,67.412,178.089z"/>
		<path d="M73.662,167.868c0.25-0.307,0.083-4.279,0.333-5.041c0.25-0.762,1.75-0.904,2.257-1.154s0.409,1.25,0.409,2.043
			s0.333,3.623,0.854,4.152c0.52,0.527,4.396,0.721,5.361,0.971c0.967,0.248,2.367-0.666,2.784-0.971
			c0.417-0.307-1-3.861-1.667-4.111c-0.666-0.25,0,0-1.117,0.25s-0.883,1.166-1.633,1.166s-0.666-3.166-0.666-3.666
			s-0.75-2.834-1.334-2.918c-0.583-0.084-9.951,0-9.951,0c-1.035,0.01-0.049,9.084,0,9.279
			C69.343,168.062,73.412,168.173,73.662,167.868z"/>
		<path d="M86.495,184.228c-0.25-0.611-4.916-3.805-4.916-4.166s1.299-0.639,1.299-0.639s1.451-4.75,1.367-5.223
			c-0.083-0.475-2.833-3.527-3.5-3.693c-0.666-0.168-3.518,0.789-3.916,0.666c-2.416-0.75-5.333,0.25-5.667,0.416
			s0.5,3.5,0.167,4.037c-0.333,0.535-0.917,2.797-0.917,2.797s0.833,0.416,2.362,1.166c1.528,0.75,3.305,0.334,3.479,1
			c0.175,0.666-2.257,2.918-2.924,3.639c-0.667,0.723,2.666,3.361,2.924,2.945s2.576-2.5,3.576-2.5s4.166,3.584,4.333,3.084
			S86.745,184.839,86.495,184.228z M76.252,177.894c-2.257-0.137-3.479-2.268-3.479-2.268s3.141-0.873,3.888-0.869
			c0.583,0.002,3.084-0.033,3.167,0.441S78.51,178.032,76.252,177.894z"/>
	</g>
	<g>
		<path d="M87.598,164.673c0,0,0.856-0.5,2.668,0c1.813,0.5,4.313,1.16,4.313,1.16v3.006c0,0-1.917-0.859-3.084-0.971
			c-1.166-0.111-2.416,0-2.416,0L87.598,164.673z"/>
		<path d="M87.598,171.507c0,0,2.063-1.207,3.813-1.02c1.75,0.186,3.528,2.721,4.598,2.578s-2.431,1.328-3.765,1.135
			C90.912,174.007,87.598,171.507,87.598,171.507z"/>
		<path d="M88.995,181.14c0,0,1.901,0.783,2.909,0.533s4.758-3.416,5.341-3.416c0.584,0,1.584,1.598,0.917,2.883
			c-0.667,1.283-3.166,4.904-3.583,5.219s-3.563,1.732-3.49,0.982S88.329,181.938,88.995,181.14z"/>
		<path d="M102.2,160.341c0,0,4.295-0.252,4.712,0.666c0.417,0.916,0.083,4.902,0.333,4.826s4.251-1.41,4.834-0.41
			s0.167,4.584,0,4.584s-3.333-0.584-3.25,0s-0.333,5.738,0.25,5.619s4.084-0.568,4.5-0.428c0.416,0.143,0.084,3.559,0,3.559
			s-4.417-0.834-4.167-0.5s-0.166,3.416,0.417,3.416s4.584-0.084,5,0.584c0.416,0.666,0.5,4.02,0,3.801
			c-0.5-0.217-4.941-0.531-6.555,0c-1.612,0.533-6.516,1.199-6.522,0.783c-0.007-0.418-0.41-5.818,0-5.701s2.493,0.367,2.743-0.383
			s0.5-2.309,0-2.863c-0.5-0.553-4.583,0.197-4.5-0.471c0.084-0.666,0-4.215,0.5-4.357s2.75,0.893,3.25,0s0.417-4.059,0-4.184
			c-0.416-0.125-5.392,0.457-5.362,0c0.029-0.459-0.304-3.625,0.362-3.709c0.667-0.082,3.242-0.027,3.455-0.723
			C102.412,163.757,101.489,160.366,102.2,160.341z"/>
	</g>
	<g>
		<path d="M132.829,172.343c0,0,0.5-4.252,0-4.475s-4.584,0.723-5,0.971s-0.167-2.248-0.167-3.006s2.417-0.66,2.75-0.91
			s0.75-2.166,0-2.723s-6.083-0.193-6.75-0.008c-0.667,0.188,0.167-3.352-0.417-3.641c-0.583-0.287-4.25-0.461-4.25-0.461
			s1,2.582,0.167,2.582s-6-0.363-6-0.363s0,2.613,0,3.406s2.667-0.125,4.75,0c2.083,0.127,1.583,2.291,1.5,2.93s-5.063,0-5.063,0
			s0.146,3.195,0.002,3.861s6.979,0.5,8.895,0.584C125.162,171.175,132.829,172.343,132.829,172.343z M123.106,164.45
			c0.727,0.209,2.39,0.5,1.973,2.195s-1.277,2.695-1.973,2.611C122.412,169.173,122.624,164.312,123.106,164.45z"/>
		<path d="M138.219,187.544c0.354-0.254-1.402-6.055-1.641-6.404c-0.25-0.367-1.75,0.783-2.084,1.117
			c-0.333,0.332,0.5,3.584,0.417,4.102c-0.083,0.52-1.083,0.564-1.5,0.613c-0.417,0.047-2.417-2.965-2.667-3.465
			s1.917-1.25,1.917-1.25s-0.5-7.334-1-8.039c-0.5-0.707-11.448-0.604-11.917-0.578c-1.832,0.1-1.5,7.701-1.416,8.617
			s2.416,0.5,3.083,0.842c0.667,0.344-1.667,4.242-1.667,4.705c0,0.465,3.75,2.287,3.75,1.793s2.834-5.506,3.25-6.006
			c0.417-0.5,1.25,4.666,2.084,5.082c0.834,0.418,3.833,1.396,7.083,2.084c3.25,0.686,4.083-0.75,3.917-1.75
			C139.71,188.296,138.629,187.714,138.219,187.544z M123.903,175.626c0.8-0.131,5.676-0.881,5.759,0s-6.918,2.297-7.001,1.547
			C122.579,176.423,121.651,175.995,123.903,175.626z M123.903,180.591c-1.491-0.918-2.42-2.092,1.242-1.445
			c1.822,0.32,4.436-0.445,4.518,0S125.394,181.507,123.903,180.591z"/>
		<path d="M143.162,180.835c-0.5-0.754-1.817,0.445-3.313,0c-1.979-0.588-0.354,4.922,0,6.137s4.313,0.201,4.48-0.613
			S143.662,181.591,143.162,180.835z"/>
	</g>
</g>
</svg>
