<?xml version="1.0" encoding="utf-8"?>
<svg version="1.1" id="レイヤー_1" xmlns="http://www.w3.org/2000/svg" xmlns:xlink="http://www.w3.org/1999/xlink" x="0px"
	 y="0px" width="200" height="200" viewBox="10 -110 300 330" enable-background="new 0 0 266.548 290.342"
	 xml:space="preserve">
<g>
	<path d="M132.574,85.848c0.823-0.905,4.946-0.09,6.205,1.708s-1.529,5.126-2.249,5.666s-1.079,1.438-3.957,0
		s-2.608-2.661-1.889-3.983S131.675,86.837,132.574,85.848z"/>
	<path d="M185.542,86.927c0.549-0.32,5.306,0.126,5.846,2.312s-1.349,4.793-2.923,4.433s-5.171-1.872-5.171-3.364
		S184.463,87.556,185.542,86.927z"/>
	<path d="M197.053,105.002c-2.068-5.845-5.036-7.104-8.723-8.543s-21.924-2.405-23.382-2.461
		c-15.018-0.572-30.396,3.899-32.734,7.137s-5.216,7.914-2.006,12.23s10.19,6.925,20.082,8.094s23.471,1.349,33.004,0.81
		S199.122,110.848,197.053,105.002z M149.93,100.057c8.813-0.36,10.464-1.083,13.183-0.989c1.567,0.054,12.356,0.809,13.616,0.719
		s7.194,0.359,7.194,1.619s-2.698,4.407-4.497,3.417s-3.327-2.786-3.777-2.338s-3.332,0.391-3.872,0.301s-1.605,2.995-4.402,2.756
		c-1.526-0.13-4.39-2.068-4.263-2.338s-2.374,0.629-2.473,0.359s-0.516,2.776-3.483,2.776s-3.27-3.5-3.81-4.037
		s-2.099-0.674-2.978,1.003c-1.789,3.416-4.831,0.6-5.19-0.479s-1.634-0.612-3.073,0.198s-3.132,0.54-3.005-0.359
		S141.117,100.417,149.93,100.057z M146.513,117.233c-1.773,0.303-3.508-1.169-3.238-2.158s1.439-2.068,2.338-2.068
		s3.957,1.439,3.777,2.113S150.201,116.604,146.513,117.233z M156.765,118.492c-0.568-0.034-3.058,0.09-3.147-0.45
		s0.739-4.117,3.62-4.037c0.685,0.019,2.945,1.959,2.945,3.268S159.317,118.645,156.765,118.492z M166.118,119.121
		c-0.27-0.002-3.131,0.118-3.004-0.57s2.118-3.498,3.466-3.587s2.595,2.657,2.595,3.587S167.544,119.134,166.118,119.121z
		 M180.326,118.551c-0.809,0.75-2.903,0.32-3.526,0.565c-0.672,0.264-4.388,0.124-4.118-0.565s2.7-4.499,3.958-4.226
		S181.135,117.8,180.326,118.551z M184.306,118.637c-0.461,0.031-0.063-1.678,0.016-2.327c0.223-1.824,2.54-2.544,4.456-0.229
		C189.497,116.95,186.702,118.477,184.306,118.637z M190.938,113.006c-0.899-0.54-1.554-1.799-3.43-1.799s-3.225,1.08-4.214,1.799
		s-4.227-0.81-4.856-1.709s-2.338-1.438-3.687-0.719s-1.529,1.798-3.237,1.798s-2.918-2.248-5.371-1.888s-3.485,2.158-4.633,2.158
		s-1.869-1.888-4.611-1.708s-5.169,1.349-6.159,1.349s-2.698-2.518-5.846-2.338s-4.407,1.722-5.216,3.244s-3.058,0.893-3.777-1.176
		s-2.249-7.371,1.259-6.473c0.627,0.16,1.76,1.85,2.608,1.887c1.619,0.071,3.327-1.739,3.895-2.369s2.292,2.202,3.48,2.37
		c2.429,0.345,3.687-2.426,4.406-1.888s0.18,2.786,4.317,3.865s4.542-3.147,5.644-3.147s3.889,2.697,6.317,2.428
		s4.676-2.968,5.755-2.698s2.594,2.968,6.873,2.968s6.322-2.429,7.054-3.867s0.642-1.798,1.092-1.708s4.407,1.467,4.407,4.87
		S191.837,113.546,190.938,113.006z"/>
	<g>
		<path d="M313.646,62.192c-12.275-21.181-34.419-35.816-45.491-40.917S228.099,8.112,212.074,4.907
			c-18.052-3.61-33.697-5.776-47.416-4.573c-8.406,0.737-33.036,0.985-37.85,1.707S94.441,5.345,70.548,14.535
			c-5.629,2.165-24.31,8.905-28.883,12.034s-17.33,13.479-24.31,22.625c0,0-8.905,11.553-13.719,25.514s-8.184,47.175,12.516,67.634
			s39.232,25.513,53.674,29.605s38.029,4.092,41.64,3.61s7.702-1.444,11.313,0.241s21.181,2.888,34.9,2.647
			s82.798-0.481,107.83-8.665s48.62-28.401,52.23-48.138C320.33,107.475,325.921,83.373,313.646,62.192z M50.356,154.988
			c0.074,0.298-8.053-2.312-12.453-5.63s-7.233-5.629-7.233-5.629h9.917c1.119,0,13.049,0,13.049,0s-3.355,4.101-3.43,5.667
			S50.282,154.69,50.356,154.988z M72.324,164.458c0.402,0.149-5.191-0.448-5.191-0.671s0.074-7.308,0-7.233
			s-3.728-1.892-4.474-1.542s-2.461-0.023-2.237,1.17s2.685,1.193,2.685,2.312s0.224,2.908-0.373,2.908s-5.667-0.597-6.487-2.759
			s-3.206-8.352,0-9.544s7.307-0.149,7.083,1.268s3.729,1.715,3.729,1.715s1.043-4.325,0.373-5.816s-1.79-1.64-1.79-2.237
			s8.874-0.298,8.874-0.298c0.447,0.224,0,0.746-1.342,2.535s-3.281,8.053-3.207,10.141S71.922,164.31,72.324,164.458z
			 M91.507,82.97c1.02,2.071,0.921,3.254-1.347,3.156s-3.37-4.043-3.361-5.621s-1.076-1.38-2.161-1.282s-0.296,5.424-0.986,6.016
			s-2.663,1.676-2.958-1.479s0.986-4.438,0.395-6.312s-2.367-1.084-3.353,1.085s-0.56,4.931-2.893,4.733s-4.01-3.55-1.446-8.382
			s6.212-6.742,12.327-7.167c5.019-0.35,9.27,1.054,12.524,2.927s9.763,7.101,9.862,8.382s-3.057,3.648-3.945,4.339
			s-1.676-2.86-4.733-5.227s-6.28-3.254-7.923-3.254s-3.714-0.285-3.615,0.696S90.487,80.899,91.507,82.97z M76.609,87.47
			c2.503,0.963,2.504,2.888,4.429,3.081s3.239-1.47,5.76-1.313s5.448,2.083,7.643,1.12s1.748-4.814,2.934-4.814
			s3.69,2.311,3.69,2.311s-5.97,3.274-8.473,4.429s-3.658,4.814-4.429,4.814s-5.2-1.733-8.281-0.963s-4.114,4.043-5.042,4.236
			s-4.221-1.327-5.935-1.155c-3.852,0.385-3.766,4.044-6.023,4.429s-3.605-2.504-5.724-2.311s-7.51,3.467-8.858,3.659
			s-1.156,2.311-2.889,1.155s-0.963-2.696-3.852-2.696s-6.547,2.226-6.547,3.039s-5.007,1.198-7.703-0.343
			c0,0,2.504-1.155,3.659-2.118s0.77-2.696,1.925-2.696s4.814-1.155,5.777-2.696s5.199-5.584,7.703-5.584s8.088,1.926,8.088,1.926
			s4.814-7.125,6.74-8.28s2.889-3.081,5.584-3.081s3.082,3.081,5.007,3.466S74.106,86.507,76.609,87.47z M57.223,106.834
			c3.254,0.296,6.804,2.761,7.297,2.958s3.353-1.104,3.944-1.045s1.775-2.998,4.438-3.787s3.451,0.691,3.846,0.789
			s3.649,0,4.043-0.296s1.381-2.465,3.156-2.465s5.127,3.155,5.719,3.057s2.958-0.591,3.156-1.282s-0.493-4.339,3.452-6.312
			s7.001,3.452,7.889,3.353s3.156-0.789,3.353-1.282s-1.62-11.372,2.367-13.018c6.212-2.564,8.875,2.367,8.875,2.761
			s4.339-4.536,5.522-4.635s-1.873-2.169,1.874-7.297s10.354-2.071,10.847-1.775s1.874,1.874,2.86,1.874s3.55-0.099,3.945-0.592
			s0.493-5.522,9.072-4.536s12.327,7.889,12.327,7.889l6.902-0.592c0,0,2.367-5.621,9.369-3.747s8.776,7.199,8.776,7.199
			s3.282-0.493,3.958-0.789s2.292-1.947,6.921,0.099c7.364,3.254,0.72,10.188-0.426,11.341c-0.354,0.356,4.143,2.761,4.734,2.761
			s6.126-1.519,6.804,2.663c1.184,7.297-5.72,7.889-5.72,7.889s5.5,7.199,5.856,7.199s5.78-2.268,6.865-6.607
			s-0.591-6.312-0.591-6.312s-2.367-6.213-2.071-6.312s5.388-3.451,6.343-3.353s-0.328,8.48,1.053,9.763s0.986,5.424,0,7.692
			s-4.133,11.696-14.792,12.425c-7.21,0.493-7.923-0.986-11.9,0s-11.175,5.325-15.811,5.818s-9.862,0.394-11.439-0.789
			s-2.169-1.874-4.339-2.169s-8.087,3.123-11.834,3.238s-9.27-4.027-10.453-5.604s-7.791,0.887-7.593,1.775s0.592,1.283,0.197,1.973
			s-5.424-0.296-8.481-1.677s-2.958-4.438-3.55-4.635s-4.931,0.099-5.227,0.197s-1.677,4.536-7.101,5.029s-7.495-1.874-7.593-3.55
			s-1.433-2.859-1.111-3.55s-4.313,0.099-4.313,0.099s-4.24,4.832-8.579,4.24s-4.438-9.96-5.128-10.354s-9.829-0.986-10.092-0.69
			s-3.221,1.578-11.11,1.381s-5.227-1.775-9.171-2.071s-5.621-0.493-5.621-0.493C50.319,109.595,53.968,106.538,57.223,106.834z
			 M183.152,67.249c0.888,0.14,1.48,0.993,2.071,0.468s3.55-7.428,7.001-6.442s4.438,5.523,2.761,8.58s-1.451,2.465-0.775,2.564
			s5.804,1.282,6.297,1.282s1.775-3.846,8.382-3.156s8.875,4.044,9.27,4.438s-4.734,0.872-5.72,1.915s-1.513,2.72-2.334,2.325
			s-6.344-3.254-10.88-3.55s-6.114,1.365-6.508,1.225s-4.438-5.86-10.453-6.649s-13.412,2.663-14.201,2.663s-5.325-7.1-12.918-7.791
			c-6.875-0.625-11.735,1.633-13.214,2.542s-2.616,2.585-3.625,2.585s-6.138-0.887-10.378-0.789s-9.565,6.508-9.467,6.903
			s-3.648,1.267-4.635,0.535s-2.367-5.17-3.748-6.748s1.949-3.473,3.254-4.24c2.1-1.234,3.156-1.775,5.621-2.071
			s6.508,1.677,6.508,3.057s4.339-1.674,4.635-2.514s0.69-4.887,5.917-5.279s6.805,4.144,7.002,4.539s3.952-1.38,4.244-1.479
			s0.982-5.786,7.688-5.26s4.48,5.161,5.692,5.555s7.325-0.208,7.522-0.399s-0.198-6.243,7.297-5.19s3.057,8.351,2.663,8.844
			S182.265,67.108,183.152,67.249z M236.011,118.568c0.099,1.578,4.043,2.268,3.846,5.128s-2.564,4.903-4.733,4.917
			s-7.495,0.479-10.749,0s-2.86-1.269-2.268-2.057s3.452-1.774,3.649-3.55s0.197-4.931,0.69-5.128s3.155-1.282,5.029-2.761
			s1.804-3.058,1.691-4.537s-0.722-4.146,0.183-3.944c1.361,0.303,2.662,0.986,4.043,0.69s1.972-1.677,2.663-1.479
			s0.888,0.244,1.677,0.763s2.137-0.237,2.695,0.782s-0.063,3.879-1.725,4.273s-3.471,0.363-4.718,0.986
			C235.813,113.736,235.912,116.99,236.011,118.568z M243.209,93.126c-1.282-0.493-1.874,0-1.874,0.888s2.071,4.635-1.184,5.621
			s-3.353-3.551-3.353-4.734s-0.591-1.085-1.183,0s-2.565,3.892-4.043,3.945c-2.761,0.099-3.648-4.832-1.183-6.903
			s2.482-0.395,3.805-0.197s3.887-3.55,4.084-3.945s-4.043-2.564-7.988-2.761s-10.157,1.578-10.453,2.465s-3.452,2.558-4.043,3.005
			s-3.846-1.229-3.353-2.314s3.721-3.307,4.536-3.748c2.335-1.264,7.1-2.761,10.059-3.057s10.355-0.296,14.299,1.528
			s10.453,5.473,10.059,9.911s-1.677,4.833-3.945,4.142S244.492,93.619,243.209,93.126z M55.94,122.119
			c1.578,0.395,5.017,0.813,8.086,0.789c1.381-0.011,5.819,0.197,6.903-0.986s3.057-2.169,4.24-1.775s4.931,8.157,8.974,8.467
			s12.426-1.958,13.609-1.958s2.958,4.142,10.256,5.325s8.086-2.564,11.538-2.465s5.029,1.775,7.297,2.169s5.227,0.592,5.227,1.282
			s0.691,2.859-0.591,3.648s-18.145,0.296-23.174,0s-25.048-0.986-29.289-1.479s-10.947-1.479-12.524-1.479
			s-7.355-0.741-9.072-3.254c-0.519-0.76-3.353,0.789-6.903,0.395s-6.312-1.705-6.509-2.184s4.339-0.676,7.297-3.142
			S54.362,121.724,55.94,122.119z M119.554,143.579c-1.519-1.046,2.013-0.278,3.132-0.245c1.94,0.058,8.514,0.022,8.47,0.321
			s-3.101,1.119-4.235,3.203c-0.538,0.989-1.791,3.377-1.7,2.986C125.355,149.27,121.448,144.882,119.554,143.579z M91.74,149.37
			c-0.075,2.114-3.477,2.803-3.579,1.964c-0.049-0.398-0.373-4.623,0.671-4.474S91.814,147.256,91.74,149.37z M78.915,156.182
			c-0.373,2.386-1.417,3.654-2.088,3.579s-2.348-0.967-2.144-4.398s0.428-4.102,1.249-4.4
			C76.915,150.604,79.288,153.796,78.915,156.182z M83.687,167.068c-0.746,0.373-4.693-0.596-4.732-1.417s2.719-2.535,3.018-3.877
			s1.043-6.263,0.671-8.724s-4.921-7.829-4.996-8.426s1.482-0.842,3.504-0.895c1.202-0.032,2.982-0.224,3.057,0.597
			S84.432,166.695,83.687,167.068z M86.893,167.739c0.147-1.417,0.649-6.636,1.182-6.636s3.594,6.337,3.667,7.232
			S86.802,168.617,86.893,167.739z M97.929,169.678c-0.522,0.149-6.036-11.931-6.187-12.378s3.95-2.386,4.323-4.101
			s0.82-5.451-0.075-6.342s-1.64-3.128-1.64-3.128c0.671,0.075,4.304-0.311,4.304,0.063S98.451,169.528,97.929,169.678z
			 M108.519,150.934c-0.97,3.682-1.044,15.031,0,16.216s2.684,3.049,2.609,3.273s-7.63,0.832-7.63,0.012s0.155-25.416,1.125-26.384
			c0.487-0.486,9.638-0.621,9.638-0.322S109.488,147.252,108.519,150.934z M130.366,172.586c-0.671,0.522-6.86-0.522-7.009-1.524
			s1.491-10.257,0.895-10.406s-6.413-1.044-7.159-0.892s-0.82,2.458-0.82,2.756s2.61,1.939,3.058,2.419s0.522,4.739-3.729,3.836
			s-4.026-9.983-2.684-13.763s5.07-4.05,5.965-3.33s1.492,3.754,2.536,3.736s3.54-3.454,3.803-3.736
			c0.77-0.826,0.373,2.561,0.522,6.736s2.162,8.799,4.175,11.261S131.037,172.064,130.366,172.586z M132.156,164.16
			c-1.268,0.149-1.864-3.71-1.79-6.963s0.448-5.504,1.342-5.833c1.45-0.532,2.535,4.22,2.609,6.233S133.423,164.011,132.156,164.16z
			 M138.793,173.107c-0.597,0.149-4.325,0.279-4.101-0.382s2.311-3.644,2.908-6.104s0.447-12.955,0.075-15.687
			s-4.25-6.012-4.623-6.311s2.095-0.474,3.207-0.522c0.819-0.035,2.982-0.224,3.206,0S139.39,172.958,138.793,173.107z
			 M142.521,173.228c-1.149,0.2,0.074-8.928,0.522-8.29s4.102,5.419,4.325,6.123s0.933,1.495,0.858,2.167
			S143.117,173.125,142.521,173.228z M144.013,149.886c0.596-0.267,2.982,0.572,2.982,2.091s-2.833,2.737-3.281,2.091
			C143.47,153.716,143.417,150.153,144.013,149.886z M148.859,164.906c-0.373-0.97-2.386-4.692-2.833-5.143s3.579-3.657,4.325-6.043
			s-0.298-4.698-1.715-5.742s-2.231-3.435-1.044-3.579c1.06-0.128,4.996-0.373,5.07,0s1.268,26.546,1.342,27.142
			S149.232,165.876,148.859,164.906z M167.205,172.725c-0.224,1.203-7.606,0.736-7.606,0s0-27.646,0-28.731
			c0-0.77,7.532-1.13,7.606-0.661S167.429,171.522,167.205,172.725z M182.789,172.725c-0.224,0.233-7.979-0.084-9.544,0
			c-1.256,0.068,0-8.042,0.671-7.819s3.505,2.833,4.325,2.833s3.206-5.944,4.548-5.694S183.013,172.492,182.789,172.725z
			 M179.285,155.436c-1.044,0.298-5.891-11.336-4.399-11.857c1.548-0.541,10.066-0.276,10.439-0.548
			S180.329,155.137,179.285,155.436z M188.308,173.228c-0.224,0.177,0.522-19.36,0.522-21.187s-0.308-9.697,0.522-9.73
			c0.596-0.024,6.263-0.373,6.413,0s-3.803,2.609-4.026,6.562s-0.82,17.418,0.075,18.552s2.766,4.87,3.956,5.388
			S188.531,173.051,188.308,173.228z M197.447,162.892c-1.086-0.075-1.818-2.102-1.564-5.786s-0.258-5.27,1.564-5.782
			c0.986-0.277,3.014,4.572,2.94,7.287S198.534,162.966,197.447,162.892z M206.875,172.725c-0.075,0.457-7.005,0.999-6.485,0.504
			s3.95-4.969,4.771-11.531s-0.412-11.781-1.697-13.794s-3.448-5.763-3.448-5.763c0.746-0.202,5.891-0.469,6.413,0
			S206.949,172.269,206.875,172.725z M211.918,172.361c0.036-1.568-0.419-6.189,0.849-6.189s4.474,5.973,4.325,6.64
			S211.904,172.958,211.918,172.361z M217.613,157.892c-0.671,0.079-7.024-13.366-5.443-13.69c0.765-0.157,5.443-0.72,5.443,0
			S218.285,157.813,217.613,157.892z M202.087,137.601c-4.931,0.099-32.543-0.429-38.756-0.56s-23.667-0.525-23.963-0.624
			s0.077-1.463-1.677-2.768c-0.786-0.585,2.663-1.867,2.564-2.754s1.775,0,3.353,0.887s4.438,1.775,10.157,2.761
			c1.183,0.204,6.607-0.592,8.382-2.071s4.536-1.874,6.508-0.395s10.848,3.649,15.088,2.958s11.439-5.325,12.721-5.325
			s7.495,0.69,9.96,0.789s6.706-1.578,7.791-0.789s4.142,4.998,6.706,5.458s8.875,1.249,8.875,1.249s0.394,0.69-0.69,1.183
			S207.018,137.502,202.087,137.601z M234.838,163.936c-1.268,2.461-4.996,0.671-5.07-0.298s-1.044-1.114-1.044-0.743
			s-3.281,4.366-2.759,4.531s3.281,2.923,4.698,3.669s-6.18,0.906-6.189,0.488c-0.043-2.054-1.491-27.771-0.671-27.738
			s4.25-0.257,5.145,0s-1.492,4.049-0.895,5.993s2.312,5.876,4.25,7.266S236.105,161.475,234.838,163.936z M239.559,168.932
			c-1.813-0.448,1.468-3.053,1.17-6.038s-3.139-6.544-4.026-7.453c-0.755-0.773-4.772-3.67-2.908-5.604s4.697,1.569,4.847,2.204
			s3.952-4.138,3.952-4.138s-3.504-3.794-4.101-4.06s3.355,0,3.355,0l0.746,2.941l1.864-0.373l0.597,22.585
			C245.053,168.998,241.371,169.379,239.559,168.932z M252.66,166.918c-0.224,0.746-3.43,1.044-3.803,1.044s0-20.953,0-20.953h3.803
			C252.66,147.009,252.883,166.173,252.66,166.918z M263.546,166.545c0,0,0-3.877,0-4.101s-4.101,0-4.996,0
			s-0.596-4.474-0.522-4.792s2.983-0.055,3.43-0.167s0.224-3.02,0.075-3.244s-3.207,0.075-3.877,0s0-3.374,0-3.374
			s4.548-0.056,5.07,0s0-4.604,0-4.604s1.25,0,1.417,0c0.671,0,0.671,19.909,0.671,19.909L263.546,166.545z M268.247,147.009
			c0.746-0.149,2.46-0.149,3.096,1.417s-2.574,2.237-3.096,2.442S268.247,147.009,268.247,147.009z M268.694,161.4l0.447-6.786
			c0.522,0,4.996,3.504,4.847,4.474S268.694,161.4,268.694,161.4z M277.94,157.892c0,0-4.176-4.396-4.325-4.62
			s1.64-1.715,1.938-3.206s-0.596-2.833-1.118-3.057c0,0,12.08-0.895,12.08,0S277.94,157.892,277.94,157.892z M295.594,139.935
			c-2.407,1.204-7.901,0.241-13.578,0s-28.783-1.443-33.116-1.203s-12.757-0.722-12.757-0.722s1.204-2.888,0.481-3.37
			s6.98-1.203,8.424-3.851s2.167-8.425-0.481-10.35s-4.333-4.091-1.926-4.332s5.295-2.407,5.295-5.295s0.481-4.333,0.481-4.333
			s0.962-0.482,0.962-1.204s4.092,0.963,5.536-2.166s5.054-11.313-1.204-18.774s-9.387-8.665-17.57-10.109
			s-12.998-1.204-12.998-1.204s-3.006-6.288-8.424-7.943c-8.665-2.647-9.627,1.204-10.831,0.481s-2.648-7.462-6.499-8.424
			s-7.461,0.722-8.665,1.444s-3.851-1.203-4.333-2.407s-4.948-4.786-9.146-5.536c-6.739-1.204-8.424,3.61-11.072,3.61
			s-3.37-3.61-10.59-4.092s-7.461,5.536-10.59,5.295s-4.573-0.963-10.35-0.963s-4.813,5.536-7.461,5.055s-4.784-2.481-10.832-1.444
			c-8.424,1.444-8.424,6.98-8.424,6.98s-7.701-3.439-16.608-3.61c-12.516-0.241-20.699,10.831-20.699,10.831
			s-7.407,0.838-12.275,4.573c-2.536,1.946-5.243,9.647-5.243,9.647s-5.467,1.221-10.643,1.665c-5.275,0.452-6.017,5.055-6.98,5.295
			s-4.814,1.203-6.98,2.407s-3.61,5.536-6.739,4.814s-7.943-3.61-7.943-3.61s-1.572,7.512,5.776,12.034
			c9.387,5.777,22.144,3.37,22.144,3.37l-1.444,1.685l5.295,4.573c0,0,2.889-2.648,5.777-2.407s2.647,1.926,2.647,1.926
			s-2.647,3.61-10.35,3.851s-12.998-1.926-12.998-1.926s3.319,8.828,6.98,11.313c6.739,4.573,19.496,2.889,19.496,2.889l1.685,1.925
			c0,0-29.845,0.481-32.734,0s-15.926-9.449-16.849-23.347c-3.37-50.786,22.144-66.19,22.144-66.19
			c6.258-6.499,31.53-20.218,48.138-28.161s67.634-9.869,75.818-10.109s36.826-1.204,41.64,0s57.058,12.655,76.54,24.069
			c23.828,13.96,31.911,33.013,35.622,40.436c4.333,8.665,5.055,27.68,5.055,27.68s-2.889-0.241-5.055,0s-5.055,1.203-5.055,1.203
			s-1.203-4.333-5.776-5.054c-2.441-0.385-1.926,2.166-4.814,2.166s-7.702-2.166-11.553,0.481s-2.166,5.536-5.776,5.536
			s-6.145,5.612-8.424,6.98c-3.61,2.166-14.201,3.851-14.201,3.851c1.591-0.275,5.536,3.129,8.665,4.092s4.573,3.61,0.722,4.091
			s-11.313,0-11.313,0s2.167,4.333,2.167,5.295s8.665,0.723,13.96,1.926s17.812,1.444,19.737,1.203s19.015,0.084,19.015,0.084
			S298.001,138.731,295.594,139.935z M300.743,120.963c1.032,0.958,3.611,4.202,3.611,4.717s-15.626-0.885-17.321-0.59
			s-11.129,0.221-12.014-0.147s-5.896-7.444-7.076-7.444c-1.032,0,3.464-3.169,4.127-3.611s2.728-0.59,3.243,0.958
			s2.064,4.865,2.875,4.717s3.243-2.949,3.759-2.985s-0.442-3.363,2.138-2.99s3.759,1.626,3.759,3.911s3.833,0.663,4.57,0.221
			s-0.442-6.56,2.58-5.896s3.907,4.349,3.096,5.97S299.711,120.005,300.743,120.963z M303.765,110.939
			c-2.064-0.369-3.169-4.165-5.602-3.925s-4.202,0.977-5.233,1.124s-5.018-1.4-6.857-1.4c0,0,2.067-3.979,6.268-3.464
			s3.98,1.179,3.98,1.179s0.884-2.008,3.685-1.225s3.022,4.173,4.349,4.1s3.022,0.001,3.022,0.001l1.253,1.841
			C308.629,109.17,305.829,111.308,303.765,110.939z M310.767,123.395c-0.885,0.295-5.233-5.159-6.413-5.307h0.369
			c0.516-0.516,5.528-4.57,6.928-3.169S311.652,123.1,310.767,123.395z"/>
		<path d="M79.325,30.634c-0.23-0.406,1.61-2.476,1.61-2.476s-1.15,0.123-2.069,0.007s-3.679,1.15-5.749,1.725
			s-10.232,3.219-10.232,3.219s1.839,9.198,2.185,8.623s7.933-3.909,7.933-3.909s0.23,1.38,1.84,4.829s4.254,9.428,4.139,10.232
			s-5.634,4.714-5.634,4.714s1.725,4.139,2.415,4.139s11.038-5.749,11.038-5.749s-3.564-15.981-4.599-18.971
			S79.555,31.04,79.325,30.634z"/>
		<path d="M91.742,17.128c-0.919-0.345-5.519,2.069-5.519,2.069s-1.955,0.805-2.759,0.805s-4.369,2.759-4.369,2.759l3.104,5.396
			l2.759-1.142l0.92-3.449c0,0-0.46-0.69-1.035-1.265s-0.115-1.724,1.379-1.568s4.714,3.638,4.714,3.638l3.679-1.61
			C94.616,22.762,92.662,17.473,91.742,17.128z"/>
		<path d="M96.226,35.754c0-0.92,0.46-6.668,0.46-6.668h-5.174c-0.115,6.438,1.725,12.992,1.725,12.992l4.139-1.495
			C97.375,40.583,96.226,36.674,96.226,35.754z"/>
		<path d="M104.849,24.716c-1.035,0.919-4.024,1.265-4.024,1.265s0.115,1.725,1.265,4.829s0.575,8.278,0.115,12.417
			s-5.519,11.038-5.519,11.038h7.933c0,0,4.723-6.438,4.599-15.062c-0.096-6.703-1.725-16.577-1.725-16.577
			S105.884,23.797,104.849,24.716z"/>
		<path d="M129.683,35.581c0-1.438-3.104-9.83-3.794-11.325s-0.92-8.508-0.92-8.508s-7.013,1.955-8.738,2.185
			s-3.564-0.838-3.564-0.838s0.69,7.622,0.69,8.197s6.668-0.345,6.668-0.345s3.033,6.856,3.952,9.73s-0.158,9.815-0.273,10.271
			s-7.014,2.648-7.014,2.648l3.104,5.979c0,0,1.15,0.23,2.529-0.575s9.658-2.53,9.658-2.53s-0.115-4.369-0.575-5.522
			S129.683,37.019,129.683,35.581z"/>
		<path d="M133.477,13.219l-3.794-1.15c0,1.495-2.875,6.208-2.875,6.208l7.818,4.349c0,0-0.46-2.394-0.69-3.544
			S133.477,13.219,133.477,13.219z"/>
		<path d="M142.56,20.118l-0.92-7.128l-3.679-0.46c0,0-0.575,2.185-0.805,2.645s2.185,4.944,2.185,4.944H142.56z"/>
		<path d="M139.851,25.406c0,0-1.02,5.576-0.625,7.761s-0.919,7.761-0.919,7.761l5.059-0.805c0,0,0.805-3.564,0.92-5.446
			s0-9.271,0-9.271H139.851z"/>
		<path d="M152.448,19.313c-1.609,0.805-3.794,0.805-3.794,0.805s2.414,8.968,1.149,17.016c-0.821,5.225-3.104,11.958-2.415,11.498
			s8.623-0.805,8.623-0.805s1.15-1.955,1.15-12.245s-2.069-17.188-2.069-17.188S154.057,18.508,152.448,19.313z"/>
		<path d="M176.132,40.238c-1.149,0.345-2.989-0.575-2.989-1.035s0.575-2.07,0.839-3.622s1.345-4.311,1.345-4.311l8.278-0.92
			c0,0-0.115-2.529-0.345-3.449s-6.093-0.92-5.863-2.529s-0.115-4.254-0.115-4.254l6.438-0.805c0,0,1.495-6.553,0.575-7.013
			s-9.083-0.575-10.233-0.23s-10.692,0.46-10.692,0.46c-0.806,0.012-0.345,6.553-0.345,7.128s5.049-0.673,6.898,0
			c1.265,0.46,0.575,3.679,0.575,4.139s-9.858,1.149-9.858,1.149s0.89,4.369,1.58,5.519s4.599,1.15,4.599,1.15
			s-3.334,12.992-2.529,13.333s5.289,2.763,9.083,2.648s11.222-1.265,11.222-1.265l-2.829-7.128
			C181.766,39.203,177.282,39.893,176.132,40.238z"/>
		<path d="M195.677,29.734c0.805-1.65,0.805-4.328,0-5.133c-0.753-0.754-8.563-1.827-9.553-1.96
			c1.112,0.436,6.679,9.894,6.679,9.894S194.873,31.385,195.677,29.734z"/>
		<path d="M200.621,35.581c0,0-7.933,5.921-9.471,6.956s-2.687-0.204-3.636,0.805c-1.84,1.955,8.278,6.094,8.278,6.094
			s3.679-4.829,4.829-6.898S200.621,35.581,200.621,35.581z"/>
		<path d="M217.292,46.561c-0.919-2.089-2.499-5.763-2.069-6.208c1.839-1.907,0.472-1.268,3.564-10.118l-1.265-8.278
			c0,0-1.839-1.725-3.334-1.839s-8.278-3.794-8.278-3.794l-0.23,10.348l7.014,0.907c0,0-1.265,6.796-4.599,12.43
			S197.287,50.24,197.287,50.24l0.977,7.233c0,0,6.381-2.634,8.681-4.474s3.564-2.299,4.714-2.644s7.128,9.083,7.013,8.738
			s4.254-4.829,4.254-4.829S218.557,49.436,217.292,46.561z"/>
		<path d="M238.217,29.734c-1.609-0.386-9.198-3.638-9.198-3.638s-0.115,5.403-2.3,8.581c-1.007,1.465-6.323,9.01-6.323,9.01
			s3.679,3.219,4.369,2.644s4.254-4.254,4.254-4.254s4.254,1.265,4.944,2.759s-2.759,8.163-4.599,11.498s-7.703,7.128-7.703,7.128
			s7.813,4.253,9.083,4.254c2.759,0.001,10.348-12.762,11.727-18.281s1.955-17.706,1.955-17.706S239.827,30.12,238.217,29.734z
			 M236.493,39.433c-0.115-0.23-4.599-1.72-4.599-1.72s1.724-2.419,1.495-3.569c0,0,2.53-0.199,3.104,0.533
			S236.607,39.663,236.493,39.433z"/>
		<path d="M262.362,56.334c0,0-3.794-1.265-5.519-2.069s-10.922-4.829-10.922-4.829c-0.802-0.351-3.219,6.898-3.219,6.898
			s0.46,1.725,4.714,2.769s10.922,5.279,10.922,5.279L262.362,56.334z"/>
	</g>
</g>
</svg>
