<?xml version="1.0" encoding="utf-8"?>
<svg version="1.1" id="レイヤー_1" xmlns="http://www.w3.org/2000/svg" xmlns:xlink="http://www.w3.org/1999/xlink" x="0px"
	 y="0px" width="200" height="200" viewBox="0 -65 266 330" enable-background="new 0 0 266.548 290.342"
	 xml:space="preserve">
<g>
	<path fill="#B1C9E9" d="M160.854,158.439L5.468,160.25l9.711,26.337l22.223,29.135l41.15,22.88c0,0,37.035,5.268,37.529,4.938
		s43.291-3.456,46.09-5.267c2.798-1.811,13.826-11.523,26.172-17.942s31.012-25.012,34.469-29.949
		c3.457-4.938,20.015-35.069,20.015-35.069L160.854,158.439z M39.042,196.024c-0.387,3.877-0.775,8.994-2.636,8.451
		s-6.436-4.265-6.745-5.272c-0.311-1.008-1.24-2.48,0.232-3.334c1.473-0.853,1.783,1.24,2.791,0.854
		c1.008-0.388,3.102-0.388,3.18-3.102c0.076-2.714-0.543-5.428-3.877-9.304s-7.365-6.435-7.908-9.691s2.636-5.04,4.729-5.427
		c2.094-0.388,0.389-1.085,2.559-1.551c0.553-0.118,2.403,0.388,2.714,1.628s0.774,2.248,0,2.713s-4.497-0.155-4.651,0.388
		c-0.155,0.543-1.164,0.465-0.775,2.403c0.387,1.938,1.24,5.118,2.403,6.125s3.257,2.558,4.342,4.109S39.431,192.147,39.042,196.024
		z M59.434,218.276c-0.155,0.232-5.815,0.854-5.815,0.466s-1.551-14.11-1.86-15.352s-0.31-4.188-1.008-4.963
		s-3.954-6.357-4.187-7.521s-0.854-3.334-1.24-2.946c-0.389,0.388-0.466,2.326-0.156,4.497c0.311,2.171,1.086,15.662,1.086,16.05
		s-0.232,1.473-0.62,2.403s-1.474,3.178-1.628,2.248c-0.155-0.93-0.854-19.692-1.164-20.624c-0.31-0.93-1.551-8.684-1.705-10.699
		s-0.62-10.622,0-11.63c0.776-1.262,2.326,1.939,3.256,3.102c0.932,1.163,3.489,6.435,4.032,9.148s2.946,6.281,3.179,6.901
		c0.232,0.619,1.396,0.62,2.248,0c0.854-0.621,0.854-0.287,0.775-3.284c-0.077-2.997-1.24-5.788-1.24-7.881
		s-0.155-6.358,0.465-6.203c0.621,0.155,2.715-0.311,2.715,0.62s1.55,12.041,1.395,13.464c-0.154,1.423-0.619,8.013-0.31,8.866
		c0.31,0.853,1.551,12.251,1.783,13.568S59.589,218.044,59.434,218.276z M78.196,200.599c-0.465,0.621-3.023,3.414-3.488,3.917
		c-0.466,0.503-5.428,1.589-5.583,0.813s-0.465-3.025-1.008-4.343s-1.784-1.162-2.481-5.117c-0.697-3.953-1.24-8.141-1.551-8.838
		s-2.326-3.567-2.016-5.583s1.24-2.17,1.473-3.721s-0.154-2.714,0.854-2.869s3.722-1.628,4.42-1.938
		c0.697-0.31,1.628,0.154,2.868,0.465c0.526,0.132,2.559-0.388,3.257,0.388c0.697,0.775,4.264,4.42,4.264,7.133
		s0.931,9.846,1.24,11.243C80.755,193.543,78.661,199.978,78.196,200.599z M106.961,176.796c-0.233,1.473-1.706,10.002-1.706,11.087
		c0,1.085-1.861,14.344-1.705,14.731c0.154,0.388-0.156,5.35-1.939,4.807s-3.256-6.906-4.264-8.842s-2.934-6.438-3.555-7.291
		c-0.621-0.854-1.252,6.202-1.407,7.291s-1.086,8.691-1.706,8.883s-2.791-10.362-3.334-13.071s-1.783-6.198-2.48-7.826
		c-0.698-1.628-3.645-12.173-3.723-12.871c-0.077-0.698,0.156-1.476,1.474-1.55c0.714-0.041,2.481-0.31,2.946,1.008
		s1.939,6.513,2.016,7.056c0.078,0.542,1.523,4.705,1.757,4.705s1.577-0.053,1.732-0.75s0.775-5.737,0.853-6.513
		c0.078-0.775,0-3.926,0-4.832s0.854-2.766,1.706-2.456s1.938,2.946,2.093,4.032c0.156,1.085,1.318,6.435,1.318,7.598
		s2.171,8.45,2.404,8.993c0.232,0.543,1.628-7.831,1.551-9.226c-0.078-1.396,0.311-11.356,0.543-11.842s5.271-0.641,5.814-0.796
		S107.194,175.323,106.961,176.796z M153.48,171.448c-2.791-0.543-2.791-0.048-3.257,0.208c-0.465,0.256-3.102,2.427-2.713,2.893
		c0.387,0.465,5.814,6.048,6.125,6.668s1.473,6.668,1.628,7.676s-0.155,6.591-2.636,7.831c-2.481,1.24-3.567,2.946-5.506,3.179
		c-1.938,0.232-4.496,0.534-4.496-0.47s-0.931-8.06-0.854-8.446c0.078-0.389,6.671,2.326,7.019,1.86s0.425-4.264,0.735-5.04
		s0.311-2.328-1.008-4.459s-4.73-6.085-5.428-7.869s-1.396-1.938-0.232-4.497s4.574-3.877,6.28-4.419
		c0.89-0.283,6.901,2.327,6.668,3.489S154.342,171.615,153.48,171.448z M169.763,211.145c-0.854-0.31-2.171-3.022-2.248-4.031
		c-0.078-1.009-0.466-8.607-1.164-11.32c-0.697-2.713,0.311-7.908-0.387-8.374c-0.698-0.465-5.35-1.086-5.35-0.853
		s0.465,6.28,0.542,6.979c0.077,0.697,0.388,8.527,0.31,9.381c-0.077,0.854-2.325-1.473-2.325-2.016s0.232-9.555-0.077-11.6
		c-0.311-2.046-0.078-6.62-0.466-7.628s-0.924-13.777-0.543-13.878c0.782-0.208,3.877-0.93,3.8,0.775
		c-0.078,1.706,0.157,4.497,0.001,5.66s-1.009,10.002-0.699,10.002s4.42-0.488,5.272-0.903s0.155-6.54-0.388-8.013
		s0.232-6.055,0.232-6.207s2.093-0.694,2.171,0.469s-0.232,6.9,0,8.296s0.62,11.164,0.697,11.707
		c0.078,0.543,0.621,14.732,0.621,15.353S170.614,211.454,169.763,211.145z M185.19,197.887c-0.465,3.101-1.318,7.133-3.721,7.753
		c-2.404,0.62-5.04-1.938-5.04-1.938s-0.498-0.109-1.551-1.551c-1.474-2.018-0.466-25.508,0-27.292s-0.671-5.464,4.574-6.823
		c2.171-0.563,4.42,4.032,4.729,5.893c0.311,1.861,0.466,8.452,1.008,10.002C185.733,185.481,185.656,194.785,185.19,197.887z
		 M206.744,183c-0.077,1.241-1.474,9.459-1.551,10.313c-0.077,0.853-0.698,4.651-0.62,5.427s-1.008,7.016-1.861,6.997
		c-0.853-0.019-3.023-9.4-4.07-9.013s-1.201,4.497-1.744,5.737s-2.094,6.357-2.559,5.893s-0.697-10.699-1.163-12.096
		c-0.466-1.395-1.318-11.862-2.326-14.576s-1.396-13.043-1.24-13.693c0.073-0.305,1.24-0.418,1.396,0.435s1.628,4.807,2.094,5.427
		c0.465,0.62,2.791,8.195,2.791,9.486s0.775,3.229,1.473,3.074c0.698-0.155,0.854-0.853,1.086-3.412s-0.232-12.793,0-13.258
		s2.016-0.775,2.094,0.078c0.077,0.853,0.775,10.777,0.775,11.397s0.387,9.77,0,10.313c-0.389,0.542,1.318,0.31,1.551,0
		c0.232-0.311,1.938-10.158,1.938-11.088s1.24-12.755,1.551-12.968s1.318-0.678,1.318,0.873S206.821,181.759,206.744,183z
		 M217.442,170.285c-0.619-0.31-3.566-0.232-3.566,0.465s0.233,4.187,0.466,4.962s2.559,0.121,3.566,0.952s1.396,2.304,1.24,3.777
		s-0.698,1.318-1.396,1.473s-2.559-0.698-2.791,0s-0.697,5.125-0.62,5.896s-1.629,4.726-0.62,4.726c1.008,0,2.946-0.698,3.179,0
		c0.232,0.697,0.157,4.173-0.891,4.219c-1.048,0.045-4.692,2.992-4.925,1.053c-0.232-1.938,0.155-8.211,0.232-9.998
		c0.078-1.787,0.776-9.076,0.466-10.316s0.31-9.58,0.31-10.954c0-0.53,5.35-0.099,5.738,0c0.387,0.099,2.17,1.882,2.093,2.27
		S218.063,170.595,217.442,170.285z M224.731,176.664c0,0.753,2.016,4.166,2.248,4.32s-1.24,3.721-1.318,3.489
		c-0.077-0.232-1.473-2.946-1.628-2.481s0.155,4.546,0.077,4.871c-0.077,0.324-1.163,1.262-1.318,0.948
		c-0.154-0.314,0.078-10.161-0.076-11.867c-0.156-1.706-1.171-9.05-0.466-9.071c0.774-0.023,6.28-0.405,7.443,1.116
		s0.31,5.087-0.466,6.25S224.731,175.911,224.731,176.664z"/>
	<path fill="#B1C9E9" d="M73.001,180.13c0-0.542-3.164-0.729-4.031-0.698c-0.934,0.034-1.861-0.078-1.628,0.542s0,4.109,0.465,6.59
		c0.465,2.481,1.009,11.319,1.163,11.862s3.334-0.543,3.645-0.543c0.31,0,1.008-2.402,1.085-4.031s0-7.831-0.698-8.838
		C72.304,184.007,73.001,180.673,73.001,180.13z"/>
	<path fill="#B1C9E9" d="M181.47,177.65c0-0.775-1.125-1.132-1.631-0.931c-0.777,0.31-1.16,0.233-1.703,0.465s0,22.407,0,23.57
		s2.248,0,2.868,0s0.775-3.101,0.466-4.342C181.159,195.172,181.47,178.426,181.47,177.65z"/>
	<path fill="#B1C9E9" d="M225.196,168.579h-0.388c-1.417-0.094-0.62,5.737-0.62,6.435s3.721-1.706,3.877-2.249
		c0.154-0.543,0.077-2.636,0-3.256C227.987,168.889,226.05,168.579,225.196,168.579z"/>
</g>
<path fill="#036EB8" d="M182.202,220.16c-0.992,0.166-22.638-4.957-28.422-7.105c-5.783-2.148-9.748-3.47-16.523-8.758
	c-6.773-5.288-6.609-28.917-6.609-33.378s1.652-6.609,1.652-6.609h-11.731c0,0-0.991,3.14-0.331,6.279
	c0.662,3.139-1.486,13.715-1.156,19.333c0.33,5.618-3.801,7.601-4.957,13.549s-14.706,9.088-15.697,10.079
	c-0.992,0.991-15.367-1.486-21.646-3.139s-8.097-1.983-8.097-1.157s9.089,4.957,8.923,5.783s-1.817,1.157-2.809,1.157
	c-0.992,0-10.245,6.774-8.593,6.113s12.558-3.305,14.046-3.8c1.486-0.495,10.74,1.652,10.74,1.652s-6.279,3.8-11.402,5.617
	c-5.122,1.817-7.766,5.288-6.939,4.958s14.706-3.636,17.35-3.305c2.645,0.331,10.74-5.288,9.914-2.479s-8.427,10.245-9.584,10.741
	c-1.156,0.496-3.469,5.287-3.469,5.287s0,1.652,1.486,1.157c1.488-0.495,7.271-4.131,9.75-4.792
	c2.479-0.661,8.757-4.792,9.088-3.305c0.33,1.487-3.471,4.792-4.957,7.271c-1.487,2.479-1.818,4.626,0.826,2.142
	c2.644-2.484,8.922-6.107,10.905-8.091s4.461-5.287,4.461-4.792s2.148,10.575,2.975,11.401s6.114,2.479,5.813,0.661
	s1.788-11.731,2.944-12.063c1.157-0.331,5.949,9.584,6.445,10.575c0.495,0.991,2.479,0.992,2.644,0s-0.661-2.974-0.826-4.626
	s5.288,3.14,6.278,3.305c0.992,0.165,0.992-1.652,0.992-1.652s-4.461-5.123-7.105-8.428s-3.14-3.635-4.131-3.635
	s-0.661-4.792-1.156-9.253c-0.496-4.461,1.486-0.496,2.147-0.166s8.097,8.593,10.741,10.245c2.644,1.652,1.982,5.287,1.982,6.609
	s4.461,6.279,4.461,6.279h3.14c0,0-2.147-7.767-1.983-8.593c0.166-0.826,3.306,2.81,5.453,4.296
	c2.148,1.486,9.254,4.297,9.254,4.297s-6.444-8.097-8.097-11.566s-3.966-3.306-5.288-4.607c-1.321-1.302-5.453-3.324-3.676-3.489
	s3.842,0.33,6.65,1.321s13.054,1.817,15.037,2.148C175.097,223.961,183.193,219.994,182.202,220.16z M113.298,223.96
	c0,0.991-3.305,3.636-4.627,4.627s-5.453,1.652-5.453,1.652s7.271-9.088,9.088-11.401c1.818-2.313,5.949-6.444,5.949-6.444
	S113.298,222.969,113.298,223.96z M125.667,237.555c0.556,0.801,0.836,1.076,0.354,0.616
	C125.879,238.035,125.766,237.814,125.667,237.555c-1.095-1.58-3.279-5.244-2.951-9.629c0.496-6.609,3.801-13.384,3.801-13.384
	c0,0.495-0.991,12.888-0.991,13.384C125.525,228.373,124.772,235.2,125.667,237.555z"/>
<g>
	<path fill="#036EB8" d="M235.784,71.831l-18.177-30.45l-38.004-27.382l-32.339-9.442l-41.78,2.833L61.343,26.51L29.004,54.363
		L11.064,92.131l-6.609,34.227l2.36,37.532c0,0,93.947,0.944,96.78,0s61.137-2.36,67.038-2.833s62.081-2.596,63.733-2.596
		s7.79,0,7.79,0l6.137-44.377L235.784,71.831z M20.692,151.729c-0.718,2.256-2.975,0.718-3.385,0.82s-2.461,0.219-3.077,0.417
		s-1.949-6.982,4.513-4.931C20.048,148.45,21.41,149.473,20.692,151.729z M23.052,103.313c0,0-0.615,1.744-1.23,1.436
		s-4.207-3.795-3.591-5.539s2.993-2.762,4.821-2.359c0.802,0.177,3.693,0.41,3.898,3.385S23.052,103.313,23.052,103.313z
		 M220.569,85.362c0.353-1.026,3.01-3.367,4.005-2.359c0.845,0.855,2.298,2.565,1.682,3.385s-1.128,2.667-2.975,2.564
		S220.216,86.388,220.569,85.362z M37.618,144.548c-1.026-0.103-4.309-1.944-4.719-3.793s2.051-4.721,4.719-3.797
		c1.673,0.579,4.513,4.309,4.513,5.026S38.644,144.651,37.618,144.548z M60.286,129.452c0.104-0.598,4.01-2.946,5.643-1.316
		c1.025,1.025,2.055,0.206,1.335,3.59s-2.874,1.744-4.413,1.539C61.313,133.06,60.185,130.05,60.286,129.452z M65.313,157.576
		c-1.847-0.308-1.539-0.821-1.129-2.154s1.437-3.897,2.052-3.692s1.409-0.347,2.257,0c1.266,0.519,2.256,1.436,2.154,3.282
		C70.544,156.857,67.159,157.883,65.313,157.576z M94.548,146.087c-1.641-1.128-3.077-2.052-2.872-3.59s2.667-2.226,5.539-1.831
		c1.476,0.203,2.052,1.934,2.052,3.268S96.188,147.216,94.548,146.087z M106.036,155.627c-0.615,2.77-5.846,1.436-6.77,0.513
		s-1.641-1.701-1.334-2.338c0.309-0.637,3.59-3.457,6.359-3.483C105.778,150.305,106.652,152.857,106.036,155.627z M144.812,155.729
		c-1.539,0-2.975-1.436-2.564-3.385s2.769-2.513,4.82-2.026c1.151,0.273,2.462,1.102,2.462,2.846S146.351,155.729,144.812,155.729z
		 M149.529,133.842c-0.103,2.808-2.975,2.808-4.103,3.013c-1.129,0.206-3.181-2.359-2.258-4.411
		c0.924-2.051,2.564-2.701,4.309-1.739C148.481,131.259,149.632,131.034,149.529,133.842z M161.53,144.344
		c-2.154-1.333-2.256-2.958-2.051-3.787s2.488-2.707,4.103-1.752c1.313,0.776,2.564,1.333,2.564,4S163.685,145.677,161.53,144.344z
		 M183.892,147.626c-0.205,2.462-3.59,2.564-4.205,1.641s-2.871-1.333-2.154-2.154c0.719-0.821,1.434-4.164,2.975-3.623
		C181.671,143.899,184.097,145.164,183.892,147.626z M200.1,151.627c-1.743-0.205-4.411-0.495-3.692-3.684
		c0.718-3.189,2.461-5.138,5.334-3.702c0.917,0.459,2.256,0.923,2.154,3.488C203.792,150.293,201.843,151.832,200.1,151.627z
		 M203.382,68.949c0.922,0.308,4.82,5.026,5.436,5.437s-6.564,1.472-7.077,0.89s-5.54-3.967-5.745-3.659s-1.537,0.308-0.82,1.026
		c0.719,0.718,6.155,5.437,6.463,5.847s-4.924,0.411-7.181-0.41s-4.411-2.154-5.949-2.257s-2.667,0.513-2.462,1.231
		s1.23,3.077,2.667,2.975s-3.591,1.333-5.437,0.103s-1.539-1.641-2.667-1.539s-1.847,0.103-1.847,1.026s-0.513,2.051,0.205,2.051
		c0.719,0,4.411,0.923,4.514,1.641s-7.898,0.718-8.001,0s-1.128-1.744-1.642-0.615c-0.512,1.128-5.23,3.385-5.436,3.795
		s-3.078,4.309-4.719,5.334s3.897-0.615,4.719-1.231c0.82-0.616,8.309-1.641,9.642-2.564s6.668-2.769,7.386-3.077
		s5.539-2.77,6.257-3.18s7.693-1.641,8.821-1.949c1.129-0.308-4.924,3.376-3.897,4.611s4.103,2.774,4.923,4.723
		c0.821,1.949,1.129,3.385,0.821,3.487s-6.052-3.385-6.771-4.206c-0.717-0.82-2.461-3.487-3.18-3.282
		c-0.718,0.205-3.691,1.641-2.975,1.949c0.719,0.308,3.077,1.436,3.795,2.667c0.672,1.151,2.318,3.355,2.949,3.723
		c0.163,0.062,0.223,0.092,0.129,0.073c-0.033-0.007-0.086-0.048-0.129-0.073c-0.73-0.278-3.583-1.213-4.59-1.465
		c-1.23-0.308-3.898-2.873-4.41-2.975c-0.514-0.103-2.873-0.307-2.873,0.308s3.283,4.103,4.514,4.411s-1.334,2.051-3.282,0.513
		s-5.231-2.975-5.231-2.975s-4.924,2.667-5.642,3.693s-0.821,0.82,1.231,1.641c2.051,0.821,11.488-1.437,11.693-0.718
		s-3.282,3.693-2.667,3.693s11.489-1.436,12.104-0.718s-2.77,3.487-2.154,3.59s11.078,3.488,11.796,3.693s-3.386,2.667-5.129,2.462
		s-10.976-3.795-11.591-3.898s-1.334,2.564-1.025,4c0.307,1.436-1.744,0-2.154-1.847s-1.539-3.487-2.359-3.692
		s-2.872-0.923-3.693-0.821c-0.82,0.103-0.205,2.975-0.718,2.872s-5.538-4.411-7.591-5.539c-2.051-1.128-2.358-2.667-4.205-2.359
		s-4.821,2.359-6.463,2.462c-1.641,0.103-4.615,2.154-4.719,2.564c-0.102,0.41-1.743,1.025,0.616,1.641s5.54,1.128,8.001,1.436
		s9.129,1.231,9.744,1.231s2.77-0.102,2.257,0.718s-2.153,1.641-1.128,2.256s9.129,0.411,9.437,0.718s-4.206,3.488-3.282,4
		s7.181-0.102,10.155,0.923s-1.743,2.963-2.462,2.61s-1.642,2.211-0.924,2.313c0.719,0.103,5.848-1.128,7.078-0.308
		s2.462,1.23,2.667,1.744s-2.872,1.744-2.564,2.462s4,3.59,2.872,4.308s-4.924-1.334-6.873-2.462
		c-1.948-1.128-5.128-6.154-6.154-6.359c-1.025-0.205-0.102,3.795-0.307,4.513c-0.206,0.718-3.386-3.282-3.693-4.206
		s-0.103-3.692-2.77-4.718s-8.104-4.104-9.949-4.616c-1.848-0.513-6.36-1.949-7.592-1.949c-1.23,0-3.324,0.103-2.738,1.231
		c0.585,1.128,3.765,1.128,5.508,2.77c1.744,1.641,1.334,2.257,2.77,2.77c1.437,0.513,3.283,1.732,5.744,2.507
		c2.463,0.775,4.617,3.134,5.129,3.339c0.514,0.205-4.102,0.923-3.385,1.539c0.719,0.616,4.617,2.564,5.643,2.564
		s2.153,1.23,2.153,1.744s-6.462,1.231-6.052,1.847s3.898,1.128,5.129,1.949s3.795,1.145,3.897,1.957s-3.386,1.428-2.975,2.043
		s1.538,3.167,1.231,3.635c-0.309,0.468-5.539-4.566-6.359-4.972c-0.821-0.406-4.309-4.715-5.232-6.356
		c-0.923-1.641-7.488-5.95-7.59-6.873c-0.104-0.923-4.043-2.461-5.611-3.59c-1.569-1.128-6.391-2.745-7.313-3.681
		s-5.231-3.089-5.231-3.089s1.654,4.206,2.674,4.513s1.531,2.462,1.531,2.462s-4.944-0.205-4.831,0.103s-1.631-0.729-1.631,0.866
		s1.415,3.032,1.631,4.16s-3.3-1.231-3.3-1.231s-2.639-1.744-4.588-1.436s-4.104,1.23-4.514,1.949s-2.256,8.678-1.846,8.904
		s0.102,17.016,0.102,20.058s-4.309,10.223-4.615,10.223c-0.309,0-10.565,0.923-10.565,0.923s-0.308-12.787,0.103-14.856
		s4-14.462,4-16.933s-0.512-4.729-0.512-4.729c-1.129-0.513-4.513-0.821-6.052-1.231s-2.565-0.923-3.077,0
		c-0.514,0.923-0.924,3.278-1.539,3.845s-1.436,0.669-1.436,0.669s-0.924-1.847-1.231-1.847s-0.937,0.718-0.93-0.103
		s1.545-1.856,0.725-3.082s0.308-1.842-1.743-1.124c-2.053,0.718-3.898,4.817-4.001,5.486s-0.718,1.882-0.718,1.882
		s-1.334,0.731-1.744-1.882s-0.66-4.152-0.895-4.152s-3.926,0.821-3.926,1.231s-1.787,6.462-2.278,7.078s-1.519-0.923-2.03-2.872
		c-0.514-1.949,0.205-0.722-1.025-1.284c-1.231-0.562-2.771,1.044-3.488,1.882s-0.718,0.428-0.718-0.701s-2.462-0.62-1.642-1.182
		s5.539-3.537,4.616-4.665s-2.975-3.898-1.538-4.616c1.436-0.718,6.358,1.231,7.897,1.128s8.925-3.282,10.565-3.487
		s4.309-1.026,4.924-0.718s7.283,2.257,8.001,2.462s2.052,1.128,3.282,1.026s-2.77-6.052-5.026-5.95s-3.487-2.359-5.334-2.154
		s-4.103,2.359-5.231,1.641c-1.128-0.718-2.051,0.513-2.359,0.615c-0.307,0.103,2.463-2.872,1.129-2.975s-3.388,1.026-4.412,1.847
		s-4.717,2.359-5.846,2.461s-3.487,0.513-3.282-0.205s1.552-1.403,2.052-3.077c0.308-1.032-4.104,0.205-4.206,0.615
		s-3.282,5.847-4.001,5.95c-0.717,0.103-0.512-2.462-0.82-3.385c-0.307-0.923,0.588-1.642-0.578-1.333s-3.832,0.513-3.832,1.026
		s-2.564,5.436-2.975,5.744s0.82-4.103,0-4.411s-2.564,0.308-3.385,0.923c-0.821,0.615-0.616-0.308-0.821,0.615
		s-1.846,4.924-2.257,5.026c-0.41,0.103-1.264-2.873-1.812-3.693s-3.728,0.821-4.343,0.923s-3.078,0.718-3.693,0.718
		s1.232-3.18,1.643-3.487s5.334-1.538,5.641-1.744c0.309-0.206-0.82-2.052-1.333-2.359s-1.718,0.103-1.526-0.308
		c0.193-0.411,3.681-2.373,5.629-1.853c1.949,0.52,2.359,2.366,3.18,2.366c0.821,0,5.335-2.136,3.591-2.453
		s-3.692-1.855-3.487-2.266s6.462-0.82,6.77,0s-0.102,1.436,2.052,0.718s5.026-2.462,5.744-2.462s-1.538-0.644-2.77-0.989
		s-3.282-1.883-4.206-1.883c-0.923,0-7.785,3.18-9.739,3.488s-6.878,2.359-7.596,2.975s-1.864,1.949-2.778,1.949
		s-2.76,0-3.171,0.821s-1.128,1.949-2.154,3.18s-0.103,1.744-1.026,1.231c-0.923-0.513-2.461,7.078-2.975,8.206
		c-0.513,1.128-2.462-4.513-3.077-5.437s-3.179-0.103-5.026,0.718c-1.846,0.821-3.076,1.744-2.975,0.821
		c0.104-0.923,4.411-4,3.385-5.642c-1.025-1.641-4.719-2.462-5.025-3.18c-0.309-0.718,2.872-2.461,4.41-2.461
		c1.539,0,2.258,0.103,2.873-0.718s1.23-1.129,3.281-0.923c2.053,0.206,2.873,0.719,3.796,0.206s4.205-1.539,3.385-2.77
		s-9.026-3.59-8.411-3.898s9.027-0.82,10.36,0s3.487,1.539,4.001,1.436c0.512-0.103,4.103-1.949,4.205-2.667
		s-0.525-0.513-2.263-0.513s-10.251,0.308-10.046-1.128s4.205-0.687,4.205-1.831s-4.924-3.811-4.616-4.426s5.539,2.564,6.257,2.564
		c0.719,0,2.873-0.615,2.873-1.539s-4-2.154-7.591-4.103s-6.462-3.898-6.462-3.898s4.924,0.308,5.436,0
		c0.514-0.308-4-5.334-5.129-7.386c-1.127-2.052-1.23-6.155-1.23-6.462s4.924,5.334,5.848,5.539
		c0.922,0.205,1.025,2.565,1.641,2.052s0-5.231,0.924-5.334c0.922-0.103,1.846,8.309,2.871,9.334
		c1.026,1.025,4.232,5.847,5.039,5.539c0.809-0.308-1.448-2.77-2.371-5.129c-0.924-2.359-1.557-5.847-1.24-6.462
		s3.598,5.231,5.035,8.001c1.436,2.77,1.744,4.308,1.641,5.539c-0.102,1.231,3.078,2.462,3.385,2.052
		c0.309-0.411-2.358-4.206-2.153-6.052s-0.684-3.795-0.684-3.795s3.761,4.616,4.479,6.36s2.154,6.77,3.386,6.77
		c1.23,0-0.82-8.514-0.104-8.514c0.719,0,5.027,6.667,5.438,8.001s0.615,2.359,1.23,2.359s5.949,0.513,6.975,0.411
		s-3.693-5.026-6.052-6.462s-6.462-6.564-8.924-8.616s-3.693-4.104-4.514-4.514s-8.429-4.103-9.138-5.539s-3.376-4.103-2.658-4.923
		s5.129,3.795,6.77,3.385c1.642-0.41-1.436-3.795-2.051-5.334s-2.89-5.334-2.061-5.437s1.753-0.718,2.368,0.718
		s0.513,3.077,2.563,5.437c2.053,2.359,2.053,4.308,1.848,4.616s0.479,1.334,0.444,1.847s1.606,2.052,2.53,1.333
		c0.923-0.718-0.309-4.924-0.616-6.565s-1.538-4.103-1.025-4.103s4.718,4.616,4.923,5.642s1.437,6.976,1.437,7.796
		s-0.205,4.923,1.128,5.333c1.334,0.411,2.877,1.941,3.593,1.637s-1.745-9.331-1.438-9.843c0.309-0.513,2.668,3.385,2.975,4.103
		c0.309,0.718,1.436,5.027,1.847,6.976s2.153,3.488,2.975,4.411s7.899,7.59,8.72,7.795s5.23,1.539,6.154,1.026
		c0.923-0.513-7.283-5.949-8.309-7.59s-3.385-4.513-3.385-5.642s4.513,3.385,5.949,3.385c1.436,0,3.59,1.641,4.41,1.641
		s3.488-1.436,1.847-2.667S90.036,76.232,88.702,74.693c-1.333-1.539-5.539-5.231-6.154-6.155s-6.052-4.718-6.052-4.718
		s0.409-1.539,2.153-1.539s0.205-0.745-0.102-1.757c-0.309-1.012-1.643-2.346-2.359-2.551c-0.719-0.205-5.438-0.615-6.771-2.051
		s-2.872-3.18-2.872-3.18s5.643,1.539,7.488,1.128s0-1.026-0.514-2.667c-0.512-1.641,0.615-2.359,1.334-1.436
		s3.077,3.488,3.693,4.616c0.615,1.128,0.209,2.564,0.925,2.564s-0.104-3.795-0.823-4.821c-0.717-1.026-2.051-2.873-2.051-3.693
		s0.82-0.307,0.205-2.461s-1.437-1.539-1.949-2.975c-0.422-1.183-1.053-3.962-1.606-5.079c-0.32-0.333-0.479-0.529-0.343-0.46
		c0.109,0.054,0.225,0.221,0.343,0.46c1.11,1.156,4.263,4.053,4.581,4.053c0.41,0,0.825-2.36,1.644-3.283s3.485-2.461,3.588-2.051
		s-1.948,6.462-1.847,7.283c0.104,0.821-0.307,3.795,0,4.308c0.309,0.513,2.258,6.976,2.154,8.719
		c-0.102,1.744-1.025,3.795-0.513,4.923s2.872,2.564,3.591,2.872c0.717,0.308,0.923-4.206,1.333-4.411s3.181,4.821,3.591,5.949
		s-1.129,3.487-1.231,4.103s4.719,5.95,5.437,5.95s-0.103-6.668-0.103-7.283s1.641,1.642,2.563,3.385
		c0.924,1.744,1.231,5.231,1.334,6.052s-0.41,1.847-0.103,1.949s8.309,6.667,8.309,6.667s-7.077-16.002-7.077-17.541
		s-3.283-6.052-4.104-6.975s-9.026-5.334-8.821-6.155s3.18,0.205,4.616,0.205c1.436,0,0.102-1.333,0.102-3.18
		s-1.332-2.257-1.948-2.462s-6.155-3.385-6.667-4.821c-0.514-1.436,3.076-1.744,4-1.744s2.051,0.718,1.744-0.923
		c-0.309-1.641-2.873-3.693-2.873-3.693s6.975,2.461,7.488,4.513s2.051,5.539,2.667,5.231s1.231-5.847,1.231-5.847
		s1.23,3.795,0.923,6.975s-1.641,5.539-1.948,5.847c-0.309,0.308,2.666,2.975,3.076,4.103s3.077-5.231,3.59-5.847
		c0.514-0.615,0.616-1.539,0.616-1.539s0.82,4.206,0.308,5.949s-1.539,4.616-1.539,4.616s0.309,9.539,1.026,9.026
		s3.282-7.59,3.796-7.693c0.512-0.103,0.718,3.693,0.102,5.437c-0.615,1.744-1.949,5.128-1.949,5.128s3.078,5.642,4.001,5.642
		s2.462-3.898,2.462-5.334s1.025,2.257,0.924,4.411c-0.104,2.154-1.848,5.437-1.848,5.437l8.412,12.104l-2.462-16.31l-2.667-8.719
		l-5.642-3.795c0,0-0.514-2.256-0.206-2.359c0.309-0.103,2.668-0.103,3.488,0.103s1.129-2.359,1.129-2.359l-2.053-7.283
		c0,0-5.23-3.488-5.744-3.898c-0.512-0.41-3.281-2.052-3.281-2.052l6.667,0.308c0,0,2.564,1.744,2.975,1.231
		s-0.103-5.026-0.308-6.052s-9.13-5.333-9.848-7.283s3.897-0.308,4.719-0.308c0.82,0,4,3.078,4.82,2.667s-0.82-6.975-0.82-6.975
		s-5.129-2.975-6.359-3.693c-1.231-0.718-4.822-1.539-4.206-2.257s4.206-0.923,5.129-0.923s2.872,1.641,3.385,1.641
		s-0.616-7.488-0.103-8.001s3.898,2.769,3.898,3.487s0,4.309,0.615,4.411s4.718-4.001,5.334-4.719
		c0.615-0.718,0.718,0.308,0.718,0.308s-1.743,5.027-2.975,5.745s-2.564,1.333-2.462,1.949s1.846,5.642,1.846,6.667
		s4.002-4.821,4.514-5.231c0.514-0.41-1.025,6.462-1.333,7.078s-2.359,1.437-2.257,2.154s0.718,7.693,1.539,7.488
		c0.82-0.205,3.691-4.616,4.205-4.206s-0.615,6.463-1.23,7.386s-2.359,1.641-2.052,2.359s0,7.078,1.333,6.873
		c1.334-0.205,3.795-5.437,4.616-5.437s-1.231,7.488-1.231,8.206s-2.666,2.77-2.358,3.385s4.41,20.925,5.847,23.182
		c1.225,1.925,1.922,3.478,2.102,3.896c-0.275-0.657-1.641-4.079-1.179-6.666c0.513-2.872,1.743-6.873,1.231-7.693
		c-0.514-0.82-4.924-7.693-4.924-7.693s4.205,0.308,5.539,1.641c1.333,1.333,1.744-4.513,1.744-4.513s-4.309-6.976-4.001-7.488
		s3.487,0.103,5.231,2.564s2.256-6.257,1.744-7.078c-0.514-0.821-6.873-2.154-7.078-3.385s0.205-2.975,0.205-2.975
		s4.41,2.36,5.129,2.052s-1.846-7.898-2.256-8.001c-0.411-0.103-6.258-3.385-6.977-4.411c-0.717-1.026-0.307-2.667,0.924-1.949
		s4.821,0.718,5.129,0.205s-0.205-5.745-1.539-6.667c-1.333-0.923-6.872-4.923-6.872-5.231s2.052-1.744,3.077-1.333
		s3.488,1.538,4,0.82c0.514-0.718,0.821-10.155,1.437-10.155s2.771,7.181,2.257,8.104s-0.924,4.513,0.615,5.026
		s2.872-5.231,4.104-5.128c1.23,0.103,1.641,6.257,0,7.693c-1.642,1.436-2.975,2.461-2.77,2.872s1.23,3.898,1.743,3.795
		s3.282-5.642,4.206-5.334c0.923,0.308-1.025,6.462-1.129,6.77c-0.102,0.308-2.257,1.641-1.539,2.462
		c0.719,0.821,1.438,4.616,1.438,5.334s-1.232,1.538-0.411,2.051s2.153-2.564,2.872-5.539s4.411-15.181,4.616-15.694
		s0.29-1.293,1.333-1.128c1.949,0.308-0.512,6.155,0,6.565c0.514,0.41,3.488-2.667,4.616-2.77s7.591-1.744,7.591-1.744
		s-5.438,4.513-7.283,5.026s-5.025,2.257-5.025,2.257s-2.668,5.334-1.848,5.539c0.821,0.205,7.797-1.128,8.925-1.231
		s1.436,0.206,0.615,1.026s-4.615,2.769-4.923,3.282c-0.309,0.513-6.36,4.103-6.36,4.103s-1.231,4.924-0.718,4.924
		c0.513,0,7.693-3.283,7.693-3.283l-2.258,3.078c0,0-6.154,2.872-6.154,3.385s-2.871,7.591-2.871,7.591s-2.36,8-1.848,9.231
		c0.514,1.231,5.232-1.914,5.95-1.675s-0.41,3.316-0.41,3.316s-4.821,1.641-4.924,3.077s-2.77,6.77-2.359,7.59
		s-1.333,9.95-0.205,9.95s1.538,0.615,1.948-0.923c0.411-1.539,3.898-9.642,4.822-12.514c0.923-2.872,5.641-14.36,5.641-15.386
		s-2.77-4.514-2.871-5.745c-0.104-1.231,2.666-0.821,2.975-0.103c0.307,0.718,1.129,2.564,1.949,2.359s3.385-5.026,3.385-5.744
		s-1.334-3.282-1.437-4.513s3.796,0.513,4.103,0c0.309-0.513-0.103-2.564,0.309-4c0.41-1.436,2.872-3.077,3.18-4.206
		s-1.642-4.822-1.744-5.745s-1.847-4.411-1.334-4.411c0.514,0,3.488,3.385,4.104,3.077s2.256-5.026,2.872-5.026
		s0.308,2.975,0.616,3.077c0.307,0.103,1.743-2.154,1.846-1.231s-1.025,4.206-0.923,5.231s-0.308,2.564,0.308,2.462
		s2.666-0.616,3.692-0.616s-2.769,4.514-3.59,4.821s-2.667-0.719-3.591,0.923c-0.922,1.642-2.256,4.206-2.153,5.129
		s1.846,1.846,2.358,1.846c0.514,0-0.102,2.359,1.129,2.462s1.539-2.051,1.539-3.59s4.82-5.642,4.924-6.257
		c0.102-0.615,5.436-5.847,5.846-5.949s-5.334,10.36-4.41,10.462s4.616-0.103,5.129-0.103s-4.205,2.154-2.564,2.667
		c4.016,1.254-4.547,0.329-4.821,0.923c-1.847,4-2.462,5.231-1.948,6.052c0.512,0.821,3.692-0.41,4.205,0.308
		s-0.923,4.513-1.641,4.616c-0.719,0.103-3.693,0-5.027,1.128c-1.333,1.128-1.538,3.282-2.256,5.026
		c-0.611,1.481,1.846,0.616,2.564,0.411c0.718-0.205,3.898-1.093,4.514-0.854s-3.283,2.804-4.617,3.521
		c-1.333,0.718-7.282,7.181-7.077,8.001s-0.205,1.23,0.923,1.23c1.129,0,6.463-2.564,6.771-2.872s10.052-16.104,9.95-17.335
		c-0.104-1.231,1.742-11.899,1.948-13.438s1.847,5.026,2.564,4.513s4.718-10.771,5.642-11.591c0.923-0.821,1.129-0.411,0.41,2.975
		s-3.077,11.284-2.462,11.284s4.206-0.821,5.334-0.821s-7.898,6.462-7.898,6.975s-4.616,7.181-4.924,8.001s-3.282,3.795-2.563,3.795
		c0.717,0,6.667-3.657,7.282-4.239s6.154-7.865,6.976-7.967c0.82-0.103-0.215,3.487,1.226,3.487s6.058-4.41,6.364-5.026
		c0.309-0.616,4.924-4.719,5.539-4.514s-0.717,5.129,0,5.129c0.719,0,7.488-2.975,8.924-2.257
		C210.664,64.846,202.458,68.642,203.382,68.949z M219.999,117.367c-4.514-1.847-3.795-7.078-2.256-8.309
		c0.684-0.548,2.859-1.949,4.507,0.82s0.725,4.821,1.853,5.437S224.513,119.213,219.999,117.367z M224.308,148.857
		c-0.719,0.308-0.82,1.589-1.334,1.461c-0.513-0.128-1.333-3.343,0-5.172c1.334-1.829,0.904-3.459,2.154-3.303
		c0.815,0.102,4.41,0.243,4.205,3.833S225.026,148.55,224.308,148.857z M237.231,132.445c-2.153-0.821-2.336-5.815,0-5.847
		c0.946-0.013,3.795-0.857,4.309,2.854S239.386,133.266,237.231,132.445z"/>
	<path fill="#036EB8" d="M156.196,71.104c-0.719-0.513-2.461,0.615-3.385,1.231s-3.012,3.604-3.275,4.513
		c-0.295,1.013,5.02,0,5.02,0.41s-4.411,3.078-5.02,3.59c-0.609,0.513-2.469,1.744-3.3,4s-5.323,12.822-3.3,12.207
		c2.025-0.615,9.465-9.745,10.603-11.181s3.067-10.36,3.786-11.386C158.042,73.463,156.915,71.617,156.196,71.104z"/>
</g>
<g>
	<path d="M251.726,116.847c-1.18-7.672-0.295-50.161-32.162-79.667S149.043-0.119,137.831,0.001
		C110.39,0.296,63.18,10.624,37.509,41.605C11.839,72.587-4.095,114.781,0.921,150.189c5.017,35.408,19.475,56.652,36.588,70.225
		c17.114,13.573,50.161,26.851,56.652,28.031c6.492,1.181,24.195,4.131,33.933,2.065s52.816-2.36,87.929-39.539
		C255.886,168.764,252.905,124.519,251.726,116.847z M236.087,168.483c-7.967,18.294-18.294,33.637-28.621,41.899
		s-30.097,21.834-48.98,26.851s-43.375,7.081-69.045,2.065s-41.309-24.491-52.521-30.392c-11.212-5.9-25.657-28.864-28.916-63.733
		c-2.951-31.572,12.982-66.389,15.934-72.291s23.311-35.113,51.046-47.8s47.505-14.164,65.8-15.934
		c9.438-0.913,42.784,10.917,57.832,22.13s23.31,21.244,29.211,29.801s14.459,39.833,16.818,43.669
		C247.005,108.585,243.28,151.965,236.087,168.483z"/>
	<path d="M112.44,111.206c1.021,1.03,4.893,5.4,6.918,9.45s-0.338,24.13,0,25.817s-0.844,12.149-1.35,14.174
		c-0.507,2.025-1.695,5.063-1.695,5.063s3.719,1.35,8.444,0s9.618-2.194,9.618-2.194s-2.193-7.087-2.361-14.849
		c-0.17-7.762-1.014-10.631-0.676-13.162s1.301-3.537,1.519-8.437c0.064-1.455,4.894-7.931,5.063-8.606s8.942-4.049,9.956-4.725
		c1.012-0.675,9.955-0.675,12.318-1.519c2.361-0.844,16.367-5.906,16.705-6.75s-12.148,2.7-15.693,3.712
		c-3.543,1.013-6.412-0.337-6.412-0.337s5.063-3.207,7.256-5.063s10.463-5.906,11.644-5.906s6.528-0.962,8.943-1.856
		c4.556-1.687,7.931-8.268,7.931-8.268s-3.881,4.556-10.125,6.243c-6.242,1.688-6.242,1.688-6.242,1.688s2.361-8.1,2.193-10.968
		c-0.169-2.869-0.338-8.268-0.338-8.268s-2.869,10.63-4.219,13.499s-5.905,7.593-7.424,8.606c-1.52,1.013-11.138,3.206-10.631,1.181
		c0.506-2.025,5.736-11.137,6.749-13.162s8.101-10.125,9.618-11.812c1.52-1.688,8.268-7.424,9.787-7.593s8.943-10.125,8.943-10.125
		s-5.906,4.387-8.268,6.243c-2.363,1.856-5.738,3.375-5.738,3.375s-1.35-6.582-1.688-7.931c-0.337-1.35,0.169-8.774-0.506-9.787
		s-0.844,8.1-2.193,11.98s-2.193,7.931-3.375,9.787s-10.799,18.899-11.98,16.537s-0.506-3.038-2.025-6.075
		c-1.519-3.037-0.338-9.956-0.338-9.956s-2.699,9.112-2.024,10.799s-3.206,17.043-4.05,19.237s-7.256,11.136-9.111,11.812
		c-1.857,0.675-5.063,2.532-5.063,1.519s-1.922-5.659,0-16.031c0.844-4.556,5.906-10.631,7.087-17.043s7.425-14.68,7.931-16.03
		s9.619-10.631,12.824-12.656c3.207-2.025,10.969-7.593,10.969-7.593s-7.256,3.375-11.307,3.375c-4.049,0-5.736,2.025-5.736,2.025
		s-2.194-6.413-2.785-9.45c-0.59-3.037-1.771-9.28-2.277-9.956s1.181,16.199,0.675,18.562s-2.024,7.931-3.037,9.618
		s-4.556,5.568-4.556,5.568s-2.869-9.449-3.713-11.98s-3.206-7.256-3.206-7.256s2.194,12.824,1.351,17.211s0.844,8.438,0,10.125
		s-4.557,14.849-5.568,16.03c-1.014,1.181-1.857,6.581-3.375,6.412c-1.52-0.168-3.376-0.506-3.038-1.012s-1.986-8.269,1.032-16.368
		c3.018-8.1,2.006-8.268,2.85-14.005s1.181-14.175,0.674-16.875c-0.506-2.7-3.297-12.149-3.166-13.331
		c0.129-1.181,0.168,10.462-0.357,12.487s-1.369,8.606-1.369,8.606s-4.894-8.1-5.063-9.787s0.675,7.256,1.182,8.437
		c0.506,1.181,3.881,12.487,4.049,14.343c0.169,1.856-2.699,12.149-3.205,12.149c-0.507,0-3.713-3.712-4.895-5.906
		c-1.181-2.194-3.037-10.125-4.049-12.318c-1.014-2.194-3.038-12.993-3.038-12.993s0.844,15.355,2.531,17.887
		s3.375,13.499,4.388,15.187c1.012,1.688,4.556,15.355,4.556,15.862s-0.169,9.956,0.169,10.8s-9.112-4.219-9.112-4.219
		s-2.362-5.663-2.531-5.7s-1.856-2.905-1.856-4.593s-0.168-10.631-1.35-15.862s-2.024-11.812-2.193-12.993
		s-2.531-10.968-2.531-10.968s-0.338,6.581,0,8.268s0.037,5.738-0.15,5.906s-5.249-4.557-6.262-4.725s4.556,6.413,5.063,9.281
		c0.506,2.868,0,15.524,0,15.524s-5.906-8.1-7.763-12.656s-2.193-7.593-4.218-10.63c-2.025-3.038-3.545-8.1-3.545-8.1
		s0.508,12.149,1.182,12.655c0.676,0.506-4.556-3.038-7.087-4.387s-4.725-1.181-4.725-1.181s10.8,8.437,11.812,10.125
		c1.013,1.688,6.412,8.775,7.932,11.137c1.518,2.362,6.412,11.717,8.437,13.199s-5.23,0.881-7.931,0s-4.219-4.086-5.4-5.943
		c-1.181-1.856-4.219-9.956-4.219-9.956s-1.35,3.375-2.53,3.881s-5.568-4.894-6.581-6.075s-5.063-5.568-5.063-5.568
		s5.737,10.461,6.918,12.655c1.182,2.194,7.088,6.581,7.932,7.762s3.713,3.544,3.206,4.219s-5.062,0.337-7.256,0
		s-13.162-5.4-13.162-5.4s5.399,6.075,9.28,7.087s10.018,2.715,11.981,3.206c5.399,1.35,12.317,0.844,15.692,1.519
		S110.838,109.591,112.44,111.206z"/>
</g>
</svg>
