<svg xmlns="http://www.w3.org/2000/svg" width="200" height="200" viewBox="-15 -15 170 170" preserveAspectRatio="xMidYMin slice">
  <path d="M16.357 102.914c1.64.024 8.064 6.946 11.618 12.688s5.331 10.251 5.331 10.251 2.187-6.15 2.187-6.802-.957-4.133-1.503-5.633-3.69-13.125-5.194-17.089-2.87-18.452-2.46-19.409 3.417-7.791 3.007-7.244-4.784 4.374-4.718 3.919-3.209-16.22-3.655-18.681-1.195-18.266-1.195-18.266 6.014-10.164 4.647-9.89-4.101 3.144-5.194 2.87-1.914-13.942-1.914-13.942c-1.367 1.503-4.237 11.619-4.511 12.439s-1.64.957-2.187.136-4.921-2.187-4.921-2.187.684 1.23 2.46 3.417S11.3 39.333 11.3 40.153 9.66 53.547 9.113 54.094s-2.46-1.777-5.194-2.188-4.784.684-3.554.82 8.201 6.561 8.201 6.561-.137 3.69-.273 8.475 1.64 22.28 1.777 23.511-1.367.683-2.187 1.229-6.561.137-5.877.41c1.419.567 7.791 5.604 7.791 5.604v7.244s1.367 9.978 2.324 13.289 2.324 12.134 2.324 13.637 7.244 7.245 7.244 7.245-1.23-6.698-2.187-7.928-1.094-8.339-1.094-8.339 2.597 2.87 4.374 5.193 2.873 6.288 2.873 6.288l1.364-2.324s-1.367-2.597-2.05-3.554-2.05-5.604-2.597-6.834-4.647-5.467-5.194-6.15-.684-4.101-.684-4.101 5.331 4.511 7.518 8.611 4.511 11.071 4.511 11.071l1.913-3.281c-3.007-7.107-4.322-7.488-6.424-11.208-1.777-3.145-5.741-6.287-6.834-6.834s-1.361-4.04-1.361-4.04 8.332 8.414 9.838 10.191 4.645 8.2 4.371 5.467-4.101-6.424-4.371-7.654-5.197-6.971-6.837-8.004-4.101-3.612-2.461-3.587zm12.86 4.47c.236.553.834 2.668 1.056 3.224s-.167.89-.528.89-2.195-2.392-2.028-2.613.389-3.001.611-3.168.606 1.002.889 1.667zm-2.39-7.85c.445-.042.457.679.556 1.069 0 0 .333 1.279.333 1.445s-.556.556-.556 1.167-.444 2.501-.889 2.501-1.111-1.223-.945-1.89 1.056-4.25 1.501-4.292zm-1.389-3.544s.278.666.333 1.056-1.186 1.223-1.482 2.112-.463 5.224-1.019 5.113-1.866-1.333-1.767-1.556.989-2.028 1.211-2.849.704-2.82 1.575-3.877.926-2.056 1.149.001zm-1.223-6.615s.167 1.788 0 2.145-1.834 2.747-2.057 3.747-1.374 5.003-1.993 4.892-1.453-.001-1.286-.612 2.668-7.456 3.502-8.758 1.995-3.836 1.834-1.414zM21.492 72.14c-.223.89-.941 1.963-1.332 1.454s-4.893-4.622-5.477-5.345-2.437-1.5-2.706-2.445-.825-4.392-.324-4.392 2.279 1.724 2.279 1.724c.667.5 3.799 3.778 4.262 4.279s3.52 3.835 3.298 4.725zm-1.334-8.171c-.056.834-2.822-.61-2.412-.889s1.3-1.775 1.3-2.333c0 .001 1.167 2.388 1.112 3.222zm-2.113-9.059s.333.946 0 1.779-2.168 4.113-2.557 4.058-.056-2.835.278-3.613 2.113-4.448 2.279-2.224zm-.494-11.45c.438-.278-.173 2.334-.173 2.334s.389 1.393 0 1.78-2.001 3.945-2.224 4.945-1.445 3.892-1.667 3.613-1.204-2.669-.963-3.058 4.589-9.335 5.027-9.614zm-3.73-8.337c.333-1.39 1.724-4.891 2.224-4.891s.111 2.001.111 2.001c0 .945.444 2.668.667 3.001s-1.5 3.001-1.612 3.891.464 2.224.816 2.668-1.649 4.558-2.094 4.558-.222-2.946 0-3.391-.722.334-1.278.334.832-6.782 1.166-8.171zm-1.297 9.56c-.296.445-.315 2.834-.546 2.89s-.547-1.111-.547-1.223 1.093-1.667 1.093-1.667zM11.452 69.53c-.188-.723 1.389-.992 3.861 2.112.717.9 4.793 5.947 4.847 6.447s-.28.333-.725.444-3.005-3.67-4.337-4.809-3.459-3.472-3.646-4.194zm1.034 8.004c-.11-.278-.334-3.113 0-3.058s2.215 1.505 2.611 2.057c.118.164 2.17 3.391 2.336 3.391h.76s-1.038 1.89-1.149 2.168-2.112-2.887-2.724-3.556-1.723-.724-1.834-1.002zm.279 3.001c.556 0 1.687 1.817 2.001 2.224.35.452 1.867 1.891 1.711 2.168s-.677.889-.677.889-2.702-2.223-2.702-2.445-.889-2.836-.333-2.836zm.667 12.951s-1.328-5.537 0-5.392c.322.035 1.831-.001 1.666.389s-1.387 1.724-1.276 2.446-.39 2.557-.39 2.557zm1.39 5.724c0-.5 3.501-9.728 3.501-10.116s-.577-.611-.577-.611 3.213-5.224 3.757-5.308.458 1.932.322 2.195c0 0-1.951 3.724-2.893 6.392s-2.277 7.726-2.443 8.004-1.667-.056-1.667-.556zm73.361-44.078s-.288-12.113-.433-13.556-2.163-18.314-2.163-18.747 2.163-6.489 3.173-7.145c1.009-.656 5.623-4.248 5.623-4.248s-3.172-.577-4.758-.288c-1.587.289-4.903 2.884-4.903 2.884s-.577-3.894-1.009-5.191c-.434-1.298-3.972-9.529-4.039-8.796-.145 1.586-.28 13.079-1.009 12.979-1.618-.223-6.2-2.163-6.2-2.163s2.162 3.028 2.596 3.894c.432.865 3.604 9.373 3.461 10.383-.145 1.01 1.586-.433 1.586-.433l1.441-7.932s1.299 4.182 1.299 5.913-2.309 9.085-2.309 9.662-2.595.144-2.883.865c-.289.721.288 1.298-.722 2.019s-5.047-2.307-5.047-2.307.144 1.586 1.298 3.723 3.172 6.804 2.884 7.237-2.596 17.305-3.461 19.179-1.73 9.662-2.74 9.807-5.335-1.298-4.615-.289 3.75 6.057 3.75 6.057-5.191 11.97-6.633 19.612-8.941 23.938-10.239 27.832-11.969 17.448-12.546 18.313 4.903 2.884 5.913 1.153 4.615-5.479 6.489-7.643 8.22-7.643 13.267-11.536 8.797-5.769 8.652-5.047-1.441 3.316-2.307 2.596c-.866-.721-6.49 5.912-7.499 6.777s-2.452 0-2.74 1.009-9.517 12.258-10.238 13.268 1.442 2.163 2.019 2.163 2.74-5.336 3.46-6.269 5.191-6.422 6.778-8.008 8.22-6.201 8.22-6.201l-1.01 3.316s-7.354 5.048-10.671 9.229c-2.158 2.721-4.47 7.066-4.038 7.354s2.74-4.182 3.461-4.759 4.038-3.461 4.759-4.182 4.759-4.038 5.479-4.759 0 4.182-1.153 4.614-4.615 3.894-7.066 5.769-3.605 4.182-2.74 5.191 1.298-.722 1.298-1.298 2.74-3.317 3.894-3.75 4.326-3.453 4.326-3.453 1.009.857.721 1.723-4.903 4.326-5.769 5.191-.144 1.298 0 1.875 2.308-.145 2.75-.433-.587 1.875-.875 2.884 4.326.145 4.903 0 4.47-15.574 5.913-19.179c1.441-3.604 3.893-12.334 3.893-12.334s1.587-.933 3.029-2.375c1.441-1.442 5.336-6.057 5.336-6.057-2.02.288-5.336 1.298-5.77.865-.432-.433 3.174-12.834 3.605-15.719.434-2.885 2.02-17.016 2.02-18.565s.576-18.063.576-18.063 1.586-1.586 1.586-2.019 3.895-7.211 3.174-6.489-5.047 3.897-5.047 3.897zM79.387 44.75h1.025s1.73 2.019 1.65 2.884 0 4.182 0 4.182-2.244-.576-2.676-2.739c-.433-2.164.001-4.327.001-4.327zm-1.443 7.93c.864.722 2.468 2.885 2.468 2.885s2.002 2.451 2.436 2.884c.432.433-.705 2.739-1.218 2.019s-3.108-3.172-3.686-3.749-.864-4.761 0-4.039zm-2.135 8.536s1.059-.157 1.59.838c0 0 1.411 2.163.689 3.028-.721.865-3.027 4.182-3.027 4.182l.748-8.048zm-1.614 13.96c2.019-2.451 8.748-9.94 8.748-9.94v2.73s-5.081 6.634-5.545 7.354-4.068 4.326-4.068 4.326-1.154-2.019.865-4.47zm8.748-3.461l-.878 2.74s-4.491 4.759-4.667 5.191-2.05 3.028-2.338 3.028c-.289 0 0-2.02 0-2.02s6.393-7.93 7.883-8.939zm-20.011 49.319c-.273 1.154-7.051 6.634-8.061 7.354s5.913-13.669 6.778-13.468 1.283 2.22 1.283 2.22c.159 1.01.273 2.739 0 3.894zm4.031-2.307c-.411-.722-4.305-6.057-4.016-6.922s2.408-1.711 2.408-1.711l.486 1.072s1.924 4.821 2.688 5.397-1.155 2.886-1.566 2.164zm3.355-4.038c-.45-1.01-5.497-5.623-5.353-7.21s1.009-4.513 1.442-3.843 2.163 3.843 2.163 3.843 3.242 4.759 3.496 5.191-1.298 3.029-1.748 2.019zm4.743-3.606c-.578-.576-5.192-4.676-5.192-5.654s-2.885-2.276-2.308-3.142 1.154-6.303 2.019-6.18 2.451 3.584 2.451 3.584c.721 1.153 4.445 8.508 4.602 8.94.158.434-.996 3.029-1.572 2.452zm2.337-6.633s-4.79-9.805-5.223-11.392-2.163-3.75-.721-5.336c0 0 2.74 2.884 3.605 5.479s2.514 4.759 2.338 5.336 1.539 5.191 1.539 5.191l-1.538.722zm2.412-8.364c-.712-.433-1.608-5.047-.872-6.489s2.773-1.587 3.125.576c0 0-1.542 6.346-2.253 5.913zm3.133-13.411c-.096.721-5.545 5.047-5.545 5.047s-.979-1.153-.722-2.451 6.267-6.634 6.267-6.634.096 3.318 0 4.038zm-.095-43.261c-.578-.865-.721-.144-1.73 1.442s-.865-1.587 0-3.173 1.73-2.163 1.73-2.163c.865.145.865 1.903.865 3.259s-.289 1.5-.865.635zm55.816-11.749c-.373-.093-3.911-3.166-3.865-3.492.047-.326 2.143-2.235 1.77-3.119s-3.213-3.353-3.119-3.026-1.909 4.19-2.468 4.05-3.679-3.398-4.051-3.678-1.397.605-1.443.838 1.397 1.769 1.443 2.095-3.073 3.212-3.259 3.073c-.188-.14-.652-3.911-.652-4.47s.232-2.7.466-2.887 5.54 0 6.378 0 1.072-.698 1.352-1.257.465-4.47.418-4.842c-.046-.373-.418-6.146-.465-6.425s-6.752-.233-7.217-.093c-.467.14-7.775-.14-8.148 0s-.186 1.723-.279 1.862-2.84.279-3.119.187-.932-2.84-.979-3.12c-.046-.279-2.188 0-2.188 0s-1.537 0-1.863.233.047 2.375 0 3.352-2.327.978-2.933 1.071-5.168.14-5.261.326c-.094.186 5.4 4.004 5.912 4.19.513.187 2.934-.792 3.492-.419s-.652 1.815-1.117 3.026-4.424 5.028-6.1 6.332-7.264 5.215-6.751 5.354 7.124.978 7.403.884 6.238-5.587 7.217-6.239c.977-.652 1.164.093 1.164.279s-.513 7.915-.094 7.822c.42-.093 4.936-.233 5.075-.419s-1.63-7.869-1.769-8.38c-.141-.512 2.141-2.701 2.374-2.98s1.677 1.443 1.909 1.909 1.257 4.75 1.582 5.587c.326.838.746 6.332 1.211 6.519.467.187.652-.047.792-.14s.884.605 1.21.326 5.914-5.028 6.332-5.261c.42-.233 1.723 1.723 1.91 1.956.186.233 4.189 4.144 4.469 4.097.28-.046 2.654-2.142 3.445-3.445.794-1.304.188-1.583-.184-1.676zm-21.045-13.829c-.187 0-4.284-1.487-4.471-1.745-.186-.257 1.207-1.766 2.282-1.701.837.051.884-.326 1.815.792s.56 2.654.374 2.654zm4.795-5.168s-.232-2.002 0-2.002 1.908-.212 2.235-.233c.325-.021 2.747-.326 2.887.466s.233 1.537-.233 1.537c-.465 0-4.889.232-4.889.232zm.513 3.435c.279-.315 2.281-.037 2.84-.409.313-.208 2.421-.254 2.607.409s-.378 2.478-.724 2.478c-.348 0-3.561.419-3.746.187s-1.257-2.35-.977-2.665zm12.989 40.939c-.186-.744-1.582-12.99-1.723-13.13-.139-.14-6.844.232-7.263.232S126.651 36 126.511 36s-2.747-.465-2.98-.465c0 0-.977-.373-1.629-.233s.047 3.911.047 4.284-2.469.372-2.701.372-.047-2.375-.047-2.654-6.657-2.328-6.797-2.467.932 4.796.838 5.261-3.445.326-3.957.652c-.513.326.325 9.312.465 10.104s1.164 9.824 1.63 10.243 11.128-1.583 11.919-1.677 12.851-1.164 12.851-1.443-.046-4.19-.234-4.935zm-22.534-6.416c-.326-.895-.279-3.129 0-3.176s1.351-.233 1.677-.187c.525.075.605 1.956.418 3.12-.186 1.164.233 1.304-.418 1.257-.653-.046-1.351-.119-1.677-1.014zm3.53 6.742c-.178.326.194 1.631-.318 1.816-.512.186-2.793.885-2.746 0s-.095-3.818-.001-3.818 1.145.104 1.722.513c.477.337 1.521 1.163 1.343 1.489zm2.662-8.524c.047-.695 1.211-1.394 3.353-1.394.251 0 .838 3.864.419 3.864s-2.84.186-2.887 0-.932-1.774-.885-2.47zm4.516 9.408c-.139.14-2.979.791-2.979.419s-.373-4.184 0-4.257c.372-.073 2.002.625 2.746.253.385-.191.373 3.446.233 3.585zm3.26-7.728c0-.326-.419-2.933 0-3.026s1.396-.373 1.396-.373c.466 0 1.816-.14 1.909 0s.651 3.166 0 3.166-3.305.559-3.305.233zm.605 7.402c-.094-.372-.979-3.677.698-3.491 0 0 1.071-.046 1.164 0s.763 2.746 1.149 3.072-2.917.791-3.011.419zm-8.892 13.086c.418.14 3.072.886 3.072 1.211s.187 5.308.699 6.425 3.91-1.49 4.097-1.862 2.095-2.095 1.862-2.561-1.536-.745-1.211-1.164c.326-.419 1.631-2.281 1.816-2.281s4.424 3.722 4.563 4.072c.141.351 2.561 5.473 3.073 5.892s-.605 8.892-1.304 10.987-2.469 3.167-3.353 3.586-2.468.186-3.306.325-.838.559-2.002.279 2.607-1.909 3.445-6.332-1.164-11.406-1.164-11.732-.605-.513-1.49.046-3.025 4.098-3.025 4.517-.513 1.117-2.002 2.002c-1.49.885-2.096 1.211-2.701 1.351s-3.539-2.141-3.539-2.374.467-3.817-.465-5.681-1.211-3.307-1.211-3.865 1.352-3.538 1.584-3.538 2.562.697 2.562.697zm15.783 33.855c-.279-.559-5.772-.037-6.192 0-1.071.096-3.911.372-4.423.372-.513 0-1.77-1.024-1.77-.093s-1.676 6.006-1.676 6.704-5.354 7.03-5.494 7.496c-.141.466 5.912.605 6.658.605.744 0 2.514-4.051 3.119-3.445s3.864 1.676 3.911 2.002-1.024 1.77-1.909 3.492-4.795 4.563-4.842 4.981 3.817 2.328 4.33 2.281c.512-.047 2.607-.885 4.609-3.259s3.864-7.356 4.051-11.779c.186-4.422-.093-8.799-.372-9.357zm-4.842 9.264c-.885-.186-3.957-.93-4.051-1.769s1.211-3.679 1.583-3.539.245.384 1.536.652c.365.076 1.77.279 1.863.651.092.374-.046 4.191-.931 4.005zm-9.219 16.672c.512 0 2.793-.512 2.979-.419s.978 2.142 1.071 2.979c.093.838-.279 1.722.232 1.955s4.795-1.442 5.82-1.629c1.023-.187 5.121-1.153 5.121-.833s-.745 4.931-.932 5.303c-.186.372-2.7.651-2.653 1.257s-.604 6.704-.745 8.8c-.14 2.096-.745 5.215-1.723 6.053s-5.866.699-5.82.466c.047-.233 1.351-8.381 1.443-9.126.094-.745.605-4.424.467-4.656-.141-.232-1.49-.744-1.537-.604s-3.911 7.496-5.354 8.753-1.723 1.816-2.374 1.77c-.652-.047-2.654-1.769-2.422-2.142s2.468-4.378 2.701-7.031c.232-2.653-.605-10.428.512-10.708s3.214-.188 3.214-.188z"/>
</svg>
