<svg xmlns="http://www.w3.org/2000/svg" width="200" height="200" viewBox="-10 -10 270 270" preserveAspectRatio="xMidYMin slice">
  <path d="M45.828 37.798c1.879-.582 6.684-2.845 7.822-3.414s2.631-1.137 3.2-.995c.569.142 1.351 1.329 2.204 2.193.853.864 1.565 1.148 1.352 1.646-.214.498-3.84 5.547-3.84 5.547s.782 1.208 1.138 1.564c.355.355 2.774-1.139 3.058-1.423.284-.284 1.137-.71 1.422-.639.285.071 2.275 4.265 2.489 4.764.214.498 1.646 1.902.853 2.773-.341.375-4.265 1.351-4.337 1.92-.072.568-.854 5.333-1.778 7.822s-3.698 7.04-3.982 7.538c-.284.498-2.702-.996-4.195-1.778s-3.484-1.707-3.342-1.991 1.849-3.2 2.275-4.551c.427-1.351.355-3.626.355-3.626s-.853-.427-3.342-.071-2.557.607-3.057.214c-.996-.782-.924-2.845-1.564-3.343-.641-.498-1.888-2.156-1.707-2.417.64-.924 4.052-.782 5.901-.711 1.849.071 3.557-.213 3.84-.213.284 0 .497-1.991.355-2.489s-1.777-.925-1.99-.711c-.214.214-2.845.924-4.48 1.209s-3.021.355-3.644.285-1.776-2.933-2.614-3.769c-.832-.83-2.489-2.916-3.2-2.987-.71-.071.071-.996 1.28-.569 1.209.427 2.916.355 4.552.071 1.634-.285 3.842-1.498 4.976-1.849zm25.671-5.121c1.706.093 3.413.193 4.622.356 1.209.163 2.204-.51 2.56-.361.355.148 5.902 5.338 5.902 5.338s-.071 6.401 0 7.041-.498 1.422 0 1.92 7.466 1.919 7.822 1.991c.355.071 1.92.284 2.702 2.205.782 1.92.64 2.346.64 2.702s-2.275 3.271-3.484 3.058c-1.209-.214-5.831-2.063-6.685-2.347-.853-.284-3.426-1.45-3.839-1.422-1.067.071-1.004 2.343-1.777 3.78-1.075 1.996-2.659 3.682-2.916 3.686-.924.017-4.55-.213-5.262 0-.711.214-3.058.356-3.484.996s-1.351-.427.355-2.773 4.053-7.11 4.125-7.68c.071-.569 1.564-2.347-.782-2.863-.56-.123-2.561-.815-2.347-1.074.214-.258 1.493-3.957 2.063-3.957.569 0 2.133-.498 3.769-.213 1.635.285 2.062-.142 2.062-.142s.64-4.479.355-4.338c-.285.142-3.555 1.564-4.053 1.777-.498.214-1.707.428-1.707 1.067s-2.773-.782-2.844-1.636c-.071-.853-2.772-3.343-3.128-3.911-.355-.569-2.418-2.958-1.422-3.221.996-.263 1.991.263 3.769 0 1.776-.263 1.524-.058 2.984.021zm33.85 7.039c1.265-.797 5.333-3.769 6.542-3.555 1.209.213 3.342 3.555 3.342 4.053 0 .498-4.409 5.83-6.186 7.538-1.778 1.707-2.987 3.068-4.693 2.529-1.707-.539-3.129-2.813-4.195-3.951-1.066-1.138-1.636-1.707-2.133-1.707s-.64-2.063.356-2.703c.994-.639 3.25.14 6.967-2.204zm24.962-19.982c1.507-.044 6.045.213 6.827.64.781.427 5.333 3.77 5.759 5.618.427 1.849.356 16.577 0 17.284-.355.707-2.133 6.788-3.271 7.125-1.138.337-10.31 1.19-9.813.906s3.341-8.817 3.626-12.302c.285-3.484-.569-8.249-1.28-8.391-.711-.142-3.128-.711-3.128-.213s-2.348 6.542-2.49 7.679c-.142 1.138-.568 2.205-.924 2.205-.356 0-6.542-.996-6.684-2.205-.143-1.208 1.777-6.612 2.062-9.599s-.142-6.187-.853-6.4c-.711-.213-1.351-.71-1.564-.995-.214-.285 1.208-1.394 1.777-1.408.569-.014 3.414.127 4.623.412 1.208.284 3.693-.308 5.333-.356zM74.733 185.911s-2.338.39-2.728.78c-.39.389-.584 2.728-.974 3.409s1.753 1.56 2.435 1.755c.682.194 4.482-1.17 5.457-1.852.974-.684 2.144-1.268.974-3.41-1.169-2.143-3.02-1.072-5.164-.682z"/>
  <path d="M201.94 36.807c-.697 1.396-5.408 8.288-5.845 8.288s-.61-1.57-.785-2.618 3.054-12.737 3.751-15.704c.699-2.967 4.102-19.629 4.102-20.764s-3.839-7.066-3.752-5.845c.088 1.222-3.229 9.16-3.926 11.167-.698 2.007-5.584 11.167-8.463 14.482s-10.469 17.1-11.342 17.461c-.871.361.96-7.167 1.222-8.476.263-1.309 2.966-15.616 3.315-17.536.348-1.919-3.664-8.549-4.188-9.073s-2.618 4.274-2.792 5.06c-.175.785-4.624 10.47-8.201 16.577s-8.376 11.865-17.797 20.937c-6.266 6.034-16.924 10.817-19.367 11.943-2.442 1.126-15.005 6.291-15.704 6.465s-1.483-.088-2.705-3.054c-1.221-2.966-3.053-3.838-3.028-3.228.025.611-1.072 2.53-1.421 3.402s-2.966 4.973-3.752 5.409c-.785.436-2.704.96-4.362.698s-9.771-1.309-14.569-1.483c-4.798-.174-10.733-.259-18.583.262-3.222.213-15.794 1.832-19.371 3.053-3.577 1.222-3.228.087-3.228-.698 0-.786-.698-4.013-1.833-5.322-1.134-1.309-3.228-4.45-3.228-4.45-.784.43-2.531 4.281-2.618 4.629s-4.362 2.792-6.892 8.289c-2.53 5.496-2.008 10.643-2.967 10.905-.959.262-17.71 3.926-22.073 20.33-5.032 18.921 3.751 30.795 5.147 33.151 1.396 2.355 11.515 11.341 10.817 11.69-.698.348-3.49 4.1-5.147 13.958-1.658 9.858 2.705 18.407 3.053 18.669.349.263 3.054 3.665 5.584 5.846s10.382 9.598 12.214 12.389c1.832 2.792 3.838 3.054 4.624 3.664.785.611 9.161 3.054 10.469 2.879 1.308-.174 8.899-2.268 12.127-3.488 3.229-1.222 11.167-3.577 13.522-4.014 2.355-.438 2.443.35 2.355.785s-2.617 3.314-3.751 4.188-1.57 1.483-1.221 2.617c.349 1.135.96 2.443 2.792 2.705s4.449 3.141 4.188 3.577c-.261.437-.174 2.618.174 3.142.349.522 0 3.401-.087 9.334-.086 5.933 1.919 7.416 6.717 11.08s11.52 3.054 11.869 3.752c.349.697 1.134 4.361 2.53 6.717 1.395 2.355 3.839 9.422 11.604 9.685 7.764.263 14.553-4.026 16.576-4.624 3.838-1.134 11.254-6.718 12.912-15.879 2.048-11.318-2.269-14.047-5.322-17.885-3.054-3.838-9.248-3.577-9.597-3.577-.35 0-.437-2.355-.523-3.228-.087-.873 4.188-2.705 7.241-7.591s3.228-8.463 2.268-14.047c-.959-5.583-4.624-13.173-6.107-18.321-1.483-5.147-.698-16.663-.61-17.797.087-1.135 2.53-2.705 3.315-3.664.785-.96 13.086-6.281 21.287-13.697 8.201-7.416 10.557-11.606 21.898-25.129s16.053-25.898 22.77-40.032c6.718-14.134 7.853-31.683 8.463-34.911.611-3.229.698-8.201.698-7.939.004.265-3.747 3.493-4.447 4.889zm-99.637 56.456c2.879-4.711 5.06-11.953 5.06-11.953s3.926 2.355 1.657 11.69c-2.268 9.335-5.474 11.594-9.509 12.738-5.845 1.657-10.993 0-10.993 0s2.53-2.705 5.147-3.665c2.618-.959 6.216-4.848 8.638-8.81zM33.56 91.6c.698-5.322 3.315-7.067 3.315-7.067.437 1.746 5.845 9.51 8.55 11.516 2.705 2.007 11.342 8.638 11.429 9.248.087.611-8.113 3.316-11.342 2.618-3.228-.698-8.462-2.182-10.033-5.235-1.571-3.054-2.618-5.758-1.919-11.08zm19.251 108.048c-4.579.488-7.503.78-10.621-.876-3.117-1.656-9.938-8.964-12.568-10.62s-4.384-2.834-5.456-4.389c-1.072-1.555-2.631-6.23-1.461-16.268 1.169-10.035 2.24-9.158 3.02-8.963.78.194 4.871.779 5.456.779s.195 8.184.195 8.184c.098 1.56-1.429 3.682 4.288 8.867 4.189 3.799 7.6 2.338 8.769 2.631 1.169.291 3.119-.209 3.508.041.39.25 1.266 1.42 1.266 2.199s-3.409 3.41-3.994 3.41 1.267 3.801 1.754 4.482c.487.682 6.235-.779 7.112 0 .877.779 1.365 1.559.78 1.948s-1.949-.39-2.436 0-2.144 1.56-2.144 2.046c0 .487.098 2.338.975 3.118.877.78 4.288 1.753 4.774 1.753.487 0 1.267-1.363 1.949-.486s-.587 1.658-5.166 2.144zm21.144-55.925c-4.969-1.559-11.01-2.891-11.01-2.891s-.488-2.663 0-2.663c.487 0 16.676-3.134 21.045-4.19 2.181-.525 11.364-3.433 13.349-3.852 3.897-.824 14.81-6.865 14.81-6.865s-.465 10.781-8.953 17.57c-8.488 6.787-14.042 7.471-14.042 7.471s-5.457 1.947-6.041 1.461c-.585-.488-4.189-4.482-9.158-6.041zm2.629 12.666s-3.41-.779-4.189-1.072c-.779-.291-3.41-.779-3.41-.779l1.851-5.748s3.118 1.949 3.897 3.703c.781 1.752 1.851 3.896 1.851 3.896zm-11.983-9.743c.876.291-3.021 5.358-3.021 5.358h-9.548s3.359-4.216 5.652-4.774c1.107-.269 4.922-1.25 6.917-.584zM52.52 158.435c2.923.487 4.676-.937 4.871-.127s-2.631 3.051-3.118 3.44c-.487.389-2.826 1.753-2.728 2.143.097.391 4.481 3.119 5.456 3.605s1.169-.965 2.339-2.334c1.169-1.369 5.42-5.85 5.389-6.143-.031-.292 3.77 1.072 3.77 1.072l4.871 1.461s-1.559 5.358-5.651 7.6-8.964 4.287-13.543 2.338c-4.579-1.947-5.749-5.748-6.528-7.988-.779-2.242 0-4.482 0-4.482s1.949-1.073 4.872-.585zm-12.472-18.706c-2.436.194-4.19 1.655-4.385.876-.195-.778-2.338-3.604-3.118-5.456-.779-1.852-.584-3.8-.584-3.8s5.857 1.493 7.499 2.338c3.219 1.657 9.552 2.145 9.552 2.145s-6.528 3.701-8.964 3.897zm2.045 26.599s.591 5.344 1.559 6.332c.477.488 0 1.656 0 2.145 0 .486-4.384.584-4.287-3.313.097-3.898 2.728-5.164 2.728-5.164zm28.645 30.593c-1.071.585-6.527 2.046-6.333.975s.097-3.507.195-4.579c.097-1.072-2.826-1.852-3.313-2.241-.487-.39.488-.976-.487-3.604-.974-2.631-1.897-2.729-2.653-3.021-.756-.291-1.342-1.947-.854-2.143.488-.195-.178-2.241-.178-2.241s2.264.097 3.686-.194c1.966-.402 4.872-1.559 4.872-1.559s-.779 3.41 1.267 4.092 8.379-.779 8.769-1.559c.39-.78 1.364-1.949 1.461-3.703.098-1.754-2.046-.292-1.948-1.656.097-1.364 3.215-2.437 4.287-3.118 1.072-.682 2.532-1.364 3.507 0s4.19 4.251 4.58 10.212c.389 5.962-.487 8.787-5.262 11.028s-10.524 2.726-11.596 3.311zm15.104 5.847c-1.072.194-1.754-1.266-1.267-1.656.487-.391 6.527-5.067 8.671-9.744 2.144-4.676.683-13.737.585-15.881-.097-2.144-1.559-3.897-2.728-4.969-1.169-1.072-2.241-1.463-2.241-2.145s4.324-.568 9.451-2.045c2.172-.627 8.379-2.826 8.477-2.242.097.586-.584 8.088-1.851 11.4s-.293 7.296-4.677 13.1c-4.384 5.803-6.236 8.141-6.917 9.115s-2.922 6.723-3.702 6.527c-.781-.194-2.729-1.656-3.801-1.46zm11.206 9.064c2.167-.228 3.897.487 3.897.487s-1.559 4.872-1.461 5.358c.098.487-2.63-1.656-4.189-2.046s-3.216-1.655-2.923-1.948c.292-.292 3.796-1.759 4.676-1.851zm6.625 25.235c-1.559.778-8.574 2.923-11.984 1.169s-5.163-7.21-4.384-11.984c.779-4.774 1.559-7.732 2.241-8.543s.292-1.395 3.703 1.334c3.41 2.728 2.046 2.435 2.046 3.313 0 .877-3.411 5.065-3.703 7.014-.292 1.949-.876 4.775-.39 4.873.487.097 5.324.39 5.438-.098.115-.488 3.623-7.893 4.305-8.478.682-.584 4.092 2.075 4.871 2.304.78.23 2.533-2.109 2.923-2.693.391-.584.975-2.144 1.072-2.436.097-.293-1.364-.585-2.143-1.267-.78-.682-1.755-.974-1.657-1.267.098-.293 1.56-3.14 1.657-3.275.097-.135 1.461.01 2.923.717.463.225 2.338.221 2.63.609.292.391-.682 8.283-2.63 11.498-1.949 3.215-5.359 6.431-6.918 7.21zm26.404-11.107c1.852.974 3.605 1.948 3.605 6.138s-3.801 12.18-5.846 14.518c-2.046 2.339-6.723 2.339-9.743 2.826-3.021.486-7.21-1.755-7.502-3.703-.292-1.948 0-4.871 0-4.871s1.949-2.748 2.338-1.959-.876 2.641 2.826 3.03c3.702.39 5.358-4.677 6.917-7.015 1.559-2.338 2.436-5.262 1.559-5.457-.877-.194-1.753.098-1.656-.292.098-.39.488-4.384 1.461-4.677.975-.293 6.041 1.462 6.041 1.462zm-3.994-22.802c-2.533 5.067-2.144 3.703-3.313 3.703-1.168 0-.877 1.114-1.753.167-.876-.946-1.364-3.675-1.753-3.675-.39 0-3.119.779-3.605.779s-1.558.514-2.241 3.277c-.682 2.764-.877 5.104-2.338 4.713s-3.313-.781-1.364-7.309c1.948-6.527-.026-4.578-.841-4.676s-3.154.098-3.836 1.072c-.682.973-2.506 2.703-3.41 5.065-.253.661-2.436 1.56-2.826 1.071-.39-.486-3.118-1.071-2.923-2.728s6.235-8.38 8.477-12.081c2.241-3.703 5.553-10.814 5.943-14.42s1.852-14.811 1.852-14.811 2.046-1.558 3.507-1.753c.951-.127 4.385-2.825 4.58-2.339.195.487-.78 8.866-.585 14.127.195 5.262 3.703 12.862 5.164 14.713 1.46 1.855 4.207 9.22 1.265 15.105zm61.285-130.229c-1.744 5.06-15.093 28.704-18.496 33.677-3.402 4.973-21.112 22.946-23.643 25.389-2.53 2.442-19.717 15.706-21.375 16.665-1.657.959-14.395 7.328-17.274 7.765s-15.966 5.235-17.013 5.409c-1.047.175-4.45-.174-4.275-.61s-.437-3.925.436-4.274c.873-.35 14.536-3.221 24.254-11.604 8.899-7.678 8.697-6.803 11.865-16.489 2.421-7.399 3.054-12.04 2.966-12.825-.087-.786.786-2.878.175-3.315s-6.283-1.746-7.678-1.483c-1.396.262-7.415 2.967-10.905 6.194s-13.785 7.154-24.341 10.12-21.9 2.531-29.578 1.746c-7.678-.786-14.582-2.868-17.362-4.625-3.082-1.947-9.771-5.583-10.556-7.066-.785-1.483-.596 11.398-.436 12.999.349 3.49 3.664 9.945 6.369 12.389 2.705 2.443 10.47 6.893 10.557 7.154.087.262-1.483 5.147-2.705 4.973-1.222-.175-10.12-4.886-10.731-4.973-.611-.088-6.282-2.618-8.462-5.672-2.181-3.053-7.853-12.563-7.416-21.897.437-9.335 8.114-21.549 9.946-22.858 1.833-1.309 2.094-3.315 3.665-2.705 1.57.611 1.924 8.463 7.985 11.691 6.061 3.229 11.292 3.878 21.067 3.665 6.084-.133 10.643-1.571 11.516-1.919.873-.349 5.932-1.437 6.543-2.42.611-.982-4.275-3.077-4.275-3.077s-3.664-1.396-7.416-4.886c-3.751-3.49-9.785-8.684-11.341-10.381-2.879-3.141-3.839-6.544-3.839-6.544s2.443-3.052 11.865-4.274c9.422-1.221 13.617-1.052 13.617-1.052 1.919 0 6.041-.611 9.04-.349s7.361.452 9.63.364c2.269-.087 9.859.596 9.859.596s-2.635 7.765-3.848 10.731-4.266 7.241-5.488 8.375c-1.221 1.134-4.188 2.966-6.368 4.013-2.181 1.047-5.758 1.746-5.758 2.182s5.496 4.449 7.197 5.67c1.701 1.221 7.197 3.751 9.117 3.839s12.476.349 16.75-4.275 6.584-7.066 7.349-17.1c.765-10.033 0-15.966 0-15.966s12.978-5.671 16.991-7.503 17.884-12.651 19.978-14.919c2.095-2.268 10.47-11.342 11.168-12.127 0 0-2.704 13.175-2.966 14.309-.263 1.134-4.188 5.584-4.102 6.63.088 1.047 4.711 5.322 4.711 5.322s7.939-7.242 8.986-8.376c1.047-1.134 11.254-12.475 11.429-13.435.174-.96-.263 7.503-3.142 13.959-2.879 6.456-4.274 8.549-3.664 8.549.611 0 4.014-1.221 4.624-1.396.61-.175 2.182-.175 2.618-.087.436.087 5.933-9.597 7.938-10.731 2.008-1.134-4.012 11.779-5.758 16.838z"/>
  <path d="M126.862 236.986c.445-.211 2.144-.406 2.436.763.292 1.169 0 3.021 0 3.021s-5.652 5.066-6.139 4.969-2.923-.974-2.728-1.948 5.165-6.202 6.431-6.805zm15.682-82.244c.729.086 3.728-1.342 4.249-.745s4.919 3.204 4.919 3.503.373 3.056 0 3.577-4.472 3.429-4.099 4.099c.373.672 3.056.225 4.77.448s4.397 0 5.888 1.416 2.311 2.46 1.789 3.95c-.522 1.49-.746 3.801-1.268 4.174s-3.13.895-5.516 2.758c-2.385 1.863-3.95 3.65-4.397 3.576s-3.429-.446-3.578-1.713c-.149-1.268-1.714-2.982-1.938-3.578s3.876-2.607 4.472-2.906 1.416-2.236.819-2.087-6.112-.298-8.049.074-3.354.522-3.727-.149c-.373-.67-2.384-1.564-2.235-4.546s2.161-5.813 2.832-7.528c.671-1.713 2.907-4.545 3.205-4.396s.597-.075 1.864.073zm20.72-10.882c1.044.075 2.608-.148 3.429.82s3.578 2.534 4.397 4.546c.819 2.013 2.534 5.218 3.056 6.41.521 1.193 1.564 2.311 1.342 3.652-.225 1.341-3.429 3.875-3.504 4.248-.074.373-2.757-.447-3.354-.447-.596 0-1.043.596-1.342-.074-.298-.671-3.353-3.504-3.502-3.131-.15.373-.97-.148-1.268.596-.298.746.97 4.473 1.044 4.695.073.225-.373.225-1.565.672s-2.311 1.49-2.311 1.49-2.012-2.757-4.024-5.813c-2.013-3.057-3.278-3.896-1.789-6.41.998-1.686 2.981-2.608 3.727-2.459.745.148 1.043-.97 1.341-.97.299 0 3.43.373 3.802.373s-3.428-4.919-4.472-5.963c-1.043-1.044-.074-1.491.298-2.236s4.695.001 4.695.001zm24.298.299c-.373-4.323-1.342-6.708-4.547-9.763-3.205-3.056-5.068-3.057-6.261-2.908 0 0-4.024-.446-7.452 4.174-2.381 3.209-.597 7.677-.597 8.497 0 .819 3.875 5.217 4.396 5.664.522.447 2.608.969 5.739.745s3.578-1.416 4.322-1.863c.746-.447 4.249-1.416 4.398-1.789.15-.372.374 1.566.002-2.757zm-6.634.522c-.745 1.118-3.13-.521-4.472-1.64-1.342-1.118-1.938-1.412-1.268-2.01.671-.599 1.863-1.418 1.863-1.418.597-.448 1.789-.523 2.46.372.672.895 2.163 3.578 1.417 4.696zm12.522-36.968c.372.224 5.217 4.099 6.036 5.068.819.97 4.993 5.069 5.515 5.441s1.564 1.491 1.715 2.608c.149 1.118-.671 3.503-2.459 4.099-1.789.596-6.635 0-6.56.447s2.626 3.503 2.394 4.994c-.232 1.491.215 1.565-2.99 3.727s-1.564 1.864-2.012 2.087c-.447.224-4.77 1.118-5.962.895s-3.651-3.727-6.335-4.695-5.516-4.026-5.739-4.845c-.224-.819 1.714-3.428 2.385-3.95s5.738 2.832 6.409 3.652c.672.82 1.49 1.789 2.534 2.236s2.757.149 3.503-.373-1.564-2.086-3.577-3.578c-2.013-1.491-2.608-1.342-3.577-3.503-.969-2.161-.671-2.981.074-3.727.746-.745.969-1.639 2.087-1.118s3.224 1.65 5.59 1.341c.521-.067-2.685-2.608-2.907-3.875-.223-1.268-1.342-5.291-1.192-6.037.149-.746 1.938-3.503 2.758-3.503l2.31 2.609zm5.962-.597s2.758-3.429 3.577-4.546c.82-1.118 1.789-3.354 2.311-3.354s4.547 3.875 4.621 4.472-3.057 4.323-4.1 5.366-1.639 2.012-2.086 1.938c-.447-.075-2.459-2.087-4.323-3.876zm34.284-37.788c.299-1.044.447-3.578 0-4.696-.447-1.118-.671-.521-2.087-1.118-1.415-.596-2.087.447-3.131-.298s-7.899-1.416-8.869-.894-7.825 2.161-8.421 2.459c-.598.298-1.342 4.099-1.266 4.695.076.597 5.588 8.2 5.29 8.796s-1.864-1.118-1.565-.447-1.117 6.484-1.416 7.527c-.299 1.044-1.117 1.416-2.309 1.416s-.449-2.608-.449-4.546c0-1.938 0-3.577-2.74-3.801-2.741-.224-5.012 3.801-6.129 5.217s-1.583 5.214-1.714 6.038c-.171 1.079-.448 1.937-.895 2.235s.745 1.938.895 1.714.745-.373 1.341-.447c.597-.074 7.453 2.013 9.691 2.534 2.236.521 7.525 2.832 9.017 3.055s3.651 2.311 4.322.895c.671-1.417.745-5.292 1.491-8.944.744-3.652 1.639-3.578 1.564-4.398-.074-.82 0-1.863 0-1.863s.521-.521.97-1.565c.447-1.044 1.49-2.832 1.49-4.621 0-1.789.745-1.342-1.938-2.684-2.682-1.341-2.086-3.95-1.938-4.472.15-.521-1.488-.484 3.876-.298 6.411.225 4.621-.445 4.92-1.489zm-18.334 2.385c0-.522 2.012-.671 2.012-.671.596-.224 3.28-1.267 3.504-.969.223.298-1.043 2.608-1.193 3.205-.148.597.521 1.491-1.342.894-1.864-.596-2.981-1.937-2.981-2.459zm5.366 15.056c-.819.969-1.412 2.444-2.012 2.459-1.118.029-.597-1.789-.597-2.683 0-.895.372-1.789.372-2.608s-.371-1.714-.894-1.863 0-1.417 0-1.417 1.863 2.535 2.235 3.056c.373.521 1.715.894 2.46.894s-.744 1.192-1.564 2.162z"/>
  <path d="M217.226 43.168c.372-1.118 1.789-9.167 1.789-9.689s1.267-3.13 1.863-3.503c.596-.373 3.576 1.416 3.801 1.565.223.149 1.117.074.969 1.49-.149 1.417-.969 2.708-.597 3.516.372.807 1.416-.137 1.64 0 .224.137 2.311-4.112 2.311-6.273 0-2.162 1.043-2.012 1.043-2.012s3.694-.001 3.935 1.639c.239 1.64-1.923 5.066-1.996 5.813-.074.746-.521 1.641 1.267 2.386 1.789.745 1.192 1.714 1.64-.299.447-2.012.745-6.558 1.565-6.856s1.789-2.161 2.684-1.341c.894.82 1.342 2.385 1.416 2.385s-.896 8.646-1.342 10.807c-.447 2.161-1.192 5.813-1.64 6.037s-6.485-1.043-7.229-1.64c-.746-.597-3.205-1.491-3.056-.67.148.82.149.82-.521 1.192s-2.087-.745-2.386-.149c-.298.596-2.311 2.831 0 2.98 2.311.15 7.007 1.491 8.497 2.162s2.534 2.161 1.565 3.13c-.969.969-2.311.596-1.938 2.608.372 2.013-.225 1.341-.225 1.341s-4.547-.894-5.217-1.49c-.671-.596-2.609-.968-3.205-.521-.597.447-2.372-1.497-2.012-.746.186.387-1.268-.596-1.641.149-.372.745-3.098 3.502-4.27 4.621-1.17 1.118-2.587 1.864-2.587 1.864s-1.192-1.565-.671-5.888 3.461-9.242 3.258-9.615c-.201-.372 1.29-4.993 1.29-4.993z"/>
  <path d="M247.56 10.225c-.148-1.043-.565-2.399-1.938-3.875-2.086-2.244-3.057-.149-3.652.149s-5.068 3.13-5.44 3.13-3.28-1.938-4.546-3.13c-1.268-1.192-3.164-.547-5.432 0-1.854.447-3.438 3.652-3.959 4.919-.521 1.268-3.28 7.006-3.346 7.453-.066.447.022.723-.004 4.323-.033 4.342 1.038 4.025 1.262 3.801s.895-.969 2.46-.522c1.565.446 6.111-.746 8.571-1.416 2.459-.67 3.801-.075 3.726.373-.075.447.373 1.267 1.268 1.416s2.981.745 3.577 1.414c.597.669 2.162.821 3.131 0 .969-.821 1.714-4.992.969-5.663-.745-.671-4.695-2.311-4.695-2.311s-.075-.521-.15-1.491c-.074-.97-.148-2.907.672-3.13s1.863.298 1.863.298 3.875-2.012 4.844-2.684c.967-.67.967-2.01.819-3.054zm-16.397 7.229c-1.268 1.119-4.154 1.267-4.611 0-.457-1.267-.811-3.055 0-3.428s1.033-1.49 1.406-1.789c.373-.298 1.159-.116 1.159-.116l-.041-.032c.041.032 1.213.819 1.565.819.373 0 1.192-1.491 1.342-1.118.149.373.448 4.546-.82 5.664z"/>
</svg>
