<svg xmlns="http://www.w3.org/2000/svg" width="200" height="200" viewBox="-10 -60 260 260" preserveAspectRatio="xMidYMin slice">
  <path d="M222.557 54.762c-4.91-8.785-27.646-40.047-51.157-48.574S118.954.388 111.458.504C44.022 1.538 24.128 29.442 10.692 49.336s-19.378 79.062 13.952 104.898 90.688 28.68 109.29 27.18c11.92-.96 56.843-7.53 75.187-31.83 25.25-33.447 18.35-86.037 13.44-94.822zm-6.718 58.91c-4.4 19.894-18.61 51.157-63.31 55.29s-77.51 3.102-107.23-12.66S3.97 104.37 9.91 80.858s22.74-53.224 56.33-64.334 55.032-6.46 55.032-6.46c7.493.26 34.622-.257 45.215 3.618s30.23 16.278 39.274 33.072 14.47 47.024 10.08 66.92z"/>
  <path d="M16.635 101.527s19.12-31.52 27.13-42.373 25.32-29.712 25.32-29.712 5.425 11.885 9.56 17.052 15.243 28.163 16.793 29.97 3.875 13.565 6.718 14.405 7.75-10.02 15.76-10.28 12.92 11.88 12.92 11.88 8.525-9.82 12.4-10.85 14.47 2.32 17.57 5.94 3.617 5.3 5.426 3.29 9.56-8.72 13.177-9.5 8.26 3.36 8.26 3.36l5.43 14.48s-7.5-4.14-14.73-2.85-11.63 7.23-13.18 14.47-1.04 11.11 0 14.98 7.75 18.344 6.2 24.03-5.95 12.66-15.25 13.436-18.61-8.527-14.73-18.345 12.56-8.417 16.27-2.84c5.167 7.75-6.976 9.56-6.976 9.56l-1.55-3.61s4.136-.26 4.136-2.58-3.1-3.36-4.65-2.84-3.62 13.437 1.81 14.21 12.92-1.81 14.47-9.82-4.133-18.86-4.91-24.03-4.65-16.02-4.133-18.6 4.91-7.235 4.39-10.594-14.73-2.84-15.76-1.55-7.495 1.55-10.595 13.18 2.582 17.31 2.582 29.453-1.81 22.22-8.79 25.58-19.38 2.326-20.93-8.01 6.9-16.876 14.98-11.884c8.784 5.42-1.81 10.85-1.81 10.85l-3.617-3.36s1.55-1.55 1.55-3.62-3.83-1.033-5.015 1.55-2.995 8.01 2.43 9.56 13.177-3.36 16.02-12.144 3.617-21.185-2.583-28.94-.517-19.63-.517-19.63-10.595-5.94-17.83-2.84-12.144 11.37-10.59 25.58 5.163 27.384-1.038 34.62-16.28 9.3-25.58 1.81-2-15.396 3.62-17.57c8.01-3.1 9.82 10.075 9.82 10.075l-3.61.516s-.78-7.75-2.84-6.46-3.1 9.82-.26 12.147 17.83-.513 17.83-8.78-3.88-32.04-3.1-35.914.77-9.04.77-9.04-12.4-30.483-14.98-34.36-10.59-21.44-10.59-21.44-9.82 8.01-12.66 12.66S39.7 81.42 36.52 85.266c-4.65 5.62-13.953 22.993-13.953 22.993l-5.943-6.72zm88.62-65.214s10.06-.353 10.942.235 1.294 3.59.588 3.766-8.825-.118-9-.47-2.53-3.53-2.53-3.53zm0 6.177s2.706.707 3.647.59 7.413.058 7.413.587.588 2.883.235 2.883-9.354 0-9.472-.353-2.118-2.765-1.824-3.706z"/>
  <path d="M106.255 60.494s10.53-5.766 11.237-5.59.364 10.533-.348 10.944-11.007-3.766-10.89-5.354zm38.418-19.357s-1.647.177-2.883 0-3.06-.882-3.236-1.53.353-3.47.94-3.765 3.59.765 3.237.366 0-5.602 0-5.602-.88 0-3.11.06-6.65 0-7.94-.59 1.06-2.41 0-2.588-5.53 0-5.53 0 .77 4.648 0 4-8 .354-8 .354l1.36 5.06s.88.47 1.77.402 2.77 3.128 2.41 4.01-3 .472-3.47.472.12 5.413.12 5.413 4.71-.77 7-1.3 11.48-1.18 13.3-.94 4.42.94 4.42.94l-.352-4.77zm-11.53-.47c-.59.412-3.884.753-4.414-.3s-1.42-3.524-.83-3.7 3.06-.46 3.06-.46c1.06.047 3.29-.09 3.7 1.096s-.94 2.95-1.53 3.364zm12.354 7.12s-4.12-.178-5.354 0-8.943.234-10.943.763-7.354.353-7.354.353 1 2.942 1.177 4.12.06 7.294.47 7.765 6.767.412 7.12.765.94 6 .618 6.766.98 1.94 1.5 1.88 9.65 0 10.18-.24 1.53-.18 1.3-1 .65-2.47.53-2.77-3.41-.33-3.41-.33-.82.5-1.29.73-2.47-.88-3.59-1.53-1.06-3.53-.82-3.94 9.42 0 9.42 0 .3-3.95 0-6.24.47-7.12.47-7.12zm-18.592 2.175c.223-.67 3.648-.53 3.883 0s.293 3.06-.412 3.118-2.53 0-3.06-.235-.528-2.53-.41-2.883zm3.237 7.943c-2.295.118-2.765-2.976-2.177-3.005 1.006-.05 3.766.063 4.354.887s.11 2-2.18 2.118zm10.178.004c-1 .23-3.766.53-3.648 0s-.883-2.13-.294-2.13c.94 0 4.118-.01 4.47.61s.472 1.27-.528 1.51zm1.176-4.24c-.706.23-5.648-.37-5.648-.57s.175-2.6.824-2.55c.84.05 4.824-.3 4.824.35s.706 2.53 0 2.76zm15.65-23.83c.295 0 11.768-.77 13.533-.83s6.82.42 6.82.42-1.53 1.75-1.47 2.16-1 3.88-1.42 3.7-5.24-.28-5.36 0-1.36 3.814-.94 4.29 1.17-.06 1.59 0 2.23 2.23 4.35 2.642 10.17 4.06 11.06 4.946 3.33 3.22 3.47 6.06c.03.59-7.65.935-8.3 1.645s-.65-3.82-1.18-4.29-2.18-1.765-3-3.707-1.47-3-4.12-2.766-2.47 2.96-1.41 3.57 2.41.02 2.64-.51 1.59-1.53 1.59-1.53 1.236 2.763 1.295 3.41-2.53 1.53-3.35 1.94-1.415.706-1.06 1.353.822 3.65.175 3.77-8.82.29-8.173-.71 1.88-3.358 1.703-5.888-1.53-5.77-2.71-5.947-1.297-.233-1.12.91 1 2.46.823 3.19-2.238.96-2.356.727-.94-3.416-1.763-3.416-1.295.59-1.94 1.53-1.65.41-.65.94 1.707 2 2.295 2.06 3.47.355 3.59 1.47.71 2.355.12 2.355-4.12-1.18-4.47-1.77.12 2.88-.47 3.643-4.12 1.642-4.71.59.827-9.42 0-10.59-1.174-5.3-.703-5.3 8.94-.768 10.234-.827 3.41 0 3.41-.53-.232-3.29-1.703-3.35-5.882.115-6.06-.356-.292-5.06-.292-5.06z"/>
  <path d="M174.445 51.728c1.295.034 2.882-.294 3.177.882s-1.94 3.506-2.94 3.724-2.44-4.664-.237-4.606zm-16.475 5.647c.53.025 8.002.588 8.767.588s10.472-.118 11.355.294.294 1.143.94 2.13 1.12 1.87.59 1.988-4.53.588-5.355.53-.588-1.943-1.353-1.53-5.472 5.94-4.707 6.412 4.98 0 5.08-.412-.08-3.706.686-3.53 5.59 4.12 6.177 4.413 6.766 4.06 6.766 4.59-2.295 1.53-3.648 1.235-3.948-2.06-5.622-1.942-5.204 1.71-6.616 1.71-8.825-3.06-9.825-3.29 6.12-5 4.883-6.47-5.53-1.29-6.648-1.58-1.82-5.13-1.47-5.12z"/>
</svg>
