<svg xmlns="http://www.w3.org/2000/svg" width="200" height="200" viewBox="-7 -60 240 240" preserveAspectRatio="xMidYMin slice">
  <path d="M132.006 113.197c-.33-.33-2.89-1.403-3.798-1.733s-6.687.083-7.925 0c0 0-4.789-.247-5.449-.13s-4.293.955-4.623 3.598c-.33 2.641 1.816 6.604 4.045 6.935s8.834-.165 9.742-.743 4.541-3.55 5.696-4.128 2.642-3.469 2.312-3.799zm-15.85 5.119c-1.156-.991-1.486-5.036 2.972-4.706.329.024 2.643-.33 2.973 0s-1.074 2.173-.496 3.026.908 1.68.908 1.68-5.201.99-6.357 0zm8.421-.66c-1.651-1.321.722-4.878 1.733-4.541.392.131 1.815.412 1.898 1.733s-1.98 4.128-3.631 2.808z"/>
  <path d="M225.438 111.869c-.354-4.427-4.249-13.809-8.675-17.173s-10.269-7.259-10.269-7.259 3.719-1.947 2.656-1.947-3.896-3.187-16.399-4.249c-13.712-1.165-15.645 3.187-16.707 3.01s-1.239-.531-3.187-3.718-1.416-4.263-1.416-4.263 4.603 1.607 5.134.722 0-3.895-.354-4.017-5.311-.586-5.488-.763-.354-4.249-.354-5.134 1.771.177 4.426 1.239 7.79 3.541 9.383 4.249 2.125.354 3.718 0 2.931-.531 4.347-3.895-.629-12.924-.629-16.11-5.311-7.436-10.445-5.311-12.16 7.258-12.16 7.258-.764-1.416-.409-5.488.708-7.259 0-9.206-2.479-1.771-2.479-2.656v-4.78c-1.594-.177-10.977-1.239-10.977-1.239s-2.655-6.374-3.187-8.321-3.895-12.039-5.134-14.163-5.843-3.541-6.583-3.541-3.331-4.603-4.039-4.957-5.135 0-5.135 0-1.239.885-.885 2.302 1.771 4.603 1.593 5.311 1.239 4.426 1.239 4.426 6.02.354 6.02-.177 1.239-2.479 1.239-2.479.354-1.063 1.771 0 3.187 3.541 3.363 4.072 4.957 15.933 4.957 15.933h-.885s-4.78-6.727-7.612-8.498-6.728-1.593-6.728-1.593v-3.01h-4.957v4.603c-1.239-.885-3.718-.177-5.665-.354s-12.394.885-12.924.885.354 5.842.53 5.488 13.278 0 15.226-.708 2.125.708 1.594 1.239-10.445 4.072-12.747 5.134-2.479 3.541-1.947 5.488 2.405 3.009 4.78 3.009c2.655 0 2.124-4.78 2.124-4.78-1.593.177-3.541-2.302-.531-2.833 1.233-.217 6.374-1.948 8.321-1.948s1.771 1.594 1.771 1.594 5.842.708 6.373 0 .177-5.666.177-6.374 4.78.354 5.665.885 3.718 5.665 3.718 5.665l-5.311 2.125c0 1.417-.177 6.196 1.771 5.488s3.187-.885 3.187-.885 2.302 3.541 3.01 6.374 4.957 8.498 4.957 8.498l-2.479.708s-3.541-3.363-4.78-3.895-8.852 0-8.852 0-.531-1.771-.708-2.479-12.394-1.239-12.57-.531.177 3.541.177 3.541-6.196.708-8.675 1.416-7.081 4.957-7.081 4.957-1.771 0-7.79 1.771-15.225 3.718-26.909 2.479c-9.17-.973-16.288-6.728-18.059-7.436s-14.693-.354-20.182-1.239-26.734-1.591-27.265-.706-1.77 3.363.178 7.612 8.675 10.445 9.383 10.623.354 3.364.708 4.412 1.416 3.555 3.01 3.909 14.163 1.77 14.163.354 2.302-1.547 2.302-1.547 3.187-.4 6.55 0 9.206.839 9.206.839 1.416 2.833 5.134 6.019c3.718 3.188 13.986 14.871 13.986 14.871l-2.479 2.125s-9.56-7.258-12.393-9.914c-2.773-2.6-32.676-13.768-45.853-.354-19.651 20.005-14.517 42.488-1.062 53.288 12.511 10.041 27.972 13.632 41.073 6.728 13.102-6.905 15.402-18.766 16.642-19.297s2.832.885 5.311.354 5.843-1.947 7.259-1.594c1.416.354 6.373 2.125 9.383 2.125s13.81 1.771 19.12 1.771 18.235-.531 21.775-1.594 6.197-3.895 7.967-7.259c1.77-3.363 2.302-7.789 4.072-10.445 1.771-2.655 3.541-16.109 3.363-18.588s-3.54-3.896-3.54-3.896.531-5.665 1.239-7.081c.708-1.417 3.01-6.551 3.01-6.551s4.071.708 6.196-1.547 2.124-4.649 1.947-5.181 4.426-1.771 4.426-1.771 1.947 6.905 3.187 8.144c1.239 1.239 3.187 6.727 3.187 6.727s-5.488 4.072-10.799 10.092c-5.311 6.019-6.374 12.569-6.374 12.569s.886 0 2.125-1.417c1.239-1.416 3.895-.53 3.895-.53s-8.498 20.536-1.239 32.397c10.032 16.395 27.618 18.412 32.752 17.881 5.134-.53 21.776-2.479 30.982-17.172 9.205-14.694 6.903-24.431 6.549-28.856zm-42.312-51.54c.177-3.519-.354-8.299.708-8.299h2.479s1.771 7.79 1.239 10.445.13 7.259-1.794 7.259-2.808-5.886-2.632-9.405zM55.983 62.753c1.296.269 3.302.743 3.22 1.569s-3.055 3.048-3.55 2.432-4.045-4.001-4.045-4.001 2.6-.368 4.375 0zM24.364 77.77s-2.643-1.477-2.395-3.871 1.486-.908 1.486-.908.826-.009.908.573.001 4.206.001 4.206zm4.705-.157c-1.32.165-2.146.248-2.477 0s-.661-4.21 0-4.045 2.477.495 2.477.495c.661.33 3.386 1.441 3.386 2.207s-2.066 1.178-3.386 1.343zm11.558-5.078c-6.935-1.691-21.563-8.26-23.116-11.928-.66-1.559 16.017-.33 16.017-.33 1.073-.083 14.034 1.156 14.199 1.651s2.312 3.055 2.89 3.55 2.477 2.395 2.312 2.807-2.146 1.568-1.981 1.898 2.642 2.89 2.642 2.89 2.147-2.063 2.478-1.568 2.229 2.059 2.229 2.059-10.735.662-17.67-1.029zm22.456-.948c.166-.496-2.063.578-2.063 0s-2.807-2.229-2.312-2.642 3.881-2.4 4.541-2.191 10.072 1.778 17.337 1.2c.905-.072 10.732-1.899 13.374-2.394s10.732-1.651 11.063-1.651-1.815 7.43-9.246 10.155-13.871 1.555-17.668 1.603-7.264-.529-8.42-1.025-6.772-2.559-6.606-3.055zm77.506 15.438c.248.496-6.191-4.623-6.521-5.035-.33-.413.496-2.34.908-1.79s3.055.22 3.055.22 3.467-.496 3.88 0-1.57 6.111-1.322 6.605zm-5.518-1.072c-.095-.661.813.742.813.742s2.045 2.063 2.096 2.312-6.06.495-5.812 0 .413-2.326.991-1.947 2.007-.447 1.912-1.107zm-6.255 36.655c.301.247-7.086.413-10.905.825-3.819.413-7.203.908-9.268-1.072-2.064-1.982-1.073-7.926-.743-10.238.33-2.311 1.354-4.434 6.745-4.363s5.176.648 5.176.648c.628.33 8.471 1.32 9.544 1.568s4.879 1.238 4.627 4.211-2.181 5.284-2.867 5.531c-.687.248-2.61 2.643-2.309 2.89zm-22.983-17.585c.247-1.156 2.56-2.146 4.128-2.807.775-.327 3.039.886 3.355 1.568.689 1.486-2.612 2.146-4.842 2.395-2.228.247-2.888-.001-2.641-1.156zm-1.734-3.963c-1.403-.743-1.321-7.279-.577-7.266.66.014 6.522.165 6.77.413s.165 1.569.66 2.312c.495.743.826 2.725.908 3.055s-3.385-.082-4.169 0-2.189 2.229-3.592 1.486zm14.341-8.174h3.987s.317 1.816-.956 1.899-6.805.247-6.805 0-.165-1.733.413-1.899c.579-.164 2.263 0 3.361 0zm-3.03-3.594c.083-.451 0-1.433.578-1.479s.578.32.908-.977c.33-1.299.742-.826 2.394-1.063 0 0 2.063.203 2.146 1.759s.084 2.216-.742 2.298c-.826.085-5.367-.086-5.284-.538zm8.339 7.557c.082.413.165 1.32-.743 1.568s-6.11.33-6.357 0-1.32-1.32-.495-1.402c.825-.083 2.89-.166 2.89-.166.989 0 4.623-.412 4.705 0zm9.576 11.559c-.413 0-7.017-3.314-8.338-3.268-1.321.048-6.035-.027-6.36-.365-.539-.562-1.201-1.898-.187-1.898s7.037-.668 7.867-.715c.825-.047 8.698-.633 9.344 0 .646.632-.237 2.201-.58 3.026s-1.333 3.22-1.746 3.22zm2.311-15.192c.083.414-.152 4.376-1.645 5.201-1.492.826-5.062.496-5.176.331s-1.352-.34-.774-1.243 1.486-.078 1.568-.738.329-1.637-.083-1.851-3.24.792-2.899 0 1.083-2.105 1.826-2.103c.001.001 7.1-.009 7.183.403zm-6.919-6.157c-.346 1.782-.677 1.782-2.08 1.864-1.403.083-1.402-.139-1.65-1.39s-.826-1.439-.413-1.759c.413-.318 2.648-1.295 3.22-.979.645.359 1.269.482.923 2.264zm-8.4-3.997c-3.421-.247-6.274 1.156-7.342 2.713-1.205 1.759-2.354 3.226-2.106 3.518s-6.108.863-5.943 0 4.133-5.404 4.705-6.23c.964-1.391 1.406-2.247 4.376-2.394.521-.026 6.852-.248 8.173 0s4.594-.248 4.443.743c-.151.99-2.885 1.898-6.306 1.65zm-70.192 17.586c0-.824 3.798 1.569 3.798 1.569.825.743 4.375 4.045 4.375 4.54 0 .496-6.108 4.135-6.687 4.545-.578.409-4.707-1.654-5.862-1.737s4.376-8.091 4.376-8.917zm-2.477 27.244c-.083.743-1.814 1.816-1.856 1.32-.042-.494-1.94-2.807-1.858-3.302.066-.407 3.797 1.239 3.714 1.982zm-1.238-12.301c-.165.66-.826 5-2.395 6.381-1.568 1.379-10.401-2.088-12.466-2.831s-9.989-1.706-9.989-2.505c0-.797 2.395-7.898 3.22-7.732s8.468 2.273 9.164 2.398c.907.162 6.356 1.152 6.852 1.152s4.046.66 4.541 1.238c.495.578 1.238 1.239 1.073 1.899zm-6.027 11.393c-.221-.588 1.733 3.799 1.733 4.623 0 .826-3.468 1.568-3.303.908s1.818-4.871 1.57-5.531zm-7.699-3.055s-4.932 4.272-5.015 3.664c-.083-.609-.495-3.252 0-3.664s1.237-2.117 1.65-1.637 2.931 1.554 3.365 1.637zm5.488-27.244c.477-.495 3.054-.072 3.449 0 .324.061 3.302.826 3.302 1.321s-1.073 4.788-1.073 5.036-.578 5.201-1.238 5.201-2.063.164-2.063-.496-2.853-10.566-2.377-11.062zm-4.886 0c.575-.494 1.731-.66 2.062 0 .33.661 2.642 9.99 2.807 10.32s-.826.908-1.486-.496c-.662-1.402-5.692-7.842-3.383-9.824zm-6.03.908c.339.029 6.191 7.348 6.026 7.678s-6.273-.412-7.265-.66-6.193-.166-6.027-.99c.167-.827 6.276-6.11 7.266-6.028zM14.625 108.41c.908-.166 3.303-.496 3.468 0 .165.494-.943 4.086-1.321 4.127-1.233.135-2.971.742-2.889 0s-.166-3.962.742-4.127zm-.33 19.402c-.908-.828-1.485-6.854-.825-9.248.66-2.395 2.406-2.238 2.406-2.238s-.048 2.898.424 3.063 7.489 1.155 7.489 1.155v1.656s.99 2.307 0 2.637-4.375 1.899-4.375 1.899c-.908.578-4.21 1.904-5.119 1.076zm1.735 4.951c-1.073-.578 3.798-3.715 4.953-4.211 1.155-.494 1.816-1.559 3.22.377s.972 1.688.972 1.688c-.312.99-4.238 7.27-5.466 7.187s-2.606-4.463-3.679-5.041zm10.897 7.465c-.496.956-1.404 2.194-2.064 2.111-.66-.082-4.706-2.642-4.458-3.137s5.283-7.265 5.861-7.182c.578.082 2.477 1.98 3.385 2.063 1.3.118-1.99 3.632-2.068 4.045s-.16 1.143-.656 2.1zm4.87 3.681c-.412.413-4.375-.083-4.21-.578s3.714-7.925 4.21-7.925 2.395.66 2.395.66c-.082.66-1.983 7.43-2.395 7.843zm-.743-11.972c-.578-.164-3.221-1.533-2.973-2.088.248-.554 6.275-4.93 6.936-5.26.596-.297-3.385 7.514-3.963 7.348zm8.669 12.963c-2.312.33-4.54.082-4.54-.414 0-.494 1.981-8.337 2.477-8.42s4.953-.66 4.953-.66.468 2.033.908 2.807c0 0 2.157 3.715 2.069 4.127-.088.413-3.555 2.23-5.867 2.56zm9.164-4.376c-.33-.165-3.126-5.778-3.297-6.274s1.067-.883 1.067-.883l1.651 2.369s2.395 2.971 2.395 3.302-1.486 1.651-1.816 1.486zm3.798-2.725c-1.238-.165-4.376-5.366-4.706-5.696s1.982-3.55 2.395-3.137c.412.412 3.302 1.568 3.302 1.568s3.468.908 3.963 1.733-3.716 5.697-4.954 5.532zm16.924-11.64c-.99.083-11.97-.495-13.126-.825s-6.688-2.634-6.771-3.216 1.575-6.03 2.232-5.783 7.18 1.733 7.18 1.733 6.355 1.816 6.687 1.816 5.779.991 5.944 1.404c.165.413-1.156 4.788-2.146 4.871zm1.801-18.327c.66-.578 1.486.742 1.981.33.495-.414 5.201-2.395 5.201-2.395s4.705 6.274 4.953 6.604-8.028 3.543-8.514 3.175-4.281-7.136-3.621-7.714zm4.705-20.393c.826-.165 5.372-.271 6.688-.33 0 0 6.522-.33 6.853 0s1.134 2.395.525 2.395-6.057-.991-7.378-.413-5.189.083-5.36 0-2.154-1.487-1.328-1.652zm5.697 10.154c.577-.164 4.21-.412 4.21-.412.908-.082 4.872.165 4.046 1.238s-1.733 5.696-2.89 5.696-5.943-6.356-5.366-6.522zm-2.146 30.673c-.413.039-4.872.539-4.624 0s.991-4.585 1.486-4.749c.495-.166 2.064 0 2.064 0s2.064.33 2.146 1.155-.659 3.555-1.072 3.594zm.66-8.795s4.623-1.815 5.696-1.898c1.019-.078 1.076 1.462 1.981 1.568.702.083-.991 1.321 0 1.733.991.413.001.955.702 1.098.701.141-1.609.801-3.674-.52s-4.705-1.981-4.705-1.981zm10.237 10.898c-.661.083-4.541-.082-4.541-.578 0-.494.33-3.797 1.981-3.219.546.19 3.467.164 3.385.908-.082.742-.164 2.807-.825 2.889zm-.826-36.903c-.577.164-8.408.082-8.992 0-.584-.083-1.327-1.309-.832-1.48.495-.171 5.366-.502 5.366-.502s3.063-.082 3.555 0c.491.083 1.377-1.072 1.347-1.072s1.129.004 1.21.538-1.077 2.35-1.654 2.516zm4.376-9.146c.248-1.091-.248-1.257-1.156-1.174s-7.26.413-8.377.33c-1.117-.082-9.146.578-9.548.496-.402-.083-5.026.742-5.852 0-.825-.743-3.302-4.458-2.972-4.624s3.55.166 3.55.908.661 2.311 2.56 1.816 7.63-.562 10.84-.33c0 0 8.234.743 8.232 0s-.816-1.734.004-1.816 4.535-.99 4.865-1.651 3.797-.991 3.88 0-.329 1.898.991 2.559c1.32.661-4.458 7.183-4.871 8.091s-2.146 2.064-2.146 2.064-.248-5.578 0-6.669zm.33 22.685c.908-1.404 3.468-6.605 4.293-6.605s1.238 2.229 1.238 2.229 1.572 2.597 1.816 3.637c.331 1.409-8.255 2.143-7.347.739zm.991 4.739c.33-1.023.855.838 2.653.793.736-.02 2.96-.001 3.125-.578.165-.578.844 0 .587 1.898s-.784 2.972.058 3.467c.842.496-4.855.909-5.516.414-.66-.496-1.237-4.969-.907-5.994zm4.375 10.287c.369-.555 4.695.99 5.113.494.418-.494.418 1.239.418 1.734s.319 1.486-.418 1.568-6.71-.291-8.911-2.559c-1.32-1.36 3.138-.247 3.798-1.237zm33.106 10.154c-4.953 1.238-11.889 1.321-13.457 1.321s-9.08-.743-9.906-.825c-.826-.083-7.101-.578-7.596-.661s-3.633.66-3.633.083c0-.578.578-3.055.908-2.807.33.247 7.507 1.617 8.916 1.65 0 0 12.798.33 13.953 0s9.411-.908 10.484-2.229c1.073-1.321 4.129.825 6.688-4.376s-1.404 6.606-6.357 7.844zm9.742-21.878c-.743 2.642-5.118 12.384-5.366 12.466s-1.982 3.963-2.808 3.551c-.825-.414-.494-.476-1.155-.486-.661-.01-5.743 2.55-8.898 2.467-3.155-.082-9.928-.247-12.568-.825s-6.375-.083-6.076-.908.594-1.817 1.644-1.569 9.47 1.569 11.699 1.569 10.155-.413 10.65-1.238 5.225-5.449 5.873-7.843c.648-2.395.73-1.289 1.309-2.791s-.907-3.979-.742-4.723c.165-.742 4.376-8.916 4.623-9.576s2.406-.721 2.477 0c.152 1.58.081 7.265-.662 9.906zm3.382-35.005c-.495.165-14.859 2.063-21.052 1.816s-17.75 1.2-18.493.022 6.853-6.378 7.678-9.186 4.706-9.66 7.513-9.99 10.154-1.156 10.154-1.156c1.238-.083 8.751-.413 10.237 0s5.532 1.239 5.779 2.477.083 4.458.908 5.118 2.229 5.037 2.229 5.697-4.458 5.037-4.953 5.202zm59.907 24.875c.087-.338.087-.949.087-.949.785.438 2.267 1.636 2.18 2.301s-5.317 4.811-5.841 5.136.623-1.439.529-2.214.167-2.367.604-2.922 2.354-1.014 2.441-1.352zm-6.104-3.476s3.226.872 3.052 1.744-3.399 7.586-4.882 8.109c-1.482.522-4.447-.959-4.186-1.221s1.918-6.802 2.18-7.499 1.479-2.049 3.836-1.133zm-2.961 13.863c-.526.872-3.323 3.053-3.581 4.534s-2.268-.61-1.655-1.308 2.967-5.406 2.967-5.406c.61.262 2.796 1.308 2.269 2.18zm2.526 2.529c.387.051 1.831 2.266 1.569 3.051s-7.009 2.301-6.73 1.848 3.853-5.074 5.161-4.899zm-2.526 11.617s2.874 2.188 2.525 2.958-2.441 2.322-3.139 2.069c-.697-.254-3.575-8.661-3.575-8.661l4.189 3.634zm-1.223-4.751s3.661-1.025 4.098-1.025-.155.307.707 1.025c.211.176 1.473-.153 1.386.632-.087.784-.505 3.139-1.386 2.527-.881-.609-4.805-3.159-4.805-3.159zm-5.145-21.95c.437-.436 1.94-1.741 2.354-1.918 0 0 .959-.697.959.609 0 1.309-2.179 7.761-2.615 7.674-.437-.088-1.831.522-1.744-.698s.61-5.231 1.046-5.667zm.088 37.574c-.523.701-4.888.266-4.973.353s-1.654-1.134-1.131-1.657c.523-.522 3.662-7.574 3.662-7.574l.959 3.59s.35 2.852.872 3.811 1.135.777.611 1.477zm-5.318-40.8c.359-.012 3.486-.088 3.399 1.656s-1.831 7.237-2.267 7.237-4.01-7.934-3.836-8.282c.174-.35 2.013-.588 2.704-.611zM170.556 56.81s6.904-4.072 7.436-3.541.177 5.799 0 7.06 1.063 7.28 1.063 7.28-7.612-2.854-7.612-3.64-2.113-6.452-.887-7.159zm-9.206-21.245s-1.24 2.478-1.859 3.187-1.15 0-1.15 0l-.708-3.187h3.717zm-9.383 10.799c-1.239-3.364-2.479-6.275-3.718-7.298l4.072-3.501s1.947 4.603 1.947 5.842.354 5.311 1.239 6.728 3.01 4.78 3.01 4.78-1.416 2.125-1.947 1.239-3.363-4.426-4.603-7.79zm3.718 21.245s-1.063-5.488-2.302-6.55c0 0 3.187-.883 4.249-.707s1.825 6.372 1.825 6.372l-3.772.885zm3.806-24.255c.267-.885.642-1.365 1.859-1.239 2.121.219 2.479 0 3.01 4.072s1.771 3.718.531 4.072-2.833.708-3.541 0-2.126-6.019-1.859-6.905zm2.95 13.102s1.393-.885 2.983 0c1.463.814-.354 6.403-.11 7.852.156.27.22.401.11.292-.057-.057-.089-.164-.11-.292-.851-1.473-4.818-7.616-2.873-7.852zm2.983 18.057c2.122-.354 2.653 1.687 3.361 4.473s7.259 15.533 9.029 17.657 6.551 12.923 8.498 15.226c1.947 2.301 4.78 6.55 3.187 8.32s-4.495.885-4.106 0-4.392-9.737-6.339-14.518c-1.947-4.779-6.196-10.977-7.259-12.038s-2.479-3.895-2.655-4.78c-.177-.885-3.716-14.34-3.716-14.34zm10.442 33.348l-.523.523s-4.884-4.446-5.362-4.708 1.971-2.147 2.813-2.147c.533 0 1.573 2.147 1.573 2.147s2.022 3.662 1.499 4.185zm.683 9.45c1.322-.208 4.111.864 4.635.765.523-.101-.366 1.207-.366 1.207s-5.998 2.279-5.998 1.794.407-3.558 1.729-3.766zm6.641 7.399c.087.764-1.294 2.335-1.744 2.977 0 0-2.441 3.52-2.79 3.66-.349.143-1.598-2.617-2.106-3.679s-2.183-2.247-2.183-2.247 8.736-1.474 8.823-.711zm-15.258-18.045c.436.237 2.18 1.371 2.18 1.371s2.877 1.743 3.139 1.743-.174 1.309-.959 1.309-5.648-1.744-5.658-2.529c-.01-.785.863-2.132 1.298-1.894zm-3.837 9.829c.262-2.965 1.763-3.662 2.538-3.837s5.745.96 6.094.872-.784 1.221-.784 2.267.026 6.005-.685 6.142-1.845-.071-3.152-.039c0 0-2.44.088-2.964 0-.523-.087-1.309-2.441-1.047-5.405zm-1.133 8.544c.349-.437 6.888-.437 6.888 0s1.047 2.18.61 2.18-2.494.131-3.749.47c0 0-3.399.921-3.749 1.01-.349.089-.348-3.224 0-3.66zm8.109 15.672c-.959.107-3.314-2.42-3.837-3.554s-1.655-4.186-1.133-4.708c.522-.523 5.318-3.662 5.667-3.75.349-.086 1.71 2.79 2.599 2.965s1.586 1.832 2.109 2.354-1.899 1.521-2.528 2.702c0 .001-1.918 3.884-2.877 3.991zm6.452 4.459c-.523-.34-3.401-.947-3.14-2.213s3.837-5.625 3.837-6.062 1.138-1.232 3.749 0c.924.437-1.151 2.441-1.151 2.441-.244.612-2.772 6.174-3.295 5.834zm16.304 1.055c-.523.785-5.058 1.656-6.714 1.569s-6.626-.958-6.277-1.656 2.181-5.31 2.354-5.837.436-2.185.959-2.185 7.319.087 7.496 0 .351 2.185.351 2.185 2.354 5.139 1.831 5.924zm3.923-1.744c-.785.523-1.482 1.57-2.354-.784s-2.006-6.103-2.093-6.714c-.087-.609 1.831-2.012 2.354-1.398.523.614 2.093 2.881 2.093 2.881s2.005 3.488 2.615 3.836c.611.349-1.829 1.657-2.615 2.179zm9.889-6.626c-.124.698-3.524 3.661-3.873 3.575-.349-.088-5.24-7.673-5.41-8.109-.17-.436 1.748-1.133 2.271-2.092s.858-1.57 1.606-1.482 3.712 2.441 3.712 2.441 2.588 1.744 3.387 1.831-1.569 3.138-1.693 3.836zm3.451-4.97c-.498-.332-4.581-4.537-5.709-5.127-.242-.078-.33-.113-.156-.07.041.011.099.039.156.07.937.304 4.301 1.313 4.794 1.465 0 0 3.27.959 3.356 1.396s-1.917 2.615-2.441 2.266zm3.628-5.284c.018.019.024.036.018.054-.025.061-.026.03-.018-.054-.247-.267-2.868-.706-4.5-1.604-1.744-.959-5.667-.61-5.58-1.221s-.612-3.575-.001-3.575 9.069-1.83 10.202-1.046c0 0 .697 2.354 1.046 2.964.478.837-1.307 2.268-1.133 2.878.133.466-.005 1.334-.034 1.604zm1.604-11.368c-.175 1.83-2.161.349-2.258.871-.097.523-1.491.611-2.276.523s-6.627.844-6.976.029-2.018-5.174-2.578-5.958 6.066-4.312 6.415-5.033 1.909-1.155 3.139 1.196c0 0 2.094 3.924 2.354 4.709.261.784.087 2.005.697 2.005s1.658-.174 1.483 1.658z"/>
  <path d="M129.656 62.188s-2.625-.194-3.014-.016-2.43 5.604-2.526 7.208 1.895 1.895 2.187 1.895.632-3.207.777-3.45 4.229.243 4.812.486.777-.729.534-1.215-3.013-.631-3.158-.729-.243-.778 0-.923 3.158-.195 3.45-.195.291-2.381.242-2.721-2.916-.388-3.304-.34zm16.085 4.714c.292.048 2.187-1.36 2.187-1.847s-1.943-1.944-2.624-2.584-5.151-.428-5.297-.374.243.578 0 .723-1.118-.389-1.118-.389-2.478-.34-2.77-.334c0 0-1.749-.006-2.041-.077s-.632 2.599-.583 2.938 1.215-.048 1.604 0-.049 1.41-.146 1.728-.341 3.861-.389 4.25 2.138.34 2.381.34.146-1.895 0-2.672.777-3.451.632-3.791.68-.243.777.048 1.555.778 1.555.778.049 6.609-.097 6.9 2.479-.048 2.722-.243.146-2.138.291-2.235 2.09 1.604 2.43 1.847 1.652-2.187 1.652-2.43-2.527-2.235-2.575-2.575 1.117-.049 1.409-.001zm-2.916-1.021c-.389.146-1.118-2.041-.243-2.333.19-.063 2.091.292 2.188 1.118s-1.557 1.069-1.945 1.215z"/>
</svg>
