<svg xmlns="http://www.w3.org/2000/svg" width="200" height="200" viewBox="-90 -11 330 330" preserveAspectRatio="xMidYMin slice">
  <path d="M24.341.597C24.336.412 24.327.216 24.31 0c0 0-.12.187.031.597zm86.762 261.676c-6.283 1.66-14.584 4.743-14.584 4.743s1.305-3.913 1.305-5.811-.236-7.47-1.778-20.038 1.423-31.539 1.423-33.792 2.016-18.969 1.304-18.494-6.403 12.094-7.233 13.161-2.845 1.659-2.845 0 2.016-34.979 2.253-41.736c.236-6.758-2.135-27.629-2.135-27.629s5.336-9.723 6.759-16.362 6.046-33.554 5.335-50.627c-.712-17.073-6.166-37.112-7.115-40.67-.948-3.558-5.335-15.058-5.572-13.161-.522 4.178.711 15.533.475 16.481s-3.438 6.877-3.557 5.572c-.119-1.305-2.016-5.217-2.372-5.417s-1.186-9.76-1.067-12.013-2.964-12.687-2.964-12.687-1.284 6.94-.933 8.712c.933 4.687-.253 3.975-.609 9.192-.352 5.161-2.672 6.722-2.723 6.755-.074-.144-.411-.751-1.664-2.961-2.016-3.557-3.082-5.691-3.201-7.232-.094-1.218-3.082 4.624-3.082 4.624s-2.609-2.965-3.558-4.506-7.724-5.988-7.724-5.988-.908 2.813-.457 4.565c.887 3.455-.594 7.825-.594 7.825s-.355-1.304-3.32-5.335c-2.964-4.031-4.979-10.909-5.335-10.197-.721 1.443-.593 7.589-.593 7.589S38.894 10.079 31.067 5.81C25.925 3.005 24.629 1.383 24.34.597c.07 2.472-.822 2.487 1.389 9.119.83 2.489 0 11.265.118 14.466s-.948 12.568-1.897 8.773c-.948-3.794-14.109-14.702-14.109-14.702s-.355 2.964.711 8.3c1.067 5.336 5.811 18.971 7.471 22.409s5.454 24.426 3.794 23.833c-4.458-1.592-9.604-11.62-10.671-13.991S0 51.334 0 51.334s1.423 6.758 3.201 8.3 8.657 18.142 7.59 26.916-.118 25.971 4.507 38.772c5.097 14.11 16.362 24.425 20.156 28.456 3.795 4.031 6.877 18.379 7.471 23.596.592 5.217-.593 18.976-.593 18.976-2.728-4.742-22.528-16.244-20.987-14.466s5.336 19.208 6.76 32.726c1.422 13.518.119 39.364.119 39.364s-13.992 4.387-18.023 17.311 1.897 20.039 1.897 20.039 1.423-1.067 1.897-3.795c.474-2.728 5.928-11.976 6.995-11.976s2.608-.83 4.506 7.589 1.304 18.733 1.542 21.461c.236 2.728-1.779 10.197 4.149 14.109s17.667 1.542 25.492.356 16.6.948 21.461 0 4.031-1.897 4.031-1.897 3.913 1.897 9.367-2.016 8.063-15.651 8.655-20.394 6.641-16.245 9.486-19.684 12.33-11.383 12.33-11.383-4.621-3.081-10.906-1.421zm-98.626 17.121s-2.057-.475.948-7.909c3.006-7.435 15.66-10.914 15.66-10.914-4.904 3.163-16.608 18.823-16.608 18.823zm77.979-65.172l-1.266 10.281s-6.327 9.49-12.02 21.865-8.22 49.471-8.22 49.471l-5.065-7.117s2.686-26.099 8.222-42.354c4.443-13.045 18.349-32.146 18.349-32.146zm-31.635 10.281s10.439 11.39 10.123 13.604c-.277 1.945-4.334 8.649-4.994 10.678.006.41-.014.62-.064.552-.057-.077-.027-.271.064-.552-.056-3.375-2.025-21.179-5.129-24.282zm-5.694 47.136s.158-18.506 0-31.793-5.694-28.787-5.694-28.787 6.801 8.066 7.908 9.965 6.96 43.972 5.537 45.237c-1.424 1.266-1.107 16.608-2.057 15.343s-5.694-9.965-5.694-9.965zm5.694 20.092s-4.745-.633-8.383-4.112c-3.639-3.479-9.965-19.771-9.965-19.771s6.01 3.479 7.592 7.117 10.756 16.766 10.756 16.766zm11.737-180.084c1.99 1.695 8.457 6.351 8.457 7.463v6.353s-12.692-5.417-14.848-13.815c-1.509-5.877 5.736-.559 6.391-.001zm-1.707-13.339c.849.371 5.559 1.905 6.353 3.811s1.747 8.099 1.747 8.099-11.91-4.288-12.228-7.305.505-6.192 4.128-4.605zm16.832 90.672c.159 2.541-.011 18.738-.011 18.738s-3.642-7.781-2.848-20.644 4.288-15.086 4.288-15.086-1.588 14.451-1.429 16.992zm-3.653-18.42c-.158 3.334-2.699 35.729-1.905 37.952s1.054 4.923 1.054 4.923-6.613 14.45-5.977 10.957c.635-3.493.238-32.378 2.858-40.777s6.034-41.321 6.034-41.321 1.588 6.828 1.588 8.893-3.492 16.039-3.652 19.373zm-5.08-34.298s3.334 2.383 4.127 2.064c.795-.318-3.334 16.332-3.334 19.123s-.791-19.757-.793-21.187zm-1.748-8.892s5.082 1.587 6.034 1.746 1.588 3.652 1.588 3.652-6.104-.592-7.622-5.398zm-8.646-2.956c1.595 2.188 5.627 6.566 6.965 12.256s1.07 24.955 0 24.955c-1.069 0-3.744-7.005-3.744-7.005s-.438-2.407-1.308-4.158-7.464-17.292-7.464-17.292.016-1.095 0-3.502c-.014-2.407-1.518-4.597-2.174-6.786s1.095-5.472.985-6.696h2.079c.001-.001 3.065 6.039 4.661 8.228zm5.627 107.253l-6.566-7.441s1.095-14.229 0-14.885c0 0 7.006-7.005 8.318-7.661 0 0-1.533 11.82-1.752 15.541s0 14.446 0 14.446zm-4.596-74.217l1.982 4.175s-3.296 3.283-3.953 1.97c-.656-1.313-.875-4.378-.875-4.378l2.846-1.767zm-4.816-4.8l-.876-6.35s2.189 1.973 3.721 3.942l-2.845 2.408zm2.845 19.7c1.971-2.627 4.16-6.129 4.16-6.129s2.625 3.722 2.406 6.129-6.566 8.536-6.566 8.536-1.97-5.909 0-8.536zm7.224 5.472s1.532 7.88 0 9.631-5.909 3.722-5.909 3.722l-1.314-4.378c-.001-.001 7.223-7.662 7.223-8.975zm-7.224 22.764l1.095-3.503s4.815-5.472 7.224-7.004v5.253l-8.319 5.254zm-6.785-51.876c2.408 2.627 2.408 18.167 3.283 29.549.877 11.382.876 41.589 0 40.932-.875-.657-5.253-7.223-5.253-7.223v-57.567l1.97-5.691zm-7.441-32.525c.876 11.254-2.846 11.948-2.846 11.948s-4.378-5.254-3.064-6.129 4.378-9.85 4.378-9.85l1.532 4.031zm-1.095-26.554s6.128 3.483 6.566 4.577-1.313 7.005-1.751 7.661c-.437.657-5.91-7.84-4.815-12.238zm5.034 37.408l1.532 5.691c-1.437-1.23-3.257 11.769-3.3 13.402.023.1.033.168.017.168-.014 0-.019-.059-.017-.168-.273-1.232-3.267-9.463-3.267-9.463l5.035-9.63zM51.7 206.295s-6.165-6.522-6.047-6.996c.119-.474.863-22.765.863-26.026 0-1.173 4.473 7.529 5.184 19.505.318 5.339 0 13.517 0 13.517zM92.21 94.178c-.811 1.905-1.361-11.239-1.563-12.527 0 0 2.165-.176 3.126 1.253s-.752 9.369-1.563 11.274zm2.365-17.968s-4.045-1.404-3.928-1.723 0-6.035 0-6.035 3.452 1.589 3.928 3.177c.477 1.588 0 4.581 0 4.581zm.636-17.92s1.008 6.381-1.438 6.908c-1.272.274-4.597-7.384-3.929-6.908s5.367 0 5.367 0zm-5.876-24.807c1.67 2.941 1.271 9.087 1.271 9.087s-4.764-.001-4.683-2.7c.082-2.7 3.412-6.387 3.412-6.387zm2.064 13.691c1.368.477 2.858 5.558 2.223 6.511-.635.953-4.764.158-5.338 0s-2.125-7.305-2.361-7.94c-.235-.636 5.476 1.429 5.476 1.429zm-6.351 63.043c0 .635-4.129-10.162-2.224-13.18 0 0 2.065-1.27 2.858 0 .796 1.27-.634 12.546-.634 13.18zm.635-19.532s-1.481-2.859-3.361-2.224c-1.879.636-3.396-5.611-1.9-6.193 0 0 2.617-1.746 3.701.636s1.56 7.781 1.56 7.781zm-6.619-21.597s3.76.001 4.396 1.747c.635 1.746.69 6.034.662 7.146-.027 1.111-3.577-2.382-5.058-8.893zm5.665-7.78c0 .952.636 3.017 0 3.89-.635.873-6.034-1.666-5.717-8.813.03-.674 2.149-1.587 2.584 0 .434 1.587 3.133 3.971 3.133 4.923zm-3.55-16.675c.852-.477 1.143 7.543 1.143 7.543L79 50.985s-1.414-4.763-1.098-7.463c-.001 0 2.426 1.588 3.277 1.111zm-2.115-11.15c1.061 1.146 1.356 4.544 1.356 4.544s-2.993.414-3.471 1.049-.954-4.923-.954-4.923 2.009-1.817 3.069-.67zM76.95 97.038s-7.781-3.335-9.449-3.335c-1.667 0-2.144-10.323-3.334-10.799 0 0 6.271 2.7 7.543 4.605 1.269 1.906 5.24 9.529 5.24 9.529zm-2.699-16.674c0 1.271-4.289-.478-5.4-2.7s-1.35-6.034-1.35-6.034l4.209 1.27s2.541 6.193 2.541 7.464zm-1.906-11.276c-.953 0-6.67-1.27-6.352-7.78 0 0 5.398.316 5.717 1.27.317.953 1.588 6.51.635 6.51zm-2.382-19.055c.952 1.112 1.747 6.353 1.747 6.353s-6.193 0-6.987-.953-1.429-7.464-1.429-7.464 5.717.951 6.669 2.064zm-1.112-7.463l-6.51-1.588s-1.746-7.146-2.858-7.464c0 0 3.652-.316 5.24.953s4.128 8.099 4.128 8.099zM58.847 20.337s5.24 3.651 5.876 5.24c0 0-1.588 1.27-1.588 2.858 0 0-4.288.317-5.399.953s1.111-9.051 1.111-9.051zm-1.986 48.042c1.095-.219 0 6.567 0 6.567s-6.129-.657-6.566-2.189-.145-7.442-.145-7.442 5.617 3.283 6.711 3.064zm-1.532-11.606c1.533.225.219 5.04 0 5.259s-4.859-.875-5.275-2.407c-.415-1.532 0-6.785 0-6.785s3.744 3.708 5.275 3.933zm-5.034-25.166s4.21 4.504 3.406 8.126c-.625 2.815-3.647-1.122-3.647-1.122l.241-7.004zm-.241 12.971s2.02 1.258 3.647 3.884 1.409 5.472 1.409 5.472l-5.24-2.191c0-.001-.932-6.452.184-7.165zm6.877 35.849c1.463.647.727 9.442 0 9.204-.726-.238-9.043-6.367-8.387-8.118s-.166-6.566-.166-6.566 7.09 4.833 8.553 5.48zM45.917 98.953l2.627 9.043s-3.502 9.193-3.939 8.099c-.438-1.095-2.189-10.288-2.189-10.288l3.501-6.854zm-6.566-27.73l3.064 4.815s-3.064 14.228-4.815 13.57-2.188-4.815-2.188-4.815l3.939-13.57zm-4.93 4.816c-.334 0-2.95-4.378-3.169-6.129s3.064-13.353 3.722-13.134c.656.219 2.626 7.88 2.626 7.88s-2.846 11.383-3.179 11.383zm7.994 8.754l2.189 4.838s-2.189 10.703-2.408 9.171-2.408-5.253-2.408-5.253l2.627-8.756zm2.189-15.975c.438 3.939-3.941-8.1-2.408-9.851 0 0 2.626-.438 3.283 0s-1.313 5.911-.875 9.851zm.822-12.707c-.192.662-3.011-.257-3.999-1.302-2.512-2.656-3.827-5.554-3.827-5.554s5.718-8.242 6.143-6.707 1.875 12.901 1.683 13.563zm-.822-24.504c.875.656 0 5.91 0 5.91l-7.005 3.23s-3.065-4.159-2.188-4.57c.875-.411 8.317-5.226 9.193-4.57zm-.862-3.721l-8.489 1.97-.832-3.064s2.906-2.434 4.66-2.846c4.661-1.094 4.661 3.94 4.661 3.94zm-3.619-9.193s.222 1.75-1.042 2.407c-1.262.657-4.984.656-5.641 1.313s-1.313-9.193-1.313-9.193l7.996 5.473zM26.437 42.548l4.815 8.537-1.97 9.85s-4.378-8.099-4.941-8.755c-.563-.656 2.096-9.632 2.096-9.632zm-8.319-7.66l6.223 5.253s-.969 5.034-2.063 4.378c-1.094-.656-4.16-9.631-4.16-9.631zm-6.377 34.701s7.352 5.336 7.232 6.284c-.118.948-3.081 5.335-3.615 5.81s-1.838-8.773-3.617-12.094zm3.617 22.529c.059-1.541 7.173-8.538 7.173-11.027 0-1.326.829 7.47.829 7.47s-7.113 7.707-7.469 8.182-.591-3.084-.533-4.625zm1.364 11.026c0-.711 7.232-6.164 7.351-7.943 0 0 .948 4.505 0 5.81s-5.691 4.624-6.284 4.861-1.067-2.017-1.067-2.728zm1.541 10.138c.593-.533 6.059-3.143 6.23-5.632 0 0 .303 5.218 0 7.589s-3.886 3.676-3.886 3.676-2.937-5.1-2.344-5.633zm9.248 15.355c-.236 2.134-.83 5.098-2.371 4.505s-4.678-6.284-4.532-7.47 2.442-3.557 4.021-2.964c.513.193 3.118 3.795 2.882 5.929zm.593-37.231s-.119-8.69 0-10.451c0 0 2.964 4.404 3.319 6.42s-2.372 5.336-2.372 5.336l-.947-1.305zm1.649 11.145c.248-1.186 3.213-8.773 3.213-8.773s2.016 5.945 1.777 6.767c-.236.821-3.201 4.888-3.912 5.345s-1.325-2.153-1.078-3.339zm2.477 17.786c-.569 0-2.585-3.439-1.992-4.98s4.524-8.418 4.524-8.418c1.166 1.066 1.76 4.861 1.76 5.81s-3.722 7.588-4.292 7.588zm4.292 8.537s-3.783-3.557-3.196-4.387 2.011-5.335 3.789-5.572c0 0 .948 3.319.712 5.81-.238 2.489-1.305 4.149-1.305 4.149zm4.389 15.175s-3.365-4.861-3.047-6.521c.319-1.66.794-6.284 3.047-6.521.707-.074 1.896 5.218 1.896 8.419s-1.896 4.623-1.896 4.623zm1.897 6.874c-.755-.574 3.912-6.04 3.32-8.415 0 0 2.846 2.371 3.557 8.655s1.186 10.904-.711 12.684c0 0-3.202-10.669-6.166-12.924zm7.314 79.85c1.266 5.479 1.265 39.284.949 37.861-.316-1.423-6.803-6.169-6.803-6.169s.158-11.389.949-22.461-5.061-35.272-5.061-35.272c3.481 1.897 8.7 20.562 9.966 26.041zm-16.451-29.362s2.531 8.066 5.854 16.925c3.321 8.858 2.53 43.181 1.897 41.757s-7.751-4.429-7.751-4.429 1.266-9.332 1.582-17.557-1.582-36.696-1.582-36.696zm-3.637 69.283s1.918-3.005 3.015-3.796 9.322 12.021 9.322 12.496-3.954-1.74-3.954-1.74 3.32 12.338 2.214 12.259-3.005 1.345-3.638 0-3.321-16.847-6.959-19.219zm.79 11.389s4.271 7.434 4.429 8.857-.633 6.802-2.215 6.802c-1.581 0-2.214-15.659-2.214-15.659zm5.378 32.267s-.949 1.107-3.153.633-1.592-4.271 0-8.858 10.112-8.383 10.112-8.383c-3.638 1.424-6.959 16.608-6.959 16.608zm9.649-.633c-.949.949-2.996 1.384-3.479 0-1.165-3.339 3.479-11.23 3.479-11.23-.317 1.74.949 10.281 0 11.23zm10.597-.474c-.316 1.74-5.062.791-6.801 0-1.74-.791-1.266-10.756-1.266-10.756s1.898-.475 3.005 0 5.379 9.015 5.062 10.756zm4.557.98c-.741-.555-2.483-9.047-5.506-9.838 0 0 5.695.276 7.276 2.036s3.954 6.979 3.954 6.979-3.652 2.373-5.724.823zm9.047-1.297c-1.266-.158-3.164-7.434-8.226-9.49s-7.951-3.797-9.433-7.593c0 0 11.805 2.689 14.969 6.644s9.174 11.072 9.174 11.072-5.219-.475-6.484-.633zm2.214-15.505s-1.423-2.373 1.898-27.522 16.292-42.548 16.292-42.548v9.354s-6.96 14.688-9.247 23.431c-2.667 10.191.399 27.502 0 28.587-1.064 2.895-8.943 8.698-8.943 8.698zm18.19-18.98l-5.695 6.011v-16.608l4.746-20.563c.474 1.582.949 31.16.949 31.16zm-4.271 35.114s-1.107-.791-1.424-2.531 7.593-6.168 7.593-6.168c-3.296 9.58-6.169 8.699-6.169 8.699zm6.643-11.547c-2.372.475-9.016 6.011-9.016 6.011l-1.107-2.689s2.847-3.005 4.903-6.168 8.541-7.435 8.541-7.435-.949 9.807-3.321 10.281zm2.214-13.76c-3.954 1.74-13.833 15.343-13.833 15.343l-2.774-3.638s4.429-6.644 9.174-11.863 14.295-10.914 14.295-10.914-2.907 9.331-6.862 11.072zm-.948-11.073s-.948-3.005 0-4.271 7.444-5.915 15.985-3.973c1.117.255-14.878 5.081-15.985 8.244zm20.51-223.652s7.695 2.024 9.045 1.484c1.351-.54 3.78.136 7.155.811s9.449 2.43 10.665 4.05c1.215 1.62 1.62 3.375 1.484 4.185-.135.81-2.025 4.59-3.24 4.455s-6.614.539-10.26-3.646c-3.645-4.185-5.129-3.505-7.424-3.845s-4.59-.609-6.075-3.31-1.35-4.184-1.35-4.184zm5.941 19.304s4.071 2.97 8.245 2.835c4.175-.135 7.955-1.205 9.439.005s2.295 1.885 1.215 3.91-5.264 3.915-6.479 4.59-10.261-1.484-10.665-2.564-1.485-7.832-1.755-8.776zm2.16 16.065c1.616.61 5.535 1.215 6.885 2.97s1.171 8.234.653 9.449c-.519 1.215-1.328 1.755-.653 5.535s6.614 14.579 6.614 14.579-8.1-4.049-9.449-5.129-3.915-4.185-4.995-6.75-2.564-7.56-2.43-10.125-2.024-9.179-2.024-10.529 2.619-1.05 5.399 0zm19.709 58.585c-2.16-2.97-5.265-3.239-6.21-3.239-.944 0-.54-2.431-1.484-2.431-.945 0-.405 2.431-.541 2.971-.135.54-2.834.81-3.936-1.08s0-5.94 0-5.94 1.371-.27 2.451-.27 7.561 2.43 10.285 2.564 2.135-2.159 1.729-4.725-2.43-2.16-4.769-2.7-8.866-.675-8.866-.675l-.831-1.755c-.832-1.755-7.822-6.229-8.232-5.67-.693.945-.116 5.94 0 6.885.117.944-3.221 1.351-4.705.945s-7.561-2.565-7.695-1.89c-.136.676 4.455 5.669 8.369 6.885 3.916 1.216 6.885-.405 7.155.27s.944 6.075.54 6.885-2.295.945-2.16 1.826-1.891 3.574-2.97 3.709-3.78 3.915-3.78 9.314 7.02 8.505 12.025 8.774 10.52-5.805 12.004-7.397.135-5.021.945-4.347 4.455 8.91 4.994 9.045c.541.135 1.485-4.995 1.485-5.94s-3.643-9.044-5.803-12.014zm-14.31 14.175c-1.891.54-4.995.577-4.455-3.491s1.08-3.49 1.08-3.49l5.514 3.741s-.248 2.7-2.139 3.24zm8.1-7.02c-.945-.271-4.859-.811-4.994-1.62-.136-.81 0-4.995 0-4.995.674.135 4.725 3.51 4.994 4.59s.945 2.296 0 2.025zm-18.494 19.574s10.259 4.05 12.959 4.995 4.725 4.455 6.21 6.21 1.08 4.186-.944 7.425c-2.025 3.239-2.295 6.21-1.621 7.56.676 1.35 5.805 9.315 5.805 11.745s-1.215 5.94-1.215 6.345-9.584 0-8.909 0 2.97-1.079 3.239-5.805c.271-4.726-4.859-8.506-5.399-9.315s-1.485-7.02-.944-10.395c.539-3.375 1.35-6.615 1.35-6.615s-4.896-2.159-6.229-2.159-3.896-1.485-4.301-4.32c-.407-2.836-.001-5.671-.001-5.671zm28.214 1.62s3.239 5.265 3.239 6.21-2.564 2.159-3.239 1.89-3.24-2.931-3.24-4.03 1.89-3.936 3.24-4.07zm8.37-6.48s3.24 4.59 3.914 6.479c.676 1.89.945 4.069.945 4.069s-4.049.829-5.535 0c-1.484-.829-1.755-2.989-1.755-4.069s2.431-6.479 2.431-6.479zm-10.665 27.089s4.995.449 6.345 1.26 5.535 6.615 5.535 8.37-.676 5.13-3.646 5.265-2.835.675-3.645 0-3.78-14.13-4.589-14.895z"/>
  <path d="M113.93 198.235c1.079.135 7.253 2.024 8.081 4.59s.018 3.915.963 4.32-4.41 2.835-5.444 2.295-3.06-1.677-3.6-5.563 0-5.642 0-5.642zm17.684 30.507s4.32.27 5.265.675 4.455 4.049 4.455 5.265-3.78 4.861-6.614 4.726c-2.836-.136-4.051-4.047-4.051-5.331s.945-5.335.945-5.335zm-5.265 4.05s3.78 6.209 4.32 8.234-.963 6.059 1.08 8.101c1.35 1.35 3.105-.271 9.585 1.35s6.75 2.969 8.235 5.399c1.484 2.431-.676 5.939-3.646 9.585-2.969 3.646-6.883 4.186-8.908 3.78s-4.456-1.484-4.051-2.43.811-4.05 1.62-3.915 6.868-.854 8.1-4.725c.945-2.971-1.755-4.727-3.915-4.591s-7.425 3.24-12.42.405c-4.994-2.835-4.367-6.344-3.264-12.284 1.104-5.94 3.264-8.909 3.264-8.909z"/>
</svg>
