<svg xmlns="http://www.w3.org/2000/svg" width="200" height="200" viewBox="-50 -22 350 350" preserveAspectRatio="xMidYMin slice">
  <path d="M115.246 16.58c-5.049 4.142 1.424 6.342 2.588 6.342s4.918-1.294 2.589-4.271-4.317-2.777-5.177-2.071zm51.252 24.332c.518-1.294-.518-6.73-.776-8.801s-3.753-8.153-5.307-9.189-3.106-.518-3.624 0c0 0 .906 2.588 2.33 3.106 1.423.518 2.459 5.047 3.623 6.342 1.165 1.295 3.236 9.836 3.754 8.542zm-3.106 5.436c.388-1.036-.518-3.106-.905-5.824-.389-2.718-1.035-5.824-1.684-6.601-.646-.777-5.047-4.789-6.859-5.565v4.012s.777 1.165 2.848 3.106 3.883 8.283 4.271 10.225c.387 1.941 1.941 1.682 2.329.647zm-10.613-5.303c0 .392 2.977 5.562 4.012 6.101s2.977-1.445 2.977-1.445-.129-1.424-1.053-2.718-3.994-6.342-4.771-7.248c-.001 0-1.165 4.918-1.165 5.31zm15.532 20.575c-.242.727-1.451 1.378-2.07 1.655.853-.072 1.621 2.635 2.976 3.004 1.423.388 6.73-5.954 5.694-5.307-1.036.648-6.213-.517-6.6.648zm-2.071 1.655c-.043.003-.086.008-.131.027-.4.172-.242.14.131-.027z"/>
  <path d="M197.428 247.206c-.776-1.295 1.035-1.553 1.294-1.166.259.389 2.2 1.166 2.071 1.941-.13.777 11.777 5.955 11.777 5.955-1.035-2.848-4.918-3.496-10.483-8.672-5.565-5.178-7.636-11.778-8.413-15.66-.775-3.883-2.588-13.849-2.588-13.849s.906.905 4.012 3.624c3.107 2.717 6.859 3.494 6.859 3.494s-2.977-2.07-7.506-8.93c-3.027-4.584-3.106-11.131-3.106-11.131s3.624 5.436 4.53 6.601c.905 1.165 6.859 8.283 8.93 9.2 2.07.916 4.53-.012 4.53-.012s1.294.389-3.624-3.494-4.29-2.794-9.448-10.095c-4.398-6.226-5.048-12.295-5.953-17.084s-.519-17.729-.259-19.8c.258-2.071 3.494-17.602 3.623-20.967.13-3.365-.129-17.084-.646-27.697s-6.445-26.174-6.859-27.825c-1.682-6.73-12.554-18.12-12.554-18.12-2.847-.906-4.401-3.753-6.212-4.918-1.813-1.165-4.012-1.811-7.766-2.329s-16.695.259-20.708 1.424-6.427 2.374-11.001 5.047c-3.748 2.19-13.979 11.907-15.531 12.166s-2.718 1.683-5.306 4.142-6.083 10.613-6.989 10.483-1.423-4.659-1.165-6.989.647-6.342.647-6.342l-2.33 1.294v-2.718s-.776-.388-1.294-.906-.129-1.683-.129-1.683-1.294 1.294-1.683 3.624-2.459 4.4-2.459 4.4.388-5.695 1.036-8.801 2.977-7.766 2.071-8.283-1.941 1.165-4.53 3.494-4.271 4.789-4.271 4.789-.389-2.459.518-7.766 3.753-9.966 5.306-11.907 5.824-4.789 5.824-4.789l-.906-1.036s2.071-2.2 4.53-2.847 7.376-4.011 13.718-4.27 17.343 1.035 20.578 1.294 14.366 5.307 18.508 6.601 6.083 1.683 10.871 1.941c4.789.259 11.131-4.918 11.131-4.918s-3.494-1.035-4.789-.776c-1.294.259-4.788-.129-8.412-1.812s-8.672-3.365-11.906-4.659c-3.236-1.294-9.707-3.624-14.885-4.53-5.176-.906-18.378-1.294-21.484-1.423s-6.988 1.294-8.542.388c-1.553-.906-7.377-6.342-7.636-6.73s.776-1.812 3.365-2.718 4.142-2.33 5.436-5.565c1.295-3.235 0-5.048-.906-7.248s-3.235-6.083-2.847-6.73 2.977-2.33 4.012-2.588c1.036-.259 5.307-1.683 6.472-1.036 1.164.647 5.953 4.789 5.953 4.789s4.529 1.423 11.26 1.682 11.52-1.423 12.942-1.682 5.177.388 6.212.518 5.695 3.106 11.131 5.695c5.437 2.589 9.836 5.824 13.979 8.084 4.141 2.26 11.001 7.576 15.789 12.753 4.789 5.177 11.131 14.625 11.131 14.625s-1.424-5.565-2.588-7.248c-1.166-1.683-2.977-5.565-5.307-8.542s-7.507-9.318-10.742-11.389c-3.236-2.071-8.283-5.635-8.283-5.635s5.824.587 11.777 3.175c3.771 1.64 6.859 4.53 10.742 7.507s11.39 11.26 11.39 11.26-1.812-6.212-2.589-7.248-5.953-8.671-8.542-11.519-6.341-5.047-9.705-6.989-11.261-6.73-16.437-7.899c-5.178-1.169-9.814-3.135-16.826-4.008-5.109-.636-7.118.129-8.283-.259-1.164-.388-2.977-2.2-4.012-2.718s-8.154-.777-10.354-1.294c-2.201-.518-14.755-1.812-15.402-1.941-.646-.129-1.941 1.165-3.105 1.941-1.166.776-1.684 2.2-1.684 2.2l-1.293-.259c-1.295-.259-4.271 1.424-5.954 1.294s-3.236-1.036-6.212 0-4.142 2.847-4.142 2.847-20.32 1.941-36.239 3.495-51.899 8.93-51.899 8.93 19.803 5.958 29.51 6.864c3.39.316 25.543 1.982 28.344 2.588 2 .433 19.155 3.236 19.155 3.236 1.812 1.941 4.53 3.753 7.766 4.789 3.933 1.258 9.706 5.824 9.706 5.824s-4.789 2.588-6.601 3.495-11.648 8.542-14.625 16.825-2.458 21.094-2.458 21.094.647-.518-2.071 3.106-2.2 8.801-2.33 12.813 1.812 17.084 2.33 15.143.906-8.93.906-10.742 2.33-7.765 2.33-7.765l1.553.388s-.388 1.165-1.294 7.895 1.941 11.777 1.941 11.777l1.036-2.33s0-2.33.259-5.824 2.459-6.859 2.459-6.859.647 2.33 1.683 4.789 3.365 5.825 3.365 5.825-1.683 6.342-2.459 8.413-3.882 20.447-3.882 35.719 3.234 20.836 4.27 24.202 8.024 11.648 8.024 11.648 0-6.601-.388-7.248-.647-9.06-.647-9.06 2.2 2.977 3.106 3.753 2.718 2.848 2.718 2.848-.259 2.718-.388 4.918 1.553 10.613 1.553 10.613l-1.036-.518s.647 2.071 1.424 3.625c.777 1.553 3.365 5.823 5.177 7.765 1.788 1.915 6.342 4.53 6.342 4.53s-1.553-3.494-2.977-6.989-4.012-8.671-4.4-10.872.647-1.683.647-1.683l4.271 3.624s.823 1.29 1.554 3.625c.994 3.176 2.847 4.788 2.847 4.788v-4.659s1.405 1.203 3.365 4.012c1.921 2.754 3.753 4.529 3.753 4.529s.906 19.93 2.719 25.365c1.812 5.438 1.423 25.496 1.553 28.084.129 2.59-.26 27.955-.13 30.285.13 2.328-.776 6.988-1.941 9.447s-11.261 6.473-13.72 7.766c-2.459 1.295-5.694 1.941-6.729 1.553s-8.283 1.295-9.06 2.977c-.776 1.684-3.495 6.342-3.106 7.766s3.495 1.295 5.436 0 7.766-5.693 9.318-6.471c1.553-.775 9.836-3.236 12.295-3.494 2.459-.26 7.895 1.424 6.601 1.941s-5.954 6.082-6.989 7.119c-1.035 1.035 0 7.895.647 8.152.647.26 3.753-3.883 5.694-5.436s5.824-6.859 6.73-6.471c.906.387 4.012.906 6.471.775 2.459-.129 6.86 2.848 6.602 1.166-.26-1.684-1.553-3.107-1.553-3.107 1.035-.906 4.918-2.846 5.306-2.328s10.354 5.176 11.778 5.824c1.424.646 13.978 6.211 14.495 6.211s-.906-5.564-.906-6.342c0-.775-3.494-2.199-4.271-2.459-.777-.258-8.543-3.365-9.707-3.883s-10.354-4.918-11.26-6.082c-.906-1.166-.389-14.494-.518-17.082-.129-2.59-.389-17.602-.647-21.873s-.13-21.096-.13-23.295c0-2.201-.775-17.473-.388-19.285.388-1.812 2.718-3.235 2.718-3.235s2.33 2.2 5.178 4.142 6.211 3.365 10.871 6.859 10.096 9.318 10.096 10.484c0 1.164 1.293 6.211 2.717 8.541s3.106 11.908 3.365 10.225c.259-1.682 1.813-4.658 2.589-6.082s.776-1.035 2.718 0 8.024 3.236 8.024 3.236-4.789-5.178-6.083-8.543c-.791-2.057-4.271-8.801-5.307-11.131-1.035-2.328-1.682-8.153-1.682-6.212 0 1.942-2.201 7.636-2.33 6.341-.13-1.295-6.342-12.165-9.578-15.66-3.234-3.494-6.988-7.246-13.33-11.518s-9.447-9.707-11.131-12.295c-1.682-2.588-4.788-11.001-7.117-15.661-2.33-4.659-5.566-6.601-5.695-6.342s.776 5.047 2.2 11.26 2.977 8.542 4.788 12.813c1.813 4.271 6.99 11.002 6.99 11.002s-8.672-1.941-16.438-8.025c-2.996-2.347-10.095-11.647-11.906-19.801-1.813-8.154-2.201-22.908-2.459-27.179-.26-4.271 1.035-15.272-.13-16.048s-2.329 4.918-2.977 10.483c-.428 3.681.259 7.895-1.165 13.072s.906 12.942-.906 12.942-4.4-14.366-4.4-21.096 1.812-20.32 4.53-31.321 9.188-21.484 9.188-21.484-.388-.647-1.035-1.294c-.646-.647-4.141.906-4.271 1.294s-2.978 4.012-4.659 4.789c-1.684.776-3.883 6.342-5.824 10.354s-5.307 20.708-5.436 29.121 1.553 21.226 1.553 21.226-5.42-3.736-9.707-12.813c-4.4-9.318-1.424-20.967.388-26.791s9.966-19.932 13.719-26.015 18.896-19.413 23.684-23.684 18.12-9.578 24.332-10.095 13.331 3.236 20.449 11.26 8.411 23.037 10.094 30.285 1.035 38.439.647 40.639c-.389 2.2-.518 29.248-1.164 34.813-.647 5.565.129 25.885 1.94 33.519.604 2.546 3.495 15.661 4.4 19.155s2.977 6.859 5.177 9.965c2.2 3.107 12.424 10.225 12.684 10.613s3.754-.26 3.754-.26-5.695-4.27-7.896-6.471c-2.203-2.196-5.05-8.669-5.826-9.962zM49.886 20.333c0-.647 8.93-2.33 10.225-2.2s8.154-.647 8.154-.647c3.883-.259 12.554-1.553 15.531-1.682s12.037-.776 13.331.841 2.459 5.5 2.071 5.889-8.283-.518-12.166 0-14.496-.388-16.955-.647-20.191-.906-20.191-1.554zm41.416 9.707c-2.977.518-3.753.906-5.954.647S79.212 28.771 74.58 28.5s-7.351-1.565-8.127-1.565 14.494-.614 16.178-.647c0 0 5.048-.129 7.766 0s7.895 1.164 7.895 1.682-4.013 1.552-6.99 2.07zm42.058 188.157c1.009-.432 3.598 1.724 4.462 1.294 0 0 1.871 24.037 2.447 26.916.575 2.877 1.008 13.816 1.008 13.816l-1.728-.432s3.741 12.953 3.022 16.408c-.72 3.455-.249 9.213.092 14.682.34 5.469.916 17.125.771 18.277s-4.03 2.592-4.605 2.16c-.576-.432-3.887-3.742-5.47-3.742 0 0 1.871-21.158 1.296-31.521-.576-10.363.287-22.166-.288-26.771s-.864-19.86-1.008-23.027c-.142-3.166-1.007-7.628.001-8.06zm-38.046-115.55l-2.214 4.918s-1.798 1.553-2.445 1.553.776-8.672 0-11.26c-.3-1 2.459-.129 3.106-.906s1.035-1.424 1.553-1.812 0 7.507 0 7.507z"/>
  <path d="M123.012 179.523s-.363 4.296 0 6.601c.776 4.918 5.396 12.723 5.824 11.648 1.082-2.718-1.035-8.93-1.813-12.425-.775-3.494-4.011-5.177-4.011-5.824zM24.216 52.267L38.29 56.62s-1.741 11.462-1.016 16.541 1.451 22.634 1.886 26.697 0 2.902 0 2.902-4.353.162-5.368.153-3.917-1.459-4.208-1.169-2.177-11.462-2.612-13.203-.436-6.384-2.757-7.255-5.513 0-5.513 0-3.338-.145-4.063-.58-1.305 2.756-.725 8.56-.237 6.529-.237 6.529L8.11 93.183s-3.772-2.176-4.063-4.788.145-21.039 0-24.811-.103-7.689-.103-7.689 3.875.87 6.631 2.901 2.467 8.705 2.467 9.866.435 6.965.435 6.965 8.065-1.306 8.168-1.016 3.004-.146 3.004-.146.436-13.349.145-14.654 1.016-2.901.29-3.627-.868-3.917-.868-3.917zM2.743 105.659s3.627.29 6.384 0 16.831-2.612 17.846-1.886 5.223 3.917 4.933 4.498-7.254 2.757-10.882 3.482-7.69.436-7.98 0-.782 5.259.435 6.239c.679.546 5.019.146 8.168.581s6.596-.94 10.273 3.482c1.167 1.403 1.292 2.612 1.292 2.612s-3.047 2.031-10.301 2.031H14.06s-1.161-.436-.436 4.643 1.016 4.208 1.016 4.208 8.851-.523 12.188-.871 5.659-.58 8.851 1.741 3.047 5.658 3.047 5.658-4.208-1.161-8.561-.87-14.074 1.015-16.686 1.886-5.949 1.452-7.69-2.756-.146-12.913-1.016-14.654-1.087-8.996-.833-9.866-2.213-3.048-1.197-10.158zm27.132 69.643c-.29-.581 5.514-2.321 7.69-3.627s3.772-5.369 3.337-9.866-5.223-8.416-8.415-10.011-8.125-1.306-12.478-.871c0 0-7.545.29-11.897 1.161s-2.251 3.301-2.004 4.616c.55 2.933.263 4.815 1.134 9.033s-.435 14.935 0 16.385 6.529 3.047 6.529 3.047v-10.447s4.643 1.741 6.841 2.902 8.683 9.141 8.683 9.141 9.721 2.322 9.432 1.306-1.307-4.208-3.193-6.384-5.369-5.805-5.659-6.385zm-7.4-10.156c-2.031.871-3.76 1.57-7.109 0-2.466-1.156-.975-5.223-.29-6.094l5.536-.435c2.444 0 4.911-.58 7.087 0s2.757 1.015 2.757 1.886-5.95 3.772-7.981 4.643zm13.059 34.675c-2.031-2.321-7.545-2.612-10.011-3.047 0 0-7.4-1.596-8.706-2.177s-6.819-1.669-9.141 2.177c-4.202 6.961-6.239 11.897-5.18 16.25s7.646 13.643 15.336 13.639c10.158-.004 13.639-4.207 16.541-7.689s3.192-16.831 1.161-19.153zm-10.592 17.846c-2.176 3.628-8.561 2.031-10.737 0s-4.353-5.676-4.643-7.336c-.29-1.659 3.047-7.463 9.141-6.447 1.717.286 3.772-.726 6.239 3.918 2.466 4.642 2.176 6.238 0 9.865zm4.788 11.752l10.011 6.094s-2.176 5.078-2.031 9.141 1.015 15.523 1.306 16.686c.291 1.16-.145 3.338-.145 3.338s-8.705-1.451-9.141-2.178c-.436-.725-.581-5.078-1.306-5.803-.725-.727-8.996-5.949-11.027-7.836-2.031-1.885-5.949-5.658-5.949-5.658s.436 7.398.581 8.996c.145 1.596.145 10.447.145 10.447s-2.473-.873-5.517-3.338c-3.044-2.467-4.438-2.902-4.438-2.902s-.689-5.291-.977-9.982c-.436-7.109-2.417-13.377-.241-14.393s12.187 2.611 13.638 3.627 4.934 4.354 7.4 7.256c2.466 2.9 7.109 4.932 7.109 4.932s-.145-9.141-.29-11.607c-.144-2.468.872-6.82.872-6.82z"/>
</svg>
