<?xml version="1.0" encoding="utf-8"?>
<!-- Generator: Adobe Illustrator 14.0.0, SVG Export Plug-In . SVG Version: 6.00 Build 43363)  -->
<!DOCTYPE svg PUBLIC "-//W3C//DTD SVG 1.1//EN" "http://www.w3.org/Graphics/SVG/1.1/DTD/svg11.dtd">
<svg version="1.1" id="レイヤー_1" xmlns="http://www.w3.org/2000/svg" xmlns:xlink="http://www.w3.org/1999/xlink" x="0px"
	 y="0px" width="344.918px" height="338.028px" viewBox="0 0 344.918 338.028" enable-background="new 0 0 344.918 338.028"
	 xml:space="preserve">
<g>
	<g>
		<g>
			<path d="M209.549,158.711c-3.4-0.277-4.035,2.853-3.153,4.845c0.881,1.992,4.09,1.168,4.866,0.229
				C212.037,162.846,211.764,158.892,209.549,158.711z"/>
			<path d="M222.931,159.337c-1.499,0.443-2.367,3.666-0.211,4.499c2.155,0.833,4.679-0.999,4.516-2.714
				C227.072,159.407,225.804,158.487,222.931,159.337z"/>
			<path d="M55.304,151.338c2.167,0.59,5.862-0.212,5.919-1.429c0.057-1.217,0.328-2.91-2.957-4.528
				C55.765,144.15,53.138,150.749,55.304,151.338z"/>
			<path d="M78.414,147.303c1.482-0.417,1.909-4.299,0.229-4.866c-1.681-0.566-3.175-0.299-3.695,0.802
				C73.594,146.102,76.931,147.721,78.414,147.303z"/>
			<path d="M305.625,220.883c-0.65-1.737-7.047-5.695-7.245-6.68c-0.198-0.984,2.791-2.307,5.094-4.637s0.715-4.843,0.286-6.083
				s-9.804-4.118-12.875-6.213c-3.072-2.095-2.053-3.022-0.908-6.626c1.145-3.604,5.326-4.383,4.734-7.336
				c-0.593-2.954-5.322-6.102-5.729-7.828s0.274-5.839-1.383-6.893c-1.657-1.053-6.037-1.259-6.838-4.954s5.102-10.001,6.236-13.362
				c1.133-3.361-1.813-8.131-7.085-10.086s-10.716-0.26-12.686,0.136c-1.969,0.396-18.27-0.37-17.563,0.15
				c0.708,0.521,5.181,3.9,5.135,4.874c-0.045,0.974-1.852,3.083-1.13,8.481c0.722,5.398,6.435,8.349,4.93,9.253
				c-1.505,0.905-4.331,3.942-5.36,5.113c-1.03,1.17-2.453,5.493-2.453,5.493s0.993-5.562-2.497-9.139s-9.846-4.489-13.254-8.542
				c-4.089-4.862,3.805-18.722,3.524-23.124c-0.281-4.402-8.016-16.226-18.2-17.436c-10.184-1.21-17.469,3.325-19.616,4.443
				c-2.147,1.118-7.901,10.357-3.891,13.228s2.603,12.07,2.603,12.07s-11.48,0.436-12.651-0.594
				c-1.171-1.03,2.163-4.531,1.468-5.295c-0.695-0.764,1.411-4.079,0.217-4.623c-1.193-0.544-4.448,1.254-5.064-1.213
				c-0.616-2.467,1.18-4.346,2.069-7.706c1.252-4.733-0.456-5.873-3.424-10.158s-2.09-7.414-1.114-9.318
				c0.976-1.905,6.156-4.588,6.791-7.728c0.635-3.14-1.337-7.865-4.409-9.96c-3.072-2.095-13.499-3.316-21.513,1.184
				c-3.457,1.942-14.028,2.755-16.236,3.626c-2.208,0.872-1.392,3.105-3.847,3.477c-2.456,0.372-1.608,3.094-0.959,4.832
				c0.65,1.738,7.884,8.661,1.396,8.837c-7.549,0.206-10.946,2.418-12.832,6.231c-1.886,3.813-0.042,8.288,6.446,10.299
				c6.489,2.011,2.912,3.307,3.516,6.018c0.604,2.71-5.011,8.055-6.076,9.956s-0.031,5.85-3.517,7.394
				c-3.486,1.543-5.573-0.749-4.995-2.673s5.233-1.705,5.532-8.762c0.136-3.2-2.542-8.166-9.297-9.702
				c-6.755-1.537-17.7,3.07-23.156,5.008c-5.455,1.938-5.722,2.414-13.206,0.843c-5.436-1.141-5.288-6.832-1.756-9.348
				s4.851-4.649,3.897-10.302c-0.954-5.652-11.719-10.06-26.686-8.081s-20.29,11.482-20.126,13.197
				c0.164,1.714,3.573,10.389,3.902,15.545c0.703,11.006-12.072,18.208-13.704,21.788c-1.631,3.581,1.851,12.522,4.625,15.752
				s-3.045,7.73-5.859,10.524c-2.813,2.794-12.332,8.2-12.949,21.338c-0.617,13.138,14.053,17.484,17.447,17.888
				c3.395,0.403,4.717,3.391,2.322,7.667s-16.789,14.816-14.524,23.701c4.803,18.842,20.545,24.616,30.266,25.316
				c9.72,0.699,19.22,0.902,21.839,2.244c2.619,1.343,0.304,3.916,0.722,5.398c0.418,1.482,3.725,8.953,15.514,12.348
				c11.789,3.396,33.593,1.176,38.703,1.415c5.109,0.24,26.173,3.425,38.551-1.847c12.379-5.271,20.143-12.222,20.143-12.222
				s8.565,4.548,17.274,0.812c5.206-2.233,10.899-3.633,13.853-4.226c2.954-0.593,16.67-1.898,19.469-9.57
				c2.798-7.671-3.032-13.31-9.083-19.445s-2.774-8.421-2.774-8.421s2.421,0.357,10.948,0.515s13.473-1.318,16.274-3.869
				c2.802-2.55,5.346-9.989,6.351-10.613c1.004-0.625,6.085,0.226,7.545,0.294c1.46,0.069,17.727,1.564,27.386-1.64
				C303.822,228.115,306.275,222.621,305.625,220.883z M192.396,150.156c2.187,0.166,5.086,0.729,4.987,2.828
				c-0.099,2.098-5.969,7.674-7.288,9.807s-3.274,7.406-0.609,7.774c2.665,0.369,9.154,2.381,11.564,2.981
				c2.41,0.601,4.253,2.882,2.516,3.532c-1.737,0.65-16.267-1.496-19.221-0.903c-2.954,0.593-11.12,3.136-13.899,5.199
				c-2.779,2.064-8.604,6.667-9.865,7.583c-1.262,0.916-6.151,1.174-6.813-0.32s-1.023-4.192,2.673-4.995
				c3.695-0.802,6.72-0.172,5.85-1.188c-0.87-1.016-5.718-1.631-5.166-2.997c0.552-1.365,1.894-3.984,3.597-3.904
				s10.576-1.942,11.166-4.109c0.589-2.167-8.396-0.225-8.978-2.166c-0.583-1.94,0.204-3.123,7.051-3.533
				c6.847-0.41,12.708-0.623,12.754-1.596c0.046-0.973-1.257-2.985-4.331-3.129c-3.074-0.144-18.854,2.772-19.386,1.528
				c-0.532-1.244,6.626-3.102,9.094-3.718c2.467-0.616,5.206-1.823,5.206-1.823s-4.571-1.317-7.722-1.708
				c-3.152-0.392-7.31-0.1-8.006-0.864c-0.696-0.764,6.104-2.646,6.236-4.221c0.131-1.575,10.399-0.71,15.118-0.691
				C182.449,149.539,190.209,149.99,192.396,150.156z M172.014,214.122c-1.163,0.189-1.836-1.062-2.752-2.324
				c-0.916-1.262-2.675-0.137-2.816-2.333c-0.141-2.195,2.474-5.934,3.261-7.136c0,0,6.365,4.656,5.254,7.536
				C173.85,212.745,173.177,213.933,172.014,214.122z M173.004,225.574c-0.083,1.758-0.766,2.458-3.106,2.104
				s-4.673-3.344-4.122-4.316c0.55-0.973,4.511-3.956,4.511-3.956S173.086,223.816,173.004,225.574z M144.223,147.894
				c0.529-0.887-4.477-3.316-4.443-4.046s2.802-2.551,5.212-1.95c2.411,0.601,6.95,1.302,8.265-0.099
				c1.315-1.401,1.198-0.188,0.103-2.19c-1.095-2.001-6.738-2.022-5.933-3.204c0.805-1.182,2.062-2.341,5.499-2.668
				c3.437-0.326,7.412-0.871,7.555-1.84c0.144-0.968,1.927-2.592,1.208-2.869s-14.284,2.255-13.966,1.051s7.534-4.279,8.31-5.218
				s-5.493-2.453-6.744-1.78s-10.078,1.722-10.75,0.471c-0.673-1.25,3.497-1.787,7.888-1.824c4.391-0.037,6.667-2.125,7.196-2.832
				s-13.663,0.334-13.073-1.833c0.589-2.167,11.776-1.886,13.244-1.817s7.793,0.367,9.033-0.063s-9.668-2.161-8.861-3.586
				c0.807-1.425,9.055-0.55,9.843-1.732c0.787-1.182-1.151-2.249-2.227-2.299c-1.076-0.05-7.719,0.856-7.41-0.348
				c0.309-1.205,3.715-1.044,3.795-2.747s-1.588-2.514-4.995-2.673c-3.406-0.16-5.098-0.482-5.041-1.699
				c0.057-1.217,9.403-3.299,13.841-3.983c1.926-0.297,11.816-2.371,13.298-2.789c1.483-0.418,2.193,5.224-0.343,7.299
				s-3.171,5.215-2.392,9.397s4.428,4.353,6.028,6.623c1.601,2.27,1.558,8.364-0.48,10.219s-2.118,3.558,0.003,5.121
				s4.163,4.828,4.558,6.797c0.395,1.97-3.237,4.725-3.237,4.725s-5.564-1.48-15.099,0.267c-9.534,1.746-13.149,5.479-14.761,8.938
				s-3.064,8.023-3.064,8.023l-2.658-0.125c0,0-0.769-4.913-2.501-6.701c-1.733-1.788-3.779-4.936-3.779-4.936
				S143.694,148.78,144.223,147.894z M92.634,145.471c1.118-2.81,14.919,0.423,16.041-2.693s-6.096-1.166-5.761-3.101
				c0,0,6.741-3.34,10.447-4.386c3.706-1.045,9.024-0.064,8.887,2.856c-0.137,2.919-3.92,10.791-3.786,13.112
				c0.135,2.321,5.719,2.838,7.637,3.532c1.917,0.694,5.878-0.572,8.271,0.389s-0.223,4.739-0.223,4.739s-10.518,0.725-14.004,2.269
				c-3.487,1.543-9.843,7.097-10.63,8.279c-0.787,1.182-6.047-1.016-6.697-2.753c-0.65-1.737,9.96-4.409,10.538-6.333
				c0.578-1.923-4.508-2.649-8.934-1.882c-4.425,0.767-9.314,1.025-8.945-1.64c0.369-2.665,18.095-1.101,18.152-2.317
				c0.057-1.217-10.791-3.86-10.824-3.161c-0.033,0.7-10.4,3.393-10.523,0.822c-0.123-2.571,3.804-3.116,7.934-2.801
				c4.13,0.315,8.73-4.165,8.73-4.165S91.516,148.281,92.634,145.471z M106.621,211.294c2.087,2.293,4.104,6.043,3.561,7.238
				c-0.543,1.194-0.83,7.277-5.764,8.508c-4.935,1.231-9.42-1.905-9.42-1.905s6.835-0.166,6.185-1.903
				c-0.65-1.737-1.137-1.762-1.832-2.525s-5.086-0.726-5.284-1.711c-0.197-0.985,8.737-4.316,10.178-3.836
				c1.44,0.48-0.838-1.583-1.786-2.844c-0.948-1.261-3.856-1.641-4.806-2.173c-0.95-0.533,0.658-3.627-0.977-5.167
				c-1.634-1.539-2.515-3.775-1.723-4.957c0.792-1.182,6.179-1.661,6.213-2.391c0.034-0.729,1.099-2.631-0.095-3.174
				c-1.193-0.543-4.604-0.629-4.533-2.126c0.07-1.497,5.031-1.996,6.883-3.128c1.852-1.132-2.261-1.813-5.61-3.189
				c-3.349-1.376-2.7,0.361-3.349-1.376c-0.65-1.738,8.641-0.814,8.763-1.54s-0.969-3.459-2.927-3.307
				c-1.958,0.152-0.864-2.378,4.033-2.808l2.433,0.114c0,0-1.03,6.362,1.125,7.195c2.156,0.833,3.687,4.563,3.619,6.022
				c-0.068,1.46-4.896,5.62-6.517,8.958C103.372,202.607,104.534,209.001,106.621,211.294z M88.128,173.485
				c0.892-2.762,3.01-6.32,3.01-6.32s2.414,5.722,1.836,7.645c-0.579,1.923-5.148,5.123-5.148,5.123S87.235,176.247,88.128,173.485z
				 M25.586,202.61c1.054-0.61,9.744,0.214,9.489,0.446s-1.353,2.862-2.083,2.828C32.262,205.85,19.274,206.262,25.586,202.61z
				 M23.682,208.129c2.521-1.83,8.986-0.553,9.671,0.454s-2.516,3.051-4.263,3.213C27.342,211.958,17.686,212.48,23.682,208.129z
				 M26.254,214.346l5.896-0.942c0,0,3.026,3.067,4.486,3.136C38.096,216.608,29.815,219.763,26.254,214.346z M38.246,197.841
				c-1.551,1.877-13.45,0.831-13.45,0.831s2.338-3.06,3.798-2.991c1.46,0.068,8.539-0.087,10.299-1.224
				c1.76-1.136,2.118-3.557,1.354-2.862c-0.765,0.695-7.322,0.144-7.288-0.586c0.034-0.73,7.653-7.199,9.216-9.32
				s-3.355-11.618-3.797-12.614c-0.441-0.996-2.425-5.479-1.337-7.866s12.645-9.646,12.945-10.852
				c0.301-1.206,4.464-11.982,3.734-12.016c-0.73-0.035,5.806-3.629,3.139-4.242c-2.667-0.613-4.67,0.512-5.83-0.762
				c-1.159-1.274-0.65-1.737,2.779-2.064c3.429-0.327,11.572-2.382,11.618-3.355s-0.315-3.672-2.052-3.022
				c-1.738,0.649-15.708,2.188-15.872,0.474c-0.163-1.715,6.52-3.839,8.941-3.481c2.421,0.358,7.995,1.107,9.534-0.527
				c1.54-1.635,3.334-3.501,1.631-3.581s-15.696,1.945-15.616,0.242c0.08-1.703,8.005-4.289,12.891-4.515
				c5.783-0.268,11.655,1.035,11.75,4.209c0.095,3.174-3.666,10.556-3.004,12.05s3.375,6.01,5.971,7.839
				c2.596,1.829,5.911,3.935,5.911,3.935s0.007,10.242-3.145,9.85c-3.152-0.392-18.894,2.526-21.152,3.883
				c-2.258,1.357-8.246,4.246-9.288,5.66s-3.289,2.528-5.71,2.17c-2.421-0.357-3.835-1.399-3.835-1.399s-2.282,1.844-0.274,5.839
				c2.007,3.995,3.896,5.303,3.896,5.303s-0.102,2.19,0.224,5.619s3.5,8.531,1.65,11.576
				C46.028,193.086,39.797,195.963,38.246,197.841z M47.118,170.461c-3.393-0.166-2.254-4.495-2.254-4.495s3.128,0.878,4.379,0.206
				c1.25-0.673-0.034,0.729-0.103,2.189C49.072,169.821,50.511,170.626,47.118,170.461z M88.121,252.12
				c-2.292,2.087-3.273,7.405-2.635,9.386c0.639,1.98,2.125,6.682-3.62,9.583c-5.744,2.9-27.462,3.343-26.434,2.172
				s4.48-1.984,4.051-3.224s-15.214-3.151-14.309-1.646s0.026,4.634-1.631,3.58c-1.657-1.053-5.112-5.359-1.881-6.671
				c3.231-1.313,16.426-1.911,18.708-3.755c2.281-1.843-6.342-2.98-7.632-2.553c-1.29,0.427-10.36,1.465-14.276,1.769
				c-3.916,0.303-5.725-2.708-5.911-3.937c-0.187-1.228,17.455-0.886,20.324-0.751c2.869,0.135,12.054-3.336,12.841-4.518
				c0.787-1.183-14.343-0.917-17.761-0.835c-3.418,0.083-13.738,1.794-13.161-0.13s4.063-3.467,6.253-3.363
				c2.19,0.103,15.582,0.488,18.791-0.337c3.208-0.825,12.168-0.403,12.646-2.332c0.478-1.929-11.907-2.997-14.375-2.382
				s-18.21,3.533-17.146,1.633s3.833-3.722,6.266-3.607c2.433,0.114,4.159-0.293,4.216-1.509c0.057-1.217-0.509-0.511-1.038-1.755
				s2.765-3.772,6.932-4.308c4.168-0.535,7.411-2.09,7.468-3.307s-5.5-2.21-7.228-1.803c-1.728,0.406-8.853,1.534-8.784,0.075
				c0.068-1.46,2.848-3.522,4.075-3.71c1.228-0.187,2.525-1.833,0.601-2.41c-1.923-0.577-12.978-4.024-12.183-10.569
				c0.795-6.546,6.563-9.933,8.82-11.29c2.258-1.357,5.609-4.125,5.609-4.125s-0.233,3.89,1.713,3.981
				c1.946,0.091,9.325-1.269,10.576-1.941s1.126-8.405,0.063-6.542c-1.063,1.863-12.663,1.806-12.181,0.853
				c0.482-0.953,3.231-2.286,3.586-4.708c0.355-2.422,0.839-7.52,1.569-7.485c0.729,0.034,9.384-2.871,10.187-4.225
				s-1.618-1.712-4.781-1.861c-3.163-0.148-8.402,2.39-8.592,1.232c-0.19-1.157-0.364-2.628,0.377-2.837
				c0.741-0.209,13.225-1.573,13.347-4.006s-12.503,1.607-12.423-0.096c0.08-1.703,6.114-5.565,12.242-6.252
				c4.031-0.452,10.933-4.363,13.111-4.017c2.179,0.346,3.247,3.566,3.433,4.794c0.187,1.228-5.973,7.767-6.061,14.833
				c-0.088,7.066,9.67,12.158,9.67,12.158s-1.966,5.516-2.704,10.846s1.616,7.146,1.721,10.078
				c0.106,2.931-4.398,5.402-4.396,10.522s3.238,8.931,6.633,9.333c3.395,0.403,6.245,2.002,6.652,3.727
				c0.407,1.726-1.411,4.079,1.961,4.969c3.372,0.89,0.547,3.927-0.24,5.108C100.396,245.137,90.413,250.033,88.121,252.12z
				 M172.488,286.562c-8.978,6.162-16.6,7.512-23.006,8.917c-6.406,1.405-25.337-0.46-31.465,0.228
				c-6.127,0.688-19.81,1.264-21.896-1.028c-2.087-2.292,16.947-2.618,19.171-3.245c2.224-0.626,18.141-2.073,18.141-2.073
				s-3.212-4.296-12.294-3.016c-9.082,1.28-18.153,2.318-21.582,2.645c-3.429,0.325-6.812-0.321-6.755-1.537
				c0.057-1.217,11.872-3.588,16.263-3.625c4.391-0.037,10.83-2.173,14.48-2.002c3.65,0.172,8.459,1.616,9.246,0.435
				c0.787-1.183-7.801-5.244-8.53-5.278c-0.73-0.034-9.429,3.458-14.063,3.484c-4.634,0.027-13.97,1.539-13.613-0.883
				c0.357-2.421,13.575-3.506,14.374-4.933c0.799-1.426-6.721-2.266-9.409-2.148s-4.113-0.681-3.813-1.886
				c0.3-1.205,13.252-1.816,14.028-2.755c0.775-0.939-5.934-3.449-8.413-2.591c-2.479,0.859-10.31,1.467-9.489-0.445
				c0.822-1.912,3.81-3.234,11.595-2.868c7.786,0.365,7.333-0.387,7.378-1.36c0.046-0.974-12.057-2.273-13.166-2.325
				c-1.108-0.053,1.229-3.113,3.697-3.729c2.467-0.615,6.071,0.529,7.101-0.641c1.03-1.171-3.558-2.119,1.608-3.096
				c5.167-0.977,2.501-1.346,5.167-0.977c2.665,0.37,14.423-0.785,17.631-1.609c3.209-0.824,3.615-2.513,2.855-2.792
				s-8.697-2.604-11.662-1.768c-2.966,0.837-11.712,0.182-12.86-1.335s-0.825-3.209,2.593-3.292s12.256-1.375,14.202-1.283
				c1.947,0.091,8.043,1.84,8.013,1.596c-0.03-0.245,3.931-1.521,5.402-1.697c1.471-0.175-10.059-3.886-12.027-3.491
				c-1.969,0.396-11.26,0.935-12.743,1.353c-1.483,0.418-5.284-1.711-5.227-2.928c0.057-1.216,4.505-2.47,7.656-2.078
				c3.152,0.392,9.455,1.174,10.01-0.263c0.555-1.436-5.471-2.938-6.2-2.973c-0.73-0.034-6.813-0.32-6.767-1.293
				c0.045-0.973,2.791-2.309,1.791-6.987c-0.999-4.68-8.092-6.486-9.114-12.137s6.112-7.001,9.187-10.16
				c3.074-3.158,1.995-6.135,4.729-7.226c2.733-1.09,8.827-1.048,9.8-1.002c0.973,0.045-0.095-3.174-2.019-3.752
				c-1.923-0.578-6.603,0.421-8.979-0.909c-2.375-1.331,0.358-2.421,4.494-2.228c4.136,0.194,5.96-2.3,6.002-3.203
				s-1.236,0.358-3.406-0.16s-6.652,1.465-8.344,1.142s-6.523-1.282-6.443-2.985s8.306-0.341,10.252-0.25
				c1.947,0.091,7.668-2.322,8.2-3.272c0.533-0.951-5.052-1.457-7.496-1.328s-7.322,0.145-7.044-0.574s4.944-6.594,15.279-3.427
				c1.63,0.5,6.336,0.054,8.271,0.389s6.592-0.178,8.029,0.377c1.437,0.555-7.573,5.497-8.722,11.782
				c-1.148,6.286,1.254,12.25,4.371,13.372c3.117,1.122,8.83,4.092,10.25,5.002s3.427,4.905,2.571,7.547
				c-0.855,2.642-1.363,5.788,1.036,7.851c2.399,2.064-0.352,3.548-1.588,3.902s-0.944,9.479,1.852,12.369
				c2.796,2.892,10.292,4.219,11.208,5.481c0.917,1.262,0.733,5.155-1.605,8.215s-6.608,10.906-5.84,15.331
				c0.767,4.425,11.43,11.021,13.11,11.588C179.634,271.292,181.466,280.4,172.488,286.562z M227.892,261.368
				c2.584,2.072,5.96,8.084-0.526,11.192c-6.486,3.107-12.568,2.821-14.062,3.483s-7.394,3.555-12.848,4.518
				s-6.864,5.042-8.559-0.402c-1.695-5.443,5.011-8.054,6.726-8.218c1.714-0.164,1.852-3.082,0.601-2.41
				c-1.251,0.673-7.102,0.643-9.06,0.794s-4.022-2.627-2.562-2.559s9.372-2.243,10.204-4.398c0.833-2.154-9.777,0.517-11.967,0.414
				c-2.19-0.104-9.291,0.539-7.995-1.107c1.296-1.646,10.215-4.641,13.412-5.222s4.714-1.73,3.486-1.543
				c-1.228,0.187-8.272-0.388-10.717-0.26c-2.444,0.129-10.5,1.701-10.132,0.987c0.367-0.714,2.959-4.007,9.308-4.196
				c6.348-0.189,10.982-0.215,14.445-1.271c3.464-1.057,3.369-4.23,1.422-4.322c-1.946-0.091-18.65,2.538-18.582,1.078
				c0.068-1.461,4.665-5.878,8.813-5.927c4.147-0.048,10.796-1.443,11.074-2.161c0.277-0.719-4.22-3.612-4.22-3.612
				s-9.336,1.513-10.75,0.471c-1.415-1.042-3.049-2.584-3.971-3.724c-0.921-1.139-7.101-4.559-4.602-11.045
				s4.873-10.295,5.049-14.057c0.177-3.762-7.155-8.607-7.155-8.607s6.884-1.197,6.965-2.938c0.082-1.74-0.613-2.504-1.83-2.562
				s-10.728-0.016-10.671-1.232c0.058-1.217,9.834-1.733,12.998-1.584s3.498-1.786,3.555-3.002s-8.196-0.629-8.524-2.107
				c-0.329-1.479,11.787-5.054,25.02-1.263c2.934,0.841,5.823,3.199,4.998,11.695s-3.733,7.597-3.257,10.683
				c0.477,3.085,1.72,7.776,4.096,9.107c2.375,1.331,13.305,7.451,14.51,7.752c1.205,0.301,4.219,4.345,1.285,9.327
				c-2.933,4.982-5.86,10.209-4.861,14.889C220.008,252.708,225.307,259.296,227.892,261.368z M215.322,201.939
				c0,0,2.954,4.603,2.63,6.294c-0.323,1.691-2.685,5.238-4.365,4.671c-1.68-0.567-3.789-2.402-2.175-5.604
				C213.026,204.1,215.322,201.939,215.322,201.939z M213.814,182.121c0.32-1.62,1.611-3.152,1.611-3.152s7.327-0.258,7.483-0.982
				c0.156-0.724,4.337-1.503,4.337-1.503s-3.209,6.045-7.835,5.899C214.784,182.238,213.494,183.741,213.814,182.121z
				 M238.466,238.701c-9.105,1.767-9.124-0.429-9.124-0.429s3.355-6.535,4.729-9.83c1.374-3.295-3.975-6.228-3.975-6.228
				s-2.254-1.331-1.398-3.97c0.856-2.639-4.566-1.43-4.972-3.156s8.109-1.338,9.383-2.491c1.273-1.154,2.581-3.043,1.863-3.321
				c-0.718-0.277-9.534,0.513-10.885-1.859s12.733-1.128,13.132-4.449s-2.092-2.198-5.073-1.007
				c-2.982,1.191-6.886,1.251-9.889-2.303c-3.003-3.555-4.231-3.368-4.163-4.828s0.563-6.801,0.563-6.801s11.323-2.294,13.282-5.056
				c1.958-2.762,4.48-9.715,2.591-11.023c-1.89-1.308-4.091-1.168-6.071-0.529s-11.455,5.07-14.792,3.451
				c-3.337-1.62-5.181-3.901-9.769-4.848c-4.589-0.947-8.436-2.103-8.436-2.103s3.437-5.69,5.417-6.329s3.566-3.247,3.392-4.718
				s-0.659-6.741,0.045-6.157c0.704,0.584,6.655-1.523,6.934-2.268s-4.195-4.124-4.868-5.375c-0.673-1.251,1.71-5.285,4.862-4.893
				c3.151,0.392,6.915-1.87,6.972-3.086s-10.462-0.491-11.158-1.255c-0.695-0.764,4.076-3.71,6.486-3.109
				c2.41,0.601,2.569-2.805-0.836-2.965c-3.406-0.16-8.409,2.531-8.352,1.315s5.037-3.421,7.725-3.539s4.506-2.471,2.083-2.828
				c-2.422-0.358-6.037-1.259-6.037-1.259s1.829-2.596,8.143-2.056c4.154,0.355,11.788,8.6,10.784,14.404
				c-1.004,5.805-4.216,8.697-0.796,17.943c3.42,9.246,10.685,10.319,12.273,12.832c1.589,2.513,6.549,5.916,6.378,9.565
				s-5.566,9.492-5.794,14.358s8.811,9.679,8.441,12.344c-0.369,2.665-6.467,13.107-7.103,16.247
				c-0.635,3.139,8.12,8.806,7.969,12.023C248.274,232.333,247.57,236.933,238.466,238.701z M247.704,192.562
				c-1.692-0.323-4.554-1.668-1.898-6.303c2.656-4.634,2.899-4.622,5.401-5.968c1.977-1.064,3.847,1.155,5.029,1.942
				c1.182,0.788,1.775,3.741,1.775,3.741s-5.433,1.452-7.147,1.615C249.149,187.753,249.396,192.885,247.704,192.562z
				 M297.794,221.49c-1.202,4.822-11.732,5.792-19.563,6.399c-7.831,0.606-28.303-4.8-27.256-6.308
				c1.046-1.508,14.355-4.54,17.495-3.905s5.653-0.953,3.729-1.531s-8.238-1.119-11.158-1.256c-2.919-0.137-9.787,0.028-9.787,0.028
				s5.139-4.894,9.327-5.787c4.187-0.894,8.48,1.149,10.063-1.404c1.583-2.553-12.177-0.312-11.594-2.338s10.805-1.624,11.155-3.885
				c0.35-2.261-2.999-3.638-3.763-2.942c-0.764,0.696-10.529,0.968-10.172-1.453c0.357-2.421,10.716,0.26,11.294-1.664
				c0.579-1.924-2.342-2.053-2.342-2.053s-9.812,1.254-9.732-0.457c0.081-1.711,3.114-4.007,10.182-3.919
				c7.067,0.088,8.079-0.681,8.122-1.612c0.044-0.931-7.492-1.428-7.426-2.816c0.065-1.388,4.951-1.589,6.509-3.617
				c1.559-2.028-6.98-1.941-7.953-1.987c-0.973-0.046-7.066-0.088-6.5-1.769c0.566-1.68,9.478,0.689,11.922,0.56
				c2.444-0.129,1.551-1.877-0.129-2.444s-7.462-2.058-8.39-3.076s6.717-2.854,8.698-3.493s-5.751-2.149-5.721-2.793
				c0.03-0.645,2.304-2.339,3.158-4.934c0.854-2.595-5.713-2.963-5.617-5.001c0.096-2.038,7.157-1.833,7.664-2.233
				c0.507-0.4-0.853-2.607-2.311-2.702c-1.459-0.094-7.16,1.884-6.326-0.297s5.612-5.235,8.779-5.221c0,0,8.318-0.585,9.629,2.646
				s-5.897,11.332-5.493,13.105c0.405,1.773-1.648,3.943,2.925,5.219c4.573,1.276,2.862,6.56,4.949,8.853s3.578,1.689,5.071,6.241
				c1.493,4.552-5.012,13.269-4.837,14.74c0.175,1.471,3.485,3.651,7.566,5.025c4.081,1.374,7.443,2.468,7.531,5.784
				s-5.971,2.524-6.125,5.818C291.21,216.307,298.996,216.667,297.794,221.49z"/>
			<path d="M86.076,191.835c-1.45-0.274-11.513,1.128-13.74,1.511l-0.206,4.379c0,0,11.981-0.412,13.719-1.063
				C87.586,196.013,87.526,192.109,86.076,191.835z"/>
			<path d="M71.787,205.024c-5.598-0.507-16.709,8.237-17.96,8.909c0,0,2.585,2.072,4.29,2.152s11.277-6.542,13.44-6.174
				c2.164,0.367,6.284,1.493,8.66,2.823c2.375,1.331,0.639,1.981,2.562,2.559c1.923,0.578,1.597-2.851,1.597-2.851
				S77.386,205.531,71.787,205.024z"/>
			<path d="M127.746,202.776c-0.429-1.24-0.923-1.935-4.022-2.627c-2.815-0.629-3.323,3.258-0.217,4.623
				C126.613,206.136,128.175,204.016,127.746,202.776z"/>
			<path d="M147.938,203.759c1.481-0.383,2.606-3.57,1.169-4.125s-4.433-1.746-4.623-0.217
				C144.092,202.569,146.457,204.143,147.938,203.759z"/>
			<path d="M149.003,217.261c-1.448-0.479-7.253-1.148-11.427-0.537c-4.174,0.611-9.408,2.393-10.515,2.6
				c-1.284,0.24-0.208,3.641-0.176,3.93c0.111-0.129,3.62,0.604,6.227,0.256c2.699-0.36,7.044,0.574,10.201,0.479
				c3.157-0.096,5.194-1.22,5.488-2.425C149.094,220.359,150.451,217.741,149.003,217.261z"/>
			<path d="M188.51,201.729c-0.163-1.715,0.728-3.554-1.798-3.254c-2.942,0.35-3.555,3.002-2.651,4.528
				C184.964,204.529,188.673,203.444,188.51,201.729z"/>
			<path d="M201.733,200.532c0.085-1.814-3.517-3.364-3.827-1.59C196.905,204.688,201.648,202.347,201.733,200.532z"/>
			<path d="M197.105,214.325c0,0-5.772-0.027-9.464,6.139c-3.691,6.167-5.335,9.504-2.869,9.375s16.846-0.916,20.944-1.211
				c4.098-0.296,5.284-2.19,5.353-3.649C211.138,223.519,199.084,215.394,197.105,214.325z M195.51,224.003
				c-2.676-0.125-6.828,0.004-6.828,0.004s5.586-4.301,8.998-4.46c2.187-0.102,5.007,4.063,5.416,4.813
				C203.505,225.111,198.187,224.129,195.51,224.003z"/>
		</g>
		<g>
			<path d="M21.271,278.97c0,0,2.174,10.832,1.527,14.215s-4.091-1.168-4.82-1.202c-0.73-0.034-5.464-3.183-6.063-0.772
				s5.173,4.144,6.579,10.55c1.406,6.405,1.58,7.876-4.361,9.792c-5.942,1.916-7.96-1.836-11.438-5.657
				c-3.478-3.82-3.225-9.204-1.296-8.732s8.781,4.694,9.798,4.011c1.018-0.683-2.579-7.191-4.212-8.731
				c-1.634-1.54-0.793-9.059-0.041-9.511c0.752-0.453,8.34-1.073,9.58-1.502S21.271,278.97,21.271,278.97z"/>
			<path d="M32.39,291.441c0.885,0.408,7.374,3.935,7.315,5.186c-0.059,1.251-0.713,9.998,1.477,10.101
				c2.189,0.104,5.048-8.854,6.065-9.746c1.018-0.893,2.728,9.428,4.396,10.237c1.668,0.811-6.19,12.389-7.407,12.332
				c-1.216-0.058-10.366-12.923-10.366-12.923s-2.38,9.154-3.806,8.356c-1.426-0.799-5.831-5.64-5.74-7.586
				S30.121,290.393,32.39,291.441z"/>
			<path d="M68.139,303.848c-3.395-0.402-4.532-2.163-4.532-2.163s-5.615,5.344-7.121,6.249c-1.506,0.905-5.692,12.168-0.697,14.841
				c4.995,2.673,7.834,4.514,14.176,1.885c6.341-2.628,7.866-9.14,7.958-11.086S71.533,304.251,68.139,303.848z M67.499,317.473
				c-3.08,3.269-7.425,2.334-7.056-0.332c0.369-2.665,1.247-6.524,6.339-5.554C67.868,311.793,70.578,314.204,67.499,317.473z"/>
			<path d="M81.833,307.518c0.718,0.465,5.956,3.656,5.895,4.963c-0.061,1.306-0.402,8.562,1.804,8.321s3.454-6.065,5.412-6.201
				c1.957-0.136,7.34-0.534,7.268,1.007c-0.073,1.542,0.041,9.346,4.184,9.544c2.919,0.14,8.449-13.746,11.159-14.35
				c0,0,3.283,7.957,2.763,8.663c-0.521,0.707-7.049,9.91-8.81,11.047c-1.76,1.136-4.896,5.623-7.341,5.752
				c-2.445,0.128-5.447-3.426-5.401-4.399c0.045-0.974-2.756-3.627-2.961-4.448c-0.206-0.821-6.851,5.694-6.851,5.694l-4.832-0.959
				c0,0-3.992-14.519-4.486-17.604C78.886,309.878,79.252,305.847,81.833,307.518z"/>
		</g>
		<g>
			<path d="M139.096,313.763c2.722-0.35,10.076-1.233,11.27-0.689c1.193,0.544,1.503,4.323,2.173,5.643
				c0.67,1.318,0.701,3.271,3.206,3.145c2.505-0.127,4.113-3.221,5.433-5.354s5.128-5.357,5.128-5.357s5.958-0.989,5.001,0.57
				c-0.957,1.561-1.59,4.564-0.279,7.864s6.76,13.064,6.431,14.269c-0.328,1.204-0.34,1.446-2.309,1.842s-4.912-1.205-4.912-1.205
				s-2.439-8.404-4.352-9.227c-1.912-0.821-5.106,4.881-5.707,7.29c-0.601,2.41-5.045,2.302-5.045,2.302s-2.128-5.32-3.774-6.616
				c-1.646-1.297-3.103,3.755-3.103,3.755s0.235,5.375-0.495,5.341c-0.73-0.034-7.632,0.89-7.118,0.655
				c0.514-0.234,0.879-13.87,0.777-16.558S138.083,313.894,139.096,313.763z"/>
			<path d="M196.617,309.449c-1.663-0.999-10.19-1.021-11.186-0.58c-0.997,0.439-4.022-2.627-4.217-3.26
				c0,0-4.629,9.915-3.195,16.322c1.434,6.408,7.543,10.107,12.94,9.954s10.749-6.159,11.456-10.826
				C203.121,316.391,198.28,310.448,196.617,309.449z M188.512,326.327c-6.58-0.066-4.203-11.658,1.691-8.699
				c1.269,0.637,3.864,2.862,3.814,4.812C193.968,324.387,195.093,326.392,188.512,326.327z"/>
			<path d="M201.012,304.203c-0.934-0.384,7.435-2.544,7.435-2.544s4.917,4.349,6.324,5.526c1.407,1.177,6.204,2.868,6.98,1.928
				s-0.478-5.389-1.626-6.905s-1.106-7.61-1.489-9.823c-0.384-2.212,6.154,3.947,7.371,4.004c1.217,0.058,0.84,8.086,1.953,10.333
				c1.114,2.247,4.582,6.271,4.75,7.884c0.168,1.613-6.424,1.79-9.841,1.874s-12.203-4.962-12.203-4.962s-1.602,5.646,1.718,8.481
				c4.999,4.27,0.053,5.744-1.141,5.2s-6.545-9.816-8.33-14.046C201.128,306.924,202.926,304.991,201.012,304.203z"/>
			<path d="M238.811,283.335c0,0,9.955,6.077,11.89,6.411c1.936,0.334-4.205,1.265-6.163,1.417c-1.958,0.151-3.683,0.548-3.74,1.77
				c-0.058,1.222,2.318,2.552,7.682,2.561c5.364,0.009,6.07,0.528,9.884,2.414c3.813,1.887,2.228,4.494,1.87,6.916
				c-0.357,2.422-3.03,7.417-7.479,8.671c-4.448,1.253-7.345,0.63-11.192-0.526c-3.847-1.156-4.314-1.589-3.989-3.318
				s10.299-2.725,11.642-4.612c1.343-1.888,0.369-7.105-2.117-6.1c-2.485,1.007-5.924,1.525-11.192-0.525
				c-5.268-2.05-2.537-8.017-1.988-9.454C234.469,287.521,238.811,283.335,238.811,283.335z"/>
			<path d="M247.625,279.848c2.233-0.899,14.166-3.724,14.506-5.414c0.341-1.691,4.976-1.718,4.93-0.744s-1.677,4.553-2.209,5.504
				c-0.532,0.95,3.273,8.2,5.371,10.25c2.098,2.049,6.56,5.672,5.716,8.07s-3.984,1.764-7.729-1.582
				c-3.744-3.345-6.4-9.083-8.533-10.399c-2.133-1.317-4.159,0.295-5.421,1.21C252.994,287.659,246.546,280.283,247.625,279.848z"/>
			<path d="M285.009,260.147c0.33-1.725,2.968,4.284,1.66,6.174c-1.308,1.889-5.732,2.656-6.113,5.564s3.218,3.886,6.11,2.154
				s7.374-3.716,8.834-3.646c1.46,0.068-0.375,2.796-2.67,4.938c-2.296,2.143-5.26,3.955-5.067,7.133
				c0.193,3.179,8.23-1.807,9.515-3.21c1.285-1.403,2.779-2.063,3.44-0.569c0.661,1.493-2.022,6.73-4.247,7.358
				c-2.224,0.628-9.646,8.081-9.611,7.351c0.035-0.729-10.593-8.057-13.273-13.302c-2.68-5.246-4.58-6.311-0.759-9.789
				C276.648,266.826,284.686,261.838,285.009,260.147z"/>
			<path d="M324.64,257.375c-1.715,0.163-10.473-0.249-11.435-0.537c-0.962-0.289,1.966-5.516-0.874-7.355
				c-2.839-1.841-6.2-2.975-10.04-1.447c-3.841,1.526-11.469,7.751-11.469,7.751s9.46,11.417,9.392,12.877
				c-0.069,1.46,7.94,7.444,8.804,7.484c0.863,0.041,1.695-2.603,1.997-3.808c0.301-1.205-0.571-3.44-1.585-4.951
				c-1.015-1.51,1.742-3.575,1.742-3.575s5.77,1.733,8.69,1.871c2.92,0.137,5.421-1.208,6.452-2.379
				C327.343,262.135,326.354,257.212,324.64,257.375z M303.995,258.356c-1.168,1.409-3.894-2.864-3.894-2.864
				c0.996-0.441,1.827-2.354,4.088-1.271C306.45,255.302,305.163,256.948,303.995,258.356z"/>
		</g>
	</g>
	<g>
		<g>
			<path d="M203.185,84.888l2.031-0.879c0,0-2.217-6.444-0.695-6.373c1.521,0.072,5.287-0.483,5.455,0.256
				c0.168,0.739,0.055,5.611,2.552,5.728c2.497,0.117,0.045-4.793,1.559-5.86s3.958-1.196,3.958-1.196s0.281,4.402,1.492,4.581
				c1.21,0.179,3.944-0.912,3.944-0.912l-0.263,5.595c0,0-1.958,0.153-1.992,0.882s1.417,6.162,1.581,7.877
				c0.164,1.714-0.308,6.569-0.308,6.569l-3.893-0.183c0,0,0.123-7.796-0.979-10.287c-1.103-2.491-1.193-2.55-2.509-2.097
				c-1.315,0.454-0.264,5.624-0.264,5.624l-6.921,0.406c0,0,1.493-4.075,1.509-5.293c0.016-1.218-6.459-0.059-6.459-0.059
				L203.185,84.888z"/>
			<path d="M214.078,67.844l6.613-0.909c0,0,2.344,7.182,1.58,7.877c-0.764,0.695-4.227,1.751-4.227,1.751
				S217.174,69.696,214.078,67.844z"/>
			<path d="M224.25,66.127l4.636-1.489l-0.286,6.083l-4.625,1.246C223.976,71.967,225.309,66.665,224.25,66.127z"/>
			<path d="M225.911,79.373c0,0,15.907-0.229,16.834,0.791c0.928,1.019,1.813,8.131,1.976,9.846s-2.742,6.455-2.742,6.455
				l-5.409,0.965c0,0,2.44-5.25,1.338-7.74c-1.102-2.49-1.532-3.729-1.532-3.729s-3.326-1.863-3.395-0.403
				c-0.068,1.46-0.251,5.353-0.251,5.353l-7.391,0.628c0,0,2.734-3.529,2.563-5.975C227.733,83.116,225.911,79.373,225.911,79.373z"
				/>
		</g>
		<path d="M245.452,103.313l2.031-0.88c0,0-2.217-6.443-0.695-6.372c1.521,0.072,5.287-0.483,5.455,0.256
			c0.168,0.739,0.055,5.611,2.552,5.728s0.045-4.793,1.559-5.86s3.958-1.196,3.958-1.196s0.281,4.402,1.492,4.581
			c1.21,0.179,3.944-0.912,3.944-0.912l-0.263,5.595c0,0-1.958,0.152-1.992,0.882c-0.034,0.729,1.417,6.162,1.581,7.876
			c0.164,1.715-0.308,6.569-0.308,6.569l-3.893-0.183c0,0,0.123-7.796-0.98-10.287c-1.102-2.491-1.192-2.551-2.508-2.097
			c-1.315,0.454-0.264,5.624-0.264,5.624l-6.921,0.406c0,0,1.493-4.075,1.509-5.293s-6.459-0.06-6.459-0.06L245.452,103.313z"/>
		<path d="M256.344,86.269l6.613-0.908c0,0,2.344,7.182,1.58,7.877c-0.764,0.696-4.227,1.752-4.227,1.752
			S259.44,88.121,256.344,86.269z"/>
		<path d="M266.517,84.553l4.636-1.489l-0.286,6.083l-4.625,1.246C266.243,90.392,267.576,85.09,266.517,84.553z"/>
		<path d="M268.178,97.798c0,0,15.907-0.229,16.834,0.791c0.928,1.019,1.813,8.131,1.976,9.846c0.163,1.714-2.742,6.455-2.742,6.455
			l-5.41,0.965c0,0,2.441-5.25,1.339-7.739c-1.102-2.49-1.532-3.729-1.532-3.729s-3.326-1.863-3.395-0.403
			c-0.068,1.46-0.251,5.353-0.251,5.353l-7.391,0.628c0,0,2.734-3.529,2.563-5.975S268.178,97.798,268.178,97.798z"/>
	</g>
	<g opacity="0.3">
		<g>
			<path d="M112.48,56.681l2.031-0.879c0,0-2.217-6.444-0.695-6.373c1.521,0.072,5.287-0.483,5.455,0.256
				c0.168,0.739,0.055,5.611,2.552,5.728s0.045-4.793,1.558-5.86c1.513-1.067,3.958-1.196,3.958-1.196s0.281,4.402,1.492,4.581
				c1.21,0.179,3.944-0.912,3.944-0.912l-0.263,5.595c0,0-1.958,0.152-1.992,0.882c-0.035,0.729,1.417,6.162,1.581,7.876
				c0.164,1.715-0.309,6.569-0.309,6.569l-3.893-0.183c0,0,0.123-7.796-0.98-10.287c-1.102-2.491-1.192-2.551-2.508-2.097
				c-1.315,0.454-0.264,5.624-0.264,5.624l-6.921,0.406c0,0,1.493-4.075,1.509-5.293s-6.459-0.06-6.459-0.06L112.48,56.681z"/>
			<path d="M123.373,39.637l6.613-0.909c0,0,2.344,7.182,1.58,7.877c-0.764,0.695-4.228,1.751-4.228,1.751
				S126.469,41.488,123.373,39.637z"/>
			<path d="M133.545,37.92l4.636-1.489l-0.286,6.083l-4.625,1.246C133.271,43.759,134.604,38.458,133.545,37.92z"/>
			<path d="M135.207,51.165c0,0,15.907-0.229,16.834,0.791s1.813,8.131,1.976,9.846c0.163,1.715-2.742,6.455-2.742,6.455
				l-5.41,0.965c0,0,2.441-5.25,1.339-7.739c-1.102-2.49-1.532-3.729-1.532-3.729s-3.326-1.863-3.395-0.403
				s-0.251,5.353-0.251,5.353l-7.391,0.628c0,0,2.734-3.529,2.563-5.975S135.207,51.165,135.207,51.165z"/>
		</g>
		<path d="M154.748,75.106l2.031-0.88c0,0-2.217-6.443-0.695-6.372c1.521,0.071,5.287-0.483,5.455,0.256
			c0.168,0.739,0.055,5.611,2.552,5.728c2.497,0.117,0.045-4.793,1.558-5.86s3.958-1.196,3.958-1.196s0.281,4.402,1.492,4.581
			c1.211,0.179,3.944-0.912,3.944-0.912l-0.263,5.595c0,0-1.958,0.152-1.993,0.882c-0.034,0.729,1.418,6.162,1.581,7.876
			c0.164,1.715-0.309,6.569-0.309,6.569l-3.893-0.183c0,0,0.122-7.796-0.98-10.287c-1.102-2.491-1.192-2.551-2.508-2.097
			c-1.315,0.454-0.264,5.624-0.264,5.624l-6.921,0.406c0,0,1.492-4.075,1.509-5.293c0.016-1.218-6.459-0.06-6.459-0.06
			L154.748,75.106z"/>
		<path d="M165.64,58.062l6.613-0.908c0,0,2.345,7.182,1.581,7.877c-0.764,0.696-4.228,1.752-4.228,1.752
			S168.736,59.914,165.64,58.062z"/>
		<path d="M175.813,56.345l4.636-1.489l-0.286,6.083l-4.625,1.246C175.538,62.185,176.871,56.883,175.813,56.345z"/>
		<path d="M177.474,69.59c0,0,15.907-0.229,16.834,0.791c0.927,1.019,1.813,8.131,1.976,9.846c0.163,1.714-2.742,6.455-2.742,6.455
			l-5.41,0.965c0,0,2.441-5.25,1.339-7.74c-1.102-2.49-1.532-3.729-1.532-3.729s-3.326-1.863-3.395-0.403s-0.251,5.353-0.251,5.353
			l-7.391,0.628c0,0,2.734-3.529,2.563-5.975S177.474,69.59,177.474,69.59z"/>
	</g>
	<g opacity="0.5">
		<g>
			<path d="M183.072,37.146l2.031-0.88c0,0-2.217-6.443-0.695-6.372c1.521,0.072,5.287-0.483,5.455,0.256
				c0.168,0.739,0.055,5.611,2.552,5.728s0.045-4.793,1.559-5.86s3.958-1.196,3.958-1.196s0.281,4.402,1.492,4.581
				c1.21,0.179,3.944-0.912,3.944-0.912l-0.263,5.595c0,0-1.958,0.152-1.992,0.882c-0.034,0.729,1.417,6.162,1.581,7.876
				c0.164,1.715-0.308,6.569-0.308,6.569l-3.893-0.183c0,0,0.123-7.796-0.979-10.287c-1.103-2.491-1.193-2.551-2.509-2.097
				c-1.315,0.454-0.264,5.624-0.264,5.624l-6.921,0.406c0,0,1.493-4.075,1.509-5.293s-6.459-0.06-6.459-0.06L183.072,37.146z"/>
			<path d="M193.965,20.102l6.613-0.908c0,0,2.344,7.182,1.58,7.877c-0.764,0.696-4.227,1.752-4.227,1.752
				S197.061,21.954,193.965,20.102z"/>
			<path d="M204.137,18.386l4.636-1.489l-0.286,6.083l-4.625,1.246C203.863,24.225,205.196,18.923,204.137,18.386z"/>
			<path d="M205.799,31.63c0,0,15.906-0.229,16.833,0.791c0.928,1.019,1.813,8.131,1.976,9.846c0.163,1.714-2.742,6.455-2.742,6.455
				l-5.41,0.965c0,0,2.441-5.25,1.339-7.739c-1.102-2.49-1.532-3.729-1.532-3.729s-3.326-1.863-3.395-0.403
				c-0.068,1.46-0.251,5.353-0.251,5.353l-7.391,0.628c0,0,2.734-3.529,2.563-5.975C207.62,35.374,205.799,31.63,205.799,31.63z"/>
		</g>
		<path d="M225.339,55.572l2.031-0.88c0,0-2.217-6.443-0.695-6.372s5.287-0.483,5.455,0.256c0.168,0.739,0.055,5.611,2.552,5.728
			s0.045-4.793,1.559-5.86c1.513-1.067,3.957-1.196,3.957-1.196s0.281,4.402,1.492,4.581c1.21,0.179,3.944-0.912,3.944-0.912
			l-0.263,5.595c0,0-1.958,0.152-1.992,0.882c-0.035,0.73,1.417,6.163,1.581,7.877c0.164,1.715-0.309,6.569-0.309,6.569
			l-3.893-0.183c0,0,0.123-7.796-0.979-10.287c-1.103-2.49-1.193-2.55-2.509-2.096c-1.315,0.454-0.264,5.624-0.264,5.624
			l-6.921,0.406c0,0,1.493-4.075,1.509-5.293s-6.459-0.06-6.459-0.06L225.339,55.572z"/>
		<path d="M236.231,38.527l6.613-0.908c0,0,2.344,7.182,1.58,7.877c-0.764,0.695-4.228,1.752-4.228,1.752
			S239.328,40.379,236.231,38.527z"/>
		<path d="M246.404,36.811l4.636-1.489l-0.286,6.083l-4.625,1.246C246.13,42.65,247.463,37.349,246.404,36.811z"/>
		<path d="M248.065,50.056c0,0,15.907-0.229,16.834,0.791c0.928,1.019,1.813,8.131,1.976,9.846c0.163,1.714-2.742,6.455-2.742,6.455
			l-5.41,0.965c0,0,2.441-5.25,1.339-7.74c-1.102-2.49-1.532-3.729-1.532-3.729s-3.326-1.863-3.395-0.403
			c-0.068,1.459-0.251,5.353-0.251,5.353l-7.391,0.628c0,0,2.734-3.529,2.563-5.975C249.887,53.799,248.065,50.056,248.065,50.056z"
			/>
	</g>
	<g opacity="0.2">
		<g>
			<path d="M261.108,76.907l2.031-0.88c0,0-2.217-6.443-0.695-6.372c1.521,0.071,5.287-0.483,5.455,0.256
				c0.168,0.739,0.055,5.611,2.552,5.728c2.497,0.117,0.045-4.793,1.558-5.86s3.958-1.196,3.958-1.196s0.281,4.402,1.492,4.581
				c1.211,0.179,3.944-0.912,3.944-0.912l-0.263,5.596c0,0-1.958,0.152-1.993,0.882c-0.034,0.73,1.417,6.162,1.581,7.877
				s-0.309,6.569-0.309,6.569l-3.893-0.183c0,0,0.122-7.796-0.98-10.287c-1.102-2.49-1.193-2.55-2.508-2.096
				c-1.316,0.454-0.264,5.624-0.264,5.624l-6.922,0.406c0,0,1.493-4.075,1.509-5.293s-6.458-0.06-6.458-0.06L261.108,76.907z"/>
			<path d="M272,59.863l6.613-0.908c0,0,2.344,7.182,1.581,7.877c-0.764,0.695-4.228,1.752-4.228,1.752S275.096,61.715,272,59.863z"
				/>
			<path d="M282.173,58.146l4.636-1.489l-0.286,6.083l-4.625,1.246C281.898,63.986,283.231,58.684,282.173,58.146z"/>
			<path d="M283.834,71.391c0,0,15.907-0.229,16.834,0.791c0.927,1.019,1.813,8.131,1.976,9.846
				c0.164,1.714-2.741,6.455-2.741,6.455l-5.41,0.965c0,0,2.441-5.25,1.339-7.74c-1.102-2.49-1.532-3.729-1.532-3.729
				s-3.326-1.863-3.395-0.403c-0.069,1.459-0.251,5.353-0.251,5.353l-7.391,0.628c0,0,2.734-3.529,2.563-5.975
				C285.655,75.135,283.834,71.391,283.834,71.391z"/>
		</g>
		<path d="M303.375,95.333l2.031-0.88c0,0-2.217-6.443-0.696-6.372c1.521,0.071,5.287-0.483,5.455,0.256
			c0.168,0.739,0.055,5.611,2.552,5.728c2.497,0.117,0.045-4.793,1.558-5.86c1.514-1.067,3.958-1.196,3.958-1.196
			s0.28,4.402,1.491,4.581c1.211,0.179,3.944-0.912,3.944-0.912l-0.263,5.596c0,0-1.958,0.152-1.992,0.882
			c-0.034,0.73,1.417,6.162,1.581,7.877c0.163,1.714-0.309,6.569-0.309,6.569l-3.894-0.183c0,0,0.123-7.796-0.979-10.287
			c-1.103-2.49-1.192-2.55-2.509-2.096c-1.315,0.454-0.264,5.624-0.264,5.624l-6.922,0.406c0,0,1.493-4.075,1.509-5.293
			s-6.459-0.06-6.459-0.06L303.375,95.333z"/>
		<path d="M314.267,78.288l6.613-0.909c0,0,2.345,7.182,1.58,7.877c-0.764,0.695-4.227,1.752-4.227,1.752
			S317.363,80.14,314.267,78.288z"/>
		<path d="M324.439,76.572l4.637-1.489l-0.286,6.083l-4.625,1.246C324.165,82.411,325.498,77.109,324.439,76.572z"/>
		<path d="M326.101,89.816c0,0,15.907-0.229,16.834,0.791c0.928,1.02,1.813,8.132,1.977,9.846c0.162,1.715-2.742,6.455-2.742,6.455
			l-5.409,0.965c0,0,2.44-5.25,1.339-7.74c-1.103-2.49-1.531-3.729-1.531-3.729s-3.326-1.863-3.396-0.404
			c-0.068,1.46-0.251,5.353-0.251,5.353l-7.392,0.628c0,0,2.734-3.529,2.563-5.976C327.923,93.56,326.101,89.816,326.101,89.816z"/>
	</g>
	<g opacity="0.3">
		<g>
			<path d="M229.358,20.25l2.031-0.88c0,0-2.217-6.444-0.695-6.372c1.521,0.071,5.287-0.483,5.455,0.256
				c0.168,0.739,0.055,5.611,2.552,5.728c2.497,0.118,0.045-4.793,1.559-5.86s3.957-1.196,3.957-1.196s0.281,4.402,1.492,4.581
				c1.21,0.179,3.944-0.912,3.944-0.912l-0.263,5.595c0,0-1.958,0.153-1.992,0.882c-0.035,0.729,1.417,6.162,1.581,7.877
				c0.164,1.714-0.309,6.569-0.309,6.569l-3.893-0.183c0,0,0.123-7.796-0.98-10.287c-1.102-2.49-1.192-2.55-2.508-2.097
				c-1.315,0.454-0.264,5.624-0.264,5.624l-6.921,0.406c0,0,1.493-4.075,1.509-5.293c0.016-1.218-6.459-0.059-6.459-0.059
				L229.358,20.25z"/>
			<path d="M240.25,3.206l6.613-0.909c0,0,2.344,7.182,1.58,7.877c-0.764,0.695-4.228,1.751-4.228,1.751S243.347,5.058,240.25,3.206
				z"/>
			<path d="M250.423,1.489L255.06,0l-0.286,6.083l-4.625,1.246C250.149,7.329,251.482,2.027,250.423,1.489z"/>
			<path d="M252.084,14.734c0,0,15.907-0.229,16.834,0.791c0.927,1.02,1.813,8.132,1.976,9.846c0.163,1.715-2.742,6.455-2.742,6.455
				l-5.41,0.965c0,0,2.441-5.25,1.339-7.74c-1.102-2.49-1.532-3.729-1.532-3.729s-3.326-1.863-3.395-0.403
				c-0.068,1.46-0.251,5.353-0.251,5.353l-7.391,0.628c0,0,2.734-3.529,2.563-5.975S252.084,14.734,252.084,14.734z"/>
		</g>
		<path d="M271.625,38.675l2.031-0.879c0,0-2.217-6.444-0.695-6.373c1.521,0.072,5.287-0.483,5.455,0.256
			c0.168,0.739,0.055,5.611,2.552,5.728c2.497,0.117,0.045-4.793,1.559-5.86c1.513-1.067,3.957-1.196,3.957-1.196
			s0.281,4.402,1.492,4.581c1.21,0.179,3.944-0.912,3.944-0.912l-0.263,5.595c0,0-1.958,0.152-1.992,0.882
			c-0.035,0.729,1.417,6.162,1.581,7.877c0.164,1.714-0.309,6.569-0.309,6.569l-3.893-0.183c0,0,0.123-7.796-0.98-10.287
			c-1.102-2.491-1.192-2.55-2.508-2.097c-1.315,0.454-0.264,5.624-0.264,5.624l-6.921,0.406c0,0,1.492-4.075,1.509-5.293
			c0.016-1.218-6.459-0.059-6.459-0.059L271.625,38.675z"/>
		<path d="M282.518,21.631l6.613-0.909c0,0,2.344,7.182,1.58,7.877c-0.764,0.695-4.228,1.751-4.228,1.751
			S285.614,23.483,282.518,21.631z"/>
		<path d="M292.69,19.915l4.636-1.489l-0.286,6.083l-4.625,1.246C292.416,25.754,293.749,20.452,292.69,19.915z"/>
		<path d="M294.352,33.16c0,0,15.907-0.229,16.834,0.791s1.813,8.131,1.976,9.846c0.163,1.715-2.742,6.455-2.742,6.455l-5.41,0.965
			c0,0,2.441-5.25,1.339-7.74c-1.102-2.49-1.532-3.729-1.532-3.729s-3.326-1.863-3.395-0.403s-0.251,5.353-0.251,5.353l-7.391,0.628
			c0,0,2.734-3.529,2.563-5.975S294.352,33.16,294.352,33.16z"/>
	</g>
</g>
</svg>
