<?xml version="1.0" encoding="utf-8"?>
<svg version="1.1" id="レイヤー_1" xmlns="http://www.w3.org/2000/svg" xmlns:xlink="http://www.w3.org/1999/xlink" x="0px"
	 y="0px" width="200" height="200" viewBox="0 -40 266 330" enable-background="new 0 0 266.548 290.342"
	 xml:space="preserve">
<g>
	<g>
		<g>
			<path fill="#B5B5B6" d="M26.683,50.727c0,0,6.97-0.071,7.175,0.733s-0.718,1.636-0.718,1.636s-6.971-1.344-7.38-0.729
				S26.683,50.727,26.683,50.727z"/>
			<path fill="#B5B5B6" d="M27.175,55.955c0,0,6.127-1.332,6.713-0.512s0,2.152,0,2.152s-6.221,0.717-6.713,1.025
				S27.175,55.955,27.175,55.955z"/>
			<polygon fill="#B5B5B6" points="62.148,56.16 77.422,57.493 75.987,62.684 64.608,58.195 			"/>
			<path fill="#B5B5B6" d="M63.481,62.548c0,0,7.483,2.53,8.918,1.505s2.46,4.817,2.46,4.817s-11.993-1.07-11.891-1.714
				S63.481,62.548,63.481,62.548z"/>
			<path fill="#B5B5B6" d="M64.608,72.458l10.25,0.524l-0.615,3.576c0,0-8.2-1.23-8.713-0.41S64.608,72.458,64.608,72.458z"/>
			<polygon fill="#B5B5B6" points="67.786,80.285 73.937,80.285 74.859,83.109 68.913,83.109 			"/>
			<path fill="#B5B5B6" d="M88.39,58.642l13.941,2.541l-2.358,5.125c0,0-9.738-3.28-11.583-2.255S88.39,58.642,88.39,58.642z"/>
			<path fill="#B5B5B6" d="M89.722,67.157c0,0,11.071,0.894,11.481,0.997s-0.82,4.83-0.82,4.83s-8.611-2.882-10.661-1.857
				S89.722,67.157,89.722,67.157z"/>
			<path fill="#B5B5B6" d="M90.03,74.508c0,0,7.79,0,8.61,0s0.615,2.563,0.615,2.563s-8.917-0.717-9.84,0S90.03,74.508,90.03,74.508
				z"/>
			<path fill="#B5B5B6" d="M89.12,79.429h9.008v2.818c0,0-7.458-0.667-9.008,0S89.12,79.429,89.12,79.429z"/>
			<path fill="#B5B5B6" d="M89.12,85.393c0,0,8.496-0.597,9.008,0s0,3.364,0,3.364s-7.483-2.471-7.996-1.082
				S89.12,85.393,89.12,85.393z"/>
			<path fill="#B5B5B6" d="M71.784,94.188H97.41l-0.217,1.359c0,0-21.822,0.281-23.974,1.204S71.784,94.188,71.784,94.188z"/>
			<path fill="#B5B5B6" d="M73.321,101.261c0,0,8.713-2.46,12.608-2.255s11.48,0.787,11.48,0.787v1.776c0,0-8.815,0.41-12.044,0.41
				s-11.122,1.333-11.122,1.333L73.321,101.261z"/>
			<path fill="#B5B5B6" d="M75.269,110.384c0,0,7.995-1.64,12.3-1.64s7.996,0.82,7.996,0.82l-0.516,2.768
				c0,0-17.421,1.23-17.627,1.025S75.269,110.384,75.269,110.384z"/>
			<path fill="#B5B5B6" d="M77.422,119.122c0,0,15.163-1.768,17.627-1.563s-0.85,8.098-0.85,8.098s-11.96-5.654-15.035-4.057
				S77.422,119.122,77.422,119.122z"/>
			<path fill="#B5B5B6" d="M79.676,127.809c0,0,12.916,0.41,13.121,0s-1.128,5.945-1.128,5.945s-8.815-3.812-10.968-2.982
				S79.676,127.809,79.676,127.809z"/>
			<path fill="#B5B5B6" d="M81.111,133.754c0-0.103,5.022,1.947,6.355,1.333s3.998,0.115,3.998,0.115l-2.344,4.876
				c0,0-5.958-1.861-6.779-1.837S81.111,133.754,81.111,133.754z"/>
			<path fill="#B5B5B6" d="M122.212,57.083c0,0,11.686-0.308,12.813,0s0.615,3.28,0.615,3.28s-12.505-1.947-13.428-1.333
				S122.212,57.083,122.212,57.083z"/>
			<path fill="#B5B5B6" d="M122.212,64.258c0,0,11.173-0.308,11.686-0.615s0,3.514,0,3.514l-12.096,0.382L122.212,64.258z"/>
			<path fill="#B5B5B6" d="M121.29,70.07c0,0,11.788-0.481,12.096-0.789s0.741,2.255,0.741,2.255s-12.324-0.308-12.836,0
				S121.29,70.07,121.29,70.07z"/>
			<path fill="#B5B5B6" d="M120.47,76.559c0,0,10.25-0.308,11.275,0s0.41,2.87,0.41,2.87s-10.809-1.698-11.093-1.105
				S120.47,76.559,120.47,76.559z"/>
			<polygon fill="#B5B5B6" points="143.533,58.21 150.299,58.655 149.786,63.625 142.406,62.684 			"/>
			<path fill="#B5B5B6" d="M143.124,64.853c0,0,6.252-0.1,6.458,0.729s-0.922,2.776-0.922,2.776l-6.253-0.82L143.124,64.853z"/>
			<path fill="#B5B5B6" d="M142.918,70.414c0,0,4.715-0.683,5.228-0.344s0,4.029,0,4.029l-5.74-2.062L142.918,70.414z"/>
			<path fill="#B5B5B6" d="M141.996,75.841c0,0,4.613,1.162,4.92,0.581s-0.563,4.458-0.563,4.458l-5.895-1.452L141.996,75.841z"/>
			<path fill="#B5B5B6" d="M122.52,82.332c0,0,8.098,1.177,10.353,0.777s12.22,1.035,12.517,1.035s0.963,3.531,0.963,3.531
				s-13.364-2.633-17.573-2.672s-6.977,0.389-6.977,0.389L122.52,82.332z"/>
			<path fill="#B5B5B6" d="M121.062,89.167c0,0,9.192-1.23,13.064-0.922s12.856,0.922,12.856,0.922l-2.218,3.439
				c0,0-4.278-0.364-9.007-0.979S121.802,90.4,121.802,90.4L121.062,89.167z"/>
			<path fill="#B5B5B6" d="M121.062,95.547c0,0,10.727-0.547,12.96-0.337s11.368,2.978,11.368,2.978v2.965
				c0,0-10.92-2.923-13.051-2.995s-11.276,0-11.276,0V95.547z"/>
			<path fill="#B5B5B6" d="M119.751,105.363c0,0,6.663-0.923,12.096-0.513s14.159,1.948,14.159,1.948v4.087
				c0,0-15.271-2.45-17.227-2.141s-9.028,0.822-9.028,0.822V105.363z"/>
			<path fill="#B5B5B6" d="M119.034,114.69c0,0,9.081-1.358,13.305-0.833s13.051,0.833,13.051,0.833v4.431c0,0-13.338,0.331-14.67,0
				s-11.686,0.592-11.686,0.592V114.69z"/>
			<path fill="#B5B5B6" d="M118.316,123.608c0,0,10.148,1.128,11.173,0.615s15.9-2.624,15.9-2.624v4.531
				c0,0-10.262,2.284-15.9,2.238s-11.173-0.58-11.173-0.58V123.608z"/>
			<path fill="#B5B5B6" d="M118.316,131.705c0,0,10.251,0.923,12.301,0.513s14.773-2.255,14.773-2.255v4.408
				c0,0-14.158,0.979-16.618,1.31s-10.456-0.489-10.456-0.489V131.705z"/>
			<g>
				<path fill="#B5B5B6" d="M18.496,51.845c-1.154-0.866-9.524,0-9.524,0v2.886h9.524C18.496,54.731,19.65,52.711,18.496,51.845z"/>
				<path fill="#B5B5B6" d="M7.611,62.395c-0.041,0.043-0.072,0.086-0.083,0.129C7.461,62.793,7.506,62.693,7.611,62.395z"/>
				<path fill="#B5B5B6" d="M19.009,58.195H8.972c0,0-1.017,3.218-1.361,4.2c1.037-1.1,11.398-2.035,11.398-2.035V58.195z"/>
				<path fill="#B5B5B6" d="M8.972,65.411v1.732c0,0,17.317,0.289,18.203-1.732s17.875,0,17.875,0s1.154-2.021-0.866-2.727
					s-25.174,1.572-25.174,1.572L8.972,65.411z"/>
				<path fill="#B5B5B6" d="M31.773,74.646c8.37-2.032,15.297,0,15.297,0l-1.692-4.063c0,0-14.471,0.6-18.203,1.166
					s-6.37-0.855-8.166-1.144S8.972,72.915,8.972,72.915l-1.476,1.731C7.496,74.646,24.948,76.303,31.773,74.646z"/>
				<path fill="#B5B5B6" d="M28.598,80.285c5.504,0.866,18.472,1.577,18.472,1.577s-0.289-4.618-1.692-3.303
					S26,78.976,23.114,78.688s-14.143,0-14.143,0l-1.476,3.56C7.496,82.247,23.094,79.419,28.598,80.285z"/>
				<path fill="#B5B5B6" d="M30.33,83.29C26,82.521,8.972,84.46,8.972,84.46s0.079,1.342,0.113,2.292
					c1.546-1.861,20.189-0.536,22.111-1.359c2.02-0.866,17.317,1.665,17.317,1.665L47.07,84.46
					C47.07,84.46,34.659,84.06,30.33,83.29z"/>
				<path fill="#B5B5B6" d="M9.084,86.752c-0.079,0.094-0.126,0.194-0.113,0.306C9.109,88.157,9.115,87.616,9.084,86.752z"/>
				<path fill="#B5B5B6" d="M8.972,90.232l-0.003,2.338c0,0,21.361,3.146,23.958,2.568s17.029,0,17.029,0v-3.464
					c0,0-15.277-1.283-22.781-1.571S8.972,90.232,8.972,90.232z"/>
				<path fill="#B5B5B6" d="M25.423,97.159C22.536,96.87,8.972,95.21,8.972,95.21s-0.289,5.99,0,5.99s16.163,3.175,22.08,3.175
					s22.08,0,22.08,0l-1.155-3.752c0,0-11.256,0-13.854,0S28.31,97.448,25.423,97.159z"/>
				<path fill="#B5B5B6" d="M10.415,111.013c0,0-2.598,8.082,0,5.195s20.573,0,20.573,0h22.144v-3.961
					c0,0-12.123,1.363-14.143,1.363s-16.452-2.309-19.979-2.598S10.415,111.013,10.415,111.013z"/>
				<path fill="#B5B5B6" d="M34.082,122.27c5.195-1.154,21.358,0,21.358,0v-2.887c0,0-20.828-0.588-24.453,0
					c-10.471,1.7-21.727,0-21.727,0l-1.764,2.887C7.496,122.27,28.887,123.424,34.082,122.27z"/>
				<path fill="#B5B5B6" d="M24.557,126.139c-2.886,0.117-15.297,1.615-15.297,1.615v2.854c0,0,17.606-0.833,30.017-0.256
					s16.163,0,16.163,0l-2.309-4.22c0,0-8.659,0.468-12.7,0.815S27.443,126.022,24.557,126.139z"/>
				<path fill="#B5B5B6" d="M30.987,137.855c7.007-0.866,26.473,0,26.473,0l-2.021-3.463c0,0-15.874-1.732-20.204-1.155
					S9.26,135.546,9.26,135.546v2.309C9.26,137.855,23.98,138.721,30.987,137.855z"/>
				<path fill="#B5B5B6" d="M55.44,143.051v-1.443c0,0-17.029-0.289-22.08-1.148s-22.08,0-22.08,0v2.72
					c0,0,18.184-0.417,26.554-0.128S55.44,143.051,55.44,143.051z"/>
				<path fill="#B5B5B6" d="M11.28,148.535c0,0,18.761,0,22.08,0s22.08-1.154,22.08-1.154v-2.169c0,0-12.985,0.109-17.606,0.003
					S11.28,147.38,11.28,147.38V148.535z"/>
				<path fill="#B5B5B6" d="M43.606,157.328c0,0,1.154-1.155,4.907-2.886s8.947,0,8.947,0v-2.886c0,0-2.598,0-4.329,0
					s-19.916,2.598-21.936,3.752s-19.916,1.732-19.916,1.732v7.215c0,0,20.492-2.309,25.11-2.02s16.74,1.732,19.049,3.463
					s31.749,6.35,36.367,5.49s36.368-2.027,43.583,0s23.667,4.322,30.306,4.611s24.533,5.195,31.459,7.504
					c6.928,2.31,19.338,7.217,32.326,7.505s31.172-4.618,31.172-4.618l-1.443-3.175c0,0-23.957,4.041-26.266,4.329
					c-2.309,0.289-25.977-4.617-27.707-7.215c-1.732-2.598-25.977-5.484-31.461-6.639s-27.582-3.353-39.542-6.35
					c-9.779-2.451-25.688-2.887-25.688-2.887s-15.875,2.896-25.977,2.887c-2.041-0.002-25.11-5.484-25.11-5.484L43.606,157.328z"/>
				<path fill="#B5B5B6" d="M192.536,188.077c-2.598-0.577-37.232-9.575-47.334-10.391s-30.017,0.865-34.058,1.443
					s-12.988-4.041-19.626-2.598s-21.394-2.056-27.708-2.309c-3.922-0.158-28.574-4.907-35.069-5.484s-17.46,0-17.46,0v4.329
					c0,0,15.874-0.866,21.07-0.866s32.326,5.484,36.078,6.35c3.752,0.866,27.997,2.021,33.48,2.598
					c5.484,0.578,26.554,3.785,37.81,2.598c14.203-1.497,36.944,3.176,39.542,3.753s32.903,10.968,38.099,12.989
					c5.195,2.02,41.273,0,41.273,0v-6.64c0,0-21.936,2.021-30.018,2.021C220.533,195.87,195.134,188.654,192.536,188.077z"/>
				<path fill="#B5B5B6" d="M256.611,215.786c-1.155,0.289-18.183-4.619-15.874-5.195c4.383-1.096,16.451,0,16.451,0l1.443-4.041
					c0,0-29.729-1.443-32.037-1.443s-32.615-8.082-41.273-9.525c-8.659-1.443-25.688,0-25.688,0s-18.472-5.76-25.688-5.76
					c-4.199,0-22.513-5.496-32.038-6.65s-38.387,0-38.387,0s-18.184-5.773-23.09-7.505s-29.151,0-29.151,0l1.972,2.31
					c0,0,13.325,0.576,20.108,0.576s17.173,3.176,22.08,4.619s19.626,8.081,21.646,10.102s19.049,8.658,31.46,10.102
					s22.801,0.867,34.635-1.986c11.833-2.854,19.626-2.343,23.09-2.889c3.464-0.545,26.842,2.277,39.252,5.742
					c12.412,3.463,23.379,6.061,34.924,10.678c11.546,4.619,20.205,5.195,20.205,5.195S257.767,215.497,256.611,215.786z
					 M108.691,201.387c-4.474-0.898-13.621-2.342-11.689-6.096c1.321-2.566,11.206,0.1,14.431,0
					c8.37-0.256,12.411,6.096,12.411,6.096S113.166,202.286,108.691,201.387z M133.657,197.504c0,0-19.049-4.488-26.842-5.516
					c-7.793-1.025-21.936,0-21.936,0l-9.524-4.489c0,0,17.029-2.309,28.285,0s38.387,8.081,38.387,8.081L133.657,197.504z"/>
				<path fill="#B5B5B6" d="M188.496,206.549c-10.968-0.867-34.924,0.289-39.253,3.463c-4.329,3.176-47.624-5.195-50.798-4.906
					c-3.175,0.287-19.338-7.793-36.655-15.285s-26.84-8.223-30.594-8.512c-3.753-0.288-19.916,0.129-19.916,0.129
					s0,4.906,1.972,3.496s29.199,1.122,32.125,1.122s25.07,9.524,21.607,8.081c-3.463-1.442-15.586-1.443-21.607-3.174
					c-6.021-1.732-34.098-2.598-34.098-2.598v4.617c23.378-1.443,24.819-1.428,34.098,0.289c6.001,1.111,25.674,7.395,32.927,9.527
					c-8.015-1.242-31.109-2.58-35.853-4.301c-5.484-1.988-31.171-2.629-31.171-2.629s0.866,5.195,1.972,2.629
					c1.106-2.565,31.22,5.164,36.704,4.875s36.367,6.834,36.367,6.834s-12.123,0.764-14.72,0.383
					c-2.598-0.383-21.646-1.732-26.225-2.021s-34.098-1.443-34.098-1.443v3.082c0,0,27.419,3.557,41.851,4.424
					c14.432,0.865,31.748,0,35.789-0.867c4.041-0.865,47.912,0.289,52.241,0.289s25.11,4.906,27.997,6.061
					s20.78,7.793,39.542,13.855c18.76,6.061,51.953,5.195,51.953,5.195v-5.484c0,0-25.111,1.443-38.1-1.732
					c-7.01-1.713-26.265-9.236-26.265-9.236s14.143-2.598,19.626-2.598c5.484,0,17.029,2.311,21.07,3.752
					c4.04,1.443,23.668,6.639,23.668,6.639v-2.598c0,0-24.822-7.504-27.709-9.236S199.464,207.415,188.496,206.549z
					 M194.269,216.651c-2.887,0.865-17.317,1.443-17.317,1.443s-12.411-3.465-13.277-5.195c-0.658-1.316,16.452-4.516,27.419-2.691
					c10.968,1.826,27.708,7.887,27.708,7.887S197.155,215.786,194.269,216.651z"/>
				<path fill="#B5B5B6" d="M141.739,220.184c-5.484,0.359-52.53-0.646-56.282-0.07c-3.752,0.578-45.891-2.598-53.106-1.73
					c-7.215,0.865-21.07-2.311-21.07-2.311l1.972,4.908c0,0,6.687,1.154,13.922,2.02c7.236,0.867,42.408,3.176,53.087,2.887
					s50.798-1.443,59.168-2.021c8.37-0.576,27.708,6.639,44.448,12.123s13.277,11.545,13.277,11.545l8.658-2.887
					c0,0-26.265-15.008-30.017-16.74C172.044,226.176,147.223,219.827,141.739,220.184z"/>
				<path fill="#B5B5B6" d="M105.661,234.256c-7.504,0.578-32.038,6.35-32.038,6.35l5.772,4.619c0,0,15.586-5.195,20.493-4.619
					c4.907,0.578,26.553-7.215,38.098-6.061s21.647,10.68,21.647,10.68h14.143c0,0-17.029-13.422-30.017-15.008
					C138.408,229.563,113.165,233.68,105.661,234.256z"/>
				<path fill="#B5B5B6" d="M159.354,146.873c7.999,1.257,23.559,4.456,28.753,5.383c5.194,0.928,31.165,2.783,31.165,2.783
					l1.113-4.484c0,0-24.857-1.082-27.455-1.082c-2.596,0-18.365-2.041-23.188-4.262s-23.002-4.085-28.011-5.134s-25.229,0-25.229,0
					l-1.669,3.102c0,0,17.438-0.7,19.664-1.125S148.781,145.211,159.354,146.873z"/>
				<path fill="#B5B5B6" d="M163.807,168.483c6.122,0.828,28.753-2.129,35.617-3.798c6.864-1.669,17.993,2.411,17.993,2.411
					s1.855-9.275,0-7.049c-1.854,2.226-24.857-2.411-26.342-3.153s-15.025-2.968-18.179-4.267s-29.495-2.597-32.438-3.154
					s-25.625-0.939-25.625-0.939l-1.855,8.174c0,0,17.623,1.113,19.233,1.872S157.685,167.653,163.807,168.483z M160.653,153.555
					c7.605,1.484,21.333,8.163,21.333,8.163s-10.389,1.299-20.406,0s-27.549-7.978-29.728-8.163
					C131.853,153.555,153.048,152.07,160.653,153.555z"/>
			</g>
			<path fill="#B5B5B6" d="M169,60.918h18.921v4.664c0,0-18.18-3.029-18.921-1.957S169,60.918,169,60.918z"/>
			<path fill="#B5B5B6" d="M170.299,68.358c0,0,18.551-2.337,19.478,0.897s0.927,3.234,0.927,3.234s-21.064-2.021-22.033-0.917
				S170.299,68.358,170.299,68.358z"/>
			<path fill="#B5B5B6" d="M170.114,74.099c0,0,16.325,0.388,17.066,0.41s0,3.417,0,3.417s-17.541-1.428-18.509,0
				S170.114,74.099,170.114,74.099z"/>
			<path fill="#B5B5B6" d="M169.557,80.285c0,0,16.325-0.475,17.252,0.595s0.701,3.296,0.701,3.296h-18.839L169.557,80.285z"/>
			<path fill="#B5B5B6" d="M169.372,86.942c0,0,16.984,2.686,18.138,1.815s0.412,3.025,0.412,3.025h-20.313L169.372,86.942z"/>
			<path fill="#B5B5B6" d="M168.671,94.188c0,0,19.808,0.979,20.364,2.718s0,4.246,0,4.246s-15.396-4.828-18.736-3.482
				S168.671,94.188,168.671,94.188z"/>
			<path fill="#B5B5B6" d="M168.232,101.152c0,0,17.01-1.023,19.277,1.018s0.647,5.645,0.647,5.645s-6.727-3.314-12.107-3.459
				s-8.44,0.02-8.44,0.02L168.232,101.152z"/>
			<path fill="#B5B5B6" d="M167.609,106.993c0,0,9.75,4.082,11.97,3.154s11.125,0.137,11.125,0.137l-1.422,3.574l-19.54-0.479
				L167.609,106.993z"/>
			<path fill="#B5B5B6" d="M178.758,119.122c0,0,13.616,2.756,16.028,3.662c2.411,0.905,12.8,3.313,14.098,2.202
				c1.299-1.111,14.841-3.385,14.841-3.385l-1.299,4.531c0,0-13.245,2.196-21.185,0.897s-22.268-5.476-23.358-5.428
				S178.758,119.122,178.758,119.122z"/>
			<path fill="#B5B5B6" d="M173.638,127.438c0,0,8.163-0.557,11.501,0.351s13.346,3.602,16.324,3.876
				c12.985,1.195,19.664-3.876,19.664-3.876v9.125c0,0-24.116-3.854-25.6-3.16c-1.484,0.694-12.244-3.277-14.47-3.146
				s-7.42,0-7.42,0V127.438z"/>
			<path fill="#B5B5B6" d="M175.308,136.914c0,0,17.066-1.244,22.075,0s24.487,7.366,24.487,7.366l-0.742,3.045
				c0,0-17.252-5.692-21.52-5.482c-4.266,0.21-22.055-1.766-22.055-1.766L175.308,136.914z"/>
			<path fill="#B5B5B6" d="M206.845,65.582l7.42,0.726l1.854,5.264c0,0-8.161-3.567-9.274-2.995S206.845,65.582,206.845,65.582z"/>
			<path fill="#B5B5B6" d="M207.771,72.983c0,0,6.492,0.392,8.348,1.525s2.122,5.672,2.122,5.672l-10.47-3.006V72.983z"/>
			<path fill="#B5B5B6" d="M207.771,82.178c0,0,12.614,0.051,14.099,0.931s-14.284,3.446-14.099,3.833
				S207.771,82.178,207.771,82.178z"/>
			<path fill="#B5B5B6" d="M206.35,91.782c0,0,11.253-1.297,14.036,0s1.484,3.766,1.484,3.766s-15.645-3.404-15.521-1.359
				S206.35,91.782,206.35,91.782z"/>
			<path fill="#B5B5B6" d="M206.349,96.906c0,0,14.457,0.211,15.824,2.087s0,4.317,0,4.317s-15.762-3.546-15.823-2.159
				S206.349,96.906,206.349,96.906z"/>
			<path fill="#B5B5B6" d="M206.35,104.745c0,0,14.419,1.136,15.618,2.248c1.201,1.112,0.205,3.892,0.205,3.892
				s-13.848-1.853-14.402-1.296S206.35,104.745,206.35,104.745z"/>
			<path fill="#B5B5B6" d="M207.771,113.379c0,0,13.692,0.667,15.009,0.479s0,3.685,0,3.685s-15.564,1.646-15.75,0
				S207.771,113.379,207.771,113.379z"/>
			<polygon fill="#B5B5B6" points="256.188,124.985 263.052,125.657 261.938,129.962 255.261,129.962 			"/>
			<path fill="#B5B5B6" d="M253.405,135.68c0,0,7.075-0.305,7.248-1.047s1.285,5.445,1.285,5.445l-9.831-0.466L253.405,135.68z"/>
			<path fill="#B5B5B6" d="M252.107,143.179c0,0,9.46,3.325,9.831,2.769s1.113,3.896,1.113,3.896h-12.8L252.107,143.179z"/>
			<path fill="#B5B5B6" d="M250.252,153.925c0,0,11.13,0.186,11.687,0s0,5.379,0,5.379s-10.388-2.597-10.944-1.855
				S250.252,153.925,250.252,153.925z"/>
			<polygon fill="#B5B5B6" points="250.252,168.483 260.653,167.096 261.938,172.29 247.841,172.29 			"/>
		</g>
		<path d="M264.464,215.112c-0.308-1.229,0.615-38.424,0.308-43.649s1.229-46.416,1.537-50.719s-2.151-28.587-2.767-29.509
			s0-43.342,0-49.49s-1.537-27.973-1.537-29.202S260.468,0,260.468,0s-11.988,0.861-14.754,0.223
			c-2.768-0.639-31.047,0.331-32.891,0.024c-1.845-0.307-33.813,2.459-38.424,1.441S136.59,1.784,133.516,1.68
			S90.481,3.32,84.948,3.112S51.75,2.091,44.681,1.63S25.93,3.628,19.782,3.013S0.109,0.247,0.109,0.247s0.308,13.525-0.016,22.747
			s0.323,38.731,0.016,47.031s3.996,73.773,4.304,82.995s2.151,50.104,0.615,55.638c-1.537,5.531-2.459,38.73-1.537,39.039
			c0.922,0.307,33.198-0.922,49.797,0.613c16.599,1.537,43.342,0.615,50.72,0.309c7.377-0.309,59.326,3.996,74.695,3.688
			c15.369-0.307,86.684,1.23,87.633,0C267.284,251.077,264.771,216.342,264.464,215.112z M258.966,76.199
			c-1.121,0.671-3.363,3.587-3.363,2.017s2.691-17.429,3.363-19.254C258.966,58.961,260.087,75.527,258.966,76.199z M228.917,13.408
			c0.15-2.025,3.141-3.364,7.625-2.915s2.915,6.951,2.915,9.643s-0.225,11.07-2.467,11.142S228.47,19.463,228.917,13.408z
			 M220.395,180.026c-3.812-1.795-3.245-5.049-1.397-5.158c1.192-0.07,8.607-0.225,8.59,1.121c-0.016,1.346-4.635,1.121-4.792,2.019
			S224.206,181.819,220.395,180.026z M222.952,161.687c0,0,7.732-2.292,9.428-1.395c1.693,0.897,1.437,5.084-4.714,3.551
			C221.516,162.31,221.604,168.272,222.952,161.687z M230.262,84.719c0,1.121-2.511,4.036-1.367,4.036s4.058,6.938,3.386,7.394
			c-0.674,0.456-7.257-0.912-8.338-5.947s-1.539-3.641,0-4.362C225.889,84.929,230.262,83.598,230.262,84.719z M228.895,68.349
			c1.78,0.42,5.458,2.467,5.318,4.037s-9.782,1.108-10.23-2.025S226.979,67.896,228.895,68.349z M223.942,151.994
			c0.508-0.112,8.537-1.57,8.438,0s-1.07,5.831-4.846,4.709S221.201,152.596,223.942,151.994z M227.534,136.523
			c-4.896-2.693-4.299-3.975,0-5.128c0.794-0.213,7.042,1.762,6.679,3.332S232.431,139.217,227.534,136.523z M227.666,124.187
			c-0.319-2.467-0.138-5.553,1.413-5.158c1.166,0.297,5.24,2.242,5.23,4.261C234.298,125.309,227.985,126.654,227.666,124.187z
			 M225.734,105.35c0.715-4.261,3.16-3.364,3.16-3.364c1.815,0,5.201,2.243,5.415,3.364
			C234.522,106.471,225.02,109.611,225.734,105.35z M219.947,11.859c0,0,4.71,10.968,7.177,18.705s5.83,12.458,6.727,13.461
			c0.897,1.003,0.225,8.179-3.139,6.385c-3.364-1.794-8.522-10.906-9.644-19.132s-3.812-19.418-3.812-19.418H219.947z
			 M210.978,11.859l3.588,1.549c0,0,2.242,11.437,2.915,15.249s7.399,21.08,8.521,22.649s1.122,5.132,1.122,5.132l-4.037,2.522
			c0,0-1.57-1.651-0.449-2.522c1.122-0.872-2.018-4.011-2.467-4.684c-0.447-0.673-0.672-2.192,0-2.666
			c0.674-0.474-3.588-1.146-3.812-3.389s-0.896-6.506-1.121-6.953s-3.14,0.674-2.691-2.241s2.69-4.461,2.467-5.258
			s-3.363-5.058-2.915-5.73s0.896-1.999,0.896-2.345S210.306,17.261,210.978,11.859z M194.606,13.408l2.467,1.122
			c0,0,1.346,10.315,1.57,13.006s1.346,19.286,0,20.855s-1.693,0-1.693,0s-3.24-5.606-2.344-14.801
			c0.897-9.194-0.896-14.352-1.345-15.473S194.606,13.408,194.606,13.408z M186.982,13.408h4.036c0,0-0.224,5.158,0,6.728
			c0.225,1.57-1.793,10.988,0,12.334c1.795,1.346,2.243,15.249,2.243,15.249s-6.728-11.886-6.279-13.231s1.346-0.897,1.346-3.924
			s-1.389-4.373-1.367-5.494s2.04-1.346,1.815-4.037S186.31,15.202,186.982,13.408z M160.362,32.47
			c0.383-1.57,0.832-11.885,2.177-12.558s-0.896-2.019-0.672-4.037s1.345-4.016,1.345-4.016c1.121-0.02,4.485,0,4.485,0
			s3.813,12.677,2.916,28.641s-7.4,35.699-7.4,35.699s-4.13-3.24-2.85-6.441s2.85-1.436,2.85-4.225s-1.794-4.906-0.224-6.651
			s2.646-0.503,2.444-2.806s-5.229-1.854-5.07-5.667s2.85-4.654,3.971-8.158S159.979,34.04,160.362,32.47z M154.915,40.5
			c0,0,2.691-1.978,3.364-1.752s3.14,0.504,1.57,3.504S151.775,44.27,154.915,40.5z M155.363,56.439c0.887-0.493,3.14-0.474,4.261,0
			s0.116,5.408-2.409,5.408S149.757,59.553,155.363,56.439z M151.328,125.534c-1.795-0.673-6.948-5.831-3.811-10.091
			c1.095-1.487,4.271-1.57,5.274,0s-1.463,4.934-1.463,4.934S153.124,126.207,151.328,125.534z M149.778,131.813
			c0.925-1.577,6.832,0.225,6.657,2.243s-3.644,2.467-3.644,2.467S146.884,136.746,149.778,131.813z M154.069,97.727
			c0,0-8.573,3.81-6.106-1.459c0.773-1.652,7.176-3.027,7.176-3.027L154.069,97.727z M142.805,12.511c0.867-0.229,3.14-1.346,3.14,0
			s0,10.54,0,11.437s0,10.54,0,10.54s-3.813-2.915-3.14-4.485s-0.608-4.709-0.08-6.055S141.112,12.958,142.805,12.511z
			 M112.083,40.542c-0.448,1.794-7.848,3.364-6.279-1.794C105.805,38.748,112.532,38.748,112.083,40.542z M103.826,82.925
			c-4.525,0.897-2.525-5.355,1.629-5.606C105.87,77.293,108.351,82.028,103.826,82.925z M102.994,99.295
			c-1.898,0-4.365-2.018-3.917-3.027s3.917-3.027,3.917-3.027C104.459,94.586,104.892,99.295,102.994,99.295z M105.586,69.694
			c-1.8-0.448-3.739-0.673-1.76-3.364c0,0,2.875-1.794,3.772,0S107.387,70.142,105.586,69.694z M104.011,58.033
			c0-1.345-0.979-2.819,1.576-4.036c0,0,3.609,3.139,3.259,4.036S104.011,59.378,104.011,58.033z M90.575,35.829
			c1.674-3.812,3.515-19.88,3.515-19.88s1.674,8.537,1.674,12.219s-2.678,25.853-2.678,25.853l-2.511,6.438
			C90.575,60.458,88.901,39.641,90.575,35.829z M82.039,77.043c0.502-1.339,1.339-3.682,1.339-5.188s-2.009-6.361-1.841-7.533
			s1.339-3.208,1.841-3.864s-1.171-4.145-1.506-4.827s0.167-9.862,0.502-10.461s-1.506-1.771-1.506-2.607s3.682-4.931,3.682-6.733
			s-3.18-5.987-2.678-6.824s2.845-1.162,2.678-2.841s-2.845-4.168-2.845-6.02s-1.339-9.012-0.167-8.361s6.025-0.187,6.528,1.153
			s1.004,11.047,0,15.901s-2.846,23.768-2.511,30.463s0.669,24.93,0.669,24.93l0.837,9.885h5.738c0,0-3.543-9.374-2.967-10.712
			s0.41-11.884,0.912-12.051s5.021,0,5.021,0s2.511-17.499,2.343-19.88s1.673-13.47,2.008-17.634s0-20.399,0-20.399
			s3.791-3.459,5.356-1.655c0.71,0.818-1.339,20.234-1.339,21.406c0,2.238-6.193,45.695-6.193,48.368
			c0,3.023-2.176,24.777-2.176,24.777s5.356,0.669,5.356,2.008s-6.36,2.846-6.36,2.846s-1.078,7.867-1.962,11.214
			s-5.738,22.764-7.914,21.09s-5.523-24.438-5.691-26.112s-4.52-23.266-4.52-23.266l7.365-0.837
			C82.039,93.279,81.536,78.382,82.039,77.043z M90.107,161.637c-2.243-0.449-7.4-1.071-6.728-2.89s4.267-3.188,5.606-2.94
			c0.662,0.123,4.484,0.897,4.709,2.243S92.35,162.085,90.107,161.637z M84.5,165.897c0-1.793,1.651-2.478,3.364-1.793
			c0,0,2.028,0.672,3.817,1.793S84.5,167.692,84.5,165.897z M87.864,148.63c0-1.569,2.12-2.997,3.588-2.467
			c0.87,0.314,4.26,1.57,4.036,2.467S87.864,150.199,87.864,148.63z M66.64,26.872c-0.334-3.056-1.841-15.908-1.506-16.93
			c1.095-3.343,6.025-0.315,6.36,1.842s-0.167,22.474,0,23.865s-1.506,13.087-1.004,15.943s-0.167,30.289-0.335,30.297
			s-6.026-8.193-5.021-12.377s2.008-19.416,2.176-25.609S66.974,29.927,66.64,26.872z M54.062,9.941
			c1.398,0.062,3.936-0.687,3.821,1.154s1.003,7.229,1.392,9.049c0.837,3.918,0,23.758,0,23.758s-4.567-16.934-5.213-21.941
			S52.844,9.888,54.062,9.941z M45.048,11.932c0.837-0.335,4.687,0,4.854,0s0.83,9.875,0.917,13.558s2.556,23.266,2.995,24.438
			s0.162,6.863,0.162,6.863s-2.667,1.339-2.45,0s-2.521-12.386-2.742-13.725s-3.233-7.742-2.062-9.227s2.116-2.651,2.062-3.491
			s-2.112-3.508-0.999-4.183s0.999-3.018,0.999-3.018s-3.401-0.648-3.736-3.002S45.048,11.932,45.048,11.932z M65.635,149.853
			c-0.669,0.669-2.51,2.176-3.682,1.172s-4.624-4.018-4.069-4.52s3.232-0.837,3.232-0.837c1.172,0,4.352,0.334,4.519,0.837
			S66.304,149.184,65.635,149.853z M65.973,160.23c0.833,0.67,1.674,2.344-1.089,1.507s-5.107-1.109-5.107-2.145
			s2.833-3.33,4.017-2.375C64.974,158.169,65.14,159.561,65.973,160.23z M60.279,129.265c-0.837,0-7.585-3.515-6.303-4.687
			s4.629-0.669,4.629-0.669c1.004,0,3.348-0.502,3.348,0.837S61.116,129.265,60.279,129.265z M56.075,95.12
			c-1.988,0-8.148-1.339-3.646-5.021c0.765-0.625,2.956,0.335,3.646,1.004S58.063,95.12,56.075,95.12z M53.751,85.747
			c0,0.837-5.021,1.339-4.854,0s-0.749-2.862,0.837-3.348c1.647-0.505,5.356-0.837,6.193,0S53.751,84.91,53.751,85.747z
			 M46.722,60.472c1.674-0.167,5.523,1.171,4.687,1.925s-7.365,1.925-7.365,1.925S45.048,60.64,46.722,60.472z M41.533,53.944
			c-0.502,0.167-1.506,0.167-1.506-1.172s2.511-3.85,2.511-3.85s4.185,1.654,4.185,2.668S42.035,53.777,41.533,53.944z
			 M45.048,34.026c0,1.172-6.026,2.24-6.863,1.622s-4.352-3.128,2.009-3.798C40.859,31.78,45.048,32.854,45.048,34.026z
			 M38.353,21.975c0.669-0.167,5.691,1.171,5.691,2.343s-1.339,1.674-3.85,1.841s-5.858-4.213-5.858-4.199
			S38.353,21.975,38.353,21.975z M26.134,40.721c0,1.674-1.339,0.837-2.009,0C24.125,40.721,26.134,39.047,26.134,40.721z
			 M20.796,55.116c-0.354-2.176-0.798-8.058,0-7.532c0,0,3.702,2.343,4.018,3.347S21.15,57.292,20.796,55.116z M24.814,37.875
			c0,0-3.535,0.837-3.869-0.669s0-4.017,0-4.017s3.889,1.506,3.869,2.176S24.814,37.875,24.814,37.875z M19.432,17.288
			c0.676-2.511,0.007-6.528,0.007-6.528s3.515-1.841,3.515,0s0.836,12.051,1.004,12.554s1.841,7.198,0,7.03
			s-4.687-1.339-4.519-2.176S18.755,19.799,19.432,17.288z M259.849,148.655c-0.476,9.514-1.986,29.275-2.195,31.575
			s-1.465,13.384-1.465,14.952c0,1.567-0.209,28.438,0.314,30.215c0.522,1.777,0.94,15.369,0.836,15.996s-21.642,1.359-24.465,2.092
			s-30.007,0.314-33.144,0.523s-25.56-1.391-28.02-1.883c-7.319-1.463-22.232-0.578-32.203-0.209
			c-5.44,0.201-23.838-1.672-29.693-1.568c-5.855,0.105-24.779,0.314-26.661,0.523s-21.12-1.883-23.629-1.883
			s-15.279-0.447-19.133-0.836c-9.305-0.941-23.299,2.148-24.151,0.418c-0.291-0.59-1.359-13.906-1.359-17.67
			s-0.313-23.838-0.313-24.569s0.208-19.134-0.314-22.374c-0.522-3.242-1.673-29.797-1.777-31.052s-1.673-29.693-1.673-31.157
			s0.522-33.249,0.313-34.607s0.627-32.725,0.627-35.443s0.313-29.902,0.522-32.934L15.194,9.6c0,0,1.045,6.273,0.941,6.691
			s0.119,7.528,0.007,9.305s0.306,10.978,1.038,12.86s0.523,9.41,0,11.501s-1.464,17.459-1.464,18.61s1.046,8.783,1.046,8.783
			l4.809,0.627c0,0-1.672-8.156-1.463-9.41s0.522-2.404,0.522-2.404l3.973,1.045c0,0,1.15,4.078,1.15,4.914
			s-1.568,5.019-1.568,5.019l6.9-0.732c0,0-0.732-6.692-1.777-9.619s-1.673-12.651-1.673-14.742s1.15-11.396,0.627-16.31
			s0.104-12.337-0.104-14.533s0-10.142,0-10.142l1.986,0.941c0,0,2.823,10.769,3.032,12.86s0.418,10.665,0,12.442
			s-1.882,14.01-1.673,15.16s1.15,11.814,1.15,11.814l4.914,0.418v-2.928c0,0-0.047-2.325,0.894-2.325s3.916,11.422,4.334,13.095
			s6.272,28.125,6.691,30.006s2.823,20.075,2.823,20.911s2.091,15.787,2.091,18.505s0.627,22.584,0.523,23.629
			s12.86,2.195,14.115,2.195s4.182-0.418,4.182-0.418s-2.509-4.809-2.614-8.782s-2.3-12.86-2.405-13.592s0.104-4.601-0.523-4.914
			s-1.673-1.673-1.568-2.718s1.15-4.287,0.627-5.123s-4.078-2.823-3.869-3.764s2.196-5.541,1.987-6.377s-1.568,0-1.568-1.045
			s1.254-6.273,0.836-6.587s-4.81-1.359-4.601-2.509s4.078-4.286,4.078-5.437s-2.927-1.15-2.927-2.614s-0.314-3.764-1.255-4.182
			s0.628-4.6,0.314-5.855s-1.986-5.75-1.882-7.005s0.104-3.973,0.209-4.496s-1.255-2.823-1.359-3.973s1.15-4.705,1.15-4.705
			s-1.673-3.554-2.509-4.077s-1.882-4.496-1.882-4.496s1.254-3.241,1.568-3.346s3.764,11.188,4.391,12.86s3.973,13.278,4.182,14.114
			s3.869,19.343,3.973,20.179s4.391,24.046,4.914,26.138s3.137,15.37,3.241,16.311s1.045,11.919,1.254,13.068
			c0.209,1.15-0.313,3.033,0.418,3.346c0.732,0.314,16.833,2.823,17.564,2.092c0.732-0.732,0-4.183,0-4.183
			s-1.149-1.359-0.627-1.777s5.123-5.646,5.646-6.377s0.418-1.15,0-1.15s-3.555-2.091-3.555-3.555s4.496-3.136,4.496-3.659
			s-3.973-5.959-4.077-6.796s0.105-1.555,0.732-1.666s5.854-4.189,6.377-4.921s2.405-1.254,1.673-2.3s-4.078-1.255-4.914-0.941
			s-3.241,0.732-3.346,0.105s3.137-3.346,3.764-3.346s3.032-0.418,3.032-0.418s-0.941-4.077-1.673-4.496s3.451-3.764,3.869-3.764
			s-1.045-5.541-1.045-6.482s0.208-2.509-0.314-3.032s0.673-2.091,1.435-3.032s2.748-4.496,2.748-6.168s-1.92-8.356-1.882-8.887
			c0.209-2.927,1.777-4.914,1.882-5.959s-1.359-4.287-1.15-5.019s2.509-1.673,2.509-2.3s-1.046-2.927-1.359-3.659
			s-0.523-4.078-0.104-4.287s1.673-1.464,1.464-1.777s-1.359-3.869-1.045-4.182s0.105-0.941-0.104-1.464s-1.778-2.196-1.255-2.614
			s4.182-4.6,4.182-5.123s-0.836-2.196-0.836-2.196s-3.973-1.255-3.346-1.673s5.751-10.56,6.064-11.5s-0.732-5.333-0.732-6.378
			s1.672-3.869,1.359-3.973s-2.3-1.568-1.777-3.346s2.091-6.482,2.509-8.26s-0.104-5.541,0-6.273s5.855-0.418,5.959,0.627
			s-0.941,5.332-0.941,6.273s-4.286,22.688-3.764,29.902s-1.463,26.453-1.15,28.543s-1.046,19.238-1.046,21.329
			s-2.091,23.733-2.509,25.929s-3.66,26.87-4.287,29.484s-1.777,12.86-3.868,14.219c-2.091,1.359,8.992-1.254,9.41-1.777
			c0.418-0.522,5.646-24.465,5.646-28.647s2.628-33.562,2.517-35.548s1.666-21.016,1.457-23.734s0.105-21.747,0.523-23.838
			s-0.627-16.729-0.627-18.088s0.726-16.833,0.726-16.833l2.202-6.901c0,0,0.104,21.016,0.522,22.27s0.627,17.042,0.627,17.355
			s3.764,0.104,3.764,0.104s1.882-15.055,2.091-16.519s-0.418-13.278-0.523-14.428s-0.124-8.782,0.565-9.305s3.93-0.314,3.93-0.314
			s0.418,16.624,0,19.447s-0.418,8.259-0.627,12.023s-3.346,17.983-3.346,20.179s-1.778,11.396-2.196,13.174
			s-1.777,3.868-1.777,3.868l6.482-0.418c0,0,1.15-12.337,2.091-14.951s2.196-10.141,2.196-12.337s0.941-8.783,0.941-9.724
			s1.673-3.764,1.673-3.764s1.464,0.104,1.464,1.15s-0.627,3.764-0.627,4.391s-1.882,17.669-1.882,19.447
			s-1.568,10.665-1.673,11.396s-0.627,3.555-0.627,3.555l3.45-0.523c0,0,1.568-12.233,2.091-17.774s1.882-13.906,1.882-15.997
			s-0.627-6.691,0-7.005s0.523-2.509,0.732-3.346s0.627-3.241,0.627-4.914s-0.208-9.096-0.522-10.037s0.941-3.869,0.941-4.496
			s-0.732-3.555-0.418-3.659s2.928,0,3.032,0.418s0.209,10.351,0,12.128s0.346,14.533,0.121,16.938s-3.571,24.674-3.571,26.556
			s-3.659,18.953-3.346,20.507s0.104,24.661,0.209,25.915s0.209,14.428,0.314,15.787s-0.314,7.527-0.209,7.841
			s2.614,0.627,3.869,0.836s12.337,2.719,13.069,3.032s1.673,0.627,1.673,0.627s-2.3-1.464-1.359-4.182s3.136-4.392,3.241-4.705
			s-2.718-3.764-2.195-4.496s2.198-3.137,2.198-3.137l-3.139-4.182c0,0-1.464-0.104-1.464-0.522s1.882-3.032,1.882-3.032
			s-2.928-3.973-3.241-4.6s-1.986-0.104-2.091-0.627s3.032-4.601,3.032-5.019s-1.046-0.941-1.359-1.464s-2.823-2.404-2.405-3.764
			s3.032-5.959,3.137-6.796s-1.673-0.418-1.568-1.777s1.463-5.75,1.045-6.273s-1.882-3.346-1.882-4.287s5.228-6.9,5.646-6.9
			s0,6.483,0,8.783s-1.045,11.501-0.627,12.755s1.778,14.01,2.3,14.324s2.404,3.24,3.345,3.345s4.392-0.732,5.333,0
			s1.046,2.196,0.732,2.719s-3.032,2.614-3.346,6.168s-0.628,11.291-0.209,12.337s0.837,4.392,1.15,4.601s6.168,0.627,7.318,0.627
			s0.418-2.614,0-4.601s-2.195-10.664-0.313-15.683s3.346-8.574,3.346-9.724s-5.018-3.868-5.332-3.032s-1.359,2.196-2.091,1.568
			s-4.6-1.778-4.391-3.66s1.359-17.564,1.045-19.969s0.837-15.892,0.628-17.356s1.15-13.592,1.15-13.592s0.418,7.11,0.941,8.469
			s1.568,6.901,1.568,7.528s0,2.404,0,2.404l3.764-0.522c0,0-0.418-12.233-0.418-15.056s-1.568-15.37-3.137-17.669
			s1.15-11.292,0.941-14.324s0.104-9.305-0.627-10.56s-1.046-4.706-0.836-5.228s6.586-0.418,6.796,0.418s0.732,10.455,0.941,11.5
			s-2.509,13.383-1.359,17.042s2.718,19.446,2.927,21.851s0.836,22.479,1.568,24.675s-0.627,14.219,0,16.206
			s0.732,8.469,0.732,11.187s-2.091,5.855-2.091,5.855s11.606,0.522,11.918,0.104c0.314-0.418,0.313-4.6,1.359-5.437
			s1.255-1.359,1.255-1.359v-1.986c0,0-2.196-1.882-2.091-3.45c0.104-1.568,1.045-3.973,1.359-3.973c0.313,0,0.731,0,0.731,0
			s0.628-0.731,0.628-1.15s-1.674-0.836-1.568-1.882c0.104-1.046-1.15-2.405-1.046-3.032s1.987-3.973,2.614-4.391
			s1.254-0.941,0.731-1.464s-3.032-2.794-3.032-3.645s2.301-6.288,2.301-8.274s-2.196-6.168-2.092-6.796s1.463-2.3,1.673-3.973
			s-3.554-5.959-3.136-8.573s2.927-4.287,3.555-4.81c0.627-0.522-0.105-2.823,0.209-3.45c0.313-0.627,2.717-4.81,2.927-5.75
			s-0.313-3.032,0-3.973s1.046-3.973,1.046-3.973s3.032,7.005,3.241,7.423s-2.091,8.573-2.823,15.055s-1.149,24.571-1.463,25.93
			c-0.314,1.359-0.629,11.814-0.314,12.964s0.836,12.964,1.359,13.801s0.627,5.437,0.627,5.437l5.332-1.045
			c0,0-1.254-10.769-1.254-12.337s0.418-16.177,0.418-17.655s0.836-11.097,0.836-12.456s1.568-12.755,1.986-13.905
			c0.419-1.15,4.393,13.592,5.438,17.146s2.928,16.102,3.45,19.029s0.104,21.642,0,23.733s-2.823,21.852-2.509,23.42
			c0.313,1.568-2.405,15.892-4.496,21.433c-2.091,5.542-4.496,15.057-4.496,15.057s9.723,1.986,10.77,1.986
			c1.045,0,6.273-0.941,7.423-1.15s7.109-0.104,7.109-0.104s0.522-12.128,0.522-12.86c0-0.731,2.719-4.496,2.823-5.646
			c0.104-1.15-1.673-1.359-1.358-1.882c0.313-0.523,2.195-2.509,2.195-3.241s-3.242-4.6-3.346-5.123
			c-0.105-0.523,0.522-1.464,1.359-1.464c0.836,0,5.437-2.195,5.646-2.927s-5.123-5.227-5.123-6.273s0.001-6.273,0.731-6.587
			c0.732-0.314,3.985-2.927,4.397-3.45s-0.634-2.091-1.261-2.196s-4.81-1.15-4.914-1.673s-1.149-1.881-0.731-2.195
			s2.718-2.196,2.927-2.928s5.229-1.255,5.542-1.568s-7.318-3.346-6.9-4.078s1.149-4.287,2.823-5.123
			c1.672-0.836,6.899-4.601,7.213-5.437c0.314-0.836,1.568-1.567,0.732-1.672s-8.26,0-8.469-0.732s-0.627-5.437-0.104-6.691
			s1.149-3.555,1.149-3.555s6.588-2.823,6.691-3.764c0.105-0.941-8.154-1.15-8.154-1.673s-1.883-0.732-1.359-2.196
			S238.52,80.8,238.52,78.5s0.313-4.914,0.731-4.914s1.359,0.209,1.777-0.732s1.046-2.405,1.046-2.823s-0.628-0.836-0.731-1.882
			c-0.105-1.045-1.045-2.301-0.523-2.928c0.523-0.627,7.842-3.66,7.842-4.182s0-1.254,0-1.254s-5.646-1.881-5.437-2.927
			s-1.673-2.196-0.941-2.3s2.405-1.255,2.614-2.823s-0.314-2.405,0.627-3.137s2.163-3.189,3.764-1.359
			c0.732,0.836,1.883-3.45,1.883-3.45c-0.419-0.523-4.914-1.987-5.02-3.032c-0.104-1.045,0.314-1.464,2.301-1.464
			s5.437-1.673,5.437-2.509s-4.392-3.973-4.495-4.705c-0.105-0.732-0.628-2.091-0.628-2.091s4.601-1.255,5.123-1.777
			s-3.763-2.51-3.868-3.241s-0.105-2.927,1.254-3.764s3.346-2.404,3.346-2.823s-4.077-1.359-4.077-2.091s-2.404-3.032-1.986-3.555
			s2.404-0.627,2.823-1.045c0.418-0.418-0.418-1.045,1.254-0.941c1.674,0.104,3.66-0.104,3.869,0.732s0.522,15.788,0.627,17.878
			s0.627,12.023,0.627,12.023s-2.195,4.809-3.24,8.05c-1.046,3.241-2.51,15.474-2.823,17.669s-3.241,14.324-3.137,15.474
			s1.986,4.391,2.614,5.019c0.627,0.627,4.391-2.927,5.541-2.718s2.195,5.02,1.882,6.587s-1.149,2.509-1.673,2.405
			s-3.241-0.418-3.241-0.418s-1.046,1.777-0.209,2.405s3.974,1.15,4.183,1.673s0.313,2.823-1.256,2.823s-7.945,1.673-7.945,1.673
			s-1.045,1.359-0.732,1.673c0.314,0.314,5.333,3.45,5.751,3.659s-1.15,3.242-1.255,5.333s-0.627,8.155-1.254,8.887
			c-0.628,0.732-5.751,0.104-5.751,0.104s-0.837,0.732,0,1.255s2.823,2.091,2.823,3.032s-0.836,0.837-0.627,2.091
			s-0.21,8.573-0.419,9.828s-5.228,7.528-4.704,8.26c0.521,0.732,3.136,5.019,3.658,7.528c0.523,2.509,0.418,13.906,0.105,13.906
			c-0.314,0-5.855,3.765-5.751,4.286c0.104,0.523,2.614,3.241,2.928,3.241s1.673-0.837,1.882,0s-0.209,8.991-0.209,9.724
			s4.6,0.208,5.228,0c0.628-0.209,0.313-7.842,0.837-12.023c0.521-4.182,3.24-31.784,3.764-32.83
			c0.522-1.046,2.832-19.238,3.925-19.342S260.323,139.141,259.849,148.655z"/>
	</g>
	<g>
		<path d="M26.381,267.67c0,0,5.668-5.512,5.668-6.613s-3.149-10.078-8.975-9.92c-5.826,0.156-9.605,2.834-10.235,2.834
			c0,0,0.473,6.928,0,10.549s0,18.738,0,18.738s8.66,3.777,18.737,0.629c1.816-0.568,4.094-5.826,3.149-9.762
			C33.782,270.188,26.381,267.67,26.381,267.67z M19.769,259.639c0,0,4.881-0.158,5.196,2.52c0.315,2.676-4.094,4.408-4.094,3.936
			C20.871,265.624,18.705,259.6,19.769,259.639z M24.98,278.061c-1.191,2.5-3.322,2.205-3.48,1.574
			c-0.158-0.629-0.787-5.668-0.787-5.668C21.658,273.811,26.724,274.403,24.98,278.061z"/>
		<path d="M43.701,277.905c-1.103,0-0.63-3.959-0.63-3.959s11.967-0.135,11.809-0.607s0.158-4.881,0-5.201
			c-0.158-0.318-9.919,0.004-10.864,0s-0.315-4.719-0.157-5.232c0.158-0.512,9.919-1.061,9.919-1.061s0.472-7.559,0-7.715
			c-0.472-0.158-17.005,0.787-17.005,0.787c-1.552,0.088,0,29.6,0,31.018c0,1.416,19.209,0.473,19.209,0s0.158-7.873,0-8.924
			C55.825,275.958,44.804,277.905,43.701,277.905z"/>
		<path d="M67.319,277.747c-0.63-0.316-1.102-3.307-0.787-3.801c0.315-0.496,11.179,0,11.179,0s0.96-4.824,0.63-5.809
			c-0.626-1.863-9.029,1.008-12.281,0c-2.047-0.633-0.157-4.877,1.102-5.23s9.605-0.119,9.92-0.002s0.157-5.154,0-5.941
			s-15.431,0-16.218,0c0,0-0.473,18.105-0.63,23.111c-0.157,5.004-1.417,4.914,0,5.066c1.417,0.15,18.176,0,18.176,0v-7.395
			C78.41,277.747,67.949,278.061,67.319,277.747z"/>
		<path d="M91.567,277.01c-4.251-1.84-1.417-8.238,0-8.873c1.417-0.633,7.4-1.256,7.4-1.256v-7.244c0,0-4.409-0.943-8.188,0
			s-7.243,3.781-8.502,10.08s1.889,11.809,6.141,14.016s11.809-0.16,12.439-0.004c0.63,0.158,0-5.668,0-6.719
			C100.857,275.958,95.818,278.848,91.567,277.01z"/>
		<path d="M126.207,259.637c0,0-8.975-0.471-9.447-0.418c-0.473,0.051,0.945,8.293,0.63,9.395c-0.315,1.104-4.724,2.205-5.038,1.104
			s0-11.967,0-11.967h-8.345c0,0-0.158,8.188,0,11.65c0.158,3.465,0,17.281,0,17.281h6.456c0,0,0.157-3.268,0-4.213
			s1.102-6.297,1.102-6.297s4.881-1.26,5.983,0.156c1.102,1.418,0.787,10.354,0.787,10.354h8.502c0,0-1.417-11.77-1.417-12.736
			S126.207,259.637,126.207,259.637z"/>
		<path d="M152.816,270.911c-0.63,0.092-7.085-0.514-7.085-0.514s-0.473-4.145,0-4.225s9.919,0,9.919,0v-6.953
			c0,0-7.085-0.209-8.345,0s-10.077,0.418-10.077,0.418s0,7.244,0,8.5s-0.315,17.797,0,18.545s6.141,1.613,6.141,1.613
			s1.417-11.336,1.732-11.285s10.392,0,10.392,0l0.787-6.09C156.28,270.92,153.446,270.819,152.816,270.911z"/>
		<path d="M173.917,260.741c-2.834-2.52-8.03,0-8.03,0c-2.677-0.473-7.243,4.252-7.4,12.971s6.928,13.324,12.281,12.971
			s6.456-4.213,8.188-10.512C180.687,269.874,176.751,263.26,173.917,260.741z M173.444,276.801
			c-1.102,3.936-8.345,3.779-9.29,1.102c-0.945-2.676,1.731-10.076,6.298-9.604C171.8,268.438,174.546,272.864,173.444,276.801z"/>
		<path d="M216.429,268.278c0.158-1.439,0.631-7.049,0.631-7.049l-17.32,1.559v19.84c0,0-5.668-6.93-5.826-8.566
			c-0.158-1.639,4.252-4.818,4.408-5.783c0.158-0.967-2.99-6.592-3.463-6.908c-0.473-0.314-12.282-0.471-12.282,0
			c0,1.418-2.204,25.508-1.102,25.313c1.102-0.197,5.826,0.018,5.826,0.018s0.472-6.277,1.102-6.855
			c0.63-0.576,8.03,6.855,8.03,6.855s2.834-2.184,3.937-2.021c1.103,0.164,4.094,1.885,5.353,3.617c1.26,1.734,9.92,0,9.92,0
			l0.787-5.668c0,0-5.982,0.943-7.715,0c-1.732-0.945-2.834-2.992-2.677-3.779s10.234,0.996,10.234,0.996l0.788-5.783
			c0,0-2.992,0.535-5.512-0.9c-2.52-1.438-2.676-3.918-2.676-4.883C208.872,267.311,216.271,269.715,216.429,268.278z
			 M191.552,268.278c0,0-4.926-0.154-4.566-1.238c0,0,1.103-4.408,3.307-3.465C192.496,264.52,191.552,268.278,191.552,268.278z"/>
		<path d="M230.757,271.948c-0.472-1.861,6.299-1.551,6.299-1.551l-1.89-6.955c0,0-6.307-2.572-7.558-2.369
			c-2.047,0.332-5.039,4.076-6.141,5.336s-0.314,5.195,2.52,5.807s7.085,4.428,6.141,6.633c-0.945,2.203-8.66,1.889-8.66,1.889
			v5.963c0,0,1.26,0.021,5.354,0c4.094-0.02,11.651,1.596,13.226-0.766s-0.472-7.086-0.787-8.346S231.229,273.809,230.757,271.948z"
			/>
		<path d="M261.303,262.788c0,0-6.14-1.889-9.446-1.715s-10.078,1.715-10.078,1.715c0.473,1.416-1.143,5.49-1.143,5.49l6.969-0.768
			c0,0-0.428,2.057,0.158,4.705c0.854,3.873,0.157,16.852,0.157,16.852l8.188,1.275c0,0-0.63-6.141-0.944-6.928
			c-0.315-0.787-0.315-13.018-0.315-13.018s6.455,0.736,5.668,0S261.303,262.788,261.303,262.788z"/>
	</g>
	<g>
		<path fill="#0067A5" d="M34.635,200.995c-0.208,1.457-0.521,8.533-0.521,8.533s3.955,0,5.829-0.313s13.426,0.418,13.218,0.105
			s1.249-3.955,1.249-3.955s-4.267-0.416-6.037-0.416s-7.39,1.145-8.222,1.248c-0.833,0.105-0.833-1.77,0.521-2.914
			c1.353-1.143,7.598,0.313,8.014,0.209s0.104-3.852,0.104-3.852s-0.104-5.619,0.208-5.619s7.91,1.769,8.534,1.873
			c0.625,0.104,0.208-4.684,0.208-4.684s0,0-1.562-0.209c-1.562-0.208-5.516-1.145-5.516-1.977c0-0.834,6.037-1.041,6.037-1.041
			s0.833-1.145,1.353-0.729s4.892,1.249,5.516,1.457s-0.729,3.123-1.978,5.1s-4.163,3.852-4.163,3.852s4.059,1.873,5.412,1.457
			c1.353-0.417,2.082-2.707,2.082-2.707s0.208,3.539,0.208,3.852s0.625,9.471,0.625,9.471l4.684-0.938c0,0,0.104-1.77,0-3.537
			c-0.104-1.77-1.353-4.996-0.833-5.309s3.539,0.416,3.955,0.209c0.417-0.209,0.52-3.123,0.52-3.123l1.145-1.873
			c0,0,6.869-0.104,7.181-0.209c0.312-0.104,1.562,1.25,1.562,1.77c0,0.521-5.308,0.938-6.661,1.25s-1.041,13.113-1.041,13.113
			s2.811,0,3.539-0.313s1.353-0.834,1.353-2.498c0-1.666,1.145-1.457,1.977-1.145s0.937,2.498,1.666,3.227s4.059-1.354,4.059-1.354
			s-0.937-4.164-1.666-4.684c-0.729-0.521-4.579-0.938-4.579-0.938s0.208-2.184,0.208-2.496s5.828-0.313,6.453,0
			s0.313,0.936,0.313,0.936s5.204,5.1,5.62,5.1s-1.665,2.707-2.186,2.811s2.29,2.602,2.29,2.602s2.914-1.977,3.227-2.395
			c0.313-0.416,3.955,1.875,5.308,1.875s2.706-2.707,2.706-2.707s-3.955-1.977-4.58-2.289s1.422-2.914,1.422-2.914
			s-3.296-1.457-3.92-1.457s-2.082,2.186-2.706,2.186s-2.394-3.955-2.81-4.371s3.019-0.416,3.331-0.208s1.249,1.353,1.665,0.521
			c0.416-0.833,3.539-0.209,4.164-0.625s0-7.549,0-7.549s-0.417-0.361-0.833-0.049s-1.145-0.937-1.978-1.77
			c-0.833-0.832-3.018-6.141-4.371-5.828s-2.186,1.873-2.394,2.29s0,1.978,0,1.978s-3.955,0.313-4.163-0.416
			s2.914-3.539,3.021-4.268s-1.876-1.354-2.5-2.424c-0.625-1.072,2.602-3.092,2.498-3.82s-4.996-2.498-4.996-2.498
			s-3.227,5.412-3.643,5.516s-0.312,1.665,0.625,2.082c0.937,0.416,1.353,2.81,0.937,3.643c-0.416,0.832-3.019,1.353-3.019,1.353
			s1.276,2.603,0.625,2.915c-1.764,0.846-3.955,0.416-4.475-0.417s1.665-2.498,1.665-3.019c0-0.52-1.665-1.977-2.394-2.186
			s0.208-3.018,0.208-3.018s3.227-3.747,0.469-4.205c-1.134-0.188-2.343-2.977-2.343-2.04s-4.163,6.661-4.684,7.181
			c-0.521,0.521-3.435,0.104-3.435,0.104s0.104-1.249,0-1.665s-1.145-8.223-1.249-9.055s-6.037-0.416-6.037-0.416
			s0.416,1.561,1.041,3.33s1.666,6.869,1.562,7.182s-4.58,0.624-4.892,0.624s-0.52,1.77-1.353,1.77s-6.557,1.249-8.535,1.249
			s-4.163-1.145-4.163-1.561s6.349-1.458,6.557-1.666s0-2.498,0-2.498s-3.435,0.313-4.476,0c-1.041-0.312-2.394-1.248-2.394-1.248
			s3.33-4.164,3.435-4.684c0.104-0.521-3.435-0.625-3.747-0.729c-0.313-0.104-2.186,3.434-2.394,3.018s0-3.955,0-3.955l-4.892-0.832
			c0,0,0.52,8.43,0,8.43s-4.684-6.453-4.684-6.453h-4.059c-0.729,1.562,1.874,5.101,2.082,6.974s-0.521,1.041-1.145,1.146
			c-0.625,0.104,0.521,2.186,1.249,2.705c0.729,0.521,6.557-0.52,7.494,0.104s0.729,1.562,0.208,2.603s-5.412,0.312-6.245,0
			c-0.833-0.313-2.082,3.85-1.145,3.643c0.937-0.209,4.684-0.521,4.58,0.78s-9.367,8.794-9.367,8.794s2.602,3.539,3.955,3.436
			S34.843,199.538,34.635,200.995z M91.357,193.069c0.734-0.014,7.598,0,7.598,0s0.624,2.826,0,2.826s-6.765,1.249-7.598,0.937
			s-3.539-0.625-3.435-1.041S89.275,193.109,91.357,193.069z M70.958,187.881c0,0,3.33,0.208,3.226,1.248
			c-0.104,1.041-3.538,2.082-3.226,2.602c0.312,0.521,1.959,2.332,1.604,2.988c-0.355,0.655-4.31-2.988-4.31-3.924
			C68.252,189.858,70.958,187.881,70.958,187.881z M39.839,182.781c0,0,1.249,2.915,1.873,2.915s-1.873,0.416-1.873,0.416V182.781z
			 M39.839,191.419c0,0,0.408,0.417,1.973,0.885s4.063,1.405,4.063,1.405s-6.036,1.769-6.661,0.624S39.839,192.876,39.839,191.419z
			 M42.458,198.706c0.296,0.416-2.968,1.977-3.417,1.561s-0.762-1.561-0.762-1.561S42.162,198.29,42.458,198.706z"/>
		<path fill="#0067A5" d="M124.972,207.864c3.018-0.52,14.675,0.521,14.675,0c0-0.52-0.937-19.982-0.625-21.023
			s-1.249-4.371-2.914-4.059s-5.933-1.457-5.933-1.457s0.625,9.471,0.625,10.979s1.353,6.401,0.729,7.755s-6.141,2.082-6.141,2.082
			s-0.417-10.617-1.145-13.739s-0.52-8.326-1.353-8.014s-6.036,0-6.036,0s0.729,5.1,0.625,7.574s1.457,13.345,1.457,13.345
			s-3.123,1.873-3.643,1.77c-0.521-0.105-1.249-2.705-1.977-4.268c-0.729-1.561,0.104-8.222,0-8.742
			c-0.104-0.52-2.186-1.873-2.706-2.081s-2.911,0.637-2.81,1.04c0.417,1.666,0.624,19.566,0.729,21.023
			S121.954,208.385,124.972,207.864z"/>
		<path fill="#0067A5" d="M43.688,213.17c-0.625,0-1.665,4.477-2.29,4.787c-0.625,0.313-5.516-5.932-5.516-5.932
			s-6.453-0.832-5.516,0c0.937,0.834,0,14.363,0,14.363c0.729-0.521,5.724,0.936,5.932,0.416c0.208-0.521-1.353-4.475-0.52-5.1
			s2.394,2.498,3.828,2.498s3.666-2.914,3.666-2.914l0.208,5.934c0,0,5.308-0.105,5.412-0.002c0.104,0.105,0-14.363,0-14.363
			S44.312,213.17,43.688,213.17z"/>
		<path fill="#0067A5" d="M80.635,212.338c-0.417,0.002-6.765,4.996-7.91,4.996s-0.833-5.1-1.249-4.996
			c-0.416,0.105-4.268-0.938-4.476,0s-0.208,13.217-1.038,13.217s-5.935-13.898-5.935-13.898s-5.1-0.984-5.62-0.775
			c-0.521,0.207-3.955,16.342-3.955,16.342c-0.137,0.641,4.163,1.143,4.684,1.143s1.665-3.643,2.082-4.371s2.914,0.104,3.539,0.313
			s1.561,5.1,2.81,4.58c1.249-0.521,6.453,0.52,6.453-0.313c0-0.834,0.313-5.412,2.602-5.1c1.036,0.141,4.892,5.203,5.62,5.619
			s2.915-0.832,3.539-0.832s4.163,1.457,4.163,1.457s0-16.236,0-16.549S81.052,212.338,80.635,212.338z M59.299,219.44
			c-0.833,0.543-2.082-0.129-2.706-0.754s1.77-2.602,1.77-2.602S59.668,219.198,59.299,219.44z M80.891,226.493
			c-0.568-0.313-4.627-4.164-4.731-5.516c-0.048-0.623,3.122-2.811,4.163-2.082s0.313,2.186,0.417,3.643
			S81.459,226.805,80.891,226.493z"/>
		<path fill="#0067A5" d="M101.867,214.106c-0.208-0.211-3.331,0.105-3.955,0.002c-0.625-0.105-0.312,5.412-0.417,5.531
			c-0.104,0.121-2.914-0.744-3.539-0.891s-1.041-3.287-1.041-3.912s-4.372,0-4.372,0c-1.049,0.129,0.625,5.1,0.729,7.43
			c0.104,2.332,0.625,7.557,0.833,8.078c0.208,0.52,2.29-0.416,2.706-0.434s0.312-4.666,0.312-5.395s3.331-0.313,4.163-0.313
			s-0.625,5.725,0,5.516s5.1,0.52,5.204,0c0.104-0.521-1.145-8.117-1.145-8.951C101.347,219.936,102.075,214.315,101.867,214.106z"
			/>
		<path fill="#0067A5" d="M126.429,213.168c-0.104-0.418-9.679,0.107-10.095,0.002c-0.416-0.104-0.625,4.996-0.625,5.578
			s2.914-0.479,4.059,0.691c1.145,1.168,0,7.078,0,7.078l-3.747-4.813c0,0-4.475-5.516-4.996-6.35c-0.521-0.832-4.267-0.207-4.473,0
			c-0.206,0.209-0.627,1.145-0.523,2.082s-2.394,9.785-2.394,9.785s2.29,0.83,2.917,0.83s2.495-1.77,2.912-2.705
			c0.417-0.938,2.186-0.729,3.122-0.521c0.937,0.209,2.706,4.58,3.331,4.893c0.625,0.311,8.743,1.041,9.263,0
			s-1.041-8.223-0.833-10.08s1.874-1.057,2.082-0.891S126.534,213.586,126.429,213.168z M108.528,220.977
			c-1.041-0.416,0.833-3.227,1.874-3.748c1.041-0.52,1.353,3.057,1.353,3.057C111.865,221.137,109.569,221.393,108.528,220.977z"/>
		<path fill="#0067A5" d="M138.606,219.639c-2.498-4.771-1.457-6.26-1.457-6.635c0-0.373-5.62-0.563-5.62,0
			s-4.98,15.777-4.98,15.777c-0.172,0.527,3.627,0.521,4.563,0.094s1.666-2.486,2.186-3.84c0.52-1.352,1.874-0.313,2.811,0.313
			c0.937,0.623,1.249,3.227,1.873,3.434c0.625,0.209,5.725,0,5.725,0S141.104,224.411,138.606,219.639z M135.692,222.266
			c-0.625,0.688-3.697,0.646-3.539,0c0.134-0.545,1.457-4.184,2.186-3.518S136.317,221.579,135.692,222.266z"/>
	</g>
</g>
</svg>
