<?xml version="1.0" encoding="utf-8"?>
<svg version="1.1" id="レイヤー_1" xmlns="http://www.w3.org/2000/svg" xmlns:xlink="http://www.w3.org/1999/xlink" x="0px"
	 y="0px" width="200" height="200" viewBox="0 -60 393 260" enable-background="new 0 0 393.122 240.525"
	 xml:space="preserve">
<g>
	<path fill="#E8350D" d="M16.93,187.205l15.975-4.638l29.116,4.638l19.583-9.276l28.343-2.318l22.675-8.503l20.098,2.061
		l17.779,2.062l35.043,21.129c0,0,15.202,4.896,27.313,0c12.109-4.896,45.349-21.901,50.244-29.116s8.761-7.215,11.08-6.957
		c2.318,0.258,23.962-7.987,23.962-7.987l15.718,19.067l31.178,18.036l17.006-0.258l11.08-5.926l-1.289,27.57l-54.367,18.036
		l-115.949,5.669H84.954l-48.955-19.84L16.93,200.346V187.205z"/>
	<path fill="#4089C9" d="M390.183,26.815C388.88,15.87,378.751,5.54,363.192,3.317c-7.776-1.111-149.562-2.858-163.533-3.176
		c-13.973-0.317-174.965,0-174.965,0S16.871,2.807,10.45,9.667c0.002,0,6.305,0.318,9.798,1.588c3.493,1.271,10.797-0.635,14.29,0
		c3.492,0.636,4.763,1.588,4.763,3.494c0,1.904-4.446,3.492-7.304,2.857s-5.035-1.303-7.122,0.143s0.771,3.033-5.897,4.621
		c-4.141,0.985-12.209-0.206-15.566-0.528c-1.045,3.54-1.781,8.099-2.295,13.073c1.416-0.699,3.389-1.248,5.795-0.797
		c5.081,0.953,11.432,5.081,18.418,6.352c6.986,1.27,11.748-4.528,25.086-5.081c13.336-0.553,17.782,3.538,20.322,5.262
		s-3.176,6.487-8.256,7.44c-5.081,0.952-14.924,1.27-19.37,0c-4.446-1.271-5.716,1.676-14.29,0.838
		c-8.573-0.838-10.795-2.744-17.146-2.744c-3.79,0-8.359,1.029-11.438,1.861C0.063,52.625,0.002,57.112,0,61.103
		c2.003-0.634,5.438-1.258,8.181,0.642c4.128,2.857,16.83,3.176,20.323,2.857c3.492-0.318,8.572-0.854,9.525-2.014
		c0.953-1.162-2.541-2.432,0-3.702s9.209-4.446,14.289-4.446c5.081,0,8.257-1.27,12.385-1.904s7.621-0.317,11.432,0
		s7.304,2.54,12.066,2.54s13.02-0.952,15.877-0.317s8.573,0,11.113-0.318c2.541-0.316,4.764-3.176,8.574-0.952s5.08,5.398,0,6.351
		c-5.08,0.953-12.066,2.223-18.1,2.223s-6.352-0.952-12.385,0c-6.033,0.953-16.852,0.318-21.922,0
		c-5.068-0.316-14.912-1.27-17.135,0.953s4.445,1.906,5.715,3.493c1.271,1.587-9.525,5.397-17.781,4.445
		C33.902,70,21.518,71.889,16.754,71.104c-4.763-0.786-0.952-2.314-11.432,0.195c-2.381,0.571-4.035,1.061-5.179,1.477
		c0.04,1.65,0.071,2.705,0.065,2.939c-0.032,1.588,6.701,1.271,11.782,2.541s7.938-1.905,11.431-2.541
		c3.493-0.635,14.29-0.635,20.323-0.952s13.02,2.223,14.29,2.858c1.27,0.635,16.857,1.668,23.18,1.27
		c3.121-0.196,13.973-4.128,16.83-1.27c2.857,2.857-1.905,6.668-5.716,7.303c-3.811,0.636-13.337,2.541-18.101,1.271
		c-4.763-1.271-13.336-2.223-17.146-0.952c-3.811,1.27-11.432-0.953-14.607-1.271c-3.175-0.317-6.985,2.223,0.318,6.033
		c7.303,3.811,30.483,2.54,32.707,3.175c2.223,0.636,19.369-8.573,18.1-2.223c-1.271,6.352-7.939,6.033-12.066,7.304
		c-4.129,1.271-19.371,1.588-19.371,3.175c0,1.588,10.162,2.858,14.29,3.176c4.128,0.318,24.769,0.318,29.531,0.635
		c4.763,0.318,19.37,2.224,30.483,2.224c11.115,0,17.147-3.493,23.816-6.351c6.668-2.858,17.781-0.636,21.592,0
		c3.811,0.635,17.465,6.985,27.944,6.668s20.322-2.541,23.181-2.541c2.857,0,20.005,0.636,20.005,2.541s-2.54,4.128-7.938,6.033
		s-5.398,4.764-4.764,7.939c0.636,3.176,19.053-0.001,19.053,2.857c0,2.857-11.113,4.127-19.053,3.492
		c-7.938-0.635-15.242,3.493-11.432,3.493s16.195,2.223,24.134,3.164s23.181-1.576,26.356-1.894c3.175-0.318,4.444,1.904,3.81,4.445
		c-0.635,2.539-11.749,3.811-16.194,3.492c-4.445-0.316-11.749-2.223-15.242-1.904c-3.493,0.316-9.209,4.764-11.432,3.492
		c-2.223-1.27-13.02-1.27-12.384,0c0.636,1.271,8.573,3.811,12.702,2.859c4.127-0.953,10.16,0.635,9.208,1.904
		c-0.952,1.271-8.256,2.857-12.384,4.129c-4.128,1.27-13.654,1.27-13.654,1.27s6.351,1.27,12.385,2.541
		c6.033,1.27,16.193,1.904,16.193,1.904c0,3.811-9.525,4.764-13.654,4.764c-4.127,0-8.256-0.318-16.193-0.635
		c-7.939-0.318-14.29,5.715-12.385,5.396s14.289,0.953,14.607,3.494c0.316,2.539-4.446,3.492-9.209,4.445
		c-4.764,0.951-18.1-1.27-21.91-1.588c-3.811-0.316-6.352,2.541-9.527,3.811c-3.176,1.271-13.019,0.635-13.019,0.635
		s2.223,1.271,13.337,4.445c11.114,3.176,35.882,7.621,44.455,3.176c13.141-6.813,24.769-15.559,26.992-15.559
		c2.223,0,13.654-1.906,13.654-1.906l10.479-13.971c0,0,11.749-2.223,13.019-4.129c1.27-1.904,11.432-10.479,14.925-8.574
		c3.493,1.906,12.384,6.986,12.384,6.986l10.797,14.607l14.924,14.924l30.167,12.066l16.194-10.795v-31.756
		C392.406,146.844,391.771,40.151,390.183,26.815z M320.333,27.137c0.269,1.096-0.134,4.311-3.248,4.311s-6.419,1.004-9.438,0
		c-3.02-1.004-7.041-2.009-6.537-3.215c0.504-1.205,1.232-5.078,10.248-2.512C312.715,26.108,320.065,26.042,320.333,27.137z
		 M209.591,64.299c0.603-2.01,3.718-4.822,4.722-4.421s8.94,0.2,10.749,0.703c1.161,0.323,11.452,0.503,12.457,0.904
		s-0.302,4.22-4.923,4.822s-9.543-0.503-11.452-0.503s-5.927,0.662-8.036,0.683C210.998,66.508,208.989,66.308,209.591,64.299z
		 M204.566,58.472c-1.507,0.401-14.165,5.31-15.471,5.258c-6.831-0.268-9.946-6.263-17.179-6.966
		c-3.932-0.383-10.448-1.809-10.047-5.425c0.402-3.616,4.723-4.722,7.535-4.319c2.813,0.401,17.48,3.816,21.197,4.219
		s16.979-1.406,19.289-2.01c2.311-0.603,2.712,3.718,2.712,5.426C212.603,56.362,206.073,58.071,204.566,58.472z M248.971,50.334
		c0.932,0.604,6.028-0.803,7.636-0.904c1.607-0.1,4.319,0.503,3.817,5.225s-14.867,2.611-16.274,1.607
		c-1.407-1.005-7.334-0.704-8.54-3.918C234.405,49.129,247.264,49.23,248.971,50.334z M227.875,74.333
		c1.908-1.395,7.635-1.695,15.771,2.122c1.187,0.556,6.832-0.401,8.238-0.804s3.215-1.708,4.621-1.205
		c1.406,0.502,5.398,2.311,4.909,4.119c-0.489,1.808-5.714,4.32-10.134,4.018c-4.42-0.301-11.721-1.406-13.445-1.607
		c-1.724-0.201-16.391-0.401-16.692-1.607C220.842,78.163,225.966,75.725,227.875,74.333z M258.013,70.729
		c-2.311,0.1-8.841-2.586-7.735-5.361c1.105-2.777,9.545-4.686,11.955-3.078c0.852,0.568,5.324-0.904,6.027-1.105
		s2.613-1.809,3.818-0.904s4.52,4.281,1.004,6.209c-3.516,1.93-6.831,3.033-9.343,3.234S260.324,70.628,258.013,70.729z
		 M282.726,75.45c1.307-0.703,5.627-1.908,6.933-1.607c1.306,0.302,4.722,0.006,6.128-0.047s4.923-1.185,5.225-0.418
		c0.301,0.767,0.301,6.895-5.727,7.598s-9.945-0.502-12.256-0.803c-2.312-0.303-9.544,0-9.243-1.709
		C273.996,77.272,281.42,76.154,282.726,75.45z M308.183,90.386c1.142,0.163,3.305-2.421,6.178-2.411
		c2.874,0.01,6.035-1.283,5.173,4.033s-8.621,4.023-11.351,3.736c-2.73-0.287-12.214-2.238-12.214-3.777
		S296.832,88.764,308.183,90.386z M297.896,55.057c-4.822-0.402-5.123-1.307-6.73-0.904c-1.607,0.401-2.749,0.904-4.488,0.401
		c-1.74-0.503-4.554-2.083-4.252-3.101c0.301-1.019,5.135-3.722,6.129-3.631c1.1,0.102,6.229,1.006,7.734,0.805
		c1.508-0.201,6.832-0.924,7.535,0.793C304.527,51.139,302.718,55.458,297.896,55.057z M267.557,14.269
		c2.099,0.239,6.027,1.105,8.539,1.708s4.721,1.507,6.63,0.804c1.91-0.703,1.508-2.21,5.627-2.512s11.954,0.201,13.662,0.503
		c1.708,0.301,2.914-0.704,5.023,3.014c2.109,3.717-1.709,4.822-4.621,4.922c-2.914,0.102-14.769-0.502-16.477-0.502
		c-1.707,0-12.356-0.904-14.566-1.105s-9.644,0.521-9.945-2.652S265.947,14.085,267.557,14.269z M257.711,27.229
		c1.508,0.502,10.448,1.607,10.448,1.607c1.708,0.201,8.739,0.301,10.247,0c1.508-0.302,6.933-0.001,8.037,1.908
		s-1.909,5.124-5.123,5.827c-3.215,0.703-5.525-0.101-5.827-0.804s-5.225-0.703-7.334-0.703s-11.151-0.502-13.261-3.617
		C252.79,28.334,256.206,26.726,257.711,27.229z M249.573,40.992c-5.927,0.603-10.146,1.603-13.06,2.813
		c-1.903,0.79-11.854,0.803-16.375-1.809c-4.521-2.612-4.319-2.612-6.229-2.311c-1.909,0.301-15.472,3.708-20.192,2.908
		c-4.723-0.799-7.41-2.708-5.313-6.525s17.545-2.982,21.486-2.41c1.572,0.228,11.653,1.305,14.467,1.205
		c2.813-0.101,9.945,0.218,13.361,0.008c3.416-0.209,5.225-1.434,10.046-0.57S257.165,40.219,249.573,40.992z M221.143,11.657
		c1.607-1.205,5.425-2.201,7.232-1.252c0.803,0.422,3.115-0.958,5.023-0.958s3.316,0.503,3.818,0s3.214-0.603,5.324,0
		c2.109,0.603,3.918-0.695,4.521,0.958c0.603,1.654-3.315,2.457-4.622,2.96c-1.305,0.503-1.808,2.312-3.014,2.512
		c-1.205,0.2-11.251-1.005-12.055-1.005s-3.014-1.194-4.019-0.949c-1.005,0.246-1.808,1.15-2.21,1.05S219.536,12.863,221.143,11.657
		z M161.852,11.657c0.42-2.109,5.543-3.918,7.051-3.918s9.242,2.211,11.854,2.311c1.306,0.051,4.243-2.008,7.647-2.712
		c3.403-0.704,5.212-0.804,5.814,1.356s-4.333,3.465-6.537,3.566c-2.203,0.1-4.422-0.785-6.021,0
		c-3.215,1.578-7.836,1.908-11.754,1.506C165.99,13.365,161.432,13.767,161.852,11.657z M164.382,19.292
		c4.621,0,9.745,0.201,11.653,0.402s16.677,1.708,18.686,0.904c2.01-0.804,10.047-1.105,15.773-2.314
		c5.727-1.211,15.068,0.205,15.771,0.004s7.836,6.73,7.635,8.338s-12.457,2.01-14.466,1.406c-2.009-0.602-11.853,0.486-15.17,0
		c-4.119-0.602-12.759-2.009-17.581-2.512c-4.822-0.502-13.461-1.707-19.113-0.903c-5.65,0.804-11.024,0.502-11.426-1.005
		C155.743,22.105,159.761,19.292,164.382,19.292z M169.907,31.045c5.224-0.301,9.645,3.517,6.43,7.334
		c-3.215,3.818-14.674,3.932-16.676,4.119c-9.545,0.896-17.48-4.722-24.011-5.9s-10.448-1.936-9.042-3.744
		c1.407-1.808,3.818-2.712,6.53-1.824c2.712,0.887,10.247,2.829,14.266,3.131C151.422,34.461,164.683,31.348,169.907,31.045z
		 M92.694,9.937c0.467-2.11,5.749-5.102,11.963-3.762c6.215,1.34,11.115,1.599,12.352,1.573c2.336-0.049,11.808-1.554,13.905-1.398
		s5.671-0.917,8.234,0.9c2.563,1.818-0.001,4.654-3.03,5.373c-3.029,0.718-2.252-0.215-5.359,1.572s-7.846,2.642-10.176,2.02
		c-2.331-0.621-9.789-2.098-12.508-2.175s-6.292,0.699-9.943-0.233C94.481,12.875,92.227,12.047,92.694,9.937z M64.883,7.282
		c1.321,0.078,5.127,1.088,7.458,1.321s6.991-0.388,8.622,0c1.632,0.388,2.797,2.796-2.563,3.495c-5.36,0.699-8.234,0.699-11.187,0
		s-5.749-0.154-8.234-1.01C56.495,10.235,58.281,6.893,64.883,7.282z M81.741,28.024c-3.418-0.622-13.283,0.854-15.536,1.476
		s-9.633,2.33-13.284-2.021c-3.65-4.35,3.107-8.777,7.225-8.078s14.604,2.951,14.604,2.951c1.321,0.545,11.187,2.02,13.595,1.865
		c2.408-0.156,12.584-2.563,14.449-2.952c1.863-0.389,8.078-1.942,10.486-1.321c2.408,0.622,6.754,4.603,1.864,8.234
		c-3.204,2.381-15.925,4.738-18.644,4.351S85.159,28.645,81.741,28.024z M121.203,48.686c-2.253,0-7.924,2.021-12.974,1.709
		c-5.049-0.311-12.584-0.045-14.914-4.14s-1.165-6.036,2.563-7.202c3.729-1.164,12.118-0.465,14.526,1.555s6.734,3.184,8.001,3.107
		c1.397-0.084,6.37-0.934,7.769-1.244s2.797-1.941,5.904-1.863c3.106,0.077,9.555,2.184,11.107,3.111
		c1.555,0.928,4.738,1.549,5.205,4.113c0.467,2.563-0.933,4.35-4.816,4.039s-8.855-0.234-13.051-0.933
		C126.33,50.241,123.456,48.686,121.203,48.686z M104.608,70.528c-0.604-1.307,6.127-4.723,8.036-4.924
		c1.909-0.2,12.522-0.223,14.667,0.303c1.746,0.426,4.822,0.502,7.535,1.305c2.713,0.805,5.224,1.607,7.735,1.307
		s9.243-3.315,10.348-4.019s3.114-1.306,3.817,0s0.201,5.525-3.114,6.731c-3.315,1.205-10.851,1.307-13.06,1.004
		c-2.211-0.301-4.723,2.01-7.033,2.512s-11.955,0.402-13.563-1.507c-1.606-1.909-7.333-1.407-9.342-0.804
		C108.625,73.04,105.21,71.833,104.608,70.528z M169.67,95.888c-11.639,0.575-11.209,0.862-15.231,1.149s-16.812,1.15-17.817,0.719
		s-5.315-1.869-7.615-1.15c-2.299,0.719-4.598,2.875-7.471,2.156c-2.875-0.719-14.227-2.012-16.094-6.035s5.46-4.598,8.478-4.742
		c3.018-0.143,24.558,1.299,26.726,1.15c1.576-0.109,7.185-0.863,10.346,0c3.161,0.861,9.914,1.58,11.207,1.437
		s6.322-1.772,9.771-1.82c3.448-0.048,12.932,0.134,12.932,1.839S181.309,95.313,169.67,95.888z M190.903,79.669
		c-5.123-0.704-9.744-3.805-13.16-4.665s-9.645-0.359-10.046-1.564s-0.301-7.142,7.636-4.072c1.133,0.438,5.223-1.854,6.932-1.352
		c1.707,0.502,7.635,3.314,10.949,3.616c3.316,0.302,12.257-2.622,13.361-2.265c1.105,0.355,5.827,3.57-0.803,6.183
		C199.141,78.163,196.027,80.374,190.903,79.669z M268.526,101.78c-4.454-0.575-19.541-1.581-22.846-1.581
		s-20.691,3.161-25.002,3.161s-19.684,0.864-19.254-4.453c0.432-5.317,9.268-8.91,22.236-6.18c1.447,0.305,6.789-2.73,12.536-2.299
		s20.548,3.941,22.271,4.27s17.96,0.902,19.397,0.615s10.058-2.873,9.771,1.438S272.981,102.354,268.526,101.78z M305.453,121.76
		c-3.592,4.158-7.328,4.158-10.059,2.721c-2.729-1.437-4.166-1.436-5.459-1.148c-1.294,0.287-4.023,1.005-5.316-0.863
		c-1.293-1.867-9.053-2.729-7.903-5.172s5.316-4.023,9.196-3.161c3.879,0.862,6.043,0.651,7.041,0.575
		c1.432-0.109,8.332-1.293,10.057,0S309.044,117.601,305.453,121.76z M320.827,110.831c-6.896,0.432-13.362-0.287-14.655-1.724
		s-3.881-0.862-5.892-1.581c-2.011-0.718,4.167-6.753,10.921-4.885c2.635,0.729,11.206-0.287,12.644,1.58
		C325.282,106.09,327.723,110.4,320.827,110.831z M327.082,64.901c-1.858-0.2-7.686-0.301-11.001-0.803s-5.467-1.555-5.345-2.837
		c0.121-1.282,4.44-4.598,6.952-4.095c2.512,0.502,4.324,0.266,5.325,0.443c1.311,0.232,6.228,0.861,8.137,2.972
		S328.94,65.102,327.082,64.901z M329.442,43.604c-3.114,1.406-7.027,1.305-9.039,0.803s-4.925-0.1-6.935-0.1
		c-2.008,0-2.109,0.2-3.816-1.105c-1.708-1.306-3.919-4.621-3.617-5.425s2.512-4.022,5.225-2.413
		c2.712,1.609,6.137,0.943,7.032,0.906c1.204-0.049,6.729-0.502,8.036-0.603s4.319-0.904,5.425,0.603S332.556,42.197,329.442,43.604
		z M337.078,14.872c-4.019,1.809-7.334,1.105-9.042,1.508c-1.708,0.401-3.416,1.707-5.425,1.506s-3.114-1.759-1.507-4.244
		c1.607-2.486,3.908-2.787,4.923-2.787c1.321-0.002,4.822,0.803,7.635,0c2.813-0.805,4.32-1.91,5.124-1.307
		S341.096,13.064,337.078,14.872z"/>
	<g>
		<path d="M0.707,182.686C0.255,182.991,0.793,183.431,0.707,182.686L0.707,182.686z"/>
		<path d="M386.816,202.09c-0.054,2.611-1.029,2.426-1.029,2.426l-3.695-2.852c0,0-0.853,1.777-2.417,6.315
			c-1.564,4.537-2.167,2.076-3.967,2.365c-1.803,0.29-5.629-4.036-5.629-4.036s-1.201,2.75-1.562,4.375
			c-0.359,1.624-2.448-0.052-2.448-0.052l-6.249-21.074c0,0,6.293,3.445,13.458,4.25c7.166,0.804,18.897-5.972,18.897-5.972
			l-1.45-12.599c0,0-3.563,2.537-6.206,4.115c-2.646,1.576-8.074,3.584-10.868,4.504c-2.795,0.922-7.529,0.985-10.754-0.877
			c-3.227-1.863-5.405-0.221-6.633-0.741c-1.228-0.522-3.743-2.742-5.188-3.914c-1.444-1.173-3.87-2.204-5.811-3.062
			c-1.942-0.856-2.841-4.63-3.627-6.115c-0.784-1.486-6.898-5.695-9.303-7.867c-2.403-2.172-3.825-12.159-5.745-13.995
			c-1.921-1.836-4.052-1.391-6.628-3.077c-2.577-1.688-7.461-2.279-9.371-2.244c-1.909,0.033-2.283-2.408-5.404-1.493
			c-3.122,0.913-13.307,7.643-14.199,7.698c-0.894,0.058-9.79-0.204-11.259-0.235c-1.469-0.03-10.229,13.008-13.222,15.556
			c-2.991,2.55-7.394,2.294-9.518,2.412c-2.123,0.119-5.66,2.648-8.604,5.534c-2.944,2.884-15.552,9.956-22.79,12.579
			c-13.648,4.948-25.011,1.759-35.555-1.4c-10.543-3.159-23.098-19.419-23.899-20.088c-0.803-0.67-11.255-0.399-13.692-0.941
			c-2.438-0.54-27.057-1.873-28.845-2.236c-1.788-0.364-6.96,4.913-14.032,7.54c-5.784,2.147-23.881,2.274-27.956,2.025
			c-4.076-0.248-4.731-0.099-5.87-0.287c-1.139-0.187-10.783,8.262-20.426,8.875c-9.645,0.613-14.994-1.131-20.861-1.581
			c-5.867-0.448-12.641-4.345-16.391-4.587c-3.749-0.242-2.848,3.531-6.611,3.941c-3.764,0.411-10.633,1.083-10.633,1.083
			s-0.424,4.573-0.131,6.213c0.009,0.045,0.008,0.075,0.013,0.114c0.373-0.252,1.421-0.403,4.06,0.297
			c6.006,1.596,17.617,0.532,23.019-0.171s8.141,0.987,11.561,1.387c3.42,0.397,14.589,4.876,23.454,2.451
			c8.865-2.426,18.813-9.726,19.972-10.519c1.159-0.792,8.015-0.813,9.47-0.127c1.455,0.684,11.582,0.406,18.309-1.249
			c5.783-1.421,16.456-6.347,17.771-6.809c1.316-0.462,2.438,0.54,10.613-0.104c8.174-0.646,12.803,4.35,15.092,4.234
			c2.287-0.115,8.035-1.79,9.174-1.603s8.643,8.179,10.22,10.823s13.198,8.93,22.857,11.418c9.661,2.488,15.371,2.606,20.29,1.568
			c4.919-1.04,9.865-3.386,11.01-3.525c1.146-0.138,2.053,3.309,2.019,4.941s0.601,10.296,0.396,12.25s-9.522,5.998-11.226,5.964
			c-1.305-0.024-1.938-1.019-3.549-2.032c-1.611-1.013-3.882-1.713-4.518-2.543c-0.635-0.83-1.38,3.562-1.734,4.861
			c-0.354,1.299-2.991,2.548-4.293,2.357c-1.303-0.19-4.966-4.512-4.966-4.512s-2.713,4.841-2.894,5.653
			c-0.181,0.812-0.84,1.125-1.812,0.777c-0.972-0.347-4.9-7.61-6.199-7.965c-1.298-0.354-4.087,8.075-4.753,8.715
			c-0.666,0.638-6.242,1.828-7.711,1.797c-1.468-0.03-3.666-4.158-5.131-4.353c-1.465-0.192-1.877,3.879-2.717,5.004
			c-0.84,1.124-5.922,2.143-7.224,1.971c-2.356-0.31-5.298-4.193-6.266-4.702c-0.969-0.51-2.225,4.849-2.737,5.981
			c-0.514,1.132-2.143,0.935-3.121,0.915c-0.979-0.021-4.795-4.834-5.277-5.172c-0.482-0.337-2.52,3.376-3.043,4.996
			c-0.525,1.622-1.48,0.458-2.777,0.105c-1.299-0.354-4.452-5.645-5.588-5.994c-1.135-0.351-1.418,5.357-2.084,5.996
			c-0.667,0.639-2.291,0.278-3.916-0.083c-1.625-0.36-4.094,0.568-5.564,0.701c-1.473,0.131-10.313-6.421-11.122-6.764
			c-0.809-0.344-4.843-2.551-5.822-2.57c-0.979-0.021-2.08-2.003-3.208-2.679c-1.128-0.677-2.273-0.539-2.587-1.197
			c-0.313-0.66,0.847-1.451,0.86-2.104s-1.352-5.577-2.324-5.925c-0.972-0.348-2.891,5.489-5.018,5.771
			c-2.129,0.282-2.879-2.834-3.678-3.667c-0.799-0.834-3.609,0.902-4.588,0.883c-0.979-0.021-1.252-2.639-1.891-3.305
			c-0.639-0.668-2.135,0.608-2.95,0.592c-0.815-0.018-4.456-5.483-5.103-5.822c-0.646-0.34-1.703,3.391-2.217,4.523
			c-0.514,1.132-5.041-0.923-6.346-0.949c-1.306-0.027-2.723-2.506-2.699-3.648c0.024-1.142-0.89-4.263-1.373-4.599
			c-0.482-0.336-3.834,3.838-5.295,3.479c-1.462-0.357-1.9-2.814-2.203-3.963c-0.302-1.148-2.971,1.568-3.797,2.041
			c-0.825,0.473-1.458-0.519-1.602-1.503c-0.143-0.982-4.4-0.254-6.509-0.952c-2.106-0.695-2.36-4.13-3.337-4.313
			c-0.975-0.184-0.544,2.599-3.325,2.868c-2.78,0.268-4.299-5.151-4.441-6.135c-0.142-0.982-5.364-1.092-5.364-1.092
			s-1.047,3.243-4.65,3.821s-5.684-1.425-6.787-3.244c-1.104-1.819-2.125,0.117-2.959,0.945c-0.834,0.827-8.639-0.535-9.3-0.194
			c-0.659,0.341-0.312,22.653-0.312,22.653s1.32,7.048,8.02,14.533c11.775,13.16,29.381,15.634,32.303,16.348
			c2.924,0.714,59.418-0.061,59.418-0.061l137.605-0.051c0,0,116.023,1.615,131.929-1.806c15.906-3.42,18.827-18.212,19.227-21.633
			c0.397-3.418,2.46-16.108,2.46-16.108l-5.039-1.084C386.87,199.48,386.87,199.48,386.816,202.09z M241.534,210.151
			c-1.326,0.952-6.895,1.814-7.18-0.15s0.658-7.983,1.953-7.468c1.295,0.517,0.479,3.096,2.082,3.138
			c1.15,0.03,3.361-5.859,4.83-5.88C244.689,199.771,242.858,209.2,241.534,210.151z M240.54,195.277
			c-1.162,0.954-2.894-2.137-5.963-3.694c-3.068-1.557-0.109-2.474,0.066-3.123c0.177-0.647,1.248-0.541,2.482-1.58
			c0.799-0.673,3.66-3.352,4.967-3.323c1.305,0.026,2.294-0.442,2.283,0.048C244.366,184.094,241.703,194.322,240.54,195.277z
			 M248.985,181.742c1.16-0.791,3.009-3.364,3.984-3.181c0.977,0.184,1.25,10.445-0.232,11.08c-1.482,0.637-3.43,0.106-4.541-1.386
			s-2.86-3.705-2.688-4.165S248.985,181.742,248.985,181.742z M253.352,204.523c-0.318,2.115-5.863,1.834-5.809-0.775
			c0.055-2.608-0.624-9.152,0.203-9.625c0.826-0.474,2.773,0.057,2.773,0.057c0.979,0.021,2.984,0.606,3.016,1.561
			C253.569,196.692,253.671,202.408,253.352,204.523z M353.831,202.663c0.467-0.89,1.922-5.945,3.061-5.841
			c1.14,0.105,2.214,3.444,1.533,4.709C357.745,202.796,353.403,203.481,353.831,202.663z M339.386,183.131
			c0.51-0.949,1.203-2.892,1.689-2.72c0.486,0.173,6.598,4.433,7.073,5.151c0.476,0.72-7.641-1.521-8.811-0.185
			C338.932,185.843,338.876,184.08,339.386,183.131z M301.15,153.945c0.69-1.78,1.206-3.074,1.699-3.228
			c0.494-0.153,5.12-2.832,8.233-3.42c3.114-0.587,13.919,13.514,13.246,14.479c-0.675,0.966-8.972-0.352-8.659,0.308
			c0.313,0.661,0.266,18.453-0.074,19.097c-0.341,0.646-2.342,0.442-4.103-0.085s-5.027-0.447-4.681-1.413
			c0.347-0.963,0.347-8.727,1.033-10.3c0.685-1.571,7.938-12.684,7.812-14.481c0,0-7.122-0.269-8.598,0.028
			c-1.475,0.296-5.15,9.478-5.15,9.478S300.458,155.724,301.15,153.945z M269.653,200.345c-0.18,0.762-1.674,1.873-1.985,1.214
			c-0.312-0.661-3.698-3.67-3.698-3.67l-3.781,2.258c0,0-0.723,3.362-1.074,4.497c-0.35,1.136-2.169,2.277-2.146,1.197
			c0.023-1.079,0.585-12.276,1.879-11.704c1.293,0.57,2.934,0.162,3.631-1.969c0.699-2.13,0.354-3.945,0.354-3.945
			s-4.155-0.077-4.159-1.382c-0.009-2.447-0.342-7.038,0.171-8.163c0.514-1.126,2.255-6.313,3.407-6.779
			c1.152-0.465,5.803-4.285,6.268-3.132C268.985,169.92,269.831,199.584,269.653,200.345z M272.594,192.381
			c-0.941-1.839,1.26-13.381,1.002-16.652c-0.109-1.398,4.788,5.214,4.232,8.359C277.272,187.232,273.535,194.219,272.594,192.381z
			 M285.541,197.69c0.344-0.809,1.493-9.705,2.327-9.75c0.815-0.043,1.834-0.446,2.52,1.2c0.685,1.646-0.369,9.787,1.364,10.476
			C293.484,200.304,285.198,198.5,285.541,197.69z M289.97,173.298c0.642,0.503,1.626,8.032,2.103,8.695
			c0.477,0.662-2.912-1.205-3.086-0.718C288.813,181.762,289.97,173.298,289.97,173.298z M295.391,156.11
			c0.136,1.308-0.406,11.579-0.42,12.232s-0.105,5.059-1.084,5.038c-0.98-0.02-2.017-5.104-1.992-6.246
			c0.023-1.141,0.203-9.625,0.203-9.625s-4.94,2.019-4.795,2.838c0.147,0.818-1.819,17.917-2.206,20.193
			c-0.387,2.277-2.51,10.068-2.536,11.374c-0.027,1.306-0.511,8.691-0.511,8.691s-7.271,0.449-7.195-1.182
			c0.073-1.631,4.055-1.938,6.197-13.418c1.655-8.864-1.812-12.906-2.935-14.101c-1.99-2.115-3.704-3.995-3.704-3.995
			c-0.955-1.162,3.662-7.068,5.085-9.033c2.141-2.955,4.023-4.976,5.318-4.46c1.295,0.518,6.662,1.445,7.818,0.816
			c1.156-0.627,4.109-1.383,4.109-1.383S295.254,154.801,295.391,156.11z M298.227,199.902c0.331-0.306-1.054-12.088,0.266-12.713
			c0,0,1.219,4.151,1.674,5.771c0.457,1.619,2.18,5.084,5.113,5.309c2.933,0.226,3.367,2.896,3.367,2.896
			S297.893,200.208,298.227,199.902z M308.12,195.171c-3.602,0.469-4.586-7.061-2.202-11.744c0.378-0.742,4.557,0.637,4.868,1.352
			C311.097,185.495,311.721,194.702,308.12,195.171z M322.529,208.586c-0.652-0.014-11.384-4.319-11.509-4.975
			c-0.126-0.656,3.059-12.39,3.059-12.39c0.492-0.104,2.306-0.979,2.284,0.048c-0.021,1.027-0.591,12.604,0.555,12.466
			c1.146-0.14,6.737,0.469,6.538,0.953C323.254,205.174,323.181,208.6,322.529,208.586z M323.6,197.999
			c-0.391,1.462-2.105,5.444-2.064,3.436c0.042-2.008-2.906-14.396,2.207-10.493C325.036,191.928,323.99,196.539,323.6,197.999z
			 M324.048,176.595c0.288,0.362,0.553,5.88-0.135,6.212c-0.688,0.33-2.802-0.06-2.802-0.06s-0.263-10.759,0.247-11.729
			c0.509-0.969,2.358-3.542,5.108-2.341c2.75,1.2,9.998,5.861,9.623,8.169c-0.375,2.309-2.964,1.26-3.499,3.378
			c-0.533,2.118,1.581,10.24,0.262,10.907c-1.321,0.667-1.663,1.393-1.469-0.031c0.193-1.423-2.203-13.715-2.801-15.36
			C327.986,174.096,323.763,176.231,324.048,176.595z M340.548,213.361c0,0-12.063-2.854-12.694-2.867
			c-0.632-0.013,0.176-8.37,0.176-8.37s3.456,7.467,3.945,7.478c0.489,0.01,5.051,0.432,5.237-0.707
			c0.188-1.137-0.767-17.892,0.371-17.662c1.138,0.229,1.956,0.187,1.975-0.682c0.018-0.867,0.033-1.618,0.033-1.618
			s2.599,0.584,2.575,1.675C342.145,191.698,340.548,213.361,340.548,213.361z M348.043,191.642
			c0.702,0.092,2.121-0.979,3.751-0.834c1.629,0.146-4.38,14.221-4.903,15.843C346.368,208.272,346.435,191.429,348.043,191.642z
			 M359.786,214.429c-2.004,2.243-7.767,1.307-8.212,0.808c-0.445-0.5-4.785-3.671,0.099-4.733c1.504-0.327,6.435-1.66,7.404-1.15
			C360.045,209.864,361.792,212.185,359.786,214.429z"/>
	</g>
	<g>
		<path fill="#9BCAED" d="M181.472,179.417c-3.35-1.676-11.245-7.418-10.767-9.332s8.374-0.238,10.767,0
			c2.393,0.24,9.81-0.615,12.442-0.906c2.631-0.289,10.049,0.529,12.441,0s15.792,3.299,16.749,3.777s-13.16,3.35-15.792,3.35
			s-11.963-3.361-12.92-2.039s-10.528,5.15-11.725,5.15"/>
		<path fill="#9BCAED" d="M250.381,160.017c-0.718-0.459-9.57-2.852-14.117-3.33c-4.545-0.479-16.51,1.674-20.816,1.674
			s-15.313-1.574-20.576-1.744s-17.707,0.41-22.971,0c-5.264-0.408-24.645-5.194-28.233-4.954
			c-3.589,0.238-24.165-0.479-29.669,0.956c-5.504,1.436-22.97,6.941-28.713,6.223c-5.742-0.719-33.736-0.719-40.197-2.633
			c-6.459-1.914-12.681-6.938-22.252-6.7c-9.57,0.24-22.73,1.676-22.73,1.676v10.288c0,0,11.965,1.197,17.945,4.068
			c5.982,2.871,16.748,4.545,19.142,4.545s6.938,1.676,6.938,1.676s-7.656,3.336-9.81,2.506c-2.153-0.832-11.245-5.166-16.03-5.152
			c-4.786,0.014-17.945-0.73-18.186,0c-0.238,0.732,0,10.303,0,10.303s6.461-2.871,9.332-2.871s6.221-3.363,13.398-2.279
			c7.179,1.082,6.461,3.852,17.945,2.467c11.485-1.385,9.093-0.289,11.964,0c2.871,0.291,17.706-1.637,20.816-2.467
			c3.11-0.832,33.019-6.123,35.173-5.152c2.152,0.971,16.988-8.359,19.381-7.881s11.725-1.436,17.945-1.197
			c6.221,0.24,25.841,1.197,32.54,3.111s21.822,2.152,23.831,2.393c2.01,0.238,24.502-1.197,27.852-2.154s16.748,1.197,17.705-0.479
			C248.946,161.234,251.099,160.474,250.381,160.017z M110.887,164.458c-4.785-0.115-17.227,0.125-23.209,1.32
			c-5.98,1.197-20.815,4.041-24.883,3.336c-4.068-0.703-26.32-7.402-31.823-7.881c0,0,5.981-1.676,15.073,0
			c9.093,1.674,8.614,2.861,18.902,3.225c10.289,0.363,13.399-1.463,21.773-1.984c8.375-0.523,33.02-1.984,33.02-1.984
			S115.672,164.574,110.887,164.458z"/>
		<path fill="#9BCAED" d="M229.804,146.159c-1.914,0.24-20.577,1.436-24.166,0.479s-23.927-1.914-30.866-1.436
			c-6.938,0.479-20.815-0.717-26.08-0.479c-5.264,0.24-10.049-1.988-10.049-1.988s23.209-4.232,34.215-1.84
			c11.007,2.393,30.388,2.393,32.541,2.153s11.246-0.957,16.271-0.957s14.355,3.11,17.228,1.914
			c2.871-1.196,6.699-3.379,4.067-3.843s-10.767,0.942-12.921,0c-2.153-0.942-7.656-0.926-15.074-0.097
			c-7.417,0.829-11.963-0.147-13.638-0.616s-16.271-7.887-24.645-7.408s-27.517,0.239-29.431,0.957s-9.81,0.718-11.006,0.239
			s-4.547-3.129-8.135-2.88c-3.59,0.249-15.105,4.328-17.707,4.794c-9.331,1.675-11.963-2.153-11.963-2.153
			s17.227-4.067,23.927-5.981s17.946-1.196,23.448,0c5.504,1.196,11.246,1.914,13.16,1.436s12.92-4.785,16.988-4.067
			c4.067,0.718,33.02,4.767,37.086,5.972c4.068,1.206,17.945,2.641,19.621,2.163c1.674-0.479,7.656-0.976,9.092-2.163
			s-9.092-3.58-17.467-4.537s-21.295-1.675-22.97-2.871s-11.964-3.35-15.074-3.589s-25.122,2.632-29.19,2.872
			s-32.302-3.378-36.369-2.886s-16.749-3.814-19.62-3.814s-25.384-4.748-29.669-4.307c-16.271,1.675-34.455-2.872-34.455-2.872
			s31.345-1.675,36.848,0s28.951,4.307,33.498,5.503c4.545,1.196,29.668,4.307,34.215,4.546s24.363-2.871,29.17-2.393
			s29.451,2.153,33.279,4.067s25.602,2.154,27.277,1.915c1.674-0.239,11.963-5.503,12.681-6.939s-11.007-0.479-16.271-0.957
			s-16.988,1.675-20.099,1.196s-18.663-4.546-23.688-6.46s-13.878-1.915-22.013,0s-19.619,3.829-25.602,3.111
			s-14.117-4.786-17.706-4.546s-22.491,0.697-28.474-0.01c-5.98-0.708-28.951-4.774-28.951-6.45s12.682-1.675,13.878-3.829
			s-8.136-2.632-9.093-2.632s-10.049-0.479-13.159,0s-16.51-1.196-18.663-4.067s-7.656-6.221-10.049-6.221
			s-10.132,0.04-11.964,1.196C7.524,88.256,0,89.453,0,89.453v11.724c0,0,11.59-5.025,16.615-4.068s21.056,3.589,21.056,3.589
			s-15.552,2.632-19.38,3.35C14.462,104.766,0,106.201,0,106.201v10.049c0,0,9.676-3.589,16.376-2.871s24.166,3.875,28.952,3.971
			c4.785,0.096,20.338-3.493,25.123-2.775s26.559,5.742,28.712,5.742s10.05,0.239,10.05,0.239s-10.662,8.064-25.363,5.743
			c-9.092-1.436-12.453,0.399-22.252,0.718c-7.981,0.26-16.748,2.153-20.576,0.718c-3.829-1.436-5.504,2.853-11.485,2.623
			s-14.356-1.905-18.185-3.819S0,126.778,0,126.778v17.945c0,0,22.42-0.838,26.186-1.196c4.308-0.408,8.615-1.771,14.117,0.431
			c5.504,2.201,26.799,8.901,28.234,8.661c1.436-0.238,24.166,2.166,33.736,0.006c9.57-2.159,24.646-4.909,33.02-4.491
			s27.037,1.615,29.43,2.811c2.393,1.196,16.031,0.719,17.945,0c1.914-0.717,17.945,0,21.534,0.719
			c3.589,0.718,11.006,2.304,13.399,1.87c2.393-0.436,16.031-0.135,19.141,0.074c3.111,0.209,13.783-4.106,13.783-4.106
			S231.718,145.92,229.804,146.159z M91.268,148.313c-13.399-1.197-15.553-4.307-20.099-4.307s-8.853-1.436-8.853-1.436
			s8.373-7.178,16.987-4.546s18.663,5.742,20.338,5.742s12.681,0,12.681,0S104.667,149.508,91.268,148.313z"/>
		<path fill="#9BCAED" d="M0,67.92c0,0,29.057-1.914,33.124,0s6.938,1.914,6.938,4.307s-11.244,0.479-15.791,2.393S0,77.97,0,77.97
			V67.92z"/>
		<path fill="#9BCAED" d="M56.094,56.436c1.819,0.642,20.1-2.154,24.645-2.154c4.547,0,31.345-1.197,34.694,1.077
			s5.503,4.666,3.11,6.102s-8.854,0.957-11.963,2.393c-3.111,1.436-9.811,1.675-14.835-1.436s-20.577-1.675-23.927-1.675
			s-16.749,1.675-19.142,1.675s-5.981-1.93-6.222-2.999C42.217,58.35,52.028,55,56.094,56.436z"/>
		<path fill="#9BCAED" d="M131.943,69.356c1.507,0.143,8.136,0.479,11.724,0c3.59-0.479,9.332-3.615,10.289-2.286
			s-9.093,8.507-14.117,8.028s-9.053,0.524-14.576,0.023c-5.521-0.501-24.663-2.467-26.578-4.116
			c-1.914-1.649,10.768-5.676,13.639-4.261S128.336,69.015,131.943,69.356z"/>
		<path fill="#9BCAED" d="M105.383,91.129c-0.086-0.953,23.21-0.718,26.081,0s23.448,2.153,25.841,2.153s24.404-2.313,25.362-2.472
			s-8.136,7.497-13.399,8.693s-16.27-2.154-20.816-1.915c-4.545,0.239-12.642,4.068-23.189,3.35
			C114.715,100.222,105.624,93.761,105.383,91.129z"/>
		<path fill="#9BCAED" d="M196.918,101.029c0.072-1.527,14.461-5.593,18.051-6.55c3.589-0.957,27.275-0.062,30.387,1.285
			s14.117,4.697,17.228,3.5s11.724-3.89,14.356-3.5c2.632,0.39,16.51,6.372,15.791,8.525c-0.717,2.153-13.398-1.196-16.27,0
			s-15.793,3.828-18.902,2.393c-3.111-1.436-13.398-4.307-19.859-4.067s-21.773,3.11-29.191,2.871
			C201.091,105.246,196.812,103.271,196.918,101.029z"/>
		<path fill="#9BCAED" d="M180.993,76.294c-0.448,2.691,14.117,5.743,17.228,4.786s13.638-9.201,10.528-10.223
			c-3.111-1.022-7.656-2.566-14.596,0S181.232,74.858,180.993,76.294z"/>
		<path fill="#9BCAED" d="M170.684,52.607c0.234-0.491,15.094,2.002,17.965,1.36s12.493,1.751,13.783,2.229
			c1.291,0.479,5.598,0.941,4.881,3.222c-0.719,2.281-12.682,9.864-15.314,7.029C189.368,63.613,168.51,57.153,170.684,52.607z"/>
	</g>
</g>
</svg>
