<svg xmlns="http://www.w3.org/2000/svg" width="200" height="200" viewBox="-10 -120 500 500" preserveAspectRatio="xMidYMin slice">
  <path d="M400.09 168.896c-.905-1.585 2.72-3.85 2.72-3.85s-4.304 1.36-5.89.906 1.133-2.943 1.133-2.943l-7.02-.91c0-2.04 3.397-3.4 3.397-3.4s-6.794-.68-7.473-2.95 7.473-4.98 7.473-4.98-10.643-1.14-13.587-1.59-9.51-.68-9.963-2.04 27.172-3.17 27.172-3.17l-24.002-1.14c2.943-2.04 16.983-4.76 16.983-4.76s-5.208-1.36-5.208-2.72 7.245-2.49 6.34-2.49-9.284-1.59-9.058-1.81 7.926-3.63 7.926-3.63l-4.756-1.59s7.246-.91 5.888-1.81-16.53-2.95-14.944-2.95 14.04-3.4 12.91-3.4-6.56-2.95-6.56-2.95 6.34-1.59 6.34-2.27 5.21-4.53 5.21-4.53-1.58-.22-2.26-1.36 4.31-3.62 2.95-3.85-2.71-1.58-2.71-1.58l1.81-2.49s-24 10.87-25.81 12-42.12 23.55-43.48 24.23-28.98 7.47-29.43 4.98 1.82-5.21 1.82-6.57 11.32-11.54 11.32-11.54-6.79-1.59-10.87-1.81-22.19.45-24.23.45-5.2-1.36-5.2-1.36-6.79 12-8.83 15.62-4.75 2.49-7.24 4.08-7.47.68-9.51-2.72 2.04-10.19 2.04-10.19l-6.56 3.17s-2.04-2.72-4.53-4.08-2.49-7.25-2.49-7.25l-3.62 3.85s-3.62-2.95-4.98-3.63 0-7.02 0-7.02l-5.66 4.3s-2.49-2.04-4.08-5.21-1.36-11.32-1.36-11.32-6.79 9.96-14.72 6.79c-4.61-1.846-2.71-5.66-2.71-5.66s-15.62 18.79-23.09 23.773c-3.33 2.22-6.34 4.08-11.32 3.85-.9-.04-2.94-4.75-2.94-4.75s-1.35.9-2.71 4.98-16.75 14.72-18.56 16.072-33.52 5.89-40.08 8.38-39.86 14.27-43.48 16.98S15.16 187 15.16 187l-.504 5.21s7.977 4.98 13.865 8.15 17.89 7.7 17.89 7.7-8.57-.204-16.07-.68c-1.43-.09-15.17-3.623-15.17-3.623s-3.85 7.473 9.74 14.04c17.42 8.417 42.12 4.3 43.7 3.85s.46-2.49.46-2.58-16.98-.817-29.89-1.95-12.68-5.66-12.68-5.66 15.4 1.585 18.34 2.49 9.06-1.584 9.97-1.584 6.57 2.036 8.61 2.262 7.02 0 7.7-2.943-2.49-8.38-3.39-9.51-12.45-7.246-17.66-7.925-18.57-4.53-18.79-5.21 14.49-8.15 16.99-9.51 25.59-10.41 25.59-10.41-3.17 10.19-5.88 11.546c-1.03.52-7.92 5.21-7.92 5.21s-.9 1.813 3.17 4.304 14.49 1.584 18.12-.228 5.44-6.57 5.44-6.57 2.72 4.53 4.53 8.37-.9 14.26-.9 14.26 6.34-3.17 7.92-4.08.23-13.59-3.85-16.76-7.242-3.85-7.242-3.85l-.453-4.07-6.79-11.1s29.44-8.38 34.19-10.64 17.67-3.62 23.78-5.44 45.74-4.3 47.55-4.53 53.44-.45 63.4 1.13 43.25 0 59.327-.45 18.34-5.89 21.74-4.76 7.927.45 7.927 6.34c0 9.51-5.43 11.77-6.79 12.68s-37.13 4.75-40.08 5.43-34.41 10.64-39.4 12.9c-20.01 9.09-28.54 8.51-41.32 13.81-21.85 9.06-59.02 13.85-65.33 15.4-5.31 1.3-19.02.45-19.02.45s2.27-7.25 2.27-8.83-2.49-16.31-2.72-16.99-8.6-7.7-10.64-9.29-17.21-5.89-16.988-4.76 9.05 8.6 10.41 8.6 6.72 3.29 9.28 9.74c4.23 10.61-2.49 16.75-5.21 20.15S90.8 217.54 90.8 217.54s16.53 2.04 20.15 1.36 13.59-7.24 13.59-7.24 8.83 1.81 15.17 2.26 16.525-1.13 24.68-2.49 31.47-6.56 31.47-6.56 7.02 1.81 12.23 2.49 17.21 0 17.21 0 1.13-4.3 2.04-4.753 6.15-9.79 7.695-10.19c3.118-.82 29.893-10.648 30.8-10.42s9.06 5.205 9.287 7.02 4.98 6.34 7.02 5.66 19.92-9.286 22.19-9.965 12.68-4.76 12.68-4.76-1.046-1.85-3.17-4.3c-1.49-1.71-3.85-6.34-2.948-6.112s22.646-4.075 23.777-3.622 24.23 4.53 27.85 4.754 21.29 1.82 27.63 2.27 15.17-2.04 15.17-2.04-4.3-.454-5.2-2.04zm-351.88 29.21c1.358 0 14.718 4.53 16.077 8.378s-8.7-.705-13.586-1.585c-6.28-1.14-26.26-11.55-26.26-11.55s22.42 4.75 23.78 4.75zm32.833-19.02c-1.36 4.755-4.528 7.246-6.114 7.925s-4.31-.9-4.31-.9 4.58-4.13 5.34-6.14 2.35-7.21 2.35-7.21 4.07 1.59 2.71 6.34zm78.572-38.267c-7.925 4.52-11.548 2.94-11.548 2.94l10.19-11.32s7.018-.68 8.15-1.59-3.01 7.8-6.792 9.96zm18.568-1.59h-8.152s8.38-7.93 9.51-11.55S192 107.75 192 107.75s3.17 2.49 4.982 2.49 7.02.453 7.02.453l-14.27 17.44-11.547 11.094zm16.983 0c-1.812.22-9.736 1.79-9.284-1.83 0 0 9.737-6.33 11.774-9.27s11.322-14.27 11.322-14.27 2.717 4.53 3.396 4.75-7.247 10.96-8.378 12.16-7.02 8.21-8.83 8.44zm7.698 0s.226-.21.6-.57c1.786-1.68 6.95-6.63 7.325-7.88.45-1.52 7.92-10.13 7.92-10.13s4.98 4.75 6.79 4.75-8.38 12.68-9.29 13.81-13.36 0-13.36 0zm19.247.5s8.84-9.06 9.74-9.54 4.53 2.01 4.53 2.01l-7.13 7.55-7.13-.03zm12.69 1.31l4.3-3.64 2.72 3.63h-7.02zm25.82 0s10.19-15.63 12-15.63-5.66 15.4-6 16.53-6-.91-6-.91zm10.19 1.25s-.45-.47 0-2.56 6.79-14.54 7.93-14.32 3.63-2.19 3.17 1.39-10.19 18.99-11.09 15.47zm9.74-2.53c.22-.73 3.85-12.46 5.66-12.95s3.63-1.32 3.63 0-10.41 16.72-9.28 12.94zm6.57 1.28s.23-2.06 0-3.64 6.34-11.3 7.93-11.31-3.62 11.77-7.92 14.94zm-79.25 60.68l6.45-3.17s4.42 1.81 5.33 3.17-11.77 0-11.77 0zm14.27-3.17l-2.49-2.49 4.98-1.59-2.49 4.07zm49.6-17.1c0-1.02 1.19-4.64 1.19-4.64l7.3 9.28s-8.48-3.63-8.48-4.65zm10.24 2.6c.86-.91-2.72-4.08-1.5-5.44l8.39 4.53s-7.74 1.81-6.88.9zm3.19-8.38s4.91.22 4.69 1.13 2.72 4.75 2.72 4.75-7.56-3.62-7.4-5.89zm16.46 4.07c-.22 1.13-2.7 1.36-4.52 0s-4.53-4.08-4.53-4.08 6.34-.91 7.24 0 2.05 2.94 1.82 4.07zm4.08-4.08l-4.07-2.95s2.72-2.04 4.07-2.04 0 4.98 0 4.98zm46.65-48.88c4.53-2.3 9.74-3.32 9.74-3.32s-10.64 9.89-20.15 11.45c0 0 5.89-5.84 10.42-8.14zm7.81 40.49c-10.53-1.13-9.85-4.2-9.85-4.2s17.89 3.97 19.7 1.93.68 3.4-9.85 2.26zm11.66-4.3c-1.58-.91-8.15-1.77-10.64-2.13s-11.55-1.27-12-6.25c0 0 11.33 4.53 12.91 3.62s17.21.12 17.21.12-5.88 5.54-7.47 4.64z"/>
  <path d="M123.61 176.37c.204-1.418 7.247-.227 8.38-1.36s4.075-5.433 5.434-4.754 3.396 1.812 4.98.906 4.303-4.302 6.115-3.623 4.98.72 5.88-.09.68-3.76 3.17-3.31 3.39.81 5.21-.05 4.3-3.31 5.89-3.22 5.21 1.67 6.11.99 2.94-3.17 4.53-2.72 4.75 1.85 5.66 1.72.22-3.98 2.71-3.76 4.07 1.81 7.24 2.04 4.3-1.83 6.11-2.05 3.85 2.04 5.43 2.04 8.15-1.59 8.83-.23 1.09 2.72-5.34 3.85-5.3-3.36-5.98-1.91-2.72 3.26-3.62 3.26-1.14-3.63-3.17-1.81-2.72 2.26-3.4 2.26-3.4-2.27-3.85-1.59-2.49 2.03-2.49 2.03-1.59-1.81-3.17-1.81-2.49 2.26-3.4 2.26-6.34-2.95-6.34-.91-2.72.65-1.59 2.14-5.66-1.72-6.57 0-.23 3.06-2.72 3.74-3.62-2.26-5.21-.9-2.04 3.17-4.08 3.17-2.49-.68-3.4.46-2.94 3.62-4.3 3.17-2.72-.12-3.85.05-.68 2.89-2.04 2.89-4.31-2.04-5.44-1.36-3.63 2.26-5.21 2.72-6.8-2.72-6.57-4.31zm96.915-19.272s3.85-2.013 5.887-1.56 2.717 1.535 4.53 1.56 2.49-2.104 4.754-.813 4.98.52 5.887 0 2.265-3.012 3.623-1.88 2.717 1.002 4.302-.29 5.66-1.65 7.246 0 4.302.744 6.114-.162 3.85.613 5.208 1.1 3.623-2.09 5.208-2.047 4.302.947 5.66.947 3.624-2.717 5.888-2.038 4.755.01 6.567-.11 5.66-.334 6.79 0 7.24-1.598 9.73-.178 5.43-2.475 11.09-.527 7.47 1.003 6.34 2.72-6.11 2.17-7.02 1.944-3.1-1.81-4.61-.226c-1.51 1.585-6.72-.454-8.53-.68s-4.76 4.077-5.21 3.397-3.85-1.634-5.89-1.157-5.44 1.56-6.34 0-2.95-.024-4.98 0-4.76-.735-4.76 1.23-3.98-.35-4.94-1.23-7.75 5.05-7.98 3.782-5.44-3.757-6.12-2.625-5.21 3.213-6.34 2.625-5.44-3.758-6.57-2.4-7.25-.904-8.38-.452-8.15 4.982-9.74 4.53-9.06-1.862-7.48-5.46z"/>
  <path d="M193.126 168.906s-5.66-3.86-32.38 7.462c-9.232 3.912-26.267 16.077-26.267 16.077s8.37 2.943 10.86 4.755 5.88 5.435 5.88 5.435 22.87-2.944 30.11-8.152c3.62-2.606 6.79-10.416 6.56-12s5.21-13.577 5.21-13.577zM180.9 184.294c0 .68.226 7.473-9.737 10.87s-14.492 3.395-14.492 3.395l15.86-9.74.23-1.81s-18.11 8.15-17.43 6.56 19.02-12.87 19.02-12.87l-27.4 11.05s-1.23-.15-1.77-1.07l-.26.16v-1.13c0 .4.11.71.27.97 2.21-1.35 18.08-10.97 21.02-11.39 3.17-.46 17.67-6.34 17.67-6.34s-2.94 10.64-2.94 11.32zm229.552-32.536s4.062 1.44 4.485 1.523 1.016 4.49 0 5-2.54 2.54-3.64 2.2-.252-8.38-.845-8.71zm7.278-1.778s4.232.17 4.232.677 2.03 7.364 1.946 7.787-4.57.084-5.078-1.1-1.1-7.364-1.1-7.364zm8.55 1.778s2.792 2.878 2.792 3.47.254 3.227-.423 3.39-3.38-1.228-3.21-1.797.22-5.7.83-5.06zm6.77-13.628c-.422-1.437-2.2-16.758-2.708-17.012s-5.84.508-6.18 0 3.05-5.84 3.05-6.094-1.948-2.877-2.202-3.3-11.257.337-12.272 0-3.544-2.518-3.98-2.794c-.812-.517-1.776 6.263-2.114 7.617s-6.77 6.01-6.01 6.18c1.386.306 4.23 3.385 4.665 3.385s6.25-9.14 6.5-9.48 6.01-.168 6.43 0-1.27 4.402-1.61 4.91-5.51.423-6.1.762.32 5.64.59 8.464c.39 4.063 0 16.337 1.18 16.335 1.95-.002 20.56-2.285 20.73-2.708s.42-4.825 0-6.264zm-19.043-5.247c-.34-1.185-.76-6.415 0-6.517.588-.08 3.894-.847 4.063 0s.34 7.11 0 6.94-3.724.762-4.063-.423zm4.258 8.803c-.364.254-2.903.762-2.734 0s-.68-4.09 0-4.147c.6-.05 2.09-.34 2.74 0s.37 3.89 0 4.14zm5.136-10.41c.17-.51-.52-5.21 0-5.305.6-.1 3.05-.62 3.39.48s1.02 4.83.51 4.83-4.06.51-3.89 0zm5 9.31c-.42.338-4.14 1.862-4.14.677v-4.74c.34 0 3.73-1.016 4.15 0s.42 3.725 0 4.063zm1.78 8.294s-.25 4.91 0 5.42 1.78 2.874 2.12 2.96.85-5.08.99-5.502-3.11-2.878-3.11-2.878z"/>
  <path d="M441.938 128.003c-.17-.733 1.947-.62 2.455-.706s.593 2.116.508 2.708 13.12.338 14.05-.423.09-2.285-.33-2.285h-8.21s-.68-1.27-.68-1.777 7.54-.508 8.81-.762.6-2.793.34-2.878-9.06 0-10.41 0-1.01-2.285-1.01-2.624 4.32-.17 4.83-.084.09.762.09 1.608 2.37.338 3.22 0 5.76-3.47 5.93-3.725-.76-2.54-.76-2.54-9.9.51-10.75.594-8.71 0-9.22 0-.42-1.11-.4-1.44 10.65-1.7 10.73-2.2.17-4.41-1.18-4.49-10.41 3.55-11.08 2.99-1.6-4.18-1.69-4.61-6.34.42-5.84.84 2.97 7.61 2.97 8.21-4.65 0-4.65 0 .26 4.4.48 5.25 4.01.16 4.01.16 3.05 15.23 3.64 22.43-3.89 16.84-3.89 16.84 6.69.08 6.69-.49 2.03-12.04 1.78-14.24-.17-15.66-.34-16.39zm-1.608-5.615c.084-.17-.5-2.256 0-2.285 0 0 2.877-.254 3.385.508s.17 1.7 0 1.78-3.47.17-3.385 0z"/>
  <path d="M445.545 133.73c-.377.013.37 11.257 0 11.765s17.13-1.016 17.807-1.016-.17-11.01-.34-11.6-5.5.17-6.516.34-10.95.5-10.95.5zm2.91 2.116s2.793-.423 2.878.593.084 2.33-.34 2.69-2.538.06-2.538 0-.4-3.24 0-3.29zm2.922 7.448c-.383 0-2.583 1.1-2.414.508s0-2.624 0-2.624c.254 0 2.204-.508 2.414 0s.383 2.116 0 2.116zm8.08-.83c-.337-.1-3.215.204-3.3.01s-.386-1.45 0-1.522c0 0 3.647-.733 3.644 0s0 1.614-.34 1.513zm.255-6.11c.254.34-.084 2.116-.423 2.37s-3.81 1.15-3.56.406-.41-2.743 0-2.776c0 0 3.72-.34 3.98 0zm10.918 19.382c-.253-.338-2.623.423-3.13.4s-1.186-9.033-1.44-9.033-18.795 1.655-19.467 1.777c-.826.15 0 7.956-.084 8.38s-2.12.083-2.53 0 .24 3.808 0 4.146 25.88-1.44 26.31-1.44.59-3.89.33-4.23zm-17.012.4c-.508.023-2.112.277-2.24-.315s-.537-4 0-4.11c.05-.01 1.986-.45 2.24.06s.508 4.36 0 4.38zm4.655-.57c-.424.34-2.726.34-2.675 0s-.447-3.945 0-4.05c.418-.1 2.675-.376 2.675.187s.424 3.526 0 3.864zm4.402-.4c-.424.316-2.454.28-2.285 0s-.422-3.622 0-3.652c.337-.024 2.453-.264 2.623.244s.086 3.095-.338 3.41zm142.94 120.38c-.905-1.585 2.72-3.85 2.72-3.85s-4.304 1.358-5.89.905 1.133-2.94 1.133-2.94l-7.02-.9c0-2.03 3.397-3.39 3.397-3.39s-6.794-.68-7.473-2.94c-.68-2.26 7.473-4.98 7.473-4.98s-10.643-1.13-13.587-1.58-9.51-.68-9.963-2.04 27.172-3.17 27.172-3.17l-24.002-1.13c2.943-2.03 16.983-4.75 16.983-4.75s-5.208-1.36-5.208-2.71 7.245-2.49 6.34-2.49-9.284-1.58-9.058-1.81 7.926-3.62 7.926-3.62l-4.756-1.58s7.246-.9 5.888-1.81-16.53-2.94-14.944-2.94 14.038-3.4 12.906-3.4-6.566-2.94-6.566-2.94 6.34-1.58 6.34-2.26 5.208-4.53 5.208-4.53-1.585-.22-2.265-1.36 4.3-3.62 2.94-3.85-2.72-1.58-2.72-1.58l1.81-2.49s-24 10.87-25.82 12-42.12 23.55-43.48 24.23-28.99 7.47-29.44 4.98c-.46-2.49 1.81-5.21 1.81-6.56s11.32-11.55 11.32-11.55-6.8-1.59-10.87-1.82-22.19.46-24.23.46-5.21-1.36-5.21-1.36-6.8 12.01-8.83 15.63-4.76 2.49-7.25 4.08-7.48.68-9.51-2.71c-2.04-3.39 2.03-10.19 2.03-10.19l-6.57 3.17s-2.04-2.71-4.53-4.07-2.49-7.24-2.49-7.24l-3.63 3.85s-3.63-2.94-4.98-3.62c-1.36-.68 0-7.02 0-7.02l-5.66 4.3s-2.49-2.04-4.08-5.21-1.36-11.32-1.36-11.32-6.79 9.97-14.72 6.8c-4.62-1.85-2.72-5.66-2.72-5.66s-15.63 18.79-23.1 23.77c-3.33 2.22-6.34 4.07-11.32 3.85-.91-.04-2.95-4.76-2.95-4.76s-1.36.9-2.72 4.98c-1.36 4.074-16.76 14.72-18.57 16.08s-33.51 5.88-40.08 8.37-39.85 14.26-43.48 16.98c-3.63 2.72-37.36 17.89-37.36 17.89l-.51 5.21s7.98 4.98 13.86 8.15 17.88 7.694 17.88 7.694-8.58-.2-16.08-.68c-1.43-.09-15.17-3.62-15.17-3.62s-3.85 7.47 9.74 14.04c17.41 8.42 42.12 4.3 43.7 3.85 1.59-.45.45-2.49.45-2.58s-16.99-.82-29.89-1.95c-12.91-1.13-12.68-5.66-12.68-5.66s15.39 1.59 18.34 2.49c2.94.91 9.06-1.58 9.96-1.58s6.57 2.04 8.6 2.26 7.02 0 7.7-2.94-2.49-8.38-3.4-9.51c-.9-1.13-12.45-7.25-17.66-7.93-5.21-.68-18.57-4.53-18.79-5.21s14.49-8.15 16.98-9.51c2.49-1.36 25.59-10.416 25.59-10.416s-3.17 10.19-5.89 11.545c-1.03.52-7.93 5.21-7.93 5.21s-.91 1.81 3.17 4.306c4.07 2.49 14.49 1.58 18.11-.23 3.624-1.816 5.436-6.57 5.436-6.57s2.72 4.53 4.53 8.38-.9 14.26-.9 14.26 6.34-3.17 7.92-4.073.22-13.583-3.85-16.753-7.25-3.85-7.25-3.85l-.45-4.076c-.45-4.076-6.79-11.1-6.79-11.1s29.43-8.375 34.19-10.64c4.75-2.26 17.66-3.62 23.77-5.43s45.74-4.3 47.55-4.53 53.44-.45 63.4 1.135 43.25 0 59.33-.45 18.34-5.88 21.736-4.75 7.93.46 7.93 6.34c0 9.52-5.435 11.78-6.794 12.68s-37.14 4.76-40.08 5.44c-2.94.68-34.42 10.64-39.4 12.91-20.01 9.1-28.546 8.52-41.32 13.82-21.85 9.06-59.02 13.854-65.33 15.395-5.31 1.3-19.02.45-19.02.45s2.263-7.25 2.263-8.83c0-1.59-2.49-16.304-2.715-16.983s-8.6-7.7-10.64-9.28c-2.03-1.58-17.21-5.89-16.98-4.75s9.06 8.6 10.42 8.6 6.72 3.29 9.29 9.74c4.23 10.61-2.49 16.755-5.21 20.15-2.72 3.4-21.51 10.42-21.51 10.42s16.53 2.035 20.15 1.355c3.62-.68 13.59-7.25 13.59-7.25s8.83 1.81 15.17 2.26c6.34.46 16.53-1.13 24.68-2.49 8.15-1.35 31.47-6.56 31.47-6.56s7.02 1.81 12.23 2.49c5.21.68 17.21 0 17.21 0s1.13-4.3 2.04-4.753c.9-.45 6.15-9.78 7.7-10.19 3.11-.82 29.89-10.64 30.79-10.42.91.23 9.06 5.21 9.29 7.02.23 1.81 4.98 6.34 7.02 5.66s19.93-9.28 22.19-9.96 12.68-4.75 12.68-4.75-1.04-1.85-3.17-4.3c-1.49-1.71-3.85-6.34-2.94-6.11s22.64-4.08 23.77-3.63 24.23 4.53 27.85 4.76 21.29 1.81 27.63 2.26 15.17-2.036 15.17-2.036-4.31-.46-5.21-2.04zm-351.88 29.21c1.358 0 14.718 4.53 16.077 8.38s-8.7-.706-13.586-1.587c-6.28-1.14-26.266-11.55-26.266-11.55s22.417 4.75 23.775 4.75zm32.833-19.02c-1.36 4.755-4.528 7.247-6.114 7.925-1.585.68-4.302-.9-4.302-.9s4.58-4.13 5.347-6.14 2.35-7.21 2.35-7.21 4.07 1.59 2.71 6.34zm78.573-38.27c-7.92 4.53-11.54 2.946-11.54 2.946l10.19-11.322s7.02-.68 8.15-1.585-3.01 7.802-6.79 9.963zm18.57-1.583h-8.15s8.38-7.925 9.51-11.548c1.14-3.623 12.46-19.926 12.46-19.926s3.17 2.49 4.98 2.49c1.82 0 7.02.45 7.02.45l-14.26 17.43c-2.03 2.49-11.54 11.09-11.54 11.09zm16.98 0c-1.81.227-9.73 1.788-9.28-1.823 0 0 9.74-6.328 11.78-9.272s11.33-14.266 11.33-14.266 2.72 4.53 3.4 4.755c.68.227-7.24 10.964-8.38 12.162s-7.01 8.21-8.83 8.44zm7.7 0s.23-.21.6-.563c1.79-1.68 6.95-6.625 7.33-7.88.45-1.52 7.93-10.125 7.93-10.125s4.99 4.755 6.8 4.755c1.82 0-8.37 12.68-9.28 13.813s-13.36 0-13.36 0zm19.25.504s8.83-9.058 9.74-9.536 4.53 2.02 4.53 2.02l-7.13 7.55-7.13-.02zm12.68 1.308l4.31-3.635 2.72 3.635h-7.02zm25.82 0s10.19-15.624 12.01-15.624c1.81 0-5.66 15.4-6 16.53s-6-.9-6-.9zm10.19 1.248s-.45-.468 0-2.556c.46-2.088 6.8-14.542 7.93-14.316s3.63-2.18 3.17 1.4-10.19 18.99-11.09 15.48zm9.74-2.53c.22-.724 3.85-12.455 5.66-12.945 1.81-.49 3.63-1.32 3.63 0s-10.41 16.723-9.28 12.945zm6.57 1.282s.23-2.062 0-3.635 6.34-11.3 7.93-11.305c1.59-.005-3.62 11.77-7.92 14.94zm-79.26 60.685l6.45-3.17s4.42 1.812 5.33 3.17c.91 1.36-11.77 0-11.77 0zm14.27-3.17l-2.49-2.49 4.98-1.587-2.49 4.076zm49.59-17.096c0-1.02 1.19-4.643 1.19-4.643l7.3 9.29s-8.48-3.62-8.48-4.64zm10.24 2.603c.86-.906-2.72-4.074-1.5-5.434l8.39 4.527s-7.74 1.814-6.88.907zm3.19-8.377s4.91.225 4.69 1.13c-.22.907 2.72 4.757 2.72 4.757s-7.56-3.623-7.4-5.887zm16.47 4.075c-.23 1.133-2.7 1.36-4.52 0-1.81-1.357-4.53-4.074-4.53-4.074s6.34-.9 7.24 0c.91.91 2.05 2.95 1.82 4.08zm4.08-4.075l-4.07-2.945s2.72-2.037 4.08-2.037 0 4.982 0 4.982zm46.65-48.873c4.52-2.303 9.73-3.32 9.73-3.32s-10.64 9.89-20.15 11.455c0 0 5.89-5.832 10.42-8.135zm7.81 40.494c-10.53-1.13-9.85-4.2-9.85-4.2s17.88 3.98 19.7 1.94c1.81-2.04.68 3.4-9.85 2.27zm11.66-4.3c-1.59-.9-8.15-1.77-10.64-2.13s-11.55-1.26-12.01-6.25c0 0 11.32 4.53 12.91 3.63 1.59-.9 17.21.12 17.21.12s-5.89 5.54-7.47 4.64z"/>
  <path d="M329.137 283.018c.203-1.416 7.246-.225 8.378-1.357s4.076-5.43 5.435-4.75c1.358.68 3.396 1.82 4.98.91s4.303-4.3 6.115-3.62c1.81.68 4.98.73 5.887-.09s.68-3.76 3.17-3.3 3.396.82 5.208-.04 4.303-3.3 5.888-3.21 5.207 1.68 6.113 1c.91-.67 2.95-3.17 4.53-2.71 1.59.46 4.76 1.86 5.66 1.72.91-.13.23-3.98 2.72-3.75 2.49.23 4.08 1.82 7.25 2.04s4.31-1.83 6.12-2.04 3.85 2.05 5.44 2.05 8.15-1.58 8.83-.22c.68 1.36 1.09 2.72-5.34 3.85s-5.3-3.35-5.98-1.9c-.68 1.45-2.71 3.26-3.62 3.26-.9 0-1.13-3.62-3.17-1.81-2.04 1.82-2.72 2.27-3.39 2.27s-3.39-2.27-3.85-1.59-2.49 2.04-2.49 2.04-1.58-1.81-3.17-1.81-2.49 2.27-3.39 2.27c-.9 0-6.34-2.94-6.34-.9 0 2.03-2.71.65-1.58 2.14 1.13 1.48-5.66-1.72-6.57 0s-.22 3.06-2.72 3.74c-2.49.68-3.62-2.26-5.2-.9-1.59 1.36-2.04 3.18-4.08 3.18s-2.49-.68-3.4.45c-.9 1.13-2.94 3.62-4.3 3.17-1.36-.45-2.72-.12-3.85.05s-.68 2.89-2.04 2.89-4.3-2.04-5.43-1.36-3.62 2.27-5.2 2.72-6.79-2.72-6.56-4.303zm96.913-19.27s3.85-2.013 5.888-1.56c2.038.45 2.718 1.535 4.528 1.56 1.813.024 2.492-2.105 4.756-.814s4.98.52 5.887 0c.9-.52 2.26-3.012 3.62-1.88 1.36 1.132 2.72 1 4.3-.292 1.58-1.293 5.66-1.65 7.24 0s4.3.746 6.11-.16c1.81-.907 3.85.613 5.21 1.1 1.36.483 3.62-2.09 5.21-2.048s4.3.947 5.66.947c1.36 0 3.62-2.71 5.88-2.03s4.75.01 6.56-.11c1.81-.12 5.66-.33 6.79 0 1.13.34 7.24-1.6 9.73-.18s5.43-2.47 11.09-.52c5.66 1.95 7.47 1.01 6.34 2.72-1.14 1.72-6.12 2.17-7.02 1.95s-3.1-1.81-4.61-.22c-1.51 1.59-6.72-.45-8.53-.68-1.81-.22-4.76 4.08-5.21 3.4s-3.85-1.63-5.89-1.16c-2.04.48-5.44 1.56-6.34 0-.91-1.56-2.95-.02-4.98 0-2.04.03-4.76-.73-4.76 1.23s-3.98-.34-4.94-1.23c-.96-.88-7.75 5.05-7.98 3.79-.23-1.27-5.44-3.76-6.12-2.62-.68 1.13-5.21 3.22-6.34 2.63s-5.44-3.76-6.57-2.4c-1.13 1.36-7.25-.9-8.38-.45-1.13.45-8.15 4.98-9.74 4.53-1.59-.45-9.06-1.86-7.47-5.46z"/>
  <path d="M398.652 275.557s-5.66-3.86-32.38 7.46c-9.233 3.913-26.267 16.08-26.267 16.08s8.378 2.942 10.87 4.753c2.49 1.813 5.886 5.436 5.886 5.436s22.87-2.943 30.12-8.152c3.63-2.605 6.8-10.416 6.57-12-.22-1.587 5.21-13.577 5.21-13.577zm-12.228 15.387c0 .68.228 7.473-9.736 10.87-9.963 3.395-14.492 3.395-14.492 3.395l15.852-9.74.227-1.82s-18.115 8.15-17.436 6.56c.67-1.59 19.02-12.86 19.02-12.86l-27.4 11.05s-1.23-.15-1.78-1.07l-.27.16v-1.13c0 .39.11.71.26.97 2.21-1.35 18.07-10.97 21.02-11.39 3.17-.46 17.66-6.35 17.66-6.35s-2.95 10.64-2.95 11.32zM230.45 70.194c-.907-1.585 2.717-3.85 2.717-3.85s-4.303 1.358-5.888.905 1.13-2.95 1.13-2.95l-7.02-.91c0-2.04 3.39-3.4 3.39-3.4s-6.8-.68-7.48-2.95 7.47-4.98 7.47-4.98-10.65-1.14-13.59-1.59-9.51-.68-9.97-2.04 27.17-3.17 27.17-3.17l-24-1.13c2.94-2.04 16.98-4.76 16.98-4.76s-5.21-1.36-5.21-2.72 7.24-2.49 6.34-2.49-9.29-1.59-9.06-1.82 7.92-3.63 7.92-3.63l-4.76-1.59s7.24-.91 5.89-1.81-16.53-2.95-14.95-2.95S221.6 19 220.47 19s-6.568-2.943-6.568-2.943 6.34-1.585 6.34-2.264 5.206-4.53 5.206-4.53-1.586-.228-2.266-1.36 4.302-3.624 2.943-3.85-2.717-1.585-2.717-1.585L225.24 0s-24.002 10.868-25.813 12-42.118 23.55-43.477 24.23-28.983 7.47-29.437 4.98c-.452-2.49 1.813-5.208 1.813-6.566s11.32-11.548 11.32-11.548-6.793-1.585-10.868-1.812-22.192.453-24.23.453-5.207-1.358-5.207-1.358-6.79 12-8.83 15.62-4.75 2.49-7.24 4.07-7.47.68-9.51-2.72c-2.04-3.4 2.04-10.19 2.04-10.19l-6.56 3.17s-2.03-2.72-4.53-4.08S62.22 19 62.22 19l-3.62 3.85s-3.623-2.944-4.98-3.623c-1.36-.68 0-7.02 0-7.02l-5.67 4.31s-2.49-2.04-4.073-5.21S42.507 0 42.507 0s-6.794 9.963-14.72 6.793c-4.615-1.846-2.716-5.66-2.716-5.66S9.45 19.925 1.98 24.907c-3.333 2.222-6.34 4.076-11.322 3.85-.91-.042-2.948-4.757-2.948-4.757s-1.36.907-2.718 4.98-16.755 14.72-18.566 16.08-33.512 5.886-40.08 8.377-39.852 14.266-43.475 16.983c-3.62 2.718-37.36 17.89-37.36 17.89l-.5 5.207s7.98 4.98 13.87 8.152c5.89 3.17 17.89 7.69 17.89 7.69s-8.57-.2-16.07-.68c-1.43-.09-15.17-3.62-15.17-3.62s-3.85 7.47 9.74 14.04c17.42 8.41 42.12 4.3 43.71 3.85s.45-2.49.45-2.58-16.98-.82-29.89-1.95c-12.9-1.14-12.68-5.66-12.68-5.66s15.4 1.58 18.34 2.49c2.95.9 9.06-1.59 9.97-1.59s6.57 2.03 8.6 2.26 7.02 0 7.7-2.94-2.49-8.38-3.39-9.51c-.91-1.13-12.45-7.25-17.66-7.93s-18.56-4.53-18.79-5.21 14.49-8.15 16.98-9.51C-118.9 79.46-95.8 70.4-95.8 70.4s-3.17 10.19-5.89 11.55c-1.03.51-7.922 5.2-7.922 5.2s-.904 1.81 3.17 4.3c4.078 2.49 14.49 1.58 18.117-.23 3.62-1.82 5.43-6.57 5.43-6.57s2.717 4.53 4.53 8.38-.91 14.26-.91 14.26 6.34-3.17 7.93-4.078c1.584-.906.226-13.587-3.85-16.757s-7.246-3.85-7.246-3.85l-.45-4.074-6.8-11.09s29.44-8.38 34.19-10.64 17.66-3.63 23.77-5.44 45.74-4.3 47.55-4.53 53.43-.45 63.4 1.13 43.25 0 59.32-.45c16.08-.45 18.34-5.88 21.74-4.75s7.92.46 7.92 6.34c0 9.52-5.43 11.78-6.79 12.68s-37.13 4.76-40.08 5.44c-2.94.68-34.42 10.64-39.4 12.91-20.01 9.1-28.55 8.52-41.32 13.82-21.86 9.06-59.03 13.86-65.34 15.4-5.32 1.3-19.02.46-19.02.46s2.26-7.25 2.26-8.83-2.49-16.3-2.72-16.98-8.61-7.7-10.64-9.28-17.21-5.89-16.98-4.75 9.05 8.6 10.41 8.6 6.71 3.29 9.28 9.74c4.23 10.61-2.49 16.76-5.21 20.15s-21.51 10.41-21.51 10.41 16.53 2.04 20.15 1.36 13.59-7.25 13.59-7.25 8.83 1.81 15.17 2.27 16.53-1.13 24.68-2.49c8.15-1.36 31.47-6.57 31.47-6.57s7.02 1.81 12.22 2.49c5.21.68 17.21 0 17.21 0s1.13-4.3 2.04-4.76c.9-.45 6.15-9.78 7.7-10.19 3.12-.82 29.9-10.64 30.8-10.42.906.23 9.06 5.21 9.284 7.02.226 1.81 4.98 6.34 7.02 5.66s19.926-9.28 22.19-9.96 12.68-4.76 12.68-4.76-1.04-1.86-3.17-4.3c-1.485-1.71-3.85-6.34-2.944-6.12.906.23 22.64-4.07 23.775-3.62 1.135.45 24.23 4.53 27.855 4.76s21.286 1.81 27.626 2.26c6.34.45 15.17-2.04 15.17-2.04s-4.31-.45-5.21-2.04zm-351.882 29.21c1.358 0 14.718 4.53 16.077 8.38s-8.7-.706-13.586-1.587c-6.28-1.13-26.27-11.547-26.27-11.547s22.42 4.754 23.77 4.754zm32.833-19.02c-1.35 4.755-4.52 7.246-6.11 7.925s-4.3-.91-4.3-.91 4.58-4.14 5.35-6.15 2.35-7.22 2.35-7.22 4.08 1.58 2.72 6.34zm78.58-38.267c-7.92 4.53-11.55 2.944-11.55 2.944l10.19-11.32s7.02-.68 8.15-1.58-3.01 7.8-6.79 9.97zm18.57-1.585H.39s8.378-7.925 9.51-11.548S22.354 9.057 22.354 9.057s3.17 2.49 4.982 2.49 7.02.454 7.02.454L20.088 29.44 8.54 40.532zm16.99 0c-1.81.227-9.73 1.788-9.28-1.823 0 0 9.74-6.33 11.78-9.28s11.32-14.27 11.32-14.27 2.72 4.53 3.4 4.75c.68.22-7.24 10.96-8.38 12.16s-7.02 8.21-8.83 8.44zm7.7 0l.6-.563c1.79-1.69 6.95-6.63 7.33-7.89.45-1.52 7.93-10.13 7.93-10.13s4.99 4.75 6.8 4.75c1.82 0-8.37 12.68-9.28 13.81s-13.36 0-13.36 0zm19.25.503s8.83-9.058 9.74-9.536 4.53 2.01 4.53 2.01l-7.14 7.55-7.13-.03zm12.68 1.308l4.31-3.635 2.72 3.635h-7.02zm25.82 0s10.19-15.623 12-15.623c1.81 0-5.66 15.39-6 16.53s-6-.91-6-.91zm10.19 1.248s-.45-.46 0-2.55c.46-2.09 6.8-14.54 7.93-14.31s3.62-2.19 3.17 1.4-10.19 18.99-11.1 15.48zm9.74-2.53c.22-.72 3.85-12.45 5.66-12.94 1.81-.49 3.63-1.32 3.63 0s-10.42 16.72-9.29 12.94zm6.57 1.29s.23-2.06 0-3.63 6.34-11.3 7.93-11.3c1.59 0-3.62 11.77-7.92 14.94zM38.2 103.03l6.45-3.17s4.42 1.812 5.324 3.17c.906 1.36-11.774 0-11.774 0zm14.266-3.17l-2.492-2.49 4.98-1.587-2.49 4.077zm49.59-17.097c0-1.02 1.188-4.642 1.188-4.642l7.3 9.29s-8.487-3.62-8.487-4.64zm10.243 2.605c.86-.905-2.72-4.074-1.5-5.434l8.39 4.53s-7.74 1.81-6.89.905zm3.19-8.377s4.91.23 4.68 1.13c-.23.91 2.72 4.76 2.72 4.76s-7.57-3.62-7.41-5.88zm16.46 4.08c-.23 1.13-2.71 1.36-4.52 0S122.89 77 122.89 77s6.333-.905 7.24 0c.905.905 2.046 2.944 1.82 4.076zm4.07-4.07l-4.08-2.94s2.71-2.04 4.07-2.04 0 4.98 0 4.98zm46.64-48.87c4.53-2.3 9.74-3.32 9.74-3.32s-10.64 9.89-20.15 11.46c0 0 5.88-5.83 10.41-8.13zm7.81 40.5c-10.53-1.13-9.85-4.2-9.85-4.2s17.89 3.98 19.7 1.94c1.81-2.03.68 3.4-9.85 2.27zm11.66-4.3c-1.59-.9-8.15-1.77-10.64-2.13s-11.55-1.27-12-6.25c0 0 11.32 4.53 12.9 3.62s17.21.12 17.21.12-5.89 5.54-7.47 4.64z"/>
  <path d="M-46.03 77.667c.203-1.417 7.246-.226 8.378-1.358s4.076-5.44 5.435-4.76 3.396 1.81 4.98.9c1.586-.91 4.303-4.31 6.115-3.63 1.812.68 4.98.73 5.887-.09s.68-3.76 3.17-3.31 3.396.81 5.208-.05 4.303-3.3 5.887-3.21 5.21 1.67 6.12.99 2.944-3.15 4.53-2.7 4.753 1.85 5.66 1.72.225-3.99 2.716-3.76 4.077 1.81 7.247 2.04 4.3-1.83 6.114-2.05 3.85 2.04 5.436 2.04 8.15-1.58 8.83-.22c.68 1.36 1.085 2.72-5.346 3.85-6.43 1.13-5.298-3.35-5.978-1.9s-2.72 3.26-3.63 3.26-1.13-3.62-3.17-1.81-2.72 2.27-3.4 2.27-3.4-2.26-3.85-1.59-2.49 2.04-2.49 2.04-1.59-1.81-3.17-1.81-2.49 2.26-3.4 2.26-6.34-2.95-6.34-.91-2.72.65-1.59 2.14-5.66-1.71-6.57 0-.23 3.07-2.72 3.75-3.63-2.27-5.21-.91-2.04 3.17-4.08 3.17-2.49-.68-3.4.45-2.95 3.62-4.3 3.17-2.72-.12-3.85.05c-1.13.17-.68 2.89-2.04 2.89s-4.31-2.04-5.44-1.36c-1.13.68-3.62 2.26-5.21 2.72s-6.8-2.72-6.57-4.31zm96.913-19.27s3.85-2.014 5.888-1.56 2.72 1.534 4.53 1.56c1.82.023 2.49-2.105 4.76-.814s4.98.52 5.89 0c.91-.52 2.27-3.012 3.63-1.88 1.36 1.133 2.72 1.002 4.31-.29s5.66-1.65 7.25 0c1.59 1.65 4.3.744 6.12-.162s3.85.62 5.21 1.1 3.62-2.08 5.21-2.04 4.3.95 5.66.95c1.36 0 3.62-2.71 5.89-2.03s4.76.01 6.57-.11c1.81-.11 5.66-.33 6.8 0 1.13.34 7.25-1.6 9.74-.18s5.44-2.47 11.1-.52 7.48 1.01 6.34 2.72-6.11 2.17-7.02 1.95-3.09-1.81-4.6-.22-6.72-.45-8.53-.68c-1.81-.22-4.76 4.08-5.21 3.4s-3.85-1.63-5.89-1.15-5.43 1.56-6.34 0c-.9-1.56-2.94-.02-4.98 0-2.04.03-4.75-.73-4.75 1.23s-3.98-.35-4.94-1.23-7.75 5.05-7.97 3.78c-.23-1.26-5.43-3.75-6.11-2.62s-5.21 3.22-6.34 2.63-5.43-3.75-6.56-2.4c-1.13 1.36-7.25-.9-8.38-.45-1.13.45-8.15 4.98-9.74 4.53-1.58-.45-9.05-1.86-7.47-5.46z"/>
  <path d="M23.485 70.205s-5.66-3.86-32.38 7.462c-9.232 3.912-26.267 16.077-26.267 16.077s8.378 2.943 10.87 4.755 5.886 5.43 5.886 5.43 22.87-2.95 30.116-8.15c3.627-2.61 6.793-10.42 6.566-12-.226-1.59 5.21-13.58 5.21-13.58zM11.257 85.59c0 .68.227 7.474-9.736 10.87s-14.49 3.396-14.49 3.396L2.88 90.12l.227-1.812s-18.115 8.15-17.436 6.566 19.02-12.86 19.02-12.86l-27.39 11.05s-1.22-.148-1.77-1.066l-.26.16v-1.13c0 .398.11.71.27.97 2.19-1.348 18.05-10.968 21-11.388 3.17-.452 17.67-6.34 17.67-6.34s-2.95 10.643-2.95 11.32z"/>
</svg>
