<svg xmlns="http://www.w3.org/2000/svg" width="200" height="200" viewBox="-30 -55 250 250" preserveAspectRatio="xMidYMin slice">
  <path d="M205.014 65.911c-.793-2.245-7.396-13.737-5.943-13.737s3.698-1.453 3.698-1.453-5.151-5.548-5.812-6.737-4.623-5.283-4.228-6.736c.908-3.336-2.905-7.661-3.037-8.454s.792-4.358.792-5.151 4.491-8.321 4.491-8.717-4.491-1.453-5.416-1.717-5.68 8.982-7.133 11.228-2.377 5.944-4.755 6.34-7.396 4.095-7.132 3.434.396-4.491.132-4.887 4.887-2.114 4.887-2.906-2.642-5.151-2.642-5.151-7.397 3.038-7.925 3.038-2.113-1.189-7.793-1.585-10.039 1.981-11.095 1.585-1.849-2.113-1.585-2.642 3.698-4.227 3.566-5.416-3.038-4.095-3.038-4.095 0 .66-1.453 1.461-6.736 6.2-6.869 5.011-2.906-6.736-3.698-7.661 0-7.265 0-7.265-4.359-2.377-5.151-2.377-2.113 8.189-2.113 8.189-.132-1.057-5.02.396-7.925 6.472-8.85 6.34-7.529-2.378-7.661-1.849 3.302 5.416 2.246 5.68-2.377 3.302-3.17 3.038-4.755-3.434-4.887-3.038 2.906 7.529 1.585 7.132-4.755-2.377-4.755-2.377-.132-1.189-1.057-3.698-3.831-6.076-11.095-9.774-7.397-6.076-8.189-7.529S73.984 0 73.984 0c-.924.396-7.265 2.245-7.265 2.245-.135 2.378 2.777 7.396 1.456 7.396s-1.057 2.113-1.057 2.113-14.397-1.321-16.114-1.189c-1.434.11-8.207-.148-9.787-.313 1.417.877 5.692 8.502 5.692 8.502s-6.604.528-7.925.528-9.51.396-10.831.396-9.774-1.453-11.888-1.85-3.038 1.85-2.774 2.246 10.963 9.51 8.982 10.303-2.774 9.114-2.774 9.114c-1.717-.396-3.038 1.981-3.17 1.321s.381-2.635-.528-2.774c-2.027-.309-4.623 11.492-5.944 12.284s-6.208-1.85-6.208-1.85.66 7.001 1.585 8.454 5.151 14.001 5.151 14.001S2.31 80.562.943 84.931c-4.028 12.872 6.075 20.34 7.396 20.208s10.831 6.604 12.68 7.793 4.095 4.227 10.17 3.698 10.963-3.302 12.681-3.83.922 2.245 8.188 3.698 7.661-.792 8.85.264 5.416 4.095 8.85 4.234 9.907-2.252 11.624-2.384.793.924 5.812 1.188 7.793-1.849 7.793-1.849 3.302 2.906 8.718 3.038 12.02-1.717 13.341-1.453 4.755 2.246 13.473-.66 7.264-9.245 8.057-9.113 4.887 1.321 7.132.661 5.284-3.434 6.34-3.963 5.151 7.001 15.058 6.473 24.304-4.623 30.248-10.039 6.076-15.322 6.208-16.379 4.623-4.359 4.888-7.661-2.643-10.699-3.436-12.944zm-89.288-47.022c.661-.924 3.435-3.566 7.397-3.566s5.944 3.831 5.68 4.491-4.755 5.812-5.416 5.416-2.51-1.717-3.17-1.849-4.094-.529-4.094-.132 2.377 7.265 1.981 8.454-4.887 6.076-5.944 5.548-5.284-7.133-6.869-7.925c0-.002 9.774-9.513 10.435-10.437zm-9.496 52.439c.116 1.188-3.979-.335-3.847-2.083s.927-4.917 2.907-5.182c.837-.112 2.266.924 1.793 1.453s-.969 4.623-.853 5.812zm-.939-12.613c-1.975-.064-6.478 3.614-6.852 3.995-.005.007-.014.029-.018.031-.018.009-.009-.004.018-.031.304-.392 1.859-8.094 4.605-8.026 0 0 7.028-.214 7.396 1.717s-3.035 2.383-5.149 2.314zm-31.04-46.036s6.34 1.453 8.189 3.038 7.529 9.114 7.661 9.51-4.755.793-5.416.661-3.302-4.095-6.736-5.812-3.83-5.944-3.698-7.397zm-8.718 8.058c2.246 0 7.529 2.245 8.982 3.962s2.642 3.306 2.642 3.306-4.755 2.638-7 5.148-4.491 6.604-4.491 6.604-6.208-7.397-8.454-10.963-5.548-8.718-5.548-8.718 11.624.661 13.869.661zm-18.888 9.51c7.265 3.302 6.736 4.094 8.718 7.925s2.51 6.473 2.51 6.473-12.416 2.245-13.605 2.509-6.34-6.733-9.51-9.575-7-9.313-7-9.313 11.622-1.321 18.887 1.981zM24.19 40.417c1.057-4.095 1.849-4.755 1.849-4.755s5.812 7.397 7.397 8.189 4.359 3.962 4.359 3.962-.925 2.51-.925 3.831-2.246 3.17-2.246 3.17l-1.321-6.34s-4.623-3.038-4.491-2.642.924 7.001 1.453 8.058-2.509-.396-4.227-3.435-2.904-5.943-1.848-10.038zm6.737 31.041s3.83.66 3.962 2.113-3.962 4.654-3.962 4.654.132-6.106 0-6.767zm-10.831-15.19c.528.132-3.076-3.131-2.642-6.604s-.528-4.425-.528-4.425 3.83 3.765 4.755 4.821.265 1.453 1.189 3.434 3.435 4.887 4.887 5.68 2.507 1.849 3.037 3.17 0 3.302 0 3.302-6.74-6.473-7.002-7.133-.267 2.378 0 3.17 7.399 6.208 7.795 6.604-2.641-.131-3.83.529-6.737-5.944-7.793-7.001-2.509-.528-3.038-2.906-.793-4.095-.793-4.095 3.434 1.322 3.963 1.454zm6.472 21.794c.132 1.189-5.944-4.491-5.944-4.491s1.585-2.113 3.434-2.113 2.378 5.415 2.51 6.604zm-9.642-16.907c.396.792 1.849 5.812 2.113 6.604s-.661 1.981-1.453 1.717-1.142-3.699-1.76-3.038-1.146.66-1.807-.792-1.453-6.076-1.453-6.076 3.964.793 4.36 1.585zm26.813 21.398c-.264.66-3.303 4.888-3.435 8.189s.579 14.397.579 14.397-8.9 4.887-9.957 4.887-4.755-5.151-6.736-5.812-13.87-4.095-15.322-5.416-5.283-5.944-1.717-11.228 7.793-9.347 7.793-9.347 2.246.894 2.246 1.686-1.849 4.095-2.246 6.208 1.123 5.812 1.123 5.812 4.424-6.208 5.877-6.076 3.834 3.962 4.625 3.962 1.583-8.585 3.564-8.85 5.812 0 6.472-.661 2.944-2.711 4.444-2.082 2.954 3.671 2.69 4.331zm21.662 31.701c-4.755-1.057-3.567-3.302-5.812-3.434s-3.831 1.453-8.454-.132-5.548-11.352-5.944-13.469 2.155-9.992 2.906-11.496c1.321-2.642 7.265-5.68 7.265-5.68s.661 3.699 2.246 4.227-3.698.661-4.887 2.642-2.906 4.491-2.906 4.491 4.359-1.32 5.812-1.188 3.434 1.188 3.434 1.188v4.887s4.623-3.302 5.944-3.698 4.623-1.981 4.623-2.774v-1.569l1.585 1.569s-.925.528 0 5.68 3.17 14.53 3.17 14.53-4.226 5.283-8.982 4.226zm-5.634-37.909s4.578.925 4.71 2.774 1.321 3.698 0 4.094-3.038-1.057-3.434-1.849-1.496-3.301-1.276-5.019zM75.176 74.1c-2.906 1.717-5.416-.792-9.246-1.057s-6.537 1.849-6.835.792-6.77-6.34-10.601-6.736-6.365-2.245-7.277-1.585-1.003 1.461-.333-1.717c0 0 1.006-7.133 3.648-8.718s3.566-2.774 3.831-1.717.264 5.284 1.188 5.68 3.831 5.68 3.963 7.265 3.302.396 3.17-1.585.528-7-1.321-7.925-4.359-2.51-4.755-3.038-.924-1.717.132-1.849 14.529-1.057 17.039 0 8.057 5.152 8.85 7.925 1.453 12.547-1.453 14.265zm1.188-24.04c-1.585-.792-5.547-1.321-5.812-1.981s-.528-4.491 0-6.208 1.189-5.416 3.831-6.604.264-2.509 6.868-3.698c.91-.164 9.775-.66 11.624 0s3.962-1.057 7.529 3.038.793 3.435 2.51 5.416 4.358 5.812 4.358 5.812-2.245 2.378-2.245 3.699-1.585-1.321-6.472 0c-2.773.75-3.503 1.243-3.666 1.434.008.118-.099.116 0 0-.002-.03-.009-.066-.033-.113-.264-.528-4.359-1.981-4.887-1.189s-2.113 1.849-1.849 2.642 1.717 5.151 2.113 5.944-1.188 1.585-2.245 1.453-4.755-.896-5.02.015-1.807-.783-1.717-3.977c.019-.666-3.302-4.89-4.887-5.683zm8.795 45.571c.185 7 1.607 15.586 1.607 15.586s-6.31 2.509-8.159-2.906.396-24.7 1.585-27.078 5.548-5.284 8.189-4.623c.925.232-3.407 12.021-3.222 19.021zm2.563-23.881c-.48-.721-3.302-5.023-2.377-5.364s5.944-2.454 6.736-2.322 4.887 0 4.887 0-.924 5.08-.924 5.182-2.113-.408-3.831 1.036-3.702 2.653-4.491 1.468zm22.746 38.147c-1.216.924-4.65 3.698-7.16 3.566s-6.472-4.623-7.661-10.831-1.849-21.53 1.321-25.096 6.053-3.741 7.265-3.36c.816.256 6.131 1.378 6.236 4.945s.292 15.19 0 17.7 1.216 12.152-.001 13.076zm4.728-37.239c-.396 1.443-1.981.782-1.981 1.443s-1.321-3.302-1.849-2.642.019-5.144.792-5.019c0 0 3.487.644 3.561.019.004-.089.007-.102.007-.019 0 .007-.006.012-.007.019-.032.62-.177 4.937-.523 6.199zm.53-8.991s-1.982-.528-2.907 0-.683.528-1.663 0c-.886-.478-3.125-2.401-3.839-2.256-.214.236-.294.316-.178.113.038-.066.102-.098.178-.113.845-.93 3.88-4.399 6.124-3.556 2.811 1.056 2.285 5.812 2.285 5.812zm0-20.342s11.491-8.85 11.888-10.831 4.888-8.057 9.378-6.736 3.169 5.812 1.981 9.378-3.17 5.944-3.17 5.944-6.119-.396-7.88.793.927.528.903 1.981-.769 2.906 0 3.831-11.756 1.453-11.768.661-1.332-5.021-1.332-5.021zm15.585 61.156c-.264 1.453-3.435 3.302-7.001 3.831s-4.094 2.245-3.962 0 1.453-21.398 1.321-24.964-4.068-8.717-4.61-9.906 1.308-.78 1.308-3.698c0-2.042 1.056 2.906 2.377 2.113s1.981-1.04 3.566-.982c0 0 .086.23.237.593.538 1.295 1.9 4.278 3.106 4.484 1.544.264-1.016 5.283 0 9.906s3.922 17.17 3.658 18.623zm.264-38.701c-1.189.792-5.813 2.51-5.944 1.717s-2.906-3.434-4.491-4.359-2.774-2.638-2.774-2.638 4.888-2.646 5.284-3.834.792.925 3.17 0 3.302-1.321 3.302-1.321 2.509 1.584 3.434 1.717 2.246 6.077 2.774 7.265 1.057 2.113 0 2.113-3.566-1.453-4.755-.66zm12.548 29.984c-1.057 1.981-4.52 4.095-5.76 3.17s-1.372-12.548-2.033-16.115-2.642-7.66-1.849-8.453 2.957-3.957 4.623-3.435c0 0 2.774-.131 3.566 3.699s2.509 19.153 1.453 21.134zm-5.282-44.778c-2.246 0 4.094-7.529 5.019-7.529s5.151 1.299 6.472.914 1.85-.649 2.114-1.706-5.416-3.434-5.151-4.623c.385-1.735.792-4.227 1.849-4.227s1.717-3.17 5.547-3.302 7.922-2.662 9.114 5.284c.792 5.283-4.755 10.171-6.736 12.284s-2.114 4.491-2.906 3.962-8-2.906-7.236-2.51 3.142 5.019 3.01 6.208-2.831 3.698-3.066 2.774-5.785-7.529-8.03-7.529zm13.603 27.87c-1.981-.661-3.039-7.265-3.435-9.246s-2.113-3.17-2.113-3.17 5.02-2.642 6.604-3.831 5.283-3.895 5.283-3.895-2.642 6.932-2.642 8.385 1.583 10.435 1.583 10.435 3.305-3.038 4.494-2.774-.529 3.038.66 3.434-.132 2.51-2.246 3.831-3.962 3.567-4.491 4.491 1.091-6.063-3.697-7.66zm36.192 19.417c-7.265 7.001-19.021 9.114-22.19 9.246s-8.85-2.246-8.718-7 5.283-10.171 10.039-13.077 3.434-5.679 3.434-7.661.793-7.265.793-7.265 4.58 5.833 5.943 4.755c.661-.522-.264-3.302.925-4.095s.396 1.188 3.963 3.17 7.928 5.908 9.114 7.925c1.32 2.247 3.961 7.001-3.303 14.002zm8.321-20.077s-8.058-3.302-10.699-6.736.133-4.227-2.905-8.189-8.058-6.208-8.058-6.208-.265-5.151.528-5.68-4.358-.661-4.755.528-1.321 6.741-1.189 6.805-5.151-.2-4.887-.729 3.434-9.907 4.095-11.492 1.981-5.547 1.981-5.547c1.585-.528 3.303 0 3.566 1.717s-1.32 2.774 0 2.774 4.095-.793 4.095-1.717.132-3.698 1.188-3.698 1.85-1.585 1.85 0-1.585 2.113 0 3.434 5.415 12.021 5.415 12.681 1.585-3.963 2.113-3.435 1.98 2.375 2.113 3.499 4.095 1.917 5.548 10.238.001 11.755.001 11.755z"/>
  <path d="M41.217 10.253c-.098-.061-.183-.092-.251-.083-.175.022-.061.051.251.083zm-5.536 22.903c-.655-.983 4.066-1.585 5.203-.792s2.986 1.321 2.722 2.113-2.906.264-4.623.924-2.774-1.452-3.302-2.245zm5.369 5.019c.574-.132 4.009-.792 4.537 0s2.377 2.51 2.773 2.51 3.435 2.246 3.435 3.038-6.868-.265-7.529-.661-3.216-4.887-3.216-4.887zm22.501-14.397s5.019.792 4.887 1.717-2.641 6.534-3.83 6.503-3.435-1.616-3.435-2.144 4.095-4.095 2.378-6.076zm2.114 37.777s3.566 0 3.698 1.981.004 3.302-.922 4.359-1.717 1.981-3.633 1.717 1.385-2.332.461-4.006-1.454-3.655.396-4.051zm13.869-20.654s1.321.577 1.849.577 2.245-1.153 2.509-.577 2.246 3.218 2.246 4.539 2.113 2.642.792 2.906-3.963 1.584-4.095 2.245-3.697-8.549-3.301-9.69zm12.152-3.914s3.963-.106 4.887.805 3.038 2.077 2.642 2.947-3.17 3.822-4.623 3.271-1.586-7.552-2.906-7.023zM37.782 140.303c-.127 1.085-.511 11.875.894 12.386s10.726-.575 13.407-1.085 10.598-.638 10.534-1.277-3.128-10.406-3.256-10.598-5.235-4.341-5.618-4.533-8.3.383-8.619 0 .192-1.788.192-2.298 10.151 0 10.151 0 .383-.766 0-1.213-.575-2.171-.575-2.171-16.024-1.277-17.301-1.213-7.677-1.161-7.853-1.085c-.447.191.064 3.128 0 4.15s3.767 3.32 5.81 4.916 2.362 2.936 2.234 4.021zm15.067 9.513c-.319.191-.958.702-2.234.447s-5.42-1.341-4.53-2.043c0 0 10.212-.319 10.467 0s-3.384 1.405-3.703 1.596zm-6.764-10.917c.606-.19 7.786.192 7.85.766s-1.085.574-1.021 1.213-5.874-.253-6.448-.861-1.4-.799-.381-1.118zm-.482 4.341s8.46-.383 8.907 0-1.596 1.851-1.596 2.17-.383.702-1.341.766-8.046-.829-5.97-2.936zM71.3 164.5c-1.47-.113-7.917-1.149-8.682-2.107s5.554-4.086 5.554-4.788-1.149-.702-2.107-.83-1.085-1.341-1.277-1.979-9.321-1.085-10.851-1.149-6.515-.383-6.515-.383-2.617 3.32-5.299 4.852c-1.83 1.045-8.555 5.746-9.066 6.704s4.725 1.788 6.257 1.596 7.086-4.533 7.406-4.789 2.171.255 2.426 1.469-5.299 5.49-5.682 6.448 7.342 1.405 8.172.703 4.661-3.703 4.929-3.639 14.735 2.17 16.076 2.17 2.426-3.383 2.49-3.575-1.691-.538-3.831-.703zm-17.137-4.469c-.42.064-3.77.895-4.393.447s-.879-2.17-.496-2.298 1.385-1.948 1.989-1.788c.44.117 5.864 1.468 5.8 1.979s-2.48 1.596-2.9 1.66zm48.037-5.363c-.702 0-3.32.511-4.022.894s-3.192-.064-3.512-.702.511-.383 1.596-.746 2.171-.148 2.426-.02 2.809-.383 2.951-.83-.972-1.341-2.249-1.979-2.745-4.022-2.745-4.022 3.32-1.404 4.15-2.554.958-3.128.766-3.384-4.597-10.406-5.235-10.598-7.016-.442-7.789-.511c-.707-.063-6.32-.128-6.831 0s-3 2.681-3 2.681 1.468 17.557 1.596 18.195 2.107.575 3.001.703 5.618-1.469 6.065-2.107.511 1.915.064 3.575-5.235 2.362-4.789 3.384 6.001-.703 6.065.063-3.256 3.512-3.575 3.576 1.915 4.213 2.809 3.703 14.109-5.427 13.726-5.874-.766-3.447-1.468-3.447zm-18.997-19.801c.232-.021 3.036-.31 3.1.329s.702 3.005 0 2.748-3.2.061-3.1-.513-.871-2.484 0-2.564zm.355 10.8c.063-.958-.829-3.782 0-3.768.766.013 3.575.063 3.831.447s.127 3.383.894 3.32-4.789.959-4.725.001zm7.633-8.237c.219-.574-.556-2.722.347-2.554.376.07 3.383.702 3.703 1.341s.191 1.724 0 1.724-4.269.063-4.05-.511zm1.049 3.959c.266-.509 3.703 0 3.703 0s.766 2.17 1.532 2.554-1.974 2.107-2.04 2.043-3.961-3.129-3.195-4.597zm10.406-9.513c.703-.064 6.577 0 7.917 0s8.555 0 8.683.702.064 2.106 0 2.298-3.32 2.746-3.128 2.746 4.596 3.192 4.788 3.575-1.596 1.915-1.277 2.234 1.596 1.788 2.171 1.66 3.703-1.022 4.15-.894 6.768 4.214 6.959 4.533-1.277 3.128-3.512 3.575-5.363 2.107-5.363 2.49 3.576 4.724 3.958 5.618 1.724 4.469 1.532 5.363-2.363 4.917-4.022 4.533-13.981-4.023-14.556-4.342 7.47-1.852 8.172-2.49 2.362-2.682 1.532-4.15-4.533-4.852-5.427-4.852 1.979-2.17 1.852-2.937-6.256 1.213-9.193.766-4.07-2.81-4.206-4.086-.264-2.107.822-1.979 8.3.319 9.13-.191-4.789-1.468-4.725-3.064 1.532-2.681 1.532-3.575-1.468-.575-3.575-.575-4.022-.064-4.214-1.852 0-5.106 0-5.106zm68.649 23.309c1.021-.063 12.449-.128 11.555-.575s-.445-4.341-1.148-4.661c-.701-.319-10.662.511-12.002.639s-2.809.511-3.064-.575 3.448-7.725 3.448-8.3-1.213-1.852-3.128-2.745-1.468-1.66-2.043-2.298-4.533-.319-5.363-.584.958-1.458.958-1.969 16.344.319 16.28 0c-.063-.319-3.512-4.405-4.596-4.507-1.086-.102-13.28.995-14.366.868s-.319-1.596-1.532-3.256-3.958-2.362-4.022-2.043.639 1.085.319 2.043-3.575 4.086-4.214 4.086-3.575-4.661-3.831-4.597-6.129 1.405-6.512 1.66 2.809 3.575 2.937 4.15-2.618.638-3.767.83-2.362.511-2.682.766c0 0 .511 3.064.894 3.674s5.043.092 6.129.284.958 2.746 1.149 3.384 3.639 2.873 3.639 3.256-1.341 2.554-2.043 3.064 2.682 2.107 2.618 2.937-1.149.83-1.66.83-.383 2.745-.383 3.447 2.745.894 3.958.894 5.171-1.532 5.874-1.724 1.851.319 1.788 1.085-2.986 5.487-5.235 6.001c-5.299 1.213-10.151-1.596-9.704-.383 1.153 3.126 4.788 5.619 9.385 5.874s8.555-1.916 9.066-2.171 1.596 1.085 1.788 1.341 1.596 7.278 2.426 7.47 5.874-.766 5.874-1.149-1.085-3.256-1.788-4.405-2.298-4.597-1.979-5.108 9.449 5.171 10.599 5.107c1.148-.064 5.426-2.873 5.299-3.383s-9.066-4.533-10.662-5.171c-1.597-.638-4.789-3.448-5.299-4.086s4.018.064 5.04 0zM147.8 141.203c0-.447-.064-3.895 1.596-4.852.387-.223 3.958-.147 4.469-.265s1.405 1.861 1.085 2.5-.766 1.66-1.596 1.788-5.554 1.276-5.554.829zm9.002 10.024c-.638-.127-1.469-.447-2.809-.766s-2.295.447-2.584-.83-.608-7.214-.225-7.214h1.213s3.448 1.979 3.448 2.554 1.595 6.383.957 6.256zm6.64-4.725c.191.958-.83 3.639-.83 3.639s-2.426-3.32-2.171-4.022 0-4.813 0-4.813c.383-.23 4.405.408 4.341 1.11s-1.531 3.128-1.34 4.086z"/>
</svg>
