<?xml version="1.0" encoding="utf-8"?>
<svg version="1.1" id="レイヤー_1" xmlns="http://www.w3.org/2000/svg" xmlns:xlink="http://www.w3.org/1999/xlink" x="0px"
	 y="0px" width="200" height="200" viewBox="0 -35 210 250" enable-background="new 0 0 210.375 212.674"
	 xml:space="preserve">
<g>
	<path fill="#BBACD3" d="M166.625,25.012c0,0-15.364,4.448-21.064,0s-17.15-10.891-17.15-10.891s-8.872,1.24-14.076,5.205
		S101.225,30.114,99.23,29.428s-19.342-4.416-19.342-4.416l-20.073,2.987l-4.708,15.365l15.86,6.939l10.161,7.551l-12.555,5.832
		l18.255,18.586l21.808,6.443l15.86,4.957l27.26,2.23l20.817-8.711l18.834-18.797l6.631-6.303l-15.057-21.205L166.625,25.012z"/>
	<path fill="#ACC7E8" d="M73.914,13.486L90.55,24.577c0,0,8.971-0.979,12.723-3.099s16.637-7.993,23.487-5.22
		s11.581,7.34,15.822,8.319s20.715,0,20.715,0L129.859,6.309h-22.346L73.914,13.486z"/>
	<g>
		<path fill="#BBA1CB" d="M5.543,110.119l16.604-6.783l39.651,1.734l28.5,16.108l48.077,7.93l36.43,8.426l-2.23,16.06l-16.852,9.465
			l-9.665,5.7c0,0-8.426,3.469-9.169,3.717s-7.354,2.23-7.354,2.23s4.133,4.956,5.372,5.204s8.673,1.734,9.913,2.23
			s7.187,3.965,7.187,3.965l3.717,7.435l-3.717,4.321l-18.699,4.601l-32.6,1.487l-32.133-7.683l-25.113-11.647l-19.826-26.269
			L5.543,110.119z"/>
	</g>
	<g>
		<path fill="#007FC6" d="M67.878,11.201c0,0,13.538,2.61,15.984,7.177s6.851,4.241,7.83,4.404s13.211,0.653,13.211,0.653
			s-5.22,7.177-10.113,8.481s-19.572-1.468-20.877-1.794s-8.482-1.916-11.418,2.141s-1.794,7.809,3.099,9.277
			s23.161,2.936,25.771,2.936s11.744,0.489,14.354,6.035s-0.489,7.502-5.872,8.318s-10.276,0.327-14.517,1.468
			s-12.07,1.794-12.07,1.794l-25.934-8.481l-22.65-2.701l21.998-25.896L67.878,11.201z"/>
		<path fill="#007FC6" d="M196.245,59.481c0,0-7.34,3.262-14.19,4.567s-12.233,1.304-14.68,1.794s-2.937,1.305-8.482,0
			s-10.112-4.241-19.736-3.751s-11.417,4.893-11.254,7.34s11.091,7.177,13.538,6.524s14.517,0.652,16.148,3.425
			s2.121,5.383-3.588,6.035s-14.68,2.121-16.8,0s-12.56-2.773-14.354-2.61s-7.503,3.224-7.666,4.385s9.787,17.961,9.787,17.961
			l12.396,4.968l-4.893,2.699l-18.757-5.709l-18.758,3.01l-17.126-3.173l-17.453,4.567c0,0-8.971,1.794-10.113,3.262
			s-2.937,8.479-0.653,10.601s22.374,1.469,25.622,2.285s22.658,3.425,24.615,6.524s16.8,14.354,21.041,14.19
			s23.977-3.099,27.892-2.609s19.573,7.829,19.573,7.829l18.921-1.468l12.07-6.688l8.971-38.901l-4.73-23.406L196.245,59.481z"/>
		<path fill="#007FC6" d="M25.959,155.714c0,0,7.667,4.567,11.907,3.751s18.757-1.371,22.998-1.827s10.276,1.011,10.439,3.132
			s-1.631,6.771-1.631,6.771l12.586,7.659l26.723,4.491l20.551,5.708v3.263c0,0-3.915,0.326-7.666,1.794s-6.361,4.404-16.147,6.688
			s-22.02-1.467-23.325-2.936s-13.701-5.057-15.821-4.404s-8.156,0.979-8.156,0.979l-22.346-19.573L25.959,155.714z"/>
	</g>
	<g>
		<path fill="#ACC7E8" d="M27.265,45.292c3.915,1.957,7.014,2.12,11.091,1.794s7.177-2.834,17.29,0.132s18.92,11.774,22.672,18.299
			S93.16,79.056,97.401,78.729s5.383-1.305,12.723,1.631s5.056,2.447,8.481,9.297s6.198,11.907,9.624,12.886
			s14.517,2.446,13.864,6.687s-5.219,6.361-14.354,5.22s-9.134-4.893-14.843-4.078s-13.375,4.73-19.41,3.262
			s-9.46-4.567-13.864-4.73s-15.495,5.18-20.062,5.852s-11.744-2.753-14.68-4.058s-11.744-2.283-15.333-0.489
			s-8.971,5.871-12.885,6.198s-8.319,0-8.319,0l3.588-37.841L27.265,45.292z"/>
		<path fill="#ACC7E8" d="M198.039,143.32c0,0-2.609,2.12-12.233,6.035s-15.332,2.61-18.105,1.958s-9.95-3.625-9.95-3.625
			s1.794,2.663,0,4.367s-7.014,3.661-10.276,3.498s-11.581-1.631-14.354-1.631s-5.872,0.979-4.893,5.056s5.545,2.61,4.241,6.524
			s-2.773,4.894-9.46,3.425s-11.418-2.936-16.963-2.61s-11.744,5.22-14.354,5.546s-7.503,1.467-12.233-0.816
			s-10.602-6.687-10.602-6.687s-1.958,5.226,4.404,8.077s21.367,5.135,24.792,6.276s25.119,5.708,27.565,8.155
			s2.447,2.447,2.447,2.447s12.615,1.468,14.055,1.305s18.893,1.142,18.893,1.142l24.792-18.594L198.039,143.32z"/>
	</g>
	<g>
		<path d="M202.568,70.756c-1.629-2.56-3.49-13.963-20.014-33.511c-16.521-19.548-36.07-29.322-47.474-33.045
			s-25.829-3.993-30.021-4.189c-4.397-0.206-23.738,2.794-30.253,4.888s-39.329,24.668-48.172,32.58S9.879,60.05,3.596,85.416
			s-4.421,28.391,6.283,59.342s30.951,43.286,37.933,48.172s29.322,13.729,43.285,17.221c13.963,3.49,23.272,3.723,43.518-1.629
			c20.246-5.354,36.537-13.496,49.801-27.46c13.266-13.963,24.668-48.87,25.832-65.16S204.197,73.315,202.568,70.756z
			 M182.555,170.591c-9.309,14.428-30.951,24.9-51.896,29.322c-20.943,4.422-35.618,3.342-49.103-0.465
			c-28.856-8.146-48.173-35.373-52.361-41.424c-2.094-3.025-12.799-19.781-16.29-28.857s-1.396-43.75,3.957-56.549
			s16.29-31.649,22.806-36.537s30.951-17.686,38.631-18.617s13.495-7.212,30.717-6.282c8.146,0.44,33.977,5.12,42.588,11.17
			c8.609,6.051,23.504,18.152,30.02,28.624s16.522,25.599,17.919,52.128S191.863,156.163,182.555,170.591z"/>
		<path d="M28.148,60.639c0,0,8.743,2.04,9.326,1.846s0.938,10.245,2.234,11.171c0.68,0.486,2.331-10.783,2.72-10.977
			s1.554,0.097,1.554,0.097s1.166,6.12,2.04,7.869s1.846,5.925,2.817,5.828s2.623-14.474,2.623-14.474l5.148,1.069
			c0,0-3.4,12.628-3.4,16.514s-1.166,12.531-1.166,12.531l-5.44-0.875c0,0-2.72-11.366-3.206-10.783s-3.303,6.508-3.303,7.188
			s-0.874,3.206-0.874,3.206l-4.869-0.696c0,0,1.013-3.621,0.303-8.533c-0.551-3.814-3.556-13.907-4.177-15.057
			C29.706,65.132,28.148,60.639,28.148,60.639z"/>
		<g>
			<path d="M129.662,65.205c-0.01,0.037,0.031,0.084,0.093,0.135C129.72,65.167,129.688,65.104,129.662,65.205z"/>
			<path d="M131.993,94.34l7.479,0.881c0,0-0.68-8.354-0.971-11.366s0-16.417,0-16.417s-2.429-0.777-3.594-0.68
				c-1.055,0.088-4.564-0.936-5.153-1.419c0.1,0.486,0.224,1.877,0.296,3.168c0.097,1.749-1.068,7.286-1.36,7.102
				s-6.8-1.273-6.8-1.273s0-2.234,0-3.594s0.777-5.052,0.777-5.052s-5.246,0-6.897,0.097s-14.183,0.583-16.32,0.486
				s-6.703,0.292-6.897-0.097s-8.84-0.874-9.229-0.777S79.634,75.61,79.634,75.61s-4.274-0.108-6.023-0.011
				s-6.703-0.486-6.703-0.486s0.097-0.486-0.194-1.651s-0.583-4.521-0.583-4.521s3.006-0.162,4.177-0.239
				c1.842-0.122,9.034,0.595,8.548,0c-1.193-1.461-0.485-5.537-0.485-5.537s-7.48-0.389-11.852-0.389s-7.383,0-7.383,0
				s1.068,13.794,1.457,17.777s-0.777,12.143-0.777,12.143c6.597,0.452,5.625-0.676,10.588-0.583
				c5.183,0.097,10.103,0.971,10.103,0.971l3.303-7.868c0,0,5.343-0.097,5.828,0.097s3.303,6.8,3.303,6.8s2.428-0.097,4.177,0
				s4.469,0.777,4.469,0.777s-2.817-8.451-3.886-10.588s-3.497-10.297-3.497-10.297s6.314,0,6.994,0.194s1.555,6.022,1.748,8.548
				c0.195,2.526-0.389,13.593-0.389,13.593l7.092,0.881c0,0,0.389-12.92,0.291-13.988c-0.097-1.068,0.875-9.131,0.875-9.131
				l4.565,0.971c0,0,0,3.983,0.292,5.343c0.291,1.36-0.292,15.924-0.292,15.924h5.44l1.555-11.747c0,0,3.011-0.389,3.885-0.486
				s6.023-0.097,6.023-0.097s-0.292,5.731-0.292,6.897S131.993,94.34,131.993,94.34z M75.262,84.633
				c-0.971,0.389-4.857-0.194-5.44,0s-2.428,0.486-2.428,0.486V80.65c0,0,5.051-0.777,5.731-1.166s1.943-0.486,3.206-0.486
				s1.749,0.826,1.749,0.826S76.233,84.245,75.262,84.633z M87.308,78.125c-2.137,0.194-2.914-0.583-2.914-0.583l3.109-6.703
				l2.72,6.314C90.222,77.153,89.444,77.931,87.308,78.125z"/>
		</g>
		<g>
			<path d="M151.52,74.143c0.874,0,5.828,1.166,5.73,0.777c-0.097-0.389,1.555-4.468,1.555-4.468s-7.966-0.389-9.617-0.583
				s-6.994-0.875-6.994-0.875s0.582,6.023,0.486,8.84c-0.098,2.817-0.486,17.388-0.486,17.388s4.08,0.972,6.508,0.778
				c2.429-0.194,8.452,0.874,8.452,0.874l0.485-7.48c0,0-1.166,0.777-2.914,0.68s-6.703-0.972-6.703-0.972s0-1.457,0.194-3.691
				s0.583-2.234,2.283-2.817s6.071,0.583,6.071,0.583s0.583-2.137-0.291-2.526c-0.875-0.389-4.08-0.097-6.314-1.652
				s-1.555-3.691-1.166-4.663S150.645,74.143,151.52,74.143z"/>
			<path d="M179.593,92.502c-1.555-1.942-3.303-6.023-3.303-6.023c1.263-0.194,6.415-2.04,6.411-4.663
				c-0.002-1.461-1.942-6.994-3.205-8.937c-1.264-1.943-7.189-3.108-9.715-2.914s-7.768,0-7.768,0s-0.101,4.371-0.004,5.051
				c0.098,0.68-1.942,7.383-1.262,9.617c0.68,2.234,0.873,11.463,0.873,11.463l6.412,0.777c0,0-0.194-5.343-0.194-6.12
				s3.497,2.137,4.371,3.012s5.537,5.537,5.537,5.537l8.16-0.68C185.907,98.622,181.147,94.445,179.593,92.502z M172.016,82.934
				c-0.971-0.048-4.371-0.534-4.469-2.574c-0.097-2.04,0.777-4.76,0.777-4.76s3.4-0.389,4.371,0
				c0.973,0.389,3.012,3.788,3.012,4.565S172.986,82.982,172.016,82.934z"/>
		</g>
		<path d="M48.354,122.619c-5.731-5.44-10.492-5.051-12.628-5.731s-5.246-1.845-5.246-1.845s0,9.325,0,11.462
			s1.069,18.554,1.069,18.554s5.246,0.777,10.324,0.389s9.979-5.829,10.27-8.743S54.085,128.059,48.354,122.619z M40.874,137.384
			c-1.069,0.292-3.497-0.388-3.497-0.388s0.292-11.463,0-12.143c0,0,5.342,1.554,6.12,2.137s1.457,0.485,2.04,5.051
			S41.942,137.093,40.874,137.384z"/>
		<path d="M55.056,119.413c0,0,7.286,0.68,8.063,0.777s9.326,0,9.326,0l0.485,4.857c0,0-4.468-1.068-6.314-1.166
			s-4.663,0.097-4.663,0.097s0.486,0.291,0.486,1.068s0.097,2.817,0.097,2.817s4.857,0.972,6.411,1.166s4.955,0.486,4.955,0.486
			s0.195,4.954,0.389,5.246s-6.12-0.777-7.966-0.777s-3.594-0.097-3.594-0.097s-0.389,2.914,0.777,3.206s6.023,1.069,6.8,1.069
			s3.987,0,3.987,0s0.68,1.748,0.481,2.72s0.486,2.915,0.486,2.915s-6.8-0.875-10.783-0.583s-8.84,0.583-8.84,0.583
			s0.486-5.44,0-11.366S55.056,119.413,55.056,119.413z"/>
		<path d="M94.01,119.413c0,0,3.302,2.72,4.468,4.08s2.817,3.983,2.817,3.983s-4.178-0.583-6.509-0.875s-6.8-0.776-7.091,1.263
			s4.566,2.428,6.8,3.74s5.746,3.373,6.314,10.151c0.485,5.792-10.154,6.246-12.726,5.731c-1.457-0.292-6.703-2.72-6.703-2.72
			v-9.617c0,0,4.177,3.012,6.703,3.497s4.76-1.458,4.08-2.915s-7.383-3.691-8.16-4.128s-6.022-2.672-4.274-9.18
			S91.388,118.733,94.01,119.413z"/>
		<path d="M102.947,119.413l10.104-0.777c0,0-1.749,3.4-1.555,4.565s2.137,11.171,2.137,14.28s1.162,10.165,1.162,10.165
			s-3.299-0.424-4.658,0c-1.36,0.424-4.17,0.49-4.17,0.49s0.391-7.157-0.779-13.763
			C104.017,127.768,102.947,119.413,102.947,119.413z"/>
		<path d="M131.896,116.693c0,0,2.816,3.691,4.177,4.954s4.372,2.914,4.372,2.914l-2.915,2.817c0,0-2.914,0.097-5.148,1.943
			s-5.44,5.828-5.537,6.217s1.651,7.091,4.08,7.286s6.022-1.554,6.022-1.554s-1.359-1.749-2.72-1.457s-3.788,0.389-3.788,0.389
			l-1.652-5.343c0,0,4.954,0.097,6.605,0.485c1.652,0.389,8.841,0.972,8.841,0.972s0.291,8.839,0.583,10.005
			c0.291,1.166,1.068,7.577,1.068,7.577s-5.537-1.359-5.635-0.777c-0.097,0.583-0.291-4.986-0.291-4.986s-2.238,0.226-3.596,1.197
			c-1.358,0.971-0.096,1.846-1.941,1.846s-4.274,0.194-6.217-0.68c-1.943-0.874-8.354-3.4-8.549-6.703s-2.04-13.309-1.846-14.086
			s6.12-8.937,7.383-9.325S131.896,116.693,131.896,116.693z"/>
		<path d="M147.925,124.756l9.034-1.36c0,0,0.486,5.343,1.846,8.208s6.703,6.266,6.703,6.266l-0.777-15.542l8.527,1.749
			c0,0-0.313,5.7,0,9.31s1.09,16.044,1.09,16.044l-8.258-0.68c0,0-1.166-1.846-2.72-3.886s-7.771-6.12-7.771-6.12l1.069,10.686
			c0,0-0.875-0.389-3.012,0.485s-4.76,1.069-4.76,1.069s0.193-13.697-0.098-16.514S147.925,124.756,147.925,124.756z"/>
	</g>
</g>
</svg>
