<?xml version="1.0" encoding="utf-8"?>
<svg version="1.1" id="レイヤー_1" xmlns="http://www.w3.org/2000/svg" xmlns:xlink="http://www.w3.org/1999/xlink" x="0px"
	 y="0px" width="200" height="200" viewBox="-30 -70 366 400" enable-background="new 0 0 266.548 290.342"
	 xml:space="preserve">
<g>
	<g>
		<polygon fill="#B6D56A" points="22.884,81.782 44.224,55.461 52.761,61.863 50.152,68.621 57.029,71.822 52.05,88.184 
			64.143,103.36 54.896,112.608 		"/>
		<path fill="#B6D56A" d="M51.813,52.615h6.64c0,0,3.32,10.67,9.484,12.331c6.166,1.66-3.794-11.382-3.794-11.382L62.72,41.233
			l4.742-3.794l18.496,18.021l4.031,19.207c0,0-13.754,6.876-14.228,6.165s-10.196-5.217-10.433-6.165
			C65.091,73.72,53.71,63.76,53.71,63.76L51.813,52.615z"/>
		<path fill="#B6D56A" d="M78.37,30.089l11.619-2.846c0,0,1.186,10.197,2.371,11.145s2.371,0,2.371,0l7.826-17.073l10.433,6.877
			l-9.959,13.042l21.341,10.671l-3.557,5.928l-19.444-8.062c0,0-1.186,7.825-1.186,8.062s2.372,6.64,2.372,6.64l-6.877,3.083
			L78.37,30.089z"/>
		<path fill="#B6D56A" d="M118.444,17.757c0,0,14.939,0.474,15.414-1.423c0.474-1.897,5.69,40.311,5.69,40.311l-12.093-3.319
			L118.444,17.757z"/>
		<path fill="#B6D56A" d="M145.003,54.512c0,0-0.475-33.196-1.186-33.197s8.063,0,8.063,0s10.023,16.125,12.093,16.598
			c1.312,0.3,0-19.208,0-19.208l10.907-2.433l1.424,41.796l-16.264-1.423l-8.16-12.211l-0.712,13.634L145.003,54.512z"/>
		<path fill="#B6D56A" d="M184.128,54.512c0,0-2.846-11.382-2.846-12.093s4.506-5.691,4.743-7.351s10.196-4.506,13.278-2.846
			c3.083,1.66,12.568,13.754,12.568,16.599s-9.959,10.341-9.959,10.341L184.128,54.512z"/>
		<path fill="#B6D56A" d="M194.087,52.852c0,0-3.319-1.896-3.319-4.742s-1.186-7.352,5.81-7.588s5.098,11.382,2.253,12.331
			S194.087,52.852,194.087,52.852z"/>
		<path fill="#B6D56A" d="M218.985,40.518l-3.082-5.688l5.453-5.454c0,0,8.299,8.064,9.248,8.063s14.939,9.456,14.939,9.456
			l-5.455,6.378l-9.365-0.896l-9.604,15.177l-5.217-2.609c0,0,10.67-21.104,9.484-23.238S218.985,40.518,218.985,40.518z"/>
		<path fill="#B6D56A" d="M235.821,72.059c0,0,0.187-0.346,0.525-0.917c1.688-2.836,7.147-11.214,12.279-10.227
			c6.165,1.186,12.094,13.99,12.094,13.99s-7.113,12.805-12.449,12.331s-11.264-5.691-12.449-9.011S235.821,72.059,235.821,72.059z"
			/>
		<path fill="#B6D56A" d="M244.358,78.224c-1.424-3.794,1.659-10.671,6.876-8.774s3.557,8.774,4.269,8.774
			C256.214,78.224,244.358,78.224,244.358,78.224z"/>
		<path fill="#B6D56A" d="M277.792,87.248c0.431-0.165,6.877,6.864,6.877,6.864s-20.156,12.569-14.702,18.497
			s16.836-10.435,16.836-10.435l3.794,10.435l-2.608,7.113c0,0-25.135,0.949-25.135,0s-5.728-10.908-5.728-10.908
			s6.438-15.176,8.099-15.176S275.895,87.972,277.792,87.248z"/>
		<path fill="#B6D56A" d="M106.353,67.554c0,0,10.176,0.649,16.6,4.031c0,0,9.419-0.827,16.597,0.913
			c3.084,0.748,13.518,8.387,13.518,8.387s6.974-9.486,6.974-15.939c0-2.846,10.1,7.774,12.945,13.278
			c1.772,3.429,25.846,18.496,25.846,18.496s3.557-5.216,14.465-6.165s26.559,2.608,29.403,2.134s14.427-2.845,14.427-2.845
			s-16.956,37.455-26.402,36.754c-3.2-0.237,15.003,7.113,17.283,7.113s17.219,0,17.219,0s-11.145,12.805-11.619,16.599
			c-0.474,3.794-13.516,30.589-28.691,34.383c0,0,12.094,0.949,16.599,2.846s5.142,6.64,15.612,9.011
			c10.472,2.371,10.472,0,10.472,0s-15.942,14.465-19.591,15.65s-20.483,7.824-20.483,7.824s5.218,7.353,10.435,14.94
			c5.216,7.588,5.453,14.464,5.453,14.464l-14.465-3.794l4.031,11.146l9.959-1.423l4.269,5.69c0,0,1.659,14.228,0.712,14.228
			c-0.949,0-11.146-1.896-11.146-1.896l1.66-12.094c0,0-12.331,3.558-11.619,5.691s1.897,8.299,1.897,8.299h-9.959l-4.743-12.093
			l7.114-4.506l-0.949-9.248l5.454-4.979c0,0-18.733-6.876-21.815-7.351s-8.537,14.228-12.33,18.021
			c-3.795,3.794-11.146,9.722-11.146,9.722s-2.134-9.721-3.794-13.278s-5.928-5.217-5.928-5.217s-3.32,8.062-13.754,12.33
			s-15.887,2.371-15.887,2.371l-2.135-19.444c0,0-13.516,0.95-17.547,2.372s-25.846,4.03-25.846,4.03l6.402-12.567l-21.342-0.711
			l-25.135-1.423l3.082-8.536l19.682-12.094c0,0-4.506-9.722-5.454-10.196s-17.31-4.506-17.31-4.506s-4.743,0.476-5.691-2.845
			s-6.168-8.063-6.168-8.063s-1.895-8.537,3.797-9.723s14.228-2.372,15.413-3.794s8.536-0.237,10.907-4.742
			s-30.352-4.741-31.537-5.69s-7.113-3.321-8.063-6.166c-0.948-2.845-4.268-3.019-4.742-5.659s-5.454-7.62-5.454-8.806
			s4.269-5.247,4.269-5.247s9.248,1.641,9.959,1.666s22.288-10.722,22.288-10.722s16.835,0.548,19.207,3.868
			s-2.134-6.64-3.794-16.125s-8.773-19.681-8.773-19.681s12.805,3.557,19.207,1.423s16.124-5.216,18.97-4.979s9.96,0,9.96,0
			s0.474-7.824-3.32-14.465S106.353,67.554,106.353,67.554z"/>
		<path fill="#B6D56A" d="M78.134,249.189c0,0,20.867,10.434,22.053,11.382s6.639,2.846,6.639,2.846l4.031,20.63l-18.732,5.928
			l-8.063-13.279l-4.268-15.176L78.134,249.189z"/>
		<polygon fill="#B6D56A" points="120.816,269.582 125.085,260.571 133.146,262.469 134.333,271.479 147.374,271.479 
			148.56,279.067 140.023,280.964 137.178,285.47 150.22,286.893 152.354,293.769 144.766,293.769 140.735,297.089 140.735,305.105 
			125.559,292.108 124.136,285.943 122.002,276.695 		"/>
		<path fill="#B6D56A" d="M167.767,269.582l12.33,5.693c0,0-5.453,21.102-8.062,22.524s-5.929,5.928-5.929,5.928l-6.164-8.299
			l7.588-14.465L167.767,269.582z"/>
		<polygon fill="#B6D56A" points="187.685,264.603 198.356,263.417 202.388,276.695 212.82,275.275 218.749,287.841 
			201.913,286.654 		"/>
	</g>
	<g>
		<g>
			<path fill="#006571" d="M297.985,96.808c-12.389-35.229-29.809-51.876-53.424-69.297s-70.078-28.097-83.62-27.486
				C109.452,2.348,56.804,26.35,27.382,70.87s-42.973,110.72,0,165.692c42.971,54.973,86.717,75.878,130.85,73.942
				s92.525-14.711,122.721-65.813C311.149,193.591,310.374,132.037,297.985,96.808z M255.929,54.808
				c4.613,1.651,6.75,7.186,4.75,14.436s-7.25,10.25-9.25,9.5s-10.5-3.75-10.5-6s-0.25-14.5,1.5-15.75
				S248.429,52.122,255.929,54.808z M218.429,29.743c0.25-1.25,3.5-2.631,3.5-2.631c1,0.881,11.25,4.725,12.75,5.803
				s13.5,6.957,12.75,7.643s-2.5,8.607-5.5,6.857s-5.438-2.605-7.232-4.921c-1.5-1.936-10.816,24.5-13.316,23.5s-5.201-1-5.701-2.75
				s11.75-25.5,12.75-25.75S218.179,30.993,218.429,29.743z M185.429,31.743c2.75-3.5,6.377-5.519,12.5-4.25
				c2.258,0.468,7.25,1,9.25,3.75s7,5.5,3.25,14.5s-15.25,11.167-20.5,7.083S182.679,35.243,185.429,31.743z M143.179,21.493
				c0.5-1.25,3.5-3.25,3.5-3.25c1.25,0,4,0,4,0l14.5,16.292c0,0-2-18.292,0.25-19.792s5,0,5,0s2.25,34.75,1.5,34.75
				s-9.25,3-9.25,1.75s-8.25-13.75-8.25-13.75s1.5,15.359,0,14.055s-8,0.712-7.75,0.079S142.679,22.743,143.179,21.493z
				 M123.429,17.243c0.75-1,8.25-1,8.25-1s5.25,18.25,5.75,19.75s4.5,15.5,4.5,15.5s-8.25,3-10.25,0S122.679,18.243,123.429,17.243z
				 M84.179,29.743c0,0,4.25-2.75,6-3s6.25,12.75,6.25,12.75s2.75-16.75,6.25-18l7.5,3.75c0,0-5.25,14.75-4.5,15.5s10,1.75,12,3.5
				s5.75,2.5,5.75,2.5l-3.5,6l-19-7c0,0-3.25,1.25-2.75,2.25s5,12.5,5.625,13.5s-5.625,4.5-5.625,4.5s-5.25-9.5-6-15.5
				S83.929,31.743,84.179,29.743z M60.679,54.743c0,0,4.521,9.514,6.75,10.75c2.473,1.37,7.5,6.5,10.25,6s2.75-7.466,2.25-8.358
				s-14.5-11.892-14.5-11.892l3.5-7c0,0,9.75,1.75,14,10s2.75,15.25,2.75,15.25s-4.5,7.5-5.75,7.5c-3.75,0-10.746-0.25-16-5.5
				c-3-2.999-6-7-9-13.25L60.679,54.743z M47.679,59.743l4.25,3l-7.5,14l4.5,4.5l4.25-8.375l6.25,3.875l-5,14l9.5,10.75l-8.75,5
				c0,0-14.5-12.75-18.25-14.5s-7.25-6-7.25-6L47.679,59.743z M111.179,280.993c-2.25,1.25-5.25,6.25-11,5.75s-7-5.5-5.75-7.75
				s14.525-10.005,13.75-13.75c-0.268-1.294-7.75-0.75-13.25-2.75s-9-1.75-9-4s2.75-7,2.75-7s9.75,4.75,12.25,4.75
				s16.25,2.75,17.25,4.5s1.25,6.5,1.25,6.5S113.429,279.743,111.179,280.993z M150.429,288.993l1.5,11.75c0,0-4.5,2.25-5,1.25
				s-3.75-13.25-3.75-13.25s-13.25,0.5-13.25-0.25s-2.25-6.997-2.25-6.997s10.25,0.753,11,0s-0.25-6.753-0.25-6.753l-12-0.5v-6.75
				c0,0,8,1.25,8.5,0.5s-1.5-7.25-1.5-7.25s8.25,1.25,8.75,3.25s-0.75,4.535,2,5.143s8.841-1.143,8.841-1.143v7.5
				c0,0-5.841-1.5-5.591,0s0.25,5.25,1.75,6.5s9.75-1.25,9.75-1.25l1.5,8.25H150.429z M174.929,300.243c-1.5,0-4,1.25-5,0
				s-3-2-2-4.75s7-17.75,7-19.5s3.75-9.25,3.75-9.25c1.25,0.25,9.25,4.5,9.25,4.5S176.429,300.243,174.929,300.243z
				 M223.429,277.493c-1.25,1.25-11.25,0-11.25,0l5.25,10.5c0,0-9,3.75-9.75,2.75s-4.5-17-6-20.25s-3-9.75-3-9.75h5.25l5.5,8.393
				c0,0,9,0.107,10.25,2.357S224.679,276.243,223.429,277.493z M253.429,266.743c-0.5,1-4.25,7.5-5.25,7.25s-6.25-0.25-5.5-1
				s7.5-14.75,7.25-18s-6.809,0.75-9.904,1.5s-7.096,3-7.096,3l0.25,7.25c0,0-3,1.75-4.75,0s-4.25-3.75-3.25-8
				c0.418-1.771,8.5-3.25,8.5-4.5s-1.5-9.75-1.5-9.75l4.75-2.75l4,8.5c0,0,3-4.25,4.5-4.5s7.75-1.5,9,0
				S253.929,265.743,253.429,266.743z M263.679,199.243c-1.75,2.25-12.533,3.83-16.326,5c-5.674,1.75-10.174,8.5-10.174,8.5
				s5.515,7.146,7.75,10.5c4,6,4.5,15.5,4.5,15.5s-22.25-5.5-23.5-5.5s-12.75-5.75-12.75-5.75s-0.25,7-5.25,15.5
				c-4.092,6.957-14.377,13.074-17.977,15.066c-0.117,1.344-1.273,0.684-1.273,0.684s0.475-0.241,1.273-0.684
				c0.095-1.101-0.508-3.546-3.023-8.816c-4.453-9.329-6-9.75-6-9.75s-0.75,13.75-6.75,15.75s-14,3.078-16.75,3.664
				s-9.5,1.836-9.5,1.836s0.25-5.75,0-13s-2.25-8-2.25-8s-17.75,2.75-21,3.75s-24.5,3.75-24.5,3.75s13.25-12.25,14.25-15
				c0,0-8.75,0.75-14.25-1s-11-0.5-18.25,0.25s-19.25-1.25-19.25-1.25s14-9.25,18-13.25s13-12,13-12s-7.5-1.5-14-4.25
				s-9.25-2.25-19.75-4s-11-8.75-11-8.75s9.719-1.181,12.75-3c6.25-3.75,20.25-20.5,20.25-20.5s-18.336,1.416-29-0.25
				c-16-2.5-24.75-15.75-24.75-15.75s12.25-2,16.75-3s16.044-10.479,24.25-14.25c9.25-4.25,16.25-1.5,16.25-1.5
				s-4.5-7.25-4.25-17.25s-8.5-15-8.5-15s16,0.5,18.5-0.75s8.25-3.25,10.75-4.25s11.25-2.25,11.25-2.25s-1.5-13.18-2-17.09
				s-1.75-12.535-1.75-12.535s12,5.833,17,5.729s18.25,4.966,21,6.806s10.182,2.59,10.182,2.59l5.818-15.125
				c0,0,16.25,17.099,18.5,18.237s14.793,12.138,15.396,12.638s10.604-8.25,22.854-8.375s30.92,3.875,34.711,2.625
				c3.789-1.25,3.789-1.25,3.789-1.25s-7.25,19.5-14.25,27.75s-7,8.25-7,8.25s1,2.5,12,4.25s17.5,1.75,17.5,1.75l-10.75,13.25
				c0,0-4.652,18.75-8.826,23.5s-13.424,11.5-13.424,11.5s2.25,1.75,10.5,5s10.891,6.25,13.695,7.5s12.055,3.5,12.055,3.5
				S265.429,196.993,263.679,199.243z M274.179,114.993c-9.25-3-16.75-7.25-14.75-15.75s12.75-14,12.5-16.125s-0.5-3.651,0.5-4.263
				s7.75-3.112,7.75-3.112c0.75,0.5,3.5,10.5,2.25,11.25s-11,5.5-12.25,8.75s-5.5,8.5-3,10.75s15.893,0.5,15.572-2.5
				c-0.322-3,7.678-4.25,8.428-4.25s1.25,7.543,2.5,7.771S283.429,117.993,274.179,114.993z"/>
			<path fill="#006571" d="M201.929,44.243c1.25-0.25,0.25-4.75,0-7s-0.869-1.55-3.938-2.708c-2.201-0.831-4.313-1.792-5.563,1.208
				s1.5,9.5,2,11.25S200.679,44.493,201.929,44.243z"/>
			<path fill="#006571" d="M254.179,70.993c2-4-0.619-6.182-3.006-7.75c-2.744-1.804-2.744,6.25-3.71,7.75
				S252.179,74.993,254.179,70.993z"/>
		</g>
		<g>
			<path fill="#006571" d="M127.35,96.857c0.313,0.937,2.498,1.458,4.892,3.852c2.395,2.394,6.143,4.06,6.143,4.06l3.018-4.788
				c0,0-10.721-10.097-15.404-15.198c-3.785-4.122-5.31-8.744-5.31-8.744l12.388,8.952c0,0,9.576,8.744,11.241,9.056
				s1.665-1.561,1.665-1.561s-4.163-4.789-6.453-7.599s-3.955-9.889-3.955-9.889s-7.078-2.811-9.265-2.498s-10.93-5.309-10.93-5.309
				s1.146,3.851,2.187,5.309S127.037,95.92,127.35,96.857z"/>
			<path fill="#006571" d="M151.187,86.865c1.77-1.666,1.873-4.987,1.873-4.987s-4.58-0.217-5.412-0.009s-7.182-3.227-7.182-3.227
				c1.249,2.915,8.639,11.242,8.639,11.242S149.417,88.53,151.187,86.865z"/>
			<path fill="#006571" d="M145.357,110.077c0.104,1.249,6.558,4.997,6.558,4.997l2.707-3.435c0,0-2.082-5.621-1.041-9.993
				c0.361-1.519,1.561-10.097,1.561-10.097s-3.643,4.164-4.787,5.725C149.209,98.835,145.253,108.828,145.357,110.077z"/>
			<path fill="#006571" d="M163.55,106.122c1.955,0.312,4.084,1.562,4.084,1.562s0.729,0.417,0.729-0.937s-3.123-3.227-3.644-3.435
				s0.833-16.342,0.833-17.331s1.353-9.837,1.353-9.837l-3.019-0.937c0,0,0,0.937-1.041,4.684s-2.602,2.29-3.643,6.089
				s0,21.703,0,21.703S161.596,105.81,163.55,106.122z"/>
			<path fill="#006571" d="M170.964,108.412c0,0,0,0,2.498,1.77c2.499,1.77,3.539,5.205,3.644,6.558s3.228,3.123,3.228,3.123
				s1.04-1.458,0.52-2.082s-1.978-1.978-2.29-2.706s-0.729-6.87-0.937-7.911s-1.354-9.264-1.354-10.93s-1.978-5.933-2.706-7.287
				s-3.228-8.119-3.228-8.119s0,5.829,0.625,11.346S170.964,108.412,170.964,108.412z"/>
			<path fill="#006571" d="M182.632,109.661c0.615,0.417,0.615,6.454,0.095,8.328c0,0,3.851-0.417,3.851-0.833
				s0.209-21.651-0.729-24.565c-0.937-2.915-0.624-4.164-0.624-4.164l-6.558-4.893c0,0,1.562,5.933,1.666,8.64
				C180.437,94.88,182.018,109.244,182.632,109.661z"/>
			<path fill="#006571" d="M190.222,115.074l3.122,2.915c0,0,2.29-10.617,0.833-16.759s-6.35-9.754-6.35-9.754
				s3.504,11.836,3.418,12.356C191.157,104.352,192.095,113.617,190.222,115.074z"/>
			<path fill="#006571" d="M202.815,115.074c-0.104-0.729,1.77-4.372,2.603-5.309s7.078-7.911,12.699-10.097s9.16-1.562,9.16-1.562
				s-7.703,5.309-10.513,7.807c-2.811,2.498-11.347,12.387-11.971,13.428c-0.625,1.041-4.269,1.874-3.02,4.164
				c1.25,2.29,5.518,0.521,6.87,0s11.138-11.346,11.763-12.803s11.138-11.866,12.907-14.26s-1.041-3.748,0.104-3.644
				c2.036,0.185,5.517-2.915,5.621-4.164c0,0-8.539-0.776-19.153,1.249c-11.498,2.194-18.112,8.64-18.112,8.64v4.788
				c0,0,2.186-3.331,7.807-6.349s13.221-2.915,12.388-2.603s-9.681,4.892-11.659,6.402c-1.978,1.51-8.639,5.807-8.639,5.807
				l-0.729,10.691C200.942,117.26,202.92,115.802,202.815,115.074z"/>
			<path fill="#006571" d="M222.905,119.862c4.06-1.249,11.346-7.495,13.398-9.056s7.732-9.68,8.773-11.346s5.1-9.889,4.58-9.577
				c-0.521,0.312-4.372,1.145-4.372,1.145s-9.368,12.908-10.306,14.469C234.043,107.058,222.905,119.862,222.905,119.862z"/>
			<path fill="#006571" d="M218.741,128.605c2.707-1.041,12.908-2.498,12.908-2.498s-6.454-1.459-12.283-0.521
				c-4.934,0.794-9.033,2.442-9.033,2.442s0.082,1.826-0.023,2.45C210.31,130.479,216.035,129.646,218.741,128.605z"/>
			<path fill="#006571" d="M236.304,129.126c-5.129,0.417-15.793,3.019-17.979,4.06s-10.097,0.729-10.097,0.729
				c-0.208,1.457-5.413,5.205-4.476,6.038c1.82,1.62,13.948-1.77,17.227-3.019s10.566-2.499,18.061-3.748s14.469-2.707,14.469-2.707
				S241.435,128.71,236.304,129.126z"/>
			<path fill="#006571" d="M252.155,133.707c0,0-19.152,8.223-23.581,10.201s-16.702,4.892-16.702,4.892s1.041,3.748,1.77,3.748
				s10.305-1.666,15.926-2.603s15.406-5.413,15.406-5.413L252.155,133.707z"/>
			<path fill="#006571" d="M228.574,167.641c0,0,1.911-0.387,5.926-3.012c5.581-3.65,5.997-6.357,6.622-8.126
				c0.624-1.77,3.227-9.576,3.227-9.576s-9.993,6.35-13.428,9.125c-3.436,2.775-9.941,3.887-9.941,3.887L228.574,167.641z"/>
			<path fill="#006571" d="M208.541,168.994c0.625,1.041-0.104,6.869,1.04,6.244c1.146-0.623,10.41,0.834,10.41,0.834
				s6.35-4.998,4.788-4.27s-11.763-7.182-11.763-7.182S207.916,167.953,208.541,168.994z"/>
			<path fill="#006571" d="M207.812,200.949c4.789,3.02,16.551,5.518,19.361,5.725c2.811,0.209,11.763-3.227,14.261-4.787
				c2.498-1.563,14.157-7.807,14.157-7.807s-9.577-6.975-16.551-10.723c-6.975-3.746-13.532-5.1-15.094-4.791
				s-4.893,0.732-7.189,1.357s-9.031-1.816-8.27-1.354c1.717,1.041,1.822,5.516,1.822,5.516s5.934-1.664,14.717,1.25
				s16.928,8.639,16.928,8.639s-7.078-0.623-15.405-3.33c-5.884-1.914-15.614-5.102-15.614-5.102l-3.643,4.686
				c0,0,5.621,1.77,7.91,2.375c2.291,0.605,10.93,5.848,10.93,5.848s0.521,0.832-7.182-0.313s-12.908-5.535-12.908-5.535l-5.1,3.141
				C200.942,195.744,203.024,197.932,207.812,200.949z"/>
			<path fill="#006571" d="M228.267,210.525c-0.365-0.521-8.067-0.834-8.379-0.729c-0.313,0.104-6.662-1.459-6.662-1.459
				s4.58,2.082,6.037,7.287s0.313,7.6,1.717,7.703c2.316,0.17,10.045,4.684,10.045,4.684l-8.848-15.613c0,0,0.938-0.938,1.562-0.313
				s1.978,3.02,5.048,7.6s6.402,10.617,6.402,10.617l9.16,1.977c0,0-5.412-8.848-5.934-9.576
				C237.896,221.975,228.631,211.045,228.267,210.525z"/>
			<path fill="#006571" d="M211.872,207.818l-6.87-2.707c0,0,1.458,2.916,3.485,6.143c2.029,3.227,2.393,7.703,2.393,7.703
				l5.877,2.289c0,0-2.49-4.061-3.531-7.6C212.344,210.65,211.872,207.818,211.872,207.818z"/>
			<path fill="#006571" d="M199.798,200.324l-6.767-6.143c0,0-0.104,2.916,2.187,6.143c2.289,3.227,1.248,6.557,2.602,13.322
				s4.477,27.689,4.477,27.689s4.58-8.535,4.996-11.971c0.416-3.434-2.082-13.74-3.019-15.301
				C203.337,212.502,199.798,200.324,199.798,200.324z"/>
			<path fill="#006571" d="M196.259,233.945c0.088-1.898-1.563-20.193-2.395-22.588s-7.078-12.387-7.911-13.428
				s-0.833-3.123-0.833-3.123l-9.16,1.354c0,0,4.164,2.498,5.83,4.164c1.665,1.666,7.286,6.557,9.16,18.84
				c1.873,12.283-0.834,21.547-0.834,21.547s0.938,3.02,4.164,5.414c3.228,2.395,4.477,1.664,4.477,1.664
				S196.05,238.422,196.259,233.945z"/>
			<path fill="#006571" d="M183.247,215.105c-2.684-6.65-8.535-15.303-8.535-15.303l-2.291,3.123c0,0,1.979,3.852,3.539,8.328
				c1.563,4.477,3.02,12.594,3.02,12.594l8.379,14.156c0,0,0.717-3.955,0-4.996C184.99,229.568,184.706,218.723,183.247,215.105z"/>
			<path fill="#006571" d="M167.841,213.18c0,0,1.979,5.234,2.187,4.578c0.96-3.018-1.354-5.881-1.354-5.881L167.841,213.18z"/>
			<path fill="#006571" d="M167.217,216.145l-3.956,5.83c1.666,1.561,3.645,9.16,0.209,19.361s-8.952,9.889-7.494,12.387
				c1.457,2.498,10.721-0.938,11.346-1.354c0.624-0.416,5.829-13.949,5.829-14.365s-4.58-11.555-5.31-13.219
				C167.112,223.119,167.217,216.145,167.217,216.145z"/>
			<path fill="#006571" d="M158.993,238.629c0.125-2.17,0.521-12.492,0.521-12.492s-1.77,2.811-2.395,3.957
				c-0.625,1.145-3.227,2.186-3.227,2.186s-0.209,0.729,1.145,4.268s0.697,12.906,0.697,12.906S158.682,244.041,158.993,238.629z"/>
			<path fill="#006571" d="M168.362,200.844l-6.246-4.684c0,0-0.409,2.707-4.579,12.178c-4.17,9.473-10.93,16.031-10.618,15.615
				c0.313-0.416,3.436-10.826,5.726-16.76c2.29-5.932,1.237-16.238,1.237-16.238l-7.274,3.227c0,0,0.521,3.852-0.208,9.785
				c-0.729,5.934-6.559,23.42-7.183,25.398c-0.624,1.977-6.662,6.02-6.662,6.02s7.286-0.189,10.722-1.336
				c3.436-1.145,10.305-7.494,14.677-12.803S168.362,200.844,168.362,200.844z"/>
			<path fill="#006571" d="M140.987,194.807h-3.331c0,0-3.123,10.098-5.102,14.572c-1.979,4.477-4.787,14.574-5.933,18.217
				c-1.145,3.643-4.893,9.369-4.893,9.369h3.956c0,0,9.368-19.467,10.617-23.795S140.987,194.807,140.987,194.807z"/>
			<path fill="#006571" d="M122.771,225.098c-0.104-0.521,6.454-18.842,6.454-18.842s-9.056,6.662-11.606,9.959
				c-2.55,3.297-14.104,9.715-11.605,9.922S122.875,225.617,122.771,225.098z"/>
			<path fill="#006571" d="M131.358,199.074l-1.301-6.975c0,0-6.454,4.789-6.766,5.934c-0.313,1.146-6.975,7.912-11.061,10.305
				c-4.085,2.395-19.127,15.615-19.127,15.615l5.83,0.623c0,0,3.746-2.914,6.037-4.268c2.289-1.354,9.992-6.869,13.947-10.824
				S131.358,199.074,131.358,199.074z"/>
			<path fill="#006571" d="M101.952,210.525c0.938-1.041,7.391-8.537,7.391-8.537c-4.892,0.104-10.721,6.662-12.074,7.912
				c-1.354,1.248-15.302,12.699-15.302,12.699l5.413,0.52c0,0,4.58-3.227,5.725-4.215
				C94.25,217.914,101.016,211.566,101.952,210.525z"/>
			<path fill="#006571" d="M127.247,182.732l-3.019-4.221c0,0-3.435,1.721-4.476,3.49s-2.811,1.666-4.789,4.58
				c-1.977,2.914-16.342,9.369-16.342,9.369s0.104,0.938,7.807,0c7.703-0.936,16.551-5.205,16.863-5.934
				c0.312-0.729-0.625-2.498-0.625-2.914C122.667,186.686,127.247,182.732,127.247,182.732z"/>
			<path fill="#006571" d="M81.967,193.662c0.013,1.188,8.952,0.936,9.785,1.145s11.554-6.559,13.909-8.848
				c2.354-2.291,11.781-12.18,11.781-12.18l-2.374-3.434c0,0-4.996,5.727-13.948,10.512
				C93.124,185.133,81.96,193.037,81.967,193.662z"/>
			<path fill="#006571" d="M99.704,174.404c1.291-1.145,11.514-10.201,11.514-10.201v-5.933c0,0-9.16,6.349-13.428,8.119
				s-7.703,5.621-15.823,12.123c-8.12,6.5-20.193,11.611-18.424,12.027c3.146,0.738,17.071-6.143,19.674-6.975
				S98.414,175.549,99.704,174.404z"/>
			<path fill="#006571" d="M81.239,158.27c1.977-0.313,19.985,1.979,19.985,1.979s0.104-1.666,0-2.603s-4.06-5.829-4.06-5.829
				C93.313,152.962,79.261,158.583,81.239,158.27z"/>
			<path fill="#006571" d="M80.094,151.817c3.956-0.937,14.781-1.874,14.469-2.499s-3.402-4.892-3.402-4.892
				s-5.966,0.625-18.353,3.955s-14.885,7.651-14.885,7.651l9.367,0.78C67.29,156.813,76.138,152.753,80.094,151.817z"/>
			<path fill="#006571" d="M72.495,144.426c6.766-1.77,17.8-2.395,17.279-2.499s-4.372-8.223-4.372-8.223s-4.163,0.729-9.784,2.29
				s-11.346,5.621-14.156,8.432s-13.012,7.391-13.012,7.391s5.204-0.937,9.473-1.874C62.19,149.006,65.729,146.196,72.495,144.426z"
				/>
			<path fill="#006571" d="M112.935,150.048c1.094-0.937,1.926-2.082,1.926-2.082c-1.563-0.521-7.6-9.472-9.265-9.785
				s-3.747-6.037-6.974-7.702s-8.224-8.953-8.224-8.953s4.372,15.51,7.495,20.402S111.841,150.984,112.935,150.048z"/>
			<path fill="#006571" d="M106.324,131.52c3.644,3.54,15.927,13.636,15.927,13.636s4.059-3.747,3.539-3.643
				c-0.521,0.104-7.807-7.078-8.348-7.808c-0.539-0.729-10.598-11.554-13.928-15.481c-3.331-3.928-2.244-8.251-2.244-8.251
				s1.307,1.041,1.359,1.562c0.052,0.521,8.898,8.536,11.397,11.138s7.807,6.038,10.306,7.808c2.498,1.77,6.557,8.431,6.348,7.702
				c-0.211-0.729,1.25-5.205,0.834-5.205s-3.123-4.58-3.539-5.101s-6.037-11.866-6.037-12.282s-7.183-3.123-8.432-3.539
				s-10.201-4.372-12.236-3.643c-2.034,0.729-8.686-4.164-8.686-4.164s9.781,0.55,11.137,0.521
				c1.758-0.037,12.387,2.289,12.387,2.289c0.104-1.354-2.705-3.643-3.174-4.58s-1.717-4.268-1.717-4.268s-19.467,1.77-20.058,2.551
				s-6.8,3.971-6.8,3.971s5.934,6.281,8.12,9.196S102.681,127.98,106.324,131.52z"/>
			<path fill="#006571" d="M132.763,123.505l2.706-12.179c0,0-3.019-2.811-3.879-2.706s-9.237-6.87-10.902-8.276
				s-5.309-1.613-5.309-1.613c-0.104,3.019,4.476,9.264,6.974,12.387S132.763,123.505,132.763,123.505z"/>
			<path fill="#006571" d="M143.007,122.568c0.669-0.521,1.727,1.353,2.349,0.937s-0.415-3.331-0.831-3.643
				s-4.059-3.852-4.059-3.852c-1.979,0.416-5.309,8.015-5.83,9.262c-0.52,1.247,3.123,2.917,4.477,3.333
				c1.353,0.417,4.684,1.145,4.996,0.458s0.208-3.476-0.104-3.791c-0.313-0.315-2.498,0.315-2.915,0
				S142.339,123.089,143.007,122.568z"/>
			<path fill="#006571" d="M158.739,127.148c1.307,0.417,4.105-0.729,5.355-1.041c1.249-0.312,4.892-1.041,5.62-4.581
				s0-4.163-1.353-5.516c-1.354-1.354-6.956-0.174-7.6,0c-4.996,1.353-4.684,7.079-4.684,8.638S157.433,126.732,158.739,127.148z
				 M160.972,118.821c0.295-0.69,2.706-1.249,3.435-0.833s1.353,2.184,1.146,3.538c-0.209,1.354-1.59,1.47-2.513,1.152
				S159.632,121.944,160.972,118.821z"/>
			<path fill="#006571" d="M179.708,124.648c-0.937,0.519-1.666,1.25-1.77,2.083s-2.082,3.539-3.852,3.747s-2.603,1.249-3.019,2.29
				l0.729,0.417c0,0,5.204,0.521,7.599,0.519s6.558,4.686,5.934,3.333c-0.625-1.353-1.146-5.517-2.697-7.691
				c-1.551-2.174-0.634-4.698-0.634-4.698S180.645,124.129,179.708,124.648z"/>
			<path fill="#006571" d="M161.804,144.426c0.938-0.313,2.186-4.787,1.746-5.516s-3.516-4.268-4.811-5.206
				c-1.297-0.938-2.869-2.596-4.639-1.872c-2.289,0.937-1.977,4.268-1.977,5.45s-1.458,6-1.354,6.313
				S160.867,144.74,161.804,144.426z M155.142,140.382c-0.416-1.679-0.504-4.788,0.934-4.528c1.362,0.246,4.375,1.808,5.416,3.369
				s0.37,2.603-0.908,2.499C159.306,141.617,155.559,142.061,155.142,140.382z"/>
			<path fill="#006571" d="M193.344,122.678c-0.624,0.111-7.731,3.648-7.952,4.561c-0.249,1.028,2.852,3.24,3.268,4.416
				c0.417,1.176,6.003,5.173,6.003,5.173s2.532-7.078,1.804-9.589S193.968,122.567,193.344,122.678z M193.864,130.85
				c-0.729,0.253-2.318,1.413-2.877,0s-1.414-3.631-0.454-4.223c0.442-0.273,3.331-1.769,3.331-0.937
				S194.593,130.597,193.864,130.85z"/>
			<path fill="#006571" d="M177.001,146.926c0.208-0.415,6.454-2.604,6.766-2.5c0.313,0.104,1.979-2.29,0.521-4.58
				c-1.458-2.29-7.295-1.214-8.619-1.771c-2.477-1.043-3.768,1.043-4.601,3.653S176.793,147.341,177.001,146.926z M176.169,140.382
				c1.488-0.961,2.914,0.269,3.852,2.001c0.936,1.732,0.104,3.397-0.313,2.772C179.291,144.531,172.935,142.471,176.169,140.382z"/>
			<path fill="#006571" d="M190.101,150.62c-0.85-0.677-7.479-0.077-9.102,0c-0.441,0.021,4.543,8.387,5.144,9.539
				C185.804,159.018,190.93,151.281,190.101,150.62z"/>
			<path fill="#006571" d="M186.143,160.159c0.009,0.027,0.004,0.07,0.019,0.09C186.227,160.335,186.212,160.293,186.143,160.159z"
				/>
			<path fill="#006571" d="M134.115,150.62c0.833,0.051,4.269,4.679,4.269,4.679s2.914-5.563,2.914-6.5s-1.354-4.684-1.666-4.788
				c-0.312-0.104-4.018-0.119-5.046,0c-1.304,0.151-2.761-0.521-3.905-0.165c-1.146,0.355-2.082,5.161-1.979,6.455
				C128.807,151.595,133.282,150.568,134.115,150.62z M133.074,146.926c0.397-0.796,2.395-1.042,3.019,0.832
				c0.625,1.874-0.32,2.066-1.097,1.762S132.45,148.177,133.074,146.926z"/>
			<path fill="#006571" d="M130.056,160.249c0.104-1.873-3.746-2.916-4.633-3.436c0,0-3.277-0.208-4.631,0s-3.747,4.268-3.852,6.765
				c-0.104,2.498,5.101,3.957,6.454,4.063s1.978-1.668,3.122-3.02C127.662,163.27,129.952,162.121,130.056,160.249z
				 M127.247,160.976c-0.418,1.354-3.02,3.018-3.748,3.018s-4.373-0.398-3.956-1.813c0.417-1.414,2.181-3.346,2.915-3.287
				C123.495,158.979,127.665,159.623,127.247,160.976z"/>
			<path fill="#006571" d="M153.997,169.408c0.417-0.625,1.354-1.77,2.603-2.604c1.249-0.832,0.313-1.664,0-3.33
				c-0.313-1.667-2.498-1.293-2.498-1.293s-0.104,4.52-3.853,2.854c-3.75-1.666-2.602-5.932-2.602-6.765s-1.16-0.176-2.098,0
				c-0.932,0.175-3.523,7.183-3.211,8.535c0.313,1.354,3.02,0.625,6.142,0.84S153.581,170.033,153.997,169.408z"/>
			<path fill="#006571" d="M180.972,174.432c1.783-0.18,2.172-0.756,1.66-3.357c-0.51-2.602,0.512-6.143,0-6.453
				c-0.51-0.311-1.467-5.726-2.184-6.763c-0.719-1.037-11.068-0.094-11.67,0c-1.588,0.246-0.104,10.925,0,12.904
				c0.104,1.977,0.521,0,2.914,1.457C174.087,173.676,179.188,174.613,180.972,174.432z M178.667,168.471
				c-0.729,0.938-0.684,2.398-3.412,1.875c-2.729-0.521-4.811-1.768-4.187-2.705c0.624-0.939,2.647-6.25,4.187-6.197
				c1.453,0.05,2.018,0.677,2.975,1.615C179.188,163.994,179.396,167.535,178.667,168.471z"/>
			<path fill="#006571" d="M206.979,163.994c1.041,0.313,0.521-4.371,0.417-5.372s-2.498-4.308-3.019-5.141
				s-8.744,0.833-9.716,1.041s-2.046,4.996-2.046,6.245s1.816,3.365,2.914,3.226c0.833-0.104,1.457-1.873,1.457-2.55
				c0-0.678-1.666-2.237-1.666-3.586s4.893-3.127,6.143-2.56c1.248,0.567,0.729,5.678,0.729,6.883
				C202.192,163.389,205.939,163.684,206.979,163.994z"/>
			<path fill="#006571" d="M192.144,189.705c1.299,0,2.865-1.457,3.699-0.729c0.832,0.73,1.561,1.873,1.977,1.979
				s6.975-6.768,7.183-7.496s-5.413-6.037-7.286-7.387c-1.873-1.352-4.256-1.473-4.686-1.045c-0.834,0.832-7.493,4.789-7.449,6.246
				s1.934,5.83,1.777,6.662C187.202,188.77,190.846,189.705,192.144,189.705z M190.987,182.23c0.588-2.311-0.558-3.15,3.605-3.719
				c1.555-0.213,3.331,1.92,3.227,4.371c-0.104,2.451-0.783,2.658-2.525,3.074C193.552,186.375,190.401,184.539,190.987,182.23z"/>
			<path fill="#006571" d="M176.585,189.914c-0.104-0.625-1.77-7.703-2.706-7.658c-0.937,0.047-4.894-4.506-6.038-4.625
				c-4.996-0.521-5.309,2.602-5.838,4.625s-2.905,6.617-2.072,6.824c0.833,0.209,4.893,3.459,7.91,2.498
				c3.02-0.959,6.975,0.834,7.604,1.02S176.689,190.537,176.585,189.914z M170.003,189.08c-0.496-0.52-6.711-1.873-6.361-2.498
				c0.349-0.625,0.14-4.277,4.199-3.699c1.992,0.283,3.748,3.438,3.748,4.557C171.589,188.561,170.498,189.602,170.003,189.08z"/>
			<path fill="#006571" d="M136.296,186.688c0.1,0.52,2.816,3.33,2.816,3.33l8.951-7.135c0,0,0.417-1.088,0-1.713
				c-0.416-0.625-1.873-1.873-2.514-1.457s-3.934-1.861-6.438-2.141c-2.395-0.266-2.186,0.059-2.816,0
				c-0.629-0.057-2.492-1.504-3.353-1.5c-0.86,0.002-0.909-0.732-1.585,0c-0.675,0.73-1.406,5.93-0.574,6.184
				c0.833,0.254,3.802,4.223,3.802,4.223l0.883-1.389c0,0-0.208-4.857,0-5.482s2.603-0.52,3.747,0.105
				c1.146,0.623,1.979,3.746,0.852,5.377C138.942,186.721,136.198,186.166,136.296,186.688z"/>
		</g>
	</g>
</g>
</svg>
