<svg xmlns="http://www.w3.org/2000/svg" width="200" height="200" viewBox="-10 -140 370 370" preserveAspectRatio="xMidYMin slice">
  <path d="M26.683 74.381c1.541-.043 2.569 1.23 2.134 3.201-.405 1.836-1.943 2.389-3.913 1.779-2.043-.631-2.372-4.861 1.779-4.98zm111.83-7.235c.237-.947.711-2.607 1.66-2.607s6.404 1.303 6.878 2.607 1.305 4.863 0 5.455c-1.305.594-1.423.238-1.423 1.068s2.468 2.016 2.124 4.861-5.325 2.609-6.985 3.084-2.227-.826-2.253-3.084c-.013-1.066 4.743.18 4.15-2.846-.271-1.381-2.057-2.561-3.439-2.561-.711 0-1.897-1.354-1.897-2.064s5.574-1.186 5.93-2.49-4.745-1.423-4.745-1.423z"/>
  <path d="M356.124 42.6c-1.186-1.186-30.24-3.202-45.182-3.439-14.942-.237-41.031 3.083-48.385 2.846-7.352-.237-46.488 1.186-55.737 1.542s-44.118 2.729-57.755 4.151-40.354 3.943-59.768 7.234c-20.99 3.558-34.864 3.083-34.864 3.083l3.794-4.447 5.1-9.546s-10.436 8.42-13.875 9.546-14.586 8.241-23.362 9.071-12.571 7.234-13.401 8.539c0 0-4.032-.717-7.234 1.896C.805 76.871 0 80.074 0 80.074l2.846.592s.83 1.424 3.439 2.49c2.609 1.068 9.961 2.729 9.961 2.729s1.626 3.107 5.303 3.938c4.942 1.115 15.689 2.109 20.789 1.754s19.448-2.252 26.089-1.305c6.641.949 26.396 7.592 45.182 10.199 24.128 3.35 40.084 0 55.975-6.996 15.89-6.998 16.247-13.994 16.72-13.875.475.117 8.186-.832 12.573-.949 4.388-.119 19.448-.949 19.448-.949l3.083 2.016s12.452 3.439 13.519 3.439c1.068 0 1.305-.711 1.187-1.424-.118-.711-2.372-.83-3.913-1.066-1.543-.238-5.219-2.254-5.219-2.729s8.775-.83 9.962-.592c1.187.236.356-1.779.356-1.963s-2.373-.291-4.507-.053c-2.134.236-4.388-.355-4.151-1.068.237-.711 6.642-2.49 7.827-2.49s.475-.949.118-1.422c-.355-.473-6.641.355-6.759-.713-.118-1.066-5.929 0-5.692-1.066.236-1.068 7.471-3.439 8.42-3.439s25.021-1.66 31.662-1.66 40.558-1.779 48.503-1.779 24.095.277 25.853-.355c1.625-.584.119-2.727-1.424-3.201-1.541-.474-4.506-.119-5.336-.356s0-3.914.118-4.209 3.677-1.483 6.167-1.483 6.404-.355 6.996-.593c.594-.237.119-2.728-.236-2.846s-4.389.119-6.049.119-7.233 1.067-7.471.83.119-3.202.119-3.202 5.455-1.542 7.707-1.779c2.254-.237 16.248.355 16.959 0s1.185-.832 0-2.018zM11.503 73.551s-.237 1.66 0 2.729c.237 1.066-2.964-.594-4.269 0-1.305.591 1.779-3.321 4.269-2.729zm1.304 7.115c-.033 0-.058-.023-.088-.031-.804-.115-4.855-.523-4.655-.977.237-.533 1.317-.889 4.032-1.008 0 0 .007 1.813.623 1.984.144.02.196.032.088.032zm229.236-31.523c.237-.614 1.187-2.985 4.507-2.985.839 0 3.083-.83 3.32 0s-1.897 3.202-3.32 3.676-4.743-.078-4.507-.691zm-26.102 9.585c1.079-.062 4.757-.593 5.351 0 .592.593.355 1.66-.712 2.253-1.067.592-3.439.012-4.032 1.133s-6.522.539-6.285 0c.237-.541.691-2.556 1.354-2.674s3.602-.671 4.324-.712zm-24.889 8.418c1.067-.119 9.487-.236 9.487-.236s14.941-1.068 15.535-.594c.592.475-3.914 1.779-3.914 2.135s-22.887 1.66-22.412.711c.474-.947.237-1.896 1.304-2.016zm-1.543-5.691c1.067-.119 6.396-.814 8.063-.949 0 0 7.709-.711 7.828 0 .118.712.474 2.135-.475 2.254-.949.117-14.824 1.66-14.942 1.186s-1.541-2.372-.474-2.491zm12.927-13.638c-.238-1.186 3.551-.537 4.387-.593 1.303-.086 4.389-.711 4.625 0 .238.711.356 5.694-.592 6.345-.949.651-8.42 1.363-8.42.77s.236-5.336 0-6.522zM21.465 73.67c1.304-2.609 5.099-2.609 5.099-2.609 1.779.119 5.929 1.541 5.218 4.861-.711 3.322-2.253 5.455-7.353 5.693-5.099.237-3.867-6.138-2.964-7.945zm114.439 21.582c-16.247.355-24.903-1.186-27.75-1.66s-12.926-3.32-16.602-4.27c-3.676-.947-7.827-2.371-7.827-2.371s4.507-2.965 4.625-6.285-1.661-2.609-1.542-2.965 2.49-1.422 2.49-3.32c0-1.896-2.016-1.541-1.66-2.135.356-.592 2.372-2.49.237-4.861s-6.759-2.609-6.997-3.439-.949 1.896-.475 3.084c.475 1.186 3.439 2.482 3.083 3.434-.356.953-5.811 1.309-6.285 1.783s-.475 2.016.593 2.016 6.286-.592 6.048 1.305c-.237 1.898-4.862 3.203-5.692 3.559s4.625 2.252 4.862 3.201-.592 3.914-3.676 4.389-5.101-.355-6.998-.355-6.048-.713-6.048-.713 6.522-2.371 6.522-4.387-1.542-2.018-1.542-2.49c0-.475 4.269-2.254 4.269-4.033 0-1.777-2.134-2.457-2.134-3.244s1.778-1.855 1.423-3.277c-.355-1.424-4.388-2.252-6.285-3.084-1.897-.83-2.846-1.777-4.15-.117s-2.016 3.912-1.067 3.912 6.285-.475 6.404.355-4.269 3.914-4.269 4.744 3.914-.475 4.388-.236c.474.236 1.422 1.777-.712 2.607s-4.625.949-4.625 1.66c0 .713-.119 2.49.237 2.373.356-.119 2.728-.119 2.728.592 0 .713-3.676 1.188-3.558 1.66.119.475.237 3.084.237 3.084s-7.59-.594-10.08-.83-11.858-.475-13.756-.119-7.353 1.305-11.029 1.424-7.234.475-8.657-2.729c-.241-.541 5.929 1.543 10.198-.236s10.317-8.539 10.673-9.131c.356-.594 3.795-5.93 3.795-5.93s-3.185 2.248-6.997 2.248c-2.728 0-5.455-2.129-7.827-2.723s-2.846-.355-2.609-1.424c.237-1.066 15.786-3.133 18.143-3.32 4.742-.375 25.496-2.134 28.105-2.607 2.609-.475 36.053-4.863 42.694-5.693s33.205-3.558 38.304-4.388 25.614-2.846 27.867-2.609c2.254.237 15.062.949 15.535 1.779.475.83.475 5.267-.118 5.86s-2.372.543-2.372.543-1.738-3.063-5.455-4.032c-5.455-1.423-10.316-1.186-16.365.119-6.048 1.305-14.823.476-19.211 1.602s-15.653 2.786-16.009 2.905-10.673 2.135-14.705 2.728-5.336 1.778-10.673 2.372c-5.336.592-11.384 2.016-12.926 2.252-1.542.238 1.304 2.016 2.016 2.254.712.236 7.827-.83 7.827 0s-3.083 2.965-2.965 3.439-.356 1.422.711 1.541 4.032.119 4.032 1.898c0 1.777-2.9 1.307-2.965 2.016-.119 1.305 2.728 2.135 2.846 2.846s-.711 2.016-2.609 2.371-6.404-.473-6.404-.947.949-.475 1.067-2.373c.119-1.896-1.897-1.066-2.728-1.422-.83-.357 1.66-1.424 1.186-3.914s-1.423-2.609-2.728-3.914-2.016-2.016-3.558-2.016-5.099.355-4.98 1.424c.119 1.066 5.762 2.555 6.641 2.846 1.779.588 1.778 1.66-.475 2.135s-5.218-.238-5.336.355-.474 3.676.356 3.914c.83.236 5.811.117 5.929 1.66.119 1.541-4.032 3.082-5.218 4.506-1.186 1.422-2.728 1.779.949 2.727 3.676.949 6.047-.117 6.641-1.066s1.186-1.424 1.186-1.424 4.388 2.846 11.147 4.15 23.48 2.729 26.563 2.848c3.083.117 18.5-.357 23.362-1.424s-11.023 6.637-27.27 6.993zm-11.266-20.397c1.186 0 3.794-1.066 3.794 0s-2.253 1.779-3.32 2.135-1.542 1.186-.949 1.66 3.676-.119 4.269.475c.593.592-.948 4.625-3.083 4.031-2.135-.592-6.522-1.422-8.183-1.422s-4.506-.357-4.15-1.068 4.15-.594 4.15-2.016c0-1.424-3.083-2.729-2.965-3.32.119-.594.475-.084 1.542-1.762s-3.557-3.102-3.439-3.693c.118-.594 2.845-3.676 2.727-4.625 0 0 3.913-.355 5.455-.83s3.676-.83 3.676 0-1.779.355-1.779.83-.83 1.779.237 2.016c1.067.238 5.811-.236 5.811 1.186 0 1.424-.475 2.49-2.49 3.084s-2.134.119-2.134 1.305-.354 2.014.831 2.014zm37.181 2.016c.411 0 5.866-1.66 6.933 2.609s-8.894 4.15-10.436 3.734c-1.542-.414-7.708 1.484-12.452 1.127-4.744-.355-15.298.045-15.298.045s2.372-1.941 2.253-2.891-.949-1.186-.831-1.896c.119-.713 1.661-1.543 1.542-2.729s-1.897-1.303-1.66-2.016c.237-.711 2.015-1.066 1.897-3.676s-1.542-2.135-1.304-2.729c.237-.592-1.423-1.777-1.897-1.66-.474.119-2.728-2.656-2.609-2.869s10.503-2.4 11.859-2.703c.477-.107 16.72-3.676 18.974-4.27s10.199-2.609 13.164-2.372 11.503-.593 11.858 2.253-11.502 3.914-13.756 4.388c-2.253.473-16.365 2.49-16.128 3.557.237 1.068 2.016 2.49 3.202 2.609s8.183-2.254 11.029-2.49c2.846-.238 6.641-.584 6.641 2.494 0 3.08-6.64 3.316-9.131 3.553-2.491.238-7.945 1.695-7.945 2.627s3.684 3.305 4.095 3.305zm25.894-12.918c-.061.783-.443 5.324-2.893 9.123-2.905 4.508-8.396 7.828-8.396 7.828s.037-2.016-1.031-2.609-3.32-1.424-3.32-2.135 5.455.238 8.419-1.186 4.744-5.813 4.744-6.998-3.439-2.252-3.321-3.201c.001 0 5.662.069 5.798-.822.012-.146.014-.176.014-.031 0 .012-.012.019-.014.031zm31.445 10.902c-1.305.236-16.722-.355-18.382 0s-9.368 1.305-9.724.83-2.372-.355-2.017-.949c.356-.594 1.068-2.135 1.661-2.135s12.237-.592 12.237-.592 13.614-1.068 14.089-1.068 2.905 1.107 5.337 1.66c1.306.297-1.897 2.018-3.201 2.254zm-2.848-23.361c0-.356-.831-4.705 0-4.605s5.692 0 5.692 0 4.625-.573 5.218 0 .948 4.605 0 4.605-10.91.356-10.91 0zm19.159 9.842c-1.016 0-9.909 1.908-9.909.777 0-1.133.593-4.097 1.187-4.216.592-.119 3.459-.394 4.98-.831.613-.176 5.455-1.541 6.166-.948s-1.408 5.218-2.424 5.218zm2.069-10.611c-1.186.175-5.811.18-5.811 0s.829-3.837 4.15-3.837c.719 0 3.201-.455 3.32 0s-.474 3.662-1.659 3.837zm8.422 9.877c-1.545-.096-5.222.57-5.222 0s.688-4.661 1.293-4.631 3.214-.682 3.214-.682c.474-.237 4.068-.652 4.644.682.574 1.333-2.384 4.726-3.929 4.631zm12.47-1.381c-1.089.218-7.018.257-6.899 0s.425-5.02 4.388-4.186c.482.102 4.27-1.437 4.15-.474s-.55 4.442-1.639 4.66zm2.351-10.449c-.118-.362-5.692.6-5.573 0 .118-.6-.475-3.116.474-2.984s2.965 0 2.965 0c1.067.013 3.083-.725 3.083 0s-.831 3.347-.949 2.984zm60.479-4.064c.355-.03 3.795-.501 3.913 0s.119 2.802-1.304 3.193c-1.424.391-3.795.794-3.677 0s0-3.102 1.068-3.193zm-13.637 0c.83-.21 3.677-.275 3.677-.275s3.201-.776 3.438 0-.356 3.67-1.72 3.468-5.277.913-5.396 0-.83-2.983.001-3.193zm-36.822 14.513c-1.008-.257-6.94.018-7.058-.771s-.474-4.021.713-3.888 4.032-.318 4.032-.318c.593-.022 4.506-.526 4.625.318s-1.304 4.916-2.312 4.659zm1.719-10.449c-.948-.006-8.894.718-8.775 0 .119-.718 1.187-3.162 1.898-3.304.711-.142 3.913-.498 3.913-.498s4.624-.593 4.862 0c.237.594-.949 3.809-1.898 3.802zm15.063 9.678c-1.066-.078-11.858.436-11.266.001s1.776-3.693 2.252-4.376 3.613-.311 4.744-.504c0 0 4.389-.888 4.744 0s.592 4.957-.474 4.879zm1.066-10.55c-.949.628-10.08 1.234-10.08.872s0-4.091.475-4.065 4.861 0 4.861 0 5.692-.62 5.692 0 0 2.565-.948 3.193zm13.283 9.523c-.712-.237-9.224.728-9.236.008-.014-.72-.58-4.633 0-4.752.579-.119 4.848-.355 4.848-.355s4.863-.474 4.863 0 .236 5.336-.475 5.099zm1.066-10.201c-.948.714-9.249 1.473-9.249.679s-1.779-3.415-.713-3.468c1.068-.054 5.219-.647 5.219-.647s4.743-.237 4.743 0 .948 2.721 0 3.436zm12.69 9.599c-1.186.839-8.504 1.991-8.462.881s-.991-4.072 0-4.133 4.312-.395 4.312-.395 4.031-.809 4.15 0 1.186 2.808 0 3.647zm9.533 0c.191 1.432-6.806.805-6.806.881s-.948-3.538 0-3.628 3.794 0 3.794 0 4.389-.858 4.27 0c-.118.859-1.449 1.316-1.258 2.747z"/>
  <path d="M240.036 89.4c.285-.143 8.316-4.904 8.246-5.473-.072-.568-4.407-4.051-4.123-4.691s4.478-2.701 4.833-2.275c.355.428 3.341 4.834 3.98 4.977.64.141 12.297-6.539 13.292-6.256.995.285 7.321 3.768 6.824 4.479-.498.711-7.605 10.377-8.104 10.875s-5.047 1.137-5.047.355 3.625-10.164 3.127-9.809c-.497.355-8.884 5.473-8.813 5.758.07.283 7.178 9.951 6.822 10.59-.354.641-3.197 2.416-3.695 2.559s-6.113-11.443-6.469-11.23-6.539 5.402-7.605 5.332c-1.065-.073-3.268-5.191-3.268-5.191zm32.269-5.472c.214-.072 5.545-3.482 9.17-4.408 3.625-.924 6.753-2.984 7.535-2.629.781.355 3.767 3.197 3.553 4.051-.213.854-6.681 10.236-6.396 10.379.284.141 4.123 4.336 3.98 4.762s-2.203 1.422-3.555 1.137c-1.35-.283-5.26-3.412-5.757-4.193s-2.417-3.98-2.062-4.193 1.848-1.139 2.203-.143c.355.994.854.568 1.066.498.213-.072 3.625-5.758 3.555-6.184-.071-.428-5.971 1.99-7.464 2.486-1.493.498-2.56 1.422-3.128 1.279-.567-.141-2.7-2.842-2.7-2.842zm20.685-8.254s4.265-.846 4.478-.348c.214.498 1.92 6.256 2.346 6.326.428.072 10.734.355 11.018.924.285.568.428 3.625 0 4.053-.426.426-9.169-1.209-9.169-.854s.716 2.699 1.279 4.193c.733 1.945 1.066 3.482.569 3.555-.498.07-3.484 2.131-3.91 1.492-.426-.641-2.416-8.957-3.412-11.088-.995-2.132-3.413-7.765-3.199-8.253z"/>
  <path d="M300.168 75.674c.443-.248 2.418-1.271 3.057-1.129.641.143 2.844 3.625 2.559 4.051-.283.428-2.462 1.422-2.795 1.422-.332 0-3.289-4.082-2.821-4.344zm3.413-3.545c.101-.604 2.771-1.494 3.199-1.281.426.215 4.305 4.178 4.32 4.826s-1.762 2.637-2.047 2.424c-.283-.213-5.615-5.118-5.472-5.969zm9.738 2.699c.195-.682 3.91.912 4.62 2.447.71 1.533 3.767 8.074 3.554 8.5s-2.914.213-3.412 0c-.498-.212-4.905-10.449-4.762-10.947zm8.184-3.197c-.173-.752 5.036 1.949 5.604 3.035.568 1.088 5.118 14.734 4.904 15.801-.213 1.066-2.133 4.723-2.559 4.672-.426-.053-3.199-8.652-3.625-10.359-.424-1.706-4.243-12.794-4.324-13.149zM220.071 11.334s3.404-2.128 3.563-2.021 1.649 2.021 2.341 2.021 3.725-2.189 4.203-2.025 2.712 3.888 2.553 4.419-3.404 1.968-3.404 2.394 3.139 7.021 3.83 7.713-1.383 1.118-2.873.905c-1.489-.213-2.021.212-2.766-.426s-3.192-6.756-3.564-6.437-4.574 2.873-5.639 2.607-3.99-2.182-3.883-2.554c.105-.372 6.861-3.352 6.809-3.777s-2.064-2.268-1.17-2.819z"/>
  <path d="M232.678 16.175c.271-.003 4.256-.319 4.415 0s2.288 4.948 2.075 5.533-3.908 2.725-4.256 1.649c-.196-.606-.16-1.596-.639-2.766s-2.021-4.411-1.595-4.416zm-11.49 6.224s1.915-.106 2.34 0c.426.106 4.256 5.479 4.203 5.745-.054.266-3.217 2.447-3.869 1.809s-5.441-6.543-5.068-6.916 2.394-.638 2.394-.638zm10.479-20.64c.045-.307 5.32.532 5.427.798s1.892 2.713 2.09 3.139-3.739 1.596-4.324 1.011-3.246-4.575-3.193-4.948zm6.171-1.117c.243-.106 2.926-.692 3.457-.639.532.053 2.82 3.139 2.66 3.405s-2.181 1.968-2.713 1.596S237.53.777 237.838.642zm4.575 7.873c.238-.199 2.395-1.753 2.607-1.648s2.713 2.58 2.979 2.433 3.724-2.645 3.99-2.433c.266.211 1.809 3.191 1.755 3.829s-3.563 2.075-3.511 2.819 5.958 6.597 5.958 7.128-4.894 1.489-5.16 1.223-1.169-2.132-1.729-2.023-2.208 3.566-2.74 3.566-4.628-2.34-4.149-2.766 3.191-4.693 3.299-5.512c.105-.819-3.057 1.405-3.337 1.916s-2.408-2.149-2.036-2.788 3.42-2.5 3.625-3.245-2.123-2.022-1.551-2.499zm24.079 5.724s3.415-1.766 3.559-1.652 1.417 2.058 2.077 2.112c.66.054 3.725-1.799 4.168-1.606.445.193 2.287 3.921 2.094 4.417-.193.496-3.402 1.613-3.436 2.02-.033.407 2.449 6.946 3.055 7.661.605.714-1.407.959-2.813.64-1.404-.319-1.945.045-2.606-.622s-2.521-6.697-2.901-6.421c-.38.275-4.59 2.386-5.584 2.049-.996-.337-3.639-2.393-3.508-2.74.131-.347 6.811-2.665 6.793-3.075-.018-.411-1.794-2.327-.898-2.783z"/>
  <path d="M278.147 19.841c.26.018 4.088.027 4.215.344.128.317 1.799 4.901 1.55 5.442-.249.542-3.942 2.297-4.19 1.242-.141-.593-.027-1.535-.395-2.689-.366-1.154-1.586-4.367-1.18-4.339zm-11.451 5.046s1.837.047 2.234.182c.398.135 3.635 5.561 3.563 5.811-.071.25-3.261 2.085-3.834 1.425s-4.683-6.669-4.298-6.995 2.335-.423 2.335-.423zm11.609-18.884c.066-.29 5.037.922 5.117 1.185.081.262 1.595 2.737 1.75 3.158.156.421-3.693 1.232-4.205.628-.513-.604-2.742-4.62-2.662-4.971zm5.977-.586c.242-.083 2.848-.433 3.352-.34.502.092 2.445 3.215 2.273 3.457-.174.241-2.235 1.708-2.715 1.312-.479-.397-3.215-4.324-2.91-4.429zm3.754 7.871c.243-.171 2.422-1.487 2.616-1.37s2.389 2.674 2.654 2.555c.266-.12 3.76-2.234 3.997-2.012.238.223 1.478 3.186 1.377 3.791-.1.605-3.563 1.703-3.57 2.417-.007.715 5.174 6.761 5.132 7.268-.041.507-4.786 1.04-5.021.766-.232-.274-.949-2.126-1.492-2.066-.542.06-2.386 3.232-2.893 3.19-.508-.042-4.234-2.594-3.744-2.963.488-.37 3.411-4.231 3.576-5.004.166-.773-3.025 1.103-3.334 1.569-.307.466-2.131-2.239-1.727-2.819.405-.581 3.459-2.121 3.713-2.815.255-.694-1.866-2.096-1.284-2.507zm25.011-3.401s3.027-1.566 3.155-1.465 1.257 1.825 1.843 1.873c.584.048 3.303-1.596 3.696-1.425.394.172 2.028 3.479 1.856 3.917s-3.018 1.431-3.047 1.791 2.172 6.16 2.709 6.794c.537.633-1.248.85-2.494.567-1.246-.283-1.725.041-2.312-.551-.587-.592-2.235-5.94-2.573-5.695-.336.245-4.07 2.116-4.953 1.817-.882-.298-3.227-2.122-3.11-2.43s6.04-2.363 6.024-2.727c-.014-.362-1.589-2.061-.794-2.466z"/>
  <path d="M323.383 14.855c.23.016 3.625.024 3.738.305.113.282 1.595 4.347 1.375 4.827-.222.48-3.498 2.037-3.717 1.102-.125-.526-.025-1.361-.35-2.385s-1.405-3.874-1.046-3.849zm-10.156 4.476s1.629.042 1.982.162 3.224 4.932 3.16 5.153-2.892 1.849-3.4 1.264-4.152-5.915-3.813-6.204c.343-.289 2.071-.375 2.071-.375zm10.297-16.748c.059-.256 4.467.818 4.538 1.051s1.414 2.427 1.552 2.801c.139.374-3.275 1.093-3.729.557-.456-.537-2.431-4.097-2.361-4.409zm5.301-.52c.214-.073 2.524-.384 2.971-.302.447.082 2.17 2.852 2.018 3.066-.154.214-1.982 1.515-2.408 1.163-.425-.351-2.853-3.834-2.581-3.927zm3.329 6.981c.216-.152 2.147-1.319 2.319-1.215.174.104 2.119 2.371 2.354 2.266.236-.106 3.336-1.981 3.547-1.784s1.311 2.826 1.221 3.362c-.09.537-3.16 1.51-3.166 2.144s4.588 5.996 4.551 6.446c-.037.45-4.246.922-4.453.679-.207-.244-.842-1.886-1.322-1.833-.482.053-2.117 2.867-2.566 2.83-.45-.037-3.756-2.301-3.321-2.628.435-.328 3.025-3.752 3.172-4.438.147-.685-2.683.979-2.956 1.392-.273.413-1.891-1.986-1.531-2.5.359-.515 3.067-1.881 3.293-2.497.222-.617-1.659-1.859-1.142-2.224z"/>
  <path fill="#2EA7E0" d="M329.168 25.244s-3.031-3.445-12.265 1.24C306.624 31.7 292.65 53.356 292.65 53.356s-.139-22.324-9.646-22.462c-15.576-.226-27.01 25.907-27.01 25.907s-1.654-8.819-9.784-8.406c-6.606.336-12.265 7.993-12.265 7.993s-2.618-16.261-12.678-15.985c-12.686.348-17.914 10.335-17.914 10.335s0-23.271-14.745-23.231c-13.123.035-26.183 14.136-26.183 14.136s-1.654-12.265-9.371-13.78c-2.611-.513-16.813-3.445-32.935 22.6s-16.399 57.602-16.399 57.602l6.34 1.104s-1.704-5.252-.551-15.021c1.682-14.252 13.505-38.31 17.776-46.302s15.434-14.745 22.738-14.607 7.028 14.745 7.028 14.745S145.2 65.072 138.31 91.392c-3.323 12.693-3.721 25.906 1.929 26.32s10.06-13.504 16.399-29.215c6.339-15.709 4.547-34.726 4.547-34.726s1.24-4.134 10.335-12.954 16.537-8.406 21.773-5.099 2.756 20.946 2.756 20.946-7.717 4.823-15.709 31.006c-1.879 6.154-6.133 22.773 1.203 22.771 8.195-.004 11.75-18.637 16.573-31.178 4.823-12.54 2.894-18.328 2.894-18.328s7.304-14.193 19.705-14.883c7.826-.435 7.992 17.639 7.992 17.639s-5.098 9.922-5.925 11.715c-.827 1.791-6.89 17.363-.965 17.363s8.406-5.65 11.575-12.402c3.17-6.754 1.516-16.951 1.516-16.951s6.478-9.233 13.367-9.646c3.104-.186 4.824 7.028 4.824 7.028s-3.656 5.114-4.41 6.89c-2.342 5.514-6.34 17.363 1.653 15.986 7.993-1.379 8.682-18.604 8.682-18.604s5.649-8.682 6.89-11.025 12.402-19.017 18.053-15.158 2.895 20.395 2.895 20.395-4.783 7.128-6.477 9.922c-5.512 9.095-6.753 22.737-4.41 23.841 2.342 1.102 8.543-5.514 10.473-11.025s4.823-16.813 4.823-16.813 2.757-6.339 12.127-18.603c11.653-15.251 21.497-15.708 22.323-16.535s4.548 1.378 4.548 1.378l-1.101-6.203zM151.816 83.811c-5.512 11.988-7.166 23.701-8.682 23.701s-1.516-5.1-1.378-8.406 11.438-36.242 14.469-38.86c.001-.001 1.104 11.574-4.409 23.565zm38.309 3.582c-2.342 5.1-5.374 13.092-6.063 13.092-.689 0-1.516-7.441 0-12.127s11.299-20.533 11.299-20.533-2.892 14.468-5.236 19.568zm38.448-8.092c-1.074 3.693-3.373 7.385-3.996 4.854-1.297-5.27 5.788-14.814 5.788-14.814s-.964 7.116-1.792 9.96zm24.804-5.551c-.412 3.582-1.147 4.199-2.618 3.996-1.393-.191.688-10.336 2.48-10.473.001 0 .386 4.334.138 6.477zm29.353 6.891c-1.653 2.756-3.858 6.078-3.721 4.348s4.409-16.475 6.753-17.164c0-.001-1.379 10.058-3.032 12.816z"/>
</svg>
