<?xml version="1.0" encoding="utf-8"?>
<svg version="1.1" id="レイヤー_1" xmlns="http://www.w3.org/2000/svg" xmlns:xlink="http://www.w3.org/1999/xlink" x="0px"
	 y="0px" width="200" height="200" viewBox="0 -60 366 330" enable-background="new 0 0 266.548 290.342"
	 xml:space="preserve">
<g>
	<g>
		<path fill="#F39800" d="M83.568,44.351c0.547-0.391,4.119-0.375,5.242,1.124s0.125,5.118-0.748,5.118
			c-0.875,0-4.619,1.498-5.368-0.5S80.072,46.848,83.568,44.351z"/>
		<path fill="#F39800" d="M101.044,31.993c0.822-0.296,6.865,1.373,6.99,2.497s1.249,2.996,0.499,3.745
			c-0.748,0.749-4.618,2.247-4.992,2.247c-0.375,0-4.494-1.499-4.369-2.622S97.924,33.117,101.044,31.993z"/>
		<path fill="#F39800" d="M91.682,58.956c1.031-0.43,4.868-1.748,5.742,0s-1.123,6.241-1.748,6.241
			c-0.623,0-4.618-2.773-4.618-3.571S91.031,59.227,91.682,58.956z"/>
		<path fill="#F39800" d="M72.832,73.062l18.226-4.743c0,0,20.098,1.748,20.347,4.119c0.25,2.372-1.373,7.24-3.37,7.115
			s-9.362-3.371-11.858-3.995s-12.732,0.375-15.229,0.375c-2.497,0-8.115,1.873-8.115,1.873S70.779,73.596,72.832,73.062z"/>
		<path fill="#F39800" d="M111.904,47.634c0.24-0.879,2.746-3.838,4.244-3.498s3.245,4.709,3.245,5.083s-1.747,1.953-2.247,1.913
			C116.647,51.092,111.279,49.918,111.904,47.634z"/>
		<path fill="#F39800" d="M111.854,59.955c1.125-1.063,4.42,0.492,5.168,1.682c0.75,1.189,0.999,3.062,0,3.561
			c-0.998,0.5-1.373,2.497-4.369,1.374C109.657,65.447,108.682,62.95,111.854,59.955z"/>
		<path fill="#F39800" d="M125.012,58.831c0.809-0.707,1.248-1.638,2.621-0.756s3.494,2.247,3.12,3.562s-1.579,3.436-2.849,3.561
			c-1.271,0.125-4.516-1.872-4.391-2.996C123.638,61.078,124.326,59.429,125.012,58.831z"/>
		<path fill="#F39800" d="M135.246,34.614c1.791-0.312,2.621-0.158,3.744,1.606c1.124,1.764,0.125,1.889,0,2.888
			c-0.124,0.999-2.87,3.121-3.744,2.247s-4.494-2.29-3.869-3.267C132,37.111,132.375,35.114,135.246,34.614z"/>
		<path fill="#F39800" d="M140.114,44.136c0.524-0.005,1.499-0.644,2.747-0.027s2.496,2.989,2.496,2.989s-1.248,2.621-1.998,2.621
			c-0.748,0-4.992-1.423-4.867-2.084S137.367,44.163,140.114,44.136z"/>
		<path fill="#F39800" d="M139.115,68.318c1.168,0.203,2.57,0.749,2.721,1.498s1.523,3.124,1.149,4.121s-4.868,1.747-5.617,0.873
			s-3.245-1.686-2.746-3.09S137.466,68.032,139.115,68.318z"/>
		<polygon fill="#F39800" points="147.729,12.02 160.586,5.904 172.57,0.536 175.939,4.78 163.207,9.274 155.594,14.642 
			147.729,14.642 		"/>
		<path fill="#F39800" d="M157.341,41.562c0.124-0.082,3.745-3.327,4.493-2.953c0.75,0.374,3.62,1.162,3.496,2.953
			c-0.125,1.791-3.491,3.663-3.992,3.663C160.836,45.225,157.341,41.562,157.341,41.562z"/>
		<path fill="#F39800" d="M158.09,57.715c0.363-0.612,4.119-0.882,5.617-0.632s1.755,3.995,1.627,5.368
			c-0.129,1.373-3,3.258-4.748,2.752C158.839,64.698,155.719,61.718,158.09,57.715z"/>
		<path fill="#F39800" d="M154.595,71.744c0.853-1.122,5.742-0.305,5.991,0.943c0.25,1.248-0.749,3.37-1.997,3.62
			S150.85,76.668,154.595,71.744z"/>
		<path fill="#F39800" d="M112.777,82.174l1.623-3.121c0,0,27.836,3.87,30.957,3.121s44.438-2.621,45.563-3.121
			c1.123-0.5-34.703,6.241-34.703,6.241h-35.576L112.777,82.174z"/>
		<path fill="#F39800" d="M163.332,88.041c0,0,1.314-2.746,2.03-2.746s12.45,3.496,13.074,3.371s12.509,1.373,12.509,1.373
			l-16.753,1.997L163.332,88.041z"/>
		<path fill="#F39800" d="M176.564,32.617c0.991-0.121,2.496-0.625,2.996,0c0.499,0.625,1.748,4.12,1.623,4.744
			s-5.867,2.2-5.867,0.663S175.521,32.744,176.564,32.617z"/>
		<path fill="#F39800" d="M188.423,38.023c0.944-0.207,3.995-0.473,4.993,0.556s1.998,2.44,1.623,2.982s-0.5,2.484-0.999,2.574
			s-3.62,0.409-5.617,0s-1.997-0.409-1.997-1.408S187.328,38.263,188.423,38.023z"/>
		<path fill="#F39800" d="M190.772,58.706c0.96-0.143,3.305,1.012,4.347,2.753c1.043,1.741-1.703,6.038-3.326,5.45
			s-3.494-3.002-3.619-4.104S188.254,59.081,190.772,58.706z"/>
		<path fill="#F39800" d="M184.304,69.191c1.64,0.075,4.369,1.735,4.618,2.553c0.25,0.818-2.121,4.875-3.245,4.657
			s-3.852,0.53-4.485-1.717C180.559,72.437,178.812,68.941,184.304,69.191z"/>
		<path fill="#F39800" d="M212.141,39.483c1.746,0.156,5.867,1.218,5.867,2.419s-2.123,6.117-2.934,5.719s-5.181-1.273-5.056-2.396
			S210.588,39.344,212.141,39.483z"/>
		<path fill="#F39800" d="M217.134,61.459c1.445,0.416,3.62,1.492,3.995,2.366c0.374,0.874-0.75,5.34-0.75,5.354
			s-4.617,1.11-4.742,0s-2.997-1.734-3.121-2.982C212.391,64.948,215.084,60.869,217.134,61.459z"/>
		<path fill="#F39800" d="M231.489,41.562c0.69-0.294,4.243,1.085,4.493,2s-2.496,5.159-3.12,4.909s-3.62-1.498-3.745-2.622
			S228.369,42.891,231.489,41.562z"/>
		<path fill="#F39800" d="M234.235,58.694c0.398-0.685,1.499-2.047,3.745-1.704s4.119,1.256,4.119,2.61s-1.623,4.474-2.247,4.849
			s-1.997,0.999-3.12,0C235.608,63.45,232.862,61.054,234.235,58.694z"/>
		<path fill="#F39800" d="M242.849,38.677c0.528-0.452,3.745-1.306,5.118,0s1.748,3.178,1.373,4.301s-2.11,2.246-3.178,2.247
			C245.096,45.225,239.853,41.241,242.849,38.677z"/>
		<polygon fill="#F39800" points="256.33,31.369 271.31,26.625 283.543,26.625 281.92,30.371 271.684,32.311 261.198,34.989 		"/>
		<path fill="#F39800" d="M258.078,43.562c0.529-0.836,2.621-2.871,4.119-2.476s3.37,3.641,3.37,4.639s0,2.757,0,2.757
			s-4.868,0.885-5.742,0S257.544,44.403,258.078,43.562z"/>
		<path fill="#F39800" d="M255.082,58.694c1.152,0.414,5.367-1.136,5.492,0s-0.25,3.133-1.623,3.632s-4.494-0.129-4.743-1.188
			S252.96,57.933,255.082,58.694z"/>
		<path fill="#F39800" d="M256.33,71.744c0.872-0.998,8.113,2.063,8.113,2.063l16.853,4.249l-12.483,3.121l-11.637-2.149
			C257.176,79.027,254.208,74.171,256.33,71.744z"/>
		<path fill="#F39800" d="M273.058,45.725c1.261,0.333,3.745,2.305,3.745,3.149s-2.871,3.342-4.619,3.217s-2.123-2.352-2.247-3.61
			S271.695,45.365,273.058,45.725z"/>
		<path fill="#F39800" d="M281.296,53.339c0.851-0.293,3.621-0.374,4.37,0.5c0.748,0.874,0.125,4.219,0,4.855s-1.5,2.634-4.37,1.011
			S277.676,54.587,281.296,53.339z"/>
		<polygon fill="#F39800" points="298.772,41.035 320.118,36.363 339.467,26.625 353.073,21.883 352.074,30.122 339.467,36.738 
			320.118,43.562 309.883,46.724 303.266,47.644 		"/>
		<path fill="#F39800" d="M306.762,62.501l8.113,2.487l11.048,1.976l12.421,2.711l6.989,1.266l3.121,8.086
			c0,0-14.23-1.367-18.101-2.667c-3.869-1.3-15.479-4.461-15.853-4.815s-10.61-4.581-10.61-4.581L306.762,62.501z"/>
	</g>
	<g>
		<g>
			<path d="M37.968,46.338c3.214,1.346,4.14,0.733,5.974,4.402c1.835,3.668-1.467,6.97-4.768,8.254
				c-3.303,1.284-6.236-3.286-6.236-3.286s-2.385-3.134-2.385-4.234S33.555,44.491,37.968,46.338z"/>
			<g>
				<path d="M357.954,31.848c0.917-2.935,1.284-14.307,1.284-14.307s-15.774,6.42-17.975,7.521
					c-2.201,1.101-28.43,10.638-30.081,11.555s-16.508,3.852-20.909,2.937c-4.402-0.916-4.77-4.587-4.77-7.338
					s2.385-6.053,2.385-6.053s-4.77-1.284-8.07-1.1c-3.303,0.184-8.07,0.367-10.822,1.65s-13.39,3.486-15.225,3.669
					c-1.834,0.184-18.892-2.751-25.311-4.585c-6.42-1.834-26.413-4.769-29.164-4.952c-2.752-0.183-9.538-1.067-9.538-1.067
					s-1.651-4.802-2.751-5.169c-1.102-0.367-2.299-4.263-4.953-7.521c-1.764-2.166-7.336-6.97-7.336-6.97s-1.101-0.55-2.752,0.734
					c-1.65,1.284-22.927,9.904-26.779,11.188c-3.852,1.284-7.461,3.293-8.438,3.287c-2.415-0.017-11.556,0.199-15.224,0.016
					s-15.407,1.284-30.814,2.751s-30.631,5.502-38.701,8.07s-13.756,4.769-18.342,5.87s-15.455,6.12-18.342,7.52
					C9.524,42.367-0.813,54.408,0.051,57.526c0.862,3.118,4.272,6.053,5.006,7.52s0.917,1.651,1.284,3.118s6.603,5.686,6.603,5.686
					s6.053,6.603,12.656,8.987s16.324,4.402,25.679,4.402s22.561,1.467,22.561,1.467s9.171,7.704,19.626,6.149
					c14.278-2.123,16.508-6.516,16.141-5.599s21.644,1.284,24.027,0.917c2.385-0.367,17.242-0.184,28.613,2.751
					c11.373,2.935,23.479,1.65,23.479,1.65s17.058-4.218,13.939-4.402c-9.157-0.539-6.604-3.668-6.604-3.668
					s20.91-3.301,29.531-4.585c8.62-1.284,21.094-3.852,21.094-3.852s4.951,3.485,9.721,4.035s12.102,2.464,17.425,2.385
					c10.114-0.151,16.324-4.219,16.324-4.219l-6.786-5.319c0,0,16.874-2.384,24.944-1.467s17.608,4.035,21.827,5.502
					s13.469,6.198,17.792,7.337c2.86,0.754,10.638,2.201,10.638,2.201s-2.751-6.42-4.402-10.088s-4.035-13.39-4.769-15.407
					s-0.367-7.52,3.668-12.656S357.037,34.782,357.954,31.848z M281.104,38.174h-7.796c0,0,6.328-2.202,7.796-2.613
					C282.57,35.149,281.104,38.174,281.104,38.174z M265.512,37.167c0,0,6.054-1.561,7.888-2.339s7.704-1.879,7.704-1.879v1.879
					c0,0-5.322,0.775-7.796,1.422C271.467,36.731,270.867,39.692,265.512,37.167z M276.701,28.913
					c3.117,0.184,4.402-0.005,4.402-0.005v2.57c0,0-8.805,1.103-10.271,1.103c-1.468,0-8.805,3.852-11.923,1.467
					C258.909,34.049,273.582,28.729,276.701,28.913z M183.523,15.039c0,0,2.568,3.052,2.568,4.153s-7.521-1.445-7.521-1.445
					L183.523,15.039z M181.322,13.873l-9.537,3.874l-3.484-1.489l9.721-4.769L181.322,13.873z M175.086,8.554
					c0,0,2.385,0.55,0.734,1.834s-7.521,3.617-8.988,4.651c-1.467,1.035-3.301,2.502-5.135,2.686s-4.035-0.786-2.936-2.686
					c0,0,7.174-2.843,8.988-4.101C169.951,9.412,175.086,8.554,175.086,8.554z M164.082,7.453c3.301-2.935,8.254-3.668,8.254-3.668
					l0.916,2.201c0,0-9.877,3.791-11.555,4.585c-2.748,1.302-4.586,4.035-6.971,4.402c-2.384,0.367-4.585-0.917-4.585-0.917
					S162.414,8.936,164.082,7.453z M5.057,60.094c-2.384-2.384-0.184-2.934,0.918-2.751c1.1,0.183,4.402,1.467,4.402,1.467
					c1.467,0.367,7.887,2.934,8.986,3.301c1.102,0.367,7.887,3.669,9.172,4.953c1.283,1.284-11.739-3.118-13.757-3.118
					S7.441,62.479,5.057,60.094z M18.08,72.2c-7.019-1.199-6.787-2.184-6.787-2.184s-1.652-4.053,0-3.869
					c1.651,0.184,3.303,1.152,3.303,1.152c1.65,0.315,12.1,4.901,14.027,4.901C30.553,72.2,25.099,73.399,18.08,72.2z
					 M94.199,88.157c-10.271,4.036-17.059-3.229-17.059-3.229s9.172,0.478,11.189,1.395s5.318-1.322,5.318-1.322
					s-6.408,0.405-9.537-1.43c-3.131-1.834-5.503-2.201-5.503-2.201s2.306-0.858,8.804-0.734s15.957,2.751,15.957,2.751
					S98.257,86.563,94.199,88.157z M103.92,82.655c-0.551,0-17.791-3.668-23.478-3.852s19.992-0.917,21.827-2.751
					c1.834-1.834-13.206,0-17.059,0c-3.852,0-12.289,1.636-12.289,1.636v-2.737c0,0,12.84-2.418,19.443-2.218
					c6.603,0.2,16.324,0.017,16.508,2.218C109.056,77.152,104.471,82.655,103.92,82.655z M176.402,91.643
					c-5.719-0.55-12.505-1.834-12.505-3.485s8.437-1.578,8.437-1.578s5.871,2.368,8.988,2.798
					c3.118,0.431,10.639,1.164,10.639,1.164S182.121,92.193,176.402,91.643z M182.332,85.773l1.925-0.772l3.954,3.156
					C188.211,88.158,184.257,88.158,182.332,85.773z M258.909,79.72c-8.806-2.018-6.788-2.299-6.788-2.299l6.788-1.692
					c0,0,7.429,1.577,9.858,1.959s8.764,2.032,8.764,2.032S267.715,81.738,258.909,79.72z M264.228,74.584l5.778-1.863l3.302,2.413
					C273.308,75.135,270.83,76.785,264.228,74.584z M299.629,65.597c-1.101,0.184-31.182,3.668-35.4,3.485
					s-32.832,4.402-37.784,5.319s-32.813,4.953-38.233,5.686s-29.759,2.828-34.217,4.035c-8.805,2.384-39.619-1.284-39.619-1.284
					s4.953-8.437,2.936-10.455s-15.98-3.492-19.443-4.035c-9.354-1.468-24.944,1.65-24.944,1.65s6.381-7.198,5.687-12.289
					c-0.551-4.035-5.809-11.704-13.207-15.774c-5.482-3.016-8.254-3.118-8.254-3.118s8.254,8.804,9.354,10.088
					c1.102,1.284,5.503,5.136,3.669,9.721s-4.952,8.804-8.804,11.188s-4.586,2.018-4.586,2.018s0.551,3.302,2.568,2.935
					s5.318-1.1,6.053,0c0.733,1.1,1.834,4.218,1.283,5.686c-0.55,1.468-1.1,2.385-1.1,2.385l3.668,2.09
					c0,0-10.639-0.439-13.939-1.356c-3.302-0.917-9.727-2.63-12.84-2.384c-6.97,0.55-16.875-3.668-16.875-3.668l17.059-1.101
					c0,0-5.502-7.154-9.171-8.804s-10.455-7.336-14.49-8.987s-7.242,0.188-11.005-4.769C7.074,52.65,20.098,43.22,22.849,41.936
					S32.937,36.8,32.937,36.8c4.585-1.467,21.644-7.154,29.347-7.887c7.704-0.733,19.809-5.869,37.968-6.97
					s24.862-0.962,39.985-1.467c18.71-0.625,35.768,1.651,47.975,4.586c11.252,2.705,37.316,5.136,44.286,6.603
					s29.164,8.254,33.199,8.804s24.577,3.118,25.862,2.935c1.283-0.183,9.904,5.87,11.188,12.473
					C304.031,62.479,300.729,65.414,299.629,65.597z M347.317,81.554c0,0-9.354-0.763-14.857-3.866s-26.778-9.89-26.778-9.89
					l1.467-2.751c0,0,7.887,3.525,11.922,3.505s24.945,5.666,24.945,5.666L347.317,81.554z M341.264,58.443c0,0-5.686,0-9.537,0
					s-20.543-1.834-20.543-1.834s12.473-1.834,14.49-2.018s9.645-2.633,11.188-3.302s4.401,0,4.401,0l-1.283,3.852L341.264,58.443z
					 M329.525,61.011c2.201-0.367,11.738-1.834,11.738-1.834l1.285,6.419c0,0-6.604,0.917-11.006,0s-20.359-5.686-20.359-5.686
					S327.324,61.378,329.525,61.011z M344.016,71.1l-23.111-5.095c0,0,13.94,1.243,15.408,1.61c1.467,0.367,6.236,0,6.236,0
					L344.016,71.1z M345.116,43.954c-0.917,1.834-3.302,6.053-3.302,6.053s-6.053,1.284-10.455,1.284s-14.123,0-14.123,0
					l21.827-6.97c0,0-12.472,2.389-14.856,3.212s-6.971,0-6.971,0s7.521-3.945,12.105-4.129c4.586-0.184,9.354-3.118,10.455-4.219
					s10.088-4.357,10.088-4.357S346.033,42.12,345.116,43.954z M329.342,41.019c-3.852,1.468-15.957,3.852-18.158,4.769
					s-6.42,1.745-6.42,1.745l-1.725-4.679c0,0,11.263-1.101,13.28-2.018s19.075-5.463,23.845-8.968
					c4.769-3.505,12.105-6.439,12.105-6.439l-2.385,7.52C349.885,32.948,333.194,39.551,329.342,41.019z"/>
				<path d="M14.045,51.474c-2.385,0-1.468,1.284-1.65,2.097c-0.184,0.813,1.834,1.938,2.814,2.122s0.67-1.284,1.098-1.834
					S15.033,51.474,14.045,51.474z"/>
			</g>
			<path d="M49.628,45.604c-2.018-3.118-7.155-6.136-9.354-6.236c-12.105-0.55-15.59,5.869-16.508,11.372
				c-0.916,5.502,4.555,13.718,10.639,13.94s10.455,2.201,15.224-4.035S51.646,48.722,49.628,45.604z M48.471,53.591
				c-1.096,6.058-7.07,9.941-8.266,9.941c-1.194,0-7.469,0.598-11.053-6.174c-3.586-6.771,0.1-10.954,0.996-11.95
				c0.896-0.996,5.676-4.183,10.057-2.789C42.719,43.419,49.566,47.533,48.471,53.591z"/>
		</g>
		<g>
			<path d="M293.162,91.359c0,0,8.584,0.343,10.129,0s8.842-0.344,8.842-0.344s0-3.948,0-4.549s-0.43-4.549-0.859-4.549
				c-0.429,0-4.979,0.086-4.979,0.086l1.202,5.58h-2.06l-1.803-5.526c0,0-0.516-0.226-0.773-0.054
				c-0.257,0.172-4.033-0.086-4.463-0.515c0,0,1.631,5.322,1.545,5.666s-3.434,0-3.434,0l-0.687-3.348c0,0-4.722,0.429-4.034,1.116
				S293.162,91.359,293.162,91.359z"/>
			<path d="M308.613,99.771c-1.889,0.085-4.378,0-4.378,0l1.974-2.918h8.326v-3.691h-6.781c0,0-12.359,0.343-13.391,0.601
				c-1.029,0.258-2.23,0.429-2.23,0.429s-0.516,3.262,0.343,3.434s3.948-0.858,4.034-0.344s-2.231,3.777-3.262,5.031
				s-3.09,2.522-3.09,2.522l4.12,5.322c0,0,1.974-1.287,2.231-1.888s2.747-3.434,3.262-1.974s0.172,4.979,0.172,4.979
				s4.12,0.429,7.039,0c2.918-0.429,9.012-1.202,9.012-1.202l-0.6-11.245C315.395,98.827,310.502,99.685,308.613,99.771z
				 M313.162,105.607c-0.344-0.085-10.086,1.03-10.086,1.03s1.245-2.061,1.073-3.09c0,0,5.407-1.182,5.751-1.235
				s3.176,0.548,3.262,1.235S313.506,105.693,313.162,105.607z"/>
			<path d="M336.51,105.865c0,0,0.944-10.301,0.688-10.987c-0.258-0.687-3.691-0.086-4.465-1.202
				c-0.771-1.116,3.005-7.177,3.005-7.177s-9.785-2.351-10.043-2.609s-5.665-1.888-5.665-1.888c0.086,1.03-4.549,9.509-4.549,9.509
				l3.433,1.65l0.515,1.202v10.644c0,0,6.267,0.944,8.24,0.858C329.643,105.779,336.51,105.865,336.51,105.865z M330.759,97.448
				l2.661,0.434l-1.717,1.03h-0.944V97.448z M326.361,103.547l-3.07-0.343v-1.974c0,0,2.792-0.257,3.07,0
				C326.639,101.487,326.361,103.547,326.361,103.547z M323.291,98.312v-1.803h2.403c0,0,0.343,1.631,0,1.803
				S323.291,98.312,323.291,98.312z M325.909,93.937c-0.301-0.346-5.622,0.018-5.622,0.018l3.176-5.6l4.893,1.116
				C328.355,89.47,326.21,94.283,325.909,93.937z M333.42,101.659l-0.688,1.888h-1.974l-0.515-1.888H333.42z"/>
			<path d="M318.227,106.638c0,0,0.086,4.12,0,4.826s3.348,0,3.348,0l-1.287-4.826H318.227z"/>
			<path d="M323.291,107.839c-0.172,0.429,0,4.377,0,4.377s3.948,0.258,4.206,0s-1.136-4.377-1.136-4.377H323.291z"/>
			<path d="M332.904,107.839c-0.429,0.257-3.604,0-3.604,0s-0.086,5.923,0,5.58s4.893,0.601,4.893,0.601
				S333.334,107.582,332.904,107.839z"/>
			<polygon points="339.6,107.832 336.08,107.839 337.241,114.878 341.488,113.504 			"/>
		</g>
	</g>
</g>
<g>
	<path fill="#F19CC1" d="M156.089,142.701c0.238,0.068,48.801-0.347,60.636,0.996c11.834,1.344,18.797-0.859,18.797-0.859
		s16.188,0.438,16.423,0.427c0.235-0.011,19.675,1.142,19.675,1.142l11.175,0.666l1.083,3.09c0,0-4.279,0.824-8.224,0.377
		c-3.944-0.449-23.013-0.362-25.825-0.076c-2.813,0.285-17.506-0.063-17.986-0.277c-0.48-0.213-15.035-0.961-20.453-1.027
		c-5.419-0.066-20.732-0.247-20.732-0.247l-19.649-0.654l-13.975-0.067L156.089,142.701z"/>
	<g>
		<g>
			<path d="M326.963,159.439c-1.071-1.932-9.88-11.439-11.094-12.869c0,0,7.068-12.824,6.848-17.099
				c-0.299-5.791-8.71-7.206-14.76-6.125c-6.049,1.082-11.132,5.428-19.705,9.245c-10.515,4.682-17.425,0.909-18.419,0.787
				c-0.994-0.121-3.398-6.28-3.398-6.28s-1.865-1.239-3.023-1.354s-9.87,4.211-9.87,4.211s-6.834-1.851-10.187-3.19
				c-3.352-1.34-12.632-2.59-13.804-3.035c-1.173-0.444-2.651-11.914-2.651-11.914s-6.586,0.116-10.36,0.443
				s-17.777,4.219-22.676,5.252c-4.899,1.034-13.986,0.434-23.882,0.197s-24.775,2.377-34.058,4.916
				c-4.926,1.346-17.415,5.028-25.283,9.812c-7.868,4.783-12.485,12.396-12.485,12.396l2.842,4.821c0,0-1.459,0.557,2.013,4.692
				c3.472,4.135,9.642,5.849,9.642,5.849s7.166,5.79,12.691,7.859c3.677,1.378,4.496,1.127,14.277,2.521
				c9.78,1.395,17.358,1.399,17.358,1.399s3.167,0.853,6.525,2.357c3.36,1.505,6.593,3.185,8.028,2.788
				c3.125-0.864,5.143-3.021,5.143-3.021c0.844,0.459,15.364,0.991,22.279,0.879c6.914-0.113,14.577-2.453,14.577-2.453
				s1.052,1.932,5.65,1.58s6.594-3.751,6.594-3.751s1.709,1.409,4.599-0.362s14.789-4.75,17.742-5.041
				c2.953-0.29,6.985,1.514,10.617,1.688c3.632,0.175,4.387-5.294,4.81-6.96c0.422-1.666,3.404-1.299,6.651-2.426
				s9.724,0.079,10.561,0.372c0.836,0.295,5.024,1.928,7.74,3.789s11.101,5.291,12.416,5.235c1.314-0.056,13.037,4.386,18.908,2.981
				C325.691,168.226,328.034,161.371,326.963,159.439z M263.646,129.688c0.77,0.297,2.403,3.574,2.403,3.574
				s-5.754-0.276-5.924-1.928C260.126,131.333,262.877,129.39,263.646,129.688z M223.655,123.654
				c0.01,1.153-4.359,0.187-4.359,0.187c0.01-0.825,2.962-2.927,4.24-2.982C224.812,120.804,223.644,122.501,223.655,123.654z
				 M222.082,118.093l1.362,0.628l-6.879,3.589l-5.171,0.221L222.082,118.093z M206.093,117.814
				c3.264-0.14,13.909-1.912,13.909-1.912s-11.428,4.477-11.703,4.883c-0.274,0.407-6.694,0.286-6.694,0.286
				S202.828,117.954,206.093,117.814z M109.119,139.257c0,0,1.423,2.41,0.82,3.754s-3.64-0.338-4.192-1.715
				S109.119,139.257,109.119,139.257z M111.353,155.472c-4.725-1.281-5.019-0.444-5.117-2.746c-0.099-2.303,3.408-0.885,4.99-0.214
				l8.835,3.741C120.061,156.253,116.076,156.753,111.353,155.472z M106.662,147.271c-3.139-0.195-5.813-1.07-3.58-2.813
				c2.232-1.744,5.833,1.563,5.833,1.563c2.68,1.039,10.97,6.121,10.97,6.121S109.8,147.466,106.662,147.271z M173.625,172.251
				c-5.24,2.531-5.393-1.047-5.393-1.047s4.902-2.312,5.35-3.688c0,0-5.883,2.06-6.783,1.586c-0.901-0.474-1.642-1.101-4.295-2.141
				s-2.653-1.04-2.653-1.04l0.885,0.112c0,0,4.705-0.38,8.495-0.362c3.79,0.017,8.476-2.148,8.476-2.148
				S175.995,171.107,173.625,172.251z M219.823,170.773c-2.942-0.369-4.173-2.197-4.173-2.197c0.311-0.438,6.807-3.188,6.564-0.871
				C221.973,170.022,222.764,171.142,219.823,170.773z M256.596,163.929c-1.621-0.425-4.202-1.139-4.202-1.139
				s3.538-2.61,6.805-2.75C260.343,159.992,258.216,164.353,256.596,163.929z M280.365,152.37
				c-0.473,0.515-8.958-1.431-13.048-0.761c-4.091,0.669-19.324,6.592-22.229,8.033c-2.904,1.443-17.979,7.195-18.502,6.559
				c-0.521-0.638-0.098-2.304-0.612-2.775s-13.394,2.714-15.065,2.127c-1.674-0.588-6.901,0.459-6.901,0.459
				s-0.788,0.811-0.112,1.217c0.677,0.406,1.855,1.016,1.898,2.002c0.042,0.986-9.396-0.093-12.006,0.514
				c-2.61,0.605-12.813,0.895-12.813,0.895s2.392-5.722,1.478-7.824c-0.913-2.103-5.066-2.914-6.032-2.379
				c-0.967,0.536-17.727,1.582-17.727,1.582l-0.878-1.281c0,0,5.239-8.462,4.894-12.73c-0.348-4.268-8.999-13.949-8.999-13.949
				l-6.894,0.625c0,0,7.01,5.961,7.438,8.249c0.427,2.288,0.177,11.854-2.506,14.605c-2.684,2.751-5.396,4.843-5.396,4.843
				s5.63,4.537,6.352,5.99c0.722,1.451-13.583-1.727-17.079-2.566c-3.496-0.838-13.584-0.762-13.874-4.678
				c-0.062-0.828,6.364-1.426,6.364-1.426s-1.54-5.207-7.493-9.565s-7.418-3.966-7.907-5.758c-0.489-1.791,1.161-1.734,1.099-3.196
				c-0.062-1.461-3.186-2.646-3.186-2.646s7.455-5.426,16.072-8.101c8.617-2.675,24.051-7.782,37.563-7.701
				c13.514,0.082,35.992,1.756,37.279,1.042c1.287-0.714,22.835,2.32,31.671,4.743s19.521,5.718,22.195,6.611
				c2.674,0.895,21.338,5.863,22.447,4.827s5.993,2.042,6.3,8.628C284.395,153.68,280.838,151.855,280.365,152.37z M304.263,133.271
				c0,0,5.775-3.628,7.735-4.021c1.961-0.393,5.409-0.657,5.476,0.881c0.065,1.539-3.061,5.505-3.061,5.505l-23.6,6.754
				c0,0,15.686-6.906,17.612-8.082c1.926-1.178,5.364-1.694,5.364-1.694L304.263,133.271z M308.312,147.05
				c1.386,1.595,2.445,3.246,2.445,3.246l-15.354-0.711c0,0,11.856-3.99,12.823-4.514c0.092-0.05,0.146-0.082,0.186-0.106
				c0.067-0.051,0.082-0.053,0,0C308.173,145.144,307.331,145.924,308.312,147.05z M299.421,143.371c0,0,9.232-3.738,10.674-4.709
				c1.441-0.969,3.544-1.865,3.544-1.865l-1.905,5.518C311.733,142.314,302.254,144.125,299.421,143.371z M322.953,162.002
				c-0.663,3.733-12.547,1.678-15.42,1.562c-10.892-0.438-17.7-9.375-17.7-9.375s11.822,2.896,15.242,3.892
				s13.567-0.579,13.567-0.579l-1.717-1.629c0,0-3.773,0.391-9.723-0.025s-7.338-2.086-7.338-2.086s10.982-1.305,12.098-2.213
				c1.114-0.906,3.923-0.748,6.499,1.721C321.038,155.739,323.617,158.269,322.953,162.002z"/>
			<path d="M127.342,133.866c-7.014,1.618-8.855,4.827-9.415,7.138c-0.561,2.312,0.939,6.57,4.155,8.574
				c3.217,2.004,3.077,4.906,9.973,2.045s6.378-8.84,5.277-11.448C136.231,137.567,130.586,133.117,127.342,133.866z
				 M130.688,150.47c-2.607,0.663-8.955-1.373-10.261-4.941c-1.307-3.568-0.148-11.198,8.658-9.432
				c1.531,0.307,5.515,1.048,6.693,6.268C136.956,147.585,133.295,149.808,130.688,150.47z"/>
			<path d="M127.864,140.58c-3.37,0.454-2.795,1.785-2.414,2.994c0.381,1.21,1.968,3.634,4.188,2.715
				c2.22-0.918,1.471-1.381,1.396-3.125C130.96,141.42,129.944,140.298,127.864,140.58z"/>
			<path d="M138.269,131.256c-0.949-0.18-1.23,2.03-0.665,3.159s1.964,0.246,2.399-1.145
				C140.438,131.88,139.239,131.44,138.269,131.256z"/>
			<path d="M142.061,135.167c-1.668-0.469-1.283,1.028-1.8,1.441c-1.798,1.441,1.299,2.251,1.818,3.342
				c0.521,1.092,1.098-1.819,1.354-3.478C143.693,134.815,143.729,135.636,142.061,135.167z"/>
			<path d="M142.495,129.923c-0.265,1.494,2.965,3.827,3.794,3.955c0.829,0.129,0.847-3.331-0.176-4.11
				C145.092,128.989,142.68,128.885,142.495,129.923z"/>
			<path d="M150.194,128.897c-1.047,2.479,2.899,2.286,2.899,2.286s0.406-2.06-0.103-2.406
				C152.481,128.432,150.699,127.705,150.194,128.897z"/>
			<path d="M155.943,132.333c-0.502,0.677-0.567,2.146,1.576,2.174c2.143,0.025,2.119-0.539,1.384-2.301
				C158.169,130.444,157.013,130.889,155.943,132.333z"/>
			<path d="M164.277,130.706c0.81-0.298,0.212-2.712-1.61-2.954s-1.603-0.739-1.783,0.688
				C160.64,130.39,163.465,131.003,164.277,130.706z"/>
			<path d="M161.96,134.332c-0.974,1.444,2.209,1.585,2.909,1.226s0.518-1.999-0.131-3.072
				C164.09,131.412,162.767,133.134,161.96,134.332z"/>
			<path d="M170.415,131.714c1.618-0.709,1.874-2.405,1.158-3.73c-0.715-1.325-1.973-0.427-2.63,0.112
				C167.954,128.908,168.798,132.423,170.415,131.714z"/>
			<path d="M176.613,130.248c-0.508-0.337-1.383,0.329-1.899,1.81c-0.352,1.008,2.771,3.125,3.919,3.036s0.719-2.463,0.674-3.503
				C179.263,130.551,177.121,130.585,176.613,130.248z"/>
			<path d="M184.672,129.904c1.443-0.914,0.862-2.973-0.147-3.432c-1.009-0.459-2.958,0.307-3.083,1.09
				C181.181,129.183,183.228,130.818,184.672,129.904z"/>
			<path d="M182.786,135.886c0.827,0.071,1.762-1.17,0.942-1.959c-0.82-0.789-1.404-2.137-2.088-0.846
				C180.538,135.158,181.959,135.815,182.786,135.886z"/>
			<path d="M193.331,132.072c-0.054-1.279-2.336-0.355-3.626-0.042c-1.197,0.292-0.703,2.825,0.152,3.554
				C190.712,136.313,193.386,133.349,193.331,132.072z"/>
			<path d="M196.839,130.585c1.434,0.123,1.991-0.928,2.442-1.952c0.449-1.024-1.058-1.586-2.6-1.723
				c-1.542-0.137-1.771,1.388-2.006,1.919C194.192,129.924,195.404,130.463,196.839,130.585z"/>
			<path d="M199.665,135.388c-0.288-1.307-1.882-2.197-2.697-1.787c-2.312,1.162,0.843,3.02,1.479,3.941
				C199.083,138.464,199.954,136.695,199.665,135.388z"/>
			<path d="M205.198,132.177c0.5,0.134,0.902-2.006-0.161-3.781c-1.064-1.774-2.119-0.204-2.934,0.763
				C201.241,130.181,204.698,132.042,205.198,132.177z"/>
			<path d="M202.161,134.089c-1.271,0.84,0.268,2.664,1.292,3.512c1.025,0.849,1.347,0.698,2.484-1.492
				C207.074,133.919,203.389,133.28,202.161,134.089z"/>
			<path d="M210.786,131.835c1.008,0.504,2.142,0.02,2.069-1.677c-0.072-1.698-1.59-1.832-2.227-2.001
				C209.295,127.802,209.774,131.332,210.786,131.835z"/>
			<path d="M219.294,134.326c0,0,1.535-2.643,1.337-3.421s-2.291-1.484-2.99-0.569C216.081,132.378,219.294,134.326,219.294,134.326
				z"/>
			<path d="M224.311,134.119c1.066-0.098,1.151-1.975,0.946-2.901c-0.204-0.927-1.092-0.763-2.158-0.418
				C221.977,131.161,223.244,134.216,224.311,134.119z"/>
			<path d="M225.532,136.385c-0.804-0.829-1.222-2.267-2.723-1.276c-1.5,0.992,1.254,2.861,1.483,3.474
				S226.338,137.214,225.532,136.385z"/>
			<path d="M231.656,134.435c0.804-0.445-0.281-2.709-1.296-3.325c-1.016-0.617-2.214,0.472-2.556,1.884
				C227.624,133.741,230.851,134.879,231.656,134.435z"/>
			<path d="M233.932,133.701c-0.688,0.873,2.815,4.222,3.585,2.963c0.771-1.258,0.856-3.094-0.174-4.077
				S234.673,132.758,233.932,133.701z"/>
			<path d="M240.053,138.161c-0.92,0.374,0.403,1.745,0.09,2.088c-0.316,0.343,3.001,0.86,3.288-0.141s-0.564-1.623-0.758-2.311
				C242.479,137.109,240.551,137.958,240.053,138.161z"/>
			<path d="M248.757,137.537c-0.051-1.188-1.945-0.418-2.643-0.174c-1.313,0.461,0.091,2.133,1.413,2.24
				S248.808,138.726,248.757,137.537z"/>
			<path d="M256.28,140.081c-0.58,1.864,2.635,3.813,3.746,2.848c1.112-0.966,0.242-2.058-0.128-3.002
				C259.528,138.981,256.386,139.74,256.28,140.081z"/>
			<path d="M263.903,141.115c0,0-1.584,1.48-1.868,2.558c-0.282,1.077,1.397,1.841,2.076,2.308c0.679,0.465,2.246-1.414,2.339-3.103
				C266.542,141.189,264.9,141.333,263.903,141.115z"/>
			<path d="M271.702,142.429c-2.083,0.182-0.52,3.248,0.181,4.227c0.701,0.977,3.047-1.963,2.65-3.518
				C274.139,141.583,272.854,142.33,271.702,142.429z"/>
			<path d="M241.369,153.541c-2.09,1.243-0.382,2.652,0.126,2.961c0.507,0.308,1.938-0.906,1.889-2.057
				C243.335,153.294,242.501,152.869,241.369,153.541z"/>
			<path d="M226.328,155.007c-1.125-0.609-2.364-0.063-2.607,1.43s1.756,3.056,2.79,2.846c1.035-0.209,2.178-1.74,2.313-2.184
				S227.387,155.582,226.328,155.007z"/>
			<path d="M221.821,158.496c-0.502-0.473-1.555-1.416-2.534-1.182c0,0,0,0-0.962,0.234c-0.963,0.234,1.245,2.525,1.862,3.158
				c0.618,0.633,2.729,0.543,3.232-0.138C223.925,159.887,222.323,158.968,221.821,158.496z"/>
			<path d="M209.1,157.943c-3.194,2.334,0.888,5.342,1.613,4.98c0.727-0.361,1.636-2.211,1.258-3.346
				C211.592,158.442,209.1,157.943,209.1,157.943z"/>
			<path d="M204.098,152.694c-2.576-0.683-1.232,1.999-1.013,3.021s1.145,0.072,2.412-0.104c1.267-0.175,1.294-1.58,1.178-2.234
				C206.56,152.722,205.18,152.98,204.098,152.694z"/>
			<path d="M201.691,158.041c-2.775,0.617-0.169,3.793,1.142,3.902s2.115-0.914,2.041-2.559
				C204.799,157.741,202.816,157.792,201.691,158.041z"/>
			<path d="M190.216,161.988c-3.192,1.125-1.425,6.486,0.239,5.592c1.663-0.896,2.457-2.906,2.032-3.854
				S191.901,161.394,190.216,161.988z"/>
			<path d="M184.979,156.488c-1.299-0.176-2.401,1.543-2.689,2.6c-0.289,1.058,2.23,1.99,2.598,1.986
				c0.368-0.004,2.723-0.951,3.298-2.238C188.76,157.549,185.983,156.625,184.979,156.488z"/>
			<path d="M170.476,135.027c-4.73,3.998-3.253,10.645-2.855,16.084c0.397,5.438,5.129,4.374,6.125,4.541
				c0.994,0.166,3.347-2.659,4.084-4.767c0.738-2.108-1.215-9.075-1.596-10.249C175.854,139.462,172.687,133.16,170.476,135.027z"/>
			<path d="M191.414,136.511c-6.168,1.365-4.876,13.936-4.851,15.748c0.024,1.811,3.846,3.954,5.712,4.404
				c1.865,0.449,3.519-1.668,4.675-2.871c1.158-1.203-0.112-9.058-0.477-11.156C196.11,140.538,193.515,136.048,191.414,136.511z"/>
			<path d="M218.42,140.865c-0.226-1.455-2.747-2.984-5.242-3.161c-7.933-0.558-4.298,15.084-3.455,16.411
				c0.844,1.326,3.874,1.107,5.026,1.08c1.151-0.027,2.352,1.031,3.307-3.953C219.011,146.258,218.646,142.32,218.42,140.865z"/>
			<path d="M229.287,140.722c0,0-1.161,3.665-0.761,9.414c0.4,5.748,1.551,5.206,4.353,5.745s2.468-0.601,2.756-1.579
				c0.287-0.979,3.64-11.215,0.604-13.877S229.91,139.863,229.287,140.722z"/>
			<path d="M252.374,141.208c-2.322-0.396-2.89,1.55-3.366,2.19c-1.409,1.896-1.152,7.724-1.184,9.587
				c-0.032,1.863,5.57,0.536,7.489-0.82C257.232,150.81,254.698,141.604,252.374,141.208z"/>
		</g>
		<g>
			<path d="M308.55,180.197c0,0-2.037-0.471-2.744-0.471c-0.705,0-1.803-1.568-2.116-1.725s1.646-5.176,1.646-5.176l-2.744-0.627
				v-1.176c0,0-8.153-1.02-8.938-1.098c-0.783-0.08-1.254,1.254-1.646,2.744c-0.392,1.488-1.098,5.881-1.646,5.881
				s-2.038-3.842-2.038-3.842s0.157-0.471-4.155-1.098s-6.508-1.02-6.899-1.02s-0.549-3.842-0.549-3.842s-2.587-0.158-2.901,0
				c-0.313,0.156-1.176,4.625-1.176,4.625h-4.233v1.176l-4.782-0.549c0,0,0.783,8.311,0.783,8.689c0,0.377-1.96,0.25-2.43,0
				c-0.471-0.25,0.234-3.906,0-4.689c-0.236-0.783-1.725-7.449-1.725-7.449h-5.567c0,0,1.098,10.271,1.019,11.525
				c-0.078,1.254-2.037,0.234-2.979,0c-0.941-0.236-1.411-5.881-1.411-5.881h-4.861c0,0,0.94,3.607,1.255,5.098
				c0.313,1.49,0.783,7.525,0.783,7.525s5.254-0.471,7.371-0.471s6.742-0.705,9.564-0.705s5.253-0.078,5.332-0.705
				c0.078-0.627-0.941-8.311-0.941-8.311h2.744l0.549,3.764c0.393,3.215,3.137,5.018,2.588,5.018c-1.109,0-3.921-0.236-3.921-0.236
				s-0.862,0.471,0.079,2.51c0.94,2.037,2.508,1.254,5.488,1.488c2.979,0.234,5.096-1.488,5.096-1.488
				c0.863,0.627,3.685,0.705,3.998,0.939c0.314,0.234,4.156-3.135,4.156-3.135s-0.628-2.039-1.568-1.725
				c-0.94,0.313-3.686-0.549-4.156-0.627c-0.561-0.096,3.059-5,3.059-5.959c0-0.393,2.273-0.078,2.587-0.35
				c0.313-0.27,4.077,0.82,4.077,0.82s-0.471,0.469-0.784,0.783c-0.313,0.313,1.098,8.545,1.098,8.545s12.623,0,13.642-0.861
				C309.569,187.251,308.55,180.197,308.55,180.197z M280.169,184.507c-1.098-0.078-3.528-3.213-3.607-5.957
				c0,0,5.019-0.941,5.725-0.393C282.991,178.707,281.267,184.585,280.169,184.507z M296.634,174.787c0,0,3.136-0.078,3.057,0
				c-0.078,0.078-1.254,3.199-1.254,3.199h-3.371L296.634,174.787z M299.378,181.248v1.301l-2.588-0.393l0.589-1.332
				L299.378,181.248z M299.378,187.488c-0.628-0.236-2.588-1.482-2.588-1.482l0.589-1.496l2.313,0.391
				C299.692,184.9,300.005,187.722,299.378,187.488z M305.415,187.501c0,0-2.117-1.738-1.883-2.209h1.883V187.501z M305.885,183.097
				l-1.294,0.313l-2.078-0.861l0.785-1.301l2.587,0.438V183.097z"/>
			<path d="M290.675,190.388c0,0-0.078,3.842,0,4.861c0.078,1.018,3.92,0.313,3.92,0.313l-0.393-5.801
				C294.202,189.761,290.909,190.544,290.675,190.388z"/>
			<path d="M298.084,195.8c0.274,0.471,3.567,0.625,3.567,0.625l0.861-5.232l-4.232-0.49
				C299.065,191.8,297.81,195.328,298.084,195.8z"/>
			<path d="M306.434,193.564c-0.47,1.217-1.255,2.783-1.019,3.254c0.234,0.471,3.588,0.549,3.588,0.549l0.41-5.488h-3.528
				C305.885,191.878,306.903,192.349,306.434,193.564z"/>
			<path d="M311.53,191.878l1.176,5.49c0,0,1.176-0.16,1.646-0.002c0.47,0.156,1.803-5.488,1.803-5.488H311.53z"/>
		</g>
	</g>
</g>
<g>
	<path fill="#F19CC1" d="M91.324,224.083c0.238,0.068,48.801-0.347,60.636,0.996c11.834,1.344,18.797-0.859,18.797-0.859
		s16.188,0.438,16.423,0.427c0.235-0.011,19.675,1.142,19.675,1.142l11.175,0.666l1.083,3.09c0,0-4.279,0.824-8.224,0.377
		c-3.944-0.449-23.013-0.362-25.825-0.076c-2.813,0.285-17.506-0.063-17.986-0.277c-0.48-0.213-15.035-0.961-20.453-1.027
		c-5.419-0.066-20.732-0.247-20.732-0.247l-19.649-0.654l-13.975-0.067L91.324,224.083z"/>
	<g>
		<g>
			<path d="M262.198,240.822c-1.071-1.932-9.88-11.439-11.094-12.869c0,0,7.068-12.824,6.848-17.099
				c-0.299-5.79-8.71-7.206-14.76-6.124c-6.049,1.081-11.132,5.428-19.705,9.244c-10.515,4.682-17.425,0.909-18.419,0.787
				c-0.994-0.121-3.398-6.28-3.398-6.28s-1.865-1.239-3.023-1.354s-9.87,4.212-9.87,4.212s-6.834-1.852-10.187-3.19
				c-3.352-1.34-12.632-2.591-13.804-3.034c-1.173-0.445-2.651-11.914-2.651-11.914s-6.586,0.116-10.36,0.443
				c-3.774,0.326-17.777,4.219-22.676,5.252c-4.899,1.033-13.986,0.434-23.882,0.196s-24.775,2.377-34.058,4.915
				c-4.926,1.347-17.415,5.029-25.283,9.813S33.39,226.215,33.39,226.215l2.842,4.821c0,0-1.459,0.557,2.013,4.692
				c3.472,4.135,9.642,5.849,9.642,5.849s7.166,5.79,12.691,7.859c3.677,1.378,4.496,1.127,14.277,2.521
				c9.78,1.395,17.358,1.399,17.358,1.399s3.167,0.853,6.525,2.357c3.36,1.505,6.593,3.185,8.028,2.788
				c3.125-0.864,5.143-3.021,5.143-3.021c0.844,0.459,15.364,0.991,22.279,0.879c6.914-0.113,14.577-2.453,14.577-2.453
				s1.052,1.932,5.65,1.58s6.594-3.751,6.594-3.751s1.709,1.409,4.599-0.362s14.789-4.75,17.742-5.041
				c2.953-0.29,6.985,1.514,10.617,1.688c3.632,0.175,4.387-5.294,4.81-6.96c0.422-1.666,3.404-1.299,6.651-2.426
				s9.724,0.079,10.561,0.372c0.836,0.295,5.024,1.928,7.74,3.789s11.101,5.291,12.416,5.235c1.314-0.056,13.037,4.386,18.908,2.981
				C260.926,249.609,263.269,242.753,262.198,240.822z M198.881,211.07c0.77,0.298,2.403,3.574,2.403,3.574
				s-5.754-0.276-5.924-1.928C195.361,212.716,198.112,210.773,198.881,211.07z M158.89,205.037c0.01,1.152-4.359,0.187-4.359,0.187
				c0.01-0.825,2.962-2.927,4.24-2.981C160.046,202.187,158.878,203.884,158.89,205.037z M157.317,199.476l1.362,0.627l-6.879,3.59
				l-5.171,0.221L157.317,199.476z M141.328,199.197c3.264-0.139,13.909-1.912,13.909-1.912s-11.428,4.477-11.703,4.883
				c-0.274,0.407-6.694,0.287-6.694,0.287S138.063,199.336,141.328,199.197z M44.354,220.64c0,0,1.423,2.41,0.82,3.754
				s-3.64-0.338-4.192-1.715S44.354,220.64,44.354,220.64z M46.587,236.855c-4.725-1.281-5.019-0.444-5.117-2.746
				c-0.099-2.303,3.408-0.885,4.99-0.214l8.835,3.741C55.295,237.636,51.311,238.136,46.587,236.855z M41.897,228.654
				c-3.139-0.195-5.813-1.07-3.58-2.813c2.232-1.744,5.833,1.563,5.833,1.563c2.68,1.039,10.97,6.121,10.97,6.121
				S45.035,228.849,41.897,228.654z M108.86,253.634c-5.24,2.531-5.393-1.047-5.393-1.047s4.902-2.312,5.35-3.688
				c0,0-5.883,2.06-6.783,1.586c-0.901-0.474-1.642-1.101-4.295-2.141s-2.653-1.04-2.653-1.04l0.885,0.112
				c0,0,4.705-0.38,8.495-0.362c3.79,0.017,8.476-2.148,8.476-2.148S111.23,252.49,108.86,253.634z M155.058,252.156
				c-2.942-0.369-4.173-2.197-4.173-2.197c0.311-0.438,6.807-3.188,6.564-0.871C157.208,251.405,157.999,252.525,155.058,252.156z
				 M191.831,245.312c-1.621-0.425-4.202-1.139-4.202-1.139s3.538-2.61,6.805-2.75C195.578,241.375,193.451,245.736,191.831,245.312
				z M215.6,233.752c-0.473,0.515-8.958-1.431-13.048-0.761c-4.091,0.669-19.324,6.592-22.229,8.033
				c-2.904,1.443-17.979,7.195-18.502,6.559c-0.521-0.638-0.098-2.304-0.612-2.775s-13.394,2.714-15.065,2.127
				c-1.674-0.588-6.901,0.459-6.901,0.459s-0.788,0.811-0.112,1.217c0.677,0.406,1.855,1.016,1.898,2.002
				c0.042,0.986-9.396-0.093-12.006,0.514c-2.61,0.605-12.813,0.895-12.813,0.895s2.392-5.722,1.478-7.824
				c-0.913-2.103-5.066-2.914-6.032-2.379c-0.967,0.536-17.727,1.582-17.727,1.582l-0.878-1.281c0,0,5.239-8.462,4.894-12.73
				c-0.348-4.268-8.999-13.949-8.999-13.949l-6.894,0.625c0,0,7.01,5.961,7.438,8.249c0.427,2.288,0.177,11.854-2.506,14.605
				c-2.684,2.751-5.396,4.843-5.396,4.843s5.63,4.537,6.352,5.99c0.722,1.451-13.583-1.727-17.079-2.566
				c-3.496-0.838-13.584-0.762-13.874-4.678c-0.062-0.828,6.364-1.426,6.364-1.426s-1.54-5.207-7.493-9.565
				s-7.418-3.966-7.907-5.758c-0.489-1.791,1.161-1.734,1.099-3.196c-0.062-1.461-3.186-2.646-3.186-2.646s7.455-5.426,16.072-8.101
				c8.617-2.676,24.051-7.782,37.563-7.701c13.514,0.082,35.992,1.756,37.279,1.043c1.287-0.714,22.835,2.32,31.671,4.742
				c8.836,2.424,19.521,5.719,22.195,6.611c2.674,0.895,21.338,5.863,22.447,4.827s5.993,2.042,6.3,8.628
				C219.629,235.063,216.073,233.238,215.6,233.752z M239.498,214.654c0,0,5.775-3.629,7.735-4.021
				c1.961-0.393,5.409-0.656,5.476,0.882c0.065,1.538-3.061,5.505-3.061,5.505l-23.6,6.754c0,0,15.686-6.906,17.612-8.082
				c1.926-1.178,5.364-1.694,5.364-1.694L239.498,214.654z M243.546,228.433c1.386,1.595,2.445,3.246,2.445,3.246l-15.354-0.711
				c0,0,11.856-3.99,12.823-4.514c0.092-0.05,0.146-0.082,0.186-0.106c0.067-0.051,0.082-0.053,0,0
				C243.408,226.527,242.566,227.307,243.546,228.433z M234.656,224.753c0,0,9.232-3.738,10.674-4.709
				c1.441-0.969,3.544-1.865,3.544-1.865l-1.905,5.518C246.968,223.697,237.489,225.508,234.656,224.753z M258.188,243.385
				c-0.663,3.733-12.547,1.678-15.42,1.562c-10.892-0.438-17.7-9.375-17.7-9.375s11.822,2.896,15.242,3.892
				s13.567-0.579,13.567-0.579l-1.717-1.629c0,0-3.773,0.391-9.723-0.025s-7.338-2.086-7.338-2.086s10.982-1.305,12.098-2.213
				c1.114-0.906,3.923-0.748,6.499,1.721C256.273,237.122,258.852,239.652,258.188,243.385z"/>
			<path d="M62.577,215.249c-7.014,1.618-8.855,4.827-9.415,7.138c-0.561,2.312,0.939,6.57,4.155,8.574
				c3.217,2.004,3.077,4.906,9.973,2.045s6.378-8.84,5.277-11.448C71.466,218.95,65.821,214.5,62.577,215.249z M65.922,231.853
				c-2.607,0.663-8.955-1.373-10.261-4.941c-1.307-3.568-0.148-11.198,8.658-9.432c1.531,0.307,5.515,1.048,6.693,6.268
				C72.191,228.968,68.53,231.191,65.922,231.853z"/>
			<path d="M63.099,221.962c-3.37,0.454-2.795,1.785-2.414,2.994c0.381,1.21,1.968,3.634,4.188,2.715
				c2.22-0.918,1.471-1.381,1.396-3.125C66.195,222.803,65.179,221.681,63.099,221.962z"/>
			<path d="M73.503,212.639c-0.949-0.181-1.23,2.03-0.665,3.159s1.964,0.246,2.399-1.145
				C75.672,213.263,74.474,212.824,73.503,212.639z"/>
			<path d="M77.295,216.55c-1.668-0.469-1.283,1.028-1.8,1.441c-1.798,1.441,1.299,2.251,1.818,3.342
				c0.521,1.092,1.098-1.819,1.354-3.478C78.928,216.198,78.963,217.019,77.295,216.55z"/>
			<path d="M77.73,211.306c-0.265,1.494,2.965,3.827,3.794,3.955c0.829,0.129,0.847-3.33-0.176-4.109
				C80.327,210.373,77.915,210.268,77.73,211.306z"/>
			<path d="M85.429,210.281c-1.047,2.479,2.899,2.285,2.899,2.285s0.406-2.06-0.103-2.405
				C87.716,209.815,85.934,209.087,85.429,210.281z"/>
			<path d="M91.178,213.716c-0.502,0.677-0.567,2.146,1.576,2.174c2.143,0.025,2.119-0.539,1.384-2.301
				C93.404,211.827,92.248,212.272,91.178,213.716z"/>
			<path d="M99.512,212.089c0.81-0.299,0.212-2.713-1.61-2.954s-1.603-0.739-1.783,0.688
				C95.875,211.773,98.7,212.386,99.512,212.089z"/>
			<path d="M97.195,215.714c-0.974,1.444,2.209,1.585,2.909,1.226s0.518-1.999-0.131-3.072S98.001,214.517,97.195,215.714z"/>
			<path d="M105.65,213.097c1.618-0.709,1.874-2.405,1.158-3.73c-0.715-1.325-1.973-0.428-2.63,0.112
				C103.189,210.291,104.033,213.806,105.65,213.097z"/>
			<path d="M111.848,211.63c-0.508-0.336-1.383,0.33-1.899,1.811c-0.352,1.008,2.771,3.125,3.919,3.036s0.719-2.463,0.674-3.503
				C114.498,211.934,112.356,211.968,111.848,211.63z"/>
			<path d="M119.907,211.287c1.443-0.914,0.862-2.973-0.147-3.432c-1.009-0.46-2.958,0.307-3.083,1.09
				C116.416,210.566,118.462,212.201,119.907,211.287z"/>
			<path d="M118.021,217.269c0.827,0.071,1.762-1.17,0.942-1.959c-0.82-0.789-1.404-2.137-2.088-0.846
				C115.773,216.541,117.194,217.198,118.021,217.269z"/>
			<path d="M128.566,213.455c-0.054-1.279-2.336-0.355-3.626-0.042c-1.197,0.292-0.703,2.825,0.152,3.554
				C125.947,217.696,128.621,214.732,128.566,213.455z"/>
			<path d="M132.074,211.968c1.434,0.123,1.991-0.928,2.442-1.951c0.449-1.025-1.058-1.587-2.6-1.723
				c-1.542-0.137-1.771,1.388-2.006,1.918C129.427,211.307,130.639,211.845,132.074,211.968z"/>
			<path d="M134.9,216.771c-0.288-1.307-1.882-2.197-2.697-1.787c-2.312,1.162,0.843,3.02,1.479,3.941
				C134.318,219.847,135.189,218.078,134.9,216.771z"/>
			<path d="M140.433,213.56c0.5,0.134,0.902-2.006-0.161-3.781c-1.064-1.773-2.119-0.203-2.934,0.764
				C136.476,211.564,139.933,213.425,140.433,213.56z"/>
			<path d="M137.396,215.472c-1.271,0.84,0.268,2.664,1.292,3.512c1.025,0.849,1.347,0.698,2.484-1.492
				C142.309,215.302,138.624,214.663,137.396,215.472z"/>
			<path d="M146.021,213.218c1.008,0.504,2.142,0.02,2.069-1.678s-1.59-1.831-2.227-2
				C144.53,209.185,145.009,212.714,146.021,213.218z"/>
			<path d="M154.529,215.708c0,0,1.535-2.643,1.337-3.421s-2.291-1.484-2.99-0.569C151.316,213.761,154.529,215.708,154.529,215.708
				z"/>
			<path d="M159.545,215.501c1.066-0.098,1.151-1.975,0.946-2.901c-0.204-0.927-1.092-0.763-2.158-0.418
				C157.211,212.544,158.479,215.599,159.545,215.501z"/>
			<path d="M160.767,217.768c-0.804-0.829-1.222-2.267-2.723-1.276c-1.5,0.992,1.254,2.861,1.483,3.474
				S161.573,218.597,160.767,217.768z"/>
			<path d="M166.891,215.818c0.804-0.445-0.281-2.709-1.296-3.325c-1.016-0.616-2.214,0.472-2.556,1.884
				C162.859,215.124,166.085,216.262,166.891,215.818z"/>
			<path d="M169.167,215.083c-0.688,0.873,2.815,4.222,3.585,2.963c0.771-1.258,0.856-3.094-0.174-4.077
				S169.908,214.141,169.167,215.083z"/>
			<path d="M175.288,219.543c-0.92,0.374,0.403,1.745,0.09,2.088c-0.316,0.343,3.001,0.86,3.288-0.141s-0.564-1.623-0.758-2.311
				C177.714,218.492,175.786,219.34,175.288,219.543z"/>
			<path d="M183.992,218.919c-0.051-1.188-1.945-0.418-2.643-0.174c-1.313,0.461,0.091,2.133,1.413,2.24
				S184.042,220.109,183.992,218.919z"/>
			<path d="M191.515,221.463c-0.58,1.864,2.635,3.813,3.746,2.848c1.112-0.966,0.242-2.058-0.128-3.002
				C194.763,220.364,191.621,221.123,191.515,221.463z"/>
			<path d="M199.138,222.498c0,0-1.584,1.48-1.868,2.558c-0.282,1.077,1.397,1.841,2.076,2.308c0.679,0.465,2.246-1.414,2.339-3.103
				C201.777,222.572,200.135,222.716,199.138,222.498z"/>
			<path d="M206.937,223.812c-2.083,0.182-0.52,3.248,0.181,4.227c0.701,0.977,3.047-1.963,2.65-3.518
				C209.374,222.966,208.089,223.712,206.937,223.812z"/>
			<path d="M176.604,234.923c-2.09,1.243-0.382,2.652,0.126,2.961c0.507,0.308,1.938-0.906,1.889-2.057
				C178.57,234.677,177.736,234.251,176.604,234.923z"/>
			<path d="M161.563,236.39c-1.125-0.609-2.364-0.063-2.607,1.43s1.756,3.056,2.79,2.846c1.035-0.209,2.178-1.74,2.313-2.184
				S162.622,236.964,161.563,236.39z"/>
			<path d="M157.056,239.878c-0.502-0.473-1.555-1.416-2.534-1.182c0,0,0,0-0.962,0.234c-0.963,0.234,1.245,2.525,1.862,3.158
				c0.618,0.633,2.729,0.543,3.232-0.138C159.16,241.27,157.558,240.351,157.056,239.878z"/>
			<path d="M144.334,239.326c-3.194,2.334,0.888,5.342,1.613,4.98c0.727-0.361,1.636-2.211,1.258-3.346
				C146.827,239.825,144.334,239.326,144.334,239.326z"/>
			<path d="M139.333,234.077c-2.576-0.683-1.232,1.999-1.013,3.021s1.145,0.072,2.412-0.104c1.267-0.175,1.294-1.58,1.178-2.234
				C141.794,234.105,140.415,234.363,139.333,234.077z"/>
			<path d="M136.926,239.423c-2.775,0.617-0.169,3.793,1.142,3.902s2.115-0.914,2.041-2.559
				C140.034,239.124,138.051,239.174,136.926,239.423z"/>
			<path d="M125.451,243.371c-3.192,1.125-1.425,6.486,0.239,5.592c1.663-0.896,2.457-2.906,2.032-3.854
				S127.136,242.777,125.451,243.371z"/>
			<path d="M120.214,237.871c-1.299-0.176-2.401,1.543-2.689,2.6c-0.289,1.058,2.23,1.99,2.598,1.986
				c0.368-0.004,2.723-0.951,3.298-2.238C123.995,238.932,121.218,238.007,120.214,237.871z"/>
			<path d="M105.71,216.41c-4.73,3.998-3.253,10.645-2.855,16.084c0.397,5.438,5.129,4.374,6.125,4.541
				c0.994,0.166,3.347-2.659,4.084-4.767c0.738-2.108-1.215-9.075-1.596-10.249C111.089,220.845,107.921,214.542,105.71,216.41z"/>
			<path d="M126.649,217.894c-6.168,1.365-4.876,13.936-4.851,15.748c0.024,1.811,3.846,3.954,5.712,4.404
				c1.865,0.449,3.519-1.668,4.675-2.871c1.158-1.203-0.112-9.058-0.477-11.156C131.345,221.92,128.75,217.431,126.649,217.894z"/>
			<path d="M153.655,222.248c-0.226-1.455-2.747-2.984-5.242-3.161c-7.933-0.558-4.298,15.084-3.455,16.411
				c0.844,1.326,3.874,1.107,5.026,1.08c1.151-0.027,2.352,1.031,3.307-3.953C154.246,227.641,153.881,223.703,153.655,222.248z"/>
			<path d="M164.522,222.105c0,0-1.161,3.665-0.761,9.414c0.4,5.748,1.551,5.206,4.353,5.745s2.468-0.601,2.756-1.579
				c0.287-0.979,3.64-11.215,0.604-13.877S165.145,221.246,164.522,222.105z"/>
			<path d="M187.609,222.591c-2.322-0.396-2.89,1.55-3.366,2.19c-1.409,1.896-1.152,7.724-1.184,9.587
				c-0.032,1.863,5.57,0.536,7.489-0.82C192.467,232.193,189.933,222.987,187.609,222.591z"/>
		</g>
		<g>
			<path d="M243.785,261.58c0,0-2.037-0.471-2.744-0.471c-0.705,0-1.803-1.568-2.116-1.725s1.646-5.176,1.646-5.176l-2.744-0.627
				v-1.176c0,0-8.153-1.02-8.938-1.098c-0.783-0.08-1.254,1.254-1.646,2.744c-0.392,1.488-1.098,5.881-1.646,5.881
				s-2.038-3.842-2.038-3.842s0.157-0.471-4.155-1.098s-6.508-1.02-6.899-1.02s-0.549-3.842-0.549-3.842s-2.587-0.158-2.901,0
				c-0.313,0.156-1.176,4.625-1.176,4.625h-4.233v1.176l-4.782-0.549c0,0,0.783,8.311,0.783,8.689c0,0.377-1.96,0.25-2.43,0
				c-0.471-0.25,0.234-3.906,0-4.689c-0.236-0.783-1.725-7.449-1.725-7.449h-5.567c0,0,1.098,10.271,1.019,11.525
				c-0.078,1.254-2.037,0.234-2.979,0c-0.941-0.236-1.411-5.881-1.411-5.881h-4.861c0,0,0.94,3.607,1.255,5.098
				c0.313,1.49,0.783,7.525,0.783,7.525s5.254-0.471,7.371-0.471s6.742-0.705,9.564-0.705s5.253-0.078,5.332-0.705
				c0.078-0.627-0.941-8.311-0.941-8.311h2.744l0.549,3.764c0.393,3.215,3.137,5.018,2.588,5.018c-1.109,0-3.921-0.236-3.921-0.236
				s-0.862,0.471,0.079,2.51c0.94,2.037,2.508,1.254,5.488,1.488c2.979,0.234,5.096-1.488,5.096-1.488
				c0.863,0.627,3.685,0.705,3.998,0.939c0.314,0.234,4.156-3.135,4.156-3.135s-0.628-2.039-1.568-1.725
				c-0.94,0.313-3.686-0.549-4.156-0.627c-0.561-0.096,3.059-5,3.059-5.959c0-0.393,2.273-0.078,2.587-0.35
				c0.313-0.27,4.077,0.82,4.077,0.82s-0.471,0.469-0.784,0.783c-0.313,0.313,1.098,8.545,1.098,8.545s12.623,0,13.642-0.861
				C244.804,268.634,243.785,261.58,243.785,261.58z M215.404,265.89c-1.098-0.078-3.528-3.213-3.607-5.957
				c0,0,5.019-0.941,5.725-0.393C218.226,260.089,216.501,265.968,215.404,265.89z M231.869,256.169c0,0,3.136-0.078,3.057,0
				c-0.078,0.078-1.254,3.199-1.254,3.199H230.3L231.869,256.169z M234.613,262.63v1.301l-2.588-0.393l0.589-1.332L234.613,262.63z
				 M234.613,268.871c-0.628-0.236-2.588-1.482-2.588-1.482l0.589-1.496l2.313,0.391
				C234.927,266.283,235.24,269.105,234.613,268.871z M240.65,268.884c0,0-2.117-1.738-1.883-2.209h1.883V268.884z M241.12,264.48
				l-1.294,0.313l-2.078-0.861l0.785-1.301l2.587,0.438V264.48z"/>
			<path d="M225.91,271.771c0,0-0.078,3.842,0,4.861c0.078,1.018,3.92,0.313,3.92,0.313l-0.393-5.801
				C229.437,271.144,226.144,271.927,225.91,271.771z"/>
			<path d="M233.319,277.183c0.274,0.471,3.567,0.625,3.567,0.625l0.861-5.232l-4.232-0.49
				C234.3,273.183,233.044,276.71,233.319,277.183z"/>
			<path d="M241.668,274.947c-0.47,1.217-1.255,2.783-1.019,3.254c0.234,0.471,3.588,0.549,3.588,0.549l0.41-5.488h-3.528
				C241.12,273.261,242.138,273.732,241.668,274.947z"/>
			<path d="M246.765,273.261l1.176,5.49c0,0,1.176-0.16,1.646-0.002c0.47,0.156,1.803-5.488,1.803-5.488H246.765z"/>
		</g>
	</g>
</g>
</svg>
