<?xml version="1.0" encoding="utf-8"?>
<svg version="1.1" id="レイヤー_1" xmlns="http://www.w3.org/2000/svg" xmlns:xlink="http://www.w3.org/1999/xlink" x="0px"
	 y="0px" width="200" height="200" viewBox="0 -50 347 380" enable-background="new 0 0 347.832 325.444"
	 xml:space="preserve">
<path d="M223.095,172.048c0-1.247-3.877-7.754-4.57-8.585s-9.139-4.708-9.693-4.708s0.139,0.969-0.277,1.108
	s-4.569-2.631-4.569-2.631s1.8-1.385,1.662-2.216s-2.077-5.262-3.066-5.4s-8.288-2.908-8.288-2.908s-0.831-11.216-0.692-13.432
	s-1.662-18.832-1.662-19.663s0.138-1.385,1.662-2.354s3.321-1.386,4.983-1.801s10.247-0.692,14.816-6.508s3.739-12.739,3.462-15.231
	s-2.77-8.724-2.77-8.724l-9.554-3.739c0,0-0.692-2.77-0.831-3.877s0-2.631,0-2.631s-3.461,0.554-4.431,0.692
	s-6.508-0.831-6.508-0.831s0.692-1.523,0.692-1.939s1.938-1.384,3.6-1.8s5.677-0.969,5.677-0.969v-3.046
	c0,0-4.846-2.631-5.815-2.908s-3.323-2.077-3.323-2.077s0.415-1.662,0.969-3.739s0-3.323,0-5.4s-1.662-8.447-1.8-13.016
	s0.692-6.093,0.692-6.093s-1.246-1.246-2.492-3.323s-2.908-4.985-2.908-4.985s-0.412,6.777-1.796,9.546s-0.969,12.739-0.831,15.232
	s1.8,11.77,1.8,11.77s-2.215-0.416-5.954-1.662s-4.986-0.827-4.986-0.827s3.323,7.616,3.462,7.616s7.477,2.077,7.477,2.077
	s0,5.4-0.554,4.431s-2.908-1.523-2.908-1.523s-0.139-1.247-3.323-1.939s-5.816,2.216-5.816,2.216s-6.231-0.139-8.17,0.692
	s-9.554,6.092-9.554,8.169s-0.969,10.666-0.969,11.773s3.6,7.2,4.431,8.724s7.2,5.124,10.247,6.37
	c2.709,1.108,6.923,1.938,9.832,3.6c2.047,1.17,3.461,2.77,4.154,5.677s1.108,27.557,1.247,29.219s-1.107,4.847-1.107,4.847
	s-2.077,0.138-3.462,0.277s-5.954,0.277-6.508,0s-1.247,4.569-1.8,5.124s1.385,3.185,1.385,3.185s-9.781,3.069-10.75,5.146
	s-1.851,1.086-4.344,6.902s0.416,18.278,2.215,22.571s2.77,3.739,3.877,4.292s0.831,2.077,2.077,3.462
	c1.97,2.188,11.216,2.908,14.4,4.985s4.016,8.862,4.154,11.078c0.139,2.215-2.492,19.803-2.492,19.803s-2.908-0.693-3.6-0.969
	c-0.692-0.277-4.154-0.277-4.154-0.277s-3.185,5.814-3.601,6.508c-0.416,0.691-2.215,0-5.262-0.693
	c-3.046-0.691-8.308,1.248-10.523,3.463c-1.495,1.494-3.046,10.801-3.185,15.094s0.554,16.893,5.816,20.215
	c5.262,3.324,12.324,1.662,15.093,2.217c2.77,0.553,8.446,2.631,11.493,4.707c3.046,2.078,4.154,5.678,4.154,5.678
	s1.246-0.416,2.492,0.277c1.246,0.691,5.4,1.938,5.4,1.938s0.831-0.691,1.8-1.521s5.954-3.047,7.339-3.047s6.508,0.553,8.308-1.523
	c1.8-2.078,1.108-13.154,1.108-16.063s-2.355-17.172-3.186-19.248c-0.831-2.078-11.493-4.016-12.185-4.154s-1.108-2.078-0.692-2.631
	c0.416-0.555,0.138-3.6,0-4.293c-0.138-0.691-7.754-3.877-8.585-4.293c-0.831-0.414-0.415-9.139,0.139-12.461
	c0.554-3.324-0.831-4.709-0.969-10.248c-0.139-5.539,0.83-6.51,1.246-7.064s2.631,1.662,2.631,1.662s0.969-1.247,1.523-2.354
	s4.708-2.354,6.093-2.908s3.877,0.692,6.508,0.692s7.893-2.631,9.004-4.016s2.627-5.954,2.765-8.447s2.077-11.908,1.662-12.877
	S223.095,173.294,223.095,172.048z M212.295,163.871c0.831,0.969,0.277,2.354,0,2.77s-2.908-0.97-3.323-1.247
	s-1.523-3.185-1.523-3.185S211.464,162.901,212.295,163.871z M208.834,167.886c0.969,1.523,2.492,3.462,2.077,5.816
	s-3.185,5.262-4.154,5.262c-3.739,0-4.985-6.37-4.985-6.37s2.84-0.516,3.981-0.881s0.658-3.136,0-2.928s-3.427-0.068-3.981-0.761
	s-1.246-3.562-1.246-3.562S207.865,166.363,208.834,167.886z M194.848,163.043c0,0-0.139-3.466,0-3.604s2.493,0,3.185,0
	s3.739-0.839,3.739-0.839L194.848,163.043z M190.833,36.892c1.107,0-0.493,2.77-1.354,1.523s-1.354-5.539-1.354-5.539
	S189.726,36.892,190.833,36.892z M187.371,41.877c0.607-0.434,3.247,0.692,3.839,2.77s1.146,3.877,1.146,3.877
	s-3.461-0.139-3.6-1.247S186.402,42.569,187.371,41.877z M185.017,59.394c-2.354-1.593-3.877-2.146-0.831-2.839
	c1.51-0.343,7.024,2.354,7.024,2.354l5.162,2.631v0.692c0,0-4.847-0.693-6.093-1.247S187.371,60.987,185.017,59.394z M184.74,71.925
	c0,0,4.569,0,6.47,0s7.654,0,7.654,0c-0.831-0.138,0,2.908,0,3.608s-1.662,2.208-3.461,3.177s-5.974,0-5.974,0
	s0.851-0.692,1.782-1.523s1.146-3.254,1.146-3.254s-8.724,3.115-9.872,2.008S184.74,71.925,184.74,71.925z M196.372,82.172
	c-5.162,3.185-8.248,0.692-8.248,0.692s4.647-1.662,6.17-2.354S199.413,80.295,196.372,82.172z M180.448,66.525
	c0.692-0.138,2.037,1.385,2.037,1.385c-1.148,0.97-3.421,1.938-3.421,1.938s-0.969-1.108-1.108-1.938S179.755,66.663,180.448,66.525
	z M183.079,101.558c-2.493,0-13.293-5.539-15.647-6.785s-5.263-10.77-3.324-15.632s6.785-4.585,8.724-4.169s0.554,3.462,0.554,3.462
	s-0.554,1.058,0.554,1.775s5.215,4.317,6.277,4.179s8.839,1.662,9.451,2.216s4.489-0.831,5.458-0.969s3.6-0.083,5.123-1.842
	s0.554-3.005,0.554-3.005l2.354-2.77c0,0,1.661,2.908,2.769,3.185s3.324,7.478,2.908,10.108s-2.492,10.8-8.031,11.908
	s-6.924,0.554-7.962,0.554s-3.173,2.216-3.173,2.216S185.571,101.558,183.079,101.558z M190.84,128.561
	c-0.007,0.692,0.685,3.6,0.685,3.6l-0.685,1.523c0,0-0.5-1.8-1.015-1.523s-1.701,0.969-1.701,0.969v-5.124
	C188.124,128.007,190.847,127.869,190.84,128.561z M188.124,118.453c0,0,2.571,3.6,2.709,4.292S189.016,125.515,188.124,118.453z
	 M189.482,136.73c0,0,1.766,0.831,2.043,2.631s0,3.601,0,3.601l-0.96,0.692c0,0-0.357-0.692-1.083-2.631
	S188.408,137.007,189.482,136.73z M180.448,149.054c0,0,7.268,2.215,9.034,2.077s7.028-1.036,7.028-1.036s2.077,2.005,2.077,2.836
	s-7.048,1.385-7.747,1.246s-3.746-1.107-5.546-0.969s-7.339-0.831-7.339-0.831L180.448,149.054z M192.633,159.163v3.881h-1.793
	l0.685-3.881H192.633z M187.698,163.04c-1.435,0-6.004,0.139-6.004-1.246s1.682-3.341,3.877-3.185
	c0.829,0.059,3.938,0.139,4.254,0.969S189.132,163.04,187.698,163.04z M177.955,168.025c0.692-2.493,3.185-0.554,5.677-0.416
	s4.639-0.892,4.639-0.892c1.315,0.338,3.393-0.477,4.362,0s4.016,2.592,3.462,4.996s-1.308,3.927-1.308,3.927
	s-3.663-4.57-3.947-5.124s-0.957,0.585-0.957,0.585s0.841,5.092,0.342,5.646s-4.436-2.215-4.436-2.215s0.356-3.185,0-4.292
	s-2.433,0.277-2.433,0.277v3.6C183.355,174.117,177.263,170.518,177.955,168.025z M173.523,243.769c0,0,0,0.971,0,1.385
	c0,0.416,3.323,1.662,4.761,3.195s0.672,3.826,0,3.801c-1.747-0.068-2.13-4.227-2.546-4.502c-0.416-0.277-0.415,1.938-0.955,3.045
	s1.094,4.016,0,3.877s-1.676-4.154-2.645-4.291c-0.969-0.139,0,1.938-0.416,1.871c-0.416-0.068-1.246-1.734-1.246-3.119
	S173.523,243.769,173.523,243.769z M200.94,249.724c0.554,0.83,2.215,0.969,3.323,1.523c1.108,0.553,3.739,2.629,4.016,5.814
	s0.277,13.018,0.692,14.955c0.416,1.939-2.77,5.816-3.185,6.508c-0.415,0.693-4.117,0.555-4.828,1.385
	c-0.711,0.832-2.234,4.016-3.48,3.324c-1.246-0.693-9.416-6.508-11.908-6.924s-6.923-2.906-12.601-3.322s-8.862-1.248-8.862-1.801
	c0-0.555-2.493-0.83-3.739-1.801c-1.246-0.969-0.139-22.709,0-23.262c0.139-0.555,4.431-3.877,6.093-3.463
	c1.662,0.416,0.416,3.877,0.692,7.201c0.277,3.322,1.523,5.953,5.539,7.338s4.815,3.186,5.592,4.293s4.223,3.324,9.839,3.877
	c5.616,0.555,11.432-1.461,11.432-2.393c0-0.93,0.969-5.361,0.416-7.301c-0.554-1.938-0.139-4.568-2.493-5.262
	c-2.354-0.691-6.231-0.672-5.4-2.066s0.831-3.471,0.831-3.471C193.463,245.153,200.387,248.892,200.94,249.724z M192.217,257.103
	c-0.692-0.871-9,4.113-9,3.283s1.246-1.996,3.185-3.283s3.884-2.67,3.05-2.947s-2.634,0.139-4.019,0.691
	c-1.385,0.555-4.569,2.215-4.569,2.215c0-0.691,2.268-5.537,6.05-4.846c3.782,0.693,8.212,0.693,8.628,0.693
	s2.631-0.416,2.493,0.553s-2.077,0.691-2.493,2.354s-0.277,3.877-1.385,4.709c-1.107,0.83-6.108,1.938-6.031,1.385
	c0.077-0.555,4.508-3.047,4.785-3.877C193.186,257.2,192.909,257.974,192.217,257.103z M195.125,239.062
	c0.554-0.277,0.554,3.186,0,2.908s-5.123-1.525-5.123-0.971s-0.847,7.201-1.877,7.34s-2.692-1.107-2.554-2.076
	c0.139-0.971,1.938-5.541,1.246-5.816c-0.692-0.277-7.2-1.523-8.169-3.047s0.166-3.393,1.523-2.908
	C181.163,234.847,194.57,239.337,195.125,239.062z M189.597,224.106c0,0-3.279-3.6-2.684-4.432
	C187.509,218.845,190.438,220.229,189.597,224.106z M187.031,209.084c0.478-1.317,1.093-3.533,1.093-3.533s1.622,2.63,1.473,3.738
	s-0.702,3.462-1.326,3.323S186.553,210.402,187.031,209.084z M213.957,185.195c-2.77,6.319-2.354,7.339-7.477,8.585
	s-5.064-0.527-6.646,0c-2.908,0.969-7.201,5.4-7.201,5.4s-4.985-4.984-7.616-5.123s-6.923-0.97-10.385-0.831
	s-7.063-3.739-9.139-8.031s-2.77-7.2-2.354-11.908s1.247-4.155,1.247-5.539s3.66-6.721,5.815-7.754c2.908-1.394,7.7-1.394,7.7-1.394
	s-1.191,3.055-0.776,3.609s-2.77,0.631-3.185,2.254s-1.8,2.254-1.8,2.254s4.599,4.077,5.761,5.877s4.485,6.785,6.701,7.062
	s4.045-0.138,5.623-0.692s3.789,0,5.937,0.554s3.672,2.77,3.672,2.77l9.139-0.969c0,0,2.678-5.954,3.762-7.754
	s2.746-3.462,2.746-3.462S217.789,176.452,213.957,185.195z"/>
<path d="M304.797,202.231c-0.969-3.185-0.276-4.985-0.691-6.092c-0.416-1.107-2.493-5.262-2.77-6.093
	c-0.277-0.831-7.34-2.631-7.34-3.046s-1.522-8.585-1.522-8.585s-2.493,1.8-4.016,2.804s-4.154,0.243-5.12,0
	c-0.967-0.243-3.326-5.989-3.326-5.989s-2.354,4.431-2.631,5.124c-0.277,0.692-1.939,0.969-3.186,0.831s-2.215-4.985-2.492-5.539
	c-0.277-0.554,1.523-1.662,3.738-2.215c2.217-0.554,4.708-1.662,4.708-2.354s-0.97-5.539-1.384-6.093
	c-0.416-0.554,0.276-1.662,0.276-1.662s-7.754,1.107-8.449,1.107s0.694-7.477,1.249-9c0.553-1.523,0.691-9.97,1.107-12.324
	s-0.277-11.354-0.554-12.739s1.383-0.833,1.521-1.802c0.139-0.969,5.263-2.77,12.463-6.646s9.693-22.294,9.832-23.263
	s0-11.493,0-12.601s-3.602-8.308-4.293-9.386c-0.693-1.078,0.691-0.446,0.969-0.03s2.908-3.6,1.724-3.6s-8.37-5.539-8.37-5.539
	s4.708-0.416,6.093-1.247s2.077-3.323,2.216-4.154s0-3.323,0-3.323s-3.323-0.969-4.293-0.831s-7.2-3.046-7.893-3.461
	s-1.107,0-1.107,0s0.415-0.97-0.416-1.247c-0.83-0.277,0.416-8.031,0.693-10.385s1.384-8.862,1.384-9.97s0.139-9.139-1.107-10.939
	s-3.601-3.323-7.062-4.292c-3.462-0.969-4.155-2.077-4.155-2.077s0.001,3.044,1.11,5.536c1.107,2.492,0.83,9.693,0.276,11.631
	c-0.554,1.938-1.8,13.847-1.246,17.863s1.385,3.739,1.108,4.708c-0.277,0.969-3.324,1.385-3.739,1.246s-0.554,1.385-0.831,1.8
	s6.231,5.679,7.063,7.202c0.83,1.523-0.416,1.523-1.523,1.247s-4.985-3.046-5.816-4.016s-1.385,0.831-2.215,1.384
	s0.416,1.662,0.416,1.662s-5.816-1.939-7.201-1.939s-10.939,2.077-11.908,2.493s-12.047,5.539-15.647,13.432
	s0.277,17.864,0.139,19.249s-0.692,7.201,0,10.247s3.738,4.57,6.785,6.647s13.432,8.862,14.263,9.139s10.664,1.664,11.356,1.803
	s1.938,5.4,2.216,8.169s-1.385,9.416-2.077,14.54s-0.277,15.924-0.692,16.063s-10.387,7.48-10.387,7.48s0.692,4.847,0.692,5.262
	s5.816,2.077,6.508,1.8s2.631-0.692,3.323-1.385s2.077,7.201,1.509,6.231s-4.278,0.138-5.248,0s-3.6-2.077-4.985-2.493
	s-2.077,1.246-6.923,1.385s-7.037-2.459-7.062-1.8c-0.092,2.389,7.2,7.616,7.893,8.309s-0.554,3.046-0.969,4.431
	s-5.4,7.062-5.954,7.893s1.108,8.724,2.493,14.263c2.221,8.883,14.401,12.186,16.063,13.432s1.523,6.646,1.107,9.555
	s-1.938,5.539-2.215,13.293s-1.109,11.773-2.771,13.434c-1.662,1.662-7.478,0.277-7.478,0.277s-3.185,4.016-2.077,3.738
	s5.816,4.709,4.847,4.709s-2.77,1.523-3.462,1.662s-2.908-0.832-3.877-1.662c-0.969-0.832-2.216-0.555-2.216-1.662
	s-4.431,0.416-6.785,1.107c-2.354,0.693-3.739,1.246-5.677,3.324c-1.494,1.6-1.8,2.631-3.323,6.092
	c-1.523,3.463-4.293,18.693-3.462,18.971c0.831,0.275,7.616,7.615,10.801,9.277s3.461,2.631,5.123,2.77
	c1.662,0.137,7.893,2.492,9,2.631c1.107,0.137,5.677,6.785,6.785,7.338c1.108,0.555,1.662-1.246,3.6-1.66
	c1.938-0.416,6.063,0.969,6.063,0.969c3.768-0.83,5.628-0.086,7.428-0.363c1.799-0.275,13.926-12.377,14.757-13.486
	c0.831-1.107-0.415-12.877-0.714-13.707c-0.3-0.832-6.486-6.646-7.179-6.787c-0.692-0.139-0.415-2.49-0.415-3.184
	c0-0.691-3.739-0.969-4.293-2.492c-0.554-1.521,1.246-2.77,1.801-4.154c0.554-1.385,1.662-3.049,0.691-3.465
	c-0.969-0.416-3.6-1.246-4.984-1.938c-1.385-0.693-6.092-2.908-6.785-3.324c-0.692-0.414,0-3.6,0-4.707s3.6-5.123,4.154-6.232
	c0.554-1.107,1.247,0.416,1.662,0s-0.138-6.23,0-7.615s0-19.387,0-20.771s4.985-0.83,9.417-1.939
	c4.431-1.107,2.907-1.385,4.016-1.521c1.107-0.139,3.877,2.631,3.877,2.631s3.738-1.939,5.677-3.74s6.509-5.123,7.339-5.537
	c0.83-0.416,4.293-0.971,5.816-6.371C307.152,210.542,305.767,205.417,304.797,202.231z M286.203,188.644
	c0.872-1.228,2.257-3.21,2.257-3.21s1.522,4.352,1.107,4.759s-3.364,2.346-3.364,2.346S285.331,189.872,286.203,188.644z
	 M281.121,188.644c0,0,1.246,1.68,0,3.757s-5.082,1.985-5.082,1.985S280.291,188.902,281.121,188.644z M273.782,188.64
	c0-1.406,1.107-0.671,2.257-1.917s5.082-1.385,3.975-1.246c-1.108,0.139-4.57,6.37-4.57,6.37
	C272.536,191.985,273.782,190.046,273.782,188.64z M276.862,197.939c1.767,0-1.419,1.385-1.558,2.354s-1.8,1.662-4.708,0.831
	s-4.031-2.354-4.031-2.354S275.096,197.939,276.862,197.939z M269.371,187.554c0.574-0.277,1.503,1.108,1.226,1.523
	s-1.246,4.016-0.951,4.569c0,0-0.295,2.493-1.542,2.493s-1.938-2.631-1.654-4.286S268.797,187.831,269.371,187.554z
	 M267.268,179.246c1.38-0.448,2.378-0.969,2.378-0.969s0.617,1.8,0.992,2.908s-1.112,2.216-0.992,2.908s-1.265-0.139-1.542-0.554
	S266.711,179.426,267.268,179.246z M270.597,146.151c-0.416,1.8-1.114,1.8-1.665,0s-0.828-3.461-0.828-3.461
	S271.013,144.351,270.597,146.151z M269.371,157.644c-1.128,1.108-2.651,0.138-2.79-0.831s0.687-4.985,0.687-4.985
	C267.828,152.105,270.499,156.536,269.371,157.644z M267.274,132.027c-0.167-1.798,3.323,2.63,3.323,3.738s0,2.354,0,2.354
	S267.828,137.982,267.274,132.027z M286.796,60.157c1.108,0.554,3.425,2.055,2.77,2.77c-1.522,1.662-6.646,0-7.2-1.385
	C281.811,60.157,285.688,59.604,286.796,60.157z M283.195,70.542c0.97,0.692,3.877,1.385,4.847,2.77s1.385,2.077,0,2.215
	s-1.804,1.938-5.126,0c-3.32-1.938-4.277-4.847-6.015-4.985C276.367,70.5,282.227,69.85,283.195,70.542z M275.025,25.263
	c0.541-0.631,4.154,1.246,4.57,2.492c0.415,1.247-1.107,4.985-1.107,4.985S274.195,26.232,275.025,25.263z M274.919,39.941
	c0.522-1.385,1.769-3.323,1.769-3.323c0.692,0.138,2.631,3.046,2.216,4.985s-2.216,3.046-2.216,3.046S274.396,41.326,274.919,39.941
	z M274.919,47.141c0.386-0.544,2.011,2.354,2.374,3.877s-0.392,2.354-0.392,2.354S273.15,49.633,274.919,47.141z M254.671,115.822
	c-6.785-1.385-15.786-8.447-13.847-9.832s9.417-2.216,11.216-3.323s6.092-3.185,6.231-1.8s4.822,13.941,5.108,14.955
	s1.095-5.678,0.693-9.139s-1.399-5.124,0-6.646s13.583-7.063,14-8.447s-0.746,0.277-3.627,0.277c-2.881,0-6.066,0.553-7.728,1.107
	s-4.985,1.523-4.985,1.523s-1.662-8.308-2.77-10.108s-4.016-6.092-4.708-6.231s0,5.124,0.277,8.031s3.6,7.892,2.354,9.139
	s-4.431,2.077-6.646,2.077s-4.984,1.523-6.785,2.354s-3.601,3.462-3.601,3.462s-1.247-9.277,0-13.432s-2.63-8.862-2.769-9.97
	s2.354,0,4.846-0.831s14.955-7.2,18.001-6.508s9,3.046,9,3.046c1.939,0.97,8.452,2.354,10.734,4.57s4.698,1.246,6.329,8.308
	s-6.732,23.54-11.551,26.309C269.625,117.484,261.456,117.207,254.671,115.822z M257.581,177.168c-0.416,0.138-1.385-1.662,0-2.077
	s8.739-3.627,8.87-4.583s0.82-2.516,2.482-2.479c1.249,0.027,6.358-0.072,7.065,2.479s-7.786,2.921-9.432,3.475
	S257.997,177.03,257.581,177.168z M249.965,187.322c0.692,0.599,4.292-1.014,5.262-1.291s4.935,1.357,4.292,2.613
	c-0.416,0.813-2.077,2.511-2.077,2.511l-1.662-0.961c0,0,0.692,1.654-0.277,3.315s-2.77,0.554-2.631,0
	S249.273,186.723,249.965,187.322z M256.197,278.149c1.184,0.402,1.662,2.875,0.969,3.43c-0.692,0.553-4.154-0.521-4.431-1.715
	S253.843,277.351,256.197,278.149z M252.7,286.263c0,0-0.312-1.021,0-1.469c0.312-0.445,4.692,0.893,4.787,1.469
	c0.095,0.578-1.419,3.07-2.393,3.209s-5.391-1.107-5.391-1.107C250.797,288.226,252.7,286.263,252.7,286.263z M259.521,298.044
	c0.138,1.258-3.323,0.982-3.808,0.844s-5.331-3.74-5.331-4.293c0-0.555-0.709-4.309,1.523-2.986c0.62,0.367,4.154,2.986,4.985,3.541
	C257.72,295.702,259.382,296.784,259.521,298.044z M246.643,280.608c0,0,2.77,1.662,3.046,2.217
	c0.277,0.553-3.739,2.215-4.708,1.938C244.012,284.487,246.643,282.132,246.643,280.608z M274,294.456
	c1.444,0,7.537,7.615,7.537,8.447c0,0.83-5.78,13.568-11.614,14.539c-5.833,0.969-2.648,1.662-5.833,0.969
	c-3.185-0.691-5.116-3.553-5.954-3.047c-0.917,0.555-4.501,1.939-5.436,2.078s-4.119-4.848-8.688-6.785
	c-4.569-1.939-15.093-7.512-15.924-10.887s1.107-10.625,2.908-12.678s2.215-4.514,4.292-4.391s4.57-0.262,5.124,0
	s-0.832,2.705,1.107,4.391s4.293,3.746,4.57,4.516c0.277,0.771,0.353,6.145,1.146,6.436c0.793,0.289,6.362,2.781,6.362,2.781
	c1.631,0,4.962,1.385,5.928,1.801s1.907,2.215,2.89,2.215s9.707-3.6,10.26-4.016C273.229,300.411,272.556,294.456,274,294.456z
	 M271.152,296.81c-0.139,1.107-3.877,3.324-5.677,2.908s-4.292-2.908-4.292-2.908h2.891
	C264.073,296.81,271.291,295.702,271.152,296.81z M263.684,292.933c-5.548,0-5.548,0-5.548,0s3.988-2.627,4.279-2.629
	s6.28,0.279,7.509,0S269.232,292.933,263.684,292.933z M269.906,285.456c0.277,0.83-2.802,1.107-3.34,0.414
	c-0.538-0.691-4.033-0.564-2.493-2.354c0.361-0.42,0.709-1.916,1.54-1.789S269.629,284.624,269.906,285.456z M267.413,277.839
	c0.277,1.801-13.57-4.846-13.57-4.846c0.415-0.139,1.8-0.969,2.631-0.969S267.136,276.038,267.413,277.839z M264.073,263.161
	c-0.26,0.693-2.891,1.662-2.891,0c0-1.66,0.554-4.984,0.554-4.984S264.333,262.47,264.073,263.161z M266.566,254.993
	c-0.399,0.553-4.415-0.141-4.138-1.801c0.277-1.662,1.645-5.4,1.645-5.4S266.965,254.438,266.566,254.993z M299.398,209.432
	c-0.969,5.815-4.016,3.877-6.508,5.124c-2.492,1.246-9.139,10.385-9.139,10.385s-10.385-1.246-13.155-1.107
	c-2.77,0.139-10.854,0.693-13.735-0.277c-2.881-0.969-8.144-5.678-8.42-14.193c-0.277-8.516,3.185-10.593,4.847-10.731
	s7.29-1.523,8.353-0.692s5.126,8.169,11.171,6.37c1.467-0.437,5.719-1.246,6.045-1.8c0.324-0.554,0.741-2.122,2.818-2.792
	c2.076-0.67,1.938-0.947,3.045-1.778s1.801-0.831,3.739-1.107s4.847-3.046,4.847-3.046s1.8,0.277,2.77,1.662
	C297.045,196.832,300.368,203.617,299.398,209.432z"/>
<g>
	<path d="M322.305,18.61c1.646,0.494,0.988,6.093,0.988,9.717s-0.988,5.435-0.988,5.435l4.281,1.646l2.801-1.153
		c0,0,0.988-1.482,0.823-3.623s0.165-9.717,0.823-10.375s11.693,0.165,12.188,0s1.152-0.942,1.152-0.942l-1.977-4.822
		c0,0-9.387,0-10.046,0s0.823-3.293,0.823-3.293l7.247-2.141c-1.153-1.812-0.988-5.435-0.988-5.435s-14.657,1.482-19.104,0.824
		S311.764,0,311.764,0s3.129,7.247,3.789,8.729c0.658,1.482,7.246,0.33,9.223,0.33s1.976,0.823,1.646,1.482
		s-8.234,1.647-9.553,1.153c-1.316-0.494-2.799,0-4.446,0.659s-3.952-0.659-3.952-0.659l3.293,6.752
		C311.764,18.445,320.658,18.116,322.305,18.61z"/>
	<path d="M322.963,62.089c3.13,1.812,11.364,0.823,12.188,0s1.646-6.423,1.812-7.247s0-3.129,0-3.129s-5.765,6.752-7.081,7.411
		c-1.318,0.659-2.636-3.458-3.459-5.929s0-9.882,0-9.882l-9.223-6.587c0.659,1.318-0.659,9.881-0.659,13.192
		S319.834,60.277,322.963,62.089z"/>
	<path d="M347.832,74.935c0-0.988-2.471-0.494-4.447-1.153c-1.976-0.659-3.952,0.494-5.6,0c-1.646-0.494-0.75-3.129-0.75-3.129
		s-0.402-2.964-1.391-3.294s-1.977-1.812-1.977-1.812l-2.965,1.976c0,0-0.164,2.471-0.822,3.624
		c-0.659,1.153-3.623,1.317-5.271,1.317s-1.153-1.812-1.153-1.812s-3.787,0.823-5.27,0.863s0-3.004,0-3.004l-3.953-0.988
		c0,0-0.329,3.624-0.988,3.953c-0.658,0.329-6.258-1.482-6.258-1.482l1.482,5.764c0,0,2.799,1.647,4.281,1.482
		s-0.164,4.118-0.329,4.612s-7.741,7.329-7.741,7.329s3.789,3.211,3.789,2.553s6.094-4.117,5.929-3.458s-0.988,19.599-0.988,19.599
		s2.635,0,3.129,0.329s4.118-2.635,4.118-3.458s0.164-14.164,0.164-14.164s2.965,1.647,2.471,2.47s0.494,1.812,1.317,2.141
		s4.776-1.812,4.776-2.306s-0.659-3.129-0.824-3.706c-0.164-0.577,2.141-1.4,2.801-1.564c0.658-0.165,0.328,7.741,0.164,9.387
		s-1.482,12.188-1.482,12.188s1.977,3.623,2.8,3.623s2.306-0.988,3.13-1.647c0.823-0.659,1.976-4.94,2.141-8.234
		s0-10.87-1.08-12.352s1.08-3.294,1.244-3.953c0.165-0.659,2.471,1.647,3.129,1.647c0.659,0,0,5.929,0,5.929s4.612,1.153,5.105,0
		c0.494-1.153,1.318-8.234,1.318-8.234s-2.965-2.8-6.258-4.117c-3.294-1.317-3.624-3.459-3.624-3.459h9.882
		C347.832,78.394,347.832,75.923,347.832,74.935z M330.21,82.346c-0.823-0.494-1.812-3.776-2.636-2.547
		c-0.823,1.229-3.623,4.853-3.623,4.853l-4.281-3.73v-0.881c0,0,4.281-2.141,6.588-2.635c2.305-0.494,7.74-0.165,7.41,1.317
		C333.339,80.206,331.033,82.84,330.21,82.346z"/>
</g>
<path d="M69.941,172.048c0-1.247-3.877-7.754-4.57-8.585s-9.139-4.708-9.693-4.708s0.139,0.969-0.277,1.108
	s-4.569-2.631-4.569-2.631s1.8-1.385,1.662-2.216s-2.077-5.262-3.066-5.4s-8.288-2.908-8.288-2.908s-0.831-11.216-0.692-13.432
	s-1.662-18.832-1.662-19.663s0.138-1.385,1.662-2.354s3.321-1.386,4.983-1.801s10.247-0.692,14.816-6.508s3.739-12.739,3.462-15.231
	s-2.77-8.724-2.77-8.724l-9.554-3.739c0,0-0.692-2.77-0.831-3.877s0-2.631,0-2.631s-3.461,0.554-4.431,0.692
	s-6.508-0.831-6.508-0.831s0.692-1.523,0.692-1.939s1.938-1.384,3.6-1.8s5.677-0.969,5.677-0.969v-3.046
	c0,0-4.846-2.631-5.815-2.908s-3.323-2.077-3.323-2.077s0.415-1.662,0.969-3.739s0-3.323,0-5.4s-1.662-8.447-1.8-13.016
	s0.692-6.093,0.692-6.093s-1.246-1.246-2.492-3.323s-2.908-4.985-2.908-4.985s-0.412,6.777-1.796,9.546S32.141,41.6,32.279,44.093
	s1.8,11.77,1.8,11.77s-2.215-0.416-5.954-1.662s-4.986-0.827-4.986-0.827s3.323,7.616,3.462,7.616s7.477,2.077,7.477,2.077
	s0,5.4-0.554,4.431s-2.908-1.523-2.908-1.523s-0.139-1.247-3.323-1.939s-5.816,2.216-5.816,2.216s-6.231-0.139-8.17,0.692
	s-9.554,6.092-9.554,8.169S2.784,85.779,2.784,86.887s3.6,7.2,4.431,8.724s7.2,5.124,10.247,6.37c2.709,1.108,6.923,1.938,9.832,3.6
	c2.047,1.17,3.461,2.77,4.154,5.677s1.108,27.557,1.247,29.219s-1.107,4.847-1.107,4.847s-2.077,0.138-3.462,0.277
	s-5.954,0.277-6.508,0s-1.247,4.569-1.8,5.124s1.385,3.185,1.385,3.185s-9.781,3.069-10.75,5.146s-1.851,1.086-4.344,6.902
	s0.416,18.278,2.215,22.571s2.77,3.739,3.877,4.292s0.831,2.077,2.077,3.462c1.97,2.188,11.216,2.908,14.4,4.985
	s4.016,8.862,4.154,11.078c0.139,2.215-2.492,19.803-2.492,19.803s-2.908-0.693-3.6-0.969c-0.692-0.277-4.154-0.277-4.154-0.277
	s-3.185,5.814-3.601,6.508c-0.416,0.691-2.215,0-5.262-0.693c-3.046-0.691-8.308,1.248-10.523,3.463
	c-1.495,1.494-3.046,10.801-3.185,15.094s0.554,16.893,5.816,20.215c5.262,3.324,12.324,1.662,15.093,2.217
	c2.77,0.553,8.446,2.631,11.493,4.707c3.046,2.078,4.154,5.678,4.154,5.678s1.246-0.416,2.492,0.277
	c1.246,0.691,5.4,1.938,5.4,1.938s0.831-0.691,1.8-1.521s5.954-3.047,7.339-3.047s6.508,0.553,8.308-1.523
	c1.8-2.078,1.108-13.154,1.108-16.063s-2.355-17.172-3.186-19.248c-0.831-2.078-11.493-4.016-12.185-4.154s-1.108-2.078-0.692-2.631
	c0.416-0.555,0.138-3.6,0-4.293c-0.138-0.691-7.754-3.877-8.585-4.293c-0.831-0.414-0.415-9.139,0.139-12.461
	c0.554-3.324-0.831-4.709-0.969-10.248c-0.139-5.539,0.83-6.51,1.246-7.064s2.631,1.662,2.631,1.662s0.969-1.247,1.523-2.354
	s4.708-2.354,6.093-2.908s3.877,0.692,6.508,0.692s7.893-2.631,9.004-4.016s2.627-5.954,2.765-8.447s2.077-11.908,1.662-12.877
	S69.941,173.294,69.941,172.048z M59.142,163.871c0.831,0.969,0.277,2.354,0,2.77s-2.908-0.97-3.323-1.247s-1.523-3.185-1.523-3.185
	S58.311,162.901,59.142,163.871z M55.681,167.886c0.969,1.523,2.492,3.462,2.077,5.816s-3.185,5.262-4.154,5.262
	c-3.739,0-4.985-6.37-4.985-6.37s2.84-0.516,3.981-0.881s0.658-3.136,0-2.928s-3.427-0.068-3.981-0.761s-1.246-3.562-1.246-3.562
	S54.711,166.363,55.681,167.886z M41.695,163.043c0,0-0.139-3.466,0-3.604s2.493,0,3.185,0s3.739-0.839,3.739-0.839L41.695,163.043z
	 M37.68,36.892c1.107,0-0.493,2.77-1.354,1.523s-1.354-5.539-1.354-5.539S36.572,36.892,37.68,36.892z M34.218,41.877
	c0.607-0.434,3.247,0.692,3.839,2.77s1.146,3.877,1.146,3.877s-3.461-0.139-3.6-1.247S33.249,42.569,34.218,41.877z M31.864,59.394
	c-2.354-1.593-3.877-2.146-0.831-2.839c1.51-0.343,7.024,2.354,7.024,2.354l5.162,2.631v0.692c0,0-4.847-0.693-6.093-1.247
	S34.218,60.987,31.864,59.394z M31.587,71.925c0,0,4.569,0,6.47,0s7.654,0,7.654,0c-0.831-0.138,0,2.908,0,3.608
	s-1.662,2.208-3.461,3.177s-5.974,0-5.974,0s0.851-0.692,1.782-1.523s1.146-3.254,1.146-3.254s-8.724,3.115-9.872,2.008
	S31.587,71.925,31.587,71.925z M43.218,82.172c-5.162,3.185-8.248,0.692-8.248,0.692s4.647-1.662,6.17-2.354
	S46.259,80.295,43.218,82.172z M27.294,66.525c0.692-0.138,2.037,1.385,2.037,1.385c-1.148,0.97-3.421,1.938-3.421,1.938
	s-0.969-1.108-1.108-1.938S26.602,66.663,27.294,66.525z M29.925,101.558c-2.493,0-13.293-5.539-15.647-6.785
	s-5.263-10.77-3.324-15.632s6.785-4.585,8.724-4.169s0.554,3.462,0.554,3.462s-0.554,1.058,0.554,1.775s5.215,4.317,6.277,4.179
	s8.839,1.662,9.451,2.216s4.489-0.831,5.458-0.969s3.6-0.083,5.123-1.842s0.554-3.005,0.554-3.005l2.354-2.77
	c0,0,1.661,2.908,2.769,3.185s3.324,7.478,2.908,10.108s-2.492,10.8-8.031,11.908s-6.924,0.554-7.962,0.554
	s-3.173,2.216-3.173,2.216S32.418,101.558,29.925,101.558z M37.687,128.561c-0.007,0.692,0.685,3.6,0.685,3.6l-0.685,1.523
	c0,0-0.5-1.8-1.015-1.523s-1.701,0.969-1.701,0.969v-5.124C34.971,128.007,37.693,127.869,37.687,128.561z M34.971,118.453
	c0,0,2.571,3.6,2.709,4.292S35.862,125.515,34.971,118.453z M36.329,136.73c0,0,1.766,0.831,2.043,2.631s0,3.601,0,3.601
	l-0.96,0.692c0,0-0.357-0.692-1.083-2.631S35.255,137.007,36.329,136.73z M27.294,149.054c0,0,7.268,2.215,9.034,2.077
	s7.028-1.036,7.028-1.036s2.077,2.005,2.077,2.836s-7.048,1.385-7.747,1.246s-3.746-1.107-5.546-0.969s-7.339-0.831-7.339-0.831
	L27.294,149.054z M39.479,159.163v3.881h-1.793l0.685-3.881H39.479z M34.544,163.04c-1.435,0-6.004,0.139-6.004-1.246
	s1.682-3.341,3.877-3.185c0.829,0.059,3.938,0.139,4.254,0.969S35.979,163.04,34.544,163.04z M24.802,168.025
	c0.692-2.493,3.185-0.554,5.677-0.416s4.639-0.892,4.639-0.892c1.315,0.338,3.393-0.477,4.362,0s4.016,2.592,3.462,4.996
	s-1.308,3.927-1.308,3.927s-3.663-4.57-3.947-5.124s-0.957,0.585-0.957,0.585s0.841,5.092,0.342,5.646s-4.436-2.215-4.436-2.215
	s0.356-3.185,0-4.292s-2.433,0.277-2.433,0.277v3.6C30.202,174.117,24.109,170.518,24.802,168.025z M20.37,243.769
	c0,0,0,0.971,0,1.385c0,0.416,3.323,1.662,4.761,3.195s0.672,3.826,0,3.801c-1.747-0.068-2.13-4.227-2.546-4.502
	c-0.416-0.277-0.415,1.938-0.955,3.045s1.094,4.016,0,3.877s-1.676-4.154-2.645-4.291c-0.969-0.139,0,1.938-0.416,1.871
	c-0.416-0.068-1.246-1.734-1.246-3.119S20.37,243.769,20.37,243.769z M47.787,249.724c0.554,0.83,2.215,0.969,3.323,1.523
	c1.108,0.553,3.739,2.629,4.016,5.814s0.277,13.018,0.692,14.955c0.416,1.939-2.77,5.816-3.185,6.508
	c-0.415,0.693-4.117,0.555-4.828,1.385c-0.711,0.832-2.234,4.016-3.48,3.324c-1.246-0.693-9.416-6.508-11.908-6.924
	s-6.923-2.906-12.601-3.322s-8.862-1.248-8.862-1.801c0-0.555-2.493-0.83-3.739-1.801c-1.246-0.969-0.139-22.709,0-23.262
	c0.139-0.555,4.431-3.877,6.093-3.463c1.662,0.416,0.416,3.877,0.692,7.201c0.277,3.322,1.523,5.953,5.539,7.338
	s4.815,3.186,5.592,4.293s4.223,3.324,9.839,3.877c5.616,0.555,11.432-1.461,11.432-2.393c0-0.93,0.969-5.361,0.416-7.301
	c-0.554-1.938-0.139-4.568-2.493-5.262c-2.354-0.691-6.231-0.672-5.4-2.066s0.831-3.471,0.831-3.471
	C40.31,245.153,47.233,248.892,47.787,249.724z M39.063,257.103c-0.692-0.871-9,4.113-9,3.283s1.246-1.996,3.185-3.283
	s3.884-2.67,3.05-2.947s-2.634,0.139-4.019,0.691c-1.385,0.555-4.569,2.215-4.569,2.215c0-0.691,2.268-5.537,6.05-4.846
	c3.782,0.693,8.212,0.693,8.628,0.693s2.631-0.416,2.493,0.553s-2.077,0.691-2.493,2.354s-0.277,3.877-1.385,4.709
	c-1.107,0.83-6.108,1.938-6.031,1.385c0.077-0.555,4.508-3.047,4.785-3.877C40.033,257.2,39.756,257.974,39.063,257.103z
	 M41.971,239.062c0.554-0.277,0.554,3.186,0,2.908s-5.123-1.525-5.123-0.971s-0.847,7.201-1.877,7.34s-2.692-1.107-2.554-2.076
	c0.139-0.971,1.938-5.541,1.246-5.816c-0.692-0.277-7.2-1.523-8.169-3.047s0.166-3.393,1.523-2.908
	C28.01,234.847,41.417,239.337,41.971,239.062z M36.443,224.106c0,0-3.279-3.6-2.684-4.432
	C34.355,218.845,37.285,220.229,36.443,224.106z M33.877,209.084c0.478-1.317,1.093-3.533,1.093-3.533s1.622,2.63,1.473,3.738
	s-0.702,3.462-1.326,3.323S33.399,210.402,33.877,209.084z M60.804,185.195c-2.77,6.319-2.354,7.339-7.477,8.585
	s-5.064-0.527-6.646,0c-2.908,0.969-7.201,5.4-7.201,5.4s-4.985-4.984-7.616-5.123s-6.923-0.97-10.385-0.831
	s-7.063-3.739-9.139-8.031s-2.77-7.2-2.354-11.908s1.247-4.155,1.247-5.539s3.66-6.721,5.815-7.754c2.908-1.394,7.7-1.394,7.7-1.394
	s-1.191,3.055-0.776,3.609s-2.77,0.631-3.185,2.254s-1.8,2.254-1.8,2.254s4.599,4.077,5.761,5.877s4.485,6.785,6.701,7.062
	s4.045-0.138,5.623-0.692s3.789,0,5.937,0.554s3.672,2.77,3.672,2.77l9.139-0.969c0,0,2.678-5.954,3.762-7.754
	s2.746-3.462,2.746-3.462S64.636,176.452,60.804,185.195z"/>
<path d="M151.644,202.231c-0.969-3.185-0.276-4.985-0.691-6.092c-0.416-1.107-2.493-5.262-2.77-6.093
	c-0.277-0.831-7.34-2.631-7.34-3.046s-1.522-8.585-1.522-8.585s-2.493,1.8-4.016,2.804s-4.154,0.243-5.12,0
	c-0.967-0.243-3.326-5.989-3.326-5.989s-2.354,4.431-2.631,5.124c-0.277,0.692-1.939,0.969-3.186,0.831s-2.215-4.985-2.492-5.539
	c-0.277-0.554,1.523-1.662,3.738-2.215c2.217-0.554,4.708-1.662,4.708-2.354s-0.97-5.539-1.384-6.093
	c-0.416-0.554,0.276-1.662,0.276-1.662s-7.754,1.107-8.449,1.107s0.694-7.477,1.249-9c0.553-1.523,0.691-9.97,1.107-12.324
	s-0.277-11.354-0.554-12.739s1.383-0.833,1.521-1.802c0.139-0.969,5.263-2.77,12.463-6.646s9.693-22.294,9.832-23.263
	s0-11.493,0-12.601s-3.602-8.308-4.293-9.386c-0.693-1.078,0.691-0.446,0.969-0.03s2.908-3.6,1.724-3.6s-8.37-5.539-8.37-5.539
	s4.708-0.416,6.093-1.247s2.077-3.323,2.216-4.154s0-3.323,0-3.323s-3.323-0.969-4.293-0.831s-7.2-3.046-7.893-3.461
	s-1.107,0-1.107,0s0.415-0.97-0.416-1.247c-0.83-0.277,0.416-8.031,0.693-10.385s1.384-8.862,1.384-9.97s0.139-9.139-1.107-10.939
	s-3.601-3.323-7.062-4.292c-3.462-0.969-4.155-2.077-4.155-2.077s0.001,3.044,1.11,5.536c1.107,2.492,0.83,9.693,0.276,11.631
	c-0.554,1.938-1.8,13.847-1.246,17.863s1.385,3.739,1.108,4.708c-0.277,0.969-3.324,1.385-3.739,1.246s-0.554,1.385-0.831,1.8
	s6.231,5.679,7.063,7.202c0.83,1.523-0.416,1.523-1.523,1.247s-4.985-3.046-5.816-4.016s-1.385,0.831-2.215,1.384
	s0.416,1.662,0.416,1.662s-5.816-1.939-7.201-1.939s-10.939,2.077-11.908,2.493s-12.047,5.539-15.647,13.432
	s0.277,17.864,0.139,19.249s-0.692,7.201,0,10.247s3.738,4.57,6.785,6.647s13.432,8.862,14.263,9.139s10.664,1.664,11.356,1.803
	s1.938,5.4,2.216,8.169s-1.385,9.416-2.077,14.54s-0.277,15.924-0.692,16.063s-10.387,7.48-10.387,7.48s0.692,4.847,0.692,5.262
	s5.816,2.077,6.508,1.8s2.631-0.692,3.323-1.385s2.077,7.201,1.509,6.231s-4.278,0.138-5.248,0s-3.6-2.077-4.985-2.493
	s-2.077,1.246-6.923,1.385s-7.037-2.459-7.062-1.8c-0.092,2.389,7.2,7.616,7.893,8.309s-0.554,3.046-0.969,4.431
	s-5.4,7.062-5.954,7.893s1.108,8.724,2.493,14.263c2.221,8.883,14.401,12.186,16.063,13.432s1.523,6.646,1.107,9.555
	s-1.938,5.539-2.215,13.293s-1.109,11.773-2.771,13.434c-1.662,1.662-7.478,0.277-7.478,0.277s-3.185,4.016-2.077,3.738
	s5.816,4.709,4.847,4.709s-2.77,1.523-3.462,1.662s-2.908-0.832-3.877-1.662c-0.969-0.832-2.216-0.555-2.216-1.662
	s-4.431,0.416-6.785,1.107c-2.354,0.693-3.739,1.246-5.677,3.324c-1.494,1.6-1.8,2.631-3.323,6.092
	c-1.523,3.463-4.293,18.693-3.462,18.971c0.831,0.275,7.616,7.615,10.801,9.277s3.461,2.631,5.123,2.77
	c1.662,0.137,7.893,2.492,9,2.631c1.107,0.137,5.677,6.785,6.785,7.338c1.108,0.555,1.662-1.246,3.6-1.66
	c1.938-0.416,6.063,0.969,6.063,0.969c3.768-0.83,5.628-0.086,7.428-0.363c1.799-0.275,13.926-12.377,14.757-13.486
	c0.831-1.107-0.415-12.877-0.714-13.707c-0.3-0.832-6.486-6.646-7.179-6.787c-0.692-0.139-0.415-2.49-0.415-3.184
	c0-0.691-3.739-0.969-4.293-2.492c-0.554-1.521,1.246-2.77,1.801-4.154c0.554-1.385,1.662-3.049,0.691-3.465
	c-0.969-0.416-3.6-1.246-4.984-1.938c-1.385-0.693-6.092-2.908-6.785-3.324c-0.692-0.414,0-3.6,0-4.707s3.6-5.123,4.154-6.232
	c0.554-1.107,1.247,0.416,1.662,0s-0.138-6.23,0-7.615s0-19.387,0-20.771s4.985-0.83,9.417-1.939
	c4.431-1.107,2.907-1.385,4.016-1.521c1.107-0.139,3.877,2.631,3.877,2.631s3.738-1.939,5.677-3.74s6.509-5.123,7.339-5.537
	c0.83-0.416,4.293-0.971,5.816-6.371C153.999,210.542,152.613,205.417,151.644,202.231z M133.05,188.644
	c0.872-1.228,2.257-3.21,2.257-3.21s1.522,4.352,1.107,4.759s-3.364,2.346-3.364,2.346S132.178,189.872,133.05,188.644z
	 M127.968,188.644c0,0,1.246,1.68,0,3.757s-5.082,1.985-5.082,1.985S127.138,188.902,127.968,188.644z M120.629,188.64
	c0-1.406,1.107-0.671,2.257-1.917s5.082-1.385,3.975-1.246c-1.108,0.139-4.57,6.37-4.57,6.37
	C119.383,191.985,120.629,190.046,120.629,188.64z M123.709,197.939c1.767,0-1.419,1.385-1.558,2.354s-1.8,1.662-4.708,0.831
	s-4.031-2.354-4.031-2.354S121.942,197.939,123.709,197.939z M116.218,187.554c0.574-0.277,1.503,1.108,1.226,1.523
	s-1.246,4.016-0.951,4.569c0,0-0.295,2.493-1.542,2.493s-1.938-2.631-1.654-4.286S115.644,187.831,116.218,187.554z
	 M114.115,179.246c1.38-0.448,2.378-0.969,2.378-0.969s0.617,1.8,0.992,2.908s-1.112,2.216-0.992,2.908s-1.265-0.139-1.542-0.554
	S113.558,179.426,114.115,179.246z M117.444,146.151c-0.416,1.8-1.114,1.8-1.665,0s-0.828-3.461-0.828-3.461
	S117.859,144.351,117.444,146.151z M116.218,157.644c-1.128,1.108-2.651,0.138-2.79-0.831s0.687-4.985,0.687-4.985
	C114.674,152.105,117.346,156.536,116.218,157.644z M114.121,132.027c-0.167-1.798,3.323,2.63,3.323,3.738s0,2.354,0,2.354
	S114.674,137.982,114.121,132.027z M133.643,60.157c1.108,0.554,3.425,2.055,2.77,2.77c-1.522,1.662-6.646,0-7.2-1.385
	C128.657,60.157,132.534,59.604,133.643,60.157z M130.042,70.542c0.97,0.692,3.877,1.385,4.847,2.77s1.385,2.077,0,2.215
	s-1.804,1.938-5.126,0c-3.32-1.938-4.277-4.847-6.015-4.985C123.214,70.5,129.073,69.85,130.042,70.542z M121.872,25.263
	c0.541-0.631,4.154,1.246,4.57,2.492c0.415,1.247-1.107,4.985-1.107,4.985S121.042,26.232,121.872,25.263z M121.766,39.941
	c0.522-1.385,1.769-3.323,1.769-3.323c0.692,0.138,2.631,3.046,2.216,4.985s-2.216,3.046-2.216,3.046S121.243,41.326,121.766,39.941
	z M121.766,47.141c0.386-0.544,2.011,2.354,2.374,3.877s-0.392,2.354-0.392,2.354S119.997,49.633,121.766,47.141z M101.518,115.822
	c-6.785-1.385-15.786-8.447-13.847-9.832s9.417-2.216,11.216-3.323s6.092-3.185,6.231-1.8s4.822,13.941,5.108,14.955
	s1.095-5.678,0.693-9.139s-1.399-5.124,0-6.646s13.583-7.063,14-8.447s-0.746,0.277-3.627,0.277c-2.881,0-6.066,0.553-7.728,1.107
	s-4.985,1.523-4.985,1.523s-1.662-8.308-2.77-10.108s-4.016-6.092-4.708-6.231s0,5.124,0.277,8.031s3.6,7.892,2.354,9.139
	s-4.431,2.077-6.646,2.077s-4.984,1.523-6.785,2.354s-3.601,3.462-3.601,3.462s-1.247-9.277,0-13.432s-2.63-8.862-2.769-9.97
	s2.354,0,4.846-0.831s14.955-7.2,18.001-6.508s9,3.046,9,3.046c1.939,0.97,8.452,2.354,10.734,4.57s4.698,1.246,6.329,8.308
	s-6.732,23.54-11.551,26.309C116.472,117.484,108.303,117.207,101.518,115.822z M104.428,177.168c-0.416,0.138-1.385-1.662,0-2.077
	s8.739-3.627,8.87-4.583s0.82-2.516,2.482-2.479c1.249,0.027,6.358-0.072,7.065,2.479s-7.786,2.921-9.432,3.475
	S104.843,177.03,104.428,177.168z M96.812,187.322c0.692,0.599,4.292-1.014,5.262-1.291s4.935,1.357,4.292,2.613
	c-0.416,0.813-2.077,2.511-2.077,2.511l-1.662-0.961c0,0,0.692,1.654-0.277,3.315s-2.77,0.554-2.631,0S96.12,186.723,96.812,187.322
	z M103.044,278.149c1.184,0.402,1.662,2.875,0.969,3.43c-0.692,0.553-4.154-0.521-4.431-1.715S100.69,277.351,103.044,278.149z
	 M99.547,286.263c0,0-0.312-1.021,0-1.469c0.312-0.445,4.692,0.893,4.787,1.469c0.095,0.578-1.419,3.07-2.393,3.209
	s-5.391-1.107-5.391-1.107C97.644,288.226,99.547,286.263,99.547,286.263z M106.367,298.044c0.138,1.258-3.323,0.982-3.808,0.844
	s-5.331-3.74-5.331-4.293c0-0.555-0.709-4.309,1.523-2.986c0.62,0.367,4.154,2.986,4.985,3.541
	C104.567,295.702,106.229,296.784,106.367,298.044z M93.489,280.608c0,0,2.77,1.662,3.046,2.217
	c0.277,0.553-3.739,2.215-4.708,1.938C90.858,284.487,93.489,282.132,93.489,280.608z M120.847,294.456
	c1.444,0,7.537,7.615,7.537,8.447c0,0.83-5.78,13.568-11.614,14.539c-5.833,0.969-2.648,1.662-5.833,0.969
	c-3.185-0.691-5.116-3.553-5.954-3.047c-0.917,0.555-4.501,1.939-5.436,2.078s-4.119-4.848-8.688-6.785
	c-4.569-1.939-15.093-7.512-15.924-10.887s1.107-10.625,2.908-12.678s2.215-4.514,4.292-4.391s4.57-0.262,5.124,0
	s-0.832,2.705,1.107,4.391s4.293,3.746,4.57,4.516c0.277,0.771,0.353,6.145,1.146,6.436c0.793,0.289,6.362,2.781,6.362,2.781
	c1.631,0,4.962,1.385,5.928,1.801s1.907,2.215,2.89,2.215s9.707-3.6,10.26-4.016C120.075,300.411,119.402,294.456,120.847,294.456z
	 M117.999,296.81c-0.139,1.107-3.877,3.324-5.677,2.908s-4.292-2.908-4.292-2.908h2.891
	C110.919,296.81,118.137,295.702,117.999,296.81z M110.531,292.933c-5.548,0-5.548,0-5.548,0s3.988-2.627,4.279-2.629
	s6.28,0.279,7.509,0S116.079,292.933,110.531,292.933z M116.752,285.456c0.277,0.83-2.802,1.107-3.34,0.414
	c-0.538-0.691-4.033-0.564-2.493-2.354c0.361-0.42,0.709-1.916,1.54-1.789S116.476,284.624,116.752,285.456z M114.26,277.839
	c0.277,1.801-13.57-4.846-13.57-4.846c0.415-0.139,1.8-0.969,2.631-0.969S113.983,276.038,114.26,277.839z M110.919,263.161
	c-0.26,0.693-2.891,1.662-2.891,0c0-1.66,0.554-4.984,0.554-4.984S111.179,262.47,110.919,263.161z M113.413,254.993
	c-0.399,0.553-4.415-0.141-4.138-1.801c0.277-1.662,1.645-5.4,1.645-5.4S113.812,254.438,113.413,254.993z M146.245,209.432
	c-0.969,5.815-4.016,3.877-6.508,5.124c-2.492,1.246-9.139,10.385-9.139,10.385s-10.385-1.246-13.155-1.107
	c-2.77,0.139-10.854,0.693-13.735-0.277c-2.881-0.969-8.144-5.678-8.42-14.193c-0.277-8.516,3.185-10.593,4.847-10.731
	s7.29-1.523,8.353-0.692s5.126,8.169,11.171,6.37c1.467-0.437,5.719-1.246,6.045-1.8c0.324-0.554,0.741-2.122,2.818-2.792
	c2.076-0.67,1.938-0.947,3.045-1.778s1.801-0.831,3.739-1.107s4.847-3.046,4.847-3.046s1.8,0.277,2.77,1.662
	C143.892,196.832,147.215,203.617,146.245,209.432z"/>
</svg>
