<svg xmlns="http://www.w3.org/2000/svg" width="200" height="200" viewBox="-20 -110 440 440" preserveAspectRatio="xMidYMin slice">
  <path fill="#F4B4D0" d="M283.954 79.422s9.73 3.621 10.861 5.657c1.131 2.037-7.57 9.605-9.782 8.083s-8.546-11.93-8.546-11.93l7.467-1.81z"/>
  <path d="M366.091 97.751c3.846.226 25.117 1.584 29.416 2.037 4.299.452 4.299-4.526 2.94-3.621-1.357.906-7.692 0-10.182-1.132-2.49-1.131-11.314.679-12.898 0-1.584-.679-16.064-1.81-17.197-2.036-1.131-.226-.678-4.299-.905-4.978-.226-.679 26.701 2.263 27.153 1.358.453-.905-.904-3.168-2.036-4.299-1.131-1.131-6.335-.679-9.957-1.132-3.619-.453-13.803-.679-14.708-1.131-.905-.452-1.356-10.183-1.356-11.314 0-1.131 6.108-3.394 8.824-6.11 2.716-2.715 7.016-9.051 9.052-13.803 3.245-7.571 11.539-20.138 11.539-20.138-9.051-3.395-21.044-3.62-34.393-2.489-13.351 1.131-21.723 6.789-23.081 6.562-1.357-.226-18.102-7.015-30.321-8.825-12.219-1.81-17.423 1.81-18.78.905s-4.526-11.087-7.92-17.423C267.887 3.846 266.755.905 263.361 0c0 0-6.301 2.302-12.217 9.956-9.828 12.715-9.277 27.832-10.183 27.832-.905 0-4.978 1.81-11.087 7.919-5.378 5.378-8.824 19.46-10.409 21.043-1.584 1.584-9.729-1.583-14.934-2.489-5.204-.905-3.847.227-4.031 3.621-.185 3.394 20.323 2.263 17.607 4.526-2.715 2.264-.226 7.241-1.131 7.467-.904.227-7.919-1.131-12.445-2.263-4.525-1.131-4.525 3.621-3.422 4.525s14.509 2.263 16.32 2.263c1.81 0 .213 1.69 3.621 5.205 3.625 3.739 4.752 5.657 2.941 5.657s-20.817-2.942-22.175-2.942-.679 2.715 1.358 4.073c2.037 1.357 22.854 2.263 22.854 2.263s2.715 2.941 4.978 3.846c2.262.905 14.255 4.525 14.255 4.525s-6.109-5.882-7.015-6.335c-.906-.453 6.336 1.131 7.92.226 1.583-.905 1.357-2.715-.227-2.715s-7.241-2.037-9.051-1.584-7.468-6.109-5.431-7.694c2.037-1.584 11.54 1.132 12.445.227.906-.905 0-2.941 0-2.941s-9.956-1.358-12.897-2.716c-2.942-1.357-4.526-7.467-2.037-6.11 2.489 1.357 4.978.679 5.431-.452.453-1.131 3.847.905 4.978.679 1.132-.227 11.767 4.073 11.767 4.073l.227-4.073s-11.767-3.167-12.672-5.43c-.906-2.263-.906-4.074 2.941-9.051s13.124-12.671 16.065-12.898c2.942-.227 6.11 3.621 6.11 3.621 2.941-.226 10.635-1.132 10.635-1.132-.226 2.715 4.751 4.299 4.751 4.299s-7.693 8.825-6.335 15.161 2.037 7.693 2.037 8.372c0 .679 3.621 10.635 4.751 10.861 1.131.227-.453 7.92-.453 7.92s-18.102 12.218-16.744 12.445c1.357.226 16.518-7.467 18.555-6.562s24.664 13.577 24.664 12.445c0-1.131.68-4.979-.679-6.11-1.357-1.132-16.292-7.24-18.781-8.599-2.489-1.357-1.81-6.562-1.583-8.598.226-2.037 2.262-2.715 3.394-4.299 1.132-1.583 3.847-7.467 3.847-9.73 0-2.263-3.394-4.525-3.394-3.846s-11.087 0-9.73-1.132c1.358-1.132 6.336-19.912 8.373-21.948 2.036-2.037 6.109-6.11 6.109-6.11s-.226 6.788-1.583 11.541c-1.357 4.751-1.811 13.351-1.811 13.351s3.168-2.715 5.657-7.92c2.489-5.204 3.395-9.729 5.431-11.54s7.014-2.489 7.014-1.81c0 .679-2.489 4.073-.905 2.715s10.183-2.037 10.183-2.037.453 3.847 1.81 4.299c1.358.453 7.92 4.752 7.694 5.883-.227 1.131-1.131 7.92 3.621 9.053 2.267.541 6.108 0 7.241-1.358 1.131-1.358 4.978 0 4.978 0s.452 3.395 1.811 3.168c1.357-.226 1.131 9.277 1.131 9.277s-4.3.679-9.729.453c-5.431-.226-11.088 0-11.992-.679-.906-.679-2.263 2.489-1.359 3.395.905.905 16.518 1.583 18.329 1.131s-.227 4.979-.227 4.979-18.329-1.132-20.817.226c-1.831 1-2.037 7.015-.226 5.205 1.811-1.81 15.613-2.037 18.555-.679 2.941 1.358-2.489 4.752-3.168 4.979-.679.226-14.255.226-13.35.678.905.452 8.598 3.168 8.372 3.847-.227.679-8.372 4.299-8.372 4.299s1.81 5.882 2.941 5.882c1.132 0 12.672-3.846 14.029-4.751 1.357-.906 3.395-1.583 4.073 7.693.68 9.278-1.358 11.767-7.92 23.307-6.563 11.54-15.841 18.782-18.556 26.249-2.715 7.467-3.395 13.803 4.978 15.84 8.373 2.035 19.46-1.359 19.46-1.359s2.263.453 1.81 3.848c-.452 3.394-4.072 7.241-8.598 8.6-4.526 1.357-25.117 14.254-23.194 23.758 1.921 9.504 13.464 17.877 13.464 19.007 0 1.132-3.394 8.374-5.43 13.125-2.036 4.752-.453 6.562-.227 7.24.227.68-1.584 2.489-3.621 1.584-1.861-.827-3.799-2.582-4.121-2.88.245.269.946 1.579-1.988 6.274-3.394 5.432-4.526 1.357-4.299-2.715.226-4.073-.453-3.847-1.358-3.847s-1.879 7.763-4.073 8.371c-7.031 1.954-5.431-5.883-5.431-5.883s11.541-19.007 12.672-27.605c.744-5.647-4.752-20.365-6.335-22.854-1.584-2.488-9.051-19.46-9.051-19.46s-2.941 1.811-2.263 7.468c.679 5.657 3.394 7.014 2.037 8.37-1.357 1.358-9.73-.225-9.73-.225l2.489 5.43s-.227 1.133 6.788 2.942c7.015 1.81 6.789 9.729 7.468 15.84.679 6.109-4.074 22.401-5.657 22.401s-1.583-4.299-2.942-4.752c-1.358-.452-2.489 10.86-4.073 10.635s-3.167-6.336-3.167-6.336-1.584.226-1.584 3.395c0 3.168 1.132 6.109-2.489 6.109-3.621 0-3.168-2.942-3.168-2.942s-1.584 3.848-4.299 5.884c-2.715 2.036-3.847-.905-3.395-4.752s4.525-4.979 5.657-7.468c1.131-2.488.678-7.468-.907-17.877s-9.956-20.817-9.277-25.343c.679-4.525 1.81-.905 4.525-3.167 2.716-2.263 3.847-6.11 4.073-10.409.226-4.3.574-6.896-.453-10.86-1.507-5.821-14.029-19.008-22.627-25.57-8.599-6.562-13.803-16.292-13.803-16.292s6.562-6.335 8.146-16.292c1.234-7.758-9.73-17.423-9.73-17.423s-6.336 12.897-7.467 18.555c-1.131 5.657-7.241 32.357 1.81 47.896 9.051 15.538 19.008 27.001 19.008 28.358 0 1.358-4.978 2.036-7.919 7.92-2.941 5.883-4.978 20.817 1.357 27.832 6.336 7.015 19.687 16.065 20.818 16.744 1.131.679-1.81 2.263-1.357 7.693s9.051 10.408 16.518 7.919c7.467-2.488 15.161-5.657 15.161-5.657s2.262 6.563 8.598 7.241c5.347.572 11.314 1.585 14.851-1.809 3.537-3.395 5.967-12.22 7.551-11.088 1.585 1.132 10.668 5.691 11.313 8.372 1.83 7.595-11.54 11.314-21.531 13.575-9.991 2.264-37.527 1.585-48.841-4.299-11.313-5.883-37.562-14.028-39.146-8.371-1.584 5.657 7.014 11.992 14.029 13.803 7.015 1.808 7.92 11.087 35.074 12.897 27.153 1.809 38.919-2.035 63.583-4.977 24.664-2.941 47.292-18.783 51.817-26.929 4.526-8.146 4.073-14.708 4.073-14.708s4.072-5.204 5.432-8.372c1.357-3.167.891-8.573.45-20.14-.678-17.876-9.955-31.905-9.955-31.905 4.752-2.942 6.562-14.708 4.752-22.627-1.81-7.92-4.073-22.175-6.109-24.438-2.037-2.263-2.352-5.634-14.481-13.124-18.327-11.315-17.65-16.066-17.65-16.066s5.883.679 12.445 1.132c6.563.452 21.948 0 23.532 0s2.489-4.752 1.133-4.978c-1.358-.226-17.878-.453-21.498-1.132-3.619-.679-16.293-3.168-16.97-3.394-.679-.226 3.167-5.205 3.846-6.11s5.652-.226 9.5.001zM248.428 34.846c-1.584.679 3.847-16.745 10.861-23.533 1.028-.996 5.882 17.424 6.109 18.781.227 1.357-15.386 4.073-16.97 4.752zm33.262 47.065c2.495.657 3.848-1.357 4.3 1.132.452 2.489-2.489 4.525-3.395 4.525s-5.204-6.789-.905-5.657zm72.41-19.459c1.584-2.036-1.133-10.409-1.133-10.409s5.205-5.883 8.826-7.015c3.619-1.131 9.729-2.715 9.729-2.715s-7.233 9.132-7.92 11.993c-1.357 5.656-10.382 9.276-9.502 8.146z"/>
  <path d="M254.311 59.284c1.542.367 4.752 0 4.752 1.132 0 1.131 1.131 2.941 0 4.525-1.131 1.583-2.715 2.489-4.752 2.036-2.036-.453-4.731-1.324-4.505-2.288.226-.963-.247-6.537 4.505-5.405zm59.426 4.977c1.869-2.477 5.741-.225 5.968 1.132.227 1.357.679 4.978 0 5.431s-5.374 1.811-5.968 1.584c-.594-.226-1.726-3.394-1.726-3.394s.947-3.718 1.726-4.753z"/>
  <g fill="#040000">
    <path d="M22.897 111.862c-.168.506.107.06.752-.944-.404.375-.67.698-.752.944z"/>
    <path d="M166.755 95.393c3.361 1.345 13.76 5.379 13.76 5.379s-9.391-8.404-13.088-9.748c-3.697-1.345-11.764.673-11.092-2.017.673-2.688-.336-5.042-.336-5.042s9.074 1.681 16.133 4.37c7.061 2.69 9.747 10.083 7.732 4.37-2.018-5.714-7.061-8.404-11.43-10.084s-14.789-3.361-14.789-3.361-3.361-2.017-6.05-5.288c-2.688-3.271-9.747-12.526-10.083-13.871-.336-1.344 5.377-9.747 4.705-8.03s-.336 10.383-.336 10.383 1.008-2.017 4.033-3.697c3.025-1.681 8.067-6.686 8.067-6.686s0 3.324-1.009 7.021c-1.008 3.697-1.344 13.78-.672 14.789.672 1.008 7.058-6.722 7.395-9.411.336-2.689 11.092-21.512 11.092-22.52 0-1.009-2.689-4.033-9.412-5.378-6.722-1.345-19.83 3.361-22.184 4.705-2.352 1.345-11.764 6.723-16.133 4.272-4.369-2.45 8.402-11.33 8.402-11.33-7.058 0-12.1 5.378-12.1 5.378-.336-3.025 7.73-9.412 7.73-9.412s-5.041-.336-10.084 2.017c-5.041 2.353-5.713 8.403-7.394 8.067-1.681-.336-12.772-1.681-27.562 0-14.789 1.681-16.42 3.926-22.184 5.042C51.7 46.894 28.948 30.17 28.948 30.17s-1.681 1.697-.673 6.403c1.009 4.705-3.19 7.664-1.008 15.461 4.644 16.594 13.444 15.462 11.428 17.143-2.017 1.68-3.361 15.124-3.361 15.124s-2.017.337-7.73 3.361c-5.714 3.025-17.142 18.15-11.092 11.764 6.05-6.386 18.822-7.73 18.822-7.73s4.546 4.741 2.017 5.714c-6.547 2.518-11.773 10.507-13.701 13.508 2.912-2.702 13.186-8.213 16.727-8.802 4.033-.672 18.822-5.714 16.469-4.034-2.352 1.68-27.225 17.142-23.527 15.125 3.697-2.017 9.748-2.017 9.748-2.017s-3.361 4.033-6.723 5.714-29.243 4.706-34.958 43.359c-7.369 49.852 16.807 74.282 21.848 81.338 5.042 7.061 3.436 23.9 9.412 30.588 16.953 18.967 61.508 11.426 77.979 9.748 16.469-1.682 41.342-15.797 43.021-27.563 1.682-11.766-3.361-14.453-6.387-16.469-3.023-2.018-3.025-10.42-3.025-13.781 0-3.363 7.732-10.42 8.404-16.133s-2.689-14.789-2.354-17.143c.338-2.354 0 0 5.043-16.469 5.041-16.47-1.009-23.864-1.009-23.864s2.353-3.361.672-15.125-14.116-21.848-14.116-21.848-3.025 2.688-.336 16.133c2.688 13.445-2.018 27.562-4.37 27.897s-.672-10.084-4.369-5.082c-3.698 5.001-.337 15.166-1.345 26.927-1.008 11.766-11.764 16.135-14.789 16.135s-8.066 14.453-12.772 14.789-1.681-9.076-5.042-12.438c-3.36-3.359-6.387-11.426-7.73-16.131-1.344-4.707-15.125-12.438-15.125-12.438s-3.361-14.116-3.361-19.495c0-5.377-7.73-16.133-11.764-19.494s0-8.066 0-8.066 8.402 3.025 23.864 4.369c15.461 1.345 21.511-1.68 28.569-3.36 7.059-1.682 16.471-9.412 12.772-6.901-3.697 2.511-12.437 0-12.437 0s4.033-2.174 5.715-5.872c1.68-3.697 1.838-5.378 1.838-5.378 8.244-2.016 5.557-5.713 8.244-6.386 2.69-.672 18.822 5.042 27.227 8.404 8.402 3.36 10.418 12.435 10.418 8.066s-5.377-9.411-8.401-11.427c-3.025-2.017-2.017-8.404-1.681-10.756.336-2.35 7.395 1.011 10.756 2.355zM35.67 59.765c-1.345-4.37-2.017-15.797-2.017-15.797 2.689 1.008 6.051 10.083 8.402 13.444 2.354 3.361 4.707 6.723 4.707 6.723s-9.747 0-11.092-4.37zm28.569 6.05c2.809-1.966 5.043 1.344 3.025 4.705-2.015 3.362-9.747.001-3.025-4.705zm39.893 150.688c2.311.164.857 4.066 1.713 4.387.856.322 8.564-2.568 9.207-1.068.642 1.498.213 6.744 1.926 6.957 1.713.215 5.46-1.604 6.102.643.645 2.25.535 6.529-2.141 7.494-2.676.963-.748 2.246-5.031 3.428-4.281 1.174-6.957 2.031-4.389 3.209 2.568 1.176 9.421-2.355 10.598-2.035 1.178.322 5.674 3.105 4.711 5.139-.963 2.035-4.282 2.463-4.604 1.715-.32-.75-2.676-1.393-2.997-.43-.321.965.321 3.855-1.285 4.174-1.606.322-3.317-2.674-3.747-4.602-.428-1.926-3.532-2.248-3.639-.43-.107 1.822 1.07 4.76-.322 5.057-1.391.297-4.067-9.98-4.816-15.439-.75-5.459-4.176-13.701-4.496-14.986-.323-1.285 1.712-3.32 3.21-3.213zm-44.961 38.858c3.532-2.141 6.209-4.709 6.209-4.709s1.056 5.01 14.238 5.889c9.635.643 12.953-4.391 12.953-4.391s-3.427-3.854-5.032-3.318c-1.605.533-2.034 3.533-3.747 3.641-1.713.105-3.961-.322-3.532-1.072.429-.748 2.89-3.854 2.677-4.281-.215-.428-3.212-2.568-3.961-2.141-.75.428-4.282 5.354-5.353 4.924-1.071-.43-3.319-1.178-2.784-3.424.535-2.25 3.64-7.174 6.209-5.781 2.57 1.391 8.672 3.641 10.705 2.781 2.033-.855-.107-5.566-.855-6.1-.75-.537-5.674-4.068-7.387-4.389-1.713-.324-5.888.641-6.852 0-.964-.643-2.141-3.643-1.605-4.604.535-.965 2.783-3.855 3.854-2.893 1.07.965 4.604 2.463 7.279 3 1.68.336 7.148-2.465 8.07-1.609.922.859.814 2.893 1.992 2.787 1.097-.102 4.88-.541 5.139-1.307-.05-.266-.063-.346 0-.178.022.063.019.119 0 .178.205 1.107 1.066 5.494.018 9.119-1.303 4.496-4.406 11.027-3.979 11.775.428.75 7.602 4.068 7.708 3.748.106-.322 1.177-4.389 1.712-4.389s2.143 4.816 5.889 5.994 13.061.105 15.629-1.285c2.569-1.393 8.242-7.387 8.242-8.777 0-1.393-1.069-9.207 0-9.85 1.071-.643 5.676 1.928 5.676 3.961 0 2.035-5.461 14.559-12.954 20.234-7.493 5.672-20.769 9.525-37.146 10.596-16.38 1.07-27.835-2.889-30.511-4.602s-7.708-6.424-8.457-7.922c-.749-1.498 6.423.537 9.956-1.605zm14.465-137.579c-6.256-1.272-22.481-8.275-22.27-10.182.213-1.907 2.439-2.007 4.879-1.957 2.439.05 12.619-4.298 14.422-5.04 1.803-.743 5.195-1.909 6.469-.743s6.256 3.181 7.211 3.924c1.871 1.456 1.379 5.359 3.5 7.133 2.121 1.775 4.135 3.046 4.984 3.046.848 0-2.035 1.909-.965 2.122 1.07.212 2.661.847 2.661 1.696 0 .85-14.633 1.273-20.891.001zm22.164-7.635c-.848.318-4.137-.115-3.924-1.595.213-1.481-.318-7.314 1.592-5.51.393.371.211 3.92 1.166 4.558.954.638 2.013 2.23 1.166 2.547zm.742-8.349c1.592-2.149 2.018-4.259 3.182-3.845.899.318 3.605 1.908 3.818 2.755.211.85-1.061.637-.85 1.38.213.742.543 1.325-.742 1.961-1.284.637-2.969.054-3.605-.052-.637-.106-.954 2.015-1.484 1.591s-1.91-1.642-.319-3.79zm-3.182-19.54c-.211-1.062 2.651-.531 4.561-.531 1.852 0 2.969-.954 4.879-1.378 1.908-.425 2.862-.743 2.65.689-.213 1.432-3.152 2.173-3.75 2.492-.598.318 1.205 2.652 1.1 4.03-.107 1.379-2.863 2.545-3.289 1.591-.424-.954-1.908-4.782-2.438-4.406-.531.376-2.758 2.815-3.605 2.285-.85-.53-.849-1.802 0-2.757.847-.955.105-.955-.108-2.015zm12.726 19.513c.257-.925 1.272 1.801 1.591 2.861s.849 3.075 0 2.863c-.848-.211-3.461 1.028-1.591-5.724zm-5.939 5.74c-1.332-1.511 3.123-.726 3.418 0 .294.727-1.72 1.925-3.418 0zm9.545 4.561c-3.395 1.787-15.271 2.138-12.619 0 .764-.616 6.893-.032 9.225-1.827 2.334-1.795 6.363-6.46 7-6.46.636 0-.213 6.501-3.606 8.287zm13.664-24.41c-.969 1.681-7.02.337-6.684 3.025.336 2.689 7.988.673 6.684 2.353s-2.313 5.377-7.691 5.377-10.083-5.042-9.411-6.722c.673-1.681 4.253-7.731 2.462-10.42-1.789-2.688-8.512-5.067-9.856-3.71s-8.13 3.71-8.603 7.744c-.473 4.033 5.241 4.706 6.922 6.386 1.681 1.68-1.406 6.722-6.922 6.722-5.515 0-10.221-2.689-10.221-2.689s2.354-1.68 2.354-3.024-5.041-2.017-5.041-2.017-5.715-.336-3.025-1.681c2.688-1.344 4.033-.336 5.713-1.344 1.682-1.008 2.018-4.705 2.018-4.705s-6.723-4.059-5.378-5.391c1.345-1.332 13.444-2.981 15.798-5.686 2.043-2.35 3.361-15.813 6.386-15.141 3.024.672 4.37 10.787 9.411 15.141 5.042 4.354 12.437 7.379 12.437 8.388 0 1.008-8.403 2.016-8.403 3.36 0 1.345 2.689 2.689 2.689 2.689s5.298-3.025 8.363-1.681c3.063 1.346.967 1.346-.002 3.026zm5.754-19.108c-.674 5.328-7.395 3.142-5.379-3.328.459-1.472 6.051-2 5.379 3.328z"/>
  </g>
</svg>
