<svg xmlns="http://www.w3.org/2000/svg" width="200" height="200" viewBox="-10 -80 365 365" preserveAspectRatio="xMidYMin slice">
  <path d="M131.294 161.534c.497-.135 2.348.045 2.483-1.084s-.903-.813-1.264-.993c-.361-.181-4.877.316-5.554.271s-4.921 3.477-5.372 4.695c-.452 1.219-3.342 3.928-3.566 4.244-.227.316-4.289 3.16-4.65 3.16s-1.716-1.219-2.077-1.31-1.941 2.122-3.296 2.8c-1.288.645-4.199 1.363-6.501 1.309-2.159-.052-7.901-1.58-8.397-2.031s0-1.174.768-1.625 1.896-2.303 1.852-2.032 1.264 1.174 3.476.723 2.438-2.303 1.851-3.024c-.586-.722-.677-1.265.136-1.354s9.481-.452 10.474-1.13c.994-.678 4.967-1.58 4.967-1.851s.181-1.038.045-1.31c-.135-.271 0-.361.678-.541.676-.18 5.598-4.561 4.695-5.328-.904-.768-3.07 1.084-3.761 2.167s-1.567 1.807-2.063 2.077-.632 1.625-.768 1.806-.678.045-1.084-.181-5.011.813-5.146.542.136-.993.542-1.354 3.16-2.122 4.38-3.521c1.219-1.399 2.934-5.598 3.746-9.887s.136-9.121 0-8.896c-.135.226-2.799 3.883-2.979 4.921-.181 1.038-5.689 8.759-6.051 9.029-.36.271-2.618.768-2.573-.09s-1.851-3.657-2.122-3.566c-.271.091-1.444 1.038-1.986 2.212s-3.928 4.605-6.004 4.966c-2.077.36-4.877-2.979-4.877-2.979s1.987-.632 3.387-1.399 4.74-4.515 5.012-5.191c.271-.677 2.257-2.89 1.896-3.115s-3.476.406-3.702.36c-.225-.046-.361-.813-.271-1.174s4.153-3.25 5.778-4.108c1.626-.858 7.758-5.056 7.54-5.281-1.464-1.521-9.346-1.31-11.276-.979-1.615.276-4.906 2.091-7.012 3.099-.938.448-2.523.635-4.961 3.027s-4.785 8.081-4.921 8.308-1.31.271-1.535-.046-.271-1.534-.632-2.799.181-9.661.135-10.79c-.045-1.129.994-5.057 1.445-5.282s.993.045 1.58-.136 1.084-1.851 1.309-2.438c.227-.587 1.581-2.845.361-3.566-1.219-.722-4.018 1.309-4.243 1.941s.045 3.386-.136 3.656-1.49-.226-1.535-.09-.271 4.018-.135 5.282c.135 1.265-.316 7.585-.542 8.353s-1.489 4.018-1.489 4.334-.994 1.083-1.174 1.083c-.182 0-.633-.993-2.213.452s-.406 4.469-.723 4.649c-.315.181-4.243 5.192-4.469 5.418s-1.174.316-1.49-.813-2.122-3.16-1.986-3.341 2.889-10.294 3.25-11.965 2.619-5.688 2.619-6.23-1.264-1.083-1.444-1.218.045-2.213.135-2.754 1.309-3.341 1.806-6.908c.496-3.567-.542-7.088-2.618-9.525s-5.282-2.619-4.966-1.986 2.122 4.063 2.122 4.83-2.935.497-3.341.542.181 2.348.497 2.709 2.257-1.038 4.153-.632 2.302 2.845 2.483 3.567-.135 4.966-.768 5.778-2.212 5.012-2.347 5.418-2.844-.361-3.07-.406-.723 1.084-.723 1.671 1.806 2.212 2.212 2.979-.045 5.372-.226 7.224-2.979 7.224-3.024 7.585.993 1.265 1.309 1.671 1.987 4.018 1.219 4.604-3.883 5.463-4.154 5.554-1.806.677-2.167.587-1.038-3.115-1.038-3.838-1.67-2.212-2.935-2.664-5.733 0-8.081.361-6.591.09-7.223.045-6.366 1.761-6.817 2.212-5.824.181-6.591.497-4.831-1.31-6.095-1.58-5.733 4.153-5.779 4.515 1.67 1.535 1.987 1.67.767-.677 1.67-1.851 1.174-.678.768.09-.497 3.16-.136 2.8 2.89-.678 3.25-1.084 2.799-1.625 3.702-1.716 6.772-.948 7.855-.722-.18 3.16.361 3.205 3.296-3.566 3.928-3.657.858 1.941 1.264 2.167 2.303-.181 2.528-.587 1.354-1.625 2.393-1.534 8.397-.542 8.939-.407 1.49 6.456 1.038 6.772-7.494 8.262-7.765 8.487-3.16-.677-3.702-.632-7.359 6.456-8.668 7.675-6.592 2.527-7.72 2.708-5.147-.857-5.327-.587 2.573 1.896 2.708 2.212-1.941 1.49-2.302 1.716-5.057-.361-6.592-.406-7.584-.181-7.946-.091-2.889-.722-3.206-.587.587 1.716.361 1.896-2.935 2.438-3.07 2.709 1.174 1.535 1.67 1.535.768-.406 1.941-1.399 2.979-1.399 2.799-1.084-1.49 3.115-1.625 3.793 2.845-.635 3.205-.86 1.31-2.844 1.851-3.16 4.018.045 4.876.271 5.508.271 6.456.452 2.121 2.709 2.437 2.257 1.129-1.716 1.4-2.303 3.341-2.438 3.882-2.302 2.393-.858 3.657-1.716 6.23-6.005 7.088-6.637 3.341-.768 3.341-.768-1.941 3.205-2.754 4.063-4.424 7.947-6.637 11.107-2.303 9.887-1.535 14.267 5.146 5.868 9.436 6.185 5.869.181 11.287-1.896 10.79-7.539 10.971-7.269 2.438.633 3.025.769 3.521.406 4.966.993c1.444.587.091 3.205.091 4.018s-1.49 6.05-2.123 8.442-2.348 3.341-2.483 3.702-3.476 3.16-3.521 3.431 2.348-.632 3.386.271-1.128 2.347-1.49 3.747-3.702 6.862-4.289 6.907-.497-1.129-.542-1.265-2.708.903-3.792 2.077-4.063.723-3.928 1.716 1.399 1.806 1.896 1.896 4.018-2.483 4.921-2.98 1.445.723 1.49.948-1.986 1.896-2.708 2.483-.316 1.399 0 1.535 3.702-2.754 4.153-3.206 2.212-2.438 3.657-5.778 3.476-6.411 3.566-6.862 1.128.182 1.309-.36.181-5.643.181-6.275 1.444-5.236 1.761-6.32 2.618-7.089 2.754-9.302c.135-2.213-1.039-2.935-2.122-3.024s-4.515-.993-4.244-1.354 5.057-7.539 5.644-8.307 5.282-8.308 5.508-8.488.226.091 3.838.542c3.611.451 2.303 1.535 4.063 2.618s.813 7.495.813 7.946-1.444 1.806-1.896 2.167c-.451.361-.225 2.573-.722 3.296s-4.108 3.836-4.108 3.836.542.226.857 0c.316-.226 2.891-1.671 4.019.135s.091 3.612.091 3.838.451-.632.813.948c.36 1.58-1.941 5.644-3.16 7.63-1.22 1.986-5.328 4.921-5.599 5.011s.813 1.671.993 1.896 1.354-.542 1.67-.768c.316-.226 1.039-.09 1.084.678s-1.67 3.566-1.806 4.063.361.903.768.678 2.528-1.49 3.069-1.806c.542-.315 2.574-5.417 2.303-4.966s-1.084.451-.902 0c.18-.451.677-4.695.723-5.418.045-.723.947-2.483 1.128-2.799s1.083-4.244 1.083-4.786 1.129-4.786 1.129-5.282 1.219-.948 1.761-1.987.091-1.309-.36-1.896.631-5.282.767-5.96.993-5.325.948-6.996-2.031-4.515-3.07-4.56c-1.037-.045-7.811-2.483-7.224-2.483s1.896-1.896 3.477-2.663 2.89-3.702 4.425-4.244c1.534-.542 7.72.542 9.391.632 1.67.09 8.893 1.807 9.074 1.174.18-.633 1.264-2.031 1.76-3.341.497-1.31 1.987-1.716 2.032-1.941s-.452-.496-.813-.722-.271-.813 1.038-.858 8.353-5.869 9.301-6.862c.947-.993 3.205-1.264 3.747-1.174s3.114 1.038 3.431 1.399 1.535-.722 1.535-1.264-2.303-1.399-2.348-1.806.852-.859 1.349-.993zM97.48 159.23c.36-.361 2.482-2.303 3.205-3.296s1.896-2.076 2.121-1.896c.227.181.516 3.021.994 2.844.254-.094 5.688-2.618 6.275-2.618.586 0-.813 3.747-4.063 5.282-2.931 1.384-5.857 1.624-7.54 1.806-.406.044-1.353-1.761-.992-2.122zm-6.14-19.865c3.566-2.979 6.682-3.793 7.63-3.928 0 0-4.153 3.612-4.695 4.019s-2.527 2.936-2.438 3.251 2.076 1.625 2.528 1.67c.451.045 1.535 0 2.167 0s-3.973 2.618-4.108 3.16-2.348 2.167-2.754 2.303-2.754-1.805-2.754-2.031.857-5.465 4.424-8.444zm-52.957 60.768c2.212-5.598 9.3-14.402 10.7-16.344s7.68-10.926 8.941-10.79 5.009.361 5.28 1.806.815 3.93.633 4.922c-.102.557-7.404 10.52-8.578 11.106s-6.23 8.805-7.901 10.294-7.675 8.306-8.804 8.622-2.484-4.018-.271-9.616zm36.523-15.17c-.18 1.083-3.791 9.12-6.365 12.461s-5.011 9.571-9.887 11.738-7.043 4.153-12.1 4.289-5.914-.722-5.327-1.264 8.126-9.255 8.487-9.752 9.255-10.972 9.797-11.468 5.687-7.357 6.275-7.765 2.8-.182 4.154-.858 4.298-2.439 4.745-.994c.152.493-.221 1.626 0 1.896s.403.634.221 1.717zm-7.268-9.3c.361.09 1.069.214 1.49.587.528.468 1.715 1.037 1.58 1.67s-2.175 1.549-3.25.858c-.563-.361-.181-3.205.18-3.115zm16.751-.858c-.678.181-4.426.542-4.922.542s-6.727-3.611-8.487-4.604-5.238-3.07-5.192-3.432 1.941-5.102 3.612-5.146 8.804.406 10.068 1.399c1.084.852 3.342.993 3.748 2.979s1.128 1.444 1.398 1.761c.271.316.045 2.076 1.31 2.979s-.859 3.342-1.535 3.522zm4.152-8.713c-.902-.181-4.469-5.237-6.094-6.411-1.626-1.174-7.27-3.431-7.721-3.386s2.98-5.101 5.373-4.966 4.92.496 7.449 2.889c.766.725 2.121 2.8 3.25 3.657s1.986 2.799 2.573 2.799-.315 2.98-.813 3.612-3.114 1.987-4.017 1.806z"/>
  <path d="M105.672 194.354c.287-.005 6.23-.127 6.422 0 .19.127 1.271 1.62 1.334 1.938.064.318-1.525 7.278-1.525 7.883s-1.049 5.468-1.43 5.754c-.382.286-10.172.445-10.49.413-.317-.032.096-5.15.223-5.118s4.546.192 5.277.414c.73.222 2.764-.001 2.797-.191.031-.19.254-5.531-.445-5.785s-3.782-.508-4.672-.444c-.891.063-3.287 0-3.297-.223s.848-4.737.976-4.832 3.652.211 4.83.191zm14.336.953c.494.096 5.404.922 5.658.763s.35 2.129.35 3.369-.922 7.312-3.465 9.123-4.354 1.471-4.99 1.784-2.098-2.769-1.971-2.801 1.908-.51 2.098-.7c.191-.19 3.369-1.97 3.974-3.433.126-.307.254-3.593-.255-3.624-.508-.031-1.334-.222-1.525.032-.19.254-1.971 3.592-3.115 3.528s-2.416-1.334-2.384-1.589 1.495-2.639 1.685-3.434c.191-.795.858-3.465 1.049-3.751.19-.284 1.623.488 2.891.733zm13.699-.349c.512.024 6.993.158 7.311.444.318.286-.127 6.135-.604 8.392s-1.589 6.421-5.563 8.773-6.803 1.589-7.438 1.271c-.637-.317 1.088-1.395.984-3.242-.031-.572 6.23-.762 7.565-5.117s1.112-6.835 1.017-6.898c-.095-.063-4.895 0-4.895.286s.413 2.894.318 3.211c-.096.317-3.021.222-3.115.031-.096-.19-1.398-6.739-1.844-6.993s5.5-.195 6.264-.158zM349.552 64.719c-.243-.973-4.011 0-4.74.365s-8.75 6.319-10.573 6.928-13.49 4.253-14.463 4.375-1.337-1.702-1.337-1.702-2.553-.121-3.646.486-10.209.486-14.948-.851-5.471-4.861-5.592-3.646-6.807 3.768-8.387 4.983-5.833-.607-7.656-2.553-8.265-3.768-8.508-4.253 2.31-3.16 4.375-5.956 4.376-2.674 5.227-2.916 4.254 2.431 6.198 3.038 2.066-1.459 2.066-2.066-2.796-1.458-2.796-2.188 4.254 0 4.861.121 2.31-2.188 2.31-2.188-.851-.607-2.066-1.337-5.469-1.094-6.198 0-6.198 1.337-7.535 2.31-9.602 9.723-10.695 8.872-7.778-1.58-9.479-1.216-4.618-5.59-4.618-5.59-6.545-6.745-7.778-7.171c-2.071-.715-9.724 3.038-10.695 4.74s-3.039 13.368-3.039 13.368-3.038-3.889-5.955-4.618c-1.676-.419-4.739-1.58-5.347-2.31s2.31-4.497 2.31-5.469-1.702-2.553-3.89-3.282-4.861-5.833-5.955-7.656-1.458-5.591-1.458-5.591 0 1.094-1.58.486-1.823-2.553-1.945-5.348-1.337-3.768-1.822-3.89-.243 1.823-1.702 1.094-4.375-14.098-4.739-14.705-.365-7.657-.365-8.387 4.133-.607 5.104-.729.729-2.066.729-3.039-3.281.122-3.281-.972.851-1.337 1.337-1.823 2.552-.486 2.431-2.917S200.552.3 200.552.3s-5.834 4.983-6.685 5.956-.243 8.507.243 12.396 4.983 19.326 4.983 19.326-2.916 1.944-2.431 1.701 4.133 3.403 4.254 4.011 6.807 10.331 9.358 12.883 4.497 6.441 3.768 6.928-1.337 2.431-2.188 3.16-3.281-3.768-3.524-4.375-4.861-3.403-5.955-3.646-5.591-2.309-7.292-1.58-7.292 1.459-7.171.243-.607-4.132-3.403-2.795c-1.961.938-1.701 2.674-1.58 3.281s-1.215 2.795-1.576 2.674-2.191-3.038-2.556-3.403 2.674-3.889 2.552-5.104 0-12.518 0-13.977-3.402-9.115-4.132-9.723-9.845-1.823-9.845-.729-.729 2.674 2.066 3.16 5.104 1.58 5.104 1.944-3.038.973-3.768.729-.729 1.215-.607 1.571 3.159.13 3.768.009.851 1.094.729 1.823-4.011 1.094-4.739 1.094-.365 2.674-.365 2.674 1.459 0 1.823.243 4.497-1.337 5.104-.729 1.577 6.076 1.459 10.938-2.674 6.077-1.58 7.041.972 3.533.972 4.141-1.58.973-2.431 2.553-1.823 7.899-1.823 7.899-3.889-.729-5.469-.972-7.778 2.916-7.778 2.916-6.806-4.618-13.247-3.768c-4.593.606-7.293 4.133-7.778 4.376s-3.646-.365-4.497-.486-2.917 3.281-4.375 3.403 0-2.432-.122-3.525-6.563 1.823-6.563 1.823-1.945-.243 1.58-3.646 12.153-5.591 13.247-6.077 14.584-2.674 19.811-3.768 13.612 1.944 13.612 1.944.729-3.281.729-3.889-14.584-2.796-19.445-2.917-14.706 1.094-14.706 1.094-3.52.849-8.867 4.98-12.64 10.939-12.883 12.155-1.823 6.563-1.944 7.778 2.795.364 3.646-1.216 5.227-3.646 6.563-3.281 1.094 5.469.486 6.441 2.309.243 3.038.121.973-2.188 1.823-3.402 3.768-2.188 5.712-2.674 1.823 2.917 1.823 2.917l3.16.243s2.188-1.58 3.402-3.89 4.861-4.011 7.414-3.646 3.524 3.282 2.917 4.74-2.431 3.89-2.674 4.618 7.414-.364 7.414-.364 2.674-2.553 3.889-4.497 4.375-5.712 5.834-4.739 2.552 4.739 2.066 6.198-1.58 6.198-2.066 8.977-2.431 2.447-4.011 2.204-5.712-3.889-5.712-3.889-.486.364-2.188 2.674-6.076 6.076-8.264 6.928-8.144-3.646-8.144-3.646-1.701 4.132-3.16 5.591-3.402 1.215-4.375-.607-1.215-1.094-2.066.364-1.215 3.89-5.833 1.58c-2.858-1.43-7.535-7.535-8.021-7.414s-1.094 8.265-1.094 8.265 4.011 8.143 9.115 10.573 14.098 4.74 22.605 2.188 17.987-8.994 18.96-9.237 4.982 1.216 5.348 1.337-5.104 14.099-5.47 14.949-1.337.729-2.309.729-1.094-2.431-1.459-3.282-1.458-.851-2.431-.364.364 3.89-.851 4.74-1.701-3.282-1.701-4.011-1.702-.729-2.553-.486.364 2.674-.121 4.011-1.216.607-2.066.607-.364-4.375-.364-4.375-3.89-.486-4.133.851 1.58 7.171 3.281 7.292 16.529-2.674 17.016-3.402 6.441-14.706 6.563-15.071 1.945-1.094 1.337-.121 1.823 3.768 4.74 3.646c4.985-.209 4.011-4.132 4.74-3.402s7.413 1.337 8.75 1.337 4.772 1.52 4.618 2.431c-.445 2.628-1.822 1.094-1.944 1.944s-7.535 5.348-10.816 7.9-8.265 1.579-10.452 3.281-8.265 3.646-9.845 4.618-10.816.121-12.032.121-9.115.852-9.966 1.095-4.011 4.739-4.497 5.955 1.945 3.524 2.31 1.944 4.74-5.227 4.254-4.375-.364 2.065-.729 3.038 3.646.607 3.646.243.121-2.553 1.215-3.646 3.89-2.309 4.983-2.309 3.889.243 7.535 0 11.06-2.31 11.425-3.039 1.822-.607 2.188.973-.608 3.403-.608 3.403 1.216-.365 1.58-.365 2.31-.972 2.31-1.822 1.094-1.216 2.795.242 6.077 1.337 5.227.608-1.58-3.039-.729-2.917 13.243-8.509 14.702-9.724 4.011-4.74 6.685-4.497 7.413-.486 10.087-1.215 4.133-4.861 4.861-3.16 4.376 2.552 4.983 2.917.607 2.674.607 2.674-2.188-.122-3.403.121-7.049 2.674-7.778 3.524-1.215 2.917-1.215 3.89 3.524 3.889 5.348 5.348 8.386 8.386 10.087 10.452 3.89 6.806 3.89 6.806.851-2.31 1.215-3.038 2.432 1.944 4.011 2.795 6.685 8.629 7.657 9.966 1.337 9.115 2.552 8.751 5.713 2.674 6.32 2.431 1.337-1.337 1.458-2.31-3.524-2.674-3.646-3.524 3.646-.364 4.011-1.094-.607-4.497-.607-4.497 0 1.945-4.011 1.216-6.077-6.441-6.685-7.049-5.47-6.928-6.077-8.021.607-1.216.607-1.702-1.58-1.337-2.795-2.552 2.431-5.469 2.431-5.469-1.944 1.094-2.553.972 1.094-3.403.365-2.674-5.104 1.459-5.955 1.459-4.983-4.254-5.47-4.983-5.104-4.011-5.104-4.74 3.281-1.215 5.47-1.458 8.264-2.066 8.264-2.066 3.403 1.58 7.535 3.281 12.762 4.619 12.762 5.591-1.458 2.796-2.552 4.011 1.336 2.553 2.795 4.861 5.469 4.011 7.171 4.497 11.424 4.133 15.07 8.751 4.132 7.413 4.861 7.171 1.337-1.702 2.188-.973 8.994 14.827 10.452 15.921 7.657 3.767 8.021 3.646 2.674-1.458 2.674-2.066-.243-1.944-.851-1.944-2.796.243-3.524 0 2.552-2.31 2.552-2.31l-1.823-3.402s-1.094.485-2.188 1.458-2.795.121-3.646 0-8.387-11.546-9.237-12.519.972-4.739.972-4.739-1.944.973-3.038-2.674 1.58-6.806 0-5.104-8.751-2.065-9.845-3.159-10.33-4.133-10.938-4.862 2.917-2.552 2.917-2.552 3.257 1.222 13.24 3.2c12.883 2.553 25.408-14.26 25.651-20.703.119-3.167 1.944-6.928-2.796-15.921s-12.396-16.164-13.247-17.016.851-3.038 1.58-4.618 7.17 1.944 10.087 2.066 5.104 5.469 5.348 4.568 2.553-2.745 4.133-2.502 3.524 1.701 3.768 2.431 3.281-4.382 3.281-5.348 4.74-1.337 6.198-1.58 12.64-4.133 14.463-4.375 2.674 1.094 2.917 1.458 2.309-.851 2.309-1.944-2.065-1.58-2.065-2.431 5.469-2.31 6.076-2.553-1.221-1.94-1.464-2.912zm-188.133 38.648c-1.337 0-7.657 2.554-9.115 3.282s-8.386 3.523-11.546 3.646-5.59 1.215-6.563 1.337-6.147-1.914-5.227-3.768c.454-.914 3.89-.607 4.983-1.094s2.309 1.216 4.375.973 4.375-4.497 4.861-4.497 2.31 1.459 4.983.486 5.712-1.338 7.292-2.796 3.522-4.98 5.226-3.889c1.167.748 6.076 2.916 7.778 2.795s-5.71 3.525-7.047 3.525zm39.378-8.263c-.364 4.739-4.375 6.44-12.153 8.264s-9.359.73-9.724.608-3.523-2.674-2.916-4.011 6.928-14.947 7.778-17.136-.608-9.481-.608-11.669-.606-2.917.122-3.524 2.917-5.104 4.861-4.861 4.983 0 5.834-.851c.863-.863 7.656-1.58 8.143 0s1.579 5.348 1.701 6.685-1.579 3.038-1.701 5.226-1.817 3.403-3.218 4.74-1.644 3.768-1.644 4.254 3.889 7.535 3.525 12.275zM221.701 75.9c-.122.973-1.57 8.387-2.608 13.855s1.688 11.705-.916 15.191c-2.73 3.654-2.318 6.225-11.182 4.011-1.458-.364-6.076-.485-5.226-2.795s3.524-2.188 4.618-6.807.243-10.209-.851-13.004-2.541-4.375-1.696-5.104 5.463-3.281 5.949-5.104 1.365-4.133 1.898-4.74 3.889-1.597 4.786-1.337c.596.173 4.254 1.824 4.254 4.133s1.096.729.974 1.701zm10.17 2.31c-.813 3.281-4.095 9.545-3.973 10.181s-.85 1.973-.729 4.646-.993 8.993-.011 10.452-4.364-3.815-3.757-6.647.486-10.247 1.944-13.163 2.188-7.835 3.038-7.807 1.216-.458 2.066.271c.655.56 2.235-1.214 1.422 2.067zm10.247-17.222c1.916.396 4.983 2.15 5.834 3.366s1.215 2.309 0 2.188-5.227-.104-5.834.009-2.064 3.915-2.916 3.473-2.797-10.214 2.916-9.036zm-7.656 35.854c-.607 1.057-.607-3.352 0-7.103s1.944-5.452 1.944-5.452c0 .972.64 3.978 1.778 5.452s1.867 2.325 1.26 3.055-4.375 2.991-4.982 4.048zm61.254 0c3.403 4.703 7.535 14.548 6.928 17.222s-3.89 9.966-6.928 12.153-5.128 5.119-27.832-2.31c-15.369-5.028-14.462-5.834-20.053-8.021s-9.236-5.347-10.452-7.413 1.58-7.9 3.038-9.237 2.674-2.673 6.685-1.215 14.949 4.146 18.474 5.719 12.761 5.583 14.827 7.042 13.368 6.563 13.733 6.32-1.094-6.684-6.806-9.479-9.479-4.133-13.247-5.834-11.911-5.712-14.949-6.198-9.724-2.432-11.182-3.039-5.348-8.521-5.348-9.851.73-5.098 1.702-5.584 9.882-1.606 16.894 0c4.021.922 12.032 2.296 17.744 5.584s13.369 9.438 16.772 14.141z"/>
  <path d="M180.279 151.721c.878.635 6.827 3.576 7.478 3.685s-1.95 4.118-2.601 4.335-3.686 1.192-4.877.867-6.394-5.419-6.394-5.961 1.41-5.852 2.168-5.526 3.218 1.87 4.226 2.6zm-3.467 10.728c.81.329 5.527 2.601 5.853 3.793s.759 3.468 0 3.793-6.719-.868-7.694-1.409-4.117-6.828-3.034-7.478 3.277.653 4.875 1.301zm.586 9.645c.576.628 6.023 5.635 6.24 6.178.217.541-2.816.758-4.009 1.082-1.192.326-3.686-1.41-5.744-3.631-2.059-2.22-1.313-2.546-2.174-3.196s-.981-2.598 0-2.437 4.57.787 5.687 2.004zm18.92-17.204c.65-.243 3.034-.19 3.468 0s.977 5.415 1.626 5.783 4.985-.824 7.261-.607 3.035.866 3.793 2.275.975 2.263.541 3.19-7.261 5.263-7.261 5.263-3.359-1.95-3.034-2.492 3.468-2.709 3.359-3.793-5.852 1.083-5.743 1.625 3.685 10.457 3.901 10.646c.217.191-2.384 1.709-3.359 1.6-.976-.107-3.793-10.294-4.552-10.945s-4.552.65-5.094.217-3.359-4.877-2.492-5.636 5.635.758 5.743-.542-2.167-6.991-1.3-6.584 3.143 0 3.143 0zm27.417 4.525c1.079-.101 7.152-.76 7.694-1.409s3.251 2.492 3.359 4.443-4.984 5.743-5.093 6.068-2.71 1.952-2.276 2.818 4.351 3.684 4.451 4.659c.101.977-3.367 2.83-3.584 2.391s-8.886-7.7-9.645-7.7.218-4.01.759-3.359 2.71 1.842 3.468 1.625 4.551-3.575 4.984-5.093-4.335 0-6.61-.217-2.059 1.192-3.359.542-2.168-4.443-1.301-4.335 4.89-.223 7.153-.433z"/>
</svg>
