<?xml version="1.0" encoding="utf-8"?>
<svg version="1.1" id="レイヤー_1" xmlns="http://www.w3.org/2000/svg" xmlns:xlink="http://www.w3.org/1999/xlink" x="0px"
	 y="0px" width="200" height="200" viewBox="0 -70 266 330" enable-background="new 0 0 266.548 290.342"
	 xml:space="preserve">
<g>
	<g>
		<g>
			<path d="M162.633,55.122c5.024-6.459,1.436-10.048,0-15.431s-14.354-12.56-19.02-12.919c-4.666-0.359-10.472,2.704-14.354,4.306
				c-4.233,1.747-12.919,13.637-12.202,19.02s12.56,13.278,21.532,14.354S157.608,61.581,162.633,55.122z M138.589,58.352
				c-10.048-1.794-13.996-5.072-13.996-11.687s14.94-15.157,20.456-12.093c4.393,2.44,8.254,6.195,10.406,13.731
				C157.608,55.839,148.637,60.146,138.589,58.352z"/>
			<path d="M216.82,56.916c-2.153-2.512-7.536-11.842-9.33-15.072s-8.908-6.564-11.842-7.914
				c-7.354-3.383-17.585,5.402-17.227,15.45c0.359,10.048,11.125,16.867,17.227,20.706c6.101,3.839,12.918-0.969,15.43-2.045
				S218.974,59.428,216.82,56.916z M197.865,64.628c-7.601-1.612-15.496-8.43-14.061-15.966s9.102-12.201,14.061-9.33
				c1.074,0.622,2.807,0,4.959,2.871c2.154,2.871,7.178,14.447,7.896,16.554S205.466,66.24,197.865,64.628z"/>
			<path d="M158.326,64.925c-6.459,1.909-8.613,12.087-2.549,13.164s9.008-3.23,9.443-6.54
				C165.654,68.239,161.859,63.881,158.326,64.925z M155.777,71.549c-0.746-4.65,2.946-1.463,2.946-1.463
				c1.756-0.969,2.29,1.586,2.474,4.414S156.525,76.199,155.777,71.549z"/>
			<path d="M176.27,67.323c-3.139-0.715-7.895,3.947-8.254,5.205s2.152,7.904,8.254,7.714c6.1-0.19,8.612-4.307,7.365-7.714
				S179.785,68.125,176.27,67.323z M178.413,76.037c-3.938,0.617-6.702-1.752-2.449-5.951
				C179.111,66.979,182.352,75.42,178.413,76.037z"/>
		</g>
		<g>
			<path d="M9.041,34.667c0,0.026,0.056-0.012,0.15-0.095C9.094,34.611,9.041,34.644,9.041,34.667z"/>
			<path d="M286.439,69.835c-3.239-2.016-6.818-8.254-6.818-8.254l12.201,2.153c0,0-7.536-6.818-10.407-10.766
				s-13.277-9.689-18.66-11.843s-7.536-1.435-10.766-0.358s-24.044,5.383-24.044,5.383s-1.477-4.307-6.459-10.407
				c-3.532-4.323-13.996-17.745-29.786-25.479c-19.274-9.441-45.935-12.202-68.542-8.972C100.549,4.523,72.2,19.236,72.2,19.236
				s-8.613-6.101-13.278-9.689c-10.14-7.8-25.12-6.459-34.451-3.588C14.649,8.98,3.658,21.03,6.292,21.389s14.95-1.435,14.95-1.435
				l-2.512,4.306c0,0-8.331,9.257-9.539,10.312c1.413-0.577,12.41-2.776,12.41-2.776s-1.436,3.229-1.436,5.383
				s-3.947,7.895-3.947,7.895s12.201-3.948,17.584-7.536s7.177-11.842,8.972-11.842s7.895,6.459,7.895,6.459
				s-12.56,14.713-16.148,19.02S19.447,70.912,11.193,94.955c-8.254,24.043-3.588,45.217-3.588,45.217s2.912-9.646,12.712-28.107
				c8.12-15.297,31.428-18.904,36.811-18.904s26.556,6.459,47.37,21.89c20.814,15.432,45.935,16.867,68.901,10.767
				s28.35-21.532,28.35-21.532l-9.689,1.436l-1.436-5.742c0,0,13.637-2.871,19.02-4.307s13.278-7.177,16.826-16.148
				c3.549-8.971,3.828-17.208,3.828-17.208s13.797-3.606,16.309-2.17s13.637,13.278,20.455,17.584s15.79,2.871,15.79,2.871
				s-1.436-0.718-4.307-3.948s-4.306-6.818-4.306-6.818S288.233,70.952,286.439,69.835z M210.002,84.189
				c-10.048,7.177-22.967,9.689-22.967,9.689l-10.049-11.484l-3.588,11.484c0,0-8.972,0-14.354,0s-15.072,0-15.072,0l-2.512-15.431
				c0,0-6.101,6.101-9.331,6.101s-14.354-5.383-17.584-7.536s-8.613-6.926-8.613-6.926s-1.048,10.179,8.254,21.281
				c11.125,13.278,17.387,14.866,27.632,19.02c13.278,5.383,41.986,2.871,41.986,2.871s-11.125,7.895-26.914,7.895
				s-41.987-8.613-51.317-14.713S80.389,87.592,64.305,85.984c-21.531-2.153-42.345,12.201-42.345,12.201
				s6.459-29.068,19.378-43.063s13.278-15.79,13.278-15.79s6.459,3.947,6.818,5.383s5.383-4.665,5.383-4.665
				s-8.612-8.972-11.125-11.484s-11.483-9.689-13.278-8.612s-11.125,9.331-12.56,12.919s-2.871-2.153-2.871-2.153l-3.588-2.512
				l6.101-12.201l-9.331-3.588c0,0,11.842-6.101,25.12-1.436c9.726,3.417,20.097,12.919,22.967,15.431s10.407,10.766,10.407,10.766
				l6.459-3.229l-7.177-8.254c0,0,17.226-10.766,31.58-13.996s47.729-4.307,58.494-2.512s24.043,3.947,34.809,12.919
				c10.767,8.972,19.021,20.097,19.021,31.58S219.021,77.747,210.002,84.189z M185.24,107.276h-5.012v-8.015L185.24,107.276z
				 M172.322,101.056l-1.795,5.742c0,0-6.891,1.077-14.75,0c-7.857-1.077-11.806-3.529-11.806-3.529v-4.007
				c0,0,11.561,1.794,14.752,1.794S172.322,101.056,172.322,101.056z M136.077,89.572v11.483l-6.46-3.229L136.077,89.572z
				 M126.388,89.572l-1.794,5.742c0,0-7.261-4.665-7.578-8.971L126.388,89.572z M267.42,54.763l6.101,7.895h-8.972l4.665,5.742
				c0,0-7.178-3.23-12.919-7.177s-6.817-7.177-11.124-6.818s-15.79,1.436-15.79,1.436v-5.024c0,0,22.25-3.947,25.838-4.306
				s8.612,1.435,10.766,2.153s11.843,6.101,11.843,6.101H267.42z"/>
		</g>
	</g>
	<path d="M61.434,105.362c2.723-0.908,3.588,1.436,4.306,5.024s-3.947,4.307-6.459,3.23
		C56.769,112.54,52.822,108.233,61.434,105.362z"/>
	<path d="M80.454,118.281c3.236-0.295,3.588,2.871,3.588,4.665s-0.718,4.307-6.101,3.229
		C72.559,125.1,72.559,118.999,80.454,118.281z"/>
	<path d="M44.926,118.262c2.465-1.52,7.536,1.336,7.536,4.087s-4.666,5.423-7.536,4.087S37.39,122.908,44.926,118.262z"/>
	<path d="M22.677,138.736c3.736,0.271,5.383,1.794,5.383,3.947s-0.358,7.535-5.383,5.383S19.343,138.494,22.677,138.736z"/>
	<path d="M5.895,157.038c2.797,1.607,5.299,5.383,3.146,7.177c-2.153,1.795-5.383,9.331-8.254,0
		C-2.084,154.885,3.659,155.754,5.895,157.038z"/>
	<path d="M19.511,177.852c3.077,0.748,6.459,2.154,4.274,6.102s-10.439,4.664-9.362,0C15.5,179.287,16.429,177.104,19.511,177.852z"
		/>
	<path d="M5.895,199.742c3.642-1.287,7.283,2.512,3.958,8.254S-7.298,204.408,5.895,199.742z"/>
	<path d="M37.749,209.808c2.715-1.783,9.33,4.648,5.742,7.519C39.902,220.197,27.342,216.643,37.749,209.808z"/>
	<path d="M14.327,224.863c1.503-0.293,6.829,3.229,5.077,6.818c-1.751,3.588-14.143,5.383-13.509,0S10.643,225.58,14.327,224.863z"
		/>
	<path d="M44.533,232.758c2.099-0.619,11.025,9.33,2.121,10.766S34.809,235.629,44.533,232.758z"/>
	<path d="M67.894,218.326c3.272-0.364,8.613,2.914,0,6.52S58.922,219.326,67.894,218.326z"/>
	<path d="M89.425,229.962c3.242,0.961,5.024,0.978,4.665,5.116s-8.254,7.85-10.048,3.123S87.579,229.414,89.425,229.962z"/>
	<path d="M91.937,204.649c2.924-0.235,7.536-0.823,7.177,4.851s-7.854,7.827-10.207,2.443
		C86.554,206.561,88.653,204.913,91.937,204.649z"/>
	<path d="M113.469,220.557c2.533,0.149,6.459,0.566,6.459,5.128s-6.819,9.636-10.048,4.228S110.641,220.389,113.469,220.557z"/>
	<path d="M127.105,202.973c2.521,1.053,5.383-0.325,4.665,6.835s-12.201,1.196-11.842-0.308S123.006,201.26,127.105,202.973z"/>
	<path d="M136.794,180.363c2.848,1.135,6.852,1.436,4.323,8.613c-2.528,7.178-12.217,1.088-12.217-1.789
		C128.9,184.312,133.471,179.041,136.794,180.363z"/>
	<path d="M119.928,156.253c4.415-0.274,7.281,0.426,5.973,4.732s-8.928,3.589-8.886,0S116.392,156.473,119.928,156.253z"/>
	<path d="M148.859,156.201c3.664,0.683,5.455,0.311,3.334,7.751s-7.146,2.978-8.58-1.431
		C142.178,158.115,145.479,155.57,148.859,156.201z"/>
	<path d="M110.957,135.147c3.902-0.937,7.536,6.594,1.436,8.501C106.292,145.555,101.985,137.301,110.957,135.147z"/>
	<path d="M56.16,132.277c-4.557-2.512-22.452,0-22.452,0l3.324,27.799l9.622-1.961l-2.121-7.537c0,0,14.03,0.359,16.766-5.023
		S60.716,134.789,56.16,132.277z M44.533,143.932l-1.759-6.99c0,0,7.177-3.229,9.689,3.23S44.533,143.932,44.533,143.932z"/>
	<path d="M62.291,132.636h8.473c0,0,6.639,6.807,8.344,6.095s8.795-9.324,8.795-9.324h6.232c0,0,5.696,22.607,6.773,23.326
		c1.077,0.717,3.229,7.344,3.229,7.344H88.907l-2.712-18.11l-5.742,6.6l-7.897-3.824l1.617,13.015l-9.869,2.32
		c0,0,1.943-6.5,1.51-14.458S62.291,132.636,62.291,132.636z"/>
	<path d="M35.237,174.622c0,0,1.672-7.536,9.269-8.972s14.033,1.232,16.48,8.972c3.677,11.628-8.134,15.072-8.134,15.072h9.438
		l4.637,7.536H37.031l-1.794-10.043c0,0,7.581,2.01,12.762-4.74c5.181-6.748,3.073-9.979,0-8.902
		c-3.073,1.077-7.155,4.163-7.155,4.163L35.237,174.622z"/>
	<path d="M72.557,189.694c1.927-0.171,7-0.8,6.551,2.65s-7.985,8.833-8.703,4.886S68.917,190.016,72.557,189.694z"/>
	<path d="M74.47,166.728c0,0,17.827-0.358,21.415,0s12.793-0.159,12.793-0.159v6.619H87.903v6.967c0,0,8.379-2.949,11.23-2.446
		s9.777,5.179,9.544,9.479s-6.96,8.607-14.542,10.043s-10.921,0-10.921,0v-4.886c0,0,10.921-0.171,10.921-6.095
		c0-3.803-12.247-1.938-13.323-2.297C79.736,183.594,74.47,166.728,74.47,166.728z"/>
</g>
</svg>
