<svg xmlns="http://www.w3.org/2000/svg" width="200" height="200" viewBox="-60 -15 275 275" preserveAspectRatio="xMidYMin slice">
  <path fill="#FFE200" d="M38.056 169.788h17.643l-6.084 11.963 6.084 5.476-11.154 13.385 8.72 6.894-9.531 13.587 9.531 4.664-15.209 16.832 4.258-12.776-7.502-2.636 8.517-19.265-8.517-4.868 7.706-17.034-9.329-5.881"/>
  <path d="M48.326 2.077S48.722.181 56.779.075c7.119-.093 7.786 4.895 17.351 4.672S85.475.965 91.926 1.187s16.017 2.684 19.798 3.566c3.782.883 18.686 1.549 20.243 1.327s6.451-1.112 8.009-1.112c1.557 0 6.229 2.67 6.229 2.67s-6.674.444-9.121 2.892-3.56 5.339-7.341 6.674-12.234-.667-16.905 2.225c-4.672 2.892-6.896 4.447-6.674 7.563s4.449 4.449 4.449 10.011-2.67 6.674-2.67 6.674h-9.121s5.117-2.893 4.895-8.009-3.114-8.009-1.112-13.792 7.341-8.23 11.345-9.12 7.563-2.225 7.563-2.225-19.353-2.67-20.243-2.447c-.89.223-12.012-.223-15.571 1.335s-3.56 3.114-10.455 2.002c-6.896-1.112-15.349-4.895-18.241-5.339s-4.894 1.559-7.563 1.78-6.896-2.447-9.12-2.447-2.447 1.558-4.449 1.112-2.002-.445-2.002-.445S32.757 7.64 31.2 7.417s-5.116-.001-6.229.667-4.449 3.559-4.671 6.451-.223 2.893-.223 2.893-6.674 3.114-8.008 7.118 1.112 9.565 1.112 9.565-5.507 5.238-5.784 7.118c-1.112 7.563 6.006 13.569 6.006 13.569s-7.341 3.782-8.898 9.788 3.114 12.012 3.114 12.012l2.892-2.002 4.894 4.004s-7.632 5.827-8.23 10.011c-.89 6.229 2.892 13.124 2.892 13.124s-3.336 4.449-3.336 8.898-.223 6.229-.223 6.229-3.607-1.665-4.449-4.672c-1.557-5.561 2.002-10.677 3.114-12.012s-7.146-.432-4.449-12.013c1.845-7.922 4.671-10.899 4.671-10.899S-1.146 73.405.179 62.584c.893-7.291 2.991-8.676 2.991-8.676S.055 46.344 1.389 42.34s5.116-6.006 5.116-6.006-3.337-8.23.89-13.792 6.451-6.007 6.451-6.007-3.56-6.228 3.559-10.899 12.902-1.78 12.902-1.78S32.64.854 37.87.074c3.582-.534 10.456 2.003 10.456 2.003z"/>
  <path d="M95.386 31.01l4.104 2.432S93.261 35 93.484 41.451s1.996 11.346 3 13.792-2.334 5.784-1.443 6.229 7.342 6.229 7.342 7.341-2.225 4.672-1.78 5.339 5.411 7.695 6.673 12.901c1.78 7.341-5.338 12.235-5.338 12.235s5.376 6.199 4.004 10.455c-.583 1.809-8.898 9.342-10.9 10.01s-3.559-1.112-3.559-1.112 6.156-5.122 5.783-12.457c-.164-3.212-3.114-8.23-3.114-8.23s6.229-2.669 6.896-6.229c.668-3.56-2.447-13.125-2.669-11.79s-4.227 7.119-5.339 6.674-3.559-1.112-3.559-1.112 6.006-10.677 5.561-13.569-4.894-3.56-5.561-10.678c-.668-7.118 3.337-5.561 2.892-8.23s-5.712-2.892-2.968-13.792c2.743-10.902 5.981-8.218 5.981-8.218zM18.963 88.598l4.449 3.56s-4.446 3.554-4.449 9.12c-.004 7.786 8.675 15.583 8.675 15.583s-2.002 2.436 0 6.662 6.896 6.451 6.896 6.451-5.784 2.225-9.121 1.112-8.231-6.128-7.341-11.184l.89-5.056s-7.563-7.786-6.006-16.017 6.007-10.231 6.007-10.231z"/>
  <path d="M97.042 145.112s4.672-3.114 4.449-6.006-2.303-4.179-3.403-6.896c-1.729-4.266-2.825-9.343-2.825-9.343h-4.449c-.666 4.227 3.162 9.968 3.561 14.223.562 6.017-4.227 7.786-4.227 7.786s2.53 1.999 3.559 7.786c1.324 7.45-6.451 7.785-6.451 7.785l-1.334-4.449s-1.113-1.334-3.337 4.672-8.231 6.674-8.231 6.674.667-1.335.667-2.893-8.008-1.112-8.008-1.112-1.112 3.114-3.782 3.337-9.565-1.335-10.01-3.559-3.115-4.672-3.115-4.672-3.336 3.114-4.004 3.337 3.559 3.559 3.559 3.559-2.224.668-4.671 1.78-7.118.223-7.118.223-1.112-4.895-2.225-4.449-8.898-.223-8.898-.223l-2.002 2.002s-2.669.89-4.227-3.337-.223-7.785-.223-8.453-7.341-2.225-7.341-2.225l-1.334 1.112s-3.114-7.341-3.114-10.455 2.224-12.234 2.224-12.234l-5.338-7.563s-1.335 6.451-1.112 8.23-4.671 9.343-2.669 16.684 9.343 7.341 9.343 8.676c0 6.232 4.449 10.9 4.449 10.9s-.445 12.234-.89 15.349-.667 26.026-.445 35.37-1.112 26.249 0 32.032 3.44 11.79 3.44 11.79 1.899-16.461.55-25.137.237-21.578.014-24.692 2.225-32.922 2.225-35.146-1.334-8.453-1.334-8.453 6.896-.89 6.896.89 1.557 6.006 1.557 6.006l-3.121 5.339s2.008 2.67 1.118 3.56-.89 17.573-1.087 22.687.643 17.576.198 22.915 0 18.687 0 18.687l4.671-14.682 4.449 2.002s-1.112 3.559-1.78 5.116-7.341 19.798-7.341 19.798l8.676-6.451 13.792-10.678 2.002 14.904s3.114-2.447 3.559-6.896 0-12.458 0-12.458 9.12-8.897 9.343-8.008-1.112 15.794-1.112 15.794l3.559 11.567s2.892-26.249 2.422-28.696 2.249-32.255.692-41.375 0-17.574 0-17.574 2.225 2.447 7.786 3.114 6.896-2.669 6.896-2.669 1.779 20.021 2.224 24.247-.667 21.577-.89 41.82 4.227 23.357 4.227 23.357 1.334-19.798.915-22.912.642-24.685 0-25.797-.692-33.367-.915-37.149-2.002-9.788-2.002-9.788l5.115.891s9.344-4.442 10.686-12.451c.366-2.196-4.458-7.12-4.458-7.12zm-38.929 24.454s.89 3.114 2.447 3.114 0 13.792 0 13.792-8.008-5.562-7.563-6.229 5.116-10.677 5.116-10.677zm-28.276 15.571l4.697 2.893-4.697 8.008s-.691-9.121 0-10.901zm.692 22.468l5.561 3.114-5.561 10.678s-1.557-12.234 0-13.792zm6.674 34.702l4.894-11.79-8.453-3.114 8.453-18.463-8.453-6.007 6.229-16.905-8.675-5.562 4.449-7.786s3.114 1.334 6.451 0 9.228-4.004 9.228-4.004l-4.557 11.79 6.896 6.451-9.009 16.238 6.67 6.229-10.563 14.015 12.902 5.339-16.462 13.569zm24.049-16.683l-9.927-4.004 9.927-9.121v13.125zm-1.359-18.019l-8.568-4.227 9.927-12.345-1.359 16.572z"/>
  <path d="M75.464 177.799l4.227 11.567s-1.779 20.021-2.113 24.024c-.333 4.004-2.113 14.682-2.113 14.682s-1.609-15.571-2.362-26.026 2.361-24.247 2.361-24.247zm-5.116 58.06l4.449 4.671s-.445 11.791 0 13.348S71.46 265 71.46 265s-2.669-23.357-1.112-29.141zm22.245-51.609s5.43 9.565 5.495 10.232-2.892 40.263-2.747 42.71c.143 2.448-4.082-45.601-2.748-52.942zM45.749 32.752c.848 0 1.546.149 1.846 0s1.297-2.743 1.048-3.242-5.238-.05-5.288-.499 2.744-1.746 4.19-2.594v-3.343s-.499.849-1.497.849h-4.39c-1.396.2-4.44-.15-4.639 0s-1.546 1.596-1.647 1.896 2.295 2.244 3.493 2.693 2.245-.149 2.544.1-.349 1.197-.599 1.597-3.392-.199-4.09-.35-.399 2.794-.299 3.043 4.839.2 4.489.698c-.872 1.242-5.587 6.485-5.537 6.734s3.243 2.794 3.392 2.595 2.444-2.694 2.444-2.694-.249 6.784 0 8.431 3.991 3.342 4.141 2.544-.599-13.119-.399-12.87 2.843 3.791 3.591 3.592 2.744-3.442 2.295-3.841-5.937-5.339-5.088-5.339zm6.484-.598c-.299.35.299 1.945.848 1.846s8.929.05 10.027 0 .948-2.095.698-2.894-1.396.2-2.494 0-1.147-.997-1.098-1.496 3.193.599 3.243 0 .698-2.794.05-2.844-2.544.648-2.793.2.1-.549.25-.998 2.145-.399 2.843-.549.25-2.644 0-3.442-4.54.15-5.038-.319-.05-.978-.2-1.526-3.891 0-3.891 0 .15 2.195 0 2.943-2.294.05-3.093.2-2.294-.2-2.294-.2c-.748.398.698 2.993.798 3.343s3.492-.2 3.941-.2.449.948.299 1.348-2.145.1-2.494.249-.299 2.095.05 2.544 3.342-.299 3.841-.199.499 1.297 0 1.696-3.193-.052-3.493.298zm13.719 16.711c.1-.35 0-3.841 0-4.788s-1.896-7.483-2.195-7.982-5.887-.065-7.128 0c-.589.031-3.996-.249-4.295 0s0 12.87 0 13.319 2.993-.798 2.744-.249c-.529 1.163-1.447 5.338-.898 5.287s3.791-1.196 4.09-1.795-.1-2.844-.05-3.094 1.497-.698 1.447-.149 1.147 4.439 1.646 4.59 2.744-.1 2.868-.499-.523-3.841-.523-4.24 2.194-.051 2.294-.4zm-6.386-1.347c-.499.149-5.538.299-5.487 0s-.147-1.335 1.248-1.297c.449.013 4.888.101 4.789.499s-.051.649-.55.798zm.35-3.292c-.399-.1-5.138-.001-5.138-.2s-.151-1.506.25-1.496c.999.024 6.435-.051 6.385.199s-1.099 1.597-1.497 1.497zm-5.338-4.141c.05-.249-.646-1.758.399-1.796.449-.017 4.888-.249 5.238 0s1.197 1.148 1.197 1.497-6.884.548-6.834.299zm-4.786 42.164c.003-.498-4.493-2.146-4.742-2.195S45 74.815 45 74.367s4.689.448 4.789 0-1.945-4.24-2.544-4.739-1.546-.449-1.746-.449-.948-.698-.948-1.247 2.644.1 3.143 0 .648-4.24.399-4.439-9.637-.096-10.126 0c-1.796.35-1.048 3.791-.998 4.24s3.542-.05 4.041-.05.1 2.244 0 2.544-4.589 1.147-5.138 1.247-.349 2.145-.2 2.494 4.29.199 4.589.199-.149 7.084-.149 7.433-2.444.449-2.843.599-1.347 10.526-1.147 11.274 12.471-.1 13.12-.35.547-10.376.55-10.874zM44.9 90.33c-1.197.249-4.49.947-4.589-.3s-.2-4.488.25-4.639 2.345-.2 2.345-.2c.599-.149 3.243-.249 3.292 2.096s-.101 2.794-1.298 3.043zm19.954-1.732c-.399-.234-4.19.584-5.756 0s-2.225-11.538-2.125-12.785-.648-8.779-.848-9.578-3.492-.599-3.924-.498c0 0 .083 5.138.382 7.482s1.396 16.661 1.446 17.531 1.946 2.272 3.492 2.574 3.542-.103 4.24-.002 3.492-4.489 3.093-4.724zm-16.212 13.858c.799.03 8.73.549 9.179.599s.25 2.146 0 2.494-4.041.448-3.991.848-1.047.798-.848 1.896 5.637.549 7.682 1.048 4.539 1.496 5.886 4.29.499 7.084 0 7.184-3.042.275-2.943-.91.15-6.073-1.846-7.121-8.231-.699-8.431-.399-.548.749-.349 2.245.898 3.742.998 4.839-.549 1.909 0 2.052 4.14.193 4.639 1.041.998 1.896-1.047 2.345-5.836.771-7.083.485-3.592-.935-3.492-1.583 1.846-2.132 2.544-2.288.1-8.688-.299-9.036-2.095-.798-4.29-.848-4.041.001-4.041 1.048.848 4.739 0 5.088-3.227 1.842-3.591.997c-.311-.719-.3-10.176 1.147-10.625s7.582.798 7.981.599.948-1.396.948-1.846-7.084-.15-7.433-.499.35-3.946 1.098-3.943 5.89-.065 7.582 0z"/>
  <path d="M43.753 113.962c.5-.019 3.642-.135 3.941.515s.149 2.645-.2 2.794-4.291.648-4.141 0-.145-3.288.4-3.309zm-1.397 4.705c.32-.319 3.492-.1 3.941 0s.399 3.243 0 3.243-4.091.198-3.941-.15-.249-2.843 0-3.093zm12.971-4.724c.365-.045 4.44-.164 4.639.235s.05 3.592-.499 3.417-3.741-.524-3.741-.724-.74-2.886-.399-2.928zm.947 4.557c.513-.049 4.439-.133 4.539.217s.648 1.847 0 1.946-4.639.499-4.539.199-.653-2.3 0-2.362zm-4.058 8.797c.817-.019 8.298-.149 8.298.35s.1 1.446-.848 1.446-7.519-.099-7.451.2-.78 3.242.667 3.292 4.839-2.993 5.238-2.993 5.087 5.238 5.138 6.685-1.846 1.696-2.444 1.746-1.496-2.444-2.594-2.494-3.242.35-3.691 1.048-2.843.148-3.442-.101-4.44-1.896-4.091-2.444 2.495-2.543 2.644-2.893.15-1.348-.349-1.497-4.041.101-4.041-.299-.05-.897 0-1.147 5.304-.862 6.966-.899z"/>
  <g fill="#E60012">
    <path d="M129.103 38.675c1.098-.039 4.588-.137 5.547 0s4.041 1.917 3.973 3.219-5.89 1.371-5.89 1.645-.274 2.123 0 2.123 8.013-.479 8.219 0 2.876 3.015 2.944 4.521c.069 1.506-.616 17.739-1.301 18.561s-2.739.686-2.739 0 .548-16.231-1.37-16.917-5.753-1.164-5.891-.548c-.137.616-.136 5.548.069 9.726s1.165 5.479.479 6.164-4.589-.25-4.521-1.529.409-13.196-.001-13.744-.89-1.438-1.711-1.644c-.822-.206-5.273.068-5.273.616s-.068 12.191 0 13.219-1.302.958-2.055.89c-.754-.068-2.397-1.507-2.397-3.082s-.685-14.725 1.575-15.136 8.492-.548 8.629-1.096c.138-.548.617-2.124-.205-2.329s-6.779.206-6.849-.205-.274-3.904.274-3.904c.548-.002 6.781-.489 8.494-.55z"/>
    <path d="M123.144 53.126c.48-.273 2.672-.274 2.877 0s.342 2.191.41 2.671c.069.479-.89 1.027-1.643.959-.754-.068-1.644-3.63-1.644-3.63zm.411 5c.411 0 2.192-.479 2.192 0s.205 2.876 0 3.219c-.206.343-1.781.686-1.85.343s-.342-3.562-.342-3.562zm10.136-4.52c.052-.21 3.15-.615 3.356-.342.205.273.41.959 0 2.123-.412 1.164-.754 1.381-1.302 1.375s-2.19-2.608-2.054-3.156zm1.507 6.266c.523-.392 1.301-.718 1.712-.307s1.096 1.507.753 1.986c-.342.479-1.894 2.191-2.18 2.123-.285-.068-2.065-2.468-.285-3.802z"/>
  </g>
  <g fill="#E60012">
    <path d="M151.293 102.427c-.274-2.067-4.999-5.877-5.89-6.082s-6.232.068-6.918 0-.273-2.123-.479-2.603 6.096-.548 6.027-1.027-1.507-2.809-2.123-3.151-7.739 0-7.739 0-8.219-.137-9.52.549c-1.302.686-.206 3.287.41 3.698s6.712.137 7.603-.372.068 2.7-.206 3.043c-.273.343-2.67.137-4.794.137s-6.164-.753-7.944 1.027c-1.781 1.78-1.37 10.137-1.096 10.958.273.821 1.369 3.22 3.014 2.877 1.644-.343 1.164-4.862 1.164-6.712s.41-4.041 1.506-4.521 8.562 0 9.384.479 0 8.973-.343 9.452-5.753 1.575-6.506 2.191c-.754.616.41 10.342.479 11.301s2.604 2.944 3.288 3.014 10.136-.891 11.438-.479.959-.686 1.438-1.507 1.096-6.918 1.027-7.839-3.014-5.105-3.425-5.791-2.534-.411-3.013-.447c-.48-.036-.274-2.292-.549-5.237-.273-2.945.479-4.314 1.027-4.726.549-.411 5.205-.959 7.26 1.302s1.986 8.149 2.604 8.492c.615.343 2.808.068 3.287 0s-.137-5.958-.411-8.026zm-20.821 14.823c0-.29-.548-2.756 1.096-2.756.48 0 1.645-.273 1.645 0s.617 1.925 0 2.366-2.741.681-2.741.39zm3.013 5.758c-.821.185-2.123.638-2.123 0s-.41-3.377 0-3.377c.411 0 1.37-.205 1.37-.205.479-.138 1.164-.205 1.164 0s.412 3.398-.411 3.582zm5.99-.158c-.441.137-1.812.273-2.29 0-.48-.273-1.375-.665-1.03-1.188s2.879-1.552 3.632-1.346c.623.171.129 2.397-.312 2.534zm-1.331-8.424c.631 0 1.575-.958 2.191-1.096s.686 3.705 0 3.53-1.507.647-2.191.305c-.686-.343-2.056-.89-1.986-1.164.068-.274.136-1.575 1.986-1.575z"/>
    <path d="M129.444 104.016c.48-.068 0-1.645 0-1.986s-2.516-.065-2.944 0c-.815.125-.891 2.055-.959 2.396s3.425-.342 3.903-.41zm-1.3 2.671c0-.479-2.965-.639-3.15-.343-.342.548.137 3.014 0 3.63s1.301.206 1.918 0c.614-.206 1.232-2.807 1.232-3.287zm15.205-2.166c.684.163.303-2.586 0-2.659-.412-.1-3.082.1-3.631 0-.547-.1 0 2.291 0 2.659s2.945-.163 3.631 0zm.753 5.042c.479-.206.707-3.292 0-3.368-.753-.081-2.876-.193-3.493 0-.615.193 0 2.958 0 3.368s3.013.206 3.493 0z"/>
  </g>
  <path fill="#E60012" d="M155.196 174.217c-3.541-2.527-5.342-11.712-5.82-12.739-.48-1.027.753-8.492 0-11.438-.754-2.945-5.137-4.384-6.027-4.589s-10.891 0-10.891 0-9.314 1.027-9.861 1.027c-.549 0-3.22-.068-5 3.355-1.781 3.424-.891 19.931-.822 21.438s4.657 2.466 5.068 2.329 0-6.164 0-6.986.205-10.205 1.027-12.808 3.014-3.082 3.492-2.671c.48.411-.821 3.082-1.096 3.63-.273.548 4.384-.137 4.795-.068s.205 1.849 0 2.397-4.795-.069-5.754.548 0 7.396 0 7.944 5-.137 5.822-.205 1.575 1.096 1.232 2.055c-.342.959-1.438.342-2.945.821-1.506.479-1.643 2.945-1.438 3.63s4.109 1.096 5.821.548 3.698-1.438 4.109-1.301 4.315 3.493 4.626 3.562 1.195-1.302 1.47-2.329-.479-2.055-.616-2.603.273-.959-.205-1.849c-.48-.89-2.398-1.165-3.082-1.097-.686.068-1.165 1.302-1.233 1.576s-1.233.342-1.78.273c-.549-.068 0-2.328 0-3.014s6.026-.479 6.096-.891c.068-.411 0-6.232-1.645-7.122s-4.314-1.165-5.068-1.097c-.753.068-.548 0-.41-1.027.137-1.027 3.424-.89 3.424-.89l.343-2.466s-2.945-.205-5.616-.479-5.41-.891-5.41-.891.821-1.369 4.656-1.986c1.557-.251 8.425-.137 9.932 2.466s3.424 6.096 3.63 14.178 3.562 10.615 3.767 10.615 6.206-1.277 5.409-1.846zm-20.547-14.04c.837.19 3.563.114 3.563.536s.137 1.519-.343 1.519-3.425.479-3.493 0-.585-2.25.273-2.055zm-3.765-.549c.137.479.547 2.481 0 2.816-.549.335-3.083.351-3.22 0s-.548-3.091 0-2.816c.555.279 3.083-.479 3.22 0z"/>
  <g fill="#E60012">
    <path d="M153.348 209.968c-.343-.685-3.15-4.589-3.219-5.2s-9.315-.143-10.137-.005-.068-2.945 0-3.493 4.247-.343 4.862-.274c.617.068 0-1.712 0-2.123s-.753-1.027-1.164-1.37c-.41-.343-8.835-.41-8.835-.41s-8.287-.274-9.04 0c-.754.274-.068 3.562-.068 4.178s6.643-.479 6.779.205.549 2.123.138 2.603-10.89.068-11.644.137-2.26 2.055-2.533 2.604c-.274.549.137 6.369.342 6.917s2.809 2.671 3.219 2.397 1.645-6.438 1.645-6.986 2.876-1.78 3.492-2.055 6.438-.548 7.328-.479.617 8.287.617 9.314.547 2.397-.891 1.575-1.164-2.26-2.397-1.849-1.507 4.657-1.507 5.479-1.369 3.014-2.26 3.699 0 1.849.822 1.78c.821-.068 2.465-2.534 2.67-2.26s-.273 6.849 0 7.191c.274.343.412 4.52.412 5.41s2.055 1.507 3.082 2.191 6.779-.205 8.629-.342 2.877-2.261 2.604-2.943c-.274-.683-1.645-2.673-2.125-1.852-.479.821-5.957 1.645-7.396 1.575s-.891-2.876-.959-3.561 5.685 0 6.096 0 .068-3.768 0-4.845-1.575-2.758-1.918-3.443-3.562-.137-4.589-.273-1.575-.411-1.507-.959 6.644-.685 7.876-.479c1.233.205 1.781 3.425 1.85 4.589s1.918.205 2.603 0 1.233-2.397 1.233-3.287-.274-3.768-1.233-4.439-4.589.192-5.958-.697c-1.371-.89-1.164-8.356-1.233-9.246s1.097-.959 1.575-1.233c.48-.274 6.644-.411 6.507-.205s2.466 11.164 3.562 11.369 3.904-2.123 3.767-2.808-.755-5.412-1.097-6.097zM135.267 226.2c.342.018 2.055.001 2.328.686.274.685.822 2.26 0 2.191-.821-.068-2.671.483-2.671.002s-.542-2.924.343-2.879z"/>
    <path d="M128.999 211.201c.377-.068 2.021-1.507 2.021-2.123s-3.49-.515-4.041-.479c-.473.03-.479 1.78-.549 2.169-.068.388 2.193.501 2.569.433zm-.274 1.918c-.446-.616-2.228-.018-2.295 0-.528.138-1.573 2.671-1.778 3.014s4.246 0 4.52 0-.001-2.398-.447-3.014zm17.706-3.225c0-.759-3.22-.42-3.425-.405-.613.043-.479 1.232-.479 1.73s2.055.324 2.603.324 1.301-.89 1.301-1.649zm-3.916 5.964c1.768.205 2.614-.273 2.546-1.295s-1.231-.879-2.546-.896c-1.622-.022-1.77 1.986 0 2.191z"/>
  </g>
</svg>
