<?xml version="1.0" encoding="utf-8"?>
<svg version="1.1" id="レイヤー_1" xmlns="http://www.w3.org/2000/svg" xmlns:xlink="http://www.w3.org/1999/xlink" x="0px"
	 y="0px" width="200" height="200" viewBox="80 -90 100 300" enable-background="new 0 0 266.548 290.342"
	 xml:space="preserve">
<g>
	<g>
		<g>
			<path d="M24.554,40.561c0,0,4.872-0.63,4.249-1.912c-0.218-0.448,3.61,4.673,4.036,4.036s1.055-3.327,1.055-3.327l3.619-0.889
				c0,0,2.239,3.614,3.399,4.264c0.865,0.484,1.062-8.545,1.062-8.545h5.735c0,0,0.446,14.231,0.756,15.594s0,3.344,0,3.344
				l-2.911,1.672c0,0-3.654-3.778-4.459-3.84s-0.558,3.84-0.558,3.84s-2.725,2.168-3.035,2.354s-2.911-4.211-5.14-6.503
				S24.554,40.561,24.554,40.561z"/>
			<path d="M48.602,33.432c0,0,3.207-0.186,4.136-0.495s6.688-2.292,6.688-2.292l2.106,4.459c0,0-1.92,0.124-4.149,1.424
				s-1.652,1.525-1.115,2.601c0.248,0.496,5.883-1.796,6.317-1.796s2.105,3.716,2.105,3.716s-0.557-0.062-3.158,0.682
				s-3.468,1.362-3.716,1.672s0.062,1.424,1.3,1.424s6.379-1.734,6.379-1.734l1.548,4.149c0,0-4.707,1.734-6.007,2.292
				s-4.955,2.292-4.955,2.292s-1.858-5.202-2.725-6.688s-1.796-3.531-2.911-6.317S48.602,33.432,48.602,33.432z"/>
			<path d="M65.248,26.31c0,0,2.539-1.548,3.344-1.3s7.06,2.043,7.122,2.415s-1.176,0.93-1.362,2.168s0.063,1.982-0.248,1.92
				s-4.149-1.177-4.583-0.496s1.239,2.354,2.601,2.663s6.713,0.242,8.484,3.22c1.363,2.292-2.079,7.306-4.025,7.68
				c-1.61,0.31-4.893,1.567-5.079,1.093s-2.416-3.942-3.035-4.438s5.118-1.399,5.822-1.796c0.991-0.558,1.053-2.54,0.31-2.787
				s-0.991,0.433-4.583,0.186s-5.264-1.61-5.636-2.353S63.328,29.592,65.248,26.31z"/>
			<path d="M74.6,21.294c0.496,0.062,1.796-0.063,2.973-0.31s8.918-4.459,8.918-4.459l2.292,5.202c0,0-2.416,1.363-2.168,2.168
				s6.008,12.51,5.884,12.882s-4.583,1.548-4.707,2.229s-3.22-8.361-6.069-11.891c-1.254-1.554-1.733-0.433-2.725-0.248
				s-1.734,0.31-1.734,0.31L74.6,21.294z"/>
		</g>
		<g>
			<path d="M119.002,9.344c0.124,0.248,0.248,8.175-0.495,7.803s-2.106-6.874-2.106-6.874l-5.759,1.238c0,0-0.434,6.441-0.867,6.441
				c-1.253,0-1.796-8.484-1.982-8.113s-5.945,2.043-5.945,2.043c0.62,0.372,2.292,5.141,3.53,7.122s3.221,7.432,3.221,7.432
				s0.248-0.062,1.734-0.372s2.044,0.062,2.044,0.062l1.858-5.45c0,0,1.301,1.301,1.796,1.858s2.911,3.902,2.911,3.902
				s0.867-0.496,2.043-0.743s2.354,0,2.354,0s0.326-2.294,0.434-3.592c0.557-6.721,2.175-13.687,1.858-13.439
				C123.286,10.494,118.879,9.096,119.002,9.344z"/>
			<path d="M129.963,7.919c0,0,0.248,1.796,0.248,3.963s-0.743,12.758-0.557,12.634s6.193,0,6.193,0s-0.372-8.856-0.558-10.838
				s0.558-5.76,0.558-5.76C135.352,8.477,129.963,7.919,129.963,7.919z"/>
			<path d="M153.56,6.371c-0.186,0.31-3.654,0-3.654,0s0.372,1.61,0.372,3.22s-0.681,7.246-0.681,7.246s-3.097-3.901-3.716-4.645
				s-3.778-4.273-3.778-4.273l-4.211,1.053c0,0,0,2.849,0.31,7.553s-0.31,8.458-0.31,8.458c0.681-0.091,4.769,0,4.769,0
				s-0.062-2.2-0.124-2.881s0.062-3.035,0.681-3.282s2.292,1.486,3.809,2.416s4.738,4.397,4.738,4.397l4.397-0.31
				c0,0-1.548-11.396-2.229-13.439S153.745,6.062,153.56,6.371z"/>
			<path d="M173.873,18.324c-0.062-1.425-3.406-7.741-3.902-8.113s-7.06-2.044-7.803-2.292s-2.044-1.566-2.044-1.566
				s-0.619,14.758-0.619,16.802s-0.434,1.828-0.434,1.828s1.548,0.463,3.716,0.649s6.069,0.31,8.175-0.649
				S173.935,19.749,173.873,18.324z M169.6,20.306c-0.619,2.105-4.831,2.416-5.512,1.177s-0.557-6.998-0.31-7.06
				s0.929-0.558,0.929-0.558s2.973,1.549,3.53,1.672S170.219,18.2,169.6,20.306z"/>
		</g>
	</g>
	<path d="M129.624,39.43c0,0,5.754-0.1,6.852,0s4.992,2.196,5.591,2.895s2.896,3.994,2.896,3.994s-6.655,2.396-7.072,2.596
		s-0.816-4.493-4.61-6.49S129.624,39.43,129.624,39.43z"/>
	<g>
		<path d="M217.746,76.173c-1.298-0.5-1.398-0.599-2.097-0.798s0.699-1.598,4.293-3.894s4.193-9.186,3.994-12.88
			s-0.999-2.196-0.999-3.494s-1.298-4.693-2.396-5.491s-2.396,1.697-3.294,1.797s-2.097-3.295-2.097-3.295s-2.796,0.599-4.693,0.899
			s-1.198,1.397-2.097,1.498s-2.296-2.696-3.195-3.594s-3.395,0-3.395,0c-1.897,1.697-2.396,8.586-4.593,13.079
			s-6.79,3.794-7.688,3.095s-1.198-13.678-8.687-22.565c-6.292-7.467-18.571-10.982-26.259-12.746s-20.767,0.765-31.051,2.063
			S90.046,42.028,86.252,44.225S55.7,57.903,52.406,58.502S35.63,60.8,30.639,59.902s-15.176-0.399-15.176-0.399
			s2.3,1.893,9.888,3.79s19.869,4.893,19.869,4.893s-7.888,3.494-22.464,4.992C20.053,73.455,6.18,75.474,6.18,75.474
			s4.493,1.597,14.278,4.293s17.472,3.495,17.472,3.495c-3.694,1.897-21.366,2.995-21.366,2.995s13.878,7.089,28.655,6.49
			c5.787-0.235,19.469,0.499,27.217,0.399s40.076,4.494,42.972,4.693s23.862,3.095,30.751,3.195s21.566-3.494,21.566-3.494
			s5.192,2.995,14.876,4.193c6.281,0.777,20.867-0.898,24.96-1.298s13.08-3.794,13.179-12.979S219.044,76.673,217.746,76.173z
			 M190.39,68.484c0,0,5.591-1.098,6.989-1.397s5.591-2.197,5.791-4.992s0.499-7.688,0.998-8.287s2.497,0.5,2.596,1.797
			s-0.1,5.691,1.897,6.29s2.097-0.068,2.097-0.833s0-5.357,0.599-5.457s3.095,4.424,3.095,5.457s2.196,0,2.196,0
			s0.798-2.961,1.498-2.961s1.597,6.59-0.399,9.385s-8.187,3.694-14.377,4.193s-13.279,0.5-12.979,0S190.39,68.484,190.39,68.484z
			 M190.381,77.57c0,0,6.1-0.2,7.397-0.399s10.184-1.398,10.184-0.999s-0.599,2.396-1.598,2.396s-2.097-1.679-3.295-1.239
			s-2.696,1.039-3.295,2.537s0.2,5.491-1.298,5.99s-6.009,1.697-8.096,1.697s-6.181,0.7-6.081-0.599S190.272,79.067,190.381,77.57z
			 M145.76,93.843c-9.086,1.298-30.752-1.896-37.142-3.094s-21.666-2.796-26.358-2.596s-18.97,0.2-22.165,0.1
			s-12.48-2.197-12.48-2.197s6.689-2.596,7.488-3.195s2.721-2.596,2.721-2.596s-0.8-1.521-2.122-2.197
			c-0.523-0.267-4.692,1.199-7.588,1.099s-5.891-0.899-5.891-0.899s14.078-5.491,16.174-6.39s6.889-3.295,6.889-3.295l-2.896-3.195
			c0,0-8.085-0.999-10.882-1.498c0,0,11.482-4.692,17.173-5.691s26.458-9.684,28.255-10.783s23.944-10.908,29.154-12.037
			c8.292-1.797,4.592-2.241,14.776-1.942s17.173,2.896,17.173,2.896s-2.496,4.892-3.994,6.09s-2.795,2.696-2.795,2.696
			s6.589,1.896,6.789,2.196s3.195-6.291,3.994-7.488s1.398-1.697,1.398-1.697s11.183,5.292,15.576,13.179s5.092,20.767-2.197,29.753
			S154.846,92.545,145.76,93.843z M217.647,89.052c-1.398,3.794-7.987,5.491-11.083,6.09s-17.776,0.799-22.267,0.599
			s-8.784-1.593-8.784-1.593s4.593-2.899,4.693-3.399c0.098-0.489,8.287,2.097,11.682,1.897s9.785-2.895,10.084-3.395
			s0.399-6.091,2.196-5.991s2.895,4.112,3.794,4.702s1.098,1.488,1.498,1.189s0.1-6.989,0.699-7.688s2.596,3.095,2.496,4.493
			s1.697,0.499,1.697,0.499s0.998-4.886,1.997-4.54S219.045,85.258,217.647,89.052z"/>
		<path d="M137.293,51.826c1.23,0.629,2.678,2.081,2.578,3.279s-0.675,2.696-1.286,2.696s-3.207,0.399-3.207,0.399l-2.642-2.396
			C132.735,55.804,133.417,49.845,137.293,51.826z"/>
		<path d="M167.227,49.614c0.396,0.055,2.297,0.299,2.796,1.298s1.597,2.597,1.397,3.395s-1.174,3.107-2.084,2.852
			s-5.204-2.353-5.104-2.952s0.399-2.995,0.799-3.195S166.501,49.514,167.227,49.614z"/>
		<path d="M157.942,61.794c0.399,0.2,1.896,1.797,2.995,2.197s8.487,6.09,9.984,7.089s5.092,3.095,4.992,3.994
			s-1.579,3.495-2.038,3.994s-9.245,2.696-11.94,2.696s-20.168,0.3-20.168,0s-0.799-0.898,0-1.298s2.196-1.598,2.795-1.598
			s14.777-1.598,15.875-1.598s9.086-0.998,9.186-1.397s-7.488-4.394-9.785-5.292s-3.994-1.497-7.488,0.699
			s-10.938,8.486-10.938,8.486s-2.5-2.297-5.565-2.896s3.424-0.699,10.713-6.39S157.942,61.794,157.942,61.794z"/>
	</g>
	<g>
		<path d="M45.193,100.818c-0.29-0.869-3.621-0.869-3.621-0.869s-4.925,4.925-6.374,6.808s-9.705,7.677-16.078,13.181
			S0,138.045,0,138.045l6.18,1.883c0,0,7.581-7.677,10.333-9.705s14.051-11.298,17.816-14.485S45.483,101.688,45.193,100.818z"/>
		<path d="M29.694,143.694c-0.435-0.724,6.663-6.953,8.111-7.677s5.939,0.29,8.836-2.318s0-6.953,0-6.953s6.518-10.429,7.677-11.878
			s1.593,1.883,4.78-0.724s1.593-5.649,2.752-6.663s6.374-10.429,6.374-10.429h-3.766c0,0-2.028,4.884-5.07,6.518
			c-1.455,0.782-4.635-0.145-5.794-0.579s-4.635,1.883-4.925,3.332s1.883,6.663,1.883,6.663s-6.953,9.271-7.822,10.284
			s-3.332-0.724-6.083,2.028s-1.883,8.112-1.883,8.112s-5.794,7.532-10.139,10.574s-4.49,6.953-3.622,9.125s3.766,2.897,7.532,2.028
			s4.346-6.229,4.346-7.967S30.129,144.418,29.694,143.694z M54.174,105.019c0.878-0.073,3.332,2.028,3.042,3.766
			s-3.766,2.608-4.346,0.58S52.436,105.164,54.174,105.019z M42.151,127.036c1.356,0.223,2.897,3.187,0,4.635
			S37.061,126.198,42.151,127.036z M26.363,152.24c-3.187,0-4.636-4.635,1.448-3.911C28.848,148.453,29.55,152.24,26.363,152.24z"/>
		<path d="M47.667,134.423c-2.741,3.042-9.572,13.037-9.572,13.037l3.353,0.792c0,0,7.221-6.297,8.814-8.325
			s6.977-8.056,6.977-8.056l-1.617-5.598C55.622,126.274,50.408,131.382,47.667,134.423z"/>
		<path d="M93.283,130.223c6.404-6.633,9.56-14.195,9.56-14.195l-2.462-1.594c0,0-5.504,5.794-7.098,7.388
			s-10.14,11.588-10.14,11.588s-0.145-3.332,0-4.925s-2.317-3.187-2.317-3.187s2.028-3.187,5.794-5.359s9.705-11.588,10.719-13.616
			s2.028-5.649,2.028-5.649s-6.518,5.939-7.242,5.794s-4.201-3.622-5.504-3.766s-4.201,1.014-4.635,1.303s-1.738,3.622-1.593,6.533
			s3.332,3.317,3.477,4.621s-10.864,11.807-10.864,11.807s-15.789,14.99-19.845,18.901s-18.396,19.989-15.064,19.844
			s10.14-3.621,11.009-3.911s1.159,1.304,2.462,3.476s5.794,2.028,9.705,1.014s4.78-6.374,3.621-8.401s-8.111-2.607-9.271-3.766
			s3.187-5.794,4.346-6.953s8.546-8.112,9.415-9.271s1.594-1.014,3.332-0.637s4.491,0,4.491,0l-4.491,7.445
			C72.714,144.708,85.172,138.624,93.283,130.223z M87.344,106.902c0.728,0.128,2.028,1.188,1.449,3.636s-3.911,1.753-4.056,0
			S84.882,106.467,87.344,106.902z M57.239,157.889c0.99,0,2.294,0,2.004,3.042s-5.504,2.028-5.504,0S54.366,157.889,57.239,157.889
			z M75.611,131.872c0-1.359,2.897-3.532,2.897-3.532c1.448-0.145,2.463,2.752,0,4.201S75.611,133.23,75.611,131.872z"/>
		<path d="M97.049,158.758c1.448-2.607,1.593-5.939-1.159-6.518s-7.243-0.435-6.953-1.014s7.677-8.256,9.126-9.56
			s12.312-12.167,17.012-17.961s9.061-15.927,9.061-15.927l-2.752-4.062c0,0-6.078,8.715-8.112,12.602
			c-1.699,3.247-13.471,16.223-15.354,19.41s-12.892,12.747-15.354,14.519s-9.271,11.844-9.271,11.844l1.593,0.761
			c0,0,7.967-6.99,8.836-6.7s1.593,2.607,3.911,4.219S95.601,161.366,97.049,158.758z M90.097,157.889c-3.332-2.607,0-4.345,0-4.345
			s3.187-0.007,3.766,1.952S93.428,160.497,90.097,157.889z"/>
		<path d="M148.037,114.29c-0.435-2.462-3.332-3.751-3.332-3.751s-4.056-4.07-8.836,0s0.869,9.545-0.29,9.4
			s-9.125,11.933-9.125,11.933s-2.028-5.125-7.967-5.598s-6.663,6.122-6.663,8.729s7.822,2.028,7.387,3.332
			s-9.271,10.14-12.313,13.181s-13.471,16.513-13.471,16.513l0.588,1.883c0,0,3.757-3.042,4.698-3.911s19.338-18.396,20.786-20.279
			s14.34-14.774,15.499-16.303s4.056-7.018,4.056-7.018s1.159-0.579,3.622-1.738S148.471,116.752,148.037,114.29z M119.936,135.003
			c-2.897,1.304-4.055-1.048-3.911-3.131s2.61-2.271,3.911-1.042C121.01,131.844,122.833,133.699,119.936,135.003z M143.112,116.897
			c-2.752,1.014-4.201,0.732-4.491-2.386s3.475-3.389,4.491-2.387C143.991,112.991,145.864,115.883,143.112,116.897z"/>
		<path d="M134.565,141.956c-2.462,3.332-10.429,15.934-10.429,15.934s-6.374-4.635-10.864-1.668s-6.808,11.808-0.869,12.677
			s9.416-2.318,10.14-3.622s4.635-3.476,7.822-6.378s12.167-16.798,12.167-16.798v-5.794l-1.883-0.929
			C140.649,135.378,137.028,138.624,134.565,141.956z M112.983,163.973c-0.724-1.594-0.747-3.052,3.03-5.075
			c0.521-0.279,3.488,0.948,3.343,3.953S113.707,165.567,112.983,163.973z"/>
	</g>
	<g>
		<path fill="#E60012" d="M260.157,18.396c-0.145-2.028-4.635-5.214-4.635-5.214s3.042-0.869,3.766-3.622s-0.869-4.49-1.738-5.359
			s-0.579-1.738-6.373-2.607S242.775,0,242.775,0s-0.435,4.635,0.29,11.298s-2.317,11.588-2.317,11.588s6.663,2.607,12.892,1.632
			S260.302,20.424,260.157,18.396z M251.9,6.353c0,1.035,0.601,3.062-1.438,3.642s-2.473,0-2.473,0l-0.579-5.359
			C247.41,4.635,251.9,5.318,251.9,6.353z M249.696,19.845c-1.997,0.145-2.576,0-2.286-0.869s0-2.983,0-2.983
			c0.435-1.218,4.221-0.889,4.573,1.554S251.693,19.7,249.696,19.845z"/>
		<path fill="#E60012" d="M243.934,38.241c0-0.434,2.318-10.14,1.738-11.062s-6.953-1.418-6.953-1.418
			c0.002,2.022-2.462,17.404-2.462,17.404s8.256,0.435,11.083,0.435s6.443,1.593,6.877,1.593s1.014-2.173,1.014-3.621
			s1.738-2.187,1.738-2.187S243.934,38.675,243.934,38.241z"/>
		<path fill="#E60012" d="M244.079,45.193c-4.78-0.579-8.546,4.49-9.271,10.719s8.256,9.271,12.532,8.646s8.326-8.5,6.298-11.977
			S247.532,45.612,244.079,45.193z M245.527,57.178c-3.911,2.646-6.166-4.597-1.055-5.176
			C246.121,51.814,249.438,54.532,245.527,57.178z"/>
		<path fill="#E60012" d="M245.527,94.877c-1.014-1.304,4.181-4.635,4.181-4.635s-0.559-1.159-1.237-1.593s-1.857-4.491-1.857-4.491
			s-5.577,4.491-6.446,4.491s-0.145-5.794,0.58-5.07s5.794,0,6.663-0.58s-0.797-5.649-0.797-5.649s-2.141,1.822-3.838,1.593
			c-3.865-0.521-5.359-2.173-1.268-4.537s4.745-0.967,5.106-0.161s1.086-1.675,1.666-1.675s-0.29-3.621-0.869-5.214
			s-4.058-1.415-6.663-1.304c-6.808,0.29-7.532,7.532-7.243,11.153s5.359,5.794,5.359,5.794l-5.504,0.29
			c0,0,0.869,6.083,0.29,10.864c-0.67,5.532-1.449,9.56-0.724,9.563s7.822,0.722,7.822,0.722l-1.678-6.084
			c1.678,0,8.196,5.212,8.341,4.346s4.665-3.477,4.665-3.477S246.541,96.181,245.527,94.877z"/>
		<path fill="#E60012" d="M242.354,107.333c-2.593,0.145-7.588,0-7.588,0s-0.393,5.214,1.49,7.822s3.332,13.471,3.332,12.602
			s9.125-20.359,9.125-20.359S244.948,107.188,242.354,107.333z"/>
		<path fill="#E60012" d="M237.416,130.219c-6.663,0-4.635,4.635-3.911,5.938s2.607,1.304,3.911,1.738s4.345-2.897,3.332-5.794
			S237.416,130.219,237.416,130.219z"/>
	</g>
</g>
</svg>
