<?xml version="1.0" encoding="utf-8"?>
<svg version="1.1" id="レイヤー_1" xmlns="http://www.w3.org/2000/svg" xmlns:xlink="http://www.w3.org/1999/xlink" x="0px"
	 y="0px" width="200" height="200" viewBox="0 -50 276 130" enable-background="new 0 0 266.548 290.342"
	 xml:space="preserve">
<g>
	<g>
		<g>
			<path fill="#F39800" d="M154.39,52.9c0,0,2.833-5.547,7.672-4.367s6.256,5.193,5.43,8.616s-5.076,5.193-5.076,5.193l6.02,2.597
				c0,0,4.722-2.951,3.777-9.56s-6.609-9.56-9.678-10.032c-3.069-0.472-12.865,1.771-13.22,5.783S154.39,52.9,154.39,52.9z"/>
			<path fill="#F39800" d="M145.774,50.658c0,0,0.117-3.896,2.479-6.02c2.359-2.124,11.92-4.012,17.35-2.596
				c5.429,1.416,12.039,9.206,12.393,12.274s-2.833,10.623-2.833,10.623l5.548,0.59c0,0,2.36-6.491,0.943-12.982
				c-1.416-6.492-8.025-12.275-15.934-14.399c-7.907-2.125-16.877,0.236-21.362,4.603s-3.423,7.554-3.423,7.554L145.774,50.658z"/>
			<path fill="#F39800" d="M132.555,46.763l3.896,0.826c0,0,5.074-6.137,7.789-8.025s8.617-5.312,14.99-3.895
				s9.914,0.305,12.038,1.687s8.144-0.035,11.566,9.525s2.95,19.238,2.95,19.238h4.25c0,0,1.063-13.809-2.361-19.12
				c-3.422-5.312-7.672-10.15-10.74-10.504s-10.256-9.432-28.09-3.968C135.505,36.613,132.555,46.763,132.555,46.763z"/>
			<path fill="#F39800" d="M129.015,43.222c0,0,4.248-7.199,7.553-9.088s10.505-8.026,23.369-5.901
				c12.865,2.125,22.189,6.207,24.668,9.123s6.703,8.208,7.436,10.233c2.006,5.547,2.006,21.599,2.006,21.599
				s4.367,1.062,4.367,0.708s0.826-17.35-2.479-23.487s-13.244-17.822-32.175-20.3s-30.733,4.249-34.745,8.144
				c-4.014,3.895-5.312,8.262-5.312,8.262L129.015,43.222z"/>
		</g>
		<path d="M157.813,53.136c0,0-0.708-0.909-0.591-1.694c0.119-0.785,1.652-1.34,2.125,0S158.308,54.07,157.813,53.136z"/>
		<path d="M163.714,53.455c-0.433-0.996-0.876-1.316,0.527-2.012c1.404-0.696,1.361,1.623,1.243,2.012
			S163.975,54.055,163.714,53.455z"/>
		<polygon points="160.056,55.851 166.429,55.851 166.429,57.267 161.104,57.267 		"/>
	</g>
	<g>
		<path fill="#9BCAED" d="M189.698,51.095l9.477-2.879c0,0,7.918,3.599,11.396,2.879s6.837-3.839,11.275-4.079
			s11.876,4.509,15.475,4.174s8.517-2.974,11.636-2.974s15.595,3.719,15.595,3.719s-2.879,5.278-9.477,4.438
			s-7.317-2.099-14.035,0.09s-6.718,3.868-6.718,3.868s-9.117,0.24-10.796-1.2c-1.68-1.439-5.039-2.758-7.318-3.358
			c-2.278-0.6-7.077,0.719-8.396,0.839s-12.836,1.799-12.836,1.799l-7.797-3.838L189.698,51.095z"/>
		<path fill="#9BCAED" d="M170.386,94.879c0.479-0.12,5.398-7.678,7.077-8.877s6.957-2.039,6.957-2.039s2.52,2.879,7.198,2.639
			c4.678-0.24,11.636-3.119,15.114-3.119s9.717,4.589,14.274,4.154c4.559-0.435,13.676-3.314,16.555-4.154s10.316,0.36,12.355,0.6
			s11.875,2.159,11.875,2.159l5.998,3.359l-7.916,4.348c0,0-9.957-5.667-18.834-2.069s-18.233,7.198-18.233,7.198
			s-10.316-1.799-11.876-3.359s-3.358-1.68-6.478-3.119s-7.677,0.6-7.677,0.6l-11.276,0.12c0,0-2.04-2.159-6.478-1.679
			C174.583,92.12,170.386,94.879,170.386,94.879z"/>
		<g>
			<path fill="#2EA7E0" d="M29.975,62.16c0.96-2.519,6.718-10.916,11.636-12.775c4.919-1.859,9.717,0.18,14.635-0.66
				c4.919-0.84,7.797-7.317,7.797-7.317s-3.838-2.639-5.997-2.639s-5.278,2.279-7.438,2.399s-8.037,0-8.037,0
				s-6.358,5.518-8.637,7.797s-6.358,2.279-7.798,2.759s-2.039,2.279-3.358,3.119s-5.638,1.08-8.877,1.919s-0.96,3.239-0.96,3.239
				S29.015,64.679,29.975,62.16z"/>
			<path fill="#2EA7E0" d="M186.279,68.878l-4.679-1.68c0,0-15.114-3.358-19.193-2.639c-4.078,0.72-13.795-3.119-16.793-3.217
				c-3-0.098-5.279-3.38-5.759-3.86s-4.438-1.679-11.756-1.56s-13.556-7.438-15.714-7.557c-2.16-0.12-10.316-0.36-14.395-0.36
				c-4.079,0-6.838-4.199-13.916-5.158c-7.076-0.959-17.273,7.438-17.273,7.438s-4.678,6.238-14.635,7.677
				c-3.563,0.515-10.916,1.439-10.916,1.439s-6.118,5.398-7.078,6.958c-0.959,1.56-6.837,5.398-9.236,7.197
				c-1.895,1.42-4.014,4.561-4.82,5.82c-0.216,0.335-0.338,0.538-0.338,0.538s8.277,1.679,9.717-0.96s6.478-4.559,7.797-4.678
				s7.317,1.799,7.317,1.799s16.435,4.678,18.233,3.239s14.035-5.998,21.113-7.077c7.077-1.08,12.355,3.359,12.355,3.838
				s14.754,4.438,17.514,5.038c2.758,0.6,19.673-3.479,25.393-4.438c5.721-0.959,5.076,1.559,9.035,0.839
				c2.598-0.472,1.786-2.185,4.074-3.103l0,0c-1.555-0.617-4.794-2.934-5.273-4.054c-0.48-1.121-0.447-2.504,0-3.322
				c0.445-0.817,0.719-1.875,2.519-2.176s4.438,0.46,4.438,2.179s-1.92,2.521-2.76,3.319c-0.839,0.798,1.201,1.885,2.04,2.421
				c0.425,0.271,0.568,0.843,0.407,1.263c1.254-0.222,3.049-0.298,5.711-0.126c11.155,0.72,10.076,6.958,11.275,4.559
				s19.913-5.398,19.674-5.758C190.118,72.356,186.279,68.878,186.279,68.878z M52.887,74.995c-0.36-0.84-0.24-6.958-0.96-6.958
				s-2.279,0.003-2.398,1.261c-0.121,1.258-0.121,7.375-0.121,7.375l-2.279-0.6c0,0,0.361-7.678-0.479-7.438
				s-2.639-0.242-3.239,1.139s-0.479,2.82-0.84,2.82s-3.239,0.12-3.239,0.12s-1.32-5.518-2.52-6.118c0,0,4.079,2.039,4.079,2.399
				s0.601-4.559,3.839-4.798s1.919,0.72,2.879,0.96s2.52-2.588,3.719-2.254s2.158,2.614,2.759,4.413s1.08,8.397,1.08,8.397
				S53.247,75.835,52.887,74.995z M57.925,60.36c1.68,0.12,1.799,0.236,1.799,1.558s-0.359,1.201-1.799,1.561
				C57.331,63.627,56.245,60.24,57.925,60.36z M59.005,75.835c-0.24-0.36-1.377-8.757-0.629-8.277c0.227,0.145,0.629,0,0.748,0.48
				c0.12,0.48,0.72,2.759,1.199,3.119c0.48,0.36,0.48,4.679,0.48,4.679S59.244,76.195,59.005,75.835z M133.978,59.636
				c1.08,0.004,2.279,2.045,2.039,2.284s-0.84-0.136-2.039,0.052C133.577,62.035,132.897,59.632,133.978,59.636z M69.921,68.637
				c-0.24,1.08-2.399,3.599-4.679,4.079s-1.2-1.919-1.2-1.919s3.839-2.559,3.6-3.259c-0.24-0.7-3.239-4.127-3.6-4.633
				c-0.359-0.505-1.318-2.185,1.2-4.464c0.796-0.72,2.519,1.194,1.679,1.917c-0.839,0.723-1.598,1.678-0.738,2.52
				S70.16,67.558,69.921,68.637z M77.614,67.538c-0.377,3.379-2.659,2.779-2.659,2.779l-1.556-2.779c0,0,2.759-0.459,2.759-1.299
				S73.879,62.04,72.2,61.08c-1.68-0.96,1.563-6.013,2.758-5.758c0.47,0.1,2.879,0.6,2.64,1.319s-2.52,2.993-2.64,3.716
				C74.839,61.08,77.991,64.159,77.614,67.538z M93.173,69.776c-2.26,1.86-5.979,2.44-8.258,0.582s0-3.88,0-3.88
				s2.776,0.72,3.967-1.439c1.191-2.159-0.607-4.449-2.646-5.403c-2.04-0.955-4.799-4.906-4.319-6.769s2.474-4.084,3.599-4.382
				c1.801-0.476,4.439-1.32,6.238,0s1.377,3.359,1.377,3.359s-7.015,1.08-6.895,2.759c0.119,1.679,4.078,5.272,5.037,5.755
				C92.232,60.84,95.434,67.916,93.173,69.776z M105.069,71.766c-0.841,0.35-2.641-2.409-2.641-2.889s-1.319,3.556-3.838,2.618
				c-2.52-0.938-2.279-2.498-2.279-3.458s-1.08-8.715,0-9.756c0.433-0.417,2.818,0.291,3.059,1.254
				c0.239,0.964-0.54,6.702-0.061,6.702c0.48,0,2.999,0.744,3.119-0.708s-0.6-5.296,0-5.173s1.199-0.603,1.32,0
				c0.119,0.603,0.842,7.44,1.32,7.8s0.479,1.762,0.959,2.2C106.507,70.796,105.91,71.416,105.069,71.766z M115.864,71.766
				c-0.6,0.59-0.6,1.676-1.199,1.013s-1.59-7.437-2.313-7.801c-0.725-0.365-2.365-0.429-2.605,1.555s0,4.701,0,4.962
				s-1.32,0.818-1.32,0s-0.48-7.287-0.12-8.011s-1.679-2.41-0.96-3.126c0.537-0.535,2.879-0.483,3.359,0s1.199,1.804,1.68,1.563
				c0.479-0.241,1.199-0.568,1.799,0.915S116.464,71.176,115.864,71.766z M118.863,72.987c-0.72,0.089-2.04-0.433-1.319-1.492
				c0.719-1.059,3.238-0.821,2.998-1.719c-0.239-0.898-3.175-2.938-3.207-5.337c-0.031-2.399,2.488-3.359,2.488-3.359
				c0.6,0.72,1.679,1.449,1.318,2.404c-0.359,0.955-1.679,1.459-1.318,2.047c0.359,0.587,2.158,3.189,2.158,4.827
				S119.583,72.898,118.863,72.987z M131.099,74.396c-0.84,0-3.847-2.677-3.363-4.038c0.484-1.361-1.555,0-1.555,0
				s0.84,4.157-0.12,4.637s-1.679,0.6-1.439-0.72s1.44-6.712,1.2-7.794s-1.68-9.839-1.68-9.839s1.68-1.799,2.279,0
				s0.959,8.156,1.439,8.336c0.479,0.181,1.68,0.426,2.039,1.503S131.938,74.396,131.099,74.396z M136.048,69.776
				c-0.15,0.901,0,3.003,0,3.003s-0.582,0.543-1.326,0s-1.309-2.463-1.326-4.142c-0.004-0.36,0.511-1.518,1.326-1.599
				S136.2,68.875,136.048,69.776z M144.653,72.779c-0.6-0.303-1.199-1.181-1.439-2.421c-0.239-1.241,0.121-2.721-0.6-2.82
				c-0.719-0.1-3.238,0.515-2.879,1.347c0.36,0.832,1.199,3.742,0.6,3.906s-2.519,0.827-2.158,0.196c0.359-0.631,0.84-4.908,0-5.948
				s-1.08-1.521-0.721-2.061c0.496-0.742,2.16,2.261,2.879,2.061c0.721-0.201,0.721-1.615,1.439-1.508
				c0.721,0.107,2.04-0.007,2.04,0.95S145.253,73.083,144.653,72.779z"/>
			<path fill="#2EA7E0" d="M91.633,82.313c-3.839,1.2-9.956,2.519-13.675,2.519s-11.756-4.318-11.756-4.318l-15.955,0.66
				c0,0-11.396,5.818-12.835,5.938l-0.601,3.119c0,0,4.68,1.799,6.958,0.72s3.719-5.518,14.515-4.124
				c10.797,1.394,11.637,4.244,11.637,4.244s2.879,1.56,7.977,2.039c5.1,0.479,10.736-5.158,14.695-4.798
				c3.958,0.36,7.677,2.16,13.314,3.839c5.639,1.679,12.477-8.877,12.477-8.877l-14.635-2.759
				C103.749,80.514,95.472,81.113,91.633,82.313z"/>
			<path fill="#2EA7E0" d="M229.344,21.734c-1.2,0.959-16.435,3.239-20.753,3.239s-8.396-3.718-11.516-4.438
				s-6.957,2.279-14.035,2.879s-12.235-4.679-14.035-4.199c-1.799,0.48-10.316,1.799-14.875,2.04s-12.115,7.917-14.912,9.117
				c-2.796,1.2-17.476-0.6-20.834-0.48c-3.359,0.12-5.998,4.318-5.998,4.318l8.517,3.719l6.358-0.48l15.714-3.719l16.913,2.879
				l16.314,1.319c0,0,10.916-5.518,17.994-7.438s15.115,2.419,15.115,2.419s6.598-0.74,12.595-1.7s11.036,4.199,11.036,4.199
				l17.154-6.853C250.097,28.557,230.544,20.775,229.344,21.734z"/>
			<path fill="#2EA7E0" d="M153.698,74.042c-0.553,0.098-1.005,0.223-1.371,0.37C153.095,74.716,153.54,74.452,153.698,74.042z"/>
			<path fill="#2EA7E0" d="M152.331,68.038c-0.221-1.325-1.559-1.919-1.973-1.557s-1.746,1.057-1.746,1.057
				C148.492,69.077,152.552,69.362,152.331,68.038z"/>
		</g>
		<path d="M260.345,81.86c-2.161-2.461-1.684-9.946-8.264-11.782c-5.082-1.418-14.23,2.601-19.28,2.907s-11.017-5.355-15.454-6.121
			s-14.078,3.213-14.078,3.213s-4.59-2.295-5.814-3.367s-10.711-3.366-13.16-2.907c-2.447,0.459-11.17,1.836-16.373-0.765
			c-3.592-1.796-9.027-9.181-14.536-11.935c-4.044-2.022-9.64-2.143-12.395-2.295s-4.284-2.142-5.202-2.907
			c-0.919-0.765-8.723-5.203-8.723-5.203s13.007-4.285,18.975-4.285s11.018,3.979,19.434,4.438
			c10.857,0.592,17.902-3.213,26.625-4.744c8.721-1.53,11.936,0.765,11.936,0.765s1.836-0.459-3.367,4.896
			s-7.957,3.979-14.689,4.744s-11.477,2.907-10.1,8.11c1.378,5.203,9.487,5.509,13.619,5.356s9.559-1.196,15.455-0.459
			c7.344,0.918,11.477,6.124,17.291,6.121c8.876-0.005,16.832-5.203,23.258-5.968c6.428-0.765,3.367,1.224,13.619,2.142
			s13.465-8.416,13.465-8.416s-2.084-0.553-6.521-2.236c-4.634-1.757-4.648-3.272-6.791-6.18c-2.142-2.908-3.213-5.967-6.579-6.426
			s-13.466-0.765-13.466-0.765c0-0.918,12.242-3.673,13.006-3.673c0.766,0,3.979-0.306,5.815-1.086s2.296-6.715,2.296-6.715
			s-4.744,1.375-13.313,0c-5.924-0.951-14.69-5.357-16.373-6.429c-1.684-1.071-3.818-3.266-6.58-4.284
			c-1.68-0.62-11.629,0.306-19.739-2.45c-3.409-1.159-16.373-8.722-19.128-10.864c-2.754-2.143-15.607-3.06-19.433-1.53
			s-10.099,9.028-13.618,11.017s-5.662,0.918-11.018,3.061c-4.314,1.726-8.263,7.651-11.17,7.192c-2.908-0.459-7.039-0.918-14.996,0
			c-6.4,0.738-9.182,8.416-7.804,11.002s7.804,6.289,7.804,6.289s-5.662,1.936-8.875,2.142s-5.968-2.601-7.957-3.825
			s-6.566-5.052-10.559-5.356c-7.641-0.583-8.568,2.143-10.252,2.908c-1.683,0.765-2.143-0.459-3.52-1.224s-7.65-3.979-11.781-4.744
			c-4.132-0.765-10.559-0.612-16.832,3.81c-6.274,4.422-7.651,10.268-14.23,12.716c-6.58,2.448-9.488-1.53-13.008-1.53
			s-7.191,5.968-9.945,8.416c0,0,0.15,1.531-1.686,1.531s-7.498,3.519-6.119,5.814c1.377,2.295,3.06,5.815,6.12,5.355
			s9.946-2.142,12.548-2.142s9.181,3.213,9.181,3.213s-3.673,1.683-5.661,1.683c-1.99,0-11.171,3.52-9.488,8.569
			c1.684,5.05,2.602,5.508,8.569,5.967s13.925-1.53,16.067-2.448c2.142-0.918,5.355,0.765,5.355,0.765s-1.377,2.907-3.213,2.754
			s-10.253,3.061-7.805,6.733s8.416,2.907,13.619,2.295c5.202-0.612,12.854-1.683,18.056-0.459s7.957,3.979,13.313,5.509
			s7.192,0.459,12.089-1.071s11.936-1.224,14.077-0.918s9.793,4.59,14.689,1.683s11.019-10.405,11.019-10.405
			s4.744-0.306,11.629-3.213c6.887-2.907,7.957-4.131,16.985-4.438c4.932-0.167,10.864,0.918,10.864,0.918s-1.836,1.683-3.826,2.754
			c-1.988,1.071-4.896,5.203-6.732,5.968s-6.12,1.224-6.12,1.224s3.213,5.203,8.11,7.192c4.896,1.989,12.547,1.377,20.656-0.765
			c8.11-2.142,13.619,0.153,15.455,0.612s7.191,4.132,17.598,4.591c10.404,0.459,11.629-2.295,13.924-2.907
			c2.296-0.612,9.793-4.285,14.843-2.449s16.373,0.629,23.565-2.448c5.16-2.208,8.722-7.804,8.722-7.804
			S265.853,88.134,260.345,81.86z M240.757,45.136c2.448-0.765,5.661-2.602,8.722-1.224s8.416,9.64,10.405,9.946
			s-6.121,2.754-9.182,2.448c-3.06-0.306-10.404-1.937-15.454,0.026s-9.181,4.718-12.089,4.564
			c-2.906-0.153-12.547-4.59-14.23-5.968c-1.683-1.377-12.395-0.153-14.077,0.459s-8.416,0.612-8.416-1.683
			s5.355-5.782,10.252-5.875s8.11-4.072,9.946-5.908s6.071-7.534,13.925-3.278c1.487,0.806,11.323,6.338,13.466,6.492
			C236.166,45.289,238.309,45.9,240.757,45.136z M112.222,31.211c-1.224-4.438,6.428-6.733,9.028-5.815s7.956,1.989,12.241,1.224
			c1.551-0.277,6.887-5.049,9.487-7.191s3.825-2.601,9.181-3.213s11.324-6.274,12.548-7.345s8.568-5.508,12.7-3.366
			s14.537,11.17,16.373,12.088s7.346,3.52,11.936,3.52s13.949-0.454,16.22,0c5.355,1.071,8.494,5.074,11.519,5.917
			c1.918,0.535,10.822,1.886,10.822,1.886s-11.629,5.993-14.689,4.909s-9.794-3.991-13.619-4.909s-9.793,4.116-9.793,4.116
			s-7.192-2.586-12.242-2.433c-5.049,0.153-13.158,5.203-16.678,5.356s-19.128-1.714-22.801-2.923
			c-3.672-1.209-11.629-1.667-15.148-1.515s-16.679,3.519-17.902,3.519C120.179,35.037,113.446,35.649,112.222,31.211z
			 M22.399,60.285c-4.131-1.989-4.59-2.295-7.65-2.142s-6.273,0.765-6.273,0.765s2.295-3.673,5.508-7.039
			c3.214-3.366,9.641-2.754,12.089-1.683c2.388,1.045,8.722-1.071,11.323-2.448s9.028-9.946,12.395-11.935s9.946-3.213,14.384,0
			s6.579,4.438,6.579,4.438s-3.824,7.192-10.252,8.11c-6.426,0.918-12.633,1.46-15.914,2.628c-5.508,1.962-8.416,7.164-10.099,9.307
			S26.531,62.274,22.399,60.285z M112.222,93.184c-5.967,0.612-9.945-1.071-13.465-2.448s-10.406,1.942-11.783,2.578
			s-9.945,0.789-14.536-2.425s-12.854-3.825-14.384-3.366s-10.099,3.52-12.854,3.061c-2.754-0.459-7.957-0.306-7.191-1.377
			s4.743-2.257,7.804-3.347s4.284-1.855,6.733-1.855c2.447,0,8.129,1.794,13.771,0.765c6.465-1.179,10.252-1.989,10.252-1.989
			c1.988-1.071,5.968-4.744,9.793-4.744s8.416,0.918,14.078,3.826c5.661,2.907,18.82,3.52,18.82,3.52S118.19,92.572,112.222,93.184z
			 M164.095,76.811c-7.191-1.224-8.875-1.989-17.138-1.377s-16.679,4.131-19.28,4.896s-13.466,0.306-20.963-1.683
			c-7.498-1.989-9.487-5.355-16.985-5.203s-21.27,3.52-23.718,4.285s-8.722,1.836-14.689-0.612s-5.662-4.285-10.1-3.213
			s-19.434,7.039-20.657,4.131s-4.302-5.495,2.755-7.039c4.896-1.071,3.822,0.307,12.546-2.907c3.028-1.116,6.121-6.121,6.58-8.11
			s2.602-6.733,5.661-6.274c3.061,0.459,10.252,1.774,15.455-0.031s9.181-5.324,10.559-7.772c1.377-2.448,4.748-6.7,7.191-7.039
			c5.509-0.765,6.428,0.306,15.914,5.968s12.241-0.153,16.679,0.459c10.711,1.478,9.029,4.59,13.925,7.039
			c6.076,3.04,9.947,2.601,13.008,2.142s7.497,1.071,11.017,3.825s11.935,8.672,15.302,9.794c8.723,2.907,14.537,1.989,16.525,1.989
			c1.99,0,6.428,0.765,8.264,3.366c0,0-5.968,1.836-12.701,2.601C175.204,76.504,171.287,78.035,164.095,76.811z M247.796,91.653
			c-2.755-0.765-12.549-2.448-14.996-1.224c-2.449,1.224-10.559,6.273-17.139,7.498c-6.579,1.224-17.443-5.968-19.127-7.345
			s-5.355-3.366-13.006-1.377c-7.651,1.989-16.832,3.519-16.985,2.601s9.8-7.416,19.893-7.804c7.956-0.306,7.497-5.354,8.722-5.967
			s2.908-0.766,3.52-1.225s4.131,0.766,8.875,1.225c2.031,0.196,4.743-3.061,8.263-2.602s7.345,1.836,11.936,3.519
			s8.568,1.071,11.476,0c2.908-1.071,5.51-3.366,7.498-2.601c1.99,0.765,7.039,7.231,8.723,9.507s3.979,3.041,3.979,3.041
			S250.55,92.418,247.796,91.653z"/>
	</g>
</g>
</svg>
