<?xml version="1.0" encoding="utf-8"?>
<svg version="1.1" id="レイヤー_1" xmlns="http://www.w3.org/2000/svg" xmlns:xlink="http://www.w3.org/1999/xlink" x="0px"
	 y="0px" width="200" height="200" viewBox="15 -80 266 330" enable-background="new 0 0 266.548 290.342"
	 xml:space="preserve">
<g>
	<g>
		<path d="M5.072,63.889c1.667-1.376,4.42-2.029,4.42-2.029s-0.145-1.16-1.231-1.667c-1.087-0.507-1.015-1.812-1.015-1.812
			s-4.203,0.724-5.507,2.029C0.435,61.715,0,64.541,0,65.41s2.173,3.986,2.101,3.406C2.029,68.236,3.405,65.266,5.072,63.889z"/>
		<path d="M8.55,76.351l2.898,0.942c0,0,0.797-5.361,1.304-6.738c0.507-1.377,4.709-2.971,3.188-3.116s-4.492-3.804-4.492-3.804
			c-2.898,1.558-3.116,4.094-3.768,5.253C7.028,70.046,8.55,76.351,8.55,76.351z"/>
		<path d="M248.372,159.962c-1.885-2.536-4.855-5.435-5.145-6.231c-0.289-0.798,2.174-3.551,2.391-4.202
			c0.217-0.652-0.217-4.058-0.797-4.493c-0.58-0.434-9.709-0.724-10.145-0.361c-0.434,0.362-14.418,9.926-18.838,12.027
			c-4.42,2.101-13.767,5.507-19.562,6.812c-4.181,0.94-10.506,1.23-11.955,0.869c-1.449-0.362-5.941-3.84-7.536-4.71
			c-1.594-0.87-9.201-5.725-10.216-6.812c-1.015-1.086-1.159-7.39-1.159-8.767c0-1.376,0.942-8.839,1.594-9.997
			c0.652-1.16,2.319-1.74,3.914-2.03c1.594-0.289,9.273-2.318,12.606-3.26s9.563-5,9.782-5.579c0.217-0.58,0.434-2.971,0.651-3.768
			s1.595-1.885,0.942-2.247s-7.391,3.188-9.709,4.131c-2.318,0.941-13.26,4.71-16.158,5.289c-2.898,0.58-11.738,2.392-15.867,2.898
			c-4.131,0.508-11.955,0.725-12.607,0.58s-2.639,1.821-3.623,2.391c-1.13,0.654-1.855,2.612-2.826,2.753
			c-2.299,0.336-4.275-8.694-4.13-9.492c0.145-0.796,1.087-1.521,2.102-1.811c1.014-0.29,1.884,2.102,2.463,1.087
			c0.58-1.015-1.594-5.651-1.449-6.738c0.145-1.088,0.87-1.595,1.304-2.102s1.956,3.768,2.319,3.622
			c0.362-0.145,0.29-0.579,0.507-1.738s1.449-3.912,2.753-3.768c1.305,0.145,2.971,4.999,3.115,6.594
			c0.146,1.594,2.898,4.782,3.695,5.071s7.172-1.448,10.795-1.956s14.418-3.768,17.824-5.724c3.404-1.957,9.129-3.769,9.201-3.769
			c0.073,0-0.797-1.883-1.086-1.883c-0.29,0-4.058,1.448-6.666,2.028c-2.609,0.58-5.652,1.884-6.957-0.146
			c-1.304-2.028,2.175-4.347,4.131-5.288c1.957-0.942,7.101-5.579,8.188-5.435c1.088,0.145,5.217-0.652,10.145-0.652
			c4.926,0,11.52-2.029,12.39-1.521c0.869,0.508,7.317,4.855,9.927,7.173c2.608,2.318,16.736,9.781,18.041,11.229
			c1.304,1.449,2.246,8.551,2.391,12.028c0.145,3.479,3.043,9.347,4.854,9.057c1.812-0.289,3.622-2.245,3.695-7.391
			c0.073-5.144-1.594-8.331-1.594-8.331s-2.464-7.245-6.884-10.579c-2.906-2.191-10.578-8.187-17.606-11.23
			c-7.028-3.043-9.273-5.432-9.2-5.649c0.072-0.218,3.912-7.753,4.057-8.116c0.146-0.363,0.58-0.145,3.623-0.363
			c3.043-0.217,7.101-3.333,6.738-7.752c-0.361-4.419-6.23-8.405-4.854-8.478c1.377-0.072,6.666-1.811,7.245-3.551
			c0.58-1.739,1.739-4.999-3.768-6.086c-5.506-1.086-9.057-2.535-12.896-4.927c-1.651-1.028-6.014-4.927-8.332-7.535
			c-2.319-2.608-4.855-4.348-8.406-5c-3.72-0.683-4.637,0.435-4.926,3.115c-0.291,2.682,1.955,5.652,2.246,6.377
			c0.289,0.724-0.943,2.028-0.943,2.028s-1.303-0.434-2.824-1.159c-1.521-0.725-3.841-1.45-4.783-1.45
			c-0.941,0-3.623,2.175-4.275,3.261c-0.651,1.086-0.434,3.043-0.796,3.478c-1.378,1.655-1.681,1.291-3.69,2.493
			c-1.711,1.023-3.038,5.03-3.412,6.258c-0.059-0.376-0.623-0.975-3.216-1.494c-4.144-0.829-7.665,1.865-7.458,4.972
			s3.107,5.385,5.18,6.629c2.071,1.242-0.207,3.314-0.207,4.556c0,1.244,1.035,8.286,2.07,9.53c1.037,1.242,8.701,4.972,9.736,5.385
			c1.035,0.415-2.072,2.072-2.072,2.072s-8.699-2.072-11.186-2.693c-2.485-0.621-8.906-1.242-8.906-1.242
			c-0.829,0.206-2.072-5.386-2.693-8.286c-0.621-2.9-3.26-6.251-4.558-7.043c-2.298-1.403-3.521,0.208-4.764,1.243
			c-1.243,1.035-1.657-1.036-4.558-0.829c-2.9,0.207-3.729,4.143-4.557,4.765c-0.829,0.621-4.143-0.622-5.386,0
			c-1.243,0.621-1.657,2.899-1.657,2.899s-1.657-0.621-4.765-1.45c-3.107-0.829-5.8-0.621-6.628-1.45
			c-0.828-0.829-3.936-10.771-4.35-12.222c-0.414-1.45-2.9-6.835-4.143-7.457c-1.243-0.622-11.187,0-11.187,0
			s-11.393,0.207-15.95,2.278c-3.07,1.395-4.558,2.9-4.558,2.9s-3.308-3.118-5.593-4.143c-1.862-0.835-7.665-1.451-7.665-1.451
			l-2.279-15.122c0,0-6.214-0.829-10.564,0s-7.458,3.108-9.529,3.521c-2.072,0.416-4.765,0-4.765,0s-0.15,11.466-0.222,12.263
			c-0.072,0.797-5.145,2.392-7.463,3.986c-2.318,1.594-9.129,3.549-11.013,11.592c-1.884,8.042,6.086,14.127,5.941,14.489
			s-3.405,2.319-9.419,7.464c-7.028,6.012-6.159,15.793-5.652,20.503c0.507,4.709,8.187,10.434,8.187,11.23
			c0,0.798-3.479,10.144,0.652,16.592s13.332,9.274,13.477,10.217c0.145,0.941-5.289-0.291-14.201,9.419
			c-8.912,9.708-5,23.547-0.798,29.778c4.203,6.23,14.926,12.1,24.346,12.606c9.419,0.507,19.055-3.26,19.055-3.26
			s15.94,8.622,25.502,9.057c4.869,0.222,20.577-0.289,31.589-4.13c11.013-3.841,18.549-8.55,23.114-14.925
			c2.691-3.761,5.724-12.682,5.869-15.797c0.145-3.115-0.941-18.764-3.985-23.401c-3.043-4.636-10.506-10.65-10.724-10.94
			c-0.218-0.29,2.318-2.825,4.274-4.42c1.957-1.594,3.043-5.724,2.971-6.376s1.015-2.754,1.594-3.116
			c0.58-0.362,2.608-1.377,3.768-1.521s2.609-2.607,2.609-2.607s3.26,0.145,6.448,0.022c2.714-0.104,8.114-0.82,8.839-0.82
			s-0.435,4.514-0.435,6.614c0,2.102,1.159,7.225,0.798,7.516c-0.362,0.289-7.318-1.087-11.521,4.563
			c-3.883,5.223-5.217,15.216-2.971,19.997c2.247,4.782,11.013,8.839,10.94,9.201s-0.724,1.014-1.449,1.449
			c-0.725,0.436-2.536,2.246-2.753,4.348c-0.218,2.101,2.318,3.26,2.174,3.695c-0.145,0.434-0.797,0.435-1.015,2.535
			s2.608,2.826,2.173,2.899c-0.434,0.071-1.666,1.955-0.932,4.3c0.379,1.207,6.873,2.004,13.539,1.713
			c6.666-0.289,9.563-2.318,9.563-2.318s4.059,1.956,5.436,2.971c1.375,1.015,10.288,3.261,12.896,3.405s11.666,0.651,10.723,0.869
			c-0.941,0.218-7.317,1.087-7.824,1.449s-2.464,2.536-2.536,3.188s2.174,1.304,2.319,1.884c0.145,0.579-1.885,1.956-1.595,2.753
			c0.29,0.798,1.667,0.652,1.376,1.087c-0.289,0.435-1.014,1.521-1.376,1.594s-0.072,2.608,0.507,3.769
			c0.58,1.159,2.392,1.376,4.42,1.448c2.029,0.072,7.174,0.652,12.1,0c4.928-0.652,12.318-3.26,16.811-4.781
			c4.492-1.522,5.145-6.087,5.651-9.71s-0.869-8.984-5.216-11.521c-4.348-2.535-11.666-3.333-12.028-2.607
			c-0.362,0.725,0.651,1.159,1.304,1.884s7.971,7.391,8.623,11.158c0.99,5.728-1.957,7.173-5.941,9.491s-14.201,3.55-16.23,3.695
			s-1.885-1.377-1.449-1.666c0.435-0.289,1.812-0.072,1.666-0.58c-0.145-0.508-2.971-1.377-2.028-1.884s3.985,0.145,4.71,0
			s1.014-1.884,0.507-2.392s-4.347-2.174-4.13-2.753s7.101-0.941,8.622-1.376s4.42-1.378,4.42-2.609s-3.043-5.217-3.623-5.579
			c-0.579-0.361-5.36-0.65-6.81-1.086c-1.449-0.434-10.579-1.665-13.115-2.245s-16.592-2.319-19.273-7.291
			c-4.26-7.897-1.956-11.476,1.738-14.301c3.246-2.482,9.854-2.971,11.52-3.333s2.174-1.812,3.623-2.608
			c1.449-0.798,3.405-1.231,4.637-1.305c1.232-0.071,12.752-2.681,15.723-3.622c2.971-0.942,14.781-4.348,17.318-6.015
			c2.535-1.666,8.984-5.361,10.07-5.434c1.088-0.072,0.942,0.652,3.044,2.608c2.101,1.956,2.971,5.651,2.608,9.202
			c-0.363,3.549-6.811,11.014-8.55,11.955s-13.332,4.563-20.795,5.145c-7.463,0.58-9.71-1.015-10.144-1.595
			c-0.436-0.578-3.188,1.159-3.479,1.45c-0.29,0.289,0.29,0.725,1.957,2.317c1.666,1.594,8.115,3.188,9.998,3.261
			c1.885,0.073,1.739,1.739,3.115,1.667c1.377-0.072,10,2.536,19.926-2.536s14.129-14.491,14.709-19.563
			C251.559,165.613,250.254,162.499,248.372,159.962z M174.254,69.232c0.356-0.452,0.979-1.076,0.802-1.432s0.089-0.891,0.089-0.891
			s0.756-0.173,1.158,0c0.596,0.256,2.85,1.621,3.206,2.414c0.356,0.792,0.801,2.396-0.802,2.218
			C177.104,71.364,173.899,69.684,174.254,69.232z M165.838,78.132c-2.004,0.623-3.606-1.706-3.606-2.055s0.267-2.755,2.671-2.042
			c0.705,0.209,1.782,1.514,1.871,2.049C166.863,76.618,167.842,77.508,165.838,78.132z M171.583,91.223
			c0.179-1.514,0.268-2.227,1.247-2.404c0.979-0.179,4.208,2.404,4.208,2.404s1.135-2.405,1.67-2.583
			c0.535-0.178-3.295-6.056-3.829-6.234s-3.562,0.892-4.097,1.247s-1.336,1.247-1.336,1.247s-1.426-0.356-1.692-0.713
			s-0.267-2.583,0.445-4.097c0.712-1.514,3.206-7.213,3.563-7.658c0.356-0.446,1.069-1.96,1.959-1.247
			c0.891,0.713,2.315,1.603,2.315,1.603s-1.463,1.258-1.809,1.781c-0.652,0.99-1.13,0.625-0.507,2.049
			c0.624,1.424,3.43-0.026,3.317-0.548c-0.111-0.521-0.512-1.055,0-1.589c0.512-0.535,2.383-0.09,2.383-0.09
			c0.534,0,1.514,0.725,1.514,0.725s-0.268-1.882,0.534-1.704s1.068,3.773,1.515,4.826c0.445,1.051,1.246,1.764,0.623,2.387
			c-0.623,0.625-1.692,0.446-3.117,2.939c-1.425,2.494-1.426,4.454,0.623,7.926s3.563,4.453,3.563,4.453s2.227,0.534,2.582,0.446
			c0.357-0.089-2.403-3.296-2.938-5.789c-0.535-2.494,2.289-5.076,2.97-5.254s4.511,1.504,6.915,1.865
			c2.404,0.361,9.529,0.807,9.529,0.807s0.178,3.74,0,4.363c-0.179,0.624-4.365,4.428-8.639,5.643
			c-4.275,1.214-6.502,1.991-12.023,0C177.549,96.032,171.405,92.737,171.583,91.223z M163.567,115
			c-0.445,0.801-0.534,2.582-0.801,3.206c-0.268,0.623-6.946,0.623-8.461,1.068c-1.514,0.445-5.788,1.158-7.035,0
			s-3.83-6.5-3.74-7.125c0.089-0.622-0.268-2.671,0.533-2.582c0.803,0.09,8.201,1.087,9.708,0.979c2.316-0.165,6.411-0.445,7.926,0
			c1.515,0.446,3.206,1.425,3.206,1.425S164.012,114.199,163.567,115z M129.993,95.497c0.534-1.691,1.336-1.691,2.583-0.534
			c1.247,1.159,2.612,2.048,2.909,1.96c0.297-0.089-0.772-3.473-1.128-4.453s-0.891-1.159-0.445-1.514
			c0.445-0.356,2.138-2.761,2.939-1.87c0.801,0.89,1.068,5.431,1.781,5.521c0.712,0.088,1.336,0.979,1.604,0.445
			c0.267-0.534,0.534-4.631,0.534-5.255c0-0.623-0.089-2.226,2.048-2.582c0.883-0.147,1.87,3.116,1.87,5.432
			c0,2.315-0.802,4.631-0.534,5.165s1.246,2.315,1.87,2.673c0.624,0.355,7.036,1.157,8.817,1.246
			c1.78,0.089,8.816,0.107,11.31,0.544c2.493,0.436,5.076,2.753,5.076,2.753s-1.603,1.602-2.315,1.868
			c-0.713,0.268-1.871,1.939-1.871,1.939s-7.035-1.584-11.398-1.939s-8.906,0.268-10.865,0.09s-4.631-0.045-4.898-0.869
			c-0.267-0.823-3.027-5.454-4.987-6.167C132.932,99.238,129.458,97.189,129.993,95.497z M82.598,75.41
			c0.615-0.075,6.739-2.536,8.043-2.753c1.304-0.218,9.708-1.16,10.651-0.436c0.942,0.725,1.304,4.347,1.667,5.434
			c0.362,1.087,1.232,5.941,0.797,6.231c-0.435,0.291-5,0.146-7.318,0.435c-2.318,0.289-8.042,1.735-7.825,1.048
			c0.217-0.686,3.913-5.955,4.058-6.617c0.145-0.663-3.26-2.981-3.406-3.417c-0.145-0.434-1.812,1.45-2.898,1.957
			C85.279,77.8,80.207,75.7,82.598,75.41z M49.259,62.875c0.59-0.073,0.155-1.16-0.569-1.522s-1.593-1.449-0.145-2.029
			c0.425-0.17,3.912-3.261,4.275-3.333c0.362-0.072-0.145,1.232,0.435,2.753c0.58,1.522,1.087,6.667,0.87,7.464
			c-0.218,0.796-8.478,1.739-9.782,1.521S48.668,62.947,49.259,62.875z M21.156,89.031c0.362-7.68,8.26-11.737,11.521-13.477
			c3.26-1.739,12.36-4.965,16.81-4.492c1.449,0.153,8.695,1.086,10.724,1.883c2.028,0.797,4.347,0.796,7.318,4.058
			c2.971,3.26,4.71,7.68,5.217,8.984s1.304,2.318,0.435,2.608c-0.869,0.29-6.594,3.188-8.767,4.637
			c-2.174,1.449-7.172,6.158-8.477,6.448s-12.39-1.014-19.056-0.579s-10-0.435-10.434,0.072s-1.087,0.55-1.087,0.55
			S20.794,96.711,21.156,89.031z M45.501,113.375c-0.362-0.579-2.826-0.711-2.898-1.188s0.725-3.015,0.435-3.015
			c-0.29,0-4.422-1.304-3.55-1.521c1.758-0.438,10.145-2.029,10.289-1.232c0.145,0.798-0.87,3.043-1.304,5.29
			c-0.435,2.246-0.357,4.927-1.121,5.289c-0.763,0.362-4.313,1.885-4.386,0.797C42.892,116.708,45.863,113.956,45.501,113.375z
			 M12.969,131.924c-0.652-2.028-4.347-8.837-3.043-14.273c1.304-5.435,6.318-11.773,10.144-13.114
			c3.29-1.154,7.391-2.609,10.144-2.682c2.753-0.072,8.912,0.725,9.781,1.812c0.87,1.087-2.753,0.652-4.782,0.87
			c-2.029,0.217-5.724,0.573-6.521,1.663c-0.797,1.09-0.869,1.886-0.725,3.046c0.145,1.159,0.942,6.158,1.087,6.812
			c0.145,0.651,0.652,4.274,0.652,4.491c0,0.218-6.231,1.957-8.26,4.058c-2.029,2.102-5.362,7.681-5.941,8.332
			C14.925,133.59,13.621,133.953,12.969,131.924z M20.399,153.964c-3.702-6.533-4.792-12.195-0.98-17.423
			c3.811-5.227,10.311-10.976,16.116-11.869c8.494-1.307,11.542,0,11.542,0c-0.218,1.742-1.851,8.82,2.287,13.612
			c4.138,4.791,11.378,8.793,14.265,9.8c2.088,0.729,2.069,1.742,2.722,1.96s-7.513,3.376-7.513,3.812s-0.218-5.118-0.218-5.118
			s-6.486,0.835-12.042,1.524c-6.143,0.763-11.696-0.653-11.696-0.653v4.791c0,0,11.107-0.544,12.414-1.089
			c1.307-0.544,4.465-0.544,6.316-0.436c1.851,0.109,4.247,1.524,4.247,1.524s-5.227,3.158-6.207,4.574
			c-0.98,1.415-2.504,3.702-2.504,3.702s-1.525-0.327-7.078,0.653c-5.554,0.979-7.187,1.197-7.187,1.197
			S24.101,160.499,20.399,153.964z M50.453,209.935c-0.327,0.544-11.76,1.307-20.036,0s-16.225-9.909-16.225-18.62
			c0-8.712,10.454-16.77,12.741-17.968c2.287-1.197,5.444-3.593,11.542-4.138c6.098-0.545,8.058-0.871,8.058-0.871
			s-1.524,5.662-1.307,5.989c0.218,0.326-4.029,0.326-6.751,1.96c-2.723,1.633-3.594,4.573-2.614,6.315s4.838,2.831,5.142,3.594
			c0.303,0.762,0,3.375,0,3.375s-3.089,1.089-5.531,2.614c-2.442,1.524-2.676,4.138,0,6.315c2.676,2.178,4.636,0,5.29,1.197
			c0.653,1.198,2.504,4.683,3.92,5.228c1.416,0.544,5.118,2.722,5.227,3.157S50.78,209.39,50.453,209.935z M132.013,174.328
			c1.851,9.582,0.544,22.214-10.018,30.599s-22.323,9.582-30.271,9.364c-7.949-0.218-14.265-1.197-15.027-2.505
			c-0.762-1.307-1.524-5.335-2.069-6.533c-0.544-1.197-1.851-2.286-1.851-2.286s-2.94,2.939-3.267,3.375
			c-0.327,0.436-1.089,1.198-1.633,1.307c-0.544,0.109-1.45-1.96-1.487-2.613s0.146-2.504,0-3.594
			c-0.146-1.089-0.799-2.939-0.799-3.484c0-0.544,0.653-2.396,0-1.96s-2.722,4.029-2.722,5.336s-1.198,4.029-2.396,4.029
			s-1.633-4.9-1.633-7.949s1.96-7.188,1.96-7.188l-3.485-1.307c0,0-1.851,3.268-2.178,5.445s-2.504,3.049-2.722,2.178
			s-3.93-12.196,1.792-23.63s13.779-21.996,23.144-23.303s20.254,0,20.254,0c3.267,0.109,13.72,1.742,19.927,6.207
			S130.162,164.745,132.013,174.328z M125.479,122.712c0,2.723,0.327,8.494,1.524,10.454s1.633,4.246,1.524,4.9
			c-0.109,0.653-3.267,6.533-4.355,8.166c-1.089,1.634-3.594,2.723-3.594,2.723s-6.642-4.9-14.918-6.533
			c-8.276-1.634-21.166-1.724-23.629-1.416c-6.098,0.763-11.869,4.683-13.285,5.118c-1.416,0.436-7.295-3.702-8.167-4.355
			s-4.9-7.586-6.098-17.677s1.35-18.826,10.454-25.227c13.938-9.8,30.708-7.623,30.708-7.623c4.682,0,13.394,1.198,16.987,1.96
			c3.594,0.762,12.414,5.553,13.394,6.316c0.98,0.762,4.573,2.613,4.573,3.267s-0.327,2.287,0,3.158s2.613,2.722,2.504,3.484
			c-0.109,0.762-2.287,1.851-2.831,2.939s0,2.831-1.089,3.812S125.479,119.991,125.479,122.712z M168.823,198.627
			c-0.625,0.088-5.611,1.068-6.591,1.068s-3.117-0.534-3.117-1.068s1.515-1.336,1.336-2.049c-0.179-0.712-2.583-0.89-2.315-1.87
			c0.268-0.979,2.85-0.622,3.651-0.534c0.802,0.089,0.802-0.445,0.089-1.335c-0.713-0.892-5.521-1.979-5.076-2.682
			c0.445-0.703,0.979-2.217,1.691-2.396c0.713-0.178,2.404-0.385,3.207-0.445c0.731-0.056,4.007,0,4.363,0.891
			s0.535,3.651,1.336,4.898c0.801,1.246,1.959,2.938,2.049,3.473C169.535,197.113,169.446,198.539,168.823,198.627z
			 M179.063,170.128c-0.623,0.089-4.451,0-7.658,1.96c-3.207,1.958-4.097,4.452-4.008,4.986c0.089,0.535-0.268,3.473-0.268,3.829
			s-1.424,0.892-1.424,1.514c0,0.625-9.618-4.007-12.201-5.966c-2.582-1.959-5.24-3.65-5.254-12.468
			c-0.009-4.897,5.016-7.54,6.679-8.372c2.85-1.424,6.233-1.068,6.233-1.068c0.624,0.979,5.611,6.354,7.48,7.067
			c1.871,0.713,7.927,3.709,9.084,3.977c1.158,0.267,1.96,0.712,1.96,1.78S179.686,170.039,179.063,170.128z"/>
		<path d="M35.946,83.567c0.534-0.089,3.562-0.356,3.74-1.425s0.089-2.048-0.534-2.404c-0.623-0.356-1.069-0.534-1.514-0.892
			c-0.445-0.355-1.338,0.511-1.692,0.892c-0.517,0.556-0.534,1.958-0.712,2.493S35.412,83.656,35.946,83.567z"/>
		<path d="M58.834,79.827c-0.356,0.445,2.315,0.713,2.681,0.713s1.059-0.802,1.416-1.159c0.356-0.356,1.068,0.09,1.068-0.618
			c0-0.708,0.445-0.54,0-1.47c-0.445-0.93-3.651-1.563-4.097-1.296s-0.792,0.658-1.068,1.296
			C58.611,77.81,59.19,79.381,58.834,79.827z"/>
		<path d="M40.399,92.473c1.514-0.179,6.056,0.623,9.173,0.623c3.117,0,10.241,1.248,10.241,1.248V89.87
			c0,0-7.214-1.316-10.241-1.227c-3.028,0.089-10.242,0.713-12.095,1.069c-1.853,0.355-3.224,0-3.224,0v2.583
			C34.254,92.294,38.885,92.65,40.399,92.473z"/>
		<path d="M75.221,111.531c0,0,2.939,0.179,2.85-0.444c-0.089-0.624,0.445-2.316,0.891-2.939c0.445-0.624,0.356-0.534-0.535-1.425
			c-0.891-0.891-1.069-0.534-1.069-0.534h-3.206c-0.712,0-0.624,2.76,0,3.562S75.221,111.531,75.221,111.531z"/>
		<path d="M115.831,102.359c-0.534-0.179-2.049-0.019-2.316,0c-0.715,0.046-0.623,3.758-0.623,3.758s3.028,2.297,3.082,1.496
			c0.055-0.802,1.816-1.603,2.261-1.96c0.445-0.355,0-1.691,0-1.691S116.365,102.537,115.831,102.359z"/>
		<path d="M83.86,126.759c-4.364,0.09-10.687,3.563-10.687,3.563l1.069,4.453c0,0,9.351-0.444,13.448-0.444
			c4.096,0,15.229-1.248,17.811-1.782c2.582-0.535,7.837-2.227,7.837-2.227s-14.071-2.404-15.14-2.404S88.224,126.67,83.86,126.759z
			"/>
		<path d="M33.097,134.331c-0.624-0.091-1.88,0.362-2.227,0.444c-0.7,0.166-1.692-0.356-1.87,0.268
			c-0.178,0.623-0.089,0.802,0,1.336s0.356,2.315,0.445,3.027c0.089,0.713,4.008,0,4.008,0s0.534-1.87,0.801-2.404
			C34.521,136.467,33.72,134.418,33.097,134.331z"/>
		<path d="M100.602,168.882c1.514-1.692,0.891-4.72,0-5.789c-0.891-1.068-4.55-1.24-6.145-1.425
			c-3.878-0.449-9.44,1.781-9.618,4.186s0.624,5.076,4.453,5.345C93.121,171.465,99.087,170.574,100.602,168.882z"/>
		<path d="M98.375,179.213c-0.802-0.624-3.309,0.799-4.72,0.534c-1.425-0.268-6.501,3.295-6.679,3.74
			c-0.178,0.444,2.137,3.919,2.671,4.541c0.534,0.624-1.247,0.713-0.801,1.693c0.445,0.979,4.809,0,5.966,0
			c1.158,0,4.453-2.405,5.255-2.939c0.801-0.534,2.583-3.117,2.583-3.474C102.65,182.954,99.177,179.836,98.375,179.213z"/>
		<path d="M109.153,61.034c0.089-0.713,4.186-0.624,3.735-1.159c-0.45-0.534-2.667-4.363-4.448-5.075
			c-1.781-0.713-3.651-0.802-4.809-0.802s-5.878-0.534-5.878-0.534v3.846c0,0,2.138,0.25,6.145,1.051
			C107.906,59.164,109.063,61.746,109.153,61.034z"/>
		<path d="M108.262,48.477c2.583,0.356,4.626,3.117,4.626,3.117s4.636-0.891,4.547-1.959c-0.089-1.068-2.227-5.254-3.473-5.967
			s-9.796-3.027-10.419-2.76c-0.624,0.267-5.789,5.522-5.789,5.522l1.692,1.246C99.446,47.675,105.679,48.12,108.262,48.477z"/>
		<path d="M142.816,61.157c2.761,1.904,5.61,7.981,6.323,8.159c0.701,0.175,3.964-2.676,4.172-2.158
			c-0.143-0.498-1.135-4.45-2.48-6.001c-1.514-1.748-5.521-5.822-6.233-5.912s-7.303,0.802-7.303,0.802
			C137.294,57.027,140.055,59.253,142.816,61.157z"/>
		<path d="M153.325,67.179c-0.002-0.01-0.011-0.012-0.014-0.021C153.329,67.221,153.334,67.238,153.325,67.179z"/>
		<path d="M132.752,68.629c3.384,2.965,5.611,7.188,5.7,6.386s3.562-1.336,3.473-1.871s-1.603-4.63-2.137-5.432
			c-0.535-0.801-4.809-5.255-5.255-5.432c-0.445-0.177-3.117,0.355-3.829,0c0,0-1.336,2.938-1.604,2.938
			S129.368,65.665,132.752,68.629z"/>
	</g>
	<path d="M142.073,207.719h4.424c0,0,2.843,3.316,1.895,6.95c-0.947,3.633-3.063,5.213-3.063,5.213l-5.783-0.947
		c0,0,3.002-1.896,3.318-5.135C143.178,210.562,142.073,207.719,142.073,207.719z"/>
	<path d="M151.867,210.405h3.95c0,0,2.526,3.316,2.526,5.37s-0.79,5.529-0.79,5.529h-6.635c0,0,1.265-3.476,1.58-5.45
		C152.815,213.879,151.867,210.405,151.867,210.405z"/>
	<path d="M237.473,205.508l4.422-1.423c0,0,2.844,2.446,3.949,2.487c1.106,0.041,5.688,4.938,4.266,9.281s-5.688,5.45-5.688,5.45
		l-3.633-1.422c0,0,2.527-2.686,1.896-6.082C242.053,210.405,237.473,205.508,237.473,205.508z"/>
	<path d="M252.954,201.717l6.791,1.105c0,0,4.424,4.58,4.424,7.582c0,3.001-2.844,5.449-2.844,5.449l-8.371,4.817
		c0,0,5.686-5.528,4.264-11.215C255.796,203.771,252.954,201.717,252.954,201.717z"/>
	<path d="M264.8,198.557l8.056-1.422c0,0,3.949,11.688,3.791,15.56c-0.158,3.87-6.16,13.822-6.95,13.822s-4.106-3.634-4.106-3.634
		s4.922-0.909,4.265-11.058C269.418,205.067,264.8,198.557,264.8,198.557z"/>
</g>
<g>
	<path fill="#036EB8" d="M148.585,12.198c0,0,3.01,0,5.855-0.894s5.448-1.708,5.448-1.708l0.976,3.171c0,0-4.066,2.033-6.14,2.684
		c-2.073,0.65-5.489,1.301-5.489,1.301L148.585,12.198z"/>
	<path fill="#036EB8" d="M149.63,17.891c0,0,2.533,0.244,5.095,0s8.904-1.951,8.904-1.951s3.253,5.366,3.172,8.213
		c-0.081,2.846-2.766,9.839-5.937,11.628s-6.912,1.871-6.912,1.871s-0.243-4.066-0.813-4.554c-0.57-0.488,2.592,0.082,5.076-4.147
		c2.486-4.229,0-6.668,0-6.668s-7.191,1.301-7.516,1.301C150.375,23.583,150.269,18.461,149.63,17.891z"/>
	<path fill="#036EB8" d="M168.021,22.689l3.497-1.059c0,0,1.544,4.393,1.707,4.637c0.163,0.242-0.407,1.138-0.407,1.138h-2.18
		C170.638,27.405,168.021,23.99,168.021,22.689z"/>
	<path fill="#036EB8" d="M171.599,18.867c0,0,2.114-0.244,2.684-0.407c0.568-0.163,1.707-0.487,1.707-0.487s0.082,2.602,0.732,3.658
		c0.65,1.059,0.406,2.887,0.406,2.887l-4.311-1.504c0,0,0.001-2.195-0.405-2.602C172.005,20.005,171.599,18.867,171.599,18.867z"/>
	<path fill="#036EB8" d="M179,19.273h2.195c0,0,1.382,1.342,1.626,1.972s1.22,3.964,0.569,6.16c-0.65,2.194-3.334,5.366-3.334,5.366
		l-7.156-0.975c0,0,1.662-1.643,3.496-3.417C178.836,26.021,179,19.273,179,19.273z"/>
	<path fill="#036EB8" d="M180.137,13.174c0,0,0.569,0,1.87,0s2.277-1.871,2.277-1.871l0.325-3.741c0,0,4.229-1.057,4.798-1.545
		c0.569-0.488,0.406,4.228,0.406,4.228s4.148-0.325,4.717,0.164c0.569,0.487,2.033,2.683,2.602,3.252
		c0.57,0.569,1.627,4.147,1.221,4.311c-0.406,0.162-5.042,1.951-5.042,1.951l-0.813-3.984l-2.521,0.406c0,0-0.65,3.008,0,4.146
		c0.65,1.139,1.464,2.277,2.358,2.197c0.895-0.082,5.367-1.139,5.773-1.059c0.406,0.082,1.545,3.01,1.951,3.66
		c0.407,0.65-3.252,3.252-5.529,3.171c-2.277-0.082-6.668-1.057-7.156-2.44c-0.488-1.381-2.439-5.204-2.277-5.936
		c0.163-0.731-0.08-2.862-0.08-2.862h-4.88C180.137,17.224,180.462,14.719,180.137,13.174z"/>
	<path fill="#036EB8" d="M202.175,12.279c0,0,2.357,1.463,2.684,2.196c0.324,0.732,2.439,7.156,2.439,7.156
		s-3.335,1.383-4.148,0.895C202.337,22.038,202.011,12.93,202.175,12.279z"/>
	<path fill="#036EB8" d="M207.298,9.596h4.309c0,0,0.814,3.903,1.709,5.53s2.357,2.033,2.357,1.626s0.976-2.846,1.464-2.846
		s1.628,2.439,2.114,2.846c0.488,0.407,0.407,1.302,0,2.521c-0.406,1.219-1.301,2.928-1.301,2.928s-4.799,2.277-4.879,2.316
		c-0.081,0.041-2.114-2.113-3.252-3.272c-1.14-1.16-2.278-4.167-2.521-6.363C207.054,12.686,207.298,9.596,207.298,9.596z"/>
	<path fill="#036EB8" d="M225.024,14.475c0,0,0.028-1.22-2.086-2.196c-2.114-0.976-1.899-9.839-1.899-9.839s1.377-0.082,1.99-0.976
		S227.381,0,228.114,0s4.472,1.953,4.31,2.684c-0.162,0.732-3.09,4.798-3.252,6.017C229.009,9.921,225.024,14.475,225.024,14.475z"
		/>
	<path fill="#036EB8" d="M223.235,15.939c0,0,3.657-0.813,3.495-0.325c-0.161,0.487-0.08,1.567,0.57,1.841
		c0.65,0.272,1.302,0.191,1.302,1.085c0,0.895-1.872,3.742-1.872,3.742s-2.844,0.163-3.495-0.325s-0.649-2.846-0.894-3.497
		S222.673,16.057,223.235,15.939z"/>
</g>
<g>
	<path fill="#036EB8" d="M223.504,34.258c0,0,3.01,0,5.855-0.894s5.448-1.708,5.448-1.708l0.976,3.171c0,0-4.066,2.033-6.14,2.684
		c-2.073,0.65-5.489,1.301-5.489,1.301L223.504,34.258z"/>
	<path fill="#036EB8" d="M224.549,39.951c0,0,2.533,0.244,5.095,0S238.548,38,238.548,38s3.253,5.366,3.172,8.213
		c-0.081,2.846-2.766,9.838-5.937,11.627s-6.912,1.871-6.912,1.871s-0.243-4.066-0.813-4.553c-0.57-0.488,2.592,0.082,5.076-4.148
		c2.486-4.229,0-6.668,0-6.668s-7.191,1.301-7.516,1.301C225.293,45.643,225.188,40.521,224.549,39.951z"/>
	<path fill="#036EB8" d="M242.94,44.75l3.497-1.059c0,0,1.544,4.393,1.707,4.637c0.163,0.242-0.407,1.137-0.407,1.137h-2.18
		C245.557,49.465,242.94,46.051,242.94,44.75z"/>
	<path fill="#036EB8" d="M246.518,40.927c0,0,2.114-0.244,2.684-0.407c0.568-0.163,1.707-0.487,1.707-0.487s0.082,2.602,0.732,3.659
		c0.65,1.059,0.406,2.887,0.406,2.887l-4.311-1.504c0,0,0.001-2.195-0.405-2.602C246.924,42.065,246.518,40.927,246.518,40.927z"/>
	<path fill="#036EB8" d="M253.918,41.334h2.195c0,0,1.382,1.342,1.626,1.971c0.244,0.631,1.22,3.965,0.569,6.16
		s-3.334,5.367-3.334,5.367l-7.156-0.975c0,0,1.662-1.643,3.496-3.418C253.755,48.083,253.918,41.334,253.918,41.334z"/>
	<path fill="#036EB8" d="M255.056,35.235c0,0,0.569,0,1.87,0s2.277-1.871,2.277-1.871l0.325-3.741c0,0,4.229-1.057,4.798-1.545
		c0.569-0.488,0.406,4.228,0.406,4.228s4.148-0.325,4.717,0.164c0.569,0.487,2.033,2.683,2.602,3.252
		c0.57,0.569,1.627,4.147,1.221,4.311c-0.406,0.162-5.042,1.952-5.042,1.952L267.417,38l-2.521,0.406c0,0-0.65,3.008,0,4.147
		s1.464,2.277,2.358,2.197c0.895-0.082,5.367-1.139,5.773-1.059c0.406,0.082,1.545,3.01,1.951,3.66
		c0.407,0.65-3.252,3.252-5.529,3.17s-6.668-1.057-7.156-2.439c-0.488-1.381-2.439-5.205-2.277-5.937
		c0.163-0.731-0.08-2.862-0.08-2.862h-4.88C255.056,39.284,255.381,36.78,255.056,35.235z"/>
	<path fill="#036EB8" d="M277.094,34.34c0,0,2.357,1.463,2.684,2.196c0.324,0.732,2.439,7.156,2.439,7.156s-3.335,1.383-4.148,0.895
		C277.256,44.098,276.93,34.99,277.094,34.34z"/>
	<path fill="#036EB8" d="M282.217,31.657h4.309c0,0,0.814,3.903,1.709,5.53s2.357,2.033,2.357,1.626s0.976-2.846,1.464-2.846
		s1.628,2.439,2.114,2.846c0.488,0.407,0.407,1.302,0,2.521c-0.406,1.219-1.301,2.928-1.301,2.928s-4.799,2.277-4.879,2.316
		c-0.081,0.041-2.114-2.113-3.252-3.273c-1.14-1.159-2.278-4.167-2.521-6.363C281.973,34.747,282.217,31.657,282.217,31.657z"/>
	<path fill="#036EB8" d="M299.943,36.536c0,0,0.028-1.22-2.086-2.196c-2.114-0.976-1.899-9.839-1.899-9.839s1.377-0.082,1.99-0.976
		s4.353-1.464,5.085-1.464s4.472,1.953,4.31,2.684c-0.162,0.732-3.09,4.798-3.252,6.017
		C303.928,31.982,299.943,36.536,299.943,36.536z"/>
	<path fill="#036EB8" d="M298.154,38c0,0,3.657-0.813,3.495-0.325c-0.161,0.487-0.08,1.567,0.57,1.841
		c0.65,0.272,1.302,0.191,1.302,1.085c0,0.895-1.872,3.741-1.872,3.741s-2.844,0.164-3.495-0.324s-0.649-2.847-0.894-3.498
		S297.592,38.117,298.154,38z"/>
</g>
</svg>
