<svg xmlns="http://www.w3.org/2000/svg" width="200" height="200" viewBox="-25 -40 150 150" preserveAspectRatio="xMidYMin slice">
  <g fill="#2EA7E0">
    <path d="M15.095 13.881c2.894-2.936 13.536-8.985 16.721-10.009S44.1 1.165 48.422 1.21s22.862 3.8 23.545 5.051c.682 1.251 7.62 4.322 13.308 12.739 5.687 8.417 8.303 30.596 8.075 33.098-.228 2.504-7.165 3.186-8.53 5.119s-3.185 3.186-6.028 3.98c-2.844.797-9.44.684-10.237 3.641-.796 2.957-3.07 1.365-3.64 9.781-.568 8.416-1.479 13.08-3.07 14.332-1.593 1.25-9.214 2.615-8.645 1.705.568-.91 2.274-4.664 4.094-7.621 1.82-2.957 1.82-8.074 1.82-8.074s2.161-9.1 3.981-12.74c1.819-3.639 3.867-6.938 6.369-6.938 2.503 0-2.161-1.137-2.161-1.137l-1.251-1.139s-.821-2.729-3.596-3.07c-2.773-.342-2.888.342-2.888.342s2.478 3.297 2.888 4.775c.411 1.48-.727 1.025-2.319 1.025s-5.231-1.594-6.938-1.252c-1.707.342-.114-3.287.228-4.033.341-.744-2.616.734-3.526 1.303S39.095 32.308 39.095 32.308l-1.819-.568-7.053 16.472-4.208 5.821s-4.209 13.309-6.028 13.877c-1.82.568-9.896-1.82-11.829.113s-4.892-9.895-4.892-9.895l-1.023-8.531s3.754-16.833 4.55-20.473 7.339-14.264 8.302-15.243z"/>
    <path d="M14.641 78.374l3.64-6.824s-3.071-1.48-5.46-1.594-3.64 1.594-3.64 2.162 5.46 6.256 5.46 6.256zm39.24-19.336s4.55-.455 5.005.455-2.047 4.094-2.047 4.094l-2.958-4.549zm27.071 2.844s-.569 6.369-1.251 6.369c-.683 0-6.143.682-6.825 3.98s-2.389 13.99-2.389 13.99H66.62s1.934-8.986 2.616-10.465 1.934-10.918 4.55-12.17c2.616-1.249 7.166-1.704 7.166-1.704z"/>
    <path d="M79.701 69.952l-1.593 10.924-3.754 1.592s2.731-11.272 5.347-12.516zm11.602-11.598v2.9l-2.616.627-2.844 8.643-1.479 4.893h-1.479s0-14.105 4.208-15.584l4.21-1.479z"/>
  </g>
  <path d="M93.681 32.912c-1.702-5.531-5.957-14.75-7.801-16.311-1.844-1.56-6.808-6.524-12.765-10.495C67.158 2.134 57.1-.148 50.989.007 34.253.432 23.758 5.113 20.07 7.95s-9.503 6.098-14.609 16.31C-.184 35.55-.496 46.812.356 51.917c.852 5.107 1.985 11.771 6.666 20.992 4.681 9.219 11.914 14.324 22.268 17.729s20.565 4.254 28.225 2.41 12.34-3.688 20.282-9.219 9.786-8.51 10.637-10.494c.852-1.986 6.809-9.646 7.092-21.275.282-11.631-.143-13.616-1.845-19.148zM4.629 57.351c-.125-.184-.753-2.619-.689-3.438.063-.82 3.949-2.953 5.58-3.266 1.63-.314 3.262-.248 4.588 0 1.854.346 4.377 1.129 5.318 1.254.94.125 3.887 3.574 3.887 3.949 0 .377-.878 1.939-1.065 2.225-.188.283-4.452-2.914-7.774-3.102-3.323-.189-5.297.25-6.849.877-1.554.628-2.871 1.684-2.996 1.501zm2.257 4.728c.251-.836 5.21-2.354 7.461-2.002 1.055.164 2.723.352 3.964.979 1.24.627 3.059 1.818 3.059 1.818s-1.38 3.385-1.756 3.385-2.674-1.631-5.757-1.066-5.215.816-5.717 1.066c-.501.25-1.505-3.344-1.254-4.18zm7.147 14.692c-.25-.166-4.2-4.43-3.699-5.496.502-1.066 2.177-2.02 3.386-1.881.882.102 3.574.814 3.699 1.066.126.25-3.135 6.478-3.386 6.311zm40.503 0c-.438 1.088-.376 2.717-1.38 6.041-1.003 3.322-1.384 6.018-2.698 6.707-1.314.691-11.283-.188-14.605-.939-3.323-.752-11.411-3.949-12.728-4.703-1.317-.752-4.266-1.629-4.734-2.633-.47-1.002 1.16-1.756 4.107-7.996 2.561-5.424 5.643-12.51 6.521-15.172.877-2.662 4.702-13.285 4.765-14.244s3.261-9.109 3.95-9.172c.689-.063 1.63 7.335 5.078 13.668 3.448 6.332 6.332 11.912 7.147 13.228.815 1.318 4.907 6.834 4.907 6.834.171.627.109 7.295-.33 8.381zm-2.069-36.72c.313.689 1.631 5.016 1.881 5.831.251.815.815 2.007.815 2.445 0 .439-1.191-.376-2.759 0s-2.132.941-2.57.501c-.439-.439-3.574-4.54-3.448-4.998.125-.457 1.563-4.162 2.444-4.205.502-.022 3.323-.263 3.637.426zm-2.884-4.012c.063-.501.419-2.403.79-2.194.571.32 1.153 1.693.902 2.194-.251.502-1.754.502-1.692 0zm6.395 19.31c-2.131.127-3.26.754-3.448.252-.188-.502-.814-2.133-.564-2.508.251-.377 1.317-1.568 4.013-1.568.568 0 1.693.127 3.136 1.191 1.441 1.066 2.068 1.693 2.006 2.07-.063.375-.878 1.379-1.129 1.504-.252.125-1.883-1.066-4.014-.941zm.538 6.709c-.538-.313-1.917-3.635-1.604-3.635s.464-.477 1.604-.314c.781.111 1.607.314 1.727.627.117.314-1.19 3.636-1.727 3.322zm19.776 15.298c-.251 1.504.313 2.57 0 2.695-.313.127-2.508 1.693-2.508 1.693s.891-6.834 2.295-8.84 1.843-2.822 2.282-2.885c.828-.116-1.818 5.832-2.069 7.337zm3.01-11.16c-.251.188-3.41-.287-5.204 1.631-2.759 2.945-4.013 10.471-3.95 11.787s-.689 3.762-.627 4.451-1.818 1.129-2.696 2.068c-.877.941-1.63 1.191-1.63 1.191s1.903-13.104 2.802-15.988c.897-2.883 3.272-6.707 5.412-7.146.776-.16 3.511-.689 4.326-.689.814 0 1.881-.502 1.943 0 .062.5-.125 2.508-.376 2.695zm.376-6.709c-.376 0-4.451.502-6.082 1.066-1.63.564-3.824.313-5.705 2.383-1.881 2.068-3.197 4.828-3.95 11.16-.752 6.332-1.03 9.969-1.236 10.971-.206 1.004-2.149 2.445-3.09 3.01s-3.323 1.066-3.824 1.066c-.502 0 2.383-3.824 2.884-6.082.502-2.256-.188-11.85 1.943-16.865 2.132-5.016 7.033-7.691 10.346-8.121 1.692-.221 5.517-.781 7.21-.719s1.567-.164 1.943.357c.376.52-.063 1.774-.439 1.774zm11.076.942c.146.25-1.023-.814-1.85.375-.825 1.191-2.581 5.08-3.02 6.896-.438 1.818-.911 4.766-1.052 5.08-.14.313-3.964 4.451-4.026 3.949-.063-.502 2.57-9.844 2.821-11.662.25-1.818 2.131-5.393 3.197-6.645.402-.475 3.344-1.201 3.929-1.072.587.131-.146 2.827.001 3.079zm1.526-9.092c-.377.063-1.004-.252-.815-.564.188-.314-2.053.725-3.824 2.068-1.818 1.379-1.818 1.379-2.383 1.379s-2.759-2.131-8.903-2.695c-6.144-.564-10.972 2.445-11.599 2.258-.627-.189-2.57-2.008-3.197-2.697-.563-.619-1.227-2.751-1.674-3.319-.266-.126-.336-.211-.145-.129.045.019.093.064.145.129.343.165 1.013.399 1.861.436 1.505.063 1.191-.313 1.505-.564s-.188-3.323.376-5.518 1.004-4.264 1.254-4.264c.251 0 1.631 5.769 2.696 5.769s2.006-2.257 2.696-3.511c.689-1.254 1.294-2.32 1.807-2.383s.262 5.956.262 6.709c0 .752-.501 2.759-.752 3.197s-1.065 1.379-.251 1.442c.815.063 4.389.564 4.577-.188.188-.752-.063-7.273-.063-7.963 0-.689-.376-4.827-.439-5.204-.063-.376.439-7.347 0-7.121-.438.225-3.345.225-3.334.789.012.564-2.058 2.947-2.184 3.323-.125.376-.771 1.821-.917 1.881-.146.059-.82-.235-1.34-1.1-.421-.7-1.243-1.279-1.606-1.781-.11-.152-.584-.392-.775-.442-.477-.126-1.715-.128-1.877-.185-.164-.057-.819-.693-1.008-.316-.188.376-.376 1.755-1.316 5.643-.94 3.887-2.257 8.771-2.633 8.336-.377-.437-2.195-5.515-2.634-6.581-.438-1.065-2.069-6.583-2.257-7.021-.188-.439-1.003-2.821-1.38-2.821-.376 0-2.068.114-2.319.276s-2.57 3.799-2.947 4.488c-.376.689-1.983 3.309-2.141 3.824-.125.409-.836.462-1.183-.376-.311-.753-.94-2.759-1.316-3.26-.376-.502-1.63-5.957-2.006-7.398-.376-1.442-.376-2.634-.376-2.634s.877-.063 1.504-.188 0-5.705-.376-6.709c-.376-1.003-.564-5.705-.376-5.83.188-.126 3.26-.753 3.26-1.129s.313-2.445-.25-2.696c-.564-.251-2.258-.251-5.267 0-3.01.251-5.769.564-5.957.878-.188.313-1.003 1.129-.689 2.007.313.877.753 1.316.878 2.257s-.012.313 1.87.125c1.881-.188 3.314-.363 3.208.376-.08.556.376 5.017.376 5.706s.126 3.197.126 3.197-.439-.502-1.066-.188c-.627.313-2.758 6.896-2.884 8.213-.125 1.316-1.316 4.013-1.567 4.013s-.752-4.075-2.194-4.075c-1.441 0-2.068 1.442-2.257 2.069s-.689 1.254-1.38 1.19c-.689-.063-2.435-3.701-3.197-3.511-2.257.564-1.065 2.759-1.441 4.201-.377 1.441-2.069 5.267-2.258 6.708-.188 1.442-1.254 3.448-1.379 4.389-.126.94 2.508 1.38 2.884 1.756s.94 1.065 1.567-1.756.94-4.953 1.442-5.078c.501-.125 1.692 3.197 2.382 3.072.69-.126.69-.815.753-1.065.063-.251.814-3.01 1.442-3.01.626 0 1.065 2.194 1.065 2.695 0 .502-3.843 12.038-4.577 12.038-.438 0-3.135-3.697-6.332-5.14-3.198-1.442-4.106-2.818-6.646-2.759-2.695.063-3.762.627-6.646 1.505s-2.759 2.006-2.947 1.316c-.188-.689-.563-6.959-.438-8.401.126-1.442 2.947-9.781 4.013-12.038s7.726-14.913 19.248-19.123c3.485-1.272 7.712-4.389 11.725-4.451.887-.014 6.02-.524 7.587-.826 1.567-.303 3.165.051 6.629 0 4.547-.067 12.198 1.56 14.609 2.269 2.411.71 10.495 6.1 11.204 6.666.709.567 1.926.231 3.158 1.635.467.532 7.515 8.518 10.458 21.059.657 2.798 1.089 7.694 1.152 9.136.062 1.44.375 7.522-.001 7.585z"/>
  <path d="M30.899 10.458c-.878-.251-3.254.398-3.888.564-1.077.281-2.884 1.128-3.448 1.379s-1.003 1.442-1.442 2.633c-.438 1.191-1.191 2.571-.814 3.198.376.627 3.26 2.257 3.197 2.946s-2.696.564-3.448.564c-.753 0-3.323-.313-4.138-.063-.815.251-.126 1.254-.439 1.63s-.689 2.445-.689 2.759 3.135.689 5.454.564c2.32-.126 3.261.313 5.706-1.129s2.319-3.637 1.99-4.891-2.304-1.567-2.868-2.57.376-1.63 1.38-2.068c1.003-.439 3.448-.753 4.075-.753.626 0 .438-.251.376-1.065-.063-.814-.126-3.448-1.004-3.698zm24.64-1.818c-.438-1.129-3.072-1.356-3.26-.793-.188.564-.502 3.677-.564 3.928s-.251 5.204-.251 6.145-.251 2.695-1.254 2.695-1.316-2.57-1.505-4.326c-.188-1.755-.627-6.457-.902-7.586s-1.167-.815-1.794-.815c0 0-.814-.188-1.322.126-.507.313.257 4.264.06 7.085-.198 2.821.071 8.84 1.263 9.529s3.448 1.693 5.956.815 3.386-2.759 3.699-4.577c.314-1.818.627-1.943.564-2.759-.063-.815-.251-8.338-.69-9.467zm3.072.063c-.442.032-.125 4.451-.313 6.583-.165 1.863.063 9.844.313 10.5.251.657.815 1.162 4.577-.343s4.765-5.518 4.89-7.398c.126-1.881-1.316-5.204-3.009-7.272-1.693-2.07-5.758-2.122-6.458-2.07zm4.553 12.619c-.603.125-.872-1.577-.854-3.904.02-2.486-.111-3.072.854-3.01.713.047 2.274 2.177 2.219 3.151-.116 2.028-1.616 3.638-2.219 3.763zm8.802-10.049s-.878-.376-1.128-.25c-.251.125-1.004 8.024-.878 8.965.125.94-.815 6.709-.815 6.96s.313.501 2.383.627c2.068.125 2.068-.376 2.319-1.789.251-1.412-.689-8.682-.752-11.816-.064-3.136-.377-2.384-1.129-2.697zm11.473 13.292c0-2.068-1.191-4.326-2.069-6.035-.877-1.709-1.359-2.13-2.194-2.304-3.897-.808-4.075 2.821-3.887 5.518.188 2.696.293 7.578 3.197 7.523 2.905-.054 4.953-2.633 4.953-4.702zm-4.451 1.221c-.502.284-1.129-2.161-1.191-3.353s-.251-2.068.689-2.257c.554-.11 1.797.791 1.693 3.323-.067 1.629-.69 2.003-1.191 2.287zm-64.892 3.482c-5.83 0-5.705 5.078-6.27 7.899s0 6.019 2.32 6.332c2.319.313 5.078 1.129 6.896-2.006s1.505-9.844.752-10.471c-.751-.626-2.755-1.754-3.698-1.754zm-.69 11.724c-1.379.878-2.884-.313-2.633-2.946.251-2.634.564-2.696 1.63-3.888s1.236-1.006 1.818-.94c1.372.154 1.379 1.022 1.567 3.332.189 2.31-1.003 3.564-2.382 4.442zm75.175 3.758c-.377.122-5.142.818-5.769.567s0-2.445-.063-3.386 1.567-1.065 2.194-1.379 3.26-.94 3.683-1.129c.422-.188.393-1.818 0-2.257-.394-.439-2.867 1.003-3.745.94s-2.508-.126-2.508-1.559c0-1.432 1.692-1.639 2.508-1.952.814-.314 3.386.063 3.699-.502s-1.066-4.201-1.38-4.389c-.313-.188-3.505.377-4.827.376-.832 0-1.944-.063-2.759.627-.815.689-.689 7.147-.689 9.718 0 2.571-.126 9.091.414 9.154s7.861-.564 8.864-.627 2.32-1.128 2.508-1.63c.188-.501-.313-2.068-.438-2.573s-1.316-.121-1.692.001z"/>
</svg>
