<?xml version="1.0" encoding="utf-8"?>
<svg version="1.1" id="レイヤー_1" xmlns="http://www.w3.org/2000/svg" xmlns:xlink="http://www.w3.org/1999/xlink" x="0px"
	 y="0px" width="200" height="200" viewBox="20 -40 286 330" enable-background="new 0 0 266.548 290.342"
	 xml:space="preserve">
<g>
	<path d="M39.012,112.757c0.818-0.409,3.475,0.205,4.497,1.022s0.817,3.27-1.431,3.883s-2.453,2.044-4.292,0
		S39.012,112.757,39.012,112.757z"/>
	<path d="M65.787,82.304c1.419-0.178,2.249,1.43,2.861,3.065s-1.839,1.84-2.861,1.84S60.882,82.917,65.787,82.304z"/>
	<path d="M82.749,115.675c0.794,0.205,3.664,0.63,3.066,3.048c-0.569,2.304,0.205,2.209-1.533,2.414s-4.804-1.377-4.395-2.732
		S80.893,115.197,82.749,115.675z"/>
	<path d="M114.428,109.691c1.008-0.167,3.679-1.022,4.497,0s1.226,3.883-1.022,4.905s-5.518-1.281-5.109-1.969
		S112.48,110.014,114.428,109.691z"/>
	<path d="M107.071,146.276c-1.022-0.613-0.613-5.109-0.613-5.109s3.27-2.044,4.292-4.905c1.049-2.938-0.204-8.175-2.657-9.606
		s-6.184-2.429-8.789-1.227c-2.657,1.226-9.197,4.497-9.811,5.723s-2.861,1.227,0,4.497s9.606,4.497,9.606,4.497l1.431,6.131
		c0,0-2.043,1.226-3.27,2.657s-4.496,7.767-4.496,7.767h5.109c0,0,3.066-3.475,6.336-6.336c0.769-0.673,9.81,2.249,9.81,2.249
		l1.227-3.27C115.246,149.342,108.093,146.889,107.071,146.276z M105.027,131.151c-0.613,0.818-1.022-0.818-1.431,0
		s-2.033,0.204-1.936,1.431s1.578,2.044,0.633,3.066s-1.967,0-1.967,0s-1.431-1.837-2.453-2.018s-3.883,1.048-3.475,0
		s2.056-3.632,4.701-4.114c2.345-0.427,5.314,0.205,5.927,0S105.64,130.333,105.027,131.151z"/>
	<path d="M176.153,117.456c1.668,0.801,2.248,1.879,2.248,3.699s-1.022,1.655-4.292,0S174.708,116.762,176.153,117.456z"/>
	<path d="M197.409,115.675c-0.063-1.397,2.248-1.788,3.475-0.821s2.044,2.275,1.022,3.869S197.613,120.23,197.409,115.675z"/>
	<path d="M153.262,119.902l0.818,2.557c0,0-1.022,1.333-3.883,1.129s-3.679,3.474-1.839,5.723s7.971,2.332,7.971,2.332
		s-0.409,6.048-2.044,4.208s-9.069,1.275-11.241-6.131s0.321-6.069,3.474-10.058C147.534,118.376,153.262,119.902,153.262,119.902z"
		/>
	<g>
		<path d="M170.021,128.289c1.021,0.409,9.811,5.313,8.584,10.627s-2.452,16.555,2.044,21.46c4.714,5.143,17.373,3.679,23.913,0
			s10.424-12.876,9.811-22.073s-3.27-17.373-3.883-19.58s1.146-3.869,0-11.077c-1.421-8.936-11.854-8.38-15.329-7.767
			s-8.175,7.767-9.606,9.318c0,0-4.905,2.828-9.606-2.37c-4.414-4.88-6.745-4.496-10.423-3.679s-10.219,6.54-5.723,15.574
			S169,127.879,170.021,128.289z M192.401,160.172c-6.438,0-8.687-3.27-10.321-6.745c0,0,1.629-3.367,11.445-3.065
			c5.524,0.169,9.197,4.292,9.197,4.292S198.839,160.172,192.401,160.172z M197.409,133.63c0-1.05,1.912-2.268,3.271-1.988
			c2.204,0.453,3.679,2.369,3.679,3.595s-3.679,2.657-3.679,2.248S197.409,134.68,197.409,133.63z M163.481,109.198
			c2.044-4.414,7.65-3.462,11.037,0c6.336,6.478,10.628,4.784,10.628,4.784c3.065-0.817,9.606-8.584,11.854-9.606
			s8.638-1.085,9.197,4.822c0.325,3.43-1.43,7.238-1.226,9.179s5.109,9.262,5.518,13.266s2.248,10.748,0,15.449
			s-2.044,6.336-2.044,6.336s-6.54-3.475-6.335-6.336s-1.022-1.431,0.204-2.861s5.314-5.722,5.723-8.379s-2.861-5.313-4.087-6.131
			s-9.811-0.205-9.811-0.205s-2.249,3.122-2.044,4.116s5.593,6.593,6.271,7.166s-1.57,5.683-1.57,5.683s-8.993,1.226-11.65,0.613
			s-3.883-0.409-3.883-0.409s1.431-8.119,0-13.052s-8.175-10.412-11.65-12.476S161.438,113.611,163.481,109.198z"/>
		<path d="M280.591,186.945c1.512-12.253-3.323-21.762-4.088-29.636c-0.68-6.994-4.905-15.329-0.817-27.183
			c2.381-6.905,6.745-22.482-1.431-41.898s-30.862-25.139-44.146-24.935s-28,9.401-30.043,9.401s-7.767-6.335-10.219-8.175
			c-1.864-1.398-12.869-7.652-19.007-8.789c-10.298-1.906-21.211,0.604-26.979,3.679c-3.066,1.635-19.007,5.723-23.913,8.38
			s-7.562,6.949-8.584,6.949s-4.497-7.767-5.723-9.401s-4.929-8.315-13.285-11.445c-9.811-3.676-26.207,0.869-34.541,4.905
			c-6.586,3.189-7.153,9.402-8.175,10.628s-2.657,2.861-3.883,5.314s-5.11,11.854-5.11,13.489c0,0-14.511,0.001-21.665,9.403
			c-6.222,8.177-7.836,17.93-7.962,18.743c-0.006-0.156-0.323-0.376-3.893,2.514c-4.292,3.475-4.701,9.606-2.861,14.743
			s11.445,9.578,12.059,9.783s0-2.044,1.431,3.065s2.861,14.92,2.861,14.92s-4.292,7.562-5.723,10.417S2.836,187.56,1.406,192.26
			s-2.657,11.444,1.022,20.846c3.679,9.402,11.854,13.08,11.854,13.08s0,2.861,0.613,5.519s3.271,9.605,3.066,10.219
			s-2.044,2.453-4.292,4.496s-7.767,11.241-1.022,23.096s16.351,12.672,25.548,16.351s22.687,5.519,27.183,4.497
			s24.526,0.817,32.088,0s19.417-2.657,26.366-6.132s8.379-9.81,4.087-13.284s-16.146-3.68-26.365-3.066s-26.979,4.497-30.044,4.497
			s-21.869,1.021-29.022-2.249s-5.927-11.24-5.927-11.036s17.781,5.927,30.862,3.271c8.761-1.779,17.986-6.132,17.986-6.132
			s7.971,5.723,15.329,5.109c4.888-0.407,11.037-1.021,11.037-1.021s20.234,12.467,30.453,12.672
			c5.982,0.12,13.285-0.613,13.285-0.613s-3.679,2.861-2.657,7.767s5.109,9.196,14.557,7.971s19.575-4.088,28.159-6.54
			s20.643-1.431,27.592-3.066s14.715-2.861,20.438-8.38s8.789-17.168,9.401-19.212s-4.905-11.445-4.905-11.445l0.817-2.249
			c0,0,2.453-0.408,7.153-1.226s13.081-4.088,15.737-11.446s-0.409-16.759-0.409-16.759S278.548,203.5,280.591,186.945z
			 M11.012,133.63c-1.227-3.707-0.205-7.999,1.226-8.816c0,0,2.862,5.927,3.066,7.357s1.226,5.11,1.226,5.11
			S12.239,137.337,11.012,133.63z M144.881,63.501c17.373-5.314,28.335,0.104,30.862,1.022c4.497,1.635,16.146,7.153,16.146,15.533
			c0,0-9.401,1.226-9.81,0s-5.11-11.037-10.219-11.445s-14.102,2.044-19.621,5.927s-15.125,7.752-15.125,7.752
			s-6.335-2.847-9.81-3.052s-7.729-0.613-7.729-0.613S121.609,70.62,144.881,63.501z M175.334,81.078c0,0-6.33-0.821-14.103,1.212
			c-9.401,2.459-12.059,8.393-14.307,7.78s-6.484-4.496-6.484-4.496s3.214,0.613,8.119-2.453s14.92-8.175,16.759-8.175
			s5.314-1.635,8.175,0S175.334,81.078,175.334,81.078z M69.057,58.8c1.639,0.164,12.467-2.044,19.212,0s12.467,7.562,13.898,11.241
			s3.066,7.971,2.453,8.38s-6.422-1.021-12.145,0.41s-7.68,3.064-7.68,3.064s0.818-10.153-2.657-12.025s-7.358-1.397-11.854,0
			s-13.489,3.303-14.511,0S64.969,58.392,69.057,58.8z M48.286,81.039c1.635-2.657,1.559-4.662,1.559-4.662s5.11,2.249,10.219,2.249
			c2.084,0,6.335-1.635,7.766-2.453s3.271-1.84,4.701-1.84s4.701,2.968,5.314,4.346s2.453,1.99-2.044,6.691
			s-6.399,5.927-6.399,5.927s-5.659,0.613-6.477,0s-3.679-5.518-5.927-6.131s-4.088-1.021-4.905-0.817s-4.496,4.292-4.496,4.292
			S46.651,83.696,48.286,81.039z M114.224,136.057c1.226,4.701,4.905,9.402,3.475,14.511s-13.285,10.219-21.256,9.81
			s-12.672-1.839-15.942-5.518s-2.657-7.766,1.431-13.285s3.679-10.739,2.861-12.625s-12.058-10.357-14.102-13.275
			s-2.044-9.049,3.883-10.685s8.38,3.475,10.424,4.905s5.927,2.806,8.993,2.731c2.546-0.062,5.519-3.549,8.38-7.637
			s7.562-6.745,10.832-7.358s10.219,0.614,10.423,9.402s-6.131,17.372-7.562,19.007S112.998,131.356,114.224,136.057z
			 M58.429,90.071c0.205,1.022-4.087,1.431-5.109,0s0.988-2.247,2.381-1.839C56.554,88.481,58.224,89.049,58.429,90.071z
			 M16.53,208.202c-1.84,6.336-1.227,11.037-1.227,11.037s-8.584-6.949-9.197-12.876s6.471-15.317,9.606-18.599
			c2-2.093,4.905-9.197,4.905-9.197s1.635,8.584,1.431,11.445S18.37,201.866,16.53,208.202z M46.778,278.101
			c10.015,2.657,23.913,3.066,34.336,1.022s34.336-6.745,39.446-6.336s5.11,5.724,0,6.949s-22.482,4.291-25.548,4.7
			s-26.365,2.248-34.336,1.227s-27.387-3.064-35.563-9.605s-6.949-13.286-6.541-16.556s5.314-10.628,5.314-10.628
			s1.431,1.431,3.066,2.044s2.861,3.066,2.861,3.066s-2.861,6.131-1.431,11.24S36.764,275.444,46.778,278.101z M55.363,257.663
			c-9.811-1.431-24.525-5.928-28.205-18.395s-5.723-18.598-0.409-27.387c5.314-8.789,6.949-19.417,6.54-23.095
			s-0.818-16.145-5.519-35.561c-3.208-13.251-7.767-30.044-8.175-35.563s0.361-16.123,14.511-21.461c10.832-4.086,32.088,0,32.088,0
			v1.022c0,0-3.883,1.227-6.54,1.839s-2.453,2.861-5.723,1.635s-8.789-2.861-11.241-3.27s-10.832,1.431-16.35,9.402
			s1.226,13.489,1.635,16.146s5.723,6.799,5.723,10.655s-6.132,18.162-1.022,25.111s9.81,9.811,19.621,7.154
			s11.842-7.497,13.898-7.154c3.679,0.613,6.095,7.558,6.504,9.806s-4.051,24.327-6.913,31.275s-1.431,23.912-0.409,28.817
			s3.863,10.629,7.348,14.308s7.368,7.971,7.368,7.971S65.173,259.093,55.363,257.663z M57.815,113.166c0,1.227-0.817,7.357,0,8.584
			s-3.065-1.021-3.679-1.021c-0.549,0-3.769,2.775-4.267,3.066c0.24,0.289,0.571,3.967,0.792,4.904
			c0.242,1.022-7.562,2.041-8.175,2.349s-3.065-4.188-4.087-5.006s-8.584-5.518-8.584-11.241s2.249-10.424,8.584-10.833
			s10.832,1.431,15.533,1.431s6.949-1.431,6.949-1.431S57.815,111.939,57.815,113.166z M56.589,131.063
			c-0.156-3.221,1.839-1.955,1.839-1.955s1.227,5.314,2.453,5.927S56.875,136.952,56.589,131.063z M49.807,139.531
			c0,0-4.664-3.161-4.459-3.931s3.138-2.101,4.459-1.97c1.665,0.165,3.512,0.696,4.125,1.97S49.807,139.531,49.807,139.531z
			 M40.034,147.707c2.044-3.065,1.635-5.314,2.248-5.314s2.249-0.817,3.066,1.022s1.431,3.884,2.044,5.519s-6.336,3.474-6.336,5.109
			s3.066,2.657,3.066,2.657s5.546-4.087,7.372-4.292s10.818,0.409,10.818,0.409l0.204-3.475c0,0-2.248-1.227-4.905-1.635
			s-3.625-0.613-3.625-0.613s-2.044-3.475-1.485-3.679s2.775-4.684,4.079-3.27c0.313,0.339,1.821,2.044,2.243,2.044s3.692,0,3.692,0
			s3.066,8.789,3.066,9.606s-7.153,6.949-14.715,8.789s-12.672-1.431-13.285-3.883S37.99,150.772,40.034,147.707z M93.377,252.553
			c-7.971-3.679-18.092-8.93-20.643-31.884c-2.248-20.233,5.241-28.825,5.723-44.964c0.409-13.692-8.183-16.395-10.628-31.269
			c-1.776-10.806-1.776-20.847-1.776-20.847s3.412-0.613,8.93,1.022s5.927,7.562,2.248,12.263s-3.883,8.788-2.453,13.898
			s2.248,10.015,8.993,12.672s13.49,2.861,23.3-0.409s17.373-7.563,17.781-12.672s-5.927-6.949-5.519-13.693
			s8.789-9.528,10.833-17.947s-1.635-20.681-5.314-23.338s-12.876-1.84-16.964-0.613s-9.401,9.401-12.263,10.423
			s-6.131,2.862-9.197-0.204s-3.679-5.314-5.314-5.314s-5.109,0-5.109,0s6.744-7.358,26.57-11.446
			c13.465-2.777,19.621-3.064,26.979-1.021s10.888,8.992,10.888,8.992s-6.188,13.081-7.005,18.19s-1.201,17.088,0.818,23.299
			c2.657,8.175-12.643,29.455-21.256,39.65c-10.015,11.854-12.059,24.935-12.059,24.935s-6.131-0.409-9.606,2.453
			s-6.745,10.424-6.745,10.424l4.292,2.656c0,0,4.905-9.81,7.358-9.81s3.474-0.55,3.27,2.893s-0.184,24.079,1.839,29.196
			c3.475,8.788,9.197,15.737,9.197,15.737S100.995,256.069,93.377,252.553z M127.1,262.16c-8.584-5.723-19.959-20.614-19.212-46.396
			c0.817-28.204,18.599-44.555,20.643-48.643s9.606-11.854,10.628-22.686s0.204-29.84,7.971-39.65s21.052-17.166,33.519-17.576
			c4.919-0.162,17.167,1.225,21.664,3.882s12.811,7.732,16.351,22.482c2.453,10.219-0.172,15.477-1.431,22.891
			c-1.133,6.673-0.409,14.717-4.701,20.234s-11.286,8.813-14.92,9.81c-3.728,1.022-10.423,3.27-10.423,3.27l0.409,3.883
			c0,0,4.496,1.227,7.971,0.818s12.876-6.132,14.511-6.949s4.088-2.861,4.088-2.861s4.088,3.066,8.175,3.475
			s14.247,0.476,16.555-10.015c1.484-6.745,0.204-16.107,1.431-18.19s5.314-6.335,5.723-13.898s-5.109-6.95-7.153-7.665
			s-14.715,0-14.715,0l-0.409-2.778c0,0,15.124-2.53,21.255-0.744s10.015,4.647,11.037,7.508s2.657,6.541,2.657,9.402
			c0,1.884-1.363-2.039-6.336-2.044c-2.075-0.002-5.518,3.91-5.518,3.91l0.817,3.243c0,0,3.066-2.044,5.927-1.431
			s2.452,5.314-1.84,6.336s-5.723,1.022-5.723,1.022l0.613,4.496c0,0,4.292-0.409,6.131-1.839s4.497-2.453,4.497-2.453
			s0.409,9.81-5.723,20.643s-11.445,19.621-11.854,22.482s-1.635,3.883,1.226,17.168s5.518,23.708-1.84,31.475
			s-21.665,8.584-27.387,8.584s-10.832,0-10.832,0s-0.205-5.109-1.022-10.015s-3.679-7.357-3.679-7.357s4.292-15.093,11.65-15.093
			c10.015,0,20.847,3.852,20.847,3.852l0.205-4.905c0,0-4.496-4.701-9.197-6.131s-11.242-2.453-11.242-2.453
			s8.994-3.883,11.242-5.314s4.905-4.497,4.905-4.497l-2.861-3.27c0,0-12.263,7.153-16.555,8.584s-14.306,3.271-20.847,1.84
			s-5.518-2.453-5.314-3.475s4.905-1.227,4.905-1.227l-0.409-1.226c0,0-5.313-2.043-5.518-3.679s4.905-1.022,6.949-0.409
			s-1.022-3.679-1.022-3.679s-7.971-4.087-7.971-6.54s6.131-1.022,10.015,1.431s7.767,6.948,15.533,7.357s12.672-4.497,14.511-6.131
			s4.292-3.065,4.292-3.065l-0.205-6.364c0,0-4.701,4.115-11.241,6.159s-11.037,4.905-16.146,0.409s-12.876-5.109-14.307-5.723
			s-7.153-1.431-8.584,2.248s2.248,4.701,2.043,6.745s-1.48,4.087-2.375,5.314s1.149,2.657,1.354,5.314s-1.227,6.541,6.949,9.811
			s12.468,2.453,15.125,2.453s6.949-1.022,6.949-1.022s-4.496,3.679-6.949,6.54s-3.883,7.357-3.883,7.357
			s-13.694-8.174-18.599-7.562s-12.407-4.594-28.613,8.584c-9.802,7.971-6.949,24.117-6.949,26.979s2.657,7.562,3.679,7.562
			c0.857,0,5.448-0.858,7.629-0.411c-1.506-1.615-3.902-6.313-2.875-17.391c1.593-17.185,18.137-18.374,22.633-17.761
			s20.643,4.292,25.343,16.351s-2.248,22.892-15.737,28.614S135.684,267.882,127.1,262.16z M235.352,101.922
			c2.524,0.204,9.762-3.271,9.762-3.271s-1.515,0.835-0.697,3.279s7.767,8.549,7.563,10.095s-6.131-3.115-10.015-2.828
			s-3.271,1.717-3.271,1.717s-4.512-6.335-8.081-6.54s-3.569-1.227-5.613,0.204s-2.861,3.27-2.861,3.27s-2.044-3.883-2.044-6.335
			s-4.292-6.541-4.292-6.541s8.789-2.657,12.059-4.087s10.015-4.701,12.467-4.497s5.314,2.044,4.701,5.519l-3.065-0.409
			c0,0-0.205,3.884-3.475,4.701s-7.876,0-7.876,0S232.828,101.718,235.352,101.922z M232.982,110.506c0,0-6.347,2.044-6.756,0
			c0,0,2.642-3.066,4.387-3.066S232.982,110.506,232.982,110.506z M235.015,156.699c-1.635,4.698-7.767,5.925-10.628,5.72
			s-7.971-3.066-7.971-3.066l1.635-2.654c0,0,2.453,2.041,4.497,1.632s6.509-0.613,6.509-0.613v-2.861c0,0-4.261,0.205-4.261-0.613
			s0.205-4.497,1.227-4.497s3.883-3.474,3.883-4.087s0.142-4.005-0.849-4.864s-6.917-1.88-6.917-1.88s1.005-13.581,2.248-14.023
			c0,0,8.584-3.104,11.65-3.737s7.153,2.84,5.109,7.337s-5.109,7.971-5.927,11.241S236.65,152.001,235.015,156.699z
			 M216.417,154.857l2.043-3.883h2.657c0,0-0.205,3.474-1.329,3.883S216.417,154.857,216.417,154.857z M221.117,146.069l1.022-3.475
			c0,0,2.044-1.226,1.839,1.431S221.117,146.069,221.117,146.069z M209.467,256.024c-0.409-0.817-0.034-3.368,1.839-3.475
			c0,0,8.993-0.408,11.65-1.431s10.628-2.861,10.628-2.861s1.226,5.518-6.949,11.036s-13.489,6.336-15.329,5.519
			s-1.839-3.679-1.839-3.679s1.431-0.573,1.431-3.659S209.876,256.841,209.467,256.024z M204.767,262.972
			c-0.613,1.431-2.248,0.817-4.701,0s-6.131-2.861-6.131-2.861s3.678-5.518,4.905-8.992l3.883,1.021l-1.941,1.431l1.941,2.248
			c0,0,2.044-1.227,3.066,0s-2.453,3.271-2.453,3.271S205.38,261.542,204.767,262.972z M198.431,267.877
			c0,1.227-4.496,1.227-7.562,1.227s-8.789,0-8.789,0s2.861-3.342,8.789-4.021C194.321,264.687,198.431,266.651,198.431,267.877z
			 M244.621,263.831c-3.833,5.273-11.241,9.156-19.825,10.996s-23.504,1.021-28.205,2.248s-18.803,4.293-25.752,4.701
			s-11.854,1.432-11.65-3.065s14.511-6.133,19.212-5.928s23.299,0.614,32.088-0.408s22.073-6.949,25.752-12.672
			s3.066-13.898,3.066-13.898s4.088-2.862,5.314-3.475S250.684,255.49,244.621,263.831z M263.628,225.165
			c-4.496,5.313-12.558,5.927-12.558,5.927s0.1-7.972,0.913-7.767s7.148-2.081,8.375-5.945s3.475-5.295,5.927-5.295
			C266.286,212.084,268.125,219.851,263.628,225.165z M251.161,215.15c0,0,3.883-1.431,5.314,0s-5.11,6.541-5.314,4.701
			S251.161,215.15,251.161,215.15z M269.147,152.2c3.27,11.445,4.16,18.699,2.044,36.584c-2.249,19.007-20.847,20.029-20.847,20.029
			s-4.292-16.555-3.066-20.438s10.423-10.015,12.467-11.446s5.723-2.248,5.723-2.248s-4.701-6.336-5.314-6.336
			s-4.905,0.205-4.905,0.205s7.153-13.08,7.971-21.46s1.431-18.394,0.205-23.095s-3.27-5.272-3.27-5.272s0.613-3.312-2.249-8.013
			s-4.905-3.474-5.927-7.766s1.43-13.906-0.818-18.194s-11.793-4.697-15.809-3.266s-12.6,4.093-17.301,5.726
			s-6.744,1.632-10.832-1.025s-7.714-3.678-7.332-6.335c0.225-1.563,11.624-6.949,24.5-8.175s25.752,0.205,35.563,8.175
			s10.424,14.92,10.219,16.351s-2.861,0-4.292,0s-3.679,2.043-3.679,2.043l1.635,2.453c0,0,4.292-0.409,5.518,0
			s4.087,4.292-0.409,5.519s-6.131,1.226-6.131,1.226l2.657,4.585c0,0,5.927-0.32,6.949,0s-4.292,14.401-4.905,17.478
			S265.877,140.755,269.147,152.2z"/>
		<path d="M235.015,128.9c-0.613-1.635-3.636-1.921-3.883-1.228c-1.022,2.86-0.613,4.293,1.941,3.969S235.628,130.536,235.015,128.9
			z"/>
	</g>
	<path d="M324.502,264.075c-0.173-1.037-2.681-3.373-2.681-3.373s0.259-1.037,0.346-1.556s-0.864-4.151-1.815-5.102
		s-2.94-1.644-3.286-1.816s-1.816-1.124-2.334-1.902s0.259-6.313,0-7.955s0-3.545,0-3.545c-1.902,0.778-0.951,3.285-3.632,6.398
		s-5.015,4.323-6.745,4.756s-2.507-0.864-3.458-0.864s-5.448,2.334-5.448,3.372s0.951,5.156,0.951,5.156s-2.452,0.99-3.286,2.539
		c-1.713,3.181-0.086,4.41-0.086,4.41s-3.373-0.433-4.669,1.21c-0.721,0.913-5.88,7.091,0,9.253s18.591,1.21,21.876,1.124
		s9.771-0.52,12.019-2.768s1.038-4.15,0.951-4.842S324.675,265.112,324.502,264.075z M318.276,265.63
		c-1.124,0.26-2.334,2.249-1.902,3.113s1.383,1.038-0.605,1.384s-9.771,0.086-11.587,0.519s-9.684,0.173-10.462,0
		s-1.643-0.864-1.643-1.902s1.211-1.816,3.545-2.335s2.335,0.434,2.94-0.086s1.556-1.557,2.594-1.557s-2.162-2.421-2.334-3.026
		s1.383-3.113,3.199-3.286s1.815,0.283,2.334-0.81s-2.767-1.524-2.94-2.303s0.519-1.212,2.767-1.471s6.917-3.199,7.09-3.891
		c0,0,0.951,3.458,1.816,4.496s4.497,3.373,4.497,3.719s-1.384-0.346-2.335,0s-1.902,2.42-1.47,2.507s3.718,2.334,3.805,3.026
		S319.4,265.371,318.276,265.63z"/>
	<g>
		<path fill="#036EB8" d="M93.898,8.651c0.519-0.519,3.372-1.815,3.372-1.815s-1.383-4.67-1.686-5.275s4.107-1.643,4.626-1.556
			s2.853,6.225,4.323,6.658s2.163-0.951,1.989-1.383s-0.778-3.545-0.778-3.545s6.658-1.037,7.09-0.691s0.519,4.237,0.951,4.237
			s6.917,0.692,6.917,1.47s0.778,4.15,0.778,4.15c1.297,2.248,1.297,1.643,5.966,2.68c0.455,0.101,3.113,11.5,3.113,11.76
			s-1.815-0.605-4.237-1.21s-3.373-0.692-3.373-0.692s-1.902-7.436-2.248-8.819s-0.952-2.681-1.47-2.508s-3.286,0.433-3.545,1.643
			s-0.173,6.226-1.989,9.771s-4.324,6.139-4.324,6.139s-3.718-0.086-5.62,0s-4.583,0.691-4.583,0.691s2.248-3.026,5.188-4.669
			s4.583-7.264,4.324-8.215s-0.778-5.36-1.643-4.755s-1.989-0.259-1.816,1.297s0.606,3.026,0.346,3.199s-4.756,0.865-5.102,1.384
			s-0.346-3.978-1.21-4.669s-3.286-0.173-3.891,0S93.898,8.651,93.898,8.651z"/>
		<path fill="#036EB8" d="M131.079,8.479c0-0.466,6.053,0.605,6.572,1.816s0.346,5.274,0.778,6.226s1.643,1.903,2.162,2.076
			s3.026-1.211,3.805-1.384s2.94-1.297,2.94-1.297l2.248,2.695c0,0-3.718,4.655-3.718,5.26c0,0-7.609,0.952-8.387,0.778
			s-3.719-5.016-4.324-7.35S131.079,9.775,131.079,8.479z"/>
		<g>
			<path fill="#036EB8" d="M181.145,23.87c-0.346,0-7.609,0.692-8.042,0.8s-0.778-0.973-0.605-1.232s6.658-1.47,6.658-1.729
				s-1.383-4.756-1.383-5.621s2.334-0.951,2.594-1.297s0.346-1.47,0-4.15s-3.545-8.215-4.15-8.215s-4.669-1.038-7.609-1.21
				s-9.079,0-10.462,0.433s-7.782,0.778-8.561,0.778l-1.816,1.557c0,0,0.086,0.432,0.692,1.297s1.383,7.437,1.643,7.782
				s3.026,1.124,3.286,0.692s1.816-1.643,2.681-1.729s6.312-0.432,7.09-0.432s2.162,1.815,2.632,1.989s0.048,2.248-2.2,2.248
				s-3.545-1.816-4.15-2.162s-2.334,0.951-2.334,0.951s1.038,5.966,1.124,6.226s7.696,1.557,8.128,1.297s0.519,0.951,0.173,1.47
				s-2.507,1.621-3.891,1.47s-5.966-0.086-6.485,0.173s1.038,3.286,0.865,3.891s2.046-0.18,4.755-0.519
				c3.459-0.433,2.249-0.952,4.016,0.346s2.037,5.361,2.037,5.361s3.805-1.211,4.497-1.124s0.951-3.545,0.951-4.064
				s3.978-0.691,5.361-1.038s2.681-0.086,3.2-0.691S181.49,23.87,181.145,23.87z M161.775,8.367c-0.519,0.371-6.312,0.753-6.312,0
				s-1.139-3.3,2.594-3.175c1.213,0.041,4.15-0.346,4.15,0.605S162.294,7.997,161.775,8.367z M164.883,19.348
				c-1.378,0.199-3.713-0.04-3.021-1.607c0.399-0.904,3.805-0.211,3.891,0.408S166.261,19.149,164.883,19.348z M169.298,15.177
				c0-0.819-0.778-2.203,0-2.203s2.506,0.087,2.896-0.432s0.562-2.508,0-2.508s-4.885-2.162-4.885-2.681s0.346-2.682,3.026-2.206
				c1.022,0.182,1.47,1.187,2.767,1.826s1.643,0.985,2.162,2.628s-0.26,3.718-0.778,4.583s1.21,1.813,0.086,2.333
				s-1.383,1.298-3.199,0.434S169.298,15.997,169.298,15.177z M171.373,18.509c0.07-0.621,4.061-0.433,4.063,0.519
				s-1.384,1.125-2.031,1.47S171.285,19.287,171.373,18.509z"/>
			<path fill="#036EB8" d="M217.202,21.967c-0.519-2.421-4.583-14.181-5.188-14.993c-0.643-0.862-3.03-3.241-3.631-3.425
				c-1.179-0.361-2.162,0.519-6.572,0s-16.17-0.519-17.121-0.433s-3.545-0.778-4.237-0.605c0,0,1.643,7.782,1.902,9.598
				s0.865,14.094,0.951,14.527s0.951,3.545,2.594,4.41s15.651,1.989,18.937,1.989s13.921-0.778,13.921-0.778
				S217.721,24.389,217.202,21.967z M212.446,28.885c-0.433,0.519-5.88-0.605-6.14-1.21s1.297-1.125,1.643-1.729
				s-1.643-5.88-1.47-6.139s3.199-2.145,3.199-2.499s-2.075-2.862-2.075-2.862h-1.557c0,0-3.718-3.804-4.237-3.978
				s-1.125,0-1.384,0.086s-1.643,3.199-2.334,3.372s-2.854,0.778-2.854,0.173s-0.173-0.433-0.778-0.778s-4.323,0.865-4.237,1.384
				s2.594,2.463,2.594,3.653s-1.038,2.313-1.297,2.832s-0.778,3.026,1.384,3.891s3.804,0.605,4.583,0s1.125-0.865,1.125-0.865
				s-3.026-2.582-2.681-3.668s3.718-0.828,4.323-0.396s1.816,3.329,1.557,4.518s-0.086,0.583-0.259,1.189s0.287,2.161-0.159,2.334
				s-7.882-0.086-8.747,0.087s-3.113-1.384-3.2-2.335s-1.47-14.526-1.47-15.305s-0.433-3.2,0.605-3.2s7.35-0.466,7.35-0.466
				c1.556-0.053,8.128-0.14,9.685,0.379s5.015,5.621,5.707,8.301S212.879,28.366,212.446,28.885z"/>
		</g>
	</g>
</g>
</svg>
