<svg xmlns="http://www.w3.org/2000/svg" width="200" height="200" viewBox="-10 -170 500 500" preserveAspectRatio="xMidYMin slice">
  <path d="M123.424 48.972c.642-.254 2.762 2.121 3.017 2.121s1.527.169 1.527 1.018-2.63.426-3.054.892-4.156 1.483-4.834 1.483-1.188.933-1.781 0-.678-.424-.594-.933.17-.876.594-1.625.848.777 1.611.523 1.782-1.696 2.206-1.781 1.308-1.698 1.308-1.698zM5.911 65.846c-.424.509.763 2.375 1.188 2.714s.084 1.357.848 3.393 2.629 4.92 3.478 5.514.339 1.611.933 2.121 8.652 6.955 11.621 7.888 6.701 1.103 14.165 0 9.585-2.714 11.196-3.647 3.563-2.036 4.326-3.138 1.526-2.629 1.103-3.478 3.308-3.817 4.241-6.277 3.986-6.362 4.665-8.906 3.329-1.81 4.665-3.732c3.478-5.005 8.397-7.21 7.889-8.143s-3.478-3.393-3.732-4.326-1.018-.764-2.714-2.375-5.938-9.331-7.888-11.366c-5.746-5.996-9.331-11.451-11.451-12.384s-6.796-.813-7.973-1.188c-5.853-1.866-9.754.254-13.741.848s-6.362 2.629-8.313 3.986-4.666 4.666-8.652 9.331-3.817 5.938-5.004 10.263-.94 14.178-.94 15.437c0 1.867.513 6.956.09 7.465zm8.142-25.107c1.018-3.647 3.053-7.295 8.567-10.179s9.076-4.241 13.063-3.223 5.513 1.697 6.786 2.206 10.264 6.786 11.112 7.973 4.584 6.722 6.107 8.906c.478.685 3.732 2.714 4.411 2.884s4.072 2.544 4.072 2.544-3.902 2.291-6.616 5.259-7.125 10.942-8.906 12.638-6.7 7.549-6.955 7.973-1.612 3.393-6.701 2.46-13.571-1.272-16.879-5.089-3.308-3.308-3.308-3.817-.509 1.018-1.103.339.764-1.018 0-2.375-4.581-6.447-4.581-6.447-1.356-2.629-1.272-6.022 1.185-12.383 2.203-16.03z"/>
  <path d="M31.696 48.458c.509.764 2.29 3.563 2.205 5.768s1.951 3.223 1.951 2.969 3.053-6.531 3.732-8.058 3.223-9.5 3.478-10.263.17-1.612-1.188-1.951-1.357.084-2.29.424c0 0-2.714-.169-4.326-.548s-3.563.888-4.326.718-.932 3.985-.763 7.632 1.018 2.545 1.527 3.309zm2.63 27.651c.933-.255 2.46-.254 2.884-.763s1.272 0 1.696 0 .509-.085.679-1.272-.339-1.611-.594-1.951 1.188-1.612 1.442-2.545-.424-1.526-1.357-1.526-2.509-1.701-3.054-1.866c-1.951-.594-4.496-2.121-4.411-1.442s-1.866 4.58-2.206 5.428 1.951 2.63 2.206 3.987 1.782 2.205 2.715 1.95zm440.904 123.33c-.339-.085-5.344-4.241-5.853-4.241s-6.616-5.853-7.465-6.615-5.513-5.514-5.768-5.853.253-2.46.253-3.139 5.684-2.29 5.938-2.629 3.054-2.29 3.563-2.884 2.29-1.527 2.206-3.138-1.951-1.697-3.224-1.357-4.156.424-5.174 0-5.684-.594-6.362-.594-.424.594-1.526.594-2.884-3.817-3.901-5.174-5.177-5.853-8.739-8.397-5.174-2.375-5.938-2.969-2.884-1.611-2.969-.763 0 2.121 0 3.478-.764 2.969-.764 2.969-.424.594-1.696-1.357-2.12-4.071-2.12-4.835-3.224-4.835-4.666-6.531-5.683-5.598-7.889-6.361-8.228-2.884-11.45-3.987-7.125-3.393-9.076-5.768-7.719-8.143-7.719-8.567 0-1.272-1.188-3.478 0-2.799-1.356-5.004-6.446-8.312-7.974-9.076-7.719-5.174-7.719-5.174l-.085 1.951s-1.526 1.951-1.781 2.036.51 1.781.849 2.545-.679 3.054-1.611 3.223-4.92-3.393-7.55-6.192-7.464-4.835-9.924-6.022-8.821-4.071-14.165-7.04-8.736-9.246-10.094-10.772-2.969-8.059-3.054-8.653-.933-3.393-1.188-7.294-5.598-10.857-6.277-11.705-1.103-8.313-1.442-9.924.17-10.942 0-13.232-.424-11.705-.424-13.571-.933-6.531-1.781-8.652-1.612-5.598-2.036-5.261-3.054 1.274-3.987.511-5.938-.594-6.362 0-5.259 5.429-6.362 5.768-6.616 3.647-7.125 4.071-11.196 7.719-11.96 8.482-26.04 20.526-26.549 21.29-25.361 18.576-26.04 19.084-20.696 14.166-21.375 14.844-1.272 1.527-2.121 1.442-3.817.169-4.58.509-2.969-.509-3.987-.339-2.714 1.781-3.478.085c-1.214-2.699-1.866-.848-2.459-1.018s-7.974 2.036-8.567 2.121-10.348 3.478-11.196 3.732-9.669 2.714-10.263 2.459-2.29 1.697-3.223 1.697-6.362.933-7.549.678-.933-1.696-1.357-2.884-1.951-1.696-3.308-1.632-1.866.021-2.545 0-2.629-1.167-3.817-.403-1.781.254-2.12 0-1.951-1.272-2.375-2.036 0-2.459-.17-2.969-.594-1.696-1.188-1.696-1.442.848-1.951 1.2-1.866-.182-3.054-.012-1.272-1.442-1.272-2.29.848-1.357 1.357-2.105 1.612-1.118 2.714-.42 1.951.405 3.308 0 3.308-.274 3.817-.359 1.781.849 2.121 0 4.326-1.526 5.598-2.29 5.004-2.714 5.429-3.647 3.647-4.919 4.071-5.768.763.848.763 1.951 1.103 2.714 1.272 2.969 1.781.594 1.781.594.594 1.442 1.696 2.036 3.393 2.036 4.665 2.036 4.666 1.018 6.277 1.188 5.344-.509 5.768-.933 1.103-2.629.594-2.46-2.036-.424-2.121-.848-1.018-1.442-1.272-1.442-2.29-.848-2.714-1.272-2.544-1.866-2.969-2.121-.594-1.018-2.12-1.696-1.272-1.442-1.442-.896-.763 1.319-.933 1.829-1.188-.085-1.272-.339-1.442 0-1.781-.424.339-.509.339-1.065 1.527.047 1.781 0 .509-1.056.509-1.056-1.611-2.29-2.714-2.799-1.188-1.866-1.442-2.29-1.696-3.054-2.375-4.581 0-3.986 0-3.986c-.764 0-1.018 1.611-1.103 1.866s-1.612.848-1.696.339-.764-1.866-1.103-2.121-.678-2.29-1.188-3.902-1.272-1.611-1.781-1.977-1.781-.567-2.036-1.331-3.223-3.308-3.986-3.647-1.866.679-2.206.424-3.817-3.647-4.496-3.901-5.513-2.121-5.513-2.799-3.308-2.375-4.071-2.036-1.272.594-1.951.424-5.259-1.442-6.022-1.442-3.138-2.036-3.647-2.036 0 .933-.594.933-1.018-.679-2.036-3.138-2.887-1.778-4.326-1.697c-.65.037-3.733.175-5.175.854s-1.103 3.053-2.121 4.495-2.544-.339-2.544-.339.679 1.696 1.272 2.799.169 3.816 1.103 4.325 4.071 2.036 4.496 2.206 1.611 1.188 2.121.933 1.103-2.714 1.357-2.121.763 4.581 1.272 6.361 2.205 6.871 2.544 7.21 1.103-.169.679.679-4.665 6.531-5.344 8.736-1.781 3.053-3.478 6.87-9.161 6.107-11.366 7.04-7.464 1.951-7.257 2.545.302 1.188 3.016 3.053 6.022 3.139 6.362 4.028.339.807 1.611.383 4.156-2.121 7.549-4.241 5.259-4.496 6.616-4.156 2.799-.509 3.563-.848 1.781 1.018 2.545 1.272 3.732.339 4.071.679-.169 3.902-.339 4.75-1.188 2.29-2.121 2.714-2.205.169-3.732-.553-1.527 1.146-1.951 1.316-1.697-.254-2.714-.594-3.393 1.188-3.647 1.188-.679.255-3.563.17-5.853 2.629-6.786 2.29-2.46.254-2.799.509-1.611 4.072-1.866 5.005 1.018 1.441.763 2.203-7.125 7.127-8.567 7.721-1.272 1.611-1.611 2.375-5.344 6.361-5.344 6.361-.254 1.357.424 1.697.594 1.442.678 3.478 1.697 7.04 2.46 7.719-1.442 1.611-2.205 2.29-4.496 1.357-5.429 2.714 2.036 1.781 1.188 1.951c-1.431.286-1.018 3.987-1.272 4.072s-8.143 10.603-9.246 11.79-11.875 15.268-12.723 15.861-2.969-1.188-4.496-1.866-2.206-3.393-2.629-3.393-3.308 7.38-3.817 9.161-.933 6.022-.424 6.446-1.951 2.799-2.206 3.817-2.714 5.174-3.393 5.853-4.581-3.647-7.125-6.277-6.786-10.263-7.719-12.214-1.866-3.478-1.951-2.545-3.901 3.987-6.192 9.5-1.018 9.331.594 13.317 6.107 7.04 6.871 7.889c.763.849.848 1.612-.339 2.29s-1.527.425-2.205.425-1.612 1.866-2.036 2.29-1.442 3.901-1.442 5.089 3.647-.169 4.326.849-1.272 3.901-2.46 5.598-3.054 2.206-3.138 3.139 3.053 5.26 3.647 5.599 2.629-2.63 3.393-4.156 1.527-1.866 1.696-2.8.764-2.035 1.103-2.969.594-.424 2.12-.339 1.103.424 1.951 1.188 2.036 1.018 3.563 1.866 2.799 2.714 3.223 2.205-.254-1.526-.254-1.526 1.272-1.019 2.036-1.527-.848-3.563-1.781-5.344-3.987-5.344-3.138-5.429 3.223 3.479 3.563 3.987 8.396 8.058 8.736 8.397 9.161 7.889 11.197 8.566 9.5 5.938 11.026 6.956 16.115 7.973 19 8.821 16.455 7.04 19.424 7.379 16.116.425 18.576.594 7.041-.679 7.719-.933-.424-1.103-.339-1.951.169-1.866.169-2.714-2.375-1.442-3.478-1.866-9.246-2.799-11.197-3.139-18.406-6.107-18.406-5.514 2.459 2.036 4.919 2.715 17.897 5.174 18.406 5.514 3.902.594 3.732 1.781-2.799 1.271-3.986 1.441-8.143.34-11.197 0-11.111-2.969-12.893-4.071-11.79-6.277-13.147-8.059 1.272-1.018 1.781-2.035.594-1.781-.679-2.884-1.442-1.866-.848-2.206.764-1.866 1.018-3.308-1.866-.764-3.987-2.46-4.496-6.022-5.004-7.634 1.272-3.817 2.206-3.309 1.696 1.781 2.629 2.291 8.991 5.089 11.281 5.259 9.584 4.325 11.536 5.174 20.018 9.415 24.853 11.111 18.576 6.956 22.223 7.295 7.295 2.29 13.487 2.46 12.214 1.526 21.799-1.103 15.777-9.925 15.777-9.925-3.902-.509-5.938-1.441-5.089-.255-7.379-.764-11.536-1.696-14.25-2.629-19.085-5.769-20.866-5.684-9.924-3.138-11.196-3.223-14.928-4.326-15.606-5.09.084-5.344.084-6.446 0-4.411-.424-5.768-1.357-7.21-1.442-8.143-.594-6.107-.594-7.719.169-16.71.169-18.576.594-10.604.933-10.943.848.085 1.357-.254 1.357-.678 2.884-.254 4.326 1.612 4.411.594.764-3.647.764-4.326-.085-7.634.169-9.076.848-12.214 1.442-15.861 1.018-8.991 2.12-9.5 5.938-.933 5.768-1.866 1.781-4.666 2.714-5.683 3.732.424 5.004.594 3.478-.848 4.411-1.442 18.491-.848 19.933-.848 8.737-.594 9.585-.424-3.732 4.241-5.259 5.938-7.889 6.361-6.701 7.04 2.206 1.442 3.054 2.459 1.781 1.866 3.817 1.781 1.951-1.018 3.308-1.951 11.112-9.5 12.044-10.348 5.174-3.308 5.683-4.326 8.737-6.022 9.67-7.21 12.893-10.688 14.08-12.045 9.416-8.228 11.621-9.754 3.902-1.781 4.92-3.647 6.447-4.749 7.549-6.191 14.928-11.791 16.794-13.572 21.375-15.606 22.986-16.709 15.013-11.96 15.353-11.706 2.036 0 5.429-1.527 3.563-.254 3.563.085-.679 2.121-.594 2.969 1.357 6.871 1.357 8.652-.764 10.602-.849 11.535 1.188 1.696 1.188 2.036.848 7.21.933 8.652.848 5.768 1.612 7.804 8.906 13.655 9.416 14.165-1.527 6.786-.849 7.719 5.599 12.299 6.022 13.063 3.308 4.326 6.107 7.549 14.844 7.888 16.37 8.651 13.996 5.598 15.014 6.192-.17 2.63.17 3.308.933.933 1.272.933 1.441-.509 1.781-.509 1.272.679 1.272 1.018-4.157 3.393-3.732 4.071 4.24 3.732 4.919 4.834 3.817 3.478 4.581 3.478 3.308-2.206 4.24-2.375 5.429-2.46 6.447-2.291 6.531 6.531 6.955 7.041 6.532 7.972 7.466 8.99 2.799 5.004 3.901 5.768 3.563.17 4.071.509 6.786 2.121 8.906 2.375 6.695 5.451 8.06 6.276c1.019.616 5.514 5.428 5.938 5.768s5.599 4.326 4.835 5.089-5.683-1.357-6.361-1.357-3.478-1.951-3.987-1.527 3.395 9.076 4.073 9.839 5.174 5.683 5.174 6.107-.933 3.986-.679 5.598 1.357 3.987 3.732 4.241 3.054-.424 3.563-1.696 3.901-1.442 4.326-1.103c.425.34 4.495 2.714 6.276 2.969s6.616 1.696 6.616 1.696.509 0 .509 2.46 3.054 7.125 3.817 8.058 4.155 5.769 4.834 6.616 4.326 5.175 4.835 4.241 1.357-9.585.934-11.96.594-1.272 1.526-1.356 3.054 1.271 3.732 1.526 2.375 1.357 4.665 1.357.346-2.041.007-2.126zM15.176 184.695c-.808 0-1.212 1.715-2.423 1.11s-3.735-3.231-5.149-5.149-1.514-5.351-1.918-5.452-.909-1.313-.808-2.726 1.616-5.417 2.827-4.98.694 2.153 2.82 4.778 4.853 8.884 5.66 9.389c.6.376-.201 3.03-1.009 3.03zm80.729-98.657c.085-.679 1.103.509 1.697 0s.169-4.666.678-4.92 1.781-.509 1.781-.509c.254 0 2.629.085 3.308.933s-.509 4.496-.509 4.496l-.509 2.202s-.215 2.632-.532 3.311-.486 1.527-.486 1.527-4.834.848-4.919 0-.594-6.362-.509-7.04zm-12.132 19.678c.426-.679 3.226-3.817 3.395-4.156s2.346-1.261 3.308-1.357c1.696-.17 4.43-3.983 4.156-2.291-.096.592-.848 4.071-1.188 4.835s-2.969 7.04-3.139 7.634-2.799 5.004-3.478 4.496-3.139-2.884-3.054-4.411.593-2.375.509-3.393-.935-.678-.509-1.357zM70.3 125.836c.505-.202.504-.752.808-.78s-.201-.028.404-1.038 1.11-2.434 1.615-2.075 1.085.515 2.12.359c.499-.075 3.635-.808 3.938 0s-.202 1.515-1.969 1.918-2.776.807-2.776 1.413-.404 2.221-1.111 2.221h-2.625s-2.625.707-2.423 0 1.514-1.816 2.019-2.018zm-25.139 80.263c-.202.303-1.514-.101-2.322 0s-4.342-2.524-5.957-3.635-3.635-3.533-4.24-3.735-2.625-.505-2.322-1.01-.202-2.726-.707-3.13-5.25-3.433-5.25-3.433-1.716-1.212-1.211-1.817.909-1.312.808-1.716-1.11-2.423-.202-2.827 1.918.505 2.524.909 1.414-.101 1.414-.101l.808 1.211s.908 2.221 2.322 2.625 2.726.505 3.433 1.817.404 1.153 1.817 1.99 2.019.938 2.524 1.442 1.716 1.213 2.221 1.414 1.616 1.322 2.322 2.074 4.038 3.378 4.139 3.983-1.919 3.636-2.121 3.939zm5.654-15.145c-.202 1.11-1.716 3.433-2.423 3.433h-2.827s-5.553-3.432-6.159-3.836-2.423-3.131-3.332-3.534-1.515-1.029-1.414-1.474-.605-2.161-1.11-2.262-3.029-1.817-3.029-1.817-1.615 1.413-1.716.808 1.211-3.952 1.211-4.298.593-2.319 1.515-1.274c.67.76 3.938 4.764 4.846 4.865s1.414.909 2.019 1.111 1.615.706 2.524 1.312 3.433 1.571 4.039 1.947 1.016.275 2.325 1.486 2.521.844 2.824 1.027.909 1.396.707 2.506zm2.12-5.562c-.707-.092-1.231-1.404-2.08-1.404s-1.555 1.414-4.18.202-3.534-4.246-4.645-5.101-4.038-3.48-4.543-4.187.101-1.717 0-2.524-1.013-2.12-.204-2.12 2.324-.808 3.131 0 2.221 2.524 2.221 2.524c.909.909 2.121 2.89 3.231 3.918s2.826 2.846 3.937 3.654 3.433 1.414 3.635 2.524.204 2.606-.503 2.514zm-1.312-14.225c-.303-.909-1.312-2.019-1.716-2.12s-.303 1.11-1.616.605-3.836-2.221-4.442-4.24 2.725-4.645 3.937-6.159 7.269-8.683 7.774-9.389 6.058-6.865 6.26-7.673 3.634-5.149 4.24-5.856 2.726-4.542 3.13-3.129.101 1.615.303 2.322 2.928-1.514 2.928-1.514c1.111-.404 3.735-1.111 4.442-1.414s2.625-1.414 3.231-2.221 1.716-2.21 1.716-2.21-.102 1.817-1.111 2.922-1.147 1.509-1.432 2.519-.89 2.322-.587 2.625 1.817-1.211 2.019 0-1.918 1.716-1.918 2.423-.504 1.515-.808 2.221-3.568 4.746-4.207 6.159-3.971 6.865-4.375 7.774-5.351 8.177-6.259 9.288-2.019 2.322-2.019 2.827-.102 2.927-.808 3.129-2.12 3.534-2.221 4.039-6.158-2.019-6.461-2.928zm19.788 1.615c-.303 1.313-3.433 12.015-4.341 13.327s-2.322 2.22-3.332 2.321-3.231-.505-4.543 0 3.635-9.893 4.543-11.509 4.341-7.673 4.745-8.885 1.11 0 1.11 0c.909.101 2.322-.202 2.524.909s-.403 2.525-.706 3.837zm23.726 28.875c-.606 0-1.817.605-1.414.908s.909 2.019-.303 1.918-1.666.708-5.931-1.009-6.083-3.636-6.891-4.039-3.635-2.423-4.543-2.928-2.524-1.211-2.423-1.716 1.514-.504 1.918-.808.101-2.21 1.313-2.216 2.524.903 2.524.903c1.211.403 2.979 1.615 4.114 1.918s4.467 2.523 5.275 2.523 4.846 1.817 5.351 1.817.404-.808 1.01 0 .606 2.729 0 2.729zm-18.174-32.61c-.202-.707 2.928-2.315 4.341-3.984s3.837-3.891 4.442-4.9 6.058-4.24 6.058-4.24c0 .404-.304.909-.404 1.918s-.504 3.735-.605 5.048-.707 2.827-.505 4.543.767 8.077.737 8.884-.718 2.019-.778 2.827.202 3.332.778 5.048.98 2.523.778 3.129.205 2.019-.756 2.625-.96 1.918-1.566 1.817-6.663-3.635-7.673-3.635-3.13-1.616-3.635-2.12c-.505-.504-3.029-1.312-3.029-2.625s1.615-10.5 2.019-11.409.001-2.219-.202-2.926zm24.736 24.028c-2.423-.605-3.23-3.532-3.836-5.148s-2.726-11.208-2.726-12.217.605-11.711.605-12.721 1.211-10.523 1.313-11.824-.808-1.2-1.313-1.2.303-1.514 0-2.12-2.726-1.515-3.029-1.918-4.24 3.735-4.644 4.341-5.148 5.553-6.259 6.361-5.855 5.149-6.461 5.957-2.625 3.193-3.433 3.111-1.918-2.303-1.01-3.515 4.24-4.846 4.341-5.25-1.11-.404-.404-2.02 4.001-6.058 4.424-7.269 3.653-4.442 3.653-5.25 2.222-6.158 4.14-5.452 5.048 1.313 5.048 1.313c1.817-.202 2.322-.202 4.039.707s4.442.808 5.048.707 4.442-.404 3.938 1.918-.707 8.986-.707 10.197-1.413 6.764-1.413 7.471.706 18.274 1.009 20.192 2.019 11.105 2.12 12.115-2.02 2.12-4.443 1.514zm22.008 18.274c2.423.505 11.69 3.451 12.822 3.635 1.508.244 4.745.908 6.663 1.413s7.269 2.222 8.582 2.322 7.875 2.221 8.784 2.221 2.12.304 2.12 1.212-6.259 3.231-7.168 3.635-5.755-1.313-7.572-1.817-6.865-2.322-7.673-2.524-5.452-1.009-6.058-1.716-4.24-2.727-5.855-3.332-5.452-3.13-5.957-3.635-1.111-1.919 1.312-1.414zM113.124 56.69c-.678-.594-1.697-.594-2.375-.933s-.848.914-.763 1.475.045 3.784-.02 4.378.359 1.866.529 2.29-.509 2.036-1.188 1.866-4.411-2.544-3.902-4.411.245-2.036-.047-2.629.387-.444.557-1.494.254-4.104.933-3.765 1.104-2.375 2.036-3.054.17-2.882.594-3.435-.424-1.485.594-1.655c1.007-.168 1.738 2.392 2.108 1.673.048-.104.063-.128.012-.018-.004.008-.008.011-.012.018-.192.419-.938 2.194-.327 2.398.763.255 1.527 0 1.781.255s-.085 1.696.424 1.442 1.102-1.188 1.357-1.697 1.188-2.798 1.527-3.308-.933-.849-1.188-.849-1.357-.933-1.103-1.018 1.187.424 1.951 0-1.272-.848-.848-1.103-.339-.509 1.103-.764 2.09-.011 3.223-.169c1.855-.259 6.107-1.272 7.379-1.272s4.326-.848 5.259-.848 4.326-.933 4.326-.339-1.442 2.036-1.781 1.866-1.018-.424-1.188 0-1.103 1.018-1.612 1.018-1.188-.169-1.018.509-.169 2.375-.424 2.714 2.29 2.545 2.375 3.054 1.951-.17 2.375-.339 1.951-.424 2.036-.763-.934-1.951-.424-2.714 1.188-.254 1.272 1.442.678 3.478.848 4.156.254 1.188.848 1.357 1.357 1.272 1.188 1.951-1.272 2.206-1.272 2.46-1.103 1.781-1.357 2.29-1.781 1.272-2.29 1.527-2.121 1.103-2.206 1.951-1.272 3.478-1.781 3.987.085-3.393.17-3.647-.255-1.527.424-2.036-.508-1.697-.084-1.866.424-.424.509-.848-.848-1.272-.254-1.611 1.103-1.103 1.103-1.103l-2.629-.763s-.933.934-1.442.679-2.714 1.103-3.647 1.611-4.241 1.442-6.022 1.442-4.666-.613-5.598-.815-1.361.051-2.039-.543zm1.866 5.599c.424-.17.933-1.103 1.696-.764.31.138 1.357-.255 2.121 0s2.375.028 3.223-.113 3.139.311 3.647 0 2.205-1.103 2.29-.028-.933 1.16-.594 1.753.084 1.781-.339 1.781-.509.328-1.103-.345-1.272-.418-1.272-.418-4.072 0-4.75-.424-2.77-.594-2.233-.424.028 1.346.961 1.267 3.397-.6 3.692 0-1.741.939-2.589.77-2.121-.521-2.375-.77-.764.43-1.612.43-1.187-2.546-.763-2.715zm16.2 29.007c-.084.763-3.563 4.496-3.902 5.089s-.933 1.018-1.611 1.188-2.488 1.188-2.855.848.65-5.115.82-5.908-.594-1.132-.085-1.811.424-1.442.169-1.527-2.036-1.102-1.442-1.951 2.545-1.188 3.139-1.188 1.351.499 1.866.509c.339.007 2.799.085 3.732 0s1.951.333 1.696 1.693.424 2.039.679 3.057-2.121-.762-2.206.001zm62.004-9.075c-.339 2.375-2.29 2.799-3.308 2.969s-1.951 1.272-2.375.848-3.732-4.241-3.308-5.428 2.63-1.697 6.362-.764c.745.186 2.968 0 2.629 2.375zm182.619 35.626c-.17 1.103-2.459 2.799-3.816 2.969s-4.072 1.951-4.411 1.612-.679-.764-1.272-.764-.678 1.103-2.205-.084-2.29-2.121-.679-2.545 3.817-.848 4.326-.848 1.865.085 1.95-.169.306-3.647-.398-4.241-1.553-2.545-1.213-3.647 2.833-.353 3.309 0c.946.702 3.901 3.902 4.41 4.666s.169 1.948-.001 3.051zm75.492 65.227c-.509.594.254 2.375-1.696 1.781s-3.478-1.526-3.986-1.611.679.763-1.272.339-3.646-2.035-3.901-2.205-4.411.594-5.09.085-1.272-1.103-1.696-.679-1.356 1.356-1.526 1.018-1.526-3.224-.594-3.563.848.085.933-.678-1.951-1.782-2.969-3.393-.934-1.611.509-1.442 1.866.509 2.375.339.764-.509 1.357-.509 1.612.254 2.036-.339.594-3.308.933-4.241.085-3.478.764-3.647 3.393 1.272 3.393 1.272c-.594 1.442.339 4.411 1.018 4.75s.934-1.272 1.442-.933.678 1.781 1.526 1.866 1.611-.424 2.29.594 2.714 4.58 3.054 4.919 2.46 4.919 2.375 5.598-.766.085-1.275.679z"/>
  <path d="M293.035 208.441c2.148.086 2.148.859 3.609.516s5.844-.945 7.562-.945 3.008.518 4.468.517 7.132.604 7.733.517-7.132.943-7.991 1.201-1.977 1.203-3.18 1.031-2.921-.773-3.351-.602-1.117.299-2.32.622-3.609-2.062-3.953-1.643-1.804 1.466-2.578 1.673-.516-.293-1.719 0-2.921-.619-3.523.052-1.891 1.1-1.719 2.131 2.75 1.031 3.18 1.031-2.836-.516-1.289 1.547 6.101 1.203 6.788 1.289 4.04.945 4.641.773 1.632-.773 2.578-.688 8.851.904 9.624.71 3.847.579 4.845.493 6.497.271 7.27.007 1.117-.952 2.063-.952 4.984 1.289 5.156 2.492-1.633 2.32-3.438 1.977-6.1.299-7.733.063c-1.633-.235-6.187-1.009-7.82-1.009s-7.046.43-8.507.086-3.609.344-4.726.43-6.273-.602-7.39-.688-6.96-.086-9.452.43-13.233 1.289-13.491 1.289-3.007-1.719-4.039-1.719-4.382-.43-6.187-.859-3.179-.172-3.953-.43-2.493-1.117-3.695-1.117-6.015-.086-8.335-1.031-2.32-.43-3.781-.43-2.148-.258-2.578-.258-2.664.516-3.523.258-3.179-.172-3.953-.172-1.977.344-3.352.43-6.444.602-7.132.344-2.835-.258-3.437-.258 18.646-2.836 19.42-2.836 8.593.086 9.968-.172 6.616-1.461 8.507-.516 10.312.602 12.116.516 6.874-.172 7.562-.086 5.774 1.076 6.96-1.804c.602-1.461 5.083.12 5.328-.43.519-1.163-3.262-2.366-2.317-3.312s11.084-.468 11.084-.468z"/>
</svg>
