<?xml version="1.0" encoding="utf-8"?>
<svg version="1.1" id="レイヤー_1" xmlns="http://www.w3.org/2000/svg" xmlns:xlink="http://www.w3.org/1999/xlink" x="0px"
	 y="0px" width="200" height="200" viewBox="130 -90 100 400" enable-background="new 0 0 266.548 290.342"
	 xml:space="preserve">
<g>
	<path fill="#C2E6FA" d="M19.837,77.83c0,0,25.555,3.749,28.621,3.749s13.289,2.912,17.037,5.034s1.363,4.166,1.363,4.166
		s-18.74-3.902-28.281-4.166s-21.807,0.077-23.511-2.308S19.837,77.83,19.837,77.83z"/>
	<path fill="#C2E6FA" d="M18.813,98.615l32.03-3.407l28.622,6.474c0,0,17.377,22.829,19.422,23.511
		c2.045,0.682-27.809,0.208-31.281-2.792c-3.475-3-9.949-9.474-22.556-10.156s-29.984,1.022-29.984,1.022L18.813,98.615z"/>
	<path fill="#C2E6FA" d="M18.474,122.4c0,0,23.17,4.156,25.896,5.518c2.725,1.362,18.059,9.881,20.784,8.858
		c2.726-1.021,10.903-1.193,19.081,0.086c8.178,1.277,14.853,5.366,14.752,6.389c-0.1,1.022-9.641,2.727-9.641,2.727l-14.311,3.406
		c0,0-16.355-7.496-30.666-9.54c-14.312-2.044-29.304-0.682-29.304-0.682L18.474,122.4z"/>
	<path fill="#C2E6FA" d="M14.78,151.049c0,0,13.233-0.644,16.301,1.401c3.066,2.045,13.97,7.498,13.97,7.498
		s-27.147,3.406-30.271,5.451C11.659,167.445,14.78,151.049,14.78,151.049z"/>
	<path fill="#C2E6FA" d="M15.066,179.029c0,0,25.214-5.451,29.984-3.406c4.771,2.043,25.215,10.563,29.645,10.221
		c4.43-0.34,22.829-4.537,27.6-5.334c4.771-0.799,29.644,8.742,38.503,10.105s22.49-1.705,34.074,0
		c11.586,1.703,33.734,2.385,36.119,5.111c2.385,2.725,23.51,9.199,23.51,9.199s27.602-4.771,35.438-7.156
		c7.838-2.385,28.965-11.244,34.074-10.563c5.111,0.682,46.682,0,46.682,0l-1.578,16.355l-43.4,4.09l-50.088-1.363h-46.34
		l-39.867,1.363c0,0-16.015-6.133-43.615-11.244c-27.6-5.111-35.777,4.43-35.777,4.43l-10.563,3.406c0,0-24.533-9.541-36.459-9.881
		c-11.926-0.342-18.059-5.451-27.94-5.793C5.185,188.23,15.066,179.029,15.066,179.029z"/>
	<path fill="#C2E6FA" d="M13.394,199.814h18.709c0,0,14.311,17.037,19.422,17.719s15.674-5.111,22.489-5.111
		s21.328,10.904,24.976,12.949c3.646,2.043-29.405,3.406-29.405,3.406L48.8,232.185c0,0-5.793-7.156-23.171-9.201
		c-17.378-2.043-14.954-1.363-14.954-1.363L13.394,199.814z"/>
	<path fill="#C2E6FA" d="M20.858,232.185c0,0,24.193-1.703,27.941,0s18.059,9.541,21.466,8.518
		c3.407-1.021,25.556-5.775,33.052-4.592c7.496,1.186,41.229,6.637,49.066,6.637s33.733-5.188,41.229-5.66
		s48.725,4.979,62.354,3.275c13.631-1.705,35.098,2.725,42.594,4.088s35.777-2.045,39.525-1.363s12.607,1.689,12.607,1.689
		l-8.52,10.236l-160.083-1.361l-105.01-2.045c0,0-51.111-7.154-52.475-10.223C23.243,238.318,23.584,233.207,20.858,232.185z"/>
	<path fill="#C2E6FA" d="M112.858,216c0,0,15.333-10.053,27.6-10.053s34.755,9.881,45.318,10.053
		c10.563,0.17,26.236-4.77,31.689-5.025c5.451-0.256,18.398,1.789,24.533,1.789c6.133,0,36.117,3.406,39.525,4.77
		c3.406,1.363,14.652,1.363,18.4,1.363s17.719-2.727,23.852,0c6.133,2.725,25.34-1.363,25.34-1.363l-6.26,7.496l-53.496,2.045
		l-38.504,2.725l-36.117-5.451h-31.007l-33.051-6.475L112.858,216z"/>
	<path fill="#C2E6FA" d="M165.331,159.949c0,0,19.082-0.34,26.578,0s62.355,11.584,66.785,11.244
		c4.43-0.342,17.719,8.178,17.719,8.178l-28.963,9.539l-43.615-13.746l-27.259,3.184L165.331,159.949z"/>
	<path fill="#C2E6FA" d="M110.473,151.049c0,0,9.54-9.501,24.533-10.864s39.46,5.412,43.582,5.432s25.929-0.883,30.018-0.09
		c4.088,0.791,13.629,11.014,13.629,11.014h-32.371l-28.621-5.491l-21.126,2.425l-16.015,3.066L110.473,151.049z"/>
	<path fill="#C2E6FA" d="M259.715,148.272c0,0,11.588-10.493,20.445-8.269c8.859,2.227,14.992,8.269,14.992,8.269l-18.74,2.777
		L259.715,148.272z"/>
</g>
<path fill="#036EB8" d="M341.393,10.186c-0.682-3.748-52.475-4.43-52.475-4.43H220.77L119.23,8.142L42.905,5.756L17.35,11.89
	l-3.748,47.704l3.748,2.726l17.378-4.089l19.081-1.022l21.126,7.155L84.815,63l16.355,1.704l21.808,6.474l21.467,1.704
	l22.489-13.289l13.691,4.43l20.041-2.726l11.244,9.2c0,0,10.563-3.748,13.631-2.044c3.066,1.704,12.266,5.792,12.266,5.792
	l11.926-0.681l17.719-1.363l10.223,6.474c0,0,8.859,2.726,11.584,2.385c2.727-0.341,5.111-1.704,9.541-0.341
	s6.133,3.748,9.883,4.771c3.748,1.022,8.178-3.067,13.969-3.407c5.793-0.34,12.949,3.407,14.992,4.77c2.045,1.363,5.111,0,5.111,0
	s0.342-8.519,0.342-11.585s1.703-15.333,4.088-21.126S342.073,13.934,341.393,10.186z M211.229,46.607
	c-1.021,4.468-4.087,4.127-15.673,3.105c-11.585-1.022-24.873-3.825-30.666-3.105s-16.355,1.06-22.488,1.742
	c-6.134,0.682-5.793,3.748-10.904,4.089s-9.881-4.088-12.607-3.066s-4.771,4.77-12.607,1.363s-9.54-2.726-14.651-2.726
	s-8.519,3.066-13.63,2.044s-5.451-2.044-9.541-2.044c-4.088,0-9.199,1.364-9.54-4.429s3.065-7.923,8.519-4.302
	c5.451,3.621,15.674,1.491,17.377,0c1.704-1.491,0.342-4.558,6.815-5.239s4.771,2.726,10.222,0c2.198-1.099,8.178-8.859,13.63-7.837
	s13.63,4.089,16.696,7.837c0,0,8.859-4.533,14.311-3.97c5.452,0.563,6.475,7.378,8.519,6.696s3.407-7.354,13.63-2.726
	s17.037,8.519,20.104,8.519s10.223-3.067,14.311-2.726C207.142,40.171,212.252,42.139,211.229,46.607z M332.874,58.912
	c-6.814-0.341-11.244-3.067-18.059-2.726s-8.861,3.775-18.061,2.74s-8.857-2.059-18.398-2.74s-13.631,2.726-22.83,4.43
	s-24.533-0.341-23.852-3.748s1.703-6.096,14.992-4.411c1.727,0.219,3.748-6.531,10.904-7.515c7.154-0.984,3.746,3.728,10.902,4.59
	s7.939-8.679,12.607-10.249c6.475-2.178,9.881,2.933,16.697,4.637c6.814,1.704,13.289-2.726,14.992,0s4.43,5.111,10.223,6.474
	s9.881-2.044,11.926,0.341S339.69,59.252,332.874,58.912z"/>
<path d="M359.249,113.43c-1.023-10.563,3.066-35.097,2.725-38.845c-0.34-3.748,0-25.215,0-32.711s-1.361-19.422-2.043-25.215
	S346.299,4.393,342.211,2.975c-4.09-1.417-47.703-0.627-53.496-2.331s-54.52,1.022-62.355,1.166
	c-7.838,0.144-50.429-0.144-53.496-0.144c-3.067,0-44.979,2.044-49.066,1.022c-4.09-1.022-33.733-1.712-46.341-2.044
	C72.35,0.51,35.547-0.037,28.05,0.086S16.465-1.741,7.605,7.8s-7.837,64.4-7.212,72.237s0.738,68.828,1.761,77.348
	c1.021,8.518-4.43,78.711,0,87.229c4.43,8.52,13.629,9.541,27.939,11.926c14.312,2.387,80.074,2.727,87.911,2.385
	c7.837-0.34,73.6,1.363,81.437,0.342c7.837-1.023,77.688,3.406,87.911,2.045c10.223-1.363,48.727,1.021,58.947,0
	c10.223-1.021,10.564-21.809,9.883-25.215c-0.682-3.408,3.066-41.23,3.406-48.045c0.342-6.816-0.34-23.852,0-26.918
	C359.93,158.066,360.27,123.992,359.249,113.43z M17.146,69.474c0,0,12.947-0.34,15.333-3.066s7.837-4.43,12.267-4.771
	s26.237,7.837,29.645,7.837s10.563-2.044,18.059-1.704c7.497,0.341,23.853,6.815,23.853,6.815s-8.519,2.725-17.378,2.385
	s-11.585-1.305-14.652,0.029c-3.066,1.334-8.178,4.06-8.178,4.06s-13.971-7.497-27.94-8.178s-31.007,3.748-31.007,2.726
	S17.146,69.474,17.146,69.474z M216.479,95.798c1.021-0.769,4.088,0,4.088,0l3.748-5.198c0,0-4.088-4.77-2.385-4.089
	s4.77,0.549,5.793-0.066c1.021-0.615,1.703-5.554,2.725-2.744c1.023,2.81,5.453,14.055,15.334,19.506
	c9.881,5.451,21.809,7.049,24.875,9.828s23.17,15.386,23.17,15.386s-3.75,0.34-13.631-3.408c-9.881-3.748-16.014-8.178-16.014-8.178
	s0.682,3.408-1.703,3.408c-2.387,0-8.861-7.156-9.883-7.156s0.342,3.066-0.682,3.066c-1.021,0-10.221-5.792-10.221-5.792
	l-0.682,4.089l-6.135-5.793l-1.361,3.408l-4.43-6.43c0,0-9.541,13.926-10.564,12.563c-1.021-1.363-2.043-3.407-2.043-3.407
	s-7.648,5.793-9.617,6.474c-1.969,0.682-2.99-5.451-1.969-7.496s-4.43,7.496-6.133,5.452c-1.459-1.75,0.324-3.495,0.869-3.964
	c-1.225,1.006-9.656,7.881-8.707,5.668c1.022-2.386,1.704-9.882,1.704-9.882s-3.749,5.792-9.541,6.814s-10.222,3.067-9.54,1.022
	s0.682-2.045,0.682-2.045s-11.586,4.431-10.563,2.727s-0.063-3.408-0.063-3.408s-7.773,3.408-7.773,1.704s0-1.704,0-1.704
	s-14.652,1.363-13.63-1.362s14.652-5.111,16.015-4.43c1.363,0.682,9.541,2.386,9.541,2.386c5.451,1.362,24.874-2.385,28.622-5.793
	c2.434-2.213,6.438-3.27,9.142-3.37c-0.467-0.646-0.342-1.528,1.346-2.515c4.505-2.634,9.617-2.975,9.617-2.975
	S215.456,96.566,216.479,95.798z M320.745,200.998c-5.793-0.682-25.555,2.045-30.666,3.408s-29.305-1.703-34.074-1.703
	c-4.771,0-27.941-2.727-37.482-1.705c-9.539,1.023-25.213,3.084-34.073,3.758c-8.859,0.672-32.712-2.055-50.089-4.098
	c-17.377-2.045-30.666-6.133-35.777-5.111s-17.378,2.385-25.215,11.586c0,0-14.992-8.859-29.644-11.586
	c-14.652-2.727-23.852,0-26.578-1.021c-2.727-1.023-1.363-12.268-1.363-12.268s22.83-10.223,28.963-10.563
	s24.533,3.066,38.504,9.199c13.97,6.135,30.325,2.045,36.118,1.363s21.125-2.914,35.437,2.121s25.642,5.035,27.983,3.332
	c2.342-1.705,17.676-5.793,23.469-5.793c5.792,0,26.917,6.814,26.917,6.814s-7.496,2.727-9.199,2.727
	c-1.705,0,19.082,6.475,29.303,4.088c10.223-2.385,27.602-9.717,33.393-11.674c5.793-1.955,23.51-7.168,29.984-5.924
	c6.475,1.242,24.875-0.463,26.578-1.824c1.703-1.363,3.748,18.059,2.385,21.467C344.256,200.998,326.536,201.679,320.745,200.998z
	 M345.618,210.505l-1.703,8.553c0,0-12.947,3.746-24.533,2.043c-11.584-1.703-21.807,2.045-25.555,2.387
	c-3.748,0.34-20.104-4.09-24.875-4.09c-4.77,0-19.08,5.148-25.555,4.107s-24.875-6.834-31.008-6.834
	c-6.132,0-32.093,6.814-35.809,5.111s-26.546-6.77-35.063-7.303c-8.52-0.533-16.355-1.215-22.489-2.236
	c-6.134-1.023-22.489-5.111-27.6-5.111c0,0,10.505-4.09,34.215,0c23.71,4.088,52.673,8.178,55.058,6.814
	c2.386-1.363,36.458-3.252,49.748-4.182s52.816,6.566,55.201,5.885s31.688-1.363,36.459-2.727
	C326.877,211.562,345.618,210.505,345.618,210.505z M154.124,169.824c4.77,2.553,8.518,4.596,8.518,6.301
	c0,1.703-3.748,3.066-14.311,0s-16.697-0.682-19.764-1.703c-3.066-1.023-5.792-4.426-8.178-4.598c-2.385-0.174-8.859,1.877-10.903,0
	s-0.681-4.244-0.681-4.244s-8.178,2.828-8.178,0.895c0-1.936,0-3.297,0-3.297s-12.948,4.467-11.927,2.402
	c1.022-2.063,7.155-4.996,7.155-4.996s-7.271-0.473-7.212-1.836c0.057-1.363,5.168-6.891,7.894-6.512
	c2.727,0.377,7.496,2.764,7.496,2.764c4.771,2.725,10.223,9.918,19.082,10.58C131.976,166.244,149.354,167.271,154.124,169.824z
	 M134.36,159.087c0,0,5.452-5.451,23.17-1.363c17.719,4.09,39.866,5.855,43.615,7.357c3.748,1.502,27.941,0.479,31.347-1.564
	c3.408-2.045,23.705,1.154,27.867,2.281s17.793,6.578,17.793,6.578s-16.357,5.793-19.424,7.156
	c-3.066,1.361-7.496,5.449-13.287,4.77c-5.793-0.682-2.727-5.111-24.875-9.541c-22.148-4.43-29.304-5.873-33.733-4.471
	c-4.429,1.404-12.607,4.471-14.312,3.107c-1.703-1.363-18.74-10.77-22.488-11.244C146.286,161.681,134.36,159.087,134.36,159.087z
	 M346.981,127.058c0.682,1.363-14.65-2.384-19.08-2.044c-4.43,0.342-8.52,4.689-12.949,2.345c-4.43-2.345-18.059-6.093-23.34-9.5
	c0,0,12.777-2.726,23.682-2.044c10.902,0.682,20.102,4.77,21.807,4.43c1.703-0.342,9.881-2.26,9.881-2.26
	S346.299,125.695,346.981,127.058z M346.981,108.318c0,0-10.904,0-18.4,0s-13.969,2.133-22.146-2.682
	c-8.178-4.815-10.223-3.976-14.822-4.566s-12.438-1.953-12.777-2.975c-0.342-1.022-6.135-8.859-8.859-7.837
	c-2.727,1.022,3.066,5.452,2.725,7.837c-0.34,2.385-7.494-3.418-9.881-5.117c-2.385-1.698-6.135-4.424-6.475-3.061
	s1.023,8.518-3.406,7.837s-15.914-10.748-16.697-17.675c0,0,4.088-4.132,7.838-2.429c3.748,1.704,4.77,4.176,12.947,2.429
	s8.178-4.926,15.674-1.122s17.379,14.707,30.668,18.456c13.287,3.749,43.613,5.793,43.613,5.793V108.318z M203.189,94.007
	c-5.452,2.044-11.926,6.474-11.926,6.474s-2.726,0.682-2.386-1.704c0.342-2.385-2.385,0.341-5.451,0.341s-0.873-2.045-3.162-1.704
	s0-3.748,0-3.748s-10.127,5.633-10.809,6.905s-5.451-0.09-4.43-1.794c1.023-1.704-9.881,2.385-8.518-0.682s1.363-3.066,1.363-3.066
	s-7.156,4.088-10.904,3.066c0,0,16.355-9.541,19.422-11.585s13.63-4.088,21.808-1.704s22.489-0.444,24.874-1.074
	S208.641,91.962,203.189,94.007z M195.012,80.037c-6.474-0.341-20.104-5.111-23.852-4.259s-19.422,6.645-21.466,8.348
	c-2.045,1.704-7.497,5.452-7.497,5.452s-11.585,2.044-11.926,0s-12.607,3.407-14.651,4.089c-2.045,0.682-7.838,4.089-7.496,0
	c0.34-4.089,2.726-4.089,0.34-4.089c-2.385,0-11.585,7.364-12.607,6.067c-1.021-1.297-10.222-3-8.519-3.682
	c1.704-0.682,3.408-0.682,1.704-2.726s-5.452-2.044-5.452-2.044s5.111-4.088,13.63-4.429s27.115,0.744,34.756-1.363
	c9.881-2.726,23.511-8.519,25.215-10.222c1.703-1.704,11.244-6.814,11.244-6.814s6.814,5.452,13.971,5.452
	c7.154,0,4.429-4.088,11.244-3.407c6.814,0.681,11.244,4.77,12.947,4.429C208.301,70.496,201.485,80.377,195.012,80.037z
	 M97.561,123.586c-7.837,0.406-39.525-7.09-46.682-7.432c-7.154-0.34-21.125-2.044-26.918,0c-5.793,2.045-5.111,4.09-5.793,2.045
	s-1.021-13.629-1.021-13.629s24.873-5.111,33.732-3.408s20.445,9.201,33.393,11.925c12.948,2.727,28.963,0,32.03,0
	C119.368,113.088,105.397,123.182,97.561,123.586z M39.976,81.059c19.423,1.363,25.215,4.089,25.215,4.089l-10.903,6.474
	c0,0-12.267-1.703-19.422-3.066c-7.156-1.363-15.334,3.066-15.334,3.066l-3.748-6.474C15.783,85.147,20.553,79.695,39.976,81.059z
	 M17.146,130.787c0,0,29.303-5.773,41.91-3.729c12.607,2.045,56.903,9.199,60.993,9.541c4.088,0.34,22.828,1.703,30.325,0
	s14.652-6.475,27.601-2.385c12.947,4.088,25.555,5.451,30.325,7.154c4.77,1.705,47.215,12.268,52.059,13.631
	c4.844,1.361,31.764,0,34.488,0c2.727,0,24.191,0.871,26.578,0.605c2.385-0.266,7.496-1.969,9.881-1.969s-22.488-8.859-31.348-8.52
	c-8.859,0.342-17.719,0.682-27.6,3.066c-9.881,2.387-33.393-8.178-38.164-10.221c-4.77-2.045,27.602-6.135,30.668-3.408
	s30.666,7.715,34.756,6.584c4.088-1.133,27.859-4.605,30.324-4.881c6.135-0.68,15.674,4.881,15.674,4.881v21.697
	c0,0-17.717,2.385-25.895,2.727c-8.178,0.34-36.461-4.09-43.615-5.111c-7.156-1.023-30.027-4.592-34.756-5.793
	c-9.541-2.422-29.303,0-37.822,1.363c-8.519,1.363-24.873-2.461-32.029-3.785c-7.156-1.326-27.941-4.053-35.096-3.371
	c-7.156,0.682-15.336,5.873-16.697,5.793c-5.792-0.34-14.651-7.574-24.191-8.557c-9.541-0.984-18.06,2.766-20.786,3.445
	c-2.725,0.682-19.422-4.77-26.577-5.451s-15.673-1.703-20.784-1.703s-11.586,1.703-11.586,1.703L17.146,130.787z M17.146,152.236
	c2.726-2.008,10.903,0,10.903,0c3.407,1.4,10.903,1.74,14.312,1.74c3.407,0,22.829,0,22.829,0s-13.288,8.518-13.97,9.541
	c-0.682,1.021-14.312-0.342-18.4,0c-4.089,0.34-14.652,7.496-17.037,6.133S14.421,154.242,17.146,152.236z M17.146,207.132
	c4.43-0.682,7.155,0,7.155,0s27.94,2.385,34.755,4.77c6.815,2.385,34.074,8.178,42.252,9.881c8.178,1.705,23.853,1.678,31.688,1.861
	c7.838,0.184,26.919,3.25,26.919,3.25s-20.444,5.111-25.556,5.111s-13.971-0.34-23.852-4.43c-9.881-4.088-33.393-3.773-39.185-3.932
	c-5.793-0.156-7.497,4.273-27.26,3.25c-19.763-1.021-28.281,0.682-28.622-1.703S12.717,207.814,17.146,207.132z M343.575,250.746
	c-2.727,0-60.652,0.682-79.053,0s-55.199-0.416-75.984,0.303c-20.785,0.721-59.289-1.326-74.281-1.666s-76.667-3.064-80.415-1.361
	s-18.059-2.373-18.399-7.15c-0.341-4.775,15.39-6.143,18.399-5.117c3.99,1.361,6.815,3.748,16.697,2.727
	c9.881-1.023,30.666-8.178,40.889-6.475c10.222,1.703,14.992-1.74,24.874,3.219c9.881,4.959,21.125,5.98,28.621,6.662
	s29.707-8.146,45.66-9.881c15.674-1.703,38.843,0,47.361,3.066c8.52,3.066,26.238,0.342,28.283-3.066
	c2.043-3.406,20.949-0.461,34.414,4.621c8.518,3.217,26.576-5.643,28.281-4.621c1.703,1.021,19.508,0,19.508,0
	S346.301,250.746,343.575,250.746z M325.856,96.733c-10.563-1.704-25.896-7.496-40.207-18.059s-14.416-11.782-17.037-10.563
	c-4.037,1.876-9.881,3.067-12.949,4.089c-3.066,1.022-7.836-3.067-13.289-2.726c-5.451,0.341-7.836,5.452-9.199,5.792
	s-3.748-2.044-6.133-1.363s-7.838,1.363-7.838,1.363s-17.717-18.741-18.74-18.4s-16.355,3.066-17.719,4.089
	s-12.607-5.792-17.037-4.77s-21.125,11.244-24.533,13.289c-3.406,2.044-12.607,3.066-18.74-0.682s-19.763-10.904-26.236-11.926
	c-6.475-1.022-15.334,3.408-21.126,3.408c-5.793,0-29.305-10.904-34.756-11.245s-19.422,10.563-21.125,8.519
	c-1.705-2.044-2.045-33.733-2.045-35.096s9.541-7.497,13.629-8.859c4.09-1.363,60.959,0.414,65.423,0.341
	c13.286-0.217,60.65-3.066,66.103-3.066s58.608-2.726,64.059-1.704s47.361,3.178,57.926,2.271
	c10.563-0.908,49.748-0.567,55.541,6.929c5.791,7.496,9.199,12.607,8.518,28.281s-1.703,27.6-1.363,31.689
	c0.342,4.089,1.449,16.696,1.449,16.696S336.418,98.437,325.856,96.733z"/>
<g>
	<path fill="#A40B5D" d="M199.06,186.13c0.148-1.037-0.295-3.85,0-5.33c0.297-1.48,0.889-3.85,1.333-4.59s4.886-0.594,9.18-1.186
		c4.295-0.592,6.811,0.148,7.699,0.74c0.889,0.594,2.221,13.623,1.926,15.4c-0.297,1.777-11.698,2.221-11.253,2.961
		s-1.037,5.922,0.591,5.627c1.629-0.297,3.998,1.035,8.885,0c4.887-1.037,18.953-2.369,18.953-2.369s1.037-2.814,0.592-3.85
		c-0.443-1.037-6.516-0.297-5.922-1.176c0.592-0.877,11.105,0.287,10.809-1.047c-0.297-1.332-2.072-5.625-2.072-5.625
		s-9.477-0.148-10.365,0s-0.445,5.182-0.445,5.182s-0.74,0.74-1.629,0.74c-0.887,0-2.369-10.809-2.221-13.029
		s1.629-3.852,3.85-4.443c2.223-0.592,8.588,1.48,7.996,2.814c-0.592,1.332-12.289,0-10.949,0.889s1.77,6.365,1.77,6.365
		l11.105-1.629v-4.885c0,0,1.035,1.184,3.109,1.629c2.072,0.443,2.072,11.549,2.072,11.549s1.037,1.629,2.518,1.48
		c1.48-0.146,5.922-6.662,6.367-8.736c0.443-2.072-8.588-13.77-9.477-14.943c-0.889-1.172-4.146-1.492-6.959-1.344
		c-2.814,0.146-9.477,1.184-10.217,1.332c-0.742,0.148-3.85-1.184-4.738-1.184s-0.74-3.703-0.148-4.738
		c0.592-1.037,8.145-1.777,8.588-1.777s0.148-3.85-0.74-4.293s-27.91-2.332-30.207-2.223c-1.92,0.094-0.888,9.477-0.888,9.922
		c0,0.443,5.626-0.297,9.624-1.037c3.998-0.74,5.626,0,6.958,0c1.334,0,0.889,2.961,0.889,2.961s-7.107,2.221-8.883,1.777
		c-1.776-0.445-14.511,0.592-15.103,0.592c-0.593,0,0.295,3.703,0.888,8.594c0.593,4.893-0.888,10.656-0.888,11.691
		c0,1.037,6.366,0.297,7.299,0S198.912,187.167,199.06,186.13z"/>
	<path fill="#A40B5D" d="M215.643,176.654c-0.146-1.035-4.293-0.148-6.07,0.643c-1.776,0.791-7.699,0-7.699,0
		c0.58,1.477,1.48,4.539,1.332,4.836s4.738,0.148,6.292,0c1.555-0.146,7.625,0,7.625,0S215.792,177.691,215.643,176.654z"/>
	<path fill="#A40B5D" d="M211.202,190.277c3.998-0.74,4.293-0.594,4.293-0.594s0.148-5.625,0-6.219
		c-0.148-0.592-3.256,0.445-5.996,0.889c-2.739,0.445-6.144,0-6.144,0c0.888,1.48,0,7.404,0,7.404S207.204,191.017,211.202,190.277z
		"/>
	<path fill="#A40B5D" d="M219.198,221.962c5.775,0.445,13.77-2.813,16.436-2.813s3.85,3.998,5.33,3.998s8.145-4.146,8.291-5.184
		c0.148-1.037-8.588-4.441-9.771-5.479c-1.186-1.037,1.332-5.625,1.332-5.625s1.48-0.74,1.777-1.186
		c0.295-0.443-2.961-5.521-2.961-5.521s-10.514,1.229-12.143,1.826c-1.629,0.6-12.881,0.289-15.547,0.438s-5.35-0.67-6.515-0.889
		c-2.996-0.559-6.219,3.85-2.072,5.627c4.146,1.777,11.011,0.041,12.207,0.889c2.643,1.875-3.619,5.924-3.176,6.664
		c0.445,0.74,2.814,4.885,3.176,6.07C215.922,221.962,213.422,221.519,219.198,221.962z M223.491,211.65
		c0.297-0.348,3.109-2.865,4.738-3.309c1.457-0.398,3.109,5.479,3.109,5.479s-2.369,0.889-4.738,0.74S223.196,212,223.491,211.65z"
		/>
	<path fill="#A40B5D" d="M268.95,180.355c2.072,0.445,6.219-3.701,6.514-4.885c0.297-1.186-5.922-3.852-7.848-3.406
		c-1.924,0.443-11.08-0.938-11.549,0c-0.445,0.887,2.518,5.33,4.441,7.18C262.434,181.093,266.875,179.912,268.95,180.355z"/>
	<path fill="#A40B5D" d="M326.993,191.757c-0.297-0.889-9.922-2.074-10.662-2.074s-3.109-5.922-9.18-9.295
		c-6.072-3.371-25.764,0.412-26.24,0c-0.477-0.41-1.744,4.262-0.561,4.557c1.184,0.297,0.148,5.627,0,6.813
		c-0.148,1.184-5.035,1.629-6.367,2.072c-1.332,0.445-2.369-0.148-2.369-1.332c0-1.186-2.518-7.553-2.518-7.553l-11.846-2.641
		c-1.332,0.91-0.887,4.863-0.002,6.787c0.885,1.926,1.484,2.074,4.74,2.666c3.258,0.592,6.961,2.961,8.441,3.701
		s3.404,5.775,3.404,5.775s-3.404,3.85-7.254,4.738s-9.182-0.297-9.33,0.148c-0.148,0.443,6.072,9.623,7.107,10.66
		c1.037,1.035,9.328-3.998,10.217-4.441c0.889-0.445,2.814-10.07,2.666-10.957c-0.148-0.889,2.666-0.148,4.293,0
		c1.629,0.148,2.666,9.031,2.963,10.268c0.295,1.236,5.33,6.314,8.115,6.314s9.061-2.664,9.209-3.256s5.625-2.814,6.811-3.059
		c1.184-0.244,1.332-1.977,1.332-3.902c0-1.924,0.594-1.627,0.889-0.887c0.297,0.74,2.814,7.551,2.814,8.291
		c0,0.742,4.59,0.148,4.885-1.037c0.297-1.184-2.664-14.807-1.629-14.807c1.037,0,10.07-3.109,10.811-3.109
		S327.288,192.646,326.993,191.757z M287.458,188.943c0.74-0.146,3.553-0.74,3.553-0.74c0.594,0.889,1.768,4.146,1.18,4.887
		c-0.586,0.74-2.955,1.629-3.844,0S286.717,189.091,287.458,188.943z M288.641,206.121c-1.48-1.629-3.699-2.52-2.813-3.852
		c0.889-1.332,3.123-2.221,6.521-1.184c0,0,1.77,4.295,1.918,5.035S290.122,207.75,288.641,206.121z M301.375,195.755
		c0.148-0.889-2.072-6.367-2.518-7.553c0,0,4.74-0.889,6.072,0s1.332,5.242,1.184,5.805S301.227,196.644,301.375,195.755z
		 M310.409,204.638c-0.74,0.297-5.184,0.297-6.813,0c-1.629-0.295-2.813-4.293-1.775-4.59c1.035-0.295,3.109,0.105,3.109,0.105
		c1.035-0.4,4.145,0.479,4.145,0.479S311.149,204.341,310.409,204.638z"/>
	<path fill="#A40B5D" d="M281.09,176.06c2.814,2.219,16.436,1.186,23.84,0c7.402-1.188,8.291-3.404,9.477-5.625
		c1.184-2.223-0.148-5.479-4.887-5.33s-19.693,3.404-22.654,3.553s-1.629-6.514-4.59-7.996c-2.961-1.48-8.244-0.627-8.293,0
		C273.836,162.587,278.278,173.841,281.09,176.06z"/>
	<path fill="#A40B5D" d="M219.198,224.925c0,0,1.184,11.697-3.637,11.697s-4.211-12.291-4.211-12.291l-11.55-1.184
		c-0.74,0.592,0.297,8.588,1.582,11.994c1.286,3.406,0.64,2.072,5.082,5.479c4.441,3.406,4.886,3.85,13.917,2.813
		c9.033-1.037,5.924-18.064,5.924-18.064L219.198,224.925z"/>
	<path fill="#A40B5D" d="M249.256,224.777c-0.59,0.443,2.961,10.66,2.369,10.957c-0.592,0.295-12.291-9.182-12.143-9.773
		s-4.738-0.148-5.479,0s-0.297,15.547,0,17.967c0,0,8.885,0.543,10.514,0s-0.594-4.641,1.035-4.936
		c1.629-0.297,5.035,4.59,6.219,5.773c1.184,1.186,7.848-0.443,8.885-0.838s-2.221-17.67-2.369-19.15
		C258.141,223.296,249.848,224.332,249.256,224.777z"/>
	<path fill="#A40B5D" d="M279.61,234.599c0.592,0.348,8.885-7.602,8.885-7.602s-5.184-5.33-5.924-5.561s-6.516,7.93-7.098,8.227
		s-4.008-6.516-4.008-7.701c0-1.184-10.605,0-10.605,0s2.018,6.813,3.055,9.625c1.035,2.814,1.332,10.514,1.834,12.52
		c0.5,2.006,8.23,0,8.23,0s-2.365-5.561-1.477-5.561c0.887,0,5.479,4.738,7.699,5.381c2.221,0.641,5.775-0.643,5.775-0.643
		S279.018,234.253,279.61,234.599z"/>
	<path fill="#A40B5D" d="M312.629,223.148c0,0,1.037,20.137,0,19.545c-1.037-0.594-9.625-20.582-10.957-21.262
		c-1.334-0.68-7.275,0-7.275,0s-1.461,2.012-1.313,4.529s-5.479,17.967-5.479,17.967s4.441,0.543,5.182,1.07
		c0.74,0.529,2.074-4.674,2.518-6.154s5.922-0.889,6.811-0.889s3.109,5.479,3.109,5.973s3.998,1.578,7.404,1.07
		c3.404-0.508,10.66-0.232,11.4,0s-1.775-19.037-1.924-20.99S312.629,223.148,312.629,223.148z M296.342,232.033
		c0,0,0.592-3.85,1.629-3.555c1.035,0.297,3.404,2.963,3.404,3.555S297.083,232.773,296.342,232.033z"/>
</g>
</svg>
