<svg xmlns="http://www.w3.org/2000/svg" width="200" height="200" viewBox="-30 -60 490 490" preserveAspectRatio="xMidYMin slice">
  <path fill="#54C3F1" d="M357.231 172.607s-2.127-3.648-8.207-4.256c-6.078-.608-20.365 10.031-23.102 12.463s-11.855 1.216-19.15-3.647-10.334-4.256-17.326-.304c-6.99 3.952-14.59 1.216-20.67-1.216-6.078-2.432-8.814-1.216-16.109 1.216s-18.543 3.04-21.887-3.952 5.168-8.815 11.855-10.943 11.551 1.824 18.238-2.128 6.383-6.079 4.559-9.423c-1.822-3.344-24.621-7.295-25.838-9.119-1.215-1.824 6.08-6.688 11.855-5.167 5.777 1.52 24.926 4.256 27.965 3.344 3.041-.912 11.855-10.639 17.631-11.247s15.199 4.256 23.406 4.56 5.166-2.735 13.373-5.775 16.76 3.059 16.719 0c-.107-8.257-13.982-33.741-13.982-33.741s-16.414-4.56-22.494-5.167c-6.078-.608-16.717 8.511-23.709 8.815s-17.021-7.6-22.189-8.511-14.287 5.167-17.936 8.207-25.533 8.815-38.604 0-4.559-20.062-.304-21.886 20.671 3.344 27.054 3.952 12.766-11.551 21.277-13.982 22.189 2.127 30.701 2.735c8.51.608 19.758-10.943 19.758-10.943s-8.207-10.639-14.287-15.198-52.281-19.454-87.847-28.877c-35.565-9.423-56.538 3.952-69.913 4.864S81.227 48.587 81.227 48.587s9.119 2.432 16.11 7.295c7.507 5.222 4.56 13.375 8.815 16.415 7.379 5.271 8.815 3.647 18.846 7.903s13.983 15.806 19.758 19.15 13.679-.912 20.366-.304 15.503-.608 15.503 5.776-10.335 8.207-16.719 7.903-6.687 4.864-14.59 5.775-13.679-4.255-20.67-4.863-16.11 7.295-22.19 9.119-14.59-2.432-24.622-5.167-17.63 4.255-24.317 2.432-15.199-6.383-16.718-7.903-11.247-1.216-13.071-.912-16.415 51.371-16.415 51.371L19.216 172l16.415-11.247 9.423 9.423 14.895 12.159 21.278 27.053 18.238-8.207 11.551 7.295 41.644 6.688 23.709-19.15 15.199.912s14.286 17.63 20.67 22.19 20.669 1.216 27.661 0c6.99-1.216 17.934-11.551 24.926-11.247 6.99.304 2.736 4.864 6.688 6.383s6.99-4.863 10.639-6.383c3.646-1.52 21.582-9.119 25.838-8.815s6.383 4.255 10.031 7.903 15.805 2.127 20.973 0 17.326-6.992 18.238-9.119-.001-25.231-.001-25.231zm-203.355-3.344c-9.119 1.824-3.343 3.04-12.159 4.56s-11.551-.912-17.327 0-14.894 5.167-18.846 3.647-11.855-12.463-15.503-13.071-12.159 3.344-15.502-.304.305-14.287 6.992-14.591 6.687 1.824 10.031 1.824c2.374 0 6.383-8.511 14.895-10.639s14.894 9.119 17.326 9.119 6.804-9.336 12.767-9.387c16.11-.139 17.022 16.075 19.454 16.075s12.767-1.655 15.502 4.255c3.576 7.725-8.511 6.688-17.63 8.512z"/>
  <path d="M376.922 158.045c-3.094-20.881-20.107-74.243-52.589-103.244s-56.069-33.254-71.923-39.828S207.199 1.104 196.341.279c-35.574-2.706-71.922 15.08-85.069 19.333S53.654 39.721 18.853 105.07 7.64 226.103 9.96 238.09s33.641 80.817 96.67 106.724 105.951 23.201 124.899 18.947 46.788-3.479 92.417-49.108 48.722-85.458 50.655-93.579 5.415-42.148 2.321-63.029zM19.804 179.103c2.546-2.971 6.75-4 9.75-3s2 3 2 3l-11.75 11.25s-3-7.75 0-11.25zm2.145 23.75l1.105 1.75 19.25-25.25s-2.75 9.5 0 9.75l2.75.25s-3 8.5-6 10-12 7.25-11 9 1 4.25.75 5.5-1.75 0-1.75 0l-3 3s-2.96-9.25-2.105-14zm9.765 34.75c.59.75-.41 2.75-1.66 1.25s-5.674-13.75-4.962-14.75 2.212-2.25 3.462-1.25 3.74 2 4.87 1.5 6.068-4.414 7.38-3.116c0 0 3.5 3.366 4.25 4.616s-13.93 11-13.34 11.75zm9.09 22.999c-3.75-5.999-5.761-14.749-5.755-15.249s1.755-1.5 1.755-1.5 7.25 7.75 8.25 7.75 6-7.5 8.25-7.75 2 16.5 2.75 18.75-4 11-3.5 14.75-8-10.753-11.75-16.751zm13.25-78.749c.13.043.22.143.294.266 1.751 1.592 10.803 9.934 11.206 12.734.216 1.5-5.25 3-7 5s-3.5 5-4.5 4.75-5.25-2-3.75-2.25 2.25-10.25 2.5-12c.229-1.599 2.324-6.938 1.544-8.234-.188-.171-.294-.266-.294-.266zm43.75 141c-16.25-11.75-38.5-33.5-43.25-43.25l3.219-2.529s-2.031 3.279 0 3.529 7.781 1.25 9.531 1.75 2.75-4.028 4.25-4.39c1.5-.36.75 10.39 2.25 10.89s6.934 5 9.217 5 4.533-1.5 4.533-1.5-7.066 13-4.533 13 13.033 3.75 14.533 5 6.25-9 9-8-2.75 5.25-2.25 6.75 1.798 12.5 3.024 13 17.726.5 19.476 1.5 8 15.75 8 15.75-20.75-4.75-37-16.5zm-22.75-106s6.5 9.25 8.5 11.75 7.5 8.5 7.5 8.5-9.25-.75-10-1.5-3-2.25-4.75-2.5-1.25-16.25-1.25-16.25zm35.25 15.45c1.75.55 8.247-9.904 10.749-9.677s3.466 1.916 3.234 3.446-5.982 9.781-4.982 11.031 3.965 2.838 4.982 2.294 18.018-12.355 22.518-13.325c2.487-.536 6.862 3.755 7.806 4.643s-27.306 15.14-31.806 15.014-14.5-7.316-16.25-9.846-8.83-11.484-12.04-13.257 8.04-10.023 8.79-10.773 5.75.351 5.75 2.925-.501 16.975 1.249 17.525zm38 41.8c0 2.796-23.872-11.337-26.922-12.466-.188.066-.304.063-.328-.034-.017-.068.105-.049.328.034 1.759-.634 9.946-7.798 10.172-8.74.25-1.044 2.75 4.56 4.5 6.258 1.436 1.393 12.5-1.948 14 0s3.75 4.698 4.5 5.448-6.25 6.5-6.25 9.5zm-48.25 1.75c-1 1.75-5 1.5-5.5 0s3.75-13.393 8-14.946c2.121-.775 6.5-.054 6.5 1.696s-5 4.75-4.75 7.5-3.25 4-4.25 5.75zm42.75 36.25c-1.75-2.25-1.5-4.5 0-5s15.279-5.662 17.39-4.956-6.64-5.294-7.39-6.044-2-.75-2-.75l2.5-4.056c2.25 1.306 11.25 6.056 14 7.056s11.5 5.5 11.5 5.5-11.25 4.5-17.5 6.25-16.75 4.25-18.5 2zm48.25-88c1.75.25 20.675-3.978 21.25-2.114.713 2.309 2.449 5.364.975 6.364s-48.475 3.75-46.975 1.5 20.546-17.399 22.773-15.075.227 9.075 1.977 9.325zm102.062 9.25c5.688-1 17.188-1.75 17.688 0s-24.75 25.25-26.75 25.75-5.5-2.75-4.5-4 10-7.748 10.5-9.374-6.477-6.126-7.113-5.626-10.887 10-13.137 10.5-14.5-2.5-13.25-3.75 5.285-3.25 8.627-4.75c3.383-1.519 22.248-7.75 27.935-8.75zm-16.812-16.5c2.474.361 15.5 4 16.75 5.5s-16.5 3-19.25 4.625.614-10.4 2.5-10.125zm36.238-6.5c3.743-.374 11.512 4.5 12.512 6.5s-7.75 6.938-8.5 9.219-14-5.702-17.75-4.835 6.226-10.134 13.738-10.884zm-71.988 34c-.5-1.75-12.074-10.25-12.787-11s8.296-2.608 10.537-1.05c1.232.857 3.5 3.55 4.75 3.55s16-4.85 16.75-3.55-18.75 13.8-19.25 12.05zm-10.5 4.75c3 1 40.5 20.25 40.75 21.5s-4.496 3.25-5.623 7.5-14.377 7-19.377 9-15.25 6.14-16.5 4.194c-1.25-1.944-3.324-3.944-1.537-3.944s3.037-.75 4.037-2.75-5.75-7.529-5.75-7.529-14.5 7.529-15.5 6.029-3.25-4.335-2-4.042c1.25.292 2.32-.783 2.32-2.754s-7.82-9.454-10.07-9.954-8 7.75-12.75 7.75-11.25-4.25-9.25-4.25 32.45-11.706 33.25-16.956c.26-1.709-11.25-6.459-12.5-8.376s-2.611-11.202-.5-10.167c0-.001 28 13.749 31 14.749zm-24 68c.5.75-.75 1.25-1.75 1.25s0-9.75-2.25-11.5c0 0 21.25-2.5 24.5-3.25s34.75-11.61 36.5-12.306c1.75-.694 3.75 3.556 0 6.806s-14 7.971-18.25 10.11-12 5.177-12.75 4.783-2.5-4.423-3.75-4.783-11.22 4.177-13.859 4.783c-2.641.607-8.891 3.357-8.391 4.107zm.5-20.5c.75-1 4.977-7.29 6.75-7.25 2.749.062 6.75.238 6.75 1.869s.25 8.631-3.375 8.381-10.875-2-10.125-3zm-30-16.5c1.275-1.274 6.25 8.75 5.75 9.25s-3.872 1.869-3.872 1.869-13.128-3.869-12.378-4.369-1.75-1.75-2-3 1.25-3.75 1.25-3.75 9.25 2 11.25 0zm78.5 59.25c-31.5 10.5-62.25 10.75-84.25 9.25s-24-6.75-24-6.75 11.291-4.371 13.39-5c2.602-.779 15.36-5 17.36-1.75s3.25 11.25 5.25 11.5 34.774-14.302 58-19.75c24.377-5.719 65.25-22.779 67.75-18.64s-22 20.64-53.5 31.14zm33.25-65.25s8-8.263 14.25-13.507c6.25-5.243 11-11.493 12.5-11.493s-1.5 13.75-3 16-23.75 9-23.75 9zm40 15.75c-3.75 5.25-13.25 17.869-14.25 14.935s-2-9.685-1.25-10.935 14.496-18.75 16.373-21-4.373-2-5.623-1.5c-2.321.929 14.5-17.25 15.5-18.25s7 1.75 6.75 5.75-13.75 25.75-17.5 31zm26.75-52.75c-.75 1-7-1-6-3.5s4-2.25 4-4.25-2.75-2.562-4-3.281-14.75 7.281-15.5 5.531 0-4.625 0-4.625c1.5-1.875 24.312-14.354 27.5-11.875 2.25 1.75-5.25 21-6 22zm6.401-33.431s-6.254-.679-10.495-.18c-6.573.773-9.997 7.14-15.798 5.98 0 0-5.802-2.32-8.895-8.121 0 0-15.081-1.159-19.334-.773s-8.121 4.253-11.214 6.187-3.866 1.441-6.96 2.848-8.121-2.848-15.468-2.074-15.467 8.507-25.134 11.214-18.56 3.867-27.454 0-21.268-15.08-24.361-18.561-2.876-7.083-5.196-8.243-11.817-2.198-15.685-.651-13.147 12.76-17.401 15.854-16.241 6.187-33.255-.387-23.588-11.214-26.294-11.214-11.188 3.68-14.281 5.227-8.812-.162-10.427-4.676c-1.872-5.23-13.96-22.206-16.28-25.686s-9.667-5.413-13.147-6.96-4.573-13.604-8.121-13.147c-1.383.178-9.281 11.214-10.44 11.214s-3.867 1.16-3.867 0 .773-39.445 16.241-62.259 58.776-66.896 81.204-73.856 38.573-18.938 87.776-9.276c12.923 2.538 40.987 6.96 57.229 11.987s17.4 9.281 20.494 10.827 5.8 1.547 11.601 5.8 55.92 52.755 64.963 96.67c8.12 39.441-.001 62.256-.001 62.256z"/>
  <path d="M172.304 29.686c2.521-.09 3.5 0 4.167 2.167s6.333 16.5 7.667 16.667 1.833 2.334 3 1.667 1.5-15.667 3.333-16.167 6.333-4.333 9.333-2.833 5.834 23 6.667 29.5.667 16.833 0 18.333-5.667.333-6.833-3.167c-1.167-3.5-4.334-15.5-5.334-15.833s-5.269 1-4.634 2.333.135 10.5-1.699 11.5-4.5 1.5-5.833-2.333-4.667-9.667-4.333-11.667-2.833-4.333-3-3.667-1.833 3.5-1.667 8-.167 8.333-.833 10.333-3.5 6.5-7.333 3.5-3.167-19.192-2.667-23.346 5.332-24.82 9.999-24.987zm55.334-5.833c1.26-.148 5.167 1.5 5.5 2.833s.5 10.5 1.333 11.333 3.166 4 3.833 4 7.167-.833 7.667 0-.167 11.667-1 11.667-3.333-1.5-4-1.167-5.5 2.5-5.5 3 1.673 18.667 1.42 20-4.921 5.167-6.087 5-6.767 1.344-6.833-3.667c-.04-3 1.501-1.333 1.667-3s-1-21.667-1-22.333-10.834-2.833-11.667-3.833 1.333-6.667 2.167-6.667c.833 0 8.666-1.833 8.666-3.333s-2.5-9.833-.833-10.333 1.834-3.167 4.667-3.5zm26.166 35.5c1.56-.26 6.166 1.833 6.5 3.833s-1.5 2.5 0 3.833 1.166 1.333 1 3.333-8.833 6.333-9.333 4.333-6.833-4.167-6.833-5.5.177-6.167 1.005-6.333 5.661-3.166 7.661-3.499zm-193 22.833c2.495.369 4.5.167 5.5 1.833s3.667 8.166 3.667 9.833.5 12.833 3.5 13.333 6.834-19.833 9.167-21.333 3.166-3.666 7.333-1.833 6.5 4.167 7.833 14.667 2.333 39.333 2.667 42.667 2.834 43.5 2.667 44.5-3.5 3.667-4.833 3.667-3.5-1-3.667-5 .167-45.833-.333-48.667-3.167-22.5-3.833-23.167-3.667-.5-4.167.667-2.667 10.833-2.167 14.833-2.833 27-5.333 30.333-8.167-1.166-9.333-3.333-4.666-25.667-4.333-28.5 1.167-6.667 1-9-5.334-4.667-6.667-3.833-4.333 13.667-4.333 18 .166 18-2.667 19.167-5.833-.166-5.833-3.333 1.167-41.833 4.167-49.5 6.133-16.572 9.998-16.001zm81.5 77.833c-.833-3.833-2.833-40.833-3.5-46.333s-3.167-19.167-5.667-22.667-9.679-4.193-12.5-4.5c-5.117-.556-7.333 10.667-7.167 15.833s.5 46.5-.335 49.667.169 35.167.002 37.5 8.5.5 9.167-1 .833-20.667.833-24 1.5-6.5 4-8 4.333 2.667 4.958 3.667 2.875 20.333 3.375 24.833 4.5 8.667 6.833 5.167.834-26.333.001-30.167zm-11.334-26.833c-.167 3.167-2.167 7.666-4.667 8.333s-3.167-3.833-4.5-11 2-15.166 4.5-16.333c1.09-.508 4.834 15.834 4.667 19zm30.947-38c1.053-.171 7.554 8 10.054 11.333s7.5 10.167 7.833 15.833 3 24.167 5.833 26 2.712-4.167 3.439-7.5-.606-18.167-1.273-20.667 0-20 .5-21.667 4.334-5.171 7.334-3.335 3.832 21.502 4.166 27.835-1.5 30.167-1 32.833-.666 21.833-1 23.5-7.333 2.833-11.167 0-11.167-20-13.167-24.5-4-21.5-5.667-22.833-3.833.167-3.833 2.167-1.333 23.167-1.167 26 .167 15.333 0 16.667-9 7.796-9.5 6.398-1.833-33.268-1.5-41.666 2.333-40.065 2.833-40.398 5.228-5.666 7.282-6zm50.866-5.333c.806.285 17.021-.167 20.521 0s8.334-1.333 9.334 1.5 1.833 9.834.833 11.167-11.333 2.667-12 4.167-.999 8.5-.833 11.667-.334 44.334-.334 47.667.484 25.833-.841 27-7.825 1.5-8.492 0-3-3.5-3-5.167 2.167-60.833 2.5-64.667.667-13.5-1-14.833-6.501-4-8.167-4.333-2.704 1-4.269-1.333-1.269-5 0-6.167 3.394-7.502 5.748-6.668zm63.188 61.167c0-2-3.667-35.833-3.833-40.833s-6.667-16.167-7.5-16.833-8.845 1.098-10 1.313c-1.988.371-6.667 11.187-7.334 13.354s-6.666 27.333-7 30-.166 27.833-.833 33.833-.5 15 1.667 17.667 5.5 2.167 7.166 1.971 1.834-7.471 2.167-10.471 2.667-25.333 2.826-26.167 6.341-1.333 7.007-1 5.5 7.167 6.347 12.5 1.32 17.167.987 19.167 7.333-.167 9.333-1.333 1.333-5.333 1.667-8.333-2.667-22.835-2.667-24.835zm-14.515-9.436c-.985.435-6.818 1.732-7.485 0s-1.833-20.065 2-21.398c1.426-.496 5.304 10.5 5.485 12.833s.985 8.13 0 8.565zm48.682 25.935c-.5-3.667-7.667-25-8.167-25.935s6.833-12.065 7.833-14.898 2.834-15.667-1-24.833-8.507-10.956-9.666-10.833c-3.166.333-11.834 1.5-13 18s.333 33.833.166 38.333-.166 19.333-.166 23.667-.5 13-.834 14.093 8.334.574 9.167 0-.667-16.426-.667-17.593 2.834-1.167 3.667-.167 3.5 16 3.5 17.333 10.333-.833 11.167-1.436-1.5-12.064-2-15.731zm-13.834-42.166c-2.833.035-3.334-20.167 3.5-19.5 1.328.129 3.668 3.333 2.834 9.167s-4.595 10.311-6.334 10.333zm50 24.166c-.167-6.167-3.5-34.5-4-36.167s-10.105-8.609-11-9.167c-1.486-.926-7.166 4.333-7.666 4.833s.44 6.389-1.834 17.333c-5.333 25.667 1.5 34 1 44.333-.58 11.986 8.5 15 8.5 13.667s7-3.833 10-8.833 5.167-19.832 5-25.999zm-11.5 13.667c-4.5.118-6.166-4.333-6.166-16.833s-2.5-19.5 3.333-21c1.622-.417 3.833 3.5 4.833 10.333s2.667 11.166 3.167 13.833-2.783 13.605-5.167 13.667z"/>
</svg>
