<?xml version="1.0" encoding="utf-8"?>
<svg version="1.1" id="レイヤー_1" xmlns="http://www.w3.org/2000/svg" xmlns:xlink="http://www.w3.org/1999/xlink" x="0px"
	 y="0px" width="200" height="200" viewBox="-30 -20 170 260" enable-background="new 0 0 170.355 240.699"
	 xml:space="preserve">
<g>
	<g>
		<g>
			<g>
				<path fill="#7EBE2A" d="M0.3,20.996c0,0,5.419,1.923,12.587,1.049s5.246-2.623,8.042-2.623s16.958,0,18.707,0
					s16.084-0.874,17.658-2.447s2.447-3.147,2.972-1.923s3.672,0.699,5.07,11.014s0,6.644,0,6.644s-2.098-3.322-5.595-3.497
					s-4.545,0-4.545,0s-1.573,4.371-0.874,5.944S56.07,41.8,56.07,41.8l-7.867,3.497c0,0-1.049-3.497-1.398-7.343
					s1.922-9.091,2.447-9.44s-9.616,2.272-14.86,2.272s-16.608-1.137-19.581-0.831s-9.091,1.355-9.091,1.355L0.3,20.996z"/>
				<path fill="#7EBE2A" d="M65.958,19.248c0,0,4.273,2.272,7.945,4.371s10.14,1.923,13.986,2.098s17.133,3.059,17.133,4.239
					s0.874,4.152,0.874,4.152s-1.923,1.049-4.72,0.874s-8.742-3.147-12.063-4.021s-10.14-2.797-12.937-2.447
					s-6.993-0.175-6.993-0.175L65.958,19.248z"/>
			</g>
			<polygon fill="#7EBE2A" points="50.301,67.124 58.519,68.949 58.519,77.291 51.656,75.979 			"/>
			<path fill="#7EBE2A" d="M51.906,95.593h6.613c0,0,0.7,20.449-3.323,24.339s-3.29,3.164-3.29,3.164l2.504,7.354v2.5h-4.109
				c0,0-1.048-9-2.972-9s-10.607,5.25-10.607,5.25l-1.866-6.104c0,0,5.897-2.094,10.724-5.594S52.406,101.242,51.906,95.593z"/>
			<polygon fill="#7EBE2A" points="59.917,144.449 66.735,149.449 64.699,154.199 58.565,148.597 			"/>
			<polygon fill="#7EBE2A" points="51.35,149.495 56.406,154.199 54.322,170.576 47.329,172.699 			"/>
			<polygon fill="#7EBE2A" points="34.856,173.266 47.329,172.699 44.278,177.949 37.713,179.698 			"/>
		</g>
		<g>
			<path fill="#AE6CAA" d="M44.278,50.199l6.023,5.063c0,0-0.151,8.687-6.023,10.937s-11.149-4.25-11.149-4.25l1.728-11.75H44.278z"
				/>
			<polygon fill="#AE6CAA" points="76.962,68.949 86.618,69.949 91.406,77.291 89.156,86.449 79.656,88.829 69.906,78.889 			"/>
			<path fill="#AE6CAA" d="M36.722,95.593l9.558,3.606c0,0,4.071,9.556-5.848,13s-13.526-3.556-13.526-3.556
				S29.298,96.786,36.722,95.593z"/>
			<path fill="#AE6CAA" d="M11.664,85.699l10.047,1c0,0,0.277,10.101-3.753,12.75s-10.302,1.793-10.302,1.793l-3.358-8.793
				L11.664,85.699z"/>
			<path fill="#AE6CAA" d="M64.699,114.271l8.707,6.727l1.177,8.201l-7.848,6.75l-10.329-1.5c0,0,1.74,13.438-9.077,15.046
				s-6.897-9.546-6.897-9.546l6.897-7.986l5.827,1.736l3.25-2.224l-3.682-9.157l4.729-8.047H64.699z"/>
			<path fill="#AE6CAA" d="M50.301,172.699l11.015,3.5c0,0,3.59,7.063-4.91,11.407s-12.128-1.923-12.128-1.923v-9.484
				L50.301,172.699z"/>
			<path fill="#AE6CAA" d="M17.958,198.949c0.698-0.75,8.816,5.604,3.757,13.927s-13.809,1.573-13.809,1.573v-11.5L17.958,198.949z"
				/>
		</g>
		<g>
			<path fill="#8C3890" d="M61.315,45.297c0,0,5.142,9.539,1.232,13.139s-8.138,7.013-8.138,7.013l-2.542-8.788l-2.812-6.462
				C49.056,50.199,56.975,43.645,61.315,45.297z"/>
			<path fill="#8C3890" d="M78.449,52.199l7.478,3.041c0,0,1.579,11.157-1.971,11.433s-9.103-4.84-13.076-3.032
				s-0.974-8.401-0.974-8.401L78.449,52.199z"/>
			<path fill="#8C3890" d="M56.406,75.979c0,0,4.994,9.354,0.755,12.85s-12.883,2.274-12.883,2.274V80.439L56.406,75.979z"/>
			<path fill="#8C3890" d="M80.656,88.829h9c0,0,4.25,3.658,1.75,6.764s-5.479,5.824-5.479,5.824l-4.879-6.294
				c0,0-0.535,4.811-6.465,6.294s-8.625-1.218-8.625-1.218l3.948-6.822l7.643-2.273L80.656,88.829z"/>
			<path fill="#8C3890" d="M82.645,108.643l6.261,4.509c0,0-0.926,8.608-6.261,8.545s-8.062-5.248-8.062-5.248L82.645,108.643z"/>
			<path fill="#8C3890" d="M26.906,67.124c0,0,5.495,8.53,2.75,13.315s-9.6,3.149-9.6,3.149l-4.195-7.609l5.751-7.03L26.906,67.124z
				"/>
			<path fill="#8C3890" d="M15.161,59.441l4.895,3.008c0,0-5.449,1.601-7.049,4.675s-1.342,10.167-1.342,10.167l-7.367-6.092
				l2.108-7.558L15.161,59.441z"/>
			<path fill="#8C3890" d="M20.056,103.165c0,0,2.317,8.371-1.669,9.987s-10.48,1.119-10.48,1.119L5.656,105l7.535-0.628
				L20.056,103.165z"/>
			<path fill="#8C3890" d="M28.906,120.998c0,0,5.21,7.222,3.337,10.478s-10.033,5.224-10.033,5.224l-4.252-9.802L28.906,120.998z"
				/>
			<path fill="#8C3890" d="M74.583,149.653l8.062,3.295c0,0,0.839,15.887-13.825,10.318S74.583,149.653,74.583,149.653z"/>
			<path fill="#8C3890" d="M30.424,148.199l10.008,3.459c0,0-2.758,12.589-11.517,10.19s-3.611-9.149-3.611-9.149L30.424,148.199z"
				/>
			<path fill="#8C3890" d="M25.304,170.576c0,0,7.889,3.623,8.246,7.123s-5.564,12.177-12.824,6.06S25.304,170.576,25.304,170.576z"
				/>
			<path fill="#8C3890" d="M33.128,191.949c0,0,8.508,2.5,9.393,4.75s0.285,8.183-7.665,7.341S28.601,194.449,33.128,191.949z"/>
		</g>
		<g>
			<path d="M93.134,104.389c3.497-2.272,5.769-10.49,4.72-12.063s-5.245-7.343-5.245-7.343s0,0,0.7-5.594
				c0.638-5.104-1.629-9.179-2.032-9.855c0.122,0.079,0.335-0.505-0.066-6.928c-0.524-8.392-4.196-11.888-8.392-13.462
				s-9.441,0-9.441,0s-8.392-9.615-16.609-9.615s-10.445,10.332-12.937,8.566c-4.196-2.972-6.993-0.35-9.091-0.524
				s-6.624,5.47-6.818,7.343c-0.504,4.872,1.398,9.616,0.524,8.566s-4.196-0.874-4.196-0.874s-0.423-2.051-2.972-4.545
				c-3.574-3.497-8.022-1.049-9.091-1.224c-5.11-0.833-12.762,6.468-10.315,14.335s11.539,9.091,11.539,9.091l-0.35,2.623
				c0,0-10.665,0-12.762,7.168c-1.724,5.892,4.545,12.762,4.545,12.762s-4.72,7.692,1.923,13.287s11.014,4.545,11.014,5.07
				s-1.049,3.147-2.098,4.721s0.524,8.392,1.224,9.965s8.917,6.818,9.965,6.119s10.665-1.573,11.364-8.392
				s-2.797-13.112-5.109-14.336s-10.975,0.524-9.577-0.875s2.273-5.769,2.273-5.769s4.021,2.448,7.304,4.895s5.983,1.574,12.452,0
				s7.168-8.566,6.644-11.713s-2.972-8.566-2.972-8.566s0,0,2.448,1.049s6.818-1.573,9.266-0.524s-1.399,1.573,4.992,8.042
				c3.744,3.79,6.896,4.873,8.417,5.125c-1.892,0.538-2.045,4.84-2.045,4.84s-2.273-3.147-8.853-3.846s-4.958,1.923-10.378,6.644
				s2.273,13.636,0.35,11.888s-11.189,2.972-11.189,2.972s-7.343,8.916-1.049,14.161s12.588,5.07,16.784,1.573
				s1.923-10.839,1.923-10.839s7.343,0.699,12.063-1.748s5.419-9.791,5.419-9.791s2.972,3.147,5.245,2.972s7.867-2.273,9.615-4.721
				s1.399-6.993,0.35-11.014s-8.042-6.469-8.042-6.469l2.273-2.272C86.84,105.263,89.637,106.662,93.134,104.389z M81.245,87.256
				c-6.469,0.175-12.976-14.161-1.942-17.133c0,0,8.76,0,9.984,6.818S87.714,87.081,81.245,87.256z M70.93,57.535
				c0,0,3.146-4.268,7.343-3.096s8.392,2.047,9.091,6.767s0,5.594,0,5.594s-0.738-3.496-8.062-2.622s-8.373,2.622-8.373,2.622
				S73.203,59.633,70.93,57.535z M57.644,46.871c2.972-0.35,8.042,1.748,7.518,9.44s-9.965,5.42-9.965,5.42s2.098-2.972,0-6.469
				s-3.846-4.021-3.846-4.021S54.671,47.22,57.644,46.871z M38.237,52.29c4.196-1.224,11.083-1.968,11.889,9.754
				c0.556,8.078-7.693,6.155-11.889,4.756S29.845,54.737,38.237,52.29z M13.237,74.493c0,2.797-9.477-1.132-7.343-7.692
				c4.021-12.361,12.401-1.573,12.401-1.573C16.733,66.626,13.237,71.696,13.237,74.493z M7.293,98.794
				c0-0.524-1.712-1.923-1.712-1.923s5.408-0.175,6.357-0.7s-1.323-2.608-1.323-2.608H5.581c0,0,0.838-5.605,9.229-6.306
				c1.268-0.106,5.769-0.351,7.692,3.67s0.632,8.997-3.846,10.49c-4.72,1.573-7.867,0-7.867,0l9.266-4.545l-1.049-1.279
				c0,0-3.322,1.454-5.77,2.153S7.293,99.319,7.293,98.794z M15.859,114.704c-7.867,1.049-7.692-9.091-7.692-9.091
				s3.215,1.584,7.202,0.879s7.134,0,7.134,0S23.727,113.654,15.859,114.704z M32.293,125.364c0.838,0.959,3.321,6.665-1.923,9.366
				s-11.189-0.271-10.14-6.39S28.622,121.164,32.293,125.364z M18.482,78.442c-1.398-6.222,5.419-9.019,8.916-8.32
				c3.038,0.607,9.267,5.945,4.196,12.063S19.88,84.664,18.482,78.442z M36.14,113.305c-4.896-0.874-8.042-4.196-5.595-10.14
				s6.913-5.217,8.567-4.895c0,0,7.518,0.349,7.518,9.091C46.629,112.431,41.035,114.179,36.14,113.305z M37.188,92.675
				c-3.846,0.175-9.965,3.671-9.965,3.671s-0.874-5.069-1.923-6.468s3.244,0.174,7.828-1.399s6.246-6.293,6.246-6.293
				s0.087,5.419,2.185,6.993s5.07,6.414,5.07,6.414S41.035,92.5,37.188,92.675z M52.923,92.326
				c-8.556-0.051-9.266-8.917-5.594-11.189s10.14-5.769,13.462,2.623C62.431,87.903,61.479,92.377,52.923,92.326z M63.476,77.815
				c-4.259-3.671-10.595-4.545-14.42-3.846s-8.196,4.896-8.196,4.896s-0.524-4.896-1.398-5.944s5.069-0.874,6.293-1.049
				s5.77-2.098,5.77-2.098s5.594,2.098,8.042,2.623s8.217-1.749,8.217-1.749s-2.622,9.791,0,12.238s6.993,4.545,6.993,4.545
				s-5.594,2.273-5.944,2.972S67.735,81.486,63.476,77.815z M68.133,101.417c-1.049-4.896,3.846-9.091,8.392-7.518
				c2.89,1,6.255,4.72,2.778,9.79S69.183,106.313,68.133,101.417z M56.944,144.6c-1.923,0.699-4.546-3.147-5.595-2.623
				s-6.122,4.371-6.122,4.371l1.401,1.399c0,0,3.475-3.147,4.884-2.797s4.381,1.049,4.381,1.049s0.854,2.446-4.545,3.497
				s-10.588-3.846-9.577-5.594s5.731-1.722,5.731-1.722l-0.874-3.173l-4.857,1.049c0,0-0.038-3.846,4.857-4.895
				c2.28-0.489,4.16-0.875,6.713,0.699s-3.356,2.273-3.356,2.273l1.364,2.273l5.595-1.399C56.944,139.005,58.868,143.9,56.944,144.6
				z M62.189,133.76c-4.72-0.875-8.74-8.199-6.993-13.829s10.762-1.906,10.762-1.906s6.726,1.025,8.429,7.341
				S66.909,134.635,62.189,133.76z M84.917,112.431c2.494,0.51,7.09,4.021,2.758,9.791s-9.751,2.763-10.975-2.29
				S77.224,110.858,84.917,112.431z M85.927,96.872c-2.234-3.847-1.884-5.42-1.884-5.42s4.721-0.525,6.469-2.273
				s6.119,8.042,2.623,9.965s-7.207,2.273-7.207,2.273S88.161,100.718,85.927,96.872z"/>
			<g>
				<path d="M86.141,155.788c-1.923-4.721-8.401-9.478-11.014-9.266c-6.468,0.524-11.014,0.35-12.413,9.266
					s6.294,16.784,13.812,14.336S88.063,160.508,86.141,155.788z M81.07,161.732c-3.147,6.119-11.363,6.294-13.287-0.874
					s2.797-9.309,8.042-9.2C79.352,151.731,84.217,155.613,81.07,161.732z"/>
				<path d="M54.322,170.576c-11.54-0.945-15.209,8.463-15.209,12.659s5.42,9.266,5.42,9.266s-3.671-0.175-5.42-0.524
					s-6.643-1.749-6.643-1.749s9.091-3.497,3.846-14.686s-26.924-6.644-22.204,6.119c3.927,10.619,13.657,10.224,15.911,9.892
					c-1.988,0.836-7.519,6.367-7.519,6.367s-15.91-6.293-18.007,8.217c-1.854,12.823,9.615,15.734,18.007,12.937
					s7.343-9.791,7.343-9.791s6.119,7.868,14.86-1.049c5.539-5.65,1.573-12.587,1.573-12.587s3.147,1.224,9.441,0
					s10.314-3.146,9.615-11.538S58.574,170.924,54.322,170.576z M23.902,212.606c-3.584,7.05-15.21,3.753-15.385-3.98
					s4.021-8.417,10.315-7.026C20.777,202.029,27.487,205.556,23.902,212.606z M18.658,182.904
					c-4.002-8.864,5.615-10.137,8.916-8.585c3.914,1.84,6.192,3.883,4.669,8.585S22.66,191.768,18.658,182.904z M38.413,207.536
					c-6.506,3.556-9.615-2.272-9.615-7.692s8.042-6.993,11.539-3.147C41.16,197.602,44.919,203.98,38.413,207.536z M62.547,186.382
					c-1.232,2.623-10.147,5.769-14.868,3.671s-2.972-7.087-2.972-7.087s1.574,1.304,3.497,0s3.322-3.228,3.322-3.228l-1.224-1.049
					c0,0-1.398,1.749-3.321,1.923s-2.59-0.525-2.59-0.525s1.366-5.944,10.457-4.895c1.736,0.2,4.371,2.623,4.371,2.623
					s-4.196,1.399-5.245,0s0,2.797,0,2.797s-0.99,0.35,2.39,0s4.778-1.224,4.778-1.224S63.779,183.759,62.547,186.382z"/>
				<path d="M41.735,160.682c2.273-8.917-3.06-12.274-7.692-13.112c-16.434-2.972-11.888,12.763-8.917,16.259
					S39.462,169.599,41.735,160.682z M34.856,150.367c1.712-0.121,6.18,4.196,2.508,11.014s-8.567,1.641-9.965-2.414
					S27.453,150.892,34.856,150.367z"/>
			</g>
			<ellipse cx="36.722" cy="58.409" rx="1.866" ry="1.749"/>
			<ellipse cx="44.278" cy="56.835" rx="2.002" ry="1.573"/>
			<ellipse cx="76.963" cy="75.979" rx="1.486" ry="1.312"/>
			<ellipse cx="83.956" cy="74.275" rx="1.311" ry="1.704"/>
			<ellipse cx="40.432" cy="103.165" rx="1.844" ry="1.923"/>
			<ellipse cx="33.55" cy="105" rx="1.306" ry="1.836"/>
			<circle cx="59.917" cy="121.697" r="1.398"/>
			<circle cx="65.415" cy="120.998" r="1.32"/>
			<circle cx="11.664" cy="207.711" r="1.574"/>
			<circle cx="17.958" cy="204.04" r="2.098"/>
			<polygon points="37.713,62.779 46.28,60.157 47.329,62.779 39.259,67.124 			"/>
			<path d="M75.477,80.262c0,0,2.447,2.273,6.119,0s4.332-2.971,4.332-2.971l0.691,1.991c0,0-1.398,4.477-5.571,4.302
				s-4.085-0.7-4.085-0.7L75.477,80.262z"/>
			<path d="M33.549,109.108c0,0,2.242,1.049,5.039,0s3.933-2.972,3.933-2.972l1.757,1.719c0,0-0.493,2.651-5.364,3.176
				s-5.364-0.874-5.364-0.874V109.108z"/>
			<path d="M15.161,91.276c0,0,5.041-0.897,6.017-2.197s0,2.896,0,2.896s-3.22,2.447-4.619,0.874S15.161,91.276,15.161,91.276z"/>
			<path d="M69.882,122.318c0,0-3.671,1.126-5.788,2.875s-5.576,2.098-5.576,2.098s2.099,5.931,10.14,3.671
				C72.798,129.799,69.882,122.318,69.882,122.318z M66.735,129.609c-4.564,1.308-4.188-1.444-4.188-1.444s5.411-0.875,5.761-2.098
				S71.299,128.301,66.735,129.609z"/>
			<polygon points="50.301,185.682 57.819,183.759 58.519,186.381 51.175,187.605 			"/>
			<path d="M11.664,210.857c0,0,4.721,0.353,6.294-1.572s3.653-2.449,3.653-2.449v2.449c0,0,1.232,2.145-4.974,3.146s-3.4,0-3.4,0
				L11.664,210.857z"/>
		</g>
	</g>
	<g>
		<path d="M11.664,224.199c0,0,3.555-0.25,5.023-1s1.699,11.5,1.699,11.5h4.979l-1.155-9.25l4.695-0.75l2.407,14.5
			c0,0-9.197-1.5-13.677,0s-9.98,1.5-9.98,1.5s-2.25-12-3.75-12.75s8.185-0.5,8.185-0.5s-0.918,7.75,1.574,7.75s2.492,0,2.492,0
			L11.664,224.199z"/>
		<path d="M34.856,223.166h15.445c0,0,1.653,15.667-4.021,15.783c-2.002,0.041-6.54-3.75-6.54-3.75s5.682-4.01,6.54-8
			c0.43-2-11.424,0.5-11.424,0.5V223.166z"/>
		<polygon points="49.056,214.699 51.868,214.699 53.173,221.199 49.056,221.199 		"/>
		<rect x="55.406" y="212.875" width="4.511" height="7.173"/>
		<path d="M59.917,225.199l4.782-2.033c0,0,0.115,6.033,2.036,5.783s6.353,0.008,6.353,0.008v4.992l-6.353-2.017v6.017h-4.667
			C62.068,237.949,61.428,226.699,59.917,225.199z"/>
		<polygon points="66.735,216.462 70.879,216.462 71.656,223.166 67.656,223.166 		"/>
		<path d="M73.087,214.699h4.461l0.9,6.5l-3.866-1.15C74.583,220.048,73.519,216.199,73.087,214.699z"/>
		<path d="M82.653,214.699h7.252c0,0-1,6.75,0,7.25s8.206,0,8.206,0s0.044,9.75-2.706,13.25s-5.023,3.75-5.023,3.75l-5.115-1
			c0,0,1.389-2.533,3.639-7.392s0-5.858,0-5.858l-4.95,0.5v4.5l-5.507,0.858v-7.392c0,0,2.452,1.967,4.205,0
			S82.653,214.699,82.653,214.699z"/>
	</g>
	<g>
		<polygon points="108.406,91.31 113.656,89.949 113.656,87.199 115.406,85.699 116.906,88.829 122.906,88.504 121.156,82.449 
			124.906,80.439 127.156,87.199 125.406,88.829 127.156,97.949 123.406,97.949 120.906,93.536 117.781,94.449 119.656,101.242 
			116.906,101.242 113.906,95.345 109.906,95.593 		"/>
		<polygon points="127.156,78.889 130.156,78.889 131.656,83.858 127.156,87.199 		"/>
		<polygon points="120.406,105.088 124.656,103.165 124.656,101.242 127.156,98.949 129.406,102.019 134.406,100.199 
			137.156,103.165 137.156,106.836 133.406,108.643 133.406,103.165 129.406,105 132.656,111.149 130.656,113.152 127.156,106.836 
			122.656,108.754 		"/>
	</g>
	<g>
		<polygon points="106.031,125.573 111.281,124.211 111.281,121.461 113.031,119.961 114.531,123.092 120.531,122.767 
			118.781,116.711 122.531,114.702 124.781,121.461 123.031,123.092 124.781,132.211 121.031,132.211 118.531,127.799 
			115.406,128.711 117.281,135.504 114.531,135.504 111.531,129.608 107.531,129.855 		"/>
		<polygon points="124.781,113.152 127.781,113.152 129.281,118.121 124.781,121.461 		"/>
		<polygon points="118.031,139.351 122.281,137.428 122.281,135.504 124.781,133.211 127.031,136.281 132.031,134.461 
			134.781,137.428 134.781,141.099 131.031,142.905 131.031,137.428 127.031,139.263 130.281,145.412 128.281,147.415 
			124.781,141.099 120.281,143.017 		"/>
	</g>
	<g>
		<polygon fill="#828282" points="97.817,41.636 103.104,42.847 104.371,40.406 106.615,39.88 106.504,43.35 111.979,45.826 
			113.216,39.645 117.47,39.589 116.353,46.625 114.049,47.266 111.4,56.167 108.072,54.439 107.886,49.371 104.692,48.741 
			103.227,55.634 100.786,54.367 100.84,47.751 97.175,46.128 		"/>
		<polygon fill="#828282" points="120.181,39.25 122.844,40.632 121.886,45.733 116.353,46.625 		"/>
		<polygon fill="#828282" points="102.12,59.394 106.778,59.645 107.665,57.938 110.94,57.054 111.522,60.815 116.799,61.503 
			117.873,65.403 116.182,68.662 112.021,68.537 114.544,63.675 110.149,63.462 110.201,70.416 107.503,71.272 107.306,64.055 
			102.429,63.684 		"/>
	</g>
	<g>
		<polygon fill="#5E5D5C" points="127.5,62.62 132.74,61.223 132.722,58.473 134.461,56.96 135.982,60.081 141.98,59.716 
			140.189,53.672 143.926,51.637 146.221,58.381 144.482,60.024 146.293,69.131 142.544,69.157 140.014,64.761 136.895,65.694 
			138.816,72.475 136.066,72.493 133.026,66.617 129.028,66.892 		"/>
		<polygon fill="#5E5D5C" points="146.165,50.072 149.165,50.052 150.699,55.01 146.221,58.381 		"/>
		<polygon fill="#5E5D5C" points="139.592,76.316 143.829,74.364 143.816,72.441 146.3,70.131 148.571,73.186 153.558,71.332 
			156.329,74.28 156.353,77.951 152.616,79.782 152.579,74.305 148.591,76.167 151.883,82.293 149.897,84.31 146.354,78.019 
			141.867,79.966 		"/>
	</g>
	<g>
		<polygon fill="#4F4C4B" points="101.379,2.386 106.666,3.597 107.933,1.156 110.177,0.63 110.066,4.1 115.542,6.576 
			116.778,0.395 121.032,0.339 119.915,7.375 117.611,8.016 114.962,16.917 111.634,15.189 111.448,10.121 108.254,9.491 
			106.789,16.384 104.348,15.117 104.402,8.501 100.737,6.878 		"/>
		<polygon fill="#4F4C4B" points="123.743,0 126.406,1.382 125.448,6.483 119.915,7.375 		"/>
		<polygon fill="#4F4C4B" points="105.682,20.144 110.34,20.395 111.227,18.688 114.502,17.804 115.084,21.565 120.361,22.253 
			121.435,26.153 119.744,29.412 115.583,29.287 118.106,24.425 113.711,24.212 113.763,31.166 111.065,32.022 110.868,24.805 
			105.991,24.434 		"/>
	</g>
	<g>
		<polygon fill="#A4A4A5" points="139.392,102.245 144.335,100.015 143.871,97.304 145.341,95.53 147.349,98.361 153.208,97.026 
			150.458,91.354 153.814,88.739 157.175,95.02 155.727,96.923 158.995,105.615 155.299,106.25 152.087,102.324 149.162,103.752 
			152.16,110.13 149.45,110.595 145.495,105.291 141.594,106.212 		"/>
		<polygon fill="#A4A4A5" points="155.769,86.831 158.726,86.322 161.044,90.967 157.175,95.02 		"/>
		<polygon fill="#A4A4A5" points="153.549,113.794 157.413,111.18 157.088,109.284 159.164,106.601 161.9,109.246 166.521,106.605 
			169.733,109.064 170.355,112.682 166.963,115.097 166.037,109.699 162.405,112.184 166.648,117.694 165.016,120.007 
			160.499,114.375 156.388,117.026 		"/>
	</g>
</g>
</svg>
