<?xml version="1.0" encoding="utf-8"?>
<svg version="1.1" id="レイヤー_1" xmlns="http://www.w3.org/2000/svg" xmlns:xlink="http://www.w3.org/1999/xlink" x="0px"
	 y="0px" width="200" height="200" viewBox="-20 -50 266 330" enable-background="new 0 0 266.548 290.342"
	 xml:space="preserve">
<g>
	<g>
		<g>
			<path d="M199.938,119.532c-6.035-12.313-16.416-21.245-24.383-26.556s-31.385-1.69-35.73,0.725
				c-4.345,2.415-11.827,10.367-13.278,8.208c-2.021-3.007-4.345-13.388-13.037-19.796c-3.187-2.35-9.657-4.345-9.657-4.345
				s-3.379-5.07-5.552-7.484s-6.036-2.656-6.036-2.656s3.38,6.277,2.656,6.277s-6.76-1.931-6.76-1.931s2.414,4.587,5.311,5.552
				s8.208,4.587,8.208,4.587s6.277,19.555,1.931,24.142c-2.938,3.101-9.174,1.69-12.071,2.172s-3.863,2.173-10.864,2.655
				c-7.001,0.483-9.898-7-10.381-9.656s4.828-19.796,4.828-19.796s2.173-1.207,4.587-2.897s7.484-9.657,5.794-9.657
				s-7.001,4.346-8.691,4.346s0-6.277,0-6.277l-1.69-1.207c0,0-1.69,2.897-4.104,5.553s-2.414,7.242-2.414,7.242
				s-4.83,2.415-9.658,6.277s-7.726,10.381-8.933,14.244s0,11.588-0.966,20.038c-0.966,8.45-17.14,17.865-18.105,19.555
				s-11.105,13.52-5.794,25.35s19.555,12.795,19.555,12.795s-4.346,2.173-8.691,11.105s-1.932,19.313-1.932,22.693
				s-7.242,5.794-13.519,12.795s-4.587,20.762-1.932,26.314s5.794,10.622,13.037,15.209s18.589,6.277,18.589,6.277
				s3.38,4.104,4.587,4.104s4.828,0.241,6.277,0.724s6.035,1.448,6.277-0.241s2.173-2.414,4.104-2.655s3.863-2.173,4.346-2.897
				s1.931,2.414,4.587,3.38s3.621,2.655,6.035,2.173s4.346-7.484,4.346-7.484s-2.173,0.483-5.311,1.208s-8.208-3.863-10.14-5.312
				s-6.277-6.519-12.313-6.519s-12.071,7.242-13.761,7.242s-10.14-7.725-10.14-7.725s0,1.689,0,3.38s2.173,4.345-4.104,1.207
				s-5.311-8.691-5.794-9.898s-0.966-9.415-0.966-9.415l-4.587,4.104c0,0-2.173-4.104-1.207-7.001s1.69-5.794,6.036-7.726
				s9.898-11.104,11.105-13.036s1.207-2.896,4.587,1.69s10.381,7.483,15.934,9.415s14.002-0.483,14.002-0.483s0,0,4.104,3.139
				s6.277,1.932,9.657,3.863s4.828,7.242,5.553,5.311s2.172-5.311,2.172-5.311s2.656-0.483,4.104-1.932s2.172-3.38,2.172-3.38
				s10.14,5.312,22.693,0.966c8.366-2.896,14.727-9.416,14.727-9.416s1.69,2.415,5.312,5.312s8.691,10.381,10.622,18.348
				s-3.38,16.417-3.38,16.417s-2.896-1.69-3.621-1.932s-4.104-12.071-4.104-12.071l-2.897-0.241c0,0,0,0,0.483,6.277
				s-3.138,14.002-2.655,12.312s-3.863-8.208-3.863-8.208s-0.724,3.139-2.896,6.035s-8.45,3.622-8.45,3.622
				s-5.553-7.243-13.278-7.967s-16.417,7.001-16.417,7.001s-2.173,6.035,1.448,6.276s1.69,2.173,7.001,4.212
				s6.277-0.107,6.277-0.107s2.414,0.241,5.794,0s1.69-2.874,1.69-2.874l8.932-1.472c0,0,0.966,1.69,4.345,1.448
				c3.381-0.242,4.104-1.931,4.104-1.931s2.897,0.966,6.76,0s7.967-4.829,7.967-4.829s11.829,6.277,22.693,1.932
				c6.806-2.723,13.52-13.036,14.485-14.727c0.965-1.69,12.313-8.934,10.864-22.936s-10.381-34.281-12.071-39.109
				c-1.689-4.828,0.725-11.105,0.725-11.105s14.244-0.482,18.83-11.829C210.661,154.337,205.973,131.844,199.938,119.532z
				 M60.637,264.866c1.626-0.521,7.726-1.689,9.174,0s1.207,3.38,0,4.587s-2.381-0.241-4.088,0s-1.465,2.896-3.155,2.655
				s-1.69-2.655-3.139-1.207s-5.552,3.17-5.552,1.223S54.602,266.797,60.637,264.866z M113.507,269.694
				c-0.965-0.725-2.172,2.015-4.345,3.301s-1.449-2.817-2.415-2.335s-6.035,3.621-6.518,0s5.071-3.884,8.933-4.346
				c1.745-0.209,6.277-1.442,8.691,2.176S114.472,270.418,113.507,269.694z M79.226,211.03c-0.483-2.415,2.609-6.109,10.381-7.002
				c1.679-0.192,4.587,2.174,5.553,3.622s1.931,2.415-2.776,3.38S79.708,213.445,79.226,211.03z M95.956,228.412
				c0.41,1.448-3.694,2.896-5.143,3.621s-5.794,1.932-7.484,0s-1.449,1.207-1.69-1.932s3.139-3.678,3.139-6.426
				s-4.371-1.3-3.151-2.748s2.91,0,3.151-2.414s-1.449-3.38-1.449-3.38s10.864-1.932,11.588,0s-0.241,2.174,0,4.104
				s2.48,1.689,0.274,3.862S95.546,226.963,95.956,228.412z M188.59,230.343c1.447,3.138,1.931,6.76,1.207,7.967
				c-0.725,1.207-5.795-3.622-5.795-3.622s0.242,8.45-4.586,15.692c-4.829,7.242-18.107,13.277-18.107,13.277
				s2.656-13.76,1.69-17.864s-10.622-19.555-12.554-20.521s-7.483-4.829-7.725-6.519c-0.242-1.689-2.656-7.968-0.242-11.105
				s-2.414-15.209-3.621-16.416s-4.588-4.104-6.519-4.587s-4.903-1.207-4.903-1.207s7.559,14.968,7.559,17.382
				s2.264,11.589-7.559,16.658c-9.823,5.069-17.79,6.277-21.169,5.794s-5.07-0.242-6.76-2.897s2.655-0.724,2.655-2.655
				s-2.655,0-2.172-2.173s1.69,0.482,2.414-0.966s-2.656-3.379,0.241-3.862s5.07,3.139,6.76,2.173s3.254-4.587,2.352-4.346
				s-11.042-2.897-11.525-1.932s-2.415-7.242-5.553-8.208s-7.725,0.482-7.725,0.482l-4.587-6.276c0,0-1.69,1.69-3.622,2.173
				s1.208,4.587,1.208,4.587s-6.277,3.138-6.277,5.069s-8.933,4.828-8.933,4.828s2.415,4.346,3.863,4.346s5.069-2.173,6.035-2.173
				s-0.725,2.415,0.724,2.656s2.415,1.688,1.449,3.138s-2.415,1.933-1.449,3.863s1.207,2.172-7.001,0.724
				s-16.175-2.896-21.728-13.036s-3.622-19.796-2.656-21.969s6.519-11.105,6.519-11.105s7.725,0.483,11.105-0.241
				s8.691-2.897,8.691-2.897l-0.483-3.138c0,0-10.381,4.125-24.625,1.097s-14.727-11.236-14.727-14.616s9.656-15.45,16.175-20.521
				s7.725-8.208,8.208-11.589c0.483-3.379,0.482-16.174,1.69-18.83c1.208-2.656,4.104,6.76,4.104,8.691s3.862-6.76-0.725-14.244
				c-0.938-1.53,4.829-11.104,4.829-11.104s1.207,6.519,1.207,7.967s-2.415,11.105,4.345,15.45
				c6.76,4.346,13.278,4.104,18.589,3.139s9.416-2.173,11.83-1.689c2.414,0.482,6.035,0.724,6.035-0.725s3.621-7.725,3.38-13.278
				s0.012-13.761,0.012-13.761s5.783,4.104,5.3,5.07s-3.022,4.587-3.684,8.208s2.293,11.347,3.713,10.864
				c1.419-0.483,1.903-9.075,2.868-9.125s4.586,14.917,4.828,18.298c0.242,3.379,1.207,7.966,3.863,9.897s9.416,0.724,17.624,9.174
				s5.962,24.354-7.967,32.723c-16.658,10.009-24.929-1.097-24.929-1.097s-1.627,3.862,4.408,8.449s16,1.725,20.037,1.449
				c10.623-0.725,22.452-11.347,22.452-11.347s16.657,11.104,18.106,11.104s-0.725,7.243,2.656,17.383
				C182.795,208.616,187.141,227.206,188.59,230.343z M193.175,163.228c-8.933,7.001-24.383,4.828-23.417-7.967
				c0.965-12.795,7.967-10.139,9.656-9.415s3.25,2.356-0.725,7.483c-1.539,1.984,1.932,2.414,2.897,2.414s8.449-2.173,8.449-7.967
				s-6.036-12.968-10.864-13.364s-15.45,4.916-15.45,7.813s-5.224,0.975-6.035-1.69c-1.229-4.033-10.381-9.656-14.727-10.381
				s-12.07-6.76-13.278-10.863c-1.207-4.104,10.623-10.141,17.383-11.83c3.574-0.894,11.104-5.794,17.141-5.794
				c6.035,0,21.728,5.794,29.936,18.348S202.107,156.227,193.175,163.228z"/>
			<path d="M64.258,133.294c2.348-0.375,5.07,2.655,5.07,4.346s-0.724,3.139-5.07,3.139S58.223,134.259,64.258,133.294z"/>
			<path d="M113.749,131.122c1.688-0.073,2.817,1.798,3.138,5.899c0,0-3.261,2.791-5.131,2.067S108.196,131.363,113.749,131.122z"/>
			<path d="M100.712,177.715c-0.241-1.69,7.967-14.968,7.967-14.968h-5.794c-2.897,3.862-6.519,13.278-8.208,13.946
				s-7.001,0.539-8.45,0s-1.207-4.048-2.897-5.979s-10.139-6.76-10.139-6.76s-5.794,1.449-3.863,1.69s10.864,10.622,11.347,12.554
				s-1.207,5.553-1.207,7.242s3.38,2.414,4.345,4.104s8.691,1.207,13.037,0s5.311-7.001,4.829-9.174
				S100.953,179.406,100.712,177.715z M94.918,183.027c0,0-1.932-2.655-2.415,0s-5.069,0.966-4.828,0s-2.172,5.07-2.414,3.139
				s-1.69-5.312,4.828-6.519c2.386-0.441,7.001,0.483,7.001,1.932S94.918,183.027,94.918,183.027z"/>
			<path d="M88.806,223.827h2.217c0,0,0.166,4.828-1.108,4.828s-3.93,0-3.93,0S87.523,230.345,88.806,223.827z"/>
		</g>
		<path d="M0.014,146.124c0,0,5.16,1.306,6.341,1.306s5.844,0,5.844,0s-0.622,1.678-0.622,2.3s-0.373,2.114-0.373,2.114
			s-3.606-0.685-5.844-0.809s-5.346-0.062-5.346-0.062s0.871-1.119,0.373-2.798S0.014,146.124,0.014,146.124z"/>
		<path d="M2.811,161.479l11.128,0.373v5.347c0,0-1.865-0.87-5.564-0.746s-5.564,0.124-5.564,0.124V161.479z"/>
		<path d="M4.427,172.731c0,0,5.098-0.684,6.03-1.057s3.917-0.995,3.917-0.995s1.679,5.813,2.3,6.015s-5.097-0.451-6.714,0
			s-5.16,0.824-5.16,0.824S4.862,173.166,4.427,172.731z"/>
		<path d="M9.152,187.03c0,0,3.73-2.362,5.906-4.414s3.294-3.544,3.294-3.544s4.165,4.975,4.663,4.85s-2.451,3.184-4.663,6.718
			c-1.631,2.606-4.103,2.918-4.103,2.918S9.96,187.279,9.152,187.03z"/>
	</g>
	<g>
		<path fill="#601986" d="M39.146,0c0,0,6.798,5.949,6.987,6.704s-8.498,12.369-8.781,12.841s-4.721-1.888-4.721-1.888
			s3.021-2.266,4.154-4.249S40.846,1.605,39.146,0z"/>
		<g>
			<path fill="#601986" d="M51.704,24.36c-1.322-2.738-1.511-5.665-1.511-6.893s2.455-4.721,2.455-4.721L49.061,8.97
				c0,0-4.91,6.326-5.193,8.214s-9.348,11.047-8.875,10.858s8.498,0,8.498,0l2.646-3.683c0,0-0.38,1.605,0.563,3.777
				s-0.661,11.52,0,11.331s7.932,2.455,7.932,2.455s0.094-5.665,0-7.459S53.026,27.099,51.704,24.36z"/>
			<path fill="#601986" d="M71.533,8.97c4.438-1.133,6.704-0.472,6.704-0.472l-2.171-5.407c0,0-3.116,1.441-7.932,1.63
				s-7.931-1.417-11.708-1.605s-4.532,0.755-4.532,0.755c-0.094,0.85,1.7,4.721,1.7,4.721S67.095,10.103,71.533,8.97z"/>
			<path fill="#601986" d="M60.958,14.541c-1.322-0.188-7.014-1.788-6.284-0.85c0.514,0.661,1.469,7.459,1.469,7.459
				s8.214,0.094,8.921,0.472s2.787,9.348,2.693,13.03s-4.721,5.76-3.588,5.666s8.403,3.965,8.403,3.965s3.305-3.399,4.06-5.665
				s-0.189-9.537-0.755-11.803s-1.417-5.665,0-6.137s6.515-1.071,6.515-1.071l0.283-3.839c0,0-6.798-0.755-9.442-0.755
				S62.279,14.729,60.958,14.541z"/>
			<path fill="#601986" d="M130.641,26.438c-0.756-1.699-3.966-8.781-3.966-8.781s-3.966-0.189-5.193-0.944s0-11.425,0-11.425
				l-6.326-1.7c0,0-0.472,10.669-0.472,11.708s-0.377,1.133-2.077,0.661s-1.133-6.42-1.888-6.153s-9.82,3.038-10.386,3.038
				s-1.322-2.455-1.511-3.038s4.06-2.533,4.06-2.533l-1.794-4.18c0,0-4.438-0.258-6.515,0s-7.837-0.919-7.837-0.919
				s-0.283,4.154-0.283,5.288s5.571,1.416,6.987,1.511c0,0,0.567,1.227,0.567,1.794s0.094,0.755-2.266,0.661
				s-10.575-0.755-10.009-0.283s2.172,4.343,2.172,4.343s8.214,0.567,10.386-0.283c1.593-0.624,2.455,0.472,0.755,1.511
				s-8.781,0.85-8.781,0.85s-0.566,2.833,0.472,5.193s1.228,6.085,1.228,6.085s3.399-0.987,5.382,0s3.399,0.902,3.399,0.902
				s0.661,1.133,0.378,1.794s-6.609,0.472-6.609,0.472s0.472,0.755,0.755,1.605s-0.944,3.494-0.944,3.494s5.382-0.755,6.043-0.094
				s0.377,1.794-0.189,2.549s-7.082,0.566-7.082,0.566s-0.377,4.249,0.095,4.154s19.87,1.228,19.87,1.228l2.979-3.588l2.738,0.472
				c0,0,2.36-8.687,2.833-10.669s0.283-8.309,0.566-8.829s3.494-0.519,4.532,0s2.077,6.468,2.172,10.339s-5.76,6.137-4.627,5.854
				s4.816,4.532,4.816,4.532s6.042-4.155,6.231-5.76S131.396,28.137,130.641,26.438z M92.022,22.189c0.189-0.095-0.64-2.48,0-2.582
				c1.038-0.164,3.871-0.693,3.871,0s0,2.582,0,2.582S91.833,22.284,92.022,22.189z M93.344,27.477c-0.094-1.417,0-2.03,0-2.03
				c0.472-0.331,2.266-0.424,2.549,0s0.755,3.394,0.755,3.394S93.438,28.893,93.344,27.477z M100.803,20.746
				c0-1.295,0-2.522,0-2.522c0.472,0,3.116-0.755,3.305-1.133s0.283-3.21,1.416-3.021s2.644,3.116,2.266,3.305
				s-1.7-0.283-1.794,0.189s0.472,2.967,0.094,3.183S100.803,22.041,100.803,20.746z M106.543,27.477
				c-0.358,0.189-4.324,0.472-4.324,0s-0.644-1.942,0-2.03c0,0,3.55-0.521,4.324-0.284S106.902,27.288,106.543,27.477z
				 M112.039,32.481c-0.094,2.077-0.741,5.382-1.031,6.137s-1.612-0.755-1.612,0s-1.133,2.36-1.133,2.36s-6.238,0.85-6.329-1.133
				s5.692-1.133,5.916-1.889s0.342-3.493,0-3.682s-5.252-0.472-5.063-1.039s-0.189-1.7,3.21-1.417s5.665-0.378,5.665-0.378
				s-1.605-7.176-1.605-7.601s-0.189-3.096-0.189-3.096c0.472,0.027,1.983-0.851,2.172,0.626S112.133,30.404,112.039,32.481z"/>
		</g>
		<path fill="#601986" d="M175.301,23.228c0-0.283,0.662-2.172,0.662-2.172s-6.327-3.682-8.971-5.288s-9.537-5.099-11.52-7.742
			s-7.176-4.91-8.12-4.935c0,0-10.386,13.055-13.313,15.321c-1.408,1.09-3.965,2.644-3.965,2.644s6.42,7.785,6.137,8.215
			c-0.52,0.788,7.082-6.232,7.082-6.232s1.605,7.554,1.038,12.18s-4.343,11.708-3.493,11.614s6.515,3.384,6.515,3.384
			s6.138-5.838,6.515-5.933c0.378-0.095,8.688,5.099,11.897,5.76s8.876-0.755,9.253-1.133c0.379-0.377,0.283-4.627-0.188-4.627
			s-8.403-1.983-8.403-1.983l5.099-5.193l-5.005-1.417c0,0,0.566,2.927-3.305,2.833s-4.154-2.361-4.154-2.738s2.833,0,2.833,0
			l4.154-3.305c0,0,1.889,2.455,2.077,1.133s-1.889-7.176-1.889-7.176h1.983C168.22,26.438,175.301,23.511,175.301,23.228z
			 M152.451,12.275c1.889-0.095,1.983,1.132,1.795,3.493c-0.189,2.361-1.229,5.099-1.229,5.099s-1.982,0.661-2.549,0
			s-2.045-2.011-1.889-2.738C148.7,17.567,150.563,12.37,152.451,12.275z M155.473,37.58c-0.188,1.416-2.076,3.21-2.455,3.21
			c-0.377,0-3.33-1.888-2.893-3.21c0.15-0.453,2.422-1.228,3.365-1.228S155.661,36.164,155.473,37.58z M161.043,32.858
			c-0.943,0-10.764,1.039-10.764,0s-0.566-4.048,0.473-4.018c0.77,0.023,10.67-0.325,10.858,0.619S161.987,32.858,161.043,32.858z
			 M161.992,25.966c-0.382,0.377-13.979,0.094-14.356-0.661s-0.663-2.377,0-2.36c0.661,0.017,13.975,0.472,14.729,0.897
			C163.121,24.266,162.375,25.588,161.992,25.966z M158.589,21.161c-0.188-1.049-0.511-4.725,0-4.446c0,0,7.177,3.89,7.081,4.446
			C165.576,21.717,158.777,22.21,158.589,21.161z"/>
	</g>
	<path opacity="0.18" fill="#E4007F" d="M40.725,142.648c3.028,0.112,11.775-0.199,14.668,6.087s4.791,16.064-7.334,23.549
		s-21.504-13.569-19.908-17.063S38.031,142.548,40.725,142.648z"/>
	<path opacity="0.18" fill="#E4007F" d="M131.43,147.039c0.828-0.871,3.393-4.691,9.579-3.493s14.669,8.184,13.771,16.266
		s-9.979,16.265-21.454,11.874c-11.475-4.391-10.69-11.825-8.481-16.464C127.06,150.568,129.801,148.75,131.43,147.039z"/>
</g>
</svg>
