<svg xmlns="http://www.w3.org/2000/svg" width="300" height="300" viewBox="-15 -80 580 580">
  <g fill="none" stroke="#044894" stroke-linecap="round">
    <g stroke-width=".484">
      <path d="M66.35 169.087h1.96m1.544-2.303h-2.292l-.807.428m1.55-.665v-1.295l.583-1.174 2.663-.495m1.42-1.433l-4.59-.502m5.43-2.933l-2.47 1.64-.66 1.544m.67-1.55l-.85-1.13m1.76-1.75l2.19-.49m19.24-4.59v-1.15l3.74-.97"/>
      <path d="M97.155 149.43l-5.375 1.09-1.14 1.875.346.427m1.277-2.544l-.974-1.214-4.84 1.214m4.84-1.214l.49-2.113 1.74-2.08m-1.26 1.48l-5.82 1.58m4.19-4.24l-2.5 1.47.52 1.99m0-3.78l-1.79.76"/>
      <path d="M91.555 147.92l7.078-1.88.657 2.18"/>
      <path d="M98.76 146.466l11.4-3.628 1.51 1.27m-1.51-1.27l.986-1.21 2.582-.498 1.493 2.193"/>
      <path d="M114.474 142.227l9.6-3.25.77.837m-28.707 3.54l11.058-2.224 2.964-.753.42-.986 3.38-.41-.24 2.15"/>
      <path d="M103.937 141.787l-1.338 2.32.66.925m-5.24-3.652l5.9-.778.78-3.25-6.83-.265m6.37 2.606h5.9m-5.63-1.587l11.55-2.768 1.33 1.384-3.45 3.334"/>
      <path d="M116.796 136.078h1.565l1.3-2.902-.61-.983-14.33 4.894m8.23-2.487l-.25 1.552m-4.3-.32l-.51-1.582-1.58-2.057-3.99 2.877-.3 1.91m.3-1.91v-2.877h-1.39l-2.54 2.407m3.79 1.552l-3.79-.21"/>
      <path d="M102.296 132.193l1.64-2.237.78-.303 2.782.847-.714 2.336m.714-2.094l1.754 2.094.638 2.502m-.638-2.502l4.96-2.094 1.27 1.754v.916"/>
      <path d="M114.575 131.245l3.205-1.592 2.177.796-.595 2.24m-16.094-2.26l-1.653-.48L98.76 131m.53-1.887l7.3-2.498 4.386.33-5.76 2.843m5.76-2.842l2.268 1.256-4.856 3.13m3.282-4.387h4.114l2.177.996-.54 1.7m-1.63 8.65l9.92-1.69.43 3.09"/>
      <path d="M118.945 134.772l4.036-1.936 3.15-.643-.6 2.407-1.99.738v1.642m-3.89-5.316l2.9-.535 1.78 1.43m1.56 5.28l5.1-1.25.61 1.09"/>
      <path d="M127.82 136.98v-2.208l3.508-.884 1.27 1.45v2.014m-4.778-2.58l-2.3-.172m7.078.738l5.08-3.145 2.283 2.877"/>
      <path d="M131.328 133.888l1.27-2.3 2.964-.846 1.08 2.094m-10.212-.76l5.767.238-.325-3.447-8.74 2.744m-19.508-3.96l-1.328-1.44-3.006.11m3.31.22l3.75-1.53 1.148 1.54m-.908-1.54l.618-2.11-4.912.02m4.912-.01l-.738-1.54-1.573-.93m1.573.93l1.918-1.42-1.555-1.59m.375 5.6l3.608-1.42 1.874.71V125l-1.524 1.76m1.774-1.76h2.28l.26-1.51-2.79-.26"/>
      <path d="M116.147 126.925l2.798-1.254-1.68-1.73-2.044-.48m2.74 4.5l3.51-1.03 2.85 1.94 1.56 1.74m-1.3-1.45l-2.03 1.98"/>
      <path d="M118.753 125.472l8.704-2.245 4.476 1.123-.362 1.32-8.01 2.637m7.72-2.54l2.89 1.877-1.96 2.16m-23.81-9.888h3.29l.52 2.963m-.52-2.97v-2.66l-4.58 1.33"/>
      <path d="M108.95 116.226l5.866-1.935.665 1.94-2.79 1.64.25 2.55-.75.66"/>
      <path d="M113.244 119.203l4.415-1.525.3 1.27-2.18 1.457-.56 1.237-2.53-1.017m1.92.772v1.83m1.71.233l.75-1.818 6.68-1.237 1.57 1.527-1.79 2.302"/>
      <path d="M123.768 120.405l2.105-2.076-10.09 2.73m2.03-2.74l8.06-2.29.253 1.99m-.783 3.89l6.59-1.29 2.05-.99-.522-1.33-4.19.87h-3.92m6.59 1.44l-.95 3.47m-16.37-10.16v-1.54l-3.42.36"/>
      <path d="M114.575 112.718l2.69-.665-.695-2.677h-2.385"/>
      <path d="M116.57 109.376l3.09-1.396.986-2.227m-3.23 5.294l2.54-1.293-.296-1.774m.297 1.774l2.18-.24 1.417-1.95m-8.334 7.904l5.61-2.28-1.392-3.17m.702 1.596l6.53-2.238m-5.84 3.81l2.303 1.105 2.388-1.87 3.79-2.39m-7.34 3.94l-2.31 3.72"/>
      <path d="M125.136 112.718l2.986.47 3.206-1.574m-8.792 5.376v-1.172l3.832-1.527 1.452.61 4.113-.6 1.21-1.89"/>
      <path d="M128.723 114.695l-.903 2.983-2.3.998m2.712-2.123l4.366-.51 3.145-2.45m-3.546.697l1.264 1.178"/>
      <path d="M139.96 115.072l-4.217 1.48-2.282 1.49-2.47-1.81m3.49 11.554l2.72.978v.89l-1.45 1.44m2.7 2.06l1.52-1.807 3.83-1.205 2-.703.41 2.96-1.25 1.48m1.26-1.49l3.31-.21m-3.31-1.1l1.35-1.94 5.39-2.53 3.17 1.15-.63 2.02"/>
      <path d="M141.065 130.742v-1.303l4.78-2.09 2.524 1.41m-6.26 0l-1.54-.55-3.39.54"/>
      <path d="M139.96 128.217l.198-2.01 4.738-1.634 1.294 2.782m9.594 1.41l5.714-1.84.422 1.566"/>
      <path d="M158.852 127.355l-.428-1.15.83-2.267 7.487-2.006.82 2.712-3.81 2.28.24.92m3.81-3.27l4.43-.638m-4.95-.726l2.74-.223 2.62-3.466m-.05-2.98c-.24.15-8.53 3.38-8.53 3.38l-.84 2.97m-7.92 4.48l3.4-1.85m.58-1.56l-6.33 2.69m10.99-6.22l-5.98 1.53-.86 1.53-7.89 2.21.49 2.55"/>
      <path d="M145.227 125.283l.963-2.056 8.02-2.163 3.505 1.248m-17.63 4.65l-4.613.882"/>
      <path d="M131.987 126.206l3.485-2.095 12.37-4.45 1.933.98-1.32 1.98m-8.495-.29l-.77-1.68 4.817-3.38m-2.7 1.9l-7.323.51m-2.05 4.69l6.96-5.03m10.603 1.09l4.068-1.2 1.71 2.24m-1.16-1.52l.922-2.67 3.815-1.43 4.138 1.17-.332 2.17.332 1.49"/>
      <path d="M162.695 118.912l-3.953 1.22v1.51m4.376-4.388l2.806-2.182 6.838-.377m-17.785 2.84v-.982l-4.78-.51v4.01m2.723-3.72l6.335-2.375 1.277.514-1.126 1.503"/>
      <path d="M160.027 115.146l4.87-1.554.31 2.037m0-1.34l2.35-1.55 5.585-.35m-.38-4.8l-3.64.6-.114 1.81 3.63 1.02m-3.744-1.17l-3.152 1.16-.846 2.54m1.028-2.72l-5.205.74-.19 2.86"/>
      <path d="M161.677 111.27l.557-1.894 7.78-3.02 1.158 1.248m1.99-3.41l-9.954 2.16.033 2.63m-.25-1.42l-6.68 2.455-.22 2.38 4.45.68m-4.44-.68l-4.95 3.64m5.17-6.03l-6.53.98"/>
      <path d="M157.917 106.59s4.417-2.703 4.7-2.642c.282.06 2.59 1.973 2.59 1.973m7.956-5.09l-4.39.59v3.51"/>
      <path d="M173.163 97.234l-6.1 2.118 1.71 2.358-6.156 2.238"/>
      <path d="M167.557 100.034l-6.06 1.737-.768 3.15m.61-2.58l-5.04 1.87.76 2.39"/>
      <path d="M156.54 104.927l-3.62 1.428-3.407.234.685 2.39 7.517-2.63 1.137 1.31 1.68.59m-10.757-.76l-2.696.75m-1.9-.91l2.17-1.6 1.37 2.04"/>
      <path d="M147.598 105.753l3.168-1.296 2.154 1.608m-2.154-1.608l1.62-2.127 4.34-2.01 3.806 2.312m-1.277-.776l.772-2.323 5.595-1.45 1.44 1.27m-1.138-1.27l.725-1.574 5.08-1.58 1.63 1.57m-.2-3.73l-1.74 2.25"/>
      <path d="M170.823 91.79l-3.266 1.695 1.986 2.128m-1.358-1.455l-4.275 1.455v2.912m0-2.015l-6.845 3.81m-4.992 2.068l-.97-.46-.844-.4-4.07 2.666-1.95 2.762m4.18-4.228l-2.89-.34-4.66 2.54m17.54-5.365l-3.93-2.813-2.79 1.775.67 1.51-2.13 1.252-1.84-1.815-2.89 2.916m7.38-4.634l-4.5 1.718m7.22-1.892l5.69.174m-2.52-.266l-.33-1.875 6.04-1.91V91.79l4.24-1.42"/>
      <path d="M164.533 92.335l-6.818 1.823-.99-.91 9.902-3.952m-8.71 4.862l-2.94 2.94m1.33-1.738l-2.903-.328-6.592 3.05-1.916 2.742-7.7 2.453"/>
      <path d="M145.772 99.57h-3.45l-3.132 1.535-5.03.75"/>
      <path d="M130.983 100.59l7.88-1.783 1.93 1.512m-.873-.87l8.507-3.83 1.77.88m-1.027-.67l8.545-4.05.202.98m-4.304.01l-.07-1.25 8.377-3.68.375 1.43zm6.414-2.46v1.46m-4.047-1.62l-.7-1.76 4.747-2.29"/>
      <path d="M157.715 84.87s-10.3 3.776-10.117 4.08c.182.3 0 1.42 0 1.42l8.03-1.073"/>
      <path d="M153.544 91.54l-10.906 2.618-.317-1.64 5.28-2.904"/>
      <path d="M147.08 93.09c-.13.033-.89 2.148-.89 2.148l.89.994m-4.442-2.074l-3.448 4.65m1.357-1.83l-7.086.776.7 1.945m8.16-7.19l-6.15 3.09-.28 1.87m.28-1.88l-5.44.35-3.6 2.84m3.86-2.86l-2.26-1.56m1.52.78l3.92-1.81 4.3-1.27 2.73 1m-2.72-1.21l3.87-2.27 5.62-.89m.23-2.59l-.56 2.81m3.54-4.68l3.36-1.04m-7.11 2.75l-3.38 1.56-.81 1.93m.76-1.8l-8.07 1.81v1.83l3.21-.86.34.85m-3.73-.85l-4.38 1.02m5.32-5.34c.24.39 2.21.81 2.21.81l.3 1.59m-.29-1.6l3.25-.81 1.22-2.39m-4.47.17l3.78-.54m2.26 52.24l2.94 1.36 1.33-1.91m-1.66 1.76l-2.62 2.86m4.13-.66l-2.39 1.56-.72 1.39 1.6-.62-.88 2.03-1.63.75m2.03-1.32h1.7m-1.69-2.5h-2.13m0 6l2.14.12 2.21-1.91m-4.34 3.25c.34-.13 2.62 0 2.62 0v1.67l-1.31.44m1.31-2.11l1.26.42m-2.57 12.1l1.67-.84m-1.68 2.47l1.31-.66m.48 2.48l-2.43-.73m1.22.36l.25 1.88-1.72 2.41m1.32-1.45l1.25.96m0 1.8l-2.57 1.1m.25 1.21l1.96-.54m0 1.09l-1.31.91 1.31 3.75m-.92-2.63l-1.66.9m.63 2.02c.1-.05 1.7-.69 1.7-.69m.23 1.87l-2.59.54m.42.89h1.94m-.21 1.21l-1.13.67v1.27h1.34m-1.34 0l-1.38.97m0 1.09h2.5m-.17 1.15l-1.07.37-.016 2.36-1.23.72m1.23-.73l1.483.72m-.75 1.51l-1.97.79m-.33 2.9l2.2-.63m.31 1.7l-1.41.57v.96m.6-1.53l-.6-1.39M142 205.01l.485 2.27 1.33-.59.42-1.674m-2.233.277l-.786 2.05m2.6-.652l.746.43 1.75-.77m34.25-107.2l1.6-1.07m-1.33 3.44l1.33.33.61 1.42-.606.92-2.07 1.07m2.19-3.11l1.146-1.83 2.48-.35m-3.147 3.31l5.154-2.45m-5.76 3.63l3.18.46 2.86-1.29 1.11-2.1m-5.53 3.39l-.3 1.86-3.42 1.2"/>
      <path d="M180.532 109.514l3.96-.97.824-1.33-1.784-.86m1.784.602l3.72-2.03 5.068-.98"/>
      <path d="M185.316 107.214l2.2.766 3.145-.766 4.24-2.588m-7.38 3.354l-1.8 3.067-3.46.567-2.2 1.104m0 1.505l3.41-.265 2.25-2.91m14.02-4.272l-3.08 2.21-7.61 2.628-.55-2.1 9.21-3.76"/>
      <path d="M189.71 111.382l-1.226 1.018-2.238.235-.363-1.588m2.012 1.67l1.14 1.24-1.14 1.86-8.294 2.76m.46-2.244l1.86-.29.35-1.992m7.04-.09l8.2-2.34 3.65-3.81m1.94.89l.71 2.2-3.5 1.52-2.08-1.52m1.78 1.3l-3.03 2.29-7.24 1.86-1.4-1.18m-.41.67l.83 2.23-5.2 1.75-2.19.86-.8-2.31m3.26 1.33l-.02 1.41m-2.36-.79l-1.8.79m15.62-3.02l-.32-1.7-5.86 1.22.26 1.65m5.93-2.2l1.73-.67.56-2.28"/>
      <path d="M199.587 112.484l1.114 1.988 6.96-2.287-1.45-2.67-2.42.24"/>
      <path d="M204.372 113.265v2.263l-1.292.1m3.658-5.133l6.06-2.515.544-2.227-1.27-.3-4.174.612"/>
      <path d="M212.616 105.452l.424-1.504 7.56-2.42 1.15 1.342-8.77 3.195"/>
      <path d="M213.512 103.797l-.896-1.467-4.96 1.065"/>
      <path d="M207.452 101.856c.363-.242 6.374-2.287 6.374-2.287l.907.98v3.08m0-3.08l3.145-2.22v1.23l1.09 2.48m-1.09-2.9l5.202-1.58m-2.48 3.95l2.48-1.21 4.233-1.17m-8.343-3.25l-3.693 2.17.665 1.61"/>
      <path d="M216.063 94.936l-3.447 3.493-.61 1.76m-3.926-1.67l2.903-1.78 2.36.48m.69-3.94l-3.05 1.37v2.08m-3.326-1.14l3.326-.45m-2.903-2.39l1.96.3 1.052-1m-1.052.99l.943 1.57m10.767 7.72l3.446.48 4.476-2.68m-3.962 2.67v1.33l4.688-1.33 1.964-1.82m-1.7 1.58l.825 2h2.298l1.15-2m-7.82 1.17l-.59 2.27 2.51 2.82 4.327-.96"/>
      <path d="M239.692 104.166c-.355-.15-6.33 1.9-6.33 1.9v2.92l3.99-.303 5.082-2.62m-8.26-2.116l1.573 1.32m-9.22.798l-5.383 1.5.605-2.65 2.7-2.15"/>
      <path d="M221.75 105.452l-7.017 3.437-1.935-.91m1.632 1l-3.024 2.63-3.75.57m-3.284 2.96l6.212-.45 2.758-1.11-2.3-1.72"/>
      <path d="M213.512 113.592l5.94-1.192-2.18-4.836m1.494 3.314l5.685-1.364.93 1.533 7.99-2.062m-18.22 4.28l.92 1.88-5.08 1.954-1.66-1.06-3.35 2.18-2.88.25m5.78-3.66l.73 1.22m-5.8 5.89l3.45-.49-.24-2.24-1.02-.98"/>
      <path d="M206.99 119.203h4.053l6.08-2.104-1.06-1.96m.417.67l10.047-3.64.346-1.53m0 1.18l3.79-.23v-2.04M206.99 120.4l3.328.66-.278 2.417-2.807 1.093.424 3.27-2.148 2.453-2.43-.34m.54-4.607l3.61-.778"/>
      <path d="M210.512 121.932l8.457-1.872-.21-2.564-1.92-.943m-1 4.197l.21 2.13m2.7-5.384l8.54-3.538.6-2.18m-1.4 2.694l1.93.96v1.743l-6.79 1.3-1.95-1.376m7.14.66l-1.68 2.01m3.57-3.81l9.13-2.02.5 2.08m-2.65-1.76l-1.3-2.11-7.37 1.87"/>
      <path d="M234.96 113.265s.57-1.878.787-1.938c.215-.06 2.15-1.308 2.15-1.308l.5-1.88m-7.735 2.52l5.085.66m2.65-1.01l2.1.55 7.62-2.2m-7.617 2.19l-.808 2.71 1.412.88 7.298-1.99m-9.052.78l-1.452.69m1.794 3.84l3.567-2.61 4.86-.37"/>
      <path d="M242.676 115.87l-.242 2.355 1.613 1.557 4.072-3.05m-5.69 1.742l-2.42.302m-.32 3.04h2.07l2.27-2.034m-.79.888l.78 1.77 4.07-.508m0 1.055l-3.21.662-.24 1.7h3.44m-3.75 0l-1.7 1.25h-2.99m5.22-2.96l-4.9-.17m1.76-1.67l.26 1.75m1.49 2.41l4.6.96m.28.82l-4.03 1.88v.87l1.75.69 2.48-.91m-4.23.22l-4.36-1.03m5.26-3.14v2.87m-5.59 3.13l3.83-1.84m-3.2 2.49l2.42.25 2.54-2.37"/>
      <path d="M242.797 133.007l1.11 2.27h1.782l2.43-2.235"/>
      <path d="M243.522 134.794l-1.693.907s-.19 1.79 0 1.89c.18.11 6.29-1.64 6.29-1.64m-6.29 1.65l-1.82 1.17m1.81-3.05h-2.14m.32 3.84l2.78-.12 5.29-2.19"/>
      <path d="M242.797 139.41l-.363 1.432 1.472.764 4.183-1.382m-4.19 1.382l-2.08 1.716.24 1.052-2.38 1.25"/>
      <path d="M243.26 142.14l2.002 1.474.015 1.228 1.39.563"/>
      <path d="M245.262 143.614l1.77-2.008h1.057M208.21 130l-2.252.296-2.37 2.96m4.185-.25l-2.35 1.594h-2.347m4.37 1.595l-2.93.534-1.44 2.02m4.37-1.16l-2.93 1.38v1.8l2.47.34m-2.47-.35l-1.764 1.83m2.673-4.24l-.91-1.65m-.927 7.04l.928-.16.455-1.01h2.26m.22 3.01l-4.37 1.2m2.88 30.36l3.87-1.07-.87-.75-1.52-1.25m1.16 2.35l.37 2.3h-3m0 4.17h4.52m-1.7-5.33h1.06m-3.87 7.81l2.12-.55.27-1.94m1.79 2.72h-2.24l-1.93 1.09m4.17 1.33l-4.83.48m.3 1.33l4.23-.49m0 1.75h-2.37l-2.24 1.68m7.88-18.73l2 1.14 2.55-1.14m0 1.9l-2.54.45-2.29 1.87m2.57-3.21v1.28"/>
      <path d="M217.836 177.616l-2.86.725-1.037-.92m1.03.93l-1.88 2.61m0 1.51l1.87.49 2.67-1.51m-.25 2.48l-2.42.28-2.26 1.48m.81-.24l.51 1.88 3.35-.94"/>
      <path d="M214.975 187.03v1.53l-2.312 1.334"/>
      <path d="M214.038 189.1l-.1 1.156 3.706-.578m0 1.486l-3.606.368-1.236.297m1.568 1.97l.853-.95 2.446-.85m-15.06 9.25l-.89 1.64.88.4 5.6-.66 1.08-1.39"/>
      <path d="M203.08 204.56v-1.402l7.398-.26v1.662m0-1.66l1.473-1.595m-1.24 1.345l4.75.25 1.94-.617v-1.126l.44.302 3.13 1.19.55 1.7m-.54-1.7l5.81-2.11m-3.4 1.23l3.7.33.37 1.76m-.14-.72l3.66.15v-1.53l-2.84-.47-.06-.77m3.39 1.74l5.51-.18.14 1.2-3.65-1.39v-1.39m3.65 2.11l4.28-2.11 3.34.44v2.21"/>
      <path d="M239.41 201.305l-3.266.617-.424-1.383m8.71.41l2.238.13v1.57m0-1.57l2.177.84m-1.815-10.76l-5.2.66m.725-1.58l4.113-1.8m0-2.26l-1.633 1.09-1.39-.94-1.393.94m.303-2.51c.12.15 2.132-.61 2.132-.61l2.344.31m-.36-2.58h-2.24l-.96 1.03-1.21.3m0-2.3h1.94l2.48-1.64m-.24-1.9l-2.72.46-1.45 1.43"/>
      <path d="M243.704 177.876l-.847-1.046.847-2.71 2.722-.54m.242-2.497l-4.416 1.41m1.136 2.64l-1.56.124m.242-5.29l1.836.533 2.77-1.734m-.008-5.286h-2.762l-1.835 2.323m2.27-2.323l-.95-2.134 3.29-1.512m-3.28 1.512l-.95.31m-.36-2.126l4.61-1.27m0-1.208l-1.71-.484-.17-2.77.48-1.162m-.34 3.454l-2.86 1.808m2.79-3.145l-2.6.428m-.18 13.59l4.6-1.97m-7.26-.98l-2.48.99h-2.17m2.33 0l-.15 1.51h2.48m.28 1.34l-2.61.87-2.33-.86m2.47 1.15l.62 1.71-3.08 1.09m0 1.11l2.18-.56 2.48.29m0 2.78l-1.84.01-.34-.77-2.47.05m.18 1.88h4.76m-.28 1.78H237l-1.994 1.3m-.18 2.76l2.33.31 2.61-1.55"/>
      <path d="M236.295 180.54v2.398l3.115-.363m0 2.54l-3.115 1.09-1.542-.545m-.303 2.803l1.573.096 3.93-1.27m-3.326 5.61l-.907-2.04 1.21-.61 2.48-.9m-3.115 1.21l-1.36-.68m1.36 1.93l3.115-.7m-7.016.4l-4.415 1.37.36.61m2.6-1.68c0-.43.48-2.18.48-2.18l-4.43.02m.44-1.96l4.96-.97m-.43-1.09l-1.03-.25v-1.7l1.45-1.54m-5.11 2.62h3.65m1.03-3.06l-2.27.17-2.42 1.03m.14-2.4l2.75-.42.45 1.3m1.33-3.55l-2.93.47-1.92.73m.31-1.88l1.77-1.17h2.76m0-3.28c-.12-.09-2.94 1.12-2.94 1.12l-1.75-.57m1.75.56l.66 1.91m2.69-7.48l-3.19.73-1.92 1.75m-2.64-.28l-1.94.58-1.76-1.01m-.73 2.67l1.63-.01 2.78-.95m.24 1.24l-2.55 1.6-2.3.06m.19 3.65l2.11-.93.79 1.35 1.31-.89m-2.11-.7l2.11-1.53m-2.11 1.15l-.53-2.18m2.64 5.49l-1.98.82-.39 2h-1.6m4.17.78l-2.18.77h-1.99m0 1.72l1.33.54 2.64-1.09m.2 3.44l-2.84-.64.27-1.82m2.37 3.93l-1.22-.32-1.16.88-2.04.4m.44.98c.3.1 2.33 0 2.33 0l1.64-.69"/>
    </g>
    <path stroke-width=".484" d="M295.02 216.055l2.405 158.407m-3.747-246.692l1.143 75.264m1.47 12.91l2.57 158.55m-4-246.724l1.22 75.015m1.3 12.98l2.42 158.73m-3.75-246.105l1.13 74.173m1.49 13.417l2.64 158.757m-4.08-245.547l1.22 73.122m1.59 13.706l2.85 158.475m-4.4-244.793l1.3 72.344m1.66 13.522l3.09 159.17m-4.74-244.38l1.39 71.41m1.75 13.526l3.06 159.17m-4.68-243.195l1.35 70.2m1.67 13.806l3.32 159.846m-5.04-243.21l1.44 69.28m1.54 13.78l3.17 160.14m-4.79-241.89l1.34 67.7m2.63 57.02L310.27 375m-3.21-160.313l.638 31.77m-2.27-113.15l1.352 67.465m2.68 57.616l2.32 117.02m-3.19-160.937l.63 31.7M307 134.14l1.31 66.184m2.57 58.48l2.282 116.42m-3.166-161.085l.627 31.89m-2.18-111.14l1.28 65.28M313 295.04l1.53 80.35m-2.22-116.16l.36 18.737m-1.226-64.253l.61 31.94m-2.097-109.946l1.22 64.046m3.19 95.537l1.495 80.43m-2.164-116.61l.354 19.06m-1.197-64.5l.6 32.42m-2.034-109.6l1.17 62.99m3.48 108.48l1.33 67.45m-1.57-79.96l.11 5.46m-.83-42.42l.4 20.05m-1.3-65.32l.67 33.72m-2.16-109.78l1.22 62.07M317.56 308l1.53 67.42m-1.812-79.825l.13 5.674m-1.05-46.34l.54 23.94m-1.49-65.68l.785 34.52m-2.5-110.04l1.39 61.3m3.1 96.89l2.094 79.53m-2.69-124.27l.61 28.02m-.66-30.65l.056 2.63m-.826-38.17l.77 35.54m-2.385-110.07l1.31 60.27m1.464 13.99l.76 32.49m-2.5-106.22l1.403 59.65m1.45 13.69l.77 32.88m-2.48-105.61l1.37 58.66m1.47 14.19l.71 33.28m-2.24-105.44l1.22 57.74m1.39 13.89l.69 33.65m-2.16-104.67l1.17 56.91m1.56 13.87l.77 34.05m-2.36-104.06l1.27 55.89m1.44 14.07l.69 34.68m-2.06-104.1l1.1 55.13m1.48 14.15l.7 35.37m-2.08-104.11l1.08 54.35m1.42 14.17l.71 35.87m-2.06-103.39l1.06 53.12m1.56 13.95l.59 36.76m-1.66-103.32l.84 52.33m1.56 13.97l.56 37.48m-1.53-103l.77 51.31m1.41 14.02l.77 38.4m-2.08-103.28l1.02 50.62m1.73 13.98l.9 39.54m-2.35-103.46l1.13 49.66m1.5 14.042l.93 40.08m-2.37-103.168l1.13 48.81m1.55 14.05l.99 40.58m-2.48-102.56l1.16 47.683m1.66 14.054l1.03 41.59m-2.55-102.844l1.17 46.94m1.85 14.04l.97 42.003m-2.34-102.38l1.05 46.03m1.66 14.1l1.02 43.092m-2.42-102.35l1.07 44.89m1.74 14.107l.98 43.49m-2.3-101.7l.99 43.824m1.74 14.125l.93 44.2m-2.18-101.33l.89 42.732m1.514 14.337l.995 45.353m-2.233-101.8l.92 41.872m1.423 14.226l1.077 46.15m-2.37-101.737l.95 41.143m1.68 14.197l1.13 46.927m-2.44-101.417l.96 40.027m1.63 14.226l1.79 64.742m-3.27-118.364l1.08 39.147m1.84 14.21l5.07 168.86m-6.66-221.67l1.15 38.32m1.79 14.4l4.83 168.95m-6.318-220.9l1.07 37.278m1.67 14.283l5.01 169.577m-6.51-220.485l1.074 36.377m1.455 14.344l5.18 169.532M349.04 156.3l1.09 35.65m1.76 14.302l5.37 170.018m-6.9-219.035l1.09 34.455m1.67 14.34l5.33 170.167m-6.84-218.777l1.07 34.03m2.76 48.815l2.42 79.622M354.4 205.8l.72 23.593m-2.16-71.065l1 32.868m2.79 48.89l2.36 79.59m-3.39-114.11l.7 23.52m-2.04-68.6l.91 30.46m3.1 48.88l2.47 80.22m-3.54-114.76l.73 23.56m-2.08-67.31l.9 29.11m4.67 105.3l.8 25.4m-2.56-81.65l.81 25.86m-1.9-60.51l.75 23.66m-2.07-66.05l.87 27.73m5.9 141.37l1.36 39.95m-2.55-75.3l.99 29.1M361 239.7l.885 26.15m-2.07-60.99l.8 23.61m-2.21-65.19l.91 26.91m5.13 106.62l1.025 28.38m-3.1-85.74l.98 27.23m-2.24-62.04l.86 23.76m-2.33-64.49l.94 26.04m5.883 107.28l1.14 27.573m-3.554-85.53l1.17 27.99m-2.61-62.894l.99 23.81m-2.65-63.71l1.05 25.19m7.59 141.58l1.74 40.28m-3.18-73.75l1.17 27.07m-2.64-61.11l.18 4.33m-1.24-28.88l.85 19.69m-2.37-54.8l1.02 23.68m-2.69-62.38l1.03 23.97m6.1 108.7l1.19 26.16m-2.73-59.9l.18 3.99m-1.33-29.25l.88 19.48m-2.49-54.71l1.09 23.86m-2.79-61.36l1.04 22.76m6.72 109.39l1.24 25.69m-2.91-60.38l.25 5.17m-1.45-30.22l.98 20.17m-2.67-55.38l1.15 23.85M365 166.85l1.06 21.926m7.03 110.24l1.27 25.134m-3.08-61.08l.33 6.57m-1.57-31l1.05 20.82m-2.84-56.21l1.21 23.91m-3.004-59.42l1.05 20.75m8.67 141.35l2.14 41.393m-3.72-71.91l1.283 24.843m-4.44-85.76l1.66 31.96m-3.5-67.36l1.24 23.936m-3.02-58.37l1.02 19.79m7.29 111.38l1.3 24.38m-4.57-85.86l1.74 32.64m-3.63-68.15l1.27 23.92m-3.01-56.55l.95 17.846m7.59 112.35l1.27 23.552m-4.66-85.76l1.81 33.47m-3.75-69.09l1.3 24.005m-3.05-56.14l.95 17.51m7.44 112.564l1.23 22.81m-4.61-85.26l1.85 34.16m-3.77-69.88l1.3 24.06m-2.95-54.68l.85 15.77m9.4 141.59l2.3 41.91m-7.3-133.1l4.69 85.57m-6.67-121.42l1.32 24.06m-2.93-53.39l.79 14.46m4.35 50.54l4.51 85.33m-6.41-121.31l1.27 24.11m-2.78-52.47l.71 13.46m4.11 50.72l4.59 85.76m-6.53-121.85l1.29 24.08m-2.74-51.1l.65 12.11m4.23 50.9l4.9 85.58m-6.98-121.82l1.38 24.03m-2.88-50.22l.65 11.26m15.27 49.17l2.15 42.11m-3.92-72.78l1.07 18.56m-2.36-40.71l.29 5.01m3.95 47.48l2.18 42.76m-3.89-72.14l1 17.38m-2.36-39.52l.34 4.62m3.77 46.866l2.39 43.28m-4.1-72.32l.99 16.9m-2.22-38.17l.22 4.24m3.86 45.78l2.46 44.25m-4.13-72.34l.91 15.3m-2.03-36.5l.11 4.225m3.93 44.89l2.46 44.98m-4.1-72.18l.83 13.83m-2.09-34.8l.25 4.04m3.987 44.12l2.36 45.36m-4-71.83l.746 12.2m-2.03-33.26l.25 4.19m4.08 42.96l2.44 46.3m-4.118-71.62l.64 10.52m-1.87-31.61l.2 4.3m5.92 73.27l.61 15.4m-2.525-46.6l1.49 24.25m-3-48.7l.54 8.82m-1.84-29.85l.27 4.3m5.75 72.21l2.366 43.33m-4.31-74.585l1.51 24.114m-2.97-47.61l.46 7.25m-1.73-27.99l.24 4.07m5.84 71.25l2.25 43.82m-4.185-75.25l1.49 24.26m-2.87-46.58l.32 5.29M402.86 190l.285 4.64m5.914 70.163l2.39 44.387m-4.35-75.696l1.51 24.16m-2.85-45.54l.21 3.34m-1.41-24.28l.29 4.61m5.65 68.85l2.48 44.555m-4.48-76.06l1.53 24.13m-2.81-44.33l.11 1.76m-1.43-22.55l.27 4.32m5.69 68.14l2.52 45.43m-4.48-77.12l1.5 24.25m-4.02-64.04l.3 4.07m5.49 67.1l2.74 46.13m-4.75-77.56l1.54 24.07m-4.05-63.06l.27 4.24m5.7 66.13l2.71 46.18m-4.72-77.75l1.53 24.01m-4.01-62.08v4.23m5.66 65.14l2.99 47.19m-5.12-78.82l1.63 24.14m-2.47-36.58l.08 1.13m-1.6-25.43l.35 4.08m5.55 64.3l2.96 47.4m-5.1-79.21l1.62 24.11m-2.49-37.32l.13 1.92m-1.64-24.55l.27 4.04m5.79 63.29l2.81 48.16m-4.88-79.88l1.58 24.18m-2.49-38.08l.17 2.64m-1.67-23.11l.42 3.995m5.27 62.08l2.86 48.582m-4.94-80.33l1.57 23.912M417 218.37l.15 2.33m-1.57-22.43l.37 4.09m5.05 61.07l3 48.96m-5.12-80.74l1.6 24.03M418 219.11l.09 1.31m-1.41-21.2l.226 3.384m5.21 60.824l3.202 49.345m-5.334-81.097l1.606 23.91m-3.71-55.193l.223 3.294m5.36 59.43l3.33 49.653m-5.534-81.353l1.66 23.924m-3.79-54.43l.26 3.74m5.37 58.45l3.47 50.18m-5.73-82.17l1.69 24.07m-3.78-53.61l.28 3.97m5.47 57.27l3.68 50.87M424 231.09l1.61 23.71m-3.45-52.29l.15 3.76m5.047 56.41l3.87 51.69m-6.06-83.49l1.64 23.808m-3.59-51.505l.31 3.824m5.11 55.674l3.976 51.92m-6.21-83.9l1.654 23.7m-3.48-49.93l.23 3.32m5.228 54.59l3.83 52.55m-6.025-84.44l1.63 23.68M426.08 205l.256 3.7m5.275 53.66l3.75 53.143m-5.99-85.22l1.66 23.606m-3.34-47.77l.25 3.54m5.08 52.36l3.67 53.78m-5.91-85.68l1.66 23.53m-3.34-46.77l.31 3.64m5.01 51.32l3.63 54.32m-5.84-86.44l1.64 23.69m-3.21-45.48l.31 3.52m4.65 50.43l3.36 54.6m-5.57-86.75l1.61 23.49M42.78 188.7L27.37 382.13m16.38-194.45l-4.492 63.04m5.52-64.87L40.46 249.7m5.17-64.447l-.41 17.05m1.485-18.374l.247 17.03m.857-18.06l.13 17.25m.82-18.68l.5 17.72m.35-18.91l.89 16.94m1.02-1.82l-1.02-15.74m1.19-1.51l.88 15.53m.31-16.98l1.09 15.31m0-17.04l1.05 15.51m1.2-18.37l1.12 14.29m.15-16.12l.88 14.5m.41-15.77l.79 12.45M39.26 254.2l-1.07 12.203 6.206-1.36m-6.206 1.36l-9.326 115.91M39.674 266.4L30.12 382.118m11.17-116.4l-9.9 116.596m11.032-116.59L32.39 382.12m11.296-116.923l-9.846 116.11M45.083 264.66L34.9 381.157m11.314-118.25l-10.006 118.07m11.334-119.375l-10.135 119.27m11.467-120.578l-10.11 120.25m11.292-121.41L39.99 380.544m11.072-122.397l-9.783 122.09M55.27 173.7l.966 14.477m193.973-79.28v36.15m1.53-35.46v35.83m1.53-35.594v35.028m1.22-29.26v29.43m1.15-28.82v28.65m1.15-28.1v28.11m1.08-27.74v27.74m1.24-27.04v26.82m1.2-26.14v26.37-7.28m1.29-18.35v25.42m1.37-24.55v24.76m1.18-23.9v23.78m1.38-23.07v23-10.17m1.38-11.71v18.87m1.33-18.67v18.2m1.27-17.47v16.87m1.1-16.05v15.75m1.19-15.3v15.17m1.19-14.3v13.72m1.18-12.93v12.81m1.23-12.08v11.43m1.43-11v10.99m1.13-9.98v10.63m1.31-10.28v72.73m1.26-72.02v72.81m1.17-71.87v71.87m1.3-71.46v71.45m1.14-70.8v71.05m.8-70.99l3.44 242.52M251.72 152.3v40.14m-1.53-40.145v40.44m3.057-40.95v40.655m4.606-41.277v41.274m1.25-41.27v41.17m6.436-40.76v40.28m-5.23-40.94v41.54m-10.95 7v3.79m1.11-3.78v3.49m1.25-3.58v3.88m1.52-3.79v3.79m1.84-3.875v3.837m1.68-3.84v3.58m1.51-3.58v3.84m1.4-4.16v3.65m1.03-3.33v3.33m1.49-4v4.85m1.39-4.51v4.2m1.48-4.2v3.65m-13.37 20.01v152.5m1.85-152.4v153.11m2.05-152.79V375.2m2.14-152.71v153.19m1.87-152.885V375.73m1.69-153.19v152.52m1.62-152.567v152.57m1.39-152.887v152.887m1.51-152.887v153.17m1.27-153.17v152.887m1.57-152.887v152.887m1.5-153.117v153.117m1.6-152.887v152.887m1.48-153.527v153.65m1.51-153.904v153.772m1.44-153.964v154.095m1.4-154.094v153.88m1.51-153.87v153.82m1.5-153.82l.34 153.88m1.15-154.66l.51 154.38m1.3-154.29l.72 154.44m.51-154.38l1.47 154.38"/>
    <path stroke-width=".968" d="M47.78 6.016l213.233 89.06 136.822 48.598 143.827 109.24v3.064l-145.58-108.145-136.165-49.255L46.463 8.975m215.167 86.32l-1.713 3.283m137.208 44.844l-1.042 4.41"/>
    <path stroke-width=".968" d="M394.332 147.833l-5.91 12.48 146.89 101.14 3.714-7.434M388.42 160.31l-133.1-49.692 5.453-11.733m-5.453 11.733L48.662 23.054l-2.125-9.163.266.94m488.51 246.63l-18.828-8.53m0-4.42v8.7l-155.43-98.62-.935-8.81"/>
    <path stroke-width=".968" d="M353.062 147.112l1.426 13.2 6.567-1.75m-6.567 1.75l25.614 15.544 4.7-2.227 3.62 2.22 1.078 5.72 43.14 27.34 5.664-1.34m3.164 6.59l41.304 25.17 3.14-1.56v6.64m3.742-4.27v3.34l14.573 9.41 2.553-1.89m2.978 1.89v3.06l3.663 2.84 3.94-1.64m-137.25-81.33l12.04 204.68m-7.34-206.91l13.47 206.91m-8.77-198.96l12.06 198.97M389.8 186.4l119.964 72.42M390.51 198.21l120.44 69.598m0 0l-4.17 1.315 11.454 120.84h5.036L509.758 255.98m-5.53-3.063v2.57m-3.288 135.377l-12.916-135.377-4.378 1.697 13.176 133.63zM490.294 255.87l13.055 135.44m-12.62-130.953l16.05 8.765m-23.14-11.94l-42.18-26.15m-.73-3.795l11.45 154.685m-1.65-.166L438.3 225.83l-3.962 2.03 6.4 88.344m-49.905-112.56l43.505 24.214M397 305.352l48.428 12.713m.215 4.455l-47.37-10.78m50.77 56.746l-48.47-4.13m.412 6.78l48.79 3.29m-9.035-.61l-39.184 2.58m43.132-2.314l.31 7.677m-55.498 2.32v-3.12h11.485v2.79z"/>
    <path stroke-width=".968" d="M401.258 380.966l56.854 1.556v2.075l-56.854-.517-2.204.517.908 12.188h-2.724l-.517-12.705"/>
    <path stroke-width=".968" d="M400.545 396.785l4.344-.713-5.44-11.57m5.89 11.634l51.67-1.36-1.11-9.726"/>
    <path stroke-width=".968" d="M456.23 394.796l3.115 14.565h-4.473l-2.682-14"/>
    <path stroke-width=".968" d="M454.872 409.36l-12.9-.712 1.1-13.16m-12.512.648l.91 11.67m-3.05-12.318l1.04 12.317m-5.836-11.67l.52 12.254m-12.254 0h17.57v2.46l-17.57.52z"/>
    <path stroke-width=".968" d="M429.46 408.39l6.61-.585v1.556l-6.61 1.5m-24.118-14.33l3.245 14.85-6.742 1.3-1.557-15.88m-3.568-10.57l-7.517.59.297 9.99h7.738m-3.758-12.28v1.97m-4.277 10.32l-.247 2.93-.855 10.17h2.66v2.27l10.8.52m-12.55-13.58l-7.32 11.37m-11.54.39l-.39-6.87h2.08l.84 6.48"/>
    <path stroke-width=".968" d="M367.356 410.852l12.448.52 7.78-1.492m-8.24 1.473l.33 3.064 10.735-2.573m-10.74 2.573l-12.84-.843.26-2.722m4.73-6.872l19.7-29.172m-.39 0l-2.14.295-19.25 28.556m18.34-27.62l-26.13.97-.39-4.87 29.95-1.49m-29.43 6.8v4.66m2.14 0v-4.67m-4.28 5.05l-2.53-62.17 2.53-.39.18 5.78 1.44 46.08m-1.17-46.09l28.07-3.02m-28.07 7.1l28.07-2.79m-28.07-7.07l1.62 1.04.13 4.02m3.03 4.32l1.69 42.54m0-42.54l1.56 42.46m2.41-43.02l2.58 42.78m0-42.78l2.14 42.35m2.33-42.71l2.2 42.7m0-42.7l1.88 42.71m2.53-43.32l2.59 42.59m2.01.37c.07 0-2.68-43.54-2.68-43.54m-19.23 2.11l.97 1.06 1.82 41.33"/>
    <path stroke-width=".968" d="M374.036 328.785l.488 1.038 2.75 41.548m3.178-43.23l1.232 1.69 1.623 40.96m3.825-42.96l1.1 1.54 2.14 41.43m-29.432-40.96l3.566 1.95h.795m3.33-.45l2.26-.52m4.33-.97l2.73-.48m3.76-.3l2.86-.61m-21.42 2.89l1.07 40.71m37.47-59.51l2.53 51.84m-.86-51.52l2.29 51.88m.58-51.16l2.47 51.48m-1.23-50.9l2.34 51m2.41 0l-2.4-49.6-1.93 1.7m3.7-2.44l2.46 50.35m.8-49.6l2.83 50.27m-1.14-49.88l2.76 49.88m.27-49.18l2.37 49.55m-1.18-49.27s2.49 49.17 2.81 48.91m.3-48.2l2.49 48.81m-1.24-47.94l3.12 47.94m-.6-47.94l2.87 48.42m-1.14-48.02l2.77 48.16m.59-47.07l2.6 47.07m-1.21-47.07l2.83 47.07m0-46.42l3.05 46.42m-1.52-45.78l3.39 46.6m-.12-46.15l2.65 46.36M442.86 322l3.197 46.09M401.4 312.9l-2.27 2.207 2.852 48.815m3.826-50.36l-2.223 2.115m10.778.248l-2.203 2.95m7.066-1.643l-2.537 2.738m6.81-1.846l-2.65 1.98m6.71-1.228l-2.37 1.94m7.12-.59l-2.6 1.495m7.13-.75l-2.66 1.76m7.57-.73l-3.22 1.69m7.09-.4l-2.11.96m-45.94-9.12h1.53m-18.41-129.36l-88.37 17.7v12.2l88.82-17.56m-88.82 17.56h8.18l81.06-14.95"/>
    <ellipse cx="383.632" cy="187.94" stroke-width=".968" rx=".838" ry="1.018"/>
    <ellipse cx="388.42" cy="187.94" stroke-width=".968" rx=".838" ry="1.018"/>
    <ellipse cx="404.954" cy="198.21" stroke-width=".968" rx=".838" ry="1.019"/>
    <ellipse cx="426.635" cy="210.963" stroke-width=".968" rx=".838" ry="1.019"/>
    <ellipse cx="346.978" cy="195.008" stroke-width=".968" rx=".838" ry="1.018"/>
    <ellipse cx="439.141" cy="219.029" stroke-width=".968" rx=".838" ry="1.019"/>
    <ellipse cx="450.545" cy="225.829" stroke-width=".968" rx=".838" ry="1.018"/>
    <ellipse cx="480.164" cy="243.089" stroke-width=".968" rx=".838" ry="1.019"/>
    <ellipse cx="488.816" cy="248.193" stroke-width=".968" rx=".838" ry="1.017"/>
    <path stroke-width=".968" d="M437.954 207.81l.356 7.853m-5.67-6.75l.288 3.533m7.812-2.946v7.662m42.032 24.91v-2.73m6.882.818v6.53M48.664 23.054L5.894 214.44l2.075.83L50.24 23.724M4.522 210.606l-3.2-1.986 42.43-198.465M1.325 208.62l-.83-4.362L41.755 9.745"/>
    <path stroke-width=".968" d="M259.917 100.73l-115.3-47.65L46.48 13.394 3.82 208.624l2.077 5.815m138.72-161.36l-4.36 7.67"/>
    <path stroke-width=".968" d="M138.75 61.226l1.507 13.864 6.23-1.453-.483-9.337m-6.788 1.215L85.848 86.72l7.06 1.66 46.308-18.482m-4.76-10.49L32.72 103.13m25.507 274.945L79.825 88.38l4.984-2.284-20.57 291.98M79.76 89.24l-47.04 20.095h6.61L79.406 93.99m-47.808 14.228l1.916 10.943-1.916 1.21-1.607-4.86m3.53 2.79l42.8 17.27m-44.71-15.2l44.71 17.45m15.77-49.43L86 153.36m1.456-15.538l10.248 4.57-3.32 2.49-6.92-2.49m10.25 0l1.247-13.29-9.97-5.193m-12.65-4.74L43 107.95M146.49 72.6l61.26 33.713-4.775 1.905-22.104-11.12"/>
    <path stroke-width=".968" d="M140.257 75.922l33.64 16.82 4.943-2.13-3.28 115.517m5.268-114.64l-1.982 57.52m-4.948-56.28l-4.36 113.38m38.21-99.82V90.46M92.075 88.186l57.733 28.233-3.325 1.87-54.41-26.79"/>
    <path stroke-width=".968" d="M149.81 115.587v-6.252L98.93 85.977m32.937-13.145l19.195 12.23-3.123 1.034-20.69-11.423m23.81 9.557v-2.905m-36.2-13.5l-64.62-31.98 3.7-2.077 66.29 31.747m-69.99-29.67l-1.1-7.14m4.8 5.063v-8.473m31.9 54.798l1.59-25.843m-5.12 27.02l3.53-27.81m8.09 23.16l1.91-18.21m44.7 23.947L125.5 97.664m-6.843 6.92l-20.974 23.85m-41.443 1.543L16.48 176.71m42.603-45.622l-43.587 50.087m48.837-48.04l-9.31 97.78m14.16-95.887l-2.98 37.404m-6.563 9.983l14.822-22.103M59.42 187.126l14.677-21.915m-58.15 15.97l25.628 8.16m-.695 7.26l-26.532-7.9m-.643 1.74l27.175 8.1M25.8 382.55l15.775-193.22m-7.872 193.22h-8.307v2.984h7.944"/>
    <path stroke-width=".968" d="M59.105 378.077l-25.402 3.665v2.136l25.08-2.9H74.67v-2.3zm0 0v2.455m-24.918 3.508l-.847 9.395 23.588-1.29"/>
    <path stroke-width=".968" d="M57.734 381.5l-.806 14.838h6.37l1.05-14.838m-24.194 11.935v1.855h3.065m0-1.855v2.903h1.53v-3.497m.38 3.5l4.45.73v-2.47l-4.84-1.15m-1.53 2.91l-1.94 1.29-2.83 13.95 1.21.97h12.1l-.65-15.08-9.44.41m8.47-2.62h6.45m0 1.09L52.79 415l8.79.484 1.94-19.11M52.16 411.6h1.21"/>
    <path stroke-width=".968" d="M63.944 396.338l6.45.726 1.775 17.34-10.57 1.046m8.3-19.11v-1.05l-6.34-2.9m184.96-12.42v11.284l-15.49-.64-169.44 1.28m169.92-1.684v-10.724M70.23 395.25l93.87-.887m-91.61 16.814l87.256 1.37m2.662-15.967h9.112l.968 18.387h-13.145z"/>
    <path stroke-width=".968" d="M171.925 396.58h2.26l1.45 17.258-3.145 1.13m-2.097-18.872v-3.305h-6.29v3.79m8.387 0v-2.66l-2.097-1.13m2.66 1.58l62.258-.68v-2.97m-207.37-4.78l-1.34 24.15h12.17m6.35-29.98l9.8-132.17-1.54 1.34-10.15 130.71"/>
    <path stroke-width=".968" d="M70.15 218.152l-29.83 35.9-.782 11.04h4.754l8.493-8.34m6.837-8.162l8.93-9.018"/>
    <path stroke-width=".968" d="M69.11 232.087l-13.735 15.166 4.247 1.338-9.026 130.72m2.7-129.15L40.32 264.43m79.445-53.045l-42.522 1.65-.453 14.7 92.225-3.82 112.88-4.67-.552-14.125zm45.023 166.14l4.227-153.605m5.59-.23l-3.44 153.835"/>
    <path stroke-width=".968" d="M280.88 219.278l-8.464 2.542-95.916 3.792-1.895-1.7m1.895 1.7l-3.997 151.386m-3.923-151.386l-86.994 3.68-4.796-1.562m4.127 1.562l-10.15 148.785"/>
    <path stroke-width=".968" d="M281.336 202.857h3.012l.557 17.065-11.058 1.47m10.52-17.927l-2.473 1.624m7.78-81.65l4.154 250.39m-44.278 3.63v-1.63l44.278-1.45 27.993 1.45V377"/>
    <path stroke-width=".968" d="M248.536 377.515l45.96-1.586v2.14l-45.96 1.89z"/>
    <path stroke-width=".968" d="M293.828 374.393l.67 1.536 28.328 1.08v1.61l-28.33-.56m1.2.55l-22.5 26.15v6.59"/>
    <path stroke-width=".968" d="M298.738 378.156l-23.2 26.622v6.594m-2.342-6.594h2.342"/>
    <path stroke-width=".968" d="M267.508 411.353l15.056.02v3.503h-15.056zm15.056.02l10.26-.52v2.797l-10.26 1.226m10.26-12.05l-7.137 8.387m8.14-8.505v9.926l-.556.23"/>
    <path stroke-width=".968" d="M287.694 400.266l.34 2.56 83.18-1.33m-76.717 9.717l75.25-2.806m-84.84-11.607v3.466l84.848-1.73-.007-2.955zm85.108 1.793l2.818.5m-2.818-3.513l4.02.78m-76.75-9.7v9.865"/>
    <path stroke-width=".939" d="M298.738 378.63v5.128"/>
    <path stroke-width=".968" d="M319.257 378.63v4.907m0-1.403l3.57-.78h25.763v.78l-28.664 1.403m2.9-2.57v-2.337m1.338 2.336l-3.122-135.505h-2.23l3.01 131.05m-.334-131.05l25.206 9.48 4.016 127.59"/>
    <path stroke-width=".968" d="M349.37 382.522l-4.348-125.91-23.534-9.146M360.12 265.2l17.58 6.915 1.562 28.33-17.963-4.797z"/>
    <path stroke-width=".968" d="M369.125 268.742l.566 26.572 9.45 2.888"/>
    <path stroke-width=".968" d="M371.767 271.81l4.595 2.2 1.116 21.527-5.577-1.56zm-2.077 23.504l-3.366-2.565v-20.94l2.8-2.26m-6.95 22.41l4.15.78m-.444-20.94l-5.456-1.26m7.584-.56l-7.82-3.01m8.937-3.13s-2.427 1.64-2.8-2.41c-.446-4.84 2.34-2.63 2.34-2.63s2.893.02 3.102 1.58c.467 3.46-2.642 3.46-2.642 3.46zm-.46-5.04s-2.093.58.46 5.04m26.402 13.22l11.167 4.51 1.118 25.98"/>
    <path stroke-width=".968" d="M397 300.444l3.55 1.226-1.425-20.61-3.598-1.25m6.03 2.62l3.003 1.042 1.043 19.87-3.147-.78zM8.437 215.27l30.686 8.576M9.13 210.016l14.65-16.484M9.13 211.35l1.873.56L25.8 194.65m9.47 2.234L21.732 212.8l2.047.447 13.47-15.784m1.87.547L26.4 213.246l2.628.446 11.73-14.355m-27.3 10.68l9.35 1.522m7.478.61l9.252 2.28m-14.298-2.9l2.28.37m3.232-26.66L62.65 150.8m-29.265 35.86l28.833-31.326m-51.268 46.44l8.737-9.438m7.927-7.545l35.753-41.51m5.297 1.82l6.367-7.79m-7.18 14.35l8.11-11.32M41.58 247.93l3.915-45.61 3.09-2.163m-3.09 4.94l14.105-22.19"/>
    <path stroke-width=".968" d="M45.49 208.62l2.312.498 11.004-17.938m.277-2.916l-12.86 20.356m28.8-57.108l-7.972 9.75m-5.82 4.505l-19.22 23.465m129.72-40.21l-89.2 4.528v4.356l89.04-4.356m5.63-4.528l70.23-3.38 27.24-1.31.49 4.13-98.07 5.002"/>
    <path stroke-width=".968" d="M267.41 144.68v-3.287l9.255-2.678v63.487m.445-63.487l1.452.89v62.597m-1.897-10.712l-100.82 4.536m0 4.69l100.82-4.204m-107.128 0l-90.363 3.637-.447 4.91 90.987-3.53m-81.28-41.85H84.81l-2.288-1.02m3.458 1.01l-3.458 39.72m-3.795 5.65l3.795 1.6 86.493-3.35m-87.052 3.35v3.94"/>
    <path stroke-width=".968" d="M275.123 148.898l-7.712 2.202h-3.02m3.03 0v40.39m8.58 5.05l-7.24 2.073-90.71 3.59-1.67-1.414m1.68 1.41v3.57m89.38-6.41v2.83m21.57-72.6l-29.06-16.61-5.33 2.1 29.77 16.72zm-34.89-14.99v-4.08m32.28 20.31l4.47 243.54m5.36 0l-2.36-158.73m-.54-12.81l-.97-78.42m90.47 100.38l-28.3 4.49v10.84l29.14-3.13m9.13-1.67l41.58-6.05M415.25 218l-11.715 8.836h-5.8l-.784-4.89 11.69-8.403m3.8 2.113l-14.7 11.18m-5.64-3.418l4.31-.74m14.55-1.434l9.36-1.21m15.86 32.87l-31.84 5.404.76 6.88 31.77-3.75m6.41-.195l39.51-4.613m-18.03-11.18l-11.22 5.724.45 4.302h3.24l13.58-6.276m-2.81-1.75l-14.01 8.02m-11.37-3.19l10.93-.83m-8.94 24.15l39.96-4.444m7.75-1.18l12.78-1.503m-21.43-5.703l-39.93 4.59M350.69 379.1h8.83m-8.805-3.19l8.805.467m4.74 3.405l21.87-.41m108.37 27.83l.2-15.91h7.438l2.33 15.902zm9.97 0l3.37-.695-3.227-14.855-2.47-.357m13.974-.45h6.99l2.33 16.35h-10.01zm7.17-.45l1.9.445 2.728 15.71-2.477.644M249.55 222.722V376.51l-2.146.504V222.987m-8.24 28.653v56.774l-34.615 3.323.73-54.554zm-34.226 58.772l33.792-3.264"/>
    <path stroke-width=".968" d="M204.938 308.577l17.746-2.176.445-52.13m-2.01.67l-.67 51.74m-13.75 1.36l.5-51.16m.51 2.35l13.06-2.04m-13.83 48.96l13.49-1.83m2.67 1.84l15.6-2.1m-15.23-48.07l15.23-2.65m0 1.64l-14.96 2.79m-.64 45.69l15.6-2.18m-62.64-39.38l25.02-3.66-2.26 116.2-26.16 1.54m-7.92-.48l-25.61 1.06 4.52-109.12 24.22-3.86m-28.63 110.86l25.52-.56m-25.45-1.14l25.6-.96m7.76 2.66l26.18-1.7m-26.18-.96l26.24-1.77m-1.7.12l1.65-111.56m-.32 3.27l-23.12 3.3"/>
    <path stroke-width=".968" d="M146.11 267.006l-3.54 102.962h22.426m-18.994-99.845l21.827-3.117m4.91 101.01l24.5-1.596m-57.9-97.854l-3.87 107.944-50.67 2.17 4.86-102.58zM84.91 376.51l50.61-1.373"/>
    <path stroke-width=".968" d="M85.012 374.393l25.206-.278 5.227-101.924m-2.753.42l-5.12 101.23M92.19 275.72l-4.78 98.674m.107-2.178l20.055-.482m-15.382-92.89l19.886-3.126m3.37 0l23.896-4.294m-29.095 102.12l25.364-.846m-25.18-2.615l25.1-.114m-57.31-92.69l7.74-.86-2.42 48.63-8.87 1.04m-9.09-46.59l-3.41 1.29-3.06 46.42h2.71m21.81-3.94l-8.96.33m8.96-2.85l-8.96.1m-12.62 4.17h-2.8m3.09-1.84h-2.49m18.37-43.71l7.74-.67m-.21 1.96l-8.45 1.65m2.36-34.53l7.77 1.34 3.08-1.9-10.17-3.29"/>
    <path stroke-width=".968" d="M90.483 247.37v-4.622l-10.168-4.62m.412-6.04l35.715 11.994 3.87-2.46-35.503-12.466"/>
    <path stroke-width=".968" d="M120.313 241.623v-5.005l-23.542-7.97m15.93.002l28.43 10.922 3.71-2.954-22.14-9.165m22.15 9.165l-.64-4.53-11.12-4.973m12.95 0l20.9 6.397 1.89-1.425m-13.15-5.927l13.15 4.152m-23.96 1.554l10.05-2.035m-34.56 6.79l9.26-1.48m-25.24 4.88l-13.85 2.74m-22.83 8.89l-7.8 2.99M97.7 152.8v-3.756l47.15-15.176v16.54"/>
    <path stroke-width=".968" d="M100.637 152.516v-.855l19.03-5.66.067 5.66m2.95-.14v-10.18m0 3.53l22.145-7.55m4.19 12.61l.78-18.1 22.82-6.18"/>
    <path stroke-width=".968" d="M151.14 150.067l.947-15.04 20.438-6.59m-19.31 21l1.29-14.753m-.203 2.626l17.927-5.216m7.6-9.15l23.54-7.357v32.175m-1.94-31.252v31.252m-2.62-30.8v30.8m-18.99-22.132l18.99-5.37m8.92 27.29l.95-21.92 31.28-10.043v29.516"/>
    <path stroke-width=".968" d="M209.505 126.92l1.774.798 28.7-8.557m-28.71 8.56v19.67m37.41-39.16v37.37m58.87 112.14v-11.3l5.16-.96-2.59 11.73zm5.16-12.26l5.32 3.18-2.66 9.68-4.6-1.14m-3.23.54l5.16 1.5 2.66-.89m-2.66 19.39l5.32 1.29v16.54l-5.32-.51zm2.66 22.73l3.42 1.12v6.48l-3.42-.45zM175.63 413.12l91.87-.566M84.81 378.68h-8.186v2.298l15.99-.21v-2.416m1.496.328v2.413l17.966-.26v-2.34zm19.23-.328v2.626l17.577-.242v-2.6zm19.005-.215v2.567l17.704-.42-.1-2.635zm19.232-.23l.065 2.504 18.257-.44v-2.32zm37.78-.392l-18.19-.16.096 2.795 18.095-.182zm1.82 0v2.312l18.062-.23v-2.24zm19.62-.32v2.403l17.77-.29v-2.294zm18.355 1.95h3.25l4.287.162-.04-1.84-4.62-.453h-3.12m3.21.342v1.788m5.85-1.396h4.38v1.737h-4.39zm10.54 0h-4.61l.06 1.737 4.32.113m-39.08-2.242l1.56.392m-1.56 1.85h1.43m-21.15-2.083l1.4.437m-1.27 1.646h1.27m-20.83-1.866l.68-.083m-.69 1.94l1.07-.1m-20.86-1.37h.81m-.81 1.83l1.07-.18m-20.47-1.3h1.26m-1.27 1.91h1.43M112 378.82l1.04-.17m-1.04 1.73h1.04m-20.34.13c0-.1 1.01 0 1.01 0M75.06 379h1.34m.22 1.53l-1.55.095m4.24-167.683v-1.627l5.497-.717 15.71-.61v1.752m-15.468-1.15v2.13m17.06-.66v-2.072l15.6-.875.3 1.902m16.69-.414l-.24-1.97-14.82.49v1.84m16.87-.23v-2.55l15.6-.54.36 2.48m1.99-.08l-.61-2.4 17.06-.96v2.73m1.94-.07v-2.65l16.13-.89v2.58m1.87 0l-.3-2.57 16.21-.66.3 2.44m1.81 0l-.55-2.48 16.99-.76.36 2.43m1.33 0v-2.42l17.11-.84.3 2.46m1.51 0l-.3-2.46 16.75-.61v2.6m1.87 0l-.48-2.6 17.04-.65v2.53m-18.43-1.27l1.39-.31m-19.62.67h1.51m-20.37.48l1.39.42m-19.66 1.04h1.27m-19.35.89l1.39-.54m-19.48.96l1.95.46m-20.66.8h1.65m-19.17.29l1.81.21m-18.81.28l1.94.45m-18.57.47l1.03.56m162.27-19.1l-.42-41.19-2.54.19.48 41.31m-4.9.59l-.3-41.53h-1.99v41.53m-5.26 0v-40.87h-2.12v41.31m-5.2 0V152h-2.14v40.88m-5.25.245v-41.13h-2.05v41.54m-5.45 0l.48-41.24h-2.3l-.49 41.52m-4.78-.29l.36-40.39h-2.12l-.48 41.05m-5.03-.372l.48-40.29H211l-.605 40.29m-4.95.93l.78-41.23h-2.36l-.52 41.225m-5.285 0l.73-40.644h-2l-1.15 41.08m-4.596 0l.53-40.85h-2.04l-1.155 41.17h-4.78l.9-40.81-2.24.06-1.15 40.75m-3.63-41.41l1.31 1.57-.82 39.84m.81-39.655l3.44-.36m2.24 0l5.01-.31m2.38 0l4.59-.24m2.31-.18l5.06-.43m2.37 0l4.77-.24m2.37 0l5.01-.58m2.12 0l4.42-.39m2.78 0l4.53-.48m2.78-.36h4.65m2.66-.31h4.59m2.84 0l4.78-.42m2.66-.67h4.17m-55.16 23.24l4.17-1.08m2.96-.84l4.54-1.12m2.59-1.12l4.21-1.2m2.98-.88l4.54-1.45m2.48-.64l5.25-1.6"/>
    <path stroke-width=".968" d="M207.747 154.29v17.318l3.026-.567m2.623-1.11l4.543-1.2m2.59-.88l4.41-1.44m2.78-.64l4.53-1.6m2.48-.72l4.96-1.84m-38.27-6.88l-1.09 39.98m0 6.63V205m-2.49-3.575v3.695m-32.03-9.084l1.2-40.582-2.08.184-1.54 40.887m-4.87 0l1.52-40.886-2.25.18-1.44 40.73m-4.8.69l1.63-40.93h-2.52L149 196.84m-4.98.39l2.166-40.926h-2.564l-2.16 40.923m-4.407.59l1.94-40.63h-2.48l-1.848 40.63m-4.967 0l2.323-40.63h-2.33l-2.59 40.63m-4.44.19l2.454-40.105h-1.92l-2.726 39.913m-4.64.79L118 158.23h-2.16l-2.484 40.54m-4.968 0l3.043-40.54h-2.48l-2.72 40.38m-4.47.62l2.48-40.57h-2l-2.65 40.566m-4.88 0l2.98-40.06h-2.42l-2.7 40.43m-4.75-.24h-2.33l3.37-39.68h2.08l-2.81 39.55m2.81-39.55l4.33-.51m2.42 0h4.23m2.64-.51h4.29m2.61-.44h4.41m2.17 0h4.81m2.32 0l4.52-.325m2.33 0h4.21m2.81-.71h4.6m2.61-.48h4.17m2.84 0h4.21m3.13-.4l4.09-.5m2.73 0h3.76m-22.43 1.39l-1.76 40.23m-27.19-38.75l-2.02 39.57M99.8 159.69l-2.935 39.55m-2.484 7.425v3.648m1.98-4.18v3.864m19.82-4.22v2.964m2.51-3.47l-.11 4.05m28.36-4.33v2.64m-6.09-3.22v3.62m9.38-3.62v2.91m-80.06 6.86l-1.3.27v1.98h.9m-1.19-1.98l-29.43 37.2v1.76l29.73-36.62m-29.72 36.88l1.2.39m30.41-43.74l-14 16.66.23-3.41 13.8-16.9m-15.93 23.37l-12.8 15.99M55.28 225l-12.864 16.94m5.385-32.825l-1.58 27.813m3.09-30.26L47.8 234.86m2.94-30.522l-1.126 27.758m2.673-29.82l-.727 27.63m2.427-30.86l-.774 28.69m2.56-30.847l-.98 28.12M60 219.56l2.223-35.633 1.15.407m.39-3.156l-1.54 35.967m1.866-2.286l1.19-35.9 1.37.45m.21-3.13l-.66 35.98m1.85-2.27l1.13-36.77h1.58m-.62 33.75l1.5-37.45 2.02 1.47m-6.62 5.49l1.61.73m-4.58 3.95l1.11.3"/>
    <path stroke-width=".939" d="M296.408 384.363h10.19v1.935l-10.31.152zm11.582 2.087v-2.178l6.472-.09.06 2.086zm7.832-2.692h3.435m-3.253.422v1.937l6.44-.212v-2.147m1.332-.22v2.397l6.955-.302v-2.268m1.28 0v2.268l6.93-.318v-2.373m1.3 0v2.45l7.32-.273v-2.68m8.62.08H349v2.68l7.166-.16zm1.48 0h7.32v2.14l-7.32.3zm8.86-.08l6.96-.31v2.15l-6.92.25zm16.42 1.09l-.15-1.87-7.74.46.15 2.29 7.47-.28m.65-2.24h.83m-10.67.6h1.43m-1.15 1.6h1.3m-10.07-1.48h1.55m-1.3 1.9l1.48-.12m-10.52-1.79l1.28.41m-1.27 1.92l1.12-.18m-9.55.09l1 .09m-9.8.24H340m-9.258.18l1.27-.18m-9.557.69l1.33-.15m-8.95.36l1.18-.21m-1.33-1.72h1.15m-9.223.75h1.176m-1.178.97l1.177.1"/>
    <path stroke-width=".968" d="M293.55 126.9l59.512 31.332m-24.868 181.855l1.37 41.267m-3.59-132.144l1.716 66.053m4.888 15.79l1.346 49.913m-3.406-129.99l1.94 73.076m2.29-71.432l3.15 128.575m1.03-126.95l2.714 127.426m.484-126.18l3.088 126.44"/>
    <ellipse cx="325.988" cy="310.361" stroke-width=".968" rx=".844" ry="1.039"/>
    <ellipse cx="326.648" cy="346.987" stroke-width=".968" rx="1.042" ry="1.152"/>
    <path stroke-width=".968" d="M325.605 309.323h-1.44v2.654l1.823-.577m.31 34.433l-1.672-.347.297 3.176 1.375-.523m.35-33.15h-2.484s-.404 1.61-.23 2.96.692 3.25.692 3.25l2.206-.35s-.534-2.29-.534-3.23c0-2.08.35-2.63.35-2.63s2.122.87 2.287 2.36c.36 3.27-2.104 3.5-2.104 3.5"/>
    <path stroke-width=".968" d="M328.485 316.012s.12-1.402 1.33-1.017c1.212.383.583 2.636.916 3.44.34.805 2.26 4.93 2.15 9.994s-3.55 12.87-4.67 10.71c-.67-1.31.19-1.6.83-3 1.71-3.75 2.64-6.8 1.95-10.79-.5-2.92-2.06-6.66-2.06-6.66"/>
    <path stroke-width=".968" d="M328.055 336.773s-.63-1.15-1.223-.92c-.592.23-.658 8.643 1.653 3.658"/>
    <path stroke-width=".968" d="M326.648 335.833s-.937-.77-1.572 0-.45 4.275.068 5.254c.52.98 2.02 0 2.02 0m.792-20.707l.238 16.224M37.504 5.97s1.445-1.164 2.256-1.987C40.572 3.16 41.397.71 41.397.71s2.328 1.31 3.314 1.617c.99.307 3.95.64 3.95.64s-1.34 6.49-3.83 7.146C42 10.86 37.51 5.97 37.51 5.97zM41.33.903l3.497 9.21m3.833-7.146l50.93 24.686m147.373 79.427v38.563"/>
    <g stroke-width=".484">
      <path d="M197.015 375.034l-2.026 1.602v.645m-.22-.76l-1.57-.36v-.95m-2.22.13v1l-1.05.95m-3-.21l-.49-.62 1.27-1.23m-5.08.66l1.6 1.21m-4.03-1.2l-.52.66.15.77m-3.39 0c.06-.19-.58-1.44-.52-1.42m-36.44-105.95h2.22l1.57-1.01m17.76 106.71l-.95 1.53m-4.07 0l-.17-.36.83-1.06m-6.01 1.72c.04-.23.67-1.14.67-1.14m-3.89.01l.78 1.18m-6.52.19l-.55-1.28m-4.39 1.29l1.02-2.23h1.36m-3.36.55l1.5.57m-6.72.24l-.16 1.14m-8.02-.9l.16 1.01m14.94-2.31V373h1.49m-3.39 1.28l1.9.13m.24-1.41v-1.76l-1.93-.24m1.92.39l1.6-.2m-.07-2.24c-.47 0-1.6-.48-1.53-.24.08.23 0 1.57 0 1.57l-1.65-.34m3.09-2.33h-1.87l-.2-.98h-1.02m0-3.03l1.9.16-.48-4.56h-1.26m1.74 3.77h1.35m.21-2.56l-1.87.16m-1.11-2.05l1.18-.316 2-1.255m0 .16l-3.19-.51m0-1.22l1.12-.16-.05-.98.91-.67 1.2.39m0-2.68h-1.49l-.26 1.14h-1.21m0-2.44l1.21-.2.67 1.26m-.59-1.11l.47-3.29h1.64m-1.93 1.06h-1.48m0-1.93l1.47-.39 1.92.2m-3.15-2.68l1.04-.2 1.27 2.67m1.03-4.49l-1.9.12-1.45.66m3.34-1.73h-2.11l-1.23.47m0-1.89l1.22-.87 2.12.86m.47-2.39l-2.37.54v1.07m2.36-3.47l-3.58.27m3.57-1.29l-1.77-1.17h-1.79m1.78-.16v-1.1l1.79-.35m-1.18 0l-.958-2.31.63-.28h1.625m-2.11.21h-1.42m2.23-.41l-.81-2.75-1.03-.32m1.52 1.69l2.1-.43m-.28-2.44l-3.73.15m1.91 0l-.49 1.33m0-1.49l1.09-.98-1.1-1.18h-1.41m1.65-.15l1.28-.35 1.05 1.3m-1.33-1.3v-1.69l-.77-.77-1.52.22m1.52-.22l.32-.73h1.5m-1.21 1.34l1.62-.2m-1.62-1.49l-1.25-1.38-1.06-.15m1.45.35l.57-1.42-.33-1.77H138m1.895 1.59h1.617m-2.13-1.08h2.13m-3.234-1.89h1.93v-1.06h-2.43m4.197-2.858l-.867.1-1.06 1.22.15 1.25 1.315.39m-1.305-2.09H138.2m1.415-.275l.282-1.417 1.614-.27"/>
      <path d="M140.07 306.747l.4-2.53h1.064m-1.182.74h-1.933m1.21-.19l-.25-2.36 1.2-.55 1.41-.115m0-1.65l-1.65.322h-2.33m.39-1.11l1.21-.35 2.7.35m-3.68-1.964h1.41l.73-1.926-.79-.197.79-3.065 1.53-.314m-1.3 3.498h1.3m-2.11-.746l-1.58.195m1.84-1.45l-1.67-.437m3.5-2.238h-1.96l-1.55.235m.21-1.337l1.45-.392.54-1.61 1.3-.237m-1.84 1.84l1.19 1.49M139 286.6l1.33-.47.32-.83 1.845.82m-3.49-1.61l1.742.59v-1.38l1.95-.44m-.21-1.53H141l-1.725 1.3m1.722-1.3l-.24-1.89-1.96-1.23m2.09 1.15l2.053-.36m-.236-2.37l-2.05.28-1.025-.91 3.31-.78m-2.29 1.69l-.46 1.93m1.72-3.62l-1.16-1.337-1.48-.35m1.07 0l.41-.87 2.64-.238m-.45-1.965l-3.48.584m59.33 105.48l.41-3.45h16.15l-2.6 2.08-7.81.303-1.52 1.08m9.32-1.38l3.02-.34.24 1.86m4.96-.13l-.3-1.39 16.15-1.23-.23 1.53-8.66.58"/>
      <path d="M237.534 377.55l2.593-4.006.25-1.81h-4.657l-.464 1.5-1.668 1.408m15.62-2.497h-1.858l-6.974.242.545 1.45 6.43-.293h1.86m-6.35 4.404l1.03-.2m-14.44-2.788l-.24-2.512h-13.13l-.24 2.83 5.27.425m-16.48.505h-5.67m.44-5.756l7.75-.37 1.02-2.352h-8.77"/>
      <path d="M206.083 370.452v.786l9.738.242.67-5.746h-4.29l-4.64 3.357m6.88 2.39l-2.23 2.07"/>
      <path d="M215.82 371.48h6.412l2.42-1.512m-8.166-.605l5.625-.272m0-1.87v2.51h7.08l1.21-1.99h6.59l1.52-1.69h-8.19l-4.74.39zm4.24 5.23l1.21-1.59 8.77.8"/>
      <path d="M236.982 367.73l.492 2.994 9.876-.272 1.857-1.09m-11.767-2.144l9.91-.798 1.615.798m-7.742 3.506l-.847 1.01m-3.066-2.008l-7.902-.363m3.59-3.415v-.94m3.984 1.03s.466-1.743.328-1.563c-.14.182 1.192-.265 1.192-.265v-1.5l1.875-2.3 6.973-.18 1.616.544"/>
      <path d="M248.965 359.504H240.8l-.424.908m-3.394 4.173l-10.637.423.605-1.875h7.56v-4.354l5.866-.31.424 1.03m-6.29 3.14l3.99.06"/>
      <path d="M240.376 358.476l2.48-1.512 4.494.423 1.615.333m.242 6.14h-1.39l-9.316.35m-22.24 3.52h5.86m3.21-1.31v-1.412m1.03 0l-9.86.485m10.47-2.36l-15.66.902-.54 1.458-.78.24-.04 1.642m.04-1.338h-10.6m11.92-2.36v-.967l15.36-.544v.755m-20.02-.36l-7.25.58m0-1.21l7.26-.18v1.63h4.66m-7.16-1.63l.48-1.51m-5.23-.27h6.72v-1.18l-3.35-.72h-3.36m6.72 1.91l.55 1.48m-.27-1.02h12.82l.12 2.02m-1.66-2.01v-3.03m0 1.52h9.02v3.27m0-2.66h4.24v-.6l3.88.11m7.07-1.62h-5.75l.24-1.87-9.67.42V355h-6.41l-.61 2.42 16.46-.43m-3.1 1.997l.48-.903 2.61-.33M219.68 357l-7.43.75-.24-2.75m5.68 4.537l-11.552-.302m.55-6.11l8.77-.36v1.518l-.666.42-8.11.728z"/>
      <path d="M212.192 356.662l-4.536.302v-1.572m-1.03-.424l-7.256.424m16.027-1.332l4.84-.603m0 1.51v-2.963l2.177-.24 1.51-1.31m-3.688 2.276l11.85-.726m1.274 3.64l-1.274-4.305 4.896-.37-.113-.86m-4.12 3.94h-5.32l.48.9 5.11-.46m16.18-.76l-1.86-.3-9.42.3-1.61 1.42"/>
      <path d="M248.965 350.31l-1.615.666h-4.376l-.208-1.027 1.088-.91h5.353v-3.75h-7.984l-.423.18-.424 1.21-3.394.3-.113-3.09 1.63-.67h8.85l1.61.72-1.62 4.29-3.5-.06-.65-1.09-5.77.78-.13 2.18-8.52.9v-1.45l-4.87.48v-1.21l1.75-2.3 11.3-1.21"/>
      <path d="M225.68 346.5h-1.755v1.875h-7.44v-3.265l8.83-.485zm23.285-3.81l-1.615-.423-10.04.423-.328-5.02 5.338-.907h6.887"/>
      <path d="M249.207 338.88h-1.857l-4.494.544-.09 3.037m-17.45 2.17l.845-1.75 10.83-.97m-10.82.97l-1.81-.41 6.38-1.1.42-2.05h.94l.91-1.63h-6.05v1.46l-1.63.61h-2.69l-1.9-.84 2.48-6.71m-2.48 5.57h-2.6l-1.63 2 .42 2.66-.65.85.72 1.6m16.02-7.16H237"/>
      <path d="M226.95 337.67v-10.584l-6.714.363v.96l-1.053 3.75 7.676-.41"/>
      <path d="M220.236 328.66l2.39-.243v.967l4.233-.483m5.22 8.62l1.27-1.36 13.55-.97 2.29.61m0-5.14h-2.36l-9.87.91-5.84-.9"/>
      <path d="M226.95 333.98h4.384l1.12-.846h8.77l.604-1.27 4.158-.302.862-.907m2.36-.545l-1.858-.484h-11.267m-9.133 1.03h8.04l1.093-2.844h-6.675l-2.458 1.42M211.8 352.88v-3.234l.997-1.028h2.056l.936-1.21h.69m0-.908l-12.73.908-1.36.967h-3.03m.3 2.178H203l.754-1.754 8.438.44"/>
      <path d="M210.327 349.145l-.403 2.376-10.554.25m.302 1.73l6.955.27m9.86-9.55h-7.62m-9.195 2.3l2.54-.66 1.542 1.58m-.754-1.27l6.53-.66-1.874-3.01-7.68.23m6.674-.2l-1.323-1.55-5.655.55m5.655-.55l.756-.26.272-1.79-.272-1.36-2.33-.27-4.08.49m10.654 6.47l-.403-4.17-3.57-1.45m-1.284-1.17l12.323-.89.726 1.19m-.61-1l4.29-.77m-6.65-4.84l-.61 1.79.3 3.47m4.77-5.77l-12.73.99v-3.15l13.03-.6m-13.03 3.75l-6.69.61m0 2.17l14.37-1.02m-14.92 3.03l15.18-1.16m-14.88-5.96l6.93-.33m-6.93-1.81l7.18-.61.24-1.27h-7.43m7.42 0l3.64-.36.76 1.57 5.05-.27.29 1.79m-.29-1.79l.29-3.54h2.79V324l6.29.06-.54-1.935 1.27-2.42-8.71.97m-1.1 1.992l1.34-2.24m5.45 3.6v3.27m3.03-.16l2.05-.425v-1.45h4l.54 1.19 8.1-1.18-5.93 4.413m5.93-4.6l2.05-2.42 3.64-.24 1.49.79m.37-3.02l-1.86-.84-6.43.42-1.33 1.786h-2.69l.08-2.57-10.03.73m-.81 4.05l15.5-.8"/>
      <path d="M241.8 324.848l-.153-3.356h5.703m-23.062 4.124h4.718m7.944-5.726l2.76-.97 1.21.788m8.287-2.645l-1.857-.562-9.272.91-.725-2.76 4.294-.44"/>
      <path d="M249.207 314.65h-1.857l-5.16.34-.543-2.3 5.2-.422 2.36.665m-24.443 6.957l-1.69-4.538.845-.703 6.17-.45v1.33l7.56-.55"/>
      <path d="M224.288 318.074l-9.133.846-2.963-3.114 1.028-.816 10.7-.34m-6.776 4.27l-.295 1.695 1.93-.242m-1.67 2.525l-5.32-.53-.76 2.48m5.81-4.958h-2m0-1.287l-.27 2.616-5.06.27-.67-3.54m2.17 3.54l.81 1.12m-2.33-1.12l-9.56.87m5.95-.44v1.37l-5.72.31m13.2-6.51l-13.2 1.58m0-1.64s1.93-.24 2.05-.55c.12-.3.48-2.87.48-2.87l1.74-.27.26-1.62"/>
      <path d="M202.212 316.785h2.283l.354-3.428-.1-1.09"/>
      <path d="M204.555 316.197l2.708-.39.332-2.18.333-1.89m-.595 3.613h4.94m2.882-.42v-4.216m0 2.643l5.08-.535m1.545-2.108l-1.635 1.023.59 2.23 5.912-.34 1.39-1.288-1.087-2.19m3.145 4.05l2.903-.58.605-1.36"/>
      <path d="M227.7 312.654l8.383-.594h3.025v-3.28"/>
      <path d="M239.108 310.412l-5.93.304-2.03-1.11m18.06 1.694l-1.858-.586-3.102.293.25-5.93 2.852-.37 2.146 1.03m-5.248 1.873l-5.14.424m0-2.117l4.172-.705.725-1.803h1.24v-1.43h.454l1.65-1.94 1.85.66m0 1.61h-1.86"/>
      <path d="M244.913 301.925l-1.633.397-4.172.662m.602-1.75l6.78-.176m.86 2.962l1.857.273m0-6.847l-1.857-.843h-2.852l-5.39.968m10.1-2.78l-1.513-.78-4.415.4-1.996 1.79h-1.573m0-3.32h2.67l-.36-5.32h-3.07m3.71 4.18l4.71-.72 2.15.73"/>
      <path d="M242.154 289.645l4.718-.48 2.335.48m-7.053-1.752l2.094-.362.21-1.87m-5.35.24l5.05-.24.755-3.2-2.268-.48m1.815 5.26h2.89l2.146.67"/>
      <path d="M244.563 283.932l2.415-.515 2.23.515m-4.426-.925l2.568-.557 2.146.557m0-2.493l-2.146-.423-2.89.43m-5.05 1.94l4.748-.76.3-2.26-5.522.88m5.524-.87l-.212-1.03-5.14.3m5.14-.3l-.09-1.51-5.05.25"/>
      <path d="M239.71 275.07l2.663-.483 2.19.243.35 2.055-.755.242m.755-.242h2.437l2.146 1.15m-.29-3.448l-2.067-.484-2.23.847m-2.6-.6l-.16-2.97h4.9l1.84.91m-6.9 0l-2.91.453m2.67-1.363h-2.44m2.8 0l-.37-2.54-2.44.365m2.66.907l2.24-.847h3.1l1.86 1.633m-.3-4.96l-1.77.242-1.46.424-6.33.362"/>
      <path d="M241.678 268.6l.476-1.634.22-3.87 4.604-.908 2.23.363"/>
      <path d="M249.207 263.882s-1.875-.182-2.147 0c-.272.18-4.748 1.175-4.748 1.175m-2.962-.39l2.962-.5m-2.962-2.42h5.11s-.003.485.103.918m4.644-1.99h-1.857l-2.89 1.07"/>
      <path d="M244.782 261.627l.13-6.152 2.438-.303 1.555 1.154"/>
      <path d="M244.865 257.72l-1.558.68h-3.958m.36-2.074l4.85.238m-5.22-3.69l5.43-.255.38 2.82m-.38-2.83l.13-2.53h2.72l.79 2.53-.7 2.82m-.09-5.35h1.57m-.79 2.67l1.08.53"/>
      <path d="M249.496 248.64l-1.862-.786-3.99.786-.727 1.452 1.542.605m-5.36.943l4.73-1.187m-6.24 1.434v-1.795l5.57-.51m6.03-4.207l-1.86-.364-4.44.55-1.45 1.94-3.1.37-.24 1.73-5.27.87-1.68-.66-3.51.67-.25 2.58m10.58-4.7l-5.75 1.76"/>
      <path d="M248.905 243.922l-1.555-.362-9.332 1.996-.417 1.935.72.8m-.3-2.73l-.72-2.42 10.06-1.63 1.86 1.21m.29-3.39s-1.57-.6-1.86-.54c-.28.06-4.11.91-4.11.91l-1.36 2.66m-4.55 4.66l-9.26 1.63-.9.94-4.72.51v2.12l4.72-.56m-4.72-.28l-4.05 1.77V255"/>
      <path d="M222.716 250.735l-1.65-.643-12.745 1.548-.36 1.66.24 3.026m1.09-4.964l-.48-.91 18.63-3.445.73.303 5.99-1.028 1 .362 2.72-.362m-.56-2.722l-10.16 1.45v1.997m13.26-4.66l-2.36-.24-.42-2.902 9.75-1.935 1.86.786"/>
      <path d="M249.75 236.967l-2.116-.725-11.068 2.536-3.024-.3v-.97l13.808-2.355h2.146m-13.232 3.625l-2.3 1.335 1.15 1.934 2.817-.544m-2.81.544l-.64 1.915m-.51-3.55l-10.25 1.936-.38 2.18 1.92 2.884m-2.18-3.5l-15.11 2.732 1.29 3.728m-1.11 5.073l-7.06 1.12-.42 1.155 4.25.34m-1.28 0v1.406l1.59.362m-.01 1.152h-1.57l-.54 1.685-2 .49m.61.372l1.45.275 1.61-.646m-1.12.646l-.48 1.592 1.82.813m-.05.8l-3.52-.04m1.72-1.27l-.38 1.27m2.18 1.873l-2.18-.24-.48-1.594m.68 1.707l-1.82 1.41m1.01-.78l2.97 1.555m-1.56-.816l-.79 1.602v2.843l2.19.06m-2.19-1.27l-1.33.242m3.19 2.39l-2.34.27.49-1.7m-.49.63l-1.15.21m.3 1.51l1.75.24 1.38.33m-3.13 1.45l.85-.21 2.28.1"/>
      <path d="M204.385 280.09l-2.173.213-.423-1.497m2.7 3.644h-1.2l-2.24-2.147m-.43 4.567h2.05l1.8-.606m.06 4.113h-1.26l-.18-3.507m.17 3.507s-1.63.548-2.24.786m-.43 2.177h2.48l-.2-2.57m.15 1.998h1.41"/>
      <path d="M203.298 290.978l.233 1.875-1.31.363-1.57-.363m0 2.237l1.54-.362m.03-1.512v2.36h2.29m-.11 1.027l-2.2-.424v1.39h-1.54m3.75.78l-1.69.37-2.05-.38m0 .85l1.84.64 2.07-.33m-.17 2.03l-2.17.36-.03 1.06-1.54.42m-.42 3.26l1.97-.27.04-1.19h2.17m0 1.46l-2.08-.55m1.79 2.45h-1.49l-.11 1.03-2.27.55m0 2.49l2.35-.39.56-1.55 1.27-.01m-1.82 1.55l.73 1.36m29.92-75.36l-.94.28v-1.97l1.27-1.07 13.81-3.21 1.86 1.2m-16.93 5.04l-5.53.96-.68 2.53"/>
      <path d="M224.49 242.047l-1.157-4.45 8.878-.632m-9.13 2.037l-11.75 1.56v2.444l-8.19 1.682-.43 4.134m5.68-.968c-.02-.077-10.33 2.01-10.33 2.01l-.85 1.776 3.45 5.536m-.76-1.226l-6.96 1.77-.56 1.223m6.07-5.323l-8.99 2.706-.5.85-4.67.544v2.726m0-1.503l-8.69.272m.07-2.463l12.68-2.126 1.92 1.325"/>
      <path d="M194.263 254.872l-5.174-4.78.45-1.805 4.95-.875.45-1.488 7.94.358"/>
      <path d="M197.473 251.046l-1.358-1.463.68-1.245 6.094-.926m-5.7 4.228l-5.86.487m-.85-.765l-1.41 3.81m.7-2.325l-13.35.452.82 3.02m-1.18-4.97l7.42-.91m6.27.27l-4.81.91-1.87-2.06 1.13-1.73 5.96.31m-6.25.12h-4.33l.95-3.28-4.15.27"/>
      <path d="M180.704 245.556l6.922-.545v2.13l-1.407.72"/>
      <path d="M187.626 246.433l9.563-1.15 1.7-3.523-8.06 1.246-3.21 2.005m3.21-1.79l.5 2.77m5.98-.97l5.57.28m-4-2.93l12.43-1.2"/>
      <path d="M179.24 245.01l3.21-2.004 1.068.906 9.96-3.61.508.84 3.203-.84 1.23 1.53m-.56-.69l7.17-1.334.65 1.695"/>
      <path d="M205.69 240.916l7.195-1.633 2.452-1.24-.526-.773-4.29.493.58-2.61-11.59 1.317-.41 4.446m16.25-3.264h2.74l5.63 1.35"/>
      <path d="M211.035 235.43l7.153-1.267 1.33 1.8-1.668 1.69"/>
      <path d="M219.124 235.43l3.34-1.267 24.38-2.534m-12.37 1.28l-.93 2.76m14.09-4.05l1.573.67m0-1.69l-1.857-.73s-9.92 1.07-10.058 1.24c-.14.16-.312 1.53-.312 1.53"/>
      <path d="M236.98 231.63l-.445-.79 5.718-4.895 4.806-.333 2.43 1.346m-8.4-3.748l1.04 2.834m1.7-.432v-2.2m-2.37 1.214l-6.33 1.713-3.23 3.32 1.06 3.25m-.71-2.07l-8.83.42-4.78 3.53"/>
      <path d="M224.21 230.85l-.493-1.304 1.224-1.816 9.54-.7m-6.15 0l-.54-1.818 1.73-1.532"/>
      <path d="M227.687 223.68l-7.754 3.35.225 1.914h3.965"/>
      <path d="M220.69 233.308l-10.044.516-4.67-.295 1.52-2.26 2.644.36 9.98-3.01m-13.322 3.68l-6.158 1.85.665 1.74"/>
      <path d="M207.958 231.22l.17-2.276 11.805-1.913"/>
      <path d="M216.668 224.51l-.394 1.534-2.295 2.01m2.29-2.01l5.56.24"/>
      <path d="M215.516 226.708l-2.956-.397-11.087 2.82-5.12 1.73-.364 1.46-6.33 1.23.55 1.63 7.94-1.04 3.32-1.8 3.3.61m4.03-4.08l-.85-1.1m-9.07 1.82l-1.57-.92 4.46-1.59 7.02-2.15m-6.8 2.08l-1.7-2.09"/>
      <path d="M198.89 224.876l-2.775 2.334-3.196 2.336-3.26 1.186-.23 1.236 6.68-.7m-1.85 3.54l.73 1.66-1.74 2.085-6.59.45-2.71.805-7.52-.806"/>
      <path d="M184.977 239.507l2.65 1.41-.154 1.562m-7.267-4.45l.413 1.22m9.17-5.35l-13.35 3.74 3.76.38 8.88-2.13 1-1.1m-.67-3.54l-12.55 1.99m0 1.29l6.04-1.03.35 2.2m-6.39-4.11c.22-.06 5.01-.41 5.01-.41l1.63-2.09-.6-1.92-6.04 1.41m4.67-1.09l-.23-1.92m1.79 2.23l2.6-1.27 1.28 1.27 3.82-2.24m-2 1.35l-.47 1.97 2.18 1.47m-1.71-1.15l-5.56.18m-15.5 31.85l-9.3 2.12-1.13 1.25m.57-.87l-2.65-.82-10.5 2.48.19 1.51m11.65-3.81l1.29-1.87 9.86-1.46"/>
      <path d="M167.774 257.448l-9.188 1.495-3.376 2.348-1.71 1.13h-4.2l-5.796.74-.225 2.54 1.49.64"/>
      <path d="M168.125 254.263l-3.967.91-.563 1.58-8.777.695 2.043 2.38m-.97-.885l-8.72.603-1.91 2.2 1.23 1.03"/>
      <path d="M146.38 260.446l-13.794 1.623.416 1.08 4.255-.18.675 1.12h5.347m-5.54.18l-.6.8.95 3.23 5.74-2.39m23.93-13.42l-5.22.69 1.19 3.12"/>
      <path d="M162.96 254.263l-5.837 2.063-6.556.85v-2.59l2.28-1.74 9.35-.963 1.453 1.18m-1.454-1.18l1.68-1.428 3.994-.71"/>
      <path d="M163.877 250.455l-.62-2.168 1.684-1.637 2.93-.217"/>
      <path d="M164.158 247.412l-1.6-2.264 1.092-1.618m4.76.384c-.255.043-4.25.845-4.25.845l-.9-2.41 1.35-.85 3.8-.36"/>
      <path d="M168.524 237.307l-3.358.727-3.007 2.623 1.19 1.958m4.77-7.213l-7.01.505 1.43 1.915 1.09 1.18m-2.53-3.095l2.71-2.882m-1.67-.76l-6.64.605-2.85-.902-2.11-1.12m4.96 2.022v1.937l6.63-.224m-.31 2.724h-5.23l-.51-2.17"/>
      <path d="M162.16 240.657l-6.634 1.09-.708-3.362 1.8-1.078m6.865 5.643l-6.142.58 2.38 2.457 3.27.295m.51 2.793l-5.29-.788-.28-2.3.58-.84m-.29 3.14l-2.31 1.805.23 2.42"/>
      <path d="M155.885 250.91l-9.938 1.217.708-1.755 9.962-1.144"/>
      <path d="M151.343 251.466l1.03 1.742-9.094 1.055-1.19 1.688 8.47-.5m0 1.31l-8.75 1.45-2.89 1.35.59 1.67m2.57-5.52l-5.69 1.07-3.41 2.37 6.34.09m-2.88-2.88l-.51-1.15 1.58-.75 8.4-2.53m12.04-5.23l-2.11.46v-2.35l1.82-.84m-2.13 2.52c-.15.06-6.62 1.42-6.62 1.42v2.26"/>
      <path d="M149.3 247.852l-7.92 1.376-.883 2.412.87 1.627"/>
      <path d="M146.655 250.372l-1.012-2.085 1.294-2.817 2.364-2.52 6.1-1.808m-.58-2.757l-8.87 1.576 2.74-3.34 1.12-3.1 3.71-1.2"/>
      <path d="M155.526 234.807l-3.153.93-.545 3.18m-2.865.51l1.42 3.23m-1.985 1.255l-6.3 1.1v-1.482l7.884-1.784"/>
      <path d="M146.564 246.282l-9.757 1.57-.394-.784 2.138-1.312 3.55-.745"/>
      <path d="M138.888 245.284l-.224-1.754-2.7-.152-2.962.953-.98 1.66.98 1.87 3.41-.78m2.476-3.15h3.21m-3.548-.53l.338-1.62-.618-1.8.618-.73m0 2.08l7.06-1.34m-1.05-3.09l3.02.69m-2.668-2.15l4.05-.59m-11.558 3.49s-5.605 1.04-5.718 1.22-1.463 2.84-1.463 2.84"/>
      <path d="M138.27 239.96l-4.052.697-1.632 1.39 1.745.3 4.56-.587m-6.3.287l-3.49.61-.95 2.1 4.45.713m-.56-5.963l-2.87.065v-2.02l4.23-.934m-4.84-.88l.62 1.813-8.89.95m8.45 4.12l-6.31.77-2.81-1.33"/>
      <path d="M122.85 243.378l-.675 3.272 7.346-1.18.85-.457m6.45 2.84l-6.44 2.254-.36 1.776 1.01 1.325 9.49-1.325m-9.49 1.325l-.64 3.118 3.02-.375h2.93"/>
      <path d="M133.26 258.943l-3.74-.748 1.04-1.894m6.585 10.04c0 .08-11.424 1.26-11.424 1.26l-1.01 2.87m8.55-6.93l-1.23 1.14"/>
      <path d="M134.835 266.742l-1.456-2.075-9.97.833-1.69 1.506.45 1.56h3.2"/>
      <path d="M122.105 268.326l-2.07 1.293.224 1.35m-.23-1.35h-4.05l-.59-1.52 6.33-1.1m-6.34 1.09h-4.08l-4.22 2.02-.74.84 4.11 1.64"/>
      <path d="M113.337 268.312l-.7 2.66 2.5.73m13.143-6.61l2.986-1.936-.903-1.663-15.45 2.61-1.025 1.96.687 2.037m8.252-2.44l-1.26-2.682m8.993-1.23l4.896-2.533m-2.87 2.855l-1.32.908"/>
      <path d="M129.153 258.195l-6.576 2.287.44 2.294m6.98-5.73l-6.192 1.15-.788-1.444 1.873-1.765 5.473-.22"/>
      <path d="M123.4 257.452l-8.77 2.376v-.885l9.237-2.992m-3.607 2.7l2.317 1.84m-.825-.65l-5.94 1.67-1.18 1.03.28 1.58m-.236-1.32l-7.417.75-.91 2.54 4.16.56 2.12-1.92 1.76.4m-3.52 1.52l.43 1.49"/>
      <path d="M110.875 267.05l-3.954 1.516-7.82 1.053.73-3.29 6.88-1.24m.22 3.47l.34 1.05m-.46.84h-3.76l-2.02 1.73 1.69 1.92m-.25-3.15l-1.11-1.66m-.32 3.29l-8.5 1.44m.79 1.49l-1.91-2.6.75-1.97 7.14-2.15m15.36-9v2.69m-.22-2.04l-13.62 3.04-2.59-1 1.75-1.67 9.74-2.22.17.91 4.56-.35"/>
      <path d="M115.138 258.78l-.636-1.777-.377-1.052-7.823 1.94-.225 1.33m14.003-2.17l-5.674-.98 1.294-1.8-.562-1.75s10.354-1.25 10.354-1.04 1.197 1.39 1.197 1.39l-1.54 2.13m1.2-2.46l3.41-.63"/>
      <path d="M125.493 251.466l2.57-4.097 4.115-1.09m-4.114 1.09l-1.375-1.45m-3.68.75l1.13 1.18-1.13 1.79-.84 2"/>
      <path d="M123.467 248.59l-10.243.678.664-2.157 8.69-2.49m-6.596 4.65l1.52 1.41-.92 1.67m-1.444.18l-9.06 2.87.224 2.51"/>
      <path d="M113.432 248.59l-5.61 1.517.666 2.406-3.392 1.592-3.764-.838-4.758 1.5-.233 1.534 4.13.88 5.61-1.22"/>
      <path d="M110.875 249.585l2.01 2.298-.566 1.522m-3.84-3.82l-.33-3.152h2.36l.09-1.285 4.02-1.388m-4.12 2.673l3.37.678m5.02-4.16l.68 2.2m-7.39-2.2l-9.22 2.2-3.21-1.77.4-1.33-3.11-.3m9.28 2.87l.44 2.76 1.51.48"/>
      <path d="M101.012 253.133l.32-2.455 7.103-1.603"/>
      <path d="M101.58 250.623l-8.785 1.26-1.407-1.51 5.684-3.432 7.565-.5m.25-1.74v2.42l1.91.26m-6.823-4.65l-4.64 1.58 1.007 2.82m-.75-2.09l-4.93-.4m-1.31 3.42l3.94 1.19"/>
      <path d="M91.388 250.107l-5.483.57v2.206l6.663-1.243m-6.88-.197l-6.096.197m6.313 1.243l-2.96 1.38-3.353-.555m16.982 1.06l-1.24-3.273m.62 1.91l-6.718 1.527-2.575-.827 1.23-1.592m.1 2.017l.31 1.42-7.32 1.226-1.38-1.682m0 2.7l5.75-.572 6.55.573 4.45-1.894m4.13 1.33l-.97 2.21v1.03m1.84 2.67l.3 2.48m-2.13-4.83l-8.1.79-.73-1.91 1.24-1.85m-1.24 1.37l-3.04.93-1.71.81-7.37 2.24m7.38-1.78l1.04 1.78 4.43-1.57m6.81.56l-6.06 2.99v1.85h7.47m-7.46-.74l-2.39 1.21.41 2.65 1.81.96m-2.22-2.86l-4.74.55m-6.85 1.35h6.59l-.16-2.36-6.06.74"/>
      <path d="M78.838 264.766l6.12-1.24-.604 2.212 7.783-1.936 2.685-2.172m-7.737 3.463l-.424 2.263 3.09.463m-4.99 2.64l1.91 2.42v1.97l1.31 1.56h1.28m-3.34-4.5l4.25-1.47m-11.98 2.42l6.19.47v2.18l.6.98m-.72-1.66l-3.65 2.01m3.77-2.64l2.31.22m-.45 4.37l3.04-1.23m-3.03 2.53l3.04.28m-.22 1.19l-1.29.83-1.07 2.6 2.37.79m-.37 2.48l-2.74.5m-.2 1.8h.95l2.32-1.12m-2.22-4.7l-1.08 1.77m0 6.08H87v1.06h-1.52M87 292.6l1.646-1.576M87 293.72l-.34 1.97v2.024l1.893.79m-1.893-.79l-1.703.226m3.21 1.67l-1.506-.21-.85 1.86h-1.05m-.16 5.4h.89l.43-2.08 1.94-.34m.33 2.42h-1.96l-.3 9.622 1.44.338m.48-9l-1.52.617m1.31 2.42l-1.53.28m.08-2.36H84.6"/>
      <path d="M84.24 315.158h1.57l1.796-1.688m-1.458 2.87l-1.19 1.464v1.463l-1.202.357m3.52.43l-2.32.723-1.303.91m.103 2.813l1.2.225.95-1.913 1.37-.562m-.436 3.85l-3.558.315-.227-1.31m4.005 3.055l-.843-.34-5.355.564v-2.625m0 1.31l-2.87.15.675 3.18H74.22"/>
      <path d="M82.494 328.212l-1.632 1.917-2.32-.32"/>
      <path d="M86.84 332.718h-5.246l-.732-2.59m.61 2.162l-.954 1.22-4.946.45-.507-.835-1.258-.407"/>
      <path d="M73.807 336.098l6.71.28.956-1.405-.955-1.463m6.518 1.435l-1.572-.65-3.99.678m-1.214 1.397l1.213 1.586-.386 2.25h5.06"/>
      <path d="M81.473 337.956l-5 1.125v-1.12l-1.858-.28.51-1.52m-1.318 5.07h3.003l1.234-1.01h1.748l1.295-1.12m5.386 3.33l-1.516-1.18-4.697.28-3.45-.28m9.113 2.42l-.966-.62-4.095.62-4.39.57v-2.59m0 1.81l-3.095 1.07m-.487 1.68h3.92l2.284-.49v-.9l5.145.7 1.68-.97"/>
      <path d="M83.962 345.322l-4.555 1.638.853 2.308h4.26l1.385.45m-5.967-1.32l-1.894.7-4.893-1.014m3.66 1.014l.85 1.013-.84 1.69H72.9"/>
      <path d="M80.862 349.098l-1.455 1.858.426 3.208 6.072-.394"/>
      <path d="M85.996 352.475l-1.476-.338-3.433.338-1.15-1.52m-.327 1.52l-2.716-.845m2.716 2.534h-4.094l-3.208.544m13 .81l-5.7.394.187-2.035m-.185 2.035l.328 2.87h5.37"/>
      <path d="M85.308 360.132h-1.463l-4.438.45-.74-1.518 1.106-1.718m-.163-1.096l-3.26.225-2.543-1.07 1.212-1.156m-3.04 5.2h4.56l-.19-2.99-4.04.28m4.26 1.8h2.42m-2.45.9h2.31m.13.73l-5.19.56m0-1.01l-.43 1.29-1.4.62m0 3.15h4.73l.18-1.52h7.67l.74-1.41"/>
      <path d="M84.957 362.54l-6.31-.325-1.2-1.633m7.51 5.628h-3.484l-1.535 1.182H72.89l-1.428 2.025"/>
      <path d="M80.757 366.76l-5.485-.212-.348-1.744m-2.94 4.613h2.94l1.034-.788h3.272l.708-1.47m5.02 5.05l-1.754.48 1.36-6.21"/>
      <path d="M83.31 372.215l-3.903.48-1.705 1.697s-2.956-.834-2.683-1.272c.27-.438.25-2.183.25-2.183l2.17-2.31m-2.43 4.493l-4 .424m4-2.944l-3.04-.28.32-.727M71 376.51h3.242l1.42-.684 2.982.685 2.09-2.11h2.805l1 1.06-.48 1.46-4.14-.39-.79.9-.16.95m-2.29 0l.1-1.98m.08-1.98l-.54 1.22m-21.04 2.89l-1.18-1.65 1.18-.47 2.86-.2m-3.98 1.16l-3.32.48m4.44-1.43v-.99l1.07-2.05 2.16-.21m-3.23 2.26h-4.44m6-2.1v-1.55l.05-1.35 1.61-.28M56.84 372l-5.81-.24m6.64-1.64v-1.81m-6.052 0l6.06-.226 1.09-1.31m.36-1.96l-3.85.508-1.18.9-2.705.28m.563-2.642h3.83l.332-.505 2.02.5.37-1.69-6.55.38m0-.98h5.72v-1.37h1.8m0-1.917l-7.49-.307m7.144-.99h-3.01l-1.294.79m-2.36-1.29l2.81-.28.45-1.07 4.103.24m-.36-.66l-.97-.83.96-1.06-7 .94m.36-1.96l7.28-.08m0-1.65l-1.59-.73-5.67.73m7.27-4.74l-.63.83-.96 1.65 1.6 1.3m-.34-3.32l-3.62.39-3.68 1.36m8.22-3.57l-1.38.25-.18 1.12h-1.88v-1.12l1.91-2.59h1.24m-3.15 2.59H53.2m4.39-.79l-4.39-.5m.28-1.97l7.23-1.01m.502-3.05l-1.74 1.42-5.71.79m-.28-2.2l1.343-1h5.86m-2.815-.34v-1.58l1.44-2.31 1.7-.23m-3.42 2.88H54.1m0-1.17l4.07.35m-4.07-3.07l5.063-.28.67-1.39 1.956.43m-2.63.96l.31 1.5"/>
      <path d="M59.47 329.17h-3.29l-.925-.786.926-2.285 2.87-.34m-3.79 2.62l-1.12.35m1.75-2.33l-1.66-.32"/>
      <path d="M56.5 326.062l-.626-1.008 1.644-.903h1.48m.002-1.5l-3 .34-1.308 1.17m0-3.27l2.59-.37 1.912.38m-1.574-.37l-.34-2.75h1.77m-1.15 0l-.62-2.36-2.424.96m4.65-1.41l-2.225.46-1.8-1.07m0-1.58l1.8-1.1.62-.98h1.9m-3.92-.62l1.07-.23.96-5.23v-.89h-2.03m0 3.93l1.36.62m.21-1.12h2.36m-2.11-1.41l2.79-.25m-2.58-1.76l.08-2.09 2.51-.33m0-2.48H59l-.382-1.8-2.744 2.42m2.744-2.76v-1.46h1.867m-3.932.93l2.065-.93m0-.33l1.18-2.98m1.582 0h-2.17L56.507 293m.38-2.088l2.664-.225 1.51.11m.6-2.98h-3.04l-1.73 1.75m.34-2.93l2.32-1.23 2.11.616m-2.1-.615l.25 2.42m2.15-4.5h-2.68l-1.68 1.12m0-3.94l1.97.37-.1 1.09-1.85.34m1.97-1.43h2.56m3.62-4.03l-1.52.51-.9.95-5.41.948m.28-2.645l5.52-.98.73 1.51m1.3-2.94l-2.76.6-.68-.59v-.75l2.15-2.22 1.3-.17m-3.44 3.15l-4.1.59m0-1.35l4.34-.24m1.18 1.59l-.43.91m1.16-4.48l-1.69-.76m-4.17.27l6.09-.64.23-2.19-.88-.81-5.78 1.09m6.66 0l1.3-.28m0-2.72l-2.17 1.91m2.17-2.9H63.3l-2.44-.49-.23-1.09-2.014.25m2.248.84l-2.24 1.32m2.245-2.42l1.46-1.44 4.34-.36m-7.58-.58l2.9-.58.33 1.16m-2.74-2.08l3.72-.75 3.59.69m-4.57 1.57l4.34-.58m-1.75-1.68l2.37-1.59m-.4-1.37H63.3s-1.51 2.12-1.32 2.65l.194.54m.442-2.14l-3.5-.43m4.64-1.89l.72 1.27m145.465 85.1l6.56-.3"/>
    </g>
  </g>
</svg>
