<svg xmlns="http://www.w3.org/2000/svg" width="300" height="300" viewBox="-2 -70 320 320">
  <path d="M313.253 4.244c-.143 0-.332 0-.472-.047-1.36-.095-2.64-.047-3.77.14-.47.096-.89.048-1.32-.093-2.26-.944-4.95-1.556-8.06-1.84-.75-.093-1.36-.376-1.84-.848-.37-.424-.7-.85-1.08-1.32L296.52 0c-.613.613-1.463 1.038-2.594 1.18.096.66.378 1.178.897 1.508.33.236.707.52.99.848.19.142.33.283.47.472.567.518.945.518 1.13.094.05-.094.145-.094.287-.094.187.14 4.713.14 4.713 0 .518.424 1.32.66 2.357.707 0 0-6.412.236-6.6.236-1.416 0-8.49-.47-10.374-.47-.14 0-.235-.04-.282-.09-.093-.28-.234-.52-.377-.7-.188-.28-.423-.38-.754-.38-.14 0-.236.05-.236.24.048.81-.33 1.14-1.178.95-.05 1.18.37 1.84 1.36 2.08.19 0 .37.05.56.05.66.05 1.22-.09 1.6-.47.19-.18.43-.23.71-.23h16.97c.89.05 2.59.71 2.59.71-1.79.85-3.63 1.7-5.47 2.5-6.42 2.88-12.83 5.71-19.29 8.58v1.41c.52.52.75 1.46.75 2.83-.19 5.19-.24 10.37-.05 15.56 0 .28.04.61.04.94.09 1.28.33 2.41.66 3.3.47 0 .94-.09 1.37-.19.05-.04.05-.14.05-.28V19.1c0-.19 3.63-2.217 5.09-3.02.42-.19 1.84 0 1.98.188.09.99-.24 1.556-.95 1.65-2.35.33-3.91 1.32-4.71 3.065 0 2.17.33 6.605.47 6.605v.942c0 2.97.09 5.94.23 8.91 0 .042 1.98 1.51 3.53 1.51 1.6 0 2.78-.43 3.58-1.23.14-.19.33-.285.66-.38 2.31-.565 4.52-1.32 6.6-2.216 1.46-.14 2.69-.52 3.68-1.084.61-.33 1.41-.42 2.45-.232.99.186 1.65-.05 1.88-.568.57-.707.76-1.84.66-3.35-.14-1.224-.18-2.497-.18-3.723V13.43c-.145 0-2.83-1.414-4.72-1.414v.47c0 .14-1.036.376-1.225.235-.66-.56-.89-1.6-.66-3.06.19 0 4.2-1.51 4.72-.94.185.14.33.24.52.33.99.28 1.553.19 1.74-.38.047-.28.187-.52.33-.7.943-1.08 1.98-2.07 3.064-3.01-.38-.56-1.18-.8-2.36-.7zm-4.244 26.64v-8.02c0-2.687.47-8.815.47-8.957 1.46-.048 2.02.895 1.65 2.874-.15.9-.24 1.84-.24 2.79v7.55c-.14 0-.47 2.5-.47 3.77 0 .14 0 .76-.1.76-.76.33-1.23.24-1.32-.28v-.47zM295.33 14.38c1.65-.423 3.112-.942 4.385-1.696.234-.142.423-.283.61-.424.473-.472 1.18-.754 2.076-.896.15-.047.33-.095.52-.14.81-.33 1.14-.048.9.8.38 1.745-.28 2.594-1.88 2.594-.14 0-.33 0-.51.047-1.41.377-2.69.896-3.77 1.51-1.79 1.082-2.54.47-2.31-1.794zm-5.188 21.69V21.925c1.038.377 1.462 1.46 1.227 3.348-.19 1.367-.29 2.782-.29 4.196v2.82c-.14 1.46-.05 2.54.38 3.35.09.09.09.23.09.42-.14 0-1.42.52-1.42 0zm15.608-2.17c-.896.236-8.817 2.264-9.336 2.453-.614.236-1.227.52-1.887.896-.99.51-1.793.42-2.5-.24 1.274-.33 2.5-.71 3.68-1.18 3.44-1.37 7.26-2.36 11.41-3.07h.47c-.235.51-.846.89-1.837 1.13zm1.838-10.56v8.016c-.14 0-3.724 1.037-4.1 1.226-1.04.47-2.17.848-3.442 1.18-2.357.565-4.716 1.177-7.074 1.838-.14 0-.236-.047-.236-.047-.14-.613-.234-1.226-.234-1.84V21.925c5.328-1.32 10.044-3.16 14.193-5.565.14-.093.753-.093.893-.093v7.07zm-.8-9.336c.094-.047.19-.094.33-.094.19 0 .284.047.38.094.847.848-1.605 1.792-1.794 1.792-.14 0-8.156 3.252-12.306 4.573-.28.09-2.073.84-2.31-.33 2.17-.85 4.34-1.7 6.556-2.5.188-.1.376-.19.565-.33.61-.48 1.56-.71 2.78-.71.19 0 .33-.05.52-.14.99-.52 3.25-1.37 3.25-1.51.94-.05 1.6-.33 2.03-.85zm-33.617 6.27v.237c.1.52 3.02 2.22 3.59 3.12.29.47.38.95.24 1.46-.04.1-1.69.19-1.79.24-.33.47-1.04.57-2.03.38v.47c.57 1.04 1.56 1.28 2.93.76.42-.19.85-.28 1.32-.28.95 0 2.83-.33 2.83-.47 2.36.43 3.31-.52 2.88-2.83 0-.19-.28-.8-.28-.94 0-.19.05-.33.05-.52.28-.89-.14-1.27-1.22-1.17-.19.05-2.59-.28-3.16-.8-1.46-1.51-3.53-1.93-6.27-1.27v.47c-.19.8.14 1.23.94 1.18zm6.18 1.84c1.18-.425 1.61-.047 1.18 1.13-.47 1.37-1.13 1.65-2.03.85-.23-.19-.42-.472-.61-.755.38-.57.9-.99 1.46-1.23zm-2.45-.66c.1.52-.19.613-.85.33-.56-.283-1.08-.708-1.46-1.273 1.32-.89 2.08-.56 2.31.95zM172.75 39.37c-1.18-.612-2.452-.66-3.773-.094-1.034.472-1.79 1.085-2.355 1.98-.19 1.32.282 1.98 1.413 2.075.66 0 1.18.19 1.604.52.18.14.47.29.75.29 1.79.14 3.06-.19 3.77-.99v-.47c0-1.55-.47-2.68-1.42-3.3zm-.85 2.64c-.046.142-.188.237-.47.378-1.84.848-2.83.188-2.925-2.075.803-.33 1.7-.425 2.83-.283.85.095 1.038.802.566 1.98zm-49.6-2.64c-.142 0-.283 0-.472-.046-2.027-.142-3.442.33-4.243 1.46 0 .143-.283.473-.472.473 0 .613.33 1.886.473 1.886.563.518 1.51.8 2.83.8 1.506 0 3.63-.848 3.722-.895.188-.095.33-.236.377-.424.477-2.217-.28-3.3-2.21-3.253zm.47 1.886c-.14 0-.352.75-.4.796-.563.707-1.53.288-2.9.146 0-.188-.28-.802-.47-.943.188 0 .045-.058.447-.422.403-.365 1.77-.568 2.855-.52.187 0 .023-.298.47 0s0 .755 0 .943zm91.943 2.924c.66-.047 1.97.18 2.565.118 3.31-.346 2.414-3.065 2.367-3.16-.564-.99-.97-1.485-2.573-1.485-2.264 0-3.867.708-4.717 2.075-.19 1.792.565 2.64 2.357 2.45zm3.653-3.015c.15.095.08.657-.06.846-.71.99-2.075 1.32-4.01.95-.187 0-.283-.14-.376-.33-.095-.28-.143-.61-.143-.89 1.32-1.13 2.9-1.64 4.597-.56zm-145.52-.427c-.187-.14-.375-.188-.52-.236-2.64-.236-4.665.14-6.127 1.226-.15 1.887.61 2.876 2.35 2.924 1.51 0 3.03-.002 4.65-.403 1.1-.28 1.24-2.01.54-3-.29-.19-.62-.33-.9-.52zm-.94 1.98c-.19.095-.33.236-.52.425-.566.518-1.51.613-2.78.33-.71-.188-1.086-.754-.99-1.745.94-.52 2.167-.566 3.723-.235 1.08.188 1.22.612.56 1.225zm68.79 90.01v-8.957c0-.18-.047-.28-.094-.28-.238-.14-.52-.19-.85-.19h-18.87c0 .15-.282.48-.47.48v8.96c0 .14-.144 7.08 0 7.08-.19.8.14 1.13.94.99.19-.05.33-.05.473-.05h18.39c.567-.89.756-2.12.66-3.82-.14-1.37-.186-2.78-.186-4.19zm-1.885 6.6c-.14 0-.28 0-.42.096-.94.425-4.1.378-4.29.378h-12.26v-14.615c.19-.19.33-.286.52-.38.14-.093.28-.093.42-.093 1.37-.52 3.12-.71 5.19-.52.19.048.33.048.47.048h10.85v.945c0 1.414-.05 2.828-.19 4.195l-.04.282c-.14-.804-.23-1.65-.23-2.594v-1.885h-.47c-.75 0-3.11-.66-3.77-.472h-6.13c-.14 0-.28 0-.42.05-1.46.424-3.2.563-5.23.424 0 3.582.1 7.213.24 10.842h.24v-.47c0-2.55.33-7.55.47-7.55v-2.36H136c.475 0 .9.04 1.37.18 0 .05.05.09.05.28 0 2.49-.47 11.6-.47 11.78h-14.16v.94h7.542c.19 0 5.66.14 5.66 0h2.36v-3.77c.99 0 1.32.61.99 1.88v.94c.19.85.043 1.32-.52 1.41zm28.76-39.605v-.472c0-.47.1-4.15-.47-4.71v-.47c0-.19-.47-3.96-.47-5.66 0-.19-.23-1.41-.23-1.46-.14-2.64-.16-5.68-.16-8.32-.14 0-5.54-.12-5.73-.12h-11.32v24.05c0 .15.47 3.63.47 3.77v6.61c0 2.03.1 4.06.24 6.09 0 .05.1.05.24.05.9.52 2.17.71 3.77.52 4.01-.42 8.26-.61 12.73-.52.48 0 .95-.09 1.37-.23.05 0 .05-.09.05-.23v-4.24c0-.19-.28-6.13-.47-6.13.01-.19.01-5.8.01-8.49zm-5.66-18.74v-1.536h3.3v3.3c0 .472-.16 2.767-.06 3.19.38 1.746-1.63 1.052-1.81 1.1-1.46.33-2.26 0-2.35-.99.57-.283.71-.897.52-1.887 0-.188-.04-.33-.04-.47-.14 0-.23-.048-.28-.096-.09-.283-.89-.495-.89-.78.71.193 1.64-1.69 1.64-1.832zm1.23 7.563c1.04.378 1.51-.5 1.41 1.337 0 .14.26 4.837-.11 6.44 0 .264-1.07.264-.98-.213 0-.143-.12-3.32-.12-3.462v-1.415c0-1.13.14-1.932-.19-2.687zm-7.82-9.098h4.72c.19 0 .24 0 .28.048.28 1.083.22 1.165-.19 1.697-.4.534-.6.518-.65.564-2.14.92-2.2.798-3.12.278-.91-.52-1-1.03-1-1.03-.14-.613-.02-.944-.02-1.557zm3.37 10.013c-1.19.4-1.48.03-1.48-1.52 2.87-.61 2.93 1.05 1.49 1.53zm-2.42-4.82c.28-.7.9-.99 1.89-.94 1.04.1 1.23.85.66 2.22-.14.24-.33.43-.66.47-1.46.33-2.07-.28-1.89-1.74zm-6.13 1.42v-6.13c.19 0 2.08-.47 2.83-.47h.47c.33.94.71 1.84 1.13 2.74.43.95.52 2.22.29 3.87v.24c-1.41.14-2.83.24-4.24.24h-.47v-.47zm0 7.55v-6.13c1.61 0 3.16.05 4.72.1.57.05.8.48.76 1.32-.05.15 0 .33.09.52.1.1.27 1.84 2.96 1.51.15 0 2.47-.58 2.52-.77.1-.47.28-1.25.28-1.72h.95c0 1.41.1 2.83.24 4.2 0 .05.24 2.27.24 3.35v.47h-12.3c-.14 0-.23-.04-.23-.04-.14-.94-.23-1.84-.23-2.78zm1.42 24.52h-.47v-8.95h.47c1.75-.47 2.97.22 2.97.22 0 1.23-.14 3.69-.14 4.97 0 .14.05.76.05.95.52 2.41-.42 3.35-2.87 2.83zm7.43-2.08c0 .15-.35 1.9-.35 2.09h-1.42c-.14 0-.23 0-.23-.04-.14-1.55-.23-3.11-.23-4.66v-4.72h.95c.18 0 1.17.14 1.31.14.27 2.8-.07 4.01-.02 7.21zm2.48 1.62H161v-8.96h1.883v6.61c0 .14.05.28.05.42.38 1.51-.14 2.12-1.46 1.93zm1.83-9.67c-1.27.24-1.93.06-3.25.01-3.16-.18-6.06.14-9.17-.14 0 0-.11-1.17-.11-1.45.85.52 1.07.41 2.78.21.59-.06 1.18.17 1.79.12 2.12-.14 3.03-.19 4.44.14.1 0 2.55.28 2.74.23.99-.33.97.19.79.89zm-9.52-4.82c.36 1.42.37 2.44-.3 2.43 0-.14-2.38-.05-2.38-.19v-4.71c1.89-.47 2.92-.7 2.78 1.05-.04.14-.14 1.24-.09 1.43zm2.05 2.6s-.54.02-.72-.12c-.42.35-.24-.37-.24-.7 0-1.41-.14-2.83-.14-4.24.57.56 1.04-.74.94.58-.04.9.26 3.83.17 4.49zm.45-5.07h1.88v5.19h-1.41c-.14 0-.24 0-.24-.04-.14-1.7-.24-3.4-.24-5.14zm4.24 0h.47c1.89-.14 2.6.95 2.08 3.35-.09.57-.28 1.14-.56 1.66-.04.1-.23.19-.56.19-.28 0-.61-.07-.94 0-.35.07-.51-.28-.51-.33-.14-1.7.04-3.12.04-4.86zm4.72 10.85v6.6h-.94v-9.44c0-.8-.07-1.18-.07-1.94 0-.14.07-1.1.02-1.24-.37-1.65-.59-2.83-.49-4.95 1.04.85 1.58-.57 1.25 1.7-.05.47-.23 3.607-.23 4.08.19 1.55.33 3.11.47 4.71v.47zM150.86 99.2c-.14-.425-.23-.85-.23-1.32h5.66c1.79.044 8.82-.474 8.96-.474v-8.97c.564.24.706.85.52 1.89 0 .147.47 7.407.47 7.5.33 1.32 0 1.936-.99 1.936-3.585 0-14.383-.52-14.383-.57zm15.8 18.953h-.47v-8.96c-.38-2.592-.52-5.42-.47-8.484 1.04.23 1.41 1.18 1.223 2.83-.19 1.27-.283 2.5-.283 3.77v2.36c-.09 2.92.05 5.61.425 8.01.044.14.044.28.044.47h-.47zm-17.92 11.79h-.47c-.47 0-1.415.28-1.415.47 0 .146-.28.05-.47.47-.047.85-.045 1.418.615 1.65.05 0 .33.05.33.24h1.412c.19 0 .52-.28.61-.425.52-.85.33-1.65-.61-2.406zm8.02-6.602c-2.17 0-6.2.05-6.06.05 0 4.86.02 10.14.16 15.04 0 0-.393 1.47.41 1.33.19-.05 1.1.1 1.244.1h14.61v-16.27c-3.3-.18-6.6-.23-9.9-.23h-.48zm2.583 1c1.13 0 2.707.37 3.79.23 1.32-.09 2.477-.54 3.04.03-.14 0-.703.92-1.172.92-2.64 0-6.03-.28-8.71-.28h-3.4c0 .14-.84.28-.84.47v11.79c0 .15.14.36.14.55.19 0 1.11.14 1.25.14 2.22 0 3.52-.21 5.69-.21h5.18c.19 0 .89.07 1.03.07.19 0 .12-11.5.26-11.5.33 0 .71-.51.85-.33.19.14-.04 12.8-.04 12.8-4.85.28-9.43-.16-14.33-.16 0-.19-.49-.26-.49-.4v-13.89c.19 0 .61-.07.75-.07h5.43c.19 0 1.45-.14 1.59-.14zm5.427 3.25V137h-3.3c-1.23 0-8.49.14-8.49 0 0-3.63.07-7.26.07-10.845h8.42c1.51-.236 2.335.232 3.345.24.185.19-.05.84-.05 1.173zm41.493-25.93h.47c2.22 0 4.39-.14 6.56-.47.05 0 .05-.14.05-.47v-2.83c0-.14-.21-1.12-.3-1.12-1.81-.38-3.09-.052-5.35.18h-1.89c0 1.558.094 3.16.236 4.67 0 .048.09.048.23.048zm3.77-3.7c1.84-.24 2.22-.42 2.08.99 0 .33-.182 1.39-.28 1.39-1.65.33-3.35-.09-5.09-.09 0-.14-.07-1.76-.07-2.23.19 0 3.18 0 3.37-.05zm-135.41 11.9c-.23-.14-.52-.19-.85-.19v5.19c-.18 1.93.05 3.44.66 4.62.05.05.15.1.29.1v-9.43c0-.19 0-.28-.094-.28z"/>
  <path d="M173.722 148.372c-.58-.543-1.204-1.04-1.88-1.5-.143 0-.236-.046-.236-.093-.613-2.13-.498-4.77-.355-7.6.33-.8.25-.9 1.09-.33.05.04 3.61 2.35 3.75 2.35.57.84.76 2.12.57 3.77-.04.61-.09 1.22-.09 1.88 0 .61.05 1.22.05 1.88.04.55-.08 1.27.01 1.37-.03.42-.99 1.48-1.13 1.53m-.14.98c.97.49 2.95.93 2.95.98 2.55-.33 7.49.07 10.32.07.19 0 15.38-.12 19.63-.12l19.46.09c3.78 0 12.54-.89 12.73-.94.29-.1 6.27-.14 6.27-.28 1.6 0 4.77-.05 4.77-.19.94 1.03 3.64 1.81 4.77 3.09.14.14 6.62 2.84 10.01 4.21 2.64 1.08 9.92 6.36 11.04 6.73 1.13.37 7.76-.51 12.34-.37 2.07.04 4.1 0 6.13-.15.14 0 .33 0 .52-.05 1.56-.15 3.07-.33 4.58-.66.1 0 3.72-.14 3.63-.43-.05-.19-4.01-.76-4.01-.76-1.74-.19-6.27.23-6.6.23h-.47c-4.05 0-12.54.47-12.73.47h-2.36V150.4h10.85c.19 0 7.55.43 9.43.24.15 0 1.75-.47 1.7-1.18-.04-.14-.09-.232-.28-.28-2.97-.142-5.94-.28-8.91-.47-3.72-.19-7.63-.282-11.83-.19V125c0-4.1.47-18.246.47-18.39V52.44c0-.19.05-12.447.62-14.097.43-1.368.24-2.122-.61-2.405-.19 0 .19-.052 0-.052-2.36 0-1.04.002-3.394.002h-.47c-3.44-.142-5.57-.374-8.45.05-.19 0-2.81.352-2.994.352-2.36 0-3.17.07-5.53.07h-12.3c-3.77 0-11.6.472-11.783.472H204.2c-1.554 0-8.77-.473-10.842-.473h-.472c-.757 0-2.36-.24-2.36-.24-2.03-.19-4.055-.24-6.13-.24h-22.63c-.14 0-11.6.47-13.203.47h-54.7c-9.24 0-31.92.47-33.95.47H41.5c-1.887 0-16.315.47-16.503.47H19.8c0 .08-1.332.33-.574 2.59.2.08.216.11.415.19.07 2.68-.44 8.86-.44 9.05v5.66c0 .14-.94 19.33-.94 21.21 0 .14.1 4.85.24 7.02l.31 61.45s.63.28-11.37.6H5.55c-.14 0-.28 0-.47-.05-.85-.05-1.46.14-1.887.52-.19 1.32.424 1.79 1.933 1.46.14-.05.283-.05.424-.05h11.78c.097 0 1.87.47 1.87.66v7.1c0 2.35.08 4.73.198 7.09-.253.09-1.013 1.12-1.013 1.12-3.112.14-9.43.47-9.43.47-1.556.14-5.045.23-5.187.23H2.356c-.142 0-.283 0-.472-.05-.848-.05-1.46.14-1.886.52-.047 1.18.566 1.6 1.886 1.41h.472c1.745 0 3.47-.36 5.167-.36h.47c4.245 0 10.875-.77 11.017-.77 3.72-1.2 7.69-3.2 11.086-4.42.283-.1 5.547-2.48 7.788-3.79 2.526-1.47 4.28-2.81 5.263-3.02.982-.21 3.78-.12 9.605-.47 1.895-.14 5.63-.37 6.244-.42 3.018-.09 3.75.31 6.674.12 5.517 0 10.9.4 16.37.4h.47c7.734 0 24.126-.2 26.52-.05 1.124.07 1.826-.42 3.3-.77 0 0 4.84-4.28 5.47-4.56 1.025-.46 7.124-.07 8.49-.07 4.434 0 12.42.14 12.42.14.66 0 27.704-.21 28.647-.21h.472c1.34 0 3.08.84 4.42 2.24 1.33 1.41 1.74 2.35 3.09 3.09zM41.24 137.44v15.09c-.897.33-1.746.707-2.5 1.132-.377.188-.754.378-1.084.567-1.084.56-2.263 1.03-3.536 1.41-1.038.28-1.933.7-2.735 1.18-.99.61-2.027 1.18-3.206 1.65-1.97.83-5.31 2.09-7.64 2.96.08-.41.13-.84.1-1.23-.14-2.97-.24-5.94-.24-8.91 0-1.13-.13-4.04-.03-4.02 0-1.4.02-3.98.02-3.98.19-.64.22-1.45.1-2.39-.05-.66-.1-1.27-.1-1.89v-7.07c.19 0-.24-14.62-.24-14.67-.14-2.03-.24-4.06-.24-6.08V86.23c0-.47.33-16.928.23-18.437-.14-2.12.23-10.043.23-11.74 0-.188.81-9.95.57-11.6-.09-.61-.07-3.03.07-3.86 2.78 1.156 5.21 2.28 7.93 3.54 2.12.99 4.19 2.027 6.22 3.11.61.332 2.04.903 2.84 1.14.37.14.07.04.45.182.84.378 1.36.943 1.6 1.697.14.426.19.897.19 1.37v60.82c0 2.5.33 7.543.47 7.543v6.13c0 2.026.09 4.055.23 6.13 0 0 .24 3.11.24 4.714v.47zm.903-11.314c0-.19-.235-1.414-.235-1.464-.142-1.84-.235-3.725-.235-5.61V51.158c1.22-.66 1.693.14 1.46 2.357-.05.142-.05.283-.05.472v65.067c0 1.558.095 3.115.236 4.67 0 .046.23.802.23.99 0 1.555.33 4.715.47 4.715 0 .14.33 4.81.33 4.85 0 .61-.05 1.18-.09 1.79-.05.14-.05.28-.05.42-.14 1.22.11 1.3-.69 1.17l-1.15-.07c-.15-3.64-.24-7.9-.24-11.48zm56.58-72.612h-5.657c-.142 0-6.884.472-7.073.472H77.5c-3.112 0-14.476.47-14.617.47h-6.6c0 .143-8.96.944-9.902.944h-.47c-.28 0-.47-.042-.47-.09-.33-1.696-.47-3.394-.47-5.092h3.3c.19 0 6.79-.094 9.9-.235 0 0 3.44-.33 5.19-.472 0 0 4.39-.23 6.6-.23h8.96c3.21-.47 6.65-.61 10.38-.47h.47c3.16 0 6.32.05 9.43.24v.24c0 .14.1 3.35-.47 4.25zm.94 8.486v3.775h-5.656c-.14 0-2.6.35-2.787.35-3.776 0-9.288.122-9.476.122H76.56v-6.13c0-1.414-.14-3.11-.14-4.524 3.488 0 11.785-.19 11.927-.19 2.216 0 9.29-.47 10.373-.47h.47c.356 1.057.475 1.72.38 3.23-.14 1.27.093 2.566.093 3.838zm-25.46-6.6c.708-.188.99-.046.99.473-.047.14.163 1.475.163 1.664 0 .283-.07.402-.07.732v.47c0 2.64-.14 4.34-.14 7.03v.47h-1.178c-.142-3.63.044-5.79.044-9.37.19 0-.16-1.55.196-1.48zm-1.064 6.793c0 .943-.07 1.885-.07 2.828 0 1.6.3 1.3-.45 1.27-.2 0-.73-.02-.73-.06-.33-1.51-.05-3.13-.05-4.69V55.4c.18 0 1.4-.164 1.5-.116.04.094-.12 1.17-.12 1.36-.21 1.43-.09 5.092-.09 5.547zm-2.8 1.317c0 1.63.26 2.716.12 2.716-1.51.095-6.16-.263-6.26-.263-1.75-.85-3.44-1.698-5.09-2.546-.71-.423-6.65-4.433-8.4-4.998-1.08-.33-2.07-.9-2.92-1.61 4.48-.76 9.34-1.04 14.62-.95h8.01v5.65c0 .61-.19 1.36-.09 1.98zm-24.48-6.034c.04.047 2.97 1.18 4.19 1.886 2.69 1.65 5.57 3.16 8.58 4.526 1.32 1.038 4.71 2.64 4.71 2.83-.14 0-.33 0-.47.046-2.22.425-7.55.66-7.55.66-1.89.14-3.77.237-5.66.237H44.5V57.29c.472 0 .943.045 1.368.187zM57.74 68.32c1.51-.14 9.054-.66 11.27-.66h14.15c.188 0 2.084-.14 2.226-.14 2.83 0 3.903.045 6.732-.095 0 0 1.604-.236 2.358-.236.188 0 3.914-.43 5.66-.24v1.33c-.284.14-1.597-.05-1.927 0-1.56.09-2.34-.02-3.95-.02 0 .14-4.18.33-6.39.33H77.03c-2.642 0-4.91.14-7.596.14 0 .14-4.193.33-6.08.33h-.47c-1.887 0-5.66.23-5.66.23-1.555.14-3.11.23-4.714.23h-5.184c-1.322.23-1.914.12-2.83-.05.187 0-.09-.75-.09-.9 4.527.09 9.33 0 13.34-.29zm45.03 44.134c-.048.14-.048.282-.048.472.19 4.242.235 8.485.235 12.73v.943c0 .14.566 4.71.66 6.6.142 1.46-.094 2.59-.66 3.3-.14 0-.586.07-.586.07-.18-2.97-.07-5.87-.35-8.56v-.47c0-1.13-.23-3.3-.23-3.3-.14-5.99-.23-11.98-.23-17.92 0-2.22-.1-4.39-.33-6.56-.19-1.7-.24-3.58-.15-5.71V68.13c0-3.772-.49-15.263-.49-19.035.19 0 1.38-.14 1.53-.14.19 4.526.03 16.957.27 21.532.43 8.722.36 17.87.22 27.348-.05 2.828-.09 5.656-.09 8.485v2.356c.28.853.38 2.128.28 3.778zm-38.946-9.43v-8.488c1.41-.14 1.71-.488 1.46 2.36 0 .14.042 5.8.19 8.438 0 .046.23 4.432.23 6.648v9.9h-2.13c.18-.718.31-1.995.293-4.242-.037-4.902-.046-9.76-.046-14.615zm.87-10.59c-.1-.095-1.62-.63-1.62-.91 1.18-.71 2.668-1.062 2.526-.072 0 .565-.016 1.453-.91.982zm6.67 30.39h.47c2.216 0 11.316.144 11.316 0h9.902c2.072 0 3.96-.092 5.703-.328 1.84-.235 1.865-.115 1.74 1.18-.19.14-.986.093-1.316.093H77.97c-.473 0-3.855.05-5.74.05-.142 0-2.037.14-2.227.14-1.7 0-3.096-.14-4.84-.14-2.83-.19-5.587.13-8.417.09-3.11-.1-6.678.26-9.543.14-2.213-.09-2.244.18-2.244-1.23h26.41zM69.12 86.33c.112 1.578 1.543.58 1.685 1.192.047.33-.374.793-.562.983-.14.14-.4 1.466-1.824-.28-1.43-1.748-.71-1.614.59-5.476.87 1.89-.04 1.61.1 3.58zm4.91-2.876c-.14 0-.84.77-1.543 1.192-.12.073-.643-.67-.643-.482-.14-.19-.802-1.603-.707-.048 0 .19.047.377.14.566.755 1.745-.606 1.683-.848.896-.61-1.984.16-3.738.16-3.878.99.093 3.37-2.176 2.87-.773s.56 2.337.56 2.527zm-.91 2.314c.54-.636 1.052-.35 1.192.492-.284 2.168-2.126 4.583-2.316 4.77-1.403 1.544-1.82 2.89-2.84 3.27-1.02.38-.282.188-.565.094-.56-.143-1.38-.165-.99-1.274.4-1.107 4.98-6.716 5.52-7.352zm20.036 21.026c-.047.613-.566 1.65-.66 1.7-.236.092-.378.14-.378.092-.283-1.98-.47-4.007-.47-6.035v-1.88c.895.24 1.225 1.04.99 2.36 0 .15.707 2.27.518 3.77zm-2.923-8.486v.472c.188 1.886.376 3.77.66 5.61.047.19.283 3.96.283 5.706.707.376 1.84.376 3.348.047.14-.047.283-.047.424-.047h5.657c0 .14 0 .282.048.472.188 1.318-1.934 1.65-1.934 1.65-1.75.14-3.45.235-5.19.235h-.47c-2.08.093-6.13.707-6.18.707-1.7.472-2.45-.387-1.98-2.274.47 0 1.08.153 1.55.153.18 0 2.31-.62 1.6-1.99-.1-.28-.19-.52-.29-.85-.28-2.24.15-2.59 1.43-2.59 0 0-.73-2.51-1.11-3.92-.33-1.27-.43-2.88-.24-4.81-.66-.38.99-1.09 1.03-1.42.28-1.09 2.26-2.22 2.26-2.36h6.6c.8 0 1.55.05 2.31.23.04 0 .04.04.04.23v4.48c-3.3.14-6.6.23-9.9.23zm10.373 8.015c0 .285 0 .472-.047.472-1.84.33-3.73.47-5.62.47-.29 0-.47-.045-.52-.14-.52-1.695-.8-3.534-.9-5.516 1.18-.43 2.59-.62 4.24-.52.19.04.33.04.47.04 1.84-.24 2.54.7 2.12 2.83 0 0 .23 1.55.23 2.36zm-.943 1.367c.188.047.33.047.472.047.707-.187.99-.047.99.472-.047.28-.047.47-.094.47-2.02.28-4 .47-6.08.47-.14 0-.28 0-.42.04-.7.14-.99 0-.99-.52 1.56-.85 3.59-1.18 6.13-.99zm-3.065 25.98s-.257.84-.115.84c.236.708-2.22.056-2.74.198-.297.027-.445-.188-.21-1.98V126.6c1.933-.523 3.227-.12 3.18.5 0 .142.07 1.756.07 1.945 0 1.697-.326 2.88-.185 4.624zm-.236-8.25c-4.055.14-8.157.235-12.26.235-1.555 0-3.1.264-4.666.282-4.225.047-2.97-.188-3.347-1.225 2.35 0 4.71.047 7.07.187.14.04 6.13-.05 6.13-.19h10.37c.18 0 .8 0 .89.09l.28.7c-1.42.14-4.48-.09-4.48-.09zm-4.715 1.414v7.776H89.29c-.472.047-.472-1.27-.472-1.414 0-.472-.236-1.414-.236-1.414-.14-1.746-.235-3.35-.235-5.046 1.132 0 2.216-.093 3.3.096zm-4.244 7.307c0 .15-.187.57-.234.62-.52.52-1.47.33-2.13.33-.29 0-.61-.42-.61-.47-.29-2.78-.33-5.18-.33-8.01h1.88c1.04.38 1.39.2 1.36.91-.05.15.05 5.36.05 6.63zm-4.22-1.42c.14.24-.21 1.81-.4 2-.518.66-1.415.62-2.924.38v-8.49h1.41c1.46-.05 2.03.24 1.74 2.18-.24 1.37.16 3.85.16 3.95zm-4.69-.93c.612 2.36-.047 3.44-1.934 3.3-.15 0-.24 0-.24-.04-.14-.75-.24-1.55-.24-2.31v-5.66h.47c.19 0 1.24-.07 1.38-.07.75.17.5 4.13.5 4.32 0 .15.04.29.04.48zm19.284-2.36v-2.83h2.828c-.046 1.93.388 5.4.237 6.94-.16 1.63-2.594.89-2.594 1.08h-.235c-.142-1.6-.236-3.15-.236-4.71v-.47zm2.83-8.49h-.944c-.142 0-.236 0-.236-.04-.14-1.55-.236-3.11-.236-4.66v-2.83c1.47-.04 2.03.9 1.75 2.88-.19 1.51-.33 3.07-.33 4.67zm-2.69-3.25c.237 1.09.33 2.12.33 3.26 0 .14 0 .24-.046.24-2.26.71-3.15 0-2.78-2.12v-5.66c2.17-.42 3.02.52 2.55 2.83-.09.62-.09 1.09-.04 1.47zm-3.677 3.73h-.707c-2.216.34-2.36-.07-2.548-.07 0-.19-.28-3.55-.28-3.7v-4.24c1.838-.42 2.922-.1 3.252.94.047.14.047.29.047.48-.14 2.55-.094 4.72.236 6.6zm-4.667-5.18c.14 1.42.47 4.76.565 4.81.047.1.095.19.095.38v.48h-2.83c-.14 0-.234 0-.234-.04-.14-1.69-.24-3.44-.24-5.14v-2.35c.19 0 .47-.33.47-.47 1.51-.37 2.21.1 2.17 1.42-.05.28 0 .61 0 .94zm-4.265-1.77c.565.52 1.012.13.917 1.5 0 .14.047 3.91.047 4.05.283 1.7.14 2.12-.52 1.23-.035-.05-.55.51-.234-.75.308-1.23-.21-4.79-.21-6.01zm-6.438-6.62c-.613-.23-.943-.14-.943.38.047 1.23.094 2.5.235 3.73.095 1.36-.66 7.26-.66 9.47v.48H71.37v-5.66c0-.47.472-4.1.472-4.24v-4.24h3.3c.613-.05 1.038-.19 1.32-.56.047-.09 5.28-.99 5.28-.85.897.24 1.604.61 2.122 1.18.19.14.236.38.236.71v7.07c0 1.23.047 2.5.19 3.73.093 1.36-.095 2.31-.662 2.87h-1.41c-.756 0-2.36-.28-2.454-.42-.47-.75-.613-1.89-.377-3.35v-7.07c0-.94-.33-3.11-.517-3.21zm-1.792-6.6c.142-.09.283-.09.425-.09-1.18 1.04-3.772 3.16-3.772 3.3 0 0-.94 1.56-.94 1.89 0 .14-.28.47-.47.52-.99.19-1.6 0-1.88-.52.19-.14.33-.28.52-.37.14-.09.29-.09.43-.09 1.21-.48 1.19-.92 1.37-1.46.05-.09.05-.28.05-.42 1.04-1.32 2.45-2.26 4.29-2.73zm-.52-1.5v-2.36c.85-1.22 1.18-.75.99 1.42-.045.14-.045.33-.045.47 0 .14 0 .24-.095.29-.236.09-.52.19-.85.19zm4.527-15.6c-.047-.14.047-.19.142-.19.494.08 1.125.35 1.014 1.14-.2.42-.43 1.31-1.2 1.46-.06.01-.12.02-.19.04-.7.14-.99 0-.99-.52.99 0 1.37-.61 1.23-1.93zm-.95-2c1.123.07 1.825-.35 2.808-3.01 0 0 .21 1.41.35 2.39.142.98.145 2.34-.28 2.67-.236.14-.157-.95-1.263-1.12-1.106-.17-1.66-.75-1.614-.91zm1.333 5.36c.913-.25 1.282-.97 2.526-2.06 1.245-1.1.702-4.84.702-4.98.77.42 2.666 1.61 3.415 3.49l-.14.28c-.47.66-.94 1.14-1.51 1.37l-.18-.38c0-.09-.09-.09-.28-.09-.89.8-1.55 1.89-1.93 3.25-.42 1.42-.7 1.61-.89.52-.14.14-.28.33-.42.47-.47.76-.94.71-1.37-.04-.37-.75-.89-1.37-1.51-1.84.48.03 1.12.02 1.61.02zm7.017 1.94c.28 1.4 1.333 3.37 1.333 3.37-.14.05-.654.68-.702.5-.52-1.13-2.526-2.1-1.824-5.75.302-1.57 1.708-3.43 1.614-1.54-.047.33-.7 2.04-.42 3.44zm1.276 2.76c1.32.05 3.63-.47 3.78-.47h6.13c.19 0 .29 0 .29.1.14.24.19.38.14.38-2.45.29-4.95.52-7.45.66-1.36.1-2.31-.14-2.87-.66zm-8.5 1.87c.38-.56.65-.63 1.27-.77.47-.14.89.48.85 1.05-.07 1.68-1.05 1.68-2.13.68-.09-.14.22-.82.03-.96zm.62 6.99c-1.72.34-1.72-.03-1.54-.84 1.14 0 1.65.15 2.26-.32.19-.09.57-.76.52-1.09-.14-1.32.19-1.65.99-.94.19.14.43 1.04.29 1.27-.66 1.04-1.24 1.56-2.7 1.89 0 .02.09.03.2.04zm.37-3.55l.26 1.15c-.68.81-1.6 1.32-2.17.14 1.09-.04 1.35-.17 1.91-1.29zm-1.43-.17c-.71.85-.99.52-.94-.9v-.95c1.23.47 1.56 1.09.95 1.84zm-.47 4.76c.19 0 3.46-1.22 3.46-1.37-.02 0-.07.01-.13.02.4-.14.76-.32.98-.58.71-.84.56-2.17.38-2.27-.28-.19-.95-1.1-1.28-1.24.19-.14 1.57-.54 1.76-.49 1.33.35.99 1.59.98 2.11-.07 3.37-2.67 3.23-4 3.93-1.33.7-1.68 3.16-1.68 3.3-.14 0-.7-.77-.7-.77.5-1.33.27-1.69.27-2.63zm4.58-10.63c-.24-2.36.98-3.52 1.23-4.24-.15 1.23-.4 2.81-.17 3.62.56 1.97 1.34 3.09 2.25 3.72l-.7.85c-.42-.47-2.1-.84-2.59-3.93zM82.2 92.6c-.14.49-1.19.654-1.19.98-.84-.28-1.91-1.46-2.38-2.593-.29-.8-1.24-2.052-1.75-3.02-.5-.94-1.29-2.412-.75-2.36.54.05 2.597 1.51 3.35 2.783.66 1.22 2.878 3.72 2.737 4.21zm-4.08 10.95c0-.61.36-2.896.36-3.51.28-1.47.14-5.25 0-6.805-.14-1.84.466-.266.84.913.286.85.05 4.33-.043 5.18-.047.28-.047.566 0 .895.33 1.65.26 5.218-.445 5.925-.14.14-.655.21-.84.07-.14-.14.14-2.335.14-2.666zm6.01.445c-.81.677-.69 1.144-.74 1.24-.42.66-.53.128-1.613.174v-.48c0-.33-.02-.83.52-1.32.538-.49 1.565-.96 1.8-1.06.096-.05 2.478-1.03 2.808-.56 0 0 .19.75 0 .84-.75.24-1.954.47-2.77 1.15zm.47.47c.618-.66 1.42-.99 2.36-.94l-.14.38c-.23.516-.51.94-.94 1.27-.23.14-.47.234-.8.234-.47.05-.66-.29-.47-.95zm2.216 3.916c.047 2.36-1.27 1.59-1.67 1.35-.472-.23-.12-2.05-.07-2.9 1.318-.23 1.707.04 1.737 1.56zM99.9 90.06c-.71.707-1.887.943-3.538.707-.142 0-4.338.707-5.187.567-.33-.095-.472-.142-.472-.19-.047-.423-.095-.85-.14-1.224-.143-.33-.19-.755-.143-1.273.047-.235.047-.47.142-.753.33-1.605.236-2.877-.33-3.726-1.368-2.735-3.537-4.715-6.507-5.894-.943-.376-1.604-1.084-1.98-2.123-.896-.52-2.17-.66-3.772-.52-.283 0-.472 0-.472-.04-.33-1.84-.47-3.68-.47-5.56 2.55 0 7.55-.33 7.55-.47h9.9c1.61 0 3.16.1 4.72.29.52.05.81.61.76 1.6-.04.15.05.29.19.48v17.44c0 .28-.05.52-.23.71zM80.766 79.312c-1.228.036-2.456-.21-3.157-.77-.47-.143-.4-.744-.21-1.403 1.88-.85 3.93-.43 4.21.7.28 1.12.38 1.44-.85 1.47zm1.403.562c.09.046-.14.773-.99 1.124-.84.35-2.21.18-2.53.07-1.19-.42-1.21-1.1-1.63-2.09 1.84 1.177 1.91 1.036 5.14.896zM77.89 81.7l1.237.625c-.235.52-.602.656-1.026.987-.23.14-.44.982-.77.982 0-.982-1.59-4.11-1.4-4.772.63.914.84 1.686 1.97 2.177zm-1.473 2.033c.188.943-.014 1.688-1.193 1.124-.094-.096-.538-1.354-.55-1.636-.082-1.73 1.46-1.04 1.743.52zm-.8 4.673c.098 1.08.59 1.29 1.083 1.273.047.09.566.14.566.18 1.115 5.93-.606 1.1-1.832-.17-.047.85.7 3.05 1.03 3.47.047.14.802.99.613 1.83 0 .14-.424 1.79-.99 1.88 0 .14-.282.8-.47.94v.94c0 .14.046.33.046.47.188.85.047 1.32-.52 1.41 0-.14 0-.33-.093-.43-.377-.66-.858-2.01-.377-2.87.48-.86.612-.38.85-.62.045-.05 1.174-.88.332-2.85s-.21-1.05-.982-2.17c-.772-1.12-1.05-1.35-1.614-1.44-.28.46.97 2.44 1.4 3.33.35.91.21 1.35.21 1.82-.05.9-.75.64-1.15 1.44-.4.8 0 1.74 0 1.89.33.33.47 1.74.47 1.88s0 .33-.1.43c-.29.61-.76 1.08-1.32 1.46 0 .143-.28.942-.47.942 0 .14-.05.28-.1.38-.9 1.13-1.46 1.175-1.79.09.56-.094.56-.35 1.41-1.415.85-1.06 1.65-1.46 1.27-3.3-.05-.33-.14-.61-.33-.94-.14 0-.28-.044-.43-.094-.71-.188-1.04-.755-.99-1.79.52.05.94-1.275.94-1.416-.14-.8-.86-1.24-1.38-1.66.19 0 .47-.47.56-.56.04-.05.28-.42.28-.56.85.23 1.38 1.27 1.42 2.31.04.61-.1 1.08-.43 1.41v.47h.47c.33-.33.47-.8.42-1.41.06-2.363-.56-2.38-1.13-3.42 0-.184.28-.63.42-.63 0-.19.28-.522.28-.67 0-.19.7-1.08.7-1.22.79-1.006.61-1.085.71-2.03 0-.05 1.51.05.94 1.37zm-6.13 26.405h.942v7.08l-.59.21c.09-2.73.21-5.3-.36-7.28zm-.472-.61c-1.038 0-1.508-.28-1.556-.84-.24-2.31-.33-4.67-.33-7.02v-8.02c1.88-.14 2.54.95 2.02 3.3l-.29 1.37c-.05.19-.14.38-.33.52v.47c0 .15.04.33.04.47.19 1.04.04 1.61-.52 1.89-.19.85-.1 1.32.47 1.37.19.05.33.05.47.05h1.41v5.66c-.09.52-.56.8-1.41.8zm0 7.22v.48h-.472c-.33 0-.47-.04-.47-.09-.33-2.12-.473-4.34-.473-6.5v-.47c1.46-.05 1.607.55 1.277 2.53-.188 1.23.138 2.81.138 4.08zm-.878-25.26c0 .15-.395.51-.584.6-1.273.28-1.545-.45-1.45-1.58 1.23-1.29 2.034-.67 2.034.98zm7.123 39.12c-.14.14-1.36.03-1.36-.02-.28-2.64.02-5.05.02-7.69 0-.18.193-2.5.21-2.64.07-.54 1.158-.34 1.265.23.105.58.174 3.15-.062 5.23-.094 1.09.115 4.72-.073 4.9zm-29.854-10.14c.094-.04 6.164-.28 6.164-.42 3.63 0 12.73.14 12.73 0 2.83 0 6.08-.23 8.908-.04l-.14.9c-3.584.14-7.285.24-11.126.1h-6.6c-2.028 0-9.288.94-10.183.42.61-.05-.14-.7.24-.94zm27.38 2.41v7.55c-.235.52-2.356.47-2.356.43-.283-2.78-.47-5.61-.47-8.44h2.356c.19 0 .47.29.47.47zm-3.488 5.14c.33 1.93-.306 2.6-1.065 2.67-.33.03-1.852-.03-2.04-.09-.428-.14-.242-1.81-.006-3.46v-4.71h1.886c.142 0 .61-.07.752-.07.566.38.474 1.25.38 2.43-.143 1.08-.096 2.16.093 3.25zm-4.29-.94c-.23 3.74-.87 3.4-3.085 3.07l.02-4.43v-3.3c2.122-.56 3.064-.23 3.017 1.25-.048.15.095 2.65.047 3.42zm-6.716-5.14c1.792-.23 2.78.15 2.59 1.62-.136 1.05.258 4.46.164 4.65-.188.52-.248 2.23-.248 2.42-1.642-.11-2.674.33-2.674-.19.047-2.83.117-4.67.117-7.5.15 0-.09-.98.06-.98zm-1.017 7.08c0 1.42-.943 1.89-2.876 1.42v-8.01c2.12-.56 3.13-.02 2.87.98-.05.15-.05 1.2-.05 1.39 0 1.42 0 2.83.04 4.25zm-4.15-1.83v.47c0 .29.047.62.095.95.188.85-.07 1.6-.636 1.69-1.65.38-3.183.04-3.37.04v-7.91c1.65-.23 2.314-.12 3.957.12.05.05-.18.63-.18.82 0 1.42.14 2.41.14 3.83zm-7.213-4.76h2.356v8.02h-2.59c-.14-2.68-.237-5.37-.237-8.01h.48zm-.28 9.27c-.044.01 4.386-.05 5.937.02 2.07.09 4.1.14 6.13.14h10.37c2.54 0 10.84-.47 12.26-.47h5.65c.18 0 4.9-.47 7.07-.47h.47c2.69 0 5.47-.42 8.11-.1.04 0 .35.94.21 1.22 0 .1-.78.05-.78.05-2.5.15-5 .24-7.55.24h-.47c-3.68-.09-7.12.05-10.38.47h-26.4c-2.36 0-7.59.05-9.9.19-1.51.1-.75-.42-.75-1.29zm54.644-36.38c-.095.15-.283.24-.613.24h-3.3c-.473 0-.897.1-1.274.28-1.37.66-2.22.29-2.5-1.22h3.3c.19 0 3.01-.42 4.24-.38.56.05.61.38.14 1.09zM47.326 70.5h10.376c2.357 0 4.715-.095 7.072-.236 0 0 2.5-.236 3.772-.236h7.073c-.1 1.65 0 3.11.33 4.29.52 1.79.23 2.876-.81 3.252-1.28 1.09-2.69 2.03-4.2 2.83-1.46.81-2.74 1.7-3.82 2.83 0 .14-.89 2.34-1.42 3.78v1.413c.33 1.083 0 1.6-.95 1.65-.14 0-.33.044-.52.14-.76.378-1.51.71-2.31 1.038-.19.85-.1 1.37.37 1.6.09 0 .09.1.09.29.56.71.8 1.79.7 3.31-.14 2.22-.24 4.39-.24 6.6 0 5.78-.21 12.96-.22 18.86H59.1s-7.21-.47-10.842-.47H45.9c-.28 0-.61-.05-.894-.14-.19-.09-.284-.19-.284-.38-.14-1.69-.24-3.44-.24-5.14v-12.73c0-6.93-.47-28.62-.47-32.53h3.3zm62.71 80.154c0 .188-.283.47-.472.47H64.3c0-.185-8.298 0-8.487 0h-3.3c-.142 0-5 .47-5.187.47h-3.772c-.472-.75-.377-5.89-.943-6.6v-5.66c2.83-.514 5.99-.653 9.43-.47h26.88c2.22 0 6.61-.33 6.61-.47h3.3c.19 0 4.86-.092 7.07-.234 0 0 4.44-.24 6.6-.24h8.02c.01 3.3.1 12.162-.47 12.73zm.943-21.69v7.544h-6.61v-12.73c0-2.545.09-5.045.23-7.544.09-1.65-.71-12.12-.71-16.03v-6.13c0-9.29-.05-18.58-.24-27.82v-.47c-.14-3.16-.24-6.32-.24-9.43V48.8h7.07v63.654c0 5.328.47 16.03.47 16.03v.472zm5.18 17.447v.48c-.14 0-3.16 2.93-3.44 3.07-.19.19-.33.19-.33.19-.29-3.44-.14-10.32 0-10.32 0-.19.33-.47.47-.47h3.3v7.07zm0-8.95h-.47c-.85.1-2.17-.52-2.31-.56-.19-.09-.33-.23-.52-.38h-.24c-.14-1.74-.24-3.49-.24-5.18v-.47c0-1.41-.24-4.24-.24-4.24-.14-8.34-.24-16.69-.24-24.99V54.47c0-1.272-.07-3.6-.07-4.824.33 0 .68 1.1.92 1.24.09 0 .65.587.65.776.75.846.9 1.157 1.7 1.96.05.092.09.186.09.375v54.22c0 5.47.47 16.788.47 16.978 0 2.168.09 4.382.23 6.6 0 0 .23 3.442.23 5.186v.47zm52.9-68.37c.09 1.7-.24 2.17-1.04 1.42-.9-.19-1.75-.42-2.45-.75-.24-.14-.47-.28-.66-.42-.8-.61-2.36-.66-3.79-1.27-1.56-.14-1.8-.73-1.85-1.72 3.16-.94 9.31-4.38 9.31-4.52 1.03.38.48 1.04.24 2.88-.19 1.28.18 3.13.23 4.41zm-11.41-4.24c-.62 0-1.23.1-1.75.29-.76.28-1.56.19-2.5-.28-.8-.61-1.75-1.08-2.83-1.41-.95-.33-1.19-.52-2.13-.8-.15 0-.99-.39-1.18-.39-.62-.14-1.09-.21-1.42-.69h10.37c2.21 0 4.38-.09 6.6-.23 1.32-.09 3.45.07 4.65.22-.14 0-2.67.84-2.81.94-2.53 1.14-4.43 2.23-5.71 2.88-.61 0-.67-.49-1.33-.49zm.06 2.66c-.14.15-1.6.15-1.83 0-.47-.23-.63-1.57.44-1.79 1.07-.21 2.28.85 1.39 1.79zM146.8 63.2s5.56 1.89 7.45 3.63c.04.097.09.19.09.38-.14 0-.28.05-.38.094-.614.473-3.35 1.37-3.82 1.463-.188.045-.377.14-.566.185-1.13.52-4.665 1.794-4.76 1.84-.235.095-.377.144-.377.144-.28-2.83-.47-5.613-.47-8.44.8.28 1.7.52 2.83.706zm5.83 5.89c.14-.093 2.035-.935 2.18-.935.894.66 1.695.75 2.5.185.232-.14.47-.14.8-.095 2.403.71 4.76 1.417 7.07 2.266.19.14 1.76.99 1.76.99-1.887.15-7.23-.04-7.42-.04h-5.19c-1.224 0-2.5.26-3.722.14-1.505-.14-3.43.12-3.996-.4.71.19 5.356-1.72 6.016-2.1zm13.964-8.95h-22.63c-2.356 0-7.07.235-7.07.235-4.245.14-8.49.232-12.73.232h-6.6c-.285 0-.474-.047-.52-.094-.284-1.7-.356-4.17-.356-5.866.187 0 4.125.583 5.587.347.19-.044 12.73-.044 18.86-.044h16.503c3.776 0 7.548.14 11.27.47.05 0 .05 1.415.05 1.886 0 .143.05.284.05.473-.066 2.8-.375 2.78-2.404 2.36zM116.73 73.3c1.13 0 6.982.018 8.868.018h.472c5.8.143 11.27 0 16.502-.47h.47c-.237.988.363.922-1.896 1.156-1.513.155-6.263.02-6.64.068-.896.143-1.84.19-2.782.19-3.914 0-10.002.117-13.963.306-1.65.046-.84-.33-1.03-1.27zm25.89-5.64c-.115 2.142.046 2.594-.99 2.83-.143 0-.283-.047-.425-.095-1.98-.943-6.07-1.767-8.804-2.002-.14 0-.01-.78-.2-1.675 1.11-.656 1.56-.987 2.43-1.532 0-.093 1.78-1.25 3.19-1.44.38-.093 2.45-1.272 3.3-1.46l.57-.142c.9-.236.88-.092.9 1.273v3.3c0 .14.05.755.05.944zm-6.51-4.574c-.612.61-1.694 1.2-2.543 1.625-.896.48-1.51 1.69-2.62 1.46-1.79-.37-2.032.27-3.022-.11-.142 0-1.195-.33-1.337-.37-2.216-1.27-4.385-2.5-6.647-3.68h3.77c.19 0 5.19-.47 7.55-.47h6.13c.81 0 1.56.05 2.31.19l.29.05c-1.22.48-2.45.99-3.87 1.33zm-5 5.562c-.142.142-1.593.142-1.83 0-.47-.236-.63-1.573.44-1.79 1.073-.216 2.286.847 1.39 1.79zm-.984 1.134c.566.14 1.413.14 1.98-.046.942-.332 2.214-.447 3.534.07 2.093.305 2.453.448 3.302.92.23.14 2.432.843 2.67.984 1.365.66-1.07.334-3.287.24-.472-.046-6.884.425-7.072.425h-6.13c-.61 0-1.224 0-1.883.095-1.332.13-2.955-.064-4.3-.07.944-.114 2.41-.968 2.533-.968 1.717-.75 2.66-.566 3.604-1.084 2.116-.803 3.067-1.132 5.046-.566zm-11.647-7.05c0 .048 2.97 1.297 4.38 1.912.24.14.52.236.71.375 1.37.94 2.83 1.83 4.38 2.64.14.89.51.43-1.04.96-.29-.1-1.15.3-1.44.44-.76.42-1.4.47-2.29.75-1.89.61-5.66 1.84-5.71 1.88-.24.09-.38.14-.38.14-.29-3.12-.47-6.27-.47-9.39.66 0 1.27.11 1.84.26zm24.56 83.197h-25.46v-13.21c-.05-3.26-.19-6.42-.47-9.43V82.74c0-2.218-.42-4.715-.42-6.883.18 0 1.52.02 1.52-.12.66 0 1.58-.07 1.73-.07 3.63 0 10.84-.473 10.84-.473h2.35c.19 0 5.18-.09 7.49-.235.04 0 1.11-.17 1.72-.17.19 0 .68-.07.82-.07 0 .14-.07 2.32-.07 2.5 0 .14-.07 3.15-.07 5.51v.47c0 2.83.09 5.65.24 8.44 0 .04.23 5.09.23 7.59v.47s0 .32.05.47c.18 1.79-2.88 2.21-2.88 2.35-.52-.05-.94-1.42-.94-2.83V78.97c-.15 0-.76-.47-.95-.47-3.11 0-9.9.235-9.95.235-1.51.14-4.95.236-5.14.236-1.41 0-4.11.07-4.29.07 0 1.7-.33 3.38-.19 5.07 0 .05.23 1.28.23 1.94v10.37c0 2.5.1 5.05.24 7.5 0 .05.23 6.32.23 9.48v.47c0 1.56.09 3.11.23 4.67 0 .05.09.05.23.05-.05.85.28 1.32.94 1.36.18.05.33.05.47.05h5.66c2.35 0 10.84-.47 12.73-.47h.47v-4.71c1.51-.23 2.54-.04 3.2.57.04.1.09.19.09.38v20.74c0 2.17.14 4.39.33 6.56.19 1.7-.24 2.65-1.27 2.88zm-1.41-42.44c1.46-.05 2.02.89 1.69 2.88-.19 1.03-.29 2.12-.29 3.25 0 1.22-.14 2.45-.43 3.63-.05.09-.19.09-.48.04-.47-.1-.75-1.79-.75-1.84-.15-2.17-.24-4.38-.24-6.55.19 0 .52-.81.47-1.42zm-10.38-6.6c0 1.88.09 3.77.23 5.61 0 .04.23 4.43.23 6.65v5.65c0 .61.09 1.22.19 1.84.05 0 .33.94.47 1.41l.04.28c-1.32.52-1.84.14-1.65-1.18 0-1.61.04-3.16.18-4.72.09-1.65-.66-4.11-.66-4.25v-14.6c1.37.52 2.5 1.27 3.44 2.21.05.09.19.14.33.14.9.94 1.98 1.79 3.21 2.49.04.05 1.36.23 1.32.8-.05 1.65-1.98.42-2.08.33-.99-.85-1.98-1.47-2.93-2.41-.14 0-1.76-1.12-2.24-1.12-.14 0 .06.84-.12.84zm-10.38 3.77v-7.54h2.36c1.6 0 3.15.09 4.66.28.56.05.8.61.7 1.6-.1 1.55-.19 3.15-.19 4.71 0 2.35.09 4.71.23 7.02 0 .04.56 8.06.71 8.06 0 .61.04 1.22.14 1.84.14 1.03-.1 1.55-.66 1.6-2.17.23-4.34.33-6.56.33-.14 0-.24-.05-.28-.1-.52-1.56-.76-3.45-.66-5.57v-7.07c0-1.27-.47-5.05-.47-5.19zm6.13-8.91c-.28-.05-.61-.05-.94-.05h-5.19v-1.88h5.18c1.27 0 2.5.14 3.68.42.04.04.04.19-.05.47-.28.85-1.18 1.22-2.69 1.04zm-6.13-3.35c-.14 0-.24-.05-.28-.1-.1-.43-.19-.85-.19-1.32h7.54c1.32-.24 2.31-.14 2.97.23.23.14.42.28.56.47.19.14.19.23.19.23-1.98.14-8.91.47-10.8.47zm8.77-4.67c.38 1.74-.52 2.4-2.69 1.93-.29-.1-.57-.1-.9-.1h-5.19v-5.18c1.84-.52 4.05-.81 6.6-.81.66.04.99.28.85.75-.1.71 1.13 2.54 1.32 3.39zm8.49 2.78c-.05.61.18 1.22.18 1.88 0 1.22.09 2.5.19 3.72.09.89-.1 1.22-.57 1.13-.9-.24-1.56-.76-1.98-1.56 1.36-.1 1.58-1.34 1.39-2.85-.05-.34-.07-1.16-.26-1.44 0-.19-.99-1.1-.99-1.25.06.12.41-2.37-1.1-3.91.19-.19.33-.28.52-.38.14-.1.42-.43.42-.57.57-.29.85-.9.95-1.84 0-.05.63.07.86.21.33-.14.31.92.17 2.1-.05.28.38 3.06.19 4.71zm.18 10.37c-.8.8-.81.31-1.84-.47-.15-.29-.66-.38-.9-.57-1.65-1.37-3.21-2.74-4.81-4.15.99-1.13 1.84-1.18 2.64-.24l.47.47c.85.66 1.74 1.32 2.69 1.89.52.33.99.65 1.41 1.03.47.33.52.99.33 2.03zm-2.51-6.79c-.05.14-.94.19-1.27.19-.99 0-1.28-.61-.95-1.89 1.6-.38 2.82.19 2.21 1.69zm-.99-4.1c-.05 0-.1.04-.28.04 0 .14-.05.23-.1.28-2.03 1.04-3.07.33-3.21-2.17.18 0-.02-.47-.02-.61 0-.19.49-.19.49-.33 2.69-.66 3.72.28 3.11 2.78zm-1.22-4.2c0 .14-.05.23-.05.23-1.7.47-2.78.24-3.26-.71-.14 0-.29-.05-.29-.1-.28-.57-.47-1.18-.66-1.8 1.75 0 3.44.14 5.1.42.04.05.09.19.14.52.04.85-.33 1.32-.99 1.41zm.99 19c-.85.28-1.32.23-1.37-.15-.05-.8-.1-1.55-.1-2.35.61.66 1.32 1.27 2.17 1.74.14.09.14.23-.05.38-.14.14-.38.28-.66.37zm.61 8.34c-.1 2.21-.19 4.38-.19 6.6h-.24c-.14-3.16-.24-6.32-.24-9.43.56.52.75 1.51.66 2.83zm-1.42.42c.09 1.51-.09 2.64-.66 3.35v-10.37h.47c.19 0 .28.04.38.09.05.09.09.24.09.38-.14 0-.43 5.32-.28 6.55zm-.66 7.59c2.17 0 4.2.24 6.08.71 0 0 .04.04.04.23-.14.14-.33.23-.52.28-.89.09-1.84.23-2.73.38-1.7.28-2.64-.15-2.88-1.14v-.47zm4.71-.94h-.47v-10.37c.19 0 .8-.47.94-.47.57.85.71 2.12.47 3.77-.19 1.65-.05 2.87.47 3.77 0 .14.05.28.05.42.47 1.93-.01 2.87-1.47 2.87zm6.77-43.64c1.41 0 3.6-.21 5.02-.21h12.73c2.21 0 4.38.04 6.6.23 0 0 .14.47.14.66-1.62.02-2.27.28-3.92.14-.61-.1-1.23-.1-1.89-.1h-8.02c-2.36 0-4.71.05-7.02.19.1 0-3.25.34-3.84-.1.19 0 .19-.68.19-.82zm24.68 4.5c-.19 2.03-.33 4.05-.33 6.13v62.71H153.4c-1.412 0-2.78.09-4.194.33-1.93.28-3.58-1.74-3.58-1.79-.143-2.78-.237-5.61-.237-8.44v-21.69c.8 0 1.56-.09 2.31-.24.05 0 .05-.1.05-.24v-.48c0-3.63-.14-6.72-.14-10.36-.14 0-.14-.49-.33-.49h-2.36V87.46c0-.66-.47-5.99-.47-6.13v-5.65c0-.474.21-.664.21-1.135 4.42 0 7.61-.28 10.16-.28h10.84c2.69-.664 3.91.28 3.63 2.825zm-23.58 36.4c0-.19.14-.89.14-1.03v-8.96c1.03.1 1.43.08 1.06 1.59 0 .14-.12 1.1-.12 1.24v7.08c-.14 0-.28-.05-.43-.1-.55.32-.09.61-.66.18zM131.8 53.05c-.446 0-12.7.49-13.82.21-1.122-.28-4.42-3.79-4.07-4.21.35-.42 17.887-.2 18.314-.28.47-.1 42.1-.21 42.237.21.14.42-3.86 4.28-4.63 4.35-.77.07-37.67-.29-38.03-.28zm42.926 86.02c-.238-.19-.47-.33-.757-.48-.94-.52-1.84-1.08-2.69-1.65-.14 0-.28-.05-.33-.14-.09-.05-.14-.19-.14-.33V54.45c1.6-.943 3.02-1.886 4.24-2.83v.473c0 1.226-.47 7.543-.47 9.43 0 .142.47 13.815.47 17.446v51.87c0 2.16.09 4.38.24 6.55 0 .05.05 2.03-.57 1.69zm.8-91.57h-89.1c-2.5 0-9.24.47-9.9.47h-.47c-3.587 0-17.31.47-17.45.47-.8 0-2.35.23-2.35.23-3.44.14-6.88.24-10.37.24-2.02.14-3.77 0-5.18-.38-.33-.05-.565-.19-.754-.33-1.37-.99-2.926-1.79-4.81-2.41-1.087-.33-2.17-.8-3.3-1.32-.568-.33-1.18-.66-1.84-.99-2.217-1.23-1.75-1.35-4.344-2.29-.188-.05-2.31-.94-2.456-.98-1.27-.09-2.31-.83-2.594-1.82 3.016.04 5.196.01 7.836-.28.19-.05.33-.05.47-.05h17.91c2.55 0 8.82-.47 8.96-.47h28.3c6.93 0 20.746-.477 20.746-.477h75.44c4.572 0 9.145.043 13.672.233 0 0 9.287.28 13.2.47 0 0 1.27.24 1.886.24h16.03c7.405 0 14.808-.1 22.163-.24 0 0 3.77-.23 5.66-.23h.47c2.07 0 10.18-.478 12.26-.478h.47c2.64 0 7.15-.3 9.84-.113v.23c-2.26.85-6.3 2.1-8.47 2.99-2.17.95-4.39 1.75-6.56 2.55-.8.43-1.11.57-2.2.71-.29.05-1.9.71-2.14.85-.9.66-3.21 1.51-3.21 1.51-3.77.14-7.55.237-11.32.237h-2.35c-3.45 0-10.66.47-10.85.47H216.1c-2.03 0-6.41.47-6.6.47h-2.36c-.15 0-5 .47-5.19.47-5.71.24-23.39 0-26.41 0zm59.812 6.81c.06.01 1.1.11 1.24.11 1.69 0 4.48-.33 4.48-.47 2.07 0 4.05.09 6.13.28.52.05.47.48.33 1.47-.097.47.14 1.08.14 1.55v8.02h-.47c-4.528-.14-6.737 0-11.05.19 0-.19-1.687-.05-1.687-.19v-9.43c-.09-1.53-.04-1.74.88-1.53zm11.9-1.4c-.05.04-.24.09-.52.09h-8.02c-1.227 0-3.77.23-3.77.23-2.69.14-5.327.23-8.017.23h-.47c-1.88 0-10.98.47-13.67.47h-.47c-2.73.05-13.01.95-13.2.95-.28 0-.94.24-.94.24-3.44.14-6.88.232-10.37.232v-5.65h.48c.19 0 5.66-.33 5.66-.47h2.36c1.89 0 5.66-.33 5.66-.474h1.42c1.75 0 3.44-.093 5.19-.234 0 0 8.48-.57 8.48-.71h11.78c.19 0 7.4-.47 10.85-.47.19 0 5.66-.33 7.97 0 .05 0 .05.14.05.47v.94c0 1.41-.14 2.78-.42 4.15zM233.61 63.4c-.21 2.077-.805 2.97-3.35 2.36-1.416 0-2.83.046-4.197.14-1.507.143-2.64-.093-3.346-.61 3.44-2.265 6.11-4.997 9.08-7.73.05-.05 1.596-1.99 1.736-1.99.568.85.032 7.644.08 7.832zm-11.13.73c-.143-2.83-.235-6.244-.235-9.214h.47c2.072 0 6.13-.33 6.13-.47.94 0 1.882-.047 2.83-.19.66-.046.89.096.703.52-.14.236-.33.472-.57.71-2.64 2.733-2.43 3.082-5.54 5.344-.14.14-2.88 2.74-3.07 2.923l-.73.373zm-1.414-1.248c0 .047.237 1.603.237 2.404v.473c-.144 0-.285-.05-.426-.1-1.08-.33-1.363.69-.99-1.1v-9.64h.477c.564.23.707.84.52 1.88 0 .14-.048.28-.048.47 0 1.89.09 3.77.233 5.61zM188.3 56.81h1.414c3.017 0 8.956-.33 8.956-.474 3.207-.47 6.507-.758 9.902-.947h.47c1.745 0 5.187-.33 5.187-.47H218c.566.7.755 1.79.566 3.3-.048.61-.096 1.22-.096 1.88v6.13H218c-2.83 0-11.6.47-13.2.47h-7.075c-.755 0-7.215.47-9.43.47-.285 0-.473-.05-.473-.1-.33-1.7-.47-3.4-.47-5.1V56.8h.95zm8.957 11.125c1.18.044 2.31 0 3.348-.048 2.17-.19 9.714-.708 11.27-.708h14.618c3.912-.19 7.826-.34 11.787-.48.188 0 6.742-.33 9.853 0 .048 0 0 .09-.14.37 0 .05-.283.33-.283.33-1.745.14-3.49.23-5.188.23h-5.185c-1.746-.05-16.974.94-23.104.94h-.473c-.472 0-5.468.47-7.543.47h-6.13c-3.583-.19-6.883.05-9.853.56-1.698.34-2.64-.04-2.877-1.03 2.967-.52 6.268-.76 9.9-.66zm46.207 60.07v-.474c0-.66.07-1.06.07-1.67.942 0 1.814-.16 2.71.03.047 0 .047.05.047.24v10.37h-.94s-1.33.07-1.52.03c-.36-.05-.12-2.85-.12-2.85-.18-1.88-.23-3.77-.23-5.66zm-12.26-3.3h-1.415c-1.23 0-3.4.373-3.54.42-.81.093-3.03.164-3.79.307-2.47-.114-1.87-.21-2.11-1.2h3.3c.33 0 6.13-.474 8.48-.474h.47c3.3-.062 8.65-.09 12.2.147 1.41-.328 2.54.094 3.98.12v.8c-5.85.138-11.74-.117-17.59-.117zm8.086 1.243c.52.38 3.304-.5 3.114.678l.023 4.542c.52.705.474 3.474.286 4.98-.05.614-3.49.274-3.49.225-.19-.893.23-2.71.23-2.71-.19-1.743-.164-6.013-.164-7.712zm-5.257 3.94v-.47c0-.47-.237-1.46-.237-1.46-.14-.753.04-1.274.04-2.03 1.414 0 2.55-.14 3.868.145.095.05.142.19.142.52.234 1.79.376 3.68.424 5.657 0 .473-.06 1.076-.07 1.556-.042 2.236-.023 2.62-.433 2.688-.14.024-3.09 0-3.276.047-.56-.15-.22-1.93-.22-1.93-.14-1.6-.24-3.15-.24-4.71zm-4.576-3.65c.427.1 3.143-.98 2.955.2 0 .14.17 3.05.264 4.183 0 .05.25 3.35.26 3.63.05 1.76.17.7.29 2.18 0 .14-.144.31-.19.31-1.064.38-2.944.27-2.99-.14-.144 0-.028-.56-.028-.56-.14-1.6-.567-8.22-.567-9.77zm-4.148 1.72c-.15-.61-.24-1.225-.24-1.84 1.51-.23 2.12-.114 3.13-.11.18.19.16 1.197.16 1.528 0 1.556.05 3.02.24 4.244.14 1.558.23 3.11.23 4.715 0 .143 0 .235-.05.235-.9.14-1.84.234-2.78.234-.15 0-.24 0-.24-.048-.15-2.028-.24-4.054-.24-6.082v-1.915c-.15 0-.24-.96-.24-.96zm-1.23 2.267c-.05.61.05 1.365.05 2.025v4.716h-2.36c-.29 0-.47-.047-.47-.14-.34-1.18-.48-2.407-.48-3.632v-6.6h2.82c.57.848.41 1.7.43 3.632zm-4.39.088c0 1.557.69 4.733.56 6.33-.07.85-1.69.03-1.69.03-.14-3.77-.31-8.314-.31-12.086 1.03.235 1.69-.647 1.46 1.003-.14.945-.03 3.78-.03 4.724zm.19-7.022h-9.91c-2.03 0-4.06.1-6.08.33-1.65.19-5.71.38-5.71.38-1.42.14-2.83.24-4.24.24h-.48c-.28 0-4.95.52-5.66 0v-.47c1.98-.09 3.86-.23 5.65-.47h1.41c1.6 0 4.71-.33 4.71-.47 3.3 0 12.78-.47 14.15-.47h.94c.19 0 8.67-.47 11.79-.47h19.33c1.65-.42 2.54-.09 2.59.95H234c-2.97 0-5.31.07-8.33.07-.14.01-4.21.41-5.812.41zm-5.68 3.57c.19 0 1.9-.26 2.38-.26h.47c0 1.89.09 3.77.23 5.66 0 0 .19 2.5.05 3.77-.1.99-.99 1.32-2.65.95v-.47c0-3.15-.49-6.52-.49-9.64zm-1.87-1.2h-.47c-.48 0-1.42.24-1.42.24-1.56.14-3.12.24-4.72.24-.14 0-2.04.14-2.22.14-1.7 0-5.7.41-7.54.26-1.7-.09-3.59.17-5.28.36-1.7.19-2.64-.23-2.88-1.22h1.89c2.5.14 11.79-.94 13.67-.94 2.83 0 8.48-.33 8.48-.47 1.6 0 3.16-.05 4.71-.05.52 0 .71.33.47 1v.24c-1.56.14-3.12.24-4.72.24zm1.03 9.46c0 .29-.19 2.09-.28 2.13-1.6.76-3.18-.12-3.18-.26 0-.94-.16-4.72-.16-4.72-.15-1.74-.24-3.48-.24-5.18h.94c2.22-.33 2.46-.37 2.54 1.62 0 .15.37 4.69.37 6.43zm-4.57 1.39c-.19 1.04-1.22 1.32-3.06.94v-9.9c2.22-.33 2.25-.43 2.36.43.09.73.7 8.54.7 8.54zm-4.48.47v.47h-3.53c-.15-3.3-.24-6.6-.24-9.9h2.83c.19 0 .75.07.89.07 0 2.58.05 8.8.05 9.36zm-5.19-4.24v4.72h-2.36c-.66.19-.99.05-.99-.47.04-2.54.04-5.04.04-7.54v-.47c0-.47.14-.87.14-1.34 1.84-.42 2.9-.16 3.09.36.19 1.37.07 3.35.07 4.76zm-7.17-5.04c.47 0 1.5-.14 1.98-.14h.47c0 1.42-.07 1.92-.07 3.33 0 .15.14 2.6.14 2.79 0 1.42-.07 3.13-.07 3.31h-2.36v-.47c0-.19.26-5.5-.1-8.81zm-2.17-7.21c-.05.47.09 1.28-.31 1.41-.85.29-1.01.76-1.67 0v-7.07c1.32-.23 2.11-.15 1.83 1.87-.13 2.68.33 2.29.15 3.79zm.85-5.66h.47c1.46-.04 1.96-.08 1.67 1.9-.24 1.37-.27 3.77-.27 5.18h-1.41c-.15 0-.24 0-.24-.05-.15-2.31-.24-4.67-.24-7.02zm3.7-.26c.66 0 1.34-.16 1.91-.02.04.05.04.09.04.28v7.08h-1.42c-.14 0-.24 0-.24-.04-.14-2.5-.31-4.79-.31-7.28zm6.44 6.68c.42.57-.14.76-1.65.66-.57.15-.97.03-.97-.02-.33-1.36.02-2.8.02-4.22v-2.83h1.41c.19 0 .75.14.89.14 0 1.23.21 2.36.21 3.63 0 .14-.07 2.46.08 2.64zm3.53-.28c.23.66.04 1.04-.43 1.13-1.65.24-2.27-.47-1.94-2.07v-5.19h2.59c0 2.03-.38 6.13-.23 6.13zm1.41-.94v-5.19c1.84-.24 2.43.08 2 2.24-.09.57-.12 1.81-.12 2.47v.95c0 .29-.05.52-.24.71-1.04 1.04-1.6.66-1.65-1.18zM192.77 82.3c.187 1.27.28 2.5.424 3.724.045.66.09 1.32.186 1.93.095.475.095 1.296.095 1.768v3.42c0 .144-.14.426-.14.614-.14 0-.98-.07-1.17-.07-.614 0-.39-.07-1.045-.07V87c0-1.603-.045-3.16-.185-4.713-.048-.142-.66-2.263-1.698-1.415-.144.15-.215 1.06-.4 1.25-.14.15-1.4 1.18-1.5 1.37-.56.5-.31-1.46-.45-3.06.19 0 3.73-1.8 4.39-2.74.1-.05 1.39-1.69 1.39-1.83.192 2.06.15 1.6-.04 3.25-.14.897.07 2.49.162 3.2zm4.48 12.492c.186 0 .33 0 .52-.05 1.553-.095 3.11-.19 4.665-.19 1.1 1.6-.97 1.18-3.3 1.273-2.224.088-3.75.044-5.97.14-.61 0-1.854-.14-2.514-.047-2.5.074-2.93.143-3.31-.895 3.3 0 6.6-.09 9.9-.23zm5.184-3.91c-.38 0-.425.47-.143 1.363.1.287.1.427-.04.52-.47.24-5.51.946-7.82.85V75.67h13.68v5.186c0 1.7.1 3.444.24 5.142 0 .046.71 4.525.71 4.525-1.55.143-3.11.236-4.71.236-.61 0-1.22 0-1.88.09zm.75 10.765c-1.32.708-5.52.854-7.665.78-2.6-.08-2.66-.54-3.88-1.48 1.36-.52 3.67-.332 5.74-.192 1.74.098 4.49-.253 6.24-.16.14.05-.58.916-.44 1.055zm-1.344 3.07c-.02 2.71-.09 2.66-2.716 2.62-1.716-.02-3.715.304-5.083-.025-.05 0-.1-.68-.1-.968v-2.83c2.31-.093 4.06.047 6.18-.096.99-.09 2.09-.02 1.71 1.3zm-9.22-1.372c0 1.557.07 2.318.07 3.875 0 .14-.63.36-.63.54-.143 0-.52.29-.566.34-.09.09-.185.14-.374.14-.14 0-.584.56-.584.52-.142-1.98.116-5.04.116-7.062.188 0 .328.42.47.42.19 0 .283.05.378.1.05.09.99 1.15 1.13 1.15zm.733 5.2c1.033-.234 2.12-.095 3.3-.19h.47c1.413 0 2.06.07 3.472.07h1.1c.99 1.004 2.54.985 2.49 1.785l-1.22.283c-1.13.308-1.93.26-3.44.12-1.28-.093-2.5-.05-3.73.097-2.21.28-3.05-.003-5.17-.337.18 0 2.57-1.828 2.71-1.828zm9.6-1.3c-.238-1.036-.05-3.01-.05-4.095 1.035.236 1.205-2.34 1.41-.68 1.12 9.065-1.13 6.19-1.364 4.776zm1.152-14.92c.33-.33 1.01-.12 1.625-.12h8.96c0 .47-.09.894-.28 1.225-.376.66-1.225.945-2.546.85-1.74-.14-3.44-.094-5.14.14-1.74.236-2.76-.73-2.61-2.096zm30.385-.593v.94c0 2.687.478 9.57.478 10.373v6.13c.19 0 .472 7.21.472 10.84v.47c-1.036-.09-1.32-1.035-.942-2.828 0-.943-.23-3.16-.28-3.348-.566-2.97-.9-10.33-.9-10.38-.14-2.92-.233-5.94-.233-8.91 0-.61-.1-1.13-.24-1.51-.29-.9-.47-1.79-.47-2.74 0-.19 0-.28-.05-.43-.24-.84-1.61-2.16-1.65-2.16-1.51-.33-2.6-.09-3.26.71 0 .14-.47 1.7-.47 2.36v.47c-.14.14-.29.23-.47.23-2.83.14-5.66.232-8.49.28-1.18.05-2.17-1.46-2.36-1.46v-.238c-1.748-.19-3.44-.24-5.19-.24-.144 0-.237 0-.237-.05-.14-2.97-.23-5.94-.23-8.91v-.47c-.19-2.025-.33-4.054-.475-6.13 2.453-1.65 7.546-5.04 7.546-5.184h16.97V85.6c0 2.03.33 6.13.47 6.13zM225.41 114c.66 0 2.028.02 2.028-.12h1.412c.1 2.264.24 4.48.475 6.6v.47c-.14 0-.282 0-.424.048-2.54.62-3.67-.18-3.34-2.4v-.47c0-1.27-.14-2.9-.14-4.12zm-1.41 6.052c.234.894-.19 1.273-1.27 1.23-1.416-.1-1.21-.294-1.416-2.69v-4.717c2.218-.33 2.975-.3 2.85 2.576-.04 1.06-.4 2.75-.16 3.6zm-4.1-7.59h-.474c-1.414 0-.514.35-1.928.35 0 .14-2.316-.067-2.316.122-.14 0-.28 0-.47-.05-.99-.05-1.32-.85-.94-2.31 1.84-.38 3.92-.52 6.13-.48h.48c1.75 0 3.44-.1 5.19-.24 0 0 .24-3.54.24-3.585-.143-2.17-.237-4.34-.237-6.56.045-1.18-.567-1.7-1.89-1.56-1.086.1-2.73.17-3.816.31-3.81-.09-2.84-.08-2.79-3 3.11-.24 6.22-.38 9.43-.48h.47c.85-.24 1.04.02.85.87 0 .14.17 2.23.17 2.37 0 1.75-.07 1.62-.07 3.36v1.88c0 1.89.09 3.77.23 5.61 0 .05.23 1.94.23 2.88 0 .14-.28.47-.47.47h-8.02zm.377 8.417c0-.19-2.737.65-2.737-.05v-6.96c1.84-.24 3.36-.21 2.8 1.91-.19.66.7 4.86-.07 5.09zm-5.33-2.29c-.538-1.7-.283-3.11-.708-4.25 1.41-.14 2.49-.53 2.16 1.16-.09.61.12 2.35.21 2.77.07 1.91.02 2.15-.54 2.86-.52-.42-1.46.88-1.41-.3 0-.14.32-2.11.28-2.25zm-2.122 2.83h-.234c-.14-3.3-.23-6.6-.23-9.9.57.37.39 1.04.64 2.07 0 .14.12.61.22.8.09.09.3.52.3.7 0 .47.14.38.14.85.04.57-.01 1.07.23 1.79.19.37-.02.8.17 1.18 0 2.44.33 2.4-1.23 2.49zm5.19-19.38c1.65-.19 2.83-.31 4.305.12.18.14.09 1.36.14 1.69.04.85-.31 1.65-.28 2.57-.14 0-1.9-.06-2.09-.06-2.36 0-2.83.28-5.18.28 0-.14-.21-1.1-.21-1.24v-1.89c1.74.01 1.7-.21 1.84-1.53 0-.09 1.17.07 1.45.07zm-1.418-8.44c.803-.33 1.745-.52 2.83-.48h8.016c.188 0 .28 0 .28.09.144.24.26.87.214.87-2.31.29-4.737-.02-7.094-.02h-.94c-.28 0-.52.17-.8.19-1.83.13-2.07.52-2.5-.66zm.47 6.13c1.887 0 4.147-.12 5.845.02l-.37.4c0 .7-.23 1.03-.75.99-1.98.09-3.18.04-4.71-.39-.09-.09 0-.89 0-1.03zm4.926 7.78l1.8 1.66c0 .7-3.393.12-3.91.07-1.98.1-4.17.33-5.697-.1-.095-.09-.14-1.38-.14-1.52 1.884 0 6.25-.25 7.947-.11zm1.26-6.14c.828-1.17 1.36-2.36 1.413-.68.278 8.99-.986 7.52-1.433 5.68-.23-1.03.02-3.92.02-5zm4.94-11.04c.058-1.03.5-1.52 1.114-1.62.19-.05.823.16.963.16.19.14.013.12.682.52.67.4.46.26.35 1.17-.1.91-3.16.78-3.11-.24zm.804 14.35c0-.14-.14-1.52-.14-1.67v-9.9h2.36c0 1.55.33 4.71.47 4.71.097 3.06.944 10.51.944 10.84-.1 2.59.16 2.98.54 5.1.19.14.16 2.29.21 2.44.14 1.27.19 2.5.19 3.77 0 .28-.05.47-.15.52-1.56.66-2.46.47-2.69-.52 0-.19-.24-2.36-.24-2.41-.14-1.557-.7-5-.7-5.14 0-.66-.47-5.548-.8-7.766zM210.94 95c1.27 0 2.54.05 3.77.096.56.045.75.47.56 1.32-.05.33-.1.61-.1.942v4.71c-.14 0-.47.238-.47.238-2.5.143-5 .235-7.55.235h-1.41c-.28 0-.47-.05-.47-.09-.28-2.12-.47-4.29-.47-6.51 1.655-.37 6.13-.8 6.13-.94zm-3.3 8.96c1.6 0 2.52-.14 4.08-.14h1.59c.52-.05.21.42.07 1.08-.05.33-.14.47-.24.52-.85.286-1.7.52-2.64.66-2.42.486-3.44-1.04-3.35-2.12h.47zm3.81 3.114c1.04-.19 1.18-.097.47.28-.19.095-.38.142-.57.19-1.46.376-2.55.236-3.25-.285 1.32.05 2.45 0 3.35-.18zm.14 7.464c.05.944-.19 1.49-.19 3.567 0 .752.71 3.676-.47 3.723-.29.05-.48 0-.48-.09-.33-1.18 0-3.96 0-4.1 0-.47.28-1.78.28-2.25.45-2.52.64-8.26.92-3.35.01-.18-.23 2.91-.06 2.52zm-1.46-3.03c-.19 2.4-.33 4.713-.33 7.07 0 1.414-.33 2.45-.99 3.063l-.05-.28c-.1-.89-.19-1.84-.19-2.78.14-1.76.05-1.14.4-3.34.2-1.26.07-2.4.26-3.3.19-1.08.28-2.17.28-3.25.57.52.75 1.51.61 2.83zm38.52-2.83v5.66c-.19 0-.19 6.125 0 6.125-.43.52-1.18.757-2.36.71-1.98-.14-3.96-.238-5.94-.33-.66-.048-1.32-.095-1.89-.144-.24 0-.42 0-.61-.05-1.04-.05-1.37-.9-.99-2.55v-.47c0-1.61-.24-5.19-.24-5.19-.14-3.3-.23-6.6-.23-9.9v-3.3c0-.61.05-1.27.09-1.89.19-1.51-1.04-11.18-1.04-11.32v-7.08c0-1.27.48-6.93.48-7.07v-3.3h11.79c0 8.02.946 33.62.946 34.89-.19 0-.19 5.19-.005 5.19zm-58.46-37.73c.19 0 3.07-.614 4.72-.52.19.05 6.6-.283 6.6-.424 1.89 0 10.14-.423 12.02-.234l-.24.236-.47.47c-.15 0-4.72 3.534-4.72 3.534-2.69.144-5.33.24-8.02.24H188.3c-.285 0-.567-.09-.755-.23-.662-.56-.897-1.6-.662-3.06h3.303zm-3.3 4.713c4.87-.15 1.53 2 1.23 2.36-.94 1.09-1.37-.13-1.22-2.35zm2.6 7.62l.35 2.06c.15 3.02.05 4.66.29 5.87 0 .15-.14 2.11-.14 2.3-.14 0-1.265.07-1.452.07h-1.165c-.14 0-.23 0-.23-.04-.14-2.5-.23-5-.23-7.5.19 0 1.98-2.15 2.6-2.76zm-2.12 13.6h4.72c2.355 0 8.345-.47 8.957-.47h.473c.63.04.935-.19 1.5.19.66.38-.063.72.006 2.18-.048.33-.096.47-.144.47-2.922.33-9.192.47-9.382.47h-4.03c0 .95-.21 1.89-.21 2.83v.48c0 2.5.1 5 .24 7.5 0 .05.1.05.24.05.1.66.57.99 1.42.94h12.26c2.22.33 3.07-.8 2.5-3.35-.14-.47.15-.61.81-.42.85.1 1.32.57 1.413 1.42v3.3c0 .29 0 .48-.092.48-1.51.33-3.02.478-4.62.478h-12.26c-.14 0-.28 0-.47.04-2.5.425-3.3-3.68-3.3-3.82V96.9zm1.41 30.65h.48c.5-.05 1.722-.48 1.742 2.27.02 1.52-.42 3.91-.28 5.51.15 2.12-2.21 1.19-2.4 1.19h-.23c-.14-3.02-.23-5.98-.23-8.96h.94zm-.47 11.32c1.84-.52 4.06-.7 6.6-.56 4.11.19 8.21.38 12.26.47 2.83.05 5.66 0 8.49-.14.19 0 .34 0 .52-.05 1.09-.14 2.17-.19 3.26-.19h5.19c3.59.1 6.89-.04 9.9-.47h11.32c1.84-.42 2.83-.09 3.02.99.1.47-.28.61-1.13.42-.19 0-.28 0-.42.05-.94.33-2.02.47-3.34.43h-6.13c-4.714-.19-14.144-.23-14.144-.23-2.026.15-4.053.24-6.13.24h-20.28c0-.19-5.94-.47-8.96-.47v-.47zm60.4-11.51c0 .15-.05 1.9-.05 2.09v7.07c-.18 0-.21.24-.26.14-.66-.61-.99.2-.75-1.26 0-.19.07-2.5.07-2.64v-6.65c1.04.38 1.37-.57.99 1.27zM177 119.52V68.6c0-1.747.47-15.75.47-19.333H185c1.04.232 1.416 1.18 1.132 2.83-.14.61-.188 1.222-.188 1.882-.142 0-.472 4.99-.472 7.54v38.66c0 4.24.095 8.48.235 12.73 0 0 .235 3.44.235 5.18v6.13c0 4.71.52 15.13 0 15.13-2.83-.05-4.325-.05-7.155-.05l-1.708.21c-.14-6.6-.1-13.41-.1-20.01zm74.02 28.76v2.36h-2.83c-2.36 0-7.08.29-7.08.47h-.94c-1.7 0-5.47.48-5.66.48h-1.89c-1.56 0-7.69.47-8.96.47h-45.73c-.15 0-.24 0-.24-.04-.145-2.78-.24-5.61-.24-8.44v-1.89c1.74-.66 3.77-.993 6.12-.944 9.198.097 18.298.286 27.35.61 3.537.1 6.65 0 9.48-.324 1.697-.19 3.44-.284 5.14-.284h4.714c1.6 0 3.16.05 4.714.24 0 0 2.213.24 3.3.24h7.54c1.464-.09 2.88-.23 4.245-.47h.95v7.54zm.31-11.58c-.1 2.21.21 2.38-.79 2.62h-.24c-.19-3.15-.24-6.31-.24-9.43v-12.73c0-.94-.346-19.08-.47-21.21V47.48c1.034.376 1.46-.644 1.27 1.195-.19 2.026-.33 5.597-.33 7.672V77.09c0 1.416.21 4.584.21 5.998v.472c0 4.998-.16 16.02-.07 17.06.045.43-.074 6.258-.074 6.258.12.337.38 4.35.215 4.728 0 .096.19 5.375.19 6.035 0 .14.47 9.57.47 12.73 0 2.03-.07 4.26-.16 6.34zM278 41.5c-.142 1.51-.118 3.346-.118 4.948v52.81c0 .14-.473 5.8-.473 8.485v33.95c0 .14-.48 6.41-.48 7.544v.473c0 1.414-.43 9.714-.33 10.8.14 1.367.23 1.402-.29 1.97-3.15-2.17-6.42-3.097-10.99-5.556-1.32-.66-2.64-1.27-4.06-1.744-.57-.235-1.04-.378-1.42-.52-2.6-.944-7.22-3.537-7.22-3.537-.19-3.63-.24-7.26-.24-10.844v-11.79c0-4.44-.24-13.21-.24-13.25-.19-1.7-.24-3.45-.24-5.14V47.85c.18 0 1.79-1.086 3.01-1.51.09-.048 4.41-2.194 7.43-2.62 0 0 5.02-2.66 6.06-2.707.19 0 .33-.05.52-.144 1.41-.52 2.78-.99 4.24-1.42 1.46-.43 3.51-1.23 4.83-1.79.51.85.05 2.12-.05 3.82z"/>
  <path d="M194.53 113.578c-.475-.475-1.25-.516-1.897 0-.646.518-1.725 4.656-1.725 5.087 0 .603.905 1.554.82.948-.088-.604.3-3.363.645-3.19.432.217.82.302 1.683-.302.86-.6.948-2.07.474-2.54zm-1.08 1.81c-.447.475-.99.732-.99.732.043-.345.198-2.37 1.508-2.37.303 0 .26.82-.517 1.64z"/>
  <path d="M201.7 118.26c-.52-.084-.773-.166-.52-.372.29-.23.462-.575.892-1.436.434-.863.72-2.025.72-2.33 0-.3-.2-.948-.862-.775-.49.13-1.496 1.217-1.724 2.272-.23 1.06-.173 1.52-.173 1.91 0 .38-.416.38-.56.37-.355-.04-.72-.12-.548-.62.14-.41.46-.66.547-.84.087-.18-.086-.66-.474-.66s-.69.36-.733.79c-.044.43-.173 1.2-.43 1.2-.26 0-.433-.15-.304-.63.12-.45.52-.92.35-1.14-.17-.22-.51-.39-.56-.09-.04.3-.71 1.52-1.12 1.77-.21.12-.34-.22-.3-.61.05-.39.34-1.31.18-1.38-.47-.22-.45.15-.79.07-.39-.09-1.1.44-1.36.83-.26.38-.56 1.48-.04 1.81.44.27 1.23-.45 1.51-.84.26-.36-.06.63.53.71.58.09 1.02-.27 1.11-.62.09-.34.05 1.02.73.98.69-.04.73-.46.82-.68.09-.21.52.51.99.55.48.04.98.01 1.02-.25.05-.26.32.62 1.14.53.82-.09.78-.41.82-.62.05-.22-.31.13-.83.04zm-6.554-1.504c-.054.324-.69 1.12-.86.992-.173-.13 0-.216.17-.518.174-.3.778-.988.69-.474zm5.39.313c-.17-.13.353-1.9.475-2.11.22-.38.32-.7.55-.85.26-.18.49 0 .43.28s-.27 1.02-.47 1.34c-.2.31-.82 1.45-.98 1.33zm6.696-2.42c.136.12.53-.16.56-.55.03-.38-.2-.65-.688-.78-.312-.08-1.566-.15-1.997.24-.432.39-.72 1.13.07 1.81.79.67 1.682.69 2.098 1.38.2.32.03.63-.33.66-.357.03-1.192.08-1.824-.72-.49-.63-.66-.79-.71-1.08-.06-.29-.21 1.1.18 1.79.25.43 1.64 1.23 2.17 1.22.53-.02 1.43-.12 1.4-.87-.03-.75-.11-1.08-1.07-1.92-.96-.83-1.61-.76-1.69-1.25-.12-.67.6-.53 1.02-.45.42.08.69.33.85.47zm1.73 1.16c.163-.07.476.11.433.32-.043.21.187-.48.69-.48s.56.13.645.43c.057.2.197-.02.26-.1.128-.17.432-.45.732-.36.302.08.475.66.344 1.12-.13.46-.235 1.04.016 1.06.373.03 1.048-1.73 1.12-2.1.072-.37.604-.19.575.2-.023.32-.532.96-.475 1.4.058.44-.042.9-.2.83-.16-.07-.13-.27-.245-.23-.086.03-.474.65-.877.6s-.463-.12-.56-.39c-.216-.6.532-2.51.028-2.26-.56.29-.574 2.41-.936 2.47-.496.08-.487-.94-.2-1.31.288-.38.258-1.33-.345-1.04-.34.16-.417 2.29-.69 2.6-.27.32-.55-.6-.387-1.2.29-1.09-.142-1.52.073-1.61zm4.772-.92c-.266-.16-.575-.9-.273-1.25.31-.36.66.18.77.61.05.2-.24.77-.49.63zm1.666-1.05c.127-.18.045-.74-.23-.68-.27.06-.574 1.2-.832 2.04s-.532 2.37-.13 2.81c.273.3.82.34 1.078-.02.255-.36.5-.81.618-.81.286.01.028.76.4.79.375.03.69-1.01 1.064-1.01.246 0 .562 1.44 1.063 1.54.51.1.79-1.44.95-1.87.1-.28-.21.08-.31.16-.1.07-.41.43-.7.41-.2-.01-.27-.62-.66-.72-.4-.1-.62-.01-1.02.27-.56.4-.04-1.12.27-1.42.32-.3.78-1.15.79-1.64.02-.49-.08-.88-.22-.73-.14.14-1.59 3.12-2.01 3.68-.4.54-.9 1.01-.94.5-.06-.6.25-2.24.58-2.25.33-.02.21.14.48-.08.22-.17.78-.85.48-.92-.3-.07-.79.07-.67-.09zm-140.934-.66c-.474-.48-1.25-.52-1.896 0-.647.52-1.725 4.65-1.725 5.08 0 .6.905 1.55.82.95-.087-.61.3-3.37.645-3.19.43.21.82.3 1.682-.31s.948-2.07.474-2.55zM73.39 115c-.45.476-.998.735-.998.735.043-.348.197-2.374 1.51-2.374.3 0 .257.82-.518 1.64zm8.247 2.88c-.517-.085-.773-.167-.517-.373.287-.23.46-.575.89-1.438.432-.86.72-2.03.72-2.33s-.2-.95-.862-.78c-.492.13-1.497 1.21-1.724 2.27-.23 1.06-.173 1.52-.173 1.91 0 .38-.41.38-.56.37-.35-.04-.71-.12-.54-.62.14-.41.46-.67.55-.84.09-.17-.08-.66-.47-.66s-.69.35-.73.79c-.04.43-.17 1.2-.43 1.2s-.43-.15-.3-.64c.12-.45.52-.92.35-1.14-.17-.21-.52-.39-.56-.09-.04.3-.71 1.52-1.12 1.77-.21.12-.34-.22-.3-.61.05-.39.34-1.3.18-1.38-.47-.22-.45.14-.79.07-.39-.09-1.1.44-1.36.83-.26.39-.56 1.48-.04 1.81.43.27 1.24-.45 1.51-.84.26-.36-.06.63.53.72.58.08 1.02-.28 1.11-.62.09-.35.04 1.02.73.98.69-.05.74-.46.82-.68.09-.22.52.5.99.54s.98.01 1.02-.24c.05-.26.32.61 1.14.53.82-.09.78-.4.82-.62.04-.22-.32.13-.83.04zm-6.553-1.505c-.054.323-.69 1.12-.863.992-.17-.13 0-.216.18-.518.18-.31.78-1 .69-.48zm5.39.313c-.172-.126.352-1.9.473-2.113.216-.372.316-.693.546-.847.26-.173.488 0 .43.288-.056.288-.27 1.02-.473 1.335-.2.32-.82 1.46-.977 1.34zm6.696-2.414c.133.123.53-.156.56-.546.028-.373-.202-.646-.69-.775-.31-.082-1.567-.146-1.998.244-.43.386-.718 1.135.072 1.81.79.676 1.682.69 2.098 1.38.198.326.03.63-.33.66-.36.028-1.193.086-1.826-.717-.493-.628-.66-.793-.718-1.077-.058-.288-.216 1.104.172 1.795.247.438 1.638 1.236 2.17 1.223.532-.01 1.423-.11 1.395-.86-.03-.75-.115-1.07-1.08-1.91-.962-.83-1.608-.76-1.694-1.25-.11-.67.61-.53 1.03-.44.42.09.69.33.85.48zm1.73 1.162c.16-.063.474.114.43.33-.042.215.188-.473.69-.473s.562.13.648.43c.056.197.197-.02.258-.102.13-.17.43-.44.733-.35.3.09.47.66.34 1.12-.13.46-.24 1.05.01 1.07.37.03 1.05-1.72 1.12-2.09.07-.37.6-.18.57.2-.03.33-.53.97-.48 1.41.06.45-.05.91-.2.83s-.13-.27-.25-.23c-.09.03-.48.65-.88.61-.4-.04-.46-.11-.56-.39-.22-.6.53-2.51.03-2.25-.56.29-.58 2.41-.94 2.47-.5.08-.49-.93-.2-1.31.28-.37.25-1.32-.35-1.03-.34.16-.42 2.28-.69 2.6-.27.32-.55-.6-.39-1.21.29-1.09-.14-1.52.07-1.61zm4.77-.92c-.264-.155-.574-.89-.272-1.25.302-.36.662.187.762.62.046.196-.244.774-.49.63zm1.668-1.048c.127-.176.043-.735-.23-.678-.273.058-.575 1.21-.833 2.042-.26.833-.533 2.37-.13 2.817.273.3.82.34 1.078-.02.255-.36.5-.81.618-.81.29.01.03.76.41.79.38.03.69-1.01 1.07-1.01.25 0 .56 1.43 1.07 1.53s.79-1.44.95-1.87c.1-.27-.21.09-.31.16s-.41.43-.7.41c-.2-.01-.27-.62-.66-.72-.4-.11-.61-.02-1.02.27-.56.4-.04-1.12.28-1.43.32-.3.78-1.15.79-1.64.01-.49-.09-.88-.23-.73-.14.14-1.59 3.12-2.01 3.68-.4.54-.9 1.01-.95.5-.06-.6.25-2.24.58-2.26.33-.02.2.14.48-.07.22-.18.78-.85.48-.92-.3-.07-.79.07-.67-.09zm199.38-87.398c-.27-.247-.64-.18-.895.23-.255.41-.37 3.197-.328 3.473.058.388.574.886.476.51s-.17-2.195.01-2.126c.23.086.42.094.77-.398.35-.5.25-1.45-.02-1.69zm-.336 1.293c-.167.358-.397.59-.397.59-.014-.227-.133-1.545.485-1.705.142-.036.2.495-.088 1.115z"/>
  <path d="M298.537 28.203c-.25.008-.38-.014-.278-.177.11-.182.16-.425.28-1.03.12-.605.14-1.387.11-1.58-.03-.194-.19-.584-.48-.394-.22.142-.59.963-.6 1.667-.01.71.06.99.1 1.24.04.25-.16.3-.23.31-.17.02-.35.01-.32-.33.02-.28.15-.48.17-.6.02-.12-.11-.42-.29-.37-.19.04-.29.31-.27.59s.03.79-.09.82c-.12.03-.22-.04-.2-.37.01-.3.15-.66.05-.77s-.28-.19-.27.01c.01.2-.19 1.06-.36 1.27-.09.11-.19-.1-.2-.35-.02-.26.03-.88-.05-.91-.25-.08-.2.15-.37.14-.19-.01-.48.42-.57.7-.09.28-.12 1.02.15 1.16.22.12.53-.44.63-.72.08-.26.03.41.32.4.27-.02.45-.3.46-.53.01-.23.11.65.44.54.32-.11.3-.39.32-.53.02-.15.29.26.52.22s.46-.11.45-.28c-.01-.17.2.36.58.2.38-.16.33-.36.33-.5 0-.15-.14.12-.39.13zm-3.227-.17c.006.215-.218.804-.31.742-.095-.063-.023-.138.03-.353.052-.214.272-.73.28-.388zm2.567-.453c-.094-.06-.016-1.262.02-1.413.067-.266.085-.484.178-.61.105-.142.23-.06.23.132 0 .19-.03.68-.096.91s-.25 1.03-.34.97zm2.923-2.364c.075.063.234-.164.212-.418-.02-.243-.156-.39-.398-.413-.154-.015-.75.098-.917.4-.167.3-.23.814.206 1.15.436.338.857.24 1.118.63.13.188.08.403-.09.465-.16.063-.55.2-.92-.24-.29-.342-.38-.426-.44-.603-.05-.177.01.737.25 1.132.16.25.89.59 1.14.52.25-.08.66-.25.58-.73-.08-.48-.15-.68-.69-1.1-.53-.42-.83-.3-.91-.6-.12-.42.23-.42.44-.41s.36.13.45.2zm.925.534c.07-.06.236.018.236.16 0 .145.05-.326.28-.387.24-.06.28.015.35.198.05.12.09-.03.11-.09.05-.12.16-.34.31-.32.15.02.29.37.27.68-.01.31-.01.7.11.68.18-.02.33-1.23.33-1.48 0-.24.27-.19.29.06.02.21-.16.69-.09.96.07.28.07.59-.01.56-.08-.02-.09-.16-.14-.11-.03.03-.16.47-.35.5-.19.02-.23-.01-.3-.18-.16-.36.01-1.68-.2-1.45-.23.26-.04 1.62-.2 1.7-.22.11-.32-.54-.22-.81s0-.88-.26-.62c-.14.15.02 1.52-.08 1.76-.09.24-.31-.31-.29-.73.03-.73-.21-.96-.12-1.04zm2.16-1.168c-.14-.068-.356-.5-.248-.77.108-.267.328.04.418.304.04.122-.04.53-.17.466zm.685-.875c.042-.127-.05-.476-.173-.406-.124.07-.156.85-.2 1.42-.04.57-.025 1.59.208 1.83.156.16.418.12.506-.14.09-.26.16-.58.22-.59.14-.02.09.49.27.46.18-.02.23-.73.41-.77.12-.03.4.86.65.86.25.01.24-1.02.27-1.31.03-.18-.09.08-.13.14-.04.06-.15.33-.29.36-.09.02-.18-.36-.38-.38-.19-.01-.29.07-.45.3-.23.33-.13-.71-.01-.94.12-.23.26-.83.22-1.14-.03-.32-.12-.55-.17-.44-.05.11-.45 2.2-.6 2.6-.14.4-.32.76-.39.44-.08-.38-.1-1.47.06-1.52.16-.05.11.07.22-.1.09-.14.29-.64.14-.65-.15-.01-.36.14-.32.03zM126.106 166.54c.577.52 1.104.982.982 1.473-.123.493-.37 2.09-1.72 1.842-1.35-.244-2.824-.98-4.052-1.842-1.228-.858-3.684-.367-4.174 0-.49.37-1.72 1.965-1.475 2.95.246.98 8.05 3.557 9.823 4.664 1.965 1.228 4.452 2.535 5.034 5.278.86 4.054-3.684 4.298-6.262 4.79-2.58.49-6.263-.37-8.104-1.106-1.842-.74-2.333-1.72-3.56-3.19-1.23-1.48-1.106-3.07-2.334-3.69-1.228-.62 4.91 1.84 6.877 2.08 1.97.24 6.63-.86 6.63-1.84 0-.99-4.78-2.34-6.63-3.2-1.84-.86-3.56-1.84-3.8-4.42-.24-2.58 1.72-4.42 3.2-5.04 1.48-.62 8.35.12 9.58 1.22zm19.524 4.298c-.246-.86-2.393-3.988-3.192-4.79-.737-.736-1.842-.245-3.684-.122s-2.21 2.58-3.316 3.928c-1.104 1.352-2.455 8.104-2.087 12.158.37 4.05 2.34 4.54 3.69 4.665 1.35.123 3.56-.86 2.83-2.456s-1.35-7-1.1-7.49c.25-.49.62 0 3.32.37 2.7.37 1.23-1.22 2.21-.24s.98 5.04.98 5.04-1.47.25-.24.86 1.23 2.7 3.19 3.07c1.11.21 1.72-.12 1.84-2.57.15-2.89-4.17-11.54-4.42-12.4zm-6.386 1.35c-.86-1.35.737-4.053.86-4.666.12-.6 2.455 4.91 2.946 5.525.492.614-2.946.49-3.806-.858zm24.803-2.334c.385.605.614 2.335-1.228 1.965-1.85-.37-1.11-.98-1.72-.74-.62.24-3.69 2.09-4.3 3.07-.62.98-2.14 4.57-.86 7.12.49.98 4.42 1.23 4.54 0 .12-1.23-.74-.49-2.21-3.32-1.48-2.83-1.35-2.95-.37-3.32.98-.37 7.24 1.59 8.23 2.94.98 1.35.61 3.8.24 5.89s.61 4.42-.25 5.03c-.86.61-3.39-.71-4.05-2.71-.37-1.11-1.23.86-3.32.12s-5.65-1.84-6.39-5.9c-.74-4.06 1.59-8.97 5.03-10.93 3.44-1.97 5.77-.62 6.63.73zm19.033 4.176c-.125-3.19-1.71-4.863-2.088-5.77-.614-1.475-.983-3.07-2.21-3.193l-2.333.37c-2.34.367-4.67 6.874-5.16 8.716-.61 2.29-2.09 9.702-.12 12.4 1.96 2.704 4.41 1.476 5.52.37 1.1-1.106-.98-8.594-.62-8.474.37.12 1.35.12 2.08.24s1.35-1.6 1.84-.37c.49 1.22.73 4.91 1.35 5.77.61.86 2.08 2.7 3.07 3.19.98.49.98.61 1.59-.74s-2.83-9.34-2.95-12.53zm-6.508-.492s-.37-4.298.614-5.525c.384-.48 1.472 4.544 1.472 5.648s-2.086-.12-2.086-.12z"/>
</svg>
