<svg xmlns="http://www.w3.org/2000/svg" width="300" height="300" viewBox="-80 -50 310 310">
  <path d="M18.42 104.76c0-.157-.04-.275-.04-.392 0-.548.04-1.056.077-1.564.157-1.37-.39-7.313-.195-8.563.274-2.19-.313-3.36-1.838-3.55-.117-.15-2.58-1.05-2.737-1.95v-1.18c1.173-.12 4.34 1.8 5.474 1.96h.4c0 1.02.39 8.61.39 11.34v.39c0 1.8.08 3.64.2 5.44 0 .04.82 1.41 1.68.71.04-.08.08-.15.08-.27v-6.64c0-.16-.19-1.95-.19-1.95-.11-1.33-.19-2.62-.19-3.91v-5.09c-1.01-.55-2.07-1.01-3.16-1.44-1.17-.43-2.3-.9-3.4-1.48-2.03-1.02-8.91-3.32-9.07-3.32-.82.08-1.21-.35-1.17-1.17h1.56c.16 0 4.3-.47 5.48-.58 0 0 12.79-.98 12.9-.98.12.67.39 1.17.86 1.45.08.08.2.12.32.12 0-.15.33-2.73.33-3.91h2.41c2.23 0 1.45.9 6.65 0 .16-.02.28 0 .39 0h19.94c.12 0 7.19.17 10.71.17.16 0 5.1-.16 7.29-.16H81c.39 0 .79-.05 1.18 0 1.95.24 6.515.32 9.76.32.156 0 2.13-.32 2.75-.32h30.11c.16 0 2.23.25 2.35.25 2.507 0 3.01-.2 5.48-.05 0 0 1.565.2 2.347.2.155 0 7.193.39 7.43.39h.39c1.955 0 6.27.15 6.27.31 1.84 0 3.27.08 5.07.08h.39c2.345 0 12.785.39 15.64.39h8.995c.15 0 7.933-.08 8.13-.16.074-.04.954-1.1.914-1.14-1.526-.23-5.377-.27-5.53-.27h-5.87c-.627 0-2.35-.04-2.35-.08-.27-1.13-.584-4.1-.584-4.22-.114-2.5-.193-4.96-.193-7.43 0-2.73-.39-10.83-.39-10.95v-18.8c0-1.05-.39-8.09-.39-8.21V1.93c0-1.17-1.24-2.434-1.15-1.71s-.37 2.1-.25 3.237c.08 1.25-.55 2.97-.55 2.97-1.29.12-4.15.2-4.3.2h-14.1c-3.52 0-12.75.39-13.69.39 0 0-8.84-.39-8.99-.39 0-.16-3.64-.39-5.48-.39-.12 0-11.97-.39-17.21-.39h-.39c-2.46 0-10.01-.39-11.33-.39h-64.6c0-.15-.33-.27-.33-.39.08-1.64-.55-2.58-1.96-2.73v24.24c0 .12 0 3.17.15 4.3.16 1.57.24 3.13.24 4.7V43c0 1.68.08 3.36.2 5.043 0 .04.2 4.73.2 7.08 0 .12.39 20.73.35 20.73-1.52.28-4.65.59-4.65.59-1.29.12-4.14.2-4.3.2-.23 0-5.71.78-5.86.78v.78h4.3c-1.15 0 .26-.08 3.13-.08h2.26c0 .115.12 1.29-.31 1.25-.12 0-4.73.588-7.04.78h-1.57c-.24.12-4.54.39-4.69.39-1.8.12-5.71.786-5.87.786h-1.6c0-.51-.16-.86-.47-1.02-.2-.12-.74.27-.9.43-.43.43-1.13.5-2.15.19-.04.98.35 1.52 1.17 1.6.66.08 1.01.59.97 1.53 0 .11.08.23.194.39.9.23 1.406 0 1.562-.71 0-.08 2.11.9 1.6 2.54 0 .08-.12.04-.275-.08-.35-.28-.78-.51-1.29-.71-.156-.04-.313-.08-.47-.16-.234-.08-.47-.12-.74-.12-.12 0-.24 0-.4.04-.51.07-1.02.19-1.57.35v2.74c0 1.29.08 2.58.19 3.91 0 0 .35 2.97.54 4.3.04.12.04.23.04.39 0 .78.07 1.56.19 2.3 0 .04 1.05 1.84 2.54 1.8.15 0 .27.04.43.12.51.31 1.02.58 1.52.86 1.52.82 3.09 1.6 4.73 2.27 1.72.78 3.44 1.56 5.04 2.42 1.91.47 2.7-.2 2.38-1.96zm17.556-50.44v-4.303c0-.547-.196-1.564-.196-1.564-.117-3.792-.195-7.585-.195-11.34V32.42c0-1.445.163-4.8.163-4.917 1.33 0 2.538-.16 3.83-.238.297-.042 3.116.09 4.3.09h.392c2.502 0 4.884-.407 7.347-.407h.392c1.44 0 7.93-.273 9.73 0 .04 0 .04.626.04.782v26.196c0 .118-.39 6.882-.39 7.82v.588c-1.57.117-3.13.195-4.69.195-.12 0-.28 0-.35.04-.59.19-7.2.74-9.82.74-.12 0-9.9.43-9.93-.04-.16-1.14-.43-3.48-.43-3.52-.12-1.8-.2-3.64-.2-5.44zM61.39 24.015c-.582-.187-3.01.195-3.126.195h-3.13c-1.172 0-1.285-.08-2.46-.08-.115 0-2.634-.246-2.752-.246-2.97 0-8.233.392-8.39.392H36.45c-.118-.274-.44-.792-.44-1.066-.12-1.68-.034-2.792-.034-4.474V12.87c0-.155-.08-.517-.08-.634.35-.313.94-.224 1.645-.186.16.04 4.07-.353 5.87-.353.16 0 5.09-.39 7.04-.39h3.91c-.21 0 6.69-.384 6.86.325.17.71.57 1.747.57 2.803v4.3c0 .12.19 5.468-.39 5.28zM35.91 25.61c1.604-.39 3.116-.344 5.15-.227h.39c.274 0 6.14-.392 8.603-.392h3.128c.12 0 9-.27 9-.39h3.12c.16 0 4.07-.39 5.87-.39h1.96c.34 0 2.55-.29 4.27-.18.16.04 2.15-.04 2.27-.04 1.45 0 1.84-.16 3.24-.16.16 0 12.71-.08 16.82 0h2.74c4.42.39 9.11.59 14.08.59 0 0 1.84.2 1.96.2h10.56c.16 0 5.24.39 6.26.39h9.39c6.12 0 9.45-.32 11.1-.32h.4c1.84 0 2.86.17 4.66.17.24 0 2.07-.16 2.18-.16 1.33 0 2.13-.2 3.42-.08.12.04.12.97.12 1.09-.08.47-12.24.31-13.96.19-1.76-.07-12.44-.08-12.59-.08-1.8.12-12.36-.39-16.03-.39-2.97 0-5.98.04-8.99.19-1.21.04-7.27-.58-7.82-.5-1.21.12-7.82-.47-10.17-.47 0-.16-25.26.39-25.42.39-.62 0-1.95.2-1.95.2-1.95.12-4.15.36-6.11.36 0 0-10.59.23-10.7.23-.51 0-5.98.39-8.21.39H41.9c-1.17 0-3.973.12-5.11.2-1.25.12-.89.09-.82-.75zm27.906-9.17c.124 1.33-.062 6.457-.062 7.004 0 .235-.962.417-.962.378-.273-1.25.017-2.867.017-4.158 0-.157-.25-.03-.25-.146V16c.15 0-.02-4.364-.02-4.48 0-.392 1.14.195 1.14-.196-.12 2.56.4 3.748.13 5.116zm36.285.34v5.475c0 .117-2.28.316-2.28.473l-4.75-.017c-2.73 0-5.47.33-8.21.33-2.34 0-4.69.08-7 .24-1.95.12-2.23-.05-4.5-.08-.12 0-2.02.25-2.18.25h-5.87c-.23 0-.39-.04-.39-.07-.27-2.52.02-8.68.02-8.8 0-.94.49-2.24.49-3.14 1.12-.49 2.65-.4 4.06-.4.16 0 4.83.31 6 .31h7.82c1.56 0 3.13.04 4.69.2 0 0 1.56.2 2.34.2.16 0 5.63.4 5.87.4.16 0 1.85.11 2.87.15.47.04 1.12.64 1.04 1.34-.08 1.05.01 2.15.01 3.21zm1.63 6.1c-.11 0-.86-.063-.86-.1-.11-1.8.25-8.73.25-10.528.6.07 1.06-.59.9.387 0 .11-.16 2.37-.16 2.53 0 .9-.18 1.06-.18 2 0 .12.06 5.55.06 5.7zm.72-.234c0-.94.4-7.312.4-7.43V12.09c3.13 0 5.85.407 8.98.407h5.09c2.23 0 7.06-.173 7.06-.017h1.96c.16 0 4.03.04 5.87.196 0 0 3.29-.065 3.13-.065.47 1.65.59 4.25.43 6.52-.04.12-.04 4.54-.04 4.69h-.78c-1.4 0-13.92-.39-18.77-.39H115c-1.175 0-3.02-.24-3.178-.24-.51 0-2.81-.08-3.36-.08-.12 0-5.98-.34-5.98-.45zm33.61-9.873c.88-.11 1.24.032 1.36.032 0 1.173-.16 9.958-.16 10.232v.39c0 .12 0 .197-.08.236-.62.274-.86.04-.7-.625v-5.474c0-2.534-.4-3.942-.4-4.792zm31.3 32.552v.39c0 1.174.39 16.658.39 16.814h-21.9v-4.3c0-.16-.19-3.13-.19-3.13-.11-5.75-.19-11.5-.19-17.21v-1.56c0-.16 0-.24-.08-.28-.82-.51-3.67-.51-3.83-.51-.39 0-3.17.04-3.52-.39v-8.6h28.54v4.69c0 1.68.39 6.65.39 7.43v.39c0 1.8.39 5.98.39 6.26zm-22.68-8.602V61.75c0 .233 0 .39-.04.39-2.19.234-4.38.39-6.61.39V45.718c0-.275.25-5.78.25-5.898v-3.177c.78 0 1.32.082 2.1.082h4.3zm21.9-17.987v5.082h-28.16c-.11 0-.23-.04-.27-.117-.08-.04-.12-.15-.12-.27V13.26c0-.156-.41-.27.41-.554.82-.286.65.163 1.16.163h6.26c1.06 0 2.28-.25 3.29-.25.16 0 2.15.09 2.27.08 6.45-.41 8.91.16 14.39.16.16 0 .49-.03.56.65.2 2.08.23 2.87.23 4.82v.39zm-29.32 7.82v22.287c0 .12-.39 7.547-.39 9.776v3.91h-.78v-3.91c0-.55.39-14.35.39-19.16V26.55h.79zm-1.87 36.202c-.11 0-1.13.08-1.28.08-1.33.196-1.57.12-2.31-.31 0-.156.63-6.842.55-8.25-.11-1.133-.15-2.307-.15-3.48V35.94h.39c1.06 0 2.07.118 3.05.352.04.04.08.156.08.43v.39c0 4.928-.39 19.55-.39 20.334v5.083c0 .11.08.07.08.23zm-4.46-3.048c.16 1.212.16 2.232-.31 2.818h-27.76V26.552c1.29-.43 2.86-.626 4.7-.548 1.84.117 3.68.156 5.48.156h12.91c3.01 0 6.02.04 9 .196 0 0 .27.197.39.197v8.603H131V58.23c0 .507-.123.935-.084 1.482zM101.1 33.948c-.12-1.8-.197-3.637-.197-5.435v-3.128c.86.313 1.21 1.21 1.017 2.737-.156 1.29-.234 4.692-.234 5.083v.39c0 3.755.08 7.547.196 11.34 0 0 .2 3.637.2 5.474 0 .11-.116 4.69 0 4.69v3.13c-.116 0 .304 3.27.19 4.01l-1.18-.01c-.118-1.57.21-4.68.21-6.36V45.32c0-.157-.2-11.34-.2-11.38zm-14.275 4.34v2.736c0 3.13.39 9.385.39 9.385v11.92c-2.23.11-4.42.19-6.65.19H64.52V30.85c0-.157.325-.356.325-.474 0-1.33.113-1.915-.08-3.015-.21-1.18 1.25-.89 1.367-.89 1.955 0 8.7-.34 8.7-.45 1.564 0 15.768-.63 20.968-.63h4.302v5.48c0 .79.078 1.53.195 2.31.352 1.76-1.76 2.19-1.76 2.19-2.855-.15-8.837-.19-8.993-.19-.392 0-2.174.17-2.72.17.195.83-.017 2.81-.017 2.97zm1.565 22.678V36.333c3.01 0 6.02.038 8.993.194 0 0 2.346.195 2.934.782.16.11.198.31.198.58v18.38c0 .51-.39 4.42-.39 4.69v.78c0 .23-.034.39-.034.39-2.7.23-5.43.39-8.17.39-.12 0-2.78.04-3.52-.39v-1.18zm-24.764 1.41c-.114.04-1.903.206-1.25-.114-.12-1.407.21-3.017.21-4.424V44.544c0-1.956.195-7.04.195-7.04-.12-3.127-.2-7.15-.2-10.28-.17-.57 1.01-.65 1.13-.65 0 1.172-.05 5.538.06 5.538 0 2.737-.4 5.393-.4 8.13V58.62c0 .117.7 3.718.26 3.757zm-1.43 13.27c-.118 0-.235.57-.39.57H36.56c-.116-3.402-.113-6.64-.113-10.004h2.378c1.564 0 2.232-.163 3.797-.163h4.3c1.33 0 2.62-.08 3.912-.2 0 0 2.317.05 2.07.05 1.954 0 3.013-.25 4.968-.25h4.302c0 2.97-.082 7.94-.082 8.21 0 .12.08 1.62.08 1.78zm1.72-1.815c.12 1.8-.195 2.47-.938 2V65.27c.78-.507 1.055 0 .937 1.565-.117 1.057-.156 2.074-.156 3.13 0 1.29.04 2.58.15 3.87zm24.087 2c0 .12-.08-.01-.08.15-.12 0-.15.25-.31.25h-18c-1.56 0-4.883-.41-4.883-.45-.12-1.68-.198-4.91-.198-5.02v-5.48h22.29c.156 0 .844.08.96.08 0 1.57.135 7.43.213 8.92v1.57zm12.516-5.86v6.26c-.12 0-1.38.17-1.53.21-1.52.28-2.06.23-3.94.19-1.41 0-2.69-.2-4.14-.13-1.48.12-2.15-.46-1.73-2.22v-.78c0-1.65-.23-.69-.25-5.68-.01-.76.24-2.8.24-2.91h10.95c.15.12.23.28.31.43.04.08.08.2.08.35-.01 1.41-.01 2.86-.01 4.3zm2 6.26c0-.15-1.06.05-1.06-.06 0-1.05-.17-2.43-.17-3.45v-7.83c.86.2 1.3-.08 1.1 1.29-.08.67.59 9.47.12 10.06zm28.69-8.21c-.12 2.74-.2 5.48-.2 8.21v.4h-17.6c-.9 0-1.23-.2-2.13-.13-1.14.08-.7-.24-2.23-.02-.12 0-.89-.08-1.05-.08-.24 0-.59-.16-.87-.16h-3.91V65.66h27.37c.47.43.66 1.215.58 2.348zm4.69-.78c-.12 1.68-.2 3.37-.2 5.09v4.3h-.79c-.63 0-2.11-.08-2.77-.08 0-.16-.28-1.56.03-3.05v-7.82c1.05 0 2.64-.16 3.66-.05.47.08.09.79.05 1.62zm9.19 8.21v.39c-.12.12-.2.28-.27.43-.08.24-.12.36-.2.36-1.25.28-2.51.39-3.84.39-.63 0-1.39.35-1.96 0-.81-.48-.88-.28-.88-.32-.28-1.41.09-2.57.09-3.98v-.39c0-2.23.08-4.37.08-6.56 2.79-.4 4.37-.08 6.56-.08h.39v4.69c0 .12.08 1.38.08 1.53 0 3.21-.09 3.81-.09 3.56zm1.09 1.47c0-.06.01-.03.02 0h-.03zm21.58-10.85V77.8h-11.73c-1.82 0-8.86-.83-9.78-.876v-7.34c0-.783.39-4.185.39-4.302h21.11v.78zm-2.82-1.51c-1.35-.1-2.99-.28-4.19-.28-4.5.2-7.9.08-12.55.04-.12 0-1.13.08-1.29.08-1.57 0-4.03.12-4.19.12h-30.11c-1.02 0-2.07.04-3.09.12-1.13.12-8.64-.5-11.77-.5H66.08c-2.463 0-7.347.52-7.347.52-3.402-.04-6.53.08-9.385.51-.782 0-1.646-.2-2.388-.09-.156 0-.313.04-.43.04-2.23.12-6.78.32-9.01.44-1.368.08-1-.6-.93-1.11 1.174-.39 4.856-.17 4.856-.29h3.91c3.13 0 10.56-.39 10.95-.39 1.603-.39 3.44-.51 5.474-.39h38.32c3.128 0 23.616.39 26.98.39h34.8c2.15.04 4.105 0 5.864-.19l.08.93c-.583.43-1.645.22-2.897.1zm5.16-46.58v-7.82c1.05-1.06 1.61-2.34 1.37-.23-.04.12-.2 7.39-.2 10.01v.39c0 3.25.39 9.78.39 9.78 0 1.8.14 7.04.1 8.13-.12 1.84.29 3.72.29 5.56v17.6c0 .12.39 5.09.39 5.48v4.69c0 1.41.16 4.73.27 6.14 0 .04 0 .75-1.45.51h-.19c-.11-3.79-.19-11.61-.19-11.73 0-1.05-.39-16.3-.39-16.42v-7.04c0-.54-.39-5.74-.39-5.86v-19.2zm-.39 46.92v7.82c0 .12.58 5.48.58 5.64l-1.18-.16c-.12-4.96-.36-15.62-.36-15.73 0-2.11-.23-11.63-.23-13.19 0-.15-.4-10.94-.79-13.68V16.8c0-.546.04-4.53-.39-5.39-.12 0-5.2-.08-6.65-.08h-57.48c-2.47 0-10.01-.39-10.17-.39-.63 0-9.38-.39-10.17-.39-1.68 0-14.7-.39-14.86-.39H48.49c-1.955 0-6.1.39-6.256.39-2.542-.08-7.497.102-7.657.55-.16.45-.166 1.25-.166 1.4v26.2c0 2.98.39 9 .39 9v3.13c0 .12.28 6.65.39 6.65v3.13c0 4.54.39 13.69.39 13.69v1.565c-.11.117-.78.35-.78.313-.27-1.136-.58-3.44-.58-3.44-.11-2.74-.19-5.477-.19-8.214v-.39c.12-4.42-.59-12.513-.59-12.553-.11-2.46-.19-4.93-.19-7.39V15.22c0-1.33.34-5.01.39-5.085s5.56-.626 6.65-.782c4.58 0 14.74-.39 14.86-.39h5.09c1.18 0 2.02.09 3.2.09.16 0 2.29.08 3.07.08.16 0 4.82.065 5.33.065 3.52 0 6.8.163 10.32.163h7.04c1.45 0 5.63.39 6.26.39.16 0 3.32.15 4.61.15.16 0 1.99.16 2.1.16H106c.16 0 2.32-.08 2.43-.08 1.96 0 1.47.16 3.427.16h8.995c1.563 0 3.13.04 4.69.2 0 0 1.563.2 2.345.2h40.274c.47.59.63 1.49.55 2.74-.11 1.06-.15 5.32-.15 5.48 0 2.46.39 13.92.39 17.21 0 .12.28 5.87.39 5.87v10.55c0 .12.33 3.9.33 4.06 0 1.18.06 7.91.06 8.46zM34.8 6.62h57.486c.156 0 6.646.037 9.774.194 0 0 3.91.195 5.866.195h.39c1.33 0 10.167.39 12.513.39h.39c.66 0 6.92.43 9.38.58 0 0 1.25.03 1.87.03.15 0 1.33.24 1.45.24 4.45 0 7.89-.08 12.31-.08h23.07c0 .11-.4.97-.4.97-2.86.11-8.84.19-9 .19h-28.54c-2.08 0-9.62-.39-11.34-.39h-5.08s-7.04-.39-10.56-.39H95.4c-.12 0-10.01-.39-10.17-.39h-4.3c-1.29 0-2.58.04-3.87.12-1.37.11-19.08-.12-19.2-.12h-4.69c-.116 0-15.483.39-15.64.39-1.29 0-4.144 0-4.3-.04-.704-.04-1.37-1.17-1.407-1.21-.08-.24-.566-.47-.566-.71h3.54zm-4.69 7.82V7.79c.272 0 .507.038.703.155.078 0 .078.078.078.234.9.54 1.29 1.56 1.22 3.12-.04.12-.04.23-.04.39v7.43c0 1.02.04 2.07.16 3.09.08 1.25.08 31.98.24 34.84 0 .11.39 11.34.39 11.34v7.82h-.78c-.23 0-.39-.04-.39-.08-.27-1.53-.39-3.05-.39-4.62V63.3c0-2.502-.58-10.56-.58-10.56-.12-3.282-.19-10.047-.19-10.164 0-1.33-.19-6.647-.19-6.686-.12-1.68-.2-3.36-.2-5.042v-.393c-.35-3.32 0-15.91 0-16.03zM3.13 91.464v7.038h-.78v-11.73c.272 0 .507.04.703.156.078.04.078.075.078.23v4.303zm13.49 2.542c.157.117.197.313.236.586.078 2.23.235 4.458.43 6.647.156 1.37-.078 2.34-.665 2.93-.11.11-.23.11-.39 0-.11-.16-.19-.35-.19-.59 0-.67-.23-2.62-.39-2.74v-5.86c.47-.08.71-.47.78-1.14 0-.04.08 0 .2.15zm-9.58-9.19c1.252.08 2.27.392 3.09.822.82.466 1.76.86 2.775 1.13v2.346c-.156 0-4.3-1.563-5.083-1.563-.118 0-.195-.04-.274-.11-.468-.54-.624-1.44-.508-2.62zm-2.345 2.738c1.056 0 2.62.782 2.737.782.742.586 4.73 2.19 5.865 2.346.156 0 1.8.978 2.698 1.368.04 0-.195.238-.235.277-.352.352-.9.313-1.68-.078 0-.16-2.348-1.1-3.09-1.33-.547-.16-3.597-1.61-4.73-1.8-.12 0-.783-.2-.783-.2-.743 0-1.017-.47-.782-1.37zm0 10.948V89.9c.43.352 8.25 3.44 9.385 3.52.156 0 .78.234.78.39.47.587.392 2.972.392 3.128v4.3c0 .12.08 1.996-.39 2.347-.118 0-.235-.04-.352-.078-1.408-.9-4.73-2.502-4.81-2.502-.704-.352-4.028-2.19-5.005-2.503zm10.166 6.647c-.11-.12-.27-.24-.43-.28-.23-.08-.46-.2-.7-.28-2.15-1.02-4.38-2-6.68-2.97-.11 0-.23-.04-.35-.08-.15-.08-.27-.2-.43-.31v-.39c1.21 0 2.15.19 2.82.66.08.08.2.12.32.12 1.68.78 3.25 1.68 4.73 2.62.12.07.2.11.36.11.55.23 1.06.51 1.61.7.12.04.24.08.35.08-.5.62-1.05.62-1.56 0z"/>
  <path d="M32.848 84.818c3.792 0 24.907-.39 31.67-.39h66.866c.274 0 7.702.39 8.993.39h2.737c.157 0 3.794.39 4.302.39h3.52c0 .118 7.193.822 7.858.94.9.156 7.664.234 10.127.234h5.48c.16 0 3.8.39 4.3.39h7.04c.28-.273 1.65-1.094 1.8-1.29.12-.195.16-.273.12-.273-1.91-.28-3.87-.4-5.82-.4h-4.3c0-.16-6.49-.39-6.64-.39h-5.86c0-.16-7.43-.59-7.43-.59-1.44-.16-2.85-.2-4.3-.2h-4.7c0-.16-5.86-.59-5.86-.59-2.85-.16-5.71-.2-8.6-.2h-.39c-1.56 0-8.6-.39-10.55-.39H80.95c-1.8 0-1.85.07-3.454.31-.117 0-1.864.08-2.02.08h-43.8c-.115 0-7.545.39-7.82.39H14.47v.39c.196.7.743 1.09 1.564 1.17h16.82zm156.588 113.788c-1.68 0-3.362.04-5.083.04H171.45v-4.304h16.42v-1.37c-3.908-.155-7.818-.195-11.728-.195h-4.692v-19.55c0-1.956.664-7.625.624-8.994-.156-3.675-.233-7.313-.233-10.948v-5.083c0-1.058 1.02-11.027.9-12.162-.07-.507-.11-1.796-.11-1.914 0-1.33 1.02-12.2.9-13.333-.08-.9-.12-2.973-.12-3.09v-5.083c0-.157 0-4.184-.08-4.262-.08-.156-.19-.235-.31-.273-2.07-.118-4.14-.157-6.25-.157h-5.47s-6.25-.39-9.38-.39h-.78s-7.82-.392-11.73-.392h-8.61c-.12 0-5.47.195-5.47.195-3.36.12-6.76.2-10.17.2-3.12 0-12.08.16-13.68 0H42.03c-3.13 0-11.85.39-12.906.39h-.787v26.98c.08 6.3.197 12.56.39 18.77v26.59c0 1.41.08 2.86.2 4.26 0 .04.195 3.68.195 5.52v.4c0 .24 0 .51.077.75.11.86-.04 1.33-.47 1.37-1.18.16-4.93.63-5.48.63h-9.39c.04.51.16.86.43 1.06.12.08.23.12.35.12h12.9c.15 0 2.15.04 1.99 1.18-.04.12-.04.24-.04.39 0 .12 0 .24.04.39.16 1.22-.43 2.98-.43 3.13H13.08c.587 1.1 1.878 1.53 3.912 1.21.156-.03 9.658-.03 11.34-.03h.39c1.212.28 2.073.2 2.542-.23.156-.12.274-.23.39-.39 1.487-1.92 2.972-3.79 4.498-5.63 1.525-.07 2.854-.27 3.988-.62.352-.12.704-.16 1.095-.16 1.564 0 4.692-.27 4.692-.39h8.992c3.12 0 6.25-.08 9.38-.19 0 0 1.84-.19 2.73-.19h.39c1.56 0 7.04-.39 8.21-.39h.39c1.44 0 6.14-.39 7.04-.39h.39c1.56 0 8.64-.62 10.56-.78h.39c1.84 0 5.47-.27 5.47-.39h2.34c1.05 0 2.07.04 3.09.2.04 0 .04.03.04.19 1.33.86 2.5 1.99 3.4 3.32.07.12.27.19.51.19.51 0 .9-.16 1.17-.39 1.52.12 2.11-.82 1.68-2.77-.2-.74.19-1.01 1.09-.82.23.04 3.83.08 5.08-.04 1.68-.19 3.36-.27 5.04-.27 1.95 0 5.86.24 5.86.39h22.68c1.25.08 2.31-.04 3.16-.35.11-.04.23-.04.35-.04.98.43 2.23 2.35 2.34 2.35.67.51 1.33 1.02 2.03 1.45.08.08.2.12.32.12.74-.2 1.33-.51 1.87-.94.39-.31.59-.94.51-1.8-.04-.43.19-.63.74-.59.15 0 1.76-.27 1.95.2 1.68 3.13 3.44 6.18 5.28 9.11.43.74 1.06.82 1.76.27v-.39h12.91c.35-.43 1.01-.59 1.95-.39.97.16 1.68.12 2.11-.19.15-.16.31-.27.39-.39.36-.42.28-.62-.15-.62zM32.066 109.06h9.776c.157 0 5.083-.39 7.43-.39h30.89c1.175 0 6.65.117 6.65 0h56.7c.156 0 7.43.39 9.384.39h10.95c1.563 0 3.13.04 4.692.196v1.76c0 .118-.408.234-.408.39h-56.287c-6.257 0-22.288-.39-23.853-.39H54.752c-.275 0-4.576.39-4.693.39h-.79c-1.57 0-4.93.393-5.09.393H32.07c0-.16-.194-.83-.194-.83-.118-.63-.195-1.29-.195-1.92h.39zm2.737 74.293c-.39.86-.586 2.033-.508 3.52.08 1.406.235 2.853.39 4.26.157.98.04 1.644-.273 1.996 0 .11 0 .23-.078.35-.078.15-.156.31-.274.43-.547.78-1.016 1.56-1.485 2.38-.47.86-.9 1.09-1.29.74-.118 0-.197 0-.197-.04-.117-1.41-.195-2.86-.195-4.26v-.39c-.157-4.38-.313-8.84-.39-13.3v-14.07c0-3.68-.236-10.95-.392-10.95v-44.57c.55.74.83 1.79.79 3.12v.39c.12.66.63 1.05 1.53 1.17.04 0 .04.11-.04.35-.39 2.03.28 2.97 2.04 2.77.86.19 1.18.98 1.02 2.34-.15 1.17-.23 2.34-.23 3.52v12.51c0 3.75.08 7.55.2 11.34 0 .12 0 .27.04.43.31 3.01.51 6.14.55 9.35v19.55c0 .11.12 2.97.28 4.26.24 1.6-1.44 2.61-1.44 2.77zm68.427 5.865h-8.212c-1.8 0-3.48.156-5.084.39 0 .117-3.128.392-4.692.392h-.39c-2.19.274-4.536.392-7.04.392h-.39c-1.955 0-7.546.392-8.21.392h-.392c-1.173 0-3.754.39-3.91.39H48.093c0 .12-8.6.744-12.51 1.174v-6.256c.507-.313.82-.822.977-1.524 0-.04.08-.04.196-.04 1.916.078 3.636.04 5.122-.195 1.017-.118 2.073-.195 3.09-.195h2.736c3.01 0 8.993-.39 8.993-.39h.782c2.62 0 7.82-.393 7.82-.393h7.82c4.96 0 14.86-.39 14.86-.39 2.34 0 4.69-.08 7.03-.197 0 0 2.11-.195 3.13-.195h6.64c.15.234.23.508.23.782.11 1.172.23 2.307.43 3.48.27 1.914-.43 2.695-2.23 2.383zm-60.998-48.486v12.122c0 1.8.273 5.474.392 5.474v3.13c0 1.29.39 5.473.39 6.254v15.255h-4.692c-.235 0-.39-.04-.39-.08-.275-1.407-.587-4.22-.587-4.26-.117-1.682-.196-3.324-.196-5.045v-12.906c.15-4.575.04-8.876-.4-12.903-.12 0 0-16.032 0-18.77v-12.12h5.08v15.246c0 2.34.39 8.05.39 8.6zm55.76 5.513c.115 1.135.115 2.307 0 3.44-.04.157-.04.195-.08.195-.548-.313-.743-1.017-.548-2.11 0-.156.04-.273.04-.39.234-1.292-.04-2.074-.82-2.347v4.302c.468.43.547 1.212.312 2.307-.196 1.056-.703 1.173-1.485.43v-.39c.04-1.097-.07-1.996-.39-2.738h-.39c0 .51.04 1.017.08 1.564.2 1.76-.11 2.424-.86 1.955-.23 0-.43-.078-.58-.195-.54-.587-.82-1.565-.74-2.933.04-1.408-.15-2.58-.62-3.52-.39-.04-.47.235-.23.703.36.627.47 1.564.32 2.816-.04.233-.12.43-.27.586-.11.118-.19.156-.19.156-.23-2.346-.39-4.652-.39-7 .16 0 .39-.272.39-.39.75-.548 1.14-.195 1.18 1.135 0 .04.08-.04.2-.15l.39-.39c.16-.15.36-.19.59-.19.55 0 1.06.04 1.52.16.04.04.04.08.04.24.86.16 1.45.12 1.76-.19l.12.24c.07.08.07.2.07.35.47.24.59.71.43 1.57 0 .12-.03.24-.03.39.15.12.19.28.23.44zm5.63 6.218v.39c0 1.8.27 5.475.39 5.475v1.565c0 2.346.078 4.692.196 7 0 .038.194.273.194.43v8.212c0 1.29.08 2.58.157 3.87.07.86-.12 1.292-.59 1.37-1.25.155-2.54.234-3.87.234v-11.35c0-1.18-.4-6.92-.4-7.04v-5.09c0-1.72-.39-7.7-.39-7.82v-2.35c0-.94-.4-5.36-.4-5.48 0-.94-.2-2.74-.2-2.78-.12-1.29-.2-2.58-.2-3.87v-14.08c0-1.45.39-4.97.39-5.08 1.45 0 2.77-.29 4.14-.06.04.04.16.56.16.83v26.98c0 1.68.39 7.42.39 8.6zm55.13-30.89v7.43c-.782 0-1.257.794-1.022-.3.078-.235.062-5.03.062-5.068.046-2.043-.114-3.393-.114-5.19 1.017-.236.997.155.92 1.172-.04.117.155 1.408.155 1.956zm-.546-4.38c-.04.04-.47.078-.626.078h-47.312c-1.017 0-2.964.2-3.985.08-2.092-.25-1.527-.07-1.49-1.24h.393c1.133-.04 4.637-.13 5.848-.21 4.575-.11 9.558-.03 14.093-.03.94 0 10.167-.03 10.167-.14h21.898c1.092-.19 1.443.32 1.014 1.49zm-18.222 27.45c0-.782-.195-2.346-.195-2.385-.12-1.29-.2-2.58-.2-3.87v-4.695c.66.508 1.29 1.058 1.87 1.644.04.077 3.48.78 5.2.352.12-.04 1.68-.83 1.56.74-.04.11-.04.23-.04.39v3.91c0 1.56.39 7.54.39 8.99v.39c0 1.8.39 6.76.39 7.43v.39c0 1.41.39 13.29.39 17.59v.78h-7.82c-.12 0-.24 0-.39.04-.67.11-.94-.16-.79-.82v-19.94c0-.66-.18-1.45-.18-2.08v-.39c0-1.45-.12-2.1-.12-3.51 0-.55-.09-4.86-.09-4.98zm1.174-12.122c1.72 0 3.362.12 5.044.4.04 0 .078.12.118.35.116.59-.744 1.41-.9 1.45-1.995.43-4.066-1.05-4.066-1.09-.118-.35-.196-.7-.196-1.09zm-2.347-.78H122c-2.737 0-10.792-.43-10.792-.47-.078-.23-.156-.47-.156-.7h46.53c0 .12-.038.24-.077.27-.195.2-.43.36-.704.51h-.39c-5.87 0-17.6.24-17.6.39zm-6.65 37.71c.12 1.14.09 2.1-.38 2.57h-.39c-2.5-.12-4.66.26-7.12.1-.15-3.36-.54-7.25-.46-10.65.04-3.87-.07-7.39-.35-10.59-.19-1.91-.19-3.87-.07-5.78.16-2.27-.15-3.99-.97-5.12v-.39c3.28 0 10.08-.59 10.04-.36-.15.86-.06 2.27-.06 3.57 0 .12.06 1.52.06 1.68 0 1.95.12 2.93.12 4.89 0 .12-.39 7.94-.39 10.56v7.04c0 .9-.08 1.62 0 2.52zm-11.18-22.02c.36-1.87-.23-2.81-1.72-2.77 0 .12-2.34 1.96-3.52 2.74v17.99c0 .51.04 1.02.12 1.53.04.55.16 1.79.12 2.3-.07.62-.82.38-.82 0 .02-1.03.13-2.01.13-3.03 0-.15-.06-1.8-.06-1.92 0-1.33-.07-3.18-.07-3.21-.12-2.19-.19-4.42-.19-6.6v-.39c0-1.95-.06-1.59-.06-3.54 0-.15-.18-1.92-.18-2.04 0-.39-.12-1.08-.12-1.47 1.26-.74 4.28-2.99 4.28-3.1.59-.35 1.96-1.44 1.96-1.56 1.22-.04 1.68.78 1.45 2.39-.15 1.26-.27 2.55-.27 3.87 0 2.08.37 4.39.37 6.51v.39c0 1.68-.04 3 .07 4.68 0 .47.2 3.44.2 4.44 0 .12.15 3.78.15 4.33 0 .12.16 1.7.16 1.86.32 1.48-.08.96-.94 1.27-.11 0-.19 0-.19-.04-.12-2.47-.19-7.67-.19-7.78-.11 0-.39-2.62-.39-3.91V158c0-.676-.34-2.167-.11-6.05.08-1.25-.2-3.85-.12-4.47zm-2.89 5.05h.39c1.14-.11 1.43-.16 1.44 1.28.01 1.35.25 1.79.13 2.63.39 1.29.24 2.43.13 4.27-.04.23-.08 1.44-.29 1.5-.77.22-1.2.3-2.56.1-.11 0-.19 0-.19-.04-.11-1.52-.19-3.09-.19-4.65v-4.69c.27-.27.67-.39 1.17-.39zm-1.17-2.34v-1.95c.75-.82 1.68-1.33 2.74-1.56v.39c0 1.29.09 2.83-.03 4.12-.04.16-.24-.01-.39.03-1.05.27-1.86.77-2.21.26-.08-.19-.09-1.04-.09-1.27zm2.09 13.16c.04 0 .71-.14.71.02.28 0 .33-.2.52-.09.08 0 .2.45.2.61v4.3h-.39c-1.01 0-1.29-.13-1.91-.56-.15-.12-.82-.26-.86-.29-.23-1.41-.35-2.82-.35-4.22.94 0 1.23.1 2.09.26zm.97 5.77c.08 0 1.14.71.74 1.76-.04.16-.07.2-.11.2-.98-.54-2.07-1.01-3.28-1.33-.12 0-.19-.04-.23-.04-.08-.51-.15-1.01-.15-1.52 1.13.16 2.11.47 3.05.94zm-6.84-3.71c-.08-.51-.12-1.02-.12-1.52 0-1.72-.04-3.4-.15-5.08-.04-.11-.08-.19-.19-.19-.85.04-1.33-.15-1.36-.62-.16-1.02-.23-2.07-.23-3.09h-.19c-.12-5.36-.2-10.72-.2-16.03h.79c.16.11 3.13.39 4.3.39h1.68c0 .12-.19.98-1.2 1.33-.04.04-4.41 4.77-4.45 4.77-.2.08-.43.15-.71.15-.15.55-.04.86.36.98 0 0 .04.04.04.2.35.55.98.9 1.91.98.04 0 .04.04.04.19 0 1.41.26 1.94.2 4.26 0 .04.59 8.76.59 9.43v.39c0 1.96-.07 3.91-.27 5.83-.08 1.06-.55 1.18-1.29.43v-.39c.46-.47.62-1.25.5-2.38zm-.12-19.9l3.64-4.22c.04-.04.16-.08.28-.08.36-.31 1.57-1.09 1.57-1.21.96-.55 1.29-.59 2.04-.12.9.59.86 1.1-.15 1.56-.19.08-.39.2-.51.35-1.64 1.49-3.36 2.9-5.16 4.27-.86.67-1.4.47-1.68-.55zm19.16-7.82h-21.12v-3.13c.28-.54.59-.97.98-1.37.16-.15.32-.15.55-.07.51.24.9.59 1.17 1.06.51.82 1.18 1.45 2 1.96 1.33 0 4.3-.27 4.3-.39.82-.23 1.96-1.84 1.96-1.95v-1.17h15.64c0 .12-.04.24-.07.28-.35.36-.7.63-1.09.9 0 .12-.04.24-.08.28-1.25 1.25-2.5 2.46-3.83 3.64h-.39zm-17.2-3.91v-.78h5.09v.39c-.08.43-1.09 1.49-1.56 1.56-1.21.2-2.15.04-2.73-.39-.11 0-.23-.04-.27-.12-.19-.19-.35-.43-.51-.66zm23.96 19.51c-.19 3.29.31 5.48.16 6.85-.15 1.56.14 2.58.14 4.14v5.08c0 1.8.04 3.31.12 5.11.04 1.41-.23 1.8-.9 1.17-.11 0-.23-.04-.31-.11-1.64-1.09-3.2-1.86-4.77-3.03V157.1c-.15.794.39-7.454.39-7.454V138.4c1.37-1.41 2.86-2.62 4.46-3.68.04-.04.08.04.08.158.12.782.48 4.227.4 5.597-.11 1.29.15 2.46.15 3.79-.05 0 .11 2.47.09 3.79.15.61.02 5.16.02 5.16zm-.88-5.65c.07-.2 0-.48 0-.56v-4.7c-.11 0-3.57 1.42-3.85 1.42.16.51-.25 3.2-.02 4.45.04.28.06.53.07.77.37.22 3.7-1.07 3.81-1.37zm-.78-1.33c0 .12 0 1.06-.04 1.09-.46.08-.79.47-1.34.47-.55.15-.97.4-.97.28v-3.56c1.03-.33 2.23-1.2 2.28-.57.09 1.02.07 1.24.07 2.29zm-10.85-17.83c-.3-.17-.88-.36-.91-.36-1.68-.35-4.62-2.04-4.62-2.04.94-.94-.03-1.28-.03-2.06.82-.23 1.49-.59 2.04-1.09.07-.04 4.37-2.29 4.37-2.4.62-.7 1.65-1.5 2.59-1.58v.39c0 .12.07 5.32.19 7.78.08 1.13-.12 1.91-.59 2.38 0-.13-1.87-.62-3.03-1zm-8.3-5.6c-.23-.04-.43 0-.58.16-.9.94-2.97-.04-3.01-.08-.94-.55-1.8-1.13-2.66-1.68-.11 0-2.18-1.6-2.3-1.64-.16-.08-.28-.19-.43-.31-.24-.15-1.72-.51-1.57-1.17h13.3c2.23 0 4.46-.04 6.65-.04.43 0 .58.28.39.82-.12 0-7.27 4.11-7.43 4.11-.78.01-1.56-.07-2.35-.15zm1.64 3.31c-.04.08-.15.12-.43.16-1.4.24-2.44-.51-2.05-2.07 1.81-1.21 2.88.4 2.49 1.92zm-11.34 38.48c.16 1.22 0 2.15-.47 2.74-.11 0-.19 0-.19-.04-.11-1.8-.19-3.64-.19-5.43 0-.15 0-.27-.04-.39-.08-.78-.19-1.56-.35-2.34 1.21-.04 1.64.78 1.33 2.38-.07.47-.15.98-.15 1.52 0 .51.04 1.02.08 1.57zm-.86-35.97c-.11.12-.27.2-.43.27-.23.08-.35.08-.35.08-.23-3.25.35-4.37.1-9.49.39 0 3.05 1.83 3.63 2.18.08.04 2.14.93 2.14 1.09.71.59 2.85 1.78 2.85 1.94 0 .12-.93.6-.97.64-1.25.63-5.9 2.9-6.96 3.29zm23.22 1.06c0-.16.24-1.33.24-1.45v-10.17c.16 0 .24.04.31.08.04.08.65-.09.65.07.47.59.09 1.73.02 2.99-.11 1.84-.19 3.64-.19 5.48 0 .51 0 1.02-.04 1.57-.12 1.84.05 1.46-.99 1.45zm2.2-10.67c.55.12.61.15 1.08.38.08 0 .35.24.47.24 1.52.94 3.13 1.84 4.73 2.66.12.04 1.72.79 2.35 1.21 1.1.83.94 1.45-.47 1.88-.74.2-1.4.47-1.95.78-.78.43-2.73 1.1-2.77 1.18-.7.51-2.93 1.1-3.09 1.18-.23.08-.35.08-.35.08-.23-3.25.34-4.78.02-9.57zm23.87 7.54c-.09.95.29 1.86-.88 1.75-.11 0-3.31-1.28-4.62-1.67-1.32-.39-1.64-.74-2.5-1.01-1.6-.52-1.45-.71-1.41-1.69.78-.04 1.56-.91 3.34-1.66 1.78-.76 3.31-1.74 3.31-1.86.94-.86 2.05-1.71 2.42-1.4.37.31.32 1.13.32 1.4v3.91c0 .24.07 1.87.04 2.23zm-11.41-.83c1.77.61 3.35 1.41 4.76 1.6.47.04 1.27.72 2.2.71.08.12.24.24.43.35.36.12.75.28 1.21.39.67.16 2.3.6 1.63.72-.86.16-3.38-.09-4.32-.09H140.4c-1.02 0-2.073.04-3.09.12-1.134.12-1.59-.07-3.12-.18 1.01-.43 2.76-1.18 3.82-1.61.15-.04.31-.11.47-.15 3.01-.82 3.48-1.57 6.96-1.85zm-1.14-2.18c1.41-.89 2.53.11 1.67.89-.16.12.14.81-1.76.65-.43-.08-.69-1.05.1-1.55zm9.7-4.42c-1.05.78-3.1 1.71-3.14 1.71-1.25.43-3 1.18-3.82 1.92-.74-.31-1.64-.43-2.73-.43-.23.04-.43.08-.51.23-.27.32-.58.43-1.01.35-.86-.15-2.38-1.13-2.42-1.17-1.8-.63-5.28-2.55-5.35-2.63-.31-.19-.86-.93-.86-1.05h8.21c4.19 0 8.37.04 12.52.2 0 0-.82.78-.86.86zm-48.87-.51c.04 0 .28.47.28.63.16 2.97.24 5.98.32 9 .04 1.53-.39 1.92-1.29 1.17v-10.95c.27 0 .51.04.7.16zm2.74 12.32c.04 0 .04.12-.08.35 0 .04-.08.08-.23.08 0 .12 0 .2-.03.2-.86.12-1.76.19-2.7.19-.12 0-.23-.03-.23-.07-.08-.23-.15-.47-.15-.7.89-.43 2.03-.43 3.44-.04zm-2.46 3.79c-.11.08-.23.24-.35.4-.47.66-.66.58-.66-.24 0-.67.04-1.33.04-1.96 2.12 0 2.47.63.98 1.8zm-.97 2.51c.7-.35 3.05-3.48 3.52-3.52v17.2c0 1.29.04 2.58.16 3.87.08 1.41-.07 2.42-.54 3.17 0-.15 0-.27-.03-.39-.12-3.09-.23-6.22-.35-9.38v-.39c0-.39-.19-1.17-.19-1.17-.12-3.13-.2-6.26-.2-9.38-.7.08-1.13.43-1.29 1.14-.04.16-.15.28-.31.4-.71.5-.98-.01-.74-1.53zm.59 12.51c-.12-3.28-.2-6.53-.2-9.77.16-.16.27-.23.43-.31.12-.08.23-.08.35-.08.43-.04.55.23.43.78 0 .12-.04 4.54-.04 6.65v.39c0 1.8.28 5.47.4 5.47 0 2.19.39 8.72.39 9.78v4.69h-.8c-.12 0-.2 0-.2-.04-.11-2.19-.39-6.6-.39-6.64-.12-1.41-.19-2.85-.19-4.26v-4.69c0-.67-.2-1.96-.2-1.96zM45.9 179.8c-.117 1.055-.14.438-1.33.43v-7.038h.392c.272 0 .63-.208.787-.05.58.43.25 1.572.13 2.785-.08 1.29.17 2.58.01 3.87zm5.318 1.602h6.26s3.13-.39 4.3-.39H78.2c2.347 0 7.04-.277 7.04-.395h2.736c1.446 0 5.082-.392 5.474-.392h5.084c0 .117-.04.783-.08.783-.977.273-1.993.39-3.05.39h-.39c-2.973 0-8.994.235-8.994.392H70.77c-2.072 0-6.49.39-6.647.39-1.8 0-8.33.392-9.776.392H52.4c-1.837 0-3.636.04-5.435.158-1.134.077-1.917-.118-2.385-.55 2.227-.272 4.456-.507 6.645-.78zm-2.316-3.397c.186 1.676.004 2.866.004 2.37-.118 0-1.05.243-1.206.204-.822-.08-1.095-.71-.782-1.92v-5.79c.548 0 1.056-.08 1.564-.08h.39c0 1.72-.126 3.52.03 5.2zm2.89-4.41c-.078 1.058-.117 5.577-.117 6.632-.118 0-1.825 0-1.825-.038-.118-1.8-.033-4.78-.033-6.58-.428-1.61 2.09-1.11 1.973-.02zm1.096 6.24c.02-2.315-.016-4.336.14-6.956.783 0 1.32-.08 2.1-.08h.394c0 2.5.163 3.29.163 5.8 0 .11-.164 1.45-.164 1.61-1.37.31-2.88.36-2.63-.38zm6.583-2.384c-.22 2.36-.15 3.05-1.99 2.78-.55.16-.82.04-.82-.39.04-2.23.04-4.46.04-6.64.43-.35 1.09-.51 1.95-.43.12.04.28.04.39.04s.36.82.48.82c0 1.33-.08 1.77-.08 3.1v.39c0 .12.04.24.04.35zm3.45 2.08c-.75.47-1.45.5-2.7.31v-.39c0-1.45-.08-1.59-.08-3 0-.15.08-1.53.08-1.69v-1.96c1.96-.51 2.69-.57 2.62 1-.04.16.12.81.12.96v3.91c0 .24.13.72-.03.87zm.82-4.39v-.39c0-.78.08-1.4.08-2.18.94 0 1.76-.12 2.66.03v7.24c-.39 0-.78.04-1.13.08-.86.12-1.29-.03-1.37-.5-.15-1.4-.23-2.85-.23-4.26zm3.52 2.74v-5.47h1.56c.28-.06 1.53-.68 1.61 1.57 0 .16-.04.24-.04.39v5.09c0 .12-1.25.78-2.47.54-.86-.15-.48-.57-.65-2.1zm7.19.43c0 .24.04.67.08.91.12.86-.45.47-.92.59-1.91.59-2.16 0-2.04-1.53v-5.86c1.25-.19 2.11-.69 2.66-.18.04.08.08.81.08.97 0 1.41.08 2.85.2 4.26 0 .04-.17.86-.05.86zm4.03-1c.39 1.8-.05 2.3-.05 2.45-.11 0-1.62.08-1.77.08-1.78.19-1.36-2.24-1.36-1.99-.12-1.91-.11-3.14-.11-5.09.16 0 .19-.73.31-.73.94 0 1.15-.21 2.01.09.24.08 1.01-.08 1.13-.08v3.91c0 .39-.2 1.03-.12 1.38zm1.3 2.53v-8.21c1.37-.19 2.34 0 2.93.59.16.16.2.35.2.59v5.87c0 .24-.04.43-.19.59-.58.59-1.56.78-2.93.59zm7.04-.39c-.11.12-.27.2-.43.28-.23.08-.47.12-.7.2-1.17.26-1.98-.47-1.98-1.74.16 0-.02-4.59-.02-6.54 2.23-.55 3.17.24 2.78 2.35 0 .15-.03.23-.03.39v5.08h.4zm.4-8.21c1.06 0 2.07.12 3.05.35.04.04.08.2.08.43v7.04c0 .12 0 .2-.04.2-2.3.66-3.2-.2-2.69-2.54 0-.15 0-.27.04-.39.16-1.99 0-3.71-.43-5.08zm3.52 2.35v-2.35c1.06-.15 2.11-.19 3.13-.19.16 0 .2.08.24.2.12 1.72.16 3.36.16 5.09v2.74c-.12 0-.24 0-.39.04-1.49.31-2.43.04-2.74-.82 0-.55-.29-.24-.25-.75.16-1.37.33-3.2-.14-3.94zm6.69 5.59c-1.91.39-2.69-.31-2.38-2.07v-5.86c1.37-.19 2.43-.08 3.17.32.12.04.24.08.35.08v7.43c-.39 0-.78.04-1.13.12zm-5.12-9.11h-.39v.2c-1.84.12-3.63.2-5.47.2h-.39c-.78 0-2.34.2-2.34.2-3.52.12-13.41.59-14.86.59h-9.78c-2.46 0-7.7.4-7.82.4H44.6c-.12 0-.198-.04-.198-.04-.115-.39.13-.9.13-1.29.94 0 1.514.16 2.413.16.15 0 1.9-.16 2.02-.16 1.72 0 1.77.16 3.45.16h8.99c.274 0 6.413-.39 8.994-.39h.39c2.89 0 5.75-.07 8.6-.19.27 0 .79-.16 1.02-.16 1.31 0 4.5-.49 5.1-.49.15 0 2.14-.08 2.26-.08 1.05 0 1.54-.24 2.55-.24h8.21v.98c-2.08.12-4.15.2-6.26.2zm-48.88-26.6v-9.38c1.33-.27 2.78-.39 4.3-.39 1.18 0 2.35.12 3.45.36.08.04.08.16.08.43v.39c0 1.41.39 5.6.39 6.26v5.09c-.15 2.82-.39 5.56-.66 8.21-.08 1.06.18.98-.16 3.08-.27 1.57-.46 1.65.83 1.69.98.04 1.26.63.83 1.76 0 .08-.16.12-.43.12H45.8c-1.876.04-2.176-.07-1.95-3.52 0 0-.396-9.38-.396-14.07zm8.67 10.35c.46-1.05.31-2.68.31-2.8.47.43.54 4.47.54 4.47.04.75 1.29 1.17 1.8 1.41.55.28.5-.19.46.67-.04.24-.12.43-.24.59-.7.7-1.95.39-1.95.39-.12.12-.27.12-.39 0-.12-.15-.6-.23-.68-.39-.5-.66-.12-3.69.16-4.32zm.33-11.51v-8.61c.47.43.96-.21.84.88-.08.51.22 4.56-.21 5.5 0 .04-.04.16 0 .28.08 1.45.08 2.85 0 4.26-.04.16-.12.27-.23.43 0-.15-.57.54-.53.43.15-1.13-.05-1.51.14-3.16zm.98 3.36l.04.2c.27 1.29-.12 1.96-1.02 1.92V147c.83.04 1.14-.43.98-1.33zm16.21 5.46c-.15-.71.29-1.19.22-1.97l.04.24c.16.71.28 1.37.36 1.92.09.65.05.92-.15.82-.33-.19-.31-.27-.46-.98zm.32 1.91c.61.41 1.02 1.01 1.18 1.79l.08.39c-.86-.59-2.38-2.58-2.42-2.7-.27-.35-.51-1.64-.51-1.64-.11-.62.13-1.21.13-1.83.79-1.09.85-1.57 1.08-2.78.08-.62.12-.51.08.35-.07 1.24.37 2.24-.58 3.92-.16 1.46.68 1.99.68 1.99l.28.52zm1.26-1.34c-.11-.27-.19-.54-.19-.78-.12-2.5-.19-7.7-.19-7.82 0-.94-.2-2.73-.2-2.77-.12-1.4-.19-2.85-.19-4.26v-3.12c.7-.2.98.08.82.78 0 .12-.04.24-.04.39v9c0 .12.47 7.86 0 8.6zm18.15 5.44c.35 1.76-.19 2.58-1.72 2.39-.2.43-3.09.47-3.87.59-2.2-.1-2.98.26-2.45-2.41.15 0 1.78-.09 2.49-.32.93-.31 1.05-.78.35-1.4-.16-.12-.32.25-.43.21-.75.53-1.02.28-1.37.6-.12.12-1.13.2-1.29.08-.12-.15.78-.92.89-1.04.31-.35.39-.94.2-1.76-.86-.23-.81-.08-.73.7.12.71-.53 1.22-.92 1.41-.08 0-.08 0-.08-.12.36-1.21.28-2.38-.23-3.55.9-.23 1.33 0 1.21.78-.04.43.2.55.74.39h2.74c.16 0 3.56-.43 3.72-1.95h.2c.47.43.63 1.25.51 2.35-.08.51-.11 1.02-.11 1.56 0 .51.08 1.02.15 1.53zm-2.29 9.17c-.07.11-1.45.19-1.73.19-.62 0-4.97-.02-5.87.1-1.6.28-2.39-.03-2.39-1.2h.39c.28 0 6.42-.35 9-.27.46 0 .99.6.6 1.19zm.18 1.04v.78h-.39c-1.91.16-3.87.28-5.86.4-.39 0-.78.04-1.14.12-2.95.15-2.19-.08-2.38-.9v-.39h9.78zm-.35-3.03c-1.8.23-3.68-.1-5.52-.1-.51 0-1.01.04-1.52.12-1.4.24-2.19-.08-2.38-.9h9c.16 0 .24 0 .24.08.11.2.23.8.2.8zm-10.21-19.65c.86.16 1.45.12 1.76-.2v.2c.04 2.81.39 5.32.98 7.43.2.82.24 1.72.12 2.69-.19 1.41-.35 1.45-.47.04-.08-.74-.19-1.41-.43-1.95-1.13-.55-1.68-1.72-1.56-3.52.08-1.8-.04-3.36-.39-4.69zm1.57-6.32v1.63c0 .24-.04.43-.19.55-.86.62-1.72 1.11-2.38.17-.12 0-.44-.6-.44-.6-.12-.51-.12-.77-.12-1.28 1.14.49 1.83.21 3.13-.45zm-3.6-1.33c-.65-.14-.25-.86-.25-1.25 1.22.65 2.2.36 3.46-.01.47.04.55.36.28 1.06-.04.16-.12.27-.27.43-.11 0-.23 0-.35.08-.86.43-1.19.8-2.2.33 0-.15-.54-.61-.65-.63zm.86 4.92c1.32 0 1.5-.12 2.11.9.04.04 0 .12-.15.28-.59.55-1.17.51-1.76-.15-.12-.15-.19-.39-.19-.62v-.39zm8.56 6.65c.04.12.04.24.04.39 0 .12-.04.24-.08.28-.07.08-.15.12-.31.12.2.71.59 1.1 1.18 1.17v-1.56c.12-1.41 0-2.58-.27-3.56-.08-.23-.08-.35 0-.39.62-.15 1.06-.47 1.29-.86l.16-.27c-.94.32-1.2-.12-1.32-.94 1.02-.15 1.67-.19 2.57-.38.74-.19 1.06.28.86 1.37-.12.47-.15.98-.15 1.53.16.12.19.27.23.43.12 1.25.16 2.54.16 3.87v.39c-.78-.23-1.05-1.13-.78-2.73h-.2c.08-.7-.11-1.09-.58-1.17V149c0 .12 0 .234-.07.234-.2.08-.43.15-.7.15.86.43 1.37 1.215 1.56 2.35.12.74-.27 1.015-1.17.78-.12.117-.27.195-.43.234-.35.12-.74.193-1.092.27-2.11.43-3.05-.23-2.78-2.07h.78c.43.04.59-.23.43-.82 0-.12-.04-.233-.04-.35-.113-.157-.23-.195-.35-.157-.742 0-1.055-.19-1.02-.58.16-1.48-.153-2.42-.94-2.85l-.23-.12c.04 1.8.118 3.68.196 5.67-.55.16-.86.04-.98-.35-.194-.86-.272-1.91-.194-3.16.04-1.48-.08-2.78-.394-3.91.55-.39 1.56-1.19 1.56-1.3.9-.82 1.523-1.43 1.88-.61.08.08.08.2.08.35.51.51.86 2.03.82 2.74-.04.12-.04.23-.04.39.08.98.2 1.88.35 2.74zm-3.48-9.77c-1.09.16-1.6-.24-1.56-1.17.67-.82 1.84-1.05 3.52-.82.16.04.27.04.39.04h5.48v.78c0 .12-.04.63-.08.67-.08.08-.31.31-.39.35-.2.08-.43.16-.7.16H80.6zm-.25.9c.16-.15.8-.15 1.03-.15 1.45-.11 1.84.16 1.18.82-.11.12-.23.28-.35.4-.31.47-.74.82-1.25 1.02-.23.12-.47.19-.7.27-.16.04-.28.16-.39.32-.44.47-1.12.2-1.23-.82.55-.66 1.34-.68 1.72-1.84zm-.75 18.79c-.16.12-.68-.13-.91-.09-.71.16-.98-.15-.82-.82 1.6-.2 2.39.33 1.73.91zm-1.73.65c1.45-.39 2.23-.16 2.23 1.01 0 .12-.04.44 0 .59.36 1.41.01 1.8-2.12 1.66-.42-.02-.14-.99-.14-1.69.04-.54.04-1.05.04-1.56zm3.87 1.87c1.26-.19 2.93-.61 3.36-.02.16.15.56 1.33.41 1.49-.11.11-2.18-.13-2.42-.06-1.44.31-1.46-.28-1.34-1.42zm6.69-19.08c-.51-.27-1.05-.47-1.6-.54-.86-.19-1.48-.51-1.91-1.02-.11 0-.19 0-.23.08-.47 1.06-.94 1.06-1.33-.08.43-.51.94-.9 1.6-1.13.12-.04.24-.04.36-.04h3.52c0 .39.04.78.04 1.17.11 1.41-.05 1.92-.44 1.56zm0-8.6v1.96h-9c0-.16-.11-.4 0-.39.09.01-.24-.19-.24-.31.28-.15.86-.45.86-.57 0-.16.19-1.13.18-.69-.01.44 0-.55 0-.78h8.21v.78zm-9.76.76c-.61.61-1.03.54-1.62.65-2.04.47-3.09-.11-3.09-1.79 1.56 0 3.13.04 4.69.2 0 0 .65-.37.65-.21-.12.11-.27.79-.64 1.16zM75 143.3c-.04.117.81.836.92 1.775.23 1.29.31 2.77.192 4.3-.08 1.64.234 2.81.94 3.52.86.04 1.25.583 1.21 1.56l-.04.39c-.547-.51-1.056-1.13-1.564-1.95h-.785v.39c.16.12.28.27.35.43.16.23 1.38 2.01 1.34 2.25-.117.5-1.57-1-2.12-1.43-.744-.59-.98-1.2-.744-2.72l-.2-.49c-.11-2.44-.33-7.02-.38-8.04-.03.01-.21-1.11-.21-3.3.7.463.57 1.89 1.07 3.3zm-17.9 12.22c.06-2.385 1.083-4.277 1.694-4.93.613-.655 1.292-1.135 1.8-1.25l.077.35c.2.94.06.38-1.13 1.29s-1.57 2.182-1.83 3.316c-.25 1.135-.49 2.346.12 3.514.61 1.164 1.71 2.512 2.11 3.18.51.9.51 1.68-.04 2.46-.19.24-.35.39-.58.51-.58.314-.78.16-.54-.51.49-1.324.42-2.525-.24-3.576 0 0-1.47-1.975-1.41-4.357zm.974 4.734c.174.4.203.915.056 1.56-.04.272-.114.55-.193.82-.35 1.25-.94 1.602-1.643 1.172.98-.505 1.37-1.52 1.214-3.125-.04-.15-.9-1.92-1.136-2.47-.118 0-.49-3.18-.49-3.3 0-.96.03-.99.414-3.22.346-1.99 3.083-3.26 3.865-3.49l-.06.49c-.39.67-1.14.95-1.95 1.84-.62.68-1.39 2.76-1.46 3.24-.63 3.98 1.41 6.51 1.41 6.51zm-2.33.896c.08-.08.197-.2.275-.43.31-.67.5-.786.54-.43.08.502.12 1.01.12 1.56-.23.78-.67 1.443-1.21 1.873-.94.782-2.01.666-1.76-1.127.47-.98 1.05-.945 2.02-1.453zm-1.798-1.646c1.29 0 1.563.39.78 1.133-.665.663-.9.272-.783-1.134zm-.39-7.82c-.12 0-.237-.04-.276-.118-.077-.04-.116-.158-.116-.275v-.39c.43-.74.98-1.29 1.566-1.56l-.158.28c-.39.59-.743 1.33-1.017 2.07zm1.772.167c-.246 1.04-.123 2.6-.123 2.75l-.06 1.71c.08-.7-1.586-1.1-.915-3.91.674-2.81 1.37-2.62 1.785-3.91.418-1.28.125-.87.125-1.15.08-.89.075-.82.075-1.72 0-.15.084-.76.084-.88v-.94c.87-.19 1.62-1.56 1.31-.03 0 .12-.2 1.54-.2 1.7-.12.12-.28 1.01-.36 1.16l-.04.44c.47-.08.57.02.88-.41l.15-.23-.02.18-.11.12.1-.07c-.11 1.13-.26 1.61-1.21 2.27-.16.08-1.25 1.92-1.49 2.96zm3.152-4.51c.026-.57.134-.97.302-1.24l.553-.38c.12 0 .6-.4.757-.44.43-.03.266.2.03.9-.31.86-1.266 2.43-2.09 2.55l.45-1.37zm.183-1.51l-.76.03c-.393 0 .185-.27.34-.82.154-2.02.587-.66 1.174-.62.25.02-.24.76-.755 1.42zm1.977 12.74s.246-.73-.243-.85c-.487-.12-.55-1.34-.503-1.71.14-1.15.993-2.32.542.77-.04.24.1 2.61.022 2.85-.157.35-.47.26-.978-.37-.158-.19-.556-.98-.674-1.22 0-.15-.49-.67-.49-1.58s-.064-3.18 2.136-5.01c.8-.67.305 1.41.305 1.41-.04.12-.795.43-1.222 1.83-.042.15-.122.87-.122 1.04-.12 2.87 1.225 2.87 1.225 2.87zm.273 7.87c.08-.04-.125.74-.125.85-.08.75.146.85-.676 1.05-.157 0-.965.45-1.04.56-.47.71-.745.55-.82-.39.622-.7 1.69-1.87 2.665-2.06zm.07-21.4c.86.2 1.057.9.587 2.15l-.194-.15c-.43-.39-.545-1.05-.39-1.99zm.39 3.38c.47.43.667 4.88.59 6.01-.12 2.74-.197 5.48-.197 8.21-.43-.47-.625-1.25-.586-2.38.158-2.7.196-9.1.196-11.84zm0 15.01c.86.08 1.02.67.47 1.8-.04.08-.116.08-.27-.04-.12-.15-.198-.35-.198-.58v-1.17zm.185-18.94c-.43.42-1.2-.92-1.748-2.17v-.39c1.09.65 2.264.69 3.44.35.078.04.04.12-.078.35 0 .04-.407.82-.56.82 0 .12-.98 1.05-1.06 1.05zm-1.358-4.13v-.39c1.252-.19 2.11-.04 2.542.55.154.16.154.28 0 .43-.12.12-.316.2-.59.2-.117 0-.234.04-.352.04-1.096.24-1.605 0-1.605-.82zm3.715 1.83l.195.52c1.04.99.65 1.01.723 1.64-.036.04-.32 1.35-.476 1.23-.678-.79-1.07-.19-1.76-.78.54-.85 1.71-1.9 1.32-2.6zm-1.124 4.79c.74-.35.93-.12 1.12-.94l.08.24c.16.66-.16 1.5-.51 1.85-.11 0-.68.28-.72.32-.51.86.16-.52.04-1.46zm1.49 1.03c.67-1.15 1.08-3.74 1.2-4.87 0 0 .67.64.86.76.14.8-.4 2.82-1.19 4.09-1.26 2.06-2.39 2.51-2.43 2.47-.08-.23.09-.79.09-1.03.4-.54.82-.25 1.49-1.41zm3.46-2.66c.1.29.15.53.17.45.08-.23.16-.35.16-.35m0 0c.43-.08.51.32.2 1.1-.27.82-.62 1.65-1.01 2.43 0 .12-1.87 2.98-2.34 3.52-.89 1.04-1.17 4.03-1.17 3.91 0-.78-.16-.69 0-2.34.17-1.65 2.12-4.01 2.67-4.8.55-.8.79-1.37.98-1.9.28-.2.7-1.91.7-1.91zm-1.21 1.96c-.05.11-.83 1.6-1.38 2.15-.55.55-1.04 1.29-1.35 1.76 0 .12-.9 1.25-1.09 2.51-.19 1.27.06 2.76.26 3.6.2.85.4.62.79.74.04 0-.31 2.43-.82 3.25-.62 1.06-.86.67-.7-1.09.47-.08.6-.17.66-1.04.07-.87-.11-.93-.58-1.48 0-.15-.08-4.39-.08-5.68.43.04 1.86-1.94 2.44-2.6.58-.66 1.09-1.27 1.28-2.05 0 0 .86-2.03.79-2.97l.24.11c.21.14.35.22.45.51 0 0-.37 1.29-.88 2.32zm1.19 7.16c-.49-.67-.76-3.23-.79-4.42.67 1.18 0 1.61 1.35 3.51.79 1.1.58.82 1.16 1.41.67.67.86 1.11.62 2.91-1.05.55-1.14.34-1.02-.86.15-1.5-.83-1.87-1.32-2.54zm-.01 4.97c.86.2 1.17.98.94 2.35-.08.66-.27 1.25-.47 1.79-.04.12-.11.08-.27-.04-.11-.16-.15-.31-.07-.55.39-1.09.35-2.27-.11-3.56zm-1.82-.68c-.15-.47-.8-1.39-1.07-1.66 0-.16-.74-.04-.7-1.25.16 0 .18-1.03.4-1.99.21-.96.82-1.13.82-1.25-.42 1.74.05 3.33.05 3.33.16.75.39 1.41.71 2 .08.08.08.2.08.35.51.51.86 1.18 1.06 2 .27 1.22-.31 3.13-.43 3.21-.59.36-.74.2-.51-.47.08-.15.12-.31.12-.46.31-1.88-.5-3.73-.5-3.77zM66 162.6c-.08.546-.314.9-.745 1.016-1.406.51-2.032.155-1.915-.98 1.015-.822 1.523-2.15 1.562-3.91v-.392c.156 0 1.408 2.348 1.096 4.264zm1.966-4.48c-.117.624-1.538-.878-1.655-1.738 0-.118-.04-.275-.12-.43-.08-.236-.12-.51-.12-.744v-1.566c0-.157.33-1.252.33-1.37.78-.507.12 1.415.91 3.188.28.61 1.53.978.66 2.656zm-2.437 10.227c.62.353.66.587.11.704-.39.08-.75-.03-.98-.35-.12-.15-.28-.23-.51-.31-.79-.19-1.18-.82-1.22-1.84.78.63 1.64 1.26 2.58 1.8zm-1.8-2.58c-.12 0-.2-.04-.24-.08-.08-.232-.16-.467-.16-.7 0-.158.81-.193.81-.31 1.84 0 1.39-.083 3.19-.083.15 0 1.41.083 1.53.083.98.037.75-.56.94-1.38 0-.04 1.22.124 1.33.124h4.69c.04 1.8.16 3.48.39 5.09v.4h-9c0-.16-.04-.23-.08-.27-1.25-.86-2.39-1.8-3.44-2.85zm10.56-3.362c-1.45-.117-2.98.378-4.39.104-.04 0 .08-.81.08-1.05 2.96 0 4.73-.36 6.73-.22 0 0 .08.85.08 1.01-.47.43-1.42.22-2.51.14zm.39-6.414c.27.24.5.55.7.83.04.12.08.2.08.36.27.12.5.27.74.43.15.08.27.24.31.39.54 1.72.08 2.5-1.45 2.31-.12 0-.2 0-.2-.04-.12-1.4-.2-2.85-.2-4.26zm-.75.56c-.12 1.18.21 2.84.09 3.97.03-.23-.43-.3-1.7-.14-1.27.16-1.88.22-1.88.1 0-.39-.08-1.35-.08-1.74.15-.16 2.14-.19 2.31-1.19.16-.99-.56-3.89-.56-3.93-.12-1.92-.2-3.87-.2-5.83v-7.82h1.29c.17 2.72.23 2.5.16 3.56-.12 1.61-.16 3.17-.04 4.69.08 1.45.19 2.74.39 3.88.19 1.41.22 3.92.18 4.47zm-.39-17.87c0 .08-.16.12-.43.16-1.1.16-1.49-.39-1.17-1.6 1.56-.39 2.11.08 1.6 1.45zm-1.13-2.78c-.47-.23-.75.04-.63-.94.08-.35.16-1.64.16-2.03.52 1.46.71 1.01 1.71 2.52 0 .08-1.02.53-1.25.45zm-.98 21.86c-.47.28.15-.69-.08-1.95l.16.24c.47.79.47 1.37-.08 1.72zm-1.84-12.7c-.86-.7-1.85-1.22-2.71-1.92-.86-.7-1.67-1.52-2.76-1.99-.12 0-.2-.04-.2-.08-.12-.35-.2-.7-.2-1.09h6.25c0 .9.04 1.8.11 2.7.12 1.14-.04 1.92-.51 2.39zm.08-10.26c-.1.65-.08.73-.08.88v.39c-.12 0-1.29.09-1.45.09-1.41 0-1.8-.08-3.24-.08h-6.26c-1.68 0-1.94-.08-3.62-.08 0-.15-.98-.19-.98-.31v-2.03c1.05 0 1.58.08 2.64.08h.39c2.07 0 10.16-.39 12.12-.39h.39c0 .63.23.54.08 1.47zm-14.34 2.02c2.01 0 2.16.25 2.95.25.11 0 8.17.18 8.17.18.94 0 2.56-.11 2.56-.23.47.2.58.58.47 1.41-.04.28-.36.56-.4.56-.98.27-1.18.23-2.24.23h-7.43c-1.96 0-3.34-.16-5.3-.16v-.39c0-.39-.08-1.6-.08-1.99.11 0 1.17.17 1.28.17zm3.69 3.36s-.04.43-.08.51c-1.18 1.45-4.62 3.44-4.7 3.44-.2.08-.32.12-.32.08-.27-1.25-.39-2.54-.39-3.83v-.39c1.84 0 3.63.04 5.47.2zm-4.12 5.17s.54 1.96-.24 3.04c-.97 1.34-1.39 1.22-1.9 1.77-.35.36-.35.17-.23-1.23.78-.15 1.36-.72 2.36-3.56zm-10.73 17.31v-.39c2.62 0 5.24-.04 7.82-.04.43 0 .58.28.39.82h-8.21v-.39zm2.5 1.36c.11-.04 3.36.21 5.32.21h.39c0 .24.08.47.16.71.04.04.11.08.23.08 2.46 0 4.96.04 7.43.2v.19c0 .12 0 .24-.08.36-.08.16-.32.63-.39.67-1.06.67-1.96 1.49-2.66 2.51v.39c-.12 0-1.42.08-1.53.08-1.57 0-1.99-.08-3.56-.08h-.39c-2.19 0-3.04-.08-5.26-.08-.12 0-1.62.08-1.77.08-.12 0-.2 0-.2-.04-.12-1.52-.11-3.65-.11-5.22.15 0 2.14.09 2.42-.02zm51.46 3.73h-9.77c0-.15 0-.27-.04-.39-.39-1.14-.51-2.58-.35-4.3v-.39c3.4 0 6.8-.04 10.16-.04.43 0 .59.27.39.82 0 .51.04 1.02.08 1.56.16 1.21 0 2.15-.47 2.74zm.47-6.65c-.04.28-.08.39-.12.39-2.03.24-4.11.4-6.22.4h-4.3c-.12 0-.23 0-.35.04-1.25.28-1.27-.12-1.61-1.21v-.39h12.12c.43-.04.58.23.47.78zm-8.1-8.29c0 .04.19 1.65.19 2.43 0 .9.11 1.8.31 2.66.23 1.14 0 1.68-.71 1.64h-.19c-.12-2.62-.2-5.24-.2-7.82 0-.16-.19-1.56-.19-1.6-.12-1.8-.2-3.63-.2-5.43v-12.13c.47.43 1.01 3.99.9 5.08-.08.9-.12 1.8-.12 2.74v11.34c0 .39.08.75.19 1.1zm.19-15.95c.54-.16 1.05-.27 1.56-.35.15-.04.27-.04.39-.04h4.69v.39c0 .23 0 .39-.08.39-1.25.27-2.5.39-3.83.39-.24 0-.51.04-.74.12-.16.04-.31.08-.47.16-1.17.39-1.68.04-1.53-1.05zm2.03 3.32c.78-.19.82-.08.19.35-.43.32-.82.59-1.18.86-.66.63-.9.12-.66-1.4.39.31.94.39 1.64.2zm2.23-4.61c-1.14-.19-2.31-.31-3.48-.35-.82-.04-1.1-.66-.86-1.92.07-.23.07-.51.07-.74 1.6.16 2.93.08 3.95-.27 1.91-.58 2.81-.12 2.69 1.45.19 1.49-.59 2.12-2.39 1.84zm-2.4 17.94c1.2.5 4.69-.67 5.13-.08.15.16-.11 5.37-.27 5.52-.12.12-4.88-.31-5.11-.23-.72-1.64-.96-5.7.24-5.2zm4.98-11.99c-.12.51-.4.51-.79-.08l-.2-.27c-1.01-.04-1.4-.54-1.17-1.56h1.17c0-.27-.04-.43-.08-.43-.67-.19-1.29-.23-1.88-.08-1.25.28-2.15.16-2.74-.27 1.06-.15 2.11-.27 3.13-.43 1.25-.15 2.11 0 2.54.59.16.15.2.35.2.62 0 .63-.08 1.29-.2 1.92zm-.79-11.89c-.12.12-.32.2-.59.2H90.7v-4.3c2.11 0 4.185.04 6.26.08.47.04.663.39.663 1.09.04 1.37-.27 2.35-.86 2.94zm.79-4.79c-3.21.24-9.55-.1-12.83.02-1.33.08-.68.17-.77-1.16 2.5 0 5.34.54 7.53.26h5.86c0 .24.24.88.2.88zm-7.58 4.4c.11 1.14-.37.7-1.16.43-.12 0-.2-.73-.2-.77-.12-1.41.13-1.96.13-3.37.28 0 .92.04 1.11.16.08 0 .24.97.24 1.13 0 .51-.21 1.91-.13 2.42zm-5.74-3.4c1.44 0 2.28.2 3.65.44.08.04.08.16.08.43v2.3c0 .24 0 .4-.08.4-1.25.28-2.5.39-3.83.39v-.39c-.2-1.13.25-2.39.18-3.6zm13.11-3.44v.4H86.81c-1.29.16-2.348 0-3.13-.39v-4.3h13.296c.156 0 .354.82.472.82 0 1.41-.08 2.05-.08 3.49zm0-5.18c-4.03.12-8.06-.29-12.12-.29H68c0 .12-2.58.39-3.91.39h-.39c-1.17 0-6.92.39-8.6.39h-5.87c-2.27.2-4.225.04-5.867-.39v-.78h5.862c1.05 0 1.82-.25 2.88-.25.11 0 1.69.17 2.16.05.04 0 1.87-.19 2.77-.19h.39c1.45 0 4.3-.27 4.3-.39H89.9c1.06 0 2.073.04 3.13.16.116.04.27.04.39.04 1.604-.04 2.933-.41 3.91.02v1.25zm-14.39 7.92c-.04.51-.08 1.02-.08 1.57v2.74c0 .24-.04.43-.16.51-.59.35-.9.32-.9-.11-.08-1.84-.12-3.67-.12-5.47v-6.65c.86.2 1.5 0 1.26 1.37-.12.51.14 4.7-.02 6.06zm-14.55-.91H68c-3.13 0-6.51-.13-9.64-.13-.12 0 .06-.52.06-.56-.12-1.52-.195-3.08-.195-4.65 0-.15.39-.66.39-.78 2.66.04 5.125-.04 7.47-.15 2.58-.15 5.2-.23 7.78-.23h6.647v6.13h-.39c-1.02 0-3.13.2-3.13.2-1.29.12-2.58.19-3.91.19h-4.68zm1.95 6.11v-4.03c.15 0 .76-.09.88-.09 0 .78-.08 1.46 0 2.2.04.16 0 .58 0 .73 0 1.41-.25 1.43-.89 1.19zm-.75-.94c.15.59 0 .86-.43.82h-7.82c-.12 0-2.46 0-3.13-.39v-.39c0-.94.16-2.73.16-3.63.51-.16 1.79.23 1.79.11 3.13 0 6.18-.45 9.26-.18.04 0 .12.69.12.96v2.3c0 .12.04.24.04.36zm2.3.43v-3.91c1.17 0 2.43-.21 3.52.03.08.04.04.48.07.72.19 1.06-1.25 1.41-1.33 1.45-.94.51-1.68 1.21-2.27 2.11v-.39zm1.56-.39c.15 0 .39-.27.39-.39.86-.19 1.27-.64 2.25-.71.15 0 1.3.12 2.48 1.07.15.59.81.78.38.78-.78-.04-2.37.19-3.12.2-2.32.02-3.37.2-2.38-.94zm4.73-1.21c-.16-.12-.27-.15-.43-.15-1.1.04-1.41-1.8-1.45-1.87-.08-.04-.12-.15-.12-.27 1.45 0 2-.25 3.41-.25.16 0 1.09-.08 1.21-.08 0 .79.08 1.89.08 2.68v1.17c0 .24-.04.43-.2.59-.11.12-.23.12-.39 0-.62-.67-1.36-1.25-2.11-1.8zm-21.93-2.7v-6.65c.86.2 1.13-.32.93 1.05-.16 1.18-.16 3.65-.16 4.82v1.18c0 .12 0 4.5-.08 4.54-.2.08-.96-.04-.96-.08.38-1.97.26-3.16.26-4.84zm-4.17 4.68c-.03-.4-.12-1.79-.12-3.51.86.31 1.38-.09 1.11 1.44-.31 1.53.35 2.59-.98 2.08zm.27-5.46c1.49-.35 2.27-.08 2.35.78l-.35.08c-1.25.23-1.92-.04-2-.86zm1.42 1.95h1.32v3.91h-.78s-.39-.04-.39-.08c-.28-1.25-.15-2.54-.15-3.83zm.89-2.89c-1.22.31-2.98-.27-3.05-.31-1.8-.78-5.44-3.75-5.91-3.83-.12 0-.39-.54-.39-.78h5.87c1.17 0 2.35.08 3.52.24.43.04.59.51.47 1.33-.04.27-.04 1.56.04 1.92.11.86-.08 1.33-.55 1.45zm-4.19.43c.08.08.19.12.31.12.31 1.76.47 3.72.39 5.87v.4h-7.8v-11.34c.94.35 5.75 3.79 7.11 4.96zm8.52 7.15c.12 0 6.81-.39 9.78-.39H88.7c.16 0 5.867-.27 5.867-.39h1.954c.27 0 .39 0 .39.04.08.67-.31 1.02-1.17 1.02-5.59.08-10.78.12-16.41.12-.11 0-3.14.2-3.14.2-2.46.12-4.93.2-7.43.2h-.39c-1.01 0-3.12.2-3.12.2-1.45.12-2.85.2-4.3.2H55.1c-.665 0-2.23.2-2.346.2-1.68.12-3.36.2-5.08.2-.78 0-1.83-.1-2.63-.13-1.61-.05-2.06.13-2.06-1.04h.39c3.4 0 13.96-.39 15.64-.39zm47.06 48.89c-.08-1.17-.14-2.36-.14-3.52v-6.26h.79c0 3.13.04 6.26.12 9.38 0 .94.15 2-.04 1.98.09.63.21 2.83.21 2.83.08.84.19 1.6.38 2.27.19.74-.12.9-.9.47-.08-.08-.16-.27-.16-.51v-.34l-.25-6.29zm2.21 11.73c0-.16-.04-.24-.08-.24-1.21-.67-1.84-1.88-1.88-3.68 1.25 1.17 1.8.67 1.61-1.56-.04-.15-.04-.27-.04-.39h-.2c-.12-4.45-.19-8.87-.19-13.29 0-.63.04-1.33.08-1.96.07-.93-.2-1.36-.82-1.33-1.06.08-1.45-.39-1.22-1.4 2.11-.54 3.09.12 2.89 1.96-.08 1.57-.16 3.13-.16 4.69v4.31c0 1.41.08 2.86.2 4.27 0 .04.07.04.19.04v.39c0 1.8.08 3.64.15 5.44.12 1.25-.08 2.19-.55 2.77zm.29-62.71c.16 0 6.47-3.1 7.96-3.18.12 0 .63.7.75.98.54.19 1.21.27 1.91.19.16 0 .32-.04.47-.08.7-.12 1.21-.04 1.53.27 1.37.04 3.4 1.17 3.52 1.17.2 0 .95.31 1.41.45.06.09.13.17.22.22.08.08.19.12.31.12v.2c-2.58.12-5.2.2-7.82.2h-3.52c-1.29 0-2.58.39-3.87.23-1.33-.17-1.54-.36-2.87-.77zm.72 22.83c-.27-2.46-.35-5.24-.23-8.21V131.4c1.14-.12 1.65.55 1.41 1.99-.15.86-.62 4.89-.62 5.045v16.81c-.04 1.45 0 2.78.15 3.91.16 1.45.24 2.86.24 4.3h-.2c.08-1.25-.59-3.01-.59-3.12v-1.956c0-1.06-.04-5.2-.16-6.26zm.94 40.27c-.12 0-.19 0-.19-.04-.12-2.46-.2-4.93-.2-7.39v-.39c0-.54-.19-1.56-.19-1.6-.11-1.29-.19-2.58-.19-3.87v-8.21c0-1.45.39-5.75.39-6.26h.39v4.69c0 .12.39 8.22.39 10.95v.79c0 .12.39 4.14.39 4.69v5.86c.07 1.18-.24 1.45-.78.79zm.78-33.24h.79c.47.58.66 1.48.55 2.73-.08 1.57-.2 3.13-.32 4.65-.04.15-.08.27-.24.43h-.58c-.12-2.62-.2-5.24-.2-7.82zm.79 21.58c-.12 0-.2-.86-.2-.9-.11-1.29-.19-2.58-.19-3.87v-6.26c1.18 0 2.35.04 3.48.2.04 0 .04.04.04.2 1.72.47 3.36 1.06 4.81 1.72.71.27 1.29.63 1.84 1.06.59.43 1.37.62 2.35.55.12 0 .28-.04.39-.2h4.3c.16 0 3.91.23 3.91.39.67.39 2.35 1.02 2.35 1.17 1.05.39 4.69 2.58 5.51 3.05.12.04.24.08.35.08h8.61c0 1.41-.04 2.85-.15 4.26-.04.16-.04.19-.11.19-.63-.31-1.45-.5-2.46-.54h-32.46c-.12 0-2.7.59-2.35-1.09zm41.76 7.74c-1.1.28-3.44.59-3.44.59-3.36.12-6.76.2-10.17.2H128.2c0-.16-4.14-.39-6.25-.39H113c-.234 0-.39-.04-.39-.08-.236-1.76-.393-3.6-.393-5.4h35.588c.588.71 1.37 1.29 2.27 1.72.077 0 1.76 1.14 2.346 1.88.04.08.82.86 1.06 1.21.15.2.19.28.12.28zm1.25-55.52c0 .12-.04.24-.08.27-.19.2-.43.36-.7.51 0 .12-.08 2.15 0 3.13V165c0 1.408.08 2.856.2 4.26 0 .04.2 3.4.2 5.125v6.257c0 1.17.04 2.345.15 3.477.08 1.25-.08 2.19-.55 2.78-.12 0-.24-.04-.28-.08-.94-1.06-2-1.96-3.25-2.66v-.39c0-1.33.39-9.62.39-10.95 0-2.11-.35-3.88-.23-5.95.08-1.37-.16-4.1-.16-4.22 0-1.06-.4-6.14-.4-6.26 0-1.72-.39-7.82-.39-9 0-.16-.2-1.57-.2-1.61-.12-1.41-.2-2.86-.2-4.27v-9h2.34c1.053 0 2.07.04 3.13.19v.19zm4.42 57.09c.12 1.6-.94 1.33-.98 1.25-.78-1.06-1.64-1.99-2.66-2.81v-17.22c0-1.32-.19-3.91-.19-3.91-.1-4.18-.2-9.13-.2-14.85v-18.4c1.21-.9 2.43-1.72 3.68-2.5.04-.04.08.04.12.2.07.24.11.47.11.75 0 1.17.24 1.8.24 2.97v.39c0 2.74.14 8.76.14 8.76v7.82c0 .12-.09 2.48.03 3.1.23 1.8-.43 14.89-.43 15.67v15.63c0 1.02.04 2.07.11 3.13zm2.93-57.44c-.19 1.25-.31 2.54-.31 3.87v11.73c0 1.29-.35 3.06-.33 5.82 0 .39-.06 2-.06 2.4v5.08c0 .9-.39 10.33-.39 12.91v.39c0 1.57.39 12.75.39 16.82 0 1.25-.39 1.53-1.17.78v-34.8c0-2.34.39-7.31.39-7.43 0-3.28-.12-4.45-.12-7.69l-.07-2.08c-.12-3.4-.2-6.8-.2-10.17 1.52-.19 2.11.59 1.88 2.39zm-24.17 15c.07-.2 0-.48 0-.56v-4.7c-.12 0-3.57 1.42-3.85 1.42.16.51-.26 3.2-.02 4.45.04.28.06.53.06.77.37.22 3.7-1.07 3.81-1.37zm-.78-1.33c0 .12 0 1.06-.04 1.09-.47.08-.79.47-1.34.47-.55.15-.98.4-.98.28v-3.56c1.02-.33 2.23-1.21 2.28-.57.09 1.02.08 1.24.08 2.29zm27.8 7v14.47c0 .12-.39 4.15-.39 4.3v16.43c0 .24-.04.39-.12.43-1.61.63-2.04-1.6-2.04-1.6-.12-3.67-.2-7.31-.2-10.94v-.39c0-.39.39-9.39.78-9.39.15 0 .78-2.62.78-2.74v-.39c.06-4.23-.99-5.11-.99-5.22 0-1.18-.19-10.7-.19-10.82v-3.91c0-2.23.63-7.9.51-9.03-.08-.9-.12-1.8-.12-2.7V131c.16-.94-.11-1.37-.78-1.37-1.09.04-1.87-.16-2.34-.59v-9.78c0-1.06-.26-2.83 0-3.13.27-.3 2.9 0 4.31 0 .16 0 .26-.44.4 0 .14.43 0 7.27 0 10.94v7.81c0 2.35.28 7.04.39 7.04v11.34zm-2.35 12.12v-5.48c.47.59.7 1.49.7 2.74 0 1.22-.24 2.15-.71 2.74zm-3.52-51.22h-10.55c-2.07 0-6.26.2-6.26.2-2.07.12-6.49.2-6.64.2H93.84c-.117 0-1.955-.19-1.955-.19-3.91-.16-7.82-.2-11.73-.2H71.16c-3.636 0-10.948.2-10.948.2-1.29.11-2.62.19-3.91.19-.117 0-4.692.58-4.692.58-2.23.11-4.418.19-6.646.19h-7.82c-.782 0-1.564.04-2.308.15h-.274c-.547-.31-.156-2.38-.156-2.5h14.077c.156 0 4.3-.39 5.474-.39.116 0 4.3-.39 6.254-.39h25.81c3.29 0 6.53.04 9.78.19 0 0 1.06.19 1.57.19h17.21c7.7 0 37.57.23 44.84.23.16 0 3.86-.09 3.98-.09 1.45 0 2.53-.04 3.98.12v.92c0 .12.49.12 0 .39-.48.27-.23 0-.39 0h-7.82zm12.12 18.38v1.96c0 .12-.39 5.08-.39 7.43v.39c0 .12-.4 5.87-.4 6.65v9.78c0 1.02-.39 5.71-.39 5.87v30.5c0 .39-.04.74-.12 1.14l-.08.23c-.31-.74-2.42-4.063-3.01-4.845-.86-1.176-1.25-2.895-1.09-5.124v-9c0-.78.39-6.53.39-7.035v-48.11c0-2.11-.04-5.873 0-6.253.03-.38 1.83 0 1.95 0 .15 0 .23-.04.31-.11.03-.04.08-.55.08-.67 0-.785-.14-2 0-2.348.13-.34 1.1-.24 1.5-.24.15 0 .22-.92.22-1.04 0-1.13-.08-1.7-.08-2.42 1.1.22 1.28-.07 1.48 1.37v12.52c0 .12-.39 3.25-.39 4.69v4.7z"/>
  <path d="M74.1 143.04l.01.21c.006 0 .006-.06-.01-.21zm20.527 1.994v-.784h-.392v3.91c.47-.585.587-1.524.43-2.736-.038-.155-.038-.273-.038-.39zm-66.47-44.967c0 .508.077 1.017.156 1.525.04.156.117.234.273.274 1.095.313 1.682.078 1.72-.665.118-1.17.55-1.95 1.37-2.38.86-.43.978-1.05.39-1.87-.585-.19-1.133-.43-1.524-.78-.156-.15-.313-.19-.43-.19-1.955-.15-6.06-.39-6.06-.39-.392.39-.705.82-.978 1.37 0 .12-.118 2.47.82 2.7.118.04 1.604.9 2.7.82.155 0 1.797-1.05 2.462-1.33.04-.04.08.04.08.16.075.59-.277.83-.98.79zm-1.37-1.33c-.47.626-.86.666-1.173.04-.118-.313-.196-.665-.196-1.056v-.78c1.955-.19 2.386.43 1.37 1.8zm2.15-.664c-.43-.078-.585-.43-.39-1.134.82-.59 1.095-.2.783 1.09 0 .08-.12.08-.392.04zM158.91 144.36c0-1.446-.183-2.71-.183-4.118 0-.155-.367-6.444-.367-6.56-.117 0-3.208 2.64-3.482 2.64.156.507-.072 7.96.16 9.21.04.275.185 19.53.19 19.764 1.607-.437 2.947-.05 3.194-.764.068-.198.488-20.09.488-20.17zm-.782-.77c0 .117-.55 20.053-.59 20.092-.993.563-1.34.584-2.074.584-.55.148.306-18.726.306-18.843 0-1.055-.306-7.305-.306-8.32 1.026-.328 1.984-1.755 2.04-1.123.092 1.026.624 6.555.624 7.61zm.262 34.433v-4.3c0-.157-.366-5.406-.366-5.523-.118 0-2.598-.11-2.872-.11.158.51-.438 9.674-.205 10.924.04.274 0 6.638.005 6.872.367.214 3.334 1.497 3.438 1.19.07-.197 0-8.97 0-9.053zm-1.087-.71c0 .12.062 7.834.02 7.875-.468.077-1.22-.027-1.77-.027-.548.15-.305-5.95-.305-6.07 0-1.05.245-8.65.245-9.66 1.027-.33 1.924-.16 1.98.47.092 1.03-.17 6.37-.17 7.43zM40.956 53.48c-.372-.372-.98-.406-1.486 0-.507.405-1.352 3.648-1.352 3.986 0 .473.71 1.217.642.744-.066-.473.237-2.635.507-2.5.338.17.642.237 1.317-.236.676-.474.744-1.622.372-1.994zm-.845 1.418c-.35.37-.77.575-.77.575.04-.27.16-1.858 1.19-1.858.24 0 .2.642-.4 1.283zm6.47 2.252c-.4-.066-.6-.13-.4-.292.23-.18.36-.45.7-1.126.34-.676.56-1.587.56-1.824 0-.236-.15-.744-.67-.608-.38.1-1.17.953-1.35 1.78-.18.832-.13 1.193-.13 1.497 0 .305-.32.305-.44.293-.27-.027-.56-.09-.42-.484.11-.32.36-.518.43-.653s-.06-.518-.37-.518-.54.28-.57.62c-.03.337-.13.945-.34.945s-.33-.113-.23-.495c.1-.352.41-.72.27-.89-.13-.17-.4-.304-.44-.068-.03.237-.56 1.193-.88 1.386-.16.102-.27-.17-.23-.473.04-.304.27-1.02.14-1.08-.37-.17-.35.115-.62.056-.3-.067-.87.35-1.07.653-.2.3-.44 1.16-.03 1.41.34.21.97-.35 1.18-.66.2-.28-.05.49.42.56.45.07.8-.22.87-.49.07-.27.04.8.58.76s.58-.36.64-.53c.07-.17.41.39.78.43.37.03.77.01.8-.2.03-.21.25.48.89.41s.61-.32.64-.48c.03-.18-.25.09-.65.03zm-5.13-1.18c-.04.255-.54.88-.67.778-.13-.1 0-.17.14-.405.13-.237.6-.778.54-.372zm4.23.247c-.13-.1.28-1.49.37-1.656.17-.29.25-.54.43-.66.2-.13.38 0 .34.23-.04.23-.21.8-.37 1.05s-.64 1.14-.76 1.05zm5.25-1.892c.11.095.42-.123.44-.428.03-.292-.15-.507-.54-.608-.24-.07-1.22-.12-1.56.19-.33.3-.56.89.06 1.42.62.52 1.32.54 1.65 1.08.16.25.02.49-.26.51-.28.02-.93.07-1.43-.57-.38-.49-.51-.62-.56-.85-.04-.23-.17.86.14 1.4.2.34 1.29.97 1.7.96.42-.01 1.12-.09 1.1-.68-.02-.59-.09-.85-.84-1.5s-1.26-.6-1.33-.98c-.09-.53.48-.42.8-.35.33.07.54.26.67.37zm1.36.91c.13-.05.37.09.34.26-.03.168.15-.373.54-.373s.44.1.51.338c.05.155.16-.015.21-.08.1-.134.34-.348.58-.28s.37.517.27.877-.18.818.01.833c.29.022.82-1.352.88-1.645.06-.292.48-.146.45.158-.01.253-.41.755-.37 1.104.05.35-.03.71-.16.653-.12-.057-.1-.214-.19-.18-.06.025-.37.506-.68.472-.31-.033-.36-.09-.44-.304-.17-.473.42-1.97.03-1.768-.44.226-.45 1.892-.73 1.937-.39.062-.38-.732-.15-1.025.23-.292.2-1.036-.27-.81-.27.126-.33 1.79-.54 2.038-.22.248-.43-.47-.31-.946.23-.853-.11-1.19.06-1.26zm3.74-.72c-.2-.123-.45-.7-.21-.98.24-.28.52.146.6.484.04.15-.19.6-.38.49zm1.31-.823c.1-.137.04-.574-.18-.53-.21.046-.45.947-.65 1.6-.2.654-.41 1.86-.1 2.208.22.236.64.27.85-.012.2-.277.39-.635.49-.63.23.01.02.597.32.62.3.022.54-.79.84-.79.19 0 .44 1.127.84 1.206.39.08.61-1.126.74-1.463.08-.21-.17.07-.25.13-.08.06-.33.34-.55.33-.16-.01-.22-.48-.52-.56-.32-.08-.49-.01-.8.22-.45.32-.04-.88.21-1.11s.6-.9.62-1.28c.01-.38-.07-.68-.18-.57-.12.12-1.25 2.45-1.58 2.89-.32.43-.71.79-.74.39-.05-.47.19-1.75.45-1.76.26-.01.15.11.37-.05.17-.13.61-.67.37-.72-.24-.06-.62.05-.53-.07zm86.86-.88c-.37-.37-.98-.404-1.48 0-.5.407-1.35 3.65-1.35 3.988 0 .473.71 1.216.64.744-.06-.473.24-2.635.51-2.5.34.17.64.236 1.32-.237.68-.474.75-1.622.38-1.994zm-.84 1.42c-.36.37-.78.574-.78.574.03-.27.15-1.858 1.18-1.858.23 0 .2.642-.41 1.284zm6.46 2.252c-.41-.068-.61-.132-.41-.293.23-.18.36-.45.7-1.12.34-.67.56-1.58.56-1.82 0-.23-.16-.74-.67-.6-.38.1-1.17.96-1.35 1.78-.18.83-.14 1.19-.14 1.5 0 .31-.32.31-.44.3-.27-.03-.56-.09-.42-.48.11-.32.36-.51.43-.65s-.07-.51-.37-.51c-.31 0-.54.28-.58.62-.03.34-.13.95-.33.95s-.34-.11-.23-.5c.1-.35.41-.72.27-.89-.13-.17-.4-.3-.44-.06-.03.24-.56 1.2-.88 1.39-.17.1-.27-.17-.23-.47.04-.3.27-1.02.14-1.08-.37-.17-.35.12-.62.06-.3-.07-.86.35-1.07.65-.2.31-.43 1.16-.03 1.42.34.21.97-.35 1.18-.65.2-.28-.05.49.42.56.45.07.8-.21.87-.48.07-.27.04.8.58.77.54-.03.58-.36.65-.53.07-.17.4.39.78.43s.77.01.8-.19c.03-.2.25.48.89.42.64-.07.61-.31.64-.48.03-.17-.25.1-.65.04zm-5.14-1.18c-.05.254-.55.88-.68.777-.14-.1 0-.16.13-.4.13-.23.6-.77.54-.37zm4.22.246c-.14-.098.27-1.49.37-1.656.17-.292.25-.544.42-.664.2-.136.38 0 .34.225-.05.226-.22.8-.38 1.048-.16.247-.64 1.137-.77 1.047zm5.24-1.892c.1.096.41-.123.44-.428.02-.293-.16-.507-.54-.61-.24-.063-1.23-.11-1.57.192-.34.305-.57.89.05 1.42.62.53 1.32.54 1.64 1.08.16.258.03.496-.26.52-.28.02-.93.066-1.43-.564-.38-.492-.51-.62-.56-.844-.04-.226-.17.867.14 1.407.2.35 1.29.97 1.7.96.42-.01 1.12-.09 1.09-.67-.02-.58-.09-.84-.84-1.5-.75-.65-1.26-.59-1.33-.98-.09-.52.48-.41.8-.35.33.07.54.26.67.38zm1.35.912c.12-.052.37.09.34.258s.14-.372.54-.372.44.1.51.337c.04.155.15-.015.2-.08.1-.134.33-.348.57-.28s.37.517.27.877c-.1.36-.19.818.01.833.29.022.82-1.352.87-1.645.06-.292.47-.146.45.158-.02.253-.42.754-.37 1.104.04.35-.03.708-.16.652-.12-.056-.1-.214-.19-.18-.07.025-.37.507-.69.473s-.36-.09-.44-.304c-.17-.47.42-1.97.02-1.76-.43.23-.45 1.89-.73 1.94-.38.07-.38-.73-.15-1.02.23-.29.21-1.03-.27-.81-.26.13-.32 1.79-.54 2.04-.21.25-.43-.47-.3-.94.23-.85-.11-1.19.06-1.26zm3.74-.722c-.21-.123-.45-.7-.22-.98.24-.282.52.146.6.484.04.155-.19.608-.38.496zm1.3-.822c.1-.137.03-.575-.18-.53-.21.046-.45.947-.65 1.6s-.42 1.858-.1 2.207c.21.237.64.27.84-.012.2-.27.4-.63.49-.63.23.02.02.6.32.62s.54-.79.83-.79c.19 0 .44 1.13.83 1.21.4.08.62-1.12.75-1.46.07-.21-.17.07-.25.13-.08.06-.33.34-.55.33-.16-.01-.22-.48-.52-.56-.32-.08-.49-.01-.8.22-.45.32-.04-.88.21-1.11.24-.23.6-.9.62-1.28.01-.38-.07-.69-.19-.57-.11.11-1.25 2.44-1.58 2.88-.32.43-.71.79-.74.4-.05-.47.19-1.76.45-1.77.26-.01.16.11.37-.06.17-.13.61-.66.37-.72-.23-.05-.61.06-.52-.06zM77.7 162.298c-.37-.37-.98-.406-1.486 0-.507.404-1.35 3.647-1.35 3.986 0 .473.708 1.216.64.742-.067-.473.237-2.635.507-2.5.34.17.65.237 1.32-.235s.75-1.62.38-1.99zm-.844 1.418c-.35.37-.776.575-.776.575.033-.27.155-1.85 1.182-1.85.236 0 .203.64-.406 1.29zm6.464 2.254c-.404-.068-.605-.133-.404-.294.225-.18.36-.45.697-1.127.34-.68.563-1.59.563-1.83s-.157-.75-.676-.61c-.385.1-1.173.95-1.35 1.78-.182.83-.137 1.19-.137 1.49 0 .3-.326.3-.44.29-.276-.03-.562-.09-.427-.49.11-.32.36-.52.428-.65.067-.14-.067-.52-.37-.52-.306 0-.542.28-.575.62-.04.34-.14.94-.34.94-.21 0-.34-.11-.24-.5.09-.35.4-.72.27-.89s-.41-.31-.44-.07c-.04.23-.56 1.19-.88 1.38-.17.1-.27-.17-.24-.48.03-.31.26-1.02.13-1.08-.37-.17-.36.11-.62.05-.31-.07-.87.35-1.07.65-.2.3-.44 1.16-.04 1.41.33.21.96-.35 1.18-.65.2-.28-.05.49.41.56.45.06.8-.22.86-.49.06-.27.03.8.57.77.54-.04.57-.36.64-.53.07-.17.41.39.78.42.37.03.77.01.8-.19.03-.2.25.48.89.42.64-.07.61-.32.64-.48.03-.17-.25.1-.66.03zm-5.134-1.18c-.042.253-.54.877-.676.775-.135-.1 0-.17.136-.405.134-.236.607-.777.54-.37zm4.223.243c-.14-.098.27-1.49.37-1.654.17-.3.24-.55.42-.67.2-.14.38 0 .34.22-.05.22-.22.8-.37 1.04-.16.24-.65 1.13-.77 1.04zm5.24-1.893c.1.098.41-.12.44-.426.02-.292-.16-.506-.54-.608-.25-.064-1.23-.112-1.57.192-.34.304-.57.89.05 1.418.62.53 1.31.54 1.64 1.08.15.26.02.498-.26.52-.28.022-.94.066-1.43-.563-.39-.49-.52-.62-.57-.845-.05-.225-.17.867.13 1.408.19.344 1.28.97 1.7.957.41-.01 1.11-.09 1.09-.676-.03-.585-.09-.845-.85-1.497-.75-.653-1.26-.597-1.33-.98-.1-.525.47-.417.8-.348.32.066.54.257.66.37zm1.35.913c.12-.05.37.09.34.26s.14-.372.54-.372.44.11.5.34c.04.16.15-.01.2-.08.1-.13.33-.35.57-.28.24.07.37.52.27.88-.1.36-.19.82.01.84.29.02.82-1.35.88-1.64.05-.29.47-.14.45.16-.02.26-.42.76-.38 1.11.04.35-.04.71-.16.65-.12-.05-.1-.21-.19-.18-.07.03-.37.51-.69.48-.31-.03-.36-.09-.44-.3-.17-.47.42-1.97.02-1.77-.44.23-.45 1.89-.73 1.94-.39.06-.39-.73-.16-1.03.22-.29.2-1.03-.27-.81-.27.13-.33 1.79-.54 2.04-.22.25-.43-.47-.31-.94.22-.85-.12-1.19.05-1.26zm3.74-.72c-.21-.123-.45-.7-.22-.98s.52.146.59.484c.03.155-.19.607-.38.495zm1.3-.823c.1-.137.03-.574-.18-.528-.22.045-.45.944-.66 1.6-.21.65-.42 1.857-.11 2.207.21.23.64.27.85-.02.2-.28.39-.64.48-.63.23.01.02.59.32.62.29.02.54-.79.83-.79.19 0 .44 1.12.83 1.2.39.08.62-1.13.74-1.47.07-.22-.17.06-.25.12-.08.05-.33.34-.55.32-.16-.01-.21-.49-.52-.57-.32-.08-.48-.01-.8.21-.45.32-.04-.88.21-1.12.24-.24.6-.91.62-1.29.01-.38-.07-.69-.18-.58-.12.11-1.25 2.44-1.58 2.88-.32.42-.71.79-.75.39-.04-.47.19-1.76.45-1.77.26-.01.16.11.37-.06.17-.13.61-.66.37-.72-.24-.06-.62.06-.53-.07zm-87.1-69.2c-.07-.32-.3-.43-.58-.203-.29.227-1.29 2.48-1.36 2.726-.1.345.02.984.09.63s.64-1.89.72-1.755c.09.17.2.26.56.008.36-.254.63-1.083.56-1.405zm-.63.92c-.22.224-.43.314-.43.314.07-.192.45-1.335.85-1.194.09.032-.06.496-.43.88zm2.07 2.53c-.15-.104-.21-.18-.1-.268.12-.1.23-.28.51-.727.27-.447.55-1.083.6-1.255.05-.172.09-.564-.14-.536-.17.02-.66.536-.9 1.114-.25.583-.3.853-.37 1.075-.07.222-.19.177-.23.154-.11-.06-.2-.143-.07-.413.11-.218.25-.33.3-.418.05-.09.08-.387-.04-.43-.12-.04-.27.132-.36.375-.09.25-.25.68-.33.65-.08-.03-.11-.13.01-.39.11-.24.31-.47.29-.61-.02-.14-.1-.28-.16-.11-.06.17-.47.8-.63.89-.09.05-.07-.16 0-.38.07-.21.31-.71.28-.77-.11-.17-.16.04-.26-.04-.11-.09-.42.14-.56.33-.14.2-.42.79-.31 1.04.09.2.45-.12.6-.31.14-.17-.13.36.04.47.16.11.35-.04.44-.23.08-.19-.16.59.06.64.22.05.3-.18.36-.3.06-.11.07.34.21.42.14.08.29.11.35-.03.05-.14-.01.39.26.43s.3-.14.35-.26-.12.04-.27-.06zm-1.76-1.564c-.07.18-.4.567-.43.475-.03-.09.03-.12.13-.27s.4-.48.29-.19zm1.59.758c-.03-.09.42-1.05.49-1.158.12-.19.21-.363.3-.426.1-.07.15.052.08.21s-.25.554-.37.713c-.11.16-.49.743-.52.66zm2.44-.662c.02.084.19-.032.26-.252.07-.21.04-.392-.09-.518-.08-.08-.46-.25-.65-.075-.2.175-.41.572-.28 1.043.13.472.4.575.42 1.015.01.21-.09.365-.2.343-.11-.022-.38-.08-.44-.607-.05-.41-.07-.52-.04-.69s-.24.61-.24 1.05c.01.28.3.89.47.93.16.05.45.09.57-.34.11-.43.14-.63-.02-1.21s-.37-.6-.32-.89c.07-.39.27-.24.38-.14.11.1.15.27.18.36zm.34.85c.06-.02.12.118.08.237-.05.11.13-.26.28-.2.15.05.15.13.12.31-.02.12.06.01.09-.03.07-.09.21-.21.29-.13.08.08.04.43-.08.68s-.24.57-.17.61c.11.05.61-.88.69-1.08.09-.21.22-.05.15.17-.06.18-.32.49-.37.75-.06.26-.16.51-.2.45-.04-.06 0-.17-.04-.16-.03.01-.25.32-.37.25-.11-.07-.12-.12-.11-.28.03-.37.57-1.39.37-1.29-.22.1-.57 1.32-.69 1.31-.16-.01.01-.59.15-.77.15-.19.29-.73.06-.63-.13.05-.5 1.26-.63 1.41s-.07-.4.08-.74c.26-.6.2-.89.28-.91zm1.61-.012c-.06-.12-.03-.573.12-.746.15-.173.17.178.13.436-.02.118-.2.417-.26.31zm.68-.422c.07-.086.13-.415.04-.41-.09.003-.37.628-.59 1.077-.22.45-.55 1.3-.5 1.597.03.203.19.285.33.108.13-.176.28-.41.32-.395.08.04-.12.44-.01.495.11.057.38-.5.49-.46.08.025-.06.88.08.993.14.112.48-.737.6-.967.08-.146-.08.026-.12.057-.04.03-.19.202-.28.163-.06-.027.02-.384-.08-.482-.11-.1-.19-.075-.36.046-.24.17.17-.646.32-.785.14-.138.42-.574.51-.852.08-.278.12-.51.05-.444-.07.06-1 1.61-1.22 1.88-.22.27-.44.48-.38.18.08-.35.44-1.26.54-1.23.1.03.04.1.15.01.09-.08.37-.4.29-.48-.08-.07-.25-.04-.19-.12zM71.64 199.11c1.354.643 2.994 3.494 3.28 5.204.284 1.71.354 3.136.213 3.493-.14.355.57-.856 1.07-.785.5.072.29.428.65.428.36 0 4.85-2.14 5.28-3.563s0-1.212.29-1.14 1.07.426 1.07.854 3.49 2.28 3.42 4.85c-.07 2.57-1.852 2.5-2.85 2.5s-4.063.36-5.06.43c-.79.06.568.93 1.21 1.93.64 1 1.07 2.85 1.78 3 .71.14 1.426.14 1.64-.14.21-.28.997 3.14 1.07 3.85.07.71-1.783.93-3.28.21-1.5-.71-3.21-3.56-3.92-5.41-.712-1.85-1.283-2.49-1.996-2.42-.713.07-.356.15-.5.72s0 6.84.07 7.63c.074.78.93 2.07.145 2.42-.783.36-2.494-.21-3.42-4.06-.927-3.85-1.426-11.62-1.14-13.33.284-1.71-.215-3.28-.43-4.2-.21-.93-.498-2.42.144-2.56.64-.14.94-.02 1.284.14zm17.035 4.206c.614-.367 2.597.972 3.28 1.854 1.21 1.568 1.566 3.35 1.923 3.636.356.284 4.918-4.705 4.99-5.133.07-.428-.072-.855.356-.783.427.07 2.71 3.49 2.78 4.418.07.928.212 2.495-1.284 3.208-1.496.712-4.35 1-4.35 1.426 0 .428 2.283 1.995 3.067 5.346.464 1.988.285 4.92-.57 5.274-.856.356-1.427.07-2.067-.214-.642-.285-2.28-1.71-2.067-2.778.22-1.07 1.17-3.51-.49-6.415-.57-1-.85.64-2.71-1.356-1.66-1.79-.78-2.86-1.28-3.21-1.25-.9-2.63-4.64-1.56-5.28zm25.59 6.844c-.5-1.57-3.284-2.673-4.135-2.567-.57.072-4.847-.783-4.99 5.562-.143 6.343 3.636 6.983 5.347 7.056 1.71.07 2.85-1.21 3.92-2.85 1.07-1.64.357-5.63-.143-7.2zm-2.995 4.917c-1.21 1.497-1.995 1.64-2.565 1.426-.57-.213-.57-1.996.07-3.065.643-1.068.286-1.282.286-1.923 0-.643-.15-1.427-.65-1.712-.68-.39 2.35.144 2.85.854.5.714 1.21 2.924 0 4.42zm7.057-8.697c.655.438 4.86-.252 7.13.43 1.424.428 2.85 1.14 2.85 1.853 0 .714-2.71 1.426-2.71 1.854 0 .43.643.642 1.14 2.28.5 1.64.572 9.34-.78 9.623-1.356.286-3.495-1.568-3.565-4.42-.07-2.85.5-6.058.07-6.77-.427-.713-.57-.07-1.568.143-.997.214-2.28-.07-3.563-1.496-1.29-1.426-.72-2.067-.65-2.924.07-.856 1.21-.856 1.64-.572zm15.467 1.428c-.366-.437 0 0 4.634-.357.923-.07 3.063.65 4.205 3.28 1.15 2.64 1.22 2 1.07 2.71-.14.72-.92 5.85-1.85 6.7-.73.68-3.92 1.36-5.27.86-2.2-.81-2.78-2.35-3.21-3.78-.42-1.42.07-7.48 1.64-7.77 1.57-.28 1.36.72 1.21 1.14-.14.43-1.28 5.49-.28 6.7.26.31 1.86.29 2.14 0s2.63-2.91 1.21-6.06c-.64-1.42-3.99-1.64-5.49-3.42z"/>
</svg>
