<svg xmlns="http://www.w3.org/2000/svg" width="300" height="300" viewBox="-25 -70 320 320">
  <path d="M233.812 143.415c0-.168-.21-.422-.21-.463-.17-1.518-.21-3.076-.21-4.592v-.422c-.17-1.686-.254-3.37-.422-5.057v-17.69c0-1.43-.21-5.47-.21-5.52-.17-1.64-.212-3.32-.212-5.01V84.44c0-2.53.422-22.205.422-22.33 0-1.687.21-6.615.253-6.784.168-1.56-.76-2.106-2.782-1.643h-2.52v67.827c.34 2.484.15 4.82.11 7.686v1.684c0 .97-.08 3.018-.08 3.986 0 .13.5 9.71.5 9.71 0 .423.36.483.53.862 0 .043.05.084.22.084.47.465 1.31.717 2.53.717 1.18 0 1.62-.3 1.96-.89.38-.63.7-1.1.36-1.35-.17-.13-.21-.34-.21-.59zm-1.685-4.213v5.478h-2.107v-.42c0-1.56-.317-3.2-.317-4.718v-.42c0-1.14-.212-3.37-.212-3.412-.16-1.77-.1-5.775-.1-5.818-.17-1.644-.21-3.328-.21-5.013v-69.1c.17 0 .02-1.02.02-1.27h2.51V68c0 7.584-.55 14.528-.38 22.11.04 1.307.24 5.53.07 6.878-.04.59-.08 1.098-.08 1.69 0 3.2.4 6.566.4 9.768v25.278c0 1.516.42 5.182.42 5.477zm-59.19-18.325c.168-.17.21-.38.21-.633 0-.717-.398-2.948-.398-3.622v-.42c0-2.403.24-3.606.24-5.965v-.423c0-2.275-.27-6.675-.27-6.843s0-.25-.09-.25c-.21-.12-.47-.17-.76-.17v16.86c-.09 1.77.25 2.28 1.05 1.48zm-.295 2.063c-.21-.127-.464-.168-.76-.168v7.162c0 1.98.085 3.918.212 5.855 0 .04.084.04.212.04.505.71.757.59.84-.43v-7.58c0-.17 0-.3.043-.42.08-1.69-.05-3.08-.47-4.22 0-.17 0-.25-.09-.25zm-11.292-14.492v-.422h-.42c0 3.37.084 6.658.212 9.9l.252-.126c.126-.084.38-.38.38-.505 0-1.98.083-7.963-.423-8.426v-.43zm0 16.852c0-.168 0-.295.044-.42.21-1.644-.084-2.78-.885-3.37v15.586c1.01 1.22 1.47.672 1.43-1.688-.13-3.243-.21-6.445-.38-9.69 0-.168-.05-.293-.21-.42zm22.33 17.27c-.254.13-.465.298-.59.55-.59 1.14-1.39 2.107-2.36 2.822 0 .422.084.8.212 1.18 0 .043.084.084.21.084 1.053.758 1.728.465 2.064-.885.042-.12.042-.25.042-.37.507-.63.928-1.35 1.266-2.15.63-1.43.335-1.85-.844-1.22zm16.85.423c-.127 0-2.528-.63-2.57-.63-.673-.17-1.727 1.728-1.136 2.188.084.09.21.13.337.13 1.35.34 2.91.51 4.64.47.47 0 .68-.29.68-.93-.04-.12-.04-.17-.04-.21-.46-.5-1.05-.88-1.89-1.01zm-2.95.842v-.42h2.53c.167.127.293.252.42.42l.212.21c-.97 0-2.024-.083-3.162-.21zm-52.237.887c-1.096-.63-2.36-1.055-3.793-1.307h-1.685c0 1.813 1.138 2.57 3.413 2.36.126-.044.252 0 .38.167.167.127.295.252.42.422.17.125.296.254.464.293.252.084.463.045.59-.084.167-.168.295-.252.38-.293.925-.463.84-.968-.17-1.558zm5.687.968c-.338-.463-.716-.928-1.055-1.432 0-.168-.042-.254-.084-.338-.08-.043-.16-.086-.33-.086-.12 0-.21-.04-.25-.084-.34-.758-.8-.883-1.43-.336-.17.883-.08 1.516.34 1.813.04.04.09.125.09.293.13 1.434 1.1 1.94 2.91 1.518.72-.168.8-.504.25-.928-.12-.125-.25-.252-.42-.42zM31.596 51.894v.843c0 8.257-.842 37.596-.842 39.28v31.598c0 3.203.42 11.924.42 13.06 0 .126.422 9.27.422 9.27.505.462 1.35.714 2.527.714.758 0 1.02-.26 1.104-.72v-7.58c0-.17-.262-4.93-.262-5.06v-12.64s-.42-8.18-.42-12.22v-.43c-.084-1.9-.126-16.43 0-16.43v-2.1c0-1.14.294-6.32.42-6.32V71.37c0-.17.717-9.9.59-11.416-.083-1.813.225-7.22.268-7.263-.138-1.33-3.09-.8-4.227-.8zm2.95 5.58c0 .547-.423 6.57-.423 7.582 0 .126-.42 14.155-.42 15.166 0 .127-.422 5.182-.422 6.32v32.017c0 4.21.43 12.64.43 12.64v13.9h-.84c-.12 0-.21 0-.21-.05-.12-1.94-.21-3.92-.21-5.86v-.43c0-4.09-.42-15.88-.42-17.69V92.86c0-2.275.52-14.255.52-14.38 0-3.665.32-6.85.32-10.474V53.26c.17 0 1.48-.055 1.48-.18.42 1.682.21 3.494.21 4.393zm164.72 59.4c.17 0 10.028-.127 14.83-.38h.338s.59-.757.42-.884c0-.17-.21-.422-.21-.463-.126-2.234-.168-6.992-.168-7.12.168-.59 0-.886-.465-.842h-10.53c-.12 0-3.62.42-5.05.42h-2.1v7.585c0 .42.09.8.21 1.18 0 .04 1.56.714 2.74.505zm13.06-1.475c-3.202.12-6.445.25-9.69.42-1.43.04-2.568-.17-3.37-.64.295-.3.717-.42 1.265-.42h5.48c.17 0 .3 0 .42-.05 2.45-.17 4.55-.04 6.32.46-.12.12-.25.21-.42.21zm0-6.53c.17-.17.295-.26.463-.34.12-.09.25-.09.37-.09.5.76.67 1.89.55 3.37-.09.97-.17 1.89-.34 2.73l-.22-.21c-.13 0-.21-.05-.21-.09-.59-1.43-.8-3.24-.63-5.39zm-2.527 5.18c-1.39-.09-2.78-.13-4.22-.13-1.26 0-2.49.08-3.75.25-1.73.29-2.57-.26-2.57-1.52v-2.95h.42c3.62.08 6.99-.05 10.11-.43 1.43-.17 2.02.51 1.68 2.1.5 1.89-.05 2.78-1.69 2.65zm-6.32-6.07c.16.04.29.04.42.04h3.79c1.26 0 2.52.04 3.79.21v.42c-1.39.13-2.78.21-4.21.21h-2.95c-.97 0-1.94.04-2.91.12-1.22.08-2.07-.09-2.57-.55 1.22-.46 2.78-.63 4.63-.46zm-5.9 1.3c.93.21 1.22 1.05.88 2.53 0 .12-.04.25-.04.42v1.68c0 .12-.04.25-.09.29-.09.08-.17.13-.34.13-.13 0-.21 0-.21-.05-.13-1.52-.21-3.08-.21-4.59v-.43zM84.67 86.12h4.635v-4.634c0-1.137.042-2.232.17-3.37.083-1.348-.085-2.317-.59-2.95 0-.167-2.824-1.515-4.214-2.105h-1.68v11.8c-.17 1.31 1.69 1.4 1.69 1.27zm-.422-1.264V74.324c.42 0 .844.042 1.223.168.05.042 1.52.505 2.07.8.09.043.76 1.644.63 2.823-.08.548-.12 1.096-.12 1.685v5.477h-3.79v-.42zm-2.695 13.48c.04.8.25 1.308.59 1.688.926-.38 2.063-.59 3.37-.633v-9.05c0-.16 0-.21-.043-.25-1.517-.55-2.587-.22-3.852-.89 0 3.2-.233 5.49-.107 8.73 0 .17 0 .3.05.42zm1.43-8.003c.423 0 .844.043 1.223.17.042.04.042.083.042.252v7.582h-1.26c-.125 0-.21 0-.21-.04-.125-2.655-.21-5.31-.21-7.964h.42zm4.636 0h-1.26v8.424c.25 1.35.97 1.688 2.23 1.014.21-.12.42-.21.67-.29.17-.08.33-.12.46-.29v-8.01c-.13 0-.21-.04-.3-.12-.38-.46-.97-.71-1.82-.71zm1.2 3.37c0 .128-.36 4.886-.36 5.055-.13 0-.25-.04-.38-.04-.51-.213-.63-.76-.46-1.644-.13 0-.42-2.823-.42-4.213V91.6c1.82-.18 2.03.593 1.62 2.108zm31.58 50.217c.04.085.08.17.08.34 1.01.546 2.49 1.177 3.42 1.81.04.04.36-3.918.36-4.762v-28.65c-.13 0-.42-.296-.42-.42-.12 0-.25 0-.42-.046-1.05-.04-2.02-.168-2.95-.377v25.28c0 .126-.5 6.235-.08 6.825zm1.34-.927V113.08h.42c.29 0 .54.046.75.17.04 0 .08.085.08.253v26.12c0 .547.04 1.096.08 1.684.17 1.306-.24 1.36-.19 2.95-.13 0-.58-.045-.62-.13-.21-.208-.38-.462-.55-.714v-.423z"/>
  <path d="M272.063 6.246c-.084 0-.168-.042-.336-.17-.97-1.01-2.023-1.094-3.117-.25-.044.04-.128 0-.296-.085-.084-.08-.21-.08-.38-.08-2.484-1.3-4.97-2.65-7.413-4.08-.46-.25-.88-.71-1.22-1.26-.12-.25-.33-.33-.59-.29-.59.13-1.14.3-1.72.59-.04.89.34 1.48 1.18 1.64.09.05.13.17.26.38.17.47.38.93.64 1.39.3.63.63.59.89-.04-.17-1.22.21-1.43 1.18-.76 1.82 1.31 3.92 2.23 6.41 2.87 0 .13 0 .21-.04.21-1.39.3-6.11-.63-7.54-.63-.12 0-11.92-.8-12.59-.63-2.1.38-3.12-.25-2.99-1.89 0-.17 0-.25-.08-.25-.21-.12-.38-.12-.51.04-.46.55-.06 1.29-.9 1.46.21 1.18-.45 1.79.06 2.64.76 1.31 1.35 1.39 1.73.3.08-.25.17-.5.29-.71.25-.54.93-.71 1.94-.5h3.79c.17 0 3.63.13 5.06.38.17 0 .25.04.42.04 2.7 0 8.55.46 8.81.55.17.04.34.08.46.08 1.64-.08 2.78.26 3.37 1.06-4.13 2.03-8.38 3.92-12.72 5.69-1.56.63-3.03 1.31-4.46 2.07-2.7 1.43-5.56 2.74-8.55 3.88-.25.13-.46.21-.63.38-.59.46-1.47.67-2.69.63 0 .42.04.8.21 1.18 0 .04.04.09.21.09.47.63.68 1.6.51 2.95-.05.55-.09 1.1-.09 1.69v10.5c0 .12-.42 4.46-.42 4.63h-.42c-1.44 0-2.7.32-4.14.32h-.42c-1.94 0-3.8.08-5.74.08-1.09 0-2.23.04-3.32.21-2.52.34-5.55-.02-8.71-.19h-42.97c-.42 0-4.63-.42-6.31-.42H145.4c-.97 0-8.85-.42-11.8-.42H49.3c-.25 0-4.76-.42-6.74-.42H24.43c-1.812 0-5.73.42-5.898.42h-2.95c-.167 0-.21 0-.21-.04-.168-1.81-.21-5.73-.21-5.85 0-2.27-.842-15.46-.842-15.58v-.85c-.084-.5-.505-.63-1.264-.42v63.61c0 .13-.42 7.16-.42 8.85V151c0 .126.42 6.993.42 7.16H7.58c-1.685 0-6.867-.546-7.583 0 .294.423.59.8.97 1.14.04.084.167.127.293.127 2.4 0 4.76.042 7.162.21 0 0 3.244.21 4.634.21h.42c1.39-.042 2.276-.505 2.655-1.39.17-.38 7.46-4.97 10.41-7.033 1.01.42 4.38 0 5.06 0 .59 0 5.15-.514 6.96-.22.04 0 .2.767.2 1.062V156c.76 1.224 2.37.634 4.05.567.67-.027 1.72-.55 2.48-1.646.13-.25.34-.46.55-.67 1.35-1.43 2.66-2.95 3.88-4.51 1.39-.46 2.95-.71 4.64-.84h9.27c4.38 0 13.35.42 13.48.42 4.38 0 8.72.04 13.06.21 0 0 15.88-.21 18.12-.21h6.74c.17 0 3.96-.32 4.25 1.28.04.04 2.2 1.16 2.58 2.05.08.17 3.79 3.88 3.96 4.05.55.42 4.59-.92 4.09-3.2-.12-.42.13-.63.72-.59.17 0 2.7-.21 3.8-.21h17.27c2.53 0 7.88-.42 8.01-.42h15.17c.17 0 9.27-.42 10.95-.42h32.44c1.94 0 5.9.26 5.9.43.55 1.01 2.7.42 2.95.42h7.58c3.79 0 6.79.76 9.02 2.28 1.18.85 2.48 1.56 3.96 2.15.63.3 1.22.63 1.81 1.02.55.42 1.26.72 2.06.89.68.34 1.65.34 2.95 0 1.1-.29 2.36-.46 3.79-.42h5.9c1.44 0 4.76-.5 4.97-.59.09-.04.09-.12.09-.25.21-.58.04-.88-.42-.88-1.69 0-3.37.04-5.06.04h-9.69c-.17 0-1.89 0-1.89-.04-.17-1.81-.21-3.62-.21-5.43V151c0-.59-.42-4.507-.42-5.895V129.94c0-3.373-.42-13.65-.42-15.168v-.42c0-1.14-.21-3.373-.21-3.414-.16-1.39-.21-2.78-.21-4.173 0-.59-.04-1.096-.16-1.643 0-.17-.04-.294-.04-.463-.17-5.73-.21-11.55-.21-17.28V52c0-2.4-.21-7.204-.25-7.246-.12-.21 5.99-2.064 7.42-2.485 2.02-.64 4.13-1.18 6.32-1.6 2.27-.47 4.25-1.18 5.89-2.15 2.4-.09 3.37-1.22 2.82-3.46-.17-.8-.3-1.6-.3-2.45-.12 0-.42-1.98-.42-2.11v-8.42c0-.84.04-1.69.09-2.53.13-2.15-.04-4-.5-5.48-.55-.59-1.39-.85-2.53-.85-.42 0-.8.08-1.18.21-1.01.42-2.06.84-3.07 1.3-.25.12-.38.12-.38.08-.21-1.14-.63-1.98-1.26-2.44 1.43-.59 2.78-1.18 4.13-1.86.63-.3 1.39-.42 2.19-.42.8.04 1.35.33 1.69 1.01 1.52.08 2.15-.76 1.94-2.57-.04-.13.04-.21.21-.25 1.05-.3 1.73-.93 2.06-1.82-.83-.6-1.84-.68-3.02-.26zm-15.543 8.93c.927-.42 1.895-.8 2.948-1.22.463-.21.927-.38 1.39-.59.928-.338 1.307-.127 1.18.715.253 1.77 1.133 1.38-2.106 2.74-.125 0-.295.05-.463.09-1.52.63-3.04 1.31-4.55 1.94-.8.38-1.82.55-3 .55-.47.05-.68-.33-.64-1.13 0-.12-.04-.25-.21-.38 1.68-1.01 3.49-1.89 5.43-2.69zm-13.02 20.39V21.242c1.814-.462 3.372-1.137 4.678-2.02.885-.59 1.895 1.473.843 1.81-.42.127-.88.295-1.34.506-1.01.464-2.02.843-2.95 1.264-.42.17-.42.464.04.97.47.463.68 1.348.59 2.527-.12 1.13-.17 2.23-.17 3.37v11.79h-1.26c-.17 0-.21 0-.21-.04-.16-1.82-.21-3.63-.21-5.44v-.43zm4.636-10.53v16.426c-.17.128-.295.212-.463.296-.76.25-1.096.167-1.096-.296-.086-5.77-.126-11.543-.126-17.272.17 0 .26.042.34.084.05.084.63.38.84.506.09 0 .34.253.51.253zm-5.428-1.984c-.044.126-.123 1.572-.08 1.698.127 1.56-.07 3.235-.07 4.794v1.264c0 .126-.278 3.916-.11 5.98 0 .042.254 2.275.295 3.412.084 1.517-.73 1.54-1.406.865v-.42c0-1.686.16-2.972.16-4.656v-.43c0-1.98-.1-11.21-.522-13.48.883-.05 1.86-.17 1.733.96zM26.118 52.84v21.903c0 .127-.42 5.31-.42 6.74v69.094c-.125 0-9.983 6.53-10.153 6.613-.253.085-.38.085-.38.044-.293-1.223-.42-2.443-.42-3.707V86.542c0-.17.843-19.674.843-21.907v-20.22h.42c.295 0 6.404 2.696 8.89 4.13.126.04.252.082.38.082 1.564 1.007.84 3.623.84 4.212zm12.218 96.893v.422h-7.162c-.673 0-3.37 0-3.37-.04-.253-5.437-.42-10.913-.42-16.39v-7.582c0-1.265-.422-15.884-.422-16.01V93.28c0-2.95.42-15.46.42-15.586 0-.168.422-7.457.422-7.583V49.89h.42c1.77-.505 9.985-.493 9.733-.41-.17.043.126 4.877 0 7.15-.042.127-.042 8.258-.042 12.22v16.006c0 1.814-.22 9.056-.22 9.226.11 3.325.184 2.866-2.09 2.572.04 1.22.203 13.06.203 13.06.168.253 1.138 1.263 1.264 1.263.927.21 1.306 1.053 1.138 2.527-.21 1.56-.294 7.71-.294 9.27v3.79c0 5.184.42 17.53.42 18.54v4.63zm-.8-49.29c0 .17-.042.253-.042.42v8.427c-.59.17-.884.043-.884-.42.042-1.685.042-3.37.042-5.055v-5.262c.927.213 1.222.417.884 1.89zm1.644 28.228v-47.6h1.684v52.67H39.6c-.124 0-.21 0-.21-.04-.125-1.64-.21-3.33-.21-5.01zm2.148-52.24c.126 1.52-.042 2.07-.463 1.69 0-1.01.042-1.98.084-2.95.08-1.13-.21-1.85-.93-2.1-.13 0-.42.68-.42.84 0 1.27.5 5.06.59 5.14 1.01.51.67.76-1.01.76V69.27h.42c0 .127 2.02.633 1.72 2.107 0 .126-.05 2.106-.05 2.95 0 .125.04 1.515.04 2.105zm-.422 59.79c.252 1.01-.042 1.43-.885 1.31h-.42v-2.94h1.27v1.27c0 .13.04.25.04.38zm-1.306 4.67v-2.1h1.686v8.01H40.02v-2.95c1.055-.25 1.223-.8.55-1.77-.084-.08-.126-.21-.126-.33 0-.17 0-.25-.084-.25-.21-.13-.464-.17-.76-.17v-.42zm1.687 14.75c-.253 0-.66-.23-.842 0-.127.16-.21 0-.21-.04-.127-1.22-.212-2.48-.212-3.75v-4.21h1.265v.42c0 2.23.084 4.46.21 6.7 0 .04-.043.88-.21.88zm.716-101.06c-.168 1.35-.294 2.74-.294 4.17 0 2.15-.05 4.3-.17 6.41.04.09.04.17.04.3.17 1.01.28 2.77-.05 3.28-.3.51-1.05-.24-1.93-.28V52c1.93-.38 2.73.46 2.4 2.57zm-1.98-5.52c1.474-.21 2.485-.05 3.118.59-.8-.55-.28.05-.95.77-.63.72-2.2-.1-2.16-1.36zM50.26 57.9c-.086.42-.128 8.55-.128 12.217v8.003c0 4.462-.42 29.91-.42 31.594v.42c0 .846.42 18.246.42 20.225v11.37c-.253 0-.42-.05-.42-.09-.295-1.22-.422-2.45-.422-3.71 0-8.3 0-25.15-.084-25.24-.084-.17-.17-.34-.337-.46h-.43c-1.18.21-3.79.63-3.84.63-.38.12-.8.21-1.22.21v31.18c.46 1.3 1.18 1.51 2.23.5.04-.04 4.21-1.73 4.29-2.15 0-.05.08-.05.21-.05v4.63c0 .12-.46.67-.51.71-2.07 2.19-6.49 7.28-6.66 7.28-.12 0-.21 0-.21-.04-.13-1.81-.21-5.73-.21-5.85v-10.96c0-.85-.04-1.69-.17-2.53 0-.13-.04-.3-.04-.43-.13-7.45-.21-14.91-.21-22.32V97.5c.17 0 2.4.42 2.53.42v11.798c-.13 0-1.52.42-1.69.42v.843h2.95v-.42c0-.59.38-7.2.84-8h2.1v-.42c0-1.52.42-8.72.42-10.53v-6.74c0-.17-.25-15.33-.42-15.16v-1.27c0-.59.08-4.5.21-5.89.13-1.47-.46-3.41-.51-3.49-.89-.8-3.5-1.77-3.54-1.81-.38-.12-.48 0-.9 0 0 2.36-.32 4.6-.32 7v16c0 .97-.42 7.16-.42 8.01 0 .13-.43 8.26-.43 8.43-.13 0-.63 0-.63-.04-.12-1.81-.21-3.62-.21-5.43v-2.53c0-3.11.3-9.26.42-9.26v-6.75c0-2.83.84-18.41.84-18.54v-1.26c.59 0 1.13.04 1.64.17.04.04 2.82.84 3.66 1.73.13.12.3.25.51.38.08 0 1.34 1.3 1.05 2.78zm-2.023 79.2s.252 2.23.336 3.33c.127 1.346-.21 2.105-1.01 2.316-.76.21-2.908 1.054-2.908 1.01-.294-1.22-.42-4-.42-4.126v-25.7c.167 0 2.105-.59 3.37-.38.504.04.673.462.504 1.222-.05.293-.09 6.146-.09 8.844v.423c0 4.34.08 8.72.21 13.06zm-.21-52.66v12.22c0 .167.083 2.357.167 3.327.084.8-.084 1.223-.59 1.265-1.18.21-1.602-.334-1.264-1.64.21-1.052.042-1.73-.463-2.065-.505-.294-1.053-.63-1.643-.884.168 0 .42-3.54.42-5.056v-2.11c0-.17.296-5.897.422-5.897V58.74c.42 0 2.232.38 2.316.803 0 0 .085.04.21.04v17.27c.003.12.424 7.41.424 7.58zM46.34 49.05c.448.1.97.074 1.12.68.158.65-.076 1.96-.188 2.725-.093.64-1.064.606-1.115.06-.21-.97.184-2.497.184-3.465zm3.27 4.133l-.775-.13c-.463-.29-.673.11-.59-.85.043-.715.202-2.47.202-3.142.927.21 1.423.18 1.128 1.65-.126.76-.008 2.11.034 2.49zm.944.08v-3.81c.842-.08 1.376-.38 1.124.55 0 .13.136 1.507.13 1.92-.015 1.257-.032 1.52-1.254 1.35zm.842 71.62v-2.52c0-8.3-.253-24.854-.422-24.854V60.43c0-.42.464-5.52 0-5.897h8.005v1.263c0 .13.42 4.89.42 5.9V73.49c0 1.81.42 8.55.42 10.11v26.12c0 .124.08 5.896.2 5.896.12.13.25.297.33.466.08.087.08.21.08.38-.13 0-2.43 2.367-4.46.468-.09.76-.59 2.02-.04 2.23.08.04.5 3.876.5 4.044v12.216c0 .13-.04.254-.09.338-1.18 1.35-4.38 3.878-4.55 3.878-.13 0-.21 0-.21-.042-.13-1.938-.21-11.923-.21-14.703zM53.9 53.1l-.974.072c-.506-.252-.477-1.007-.393-2.06.084-.674.126-1.39.126-2.064.92.21 1.5.175 1.2 1.65-.13.758-.01 2.024.03 2.403zm1.265-3.973c.126 0 .934.08 1.06.08.13 1.533.837 4.048-.216 4.09-.3.043-.82-.08-.82-.12-.3-1.348-.03-2.66-.03-4.05zm2.13-.08c1.264-.125 1.328.032 1.39 2.107.013.43-.126.843-.126 1.264 0 .127 0 .21-.09.253-.21.09-.71.25-1 .25 0-.17 0-.29.04-.42.04-1.35.11-2.56-.23-3.45zm5.94 3.37c0 .464-.573.59-1.204.422-.12 0-.21 0-.21-.05-.12-1.22.11-2.49.11-3.75 1.31-.04 1.33.08 1.31 1.97 0 .12-.04.81-.04.98 0 .12 0 .25.04.42zm-.464 1.686h.42c1.86 0 5.78-.42 5.9-.42h9.27c.51.884.51 6.36 0 7.16-.54-.42-5.14-1.937-6.19-2.358-2.06-.842-4.17-1.643-6.4-2.4-.16-.085-.33-.127-.5-.127-1.81-.378-3.33-1.01-4.59-1.854h2.11zm2.72-1.61c-.01.238-1.43.637-1.44.24-.02-.533-.01-1.453-.01-2v-1.368c1.31-.042 1.45-.316 1.35 1.65-.04.297.2 1.268.11 1.478zm.65-3.024h.85c0 .12.13-.15.13.02.34 1.6.44 2.29.15 3.27 0-.17-1.27.34-1.19-.11.18-1 .08-2.22.08-3.19zm2.74 2.9c.12.43-1.1.64-1.11-.08-.02-.96-.15-1.22.07-2.7.93.33 1.23-.69 1.02.95-.04.12.04 1.69.04 1.81zm1.78.53c-1.26.17-1.32-.75-.9-2.44v-.84c1.27-.13 1.37.27 1.23 2.1 0 .12.4 1.04-.32 1.17zm1.46-2.19c-.19-1.92 1.32-.67.94-1.01.42-.02-.03 2.31-.16 3.04-.04.08-.17-.03-.68.14-.46.16.02-1.04-.1-2.19zm1.8 1.84c0-.84.24-2.25.24-3.09H75c0 .12.04.25.04.42.34 1.47.2 1.44-.006 2.52 0-.17-1.116.26-1.116.13zm2.05-2.71c-.08-.25.84.01.84-.24.37 1.64.46.97.13 2.44.03.54-.94.72-1.07.19 0-.3.16-2.11.12-2.4zm6.53 5.64c.05.04 6.83 3.5 6.83 3.66.93-.09 1.27 1.51 1.27 1.68v4.63c0 2.36.09 4.76.21 7.12 0 .04.21 2.27.21 3.41 0 .12.42 12.21.42 12.21v16.85H80.47V83.59c0-5.223.42-15.88.42-16.01 0-.714-.21-2.104-.21-2.104.042-1.6-.38-5.267-.547-6.74-.05-.59-.09-1.98-.09-2.107v-2.11c.97.13 1.77.46 2.44.97zm-.75-6.34c.93.33.98-.38.79 3.13l-.68.06c-.34-.68-.11-2.24-.11-3.21zm24.1 22.12c.72.25 1.48.14 2.45.18.34.04.89.75.21 1.22-.93.64 2.77 1.88 3.95 1.88s3.93-1.16 4.06-1.16c.3-.29.98-.64.89-1.14-.89-.36-1.61-4.85-1.61-4.89-.34-.55-1-1.69-1.6-1.9-.13 0-.67-.6-.84-.85 1.69 0 3.37.04 5.02.21.04 0 .04.04.04.21v8c0 .12-.08 14.11-.88 13.98-.25-.09-.42-.17-.59-.3-.34-.34-1.47-.93-1.47-1.06-.13 0-.25-.04-.34-.13-.42-.25-1.81-.55-1.85-.59-1.14-.67-2.53-1.18-4.13-1.39-.12 0-2.9-.89-4.21-1.27-.12 0-3.83-1.22-3.79-2.11.76.04 1.18-.25 1.26-.84v-.42c-.12 0-.25-.04-.33-.09-2.65-1.56-7.71-5.23-7.75-5.31-.5-.46-1.81-1.39-1.81-1.39-.12-.84-.21-2.78-.21-2.91V65.4h6.32c.17 0 5.52-.17 5.52 0 .3 1.56 0 2.53-.88 2.95h-.42c.74 2.255 2.36 2.553 3.03 2.85zm-.25-5.84c-.04-.13 0-.26.05-.42.09-.43.13-.8.13-1.23 0-.17-.53 1.28 0-.42s2.4-2.27 4.04-.55c.13.08.53.81.57 1.06.3 1.35.4 2.05.86 3.27.17.12.38.69.46.86.49.33.97.42.97.72.04.71-1.05.86-1.56 1.07-1.13.5-2.48.67-4.04.5h-.46c-1.26 0-1.94-.5-2.1-1.47.89-.55 1.23-1.69 1.1-3.42zm8.56 7.83c-2.39.76-4.17-.09-4.17-.21 0-.17-.64-.38-.64-.5 0-.43.64-.77.64-1.19 2.36.08 3.58-.93 3.75-2.95.04-.17.04-.3.04-.42-.13 0-.25-.04-.42-.04-.89-.21-1.31-.93-1.27-2.07.27-.96 1.22-.04 1.81.56 0 .04 1.31 2.13 1.69 3.6.05.29.17.59.3.88v.42c1.01.42-1.68 1.89-1.72 1.89zm4.72 16.64c0 .12-.04.25-.04.42H118c-.55 0-1.94 0-2.066.04-.635.12-.93 0-.89-.47 0-.17-.38-1.14-.42-1.69.59 0 2.108-.29 2.108-.42 1.81-.42 2.525.3 2.15 2.11zm-5.94 15.16c-1.35.29-2.61.67-3.84 1.13-.25.08-.46.17-.67.29-1.22.71-5.56 1.73-6.44 1.56-.29-.05-.42-.09-.42-.09-.08-1.01-.33-1.69-.84-2.06v-2.94h1.69c1.27-.04 2.36-.17 3.37-.38.17-.04 3.79-.46 5.48-.46h.42c.29 0 2.44-.47 2.48 0 .04.17.04.25.04.42 0 .17.05.25.05.38.34 1.34-1.31 1.98-1.31 2.14zm.87.61l-2.64 1.28c-.58.54-3.32 1.25-3.32 1.25-1.35.46-2.57.93-3.75 1.47-.25.12-.54.29-.8.42-1.18.67-1.89.55-2.14-.42.8.04 1.35-.05 1.77-.34.09-.04 9.93-3.55 10.9-3.68zm-12.26-9.46v-.42c.17-.17.3-.26.47-.34.13-.09.25-.09.38-.09 0-.17-.04-.26-.08-.38-.21-.34-.29-.76-.34-1.31.51-.25.64-.8.47-1.69 0-.17-.04-.3-.04-.42-.12 0-.25-.04-.34-.13-.34-.22-.46-.59-.5-1.14.93-.21 1.52-.09 1.81.29.09.09.17.13.3.13 0 1.27 0 2.53-.04 3.79 0 .47.3.59.89.43v-4.21c1.09-.25 1.47.13 1.09 1.18-.04.04-.08.09-.25.09-.08.8.34 1.18 1.27 1.05v3.58h-.21c0-1.52-.33-2.66-1.05-3.37v3.37h-.84c0 .16 0 .21-.04.21-1.35.25-2.31.04-2.91-.63zm2.74 1.85c0 .04-.08.04-.25.08-1.01.33-1.68.21-2.06-.26.93-.63 1.69-.59 2.32.17zm-2.32-10.28v-.84c1.52-.25 2.19.17 2.11 1.22 0 0-.04-.04-.21-.17-.63-.63-1.26-.72-1.89-.21zm3.8 0h1.69c.59.21 1.31.38 2.07.51 1.44.16 1.56.5.38.92-.08 0-.16-.04-.29-.21-.38-.46-1.14-.59-2.15-.38 0 .13-.04.21-.08.3-1.05.8-1.6.42-1.6-1.14zm4.17 5.9c0 .12.04.25.04.42v2.95c1.52.13 1.64.38.38.76-1.68.5-2.53.08-2.48-1.18 0-.17-.04-.26-.04-.42-.3-1.9-.42-4-.38-6.32 1.09 1.01 1.89 2.27 2.48 3.79zm1.22-.05c-.21 1.18-.42 1.18-.63 0-.08-.38-.13-.8-.13-1.22.72-.13 1.31-.3 1.69-.42l.04.42c.04.88-.29 1.14-.88.84l-.08.38zm.51-4.59c1.64.04 2.02.5 1.05 1.47l-.25-.09c-.59-.17-.85-.64-.8-1.39zm.59-1.14c-.68-.38-3.58-1.1-4.34-1.18-.17 0-4.09-.64-4.26-.64h-2.17c0-.17 0-1.05-.08-1.05-.21-.13-.28-1.64-.28-2.74h.42c.17 0 1.14.38 1.69.42.17 0 3.79.97 5.1 1.6.12.04 3.66 1.52 4.59 1.56.67.04 1.09.38 1.26 1.05-.46.09-.76.34-.84.85-.08.47-.46.51-1.1.13zm-6.91 11.67h.42V97.9c.17.167.29.25.46.335.13.045.25.086.38.086-.17.72.13 1.01.84.89.17-.04 2.32-.58 3.41-.12.13.04.26.09.38.09.93-.21 1.22-1.05.85-2.52-.17-.76-.04-1.18.42-1.26h.42v-2.11c.42-.68.67-.8.72-.42.01.08.13.88.13 2.52 0 .13.04 1.52.09 2.11.17 1.31-.75 3.37-.92 3.37 0 .17-2.78.42-4.21.42h-.42c-1.26 0-6.15.42-7.16.42v-2.1h4.21zm-7.88-22.62c.84.37 2.27 1.81 2.44 1.89.33.12.29.59-.05 1.34 0 1.39-.38 1.6-1.09.63-.13-.17-.3-.25-.55-.34-.17-.09-.72-.59-.88-.72 0-.17-3.21-1.98-4.64-2.95-.13 0-.21 0-.21-.04-.13-1.1-.21-2.24-.21-3.33.3.25 3.84 2.9 5.18 3.49zm-3.5 9.14c.17.12.29.25.46.33.12.04.25.08.38.08 1.26-.13 1.77.59 1.47 2.15-.17 1.13-.25 2.1-.21 2.9l-.21-.21c-.13-.17-.21-.38-.21-.63v-2.9c-1.22-1.14-1.81-.89-1.68.84.09.76.17 1.47.3 2.1.29 1.48.21 2.57-.3 3.37-.13 0-.21 0-.21-.04-.13-2.48-.8-10.74-1.06-11.33 1.31.08 2.02.63 2.11 1.68l-.3-.21c-.5-.25-.67.38-.54 1.9zm2.1-1.69c1.14 0 1.48.63 1.06 1.89l-.25-.17c-.51-.34-.76-.92-.8-1.73zm-.42 10.96h.42V92.4c1.64-.21 2.23.63 1.9 2.57l-.38 2.02c0 .17-.09.29-.25.46-.08.46-.5.71-1.26.71-1.3 0-2.31-.25-2.95-.71-.12 0-.21-.04-.21-.04-.12-.67-.21-1.39-.21-2.06h2.95zm4.01 9.9c.17.16.21 1.3.21 1.47-.08.46-1.26.63-1.26.63-1.81 0-3.37.21-4.63.63-.12 0-.25-.04-.33-.09-.55-.34-.68-1.01-.51-2.02.59-.42 2.53-.84 2.53-.84.17 0 .84-.25.84-.42 1.47-.21 2.53 0 3.16.63zm-6.53-6.54h1.26c1.14 0 2.24.13 3.29.38.04.04.04 2.69-.08 3.79-.04.17-.08.29-.25.46v.42c-.12 0-.25 0-.38.04-.71.25-3.11.8-3.41.8-.25 0-.42-.05-.42-.05-.25-1.94-.42-3.92-.42-5.86.17-.01.29-.01.42-.01zm0 18.12v-7.16c.89-.72 6.28-1.52 6.66-1.18.04.08.09.17.09.34v3.79c0 .13.04.67.04.84.33 1.6-4.13 4.47-5.52 5.06 0 .12-.64.21-.68.21-.42.41-.96-.38-.59-1.9zm6.73-26.95v5.89c0 1.26.08 6.36-.42 7.16-.13 0-.57.91-.7.87-.17-.09.07-1.13.07-1.3-.12-3.11.21-15.88.26-16 .09-1.14-.04-1.98-.46-2.53-.12 0-.25-.05-.38-.09-1.77-.76-5.31-2.45-5.31-2.49-.13-1.1-.21-2.23-.21-3.33.29.25 2.82 1.51 3.45 1.98.09.08 3.29 2.06 3.29 2.23.51.75.68 1.89.59 3.37-.12 1.39-.17 2.78-.17 4.21zm-7.2 31.6c-.17-.76 2.87-2.24 3.92-2.87.09-.09 3.19-2.44 3.19-2.57.63-.17.48 1.35.31 1.73-.42.8-6.15 4.37-6.19 4.41-.5.46-2.27.97-2.44.97h-1.27c-.97 0-7.64.06-7.81.1-1.6.34-.7-.44-1.04-1.36H91c.17 0 1.642-.43 1.642-.43zm-11.76-4.63v-6.74h.42c.17 0 .94-.16 1.06-.16.51.63.21 3.11.21 3.11v7.58h-.85c-.26 0-.43-.04-.43-.09-.29-1.22-.42-2.44-.42-3.7zm5.1 2.53c.17 1.17-.38 1.6-1.73 1.26-.13 0-.21 0-.21-.04-.13-2.07-.21-4.17-.21-6.28v-5.06c1.18-.34 1.72-.04 1.68.84v4.63c0 1.39.42 4.46.47 4.63zm2.78-3.38c.08 1.14.12 2.24.12 3.38v.84c-.84 0-1.84.26-1.84.13 0-1.14.16-4.51.16-5.6v-5.47c1.27-.12 1.77.59 1.52 2.15-.17.93 0 4.05.04 4.59zm1.39-1.68v-5.06h1.26c.17 0 .25.05.34.09.04.09.08.17.08.34v11.38c-.13 0-.26-.04-.43-.04-.89-.21-1.05-2.48-1.05-2.53-.13-1.39-.21-2.78-.21-4.17zm1.26-5.85c-1.1-.04-2.23-.04-3.37-.04h-4.63c-.13 0-.26 0-.38.05-1.94.47-2.78-.12-2.57-1.72.17 0 .13-.64.26-.64 1.43-.42 8.46-.2 9.85-.2H91c.84-.12 1.14.3.88 1.27 0 .12-.05.25-.05.42.21.59.04.88-.42.88zM80.89 51.64c-.04.09-.01.86-.76.79-.49-.05-.43-.175-.35-1.31.05-.55.08-1.417-.09-1.965 1.31-.04 1.5.72 1.2 2.49zm-.437 72.57c.295 0 7.036-.13 9.69.04 0 0 2.923.09 6.57-2.61.23-.17 3.92-2.82 4.72-3.62.04-.044-.127-.297-.127-.34-.126-1.81-.21-3.62-.21-5.433h.842c.17 0 .252-.043.337-.127.044-.04.086-.17.086-.295 1.69-1.012 3.5-1.854 5.48-2.57 2.07-.717 4.05-1.56 5.9-2.486h3.37c1.31-.04 1.18-.32 1.28 2.49.04 1.1-.01 2.27-.01 3.4v27.38c0 .13-.42 2.23-.42 2.11-.04-.55-.12-.97-.42-1.27 0 0-1.3-4.09-1.3-4.22-.08-.59-.21-1.14-.38-1.69-.12 0-1.18-3.2-1.68-4.22-.12 0-8.84-.21-8.84-.21-2.23-.13-4.47-.22-6.74-.22H73.73v.42c2.44.25 4.97.38 7.582.42H93.53c1.264 0 10.826.42 11.795.42 2.53 0 5.06.08 7.54.21.05 0 .05.08.05.21.297.29.84 1.14.84 1.26.467.97 1.267 3.2 1.267 3.37.252 1.85 2.526 6.57 2.526 6.74 0 .13-.04.21-.04.21-.842.12-5.266.63-5.434.63H91.84c-.673 0-2.105-.22-2.105-.22-1.686-.17-5.31-.21-5.477-.21H78.78c-2.233 0-11.628.42-11.797.42H63.19c-.125 0-1.55.2-1.888-.26.126-.17-.344-.42-.175-.5.084-.09 1.432-2.45 1.264-3.08 0-.13 2.19-.34 3.33-.17v.21c.42 1.22.85 1.22 1.18-.04.38-1.23.89-2.24 1.56-3.08.38-.51.89-.76 1.52-.85.55-.04 1.1 0 1.65.17V132c.17 0 1.22-1.52 1.18-1.6-.08-.04-.17-.087-.33-.087 0-.13-.67-.42-.84-.42-.12 0-.21 0-.21-.047-.13-1.094-.21-2.23-.21-3.326v-1.26c.17 0 .42-.3.42-.42h2.53c1.43-.13 2.74-.3 3.88-.59.8-.17 1.6-.21 2.44-.08zm-9.69-9.435h-.21c.042.59-.168.885-.63.84-.676 0-1.39 0-2.108.086-1.98.13-3.667-.04-5.056-.5-.13 0-.26-.04-.3-.12-.21-.21-.84-.71-.97-.71v-2.53h2.52c1.01 0 7.33-.42 9.27-.42h.42v12.22c0 .13 0 .21-.04.21-2.15.64-2.95-.16-2.49-2.31v-4.63c.17 0 .46-.25.5-.38.54-.89.25-1.47-.93-1.73zm-.84 20.627c-.17.083-1.254.37-1.338.536-1.86 3.687-.933 3.095-1.61.325 1.053-.967 1.98-1.98 2.864-3.033.04-.082.08-.21.08-.336.17.13.25.29.33.46.08.085.08.253.08.38-.21.59.16 1.373-.43 1.67zm-2.104-3.69c-.3-.085-.42-.13-.42-.17-.3-1.644-.43-3.287-.43-4.97v-.423c0-.72-.21-2.11-.21-2.15-.13-1.39-.21-2.78-.21-4.17h.42c.88-.25 1.6-.68 2.15-1.27.67-.68.97-.3.88 1.26-.05.97-.09 1.94-.09 2.95.5.46.42 2.78.42 2.95v5.48c-.13 0-1.94.63-2.53.5zm-4.93 2.273c.63-.38.84-.17.55.504.54.7.95 1.02 1.21 1.16-.29-.03-.8 0-1.6.29-.97.34-2.48-.07-2.82-.53.71-.29 1.39-.63 1.98-1.05.25-.13.46-.3.67-.38zm-.55-4.467c.71.125 1.01.716.88 1.686-.04.124-.04.29-.04.42 0 .125 0 .29-.09.377-.09.17-.13.26-.13.22-.64-.47-.85-1.35-.64-2.7zm3.16-2.992c0 .048.21 2.28.21 3.42v1.682h-1.68c0-.125 0-3.79-.42-5.054v-6.74h1.68v2.526c0 1.39.08 2.782.21 4.17zm-1.06 5.946c1.68-.13 1.86 1.64.93 2.49-.17.12-.22-1.27-.52-1.27-.47-.09-.59-.47-.42-1.22zm-.84-13.91c-.13 0-.21-.04-.21-.04-.13-.677-.21-1.39-.21-2.067 1.85 0 4.74-.03 6.55.265.04 0-.64.404-.77.656 0 .043-1.28 1.04-1.58 1.04-.26 0-.47-1.072-.59-.903-.64.8-1.69 1.14-3.2 1.055zm5.05-8.005h-4.22c-.13 0-.3 0-.38.043-2.07.46-2.91-.256-2.57-2.15.29 0 .54-.087.75-.17.08-.04 1.47-.254 2.19-.254h.42c2.82 0 5.64.045 8.42.13.5 0 .67.378.5 1.136-.04.296-.09.55-.09.845v.21c-1.69.126-3.37.21-5.06.21zm2.52-23.59c0 .123-.26.42-.43.42h-1.68c-.17.715 1.08 1.254 1.8 1.212l-.96.05c.5.76 1.31-.5 1.23.98-.13 1.38-.26 5.65-.43 7.04-.13.67-1.21 1.31-1.42.64-.09-.26.15-1.63.02-1.88-.38-.8-.47-1.94-.25-3.41h-.21c.04-2.15-.17-4-.63-5.48h1.68v-1.69c0-1.94 0-5.77-.04-5.9-.26-.55-.51-1.14-.8-1.69-.13 0-.21-.04-.26-.09-.43-.89-.93-1.69-1.44-2.45 1.26 0 3.2 3.54 3.37 4.63v.42c0 .12.42 4.88.42 7.16zm-3.04-9.23c.04.126.76 1.73.63 2.906-.09.548-.13 3.37-.13 4.21v.42c-.34-.38-1.06-1.684-1.06-1.73-.13-1.81-.68-5.94-.85-6.062-.89-.92-1.52-2.1-1.9-3.58 1.26 1.14 2.32 2.45 3.28 3.84zm.04 19.336c.04.17.04.254.04.42-.21.465-.8.634-1.69.465-.3-.04-.47-.083-.64-.25-.63-.638-.85-1.69-.63-3.16v-7.59h.42c.55-.042 1.01-.126 1.35-.337.08-.04.21-.08.33-.08.5.76.67 1.9.5 3.37-.04.55-.09 1.1-.09 1.69-.08 2.06.04 3.88.38 5.48zm-2.9-20.222c.88.63 1.18 1.9.88 3.79 0 .13-.04.26-.04.42v2.11c0 .26.09.51.21.68.67.93.46 1.56-.64 1.85.04.47-1.27.38-1.27.34-.3-1.35-.64-4.17-.64-4.17-.3-1.52-.64-2.91-1.06-4.17v-.42h-.42c.04 2.19.17 4.3.42 6.32v.42c0 1.1.25 1.98.76 2.61.04.09.38.34.5.34.5.64.67 1.6.59 2.95-.13 1.14-.17 2.24-.17 3.37 0 .55.04 1.1.08 1.69.16 1.3 0 2.31-.51 2.94h-.42c-.42 0-2.11.42-2.53.42v-23.6c.13 0 .84-.29.84-.42 1.77-.25 2.73.34 2.95 1.69 0 .13.29.84.42.84zm-3.96-3.58c-.17.13-.34.13-.47 0-.13-.16-.21-.37-.21-.63v-.84c1.18.34 1.39.8.67 1.48zm-.25 33.08v-6.74h.42c1.39 0 2.3-.77 3.65-1.06.08 0 .64.6.77.43.17-.17 2.4.13 3.5-.21.04 0 .17-.04.29-.21.16-.17 1.47-.21 1.89-.21v-6.32c0-1.14.84-3.66.84-3.79 0-.71-.67-9.27-.84-9.27 0-.17 0-.29-.08-.38-.47-.88-.85-1.89-1.18-2.99-.42-.42-.68-.97-.76-1.68-.13-.8-.25-1.51-.51-2.1 1.05.04 2.02.25 2.9.59.04.04.04.09.04.25.89.51 1.52 5.69 1.35 7.16-.04.55.34 6.45.34 7.59 0 .68.51 19.17-.42 19.38h-12.2v-.42zm11.8-34.96c-.13 0-.26-.04-.38-.04-1.98-.55-10.79-3.5-11.42-3.33-.13 0-.21 0-.21-.05-.13-1.64-.21-3.32-.21-5.01.71 0 1.39.04 2.06.21.04 0 4.46 1.39 5.94 1.48.17 0 2.57.72 3.75 1.01.04.04 2.02.89 2.14.89 1.73-.04 3.12 1.52 3.07 1.56-1.39 1.31-2.95 2.4-4.76 3.29zm-10.6-1.99c.04.05 2.1.55 2.99.89.04.05 2.48.89 3.2 1.69 0 .04 0 .09.04.21.12 1.18-.17 1.6-.97 1.35-.09-.04-.13-.21-.13-.46 0-1.56-.34-1.89-1.06-1.09-.13.17-.26.3-.42.47-.13.13-.25.13-.42 0-.13-.17-.21-.38-.21-.63v-.84c-.55-.54-.93-.54-1.14.04-.09.26-.17.38-.25.42-1.35.59-1.86.13-1.56-1.3-.55-.54-.93-.5-1.01.05 0 .13-.05.17-.05.17-.84.97-1.18.59-1.05-1.05.55-.42 1.26-.38 2.02.13zm-.55 48.91c0 .05-.09.05-.25.09-1.01.3-1.72.22-2.06-.25.97-.55 1.77-.46 2.31.17zm-.8 1.94c.08 1.27.17 2.53.17 3.79v6.74c0 .13-.04.26-.08.3-.09.09-.21.13-.34.13v-10.54c0-.29 0-.42-.04-.42-1.01-.08-1.73-.38-2.07-.84 1.47-.38 2.23-.08 2.35.84zm.17 13.06l-.21.21c-.5.51-.97.97-1.43 1.48-.8.89-1.22.89-1.3 0 .84-.88 1.81-1.43 2.95-1.68zm-2.95-.84v.42c-.12 0-.21 0-.21-.04-.12-1.52-.21-3.03-.21-4.59v-8.84h.42v13.06zm0 5.06c.93-.38 2.03-.5 3.38-.46.12.05 3.2-.25 4.55 0 .08.05.08.17.08.47V139c-2.11.126-4.22.21-6.32.21h-.42c-1.18.21-1.6-.38-1.27-1.686zm21.49-62.77v4.21c0 .13-.42 4.89-.42 5.06v26.96c0 .55.43 6.15.43 6.32v5.48h-.43c-.67 0-1.39.64-2.1.64h-2.11V97.5c0-2.4-.21-8.004-.21-8.047-.12-1.94-.21-3.92-.21-5.85V75.18c0-.843-.48-1.845-.48-2.69 0-.17.96-.614.96-.74.76.04 3.32-2.476 4.42-2.897 0 0 .16 3.924.16 5.483v.42zm-2.48-8.89c-2.57-.67-5.1-1.35-7.63-2.06-.13 0-4.04-1.26-4.21-1.3-1.56-.13-2.95-.38-4.22-.8-.13 0-.21-.04-.21-.04-.13-.55-.21-1.09-.21-1.64V55.8c.42 0 .84.042 1.18.17.08.04 4.8 1.684 6.91 2.61.21.127.46.21.67.337 1.39.675 2.94 1.265 4.67 1.73.46.125.92.293 1.39.42.38.127.76.253 1.18.295.67.13 1.22.38 1.68.76.29 0 .42.04.46.09.25 1.057.38 2.15.38 3.29-.05 1.35-1.94.38-2.07.38zm1.73-14.28c-.21 1.06.2 1.26-.9.81-.21-.29-.14-1.15-.14-1.57v-1.27c1.26-.12 1.41.51 1.03 2.03zm-18.25 1.26c0-.17-.96.19-.96-.26 0-1.14.16-2.43.16-3.53h.42c.12 0 .53.08.66.08 0 .42.04.85.12 1.22.25 1.51-.21 2.04-.41 2.49zm-4.04 84.93c.08-.04.12.05.16.21.25.84-1.18 2.7-1.22 2.74-.72.47-3.29 3.37-3.29 3.54-.13 0-.21-.04-.21-.04-.13-.84-.21-1.64-.21-2.48 1.43-1.56 2.98-2.87 4.76-3.96zm60.95 10.7H80.04c-1.392 0-6.995-.42-8.427-.42h-14.32c-.97 0-3.896.21-4.823.29-1.22.09.01-.88-.495-1.34 1.138-.3 2.243.17 3.633.21h9.68c1.98 0 10.82.42 13.06.42h36.23c1.81-.26 2.9 0 3.37.84h-.43zm-3.37-2.1H78.35c-2.526 0-11.92-.42-13.48-.42h-4.63c-1.39 0-2.503-.23-3.85-.06-1.643.21-2.974.15-3.31-.77.17-.17.252-.29.336-.46.084-.12 2.612-3.2 2.612-3.33 1.69-1.66 1.98-.33 2.78.63.083.13.294.13.504.05.084-.04.084-1.26.084-1.52v-.42h2.525c0 .13-.75 1.35-1.26 1.69 0 .13-.42 1.39-.84 1.69-.21 1.6.68 2.23 2.57 1.94.93-.17 1.94-.25 2.91-.25h7.16c1.69 0 7.04-.42 7.17-.42h5.47c1.86 0 7.46.42 8.43.42h23.59c.76-.17 1.22-.08 1.31.42.26.97-4.08.84-4.25.84zm4.8-53.5c-.09 1.14-.17 2.24-.17 3.37v3.8c0 1.01-.12 1.94-.03 2.91.12 1.22.11 2.07-.39 2.57h-3.16c.08-1.3-.13-2.31-.64-2.95V91.6h.42c1.14 0 2.27.042 3.37.084.5.046.67.425.59 1.18zm.04-37.7c-.13.13-.64.76-.64 1.06v7.58h-5.05c0-.17 0-.29.04-.42.04-.76-.29-1.18-.88-1.26-.46.09-.67.51-.5 1.27l.09.42c-.67-.17-.93-.36-1.1-1.28-.09-.5-.5-1.2-.96-1.32-.67-.41-1.67-1.19-1.55-1.78-.02-1.28.54-2.65-1.44-2.35.3.68.38 2.99.25 3.03-1.18.76-2.11 1.69-2.78 2.87v.84c0 .13-.25.42-.42.42h-11.8v-4.21c-.13 0-.67-.46-.72-.55-.76-.8-3.33-2.02-3.46-2.06-1.05-.63-3.24-2.06-3.37-2.1-1.1-.29-1.94-.84-2.57-1.6h11.37c1.56 0 19.25.84 19.38.84h.42c1.98 0 3.92.13 5.85.42 0 0 0 .05-.17.21zm-35.67-3.6c.08-.71.08-1.43.08-2.1.92.21 1.34 1.45 1.17 2.93-.05.12-.26.33-.64.5-.42.21-.67-.53-.63-1.33zm2.19 1.04v-3.28c.92.21 1.09-.74.98 1-.04.13.03 2.32-.14 2.2.08.11-.85.69-.85.08zm2.06-2.4c-.04-1.45 1.08-.31 1.08-.56.19 1.79.16 1.24-.03 3.16-.05.13-.45.05-.71.01-.5-.17-.32-1.66-.34-2.6zm2.09 2.4c0-.59.24-2.41.24-2.96.92.21.93-.5 1.14.45-.05.13-.13 2.88-.3 2.75-.13-.17-1.09.02-1.09-.23zm2.58-2.72c1.16-.31 1.1 1.28.93 2.59-.04.12-.34.09-.89.17.13-.02-.13-2.47-.05-2.77zm2.02 1.21c0-1.33.87-1.5.87-1.2.29 1.01.53 1.41-.06 2.76-.04.13-.68.01-.85-.12-.12-.16.03-1.17.03-1.43zm2.36-1.2c.04-.25.84.17.84-.08.27 1.24.08.76.21 2.68-.05.13-.61.21-.86.17-.51-.17-.36-1.83-.19-2.76zm1.93 1.05v-1.27c.92.09 1.33 2.04.74 3.22-.04.09-.53.17-.7.04-.12-.17-.05-1.73-.05-1.99zM100.6 52c.084-.715.084-1.43.084-2.106.927.21 1.264 1.054 1.095 2.528-.04.13-.26.34-.63.51-.43.21-.59-.12-.55-.92zm3.285.843c.042.462-.252.504-.885.125-.126-.084-.21-.294-.21-.548 0-1.01-.127-1.86-.42-2.53 1.305-.04 1.81.8 1.515 2.57-.042.08-.042.25 0 .38zm2.107 0c.042.462-.253.504-.886.125-.13-.084-.21-.294-.26-.548-.09-.85-.21-1.69-.38-2.53 1.3-.04 1.81.8 1.52 2.57-.04.08-.04.25 0 .38zm.59-2.95c1.263.252 1.56 1.39.884 3.244 0 .084-.09.042-.26-.085-.13-.17-.21-.38-.21-.63 0-1.01-.13-1.85-.43-2.52zm2.266.102c.93.21 1.11 1.373.94 2.847-.04.13-.21.25-.55.38-.33.17-.46-.25-.38-1.26 0-.54.16-1.41-.01-1.96zm2.29.08h.85v3.376c-.92-.21-1.18.7-.84-3.37zm1.85.297c1.31-.04 1.06.81 1.1 2.57.02.79-.83 1.14-1.09-.38-.12-.63.07-1.42-.01-2.18zm2.13 1.17c.04-.38.09-.8.09-1.22 1.31-.04 1.77.8 1.35 2.53-.04.3-.12.47-.29.63-.13.13-.53.13-.79.05-.55-.25-.52-.92-.35-1.98zm3.63 1.57c-.19.23.03.71-.65.33-.42-.17-.59-.67-.59-1.43 0-.59.04-1.13.04-1.68 1.31-.04 1.5.65 1.2 2.41-.04.09-.04.26 0 .38zm6.87 44.48c-.12 0-.73-.08-.9-.08-.46.04-.59-.25-.42-.84v-6.74c0-.17 0-.29.05-.42.21-1.6.11-4.42.42-7.16-.04-.17-.04-.29-.04-.42V57.06h-.42c-.42 0-1.3.252-1.35.336-.25.34-2.14 1.058-2.44 1.35v5.9c0 .127.26 15.67.17 16.85-.08 1.98-.17 3.92-.17 5.9v14.74h1.69c.59-.164.93-.04 1.01.38.17 1.56-.59 2.15-2.27 1.73v2.108c0 .59.09 1.097.17 1.644.05 0 .13.04.26.04.3.254.64.22 1.19.263.17 0 .46-.31.58-.31.26.59.6 1.49 1.23 1.66.13.04.258.09.38.09.17 0 .3-.56.42-.56v4.35c0 1.94.42 10.11.42 12.22v20.23c0 1.94.16 8.41-.6 7.82 0-.17-3.86-3.82-4.03-3.82-1.18.05-1.05-2.74-1.05-2.78-.125-1.93-.21-3.91-.21-5.85v-85.1c.17 0 .42-.29.42-.42.17 0 4.76-2.82 5.48-2.95v26.96c0 4.89.08 9.82.25 14.75.04 1.31-.17 2-.2 3.03zm-.48 1.61v8.43c0 .26-.04.51-.21.64-.8.97-1.18.59-1.05-1.05V99.2h1.27zm-3.45-39.77c.51-.5 1.22-.67 1.35-.67.51.76.42 4.47.42 5.06v19.8c0 2.78-.44 16.1-.44 17.19v.43c-.12 0-.65.08-.82.08h-.42c-.12 0-.21 0-.21-.04-.12-1.39.21-5.73.21-6.28v-.42c0-2.69-.08-34.46-.08-35.13zm.51 47.78v-2.11h.85c0 .17.05.25.05.38.29 1.18 0 1.73-.89 1.73zm-2.53-56.03v-.84c1.18-.21 1.38.93 1.25 1.51-.08.47-.02 1.95-.66 1.61-.63-.34-.8-1.09-.58-2.27zm2.11-.84c.43 0 .8.04 1.23.17 0 .05.04.09.04.26 0 .13.05.26.05.42.34 1.31.04 2.03-.88 2.11 0-.16-.24-.21-.24-.34 0-1.01.115-1.93-.18-2.61zm2.11 0c.89.13 1.22.63 1.06 1.65 0 0-.04.04-.21.04-.12 0-.41.28-.54.24-.5-.16-.47-1.03-.3-1.92zm4.62 104.58c-.13 0-.41.24-.82.32-.25.05-.55 0-.84 0h-.42v-49.3c0-8.25.42-29.91.42-31.17V52c1.73-.463 1.65-.12 1.74 1.142.13 1.516-.05 10.906-.05 12.76v11.373c0 7.878.503 24.94 0 24.857 0 5.72.08 11.5.25 17.27 0 .29-.04 1.132-.085 2.522-.043 2.23-.085 5.054-.17 8.423V147.2c0 1.81.085 3.623.17 5.436.08 1.222.315 1.744-.19 2.25zm3.44-102.6c0 .09-.17.13-.46.13-1.1 0-1.605-.72-1.48-2.15 0-.12-.042-.25-.21-.38 2.19-.5 2.907.34 2.15 2.4zm.11 3c-.17.13-.85.21-1.11.26-.76.17-1.05-.17-.88-.88 1.73-.21 2.71 0 1.998.64zm.27 1.34l-.16.34c-.255.51-1.4.83-2.33.41-.085-.08-.17-.25-.17-.5.97.09 2.2-.15 2.665-.24zm-.21 34.22c-.25.51-.883.72-1.94.63-.462-.04-.59-.37-.42-.96 1.138.13 1.98.13 2.528 0l-.17.34zm.17 1.26l-.17.34c-.25.51-.883.72-1.94.63-.462-.04-.59-.37-.42-.96 1.14.13 1.98.13 2.53 0zm-.17-3.49c-.25.51-.883.72-1.94.64-.462-.04-.59-.38-.42-.97 1.138.13 1.98.13 2.528 0l-.17.34zm.05-2.15c-.253.51-.885.8-1.94.8-.715-.04-1.01-.42-.84-1.14 1.18.05 2.15.05 2.95 0l-.165.34zm-.05 9.82c-.25.51-.883.72-1.94.64-.462-.04-.59-.38-.42-.97 1.138.13 1.98.13 2.528 0l-.17.34zm.25 2.29s-.124.04-.42.04c-.8-.04-1.905-.09-2.243-.6 1.475-.38 2.75-.32 2.664.57zm-2.61 1.37c1.14.13 1.98.13 2.53 0l-.17.34c-.25.51-.88.72-1.936.638-.464-.042-.59-.38-.42-.97zm0 4.31c1.14.13 1.98.13 2.53 0l-.17.34c-.25.51-.88.72-1.936.64-.464-.04-.59-.38-.42-.97zm2.45 1.44l-.17.336c-.25.51-.884.718-1.94.63-.46-.04-.59-.375-.42-.965 1.14.123 1.98.123 2.53 0zm-.243 5.175c-.17.12-.38.21-.634.25-.76.166-1.69-.25-1.52-.967 1.73-.21 2.87.08 2.16.71zm.085-3.187l-.17.34c-.252.506-.883.715-1.94.63-.46-.04-.59-.38-.42-.97 1.14.13 1.98.13 2.53 0zm.24 5.14l-.38.126c-1.18.25-2.52.15-2.52-.69 1.474-.38 2.99-.32 2.903.56zm-.51 13.21c-.17.126-.38.21-.63.253-.76.17-1.93-.25-1.76-.97 1.73-.21 3.11.08 2.393.717zm.19 2.196l-.38.12c-1.18.25-2.2-.09-2.2-.93 1.474-.38 2.67-.085 2.584.8zm-2.53 1.63c1.14.13 1.98.13 2.53 0l-.17.34c-.25.508-.88.72-1.933.63-.46-.04-.59-.38-.42-.97zm2.56 7.84c-.124.13-.292.258-.55.38-.333.13-1.43.05-1.893-.16-.08-.09-.17-.256-.17-.51V137c1.94-.253 3.29.036 2.62.71zm-.3-5.43c-.122.13.06.616-.14.66-1.166.278-2.116.067-2.172-.87h2.527l-.21.21zm.21 1.478l-.08.38c-.25.84-.77.69-2.273.506-.12-.04-.16-.21-.16-.462v-.42c1.133.123 1.98.123 2.522 0zm-2.47 1.7c1.14.13 1.98.13 2.525 0l-.17.34c-.25.508-.88.717-1.94.63-.464-.04-.59-.376-.42-.966zm2.48 4.36c-.13.13-.3.25-.466.42-1.21-.042-2.07.14-2.07-1.21 1.936-.25 3.207.12 2.533.79zm-2.43 1.317c1.725-.21 2.95 0 2.23.63-.17.13-1.1.21-1.35.26-.76.17-1.05-.17-.884-.88zm2.55 4.71c-.17.13-1.1.18-1.35.18-.76.17-1.056-.17-.89-.88 1.73-.17 2.954.12 2.237.71zm.18-22.12c-.25.51-1.36.56-2.42.47-.462-.04-.59-.38-.42-.97.59-.42 1.87-.3 2.88.12.085 0 .085.13-.04.38zm-2.68-5.23c1.14.13 2.06.05 2.61-.08l-.09.38c-.25.84-1.09 1.09-2.352.58-.126-.04-.17-.21-.17-.46v-.42zm-.024-2.02c1.137.13 1.98.13 2.528 0l-.17.34c-.25.51-.882.72-1.935.63-.46-.04-.59-.38-.42-.97zm2.31-1.67c-1.18.26-2.444 0-2.444-.84 1.48-.38 2.91-.16 2.828.72 0 0-.13.04-.38.13zm.02 6.78c-.34.51-1.37.47-2.296.05-.08-.08-.17-.25-.17-.5v-.42c1.94-.25 3.01.12 2.462.89zm.358-43.39c-1.094.47-1.894.42-2.4-.04v-.85h1.685c.59-.04.76-.59.84.42 0 .26-.04.42-.12.47zm.107 2.42l-.38.13c-1.18.25-2.2 0-2.2-.85 1.47-.38 2.67-.16 2.58.72zm-.02-5.46c-.17.93-.97 1.1-2.31.51-.13-.04-.09.11-.17-.46-.02-.16 0-.29 0-.42 1.14.13 1.98.13 2.53 0l-.04.38zm-.12-2.15c-.25.51-.88.72-1.93.64-.46-.04-.59-.38-.42-.97 1.14.12 1.98.12 2.53 0l-.17.34zm.12-2.23c-.25.51-.89.72-1.94.63-.47-.04-.59-.37-.42-.96 1.14.12 1.98.12 2.53 0l-.16.33zm-.19-1.81c-1.18.26-2.28-.08-2.28-.92 1.48-.38 2.75-.08 2.67.8l-.38.13zm-.07-2.05c-1.18.26-2.29-.16-2.29-1 1.47-.38 2.75 0 2.66.88l-.37.13zm-2.21-3.51c1.14.13 1.98.13 2.53 0l-.17.34c-.25.51.07.72-1.94.63-.47-.02-.59-.38-.42-.97zm2.39-1.8c-.25.5-.88.71-1.93.63-.46-.04-.59-.38-.42-.97 1.14.13 1.98.13 2.53 0l-.17.34zm-2.39-2.83c1.73-.46 2.69-.4 2.39.82-.04.08-.17.12-.42.21-1.35.25-2.13.15-1.97-1.03zm0 23.17c1.73-.21 3.03.24 2.32.87-.17.12-1.18-.03-1.47-.03h-.42c-.13.13-.21.29-.3.46-.08.25-.08.38.04.42.59.25 1.06-.13 1.74.03.72.13.88.86.16 1.03-2.23.55-3.03-.38-2.48-2.78h.43zm-.42 61.08c1.14.13 1.98.13 2.53 0l-.17.34c-.25.51-.89.72-1.94.63-.46-.04-.59-.38-.42-.97zm.14 4.25c1.14.12 1.98.12 2.53 0l-.17.34c-.25.5-.88.71-1.93.63-.46-.04-.59-.38-.42-.97zm2.68 2.33c-.25.5-.88.71-1.94.63-.46-.04-.59-.38-.42-.97 1.14.13 1.98.13 2.53 0l-.17.34zm.08-47.24c-.25.51-.88.72-1.94.63-.46-.04-.59-.38-.42-.97 1.14.13 1.98.13 2.53 0l-.17.34zm.03-7.28c-1.18.26-2.92-.08-2.92-.92 1.48-.38 3.39-.09 3.31.8l-.38.13zm.45 14.24h11.79v.42c0 .13-.04.26-.08.3-.09.09-.17.13-.34.13 0 .13 0 .21-.04.21-.38.13-.8.21-1.22.21h-.43c-3.03-.04-5.98-.17-8.84-.42h-.42c-.42.04-.59-.25-.42-.84zM144.1 53.7c.17 0 9.65.045 14.112.21l.04.17c.04.8-1.475 3.877-1.94 3.835-.252.97 2.404 1.682 2.528 1.682v.21c-1.56.123-3.075.21-4.634.21h-20.22c-.126 0-.21 0-.21-.044-.126-1.937-.21-3.92-.21-5.855.17 0 9.27-.42 10.532-.42zm-10.11-1.07c0-.42.08-2.355.08-2.78.926.088 1.014 2.278.425 3.457-.042.086-.126.086-.296-.04-.13-.17-.21-.38-.21-.633zm2.063-1.88c.043-.29.043-.59.043-.84 1.264.17 1.48 1.416.805 3.1 0 .128-.12.085-.38 0-.5-.252-.63-1.245-.46-2.26zm2.15-.84c.928.338 1.138 1.62.63 3.14l-.21-.21c-.462-.504-.63-1.746-.42-2.926zm1.684 1.265V49.9c1.264-.128 1.567.83 1.19 2.344-.212 1.053-.032.738-.896.41-.21-.293-.29-1.072-.29-1.493zm2.528.84V49.9c.928.337.937.705.745 2.86-.046.126-.61.084-.776-.04-.13-.17.028-.46.028-.71zm1.96-1.183c.045-.295.045-.59.045-.843 1.26.17 1.394.93.72 2.62 0 .12-.285.24-.54.16-.344-.02-.395-.93-.23-1.94zm1.832 1.4V50c.926.083 1.095 1.714.505 2.894-.04.084-.13.084-.297-.042-.13-.17-.216-.38-.216-.633zm1.764 0V50c.93.083 1.1 1.714.51 2.894-.04.084-.13.084-.3-.042-.12-.17-.21-.38-.21-.633zm2.1-.26v-2.22c.93.083 1.1 1.714.51 2.894-.04.08-.12.08-.29-.044-.12-.17-.21-.38-.21-.635zm2.1-2.143c1.69-.13.99.64.87 2.86-.04.12-.21.12-.46.04-.84-.34-.66-1.39-.4-2.9zm2.05.08c.93.21 1.17 1.65.58 3-.04.12-.13.08-.3-.05-.12-.17-.21-.38-.21-.63 0-.59-.08-1.78-.08-2.32zm1.64.8c.04-.25.04-.55.04-.8 1.3-.04 1.04.92.93 2.92-.04.12-.21.12-.46.08-.51-.17-.67-1.28-.51-2.2zm9.73 2.78v.63c.13 1.56.51 2.86 1.18 3.83.05.13.09.21.09.38-.13 0-1.27.63-1.27.63-3.7.69-5.06.11-5.18.15-1.27-.27-2.4-1.08-2.4-1.2.89-.55 1.94-3.67 2.03-3.84.08-.13.08-.25.08-.38 0-.17 3.67-.38 5.48-.21zm-5.47-1.5V49.9c.93.21 1.1 1.41.51 2.757-.04.126-.13.084-.3-.042-.12-.168-.21-.378-.21-.632zm1.69-2.09c.93.21 1.14 1.45.63 2.79l-.16-.26c-.42-.42-.54-1.58-.46-2.54zm2.08 1.9v-2.22c.93.08 1.1 1.71.51 2.89-.04.09-.12.09-.29-.04-.12-.17-.21-.38-.21-.63zm7.19 1.47h22.32c3.37 0 6.74.04 10.11.21v5.69h-8.01c-2.69.25-5.51.38-8.42.42H175.7c-1.81 0-3.62.04-5.43.17-1.224.08-2.066-.13-2.57-.59.78-.5 2.06-.85.546-1.86-.084-.05-.126-.13-.126-.26-.127 0-.77-1.16-.77-1.2-.42-1.23-.2-1.33-.49-2.59h4.21zm-2.16-1.76v-2.08c.93.21 1.1 1.41.51 2.76-.04.13-.12.08-.29-.04-.13-.17-.21-.38-.21-.64zm1.99.22V49.5c.93.084 1.1 1.716.51 2.896-.04.083-.13.083-.3-.043-.12-.17-.21-.38-.21-.633zm1.67-2.06c1.31-.04 1.36 1 .69 2.6-.04.12-.12.08-.29-.04-.12-.17-.21-.34-.25-.64-.12-.55.03-1.38-.14-1.93zm1.97 1.92v-1.7c.93.21 1.41 1.01.82 2.36-.04.12-.44.08-.61-.05-.12-.17-.21-.38-.21-.63zm2.11-1.83c1.26-.13 1.48 1.03.85 2.42-.03.08-.51.03-.68.03-.4-.79-.33-1.46-.17-2.45zm1.89 1.66c0-.42.08-1.4.08-1.82.88.08.97 1.31.42 2.49-.04.08-.13.08-.29-.04-.12-.17-.21-.38-.21-.63zm1.77.06v-2.23c.93.08 1.1 1.71.51 2.89-.04.08-.13.08-.29-.05-.12-.17-.21-.38-.21-.63zm1.71.1v-1.91c.89.08 1.05 1.39.51 2.57-.04.08-.13.08-.3-.05-.12-.17-.21-.38-.21-.63zm2.11 0v-2.1c.93.21 1.1 1.41.51 2.76-.04.12-.12.08-.29-.05-.12-.17-.21-.38-.21-.64zm1.69 0v-1.7c.93.21 1.1 1.01.51 2.36-.04.12-.12.08-.29-.05-.12-.17-.21-.38-.21-.64zm1.69-1.69c.89.08 1.27.8 1.1 2.11-.04.12-.29.21-.8.25-.54 0-.63-.76-.29-2.36zm2.11 1.68v-1.7c.93.21 1.1 1.01.51 2.36-.04.12-.12.08-.29-.05-.12-.17-.21-.38-.21-.64zm3.2.42c-.04.12-.33.25-.88.33-.59.08-.63-.76-.21-2.44-.59-.06 1.47-.76 1.1 2.1zm1.01-1.27c0-.42.16-.52.16-.95 1.1-.11 1.31 1.32 1.19 1.79-.21 1.06-.67.7-1.05.26-.21-.3-.3-.68-.3-1.1zm2.45-.9c1.1-.84 1.36.85 1.15 2.19-.04.04-.17.09-.42.13-.76.17-.89-1.56-.72-2.32zm2.48 1.64v-2.24c.93.08 1.1 1.72.51 2.9-.04.08-.12.08-.29-.04-.13-.17-.21-.38-.21-.64zm2.22-2.09c1.27-.12 1.29.63.87 2.19-.29 1.1-.54 1.12-.83.28 0-.3.12-1.67-.05-1.92-.08-.17.19-.41.02-.54zm4.24 31.26c0 .13.42 9.4.42 10.96v.42c0 2.1.43 7.16.43 7.58v.42h-9.69v-1.7c0-.59-.21-1.69-.21-1.69-.12-2.83-.21-5.65-.21-8.43v-4.6c0-2.7-.42-8.3-.42-8.43V60.84c.84 0 3.67-.422 3.79-.422h4.64c-.08 2.07.93 10.45.85 13.06 0 .13.42 6.32.42 7.17zm3.37-27.38h.43c3.54 0 6.99.05 10.53.21v31.79c0 3.37.04 6.74.21 10.11 0 0 .21.26.26.42.17 1.18-1.72 1.52-1.72 1.69-.8 0-1.39.3-1.68.8-.29.46-.84 1.52-.84 1.52-1.39.17-2.78.21-4.21.21h-3.38c-.42-.67-.84-5.77-.84-5.89 0-1.68-.32-9.76-.61-11.95-.3-1.85-.39-6.42-.39-6.46-.12-1.81-.45-3.86-.45-5.68v-.85c0-1.14-.5-5.09-.5-5.22 0-1.68-.26-6.32-.26-6.44 0-1.26-.16-2.93-.16-4.19 1.27 0 2.37-.08 3.64-.08zm-3.37-4.21c.93.21 1.27 1.06 1.1 2.53-.04.13-.04.25-.04.38-.12.67-.53.67-.74 0-.29-.88-.22-1.85-.31-2.91zm1.69 0c1.65-.21 1.2-.16 1.37 2.05-.04.3-.04 1.03-.17 1.24 0 .04-.08.08-.25.08h-.52c-.13 0-.21 0-.21-.04-.12-1.1-.21-2.23-.21-3.33zm2.11-.26c.42 0 .29.04.67.17.04.04.04.08.04.25.51.46.63 1.15.42 2.37-.17 1.05.13.54-.7.42-.12 0-.21 0-.21-.04-.12-1.1-.21-2.07-.21-3.17zm2.53.26c.93.21 1.23 1.06.85 2.53-.25 1.18-.5 1.18-.67-.04-.08-.8-.17-1.64-.17-2.48zm1.69 0c.93.21 1.22 1.06.84 2.53-.25 1.18-.51 1.18-.68-.04-.09-.8-.17-1.64-.17-2.48zm1.68 0c.93.34 1.22 1.31.89 2.95 0 .13-.04.25-.04.42-.17 0-.21-.04-.29-.08-.54-.72-.71-1.81-.54-3.29zm1.69 0c.93.34 1.38 1.23 1.04 2.87 0 .13-.28.18-.28.34-.17 0-.41.08-.58.08v-.42c.05-1.13.16-2.07-.18-2.87zm1.68-.42c.25 0 .55.04.76.17.08 0 .08.08.08.25.17 0 .25 0 .25.08.13.25.21.47.26.72.29 1.52-.04 2.36-.93 2.57-.17 0-.21 0-.21-.04-.17-1.22-.21-2.49-.21-3.75zm5.03 47.88c-1.18.25-2.6-.09-2.6-.93 1.48-.38 3.03-.09 2.98.8l-.38.12zm.38 1.95l-.38.12c-1.18.25-2.6-.09-2.6-.93 1.48-.38 3.03-.09 2.98.8zm-2.9-15.29c1.73-.21 3.03-.08 2.31.55-.17.13-.38.21-.63.25-.75.17-1.85-.09-1.68-.81zm0-1.69c1.73-.21 2.95-.08 2.23.55-.17.12-.38.21-.63.25-.76.17-1.77-.09-1.6-.81zm2.23-1.09c-.7.41-2.28.99-2.23-.27 1.73-.21 3.04-.2 2.24.27zm-.08-1.46c-.17.13-.38.21-.63.25-.76.16-1.69.07-1.52-.65 1.72-.21 2.87-.24 2.15.39zm-2.15 5.93c1.73-.21 3.11 0 2.4.63-.17.12-.38.21-.63.25 1.59-.35-2.15.78-1.76-.89zm2.32 2.47c-.17.12-.38.21-.63.25-.75.17-1.85-.33-1.68-1.05 1.73-.21 3.03.16 2.32.79zm-2.32 1.31c1.13-.08 2.48-.47 2.65.62.08.42-1.05.52-1.81.47-.72 0-1.02-.38-.85-1.1zm1.91 4.08c-.17.13-.78.13-1.04.17-.76.16-1.05-.17-.88-.89 1.17-.14 3.19-.42 1.92.71zm-1.92-2.4c1.73-.21 2.95 0 2.23.59-1.09.88-2.27.67-2.23-.59zm0 3.37c1.73-.21 3.11 0 2.39.63-.17.12-.38.21-.63.25-.76.16-1.93-.17-1.76-.89zm2.5-16.11c-1.18.26-2.61-.08-2.61-.92 1.48-.38 3.03-.08 2.98.8l-.38.13zm-2.5-17.6c1.72-.46 3-.48 2.7.74-.04.09-.17.13-.42.21-1.35.26-2.5.23-2.29-.95zm0 14.75c1.72-.21 3.27.08 2.55.71-.17.13-.38.21-.63.26-.76.17-2.1-.25-1.93-.97zm2.79-.97c-.17.13-.38.21-.63.25-.76.17-2.33-.25-2.16-.96 1.73-.21 3.51.08 2.8.71zm0-1.69c-.17.13-.42.21-.67.21-.25 0-1.86-.08-2.12-.08v-.85c1.73-.21 3.51.08 2.8.71zm-.08-1.77c-.17.13-.38.21-.63.25-.76.17-2.25-.17-2.08-.88 1.73-.21 3.43 0 2.71.63zm-2.55-2.5c1.06-.21 2.05-.28 2.35.23.09.12.09.21.09.38-.17 0-.26 0-.38.04-1.18.25-2.05.2-2.05-.65zm2.19-1c-1.18.25-2.28.15-2.28-.69 1.48-.38 2.71-.32 2.67.56l-.38.13zm-2.34-4.72c1.48-.38 2.87-.08 2.83.8l-.38.13c-1.18.25-2.45-.09-2.45-.93zm2.53-3.57c-1.35.25-2.54.04-2.63-.85 1.65-.38 2.97-.16 3.01.77l-.37.08zm.14-1.68c-1.18.25-2.6-.09-2.6-.93 1.47-.38 3.03-.09 2.98.8l-.38.12zm-2.66-3.18c1.48-.38 3.03-.09 2.99.8l-.38.12c-1.18.25-2.6-.09-2.6-.93zm2.19-1.1c-.33-.13-.67-.34-.92-.59-.5-.59-.5-.93.04-1.14.25-.09.42-.21.55-.34.21-.3.04-.34-.5-.09-1.35.71-1.94.21-1.77-1.39h.42c1.18-.21 1.98-.05 2.45.5.04.08.08.17.08.34 0 .42.04.8.17 1.22l.12.51c.38.92.17 1.26-.63.97zm-2.61 86.61v.42c-.17 0-.25 0-.42-.04-.46-.04-.59-.46-.42-1.22-.17 0-.42-4.21-.42-6.32v-.42c0-1.98-.42-7.58-.42-8.43v-4.63c0-.59-.32-1.21-.32-1.76 0-.17-.1-5.69-.1-5.82v-.42c0-1.14-.43-6.15-.43-6.32V103h2.11v27.377c0 1.393.42 7.29.42 8.85zm-29.49-24.43v23.59c0 .25-.04.5-.21.67-.67.92-1.05.07-1.05-.06 0-.17-.05-.25-.09-.34-.42-.59-.55-2.47-.34-3.65v-5.48c0-3.37-.21-11.8-.21-11.84-.12-2.49-.21-5.02-.21-7.54v-6.32h2.01c.51.46.24 1.42.15 2.6-.12 2.83-.05 5.53-.05 8.35zm-21.07 29.5h.42c.72.25 1.56.42 2.53.42h2.53c2.36-.51 2.87-.26 1.61.71-.08.08-.17.12-.33.12h-2.95c-.12 0-.25-.04-.33-.08-.63-.38-1.48-.51-2.61-.34v-.21c-.59.04-.85-.17-.85-.63zm-3.8-21.91c.17 0 .22 0 .26.04.43 1.26.77 2.02-.11 2.14 0-.17-.56.18-.56.06v-2.25h.42zm-.42-1.69v-1.69c.85.29.97 1.09.51 2.36-.04.12-.12.08-.29-.05-.13-.17-.21-.38-.21-.63zm.98 5.05c.47 1.47.12 3.33-.01 5.48-.08 1.98-.12 3.91-.12 5.89-.12-.17-.21-.3-.21-.47-.13-1.64-.13-3.33-.04-5.01.08-1.18-.09-2.03-.59-2.53v8.85h-.42v-12.2h1.4zm.75 14.7c.13.17-.08.34-.63.5-.5.17-1.01 0-1.51-.47.76-1.09 1.48-1.09 2.15-.04zm-.04-9.65V111c0-.17-.42-4.886-.42-5.055.09-1.898-.34-3.33-1.26-4.214h-.42v16.44c0 .13-.42 3.2-.42 4.64 0 .13-.42 5.31-.42 5.48v9.27c0 .13.04.25.04.42.17.76-.46 1.52-.46 1.69h-.42c-1.47.04-2.91.17-4.21.42H158c-.125 0-.21-.04-.21-.04-.125-.55-.21-2.36-.21-2.48.506-.5.355-2.71.31-3.93-.123-1.94.11-2.52.11-4.5v-27.38h.42c.42 0 .485.14 2.46-.16 1.98-.3 3.735-1.52 3.86-1.52 0-.17-.21-1.27-.21-1.31-.13-1.52-.21-3.07-.21-4.59.425 0 .846.05 1.22.17.04.04 2.026.25 2.15.25.17.13.25.3.34.47.085.09.085.21.085.38 0 .55-.336 5.02-.21 5.44 0 0 4.13.08 6.11.25v.21c1.64-.21 2.23.63 1.895 2.57-.13.67-.215 5.43-.215 7.12v10.09c0 .13-.42 4.47-.42 4.63v8.43c.293 1.39.42 2.95.42 4.63 0 .13-.38 1.31-.842 1.27h-.42c-2.4.17-4.51 0-6.32-.42-.13 0-.21-.04-.21-.04-.13-.54-.425-1.64-.425-1.68-.126-2.36-.21-4.72-.21-7.12zm-17.7-53.47c-.13 0-.25-.04-.38-.09-.3-.09-.59-.21-.88-.34-.12 0-.21-.04-.25-.08-.08-.26.15-.59.15-.84.63-.17.82.5.94.5 1.27 0 2.45.79 3.79 0 .15-.09.3 0 .42 0 .93.21 1.22 1.05.89 2.52 0 .13-.71 2.65-1.72 2.95v-.42c-.17-2.24-1.13-3.63-2.95-4.22zm-5.81 1.09c1.01.59 1.81 1.43 2.36 2.52.08.08.17.21.34.38.8.59.97 1.39.59 2.31-.42.8-.92.88-1.47.25-1.39-1.6-2.74-3.2-4-4.89.72-.85 1.43-1.06 2.19-.59zm-1.77-2.79c.72-.46 1.35-.93 1.9-1.48l-.04.13c-.08.46-.33.88-.63 1.26-.5.59-.93.63-1.22.09zm4.21 2.53h.42c.17 0 .62.32.74.32 1.4 1.33 1.12 1.83 1.54 3.13.05.08-.08-.09-.42-.51-.29-.38-.76-.97-1.43-1.69 0-.17 0-.25-.08-.25-.42-.21-.68-.55-.76-1.01zm1.19 5.87c.97-.72 1.56-.82 1.56.44 0 .13-.41 1.01-.58 1.09-1.05.34-1.63-.2-.98-1.54zm1.43-5.12c-.5-.51-1.05-.89-1.77-1.18v-.42c.3 0 .67.08.93.08.17 0 .77.24.9.24.8.59 1.08.86 1.93 1.45.29.25.5.59.63 1.14.04.17.08.34.08.46.12.72.17 1.39.17 2.11-.76 1.77-1.27 1.47-1.52-.84-.17-1.23-.59-2.24-1.35-3.04zm4.63-3.55c0 .12-1.11.21-1.11.21-1.39.13-1.74.05-3.18.05v-.42c0-.17.63-.54.63-.66.42-.3.24-.31.67-.52.12-.09.26-.13.37-.09.98.4 2.12.48 3.37 0 .16-.06.29 0 .42 0v.42c-.08.6-.43 1.05-1.18 1.01zm.77-2.69c-.13.12-.3.21-.47.25-1.31.33-2.28.21-2.91-.26.5-.08.84-.34 1.01-.76.04-.08.12-.08.25-.08 1.05.17 1.81.13 2.27-.21.04 0 .08.09.17.26.08.09.08.21.08.38l-.42.42zm.21-2.44c-.38.8-.98.9-2.16.86 0-.17.16-.54.16-.66.59-.85.99-.96 1.83-1.47.13-.09.26-.09.38-.09 0 .12-.21 1.26-.21 1.34zm-1.35-2.02c-.21.17-1.01.72-1.1.84-.5.8-1.05 1.56-1.6 2.31-.89 1.22-1.85 2.36-2.91 3.41 0 .13-1.47 2.11-1.52 2.19-.3.59-.63 1.14-1.01 1.6 0-.17 0-.25-.09-.29-.55-.34-.93-.8-1.18-1.39 1.09-.59 1.6-1.73 1.52-3.37-.05-.13-.13-.3-.3-.38-.25-.17-.51-.34-.8-.47-.55 0-.93.17-1.14.51-.64 1.05-1.1 1.01-1.39-.09.93-.09 1.52-.51 1.85-1.18.04-.09.12-.09.25-.09 1.14-.59 2.02-1.35 2.74-2.27 0-.04-.09-.09-.26-.13-.26-.09-1.23-.42-1.23-.55.29-.29.72-.46 1.22-.63.04 0 .49-.69.49-.69-.84-1.48-2.31-3.41-2.36-3.49-.38-.46-.88-2.52-1.04-2.77h18.53c.3 0 .55-.04.84-.09.59-.13.8 0 .59.33-.38.67-.75 1.43-1.09 2.23-.09.17-.21.29-.38.38-1.43.84-4.89 2.4-5.06 2.44-1.39.34-2.61.89-3.62 1.6zm-11.3.91c-2.21.17-4.67-.28-4.8-.33-.17-.09-.29-.21-.46-.34.67-1.01.19-2.39 1.26-4.21 1.06-1.82.51-1.95 1.39-2.48.87-.53.67-.72 1.6-.67 1.39.12 2.1.88 2.06 2.31.59 1.1 1.26 2.11 2.02 3.03.04.09.72.67.64.8-.19.37-1.62 1.73-3.72 1.89zm26.29-3.74c.17-.08.33-.17.46-.34.92-1.06 1.68-1.01 2.27.17.05.04-.04.13-.21.21-.08.04-2.69 1.64-4.97 1.22-.29-.09-.59-.09-.88-.13-.93-.05-1.31-.55-1.27-1.44 1.39.76 2.91.88 4.59.29zm-3.75-3.24c1.01-.26 2.15-.38 3.37-.3 1.26.04 1.6.5 1.05 1.26-.51.8-1.43 1.13-2.74 1.05-1.09-.09-1.69-.76-1.69-2.03zm29.49 13.06v.42c0 1.81.08 3.62.21 5.43 0 .04.11 2.39-.06 2.56-.47.59-2.26.68-2.26.85-.13 0-6.15.42-6.32.42h-1.27v.42c.38.33.5.92.46 1.68l-.04.42c-.55-.42-.97-1.09-1.26-2.1v-.84c.63.17 1.3-.72 1.3-.84.17-.35-1.14-3.37-1.31-3.37 0-.17 0-.29-.04-.42-.34-1.05-.8-3.67-.8-3.79V72.2c.17 0 .42-.297.42-.42 1.64-1.057 8.42-7.88 8.42-8.008.71-.29 1.59-1.69 2.26-1.69 0 0-.16 3.51-.16 4.22v3.79c0 1.39.42 4.76.42 5.057zm-5.65 42.08c.3 1.72-.21 2.57-1.52 2.57 0 .12-6.32.63-6.32.63-1.14.12-2.23.21-3.37.21-.12 0-.21 0-.21-.04-.12-1.22-.21-2.49-.21-3.75h1.69c1.43 0 5.06-.32 5.19-.32.88-.68.27-5.45.35-6.42.12-1.18-.07-2.74-.07-2.74-1.39-.17-4.47-.21-4.63-.17-1.89.34-2.61-.51-2.1-2.57 1.68.12 3.07 0 4.25-.38.13-.05 3.5-.47 5.01-.47h1.26c.5.21.31.8.46 1.69 0 .17-.04.25-.04.42v8.43c0 .96.08 1.93.25 2.9zm-20.53-23.9h-.84c-.13.12-.46.13-.63.21-.93.01-1.19.25-1.23-.26-.17-1.1-.05-4.59-.05-4.63-.12-1.64-.21-3.32-.21-5.01V71.37c0-.17 0-.296-.04-.42-.21-.635-.29-1.35-.38-2.11.8.043 1.52.17 2.15.338.13.044.25.086.38.086 2.06-.34 2.74.08 2.06 1.22-.13.17-.21.33-.34.46-.46.59-.68 1.39-.68 2.53 0 .12-.04.81-.21.98 0 .55.04.53.09 1.12.17 1.47.56 2.41.05 3.21-.13 0-.81.16-.98.16v3.79c.17 0 .42.25.42.42.51.46.67 1.35.59 2.53-.13 1.14.23 1.67.23 2.81.51.63.04 2.24 0 3.59 0 .75.11 1.1-.39 1.18zm6.32-21.91c-.13 0-.25-.05-.34-.13-.93-.72-1.69-1.65-2.19-2.83 1.35-.34 2.1 1.26 2.1 1.26-.17.76.42 1.51.42 1.68zm.84 1.26h.42c0-.17-.47-1.52-.51-1.61-.42-.59-.55-1.44-.34-2.62v-1.27c.93.33 1.31 1.3 1.14 2.95-.04.54.04 1.73.34 2.19.21.46.63 1.42.63 1.59 0 .13-.25 1.63-.42 1.8-.12 0-1.25-.83-2.91-1.88-1.65-1.05-1.85-1.43-2.65-1.9 1.44 0 2.91.72 4.3.72zm5.05 1.68c.17.12 1.09.46 1.18.5.04.08.5 1.43.55 1.6.42 2.95-1.31 6.57-1.31 6.74-.13 0-.21.04-.26.08-.38.59-.72.54-1.02-.09.16-.17.25-.3.33-.47.08-.13.34-.42.34-.47.9-2.59.38-5.02.38-5.02-.54-1.68-.93-2.61-1.9-3.33 0-.17-1.82-1.28-1.27-4.63.85-.55 1.18 0 1.14 1.68-.04.84.17 1.52.55 2.11 0 .13 1.27 1.26 1.27 1.26zm-1.1-3.75c.5.76.93.96 1.61 1.51.08.09.21.13.33.13v.42c-.09.97-.51 1.1-1.27.43 0-.16 0-.25-.09-.25-.29-.16-.68-1.77-.6-2.21zm-1.93 37.46c.93-.21 1.98.02 3.03-.02 1.98-.12 2.4.13 1.26.85-.93.64-1.3.52-2.72.41-.21-.12-1.34.19-1.6.11-.16-.08.19-1.2.02-1.33zm3.41 6.93c.04 0 .04-.08.04-.21h-3.37v-4.63h3.79v4.64c.17.25.33.5.55.63l.29.21c-.33.46-1.18.72-2.52.72-1.18 0-2.03-.26-2.53-.72 1.34-.09 2.56-.3 3.74-.63zm-3.75-12.43h2.53c.17 0 5.48-.25 7.96 0 .04 0 0 .05-.17.21-.12.17-.33.22-.63.22-1.26 0-3.79.21-3.79.21-1.14.17-3.37.42-3.41.42-2.01-.05-2.49.21-2.49-1.05zm8-2.94v1.69h-4.22c-.25 0-.55.04-.8.13-.17.04-1.06-.07-1.23.01-1.98-.06-1.26.33-1.35-.56 1.01 0 1.82-.4 2.79-.4h.43c0-.17 0-.26-.08-.38-.67-1.69-.93-3.27-1.02-5.54V91.2c.42 0 .85.04 1.22.17.05.04.05.082.05.25 1.14.59 2.23.55 3.29-.168.05-.04.09-.126.09-.25v-.42c.93.21 1.31 1.05 1.18 2.524-.21 2.108-.34 4.214-.34 6.32zm-6.49-4.21c.12.72.17 1.43.17 2.11 0 .42.08.8.21 1.22 0 0 .08.04.21.04 0 .17 0 .26-.09.38-.09.17-.13.26-.17.21-.68-.5-1.01-1.43-1.01-2.69-.13 0-.43-1.22-.43-1.89v-1.06c0-.17.77-1.92.88-1.62.33.95.35 1.75.22 2.89-.04.12 0 .29 0 .42zm2.27-8.85c-.13 0-.21-.04-.26-.08-.25-.5-.42-1.05-.59-1.6 1.35-.21 2.28-.04 2.87.51.04.09.08.17.08.34 0 .25.04.55.13.8l.08.25c-.8.8-1.56.72-2.32-.21zm2.82 3.33c-.25.93-.55 1.06-.89.34-.17-.34-.25-.71-.25-1.14v-.84c1.05-.08 1.39.47 1.14 1.65zm.03-6.87c-.84.59-1.51.64-2.02.17.63-.25 1.01-.67 1.22-1.3.05-.12.05-.25.05-.38.76-.21 1.05.09.88.85 0 .12-.05.25-.05.42 0 .13-.04.21-.08.25zm-5.35-6.99c0-.17-.04-.29-.04-.42v-.42c1.35 1.05 2.09 4.18 1.47 5.44-.62 1.26-1.48 2.11-1.48 2.06-.29-1.52-.42-3.04-.42-4.55.51-.38.63-1.1.47-2.11zm1.2 11.07l.51.12c1.18.33 1.44 1.09.8 2.27-.12.92-.63 1.01-1.47.21-.12-.17-.29-.3-.5-.42-1.64-1.1-3.24-2.32-4.76-3.58.93-.51 1.65-.51 2.19-.09.85.72 1.94 1.18 3.25 1.47zm-9.23-3.92c1.05.04 2.07.12 2.99.17.26.04.55.04.85 0 .85-.05.8.21-.21.8-.29.21-.67.29-1.09.29-1.27.04-2.11-.42-2.53-1.26zm1.31 2.53c.09 1.47-1.1 3.37-1.14 3.45-.72 1.56-.82 1.01-.78-1.43.97-.46 1.36-1.19 1.61-2.41.17-.68.25-.55.29.38zm4.34-1.23c-.12-.04-.12-.17 0-.42.25-.63.21-1.52-.17-2.57.76-.21 1.1.08 1.1.84-.04.25 0 .54.09.84.42 1.3.05 1.77-1.01 1.3zm-4.08-8.68c-.46-.3-.88-.59-1.22-.97-.21-.21-.42-.42-.55-.63-.12-.21-.21-.47-.21-.72 2.03.63 3.71 1.6 5.06 2.95.17.12.29.21.46.29.72.21.97.8.8 1.81-1.18.17-1.93 0-2.27-.59-.55-.88-1.26-1.6-2.06-2.15zm.34 2.52l-.21-.21c-.67-.76-1.43-1.39-2.31-1.98-.12-.09-.21-.3-.21-.55 1.85.12 2.74 1.05 2.74 2.73zm-1.3-10.54c-.08.12-.29.21-.59.21-.54 0-.97.12-1.26.42h-.42c-1.6.21-2.74-.09-3.37-.84H166c1.138 0 2.233-.09 3.37-.17.295-.04.59-.09.886-.17.42-.08.503.09.124.55zm-3.11 12.43c.3-.3.72-.42 1.27-.42.17 0 4.93-.26 5.1-.3.97-.25 1.43 0 1.39.67-.04.92-4.8 1.09-4.84 1.09-.38.12-.8.21-1.22.21 0 .12-1.73-.09-1.68-1.27zm1.27 3.79c1.06-.09 1.39.46 1.14 1.64-.25.92-.47.89-.8 1.13-.3.22-.33-1.51-.33-1.94V84zm.42 11.37v-.85c0-.84.42-2.82.42-2.95.34-.51 1.27-1.56 1.27-1.69.3-.3 1.56-3.25 1.48-4.43l.13.25c.72 1.39-.33 4-.33 4.17-.17 1.05-2.52 5.6-2.95 5.89v-.42zm.31 1.29c.94-.96 1.72-2.4 2.14-3.07.09-.09.09-.21.09-.34.3-.3.85-1.56.85-1.69.71-.89 1.18-1.98 1.39-3.37.21-1.18.38-1.18.5 0 0 .12 0 .29-.04.42-.25 1.52-1.43 4.04-1.52 4.17-.08.16-1.51 3.66-.19 5.5.13.16.65 1.33.65 1.45-.29.37-1.17.14-2.9.24 0-.17-1.04.06-1.04-.1 0-1.27.08-1.97.08-3.24zm3.91-2.57c0-.17 1.18-2.11 1.48-3.33 0-.04.21-1.05.21-1.31.26-.51.63-.64 1.14-.47.09 0 .09.12-.04.38-.29.59-1.09 2.02-1.09 2.19 0 .12-1.53 3.59-.04 6.32.04.17.72 1.43.84 2.1.05.17.05.25.05.42h-.84s-1.05-1.31-1.09-1.35c-1.46-2.34-.59-4.85-.59-4.97zm2.11-.85c.35-2.09.84-1.86 1.26-2.11l-.08.38c-.34 1.18-.64 3.12-.34 4.25.31 1.13.43 1.93.43 2.1.38.8.63 1.47.84 2.1h-.84c0-.17-.3-.46-.84-2.53s-.77-2.13-.42-4.22zm.84 40.02v-8c.59 0 .98-.2 1.49-.07.04.04.52-.16.52.01.03 1.51.36 2.08.19 3.43-.04.55-.08 1.14-.08 1.68v7.16h-1.26c0-.17 0-.3-.04-.42-.08-.59-.37-.34-.54-.89 0-.17-.05-1.69-.09-1.73-.08-.25-.17-.46-.17-.76v-.43zm5.9-17.98v-6.04c0-.17.64-.78.64-.9.05 1.57.62 1.53.46 3-.17 1.14-.25 2.23-.25 3.37 0 .13-.04.25-.08.29-.08.08-.17.12-.33.12-.13 0-.25-.04-.3-.13-.08-.05-.12.39-.12.26zm4.21-14.46v.42h-.42v-13.9c.59.25 1.1.59 1.6.97.04.04.34.34.42.38.04.08.09.17.09.34v9.27c-.12 0-1.68 2.1-1.68 2.52zm.84-14.75c2.19.04 4.13-.13 5.9-.55.3-.05.59-.17.84-.3.84-.13 1.14.29.93 1.26-.04.29-.08.42-.17.42-1.18.29-3.96.84-4.13.84-1.85.21-2.99-.38-3.37-1.69zm4.34-24.82c-.17.42-.3.64-.81.72-.48.85-1.32 1.37-1.36 1.41-2.7 2.78-4.36 4.44-7.22 7.09-1.89-1.86-4.17-3.37-6.78-4.51-2.61-1.1-4.55-2.87-5.86-5.18h15.17c2.4 0 4.72.04 6.95.21l-.08.25zM163.77 93.6c-.04.17-.55 0-.67-.04-.17-.09-.21-.45-.38-.58 0-.17-.24-.93-.24-1.06 0-.71.16-.55.16-1.23.17 0 .42-.296.42-.42.93.21.83.094.53 1.57-.04.294.28 1.51.19 1.76zm-1.64 3.46c-.21-.3-.29-.76-.34-1.31 1.6.37 2.11 1.77 1.52 4.17-.04 0-.08.04-.25.04l-1.24.24c.8-1.7.36-3.02.32-3.15zm-3.71-5.52c-.16-1.81-.21-4.93.16-6.06s.8-2.1 1.66-2.69c.86-.59 2.9-.9 3.02-.736.17.126.17.294 0 .42-.88 1.05-1.76 1.29-2.84 2.34-1.07 1.05-1.15 1.75-1.5 3.107 0 .13-.08 2.05-.08 2.77 0 .13.13 1.71.76 2.99.63 1.28 1.36 1.63 1.51 3.49.16 1.86-.83 3.21-1 3.21h-.84c-.12 0-1.26.05-1.26-.42 1.36-.81 1.45-4.62 1.45-4.62-.04-.96-1.03-3.67-1.03-3.8zm4.85-5.9c0 .12-.08.21-.25.29-1.39.46-2.27 1.47-2.61 3.03l-.13.5c-.29 1.52-.5 1.39-.54-.47-.04-.424-.1-1.225.44-1.904.547-.68 1.55-2.09 2.9-2.595.08-.04.205.96.205 1.13zm-2.21 5.44c-.16-2.67 1.34-3.44 1.93-3.69.42-.17.26.4.41 1.15-.08.17-.21.29-.38.38-.55.29-1.29.48-1.3 1.9-.02 2.73 1.59 4.19 1.78 4.35-.09.05-.21.85-.21.63 0-.17-2-.85-2.23-4.73zm2.51-19.35c.13 1.01-.68 3.35-1.77 4.95s-5.18 6.63-5.48 5.58c1.39-2.15 3.11-3.36 4.63-5.67s2.2-4.83 2.53-5.29l.09.42zm-7.25-1.69v-.42c.93.21 1.31 1.05 1.1 2.524 0 .297 0 .55.09.845.25 1.05-.38 3.41-.76 3.79-.13.12-.21.17-.25.17-.59-.34-.8-1.09-.59-2.27.47.04.89-3.96.42-4.64zm2.74-2.32c-.12.124-.21.334-.21.63.43.42.47.84.13 1.305-.08.13-.13.21-.13.38-.12 0-.25-.04-.29-.12-.42-.42-.88-.8-1.39-1.14 0-.17 0-.21-.04-.21-.42-.13-.55-.47-.38-1.06.17 0 2.15-.67 2.87-.46.04 0 .04.08-.127.25l-.42.42zm-.21 6.53c-.12 0-.21 0-.21-.04-.12-1.1-.21-2.237-.21-3.33h.85c0 .124.04.25.04.42.17 1.01-.47 2.78-.47 2.95zm-2.95 20.64c.93.21 1.1 1.01.51 2.36-.04.13-.12.13-.29-.04-.13-.17-.21-.38-.21-.63V94.9zm2.48-17.974c.97-1.306 1.63-2.56 1.5-4.92 0-.166.24-1.01.24-1.14 1.64-.21 1.96 1.78.56 4.2s-3.94 5.974-4.53 5.55c0-.166 2.237-3.564 2.237-3.69zm2.84-9.91c0-.085 0-.21.087-.38.214-.38.467-.21.677.55.17.51.295 1.012.42 1.56.04.294 0 .55-.082.72-.04.084-.21.17-.46.252-.97.21-1.39-.13-1.31-.93.8-.26 1.01-.85.67-1.77zm-5.73 32.1c1.647-.34 2.34-2.71 2.15-3.79-.18-1.08-1.09-1.686-1.09-1.73-.13-2.484-.45-6.31-.21-7.54.247-1.23.53-2.57 1.7-3.525 1.58-1.29 2.32-2.09 3.066-3.13.75-1.03.97-1.19 1.46-2.03.27-.47.52-1.17.94-1.42 0 0 .54 4.01 0 4.21-.534.2-3.86 1.59-4.59 2.62-.73 1.02-.84 1.6-1.305 2.87-.46 1.26-.2 6.84.14 7.73.04.12.92 2.6.62 3.6-.32 1.09-.95 2.15-1.08 2.23-.17.08-1.19 1.18-1.36 1.14-.46-.04-.59-.46-.42-1.22zm1.52 5.39c0 .04-.08.09-.25.09h-.42c-.12 0-.42.21-.46.21-1.64.59-2.316.043-2.063-1.475 1.477-.21 2.528 0 3.16.64.17.17.17.29.04.55zm-3.2 1.35h.84c1.18-.21 1.98-.04 2.45.51.05.08.09.17.09.335v14.33h-3.37c-.125 0-.21 0-.21-.04-.13-1.1-.21-2.24-.21-3.33V105.9h.42zm3.29 16.07c.09.04-.11.49-.07.74.21 1.01.16 1.43-.68 1.31h-2.53c-.13 0-.21-.044-.21-.044-.126-.677-.21-1.39-.21-2.067 1.26 0 2.526-.19 3.706.06zm-3.28 3.31h3.067c0 4.34-.32 8.48-.32 12.82 0 .13-.633.49-.633.66h-2.52v-13.48h.42zm.42 14.33h2.53v.42c0 .13-.21.42-.25.505-.17.42-1.01.97-1.05.97-.8.13-1.72-.43-2.56-.43v-.42c0-.59.08-.5.08-1.04h1.262zm6.32 4.634c-.125 0-.25 0-.38.04-1.81.55-3.495.51-5.096-.04v-.84c.42-.3 1.26-1.14 1.26-1.27.43-.3.89-.55 1.31-.76.13-.09.25-.09.38-.09 1.35-.086 2.61-.21 3.79-.42h.42c2.44-.256 3.2.38 2.23 1.894-.08.12-.25.21-.55.21-.55 0-.97.12-1.26.42 0 .12 0 .21-.08.25-.55.34-1.22.51-2.02.59zm.84.84c-.21.47-2.36.843-2.53.843h-3.37c0-.17-.25-.71-.42-.84 1.65.51 3.33.55 5.1.04.13 0 .26-.04.38-.04h.84zm8.43-4.21c1.64.55 3.2.55 4.676.04.12-.04.25-.04.38-.04 1.134 0 1.56.67 1.3 2.103 0 .13-.05.26-.05.42-.5.46-1.34.71-2.52.71-1.176 0-2.02-.25-2.525-.71-.13 0-.26-.04-.38-.08-.8-.3-1.06-1.14-.89-2.444zm6.74-.42v-.4c.506-.257.716-.8.63-1.69h11.166v.84c0 .255.093 1.136-.36 1.14-.46 0-3.55-.137-5.82-.137-.13 0-.18.16-.347.16 0 .12-.08.05-.08.05-1.56.13-3.64.05-5.19.05zm2.53-10.53v-5.06h3.37c.17 0 .855-.08.98-.08.51.63.16 1.68.075 3.03-.12 3.24-.21 6.44-.21 9.69h-3.79c-.12 0-.21-.04-.25-.09-.08-.25-.17-.51-.17-.76 0-.17-.12-6.74 0-6.74zm5.48 3.79v-9.27c.716 0 3.584-.02 3.71-.02 0 2.78.08 5.2.08 8.02v4.634h-2.53c-.255 0-1.024.23-1.19.11-.27-.88-.244-2.01-.075-3.48zm3.79-10.54v.21c-1.56.12-3.07.21-4.63.21-1.647 0-3.335.3-4.797.26-2.06-.066-2.53 1.09-1.95-2.37h3.37c2.277 0 6.74-.3 6.74-.424 1.18-.21 1.645.38 1.31 1.69 0 .12-.045.25-.045.42zm0-21.48c1.476-.38 2.19-.09 2.11.8l-.38.13c-1.18.25-1.73-.09-1.73-.93zm1.69-.85h-1.27c-.12 0-.25 0-.375.045-.63.12-.882 0-.882-.468.17 0-.14-.29.74-.98s1.7-.07 2.59.6c.76.59.5.845-.8.8zm.42-2.526c-.13 0-1.13-.36-1.176-.45 0-.36-.34-1.83-.09-3.77v-4.63c.17 0 1.56-.42 2.11-.42.17 0 2.38-.35 3.05-.35h.42c0 .97.32 1.86.32 2.87v8.85h-.42c-.54 0-1.97-.08-2.56-.08 0-.17-.04-.25-.08-.34-.67-.71-.6-1.22-1.57-1.69zm5.05 2.95h10.11c1.856 0 3.67-.05 5.48-.21v-.22h4.63c.17.17.25.29.3.46.08.25.125.38.04.38-1.18.29-2.44.42-3.706.42v.21c-2.23.17-4.47.21-6.74.21h-9.27c-.55 0-1.09.04-1.64.17-2.32-.11-2.36-.13-2.57-1.01.92-.21 1.89-.34 2.95-.42h.42zm-3.79 12.21v-10.11h24.85v4.21c0 .13.42 4.89.42 5.05 0 1.69.26 7.04.22 7.04-2.36.25-14.79.55-14.96.55h-9.68c-.128 0-.21-.04-.21-.04-.13-.55-.21-1.1-.21-1.65-.13 0-.215 0-.215-.04-.12-1.52-.21-3.08-.21-4.6v-.42zm26.12 7.16c0 .25.04.55.08.8.17.8.04 1.58-.42 1.58-1.1.08-2.95.05-4.09.05H213c-2.232 0-14.105.52-15.37.52h-5.054c-.124 0-.21-.04-.21-.04-.125-.84-.21-1.64-.21-2.49h14.325c1.56 0 10.7-.43 10.95-.43h.42zm-.42-19.38v-.43c.88-.63 1.68-.59 2.316.17.17.17.17.34 0 .5-.42.55-1.14.59-2.19.21-.08-.04-.123-.21-.123-.46zm.41 34.47c-.42.55-2.52.32-2.52.49h-.84c0-1.98-.42-9.14-.42-9.27v-2.95H217c.46.46.3 2.21.76 5.32 0 .72.08 1.55.08 2.27v2.95c0 .25.12.98-.01 1.19zm-9.64-11.26c0-.04.93-.09 1.22-.13 1.65-.34 3.13-.4 3.42.53.05.29-.05 1.49-.05 1.66v9.9c-1.56.13-3.07.21-4.63.21v-2.95c.504-.76-.21-7.29.04-9.23zm-1.14 1.64c-.08 1.14-.16 2.24-.16 3.37v7.17h-4.146c-.25 0-.06-1.98-.06-2.11V132c0-2.53.16-4.74.16-7.265 1.27 0 2.37-.236 3.63-.07.47.04.68.547.59 1.43zm-5.64 3.37v4.22c0 .13.04 2.65-.42 2.69-1.14.17-2.234.25-3.37.25v-12.2h3.93c0 1.68-.265 5.05-.14 5.05zm-9.27 6.74V124.8h3.79c.51.76.72 1.9.635 3.37-.123 2.24-.21 4.51-.21 6.74v1.69h-4.21v-.42zm.42 1.69h13.485c1.56 0 5.35-.42 5.48-.42 1.86 0 5.48-.3 5.48-.42h.42c.89.08 1.22.8 1.01 2.1-.04.46-4.503.84-6.06.84h-14.34c-.84 0-1.645.08-2.49.21-3.233.02-3.29-.33-2.992-2.32zM220 99.14c0 .17-.04.258-.04.428-.17 0-.256 0-.425.04-1.307.34-2.02 0-2.107-.88.755.05 1.515-.84 1.684-.84.84-.13 1.09.29.88 1.26zm-15.8-47.76c-.21 1.05-1.148 1.1-.813.41-.21-.3-.295-.68-.295-1.1v-1.26c1.263-.13 1.486.43 1.11 1.95zm-36.28-.34c-.253.968-.473 1.89-1.02 1.13-.084-.122-.248-.93-.33-1.1-.085-.25-.048-1.022-.048-1.28 1.43-.71 1.78-.1 1.4 1.25zm-8.9 1.57c-.04.12-.21.12-.464.08-.505-.17-.75-1.112-.585-2.04.04-.26.04-.55.04-.8 1.31-.05 1.68 1.15 1.01 2.75zM134 61.65c1.476-.21 2.85-.32 3.8-.084l-.766.97c-.59.97-.926 2.233-1.095 3.71 0 .293-.09.59-.25.883-.47.88-.71 1.36-.24 1.86.84.8 2.51 1.33 4.45 1.08h3.79c0 .12-1.27.8-1.69 1.26-.13 0-.25 0-.42-.05-1.65-.25-3.14.34-3.69 1.44-.55 1.1.19 4.07.32 4.07.42 1.51 1.34 2.65 2.78 3.28.12.04.25.12.38.25 1.47 1.35 2.73 2.95 3.83 4.76.12.21.29.42.5.63.67.72 1.6 1.14 2.65 1.31.25.04.51-.04.72-.25.21-.22.38-.47.5-.72v-.42c.93.04 1.51-.21 1.85-.76.17-.34 2.78-2.49 2.78-2.61.63-.17.88-.05.88.42-.04.12-.04 4.88-.04 7.16v.42c0 .55-.42 4.46-.38 4.63.17 1.3-.47 4.89-.47 5.89v.42c.29 0 .54-.05.84-.05.88-.17 1.43 0 1.6.5.04.25.04.38-.04.42-1.22.46-2.19.42-2.82-.04 0-.17-1.69-1.9-1.73-1.9-1.81-.3-3.04.04-3.75 1.05 0 .17-.04.67-.09.76-.46.5-1.26.67-2.44.5h-3.79c-1.27 0-5.31.42-5.48.42h-2.1c-.59.17-.89.04-.89-.42.04-3.2.04-6.49.04-9.69v-31.1c.17-.01.29-.01.42-.01zm6.994 15.295c.127.17.17.3.127.3-1.47.25-2.27-.33-2.48-1.68v-2.53c.26-.5.68-.752 1.27-.84h.43c-.3 2.11-.09 3.71.67 4.76zm10.7 64.75c0-.17-.884-.38-.884-.84.043-2.27.043-4.51.043-6.74v-27.8c1.26-.13 1.37.27 1.44 1.99.066 1.66-.18 3.49-.18 5.17v26.13c0 .13.085 1.86-.42 2.11zm.21-36.86c-.124.17-.334.22-.63.26-.8.13-1.097-.33-.844-1.3 1.895-.21 2.402.17 1.474 1.05zm-.21-2.14c-.715-.12-1.346-.29-1.936-.55-.125-.04-.17-.2-.17-.46 1.35-.67 2.277-.5 2.74.51.21.42-.042.55-.63.508zm-2.315 33.96c0 .13-.04.258-.21.426v2.11h-.85c-.13 0-.21 0-.21-.04-.13-2.23-.21-4.46-.21-6.69v-7.17h1.26c.5.64.31 2 .23 3.35-.13 2.83.15 5.21-.02 8.03zm-7.37 2.53c-1.1 0-2.24-.083-3.33-.17-.93-.124-1.22-.882-.89-2.36V125.7h3.36c.08 2.026.21 4.007.42 5.9v.84c0 .13.42 5.61.42 6.746zm7.16 1.056v1.05h-15.59c-.13 0-.21-.04-.21-.08-.13-.38-.21-.76-.21-1.18 5.35 0 10.7.04 16.01.21zm-6.74-9.06v-5.9h3.79c.92.21.84 2.78.84 2.95v10.95h-4.21v-.42c0-2.65-.17-5.18-.43-7.58zm6.74-6.74h-2.95c-.13 0-6.15-.42-8.85-.42H134c0-.17-.24.07-.33.07-.42-.21-.27-.99-.1-1.75h8.85c1.43 0 6.6.22 6.73.22.45.06.43 1.72.43 1.89h-.42zm-15.36-20.04c.17 0 11.86-.6 14.09-.6h.42c.17 0 .45.8.45.84.29 1.22-2.14.64-2.14.64-2.23.17-4.47.21-6.74.21-1.27 0-2.53.09-3.75.22-1.65.21-.66.11-2.75-.1.59 0-.14-1.19.4-1.19zm1.45 2.35h9.27c1.56 0 3.07.13 4.55.38.08.04.08.17.08.46 0 2.11.08 4.22.21 6.28 0 .17.21 7.03.21 7.2h-8.01c-1.39 0-5.31 0-5.48.04-2.4.55-3.37-.33-2.95-2.57h2.11c2.1 0 6.31-.29 6.31-.42h5.48c.17 0-.27-.32-.14-.32 0-.17.22-2 .13-3.05v-.42c0-1.98-.08-3.4-.08-5.34-.12 0-.17-.56-.34-.56h-12.64c-.84 0-1.14-.55-.84-1.69h2.1zm3.53 9.63c.17 0 4.2-.98 7.27.72-.64.46-2.33.39-3.64.18h-3.79c-1.39 0-4.21.25-4.21.42-.13 0-.26 0-.43-.04-.47-.04-.76-.34-.85-.8 1.85 0 3.82-.48 5.63-.48zm-5.64-.36v-5.05c.59 0 3.37.43 4.21.43h5.47c.29 0 .46.05.46.13.25.76.42 1.56.54 2.36.08.93-.13 1.43-.63 1.48-1.1.17-2.19.26-3.33.26h-.42c-.97 0-2.95.21-2.95.21-1.14.12-2.24.21-3.37.21zm13.06.94c.02-.25-.21-.79-1.45-1.53-.31-.19.11-2.98-.23-4.08 0-.17 1.35-1.66 1.35-1.78.26.99.37.72.55 3.13.09 1.1-.25 2.19-.25 3.32-.22.22.14.66 0 .94zm-13.29 18.44c-.13-3.5-.13-6.79-.13-10.29.3 0 1.11.04 1.32.17.08 0 .88.01 1.55.01h.42c.5.63.67 1.6.59 2.95-.13 1.26-.17 2.52-.17 3.79v3.79c0 .12.04.25.04.42-.22 2.31.37 2.99-2.04 2.45-.13 0-1.49-.08-1.49-.12-.13-1.09-.1-3.17-.1-3.17zm1.31 16.68c-.17.13-.29.13-.46 0-.13-.16-.21-1.25-.21-1.51v-.84c1.34.21 1.55 1.55.67 2.35zm2.44-.04c-.04.09-.21.13-.47.05-.5-.12-.71-1.47-.54-2.35 1.18-.21 1.6 1.1 1.01 2.32zm2.19-.12c-.17.13-.3.13-.47 0-.13-.16.07-.73-.02-.99-.05-.16.11-.89-.06-1.02 1.68-.12 1.46 1.17.53 2.01zm2.02-.09c-.13.13-.34.17-.59.09-.17-.08-.25-1.83.09-2.17l.25.13c.38.21.42 1.79.25 1.96zm2.03-.07c-.17.13-.38.17-.68.17-.46-.08-.43-1.02-.26-1.78.49-.44 1.86.77.94 1.61zm2.26.16c-.17.13-.33.13-.59.05-.29-.21-.06-1.35-.1-1.89 1.69-.12 1.63 1.01.7 1.85zm2.81-.09c-.12.13-.33.17-.59.09-.17-.08-.25-1.83.09-2.17l.26.13c.38.21.41 1.79.25 1.96zm1.76-.08c-.13.13-.34.17-.59.09-.17-.08-.25-1.83.08-2.17l.26.13c.38.21.41 1.79.24 1.96zm1.93.14c-.04.09-.21.13-.46.04-.51-.12-.56-1.31-.39-2.19 1.18-.21 1.43.93.85 2.16zm2.19.08c-.04.09-.21.13-.47.04-.51-.12-.63-1.39-.47-2.27 1.18-.21 1.52 1.01.93 2.24zm2.18-.16c-.05.13-.17.09-.42 0-.51-.25-.76-1.48-.59-2.49 1.14 0 1.51 1.19 1.01 2.5zm2.07-.45c-.13.13-.34.17-.59.08-.17-.08-.25-1.83.09-2.16l.25.13c.38.21.41 1.79.25 1.96zm1.56.35c-.04.09-.13.09-.3-.04-.12-.17-.17-1.21-.26-1.46-.04-.17-.13-.34-.21-.51-.04-.12-.09-.25-.09-.38 1.19-.21 1.44 1.18.85 2.4zm2.69.08c-.05.09-.22.13-.47.04-.51-.12-.71-1.63-.54-2.51 1.18-.21 1.6 1.25 1.01 2.48zm1.89-.51c-.13.13-.34.17-.59.09-.17-.09-.25-1.83.09-2.17l.25.12c.38.21.42 1.79.25 1.96zm1.83-.08c-.13.13-.34.17-.59.09-.17-.09-.25-1.83.09-2.17l.25.13c.38.21.41 1.79.25 1.95zm1.66.36c-.05.09-.21.13-.47.05-.5-.12-.55-1.79-.38-2.67 1.18-.21 1.44 1.41.85 2.63zm2.08-.08c-.04.13-.13.09-.29-.04-.13-.17-.26-.34-.38-.55-.13-.38-.21-1.44-.26-1.98 1.26-.12 1.56 1.15.93 2.58zm1.79.16c-.04.09-.13.09-.3-.04-.13-.17-.21-.38-.21-.63 0-.42-.08-1.64-.08-2.06.88.09 1.13 1.52.59 2.74zm2.26-.16c-.04.13-.17.09-.42 0-.43.07-.68-1.48-.51-2.5 1.26-.13 1.55 1.06.92 2.49zm1.84-.26c-.05.09-.13.09-.3-.04-.13-.17-.26-.34-.34-.59-.04-.17.43-.97.35-1.14-.05-.13-.09-.26-.09-.38 1.17-.21.95.93.36 2.15zm2.43-.28c0 .08-.17.12-.47.12h-.43c-.13 0 .13-2.2.51-2.08.04.04.83.43.37 1.95zm2.06.27c-.04.08-.17.08-.38-.04-.42-.22-.43-1.52-.39-2.28 1.12-.11 1.18 1.47.77 2.31zm2.61-.17c-.12.12-.34.17-.59.08-.17-.09-.25-1.83.09-2.17l.25.13c.38.21.42 1.79.25 1.96zm1.52 0c-.13.12-.34.17-.59.08-.17-.09-.25-1.83.09-2.17l.25.13c.38.21.42 1.79.25 1.96zm1.83 0c-.13.12-.34.17-.59.08-.17-.09-.25-1.83.09-2.17l.25.13c.38.21.41 1.79.25 1.96zm3.46-.19c-.13 0-.61.03-.62-.18-.1-1.61-1.08-1.69-1.24.01-.33.25-.94.68-.94.09 0-.17.28-1.73.11-1.86 1.64-.38 2.6.31 2.81 1.28 0 .08.03.65-.13.65zm2.03.28c-.05.08-.21.12-.47.04-.51-.12-.24-1.55-.07-2.44 1.18-.21 1.11 1.18.52 2.4zm2.44-.08c-.04.08-.12.08-.29-.04-.12-.17-.25-.34-.33-.6-.05-.17.03-.97-.06-1.14-.04-.13-.09-.25-.09-.38 1.18-.21 1.36.93.77 2.16zm2.51-.17c-.12.12-.33.17-.59.08-.16-.09-.24-1.83.09-2.17l.26.13c.38.21.42 1.79.25 1.96zm1.99-.09c-.12.12-.33.17-.59.08-.16-.08-.24-1.83.09-2.17l.26.13c.38.21.41 1.79.25 1.96zm1.94.04c0 .13-.17.13-.46.13-.89-.09-.54-.68-.21-1.99 1.43-.17 1.26.42.67 1.86zm1.73 0c-.04.13-.17.08-.38-.04-.47-.34-.23-.97-.15-1.9 1.26-.13 1.16.51.53 1.94zm1.68 0c-.04.08-.17.08-.38-.04-.42-.21-.27-.96-.23-1.72 1.18-.21 1.2.54.61 1.76zm1.95.32c-.04.13-.13.08-.3-.04-.12-.17-.25-.34-.38-.55-.12-.38-.05-1.12-.09-1.67 1.27-.12 1.4.83.77 2.26zm3.78-1.03c-.22 1.18-.51 1.23-.85.04-.21-.63-.34-.5-.42.43 0 .46-.1.51-.73.13-.12-.09-.21-.3-.21-.55v-.84c1.14-.43 1.66-.38 2.08.16.17.17.21.38.13.63zm1.77 1.04c-.04.13-.13.08-.3-.04-.12-.17-.25-.34-.38-.55-.12-.37-.13-1.11-.17-1.66 1.27-.12 1.48.83.85 2.26zm2.18-.16c-.04.13-.13.09-.3-.04-.13-.17-.26-.33-.38-.54-.13-.38-.21-.96-.26-1.51 1.26-.12 1.56.67.93 2.1zm2.57-1.76c-.17.13-.26.3-.38.55.14 1.6-1.03 1.47-.77.38 0-.12-.04-.29-.12-.46-.09-.25-.13-.55-.13-.8.63-.01 1.07.13 1.48.26-.03.02-.04.03-.09.07zm1.09.51c-.12 1.48-.44.87-.81-.53.27.08.54.14.85.11l-.04.42zm3.04 1.43c-.08.13-.09-.67-.26-.8-.17-.17-.26-.33-.38-.59-.21-.63-.3-.38-.21.8 0 .47-.26.55-.85.26-.5-.25-.63-.93-.46-1.94 1.18-.21 1.94-.04 2.28.55.17.34.09 1.43-.12 1.73zm-.05-3.12h-53.9c-.43 0-4.34.43-5.9.43h-5.9c-.84 0-6.45.42-8.43.42H133.5c-.13 0-.21 0-.21-.04-.13-2.06-.21-4.17-.21-6.28h19.8v-.42c1.098-.25 1.56.17 1.308 1.27 0 .12-.04.25-.04.42v1.68c.17.26.337.51.547.72.045.09.17.13.3.13 1.1.47 2.49.55 4.21.3.3-.04 4.26-.59 4.97-1.81.05-.12.22-.25.38-.38.26-.12.47-.25.68-.37.55-.26.85-.76.85-1.52 0-.5.38-.63 1.14-.42-.25 1.68.13 2.74 1.23 3.12.46.17.93.29 1.39.42.63.17 4.72 1.14 5.81 1.18 2.02.13 3.2-.46 3.62-1.85.26-.92.09-1.51-.63-1.72-.17-.08-.3-.17-.46-.29-.12-.17-.25-.29-.42-.42-.17-.76.13-1.09.84-1.09.3.04.59 0 .89 0 .8-.12 1.65-.17 2.49-.17h12.22c2.4 0 9.99-.42 11.38-.42h15.17c0 1.27.04 2.53.17 3.75.08 1.52-.13 2.61-.6 3.41zm1.94-43.18c-.17.17-.42.17-.68.17-.46-.08-.59-.46-.42-1.22 1.68-.13 2.02.21 1.09 1.05zm0 4.22c-.17.13-.42.17-.68.17-.46-.08-.59-.46-.42-1.22 1.68-.12 2.02.21 1.09 1.06zm.37-6.32c-.17.17-.38.22-.63.26-.8.13-1.09-.33-.84-1.3 1.9-.21 2.36.17 1.48 1.06zm-1.47 7.38c1.9-.21 2.36.13 1.48 1.06-.17.13-.38.21-.63.25-.81.08-1.1-.34-.85-1.31zm0 2.11c1.9-.21 2.36.13 1.48 1.06-.17.13-.38.21-.63.25-.81.09-1.1-.33-.85-1.3zm1.52 4.85c-.17.13-.38.21-.63.26-.76.17-1.06-.17-.89-.89 1.73-.21 2.24 0 1.52.63zm0 3.79c-.17.13-.38.21-.63.25-.76.17-1.06-.17-.89-.88 1.73-.21 2.24 0 1.52.64zm0-5.9c-.17.13-.38.21-.63.25-.76.17-1.06-.16-.89-.88 1.73-.21 2.24 0 1.52.63zm.16 3.96l-.38.13c-1.18.26-1.73-.08-1.73-.93 1.48-.38 2.15-.08 2.11.8zm0 3.79s-.13.05-.38.13c-1.18.25-1.73-.08-1.73-.92 1.48-.38 2.15-.09 2.11.8zm0 2.11l-.38.13c-1.18.25-1.73-.08-1.73-.93 1.48-.38 2.15-.08 2.11.8zm-1.68 1.31h.42c.17-.17.29-.25.46-.29.75-.3 1.13-.22 1.18.29.04.25 0 .5-.17.63-.68.84-1.48.88-2.32.21v-.84h.42zm1.47 5.27c-.17.13-.38.22-.63.26-.8.09-1.09-.33-.84-1.3 1.9-.21 2.36.13 1.47 1.06zm.05 1.69c-.17.13-.38.21-.64.3-.76.13-1.06-.21-.89-.93 1.73-.21 2.23 0 1.52.63zm.33-4.3c.04.05-.04.09-.17.13-.71.09-1.43.17-2.1.17v-.84c1.18-.21 1.94-.04 2.27.55zm-1.85 5.78c1.9-.21 2.36.13 1.48 1.05-.17.13-.38.21-.63.25-.8.09-1.09-.33-.84-1.3zm.42 2.11c1.68-.13 2.02.21 1.09 1.05-.17.12-.42.17-.68.17-.47-.09-.59-.47-.42-1.23zm0 4.63c1.72-.21 2.23 0 1.51.63-.17.13-.38.21-.64.25-.76.17-1.05-.17-.88-.88zm1.3 5.14c-.3.08-.64.12-.89.12-.17 0-.26-.08-.34-.25-.05-.13-.09-.25-.09-.38 1.05-.8 1.64-.67 1.68.42l-.38.09zm.21-1.98c-.17.12-.42.17-.68.17-.47-.09-.59-.47-.42-1.23 1.68-.12 2.02.21 1.09 1.06zm0-4.64c-.17.13-.42.17-.68.17-.47-.08-.59-.46-.42-1.22 1.68-.12 2.02.21 1.09 1.06zm.22-39.41c-1.18.25-2.61-.09-2.61-.93 1.47-.38 3.02-.08 2.98.8l-.38.13zm.14-35.43c-1.18.25-2.6-.09-2.6-.93 1.47-.38 3.02-.09 2.98.8l-.38.12zm.21-17.21H212.7c-.84 0-8.42.42-11.37.42h-.42c-1.69 0-8.68.42-10.54.42H96.06c-.55 0-5.06-.42-6.744-.42H38.76c-2.95 0-5.898.04-8.848.21-1.18.04-2.022-.17-2.527-.63-1.348-.21-2.486-.59-3.455-1.1l-.63-.38c-1.138-.63-2.402-1.13-3.876-1.6-.17-.08-.337-.28-.506-.28-.884-.21-1.432-.51-1.643-1.27H19.8c.17 0 4.51-.42 4.635-.42h56.03c.168 0 8.72.42 8.847.42h46.766c7.163 0 26.837.42 29.49.42h16.428c3.96 0 11.797.43 11.797.43h11.373c2.108 0 10.323-.21 11.798-.08.59.04 1.094.08 1.685.08h5.47c.17 0 7.41-.09 10.95-.21 0 0 6.74-.64 8.42-.64.25 0 2.23-.68 2.52.42-2.02.93-4.01 1.9-5.9 2.91-1.1.59-2.36 1.01-3.79 1.3H223.7zm13.06 98.58v5.27c-1.14.13-2.28.21-3.37.21h-8c-.17 0-.21-.04-.26-.08-.13-.25-.38-.76-.38-.8-.17-2.66-.21-12.89-.21-15.12V120.7c0-1.68-.21-5.05-.21-5.097-.17-1.51-.21-3.07-.21-4.59V88.65c0-7.875.42-25.15.42-25.696V48.99c.17 0 2.78.058 2.95.058h7.6c.25 0 .46 6.108 0 6.74v2.107c0 .13.04 7.17.21 10.54 0 0 .21 5.058.21 7.586v5.05c0 2.11.42 8.26.42 9.27v13.48c0 4.21.42 12.64.42 12.64v12.22c0 4.93.42 14.75.42 14.75v2.95zm13.48 10.11v.42c-1.77-.93-3.58-1.73-5.48-2.53-.67-.29-1.35-.63-1.98-1.01-1.26-.8-2.69-1.43-4.34-1.94-.17 0-.25-.04-.29-.12-.09-.04-.13-.17-.13-.29V108.9c0-1.857.04-3.62.17-5.48.08-1.18-.59-13.06-.59-17.7 0-1.27-.42-20.82-.42-27.39 0-.17.42-4.93.42-5.06V49.9c1.26-1.31 2.78-2.278 4.63-2.95 1.48-.507 5.48-2.824 5.48-2.95.63-.17.88-.04.88.42-.04.13-.04.253-.04.422v47.19c0 3.2.42 13.06.42 14.327v.42c0 1.81.25 5.48.42 5.48v12.63c0 5.77.42 18.66.42 19.38v.42c0 2.24.42 10.11.42 11.8zm19-140.75v-.84h.84c.5.76.84 9.27.84 10.54v6.74c0 .42.25 2.35.28 2.74.05.64-.6.61-1.53.82v-.42c0-1.85-.03-5.53-.03-5.66 0-1.01-.21-2.95-.21-2.95-.13-3.54-.21-7.03-.21-10.53v-.42zm.34 20.88c.5-.13 1.37-.37 1.92-.37 0 .13-.16.77-.21.77-.38.13-2.7.84-3.25 1.18-1.39.68-6.15 1.82-6.79 2.03-.63.17-1.35.38-2.07.59-1.35.42-2.78.76-4.3 1.06-.89.21-3.2.84-3.33.89-1.27.42-2.23.42-2.99-.04 4.59-1.13 14.32-3.66 14.32-3.79.88-.38 1.85-.67 2.94-.92 1.35-.25 2.49-.99 3.72-1.36zm-.98-3.22c-.03 2.23.11 2.67-3.16 3.67-1.14.13-13.9 3.75-13.95 3.75-.55.13-1.06.21-1.65.21h-.21c-.17-2.95-.21-5.9-.21-8.84v-7.6h.42c1.47-.8 2.99-1.47 4.67-1.98 1.68-.46 3.2-1.09 4.55-1.89.17-.08 3.12-1.01 4.34-1.43 1.3-.42 4.84-1.85 4.97-1.85v13.07c0 .97.22 1.93.21 2.9zm-3.58-17.32c.76-.29 1.52-.63 2.23-.97.67-.33.88-.12.67.59-.13.3-.21.59-.38.89-.12 0-9.1 3.37-9.23 3.41-2.19.63-7.37 2.4-7.79 2.66-.43.3-.89.59-1.35.89-.89.55-1.35.34-1.44-.63 1.1-.29 3.38-1.56 3.38-1.68 3.37-.84 6.49-1.94 9.35-3.2 1.52-.67 2.99-1.3 4.55-1.93z"/>
  <path d="M141.437 130.392c-.54-.54-1.422-.587-2.157 0-.735.59-1.96 5.295-1.96 5.785 0 .688 1.028 1.766.93 1.078-.097-.686.344-3.824.736-3.627.49.246.932.344 1.91-.344.98-.685 1.08-2.353.54-2.892zm-1.226 2.06c-.51.537-1.12.832-1.12.832.05-.393.23-2.695 1.72-2.695.35 0 .3.93-.59 1.86zm9.38 3.266c-.58-.096-.88-.19-.58-.424.33-.262.53-.654 1.02-1.633.49-.98.82-2.3.82-2.64 0-.34-.22-1.08-.97-.88-.56.15-1.7 1.39-1.96 2.59-.26 1.21-.19 1.73-.19 2.17 0 .44-.47.44-.64.43-.4-.04-.81-.13-.62-.7.16-.46.52-.75.62-.94.1-.19-.1-.75-.54-.75-.44 0-.78.41-.83.9-.05.49-.19 1.37-.49 1.37-.29 0-.49-.16-.34-.72.14-.51.59-1.04.39-1.29s-.58-.44-.63-.1c-.05.35-.81 1.73-1.27 2.01-.24.15-.39-.24-.34-.68.05-.44.39-1.48.2-1.57-.54-.24-.51.17-.9.08-.44-.1-1.25.51-1.55.95-.29.44-.64 1.69-.05 2.06.49.31 1.4-.51 1.72-.95.3-.4-.07.72.61.82.65.1 1.16-.31 1.26-.7.1-.39.05 1.16.84 1.11.79-.05.84-.52.93-.77.1-.24.59.57 1.13.62s1.11.02 1.16-.27c.05-.29.36.71 1.29.61.93-.1.88-.45.93-.7.05-.24-.36.15-.95.05zm-7.45-1.71c-.06.368-.78 1.274-.98 1.128s0-.246.2-.59c.2-.342.88-1.125.79-.54zm6.13.354c-.19-.14.4-2.16.54-2.4.25-.426.36-.79.62-.965.3-.197.56 0 .49.327s-.31 1.16-.54 1.52c-.23.36-.93 1.65-1.11 1.518zm7.62-2.744c.16.14.61-.18.64-.62.03-.425-.23-.737-.78-.884-.35-.094-1.78-.163-2.27.277-.49.45-.82 1.3.08 2.07.9.77 1.91.79 2.39 1.57.23.38.04.72-.37.75-.41.04-1.35.1-2.07-.81-.56-.71-.75-.89-.81-1.22-.06-.32-.24 1.26.2 2.04.28.5 1.86 1.41 2.47 1.39.61-.01 1.62-.13 1.59-.98-.03-.85-.13-1.22-1.22-2.17s-1.83-.86-1.93-1.42c-.14-.76.69-.6 1.16-.51.47.1.78.38.96.54zm1.97 1.322c.19-.074.54.13.49.375-.05.246.22-.54.79-.54.57 0 .64.147.74.49.07.226.23-.022.3-.114.15-.19.49-.5.84-.4.35.1.54.76.39 1.28-.14.52-.26 1.19.02 1.21.43.03 1.19-1.96 1.28-2.38.09-.42.69-.21.66.23-.02.37-.6 1.1-.54 1.6.07.51-.04 1.03-.22.95-.18-.08-.15-.31-.28-.26-.1.04-.54.73-.99.69-.45-.05-.52-.13-.63-.44-.24-.69.61-2.86.03-2.56-.63.33-.65 2.75-1.06 2.81-.56.09-.55-1.06-.23-1.49.33-.42.3-1.5-.39-1.17-.39.19-.47 2.6-.78 2.96-.31.36-.62-.68-.44-1.37.33-1.24-.16-1.73.09-1.83zm5.43-1.045c-.3-.178-.65-1.013-.31-1.42s.75.21.87.7c.06.225-.27.882-.55.72zm1.9-1.195c.15-.197.05-.832-.26-.766-.31.064-.65 1.37-.94 2.318-.29.947-.6 2.697-.15 3.203.31.344.94.393 1.23-.016.29-.41.57-.93.71-.92.33.01.04.86.46.9.43.03.79-1.15 1.21-1.15.28 0 .64 1.63 1.21 1.75s.9-1.64 1.08-2.13c.12-.32-.24.09-.35.18-.11.08-.47.49-.8.47-.23-.01-.31-.71-.75-.82-.45-.12-.7-.02-1.16.31-.64.46-.05-1.28.31-1.62.36-.34.88-1.31.9-1.87.02-.56-.1-1-.26-.83-.16.16-1.81 3.54-2.28 4.18-.46.62-1.02 1.14-1.08.57-.06-.69.28-2.55.65-2.57.38-.02.23.16.54-.08.25-.2.88-.97.54-1.05-.34-.08-.9.08-.76-.1zm87.44-101.115c-.32-.26-.73-.156-.99.33s-.17 3.655-.11 3.965c.1.436.72.96.58.542-.14-.42-.37-2.476-.16-2.412.26.08.48.076.84-.51.36-.584.18-1.656-.15-1.915zm-.28 1.492c-.16.42-.4.7-.4.7-.03-.255-.26-1.743.42-1.97.16-.052.27.545-.01 1.27z"/>
  <path d="M257.11 31.715c-.284.028-.43.013-.33-.18.116-.214.152-.493.244-1.19.092-.696.06-1.584.013-1.802-.047-.217-.255-.648-.574-.41-.238.178-.595 1.138-.55 1.936.045.8.148 1.12.21 1.4.06.28-.16.35-.238.36-.19.03-.394.04-.383-.35.01-.32.14-.56.157-.7.01-.14-.15-.46-.36-.4s-.31.38-.26.69c.04.31.1.9-.04.94-.14.04-.25-.03-.26-.4-.01-.35.12-.76 0-.88s-.34-.19-.31.03c.02.22-.14 1.22-.31 1.47-.1.13-.22-.1-.26-.38-.04-.29-.03-1-.13-1.03-.29-.08-.22.18-.41.19-.22 0-.51.51-.59.83-.08.32-.07 1.17.26 1.31.27.12.57-.54.66-.87.08-.31.06.46.39.42.31-.04.49-.38.48-.64-.01-.27.18.73.54.57.35-.15.31-.46.32-.63.01-.17.35.27.6.22.25-.05.51-.16.5-.35-.02-.2.26.39.68.18.41-.2.34-.42.33-.59-.01-.17-.15.15-.43.17zm-3.674.054c.023.24-.188.92-.296.86-.112-.07-.034-.16.01-.41.042-.25.25-.85.286-.46zm2.877-.72c-.11-.06-.112-1.43-.082-1.61.06-.31.06-.56.16-.71.11-.17.26-.09.27.13.02.21.02.78-.04 1.04-.05.26-.2 1.19-.3 1.13zm3.137-2.9c.09.06.254-.21.21-.49-.045-.28-.206-.43-.484-.44-.176-.01-.844.17-1.01.52-.166.35-.2.94.32 1.29.522.35.99.2 1.318.63.155.2.113.45-.07.53-.184.08-.612.27-1.07-.2-.357-.37-.47-.46-.546-.65-.076-.2.06.83.37 1.26.198.27 1.056.6 1.332.5.277-.1.73-.33.597-.86-.133-.54-.23-.76-.865-1.19s-.965-.27-1.086-.61c-.167-.46.233-.49.466-.5.232-.02.413.11.518.19zm1.09.53c.076-.08.268 0 .278.16.013.16.025-.38.29-.46.262-.09.313-.01.405.19.06.13.102-.05.12-.12.042-.15.157-.4.33-.39.17 0 .35.39.355.74.005.35.04.79.173.76.21-.05.29-1.43.27-1.71-.02-.28.29-.24.33.04.04.24-.13.78-.02 1.1.1.31.12.66.03.64-.09-.03-.11-.18-.16-.13-.04.04-.15.55-.37.59-.21.04-.26 0-.35-.18-.21-.4-.11-1.91-.34-1.63-.25.3.08 1.83-.1 1.94-.25.14-.4-.59-.31-.91.1-.32-.07-1-.34-.69-.15.17.14 1.72.05 1.99-.09.27-.38-.34-.39-.8-.02-.84-.31-1.07-.21-1.17zm2.362-1.49c-.164-.07-.44-.54-.34-.86.103-.31.377.02.497.31.05.13-.01.6-.16.54zm.71-1.05c.04-.15-.092-.54-.226-.45s-.113.97-.118 1.61c-.007.64.092 1.8.372 2.05.192.17.485.1.564-.2.078-.3.136-.68.198-.69.152-.04.134.54.335.5.2-.05.204-.85.4-.91.13-.04.52.94.8.92.278-.02.19-1.17.205-1.51.01-.22-.1.1-.142.17-.04.07-.15.38-.304.42-.107.03-.24-.4-.46-.4-.228 0-.327.09-.492.37-.234.39-.198-.8-.08-1.07.12-.27.228-.96.157-1.32-.06-.35-.18-.62-.23-.49-.05.13-.35 2.52-.48 3-.12.46-.31.88-.42.53-.12-.43-.22-1.66-.05-1.73.17-.07.13.07.24-.14.09-.16.28-.75.11-.75-.16 0-.4.19-.36.05zm-147.002.66c-.673-.68-1.776-.74-2.696 0-.92.73-2.45 6.62-2.45 7.23 0 .86 1.286 2.2 1.164 1.35s.43-4.78.92-4.54c.612.31 1.164.43 2.39-.43 1.224-.86 1.347-2.94.673-3.62zm-1.532 2.57c-.637.67-1.408 1.04-1.408 1.04.06-.49.28-3.37 2.145-3.37.428 0 .367 1.16-.737 2.32z"/>
  <path d="M126.804 33.476c-.736-.122-1.1-.24-.736-.53.41-.328.654-.818 1.268-2.043.612-1.226 1.02-2.88 1.02-3.31 0-.427-.284-1.347-1.224-1.102-.7.19-2.128 1.73-2.45 3.23-.328 1.51-.247 2.17-.247 2.72 0 .55-.592.55-.796.53-.51-.05-1.03-.16-.78-.88.2-.58.65-.94.77-1.18s-.13-.94-.68-.94-.98.51-1.05 1.13c-.06.61-.25 1.72-.62 1.72s-.61-.2-.43-.9c.17-.64.73-1.3.49-1.61-.25-.3-.74-.55-.8-.12-.06.43-1.02 2.17-1.6 2.52-.31.19-.49-.3-.43-.85s.48-1.85.25-1.96c-.68-.31-.64.21-1.13.1-.55-.12-1.57.63-1.94 1.19-.37.55-.8 2.11-.06 2.58.61.39 1.75-.63 2.14-1.18.37-.51-.09.89.76 1.02.81.12 1.45-.39 1.57-.88.12-.49.06 1.45 1.04 1.39.98-.06 1.04-.65 1.16-.96s.73.72 1.41.78c.67.06 1.39.02 1.45-.35.06-.37.45.88 1.61.76 1.16-.12 1.1-.57 1.16-.88.07-.31-.45.18-1.18.06zm-9.315-2.14c-.08.46-.98 1.593-1.23 1.41-.25-.184 0-.306.24-.736.24-.428 1.1-1.41.98-.674zm7.65.445c-.25-.17.5-2.7.67-3 .3-.53.45-.98.77-1.2.36-.24.69 0 .61.41-.08.41-.39 1.45-.68 1.9-.29.45-1.17 2.07-1.39 1.9zm9.52-3.43c.19.18.75-.22.8-.77.04-.53-.29-.92-.98-1.1-.44-.12-2.23-.2-2.84.35s-1.02 1.62.1 2.58 2.39.99 2.98 1.97c.28.47.04.9-.47.94-.52.04-1.7.12-2.6-1.02-.7-.89-.94-1.12-1.02-1.53-.08-.41-.31 1.57.24 2.56.35.63 2.32 1.76 3.08 1.74.75-.02 2.02-.16 1.98-1.23s-.17-1.53-1.53-2.71c-1.37-1.18-2.29-1.08-2.41-1.77-.17-.95.86-.75 1.45-.63s.98.47 1.2.68zm2.46 1.65c.23-.09.67.17.61.48-.07.31.26-.67.98-.67s.79.19.92.62c.08.28.28-.02.36-.14.18-.25.61-.63 1.04-.51.42.12.67.94.48 1.59-.18.66-.34 1.49.02 1.51.53.04 1.49-2.45 1.59-2.98.1-.53.86-.26.81.29-.04.46-.76 1.37-.67 2 .08.64-.07 1.29-.29 1.19-.23-.1-.19-.38-.35-.32-.12.05-.67.92-1.25.86-.58-.06-.66-.16-.8-.55-.31-.85.75-3.57.04-3.2-.8.41-.82 3.43-1.33 3.52-.71.11-.7-1.33-.29-1.86s.37-1.88-.49-1.47c-.48.23-.59 3.25-.98 3.7-.39.45-.78-.85-.55-1.71.41-1.55-.2-2.16.1-2.28zm6.78-1.3c-.38-.22-.82-1.26-.39-1.77.43-.51.94.27 1.08.88.06.29-.35 1.11-.7.9zm2.36-1.49c.18-.25.06-1.04-.33-.96-.39.08-.82 1.72-1.19 2.9-.37 1.19-.76 3.37-.19 4.01.39.43 1.16.49 1.53-.02.36-.5.71-1.15.88-1.14.4.02.04 1.09.57 1.13.53.04.98-1.43 1.51-1.43.35 0 .79 2.05 1.51 2.19.72.14 1.12-2.04 1.35-2.65.14-.39-.31.12-.45.23-.14.1-.59.61-1 .59-.29-.01-.39-.88-.94-1.02-.57-.14-.88-.02-1.45.39-.81.58-.06-1.59.39-2.02.45-.43 1.1-1.64 1.12-2.33.02-.69-.12-1.25-.33-1.04s-2.27 4.43-2.86 5.23c-.58.77-1.28 1.43-1.35.71-.08-.86.35-3.19.82-3.21.47-.02.29.21.67-.1.31-.24 1.1-1.21.67-1.31-.43-.1-1.13.1-.97-.12zM97.33 166.13c1.298.87 4.468 3.35 4.887 5.59.42 2.235.98 3.07.98 3.07.56.28 8.66-2.932 8.66-5.445s-.28-.84-.56-1.4c-.28-.56 5.162 2.52 5.44 3.63.28 1.12 2.514 5.45-2.79 6.43-5.308.98-8.31-.593-9.496 0-.55.28 2.52 4.048 3.77 5.167 1.26 1.12 6.01 1.12 6.57.56.56-.56 1.82 3.35 0 3.77-1.81.42-6.28.28-7.96-1.117s-2.51-3.49-3.07-3.49c-.55 0 .7 7.96-1.11 7.96s-3.63-.56-4.61-6.564c-.4-2.48.14-7.4-.42-9.91s-.99-6.19-1.53-6.84c-.7-.84.42-1.95 1.26-1.4zm27.227 6.147c-.366-.8 4.58.1 5.444 1.398.56.84 2.94.14 4.05 2.376 1.12 2.24.7 10.62-1.95 11.87-3.28 1.55-6.56 1.54-9.63-2.51-3.07-4.05-.7-8.24 0-10.05.7-1.81.56-2.09 1.25-1.95.7.14 2.1 1.39 1.82 2.79s-1.12 3.91-1.53 4.47 1.12 3.77 2.09 3.91c.98.14 2.8 0 3.22-.69.42-.7.98-4.19 1.12-4.89.19-.92-5.16-5.17-5.86-6.71zm30.996 12.71c-.98-3.63-6.98-4.888-6.285-4.888.7 0 3.35-.56 3.77-2.93.42-2.37-2.79-4.33-5.725-5.59-2.93-1.25-9.234-.94-10.19-.7-.555.14-.694 2.94-.14 4.19.56 1.26.98 9.22 1.68 11.17.697 1.96 2.047 4.54 3.49 4.33 1.955-.28 8.797.7 10.89.28 2.094-.42 3.49-2.23 2.513-5.86zm-12.988-7.26c-.84-.28.28-2.235-.42-2.655-.804-.48 4.05-1.115 4.75-.42.696.7-3.49 3.35-4.33 3.07zm6.98 8.237c-1.117.14-5.445 1.11-6.143.7-.698-.43-.42-2.38-.56-2.94-.19-.764.98-.834 1.675-.975.692-.14 6.84-.28 7.4.98.56 1.25-1.26 2.09-2.378 2.23zm10.75-14.25c0 .56 5.865.14 6.98.84 1.12.698 3.073 2.095 2.794 2.794-.28.697.14 1.256-2.09 1.395-2.24.14-5.31.7-5.87.56s1.12.98 1.12.98 10.47-.14 10.61.56c.14.694-1.54 3.206-4.33 3.35-2.79.14-6.01.835-6.56.696-.56-.14 0 3.21.42 3.49.42.28 10.75.98 11.73.98.98 0 1.39 2.93-1.12 3.07-2.52.14-6.01.94-8.38-.14-1.54-.7-3.07.41-3.63.28-.56-.15-3.49-2.94-4.19-4.75s.28-7.68-.42-10.06c-.7-2.37-2.1-4.19-.98-4.75 1.12-.56 3.91-.19 3.91.69z"/>
</svg>
