<?xml version="1.0" encoding="utf-8"?>
<!-- Generator: Adobe Illustrator 14.0.0, SVG Export Plug-In . SVG Version: 6.00 Build 43363)  -->
<!DOCTYPE svg PUBLIC "-//W3C//DTD SVG 1.1//EN" "http://www.w3.org/Graphics/SVG/1.1/DTD/svg11.dtd">
<svg version="1.1" id="レイヤー_1" xmlns="http://www.w3.org/2000/svg" xmlns:xlink="http://www.w3.org/1999/xlink" x="0px"
	 y="0px" width="71.398px" height="48.767px" viewBox="0 0 71.398 48.767" enable-background="new 0 0 71.398 48.767"
	 xml:space="preserve">
<g>
	<path d="M71.398,38.848c0,1.565-1.27,1.835-2.835,1.835H2.835C1.27,40.683,0,40.413,0,38.848V26.741
		c0-1.566,1.811-4.835,4.835-4.835h61.729c3.573,0,4.835,3.269,4.835,4.835V38.848z"/>
	<path d="M56.704,18.829v-5.131c0-1.843-1.329-3.338-2.967-3.338H43.511c-1.638,0-2.967,1.495-2.967,3.338v5.131H30.236v-5.131
		c0-1.843-1.329-3.338-2.967-3.338H17.043c-1.638,0-2.967,1.495-2.967,3.338v5.131H5.164c0,0,0.192-10.752,0.482-15.001
		s5.118-3.814,5.118-3.814c46.328,0,45.222,0,51.483,0c5.166,0,4.587,4.587,4.587,4.587v14.229H56.704z"/>
	<path d="M15.414,45.932c0,1.565-1.27,2.835-2.835,2.835H8.066c-1.565,0-2.835-1.27-2.835-2.835v-0.44
		c0-1.565,1.27-2.834,2.835-2.834h4.513c1.565,0,2.835,1.269,2.835,2.834V45.932z"/>
	<path d="M66.414,45.932c0,1.565-1.27,2.835-2.835,2.835h-4.513c-1.565,0-2.835-1.27-2.835-2.835v-0.44
		c0-1.565,1.27-2.834,2.835-2.834h4.513c1.565,0,2.835,1.269,2.835,2.834V45.932z"/>
</g>
</svg>
