<?xml version="1.0" encoding="utf-8"?>
<!-- Generator: Adobe Illustrator 14.0.0, SVG Export Plug-In . SVG Version: 6.00 Build 43363)  -->
<!DOCTYPE svg PUBLIC "-//W3C//DTD SVG 1.1//EN" "http://www.w3.org/Graphics/SVG/1.1/DTD/svg11.dtd">
<svg version="1.1" id="レイヤー_1" xmlns="http://www.w3.org/2000/svg" xmlns:xlink="http://www.w3.org/1999/xlink" x="0px"
	 y="0px" width="46.782px" height="65.965px" viewBox="0 0 46.782 65.965" enable-background="new 0 0 46.782 65.965"
	 xml:space="preserve">
<g>
	<g>
		<path d="M39.322,6.669C39.3,5.702,38.4,4.257,37.572,3.14c-0.003,0.076-0.006,0.146-0.009,0.225
			c-0.152-0.139-0.34-0.266-0.582-0.367c-1.701-0.717-1.479-0.326-1.479-0.326s0.567,0.725,1.405,1.998
			c0.163,0.248,0.359,0.568,0.559,0.9c-0.076,1.551-0.182,3.357-0.326,5.337c0.24-0.95,0.638-1.989,1.304-2.946
			C38.806,7.439,39.093,7.016,39.322,6.669z"/>
		<path d="M36.908,30.342c0.042-0.521,0.3-3.832,0.334-6.804c0.026-2.255-0.387-3.92-0.802-5.021
			c-0.03,0.269-0.057,0.532-0.088,0.803c-0.031,0.061-0.053,0.1-0.053,0.1l0.047-0.053c-0.491,4.209-1.177,8.598-2.1,12.653
			c0.301,0.356,0.85,1.037,1.473,1.95C35.865,33.161,36.191,31.932,36.908,30.342z"/>
		<path d="M38.242,23.55c-0.019,1.606-0.102,3.311-0.182,4.629c0.52-0.805,1.087-1.497,1.664-2.088
			c0.046-0.586,0.182-2.787-0.016-6.594c-0.147-2.836-2.862-4.988-2.867-4.931c-0.079-0.038-0.155-0.079-0.244-0.114
			c-2.285-0.895-1.986-0.407-1.986-0.407l1.801,2.237C36.489,16.382,38.298,18.761,38.242,23.55z"/>
		<path d="M27.986,49.201c-3.939,8.526-8.405,16.764-8.405,16.764l0.694-0.04c0.361-0.82,2.31-5.041,6.022-9.559
			C27.381,54.089,27.834,51.351,27.986,49.201z"/>
		<path d="M32.248,46.253c-0.241,2.076-0.743,4.006-1.144,5.314c0.838-0.661,1.665-1.238,2.476-1.739l-0.038-0.013
			c0.013-0.037,1.235-3.848,1.235-7.594c0-2.076-0.991-4.111-1.787-5.414c-0.065,0.214-0.128,0.436-0.196,0.646
			c-0.263,0.812-0.57,1.678-0.907,2.575c0.052,0.043,0.104,0.078,0.152,0.136C32.456,40.662,32.771,41.745,32.248,46.253z"/>
		<path d="M34.782,49.128c0.788-0.43,1.546-0.793,2.263-1.094c0.271-0.576,1.177-2.818,0.815-6.357
			c-0.408-3.992-3.472-7.924-4.352-8.98c-0.128-0.074-0.258-0.148-0.417-0.211c-2.285-0.894-1.986-0.406-1.986-0.406
			s0.763,0.903,1.888,2.493c0.184,0.26,0.264,0.551,0.29,0.846c0.854,1.216,2.494,3.923,2.494,6.804
			C35.777,44.989,35.161,47.712,34.782,49.128z"/>
		<path d="M28.134,54.286c0.495-0.523,0.993-1.008,1.493-1.463c0.192-0.516,1.253-3.455,1.627-6.686
			c0.346-2.979,0.302-4.318,0.177-4.918c-0.703,1.793-1.513,3.699-2.376,5.631C29.137,48.669,28.917,51.569,28.134,54.286z"/>
		<path d="M40.78,25.116c0.837-0.693,1.626-1.182,2.233-1.51c-0.221-2.174-0.508-4.266-0.841-6.246
			c-0.645,1.031-1.354,2.504-1.359,4.009C40.813,21.369,40.813,24.289,40.78,25.116z"/>
		<path d="M38.307,29.734c-1.711,3.317-1.711,5.308-1.711,5.327c0,0,0.656,1.439,1.025,2.25c0.449-1.681,1.311-4.371,2.613-6.209
			c1.231-1.734,2.604-3.029,3.602-3.854c0.994-1.443,2.946-3.105,2.946-3.105s-1.146-0.389-2.455,0
			c-0.373,0.111-0.79,0.32-1.199,0.561c0-0.004-0.001-0.006-0.001-0.01C41.766,25.495,39.684,27.065,38.307,29.734z"/>
		<path d="M41.611,3.868c0,0-0.621-0.211-1.329,0c-0.243,0.071-0.521,0.22-0.782,0.383c0.226,0.401,0.431,0.811,0.577,1.213
			C40.15,5.334,41.611,3.868,41.611,3.868z"/>
		<path d="M40.553,18.265c0.438-0.977,0.977-1.785,1.372-2.316c-0.278-1.525-0.576-2.977-0.884-4.335
			c-0.632,1.122-1.394,2.649-1.651,3.886C39.901,16.228,40.331,17.141,40.553,18.265z"/>
		<path d="M37.794,13.839c0.262,0.199,0.535,0.437,0.81,0.714c0.507-1.618,1.523-3.403,2.107-4.357
			c-0.236-0.979-0.472-1.893-0.704-2.753c-0.209,0.313-0.446,0.662-0.742,1.088C37.858,10.555,37.782,13.085,37.794,13.839z"/>
		<path d="M37.662,0c0,0-0.008,0.579-0.038,1.587c0.279,0.33,0.664,0.814,1.066,1.385C38.082,1.083,37.662,0,37.662,0z"/>
		<path d="M25.333,65.631l3.481-0.202c1.441-3.614,3.021-5.973,5.673-8.471c2.038-1.92,3.847-2.375,5.002-2.426
			c0.324-0.92,0.646-1.881,0.958-2.877c0,0,0,0,0-0.001c0.083-0.206,0.221-0.431,0.39-0.663c-2.24,0.682-5.87,2.126-8.738,4.902
			C29.042,58.851,26.348,63.692,25.333,65.631z"/>
		<path d="M28.576,55.263c-4.036,4.386-6.405,8.986-7.169,10.596l2.764-0.16c0.73-1.45,3.697-7.102,7.232-10.523
			c3.883-3.759,8.938-5.168,10.701-5.566c1.063-0.998,2.214-1.844,2.214-1.844s-1.292-0.377-2.767,0
			c-0.001,0-0.001,0.001-0.002,0.001c0.007-0.026,0.013-0.054,0.02-0.08C39.117,48.173,33.576,49.827,28.576,55.263z"/>
		<path d="M41.826,46.614c0.33-1.395,0.622-2.82,0.858-4.268c-0.624,0.996-1.411,2.469-2.22,4.547
			C41.002,46.763,41.459,46.675,41.826,46.614z"/>
		<path d="M38.904,44.414c-0.096,1.353-0.352,2.407-0.591,3.128c0.334-0.118,0.653-0.225,0.958-0.318
			c1.555-4.229,3.092-6.287,3.718-7.014c0.011-0.092,0.026-0.182,0.037-0.273c0.202-1.756,0.316-3.506,0.379-5.24
			c-0.05,0.076-0.096,0.145-0.148,0.231C41.242,38.294,39.154,43.753,38.904,44.414z"/>
		<path d="M33.904,65.134l1.075-0.063c0,0,0.796-1.488,1.896-3.963C35.078,62.157,34.252,64.021,33.904,65.134z"/>
		<path d="M41.051,31.683c-1.69,2.381-2.631,6.496-2.791,7.238c0.287,0.857,0.502,1.75,0.595,2.654
			c0.007,0.07,0.01,0.135,0.017,0.205c0.856-2.086,2.19-5.133,3.528-7.366c0.363-0.607,0.71-1.058,1.045-1.37
			c0.018-1.367-0.001-2.72-0.053-4.055C42.643,29.704,41.813,30.606,41.051,31.683z"/>
		<path d="M29.917,65.364l2.932-0.17c0.376-1.365,1.54-4.358,4.616-5.449c0.522-1.232,1.086-2.637,1.652-4.182
			c-0.961,0.133-2.353,0.623-3.944,2.122C32.745,59.974,31.255,62.14,29.917,65.364z"/>
		<path d="M45.042,32.7c-0.064-0.055-0.305-0.232-0.702-0.164c-0.291,0.049-0.589,0.222-0.896,0.508
			c-0.007,0.549-0.02,1.099-0.039,1.652C44.122,33.575,45.042,32.7,45.042,32.7z"/>
	</g>
	<g>
		<path d="M6.123,10.644c0.063-0.687,0.77-1.67,1.41-2.424C7.531,8.274,7.529,8.323,7.528,8.38c0.115-0.092,0.254-0.173,0.431-0.232
			c1.242-0.43,1.065-0.163,1.065-0.163S8.587,8.472,7.932,9.338C7.806,9.506,7.65,9.724,7.493,9.95
			c-0.019,1.104-0.029,2.393-0.021,3.805c-0.127-0.686-0.359-1.441-0.787-2.153C6.454,11.215,6.271,10.9,6.123,10.644z"/>
		<path d="M6.72,27.569c-0.007-0.371-0.032-2.736,0.084-4.848c0.088-1.603,0.459-2.766,0.807-3.529
			c0.009,0.193,0.015,0.381,0.024,0.576c0.02,0.043,0.033,0.072,0.033,0.072l-0.032-0.039c0.151,3.012,0.431,6.16,0.895,9.084
			c-0.23,0.24-0.652,0.697-1.139,1.316C7.326,29.62,7.153,28.731,6.72,27.569z"/>
		<path d="M6.093,22.683c-0.063,1.143-0.084,2.355-0.09,3.297c-0.331-0.598-0.701-1.115-1.083-1.563
			c-0.005-0.418,0.003-1.988,0.322-4.682c0.239-2.007,2.269-3.408,2.27-3.367c0.058-0.022,0.113-0.049,0.179-0.068
			c1.665-0.527,1.431-0.196,1.431-0.196l-1.385,1.505C7.676,17.675,6.279,19.278,6.093,22.683z"/>
		<path d="M12.164,41.384c2.395,6.242,5.177,12.303,5.177,12.303l-0.491-0.063c-0.218-0.599-1.401-3.688-3.824-7.072
			C12.363,44.884,12.171,42.917,12.164,41.384z"/>
		<path d="M9.277,39.089c0.072,1.486,0.338,2.879,0.561,3.828c-0.564-0.509-1.124-0.959-1.676-1.352l0.026-0.008
			c-0.006-0.027-0.694-2.791-0.517-5.451c0.098-1.475,0.898-2.873,1.524-3.761c0.036,0.155,0.07,0.315,0.108,0.468
			c0.148,0.59,0.326,1.219,0.522,1.873c-0.038,0.026-0.078,0.049-0.114,0.088C9.394,35.108,9.119,35.862,9.277,39.089z"/>
		<path d="M7.341,41.011c-0.539-0.343-1.061-0.637-1.555-0.884c-0.164-0.422-0.702-2.058-0.278-4.554
			c0.478-2.814,2.84-5.463,3.514-6.171c0.096-0.048,0.19-0.094,0.307-0.13c1.666-0.527,1.43-0.195,1.43-0.195
			s-0.585,0.605-1.458,1.682c-0.143,0.176-0.213,0.379-0.245,0.586c-0.665,0.822-1.958,2.668-2.093,4.715
			C6.83,38.024,7.14,39.987,7.341,41.011z"/>
		<path d="M11.819,44.987c-0.327-0.395-0.657-0.762-0.991-1.109c-0.112-0.375-0.728-2.512-0.84-4.824
			c-0.104-2.132-0.011-3.08,0.107-3.501c0.414,1.308,0.899,2.698,1.421,4.112C11.372,40.951,11.392,43.021,11.819,44.987z"/>
		<path d="M4.216,23.675c-0.562-0.532-1.099-0.916-1.515-1.178c0.26-1.533,0.563-3.006,0.893-4.396
			c0.41,0.763,0.844,1.843,0.776,2.912C4.37,21.013,4.232,23.086,4.216,23.675z"/>
		<path d="M5.755,27.071c1.058,2.437,0.965,3.85,0.964,3.865c0,0-0.535,0.99-0.835,1.549c-0.24-1.215-0.725-3.166-1.563-4.533
			c-0.793-1.29-1.706-2.275-2.376-2.906C1.308,23.973,0,22.7,0,22.7s0.832-0.221,1.743,0.116c0.26,0.097,0.546,0.266,0.825,0.454
			c0-0.002,0.002-0.004,0.001-0.006C3.499,23.897,4.902,25.111,5.755,27.071z"/>
		<path d="M4.63,8.546c0,0,0.451-0.121,0.944,0.063c0.17,0.063,0.359,0.181,0.537,0.309c-0.18,0.275-0.345,0.557-0.467,0.835
			C5.599,9.656,4.63,8.546,4.63,8.546z"/>
		<path d="M4.702,18.82c-0.266-0.715-0.61-1.313-0.865-1.71c0.269-1.07,0.549-2.086,0.833-3.037
			c0.396,0.826,0.864,1.947,0.988,2.837C5.26,17.405,4.912,18.032,4.702,18.82z"/>
		<path d="M6.87,15.807c-0.196,0.13-0.4,0.285-0.609,0.47c-0.282-1.174-0.921-2.489-1.291-3.194
			c0.215-0.685,0.425-1.322,0.631-1.922c0.134,0.231,0.285,0.491,0.476,0.808C6.979,13.472,6.914,15.272,6.87,15.807z"/>
		<path d="M7.617,5.985c0,0-0.021,0.412-0.048,1.129C7.355,7.335,7.06,7.661,6.747,8.048C7.268,6.735,7.617,5.985,7.617,5.985z"/>
		<path d="M13.271,53.177l-2.462-0.308c-0.854-2.635-1.862-4.384-3.629-6.284c-1.356-1.459-2.619-1.868-3.438-1.959
			c-0.186-0.668-0.369-1.366-0.543-2.088c0,0,0,0,0-0.001c-0.051-0.15-0.137-0.317-0.245-0.489c1.559,0.59,4.068,1.787,5.973,3.895
			C10.959,48.187,12.643,51.753,13.271,53.177z"/>
		<path d="M11.458,45.66c2.66,3.306,4.125,6.686,4.592,7.864l-1.956-0.244c-0.45-1.064-2.29-5.219-4.639-7.816
			c-2.579-2.852-6.104-4.092-7.336-4.458c-0.708-0.759-1.486-1.413-1.486-1.413s0.936-0.207,1.966,0.131c0,0,0,0,0.001,0
			c-0.004-0.02-0.006-0.039-0.011-0.059C4.309,40.128,8.165,41.565,11.458,45.66z"/>
		<path d="M2.457,38.893C2.29,37.887,2.149,36.86,2.05,35.821c0.396,0.737,0.886,1.819,1.361,3.334
			C3.036,39.037,2.716,38.952,2.457,38.893z"/>
		<path d="M4.637,37.468c0.004,0.965,0.136,1.727,0.271,2.25c-0.231-0.1-0.453-0.19-0.666-0.271
			c-0.903-3.076-1.898-4.611-2.308-5.156c-0.004-0.066-0.011-0.131-0.014-0.196c-0.061-1.257-0.06-2.505-0.021-3.739
			c0.031,0.057,0.061,0.107,0.095,0.172C3.266,33.011,4.491,36.987,4.637,37.468z"/>
		<path d="M7.208,52.419l-0.761-0.096c0,0-0.495-1.094-1.158-2.904C6.516,50.249,7.015,51.612,7.208,52.419z"/>
		<path d="M3.714,28.325c1.088,1.771,1.562,4.738,1.64,5.273c-0.244,0.595-0.438,1.219-0.547,1.855
			c-0.009,0.05-0.014,0.096-0.022,0.145c-0.509-1.521-1.313-3.748-2.157-5.396c-0.229-0.449-0.454-0.785-0.677-1.023
			c0.052-0.971,0.129-1.932,0.229-2.877C2.677,26.846,3.224,27.525,3.714,28.325z"/>
		<path d="M10.029,52.771l-2.074-0.259c-0.202-0.988-0.888-3.169-3.021-4.088c-0.313-0.9-0.647-1.924-0.977-3.048
			c0.677,0.14,1.642,0.553,2.702,1.692C8.275,48.81,9.231,50.417,10.029,52.771z"/>
		<path d="M0.831,28.86c0.049-0.037,0.228-0.151,0.506-0.084c0.205,0.048,0.408,0.186,0.613,0.402
			c-0.021,0.391-0.038,0.781-0.051,1.176C1.443,29.524,0.831,28.86,0.831,28.86z"/>
	</g>
</g>
</svg>
