<?xml version="1.0" encoding="utf-8"?>
<!-- Generator: Adobe Illustrator 14.0.0, SVG Export Plug-In . SVG Version: 6.00 Build 43363)  -->
<!DOCTYPE svg PUBLIC "-//W3C//DTD SVG 1.1//EN" "http://www.w3.org/Graphics/SVG/1.1/DTD/svg11.dtd">
<svg version="1.1" id="レイヤー_1" xmlns="http://www.w3.org/2000/svg" xmlns:xlink="http://www.w3.org/1999/xlink" x="0px"
	 y="0px" width="55.512px" height="50.396px" viewBox="0 0 55.512 50.396" enable-background="new 0 0 55.512 50.396"
	 xml:space="preserve">
<g>
	<path d="M47.988,0H6.03C4.697,0,3.616,1.081,3.616,2.414v26.337c0,1.334,1.081,2.414,2.414,2.414h41.958
		c1.333,0,2.414-1.08,2.414-2.414V2.414C50.402,1.081,49.321,0,47.988,0z M27.202,30.318c-0.605,0-1.098-0.492-1.098-1.099
		c0-0.607,0.492-1.1,1.098-1.1c0.608,0,1.101,0.492,1.101,1.1C28.303,29.826,27.811,30.318,27.202,30.318z M45.723,24.473
		c0,1.333-1.081,2.413-3.336,2.413H9.789c-0.411,0-1.492-1.08-1.492-2.413V5.54c0-1.333,1.081-2.414,2.413-2.414h32.598
		c1.334,0,2.415,1.081,2.415,2.414V24.473z"/>
	<path d="M55.512,47.982c0,1.333-1.081,2.413-2.414,2.413H2.414C1.081,50.396,0,49.315,0,47.982l3.406-12.546
		c0-1.333,1.081-2.414,2.414-2.414h43.02c1.333,0,2.414,1.081,2.414,2.414L55.512,47.982z"/>
	<circle cx="27.203" cy="23.805" r="1.76"/>
	<path d="M32.386,21.501c-0.466,0-0.914-0.256-1.139-0.7c-0.013-0.022-1.461-2.753-4.046-2.758c-0.003,0-0.005,0-0.009,0
		c-2.774,0-4.104,2.702-4.116,2.729c-0.306,0.637-1.067,0.903-1.705,0.599c-0.635-0.305-0.903-1.068-0.599-1.704
		c0.082-0.171,2.057-4.179,6.419-4.179c0.006,0,0.01,0,0.016,0c4.162,0.009,6.231,3.987,6.316,4.157
		c0.32,0.628,0.069,1.397-0.56,1.717C32.777,21.456,32.58,21.501,32.386,21.501L32.386,21.501z"/>
	<path d="M18.893,16.834c-0.167,0-0.337-0.033-0.499-0.104c-0.645-0.276-0.948-1.014-0.678-1.661
		c0.09-0.213,2.263-5.216,9.467-5.335c7.15-0.118,9.369,3.917,9.46,4.089c0.329,0.624,0.092,1.396-0.532,1.726
		c-0.625,0.329-1.396,0.092-1.726-0.533c-0.057-0.098-1.653-2.819-7.161-2.728c-5.473,0.09-7.09,3.626-7.155,3.777
		C19.857,16.544,19.386,16.834,18.893,16.834L18.893,16.834z"/>
	<path d="M15.569,12.268c-0.277,0-0.558-0.09-0.791-0.275c-0.555-0.437-0.647-1.24-0.212-1.794
		c0.181-0.228,4.484-5.561,12.637-5.562c0.001,0,0.002,0,0.004,0c8.947,0,12.12,5.406,12.252,5.637
		c0.348,0.613,0.133,1.393-0.479,1.741c-0.614,0.347-1.395,0.133-1.742-0.48c-0.101-0.169-2.645-4.343-10.03-4.343
		c-0.002,0-0.002,0-0.004,0c-6.927,0.001-10.595,4.544-10.63,4.59C16.32,12.102,15.946,12.268,15.569,12.268L15.569,12.268z"/>
</g>
</svg>
