<?xml version="1.0" encoding="utf-8"?>
<!-- Generator: Adobe Illustrator 14.0.0, SVG Export Plug-In . SVG Version: 6.00 Build 43363)  -->
<!DOCTYPE svg PUBLIC "-//W3C//DTD SVG 1.1//EN" "http://www.w3.org/Graphics/SVG/1.1/DTD/svg11.dtd">
<svg version="1.1" id="レイヤー_1" xmlns="http://www.w3.org/2000/svg" xmlns:xlink="http://www.w3.org/1999/xlink" x="0px"
	 y="0px" width="60.48px" height="41.64px" viewBox="0 0 60.48 41.64" enable-background="new 0 0 60.48 41.64"
	 xml:space="preserve">
<g>
	<path fill="none" stroke="#000000" d="M9.176,14.243"/>
	<path d="M57.646,0H2.834C1.27,0,0,1.27,0,2.835v35.97c0,1.565,1.27,2.835,2.834,2.835h54.813c1.564,0,2.834-1.27,2.834-2.835V2.835
		C60.48,1.27,59.211,0,57.646,0z M20.918,32.973c-6.873,0-12.445-5.572-12.445-12.445c0-6.874,5.572-12.446,12.445-12.446
		c6.875,0,12.445,5.572,12.445,12.446C33.363,27.4,27.793,32.973,20.918,32.973z M45.842,16.311
		c-0.193,1.821-2.229,2.605-2.229,2.605v15.428c-0.957,0.957-2.064-0.153-2.064-0.153V18.817c0,0-2.154-0.9-2.229-2.418
		c-0.234-4.761,0.553-6.59,1.135-6.571c0.883,0.028,0.021,4.557,0.842,4.592c1.191,0.051,0.922-0.891,0.928-1.783
		c0.01-1.559,0.105-2.782,0.498-2.746s0.482,1.257,0.572,2.711c0.064,1.059-0.215,1.712,0.82,1.569
		c0.779-0.107,0.119-4.264,0.678-4.352S46.193,13.001,45.842,16.311z M52.611,33.969c-0.957,0.957-2.064-0.153-2.064-0.153V21.421
		c0,0-2.832-0.459-2.832-6.962c0-6.637,4.742-7.813,4.896-6.81S52.611,33.969,52.611,33.969z"/>
	<path d="M21.148,29.468c-4.906,0-8.896-3.991-8.896-8.898c0-1.948,0.617-3.798,1.787-5.349l0.85,0.641
		c-1.029,1.365-1.572,2.993-1.572,4.708c0,4.319,3.514,7.834,7.832,7.834c2.619,0,5.055-1.301,6.514-3.479l0.885,0.592
		C26.889,27.99,24.123,29.468,21.148,29.468L21.148,29.468z"/>
</g>
</svg>
