<?xml version="1.0" encoding="utf-8"?>
<!-- Generator: Adobe Illustrator 14.0.0, SVG Export Plug-In . SVG Version: 6.00 Build 43363)  -->
<!DOCTYPE svg PUBLIC "-//W3C//DTD SVG 1.1//EN" "http://www.w3.org/Graphics/SVG/1.1/DTD/svg11.dtd">
<svg version="1.1" id="レイヤー_1" xmlns="http://www.w3.org/2000/svg" xmlns:xlink="http://www.w3.org/1999/xlink" x="0px"
	 y="0px" width="39.692px" height="80.767px" viewBox="0 0 39.692 80.767" enable-background="new 0 0 39.692 80.767"
	 xml:space="preserve">
<g>
	<path d="M37.886,24.477h-8.202v-0.985c0-1.654-0.972-2.995-2.17-2.995h-0.845c-1.198,0-2.171,1.341-2.171,2.995v0.985h-4.321
		v-0.985c0-1.654-0.972-2.995-2.17-2.995h-0.845c-1.199,0-2.171,1.341-2.171,2.995v0.985h-3.499v-0.892
		c0-0.997-0.81-1.807-1.808-1.807s-1.807,0.81-1.807,1.807v0.892H1.662c-0.411,0-0.744,0.333-0.744,0.743s0.333,0.743,0.744,0.743
		h6.216v1.149c0,0.998,0.809,1.808,1.807,1.808s1.808-0.81,1.808-1.808v-1.149h3.499v0.466c0,1.654,0.972,2.994,2.171,2.994h0.845
		c1.198,0,2.17-1.34,2.17-2.994v-0.466h4.321v0.466c0,1.654,0.973,2.994,2.171,2.994h0.845c1.198,0,2.17-1.34,2.17-2.994v-0.466
		h8.202c0.411,0,0.743-0.333,0.743-0.743S38.297,24.477,37.886,24.477z"/>
	<path d="M15.293,4.76c0,0,0.594,2.063,0.333,5.206c-0.261,3.141-2.924,4.509-3.147,6.2c-0.224,1.692-0.405,3.062-0.405,3.062
		s-3.178-3.416-1.05-6.424C13.759,8.94,14.798,7.394,15.293,4.76z"/>
	<path d="M18.177,0c0,0,4.288,4.181,4.446,7.983c0.158,3.802-2.376,5.862-2.376,7.922c0,2.061,0,3.729,0,3.729
		s-3.984-2.962-2.22-6.899C20.299,7.677,19.444,1.268,18.177,0z"/>
	<path d="M24.146,6.142c0,0,4.15-0.141,5.225,3.316c0.979,3.15-0.377,3.449-0.056,6.288c0.2,1.774,0.417,2.742,0.417,2.742
		s-4.664-1.928-3.616-5.519C27.143,9.455,25.291,7.193,24.146,6.142z"/>
	<g>
		<path d="M39.644,39.368c0.029-0.203,0.049-0.409,0.049-0.619c0-3.296-5.384-8.522-19.833-8.522
			c-9.614,0-19.832,2.986-19.832,8.522c0,0.267,0.03,0.526,0.076,0.78c-0.146,1.385-0.855,10.409,5.054,15.907
			c1.403,1.306,3.053,2.374,4.859,3.199L2.776,73.96c-0.526,1.113-0.05,2.442,1.063,2.969c0.308,0.145,0.632,0.214,0.951,0.214
			c0.836,0,1.637-0.473,2.018-1.278l7.465-15.802c1.093,0.251,2.211,0.428,3.344,0.526v17.948c0,1.231,0.998,2.229,2.229,2.229
			c1.232,0,2.23-0.998,2.23-2.229V60.584c0.965-0.087,1.924-0.234,2.869-0.436l8.831,17.172c0.396,0.769,1.176,1.211,1.984,1.211
			c0.344,0,0.692-0.08,1.019-0.248c1.095-0.563,1.525-1.907,0.963-3.002l-8.486-16.503c2.154-0.936,4.139-2.217,5.818-3.863
			C39.109,50.961,39.594,40.889,39.644,39.368z M36.719,38.749c0,1.562-3.13,3.61-8.451,4.73l3.981-8.334
			C35.49,36.461,36.719,38.075,36.719,38.749z M19.859,33.199c0.352,0,0.692,0.004,1.029,0.011l-6.23,10.789
			c-1.996-0.237-3.766-0.603-5.297-1.044l6.015-9.528C16.778,33.285,18.269,33.199,19.859,33.199z M3,38.749
			c0-1.565,3.146-3.619,8.49-4.737l-4.996,7.915C4.244,40.91,3,39.733,3,38.749z M19.859,44.299c-0.655,0-1.295-0.014-1.919-0.039
			l6.281-10.876c1.999,0.179,3.712,0.476,5.172,0.843l-4.687,9.809C23.201,44.199,21.588,44.299,19.859,44.299z"/>
	</g>
</g>
</svg>
