<?xml version="1.0" encoding="utf-8"?>
<!-- Generator: Adobe Illustrator 14.0.0, SVG Export Plug-In . SVG Version: 6.00 Build 43363)  -->
<!DOCTYPE svg PUBLIC "-//W3C//DTD SVG 1.1//EN" "http://www.w3.org/Graphics/SVG/1.1/DTD/svg11.dtd">
<svg version="1.1" id="レイヤー_1" xmlns="http://www.w3.org/2000/svg" xmlns:xlink="http://www.w3.org/1999/xlink" x="0px"
	 y="0px" width="63.268px" height="67.97px" viewBox="0 0 63.268 67.97" enable-background="new 0 0 63.268 67.97"
	 xml:space="preserve">
<g>
	<path stroke="#E4007F" stroke-width="0.6681" d="M1.176,44.003"/>
	<g>
		<path d="M28.543,61.502c0,1.02-0.705,1.195-1.574,1.195H1.574C0.705,62.697,0,62.521,0,61.502v-7.897
			c0-1.021,1.005-3.152,2.686-3.152h23.172c1.984,0,2.686,2.132,2.686,3.152V61.502z"/>
		<path d="M19.567,48.445v-3.347c0-1.202-0.738-2.176-1.647-2.176h-6.79c-0.909,0-1.647,0.974-1.647,2.176v3.347H2.867
			c0,0,0.107-7.013,0.268-9.784c0.162-2.771,2.843-2.487,2.843-2.487c27.948,0,16.228,0,17.483,0c2.869,0,2.547,2.992,2.547,2.992
			v9.279H19.567z"/>
		<path d="M9.115,66.121c0,1.021-0.705,1.849-1.574,1.849H5.034c-0.869,0-1.574-0.828-1.574-1.849v-0.287
			c0-1.021,0.705-1.849,1.574-1.849h2.507c0.869,0,1.574,0.828,1.574,1.849V66.121z"/>
		<path d="M25.775,66.121c0,1.021-0.705,1.849-1.574,1.849h-2.507c-0.869,0-1.574-0.828-1.574-1.849v-0.287
			c0-1.021,0.705-1.849,1.574-1.849h2.507c0.869,0,1.574,0.828,1.574,1.849V66.121z"/>
	</g>
</g>
<g>
	<path stroke="#E4007F" stroke-width="0.6681" d="M35.9,44.003"/>
	<g>
		<path d="M63.268,61.502c0,1.02-0.706,1.195-1.575,1.195H36.299c-0.869,0-1.574-0.176-1.574-1.195v-7.897
			c0-1.021,1.005-3.152,2.684-3.152h23.174c1.984,0,2.686,2.132,2.686,3.152V61.502z"/>
		<path d="M54.292,48.445v-3.347c0-1.202-0.738-2.176-1.647-2.176h-6.791c-0.908,0-1.646,0.974-1.646,2.176v3.347h-6.615
			c0,0,0.107-7.013,0.268-9.784c0.161-2.771,2.842-2.487,2.842-2.487c27.949,0,16.229,0,17.484,0c2.869,0,2.547,2.992,2.547,2.992
			v9.279H54.292z"/>
		<path d="M43.839,66.121c0,1.021-0.704,1.849-1.574,1.849h-2.506c-0.869,0-1.575-0.828-1.575-1.849v-0.287
			c0-1.021,0.706-1.849,1.575-1.849h2.506c0.87,0,1.574,0.828,1.574,1.849V66.121z"/>
		<path d="M60.5,66.121c0,1.021-0.706,1.849-1.576,1.849h-2.506c-0.869,0-1.574-0.828-1.574-1.849v-0.287
			c0-1.021,0.705-1.849,1.574-1.849h2.506c0.87,0,1.576,0.828,1.576,1.849V66.121z"/>
	</g>
</g>
<g>
	<path stroke="#E4007F" stroke-width="0.6681" d="M1.176,7.837"/>
	<g>
		<path d="M28.543,25.336c0,1.02-0.705,1.195-1.574,1.195H1.574C0.705,26.531,0,26.355,0,25.336v-7.896
			c0-1.021,1.005-3.153,2.686-3.153h23.172c1.984,0,2.686,2.132,2.686,3.153V25.336z"/>
		<path d="M19.567,12.279V8.933c0-1.202-0.738-2.177-1.647-2.177h-6.79c-0.909,0-1.647,0.975-1.647,2.177v3.347H2.867
			c0,0,0.107-7.013,0.268-9.784c0.162-2.77,2.843-2.487,2.843-2.487c27.948,0,16.228,0,17.483,0C26.33,0.008,26.008,3,26.008,3
			v9.279H19.567z"/>
		<path d="M9.115,29.956c0,1.021-0.705,1.848-1.574,1.848H5.034c-0.869,0-1.574-0.827-1.574-1.848v-0.288
			c0-1.021,0.705-1.848,1.574-1.848h2.507c0.869,0,1.574,0.827,1.574,1.848V29.956z"/>
		<path d="M25.775,29.956c0,1.021-0.705,1.848-1.574,1.848h-2.507c-0.869,0-1.574-0.827-1.574-1.848v-0.288
			c0-1.021,0.705-1.848,1.574-1.848h2.507c0.869,0,1.574,0.827,1.574,1.848V29.956z"/>
	</g>
</g>
<g>
	<path stroke="#E4007F" stroke-width="0.6681" d="M35.9,7.837"/>
	<g>
		<path d="M63.268,25.336c0,1.02-0.706,1.195-1.575,1.195H36.299c-0.869,0-1.574-0.176-1.574-1.195v-7.896
			c0-1.021,1.005-3.153,2.684-3.153h23.174c1.984,0,2.686,2.132,2.686,3.153V25.336z"/>
		<path d="M54.292,12.279V8.933c0-1.202-0.738-2.177-1.647-2.177h-6.791c-0.908,0-1.646,0.975-1.646,2.177v3.347h-6.615
			c0,0,0.107-7.013,0.268-9.784c0.161-2.77,2.842-2.487,2.842-2.487c27.949,0,16.229,0,17.484,0C61.055,0.008,60.732,3,60.732,3
			v9.279H54.292z"/>
		<path d="M43.839,29.956c0,1.021-0.704,1.848-1.574,1.848h-2.506c-0.869,0-1.575-0.827-1.575-1.848v-0.288
			c0-1.021,0.706-1.848,1.575-1.848h2.506c0.87,0,1.574,0.827,1.574,1.848V29.956z"/>
		<path d="M60.5,29.956c0,1.021-0.706,1.848-1.576,1.848h-2.506c-0.869,0-1.574-0.827-1.574-1.848v-0.288
			c0-1.021,0.705-1.848,1.574-1.848h2.506c0.87,0,1.576,0.827,1.576,1.848V29.956z"/>
	</g>
</g>
</svg>
