<?xml version="1.0" encoding="utf-8"?>
<!-- Generator: Adobe Illustrator 14.0.0, SVG Export Plug-In . SVG Version: 6.00 Build 43363)  -->
<!DOCTYPE svg PUBLIC "-//W3C//DTD SVG 1.1//EN" "http://www.w3.org/Graphics/SVG/1.1/DTD/svg11.dtd">
<svg version="1.1" id="レイヤー_1" xmlns="http://www.w3.org/2000/svg" xmlns:xlink="http://www.w3.org/1999/xlink" x="0px"
	 y="0px" width="43.64px" height="73.748px" viewBox="0 0 43.64 73.748" enable-background="new 0 0 43.64 73.748"
	 xml:space="preserve">
<g>
	<path d="M43.64,20.006l-16.619-7.412c0,0,0.004,0.592-0.146,1.407l-4.738-3.555c-0.057-0.979,0.006-1.967,0.125-2.185
		c0.558-0.557,2.542-3.1,2.05-5.354C24.134,2.1,23.57,1.004,21.882,0.38c-1.508-0.558-2.837-0.501-3.951,0.168
		c-1.958,1.175-2.36,3.751-2.4,4.041c-0.078,0.576,0.324,1.104,0.899,1.186c0.579,0.081,1.109-0.321,1.191-0.897
		c0.074-0.514,0.47-1.969,1.401-2.522c0.546-0.325,1.241-0.321,2.127,0.005c0.859,0.318,1.039,0.723,1.1,1
		c0.244,1.114-0.959,2.891-1.479,3.41c-0.771,0.771-0.822,2.519-0.743,3.778l-4.499,3.812c-0.266-0.71-0.379-1.217-0.379-1.217
		L0,20.98l2.685,10.918l7.638-2.695L9.406,51.204l26.123-0.949l-1.92-21.214L40.47,31.5L43.64,20.006z M20.395,18.995
		c-1.84-0.153-3.088-1.388-3.907-2.683l4.674-3.959l5.012,3.76C25.339,17.744,23.689,19.27,20.395,18.995z"/>
	<circle cx="14.554" cy="57.014" r="1.909"/>
	<circle cx="14.554" cy="64.089" r="1.909"/>
	<circle cx="14.554" cy="71.839" r="1.909"/>
	<circle cx="22.908" cy="55.104" r="1.909"/>
	<circle cx="23.627" cy="64.031" r="1.91"/>
	<circle cx="31.76" cy="55.772" r="1.909"/>
	<circle cx="32.434" cy="64.031" r="1.909"/>
	<circle cx="32.377" cy="70.737" r="1.909"/>
</g>
</svg>
