<?xml version="1.0" encoding="utf-8"?>
<!-- Generator: Adobe Illustrator 14.0.0, SVG Export Plug-In . SVG Version: 6.00 Build 43363)  -->
<!DOCTYPE svg PUBLIC "-//W3C//DTD SVG 1.1//EN" "http://www.w3.org/Graphics/SVG/1.1/DTD/svg11.dtd">
<svg version="1.1" id="レイヤー_1" xmlns="http://www.w3.org/2000/svg" xmlns:xlink="http://www.w3.org/1999/xlink" x="0px"
	 y="0px" width="54.641px" height="55.775px" viewBox="0 0 54.641 55.775" enable-background="new 0 0 54.641 55.775"
	 xml:space="preserve">
<g>
	<path d="M3.509,55.287c-0.462,0-0.931-0.092-1.382-0.286c-1.781-0.764-2.607-2.827-1.842-4.609L20.982,2.128
		c0.764-1.782,2.83-2.607,4.61-1.843c1.782,0.764,2.607,2.828,1.843,4.61L6.738,53.158C6.167,54.489,4.872,55.287,3.509,55.287
		L3.509,55.287z"/>
	<path d="M15.798,55.775c-0.462,0-0.931-0.092-1.382-0.285c-1.782-0.764-2.607-2.828-1.843-4.61L33.271,2.617
		c0.764-1.783,2.829-2.608,4.609-1.843c1.782,0.764,2.607,2.827,1.843,4.609L19.026,53.647
		C18.457,54.979,17.16,55.775,15.798,55.775L15.798,55.775z"/>
	<path d="M48.01,25.433c0,0-9.262-0.962-9.262,3.329s4.729,11.641,1.453,13.981c-1.316,0.941-6.491-0.941-9.69,2.634
		c-1.507,1.685-3.803,11.185,3.539,9.785c12.831-2.447,14.619,1.316,19.417-1.6C56.539,51.695,53.185,24.951,48.01,25.433z"/>
</g>
</svg>
