<?xml version="1.0" encoding="utf-8"?>
<!-- Generator: Adobe Illustrator 14.0.0, SVG Export Plug-In . SVG Version: 6.00 Build 43363)  -->
<!DOCTYPE svg PUBLIC "-//W3C//DTD SVG 1.1//EN" "http://www.w3.org/Graphics/SVG/1.1/DTD/svg11.dtd">
<svg version="1.1" id="レイヤー_1" xmlns="http://www.w3.org/2000/svg" xmlns:xlink="http://www.w3.org/1999/xlink" x="0px"
	 y="0px" width="81.705px" height="50.725px" viewBox="0 0 81.705 50.725" enable-background="new 0 0 81.705 50.725"
	 xml:space="preserve">
<g>
	<path d="M67.937,46.413h-9.833v-7.329c1.331-1.65,3.063-3.859,3.948-5.243c0.739-1.155,0.288-2.051-1.215-2.051
		c-0.847,0-8.695,0-9.573,0c-0.522,0-1.601,0.43-0.708,1.826c0.631,0.987,2.512,3.462,3.955,5.333v7.464H26.924v-7.289
		c1.331-1.651,3.063-3.859,3.948-5.243c0.739-1.155,0.288-2.051-1.215-2.051c-0.847,0-8.695,0-9.573,0
		c-0.522,0-1.601,0.43-0.708,1.826c0.631,0.986,2.512,3.461,3.955,5.333v7.424h-8.734c-1.19,0-2.156,0.965-2.156,2.156
		c0,1.19,0.966,2.155,2.156,2.155h53.34c1.191,0,2.156-0.965,2.156-2.155C70.093,47.378,69.128,46.413,67.937,46.413z"/>
	<path d="M1.435,32.127c-0.254,0-0.513-0.067-0.746-0.211c-0.674-0.412-0.891-1.29-0.481-1.966c0.116-0.192,2.901-4.692,8.383-4.692
		h65.313c3.512,0,6.938,2.938,7.316,3.272c0.595,0.525,0.65,1.435,0.125,2.028c-0.524,0.594-1.432,0.651-2.027,0.127l0,0
		c-0.809-0.71-3.356-2.553-5.414-2.553H8.59c-3.833,0-5.844,3.176-5.927,3.311C2.391,31.884,1.918,32.127,1.435,32.127L1.435,32.127
		z"/>
	<path d="M26.952,20.203l0.799-2.029c1.107-2.815,2.916-7.429,3.047-7.82c0.39-1.166,0.498-1.491,16.323-1.587
		c-0.527-2.252-1.487-4.252-3.147-5.22c-2.285-1.333-4.002-0.266-4.074-0.22c-0.661,0.426-1.551,0.244-1.983-0.41
		c-0.434-0.655-0.271-1.531,0.378-1.974c0.131-0.089,3.232-2.152,7.129,0.12c6.614,3.857,4.98,16.669,4.908,17.213l-0.162,1.208
		L26.952,20.203L26.952,20.203z"/>
</g>
</svg>
