<?xml version="1.0" encoding="utf-8"?>
<!-- Generator: Adobe Illustrator 14.0.0, SVG Export Plug-In . SVG Version: 6.00 Build 43363)  -->
<!DOCTYPE svg PUBLIC "-//W3C//DTD SVG 1.1//EN" "http://www.w3.org/Graphics/SVG/1.1/DTD/svg11.dtd">
<svg version="1.1" id="レイヤー_1" xmlns="http://www.w3.org/2000/svg" xmlns:xlink="http://www.w3.org/1999/xlink" x="0px"
	 y="0px" width="57.85px" height="61.304px" viewBox="0 0 57.85 61.304" enable-background="new 0 0 57.85 61.304"
	 xml:space="preserve">
<path d="M55.93,45.783c-0.346-3.051-1.085-6.188-1.085-6.188l-1.816,2.597c0.004-3.487-0.04-7.083-0.229-7.696
	c-1.23-4.008-2.868-5.25-4.185-6.248c-1.091-0.827-1.812-1.374-2.127-3.342c-0.248-1.55,0.422-2.984,1.132-4.502
	c0.567-1.214,1.154-2.47,1.32-3.876c0.087-0.737,0.207-1.349,0.313-1.888c0.336-1.707,0.579-2.941-0.575-5.664
	C47.26,5.629,44.64,0.45,44.615,0.402l-0.004,0.003c0.104-0.208,0.143-0.348,0.091-0.394c-0.621-0.548-17.978,18.174-18.523,18.795
	L0.374,48.152c-0.548,0.623-0.486,1.57,0.136,2.117c0.284,0.25,0.638,0.373,0.989,0.373c0.417,0,0.831-0.172,1.127-0.509
	l30.665-35.751c0.432-0.49,7.645-8.78,10.386-12.548c0.576,1.158,2.442,4.946,3.62,7.726c0.975,2.3,0.801,3.185,0.484,4.79
	c-0.111,0.566-0.237,1.208-0.331,2.002c-0.137,1.167-0.647,2.26-1.188,3.417c-0.774,1.657-1.575,3.37-1.254,5.375
	c0.41,2.563,1.523,3.407,2.701,4.3c1.204,0.913,2.568,1.948,3.654,5.483c0.125,0.504,0.172,3.868,0.163,7.866l-2.07-2.795
	c0,0-0.54,2.967-0.96,5.746c-0.689,0.439-2.057,1.398-1.858,1.961c0.165,0.467,0.985,0.797,1.586,0.945
	c0.045,3.662,1.875,6.44,2.975,7.774c-0.583,0.929-1.253,2.1-1.339,2.702c-0.156,1.089,0,2.178,0,2.178l2.299-0.934l2.368,0.934
	c0,0,0.359-1.506-0.688-3.495c-0.367-0.697-0.688-1.233-0.957-1.646c0.824-1.127,2.02-2.93,2.688-4.693l-0.001,0.013l1.482,0.401
	l0.798-5.093l-1.919-1.021L55.93,45.783z M54.058,46.218c-0.363,0-0.658-0.295-0.658-0.658s0.295-0.658,0.658-0.658
	c0.364,0,0.658,0.295,0.658,0.658S54.422,46.218,54.058,46.218z"/>
<path d="M12.298,42.218c-2.103,0-3.807,1.703-3.807,3.807c0,2.102,1.704,3.807,3.807,3.807s3.807-1.705,3.807-3.807
	C16.104,43.921,14.4,42.218,12.298,42.218z M12.391,47.599c-0.869,0-1.574-0.705-1.574-1.574s0.705-1.574,1.574-1.574
	c0.87,0,1.575,0.705,1.575,1.574S13.261,47.599,12.391,47.599z"/>
</svg>
