<?xml version="1.0" encoding="utf-8"?>
<!-- Generator: Adobe Illustrator 14.0.0, SVG Export Plug-In . SVG Version: 6.00 Build 43363)  -->
<!DOCTYPE svg PUBLIC "-//W3C//DTD SVG 1.1//EN" "http://www.w3.org/Graphics/SVG/1.1/DTD/svg11.dtd">
<svg version="1.1" id="レイヤー_1" xmlns="http://www.w3.org/2000/svg" xmlns:xlink="http://www.w3.org/1999/xlink" x="0px"
	 y="0px" width="38.341px" height="64.512px" viewBox="0 0 38.341 64.512" enable-background="new 0 0 38.341 64.512"
	 xml:space="preserve">
<g>
	<path d="M15.511,39.022c0,0-9.743-0.039-11.79-8.317c-1.288-5.203,0.82-8.17,1.868-10.235c2.849-5.607-0.712-10.235-0.712-10.235
		s4.095,0,6.765,4.539c1.679,2.854,2.67,3.382,2.67,3.382s-1.068-4.272,1.245-6.942c2.169-2.503,2.67-2.491,3.382-4.985
		C19.474,4.361,17.427,0,17.427,0s3.859,1.704,6.173,5.975c2.314,4.272,2.41,5.539,2.803,7.614c0.271,1.434,1.076,6.818,0.008,9.043
		c-1.066,2.224,0.74-2.667,5.434-4.832c2.596-1.198,2.086-4.83,1.221-7.436c-0.109-0.329,5.074,3.069,4.387,7.72
		c-0.896,6.08-2.074,5.457-2.58,8.705c-0.279,1.794,1.553,8.028-2.389,10.434c-5.709,3.49-11.262,3.967-11.941,9.858
		c0,0-3.496-2.667-3.127-6.209c0.424-4.07,3.002-3.802,5.174-6.341c3.188-3.723,2.598-5.239,1.514-7.743
		c0,0-2.453,2.983-4.361,3.404c0,0,1.957-3.543,1.796-6.029c-0.217-3.386-2.788-4.019-2.788-4.019s0.5,2.041-0.927,3.086
		c-0.951,0.697-1.837,3.26-1.466,6.116c0.119,0.921-2.962-2.762-2.962-3.649c0-1.513-1.578,2.248-0.846,6.557
		C13.351,36.972,15.511,39.022,15.511,39.022z"/>
	<path d="M12.034,47.082C9.915,48.165-0.274,57.11,0.006,58.788c0.279,1.68,4.756,6.015,6.993,3.777
		c2.238-2.238,6.854-10.489,7.412-11.749C14.971,49.557,14.339,45.905,12.034,47.082z"/>
	<path d="M18.049,50.677c-1.678,0-2.798,5.736-2.658,9.932c0.141,4.194,1.099,4.335,5.025,3.495
		c3.926-0.839,4.627-1.118,4.067-3.636s-3.498-6.574-3.498-8.531C20.985,49.978,20.006,50.677,18.049,50.677z"/>
	<path d="M25.741,48.158c-1.105,0.664-2.238,2.658,0,4.616c2.238,1.959,5.656,6.153,7.271,7.134
		c1.137,0.688,5.035-2.379,5.316-4.056c0.279-1.68-4.168-4.398-6.014-5.297C30.35,49.599,29.237,46.062,25.741,48.158z"/>
</g>
</svg>
