<?xml version="1.0" encoding="utf-8"?>
<!-- Generator: Adobe Illustrator 14.0.0, SVG Export Plug-In . SVG Version: 6.00 Build 43363)  -->
<!DOCTYPE svg PUBLIC "-//W3C//DTD SVG 1.1//EN" "http://www.w3.org/Graphics/SVG/1.1/DTD/svg11.dtd">
<svg version="1.1" id="レイヤー_1" xmlns="http://www.w3.org/2000/svg" xmlns:xlink="http://www.w3.org/1999/xlink" x="0px"
	 y="0px" width="52.221px" height="52.221px" viewBox="0 0 52.221 52.221" enable-background="new 0 0 52.221 52.221"
	 xml:space="preserve">
<path d="M26.11,0C11.713,0,0,11.713,0,26.11s11.713,26.11,26.11,26.11s26.11-11.713,26.11-26.11S40.508,0,26.11,0z M26.11,46.221
	C15.021,46.221,6,37.199,6,26.11c0-4.276,1.353-8.237,3.637-11.501l8.837,9.161l-5.267,0.318l-5.021,6.073l5.143-2.449v5.633v6.734
	l2.79,0.021l2.354-7.734l9.075,0.811l5.248,5.44l0.615,2.198h1.505l2.095,2.171C33.866,45.023,30.128,46.221,26.11,46.221z
	 M41.516,39.014l-4.676-4.847v-4.372l-0.612-5.144l0.424-2.741l4.842-0.409V16.57l-6.368-1.321l-2.412-3.844l0.15,5.604
	l-2.636,6.051l-3.876,0.234L13.777,10.26C17.188,7.601,21.461,6,26.11,6c11.089,0,20.11,9.021,20.11,20.11
	C46.221,31.02,44.447,35.518,41.516,39.014z"/>
</svg>
