<?xml version="1.0" encoding="utf-8"?>
<!-- Generator: Adobe Illustrator 14.0.0, SVG Export Plug-In . SVG Version: 6.00 Build 43363)  -->
<!DOCTYPE svg PUBLIC "-//W3C//DTD SVG 1.1//EN" "http://www.w3.org/Graphics/SVG/1.1/DTD/svg11.dtd">
<svg version="1.1" id="レイヤー_1" xmlns="http://www.w3.org/2000/svg" xmlns:xlink="http://www.w3.org/1999/xlink" x="0px"
	 y="0px" width="83.396px" height="51.083px" viewBox="0 0 83.396 51.083" enable-background="new 0 0 83.396 51.083"
	 xml:space="preserve">
<g>
	<path d="M67.833,17.817c-2.657,0-5.163,0.719-7.353,1.98l-5.297-8.665l3.155-6.099c2.054,0.038,3.684-0.172,3.953-0.885
		c0.805-2.143-0.825-5.663-2.986-3.439c-2.417,2.487-11.92,0.65-10.912,3.186c0,0,3.486,0.638,6.975,0.961L52.865,9.69H25.57
		l2.105-6.082L16.717,3.61c-1.92-0.088-4.776,1.162-4.931,4.966c-0.079,1.944,0.667,2.995,1.31,3.534
		c1.67,1.402,4.163,0.689,4.441,0.602c0.709-0.219,1.116-1.008,0.915-1.767c-0.203-0.757-0.94-1.2-1.654-0.987
		c-0.573,0.174-1.62,0.26-2.047-0.104c-0.267-0.225-0.302-0.752-0.286-1.153c0.082-2.054,1.506-2.261,2.194-2.227h7.163
		l-2.231,6.446c0,0.002,0,0.002,0,0.002l-1.906,5.506c-1.313-0.387-2.691-0.611-4.118-0.611C6.982,17.817,0,25.28,0,34.45
		c0,9.172,6.982,16.633,15.566,16.633c8.582,0,15.563-7.461,15.563-16.633c0-6.634-3.661-12.355-8.931-15.025l1.211-3.496
		l18.988,18.906c0.16,0.602,0.654,1.049,1.268,1.049h8.67c0.683,8.5,7.366,15.199,15.497,15.199c8.582,0,15.563-7.461,15.563-16.633
		C83.396,25.28,76.415,17.817,67.833,17.817z M28.447,34.45c0,7.592-5.778,13.766-12.881,13.766
		c-7.104,0-12.884-6.174-12.884-13.766c0-7.591,5.779-13.766,12.884-13.766c1.099,0,2.163,0.163,3.184,0.441l-4.441,12.827
		c-0.257,0.742,0.096,1.566,0.794,1.841c0.152,0.061,0.309,0.09,0.464,0.09c0.545,0,1.057-0.357,1.256-0.936l4.443-12.826
		C25.515,24.375,28.447,29.048,28.447,34.45z M59.709,23.776l5.647,9.242H55.02C55.382,29.3,57.135,26.021,59.709,23.776z
		 M52.336,33.019H44.7l9.038-19.01l4.504,7.369C54.942,24.147,52.714,28.3,52.336,33.019z M24.577,12.556h26.845l-8.827,18.561
		l-18.177-18.1L24.577,12.556z M67.833,48.216c-6.651,0-12.14-5.412-12.813-12.332h15.291l-8.355-13.67
		c1.766-0.971,3.76-1.529,5.878-1.529c7.104,0,12.883,6.175,12.883,13.766C80.716,42.042,74.937,48.216,67.833,48.216z"/>
</g>
</svg>
