<?xml version="1.0" encoding="utf-8"?>
<!-- Generator: Adobe Illustrator 14.0.0, SVG Export Plug-In . SVG Version: 6.00 Build 43363)  -->
<!DOCTYPE svg PUBLIC "-//W3C//DTD SVG 1.1//EN" "http://www.w3.org/Graphics/SVG/1.1/DTD/svg11.dtd">
<svg version="1.1" id="レイヤー_1" xmlns="http://www.w3.org/2000/svg" xmlns:xlink="http://www.w3.org/1999/xlink" x="0px"
	 y="0px" width="52.938px" height="49.208px" viewBox="0 0 52.938 49.208" enable-background="new 0 0 52.938 49.208"
	 xml:space="preserve">
<g>
	<path d="M29.315,1.961c-1.381,0-2.5,1.119-2.5,2.5s1.119,2.5,2.5,2.5c10.269,0,18.623,8.354,18.623,18.623
		c0,10.271-8.354,18.624-18.623,18.624c-9.28,0-16.974-6.83-18.374-15.724l1.449,1.592c0.932,1.021,2.513,1.095,3.532,0.165
		c1.021-0.93,1.095-2.511,0.165-3.532l-8.066-8.857l-7.51,9.855c-0.837,1.099-0.625,2.667,0.473,3.504
		c0.453,0.345,0.985,0.512,1.514,0.512c0.754,0,1.498-0.339,1.99-0.984l1.436-1.884c1.598,11.484,11.476,20.354,23.392,20.354
		c13.026,0,23.623-10.598,23.623-23.624C52.938,12.559,42.342,1.961,29.315,1.961z"/>
	<g>
		<path d="M3.911,13.52h6.873v2.962H0v-1.221c0-0.829,0.139-1.573,0.417-2.232c0.279-0.659,0.631-1.251,1.053-1.776
			c0.422-0.521,0.883-0.985,1.384-1.389s0.978-0.768,1.43-1.092C4.758,8.433,5.175,8.109,5.533,7.8
			c0.357-0.31,0.659-0.616,0.904-0.921c0.244-0.307,0.428-0.614,0.549-0.927c0.12-0.313,0.181-0.647,0.181-1.001
			c0-0.693-0.196-1.217-0.588-1.571S5.587,2.849,4.78,2.849c-1.394,0-2.728,0.554-4.001,1.661V1.367C2.188,0.456,3.778,0,5.549,0
			C6.37,0,7.107,0.107,7.76,0.322c0.651,0.215,1.203,0.521,1.655,0.922c0.452,0.398,0.798,0.884,1.035,1.453
			c0.237,0.568,0.356,1.203,0.356,1.903c0,0.746-0.115,1.409-0.346,1.989c-0.229,0.58-0.535,1.107-0.915,1.583
			C9.165,8.647,8.727,9.082,8.229,9.479c-0.498,0.395-1.015,0.777-1.55,1.146c-0.362,0.257-0.71,0.512-1.045,0.764
			c-0.336,0.253-0.631,0.502-0.887,0.746c-0.257,0.246-0.46,0.484-0.61,0.718C3.986,13.086,3.911,13.309,3.911,13.52z"/>
		<path d="M23.138,0.271V10.49h1.944v2.668h-1.944v3.323h-3.256v-3.323h-7.063v-2.793c0.626-0.7,1.273-1.467,1.944-2.301
			c0.671-0.831,1.319-1.689,1.944-2.57c0.625-0.882,1.207-1.77,1.746-2.662c0.538-0.895,0.997-1.746,1.374-2.561H23.138z
			 M16.017,10.49h3.865V4.826c-0.264,0.49-0.55,0.986-0.858,1.488c-0.31,0.5-0.634,0.994-0.973,1.479
			c-0.339,0.488-0.681,0.959-1.027,1.414C16.677,9.664,16.34,10.091,16.017,10.49z"/>
	</g>
</g>
</svg>
