<?xml version="1.0" encoding="utf-8"?>
<!-- Generator: Adobe Illustrator 14.0.0, SVG Export Plug-In . SVG Version: 6.00 Build 43363)  -->
<!DOCTYPE svg PUBLIC "-//W3C//DTD SVG 1.1//EN" "http://www.w3.org/Graphics/SVG/1.1/DTD/svg11.dtd">
<svg version="1.1" id="レイヤー_1" xmlns="http://www.w3.org/2000/svg" xmlns:xlink="http://www.w3.org/1999/xlink" x="0px"
	 y="0px" width="40.322px" height="48.706px" viewBox="0 0 40.322 48.706" enable-background="new 0 0 40.322 48.706"
	 xml:space="preserve">
<g>
	<path d="M31.532,28.537c0.25-0.844,0.177-1.893-0.165-3.193l-3.048-11.614c-0.819-3.125-2.338-4.57-5.463-3.75
		c-2.857,0.75-4.869,2.682-4.566,5.396l-4.144,4.548l-9.083-5.501c-0.946-0.573-2.176-0.271-2.747,0.674
		c-0.572,0.945-0.27,2.174,0.675,2.747l1.353,0.819l-4.331,27.89c-0.085,0.545,0.289,1.057,0.835,1.141
		c0.052,0.008,0.104,0.012,0.154,0.012c0.484,0,0.91-0.353,0.987-0.846l4.205-27.076l8.692,5.266l4.563-5.007l2.028,7.728
		c0.202,0.771,0.536,1.403,0.967,1.911l-7.949,3.667L12.807,45.96c-0.146,1.095,0.622,2.102,1.717,2.248
		c0.091,0.012,0.18,0.018,0.269,0.018c0.986,0,1.845-0.73,1.979-1.735l1.396-10.433l10.037-4.629l4.59,15.832
		c0.254,0.875,1.053,1.444,1.92,1.444c0.185,0,0.372-0.026,0.558-0.079c1.062-0.309,1.672-1.418,1.364-2.479L31.532,28.537z"/>
	<path d="M40.204,18.124C38.59,9.753,29.11,9.753,29.11,9.753l4.332,14.276C33.442,24.029,41.374,24.195,40.204,18.124z"/>
	<path d="M12.777,3.589h3.041c-0.078,0.339-0.13,0.688-0.13,1.051c0,2.563,2.077,4.64,4.64,4.64s4.64-2.077,4.64-4.64
		S22.89,0,20.328,0c-1.389,0-2.62,0.622-3.471,1.589h-4.08c-0.553,0-1,0.448-1,1S12.224,3.589,12.777,3.589z"/>
</g>
</svg>
