<?xml version="1.0" encoding="utf-8"?>
<!-- Generator: Adobe Illustrator 14.0.0, SVG Export Plug-In . SVG Version: 6.00 Build 43363)  -->
<!DOCTYPE svg PUBLIC "-//W3C//DTD SVG 1.1//EN" "http://www.w3.org/Graphics/SVG/1.1/DTD/svg11.dtd">
<svg version="1.1" id="レイヤー_1" xmlns="http://www.w3.org/2000/svg" xmlns:xlink="http://www.w3.org/1999/xlink" x="0px"
	 y="0px" width="62.5px" height="56.319px" viewBox="0 0 62.5 56.319" enable-background="new 0 0 62.5 56.319"
	 xml:space="preserve">
<g>
	<path d="M60.537,39.354c-0.016-0.662-0.012-1.408-0.007-2.227c0.026-3.924,0.059-8.809-2.082-10.966
		c-0.726-0.729-1.641-1.099-2.719-1.099c-0.837,0-1.562,0.312-2.151,0.926c-2.241,2.337-1.978,8.717-1.768,13.848
		c0.086,2.07,0.182,4.418-0.041,4.904c-0.312,0.682-1.521,0.896-2.618,0.928V22.483c0-1.155-0.936-2.091-2.091-2.091H2.09
		c-1.154,0-2.09,0.936-2.09,2.091v27.599c0,1.154,0.936,2.092,2.09,2.092h3.258v2.053c0,1.154,0.938,2.092,2.092,2.092h0.98
		c1.154,0,2.091-0.938,2.091-2.092v-2.053h29.021v2.053c0,1.154,0.936,2.092,2.09,2.092h0.981c1.153,0,2.091-0.938,2.091-2.092
		v-2.053h2.366c1.155,0,2.091-0.938,2.091-2.092v-2.941c1.505-0.027,3.313-0.375,3.96-1.785c0.354-0.773,0.302-2.445,0.173-5.582
		c-0.18-4.334-0.447-10.882,1.359-12.763c0.31-0.324,0.654-0.474,1.086-0.474c0.682,0,1.227,0.218,1.672,0.665
		c1.708,1.719,1.678,6.457,1.654,9.916c-0.005,0.809-0.009,1.553,0.005,2.223h-0.079c-1.154,0-2.092,0.938-2.092,2.092v2.008
		c0,1.102,0.19,1.992,1.207,2.074v1.875c0,0.205,0.165,0.371,0.369,0.371s0.368-0.166,0.368-0.371v-1.857h1.58v1.891
		c0,0.203,0.166,0.369,0.37,0.369c0.203,0,0.368-0.166,0.368-0.369V45.53c1.148-0.004,1.348-0.938,1.348-2.09v-2.008
		C62.5,40.323,61.632,39.422,60.537,39.354z M7.896,33.401H3.784v-4.139h4.112V33.401z M7.896,27.788H3.784v-4.087h4.112V27.788z
		 M13.11,33.401H9.372v-4.139h3.738V33.401z M13.11,27.788H9.372v-4.087h3.738V27.788z M18.691,33.401h-4.106v-4.139h4.106V33.401z
		 M18.691,27.788h-4.106v-4.087h4.106V27.788z M24.226,33.401h-4.059v-4.139h4.059V33.401z M24.226,27.788h-4.059v-4.087h4.059
		V27.788z M29.747,33.401H25.7v-4.139h4.047V33.401z M29.747,27.788H25.7v-4.087h4.047V27.788z M34.919,33.401h-3.696v-4.139h3.696
		V33.401z M34.919,27.788h-3.696v-4.087h3.696V27.788z M40.082,33.401h-3.688v-4.139h3.688V33.401z M40.082,27.788h-3.688v-4.087
		h3.688V27.788z M45.71,33.401h-4.153v-4.139h4.153V33.401z M45.71,27.788h-4.153v-4.087h4.153V27.788z"/>
	<path d="M10.886,0c0,0,5.504,2.359,5.661,6.133s-2.358,5.818-2.358,7.862c0,2.046,0,3.702,0,3.702s-3.953-2.94-2.201-6.848
		C14.241,5.828,12.144,1.258,10.886,0z"/>
	<path d="M20.046,0c0,0,5.504,2.359,5.66,6.133c0.158,3.773-2.357,5.818-2.357,7.862c0,2.046,0,3.702,0,3.702
		s-3.953-2.94-2.201-6.848C23.399,5.828,21.304,1.258,20.046,0z"/>
	<path d="M29.206,0c0,0,5.503,2.359,5.661,6.133c0.155,3.773-2.358,5.818-2.358,7.862c0,2.046,0,3.702,0,3.702
		s-3.954-2.94-2.201-6.848C32.56,5.828,30.463,1.258,29.206,0z"/>
</g>
</svg>
