<?xml version="1.0" encoding="utf-8"?>
<!-- Generator: Adobe Illustrator 14.0.0, SVG Export Plug-In . SVG Version: 6.00 Build 43363)  -->
<!DOCTYPE svg PUBLIC "-//W3C//DTD SVG 1.1//EN" "http://www.w3.org/Graphics/SVG/1.1/DTD/svg11.dtd">
<svg version="1.1" id="レイヤー_1" xmlns="http://www.w3.org/2000/svg" xmlns:xlink="http://www.w3.org/1999/xlink" x="0px"
	 y="0px" width="69.376px" height="65.627px" viewBox="0 0 69.376 65.627" enable-background="new 0 0 69.376 65.627"
	 xml:space="preserve">
<g>
	<circle cx="31.45" cy="26.707" r="2.318"/>
	<circle cx="37.99" cy="24.388" r="2.318"/>
	<circle cx="36.917" cy="31.344" r="2.318"/>
	<circle cx="44.079" cy="29.025" r="2.319"/>
	<circle cx="43.199" cy="35.98" r="2.319"/>
	<circle cx="31.35" cy="34.568" r="2.319"/>
	<circle cx="36.917" cy="38.297" r="2.318"/>
	<path d="M53.468,0.951c-0.022,0.01-2.3,1.016-4.424,4.556c-2.141,3.567-2.568,2.533-5.514,5.261s-3.519,5.399-3.661,7.154
		c-0.202,2.494,2.995,3.634,2.995,3.634c2.875,2.242,6.465-1.208,7.321-2.934s2.221-5.445,1.793-7.854S53.468,0.951,53.468,0.951z
		 M46.022,20.94c-0.386,0.198-0.734,0.255-1.007,0.255c-0.328,0-0.547-0.083-0.588-0.099l0.189-0.463l0.178-0.467
		c0.014,0.005,0.344,0.118,0.806-0.134c0.604-0.331,1.46-1.29,2.101-3.981l0.973,0.231C48.081,18.774,47.188,20.341,46.022,20.94z
		 M46.997,14.299c-2.128,1.9-3.659,5.358-3.675,5.393l-0.916-0.401c0.065-0.149,1.633-3.69,3.925-5.738
		c2.11-1.885,2.688-2.998,2.694-3.009l0.896,0.444C49.896,11.04,49.28,12.26,46.997,14.299z M44.884,13.064
		c-2.488,1.57-3.27,6.454-3.277,6.503l-0.988-0.152c0.033-0.219,0.857-5.384,3.732-7.197c2.582-1.629,5.801-7.054,5.833-7.109
		l0.861,0.508C50.908,5.849,47.669,11.308,44.884,13.064z"/>
	<path d="M66.143,16.747c-0.024,0-2.514,0.032-5.856,2.454c-3.369,2.441-3.356,1.322-7.137,2.675
		c-3.779,1.353-5.355,3.585-6.176,5.143c-1.165,2.214,1.329,4.518,1.329,4.518c1.764,3.19,6.42,1.426,7.886,0.175
		c1.465-1.252,4.18-4.137,4.731-6.521C61.473,22.808,66.143,16.747,66.143,16.747z M51.449,32.21
		c-0.434,0.031-0.775-0.054-1.026-0.161c-0.302-0.128-0.47-0.29-0.502-0.322l0.355-0.352l0.348-0.36
		c0.011,0.01,0.27,0.244,0.793,0.193c0.687-0.067,1.85-0.613,3.494-2.837l0.805,0.595C54.192,31.025,52.757,32.116,51.449,32.21z
		 M54.952,26.485c-2.703,0.912-5.469,3.492-5.497,3.518l-0.686-0.729c0.119-0.112,2.951-2.753,5.862-3.737
		c2.681-0.905,3.65-1.702,3.66-1.71l0.648,0.76C58.898,24.625,57.853,25.505,54.952,26.485z M53.493,24.52
		c-2.905,0.467-5.54,4.653-5.566,4.695l-0.851-0.528c0.117-0.188,2.902-4.615,6.259-5.154c3.015-0.485,8.104-4.211,8.155-4.25
		l0.593,0.805C61.866,20.248,56.744,23.997,53.493,24.52z"/>
	<path d="M69.376,44.072c-0.015-0.02-1.469-2.04-5.37-3.389c-3.933-1.357-3.009-1.99-6.286-4.309s-6.01-2.328-7.757-2.106
		c-2.481,0.316-2.937,3.681-2.937,3.681c-1.601,3.275,2.516,6.076,4.382,6.559c1.865,0.481,5.786,1.049,8.055,0.133
		C61.732,43.726,69.376,44.072,69.376,44.072z M48.28,40.913c-0.274-0.337-0.401-0.666-0.457-0.933
		c-0.068-0.321-0.032-0.551-0.025-0.596l0.492,0.089l0.494,0.079c-0.002,0.014-0.045,0.359,0.297,0.76
		c0.449,0.523,1.563,1.163,4.329,1.232l-0.025,1.002C50.824,42.479,49.107,41.929,48.28,40.913z M54.979,40.496
		c-2.299-1.69-5.999-2.475-6.036-2.482l0.203-0.98c0.16,0.033,3.949,0.837,6.425,2.656c2.28,1.676,3.489,2.014,3.501,2.017
		l-0.25,0.968C58.768,42.66,57.446,42.308,54.979,40.496z M55.751,38.173c-2.05-2.111-6.989-1.867-7.039-1.864l-0.056-1
		c0.221-0.012,5.445-0.271,7.813,2.168c2.127,2.19,8.1,4.22,8.16,4.24l-0.319,0.947C64.055,42.579,58.045,40.535,55.751,38.173z"/>
	<path d="M34.373,57.146c2.254-0.971,4.487-4.297,5.387-6.041c0.9-1.746,1.541-6.93-2.08-8.263c0,0-2.909-2.246-4.845-0.658
		c-1.362,1.117-3.217,3.14-3.66,7.335c-0.441,4.195,0.676,4-0.955,7.941c-1.617,3.91-1.048,6.533-1.042,6.559
		C27.178,64.019,32.119,58.118,34.373,57.146z M36.897,51.057l-0.79-0.749c1.831-2.093,2.097-3.404,1.998-4.139
		c-0.076-0.559-0.373-0.791-0.386-0.801l0.276-0.426l0.267-0.432c0.039,0.03,0.241,0.18,0.442,0.477
		c0.17,0.246,0.336,0.592,0.41,1.053C39.337,47.43,38.591,49.118,36.897,51.057z M33.29,55.164l-0.917-0.557
		c0.004-0.012,0.567-1.162,0.828-4.129c0.28-3.221,2.242-6.631,2.325-6.775l0.896,0.603c-0.019,0.033-1.935,3.363-2.195,6.355
		C33.946,53.871,33.317,55.114,33.29,55.164z M29.543,59.205l-0.949-0.492c0.026-0.061,2.529-6.021,2.286-9.27
		c-0.271-3.617,3.49-7.271,3.649-7.424l0.734,0.808c-0.036,0.035-3.591,3.489-3.356,6.62C32.167,52.952,29.65,58.951,29.543,59.205z
		"/>
	<path d="M19.895,50.333c2.187,0.029,5.202-1.866,6.563-2.959c1.361-1.094,3.743-5.075,1.268-7.471c0,0-1.566-2.879-3.715-2.289
		c-1.513,0.416-3.752,1.387-5.619,4.638c-1.865,3.251-0.884,3.495-3.629,6.109c-2.724,2.593-3.2,4.931-3.204,4.954
		C11.558,53.316,17.706,50.308,19.895,50.333z M24.139,46.298l-0.376-0.895c2.245-1.037,2.933-2.008,3.115-2.641
		c0.139-0.481-0.02-0.777-0.026-0.791l0.378-0.246l0.372-0.254c0.021,0.039,0.133,0.233,0.19,0.548
		c0.05,0.261,0.062,0.603-0.043,1.005C27.431,44.234,26.216,45.335,24.139,46.298z M19.722,48.332l-0.548-0.785
		c0.007-0.009,0.88-0.738,2.157-3.057c1.385-2.517,4.209-4.578,4.328-4.665l0.515,0.813c-0.026,0.021-2.785,2.033-4.071,4.371
		C20.722,47.517,19.763,48.3,19.722,48.332z M15.215,50.259l-0.598-0.744c0.043-0.039,4.225-3.979,5.191-6.707
		c1.077-3.039,5.457-4.646,5.643-4.713l0.31,0.922c-0.043,0.016-4.183,1.536-5.115,4.166C19.6,46.126,15.395,50.091,15.215,50.259z"
		/>
	<path d="M14.527,30.78c1.179,1.841,4.421,3.316,6.081,3.85c1.664,0.535,6.298,0.332,6.936-3.053c0,0,1.542-2.892-0.133-4.361
		c-1.18-1.035-3.223-2.37-6.964-2.14c-3.741,0.231-3.406,1.186-7.099,0.332c-3.664-0.847-5.879,0.042-5.9,0.052
		C7.448,25.461,13.344,28.938,14.527,30.78z M20.231,32.103l0.54-0.806c2.103,1.303,3.291,1.343,3.919,1.147
		c0.479-0.149,0.639-0.444,0.646-0.457l0.414,0.18l0.417,0.171c-0.021,0.038-0.122,0.239-0.353,0.46
		c-0.19,0.186-0.469,0.383-0.862,0.517C23.767,33.715,22.18,33.307,20.231,32.103z M16.104,29.533l0.354-0.89
		c0.01,0.001,1.101,0.329,3.738,0.12c2.864-0.229,6.14,0.994,6.277,1.046l-0.396,0.877c-0.03-0.011-3.229-1.206-5.89-0.993
		C17.334,29.921,16.152,29.551,16.104,29.533z M12.014,26.832l0.292-0.908c0.057,0.014,5.647,1.337,8.458,0.643
		c3.129-0.773,6.883,2,7.04,2.117l-0.6,0.767c-0.036-0.028-3.585-2.647-6.293-1.979C17.878,28.218,12.253,26.889,12.014,26.832z"/>
	<path d="M32.574,0c-0.016,0.019-1.583,1.953-1.858,6.072c-0.277,4.151-1.13,3.426-2.507,7.197c-1.377,3.771-0.668,6.41,0.006,8.037
		c0.957,2.311,4.322,1.867,4.322,1.867c3.581,0.684,5.202-4.024,5.177-5.951c-0.024-1.927-0.507-5.858-1.986-7.807
		C34.247,7.466,32.574,0,32.574,0z M35.067,21.185c-0.253,0.352-0.537,0.562-0.779,0.686c-0.293,0.149-0.524,0.176-0.568,0.18
		l-0.043-0.498l-0.055-0.497c0.014-0.002,0.359-0.052,0.655-0.486c0.388-0.57,0.711-1.814,0.054-4.501l0.971-0.238
		C35.911,18.318,35.831,20.119,35.067,21.185z M32.905,14.831c-1.027,2.661-0.813,6.438-0.811,6.476l-0.998,0.061
		c-0.01-0.163-0.23-4.029,0.875-6.896c1.019-2.64,1.025-3.894,1.025-3.907l1-0.013C33.998,10.607,34.007,11.974,32.905,14.831z
		 M30.461,14.695c-1.498,2.532,0.035,7.235,0.051,7.283l-0.949,0.315c-0.07-0.209-1.693-5.182,0.038-8.107
		c1.555-2.627,1.944-8.923,1.948-8.987l0.998,0.059C32.531,5.526,32.139,11.861,30.461,14.695z"/>
	<path d="M6.646,3.052c0.001,0.026,0.21,2.665,3.031,6.059c2.844,3.421,1.646,3.479,3.356,7.404
		c1.709,3.925,4.205,5.457,5.928,6.228c2.446,1.097,4.733-1.693,4.733-1.693c3.286-2.072,1.076-6.901-0.364-8.377
		c-1.438-1.477-4.71-4.175-7.296-4.611C13.447,7.626,6.646,3.052,6.646,3.052z M24.194,17.669c0.063,0.457-0.002,0.826-0.099,1.098
		c-0.118,0.329-0.277,0.518-0.309,0.553l-0.401-0.355l-0.408-0.346c0.009-0.011,0.24-0.301,0.149-0.854
		c-0.118-0.724-0.783-1.923-3.274-3.53l0.579-0.89C22.737,14.833,24.003,16.288,24.194,17.669z M17.833,14.313
		c1.163,2.811,4.112,5.583,4.143,5.611l-0.731,0.772c-0.128-0.119-3.147-2.957-4.402-5.984c-1.155-2.788-2.073-3.765-2.082-3.775
		l0.766-0.737C15.568,10.243,16.583,11.296,17.833,14.313z M15.834,15.984c0.702,3.053,5.358,5.586,5.406,5.611l-0.506,0.934
		c-0.208-0.111-5.135-2.789-5.944-6.315c-0.729-3.167-5.065-8.333-5.109-8.385l0.818-0.68C10.685,7.369,15.049,12.567,15.834,15.984
		z"/>
	<path d="M59.933,65.627c-0.001-0.026-0.159-2.669-2.915-6.116c-2.777-3.475-1.579-3.51-3.215-7.467
		c-1.634-3.957-4.1-5.535-5.807-6.34c-2.426-1.144-4.766,1.603-4.766,1.603c-3.325,2.009-1.208,6.879,0.205,8.382
		c1.409,1.504,4.629,4.265,7.206,4.75C53.22,60.923,59.933,65.627,59.933,65.627z M42.666,50.677
		c-0.055-0.459,0.018-0.826,0.119-1.096c0.125-0.328,0.288-0.513,0.319-0.547l0.396,0.362l0.4,0.353
		c-0.008,0.012-0.245,0.297-0.165,0.852c0.104,0.727,0.746,1.938,3.207,3.592l-0.597,0.879
		C44.068,53.541,42.831,52.062,42.666,50.677z M48.963,54.155c-1.109-2.832-4.006-5.661-4.035-5.688l0.746-0.759
		c0.125,0.121,3.09,3.017,4.287,6.067c1.103,2.809,2.001,3.804,2.009,3.813l-0.778,0.723C51.149,58.267,50.154,57.195,48.963,54.155
		z M50.993,52.521c-0.645-3.064-5.251-5.687-5.299-5.713l0.523-0.924c0.206,0.115,5.081,2.886,5.823,6.428
		c0.668,3.18,4.906,8.428,4.948,8.48l-0.831,0.664C55.977,61.234,51.713,55.953,50.993,52.521z"/>
	<path d="M67.05,1.928c-0.021,0.003-2.007,0.413-4.393,2.975c-2.406,2.583-2.529,1.633-5.393,3.358
		c-2.862,1.724-3.857,3.855-4.327,5.3c-0.669,2.051,1.6,3.617,1.6,3.617c1.79,2.43,5.305,0.222,6.328-1.062
		c1.023-1.283,2.853-4.14,3.011-6.242C64.034,7.771,67.05,1.928,67.05,1.928z M57.134,17.265c-0.343,0.093-0.627,0.074-0.84,0.022
		c-0.257-0.064-0.41-0.173-0.439-0.195l0.242-0.353l0.235-0.358c0.009,0.006,0.244,0.164,0.657,0.041
		c0.541-0.161,1.406-0.801,2.459-2.936l0.713,0.379C59.188,15.842,58.168,16.985,57.134,17.265z M59.256,11.884
		c-2.055,1.186-3.961,3.793-3.979,3.82l-0.636-0.512c0.083-0.113,2.034-2.782,4.246-4.061c2.037-1.178,2.717-2,2.724-2.008
		l0.61,0.543C62.19,9.704,61.459,10.609,59.256,11.884z M57.854,10.445c-2.269,0.841-3.879,4.787-3.896,4.827l-0.742-0.317
		c0.071-0.176,1.773-4.351,4.394-5.321c2.354-0.873,5.982-4.807,6.019-4.846l0.569,0.59C64.045,5.545,60.394,9.504,57.854,10.445z"
		/>
	<path d="M0,42.687c0.019,0.009,1.895,0.78,5.305-0.008c3.438-0.795,3.01,0.061,6.349,0.232c3.337,0.172,5.354-1.037,6.551-1.972
		c1.703-1.325,0.698-3.894,0.698-3.894c-0.124-3.016-4.272-3.151-5.839-2.66c-1.565,0.491-4.68,1.836-5.987,3.49S0,42.687,0,42.687z
		 M16.8,35.522c0.336,0.114,0.561,0.289,0.709,0.451c0.177,0.196,0.243,0.373,0.255,0.407l-0.398,0.156l-0.396,0.166
		c-0.004-0.011-0.11-0.273-0.521-0.402c-0.538-0.169-1.614-0.122-3.681,1.059l-0.379-0.714C14.301,35.552,15.785,35.175,16.8,35.522
		z M12.03,38.794c2.367,0.166,5.404-0.928,5.436-0.939l0.24,0.78c-0.132,0.047-3.242,1.167-5.791,0.99
		c-2.349-0.163-3.371,0.138-3.382,0.141l-0.202-0.792C8.378,38.959,9.491,38.619,12.03,38.794z M12.387,40.771
		c2.351,0.572,5.893-1.797,5.929-1.82l0.438,0.678c-0.158,0.105-3.905,2.613-6.619,1.952c-2.438-0.593-7.647,0.637-7.699,0.649
		l-0.143-0.807C4.514,41.37,9.756,40.13,12.387,40.771z"/>
</g>
</svg>
