<?xml version="1.0" encoding="utf-8"?>
<!-- Generator: Adobe Illustrator 14.0.0, SVG Export Plug-In . SVG Version: 6.00 Build 43363)  -->
<!DOCTYPE svg PUBLIC "-//W3C//DTD SVG 1.1//EN" "http://www.w3.org/Graphics/SVG/1.1/DTD/svg11.dtd">
<svg version="1.1" id="レイヤー_1" xmlns="http://www.w3.org/2000/svg" xmlns:xlink="http://www.w3.org/1999/xlink" x="0px"
	 y="0px" width="76.696px" height="38.584px" viewBox="0 0 76.696 38.584" enable-background="new 0 0 76.696 38.584"
	 xml:space="preserve">
<g>
	<g>
		<path stroke="#E4007F" stroke-width="0.8105" d="M1.427,9.506"/>
		<g>
			<path d="M34.628,30.736c0,1.238-0.855,1.451-1.91,1.451H1.91c-1.055,0-1.91-0.213-1.91-1.451v-9.58
				c0-1.237,1.219-3.824,3.257-3.824H31.37c2.408,0,3.258,2.587,3.258,3.824V30.736z"/>
			<path d="M23.739,14.896v-4.06c0-1.458-0.896-2.641-1.999-2.641h-8.237c-1.103,0-1.999,1.183-1.999,2.641v4.06H3.479
				c0,0,0.13-8.507,0.325-11.869C3.999-0.334,7.252,0.01,7.252,0.01c33.907,0,19.688,0,21.211,0c3.481,0,3.091,3.63,3.091,3.63
				v11.257H23.739z"/>
			<path d="M11.059,36.342c0,1.238-0.855,2.242-1.91,2.242H6.107c-1.055,0-1.91-1.004-1.91-2.242v-0.349
				c0-1.238,0.855-2.242,1.91-2.242h3.041c1.055,0,1.91,1.004,1.91,2.242V36.342z"/>
			<path d="M31.271,36.342c0,1.238-0.855,2.242-1.91,2.242h-3.041c-1.055,0-1.91-1.004-1.91-2.242v-0.349
				c0-1.238,0.855-2.242,1.91-2.242h3.041c1.055,0,1.91,1.004,1.91,2.242V36.342z"/>
		</g>
	</g>
	<g>
		<path stroke="#E4007F" stroke-width="0.8105" d="M43.495,9.506"/>
		<g>
			<path d="M76.696,30.736c0,1.238-0.855,1.451-1.91,1.451H43.978c-1.055,0-1.91-0.213-1.91-1.451v-9.58
				c0-1.237,1.221-3.824,3.258-3.824h28.113c2.408,0,3.258,2.587,3.258,3.824V30.736z"/>
			<path d="M65.808,14.896v-4.06c0-1.458-0.896-2.641-2-2.641h-8.236c-1.104,0-2,1.183-2,2.641v4.06h-8.024
				c0,0,0.13-8.507,0.325-11.869c0.195-3.361,3.447-3.018,3.447-3.018c33.908,0,19.688,0,21.212,0c3.48,0,3.09,3.63,3.09,3.63
				v11.257H65.808z"/>
			<path d="M53.126,36.342c0,1.238-0.855,2.242-1.91,2.242h-3.04c-1.055,0-1.91-1.004-1.91-2.242v-0.349
				c0-1.238,0.855-2.242,1.91-2.242h3.04c1.055,0,1.91,1.004,1.91,2.242V36.342z"/>
			<path d="M73.338,36.342c0,1.238-0.855,2.242-1.91,2.242h-3.04c-1.055,0-1.91-1.004-1.91-2.242v-0.349
				c0-1.238,0.855-2.242,1.91-2.242h3.04c1.055,0,1.91,1.004,1.91,2.242V36.342z"/>
		</g>
	</g>
</g>
</svg>
