<?xml version="1.0" encoding="utf-8"?>
<!-- Generator: Adobe Illustrator 14.0.0, SVG Export Plug-In . SVG Version: 6.00 Build 43363)  -->
<!DOCTYPE svg PUBLIC "-//W3C//DTD SVG 1.1//EN" "http://www.w3.org/Graphics/SVG/1.1/DTD/svg11.dtd">
<svg version="1.1" id="レイヤー_1" xmlns="http://www.w3.org/2000/svg" xmlns:xlink="http://www.w3.org/1999/xlink" x="0px"
	 y="0px" width="54.228px" height="68.797px" viewBox="0 0 54.228 68.797" enable-background="new 0 0 54.228 68.797"
	 xml:space="preserve">
<path d="M54.086,67.284l-8.348-13.973V39.608h8.06l-8.06-14.895V0H8.677v24.707L0.36,39.608h5.224v16.896L0.107,67.346
	c-0.249,0.492-0.051,1.094,0.441,1.344c0.145,0.072,0.299,0.107,0.45,0.107c0.365,0,0.718-0.201,0.894-0.55l3.691-7.309v2.613h2
	V62.54h10.549v1.013h2v-8.966h24.038l8.198,13.723c0.188,0.314,0.519,0.488,0.859,0.488c0.175,0,0.352-0.046,0.512-0.143
	C54.215,68.372,54.369,67.758,54.086,67.284z M10.677,2h33.062v21.967H10.677V2z M10.264,25.967h33.878l6.301,11.641H3.767
	L10.264,25.967z M18.133,51.294H7.584v-2.798h10.549V51.294z M18.133,46.497H7.584v-2.799h10.549V46.497z M7.584,53.294h10.549
	v2.446H7.584V53.294z M18.133,39.608v2.09H7.584v-2.09H18.133z M7.584,60.54v-2.799h10.549v2.799H7.584z M20.133,52.586V39.608
	h23.605v12.979H20.133z"/>
</svg>
