<?xml version="1.0" encoding="utf-8"?>
<!-- Generator: Adobe Illustrator 14.0.0, SVG Export Plug-In . SVG Version: 6.00 Build 43363)  -->
<!DOCTYPE svg PUBLIC "-//W3C//DTD SVG 1.1//EN" "http://www.w3.org/Graphics/SVG/1.1/DTD/svg11.dtd">
<svg version="1.1" id="レイヤー_1" xmlns="http://www.w3.org/2000/svg" xmlns:xlink="http://www.w3.org/1999/xlink" x="0px"
	 y="0px" width="43.054px" height="54.573px" viewBox="0 0 43.054 54.573" enable-background="new 0 0 43.054 54.573"
	 xml:space="preserve">
<g>
	<path d="M43.054,15.798c0-2.042-1.552-3.698-3.467-3.698H28.53c0.951-2.692,1.931-6.167,2.555-7.151
		c2.067-0.273,6.083-0.692,6.129-0.696c1.374-0.144,3.379-0.381,3.245-1.846c-0.134-1.466-1.346-2.531-2.731-2.395
		c-0.212,0.022-5.224,0.544-7.015,0.817c-1.142,0.174-2.995,0.465-6.521,11.271H3.467C1.552,12.101,0,13.756,0,15.798
		c0,0.883,1.198,3.335,1.577,3.756l17.787,18.62v11.137h-6.501c-1.915,0-3.467,0.59-3.467,2.631c0,2.043,1.552,2.631,3.467,2.631
		h17.324c1.915,0,3.467-0.588,3.467-2.631c0-2.041-2.552-2.631-4.467-2.631h-4.89V38.168l17.795-18.732
		C42.861,18.579,43.054,15.985,43.054,15.798z M13.104,24.956l-6.962-7.593h31.304l-7.223,7.91L13.104,24.956z"/>
</g>
</svg>
