<?xml version="1.0" encoding="utf-8"?>
<!-- Generator: Adobe Illustrator 14.0.0, SVG Export Plug-In . SVG Version: 6.00 Build 43363)  -->
<!DOCTYPE svg PUBLIC "-//W3C//DTD SVG 1.1//EN" "http://www.w3.org/Graphics/SVG/1.1/DTD/svg11.dtd">
<svg version="1.1" id="レイヤー_1" xmlns="http://www.w3.org/2000/svg" xmlns:xlink="http://www.w3.org/1999/xlink" x="0px"
	 y="0px" width="52.221px" height="52.221px" viewBox="0 0 52.221 52.221" enable-background="new 0 0 52.221 52.221"
	 xml:space="preserve">
<g>
	<path d="M26.11,0C11.713,0,0,11.713,0,26.11s11.713,26.11,26.11,26.11c14.398,0,26.111-11.713,26.111-26.11S40.508,0,26.11,0z
		 M26.11,46.221C15.021,46.221,6,37.199,6,26.11c0-4.276,1.353-8.237,3.637-11.501l8.487,8.798H9.521v7.773h16.101L37.01,42.986
		C33.866,45.023,30.127,46.221,26.11,46.221z M23.994,29.492H11.21v-4.396h8.542L23.994,29.492z M28.089,25.096h8.397v4.396h-4.156
		L28.089,25.096z M41.516,39.014l-7.557-7.833h4.217v-7.773H26.46L13.777,10.26C17.188,7.601,21.461,6,26.11,6
		C37.2,6,46.221,15.021,46.221,26.11C46.221,31.02,44.448,35.518,41.516,39.014z"/>
	<rect x="38.872" y="23.522" width="2.574" height="7.576"/>
	<path d="M37.473,15.411c0.684,0.449,1.533,1.008,2.33,2.259c1.477,2.323-0.178,4.264-0.25,4.346
		c-0.152,0.174-0.135,0.441,0.039,0.595c0.08,0.071,0.18,0.105,0.279,0.105c0.115,0,0.23-0.049,0.314-0.143
		c0.021-0.023,2.152-2.489,0.33-5.356c-0.895-1.404-1.867-2.044-2.578-2.511c-0.729-0.478-1.082-0.735-1.186-1.35
		c-0.248-1.497,0.303-2.643,0.309-2.654c0.104-0.208,0.018-0.462-0.191-0.564c-0.205-0.102-0.459-0.02-0.564,0.188
		c-0.027,0.057-0.68,1.391-0.385,3.168C36.088,14.501,36.731,14.924,37.473,15.411z"/>
	<path d="M38.918,18.713c-0.369-0.728-1.043-1.223-2.002-1.471c-0.754-0.195-1.738-0.605-2.133-1.453
		c-0.313-0.67-0.213-1.544,0.291-2.597c0.1-0.211,0.012-0.463-0.199-0.563c-0.207-0.1-0.463-0.013-0.563,0.198
		c-0.619,1.292-0.719,2.408-0.295,3.318c0.533,1.146,1.756,1.674,2.688,1.915c0.713,0.184,1.201,0.53,1.457,1.031
		c0.5,0.979,0,2.272-0.004,2.284c-0.086,0.217,0.02,0.462,0.236,0.548c0.051,0.021,0.104,0.03,0.156,0.03
		c0.168,0,0.326-0.101,0.393-0.266C38.969,21.622,39.588,20.036,38.918,18.713z"/>
</g>
</svg>
