<?xml version="1.0" encoding="utf-8"?>
<!-- Generator: Adobe Illustrator 14.0.0, SVG Export Plug-In . SVG Version: 6.00 Build 43363)  -->
<!DOCTYPE svg PUBLIC "-//W3C//DTD SVG 1.1//EN" "http://www.w3.org/Graphics/SVG/1.1/DTD/svg11.dtd">
<svg version="1.1" id="レイヤー_1" xmlns="http://www.w3.org/2000/svg" xmlns:xlink="http://www.w3.org/1999/xlink" x="0px"
	 y="0px" width="55.077px" height="49.626px" viewBox="0 0 55.077 49.626" enable-background="new 0 0 55.077 49.626"
	 xml:space="preserve">
<g>
	<path d="M52.242,0H2.835C1.27,0,0,1.269,0,2.834v30.951c0,1.565,1.27,2.835,2.835,2.835H18.51l3.624,2.234l-9.25,10.771h28.293
		L30.6,38.939l3.01-2.318h18.633c1.565,0,2.835-1.27,2.835-2.835V2.834C55.077,1.269,53.808,0,52.242,0z M48.566,29.386
		c0,1.565-1.27,2.834-2.835,2.834H7.762c-1.565,0-2.835-1.269-2.835-2.834V6.817c0-1.565,1.27-2.834,2.835-2.834h37.97
		c1.565,0,2.835,1.269,2.835,2.834V29.386z M50.91,35.621c-1.166,0-2.111-0.945-2.111-2.112s0.945-2.112,2.111-2.112
		c1.167,0,2.112,0.945,2.112,2.112S52.077,35.621,50.91,35.621z"/>
	<path d="M23.433,10.807H11.587c-1.104,0-2,0.896-2,2s0.896,2,2,2h3.923v10.006c0,1.104,0.896,2,2,2s2-0.896,2-2V14.807h3.923
		c1.104,0,2-0.896,2-2S24.537,10.807,23.433,10.807z"/>
	<path d="M34.056,25.621c-1.272,0-2.753-0.224-6.629-12.33c-0.337-1.052,0.242-2.178,1.294-2.515
		c1.057-0.339,2.179,0.244,2.515,1.295c0.875,2.73,2.003,5.827,2.878,7.856c0.889-2.014,2.045-5.066,2.956-7.761
		c0.353-1.047,1.485-1.61,2.535-1.254c1.046,0.354,1.607,1.488,1.254,2.535c-4.111,12.166-5.441,12.17-6.729,12.174
		C34.105,25.621,34.081,25.621,34.056,25.621L34.056,25.621z"/>
</g>
</svg>
