<?xml version="1.0" encoding="utf-8"?>
<!-- Generator: Adobe Illustrator 14.0.0, SVG Export Plug-In . SVG Version: 6.00 Build 43363)  -->
<!DOCTYPE svg PUBLIC "-//W3C//DTD SVG 1.1//EN" "http://www.w3.org/Graphics/SVG/1.1/DTD/svg11.dtd">
<svg version="1.1" id="レイヤー_1" xmlns="http://www.w3.org/2000/svg" xmlns:xlink="http://www.w3.org/1999/xlink" x="0px"
	 y="0px" width="104.617px" height="63.822px" viewBox="0 0 104.617 63.822" enable-background="new 0 0 104.617 63.822"
	 xml:space="preserve">
<g>
	<g>
		<path d="M80.299,45.446l-2.477,3.633l2.461,3.867h-2.666l-1.084-2.021c-0.088-0.161-0.193-0.388-0.314-0.681h-0.029
			c-0.074,0.205-0.174,0.424-0.301,0.658l-1.092,2.044h-2.658l2.535-3.735l-2.381-3.765h2.68l1.07,2.103
			c0.141,0.277,0.242,0.512,0.301,0.703h0.029c0.078-0.23,0.182-0.469,0.314-0.719l1.092-2.087H80.299z"/>
		<path d="M89.688,40.015v15.032h-3.23V43.665c-0.178,0.157-0.387,0.306-0.629,0.446c-0.244,0.141-0.502,0.267-0.775,0.379
			c-0.273,0.113-0.557,0.209-0.852,0.287c-0.293,0.079-0.584,0.135-0.871,0.17v-2.729c0.842-0.246,1.635-0.561,2.379-0.943
			c0.746-0.383,1.418-0.803,2.02-1.261H89.688z"/>
		<path d="M99.203,55.303c-3.5,0-5.25-2.457-5.25-7.372c0-2.55,0.475-4.493,1.42-5.829c0.947-1.336,2.32-2.005,4.117-2.005
			c3.418,0,5.127,2.499,5.127,7.495c0,2.488-0.467,4.396-1.398,5.723C102.285,54.641,100.947,55.303,99.203,55.303z M99.348,42.568
			c-1.402,0-2.104,1.76-2.104,5.28c0,3.315,0.688,4.974,2.063,4.974c1.34,0,2.01-1.709,2.01-5.127S100.66,42.568,99.348,42.568z"/>
	</g>
	<g>
		<path d="M60.193,32.449h-2.729c0,0-2.779-17.516-5.455-18.264c-2.855-0.795-14.76-1.219-25.969,0
			c-4.906,0.533-6.07,15.291-6.256,18.264h-0.963c-5.08,0-9.197,4.061-9.197,9.07v4.627c0,4.99,4.084,9.035,9.137,9.068
			c0,0.02-0.006,0.039-0.006,0.059v5.715c0,1.564,1.369,2.834,3.061,2.834h2.713c1.689,0,3.061-1.27,3.061-2.834v-5.715
			c0-0.02-0.006-0.037-0.006-0.057h24.232c0,0.02-0.006,0.037-0.006,0.057v5.715c0,1.564,1.371,2.834,3.061,2.834h2.713
			c1.691,0,3.061-1.27,3.061-2.834v-5.715c0-0.027-0.008-0.051-0.008-0.078c4.873-0.229,8.754-4.188,8.754-9.049V41.52
			C69.391,36.51,65.273,32.449,60.193,32.449z M16.213,44.791c0-3.047,2.469-5.516,5.516-5.516c3.045,0,5.514,2.469,5.514,5.516
			c0,3.045-2.469,5.514-5.514,5.514C18.682,50.305,16.213,47.836,16.213,44.791z M45.912,51.695H32.748v-6.76h13.164V51.695z
			 M25.938,31.736l1-7.178c0-3.305,2.82-5.984,6.299-5.984h11.119c3.479,0,5.127,2.512,6.299,5.984l1,6.676
			C51.654,33.713,25.938,33.916,25.938,31.736z M57.178,50.465c-3.047,0-5.516-2.469-5.516-5.514s2.469-5.514,5.516-5.514
			c3.045,0,5.514,2.469,5.514,5.514S60.223,50.465,57.178,50.465z"/>
		<g>
			<path d="M4.889,14.229v7.479H0V0h7.66c5.469,0,8.205,2.305,8.205,6.918c0,2.18-0.785,3.943-2.354,5.291
				c-1.57,1.346-3.666,2.02-6.291,2.02H4.889z M4.889,3.754v6.766h1.924c2.604,0,3.906-1.139,3.906-3.42
				c0-2.23-1.303-3.346-3.906-3.346H4.889z"/>
		</g>
	</g>
</g>
</svg>
