<?xml version="1.0" encoding="utf-8"?>
<!-- Generator: Adobe Illustrator 14.0.0, SVG Export Plug-In . SVG Version: 6.00 Build 43363)  -->
<!DOCTYPE svg PUBLIC "-//W3C//DTD SVG 1.1//EN" "http://www.w3.org/Graphics/SVG/1.1/DTD/svg11.dtd">
<svg version="1.1" id="レイヤー_1" xmlns="http://www.w3.org/2000/svg" xmlns:xlink="http://www.w3.org/1999/xlink" x="0px"
	 y="0px" width="60.35px" height="62.528px" viewBox="0 0 60.35 62.528" enable-background="new 0 0 60.35 62.528"
	 xml:space="preserve">
<g>
	<path d="M58.068,45.25c2.483-4.561,3.862-9.697-0.817-9.697c-0.334,0-2.613,0-6.063,0V13.481c0-8.376-2.845-11.568-5.232-12.771
		c-2.668-1.345-5.319-0.557-6.781,0.525c-2.494,1.846-3.286,4.021-3.522,5.47l-8.601,6.78c0,0,2.042,1.653,8.319,2.996
		c6.871,1.47,8.451,0.433,8.451,0.433l-5.165-9.986c0.194-0.861,0.749-2.132,2.303-3.281c0.837-0.621,2.29-0.941,3.646-0.257
		c1.338,0.674,3.583,2.882,3.583,10.092v22.072c-15.718,0-46.279,0-46.279,0S0.007,35.563,0,37.197
		c-0.009,2.182,2.227,1.909,2.227,1.909s1.421,0.093,2.638,0.138c1.179,0.044,0.039,8.883,0.951,13.593
		c0.313,1.618,1.776,2.739,4.236,3.493l-2.004,2.828c-0.682,0.963-0.455,2.295,0.508,2.977s2.295,0.455,2.977-0.508l2.812-3.967
		c0.1-0.141,0.175-0.29,0.235-0.443c5.301,0.633,12.803,0.55,21.998,0.21c3.99-0.147,7-0.38,9.353-0.793
		c0.034,0.358,0.151,0.712,0.374,1.026l2.811,3.967c0.682,0.963,2.015,1.189,2.977,0.508c0.963-0.682,1.189-2.014,0.508-2.977
		l-2.612-3.688C53.675,53.815,55.036,50.818,58.068,45.25z"/>
	<circle cx="30.873" cy="18.719" r="1.562"/>
	<circle cx="28.435" cy="23.157" r="1.562"/>
	<circle cx="25.962" cy="27.843" r="1.562"/>
	<circle cx="35.335" cy="20.281" r="1.562"/>
	<circle cx="33.773" cy="24.719" r="1.562"/>
	<circle cx="30.873" cy="30.213" r="1.562"/>
	<circle cx="39.465" cy="23.156" r="1.562"/>
	<circle cx="37.903" cy="27.844" r="1.563"/>
</g>
</svg>
