<?xml version="1.0" encoding="utf-8"?>
<!-- Generator: Adobe Illustrator 14.0.0, SVG Export Plug-In . SVG Version: 6.00 Build 43363)  -->
<!DOCTYPE svg PUBLIC "-//W3C//DTD SVG 1.1//EN" "http://www.w3.org/Graphics/SVG/1.1/DTD/svg11.dtd">
<svg version="1.1" id="レイヤー_1" xmlns="http://www.w3.org/2000/svg" xmlns:xlink="http://www.w3.org/1999/xlink" x="0px"
	 y="0px" width="51.669px" height="52.062px" viewBox="0 0 51.669 52.062" enable-background="new 0 0 51.669 52.062"
	 xml:space="preserve">
<g>
	<path d="M33.902,26.682c1.747,0.06,2.868,1.567,2.909,2.984c0.036,1.187,0.466,15.951,0.604,20.706
		c0.026,0.92-1.227,1.479-1.227,1.479s-15.712,0.21-18.663,0.21c-3.909,0-3.188-1.104-3.098-1.542
		c0.796-3.848,4.594-7.303,0.727-7.094C-3.726,44.447-0.917,26.694,2.402,26.694C6.345,26.694,32.154,26.623,33.902,26.682z"/>
	<path d="M38.736,25.323c-0.394,0-0.795-0.091-1.172-0.284c-1.262-0.648-1.76-2.197-1.112-3.46l10.36-20.183
		c0.647-1.263,2.198-1.759,3.459-1.113c1.263,0.648,1.762,2.197,1.112,3.46L41.025,23.926C40.569,24.813,39.67,25.323,38.736,25.323
		L38.736,25.323z"/>
	<path d="M33.61,25.438H2.184c-0.569,0-1.032-0.462-1.032-1.032c0-0.57,0.463-1.032,1.032-1.032H33.61
		c0.569,0,1.032,0.462,1.032,1.032C34.643,24.975,34.18,25.438,33.61,25.438L33.61,25.438z"/>
	<circle cx="18.708" cy="18.503" r="1.107"/>
	<circle cx="18.708" cy="13.768" r="1.107"/>
	<circle cx="18.708" cy="9.504" r="1.107"/>
	<circle cx="15.534" cy="5.594" r="1.106"/>
	<circle cx="11.652" cy="3.025" r="1.106"/>
	<circle cx="6.46" cy="5.238" r="1.107"/>
	<circle cx="22.1" cy="5.889" r="1.106"/>
	<circle cx="26.259" cy="3.676" r="1.106"/>
	<circle cx="30.288" cy="6.345" r="1.107"/>
</g>
</svg>
