<svg xmlns="http://www.w3.org/2000/svg" width="145" height="50" viewBox="0 0 433.838 257.22">
  <path d="M287.337 112.022c-2.48-1.432-5.574-.818-7.347 1.31l-2.63-11.85-2.07 3.585-8.464-4.887 17.158-7.132c2.04-.85 3.006-3.19 2.16-5.23-.85-2.04-3.19-3.006-5.23-2.158L258.1 95.143l-3.562-2.057 13.85-5.578c2.04-.848 3.007-3.19 2.16-5.23-.334-.8-.902-1.43-1.588-1.854 1.034-.355 1.924-1.118 2.386-2.204.864-2.033-.083-4.38-2.115-5.246L254.99 67.1l3.227-1.827 22.61 9.62c2.033.864 4.382-.084 5.247-2.116.864-2.032-.083-4.382-2.116-5.247l-16.976-7.222 9.112-5.162 2.073 3.66 2.908-11.496c1.75 2.164 4.855 2.814 7.356 1.397 2.79-1.58 3.77-5.116 2.19-7.903-1.58-2.786-5.11-3.766-7.9-2.188-2.49 1.412-3.53 4.39-2.59 6.996l-11.55-3.742 2.04 3.602-8.5 4.816 2.56-18.405c.31-2.188-1.22-4.208-3.41-4.513-2.19-.302-4.21 1.225-4.51 3.414l-3.39 24.47-3.58 2.027L252 42.52c.303-2.19-1.226-4.21-3.413-4.51-2.19-.3-4.21 1.23-4.513 3.42l-2.96 19.686-13.16-7.95 15.76-12.34c1.756-1.343 2.09-3.854.747-5.61-1.34-1.752-3.85-2.086-5.61-.744l-12.13 9.5v-3.71l19.51-14.937c1.76-1.342 2.09-3.853.75-5.61-1.34-1.75-3.85-2.085-5.6-.743l-14.66 11.21V19.71h4.21l-8.57-8.197c2.75-.45 4.84-2.83 4.84-5.71 0-3.2-2.6-5.8-5.8-5.8s-5.8 2.6-5.8 5.8c0 2.867 2.07 5.24 4.8 5.71l-8.95 8.2h4.14v9.776l-14.75-11.3c-1.75-1.34-4.27-1.01-5.61.74-1.34 1.75-1.01 4.26.75 5.61l19.62 15.01v4.11l-11.75-9.2c-1.75-1.34-4.26-1.01-5.61.74-1.34 1.75-1.01 4.26.75 5.61l14.95 11.7-14.5 7.99c0-.09 0-.17-.01-.26L196.6 40.4c-.286-2.19-2.294-3.74-4.484-3.45-2.19.28-3.734 2.29-3.45 4.48l2.163 15.25-3.22-1.85-3.17-24.37c-.29-2.19-2.29-3.735-4.48-3.45-2.19.29-3.74 2.293-3.45 4.484l2.38 18.29-9.07-5.24 2.1-3.645-11.38 3.32c.98-2.61-.04-5.61-2.53-7.05-2.77-1.6-6.32-.65-7.92 2.12-1.6 2.77-.65 6.32 2.12 7.92 2.48 1.43 5.572.82 7.35-1.31l2.63 11.85 2.07-3.59 8.462 4.89-17.16 7.13c-2.04.84-3.01 3.19-2.16 5.23.85 2.04 3.19 3 5.23 2.15l22.81-9.48 3.56 2.05-13.85 5.58c-2.04.84-3.005 3.19-2.16 5.23.346.82.94 1.46 1.65 1.88-.55.41-1.02.95-1.31 1.63-.864 2.03.08 4.38 2.114 5.24l14.243 5.87-3.23 1.83-22.61-9.62c-2.04-.87-4.38.08-5.25 2.11-.868 2.03.08 4.38 2.112 5.243l16.98 7.22-9.11 5.16-2.073-3.66-2.91 11.496c-1.75-2.17-4.854-2.82-7.36-1.4-2.78 1.58-3.76 5.117-2.184 7.9 1.58 2.79 5.12 3.77 7.9 2.19 2.49-1.41 3.536-4.39 2.6-6.994l11.55 3.745-2.04-3.6 8.5-4.814-2.56 18.406c-.303 2.19 1.225 4.21 3.41 4.518 2.19.308 4.21-1.22 4.516-3.41l3.397-24.47 3.58-2.03-2.21 14.77c-.306 2.19 1.223 4.21 3.41 4.51 2.184.304 4.21-1.223 4.51-3.41l2.98-19.82c.002-.03 0-.06.003-.085l14.71 8.89c-.362.13-.72.32-1.04.56l-15.79 12.36c-1.754 1.34-2.09 3.857-.745 5.61 1.34 1.76 3.85 2.09 5.604.75l12.13-9.5v3.71l-19.51 14.93c-1.75 1.345-2.087 3.856-.745 5.61 1.342 1.754 3.853 2.09 5.61.746l14.65-11.21v10.47h-4.21l8.57 8.2c-2.747.46-4.84 2.84-4.84 5.716 0 3.203 2.592 5.8 5.8 5.8s5.8-2.597 5.8-5.8c0-2.86-2.08-5.236-4.81-5.707l8.943-8.2h-4.14v-9.77l14.75 11.3c1.76 1.34 4.27 1.003 5.61-.75 1.35-1.75 1.01-4.26-.74-5.61l-19.61-15v-4.12l11.76 9.21c1.757 1.344 4.27 1.01 5.61-.744 1.34-1.754 1.01-4.265-.745-5.61l-15.78-12.36c-.36-.28-.756-.49-1.166-.62l14.88-8.2c-.03.31-.04.63 0 .96l2.81 19.846c.29 2.19 2.3 3.735 4.49 3.45 2.19-.287 3.73-2.29 3.45-4.48l-2.166-15.26 3.21 1.85 3.173 24.36c.29 2.19 2.29 3.74 4.48 3.45 2.19-.283 3.73-2.29 3.45-4.48l-2.39-18.29 9.07 5.23-2.11 3.647 11.39-3.32c-.98 2.602.04 5.61 2.53 7.05 2.77 1.6 6.32.65 7.92-2.127 1.61-2.774.66-6.32-2.12-7.922zm-93.653-25.678c-.18-.114-.372-.217-.575-.303l-17.79-7.33 17.49-7.04c.44-.18.83-.44 1.17-.75l-.31 15.44zm23.866 21.974c-.002-.023 0-.044 0-.066l.36.22-.36-.154zm2.255.95h-.006v-.005.006zm22.624-16.186l-23.47 12.426-22.5-14.11.97-26.536 23.47-12.426 22.49 14.11-.98 26.536zm4.3-5.473c-.19.07-.37.17-.54.27l.31-15.86c.31.27.66.5 1.06.67l17.89 7.38c-.05.02-.1.02-.15.04l-18.59 7.49z"/>
  <path d="M198.806 68.534l-.764 20.856 17.35-10.05M200.86 92.38l16.208 10.17.732-19.98m1.002-27.322l-18.333 9.707 17.56 11.31m21.56-10.34l-16.79-10.53-.74 20.083m-1 27.22l17.43-9.233-16.72-10.224m19.25 7.09l.77-21.04-18.58 10.16"/>
  <circle cx="219.615" cy="79.799" r="2.949"/>
  <path d="M52.52 204.472s2.428-.192 6.88-3.784c8.225-6.634 3.504-12.95-2.133-10.97s-13.408 10.97-16.15 13.393-5.79 3.37-7.466 2.3.31-2.43 0-3.35-1.67-1.85-2.89-1.22c-7.62 3.96-12.64 10.82-8.68 13.87s10.52-1.37 11.58-.15-3.81 9.14-5.03 10.97-8.29 10.72-10.53 12.34c-3.37 2.43-11.71 3.82-14.3 6.71-6.25 6.99-4.11 12.19 1.68 10.91s11.89-5.42 11.89-5.42 10.82 7.47 21.33 4.88 13.26-12.8 13.26-12.8-8.23 2.29-14.32 2.59-10.97-2.13-10.97-3.35 5.64-9.44 11.28-16 14.61-20.9 14.61-20.9zm4.137-10.03c3.742 2.015-2.59 3.657-2.59 3.657s.61-4.73 2.59-3.66zM5.007 249.14c-1.22-2.286 2.743-1.067 2.743-1.067s-1.524 3.35-2.743 1.066zm115.64-26.63c-1.98.337-3.81-.187-4.417-.644s11.95-21.79 10.666-25.675c-3.352-10.13-13.408-6.16-21.178 1s-15.542 23.62-16.456 24.38-6.704 1.52-7.466.95.457 5.61.457 6.22 2.59 1.22 2.59 1.22-12.646 16.46-15.846 17.81-3.2-.74-2.742-2.27-.298-5.69-1.676-5.63c-3.51.15-6.25 1.98-8.63 9s6.34 10.66 14.57 6.83 16.15-14.91 19.2-14.91.76 2.9-.31 8.08 2.44 7.46 7.62 7.46 13.41-22.55 13.86-24.53 1.83-3.5 4.72-3.96 7.01-5.64 5.02-5.3zm-23.462 13.984c-1.37-.458-2.218-7.08-1.456-7.537s6.17-.538 6.17-.538c-.31 1.67-3.35 8.53-4.73 8.07zm11.884-23.16s-4.12 7.99-6.25 9.175-4.12-.31-1.53-4.59 9.75-15.41 11.58-15.71-3.81 11.12-3.81 11.12zm136.81-10.054c6.52-1.896 4.72-11.58 1.67-11.64s-5.94 1.278-9.45 6.154-17.37 26.358-18.25 25.853-.04-4.98 2.1-9.855 4.11-14.17 3.65-16.912-2.59-4.723-4.57-5.18-5.86 1.563-7.01 1.98c-2.11.763 0 6.247-.61 8.837s-8.23 15.084-10.52 18.13-16.61 23.62-17.68 22.703c-3.35-2.896-5.18-1.22-7.92 2.742s-3.81 11.58 2.74 10.225 11.73-7.482 16.3-14.948 12.15-22.72 14.44-23.48c1.1-.37-2.71 12.96-5.15 21.5s-2.59 17.36 1.67 16.91 12.95-21.48 14.78-26.06 17.37-24.68 18.59-26.97.46 1.37 5.18 0zm46.46-6.858c-2.9-5.333-12.5-5.79-14.63-5.485 0 0-7.62-.863-16.46 9.142-7.56 8.56-3.05 17.52-3.05 17.52s-5.64 1.67-12.65 14.01.45 22.7 9.64 24.86 21.43-2.46 24.94-12.22-2.59-12.65-3.66-12.65-6.71 3.5-6.71 3.5 1.21 12.95-5.95 13.25-9.15-7.92-8.54-13.71 6.85-11.02 6.85-11.02 8.84 3.7 13.41 2.03c7.31-2.68 5.03-8.23-.15-10.21s-9.14.45-9.91-1.37 6.17-11.75 10.51-14.33c3.19-1.9 6.29-1.78 7.92-.15 1.83 1.83-5.33 5.18-6.25 6.25s4.264 2.89 8.073 2.43 9.446-6.55 6.55-11.89zm-19.8 24.378c0 1.676-4.57-.73-4.57-.73s4.55-2.168 4.56.73zm76.78-26.053c-.31-2.895-7.32-1.42-8.69-1.22-.98.145-4.12-1.827-8.23-1.894s-12.34 2.2-19.05 13.78-3.05 22.7-2.9 23.005-13.87 19.35-16.3 18.74 3.5-6.4 3.81-8.837-6.71-2.13-9.76 0-9.14 15.39-1.68 18.16 16.15-5.35 22.39-11.45 19.65-24.68 21.33-28.79 19.35-18.58 19.05-21.48zm-24.55 12.834c-1.37 1.38-2.42 4.08-3.64 6.22s-2.46-5.75 1.45-10.07c3.42-3.79 5.72-4.21 6.78-2.84s-1.74 3.81-4.6 6.71zm65.99-8.87c2.44-3.2 3.65-8.38 1.83-7.07s-7.16.38-8.84.01c0 0-.61-2.37-11.13-.76s-17.68 10.74-21.94 17.9-2.9 20.72 1.83 18.29 10.97-2.71 10.97-2.71-14.02 8.66-18.44 17.5-2.59 16.61 5.63 13.71 19.35-24.98 20.88-27.73 8.83-5.79 10.51-7.46 1.52-5.78 1.06-5.02-4.88 1.52-3.96.91 9.14-14.32 11.57-17.52zm-41.44 49.37c-2.45-1.67 6.24-12.03 10.2-13.56 0 0-7.76 15.24-10.21 13.56zm19.34-33.92c-3.34 1.96-11.71 5.63-11.74 3-.03-2.44 3.72-12.18 11.15-16.98s10.32-3.58 10.32-3.58-4.97 14.78-9.75 17.58zm54.08-23.28c-9.75-.23-15.8 3.8-20.11 9.3-5.49 7-3.51 10.54-4.12 13.99s.15 5.25-2.9 7.25-11.58 11.6-11.88 19.06 1.67 18.07 19.35 16.58 19.04-14.75 20.11-17.64-4.73-9.45-9.91-5.94-.46 6.07-.61 7.91-3.2 8.8-10.66 6.85-7.01-11.4-3.2-17.65 5.64-5.48 5.64-5.48 3.48 1.89 10.36 1.22c6.25-.61 8.35-7.56 5.03-9.29-7.62-3.96-12.8-1.83-12.8-1.83s1.26-7.89 7.05-13.15 12.72-4.33 10.16-.26c-1.59 2.53-3.96 5.5 1.22 6.86 1.91.5 7.61-3.05 8.22-6.4s-1.22-11.12-10.97-11.35zm-8.23 30.53c.01 2.54-4.88-1.05-4.88-1.05s4.86-2.33 4.87 1.05z"/>
</svg>
