<svg xmlns="http://www.w3.org/2000/svg" width="311.811" height="311.811" viewBox="0 0 311.811 311.811">
  <g fill="#47372C">
    <path d="M108.446 187.528c-.353-.797-1.768-1.68-1.768-1.68l-.838 2.606s1.192.223 1.547.356c.353.132 1.9.486 1.9.486s-.487-.974-.84-1.768zm69.052-31.454c-3.517-2.345-4.688-8.793-4.688-8.793l-13.215 14.25c-.298.57-.607 1.13-.928 1.7 4.04-.9 21.957-5.06 18.83-7.15zm-66.888 40.47c-.485.31-1.9.795-1.944 1.414-.043.62.927-.043.885.75-.04.798-.48 1.326-.66 1.68-.17.357-3.05 1.02-3.97.708-.92-.307-.57-1.855-.57-1.855s-1.32.53-2.21.71c-.64.14-1.67.09-1.67.09s.3.93.08 1.02c-.22.09.05.84.39.97.35.14.76.18 1.21 1.37.44 1.19 0 1.46.22 1.64.22.18 1.55.53 1.5 1.02-.04.49 0 1.6-.09 2.08-.08.49 2.39-.18 2.88-.44.49-.26 3.1-.48 5.26-1.5 2.17-1.01 2.57-2.29 2.39-5-.17-2.7-1.63-4.01-2.07-4.63-.44-.62-1.1-.31-1.59 0zm-.263 8.003c-.442.305-2.167.924-2.476.836-.3-.09-1.28-.486-1.1-.797.18-.307.27-1.368.44-1.543.18-.18 1.24-.358 1.24-.358.98-.172 1.81-.66 2.34.313.53.97 0 1.235-.44 1.55zm-2.254-20.995c2.253.707 3.89 2.518 4.154 2.738.265.22 2.74-.663 2.74-.663s2.52-.307 6.37-3.39c3.85-3.078 4.06-7.967 4.06-7.967s-4.95 2.737-6.717 3.113c-.9.19-5.065 1.51-6.054 1.747-1.982.48-9.326 1.9-9.547 1.9-.23 0 0 1.207 0 1.207s2.74.607 4.99 1.315zm-5.613 3.758s1.77-2.302 1.37-2.433c-.905-.3-2.635.144-3.137.264-1.04.26-2.564 2.17-2.564 2.17h4.33zM262.778 86.545c.033-.092.043-.172.023-.238-.11-.41-.12-.25-.02.238zm-143.105 130.55c-.044-.222.662-2.43.662-2.43s-.785-.327-1.767-.22c-.4.04-1.99.706-2.12.84-.135.134.617.705 1.324.886.707.18 1.946 1.15 1.9.93z"/>
    <path d="M125.905 217.405c-.133-.176-.984-.176-1.193-.275-.663-.32-1.282-.39-1.327-.326-.043.06-.707 1.355-.753 1.482-.042.136.4.27.753.578.354.307 1.018.442.973.577-.045.13-.31.84-.487 1.11-.17.26-.97 1.33-1.32 1.22-.35-.1-1.9-1.31-2.21-1.04-.31.27-1.9 3.62-1.95 3.84-.05.23-2.24.09-2.46.05-.22-.04.05-1.32.18-2.21.13-.88 1.68-2.78 1.68-3.18 0-.4.62-.26-.93-1.5-1.54-1.24-1.37-.97-1.68-.6-.31.37-.66 1.71-1.02 3.88-.35 2.17.45 4.64 1.99 5.44 1.55.8 4.73-.17 5.44-.52s2.26-1.81 3.14-3.27c.89-1.46 1.33-5.04 1.2-5.22zm-12.995-7.822c-.22.175.09.836.576.75.486-.088 1.37.573 1.724.664.353.085 1.37-2.518 1.68-2.96.31-.442 1.147-1.505 3.136-4.136 1.99-2.63 1.548-4.43 2.122-5.94.574-1.5.884-4.9.84-5.17-.045-.26-2.86.74-3.845 1.02-2.327.67-4.288.62-4.288.93 0 .31.486.49 1.016.98.54.49 1.2 1.29 1.24 2.26.05.97.71 5.09-.26 7.21s-3.71 4.24-3.93 4.42zM96.16 192.52c.354 1.02.884 2.743 2.962 3.628 2.077.885 4.287-.048 6.143-1.062 1.855-1.02 2.562-3.45 2.562-3.45l-2.208-.662s-1.73-.62-1.72-.484c.01.132-1.92 2.166-2.45 2.786-.53.62-.62 1.276-1.06 1.06-.44-.222-2.43-1.46-2.48-1.635-.05-.18 1.02-.79 1.23-.97.22-.18 1.5-1.19 1.41-1.56-.09-.37-.89.28-2.21.06-1.33-.22-2.21.27-2.21.27s-.36 1.02 0 2.03zm34.65 27.67c-.44.132-.618 1.946-.663 2.12-.044.18.354.046.75.134.4.086 0 1.413-.706 2.475-.7 1.06-1.45 3.35-3.13 3.18-1.68-.18-1.1-1.02-1.28-1.38-.17-.36-1.06.89-1.06.89s-.13 1.32 0 2.21c.13.88 2.04 1.9 3.41 1.68 1.37-.22 3.49-.22 4.42-1.29.93-1.06 2.66-4.68 2.66-6.58 0-1.9-.79-2.35-1.63-2.79 0 0-2.29-.8-2.74-.67zm2.386 6.008c.133.535 0 1.372 0 1.372s-2.562 2.3-2.785 2.254c-.22-.046-1.32-.44-1.23-.885.09-.45 2.34-2.82 2.92-3.09.21-.1.98-.19 1.11.34zm-15.16-15.023c-.087.75 1.15 1.014 1.328 1.235.177.22 1.167-.188 1.28-.486.412-1.072 1.238-1.856 1.548-2.298.31-.442 1.37-.532 1.74-.485.37.05 1.264-.83.38 2.12-.884 2.96-.044 3.14.62 3.32.663.18.75-.88 1.062-2.14.308-1.25.795-1.48 1.015-1.48.22 0 1.45-.35 1.63-.35.17 0 .4 1.24.79 1.67.39.43.26-.08.79-.08s.35.62 1.5-1.68c1.33-2.67.09-6.01-.58-6.85-.67-.83-2.26-4.28-2.34-6.67-.09-2.39.35-6.19.26-6.41-.09-.22-1.65 1-2.08 1.06-.67.09-1.59.8-1.59.8s-.67 5.08-.84 6.72c-.18 1.64-1.68 4.87-2.7 6.54-1.02 1.68-3.76 4.73-3.85 5.48zm-30.052-7.47c1.194.752 4.287 4.066 5.7 4.815 1.417.752 2.742.62 4.817.397 2.08-.22 2.66-.574 2.35-.972-.31-.395-.66.223-.88.223s-1.77-.445-2.16-.797c-.4-.35-.44-1.19-.44-1.41 0-.22.76-.75.98-.92.22-.18.84.18 1.11 0s.05-.53-.35-.88c-.4-.35-3.01.32-3.23 0-.22-.3-1.06-2.03-.79-2.03s1.81-1.19 1.81-1.54c0-.35-.39-.88-.57-1-.17-.11-1.06.12-1.59-.02-.53-.13-2.07.54-3.98-1.19-2.59-2.35-1.9-3.31-1.94-4.02 0 0 .18-3.71-.09-3.71s-2.12-.26-2.47-.35c-.35-.08-.84-.48-1.37 4.07-.53 4.56.18 6.68.66 7.38.49.71 1.28 1.24 2.48 1.99zm161.04-93.655c-2.344 1.76-64.783 38.694-64.783 38.694l2.06 2.64c5.28 0 29.9-15.83 34.01-17.586 3.89-1.67 53.04-32.017 57.92-34.437-1.8.1-8.87-2.2-8.87-2.2s-17.97 11.14-20.32 12.9z"/>
    <path d="M278.21 99.36c.23-.01.387-.055.42-.154.017-.046-.15.023-.42.155zm-5.148-17.448c-2.932 2.343-.88 7.62 4.983 8.792 5.863 1.172 7.328-1.173 4.982-4.64-2.343-3.463-8.363-5.437-9.965-4.152z"/>
    <path d="M155.906 0C69.8 0 0 69.802 0 155.906S69.8 311.81 155.906 311.81s155.905-69.8 155.905-155.904S242.01 0 155.91 0zm134.45 91c0-.88-5.276 4.956-5.276 4.956s3.226 2.077.294 4.13c-2.932 2.05-45.73 26.674-51.592 30.777-5.863 4.104-27.264 19.936-27.264 19.936s2.054 1.46 3.227 3.51c1.172 2.05-2.052 15.53.292 29.02 2.347 13.48 5.276 41.04 6.743 51.88 1.465 10.84 3.225 13.48 2.345 16.41-.88 2.93-12.313-2.35-21.985 0-9.675 2.34-49.54.29-58.334-.29-8.794-.59-30.78-4.7-36.936-2.94-6.156 1.76-40.454 7.32-42.797 10.84-2.346 3.52-11.434-2.06-12.606-6.16-1.173-4.11 5.57-51.3 5.277-56.87-.294-5.57-5.845-48.37-5.415-52.77.43-4.4 1.31-39.28.13-40.75 0 0 25.79.58 28.43 0 2.64-.59 37.81-1.18 45.73-3.23 7.91-2.05 76.51-2.35 76.51-2.35l6.74 5.83-2.05 12.93s28.72-18.76 39.57-25.8c10.84-7.04 21.4-10.56 24.04-10.26 2.63.29-5.87-5.28 11.43-3.52 17.29 1.76 13.48 15.54 13.48 14.66z"/>
    <path d="M144.373 165.748s6.502-9 12.553-16.897c-.566.19-1.458.5-1.664.5-.276 0 .358-.95 1.663-3.88 1.306-2.93 1.504-6.76 1.425-6.33-.078.44-4.71 5.58-5.184 6.1-.475.52-4.075 3.81-4.075 3.81s-2.09-1.94-2.13-2.41c-.04-.47 1.74-2.49 1.86-3s1.35-6.49 1.35-6.49c-.31.36-4.11 4.47-5.06 5.5-.95 1.03-7.24 5.94-9.06 6.77-1.82.83-7.7 3.4-7.7 3.4s.35 2.7 0 7.25-1.39 5.66-3.33 7.76c-1.94 2.1-6.73 1.98-7.6 1.94-.87-.04-3.36-1.19-4.13-1.74-.77-.56-3.26-2.38-3.26-2.57 0-.19 1.63-.51 2.61-.99.99-.47 2.34-1.3 2.89-1.82.56-.51 1.94-2.45 2.49-3.8.55-1.34 1.75-4.87 1.75-4.87s-3.44-.31-4.47-.26c-1.03.04-3.01-.05-4.37-.17-1.36-.11-3.23.16-4.1.16 0 0-1.9-.07-6.18.48-4.27.56-5.38 1.94-5.38 1.94s.44 1.54 1.74 2.97c.71.77 3.45 3.13 5.15 4.71 1.7 1.58 3.36 2.22 3.36 2.22s2.22.95 1.94 1.4c-.28.45-2.57.94-2.97 1.1-.4.16-2.46.81-5.22.87-4.43.09-6.81-.2-9.56-1.67-2.75-1.46-2.91-5.02-3.62-5.3-.71-.27-.83.64-1.66 1.23s-4.32 6.13-4.52 10.37c-.19 4.23 2.38 8.55 3.37 9.93.99 1.39 3.57 2.54 3.84 2.58.28.04 4.32 2.18 4.87 2.258.56.08 1.27-2.14 1.23-2.253-.03-.12-3.56-2.134-4.78-3.25-1.224-1.1-2.73-4.03-2.89-5.61-.07-.73-.153-6.57.2-5.9.36.673 3.396 2.325 4.79 3.21 1.26.8 4.396 1.74 7.88 2.1s8.625.55 13.41-.796c4.79-1.35 9.46-3.13 11.04-4.59 1.588-1.468 4.318-2.69 4.95-2.81.63-.12 3.208.47 3.48.67.28.2-.12 1.14-.08 1.5.04.352-.243 2.46-1.34 5.815-1.44 4.39-1.344 3.99-5.38 7.48-4.41 3.8-10.604 5.1-11 5.26-.4.16-.12 1.74-.2 1.94-.08.2 1.46.35 1.94.27.477-.07 6.41-2.25 7.72-2.45 1.306-.2 7.08-3.09 7.83-3.52.75-.44 8.55-6.46 9.7-7.56.97-.94 6.86-6.91 9.59-10.09-.22.01-.46.03-.65.04-2.64.09-4.99-2.44-4.99-2.44z"/>
    <path d="M91.272 156.702s-1.185.792-1.502 3.207c-.317 2.41.158 3.64.87 5.02.712 1.38 3.088 2.05 4.55 2.37 1.465.31 5.187-.92 5.147-1.19-.04-.28-3.958-3.29-5.185-4.2-1.226-.91-3.68-4.43-3.88-5.23zm91.21-9.422l44.85-27.848s44.264-24.332 41.92-24.037c-3.96.497-6.08-6.903-6.474-8.85-.998 2.774-24.978 17.12-27.53 19.085-2.64 2.03-52.766 35.495-52.766 35.495-2.194 1.465 0 6.156 0 6.156zM94.35 197.65c0-.222.213-.753 0-.974-.44-.45-.71-2.873-.71-2.873s-1.192.575-1.237 2.344c-.044 1.768 1.946 1.724 1.946 1.504zm28.897-42.41s-.988 3.286-2.295 5.423c-1.1 1.795-2.73 3.562-3.918 3.996s-2.335 1.66-2.335 1.66 2.33.75 4.98 0c1.83-.52 3.28-1.55 4.31-5.78 1.03-4.24-.75-5.31-.75-5.31zM92.447 179c-.744-.385-3.402-1.063-3.402-1.063s-.088.885.266 1.724c.36.84 1.33 2.13 1.42 2.48.09.35.89-.31 1.99-.39 1.11-.09 4.07-1.77 4.07-1.77s-2.87-.22-4.33-.97z"/>
    <path d="M199.19 155.194s-11.726 5.277-13.483 5.277c-1.76 0-23.45 8.8-26.09 7.72-1.01-.41-2.368-.52-3.805-.49-.653.91-1.354 1.82-2.13 2.75-5.145 6.14-6.212 8.03-9.933 11.4-3.72 3.37-9.3 5.78-9.66 6.22-.36.44-1.47 1.15-1.51 1.66-.04.52-.4 5.74.27 8.07.67 2.34 2.33 5.78 2.77 8.31.43 2.54.35 4.16-1.03 6.37-1.39 2.22-3.33 3.05-3.29 3.45.04.4.08 1.47.24 1.47.15 0 2.96-.11 4.35 1.63 1.38 1.74 3.34 2.98 2.41 8.11-.75 4.16-4.12 6.69-5.86 7.2-.92.27-4 2.22-7.52 2.1-3.52-.12-4.63-3.32-5.27-4.39-.64-1.07-.99-2.73-1.15-3.05-.16-.32-3.21-.04-5.39-1.7-2.18-1.66-3.09-2.34-3.05-5.03.04-2.69.19-4 .04-4.23-.16-.24-.2-1.22-.08-1.42.12-.19-1.07-1.5-1.9-1.62-.83-.12-1.11-.71-1.27-1.23-.16-.51.04-.79.56-1.19.51-.39 1.66-1.7 1.7-1.89.04-.19 0-.55-1.07-.35-1.07.2-4.67 1.27-6.13 1.82-1.47.56-4.91 1.51-5.5 1.59-.6.08-4.4-1.023-4.75-1.302-.36-.28-1.27-.396-2.1-1.666-.83-1.26-4.4-4.63-5.54-5.61-1.15-.99-2.38-2.53-2.54-2.65-.16-.12-2.14-4-1.39-8.47.75-4.48 2.02-6.18 2.33-6.335.31-.16-4.28-4.24-4.91-5.307-.64-1.07-4.62-6.452-2.34-15.033 1.98-7.44 9.58-9.1 10.01-9.22.43-.12.2-2.45 1.35-4.94 1.15-2.49 3.08-3.6 3.12-3.76.04-.16.83-1.903 1.19-2.1 0 0 .95 1.425 1.46 2.02.51.59.83 2.056.83 2.41s-.16.87 1.46.32c1.62-.554 7.323-1.29 8.782-1.385 3.56-.24 6.254-.2 8.43-.12 2.176.08 5.86.55 6.61.67s1.62-.12 1.98-.32c.356-.2 1.542-2.06 1.702-2.46.153-.4.652-1.27.64-1.55-.014-.28.816.12 1.37 1.46.555 1.347.91 1.467 1.23 1.39.314-.08 6.012-2.42 7.12-2.93 1.11-.51 5.947-2.68 8.79-5.42 4.274-4.11 6.45-6.72 8.073-9.5 1.62-2.77 3.64-7.16 3.72-7.51.08-.35 1.03-2.53 1.265-2.29.24.233 2.06 3.24 1.9 4.11-.154.87-1.38 7.36-1.5 7.95-.12.59-.95 4-.56 3.84.39-.16 3.84-6.417 5.14-7.92 1.31-1.5 3.52-5.658 3.84-6.568.31-.91 1.82-4.51 1.78-5.07-.04-.554 1.7 2.14 1.7 2.65s-1.54 8.07-1.86 9.42c-.314 1.34-1.78 6.645-1.7 7.12.08.476.16 1.19.356 1.19.195 0 2.33-3.13 2.65-3.763.314-.64 2.02-2.1 2.02-2.22 0-.12-.04 2.14-.32 3.6l-.03.18c2.2-1.22 2.87-.96 6.16-2.23 3.81-1.46 14.66-9.67 16.42-10.55 1.76-.88-1.47-7.03-2.35-9.09-.88-2.05 2.05-8.79 0-9.09-2.053-.3-48.37 2.34-52.18 2.34-3.81 0-35.47 2.35-39.28 2.35-3.81 0-29.61.88-35.18 0 0 0-4.1 17.88-3.22 24.92.88 7.04 3.223 35.76 4.983 51.59 1.76 15.83-2.93 58.755-2.93 58.755s13.49-3.357 23.75-3.357 36.35-2.93 41.04-2.35c4.69.59 24.04 5.28 32.247 5.57 8.21.295 23.454 0 35.47 0s14.95-2.93 14.95-4.1c0-1.177-4.1-48.957-6.446-52.475-2.35-3.52-2.054-33.71-2.054-33.71z"/>
  </g>
</svg>
