<svg xmlns="http://www.w3.org/2000/svg" width="311.811" height="311.811" viewBox="0 0 311.811 311.811">
  <g fill="#47372C">
    <path d="M154.26 122.245c-.114-.266-.75.143-1.18.508-.43.365-1.636 1.017-1.636 1.017.17.29-.282 1.654-.238 1.86s1.724.026 1.612.71c-.11.686-.295.572-.252.778.044.206 1.213.198 1.41.655.196.458-1.037.943-1.054 1.22-.018.277.945 0 1.48-.23.53-.228 2.054-.566 2.82-.67.766-.104.704-1.61.433-1.72-.27-.108-1.18.51-1.435.437-.255-.07-.22-.4.074-.663.295-.26.918-.8.77-1.142-.146-.343-.836.358-1.217.52-.38.165-.38-.15-.544-.53-.164-.38-.06-.243.506-.713.56-.468.56-.876.37-1.334-.2-.454-1.65.352-2.03.423-.38.08-.29-.46-.36-.61-.07-.15.57-.24.46-.51zm28.655-14.475c-.225.11-1.094.694-1.29.824-.194.127-.062.838-.065 1.044 0 .207 1.982-.427 2.017-.865.037-.442.877-.584 1.138-.92.26-.338.19-.712-.08-.82-.276-.11-1.383.567-1.72.736zm-58.28 33.74c1.605-.78 1.805-1.678 1.574-2.84-.23-1.164-1.76-1.05-2.35-.84 0 0-1.22.52-1.28 1.54-.04.702.44 2.917 2.04 2.14zm-.273-2.632c.49-.228.994.04 1.127.733.12.65-.3 1.04-1.02 1.11-.74.08-1.43-1.23-.12-1.84z"/>
    <path d="M162.763 128.19c-1.006.387-6.566 2.235-8.914 2.748s-4.15.205-4.15.205-.13.233-.19.62-.68 1.055-1.98 1.257c-1.31.204-.87-.123-.68-.742.18-.62 1.3-1.688 1.05-2.165-.25-.48-1.84.246-2.13.285-.3.036-.61-1-.66-1.207-.05-.2 1-.38 1.66-.85.65-.46.51-.8-.15-.75-.32.03-2.34.33-2.52.01-.19-.32.91-.93 1.4-1.14.49-.21.82-.08 1.42.16s.92.15 1.41.88c.49.73-.16 1.42.16 1.42.31 0 .84-.54 1.07.08.22.63-.08.76-.02.91.06.16 1.62-.2 2.18-.58.56-.37.64-.9.51-1.12-.14-.21-1.16-.08-1.31-.52-.08-.23.92-.48.67-1.05-.25-.57-1.2-.16-1.56-.05-.36.11-.34-.26-.44-.39-.11-.13.59-1.24.48-1.51-.12-.26-2.25 1.06-2.51 1.08-.27.02-1.42-.15-.96-.44.46-.29 2.21-1.58 3.84-2.5 1.63-.92 1.88-1.48 3.09-2.23 1.21-.74 4.24-2.81 4.34-2.9.1-.08 3.48-2.17 4.73-3.14 1.25-.96 4.18-1.91 5.94-3.16 1.76-1.25 3.29-2 5.23-2.29 1.32-.2 2.3.54 2.3.54s.58-.23.68-.5c.11-.27-.5-1.7-.77-1.9-.27-.2-4.47 1.34-5.23 1.57-.76.24-7.06 3.71-8.58 4.68-1.52.97-9.67 5.51-11.69 6.69-2.01 1.18-12.14 7.2-12.91 7.71-.77.51-7.19 3.94-8.65 4.71-.73.39-5.44 3.19-5.37 3.57.07.38.19.23 1.03.1.84-.14 2.01.17 2.89-.21 1.22-.52 1.93-1.68 1.93-1.68s-.37 2.18-.4 2.42c-.04.24-1.05 3.24-2.17 4.4-1.13 1.16-3.39 1.34-3.24 1.48.89.83 1.99.23 3.15-.32 1.16-.54 2.78-1.6 3.34-1.98.56-.38 3.59-1.59 4.43-1.86.83-.27 3.34-1.12 3.34-1.12s-.4-.82-.5-.96c-.1-.13 1.01-.79.92-1.02-.1-.23-.86.1-.96.19-.1.09-.31-.5-.41-.73-.1-.23.69-.61 1.26-1.17.57-.56.05-.92-.13-.93-.19-.01-1.26.95-1.38.69-.11-.27.87-1.86.72-2.11-.15-.25-1.8.64-2.11.77-.31.13-.39-.69-.2-1.4s.62-.53 1.34-.53c.72.01 2.13-.28 2.44.12.31.41-.11.99-.01 1.24.11.25.884.17 1.13.74.243.58-.88 1.73-.81 1.89.06.15.56-.06.83.58.276.65-1.49 2.31-1.49 2.31s1.43-.35 2.04-.61c.61-.26 1.37-.27 2.294-.85s.78-1.64.57-1.91c-.21-.27-2.22-.13-2-.36.21-.22 1.52-1.28 1.33-1.92-.184-.64-1.78.27-2.12.42-.34.15-.554-.35-.47-.56.09-.22 1.79-1.08 1.77-1.44s-1.14-.36-1.46-.67c-.31-.31-.46-1.28-.27-1.05.19.23 1.71-.33 2.72.14 1.015.46.63 1.35.6 1.59-.035.24.56-.15.824.46s-.35 1.28-.34 1.41c.01.13.48-.343.9.74.42 1.08-.618 2.65-.618 2.65s1.522-.113 2.832-.32 4.933-.68 5.91-.92c.98-.24 3.97-.94 9.13-3.3 5.16-2.35 9.2-7.01 7.784-6-1.415 1.014-6.295 3.29-7.3 3.68zm15.215-19.967c.08.19 2.38-1.067 2.595-1.408.215-.34-.51-1.92-.685-2.116-.174-.2-1.078.43-1.483.63-.26.13-1.566.44-1.325.79.238.35.816 1.9.898 2.09zm7.56-4.33c.302-.13-.366-1.374-.636-1.48-.27-.1-1.674.723-1.674.723s-1.546.702-1.827.785c-.27.09.59 1.37.64 1.48.05.12 3.2-1.37 3.5-1.5zm-64.76 38.914c.033-.015.017-.012-.032.003.01-.003.02 0 .032-.003zm-.508-.55c-.854.414-1.15.676-1.152.88-.003.173 1.354-.256 1.628-.327-.22.028-.476-.553-.476-.553zm68.47-40.03c.356-.22.104-1.33.003-1.46-.1-.13-.835.36-1.065.456-1.064.458-.827 1.744-.8 1.803.023.057 1.505-.58 1.862-.8zm-4.737 7.958c-.255-.07-4.9 2.33-4.9 2.33s-2.685 1.2-3.013 1.385c-.325.187-.118.457-.14.827-.02.37 7.142-3.204 7.093-3.318-.05-.12 1.216-1.16.96-1.23zm8.064-11.125c-.19-.232-.796.343-1.065.458-1.065.457-1.042 1.35-1.035 1.578.01.23 1.15-.052 1.542-.4.39-.347.74-1.403.55-1.637zm-4.317 6c-.43.35-1.31.833-1.483.954-.173.12.043 1.15.2 1.515.155.36 2.746-1.48 3.07-1.62.327-.14.37-1.92.06-2.01-.31-.1-1.676 1.01-1.847 1.15zm4.09-2.433s-.737.587-.936.66.145 1.48.224 1.665c.078.183 1.165-.54 1.675-.72.51-.184.99-1.68.62-2.027-.366-.35-1.464.28-1.583.422zm-6.893 8.91c-.153.065-4.374 2.285-4.374 2.285s-3.653 1.795-3.844 1.877c-.19.08-.21.67-.24.91s.6-.08.78.03c.17.1 2.52-1.27 3-1.61.48-.35 5.51-2.28 5.89-2.54.38-.26 1.17-1.25.71-1.17-.86.15-1.79.14-1.94.2z"/>
    <path d="M172.834 114.398c.093.322 1.343.19 1.506.57.164.38.197 2.033-.556 2.897-.756.865-2.637 1.314-2.54 1.54.1.23.938.185 1.36.228.425.044.69.695.69.695s1.304-1.82 1.615-3.668c.26-1.557-.25-3.066-.33-3.327.08.307-1.75 1.065-1.75 1.065zm1.746-1.064c0-.003.002-.007 0-.01-.02-.046-.016-.038 0 .01z"/>
    <path d="M168.473 118.617c.767-.42 2.863-1.41 2.438-2.4-.42-.985-1.59-.353-2.47.117-.88.468-2.8 2.193-3.19 2.318-.39.126-1.16-.086-1.38-.395-.22-.31 4.03-2.903 4.69-3.365.66-.463 4.32-2.44 3.81-3.305-.5-.863-3.13.58-4.11.912-.98.33-3.25 2.07-3.89 2.57-.64.5-5.36 3.88-5.49 3.98-.39.28-3.42 2.41-3.43 2.5-.01.08 1.1.66 1.23.56.14-.1.84.05.84.27.01.22.4-.13.8.69s-.12 1.18-.1 1.44c.02.26.61.05.81.42.2.36-.18.84-.12 1.09.06.24.36.2.53.49.17.29-.32 1.24-.32 1.24s3.33-1.58 4.9-2.13c1.57-.54 3.29-2 3.84-2.08.55-.08 3.76-1.42 2.83-2.64-.93-1.22-2.45.06-2.58.12-.13.05-1.64-.2-1.77-.5-.12-.3 1.42-1.52 2.19-1.94zm-6.517 6.856c-.468.382-.828.043-1.148-.68-.15-.34 1.547-.595.94-1.483-.278-.406-1.014-.54-1.456-.35-.23.1-.797-.17-.894-.398-.1-.23 1.624-1.148 1.558-1.616-.065-.467-1.718.195-1.718.195-.055-.33-.132-.93.173-1.06.31-.13 2.24-.46 2.57-.11s1.09 1.38.75 1.75c-.33.37-.42.27-.3.54s1.07.31 1.35 1.27c.29.96-1.34 1.57-1.81 1.95zm-42.202 16.107c-.224-.313-.375-.877-.375-.877-.89.153-1.34 1.834-1 1.464.33-.37 1.59-.28 1.37-.588zm60.026-31.788c-.137-.21-2.512 1.08-2.512 1.08-.516.272-2.13 1.23-2.457 1.415-.32.186.4.598.5.734.11.14 4.34-2.27 4.63-2.44.29-.16-.02-.57-.16-.78zm34.81 68.908c-1.872-.47-22.455 0-22.455 0s.78 1.87.937 2.826c.155.957 13.722 1.07 18.398.914s6.704 3.273 6.704 1.716c0-1.558-1.715-4.99-3.585-5.457zm-5.808-87.724c-.032-.076-1.52.653-1.52.653s-1.25.76-1.585.92c-.336.16.596.76.706 1.01.096.22 2.058-.81 2.69-1.32l.007-.88c-.134-.2-.283-.37-.298-.4zm-31.77 97.874c-1.092 0-8.736-1.316-9.667-1.42-1.052-.118-.468 4.054-.934 5.244-.46 1.19 21.05.057 20.27 0-.78-.058 0-4.366 0-4.366s-5.76.543-9.66.543zm-18.552 2.945c-.624-.78 0-4.367 0-4.367s-4.523-1.554-5.616-1.714c-1.277-.186-2.806 5.146-2.69 6.08.113.936 8.93.78 8.305 0zm-14.502-6.085c-.313-.627-4.522 0-4.522 0-.883.114-3.896 5.307-4.52 5.618-.625.31 9.198.624 9.043 0-.16-.625.31-4.99-.01-5.618zm4.835 12.342c0 .956 7.016.292 8.263.458 1.248.165.31-1.57 0-2.044-.312-.477-6.746-.604-6.91-.617-1.288-.11-1.353 1.24-1.353 2.2z"/>
    <path d="M223.474 178.7c1.872 0 1.717 4.364 2.81 6.234 1.092 1.87 1.343 6.238 1.343 6.238s4.894.155 6.14.31c1.248.16 5.147 2.34 4.99 3.43-.155 1.092-7.64 2.34-7.64 2.34l1.246 1.56s7.33-.468 9.198-.468c1.88 0 7.18.78 8.11 2.494.94 1.716-1.56 2.652-2.34 2.807-.78.155-9.98 1.092-10.91 1.092-.93 0 2.5 4.833 1.56 5.146-.93.312-1.87.155-4.21.155s-6.86-4.988-6.86-4.988-10.91-.623-12.31-.313c-1.4.31-17.46 1.092-17.46 1.092s1.56 2.33-1.24 2.49-7.33-3.12-7.33-3.12-4.67-.31-3.27 0 5.93 11.38 4.99 13.87c-.94 2.49-7.95 3.43-7.95 3.43s32.12 1.09 44.44 1.09 18.55 2.02 20.27 2.8c1.72.78 15.12-7.02 14.66-7.33-.47-.32-6.7-12.48-10.76-18.56-4.05-6.08-10.6-21.21-10.6-21.21s-6.24 1.4-8.42.62c-2.18-.79-8.42-1.25-8.42-1.25zm-93.236 6.73s-6.08 1.064-7.172 1.064c-1.09 0-7.142-.102-8.574 0-1.87.133-4.21 4.834-5.146 5.193-.936.36 16.526.575 17.462 0 .937-.574 3.43-6.256 3.43-6.256zm12.472 12.602c.936-.78 0 0-.31-1.003-.312-1.01-5.418-.61-6.55-.57-4.227.17-4.21 1.72-4.52 2.11s10.446.23 11.38-.55zm-19.956.755c1.09-.335 1.87-3.25 1.87-3.874 0-.622-13.05-.707-15.314 0-2.996.936-2.77 3.74-3.238 3.874-.468.134 15.59.336 16.682 0zm-15.278-21.96c-.624 0-10.605-1.09-12.008-1.402 0 0 0 1.872-.312 2.664-.31.79-2.183 1.07-3.118 1.54s10.29 1.71 11.07.78 4.99-3.59 4.368-3.59zm25.568 1.888c.623-1.23 2.962.295 3.74.92.78.624 5.147-.313 6.394-.92 1.247-.607 4.212.92 5.146 1.075.936.155 8.888.78 9.822.313.936-.468 2.183-1.093 3.742-.468 1.56.624 6.08 1.09 9.043 1.892 2.97.802 14.5.446 15.28 0 .78-.446 1.56-2.05.94-3.036-.62-.98-13.87-1.81-18.08-2.12-4.21-.31-23.23.78-27.44.93-4.21.16-27.91-1.87-27.91-1.87l-.78 1.56s2.34.78 3.44 1.51 0 1.77 0 1.77 16.06-.31 16.68-1.54zm69.32-81.072c-.058.285.012 1.493-.12 1.716-.13.22 3.26-1.44 3.613-1.56.354-.12-.283-1.4-.52-1.63-.236-.24-1.522.65-1.522.65-.336.22-1.395.53-1.452.81z"/>
    <path d="M204.298 199.64c.47-.417-.156-2.388-.623-2.543-.47-.155-8.265 0-8.265 0-1.24.02 0 2.026 0 2.544s8.42.42 8.888 0zm-2.028-10.79c-.625-1.073-6.167-.27-7.41 0-1.77.384 0 3.824 0 3.824s8.035.682 7.41 0c-.625-.683.625-2.75 0-3.823zm5.938-94.383s-1.336.664-1.506.78c-.17.12.552 1.297.655 1.525.06.13.905-.282 1.683-.672.004-.65.01-1.34.018-2.07-.413.198-.85.437-.85.437zM165.32 234.36c7.485 1.402 16.994-.155 16.682-2.808-.312-2.648-5.456-2.182-6.548-1.87-1.09.313-17.62-.623-19.957 0-2.34.625-19.334.937-19.334.937s2.963 1.24 5.613 2.33c2.65 1.09 16.058 0 23.544 1.4zm21.38-37.33c-.757-.383-19.354-1.15-20.296-1.182-1.266-.04-1.084 2.338-1.084 2.66 0 .323 21.36.614 22.055 1.132.694.518.085-2.23-.674-2.61zm24.927-.558c-1.248-.017-1.56 2.183 0 2.81 1.56.623 11.07.31 12.16 0 1.09-.313-.313-2.965-1.09-2.81-.78.156-11.07 0-11.07 0zM147.7 217.68c7.33.31 30.093-.16 31.652-1.404 1.557-1.247-2.185-6.55-3.275-6.906-1.09-.358-15.59-.112-17.307.045s-18.548-.045-20.736 0c-2.027.043-5.3 4.833-5.3 7.015 0 2.183 7.64.935 14.967 1.25zm70.474-28.692c-1.09-.312-8.107 0-8.107 0s.625 2.65 0 3.274 11.38.468 10.603 0c-.782-.467-1.405-2.96-2.496-3.274zm-18.482-92.21c.306-.13.243-1.326.085-1.483-.158-.156-1.56.67-1.56.67s-.977.557-1.187.7c-.21.143-.214 1.074-.152 1.32.06.247 2.51-1.082 2.814-1.208zM188.33 72.91c.036-.442.877-.583 1.137-.92.26-.337.19-.712-.08-.82-.273-.107-1.38.567-1.718.737-.23.11-1.1.693-1.29.822-.2.13-.07.84-.07 1.04-.01.2 1.98-.43 2.01-.87z"/>
    <path d="M91.542 165.807c7.436 2.125 58.424 2.833 73.295 3.187 14.872.354 68.338 0 68.338 0v-33.637s-3.186-30.452-2.833-36.118c.354-5.67-1.416-40.37-4.604-42.49-3.186-2.13-12.393-2.83-24.432-4.61-12.037-1.77-52.738-.45-61.256 0-8.457.44-46.74 2.12-52.405 2.83s-7.08 50.98-5.31 77.54c1.772 26.55 1.77 31.16 9.207 33.28zM121.637 60.91c12.394-2.39 39.304.44 39.304.44 5.32 0 37.89-1.77 47.45 1.772 9.56 3.54 9.92 7.79 9.92 29.743s3.54 43.905 3.54 47.8c0 3.896 4.96 8.144 4.96 10.622 0 2.48 5.31 4.96-10.97 4.96-16.29 0-63.73-1.772-70.11-1.772s-49.57 3.893-50.63-1.063c-1.06-4.957-1.06-40.362-2.12-55.943-1.06-15.58-.35-29.04-1.77-32.94-1.41-3.89 18.06-1.24 30.45-3.63z"/>
    <path d="M124.508 105.72c-.224-.31-.376-.877-.376-.877-.88.153-1.33 1.834-.994 1.465.337-.37 1.593-.28 1.37-.588zm1.022 1.226c.036-.014.018-.012-.03.002.01-.002.02.004.03-.002zM83.62 223.29c5.147-.622 20.89-.468 29.31-.622 8.42-.156 19.022.622 19.022.622s-3.74-1.402-4.365-2.65-2.183-2.026-2.962-3.74c-.78-1.716 0-5.83 0-5.83s-2.184-1.5-3.118-2.902c-.936-1.403.155-4.21 0-4.677-.158-.47-18.71.78-19.427.78s-3.65 5.46-4.585 6.24c-3.07 2.56-5.145-4.36-5.513-5.3-.367-.93-4.778 0-4.778 0l-7.484-4.52s12.94-.62 14.033-.69c1.093-.06 1.248-.87.78-1.48-.47-.61-5.3-.47-6.86-.45-1.56.02-5.457-3.63-5.457-3.63s14.032-1.37 15.124-1.44c1.09-.06 5.3-7.1 4.67-7.26-.63-.15-4.84-.77-5.3-1.14-.47-.37-5.62-4.46-7.02-4.46 0 0-3.43 3.9-5.15 5.33s-9.04 12.75-11.23 17.15c-2.18 4.39-14.03 18.84-14.03 20.71s19.18.63 24.32 0zm97.863-143.45c-.19.08-.205.675-.238.913-.03.24.6-.076.777.026.18.1 2.522-1.27 3.006-1.61.483-.34 5.51-2.28 5.896-2.53.386-.26 1.177-1.25.716-1.17-.854.16-1.787.14-1.94.2-.15.06-4.37 2.28-4.37 2.28s-3.657 1.79-3.847 1.88zm23.263 14.433c.217-.333-.05-.957-.135-1.154-.08-.2-1.82.78-1.82.78s-1.4.61-1.56.67c-.15.06.36 1.25.41 1.37.05.11 2.9-1.34 3.12-1.67zM129.39 105.65c1.604-.78 1.804-1.677 1.572-2.84-.23-1.165-1.755-1.05-2.342-.84 0 0-1.22.522-1.277 1.54-.04.703.445 2.918 2.047 2.14zm-.274-2.632c.49-.227.994.04 1.126.733.124.65-.294 1.04-1.01 1.11-.742.08-1.432-1.23-.116-1.84zm-4.09 3.38c-.855.412-1.153.675-1.155.88 0 .173 1.36-.256 1.63-.33-.22.03-.47-.55-.47-.55zm32.65-13.264c-.017.276.945-.002 1.48-.23.53-.228 2.055-.566 2.82-.67.768-.104.705-1.61.433-1.72-.28-.108-1.18.507-1.44.438-.26-.07-.22-.402.07-.664s.91-.8.77-1.142c-.15-.343-.84.358-1.22.52-.38.167-.38-.15-.55-.53-.17-.38-.06-.244.5-.713.56-.467.57-.875.37-1.333-.2-.455-1.65.352-2.03.422-.38.07-.29-.462-.36-.613s.57-.25.45-.52c-.12-.27-.75.14-1.18.51-.43.36-1.64 1.01-1.64 1.01.17.29-.28 1.65-.24 1.86.04.2 1.72.02 1.61.71-.11.68-.3.57-.25.78.04.2 1.21.19 1.4.65.2.45-1.04.94-1.05 1.22z"/>
    <path d="M142.405 91.99c-.773.513-7.188 3.938-8.657 4.71-.73.386-5.433 3.193-5.363 3.566.072.376.19.234 1.033.1.844-.138 2.012.168 2.887-.208 1.224-.524 1.934-1.685 1.934-1.685s-.37 2.186-.4 2.426c-.04.23-1.04 3.23-2.17 4.39-1.12 1.16-3.39 1.34-3.24 1.48.9.83 1.99.23 3.15-.32s2.78-1.6 3.34-1.98c.56-.38 3.6-1.59 4.43-1.86.83-.27 3.35-1.13 3.35-1.13s-.4-.82-.5-.96c-.11-.14 1.01-.8.91-1.02-.1-.23-.86.1-.96.18-.1.08-.31-.5-.41-.73-.1-.23.68-.61 1.25-1.17.57-.56.05-.93-.13-.94-.19-.01-1.26.94-1.38.68-.12-.27.86-1.86.71-2.12-.15-.25-1.8.64-2.11.77-.31.13-.39-.69-.2-1.4.19-.72.62-.54 1.35-.54.72 0 2.13-.28 2.44.12.31.4-.12.99-.01 1.24s.88.18 1.13.75c.24.57-.88 1.73-.81 1.88.06.15.56-.06.83.59.28.65-1.49 2.31-1.49 2.31s1.43-.35 2.04-.61c.61-.27 1.37-.28 2.29-.85.92-.58.78-1.65.57-1.92s-2.22-.13-2-.36c.22-.23 1.52-1.29 1.33-1.93-.19-.64-1.78.27-2.12.41s-.56-.35-.47-.57c.09-.22 1.79-1.09 1.77-1.44-.02-.36-1.14-.37-1.46-.68-.32-.32-.46-1.29-.27-1.06.19.23 1.71-.33 2.72.14 1.01.46.63 1.35.59 1.59-.03.23.57-.16.83.45s-.35 1.28-.34 1.41c.01.13.48-.35.9.74.42 1.08-.62 2.65-.62 2.65s1.53-.12 2.84-.32c1.31-.21 4.94-.68 5.91-.92.98-.24 3.97-.94 9.13-3.29s9.2-7.02 7.78-6.01c-1.416 1.01-6.29 3.29-7.3 3.68-1.006.38-6.56 2.23-8.91 2.74-2.35.51-4.15.2-4.15.2s-.13.23-.19.62-.67 1.05-1.98 1.26c-1.31.2-.867-.13-.68-.75.18-.62 1.3-1.69 1.05-2.16-.25-.48-1.838.24-2.138.28-.3.03-.61-1-.65-1.21-.04-.21 1.01-.39 1.665-.85.656-.46.51-.81-.144-.75-.32.03-2.33.33-2.52 0-.18-.33.91-.93 1.4-1.15.5-.21.82-.08 1.42.16s.92.15 1.42.88c.496.73-.156 1.42.16 1.42s.85-.54 1.07.08c.225.63-.08.76-.015.91s1.62-.2 2.18-.58.65-.91.51-1.12c-.135-.21-1.16-.08-1.305-.52-.08-.23.92-.48.67-1.05s-1.2-.17-1.557-.06c-.36.11-.34-.26-.44-.4-.11-.14.59-1.24.47-1.51-.114-.27-2.25 1.06-2.51 1.08-.26.02-1.42-.16-.96-.45.465-.29 2.21-1.58 3.84-2.51 1.63-.928 1.885-1.488 3.1-2.23 1.21-.75 4.24-2.82 4.34-2.905.095-.09 3.48-2.17 4.73-3.14 1.254-.965 4.184-1.91 5.94-3.16 1.764-1.25 3.29-2 5.236-2.29 1.33-.207 2.306.54 2.306.54s.58-.23.69-.5c.11-.278-.5-1.7-.77-1.9-.27-.2-4.478 1.33-5.23 1.57-.76.23-7.06 3.71-8.58 4.68-1.52.962-9.67 5.5-11.68 6.68-2.02 1.18-12.15 7.2-12.92 7.71z"/>
    <path d="M180.062 77.16c.103.138 4.34-2.27 4.63-2.44.287-.167-.022-.575-.16-.787-.135-.212-2.51 1.08-2.51 1.08-.517.272-2.13 1.23-2.457 1.415-.324.184.393.598.497.733zm.784.88c-.327.187-.12.456-.14.827-.023.37 7.14-3.203 7.09-3.317-.05-.114 1.216-1.154.96-1.225-.255-.07-4.9 2.33-4.9 2.33s-2.684 1.2-3.01 1.384z"/>
    <path d="M102.873 148.456s44.26.71 54.522 0c10.265-.71 59.138 0 57.72-1.415-1.414-1.41-5.663-42.13-6.02-46.38-.047-.57-.062-1.54-.062-2.77-3.94 1.89-8.638 4.18-9.978 4.76-2.13.92-9.623 4.77-9.93 4.9-.303.13-2.298 1.89-2.225 2.27.07.38 1.787-.77 1.974-.44.185.32 2.086-.81 2.265-.71.18.11.53.31.15.48-.38.17-2.19 1.62-2.17 1.88.02.27.82.15 1.48-.22.65-.37 1.42-.66 1.45-.6.02.06.57.59.15.68s-3.18 1.41-3.12 1.56c.06.15 1.52.29 2.05.16.52-.13 1.27-.41 1.4-.2.13.22.16.48-.19.62-.35.15-3.55.99-4.81.77l-1.27-.22s-4.72 2.34-6.11 2.99c-1.4.65-3.74 2.01-3.91 2.04-.17.03.68 2.32-3.45 6.76-4.14 4.44-8.79 7.71-16.99 9.96-6.39 1.76-13.64 2.35-15.9 2.96-2.26.62-6.61 3.2-8.19 4.02-1.59.82-5.17 1.98-6.91 2.31-1.3.24-2.25-.53-2.25-.53s-2.59.48-3.57.5c-.99.02-1.45-.33-1.45-.33l-.99.21s-.19-1.14.78-3c.67-1.27 2.06-1.6 2.06-1.6.09-.53.42-3.11 3.12-4.58s5.3-5.29 6.24-6.13c.94-.83 3.13-4.97 3.13-4.97s.28 1.82-.32 3.77-.61 1.95-.61 1.95 4.51-1.76 10.76-5.79c5.77-3.73 13.99-8.22 18.17-10.56 4.17-2.34 15.03-7.9 17.95-9.29 2.91-1.39 15.27-7.24 17.66-8.18 2.14-.84 8.71-4.66 13.52-6.88.01-8.59-.28-18.73-2.47-19.6-.8-.32-3.58-.46-7.43-.49-2.56 1.278-5.14 2.59-5.32 2.67-.3.13-2.3 1.89-2.23 2.26.07.38 1.79-.77 1.97-.44.19.33 2.09-.8 2.27-.7.18.1.54.31.16.48-.38.16-2.19 1.618-2.17 1.88.02.26.82.14 1.48-.23.65-.37 1.43-.66 1.45-.6.02.06.56.59.15.68-.42.08-3.18 1.41-3.12 1.56.06.15 1.52.29 2.05.155.53-.14 1.27-.41 1.4-.2.13.217.15.477-.19.62-.34.15-3.54.98-4.81.76l-1.26-.23s-4.72 2.34-6.11 2.987c-1.39.64-3.74 2.01-3.9 2.033-.17.02.68 2.32-3.45 6.76-4.13 4.43-8.79 7.7-16.99 9.95-6.39 1.753-13.64 2.35-15.9 2.96-2.26.61-6.6 3.2-8.19 4.012-1.59.816-5.17 1.98-6.91 2.3-1.29.24-2.24-.53-2.24-.53s-2.59.48-3.57.494-1.45-.32-1.45-.32l-1 .2s-.18-1.14.79-2.997c.67-1.28 2.06-1.61 2.06-1.61.09-.53.42-3.11 3.12-4.59s5.3-5.292 6.25-6.13 3.13-4.972 3.13-4.972.28 1.81-.32 3.76l-.6 1.94s4.52-1.76 10.76-5.797c5.772-3.73 14-8.22 18.172-10.56 3.52-1.97 11.76-6.217 16.02-8.34-10.97.26-21.61.57-23.315.25-14.87-2.84-55.94 1.41-55.94 1.41s-1.41 7.79 0 30.81c1.41 23.01 1.42 46.73 1.42 46.73z"/>
    <path d="M155.906 0C69.8 0 0 69.802 0 155.906S69.8 311.81 155.906 311.81s155.905-69.8 155.905-155.904S242.01 0 155.91 0zm111.26 246.537c-10.622 2.48-30.45 3.896-48.51 0-18.057-3.896-68.69.353-76.128-.354-7.435-.708-75.065 4.838-82.855 2.773s-13.4-2.692-12.038-19.062c2.123-25.493 31.513-59.132 31.513-59.132s-4.956 0-8.144-16.994c-3.187-16.997 1.417-70.11 1.417-72.59 0-2.478 2.84-31.157.36-37.53 0 0 4.96 2.478 8.15 2.478s35.77-4.252 57.72-4.958c21.96-.707 66.93-.353 80.02 2.48 13.11 2.83 22.31 3.892 27.62 13.453 5.31 9.57 1.07 56.66 2.13 69.76 1.07 13.11-1.77 46.03-1.77 46.03s6.02 5.32 12.4 14.17c6.37 8.86 14.52 31.52 14.16 35.06-.35 3.54 4.25 4.96 4.61 10.62.36 5.67 0 11.34-10.62 13.82z"/>
    <path d="M195.88 69.093c.03.067.2.01.428-.1-.15.002-.306.003-.46.003l.033.097zm-2 29.047c-.324.088.213.814.26 1.024.044.207 1.7-.87 1.786-.77.088.1-.008-.855-.106-1.09-.1-.23-.645.284-.99.426 0 0-.628.32-.95.41zm-14.546-20.664c-.002-.005 0-.008 0-.012-.02-.046-.017-.037 0 .012zM194.4 103.02c-.003.1 1.894-.73 2.214-.95.32-.22-.022-1.395-.118-1.722-.093-.322-1.097.69-1.266.725-1.387.28-.826 1.85-.83 1.948zm3.504-3.276c-.398.12.16 1.108.308 1.347.147.24 2.012-.66 2.37-.72.36-.05.254-1.56.1-1.81s-1.34.45-1.526.54c0 0-.853.54-1.252.66zm-5.4-30.544c-.428.35-1.31.833-1.484.953-.173.12.044 1.152.2 1.517.156.363 2.746-1.477 3.07-1.615.168-.072.26-.568.27-1.05-.6.003-1.21.01-1.833.017-.104.082-.19.15-.223.178zm-14.917 9.34c.093.32 1.343.187 1.507.567.164.382.197 2.035-.557 2.9-.755.864-2.636 1.312-2.538 1.54.09.228.93.184 1.35.228s.69.694.69.694 1.3-1.83 1.61-3.67c.26-1.56-.24-3.07-.33-3.33.08.3-1.75 1.06-1.75 1.06zm9.203-9.003c.02.046.538-.165 1.168-.442l-1.415.026c.124.21.23.38.248.42zm44.326 162.625c-2.338-.793-16.06-1.7-19.488-1.7-3.43 0-21.05.78-21.05.78s.936 4.52 0 4.834c-.935.313-34.457 3.896-47.867 1.87-13.4-2.025-16.05-7.393-16.05-7.393s-18.08-1.025-23.7-1.115c-5.61-.09-21.98 1.334-27.44 1.96-5.45.624-16.52 0-16.52 0-4.05 1.094-1.4 9.355 0 10.29 1.41.935 35.24-.78 41.79-.623 6.55.156 52.55.155 58.32 0 5.77-.156 56.59-.47 59.71-1.093 3.12-.624 40.7.313 44.13 0 3.43-.312 4.22-9.822 4.22-9.822s-9.67 4.055-13.1 4.736c-3.43.682-20.58-1.93-22.92-2.724z"/>
    <path d="M173.227 82.757c.766-.42 2.863-1.41 2.438-2.4-.423-.986-1.593-.352-2.474.118-.87.466-2.79 2.192-3.19 2.32-.39.122-1.16-.088-1.38-.398-.22-.31 4.03-2.9 4.69-3.364.66-.463 4.32-2.44 3.81-3.303-.5-.864-3.13.58-4.11.91-.98.334-3.25 2.075-3.89 2.577-.64.5-5.36 3.885-5.5 3.984-.39.29-3.42 2.42-3.43 2.51-.01.09 1.1.67 1.23.56.14-.1.83.05.84.27.01.23.4-.12.8.7s-.12 1.18-.1 1.44c.02.26.61.06.81.42.2.37-.18.84-.12 1.09.06.25.36.21.53.5.17.29-.32 1.24-.32 1.24s3.33-1.58 4.91-2.12c1.57-.54 3.29-2 3.84-2.08.55-.07 3.76-1.41 2.83-2.63-.93-1.22-2.45.06-2.58.12-.13.06-1.64-.19-1.77-.49-.13-.3 1.42-1.52 2.19-1.93zm-6.518 6.856c-.47.382-.83.043-1.15-.68-.15-.34 1.54-.595.94-1.484-.28-.41-1.02-.54-1.46-.35-.23.1-.8-.17-.9-.4-.1-.23 1.62-1.15 1.56-1.62-.07-.47-1.72.19-1.72.19-.06-.34-.13-.94.17-1.07.3-.13 2.23-.47 2.56-.11.33.35 1.08 1.38.75 1.75-.34.37-.43.27-.31.54.11.26 1.06.3 1.35 1.26.28.96-1.35 1.57-1.82 1.95zm16.45-20.136c-.27.133-1.57.446-1.33.794.23.35.81 1.91.9 2.1.08.19 2.38-1.07 2.59-1.41.16-.26-.23-1.26-.5-1.8l-1.15.03c-.2.12-.39.23-.52.3z"/>
  </g>
</svg>
