
<svg xmlns="http://www.w3.org/2000/svg" width="311.811" height="311.811" viewBox="0 0 311.811 311.811">
  
  <g fill="#47372C">
    <path id="paulsmith" d="M142.378 153.923c-1.475.148-5.605 2.804-4.574 3.1 1.034.297 12.166-.23 11.506-.887-.59-.588-5.456-2.36-6.932-2.213zM135.89 143.6c-.74.59 5.602 5.162 7.52 5.016 1.917-.148 1.622-1.328 1.77-2.066.147-.736 3.983-1.03 5.9-1.62 1.918-.593.59-1.624.737-2.51.148-.884-7.078-1.18-8.702-1.18-1.623 0 .15 1.033-.148 2.214-.294 1.178-5.223-1.34-7.078.146zm1.768 8.11c.146-1.178-1.18-2.948-1.77-3.095-.59-.148-1.77-.442-3.098-1.328-1.327-.885-1.623 4.424-.295 6.49.86 1.337 5.016-.885 5.163-2.066zm-24.78-9.88c-1.917 0-1.474 22.126-.442 22.567s5.605 1.474 6.343.884c.73-.58-.74-19.76-.74-20.64 0-.88-2.78-2.8-5.17-2.8zm8.85-2.36c1.624 2.507 1.77 64.75 2.51 65.192.736.442 2.802-2.063 3.98-3.244 1.18-1.182-.147-55.016-.294-56.05s-6.885-6.963-6.196-5.9zm53.248 62.242c.293-.882-5.776-1.223-7.82-.882-.884.145-1.328 12.537-.59 12.83.738.294 7.082.59 8.41.294 1.328-.293-.298-11.354 0-12.242zm-39.973-42.182c1.032.295.886 4.13.588 4.867-.29.736-1.62.146-2.21.146-.59 0-1.47 13.424-.29 17.256 1.18 3.83-.44 18.73 1.18 18.88 1.63.15 3.84 2.95 4.57 3.24.74.29 10.77 2.21 12.69 1.18s0-43.81-.44-45.28c-.44-1.48-17.64-.75-16.07-.3zm1.475 3.983c1.65 0 9-.887 9.44.588.442 1.48.442 14.17.147 16.53-.295 2.36-2.95.74-3.245 1.62-.294.89-.147 1.92-1.328 1.77-1.18-.14-5.457-2.06-6.194-2.8-.737-.74.443-17.7 1.18-17.7zm9.882 34.368c-1.622-.15-11.357.74-11.357-.44s-.59-9.14 1.18-9.29c2.356-.19 10.915-.44 10.915.3s.884 9.59-.738 9.45zm7.817-73.01c-1.326.59-27.15-.22-29.646-.59-3.98-.59 7.97 13.43 9.15 13.72 1.18.3 13.13.3 14.16-.14 1.03-.44.89-2.5 1.62-4.28.74-1.77 5.61-5.75 5.9-6.49.3-.73.15-2.8-1.18-2.21zm-6.932 26.11c1.476.59 4.425 3.4 5.458 2.8 1.033-.59.15-4.86-.295-6.04-.443-1.18-6.713 2.63-5.163 3.25zm29.205 30.82c-1.62-.14-2.51-.14-5.9-.14-3.393 0-3.833 1.48-3.983 2.36-.146.89-.294 7.23-.146 9.59.15 2.37 8.12 1.04 8.71.89 1.36-.34 2.95-12.54 1.33-12.68zm-64.898-11.65c-1.327-.15-.295 17.22-.295 18.73 0 .89 5.752 1.18 7.08.74s.147-13.86.147-14.6-5.424-4.7-6.932-4.86zm-18.734 32.6c0 2.98-.442 11.66.59 12.39 1.034.74 3.098.45 4.28.3 1.178-.14.292-10.76.145-12.68-.145-1.91-5.015-1.33-5.015 0zm7.375-38.05c1.918 0 5.606.15 5.9-1.92.296-2.06 1.034-3.68-.147-5.45-1.18-1.77-8.866-.01-11.062-.89-.738-.3-.295 7.08.295 7.52.59.45 3.09.74 5.01.74zm-6.783 5.02c-.443.15-1.034 6.2-1.034 8.27 0 2.06 2.803.88 5.016.59 2.212-.29 6.933.59 7.52-.29.59-.88 1.033-5.9 1.033-6.78 0-.88-3.392-.29-7.67-.14-4.275.15-3.465-2.09-4.866-1.62zm10.915 14.17c-1.18-1.77-10.022-.15-11.506-.15-.74 0-.15 8.41.44 8.85.59.45 4.47 1.24 5.45-.29 1.32-2.06 4.13-1.32 5.01-2.36.88-1.03 1.77-4.27.59-6.04zm7.52 14.9c-.59 0-.293 14.75.444 15.35.73.59 3.24 0 5.6-.15 2.36-.14-.15-13.12-.15-14.6s-3.98-.59-5.9-.59zm-4.57 1.77c.077-1.26-3.47-1.23-6.05-.59-1.18.3 0 15.05.886 15.93.89.89 3.69.3 5.31.3 1.63 0-.29-13.27-.14-15.63zm8.112-75.66c-.444-1.03-16.018-1.24-18.29-.59-3.098.89 15.984 9.59 17.108 9.59 2.95 0 1.624-7.96 1.182-8.99zm-12.39 13.72c-.945 0-2.256-6.06-6.34-7.08-1.182-.29-1.035 13.13-.592 13.87.442.73 9.59.59 11.21-.45 1.622-1.03.738-6.64.442-7.37-.295-.74-3.54 1.03-4.72 1.03zm52.36-1.03c-.147 1.77 2.213 1.48 2.656 2.36.44.89-2.72 1.37-2.36 2.81.148.59-.295 13.87-.443 14.31-.147.44.884.59 2.655 1.48 1.77.88 0 15.48-1.623 18.58-1.623 3.1-.214 29.62 0 31.12.148 1.03 4.574 2.8 5.014.74.444-2.07.147-79.5 0-80.09-.146-.59-5.752 6.93-5.898 8.7zm38.793 63.12s-1.182 2.07-1.772 3.4c-.587 1.33 0 9.73.888 10.18.885.44 4.13.15 4.865-.3.74-.44-.14-11.8-.29-12.83-.14-1.03-2.36-.44-3.69-.44zM143.558 94.64s-.293 1.032.147 1.917c.444.88-.294 3.68.737 4.122 1.035.44 3.54.14 5.31-.44 1.77-.6 1.918-2.22.738-4.13-1.18-1.92-5.457-1.92-6.932-1.48zm61.21 75.665c0-1.327-2.73-6.76-4.865-6.046-.444.14-.15 3.98-.59 6.19-.445 2.21-1.035-.15-1.622 1.77-.59 1.92-.15 5.02.44 6.34.59 1.33 9.59 1.18 10.92.29 1.33-.88.59-4.72.3-5.9-.29-1.18-4.57-1.32-4.57-2.65zm3.54 14.454c-.293-.88-5.9-1.92-6.047-.44-.19 1.99-5.75.14-6.19 2.06-.21.91-1.62 7.96-.74 8.4.89.44 12.1 1.03 13.43-.45.08-.09-.08-8.51-.44-9.59zm-2.213 15.93c-.737 1.18-2.95 13.42-2.064 14.01.89.59 3.54.44 5.02.15 1.48-.3.3-13.28.3-14.16 0-.88-2.14-1.75-3.24 0zM155.906 0C69.8 0 0 69.802 0 155.906S69.8 311.81 155.906 311.81s155.905-69.8 155.905-155.904S242.01 0 155.91 0zm96.798 67.294c.787 3.148.787 55.853 1.182 69.227.395 13.38.395 46.02-1.573 62.94-1.968 16.91 1.573 47.59 1.573 51.53 0 3.94-14.948 1.58-19.272 3.94-4.327 2.36-24.78 3.54-40.12 1.97-15.337-1.57-38.94-4.72-51.918-3.93-12.98.79-39.726 2.75-53.493 2.75-13.766 0-27.926 1.18-29.892-1.18-1.96-2.36-3.14-41.69-3.54-47.98-.39-6.29.79-57.42-.39-68.44-1.18-11.01-1.22-40.79-.78-46.41.79-10.22-.78-36.18 1.18-36.97 4.88-1.95 71.2-1.18 85.36-.78 14.16.39 29.89-1.18 41.3-.78 11.41.4 45.04-.78 47.4-1.57 2.36-.79 9.64-2.36 12.39-2.36 2.76 0 12.2 10.23 12.2 12.98s-2.36 1.97-1.58 5.11z"/>
    <path id="paulsmith" d="M238.154 117.64c.783-18.09 1.965-46.017-1.573-49.164-2.14-1.902-31.07-1.182-42.48-.395-8.77.61-37.56 1.58-54.08 1.19-16.52-.39-62.04.04-72.27 1.18-3.54.39 1.68 51.53.5 78.66-.85 19.65-.78 83.78-.78 87.32 0 3.54 5.51 4.72 8.26 6.3 2.76 1.57 5.9.79 16.13-1.18 10.23-1.96 47.59-4.32 67.26-1.96s71.59 1.57 76.31-2.36c4.72-3.93 5.11-34.22 5.11-53.49 0-19.27-3.15-47.98-2.36-66.07zm-1.528 89.53c-.588 1.328-3.39 4.722-6.194 4.57-2.803-.145-11.387-.066-13.567.296-1.77.297-1.656 5.738-1.182 9.736.738 6.194 3.688 4.276 7.522 4.573 3.833.295 7.52.146 9.733-.885 1.628-.76 2.065 7.52.737 8.555-1.325 1.03-7.815 1.476-12.24 1.476s-11.646-.44-14.16-.44c-.736 0-.442-5.31-.59-9.14-.092-2.4.59-4.42-1.034-4.87-1.62-.44-36.28.45-39.08 0-2.8-.44-8.55.3-10.62-.59-2.06-.88-4.72-11.06-6.93-11.21-2.21-.15-15.34.15-17.25.3-1.92.15-5.31 9.59-8.4 9.74-3.09.15-28.17-.15-28.46 1.18-.29 1.33-.88 2.66.74 3.55 1.62.89 53.25 1.03 60.18 1.48 6.93.45 40.71 4.87 42.77 5.02 2.07.15-1.62 2.36-14.6 1.63s-25.22-.73-32.15-1.03c-6.93-.29-54.86-.44-58.55-.15-3.68.3-1.18.59-7.37 1.48-6.2.89-8.56 1.18-10.47.45-1.92-.74-5.61-4.42-6.2-5.9-.59-1.47-.59-3.39.74-3.24 1.33.15 15.34.3 16.23-.89.89-1.18-1.47-13.42-2.06-13.72-2.18-1.09-10.77 0-13.13-2.95-1.5-1.87-2.21-3.54-.44-3.69 1.77-.14 13.87.74 13.87-1.62 0-2.36-.15-30.24-.295-31.86-.032-.35 3.297-1.33 3.245-4.28-.06-3.41-.623-10.86-.733-15.63-.04-1.67-2.964-1.59-3.012-3.25-.24-8.38-.59-15.87-1.12-16.07-2.44-.91-9.1-6.64-9.43-13.13-.44-8.55 1.6-13.15 4.13-15.93 4.426-4.86 7.23-10.76 7.23-12.97 0-.89-10.18.44-12.24-1.622s-1.477-8.41.44-8.705c3.514-.54 35.11-.29 38.795-.29 3.69 0 22.86-.59 24.926-.293 2.07.3 24.04.157 26.55 0 7.23-.44 29.06-.734 32.898-.44 3.835.297 36.43-.736 38.643-.59 2.21.15.59 5.75-.74 6.64-1.327.89-3.54 3.84-5.46 4.575-2.24.86-1.48 5.02 3.54 8.85 5.01 3.84 4.19 16.02-.59 22.57-3.98 5.46-10.77 9.29-14.9 9.15-1.51-.05 0 32.154-.445 39.527-.44 7.376.298 35.7-.15 37.17-.44 1.475 17.85.74 19.62.15 1.77-.59 1.92 1.474 1.33 2.8z"/>
    <path id="paulsmith" d="M228.22 106.726c.443-5.162-4.606-8.104-7.374-11.504-5.163-6.343-2.804-10.324-4.278-10.324-2.965 0-13.128-.442-15.19-.442-2.065 0-14.75.295-19.175 0-4.425-.296-32.155-.738-42.923-.296-4.508.187-41.317.25-43.51.738-2.656.59-7.965 11.65-12.39 15.635-2.5 2.25-4.573 10.176-3.392 11.355 1.18 1.18 2.654 6.194 2.802 8.998.066 1.25 1.18 1.476 5.604 1.77 4.424.295 11.21-8.26 10.915-14.748-.3-6.49-3.69-6.05-6.05-5.46s-5.16 3.984-6.34 1.918c-1.18-2.064 1.47-7.67 7.96-8.554 6.49-.886 11.06 1.622 13.13 8.113 2.13 6.705-3.84 14.454-1.92 14.6 5.78.446 60.6.296 68.88.296 8.4 0 22.56-.73 22.71-1.91 1-8.05 8.69-15.53 13.12-16.07 10.91-1.32 13.12 7.23 6.78 6.49-2.64-.3-9 .15-10.92 5.46-1.67 4.62-2.66 6.05 6.34 6.49 6.21.31 14.51-4.59 15.19-12.53zm-78.467-1.18c-2.36.148-3.393.59-5.162-.59-1.77-1.182-2.21-1.77-2.21-1.77s0 11.8-.44 12.537c-.44.737-3.83-.442-5.16-1.77 0 0-.74-23.453.89-24.337 2.26-1.232 2.81 1.917 4.87 1.77.75-.053 9.15-1.476 12.1 1.033 2.19 1.85 2.81 3.39 1.33 8.4-1.24 4.22-3.83 4.57-6.19 4.72zm28.763-3.245c-.592 1.33-5.46.6-5.46-.88 0-.59-2.803-2.5-4.424-3.24-1.623-.74-3.54-.44-2.653 2.66.88 3.1 8.55 6.49 8.69 8.56.15 2.07 1.62 2.51-1.18 4.43-2.81 1.92-3.73 2.46-10.03 1.48-6.64-1.03-7.98-2.86-7.38-5.16.88-3.39 2.8-4.13 3.98-2.36 1.18 1.77 3.39 2.81 5.01 2.36 1.62-.44.89-3.54.15-3.98-3.17-1.89-7.38-5.6-6.64-10.02.5-3.06 5.45-5.02 9.73-4.87 2.33.08 7.95 3.15 9.73 5.61 1.18 1.62 1.03 4.13.44 5.46zm-6.05 70.21c-2.506.3-7.078-1.91-7.226-.44-.15 1.48.147 5.31.147 5.31s8.703.74 9.29.6c.59-.15 3.838-4.42 3.838-4.42l-.592-6.93s-2.947 5.6-5.457 5.9zm12.537 23.01c-.44 1.48 3.688-.14 3.688-.14-.58-1.33-1.03-10.62-1.17-12.54-.14-1.91-2.06 11.21-2.51 12.69zm-18.583-43.51c-1.623.44-.74 13.13-.593 14.46.15 1.33 3.84-.88 3.84-.88 1.03-1.91 5.127-14.62 7.667-15.04 1.77-.29.885-6.05 0-6.49-.884-.44-3.54-.14-4.425-.29s-4.87 7.82-6.49 8.26zm38.645-28.61c-1.772-.88-31.5-.51-33.04 0-.443.15-2.95 2.36-3.096 3.84-.15 1.48-.89 13.28 1.03 11.66 1.91-1.62 9.44-10.76 11.35-10.91 1.92-.14 27.58.89 27.73 0 .15-.88-2.21-3.69-3.98-4.57zm-22.862 34.96c1.325.3-1.18 10.62-1.328 12.98-.146 2.36 12.094.15 12.094.15s.88-2.95.73-6.19c-.15-3.24-1.48-9.58-.74-11.5.73-1.91.29-3.68-.3-4.86-.59-1.18-3.54-2.5-4.87-2.36-1.33.15-.44 5.17-1.33 5.9-.89.74-3.48-.3-5.75-.59-1.19-.14-.74 3.84-.59 5.61.14 1.77.73.6 2.06.89z"/>
    <path id="paulsmith" d="M199.903 157.32c.587 1.03 6.784 2.65 8.26 2.062 1.475-.588-.592-24.188-.738-24.78-.147-.59-19.13-1.097-21.094-.44-.44.146.89 7.67 1.92 8.7 1.03 1.033 6.94.148 9.88.148s1.19 13.274 1.78 14.31zm-14.013 44.098c-.59-.443-3.658-.767-4.722.294-.59.594-.294 12.98.59 13.424.886.444 4.426.588 4.72-.293.297-.89.59-4.576-.147-5.46-.73-.885.15-7.522-.44-7.965z"/>
  </g>
</svg>
