<svg xmlns="http://www.w3.org/2000/svg" width="311.811" height="311.811" viewBox="0 0 311.811 311.811">
  <g fill="#47372C">
    <path d="M210.12 182.723c-.778-.272-1.182-.834-1.557-.982-.323-.12-.917-.1-1.694.44-.78.55-2.04.24-2.07.66-.04.43 1.52 1.1 3.76 1.1 2.23 0 4.09-.57 3.79-.71-.31-.13-1.46-.23-2.24-.5zm5.786-5.45c-.27.54-2.41.788-3.216.674-1.218-.168-1.42-.232-2.03-.168-.608.06-.27.47 0 1.42s1.083.84 3.047.84c1.962 0 2.47-3.32 2.2-2.78zm-136.303-49.92c2.247-.898 14.61 1.68 14.536 0-.2-4.36-6-14.984-6-14.984s-1.2 1.49-3.9 2.99c-2.7 1.5-11.09 2.09-12.29 2.09-1.2 0-6.9 9.89-6.9 9.89s12.29.9 14.54 0zm127.267 49.65c-.712-.712-1.326-.335-2.71-.205-.677.064-1.895-.34-2.165 0s-.27.712.34 1.834c.608 1.123 2.943 1.045 4.094.705 1.15-.34 1.15-1.622.44-2.334zM88.54 156.806s-3.69.517-4.89-.082c-1.2-.598-7.195-5.395-8.694-4.794-1.498.6-11.354 4.794-11.82 16.185-.467 11.39 3.43 15.887 5.827 15.887s10.64-2.7 10.64-2.7-3.917-4.494-4.88-4.196c-.964.3-3.363-.298-3.363-.298s2.698-4.195 8.243-4.195c5.544 0 11.838 5.094 11.838 5.094s4.2-6.964 2.7-11.574c-1.5-4.612-5.6-9.327-5.6-9.327zm-8.937 32.887c-1.35-.6-2.25 4.82-2.25 4.82l23.38 1.774-7.793-6.595c-5.395 2.7-11.988.602-13.337 0zm57.395-68.333l-15.885 10.49s4.795 1.796 4.795 4.494c0 2.695-1.197 8.093-.898 8.99.3.9.6 40.163.898 41.962.3 1.798.6 8.69.6 8.69l8.693 3.898s.9-19.182 1.8-23.377c.9-4.197.3-15.093 0-24.632-.3-9.536 0-30.516 0-30.516zm-25.476 16.388l-12.888 9.086s9.426 12.72 11.09 19.297c2.398 9.48-4.496 17.87-4.496 17.87l9.29 5.7s-1.796-28.17-2.097-30.57c-.29-2.4-.89-21.37-.89-21.37z"/>
    <path d="M45.584 175.905c-1.198-10.486-2.097-20.68 12.59-29.97 14.685-9.29 30.57-4.496 30.57-4.496l5.395-3.6s-20.98.3-23.68 0c-2.7-.3-10.79.6-17.69 0-6.9-.6-20.38 1.79-20.38 1.79-.6 3.89 0 28.17 0 34.76 0 6.59.61 18.8 2.99 19.78 1.77.73 16.18 0 20.98 0 4.79 0 15.88.32 15.88.32s-11.09-5.72-14.69-7.52c-3.6-1.8-10.79-.6-11.99-11.09zm150.498-38.075c.85-.135 2.374-1.167 2.364-1.75-.01-.58.146-.58-1.11-.223-1.254.358-1.433.853-1.836.583-.404-.27-.538-.315-.212-.85.328-.54 2.854-.72 3.08-.9.224-.177-.045-.58-.59-.757-.542-.178-1.966.49-2.49.177-.52-.314-.687-1.658 0-1.658.688 0 2.676-.358 2.49-.448-.184-.09-1.473-1.658-1.607-2.284-.13-.63-.58-1.927-.49-2.646 0 0-.67.27-.98.807-.31.54-.49.5-.58 2.2-.09 1.71-.58 1.66-.8 3.36-.22 1.71.63 3.18.9 3.72s1.03.81 1.88.67zm8.348 35.176c-.235-.98-1.487-1.59-1.59-1.693-.102-.1 1.558-.268 2.438.103.88.372 1.93 1.185 2.098 1.286.17.104.814-.438.975-.574.16-.134 2.01-1.22 3.13-1.168s2.68.966 2.68.966-.51.134-1.22.338-1.56 1.116-1.35 1.557c.2.44.7.94 3.05-.34 1.63-.88 1.05-2.67-.17-3.14-.64-.25-2.4-.77-3.69-1.08-1.28-.3-1.79-1.59-2.26-2.09 0 0-.14.88-1.25 1.25-.87.3-.95.75-2.94 1.26s-2.57 1.26-3.14 2.41c-.58 1.15.1 1.93 1.46 1.97s2.06-.04 1.83-1.02zm18.09-39.61c-1.055-.098-.674-.226-1.22 0-.545.223-.933 1.253-.8 1.3.14.044 1.883.49 2.825.583.94.08.896-.63.807-1.26-.09-.63-1.033-.58-1.613-.63z"/>
    <path d="M265.875 110.645s-38.663.225-41.36.022c-2.696-.2-37.165 1.1-45.257.202-8.093-.9-29.673 1.49-29.673 1.49-2.938.3-1.797 17.98-.898 26.97.898 8.99-.6 39.86.6 45.86 1.2 5.99-2.997 31.76-2.997 31.76s35.366.6 61.143-1.8 66.236 1.79 66.236 1.79-4.8-41.66-5.4-45.86c-.6-4.2-2.4-60.47-2.4-60.47zm-94.62 16.34c.45-.27 4.84 1.254 5.56 2.6.715 1.345.402 2.823 2.687 3.628 2.284.807 4.84.813 5.556.72.718-.092 4.078.094 4.347 0 .27-.092-.76-2.824.226-5.425.99-2.596 3.77-4.705 6.1-5.555 2.33-.853 5.35-2.602 7.24-3.676 2.22-1.255 3.11-2.016 3.11-2.016s-.06 3.1-2.2 4.67c-2.14 1.57-3.4 1.97-3.8 3.72-.4 1.75-.49 5.47-.22 6.41.27.94.53 1.97.53 1.97s2.19-2.77 3.5-5.6c1.31-2.82 2.25-3.94 2.2-4.57-.04-.62.9 1.21.94 2.51.05 1.3-1.25 5.83-1.07 6.54.18.72-3.76 3.9-5.15 5.02-1.38 1.12-4.84 1.97-6.18 2.11-1.34.14-4.79-.27-4.61-.49.19-.22.95-.98.81-1.56-.13-.58-.89-.31-2.19-.18-1.3.13-5.06.36-6.77-.09-1.7-.45-4.75-1.52-5.87-1.61-1.12-.09.09 2.38.99 4.31s3.05 4.53 5.43 5.65 4.94 2.2 5.23 2.02c.29-.18-.25.72-4.51 1.79s-2.64.9-4.12.23c-1.47-.67-5.6-5.02-6.4-8.74-.8-3.72.63-3.81.76-4.88.14-1.07 0-5.82-.67-6.72-.67-.9-1.84-2.46-1.39-2.73zm22.955 53.568c-.27-.845-1.457.24-1.93.44-.476.205-2.166-.44-2.166-.44s1.353-.943 1.963-3.078c.608-2.133.337-2.165.608-2.438.27-.27 1.478.253 1.795.543.762.7 1.354 1.795 1.252 2.367-.103.577 1.22.238 1.184 1.12-.032.88-1.91 3.22-2.706 3.62-.338.17.27-1.287 0-2.134zm1.76-25.114c-.644 0-3.385-1.36-3.148-2.14.236-.78 1.252-1.36 1.963-1.39.372-.02 1.928 1.12 1.963 1.49.034.37-.136 2.03-.778 2.03zm-9.66-13.01c.99.44.855 1.21 2.063.94 1.21-.27 1.974.36 1.21.58-.76.22-2.06.13-2.282.4-.22.27 2.2 1.21 1.97 1.43s-1.65.45-4.07-.32c-2.42-.76-3.09-1.39-3.49-2.29-.4-.9-2.82-4.3-2.82-4.3s1.26-.23 3.14.31c1.89.54 3.19.35 4.75.71s4.07.54 3.99 1.17c-.09.71-2.77-.14-3.72-.09-.94.04-2.33-.41-2.21.31.11.72.52.67 1.5 1.11zm4.445 20.51c.14-.51.916 2.54.646 3.45-.27.91-1.72 1.72-2.74 1.86-1.01.13-1.86-.27-1.86-.27s1.62-1.56 2.33-2.4c.68-.8 1.26-1.26 1.63-2.65zm-14.113-3.56c3.148-2.88 3.743-5.38 3.743-5.38s.792 3.52.354 4.6c-.45 1.08-.41 1.11.3 1.08.71-.04 2.1-1.22 2.4-1.9.3-.68.9-2.09 1.28-1.71.37.36.98 1.06.95 1.4-.04.34-1.69 3.32-2.24 3.59-.55.27-2.34-.74-2.88-.61s-1.9 1.05-2.95 1.73c-1.05.68-1.76 1.72-2.98 1.83-1.22.1-4.44-.21-5.05-.44-.61-.24 3.89-1.32 7.04-4.2zm5.618 19.77c-.27 1.35-.27 3.89-.303 4.94-.037 1.05-.984 2.98-1.187 3.38-.204.4-.982-2.44-.947-3.59.034-1.15.136-2.34-.306-2.2-.44.14-1.895 1.35-2.54 1.79-.642.44-2.267.98-2.91 1.15-.644.17 2.642-4.47 2.91-5.96.272-1.49 1.245-1.95.883-5.08-.035-.29 2.037 1.05 2.606 1.39.65.38 2.538 1.72 2.91 1.86.374.13-.845.95-1.116 2.3zm-3.047-8.71c-1.116.69-2.267 2.01-3.96 2.21-1.692.2-3.486-.41-3.656-.88-.168-.48 3.345-.44 4.943-2.47 2.175-2.78 1.73-3.72 1.73-3.72s1.35 1.96 1.114 2.19c-.238.23 3.52-1.46 4.84-3.39s3.19-3.55 3.56-6.7c.367-3.15.74-5 .74-5 .643.26 1.003 4.33.168 8.55-.574 2.91-2.1 3.62-2.134 4.06-.033.44-.607 2.13-2.69 3.45-2.083 1.32-3.535.99-4.655 1.68zm6.635 3.36c1.016-.54 4.604-3.56 4.942-3.35.378.22.574 1.18.88 1.93.305.74-2.065 2.47-2.472 2.91-.406.44-1.354 1.11-2.47.84-1.118-.27-2.766-1.73-2.855-2.06-.09-.34.96.27 1.975-.27zm5.382 25.66c-.373 1.32-.643 1.62-.643 1.62s.136-2.47-1.896-5.18c-2.03-2.71-3.79-4-4.16-5.54-.37-1.54-.98-4.25-.44-5.94.54-1.7 1.32-2.51 1.32-2.51s1.02 1.76 1.32 2.06c.31.3.41 1.65.24 2.6-.17.95-.37 1.76.58 3.78.95 2.01 2.95 4.59 3.29 5.12.34.54.78 2.64.41 3.96zm4.4 1.52c-.237.95-.27 1.93-.27 1.93s-2.402-2.85-2.47-4.27c-.068-1.43.067-2.14 0-3.02-.068-.88-.882-2.24-.882-2.24.745.17 3.352 2.4 3.622 2.81s.237 3.82 0 4.77zm15.03 11.17c-.168.71-2.437-3.32-2.81-4.03-.373-.71-.88-2.13-1.286-2.34-.406-.2-.913.98-.812 2.23.102 1.25-.136 1.79-.136 1.79s-2.37-.48-2.438-4.13c-.068-3.66.373-2.37-.27-4.47-.644-2.1-3.793-5.11-4.874-6.6-1.083-1.49-4.67-6.84-3.725-6.47.77.3 3.99 3.45 4.77 4.7.77 1.25 5.45 3.99 5.65 5.25.2 1.25 1.22 3.28 1.59 3.55.37.27 1.88 1.58 3.08 3.58 1.55 2.61 1.42 6.19 1.25 6.91zm4.468-10.77c-.102 1.08-1.456 3.45-1.49 4.53-.034 1.08-1.522 3.89-1.522 3.89s-1.05-4.06-.576-5.42c.475-1.36 2.35-4.96 2.742-4.61.39.35.947.5.846 1.59zm-.846-17.13c-2.064 1.25-2.234 1.45-5.72 1.38-3.487-.07-4.706-.85-6.4-2.91-1.69-2.07-2.402-3.83-2.943-4.91-.55-1.08.4-1.96.57-2.2.17-.24-1.86-1.52-2.4-2.37-.55-.84 1.28-4.6 1.59-5.62.3-1.01.67-5.31.88-7.58.2-2.26-1.11-8.64-1.46-9.61-.71-1.99-3.52-4.4-4.47-4.87-.95-.48 2.94-.35 3.96.13 1.23.59 2.94 1.62 3.52 3.55.57 1.93 1.15 5.64 1.65 7.39.51 1.74.81 7.26.84 7.87.03.61-.37 1.05.24 1.08.61.03 2.16-1.32 2.67-1.36.51-.03 1.69 1.252 2 1.624.3.37-.11.646.57.646.67 0 1.62.134 2.16 0s-.17-6.364 0-8.7c.17-2.34.4-6.3 3.11-9.92s4.33-4.3 4.8-4.165c.47.138 3.11 2.88 3.38 2.95.27.07-1.42 1.524-2.57 2.81-1.15 1.287-2.54 3.047-2.85 5.417-.3 2.37-.44 9.44-.27 10.39.17.945-.1 2.096.27 2.5.38.41 2.41 1.695 2.68 2.2.27.51.13 3.52-.21 4.4-.34.88-.74 1.29-.74 1.52 0 .24-.07 1.63.34 2.17.4.54-.55 2.47-1.36 3.05-.81.58-1.73.644-1.73.644s-.1 1.22-2.165 2.47zm8.627-29.65c.03 1.18-.75 1.56-2.13 1.45-1.39-.11-2.03-3.02.54-3.36 1.38-.18 1.54.71 1.58 1.89zm-1.42 43.49c-.31.78-1.9 4.3-2.03 5.99-.14 1.69-.41 3.76-.41 3.76s-3.05-2.37-2.14-6.27c.91-3.9 2.27-6.57 2.84-7.59.57-1.02 2.13-3.35 2.13-3.35.1.57.88 2.33 1.18 2.57.3.24-1.29 4.1-1.6 4.87zm1.86-22.53c-.27-2.29 0-1.61.23-2.15.16-.38.78 2.09 1.18 2.73.4.64.91 1.49.77 1.56-.14.07-1.93.13-2.2-2.15zm2.22 17.51c-.57.3-1.38 1.52-1.38 1.52s-.33-3.75 1.05-5.86c1.38-2.11 1.66-2.64 1.66-2.64 0 .37.28 2.88.68 3.38s-1.45 3.28-2.01 3.58zm2.28-19.84c1.15.81.91 1.05.91 1.05s-2.68-.92-3.59-2.1c-.92-1.19-1.32-2.71-1.19-2.91.13-.21 1.01.81 1.86.91.85.1 0-1.9-.37-2.32-.38-.42-.55-2.18-.07-2.45.47-.28.23-.11.3-1.12.07-1.02.01-2.02.64-2.85.28-.36.27 2.57 2.13 3.86 1.86 1.28 2.74 1.28 2.71 1.76-.04.47-2 .41-3.08 0-1.09-.41-1.25-1.05-1.39-.61-.14.44.13.91 2.04 2.81 1.91 1.89 1.88 2.54 1.81 3.45-.07.91-.34.61-.54.54s-1.39-1.73-2.24-2.03c-.85-.31-1.29-.41-1.46-.38s.34 1.55 1.49 2.36zm-.92-14.32c.68.21 1.82.71 2.06 1.42.23.71 1.18 2.27 1.52 2.37.34.1 1.15.64 1.15.64s-2.58.4-3.59-.88c-1.01-1.29-2.12-3.85-1.15-3.56zm4.26 31.18c-.65 1.08-1.39 1.96-1.39 1.96v-4.77c0-2.51.71-4.71 1.01-4.2.42.71 1.18 2.47 1.59 3.39.4.91-.58 2.54-1.22 3.62zm9.44-5.32c-.02 0-.06-.02-.11-.05-.56-.14-2.96-.64-5.07-2.22-2.54-1.9-2.07-4.61-2.07-6.2 0-1.59.47-3.25.57-3.45.1-.21.88 2.81 1.72 3.55.84.74 1.25-1.93 1.69-3.22.44-1.29-.07-4.03-.41-5.59-.34-1.56 0-2.37 0-2.37.54.41 2.94 2.4 3.25 5.38.3 2.98-.17 4.91-.61 6.94-.44 2.03-1.15 3.35-1.32 3.82-.16.44 1.7 2.972 2.23 3.34.1.03.15.04.1.05zm.91-21.77c-2.68-1.63-2.68-1.46-2.95-1.49-.27-.03-4.07.37-6.33-1.32-2.27-1.69-4.61-5.43-5.05-7.54-.44-2.11-.37-2.48 0-2.86.37-.38 3.25 3.18 4.43 4.02 1.19.85.58 2.48 2.37 4s3.35 2.43 3.89 2.03c.54-.41-1.93-3.46-2-5.51-.07-2.04.03-3.5.03-3.5s1.86 3.412 2.94 4.67c.88 1.02 1.89 3.412 3.08 4.77 1.18 1.35 4.63 3.382 5.01 3.52.37.14-2.78.812-5.45-.81zm10.71-25.41c-1.12.67-2.92 1.48-4.93 5.06-2.02 3.58-3.9 5.38-5.96 5.69s-8.34-.59-9.01-1.26c-.67-.68 5.06.67 7.21-1.04 2.15-1.7 3.76-3.94 4.35-4.57.58-.63 2.51-2.69 2.19-2.91-.32-.23-2.87.31-4.62-.09s-4.73-1.52-5.68-1.7c-.96-.18-3.55-.54-5.66.04-2.11.58-2.6 1.3-2.56 1.75.04.45 1.43.98 2.15 1.34.71.36 2.24-1.35 4.07-1.44 1.83-.098 4.12 1.16 4.66 1.16s2.87.63 3.22.49c.36-.13-3.81 2.42-4.44 3.81-.63 1.39-2.38 1.39-3.63 1.21-1.26-.18.94-1.17.71-1.93-.22-.76-2.28-.72-2.51-.58-.22.14.41-1.295.99-1.39.58-.09 2.31-.13 2.97.14.66.27 1.73.316 1.6-.04-.137-.36-1.12-1.615-3.05-1.3-1.92.313-3.227.49-4.84.625-1.61.14-5.96.36-8.29-.58-2.33-.94-7.03-2.98-8.647-4.4-1.617-1.428-2.42-2.41-2.737-2.41-.316 0-2.24 1.432-3.23 2.06-.986.623-1.93 1.03-1.66.713.27-.31 3.135-4.3 3.36-5.288.224-.99 1.39-2.556 1.21-4.036-.18-1.48-.94-1.976-.94-1.976s2.015.807 2.015 1.34c0 .538.85-.85.45-1.17-.405-.31 2.28 1.3 2.42 2.96.13 1.66.895 3.32 1.434 3.77.53.45 1.25 2.73 1.61 2.73.36 0 1.97-5.64 2.192-6.68.224-1.03.27-5.28-.22-6.31-.49-1.036-.537-2.33-.31-2.38.22-.046 4.252 3.944 4.252 3.944.99 1.16 4.15 5.07 4.57 5.69.9 1.3.762 3.99.9 4.84.133.85.05-.76 3.05-.58 3 .18 6.81 1.34 7.62 1.75.802.4 3.45 1.12 5.87 1.3 2.42.18 1.97.13 4.52 0 2.55-.14 2.42-.58 3.313-.67.895-.09 3.49 1.12 3.49 1.47 0 .36-2.42.13-3.54.8z"/>
    <path d="M222.474 132.41c.83 0 1.663-.046 1.658-.537-.012-1.17-.76-2.78-1.3-2.78-.763 0-1.434 2.33-1.524 2.823-.087.493.655.493 1.166.493zm-.564 3.404c-.538-.084-.555-.536-1.41-.53-.848.008-1.028.797-1.073 1.112-.044.313.717.27 1.3.472.582.203 2.42 1.276 2.912 1.052.49-.225.49-1.434.18-1.614-.32-.18-1.4-.41-1.91-.492z"/>
    <path d="M155.906 0C69.8 0 0 69.802 0 155.906S69.8 311.81 155.906 311.81s155.905-69.8 155.905-155.904S242.01 0 155.91 0zm123.158 226.86c-10.19 1.2-29.97-3.896-47.654-2.697-17.684 1.196-47.057-.6-53.95.3-6.893.896-23.377 5.093-29.07 4.794-5.696-.3-15.286-1.5-16.187-7.494-.898-5.992 2.697-2.395 2.697-2.395s.3-6.896.3-9.292c0 0-7.793-3-11.39-3.598-3.597-.6-10.79-5.097-10.79-5.097s-32.968.9-44.057.31c-11.09-.6-29.674 3.6-39.264 1.2-9.59-2.4-10.73-6.4-11.33-10.6-.6-4.19-.66-38.55-.36-42.45.3-3.89 3.29-14.09 1.5-16.48-1.8-2.4.6-5.69-1.5-5.69 0 0 2.1-2.69 6.29-1.5 4.19 1.2 5.09 3.9 5.09 3.9l17.68-2.1 9.89-11.68s-.9-5.99 7.79-8.69c8.69-2.7 21.88-1.5 24.87-1.2 2.99.3 4.79 3.9 4.79 3.9s.9-.3 3 0c0 0-1.5 3.3 0 5.7s1.8 6.3 3.89 7.79c2.1 1.5-1.5 3.3 0 3.6 1.5.3 6.29.6 7.49 0 1.2-.6 28.47-16.18 28.47-16.18s-3-8.99-6.3-9.89c-3.3-.9 16.19-.3 17.98 0 1.8.3 50.66.6 53.95.9 3.29.3 38.06-1.25 42.26-1.37s25.18-1.92 27.87-1.92c2.69 0 9.59 3.6 10.49 7.49 0 0-2.1 7.19-1.8 18.88.3 11.69 2.69 74.63 4.19 82.42 1.5 7.8 2.4 14.39 2.4 15.29 0 .9.9 2.7-9.29 3.9z"/>
  </g>
</svg>
