<svg xmlns="http://www.w3.org/2000/svg" width="311.812" height="311.811" viewBox="0 0 311.812 311.811">
  <g fill="#47372C">
    <path d="M141.694 118c.976-.13 2.965.098 3.06 0 .1-.097-.19-1.075-.52-1.48-.325-.408-2.606-.245-3.355-.213-.75.032-2.94.358-3.91.425 0 0-1.73.193-2.06.16-.33-.03-2.58.392-2.58.555 0 .164 4.46.327 5.08.392.61.06 3.29.29 4.26.16z"/>
    <path d="M153.56 235.117s-5.788-3.89-9.53-2.85c-3.746 1.04-6.47-4.103-1.36-8.87 5.103-4.765 10.89-11.914 19.742-4.082 8.85 7.83 2.043 15.657 2.043 15.657s20.765 1.083 23.83-2.704c5.045-6.234 6.467-22.146 5.786-25.21-.68-3.064 0-61.274 0-74.212 0-12.937-2.38-56.85-4.76-58.553-2.38-1.703-16-3.064-24.17-3.404-8.17-.34-38.46 2.38-42.89 3.4 0 0-6.47.34-10.89 2.04s-3.74 26.21-3.74 30.98c0 4.76-2.72 49.02-2.72 51.65s-3.95 30.36-2.25 42.62c1.7 12.25-1.83 22.49-.47 27.25 1.37 4.76 8.85 4.76 20.09 6.27 11.24 1.5 31.32 0 31.32 0zm11.235-158.78c2.723 2.722-2.638 7.148-14.596 4.426-7.45-1.696-8.54-.95-8.31-.144l.77.99s-.63-.51-.77-1l-3.32-4.29s23.49-2.73 26.21 0zm-47.66 138.892c-3.745-.35-5.105-4.43-7.828-11.24-2.726-6.81 1.362-26.22 0-36.77-1.363-10.56 1.7-35.75 1.7-40.17 0-4.43 3.063-30.3 2.383-33.71-.68-3.41-3.065-2.04-3.065-2.04l4.427-3.75-.68-3.41s5.784 3.74 7.147 3.4 23.83-3.07 28.93-3.41c5.1-.34 23.82 1.04 27.23 1.71 3.4.67 10.21 2.03 6.81 8.84-3.41 6.81 2.87 34.04.92 38.12-1.95 4.08-.01 34.38.38 49.7.39 15.312.05 20.08 1.75 22.122 1.7 2.05 5.1 5.45 4.76 7.83-.35 2.39-27.24-1.02-32.35 0-5.11 1.02-38.81 3.07-42.55 2.73z"/>
    <path d="M179.09 206.04c-2.38-2.385.343-23.49 0-28.597-.337-5.106-5.105-44.597-5.445-56.17-.34-11.574-1.2-27.072-3.063-28.596-3.743-3.064-18.464-1.36-22.55 0-4.083 1.36-23.067 0-23.067 0-4.22 2.516-5.445 24.51-4.084 34.042 1.37 9.53-4.76 28.93-2.04 44.59 2.73 15.66-1.7 36.69 1.7 36.42 12.6-1 60.94.68 58.55-1.7zm-9.607-31.484c.194.325.913 1.955 1.467 2.508.553.554 1.986 1.63 1.986 1.63s-.88.164-.946.065c-.064-.1-2.638-1.89-3.192-2.68-.554-.78-1.075-1.63-1.3-2.51-.232-.88-.958-4.19-1.11-4.83-.456-1.92-.648-7.04-.49-8.44.166-1.41.197-8.21.295-8.77.098-.56.26-8.41-.164-10.23s-.75-5.6-2.54-7.63c-1.8-2.02-3.59-2.96-5.15-2.83-1.57.13-4.92 1.47-6.13 2.54s-5.02 4.43-5.97 5.96c-.95 1.53-3 5.08-3.46 6.55-.46 1.46-1.21 4.39-.1 6.74 1.07 2.28 2.44 3.22 2.44 3.22s-.43-3.23-.4-5.35c.03-2.12.88-6.32 1.37-7.33.49-1.01 1.04-2.41 1.46-2.61.42-.198 1.14-1.11 1.17-1.208.03-.1.91-.49 1.07-.33.16.166.26.33.26.33s-1.63 2.64-2.318 5.405c-.686 2.77-1.14 6.19-1.14 7.88 0 1.695.65 5.313 1.11 5.313.452 0-.133-1.954.224-3.26.36-1.3.19-2.36.29-3.286.17-1.4.46-2.83.75-2.64.3.2-.03 2.97.04 4.04.06 1.08.16 4.79.62 6.84.453 2.057 2.24 4.4 2.99 4.99 1.957 1.53 4.14 2.02 4.14 2.02s-1.303-1.694-1.76-2.77c-.453-1.074-.846-1.66-1.205-3.226-.356-1.563-.586-2.77-.55-2.834.03-.06.845.422 1.433 1.6.582 1.17 1.364 3.29 1.79 3.94.422.65 1.202 2.02 2.8 3.09 1.59 1.074 2.54 2.02 3.35 2.9.81.88 2.38 3.62 2.41 3.95.03.322.59-1.11.59-1.6s.16.974.42 1.56c.26.585 1.14 2.282 1.34 2.8.32.846 1.53 2.15 1.53 2.15s-1.53-.555-2.02-.815c-.49-.26-.49-.36-.69 0s-.59 1.105-.65 1.53c-.07.42-.49-1.99-.85-2.575s-.684-1.857-.684-2.15c0-.294-1.364-1.76-2.54-2.64-1.17-.88-2.02-1.24-2.733-1.727-.72-.49-1.303-1.04-1.303-1.04s-.59.36-.684.813c-.1.453.09 4.3.09 4.85 0 .55-.03 4.79.04 5.86.065 1.074.13 4.853.16 5.504.035.655-.095 4.01.135 4.3.224.298 2.54 1.406 2.83 1.536.3.13 2.25.91 2.45.977.19.07 1.07.43 1.07.62 0 .2.358 1.6.227 1.6-.13 0-3.29-1.4-3.65-1.56-.36-.16-2.87-1.336-2.962-1.466-.1-.13-1.078.36-1.34.59 0 0 .325.355.392.78.06.42-1.044-.33-1.66-.295-.62.03-1.403-.1-1.63-.195-.23-.1-1.207 1.236-1.69 1.628-.49.39-1.27 1.43-1.438 1.366-.16-.067-.42-1.79-.16-2.05.26-.26 1.43-1.66 1.76-1.79.32-.13-1.04-.56-1.66-.49-.62.06-2.7.68-3.09.88-.39.19-1.854 1.3-2.34 1.63-.49.32-1.27.353-1.37 0-.098-.36.59-1.53.78-1.96.19-.42 2.02-.845 2.28-.75s1.07-.06 1.69-.39c.618-.32 3.16-1.334 3.45-1.95.297-.62.526-1.79.49-2.38-.03-.59.068-6.97.036-7.62-.03-.65.066-5.7-.39-7.07-.455-1.37-.685-6.386-.685-6.386s-.46-.45-.95-1.14c-.493-.71-.85-1.01-.85-1.01v1.17s-.465-.41-.714-1.205c-.18-.586-.39-.91-.39-.91l-1.073-.91s-.26-.13-.16.42c.1.56.75 1.86 1.11 2.74.36.88.75 1.76.75 1.76s-1.147-.66-1.598-1.14c-.46-.49-1.11-1.564-1.31-1.955-.196-.39-.36-.91-.36-.91l.262.13s-.42-2.116-.39-2.67c.03-.55.1-1.237.1-1.237s-.46-.52-.69-.72c-.23-.192-.782-.942-.782-.942s.067 2.12.165 2.28c.1.167.1 1.83.1 1.83s-1.76-2.087-2.02-2.934-1.073-2.242-1.073-6.09c0-3.842.78-8.47.98-8.99.19-.52.614-2.114.614-2.114s-.582-.85-.844-1.465c-.27-.62-.43-1.21-.43-1.21s-.554.847-.62 1.727-.064 1.468-.064 1.468l-.26.59s-.72-1.27-.49-2.964c.23-1.693.33-1.99.33-1.99l-.39-.1s-.59 1.5-.59 1.96-.1 2.216-.23 2.704c-.13.49-.613-2.8-.58-3.81.03-1.01-.1-2.31.58-3.226.688-.91.52-.78.52-.78s-.124-3.224.626-5.31c.75-2.084 3.22-4.01 3.68-4.23.457-.23 1.66-.88 1.66-.88s-1.453-1.15-2.444-1.47c-.816-.26-1.5-.72-1.955-1.21 0 0-4.32-.705-4.82-.81-.7-.157-6.28-.57-7.13-.65-2.44-.23-7.43-1.73-7.43-1.73s9.06-1.86 13.07-2.25c4.01-.39 9.124-.88 9.124-.88s.29-.46 1.04-.72c.745-.26 1.14-.03 1.56 0 .424.03 1.174-.39 1.5-.33l.323.07s.13-.36.42-.555c.29-.195.62-.52.78-.487.17.03 3.328.355 3.88.485.557.13 2.348.192 2.608.324.26.13.718.584 1.01.68.296.1.8-.09 2.085.07 1.768.23 2.936.72 4.24 1.02 1.3.293 3.29 1.5 4.14 1.99.85.49 1.79 1.04 2.44 1.76.65.714 1.96 2.64 2.15 2.9.2.26.65 1.82.65 1.82s-1.89-2.09-2.86-2.835c-.98-.75-1.756-1.47-2.7-1.89-1.5-.65-2.97-.8-2.97-.8s1.27.9 2.09 1.42c.81.52 2.12 2.12 2.7 2.87.59.75 1.04 1.725 1.34 2.15.29.422.65 1.824.65 1.824s-1.6-2.38-2.8-3.68c-1.202-1.31-2.93-2.647-3.973-3.215-1.04-.57-2.147-1.386-3.52-2.038-1.366-.65-2.537-1.4-2.8-1.435-.26-.03-1.205-.195-1.56-.13-.36.064-1.568.49-3.26.424-1.696-.07-2.836-.43-2.836-.43s-1.2-1.04-1.5-1.2c-.29-.16-1.36.195-1.63.26-.26.07-.91.49-1.01.655-.09.16.49 1.14.72 1.69.23.55.56 1.01.23 1.826s-.72 1.17-1.37 1.4c-.65.23-.91.59-.85.68.07.1 1.53 1.468 1.92 1.695.4.23 1.38-.13 2.16-.1.78.036 4.104.13 5.41.36 1.3.23 2.93.815 3.744 1.14.81.33 2.085.75 2.996 1.175.91.42 1.79.52 2.117.45.33-.06 1.21.2 1.21.2s-1.6 1.305-2.805 1.24c-1.205-.065-1.693-.163-2.734-.49-1.04-.325-3.842-1.596-4.66-1.66-.81-.065-3.58-.39-5.18-.33-1.592.07-2.83.91-3.45 1.077-.62.16-1.14.72-1.14.72l.23.26s-1.08.713-1.462 1.202c-.39.49-1.11 1.66-1.34 3-.23 1.335-.13 1.953-.13 1.953s.43-.62 1.08-1.204.918-1.01 1.14-.88c.23.13-.35 1.302-.52 2.083-.16.78-.254 2.214-.254 2.214s.52-.52.62-1.11c.1-.58.428-.91.428-.91s-.1.296.03.426.325.06.325.224v.69l.59-.326-.16 1.6c-.07.59.06 1.73.29 1.76.23.036 1.104-2.02 1.76-2.64.65-.62.94-.974 1.33-1.04.397-.064 2.97-2.51 3.91-3.06 1.158-.675 1.76-.98 2.77-1.272 1.01-.294 4.27-.49 5.217-.36.95.13 1.5.294 1.96.59.458.29.85 1.01 1.566 1.236 0 0 2.732 2.86 3.16 4.56.1.417 1.59 4.33 1.723 7 .13 2.68.194 6.13.16 6.98-.03.847-.846 4.757-.91 5.28-.066.52-.166 3.776.064 4.98.228 1.21.39 2.735 1.5 4.3 1.3 1.84 1.14 1.568 2.375 2.545 1.24.977.913.88.913.88s-.62.23-1.14 0c-.524-.23-2.02-2.023-2.25-2.32-.23-.29-1.14-1.66-1.14-1.66s.02 1.65.78 2.803c1.14 1.72 1.89 2.24 1.89 2.24s-.944-.197-1.724-.88c-.782-.687-1.01-.914-1.01-.914s.457 2.51.65 3.485c.194.976.72 2.64 2.116 3.94 1.4 1.304 2.38 1.466 2.64 2.184 0 0-3-1.3-2.97-1.5.03-.19-.455-.39-.52-.483-.055-.095-.51-.03-.314.296zm-17.265-12.444c-.11.27-1.27-1.694-1.468-2.932-.09-.58 0-1.662 0-1.662 0 .163.814.585 1.01 1.466.198.88.73 2.444.458 3.128zm7.036-40.853c-.52-.49-.717-.79-.717-.79v-1.01c.456.19 1.563 1.2 1.727 1.4s.327.98.423 1.66c.098.68.326 1.2.23 1.46-.1.26-.49.32-.587-.17-.098-.49-.556-2.09-1.076-2.57zm.75 2.57s-.488.5-.75.36c-.26-.14-1.01-1.44-1.01-1.54 0-.1.293-1.34.293-1.34.195.23.968 1.49 1.202 1.82.23.32.26.68.26.68zm.75-3.36c-.292-.33-.555-1.47-.914-1.6-.357-.13-.586-.79-.586-.79.13-.13.52-.26.912 0 .39.26 1.27 1.79 1.335 2.31.07.52.33 1.89.2 2.21-.13.32-.65-1.83-.94-2.15zm-11.306-2.38c-.295 0-1.923-.56-.653-1.6.22-.18.717-.23 1.304.52.58.75-.36 1.07-.66 1.07zM162.38 129c-.34-.09-.53-.77-.74-.756-.09.043-.132.05-.03.007h.03c.16-.07.46-.23.52-.41.1-.29 1.4 0 1.66-.16.265-.16-1.073 1.44-1.43 1.34z"/>
    <path d="M143.387 136.733c-.16.195-.855-.022-.78.228.194.66-.165 2.84 0 2.84.163 0 .614-.39.614-.39l.56-1.24s.13-1.98 0-1.89c-.13.1-.23.26-.39.46zm-2.8-17.787c-.426.007-4.27.16-4.074.16.196 0 .88.328 2.045.397 1.167.066 2.158.485 2.71.55.557.064.753-.032 1.502-.163.75-.13 1.76-.39 1.76-.52 0-.132-1.304-.393-1.988-.424-.686-.033-1.955 0-1.955 0zm13.023 56.132c.144 1.16-.074 4.13.072 6.74.144 2.608-.327 7.933-.327 7.933.398 0 1.23.84 1.378.95.143.11 1.12-.25 1.157-.54.037-.29-.108-3.22-.194-4.6-.084-1.37-.203-2.82-.022-3.69.18-.87-.76-4.13-.76-4.13l.435.11s-.11-2.75-.26-3.48c-.15-.72-.62-6.77-.62-6.77-.22.11-.87-.43-1.12-.32-.26.11-.04 1.23 0 2.03.03.8.11 4.64.25 5.8zm50.332-96.708c2.043 3.738 0 41.54.548 44.945s-1.228 90.553 0 98.722c.572 3.806-5.996 15.66-5.996 15.66s8.852 2.725 8.72 1.702c-.13-1.03 2.517-104.86 2.517-111.32 0-6.47 1.71-45.28 0-46.47-1.7-1.19-5.78-3.25-5.78-3.25zM150.2 241.783c-6.853-.683-41.855-2.155-41.855-2.155s1.3 7.26 2.66 7.26 13.958 2.723 19.064 3.064c5.1.34 10.21 0 10.21 0s-2.73-4.386-3.41-5.085c-.68-.702 19.06-1.723 22.47-1.042s4.79 5.75 6.14 6.278c1.35.53 39-2.876 39-2.876l-8.38-5.784s-39.07 1.022-45.92.34z"/>
    <path d="M155.906 0C69.802 0 0 69.802 0 155.906S69.802 311.81 155.906 311.81s155.905-69.8 155.905-155.904S242.01 0 155.91 0zM217.9 145.784c.34 14.637 0 52.765-.34 68.424-.342 15.658-3.403 30.98-3.403 30.98l4.083 2.722s-5.105 4.087-17.02 4.766c-11.916.68-40.51 3.283-52.086 2.833-11.574-.45-38.808-.8-44.936-5.56-6.128-4.77-6.128-13.96-6.128-13.96s-6.81-2.39-6.81-8.17 5.106-84.43 5.106-89.19c0-4.77.43-36.86 1.362-41.53 2.043-10.22.68-31.66 3.744-28.94 1.548 1.37 46.63-5.79 54.47-5.79 42.212-.02 40.51 5.78 40.51 5.78s15.317 4.76 21.445 11.91c6.132 7.15-.337 51.06.002 65.7z"/>
    <path d="M152.035 221.357c-6.553 4.625-1.878 9.53 1.524 10.91 3.4 1.38 5.78-.357 5.78-3.422 0-3.063-3.8-9.97-7.31-7.488z"/>
  </g>
</svg>
